<?xml version="1.0" encoding="utf-8"?>
<!-- Generator: Adobe Illustrator 18.1.1, SVG Export Plug-In . SVG Version: 6.00 Build 0)  -->
<svg version="1.1" id="Ebene_1" xmlns="http://www.w3.org/2000/svg" xmlns:xlink="http://www.w3.org/1999/xlink" x="0px" y="0px"
	 viewBox="0 0 1024 1024" enable-background="new 0 0 1024 1024" xml:space="preserve">
<rect x="-5.1" fill="#FF931E" width="1087.8" height="1032.8"/>
<g>
	<path fill="#FFFFFF" d="M111.2,946.3c2.8,1.7,6.9,3.2,11.2,3.2c6.4,0,10.2-3.4,10.2-8.3c0-4.5-2.6-7.1-9.1-9.6
		c-7.9-2.8-12.8-6.9-12.8-13.8c0-7.6,6.3-13.2,15.7-13.2c5,0,8.6,1.2,10.7,2.4l-1.7,5.1c-1.6-0.9-4.8-2.3-9.2-2.3
		c-6.6,0-9.1,4-9.1,7.3c0,4.5,3,6.8,9.6,9.4c8.2,3.2,12.4,7.1,12.4,14.3c0,7.5-5.5,14-17,14c-4.7,0-9.8-1.4-12.4-3.1L111.2,946.3z"
		/>
	<path fill="#FFFFFF" d="M158.2,953.9l-15.8-48.5h6.8l7.6,23.9c2.1,6.6,3.9,12.5,5.2,18.1h0.1c1.4-5.6,3.4-11.7,5.5-18.1l8.2-24h6.7
		l-17.4,48.5H158.2z"/>
	<path fill="#FFFFFF" d="M224.6,951.7c-2.8,1-8.4,2.7-14.9,2.7c-7.3,0-13.4-1.9-18.1-6.4c-4.2-4-6.8-10.5-6.8-18.1
		c0.1-14.5,10-25.1,26.3-25.1c5.6,0,10,1.2,12.1,2.2l-1.5,5.1c-2.6-1.2-5.8-2.1-10.7-2.1c-11.8,0-19.5,7.3-19.5,19.5
		c0,12.3,7.4,19.6,18.7,19.6c4.1,0,6.9-0.6,8.4-1.3v-14.5h-9.9v-5h16V951.7z"/>
</g>
<g>
</g>
<g>
</g>
<g>
</g>
<g>
</g>
<g>
</g>
<g>
</g>
<g>
</g>
<g>
</g>
<g>
</g>
<g>
</g>
<g>
</g>
<g>
</g>
<g>
</g>
<g>
</g>
<g>
</g>
</svg>
