#define newmail_width  64
#define newmail_height 64

static unsigned char newmail_bits[] =
{
    0xff, 0xff, 0xff, 0xff, 0xff, 0xff, 0xff, 0xff, 0x01, 0x00, 0x00, 0x00,
    0x00, 0x00, 0x00, 0x80, 0x01, 0x00, 0x00, 0x00, 0x00, 0x00, 0x00, 0x80,
    0x01, 0x00, 0x00, 0x00, 0x00, 0x00, 0x00, 0x80, 0x01, 0x00, 0x00, 0x80,
    0x07, 0x00, 0x00, 0x80, 0x01, 0x00, 0x00, 0x70, 0x38, 0x00, 0x00, 0x80,
    0x01, 0x00, 0x00, 0x0e, 0xc0, 0x00, 0x00, 0x80, 0x01, 0x00, 0xc0, 0x01,
    0x00, 0x01, 0x00, 0x80, 0x01, 0x00, 0x38, 0x00, 0x20, 0x02, 0x00, 0x80,
    0x01, 0x00, 0x06, 0x00, 0x38, 0x04, 0x00, 0x80, 0x01, 0xc0, 0x1f, 0x00,
    0x3e, 0x04, 0x00, 0x80, 0x01, 0x30, 0x60, 0x80, 0x3f, 0x08, 0x00, 0x80,
    0x01, 0x08, 0x80, 0x80, 0x3f, 0x08, 0x00, 0x80, 0x01, 0x04, 0x07, 0x81,
    0x3f, 0x10, 0x00, 0x80, 0x01, 0x82, 0x0f, 0x82, 0x3f, 0x10, 0x00, 0x80,
    0x01, 0x82, 0x0f, 0x82, 0x1f, 0x10, 0x00, 0x80, 0x01, 0x01, 0x07, 0x84,
    0x07, 0x20, 0x00, 0x80, 0x01, 0x01, 0x00, 0x84, 0x01, 0x20, 0x00, 0x80,
    0x81, 0x00, 0x00, 0x88, 0x00, 0x20, 0x00, 0x80, 0x81, 0x40, 0x00, 0x88,
    0x00, 0x20, 0x00, 0x80, 0x81, 0xa0, 0x00, 0x88, 0x00, 0x20, 0x00, 0x80,
    0x81, 0x12, 0xa3, 0x88, 0x00, 0x20, 0x00, 0x80, 0x41, 0x4e, 0xa6, 0x90,
    0x00, 0x20, 0x00, 0x80, 0x41, 0xa6, 0xac, 0x90, 0x01, 0x20, 0x00, 0x80,
    0x41, 0x42, 0xa9, 0x90, 0x01, 0x20, 0x00, 0x80, 0x41, 0x81, 0xb0, 0x10,
    0x00, 0x20, 0x00, 0x80, 0xc1, 0x00, 0xa0, 0x17, 0x00, 0x20, 0x00, 0x80,
    0x41, 0x01, 0x40, 0x10, 0x00, 0x20, 0x00, 0x80, 0x41, 0x02, 0x82, 0x10,
    0x00, 0x20, 0x00, 0x80, 0x41, 0x06, 0x05, 0x17, 0x00, 0x20, 0x00, 0x80,
    0x41, 0x88, 0x0a, 0x12, 0x00, 0x30, 0x00, 0x80, 0x41, 0xfe, 0xff, 0x17,
    0x00, 0x3c, 0x0e, 0x80, 0x41, 0x00, 0x00, 0x10, 0x00, 0x0f, 0x11, 0x80,
    0x41, 0x00, 0x00, 0x10, 0xc0, 0x1b, 0x11, 0x80, 0x41, 0x00, 0x00, 0x10,
    0xf0, 0xe4, 0x10, 0x80, 0x41, 0x00, 0x00, 0x10, 0x3c, 0x84, 0x08, 0x80,
    0x41, 0x00, 0x00, 0x10, 0x0f, 0x88, 0x3c, 0x80, 0x41, 0x00, 0x00, 0xd0,
    0x03, 0xf0, 0x43, 0x80, 0x41, 0x00, 0x00, 0xf0, 0x01, 0x8c, 0x43, 0x80,
    0xc1, 0xff, 0xff, 0x3f, 0x01, 0x82, 0x24, 0x80, 0xc1, 0xff, 0xff, 0x1f,
    0x01, 0x82, 0x18, 0x80, 0x01, 0x00, 0x02, 0x02, 0x01, 0xfc, 0x08, 0x80,
    0x01, 0x00, 0x02, 0x02, 0x01, 0x20, 0x09, 0x80, 0x01, 0x00, 0x02, 0x02,
    0x01, 0x10, 0x06, 0x80, 0x01, 0x00, 0x02, 0x02, 0x01, 0x10, 0x00, 0x80,
    0x01, 0x00, 0x02, 0x02, 0x01, 0x08, 0x00, 0x80, 0x01, 0x00, 0x02, 0x02,
    0x01, 0x08, 0x00, 0x80, 0x01, 0x00, 0x02, 0x02, 0x01, 0xb4, 0x3f, 0x80,
    0x01, 0x00, 0x02, 0x02, 0x01, 0x0e, 0x28, 0x80, 0x01, 0x00, 0x02, 0x02,
    0x01, 0x03, 0x16, 0x80, 0x01, 0x00, 0x02, 0x02, 0x81, 0xc0, 0x11, 0x80,
    0x01, 0x00, 0x02, 0x02, 0x41, 0x38, 0x08, 0x80, 0x01, 0x00, 0x02, 0x02,
    0x21, 0x04, 0x04, 0x80, 0x01, 0x00, 0x02, 0x02, 0x11, 0x03, 0x02, 0x80,
    0x01, 0x00, 0x02, 0x02, 0xc9, 0x80, 0x01, 0x80, 0x01, 0x00, 0x02, 0x02,
    0x25, 0x60, 0x00, 0x80, 0x01, 0x00, 0x02, 0x02, 0x13, 0x18, 0x00, 0x80,
    0x01, 0x00, 0x02, 0x02, 0x01, 0x07, 0x00, 0x80, 0x01, 0x00, 0x02, 0xc2,
    0xfe, 0x00, 0x00, 0x80, 0x01, 0x00, 0x02, 0x32, 0x00, 0x00, 0x00, 0x80,
    0x01, 0x00, 0x02, 0x0e, 0x00, 0x00, 0x00, 0x80, 0x01, 0x00, 0xfe, 0x03,
    0x00, 0x00, 0x00, 0x80, 0x01, 0x00, 0x00, 0x00, 0x00, 0x00, 0x00, 0x80,
    0xff, 0xff, 0xff, 0xff, 0xff, 0xff, 0xff, 0xff};
