/* XPM */
static char * database_xpm[] = {
"34 47 69 1",
" 	s None	c None",
".	c #e7e7e7",
"X	c gray84",
"o	c #adb1b1",
"O	c #7e8380",
"+	c #5b736c",
"@	c gray55",
"#	c gray87",
"$	c gray97",
"%	c #56676f",
"&	c #426a6f",
"*	c #5d9082",
"=	c #769197",
"-	c #7bbda5",
";	c #7bbdad",
":	c #587a7a",
">	c #5e6763",
",	c gray58",
"<	c gray45",
"1	c #525a5a",
"2	c #3b5355",
"3	c #a5a5a5",
"4	c #737b77",
"5	c gray61",
"6	c #949c9c",
"7	c gray74",
"8	c #6bb5a1",
"9	c #153b5d",
"0	c #c6c6c6",
"q	c #7bb5a9",
"w	c #84b5a5",
"e	c gray42",
"r	c gray26",
"t	c #8cb5ad",
"y	c #81a69e",
"u	c #394a4a",
"i	c #146e59",
"p	c #ced6ce",
"a	c #11967c",
"s	c #efffef",
"d	c #1f7a79",
"f	c #efefef",
"g	c #21a27e",
"h	c #d6e7e7",
"j	c #dee7e7",
"k	c #35a688",
"l	c #a5b5bd",
"z	c #bddede",
"x	c #cee7e7",
"c	c #39ad94",
"v	c #4cad96",
"b	c #a5ceda",
"n	c #bdded6",
"m	c #5ebba1",
"M	c #6fc6b1",
"N	c #84c6b5",
"B	c #91d0bd",
"V	c #9cdec6",
"C	c #a5dece",
"Z	c #1b505a",
"A	c #15473f",
"S	c #848c8c",
"D	c #cecece",
"F	c #d0d8de",
"G	c #29a077",
"H	c #b5bdbd",
"J	c #a5adad",
"K	c #9cd0c5",
"L	c #738884",
"                                  ",
"          .XoO++++++@o#$          ",
"        #@%&*=-;;;;-=:&>,.        ",
"      #<1*;;;;;;;;;;;;;;*2O.      ",
"     @1=;;;;;;;;;;;;;;;;;;*13     ",
"    4*;;;;;;;;;;;;;;;;;;;;;;&5    ",
"   4*-;;;;;;;;;;;;;;;;;;;;;;-+6   ",
"  7:-;;;;;;;;;;;;;;;;;;;;;;;;-&   ",
"  >-;;;;;;;;;;;;;;;;;;;;;;;;;;89  ",
" 7*;;;;;;;;;;;;;;;;;;;;;;;;;;;-:0 ",
" 4q;;;;;;;;;;;;;;;;;;;;;;;;;;;;w5 ",
" e;;;;;;;;;;;;;;;;;;;;;;;;;;;;;8, ",
"$r;;;;;;;;;;;;;;;;;;;;;;;;;;;;;t, ",
"$r;;;;;;;;;;;;;;;;;;;;;;;;;;;;;y, ",
"$u;-;;;;;;;;;;;;;;;;;;;;;;;;;;;;, ",
"$2;;;;;;;;;;;;;;;;;;;;;;;;;;;;;;, ",
"$2i;-;;;;;;;;;;;;;;;;;;;;;;;;;;p, ",
"$2ai;;;;;;;;;;;;;;;;;;;;;;;;;;p#, ",
"$2aai;;;;;;;;;;;;;;;;;;;;;;;;0s#, ",
"$2aaad;;;;;;;;;;;;;;;;;;;;;;0fs#, ",
"$2aaaagi;;;-;;;;;;;;;;;;;;;hjfs#, ",
"$2aaaakkkd;;;;;;;;;;;;;;lzxxjfs#, ",
"$2aaaakkcccvv;;;;;;;;;bnzzxxjfs#, ",
"$2aaaakkcccvmmMMMNBBVCbnzzxxjfs#, ",
"$2aaaakkcccvmmMMMNBBVCbnzzxxjfs#, ",
"$2aaaakkcccvmmMMMNBBVCbnzzxxjfs#, ",
"$2aaaakkcccvmmMMMNBBVCbnzzxxjfs#, ",
"$2aaaakkcccvmmMMMNBBVCbnzzxxjfs#, ",
"$2aaaakkcccvmmMMMNBBVCbnzzxxjfs#, ",
"$2aaaakkcccvmmMMMNBBVCbnzzxxjfs#, ",
"$2aaaakkcccvmmMMMNBBVCbnzzxxjfs#, ",
"$2aaaakkcccvmmMMMNBBVCbnzzxxjfs#, ",
"$2aaaakkcccvmmMMMNBBVCbnzzxxjfs#, ",
"$2aaaakkcccvmmMMMNBBVCbnzzxxjfs#, ",
"$2aaaakkcccvmmMMMNBBVCbnzzxxjfs#, ",
" <aaaakkcccvmmMMMNBBVCbnzzxxjfs#, ",
" oiaaakkcccvmmMMMNBBVCbnzzxxjfsX3 ",
" $ZaaakkcccvmmMMMNBBVCbnzzxxjfs,. ",
"  eaaakkcccvmmMMMNBBVCbnzzxxjf.@  ",
"  #AaakkcccvmmMMMNBBVCbnzzxxj.SD  ",
"   3igkkcccvmmMMMNBBVCbnzzxxF@3   ",
"    @2GkcccvmmMMMNBBVCbnzzxH4o    ",
"     0%ikccvmmMMMNBBVCbnzz@4X     ",
"       J1&kvmmMMMNBBVCbKSe3       ",
"        $o<22+:888q=L%%eo         ",
"             07,,,,oD$            ",
"                                  "};
