/* XPM */
static char * mail_xpm[] = {
"53 44 10 1",
" 	s None	c None",
".	c #3366aa",
"X	c #888888",
"o	c #305060",
"O	c black",
"+	c gray60",
"@	c #aaaaaa",
"#	c white",
"$	c #aa9988",
"%	c #ffaa99",
"                                                     ",
"                 .X.X.X.                             ",
"             o..........O.O..                        ",
"           o.O+X+.O.O.@XX.XOOO.                      ",
"         XO.O.O.O@XO.OXXXXO.OOOO                     ",
"       +.O.O.++O.X...X..@XXO.O.OO                    ",
"       .O.O.+@X@@@@.X@X@XXXXO.O.OO                   ",
"      .O.O..@X..X@@@@X@X@XO.XO.O.OO                  ",
"     .O.O.O....XX@@@@@X@XXXXO.O.O.OO                 ",
"     O.O.....XX@#@#@@X@X@X@X.OOOXO.O.                ",
"    O.O.O.O..@##@@@@@@@@XXX.O.XO..OOO.               ",
"   ..O....X@#@#@#@#@@X@X@X@O.OXOO.XOOO               ",
"   .O.O..X@#####@#@@@@@@X@XXX.O.O.O.OO.              ",
"   O.++X.X#@#@#@#@#@@@@X@X@X.O.O.O.O.OO              ",
"  ..O++@@.######@#@@@@@@XXXXO.O.O.O.O.O.             ",
"  oO.X..#@#@#@#@#@#@@X@X@X@O.O.O.O.OOOO.             ",
" oo@O.@..#@#@#@#@@@@@@@@X@X.O.O.O.O.O.OO             ",
" .XX@O.@#.#@#@#@#@#@@X@X@X@O.O.O.O.OOXOO             ",
" oX@X@O@@@@@@@@@@@@@@@@@XXX.O.O.O.OO#OOO             ",
" .XX@XXO.XX@@#@#@@@@@X@X@X@X.O.O.OO###OO    .        ",
" .X+X@@XO.O.O@@@@@@@@@XXXXXXX.O.OO#####O  oOOO       ",
" oX+@X@O.O.O.O.X@X@X@X@X@XX.X.X.O###@###OOO##O.      ",
" oXX++X.O.O.O.O.@@@@XXXXXXXX.X.O###@#@ooo#####O      ",
" oXXX++O.O.O.O.OXO@X@X@XX.X.X.O###@#ooo####@##OO     ",
" oXXXX+.O.O.O.O.O.O.XXXXXXXX.O###@ooo####@@####O     ",
" ooX.XXX.O.O.O.O.O.O..X.X.X.O###@oo####@@##@@##OO    ",
"  oXXXXX..O.O.O.O.O.OXXX.X.O###oo####@@##@@#####O    ",
"   .X.XXXX.O.O.O.O.OXOOOOOOOooooooooooooooooooooooO  ",
"   OXXXXXXX.O.O.O.O.XO############################O  ",
"   o..X.X.XO.O.O.O..XO##ooo@#@###############$%$##O. ",
"   oO..X.XX.O.O.OXXX.O##@#@o@################$$$##OX ",
"     ...X.XO.O.OX.X.XO#######################.%%##O. ",
"     oO..X..O.O..X...O#######################%%%##OX ",
"      oo..XO.OX.X.X..O###########Xooo@############O. ",
"       oO...O........O############################OX ",
"        o....O......OO###########Xoooo@X@@@#######O. ",
"         ooO.........O############################OX ",
"           ..O.O.O.O.O###########oo@oooooo########O. ",
"             .O.O.O.OO############################O  ",
"               ..O.O.O############################O. ",
"                     O############################O  ",
"                      ooOOOOOOOOOOOOOOOOOOOOOOOOOOO. ",
"                        . . . . . . . . . . . . . .  ",
"                                                     "};
