/* XPM */
static char * client_xpm[] = {
"49 63 112 2",
"  	s None	c None",
". 	c #e7e7e7",
"X 	c gray84",
"o 	c #ceced6",
"O 	c #869eb6",
"+ 	c #779cc1",
"@ 	c #adb5bd",
"# 	c gray97",
"$ 	c #7792aa",
"% 	c #7b9cc6",
"& 	c #84a5ce",
"* 	c #7894c3",
"= 	c #dedee7",
"- 	c gray87",
"; 	c #949cad",
": 	c #7690b6",
"> 	c gray74",
", 	c #c6c6ce",
"< 	c #7fa0ce",
"1 	c #dee7ef",
"2 	c #c6cece",
"3 	c #ced6ce",
"4 	c #848ca5",
"5 	c #9ca5ad",
"6 	c #c6c6c6",
"7 	c #a5adb9",
"8 	c #889094",
"9 	c #58779c",
"0 	c #56677f",
"q 	c gray32",
"w 	c #a5adad",
"e 	c #8894a5",
"r 	c #769197",
"t 	c #677fab",
"y 	c #313f5a",
"u 	c #395673",
"i 	c #547ead",
"p 	c #b1bdc6",
"a 	c #42678a",
"s 	c #204270",
"d 	c #2f5686",
"f 	c #adb1b1",
"g 	c #22507b",
"h 	c #295a94",
"j 	c #637ba0",
"k 	c #547094",
"l 	c #2163a5",
"z 	c #31659e",
"x 	c #44699c",
"c 	c #10427b",
"v 	c #004284",
"b 	c #295a9c",
"n 	c #1c5087",
"m 	c #00427b",
"M 	c #6f8194",
"N 	c #8c949c",
"B 	c #18426f",
"V 	c #7384a5",
"C 	c #848c9c",
"Z 	c #e7eff7",
"A 	c white",
"S 	c #084284",
"D 	c #042d5e",
"F 	c #08427b",
"G 	c #efeff7",
"H 	c #d6e7e7",
"J 	c #a5adc6",
"K 	c #003163",
"L 	c #d2dae4",
"P 	c #567b94",
"I 	c #bdd6e7",
"U 	c #bdd6de",
"Y 	c #b5bdda",
"T 	c #c6c6de",
"R 	c #b9c6d6",
"E 	c #adbdda",
"W 	c #a5bdd6",
"Q 	c #96b7d0",
"! 	c #083973",
"~ 	c #8c8ca5",
"^ 	c #b8c7e1",
"/ 	c #b7d0de",
"( 	c #8cb5ce",
") 	c #8cadce",
"_ 	c #adc6d6",
"` 	c #88a9c6",
"' 	c #849cc6",
"] 	c #9cc0d8",
"[ 	c #6b99c3",
"{ 	c #00315a",
"} 	c #618ec4",
"| 	c #0a263f",
" .	c #10426b",
"..	c #153b5d",
"X.	c #b2c8ca",
"o.	c #457ab0",
"O.	c #628ab9",
"+.	c #4473a1",
"@.	c #084273",
"#.	c #5b6d86",
"$.	c #1b5896",
"%.	c #56676f",
"&.	c #18396b",
"*.	c #0a4c89",
"=.	c #7fadce",
"-.	c #84a5d6",
";.	c #6390a4",
":.	c #d0d8de",
">.	c #94bdd6",
",.	c #949ca5",
"<.	c #94c1da",
"1.	c #cecece",
"                                                                                                  ",
"                                                  . X                                             ",
"                                                o O + @ #                                         ",
"                                            # @ $ % & * $ =                                       ",
"                                          - ; + & & & & & : > #                                   ",
"                                        , O < & & & & & & & + ; 1                                 ",
"                                    # ; : & & & & & & & & & & & $ 2                               ",
"                                  3 4 & & & & & & & & & & & & & & : 5 .                           ",
"                                @ * & & & & & & & & & & & & & & & & + $ 3                         ",
"                  6 >       = $ + & & & & & & & & & & & & & & & & & & & * 7                       ",
"                8 9 0 q w @ : & & & & & & & & & & & & & & & & & & & & & & + e =                   ",
"            X r : & < t y u i + & & & & & & & & & & & & & & & & & & & & & & < $ p                 ",
"          @ t % & & & & + a s d i + & & & & & & & & & & & & & & & & & & & & & & + ; =             ",
"        f t & & & & & & & < t u g a : & & & & & & & & & & & & & & & & & & & & & & % O 2           ",
"        5 h j & & & & & & & & : a g h k + & & & & & & & & & & & & & & & & & & & & & & $ .         ",
"        5 l z i + & & & & & & & < j h h d j % & & & & & & & & & & & & & & & & & & & t a .         ",
"        5 l l h j + & & & & & & & & : a h h x + & & & & & & & & & & & & & & & & + 9 c g .         ",
"        5 l l l z a + & & & & & & & & & 9 h h a : & & & & & & & & & & & & & & : d v v g .         ",
"        5 l b h l z a * & & & & & & & & & : d h h : & & & & & & & & & & & < i c v v v g .         ",
"        5 l b a d l l d : & & & & & & & & & + k h n i & & & & & & & & & + a m v v v v g .         ",
"        5 l b M N k b l h j & & & & & & & & & & : d n t & & & & & & & i B v v v v v v g .         ",
"        5 l b V 5 = 4 h l h a : & & & & & & & & & + a u : & & & & * a c v v v v v v v g .         ",
"        5 l b C 5 . Z p x l b h 9 + & & & & & & & & < V u : & & j g v v v v v v v v v g .         ",
"        5 l b r 5 . # A o k h l b a t & & & & & & & & & + a t a S v v v v v v v v v v g .         ",
"        5 l b r 5 . # # # = 4 h l l h k : < & & & & & & * a D F v v v v v v v v v v v g .         ",
"        5 l b C 5 = . . G . H J x b l b z 9 : & & & & : d b K v v v v v v v v v v v v g .         ",
"        5 l b M 5 H = H H H L L p P h l l h h i + % j h l l K v v v v v v v v v v v v g =         ",
"        5 l b M ; L L L L L L I U Y $ a b l l h d a h l l l K v v v v v v v v v v v v g =         ",
"        5 l b V e I I I I I I T R E W Q j d b l h g l l l l K v v v v v v v v v v v v ! =         ",
"        5 l b M ~ ^ ^ / / ^ R Y E W Q ( ) + u l h g l l l l K v v v v v v v v v v v v ! =         ",
"        5 l b M C W E _ _ _ E W W Q ( ) ` ' a l h g l l l l K v v v v v v v v v v v v n =         ",
"        5 l b P M ] W W W ] ] Q ( ( ) ` ' + a l h g l l l l K v v v v v v v v v v v v g .         ",
"        5 l b k M ( Q Q Q ( Q ) ) ) ' ' + [ d l h g l l l l { v v v v v v v v v v v a =           ",
"        7 b b d M $ ) ) ) ) ) ` ' ' ' + [ } d l h g l l l l | v v v v v v v v v n e .             ",
"        . V h B d j V ' ' ' ' ' ' + * [ } i u l h g l l l l | v v v v v v v v  .6                 ",
"          3 u ..l h P j $ + + * [ [ } } i i u l h g l l l l | v v v v v v F d t $ =               ",
"        X.9 o.d h l h a 9 t [ [ } O.O.i i i g l h g l l l l | v v v v v c P O.[ [ j ,             ",
"    1 $ +.o.o.i 9 h b h a a i i i i i i o.o.s l h g l l l l | v v v F B j ` + [ [ O.+.e 1         ",
"  . 0 z +.o.o.O.[ 9 h l h g a a i i o.o.+.+.s l h g l l l l | v v F c g + ` + [ [ O.o.o.x ,       ",
"  X V a z o.o.O.[ [ V d b l g g u d +.+.z b g l h g l l l l | v @.d z B : ` + [ [ O.o.o.+.z e Z   ",
"  X 0 9 #.x o.O.[ [ + + s h l b g s s $.b h B l h g l l l l | g i +.h B + ` + [ [ O.o.o.+.z B 7   ",
"  X %.j j 0 x i [ [ + ` a s g l l b g &.g *.B l h g l l l l a i o.z g u & ' + [ [ O.o.o.h  .! 7   ",
"  X #.#.t t 9 0 t [ + ' : a s s h l b n B ..&.l h g l l l l a o.+.g h j ) ' + [ [ i i g ! v m 7   ",
"  X %.0 9 < % t k 9 [ ' < 9 +.n g g l l b g B l h g l l l l d +.g z k ` =.' + [ } +.g v v v m 7   ",
"  X #.: 9 : & & : 9 #.: ` ' a +.a u B h l l n l h g l l l n s a +.x + ) =.+ * [ a @.v v v v m 7   ",
"  . M t : 0 #.+ & + 9 0 V =.=.9 9 i k u s h &.h h g l b g a i +.k ` ( -.' + t d F v v v v v m 7   ",
"    - C 9 : u 0 : & t j 0 P ' ) V #.t : : j d b h g h a j t k V ( ( ) & * 9 c v v v v v v v m 7   ",
"      # 7 #.j j u t 9 : j 9 9 + Q ) O j k P j a s g u k ;.O Q Q ( ) =.+ a c v v v v v v v v a :.  ",
"          o M j #.#.0 + V %.#.0 V ) Q ] >.Q O $ $ $ Q >.W >.Q ( ) & V g F v v v v v v v c V #     ",
"            . ,.#.: * j 9 j 0 9 #.k ' Q Q ] ] ] ] ] <.Q Q ( ) ) < k c v v v v v v v v g p         ",
"                1.0 t & : #.#.j t #.0 $ ) ) ( ( ( ( ( ) ) ) -.+ d v v v v v v v v v P #           ",
"                  # C 0 + * j : : j * 0 j =.) ) ) ) ) ) -.& j B v v v v v v v v g @               ",
"                      6 #.: < t j j & < j 0 t & & & < ' + a F v v v v v v v F k .                 ",
"                        = M j + * 9 + & < : 0 M : + + j s v v v v v v v v c 5 #                   ",
"                          # 7 #.: + j : & & t 0 0 t a F v v v v v v v v a :.                      ",
"                              :.M t & : j + 9 j 9 u v v v v v v v v n e #                         ",
"                                # ,.#.* + j 9 9 %.u v v v v v v v a ,                             ",
"                                    6 #.t < V t 0 u v v v v v c V .                               ",
"                                      1 C j + : 9 u v v v v g X.                                  ",
"                                          @ #.: : u v v v k .                                     ",
"                                            - M 0 u v g 5                                         ",
"                                              # @ y a :.                                          ",
"                                                  .                                               "};
