/* XPM */
static char * server_xpm[] = {
"42 70 104 2",
"  	s None	c None",
". 	c #ced6ce",
"X 	c #9ca5ad",
"o 	c gray74",
"O 	c gray97",
"+ 	c #c6c6c6",
"@ 	c #adc6d6",
"# 	c #bdd6e7",
"$ 	c #b8c7e1",
"% 	c #a5adb9",
"& 	c #e7e7e7",
"* 	c gray87",
"= 	c #b5bdbd",
"- 	c #d0d8de",
"; 	c #d2dae4",
": 	c #b5bdda",
"> 	c #90aabc",
", 	c #cecece",
"< 	c #cecede",
"1 	c #d6e7ef",
"2 	c #d6e7e7",
"3 	c #adbdda",
"4 	c #96afce",
"5 	c #9cabbb",
"6 	c #efeff7",
"7 	c #e7e7ff",
"8 	c #c6c6de",
"9 	c #a5bdd6",
"0 	c #96b7d0",
"q 	c #869eb6",
"w 	c #c6cece",
"e 	c gray84",
"r 	c white",
"t 	c #94bdd6",
"y 	c #8cb5ce",
"u 	c #849cc6",
"i 	c #dee7f7",
"p 	c #84a5d6",
"a 	c #7b9cc6",
"s 	c #7792aa",
"d 	c #adbdbd",
"f 	c #b9c6d6",
"g 	c #779cc1",
"h 	c #677fab",
"j 	c #a5b5bd",
"k 	c #b2c8ca",
"l 	c #dee7ef",
"z 	c #8cadce",
"x 	c #6b99c3",
"c 	c #628ab9",
"v 	c #637ba0",
"b 	c #dedee7",
"n 	c #9cc0d8",
"m 	c #7fadce",
"M 	c #618ec4",
"N 	c #547ead",
"B 	c #313f5a",
"V 	c #c6c6e7",
"C 	c #457ab0",
"Z 	c #18426f",
"A 	c #003163",
"S 	c #42678a",
"D 	c #10427b",
"F 	c #004284",
"G 	c #7894c3",
"H 	c #22507b",
"J 	c #949cad",
"K 	c #58779c",
"L 	c #84a5ce",
"P 	c #7690b6",
"I 	c #2f5686",
"U 	c #08427b",
"Y 	c #88a9c6",
"T 	c #94c1da",
"R 	c #7fa0ce",
"E 	c #7384a5",
"W 	c #8cbdd6",
"Q 	c #44699c",
"! 	c #6f8194",
"~ 	c #295a94",
"^ 	c #31659e",
"/ 	c #4473a1",
"( 	c #547094",
") 	c #083973",
"_ 	c #848c9c",
"` 	c #295a9c",
"' 	c #848ca5",
"] 	c #084273",
"[ 	c #5b6d86",
"{ 	c #104273",
"} 	c #204270",
"| 	c #56677f",
" .	c #56676f",
"..	c #395673",
"X.	c #3b5355",
"o.	c #31394a",
"O.	c #8894a5",
"+.	c #084284",
"@.	c #b1bdc6",
"#.	c #567b94",
"$.	c #1c5087",
"%.	c #adb5bd",
"&.	c #c6c6ce",
"*.	c #00427b",
"                                                                                    ",
"                                                    . X o                           ",
"                                                O + @ # $ % &                       ",
"                                              * = - ; # # : > ,                     ",
"                                          O , < 1 2 ; # # $ 3 4 5 &                 ",
"                                        & + & 6 7 2 ; # # 8 3 9 0 q w               ",
"                                      * e r r O 7 1 ; # # 8 3 9 t y u 5 &           ",
"                                  O o ; r r r 6 i 2 ; # # $ 3 9 t y p a s w         ",
"                                e d 1 6 6 O 6 7 1 2 ; # # f 3 9 t y p u g h j O     ",
"                              + k ; 2 l i i i 1 2 ; # # # : 3 9 0 z p u g x c v b   ",
"                          & 5 $ # # 2 2 2 2 2 ; ; ; # # 8 3 9 n 0 z m g x x M N B   ",
"                      O o > 3 V # # # ; ; ; ; ; # # # 8 : 9 9 0 y z u g x x C Z A   ",
"                    * X 0 9 3 : V # # # # # # # # # $ : 3 9 n 0 y m u g x S D F A   ",
"                  + q z 0 n 9 3 3 8 8 # # # # # V f : 9 9 n 0 y z u G h H F F F A   ",
"              & J s m z 0 0 3 9 9 3 : f f f f f : 3 9 9 n 0 y z m g K D F F F F A   ",
"            w s c g u m z y 0 9 9 9 9 9 9 9 9 9 9 9 9 n 0 y z L P I U F F F F F A   ",
"        O > N M x x g Y m z y 0 0 n 9 9 9 9 9 9 9 T 0 0 y z R v H F F F F F F F A   ",
"      b E C C c x x x g u L m z y 0 0 0 0 0 0 W 0 0 z z z g S D F F F F F F F F A   ",
"    j Q C C C N c x x x G u u L m z z z z z z z z z m L P H F F F F F F F F F F A   ",
"  ! ~ ^ / C C C N c x x x G G g L L L p p p p p L L a ( ) F F F F F F F F F F F A   ",
"  _ K ` ^ / C C C N c M x x x G G u u u u u u u u s H F F F F F F F F F F F F F A   ",
"  ' L v I ^ / C C C C N c x x x x x x G g g g P Q ] F F F F F F F F F F F F F F A   ",
"  ' L L g S ~ / C C C C N c M x x x x x x x c H F F F F F F F F F F F F F F F F A   ",
"  ' L L L a h I / C C C C C N N c M M M M ( Z F F F F F F F F F F F F F F F F F A   ",
"  ' P g L L L P Q ^ / C C C C C C N N C H U F F F F F F F F F F F F F F F F F F A   ",
"  ' [ v g L L L g K ^ / / C C C C C S Z F F F F F F F F F F F F F F F F F F F F A   ",
"  ' K a v P L L L L P S ^ / / / / H U F F F F F F F F F F F F F F F F F F F F F A   ",
"  ' K L R P v g L L L g K ~ ^ ~ { F F F F F F F F F F F F F F F F F F F F F F F A   ",
"  ' K R a v G v P R L L L h } ) F F F F F F F F F F F F F F F F F F F F F F F F A   ",
"  ' | h g v v  .v h R L L L H F F F F F F F F F F F F F F F F F F F F F F F F F A   ",
"  ' K h v G L  .[ v v G L L H F F F F F F F F F F F F F F F F F F F F F F F F F A   ",
"  ' K | v v P v h ..g h h L H F F F F F F F F F F F F F F F F F F F F F F F F F A   ",
"  ' K | h | [ v h v v P v K H F F F F F F F F F F F F F F F F F F F F F F F F F A   ",
"  ' | [ X.o.| K ( P R R P K H F F F F F F F F F F F F F F F F F F F F F F F F F A   ",
"  ' K v  .K | h v v h a L K H F F F F F F F F F F F F F F F F F F F F F F F F F A   ",
"  ' K R P K | v v K P v P K H F F F F F F F F F F F F F F F F F F F F F F F F F A   ",
"  ' K L L G v K v ..P g v | H F F F F F F F F F F F F F F F F F F F F F F F F F A   ",
"  ' K a L L L h v h h v | [ H F F F F F F F F F F F F F F F F F F F F F F F F F A   ",
"  ' h v g L L L P v G P h K H F F F F F F F F F F F F F F F F F F F F F F F F F A   ",
"  _ v g v P L L L g h P L K H F F F F F F F F F F F F F F F F F F F F F F F F F A   ",
"  ! v P h h v R L L L h v K H F F F F F F F F F F F F F F F F F F F F F F F F F A   ",
"  ' a v P P G v P L L G [ | H F F F F F F F F F F F F F F F F F F F F F F F F F A   ",
"  ' G [ h v L P h E L L G K H F F F F F F F F F F F F F F F F F F F F F F F F F A   ",
"  ! K K h [ h v g h v g L K H F F F F F F F F F F F F F F F F F F F F F F F F F A   ",
"  ' E v P | v v g v g v h K H F F F F F F F F F F F F F F F F F F F F F F F F F A   ",
"  ' K g v v K v g K P P P | H F F F F F F F F F F F F F F F F F F F F F F F F F A   ",
"  ' K G h P P v g K P h P E H F F F F F F F F F F F F F F F F F F F F F F F F F A   ",
"  ' K G h v L v g K h v v P H F F F F F F F F F F F F F F F F F F F F F F F F F A   ",
"  ' K G h K L v g K h P g K H F F F F F F F F F F F F F F F F F F F F F F F F F A   ",
"  ' K G h K L v g K P P R K H F F F F F F F F F F F F F F F F F F F F F F F F F A   ",
"  ' K G h K L v g K g v v K H F F F F F F F F F F F F F F F F F F F F F F F F F S   ",
"  ' K G h K L v g K h P P | H F F F F F F F F F F F F F F F F F F F F F F F ) O.    ",
"  ' K G h K L v g K h P P h H F F F F F F F F F F F F F F F F F F F F F F I .       ",
"  ' K G h K L v g K h P P h H F F F F F F F F F F F F F F F F F F F F +.s           ",
"  ' K G h K L v g K h P P h H F F F F F F F F F F F F F F F F F F F I @.            ",
"  ' K G h K L v g K h P P h H F F F F F F F F F F F F F F F F F +.E &               ",
"  ' K G h K L v g K h P P h H F F F F F F F F F F F F F F F F H j                   ",
"  ' K G h K L v g K h P P h H F F F F F F F F F F F F F F U #.b                     ",
"  ' K G h K L v g K h P P h H F F F F F F F F F F F F F $.%                         ",
"  %.E P h K L v g K h P P h H F F F F F F F F F F F F S e                           ",
"    . ' P K L v g K h P P h H F F F F F F F F F F D s O                             ",
"        > K L v g K h P P h H F F F F F F F F F H &.                                ",
"          H v v g K h P P h H F F F F F F F F E O                                   ",
"            Q ' R K h P P h H F F F F F F H @.                                      ",
"                % s h P P h H F F F F +.! &                                         ",
"                  - ' G P h H F F F H %                                             ",
"                      X P G H F *.( b                                               ",
"                        o s H $.5 O                                                 ",
"                          * ! &.                                                    ",
"                                                                                    "};
