<svg viewBox="0 0 73 26" xmlns="http://www.w3.org/2000/svg">
  <rect width="100%" height="100%" fill="white"/>
  <rect x="11" y="2" width="1" height="22" fill="red"/>
  <rect x="13" y="2" width="1" height="22" fill="red"/>
  <rect x="15" y="2" width="2" height="20" fill="red"/>
  <rect x="19" y="2" width="2" height="20" fill="red"/>
  <rect x="23" y="2" width="1" height="20" fill="red"/>
  <rect x="26" y="2" width="2" height="20" fill="red"/>
  <rect x="29" y="2" width="4" height="20" fill="red"/>
  <rect x="34" y="2" width="1" height="20" fill="red"/>
  <rect x="37" y="2" width="3" height="20" fill="red"/>
  <rect x="41" y="2" width="1" height="20" fill="red"/>
  <rect x="43" y="2" width="3" height="20" fill="red"/>
  <rect x="48" y="2" width="1" height="20" fill="red"/>
  <rect x="50" y="2" width="1" height="20" fill="red"/>
  <rect x="52" y="2" width="4" height="20" fill="red"/>
  <rect x="57" y="2" width="1" height="22" fill="red"/>
  <rect x="59" y="2" width="1" height="22" fill="red"/>
  <rect x="61" y="2" width="1" height="22" fill="red"/>
</svg>