<svg viewBox="0 0 117 26" xmlns="http://www.w3.org/2000/svg">
  <rect width="100%" height="100%" fill="white"/>
  <rect x="11" y="2" width="1" height="22" fill="red"/>
  <rect x="13" y="2" width="1" height="22" fill="red"/>
  <rect x="17" y="2" width="2" height="22" fill="red"/>
  <rect x="20" y="2" width="1" height="22" fill="red"/>
  <rect x="23" y="2" width="2" height="20" fill="red"/>
  <rect x="27" y="2" width="1" height="20" fill="red"/>
  <rect x="30" y="2" width="1" height="20" fill="red"/>
  <rect x="33" y="2" width="2" height="20" fill="red"/>
  <rect x="36" y="2" width="4" height="20" fill="red"/>
  <rect x="41" y="2" width="1" height="20" fill="red"/>
  <rect x="43" y="2" width="1" height="20" fill="red"/>
  <rect x="47" y="2" width="2" height="20" fill="red"/>
  <rect x="50" y="2" width="2" height="20" fill="red"/>
  <rect x="55" y="2" width="1" height="20" fill="red"/>
  <rect x="57" y="2" width="1" height="22" fill="red"/>
  <rect x="59" y="2" width="1" height="22" fill="red"/>
  <rect x="61" y="2" width="1" height="20" fill="red"/>
  <rect x="63" y="2" width="1" height="20" fill="red"/>
  <rect x="68" y="2" width="1" height="20" fill="red"/>
  <rect x="72" y="2" width="1" height="20" fill="red"/>
  <rect x="75" y="2" width="1" height="20" fill="red"/>
  <rect x="78" y="2" width="1" height="20" fill="red"/>
  <rect x="82" y="2" width="3" height="20" fill="red"/>
  <rect x="86" y="2" width="1" height="20" fill="red"/>
  <rect x="89" y="2" width="3" height="20" fill="red"/>
  <rect x="94" y="2" width="1" height="20" fill="red"/>
  <rect x="96" y="2" width="1" height="22" fill="red"/>
  <rect x="99" y="2" width="3" height="22" fill="red"/>
  <rect x="103" y="2" width="1" height="22" fill="red"/>
  <rect x="105" y="2" width="1" height="22" fill="red"/>
</svg>