<svg viewBox="0 0 117 72" xmlns="http://www.w3.org/2000/svg">
  <rect width="100%" height="100%" fill="white"/>
  <rect x="11" y="2" width="1" height="55" fill="black"/>
  <rect x="13" y="2" width="1" height="55" fill="black"/>
  <rect x="17" y="2" width="2" height="55" fill="black"/>
  <rect x="20" y="2" width="1" height="55" fill="black"/>
  <rect x="23" y="2" width="2" height="50" fill="black"/>
  <rect x="27" y="2" width="1" height="50" fill="black"/>
  <rect x="30" y="2" width="1" height="50" fill="black"/>
  <rect x="33" y="2" width="2" height="50" fill="black"/>
  <rect x="36" y="2" width="4" height="50" fill="black"/>
  <rect x="41" y="2" width="1" height="50" fill="black"/>
  <rect x="43" y="2" width="1" height="50" fill="black"/>
  <rect x="47" y="2" width="2" height="50" fill="black"/>
  <rect x="50" y="2" width="2" height="50" fill="black"/>
  <rect x="55" y="2" width="1" height="50" fill="black"/>
  <rect x="57" y="2" width="1" height="55" fill="black"/>
  <rect x="59" y="2" width="1" height="55" fill="black"/>
  <rect x="61" y="2" width="1" height="50" fill="black"/>
  <rect x="63" y="2" width="1" height="50" fill="black"/>
  <rect x="68" y="2" width="1" height="50" fill="black"/>
  <rect x="72" y="2" width="1" height="50" fill="black"/>
  <rect x="75" y="2" width="1" height="50" fill="black"/>
  <rect x="78" y="2" width="1" height="50" fill="black"/>
  <rect x="82" y="2" width="3" height="50" fill="black"/>
  <rect x="86" y="2" width="1" height="50" fill="black"/>
  <rect x="89" y="2" width="3" height="50" fill="black"/>
  <rect x="94" y="2" width="1" height="50" fill="black"/>
  <rect x="96" y="2" width="1" height="55" fill="black"/>
  <rect x="99" y="2" width="3" height="55" fill="black"/>
  <rect x="103" y="2" width="1" height="55" fill="black"/>
  <rect x="105" y="2" width="1" height="55" fill="black"/>
  <text x="2" y="60" font-size="10" fill="black">0</text>
  <text x="26" y="60" font-size="10" fill="black">12345</text>
  <text x="66" y="60" font-size="10" fill="black">67890</text>
  <text x="110" y="60" font-size="10" fill="black">5</text>
</svg>