<svg viewBox="0 0 85 72" xmlns="http://www.w3.org/2000/svg">
  <rect width="100%" height="100%" fill="white"/>
  <rect x="9" y="2" width="1" height="55" fill="black"/>
  <rect x="11" y="2" width="1" height="55" fill="black"/>
  <rect x="14" y="2" width="2" height="50" fill="black"/>
  <rect x="18" y="2" width="1" height="50" fill="black"/>
  <rect x="21" y="2" width="1" height="50" fill="black"/>
  <rect x="24" y="2" width="2" height="50" fill="black"/>
  <rect x="27" y="2" width="4" height="50" fill="black"/>
  <rect x="32" y="2" width="1" height="50" fill="black"/>
  <rect x="34" y="2" width="1" height="50" fill="black"/>
  <rect x="38" y="2" width="2" height="50" fill="black"/>
  <rect x="41" y="2" width="1" height="55" fill="black"/>
  <rect x="43" y="2" width="1" height="55" fill="black"/>
  <rect x="45" y="2" width="1" height="50" fill="black"/>
  <rect x="48" y="2" width="3" height="50" fill="black"/>
  <rect x="52" y="2" width="1" height="50" fill="black"/>
  <rect x="54" y="2" width="1" height="50" fill="black"/>
  <rect x="59" y="2" width="1" height="50" fill="black"/>
  <rect x="63" y="2" width="1" height="50" fill="black"/>
  <rect x="66" y="2" width="3" height="50" fill="black"/>
  <rect x="71" y="2" width="1" height="50" fill="black"/>
  <rect x="73" y="2" width="1" height="55" fill="black"/>
  <rect x="75" y="2" width="1" height="55" fill="black"/>
  <text x="26" y="60" font-size="10" fill="black" text-anchor="middle">1234</text>
  <text x="59" y="60" font-size="10" fill="black" text-anchor="middle">5670</text>
</svg>