<svg viewBox="0 0 117 72" xmlns="http://www.w3.org/2000/svg">
  <rect width="100%" height="100%" fill="white"/>
  <rect x="11" y="2" width="1" height="55" fill="black"/>
  <rect x="13" y="2" width="1" height="55" fill="black"/>
  <rect x="16" y="2" width="1" height="50" fill="black"/>
  <rect x="19" y="2" width="2" height="50" fill="black"/>
  <rect x="22" y="2" width="4" height="50" fill="black"/>
  <rect x="27" y="2" width="1" height="50" fill="black"/>
  <rect x="30" y="2" width="3" height="50" fill="black"/>
  <rect x="34" y="2" width="1" height="50" fill="black"/>
  <rect x="36" y="2" width="2" height="50" fill="black"/>
  <rect x="41" y="2" width="1" height="50" fill="black"/>
  <rect x="46" y="2" width="1" height="50" fill="black"/>
  <rect x="48" y="2" width="1" height="50" fill="black"/>
  <rect x="51" y="2" width="1" height="50" fill="black"/>
  <rect x="55" y="2" width="1" height="50" fill="black"/>
  <rect x="57" y="2" width="1" height="55" fill="black"/>
  <rect x="59" y="2" width="1" height="55" fill="black"/>
  <rect x="61" y="2" width="1" height="50" fill="black"/>
  <rect x="64" y="2" width="1" height="50" fill="black"/>
  <rect x="68" y="2" width="3" height="50" fill="black"/>
  <rect x="72" y="2" width="1" height="50" fill="black"/>
  <rect x="75" y="2" width="3" height="50" fill="black"/>
  <rect x="80" y="2" width="1" height="50" fill="black"/>
  <rect x="82" y="2" width="2" height="50" fill="black"/>
  <rect x="86" y="2" width="2" height="50" fill="black"/>
  <rect x="89" y="2" width="2" height="50" fill="black"/>
  <rect x="92" y="2" width="2" height="50" fill="black"/>
  <rect x="96" y="2" width="1" height="50" fill="black"/>
  <rect x="99" y="2" width="1" height="50" fill="black"/>
  <rect x="103" y="2" width="1" height="55" fill="black"/>
  <rect x="105" y="2" width="1" height="55" fill="black"/>
  <text x="2" y="60" font-size="10" fill="black">1</text>
  <text x="21" y="60" font-size="10" fill="black">234567</text>
  <text x="66" y="60" font-size="10" fill="black">890128</text>
</svg>