<svg viewBox="0 0 85 26" xmlns="http://www.w3.org/2000/svg">
  <rect width="100%" height="100%" fill="white"/>
  <rect x="9" y="2" width="1" height="22" fill="red"/>
  <rect x="11" y="2" width="1" height="22" fill="red"/>
  <rect x="14" y="2" width="2" height="20" fill="red"/>
  <rect x="18" y="2" width="1" height="20" fill="red"/>
  <rect x="21" y="2" width="1" height="20" fill="red"/>
  <rect x="24" y="2" width="2" height="20" fill="red"/>
  <rect x="27" y="2" width="4" height="20" fill="red"/>
  <rect x="32" y="2" width="1" height="20" fill="red"/>
  <rect x="34" y="2" width="1" height="20" fill="red"/>
  <rect x="38" y="2" width="2" height="20" fill="red"/>
  <rect x="41" y="2" width="1" height="22" fill="red"/>
  <rect x="43" y="2" width="1" height="22" fill="red"/>
  <rect x="45" y="2" width="1" height="20" fill="red"/>
  <rect x="48" y="2" width="3" height="20" fill="red"/>
  <rect x="52" y="2" width="1" height="20" fill="red"/>
  <rect x="54" y="2" width="1" height="20" fill="red"/>
  <rect x="59" y="2" width="1" height="20" fill="red"/>
  <rect x="63" y="2" width="1" height="20" fill="red"/>
  <rect x="66" y="2" width="3" height="20" fill="red"/>
  <rect x="71" y="2" width="1" height="20" fill="red"/>
  <rect x="73" y="2" width="1" height="22" fill="red"/>
  <rect x="75" y="2" width="1" height="22" fill="red"/>
</svg>