<?xml version="1.0" encoding="UTF-8" standalone="yes"?><svg xmlns="http://www.w3.org/2000/svg" xmlns:xlink="http://www.w3.org/1999/xlink" height="854px" style="width:1419px;height:854px;" version="1.1" viewBox="0 0 1419 854" width="1419px"><defs><filter height="300%" id="f1" width="300%" x="-1" y="-1"><feGaussianBlur result="blurOut" stdDeviation="2.0"/><feColorMatrix in="blurOut" result="blurOut2" type="matrix" values="0 0 0 0 0 0 0 0 0 0 0 0 0 0 0 0 0 0 .4 0"/><feOffset dx="4.0" dy="4.0" in="blurOut2" result="blurOut3"/><feBlend in="SourceGraphic" in2="blurOut3" mode="normal"/></filter></defs><g><rect fill="#FEFECE" filter="url(#f1)" height="60.9551" style="stroke: #A80036; stroke-width: 1.5;" width="169" x="505" y="361.5"/><ellipse cx="520" cy="377.5" fill="#ADD1B2" rx="11" ry="11" style="stroke: #A80036; stroke-width: 1.0;"/><path d="M522.9731,383.1431 Q522.3921,383.4419 521.7529,383.5913 Q521.1138,383.7407 520.4082,383.7407 Q517.9014,383.7407 516.5815,382.0889 Q515.2617,380.437 515.2617,377.3159 Q515.2617,374.1865 516.5815,372.5347 Q517.9014,370.8828 520.4082,370.8828 Q521.1138,370.8828 521.7612,371.0322 Q522.4087,371.1816 522.9731,371.4805 L522.9731,374.2031 Q522.3423,373.6221 521.7488,373.3523 Q521.1553,373.0825 520.5244,373.0825 Q519.1797,373.0825 518.4949,374.1492 Q517.8101,375.2158 517.8101,377.3159 Q517.8101,379.4077 518.4949,380.4744 Q519.1797,381.541 520.5244,381.541 Q521.1553,381.541 521.7488,381.2712 Q522.3423,381.0015 522.9731,380.4204 Z "/><text fill="#000000" font-family="sans-serif" font-size="12" lengthAdjust="spacingAndGlyphs" textLength="137" x="534" y="382.0352">My::Example::Baseclass</text><line style="stroke: #A80036; stroke-width: 1.5;" x1="506" x2="673" y1="393.5" y2="393.5"/><line style="stroke: #A80036; stroke-width: 1.5;" x1="506" x2="673" y1="401.5" y2="401.5"/><text fill="#000000" font-family="sans-serif" font-size="11" lengthAdjust="spacingAndGlyphs" textLength="123" x="511" y="416.1348">method_in_baseclass()</text><rect fill="#FEFECE" filter="url(#f1)" height="73.9102" style="stroke: #A80036; stroke-width: 1.5;" width="161" x="250" y="8"/><ellipse cx="272.65" cy="24" fill="#ADD1B2" rx="11" ry="11" style="stroke: #A80036; stroke-width: 1.0;"/><path d="M275.6231,29.6431 Q275.0421,29.9419 274.4029,30.0913 Q273.7638,30.2407 273.0582,30.2407 Q270.5514,30.2407 269.2315,28.5889 Q267.9117,26.937 267.9117,23.8159 Q267.9117,20.6865 269.2315,19.0347 Q270.5514,17.3828 273.0582,17.3828 Q273.7638,17.3828 274.4112,17.5322 Q275.0587,17.6816 275.6231,17.9805 L275.6231,20.7031 Q274.9923,20.1221 274.3988,19.8523 Q273.8053,19.5825 273.1744,19.5825 Q271.8297,19.5825 271.1449,20.6492 Q270.4601,21.7158 270.4601,23.8159 Q270.4601,25.9077 271.1449,26.9744 Q271.8297,28.041 273.1744,28.041 Q273.8053,28.041 274.3988,27.7712 Q274.9923,27.5015 275.6231,26.9204 Z "/><text fill="#000000" font-family="sans-serif" font-size="12" lengthAdjust="spacingAndGlyphs" textLength="112" x="288.35" y="28.5352">My::Example::Class</text><line style="stroke: #A80036; stroke-width: 1.5;" x1="251" x2="410" y1="40" y2="40"/><text fill="#000000" font-family="sans-serif" font-size="11" lengthAdjust="spacingAndGlyphs" textLength="95" x="256" y="54.6348">attribute_in_class</text><line style="stroke: #A80036; stroke-width: 1.5;" x1="251" x2="410" y1="60.9551" y2="60.9551"/><text fill="#000000" font-family="sans-serif" font-size="11" lengthAdjust="spacingAndGlyphs" textLength="149" x="256" y="75.5898">method_in_example_class()</text><rect fill="#FEFECE" filter="url(#f1)" height="112.7754" style="stroke: #A80036; stroke-width: 1.5;" width="175" x="17" y="142.5"/><ellipse cx="32" cy="158.5" fill="#FF7700" rx="11" ry="11" style="stroke: #A80036; stroke-width: 1.0;"/><path d="M33.1987,158.6479 Q33.564,158.7227 33.8337,158.9924 Q34.1035,159.2622 34.4937,160.0425 L36.7349,164.5 L34.0454,164.5 L32.5513,161.3706 Q32.4849,161.2378 32.377,161.0054 Q31.7212,159.6025 30.833,159.6025 L30.0527,159.6025 L30.0527,164.5 L27.604,164.5 L27.604,152.1069 L31.1401,152.1069 Q33.5308,152.1069 34.5725,152.9536 Q35.6143,153.8003 35.6143,155.7095 Q35.6143,156.9878 34.9917,157.7432 Q34.3691,158.4985 33.1987,158.6479 Z M30.0527,154.1655 L30.0527,157.5439 L31.2065,157.5439 Q32.2109,157.5439 32.6467,157.1497 Q33.0825,156.7554 33.0825,155.8506 Q33.0825,154.9458 32.6509,154.5557 Q32.2192,154.1655 31.2065,154.1655 Z "/><text fill="#000000" font-family="sans-serif" font-size="12" lengthAdjust="spacingAndGlyphs" textLength="143" x="46" y="163.0352">My::Example::Role::Buffy</text><line style="stroke: #A80036; stroke-width: 1.5;" x1="18" x2="191" y1="174.5" y2="174.5"/><text fill="#000000" font-family="sans-serif" font-size="11" lengthAdjust="spacingAndGlyphs" textLength="28" x="23" y="189.1348">buffy</text><text fill="#000000" font-family="sans-serif" font-size="11" lengthAdjust="spacingAndGlyphs" textLength="25" x="23" y="202.0898">giles</text><text fill="#000000" font-family="sans-serif" font-size="11" lengthAdjust="spacingAndGlyphs" textLength="32" x="23" y="215.0449">willow</text><text fill="#000000" font-family="sans-serif" font-size="11" lengthAdjust="spacingAndGlyphs" textLength="38" x="23" y="228">xander</text><line style="stroke: #A80036; stroke-width: 1.5;" x1="18" x2="191" y1="234.3203" y2="234.3203"/><text fill="#000000" font-family="sans-serif" font-size="11" lengthAdjust="spacingAndGlyphs" textLength="29" x="23" y="248.9551">slay()</text><rect fill="#FEFECE" filter="url(#f1)" height="86.8652" style="stroke: #A80036; stroke-width: 1.5;" width="207" x="227" y="155.5"/><ellipse cx="242" cy="171.5" fill="#FF7700" rx="11" ry="11" style="stroke: #A80036; stroke-width: 1.0;"/><path d="M243.1987,171.6479 Q243.564,171.7227 243.8337,171.9924 Q244.1035,172.2622 244.4937,173.0425 L246.7349,177.5 L244.0454,177.5 L242.5513,174.3706 Q242.4849,174.2378 242.377,174.0054 Q241.7212,172.6025 240.833,172.6025 L240.0527,172.6025 L240.0527,177.5 L237.604,177.5 L237.604,165.1069 L241.1401,165.1069 Q243.5308,165.1069 244.5725,165.9536 Q245.6143,166.8003 245.6143,168.7095 Q245.6143,169.9878 244.9917,170.7432 Q244.3691,171.4985 243.1987,171.6479 Z M240.0527,167.1655 L240.0527,170.5439 L241.2065,170.5439 Q242.2109,170.5439 242.6467,170.1497 Q243.0825,169.7554 243.0825,168.8506 Q243.0825,167.9458 242.6509,167.5557 Q242.2192,167.1655 241.2065,167.1655 Z "/><text fill="#000000" font-family="sans-serif" font-size="12" lengthAdjust="spacingAndGlyphs" textLength="175" x="256" y="176.0352">My::Example::Role::Flintstones</text><line style="stroke: #A80036; stroke-width: 1.5;" x1="228" x2="433" y1="187.5" y2="187.5"/><text fill="#000000" font-family="sans-serif" font-size="11" lengthAdjust="spacingAndGlyphs" textLength="22" x="233" y="202.1348">fred</text><text fill="#000000" font-family="sans-serif" font-size="11" lengthAdjust="spacingAndGlyphs" textLength="30" x="233" y="215.0898">wilma</text><line style="stroke: #A80036; stroke-width: 1.5;" x1="228" x2="433" y1="221.4102" y2="221.4102"/><text fill="#000000" font-family="sans-serif" font-size="11" lengthAdjust="spacingAndGlyphs" textLength="132" x="233" y="236.0449">have_a_yabba_do_time()</text><rect fill="#FEFECE" filter="url(#f1)" height="86.8652" style="stroke: #A80036; stroke-width: 1.5;" width="201" x="985" y="528.5"/><ellipse cx="1000" cy="544.5" fill="#FF7700" rx="11" ry="11" style="stroke: #A80036; stroke-width: 1.0;"/><path d="M1001.1987,544.6479 Q1001.564,544.7227 1001.8337,544.9924 Q1002.1035,545.2622 1002.4937,546.0425 L1004.7349,550.5 L1002.0454,550.5 L1000.5513,547.3706 Q1000.4849,547.2378 1000.377,547.0054 Q999.7212,545.6025 998.833,545.6025 L998.0527,545.6025 L998.0527,550.5 L995.604,550.5 L995.604,538.1069 L999.1401,538.1069 Q1001.5308,538.1069 1002.5725,538.9536 Q1003.6143,539.8003 1003.6143,541.7095 Q1003.6143,542.9878 1002.9917,543.7432 Q1002.3691,544.4985 1001.1987,544.6479 Z M998.0527,540.1655 L998.0527,543.5439 L999.2065,543.5439 Q1000.2109,543.5439 1000.6467,543.1497 Q1001.0825,542.7554 1001.0825,541.8506 Q1001.0825,540.9458 1000.6509,540.5557 Q1000.2192,540.1655 999.2065,540.1655 Z "/><text fill="#000000" font-family="sans-serif" font-size="12" lengthAdjust="spacingAndGlyphs" textLength="169" x="1014" y="549.0352">My::Example::Role::JackBlack</text><line style="stroke: #A80036; stroke-width: 1.5;" x1="986" x2="1185" y1="560.5" y2="560.5"/><line style="stroke: #A80036; stroke-width: 1.5;" x1="986" x2="1185" y1="568.5" y2="568.5"/><text fill="#000000" font-family="sans-serif" font-size="11" lengthAdjust="spacingAndGlyphs" textLength="106" x="991" y="583.1348">get_dragon_scroll()</text><text fill="#000000" font-family="sans-serif" font-size="11" lengthAdjust="spacingAndGlyphs" textLength="167" x="991" y="596.0898">play_best_song_in_the_world()</text><text fill="#000000" font-family="sans-serif" font-size="11" lengthAdjust="spacingAndGlyphs" textLength="126" x="991" y="609.0449">teach_school_of_rock()</text><rect fill="#FEFECE" filter="url(#f1)" height="48" style="stroke: #A80036; stroke-width: 1.5;" width="218" x="365.25" y="676"/><ellipse cx="380.25" cy="692" fill="#DA70D6" rx="11" ry="11" style="stroke: #A80036; stroke-width: 1.0;"/><path d="M380.0435,687.6655 L380.0435,691.3013 L381.0479,691.3013 Q382.2515,691.3013 382.7371,690.8945 Q383.2227,690.4878 383.2227,689.4834 Q383.2227,688.479 382.7371,688.0723 Q382.2515,687.6655 381.0479,687.6655 Z M377.5947,685.6069 L380.9565,685.6069 Q383.5215,685.6069 384.6462,686.52 Q385.771,687.4331 385.771,689.4834 Q385.771,691.5337 384.6462,692.4468 Q383.5215,693.3599 380.9565,693.3599 L380.0435,693.3599 L380.0435,698 L377.5947,698 Z "/><text fill="#000000" font-family="sans-serif" font-size="12" lengthAdjust="spacingAndGlyphs" textLength="186" x="394.25" y="696.5352">My::Example::Role::PickRandom</text><line style="stroke: #A80036; stroke-width: 1.5;" x1="366.25" x2="582.25" y1="708" y2="708"/><line style="stroke: #A80036; stroke-width: 1.5;" x1="366.25" x2="582.25" y1="716" y2="716"/><rect fill="#FEFECE" filter="url(#f1)" height="60.9551" style="stroke: #A80036; stroke-width: 1.5;" width="218" x="238.25" y="541.5"/><ellipse cx="253.25" cy="557.5" fill="#FFFFFF" rx="11" ry="11" style="stroke: #A80036; stroke-width: 1.0;"/><path d="M251.4023,561.4009 L253.6187,561.4009 L253.6187,563.75 L251.4023,563.75 Z M253.6187,560.4214 L251.4023,560.4214 L251.4023,559.1431 Q251.4023,558.3213 251.6597,557.7402 Q251.917,557.1592 252.5811,556.5117 L253.3281,555.7729 Q253.8511,555.2666 254.0378,554.9346 Q254.2246,554.6025 254.2246,554.2456 Q254.2246,553.6895 253.8428,553.4072 Q253.4609,553.125 252.6973,553.125 Q252,553.125 251.2405,553.4197 Q250.481,553.7144 249.6841,554.2954 L249.6841,552.0708 Q250.4976,551.606 251.3318,551.3694 Q252.166,551.1328 253.0044,551.1328 Q254.6812,551.1328 255.6357,551.9131 Q256.5903,552.6934 256.5903,554.063 Q256.5903,554.6938 256.3081,555.2375 Q256.0259,555.7813 255.2456,556.5449 L254.5151,557.2588 Q253.9507,557.8066 253.793,558.1553 Q253.6353,558.5039 253.6353,559.0103 Q253.6353,559.085 253.6311,559.1846 Q253.627,559.2842 253.6187,559.4004 Z "/><text fill="#000000" font-family="sans-serif" font-size="12" lengthAdjust="spacingAndGlyphs" textLength="186" x="267.25" y="562.0352">My::Example::Role::PickRandom</text><line style="stroke: #A80036; stroke-width: 1.5;" x1="239.25" x2="455.25" y1="573.5" y2="573.5"/><line style="stroke: #A80036; stroke-width: 1.5;" x1="239.25" x2="455.25" y1="581.5" y2="581.5"/><text fill="#000000" font-family="sans-serif" font-size="11" lengthAdjust="spacingAndGlyphs" textLength="54" x="244.25" y="596.1348">dice_roll()</text><rect fill="#FEFECE" filter="url(#f1)" height="60.9551" style="stroke: #A80036; stroke-width: 1.5;" width="218" x="491.25" y="541.5"/><ellipse cx="506.25" cy="557.5" fill="#FFFFFF" rx="11" ry="11" style="stroke: #A80036; stroke-width: 1.0;"/><path d="M504.4023,561.4009 L506.6187,561.4009 L506.6187,563.75 L504.4023,563.75 Z M506.6187,560.4214 L504.4023,560.4214 L504.4023,559.1431 Q504.4023,558.3213 504.6597,557.7402 Q504.917,557.1592 505.5811,556.5117 L506.3281,555.7729 Q506.8511,555.2666 507.0378,554.9346 Q507.2246,554.6025 507.2246,554.2456 Q507.2246,553.6895 506.8428,553.4072 Q506.4609,553.125 505.6973,553.125 Q505,553.125 504.2405,553.4197 Q503.481,553.7144 502.6841,554.2954 L502.6841,552.0708 Q503.4976,551.606 504.3318,551.3694 Q505.166,551.1328 506.0044,551.1328 Q507.6812,551.1328 508.6357,551.9131 Q509.5903,552.6934 509.5903,554.063 Q509.5903,554.6938 509.3081,555.2375 Q509.0259,555.7813 508.2456,556.5449 L507.5151,557.2588 Q506.9507,557.8066 506.793,558.1553 Q506.6353,558.5039 506.6353,559.0103 Q506.6353,559.085 506.6311,559.1846 Q506.627,559.2842 506.6187,559.4004 Z "/><text fill="#000000" font-family="sans-serif" font-size="12" lengthAdjust="spacingAndGlyphs" textLength="186" x="520.25" y="562.0352">My::Example::Role::PickRandom</text><line style="stroke: #A80036; stroke-width: 1.5;" x1="492.25" x2="708.25" y1="573.5" y2="573.5"/><line style="stroke: #A80036; stroke-width: 1.5;" x1="492.25" x2="708.25" y1="581.5" y2="581.5"/><text fill="#000000" font-family="sans-serif" font-size="11" lengthAdjust="spacingAndGlyphs" textLength="54" x="497.25" y="596.1348">coin_flip()</text><rect fill="#FEFECE" filter="url(#f1)" height="60.9551" style="stroke: #A80036; stroke-width: 1.5;" width="227" x="361" y="784.5"/><ellipse cx="376" cy="800.5" fill="#FF7700" rx="11" ry="11" style="stroke: #A80036; stroke-width: 1.0;"/><path d="M377.1987,800.6479 Q377.564,800.7227 377.8337,800.9924 Q378.1035,801.2622 378.4937,802.0425 L380.7349,806.5 L378.0454,806.5 L376.5513,803.3706 Q376.4849,803.2378 376.377,803.0054 Q375.7212,801.6025 374.833,801.6025 L374.0527,801.6025 L374.0527,806.5 L371.604,806.5 L371.604,794.1069 L375.1401,794.1069 Q377.5308,794.1069 378.5725,794.9536 Q379.6143,795.8003 379.6143,797.7095 Q379.6143,798.9878 378.9917,799.7432 Q378.3691,800.4985 377.1987,800.6479 Z M374.0527,796.1655 L374.0527,799.5439 L375.2065,799.5439 Q376.2109,799.5439 376.6467,799.1497 Q377.0825,798.7554 377.0825,797.8506 Q377.0825,796.9458 376.6509,796.5557 Q376.2192,796.1655 375.2065,796.1655 Z "/><text fill="#000000" font-family="sans-serif" font-size="12" lengthAdjust="spacingAndGlyphs" textLength="195" x="390" y="805.0352">My::Example::Role::RandomValue</text><line style="stroke: #A80036; stroke-width: 1.5;" x1="362" x2="587" y1="816.5" y2="816.5"/><line style="stroke: #A80036; stroke-width: 1.5;" x1="362" x2="587" y1="824.5" y2="824.5"/><text fill="#000000" font-family="sans-serif" font-size="11" lengthAdjust="spacingAndGlyphs" textLength="84" x="367" y="839.1348">random_value()</text><rect fill="#FEFECE" filter="url(#f1)" height="48" style="stroke: #A80036; stroke-width: 1.5;" width="205" x="745" y="676"/><ellipse cx="760" cy="692" fill="#DA70D6" rx="11" ry="11" style="stroke: #A80036; stroke-width: 1.0;"/><path d="M759.7935,687.6655 L759.7935,691.3013 L760.7979,691.3013 Q762.0015,691.3013 762.4871,690.8945 Q762.9727,690.4878 762.9727,689.4834 Q762.9727,688.479 762.4871,688.0723 Q762.0015,687.6655 760.7979,687.6655 Z M757.3447,685.6069 L760.7065,685.6069 Q763.2715,685.6069 764.3962,686.52 Q765.521,687.4331 765.521,689.4834 Q765.521,691.5337 764.3962,692.4468 Q763.2715,693.3599 760.7065,693.3599 L759.7935,693.3599 L759.7935,698 L757.3447,698 Z "/><text fill="#000000" font-family="sans-serif" font-size="12" lengthAdjust="spacingAndGlyphs" textLength="173" x="774" y="696.5352">My::Example::Role::ShedColor</text><line style="stroke: #A80036; stroke-width: 1.5;" x1="746" x2="949" y1="708" y2="708"/><line style="stroke: #A80036; stroke-width: 1.5;" x1="746" x2="949" y1="716" y2="716"/><rect fill="#FEFECE" filter="url(#f1)" height="73.9102" style="stroke: #A80036; stroke-width: 1.5;" width="205" x="745" y="535"/><ellipse cx="760" cy="551" fill="#FFFFFF" rx="11" ry="11" style="stroke: #A80036; stroke-width: 1.0;"/><path d="M758.1523,554.9009 L760.3687,554.9009 L760.3687,557.25 L758.1523,557.25 Z M760.3687,553.9214 L758.1523,553.9214 L758.1523,552.6431 Q758.1523,551.8213 758.4097,551.2402 Q758.667,550.6592 759.3311,550.0117 L760.0781,549.2729 Q760.6011,548.7666 760.7878,548.4346 Q760.9746,548.1025 760.9746,547.7456 Q760.9746,547.1895 760.5928,546.9072 Q760.2109,546.625 759.4473,546.625 Q758.75,546.625 757.9905,546.9197 Q757.231,547.2144 756.4341,547.7954 L756.4341,545.5708 Q757.2476,545.106 758.0818,544.8694 Q758.916,544.6328 759.7544,544.6328 Q761.4312,544.6328 762.3857,545.4131 Q763.3403,546.1934 763.3403,547.563 Q763.3403,548.1938 763.0581,548.7375 Q762.7759,549.2813 761.9956,550.0449 L761.2651,550.7588 Q760.7007,551.3066 760.543,551.6553 Q760.3853,552.0039 760.3853,552.5103 Q760.3853,552.585 760.3811,552.6846 Q760.377,552.7842 760.3687,552.9004 Z "/><text fill="#000000" font-family="sans-serif" font-size="12" lengthAdjust="spacingAndGlyphs" textLength="173" x="774" y="555.5352">My::Example::Role::ShedColor</text><line style="stroke: #A80036; stroke-width: 1.5;" x1="746" x2="949" y1="567" y2="567"/><text fill="#000000" font-family="sans-serif" font-size="11" lengthAdjust="spacingAndGlyphs" textLength="28" x="751" y="581.6348">color</text><line style="stroke: #A80036; stroke-width: 1.5;" x1="746" x2="949" y1="587.9551" y2="587.9551"/><text fill="#000000" font-family="sans-serif" font-size="11" lengthAdjust="spacingAndGlyphs" textLength="35" x="751" y="602.5898">paint()</text><rect fill="#FEFECE" filter="url(#f1)" height="151.6406" style="stroke: #A80036; stroke-width: 1.5;" width="196" x="237.25" y="316"/><ellipse cx="252.25" cy="332" fill="#FF7700" rx="11" ry="11" style="stroke: #A80036; stroke-width: 1.0;"/><path d="M253.4487,332.1479 Q253.814,332.2227 254.0837,332.4924 Q254.3535,332.7622 254.7437,333.5425 L256.9849,338 L254.2954,338 L252.8013,334.8706 Q252.7349,334.7378 252.627,334.5054 Q251.9712,333.1025 251.083,333.1025 L250.3027,333.1025 L250.3027,338 L247.854,338 L247.854,325.6069 L251.3901,325.6069 Q253.7808,325.6069 254.8225,326.4536 Q255.8643,327.3003 255.8643,329.2095 Q255.8643,330.4878 255.2417,331.2432 Q254.6191,331.9985 253.4487,332.1479 Z M250.3027,327.6655 L250.3027,331.0439 L251.4565,331.0439 Q252.4609,331.0439 252.8967,330.6497 Q253.3325,330.2554 253.3325,329.3506 Q253.3325,328.4458 252.9009,328.0557 Q252.4692,327.6655 251.4565,327.6655 Z "/><text fill="#000000" font-family="sans-serif" font-size="12" lengthAdjust="spacingAndGlyphs" textLength="164" x="266.25" y="336.5352">My::Example::Role::StarTrek</text><line style="stroke: #A80036; stroke-width: 1.5;" x1="238.25" x2="432.25" y1="348" y2="348"/><text fill="#000000" font-family="sans-serif" font-size="11" lengthAdjust="spacingAndGlyphs" textLength="44" x="243.25" y="362.6348">checkov</text><text fill="#000000" font-family="sans-serif" font-size="11" lengthAdjust="spacingAndGlyphs" textLength="20" x="243.25" y="375.5898">kirk</text><text fill="#000000" font-family="sans-serif" font-size="11" lengthAdjust="spacingAndGlyphs" textLength="35" x="243.25" y="388.5449">mccoy</text><text fill="#000000" font-family="sans-serif" font-size="11" lengthAdjust="spacingAndGlyphs" textLength="33" x="243.25" y="401.5">scotty</text><text fill="#000000" font-family="sans-serif" font-size="11" lengthAdjust="spacingAndGlyphs" textLength="32" x="243.25" y="414.4551">spock</text><text fill="#000000" font-family="sans-serif" font-size="11" lengthAdjust="spacingAndGlyphs" textLength="23" x="243.25" y="427.4102">sulu</text><text fill="#000000" font-family="sans-serif" font-size="11" lengthAdjust="spacingAndGlyphs" textLength="32" x="243.25" y="440.3652">uhura</text><line style="stroke: #A80036; stroke-width: 1.5;" x1="238.25" x2="432.25" y1="446.6855" y2="446.6855"/><text fill="#000000" font-family="sans-serif" font-size="11" lengthAdjust="spacingAndGlyphs" textLength="79" x="243.25" y="461.3203">beam_me_up()</text><rect fill="#FEFECE" filter="url(#f1)" height="73.9102" style="stroke: #A80036; stroke-width: 1.5;" width="197" x="6" y="535"/><ellipse cx="21" cy="551" fill="#FF7700" rx="11" ry="11" style="stroke: #A80036; stroke-width: 1.0;"/><path d="M22.1987,551.1479 Q22.564,551.2227 22.8337,551.4924 Q23.1035,551.7622 23.4937,552.5425 L25.7349,557 L23.0454,557 L21.5513,553.8706 Q21.4849,553.7378 21.377,553.5054 Q20.7212,552.1025 19.833,552.1025 L19.0527,552.1025 L19.0527,557 L16.604,557 L16.604,544.6069 L20.1401,544.6069 Q22.5308,544.6069 23.5725,545.4536 Q24.6143,546.3003 24.6143,548.2095 Q24.6143,549.4878 23.9917,550.2432 Q23.3691,550.9985 22.1987,551.1479 Z M19.0527,546.6655 L19.0527,550.0439 L20.2065,550.0439 Q21.2109,550.0439 21.6467,549.6497 Q22.0825,549.2554 22.0825,548.3506 Q22.0825,547.4458 21.6509,547.0557 Q21.2192,546.6655 20.2065,546.6655 Z "/><text fill="#000000" font-family="sans-serif" font-size="12" lengthAdjust="spacingAndGlyphs" textLength="165" x="35" y="555.5352">My::Example::Role::TVSeries</text><line style="stroke: #A80036; stroke-width: 1.5;" x1="7" x2="202" y1="567" y2="567"/><text fill="#000000" font-family="sans-serif" font-size="11" lengthAdjust="spacingAndGlyphs" textLength="72" x="12" y="581.6348">actor_factory</text><line style="stroke: #A80036; stroke-width: 1.5;" x1="7" x2="202" y1="587.9551" y2="587.9551"/><text fill="#000000" font-family="sans-serif" font-size="11" lengthAdjust="spacingAndGlyphs" textLength="138" x="12" y="602.5898">get_actor_for_character()</text><rect fill="#FEFECE" filter="url(#f1)" height="48" style="stroke: #A80036; stroke-width: 1.5;" width="189" x="1221" y="548"/><ellipse cx="1236" cy="564" fill="#DA70D6" rx="11" ry="11" style="stroke: #A80036; stroke-width: 1.0;"/><path d="M1235.7935,559.6655 L1235.7935,563.3013 L1236.7979,563.3013 Q1238.0015,563.3013 1238.4871,562.8945 Q1238.9727,562.4878 1238.9727,561.4834 Q1238.9727,560.479 1238.4871,560.0723 Q1238.0015,559.6655 1236.7979,559.6655 Z M1233.3447,557.6069 L1236.7065,557.6069 Q1239.2715,557.6069 1240.3962,558.52 Q1241.521,559.4331 1241.521,561.4834 Q1241.521,563.5337 1240.3962,564.4468 Q1239.2715,565.3599 1236.7065,565.3599 L1235.7935,565.3599 L1235.7935,570 L1233.3447,570 Z "/><text fill="#000000" font-family="sans-serif" font-size="12" lengthAdjust="spacingAndGlyphs" textLength="157" x="1250" y="568.5352">My::Example::Role::Tribute</text><line style="stroke: #A80036; stroke-width: 1.5;" x1="1222" x2="1409" y1="580" y2="580"/><line style="stroke: #A80036; stroke-width: 1.5;" x1="1222" x2="1409" y1="588" y2="588"/><rect fill="#FEFECE" filter="url(#f1)" height="48" style="stroke: #A80036; stroke-width: 1.5;" width="189" x="991" y="368"/><ellipse cx="1006" cy="384" fill="#FFFFFF" rx="11" ry="11" style="stroke: #A80036; stroke-width: 1.0;"/><path d="M1004.1523,387.9009 L1006.3687,387.9009 L1006.3687,390.25 L1004.1523,390.25 Z M1006.3687,386.9214 L1004.1523,386.9214 L1004.1523,385.6431 Q1004.1523,384.8213 1004.4097,384.2402 Q1004.667,383.6592 1005.3311,383.0117 L1006.0781,382.2729 Q1006.6011,381.7666 1006.7878,381.4346 Q1006.9746,381.1025 1006.9746,380.7456 Q1006.9746,380.1895 1006.5928,379.9072 Q1006.2109,379.625 1005.4473,379.625 Q1004.75,379.625 1003.9905,379.9197 Q1003.231,380.2144 1002.4341,380.7954 L1002.4341,378.5708 Q1003.2476,378.106 1004.0818,377.8694 Q1004.916,377.6328 1005.7544,377.6328 Q1007.4312,377.6328 1008.3857,378.4131 Q1009.3403,379.1934 1009.3403,380.563 Q1009.3403,381.1938 1009.0581,381.7375 Q1008.7759,382.2813 1007.9956,383.0449 L1007.2651,383.7588 Q1006.7007,384.3066 1006.543,384.6553 Q1006.3853,385.0039 1006.3853,385.5103 Q1006.3853,385.585 1006.3811,385.6846 Q1006.377,385.7842 1006.3687,385.9004 Z "/><text fill="#000000" font-family="sans-serif" font-size="12" lengthAdjust="spacingAndGlyphs" textLength="157" x="1020" y="388.5352">My::Example::Role::Tribute</text><line style="stroke: #A80036; stroke-width: 1.5;" x1="992" x2="1179" y1="400" y2="400"/><line style="stroke: #A80036; stroke-width: 1.5;" x1="992" x2="1179" y1="408" y2="408"/><rect fill="#FEFECE" filter="url(#f1)" height="73.9102" style="stroke: #A80036; stroke-width: 1.5;" width="175" x="491" y="162"/><ellipse cx="506" cy="178" fill="#ADD1B2" rx="11" ry="11" style="stroke: #A80036; stroke-width: 1.0;"/><path d="M508.9731,183.6431 Q508.3921,183.9419 507.7529,184.0913 Q507.1138,184.2407 506.4082,184.2407 Q503.9014,184.2407 502.5815,182.5889 Q501.2617,180.937 501.2617,177.8159 Q501.2617,174.6865 502.5815,173.0347 Q503.9014,171.3828 506.4082,171.3828 Q507.1138,171.3828 507.7612,171.5322 Q508.4087,171.6816 508.9731,171.9805 L508.9731,174.7031 Q508.3423,174.1221 507.7488,173.8523 Q507.1553,173.5825 506.5244,173.5825 Q505.1797,173.5825 504.4949,174.6492 Q503.8101,175.7158 503.8101,177.8159 Q503.8101,179.9077 504.4949,180.9744 Q505.1797,182.041 506.5244,182.041 Q507.1553,182.041 507.7488,181.7712 Q508.3423,181.5015 508.9731,180.9204 Z "/><text fill="#000000" font-family="sans-serif" font-size="12" lengthAdjust="spacingAndGlyphs" textLength="143" x="520" y="182.5352">My::Example::Superclass</text><line style="stroke: #A80036; stroke-width: 1.5;" x1="492" x2="665" y1="194" y2="194"/><text fill="#000000" font-family="sans-serif" font-size="11" lengthAdjust="spacingAndGlyphs" textLength="126" x="497" y="208.6348">attribute_in_superclass</text><line style="stroke: #A80036; stroke-width: 1.5;" x1="492" x2="665" y1="214.9551" y2="214.9551"/><text fill="#000000" font-family="sans-serif" font-size="11" lengthAdjust="spacingAndGlyphs" textLength="129" x="497" y="229.5898">method_in_superclass()</text><path d="M237.62,468.23 C209.335,490.026 179.584,512.951 155.376,531.604 " fill="none" style="stroke: #A80036; stroke-width: 1.0;"/><polygon fill="#A80036" points="151.232,534.798,160.8025,532.4731,155.1926,531.7461,155.9195,526.1362,151.232,534.798" style="stroke: #A80036; stroke-width: 1.0;"/><path d="M847.25,609.107 C847.25,628.614 847.25,652.356 847.25,670.541 " fill="none" style="stroke: #A80036; stroke-width: 1.0;"/><polygon fill="#A80036" points="847.25,675.995,851.25,666.995,847.25,670.995,843.25,666.995,847.25,675.995" style="stroke: #A80036; stroke-width: 1.0;"/><path d="M632.143,422.593 C675.539,452.533 742.861,498.98 790.62,531.93 " fill="none" style="stroke: #A80036; stroke-width: 1.0;"/><polygon fill="#A80036" points="794.889,534.875,789.7532,526.4712,790.7737,532.0353,785.2096,533.0557,794.889,534.875" style="stroke: #A80036; stroke-width: 1.0;"/><path d="M591.091,422.793 C593.024,454.076 596.061,503.22 598.102,536.249 " fill="none" style="stroke: #A80036; stroke-width: 1.0;"/><polygon fill="#A80036" points="598.421,541.406,601.8579,532.1763,598.1124,536.4155,593.8731,532.67,598.421,541.406" style="stroke: #A80036; stroke-width: 1.0;"/><path d="M549.017,422.593 C505.66,454.484 436.84,505.103 391.856,538.19 " fill="none" style="stroke: #A80036; stroke-width: 1.0;"/><polygon fill="#A80036" points="387.579,541.336,397.1988,539.2244,391.6064,538.3729,392.4579,532.7805,387.579,541.336" style="stroke: #A80036; stroke-width: 1.0;"/><path d="M570.709,602.541 C549.618,623.632 521.48,651.77 501.04,672.21 " fill="none" style="stroke: #A80036; stroke-width: 1.0;"/><polygon fill="#A80036" points="497.317,675.933,506.5094,672.3975,500.8525,672.3975,500.8525,666.7406,497.317,675.933" style="stroke: #A80036; stroke-width: 1.0;"/><path d="M1115.32,416.27 C1158.11,449.385 1236.34,509.928 1281.2,544.652 " fill="none" style="stroke: #A80036; stroke-width: 1.0;"/><polygon fill="#A80036" points="1285.17,547.724,1280.4964,539.0547,1281.2143,544.6658,1275.6032,545.3838,1285.17,547.724" style="stroke: #A80036; stroke-width: 1.0;"/><path d="M1085.25,416.27 C1085.25,443.306 1085.25,488.625 1085.25,523.249 " fill="none" style="stroke: #A80036; stroke-width: 1.0;"/><polygon fill="#A80036" points="1085.25,528.276,1089.25,519.276,1085.25,523.276,1081.25,519.276,1085.25,528.276" style="stroke: #A80036; stroke-width: 1.0;"/><path d="M104.25,255.542 C104.25,330.701 104.25,463.061 104.25,529.907 " fill="none" style="stroke: #A80036; stroke-width: 1.0;"/><polygon fill="#A80036" points="104.25,534.995,108.25,525.995,104.25,529.995,100.25,525.995,104.25,534.995" style="stroke: #A80036; stroke-width: 1.0;"/><path d="M276.691,82.022 C251.187,99.175 220.035,120.127 191.26,139.48 " fill="none" style="stroke: #A80036; stroke-width: 1.0;"/><polygon fill="#A80036" points="187.033,142.323,196.733,140.6174,191.1813,139.5317,192.267,133.98,187.033,142.323" style="stroke: #A80036; stroke-width: 1.0;"/><path d="M330.25,82.022 C330.25,102.422 330.25,128.194 330.25,150.26 " fill="none" style="stroke: #A80036; stroke-width: 1.0;"/><polygon fill="#A80036" points="330.25,155.491,334.25,146.491,330.25,150.491,326.25,146.491,330.25,155.491" style="stroke: #A80036; stroke-width: 1.0;"/><path d="M389.023,82.022 C426.874,105.221 476.061,135.368 514.799,159.111 " fill="none" style="stroke: #A80036; stroke-width: 1.0;"/><polygon fill="#A80036" points="519.47,161.974,513.887,153.8604,515.2071,159.3611,509.7064,160.6811,519.47,161.974" style="stroke: #A80036; stroke-width: 1.0;"/><path d="M282.64,242.622 C261.398,263.32 237.178,289.427 219.25,316 C172.282,385.616 136.295,477.533 117.884,529.859 " fill="none" style="stroke: #A80036; stroke-width: 1.0;"/><polygon fill="#A80036" points="116.157,534.797,122.9029,527.6211,117.807,530.0771,115.351,524.9812,116.157,534.797" style="stroke: #A80036; stroke-width: 1.0;"/><path d="M377.026,602.541 C398.284,623.632 426.645,651.77 447.247,672.21 " fill="none" style="stroke: #A80036; stroke-width: 1.0;"/><polygon fill="#A80036" points="451,675.933,447.4274,666.755,447.4502,672.4118,441.7934,672.4346,451,675.933" style="stroke: #A80036; stroke-width: 1.0;"/><path d="M474.25,724.14 C474.25,739.939 474.25,761.1609 474.25,779.0137 " fill="none" style="stroke: #A80036; stroke-width: 1.0;"/><polygon fill="#A80036" points="474.25,784.4363,478.25,775.4363,474.25,779.4363,470.25,775.4363,474.25,784.4363" style="stroke: #A80036; stroke-width: 1.0;"/><path d="M532.258,236.15 C504.756,257.767 468.703,286.105 434.967,312.622 " fill="none" style="stroke: #A80036; stroke-width: 1.0;"/><polygon fill="#A80036" points="430.865,315.846,440.4133,313.4315,434.7968,312.7571,435.4711,307.1406,430.865,315.846" style="stroke: #A80036; stroke-width: 1.0;"/><path d="M580.345,236.375 C582.327,270.793 585.282,322.102 587.237,356.046 " fill="none" style="stroke: #A80036; stroke-width: 1.0;"/><polygon fill="#A80036" points="587.542,361.339,591.0159,352.1231,587.2534,356.3473,583.0292,352.5849,587.542,361.339" style="stroke: #A80036; stroke-width: 1.0;"/><path d="M665.695,232.943 C766.158,270.79 928.75,332.042 1019.2,366.116 " fill="none" style="stroke: #A80036; stroke-width: 1.0;"/><polygon fill="#A80036" points="1023.98,367.918,1016.961,361.009,1019.2992,366.16,1014.1483,368.4983,1023.98,367.918" style="stroke: #A80036; stroke-width: 1.0;"/></g></svg>