<?xml version="1.0" encoding="UTF-8" standalone="no"?>
<!DOCTYPE svg PUBLIC "-//W3C//DTD SVG 1.1//EN"
 "http://www.w3.org/Graphics/SVG/1.1/DTD/svg11.dtd">
<!-- Generated by graphviz version 2.38.0 (20140413.2041)
 -->
<!-- Title: Perl Pages: 1 -->
<svg width="741pt" height="998pt"
 viewBox="0.00 0.00 740.50 998.00" xmlns="http://www.w3.org/2000/svg" xmlns:xlink="http://www.w3.org/1999/xlink">
<g id="graph0" class="graph" transform="scale(1 1) rotate(0) translate(4 994)">
<title>Perl</title>
<polygon fill="white" stroke="none" points="-4,4 -4,-994 736.5,-994 736.5,4 -4,4"/>
<text text-anchor="middle" x="366.25" y="-7.8" font-family="Times,serif" font-size="14.00">json.2.bnf</text>
<!-- ꞉default -->
<g id="node1" class="node"><title>꞉default</title>
<path fill="pink" stroke="black" d="M96.5,-881.5C96.5,-881.5 131.5,-881.5 131.5,-881.5 137.5,-881.5 143.5,-887.5 143.5,-893.5 143.5,-893.5 143.5,-905.5 143.5,-905.5 143.5,-911.5 137.5,-917.5 131.5,-917.5 131.5,-917.5 96.5,-917.5 96.5,-917.5 90.5,-917.5 84.5,-911.5 84.5,-905.5 84.5,-905.5 84.5,-893.5 84.5,-893.5 84.5,-887.5 90.5,-881.5 96.5,-881.5"/>
<text text-anchor="middle" x="114" y="-895.8" font-family="Times,serif" font-size="14.00">꞉default</text>
</g>
<!-- ꞉default_1 -->
<g id="node3" class="node"><title>꞉default_1</title>
<path fill="pink" stroke="black" d="M71.5,-808.5C71.5,-808.5 154.5,-808.5 154.5,-808.5 160.5,-808.5 166.5,-814.5 166.5,-820.5 166.5,-820.5 166.5,-832.5 166.5,-832.5 166.5,-838.5 160.5,-844.5 154.5,-844.5 154.5,-844.5 71.5,-844.5 71.5,-844.5 65.5,-844.5 59.5,-838.5 59.5,-832.5 59.5,-832.5 59.5,-820.5 59.5,-820.5 59.5,-814.5 65.5,-808.5 71.5,-808.5"/>
<text text-anchor="middle" x="113" y="-822.8" font-family="Times,serif" font-size="14.00">action =&gt; ::array</text>
</g>
<!-- ꞉default&#45;&gt;꞉default_1 -->
<g id="edge2" class="edge"><title>꞉default&#45;&gt;꞉default_1</title>
<path fill="none" stroke="grey" d="M113.758,-881.313C113.645,-873.289 113.508,-863.547 113.381,-854.569"/>
<polygon fill="grey" stroke="grey" points="116.88,-854.479 113.24,-844.529 109.881,-854.577 116.88,-854.479"/>
</g>
<!-- DSL -->
<g id="node2" class="node"><title>DSL</title>
<polygon fill="lightgrey" stroke="black" points="286,-990 232,-990 232,-954 286,-954 286,-990"/>
<text text-anchor="middle" x="259" y="-968.3" font-family="Times,serif" font-size="14.00">DSL</text>
</g>
<!-- DSL&#45;&gt;꞉default -->
<g id="edge1" class="edge"><title>DSL&#45;&gt;꞉default</title>
<path fill="none" stroke="grey" d="M231.727,-957.739C209.467,-946.917 177.737,-931.489 152.826,-919.377"/>
<polygon fill="grey" stroke="grey" points="154.17,-916.139 143.646,-914.914 151.109,-922.435 154.17,-916.139"/>
</g>
<!-- lexeme default -->
<g id="node4" class="node"><title>lexeme default</title>
<polygon fill="goldenrod" stroke="black" points="261,-917.5 163,-917.5 163,-881.5 261,-881.5 261,-917.5"/>
<text text-anchor="middle" x="212" y="-895.8" font-family="Times,serif" font-size="14.00">lexeme default</text>
</g>
<!-- DSL&#45;&gt;lexeme default -->
<g id="edge3" class="edge"><title>DSL&#45;&gt;lexeme default</title>
<path fill="none" stroke="grey" d="M247.623,-953.934C242.105,-945.658 235.36,-935.54 229.229,-926.343"/>
<polygon fill="grey" stroke="grey" points="232.058,-924.278 223.599,-917.899 226.234,-928.161 232.058,-924.278"/>
</g>
<!-- start -->
<g id="node6" class="node"><title>start</title>
<path fill="lightblue" stroke="black" d="M291,-881.5C291,-881.5 321,-881.5 321,-881.5 327,-881.5 333,-887.5 333,-893.5 333,-893.5 333,-905.5 333,-905.5 333,-911.5 327,-917.5 321,-917.5 321,-917.5 291,-917.5 291,-917.5 285,-917.5 279,-911.5 279,-905.5 279,-905.5 279,-893.5 279,-893.5 279,-887.5 285,-881.5 291,-881.5"/>
<text text-anchor="middle" x="306" y="-895.8" font-family="Times,serif" font-size="14.00">꞉start</text>
</g>
<!-- DSL&#45;&gt;start -->
<g id="edge5" class="edge"><title>DSL&#45;&gt;start</title>
<path fill="none" stroke="grey" d="M270.377,-953.934C275.895,-945.658 282.64,-935.54 288.771,-926.343"/>
<polygon fill="grey" stroke="grey" points="291.766,-928.161 294.401,-917.899 285.942,-924.278 291.766,-928.161"/>
</g>
<!-- ꞉discard -->
<g id="node26" class="node"><title>꞉discard</title>
<path fill="magenta" stroke="black" d="M366,-881.5C366,-881.5 402,-881.5 402,-881.5 408,-881.5 414,-887.5 414,-893.5 414,-893.5 414,-905.5 414,-905.5 414,-911.5 408,-917.5 402,-917.5 402,-917.5 366,-917.5 366,-917.5 360,-917.5 354,-911.5 354,-905.5 354,-905.5 354,-893.5 354,-893.5 354,-887.5 360,-881.5 366,-881.5"/>
<text text-anchor="middle" x="384" y="-895.8" font-family="Times,serif" font-size="14.00">꞉discard</text>
</g>
<!-- DSL&#45;&gt;꞉discard -->
<g id="edge30" class="edge"><title>DSL&#45;&gt;꞉discard</title>
<path fill="none" stroke="grey" d="M286.123,-955.703C303.355,-945.984 325.938,-933.247 345.068,-922.457"/>
<polygon fill="grey" stroke="grey" points="346.872,-925.458 353.863,-917.497 343.433,-919.361 346.872,-925.458"/>
</g>
<!-- lexeme default_1 -->
<g id="node5" class="node"><title>lexeme default_1</title>
<path fill="goldenrod" stroke="black" d="M196.5,-808.5C196.5,-808.5 243.5,-808.5 243.5,-808.5 249.5,-808.5 255.5,-814.5 255.5,-820.5 255.5,-820.5 255.5,-832.5 255.5,-832.5 255.5,-838.5 249.5,-844.5 243.5,-844.5 243.5,-844.5 196.5,-844.5 196.5,-844.5 190.5,-844.5 184.5,-838.5 184.5,-832.5 184.5,-832.5 184.5,-820.5 184.5,-820.5 184.5,-814.5 190.5,-808.5 196.5,-808.5"/>
<text text-anchor="middle" x="220" y="-822.8" font-family="Times,serif" font-size="14.00">latm =&gt; 1</text>
</g>
<!-- lexeme default&#45;&gt;lexeme default_1 -->
<g id="edge4" class="edge"><title>lexeme default&#45;&gt;lexeme default_1</title>
<path fill="none" stroke="grey" d="M213.937,-881.313C214.841,-873.289 215.938,-863.547 216.95,-854.569"/>
<polygon fill="grey" stroke="grey" points="220.439,-854.858 218.081,-844.529 213.484,-854.074 220.439,-854.858"/>
</g>
<!-- json -->
<g id="node7" class="node"><title>json</title>
<path fill="lightblue" stroke="black" d="M288,-808.5C288,-808.5 318,-808.5 318,-808.5 324,-808.5 330,-814.5 330,-820.5 330,-820.5 330,-832.5 330,-832.5 330,-838.5 324,-844.5 318,-844.5 318,-844.5 288,-844.5 288,-844.5 282,-844.5 276,-838.5 276,-832.5 276,-832.5 276,-820.5 276,-820.5 276,-814.5 282,-808.5 288,-808.5"/>
<text text-anchor="middle" x="303" y="-822.8" font-family="Times,serif" font-size="14.00">json</text>
</g>
<!-- start&#45;&gt;json -->
<g id="edge6" class="edge"><title>start&#45;&gt;json</title>
<path fill="none" stroke="grey" d="M305.274,-881.313C304.935,-873.289 304.523,-863.547 304.144,-854.569"/>
<polygon fill="grey" stroke="grey" points="307.639,-854.372 303.72,-844.529 300.645,-854.668 307.639,-854.372"/>
</g>
<!-- object -->
<g id="node8" class="node"><title>object</title>
<polygon fill="CornflowerBlue" stroke="black" points="267,-772 213,-772 213,-736 267,-736 267,-772"/>
<text text-anchor="middle" x="240" y="-750.3" font-family="Times,serif" font-size="14.00">object</text>
</g>
<!-- json&#45;&gt;object -->
<g id="edge7" class="edge"><title>json&#45;&gt;object</title>
<path fill="none" stroke="grey" d="M287.749,-808.434C280.125,-799.902 270.751,-789.412 262.334,-779.993"/>
<polygon fill="grey" stroke="grey" points="264.821,-777.523 255.548,-772.399 259.601,-782.187 264.821,-777.523"/>
</g>
<!-- array -->
<g id="node9" class="node"><title>array</title>
<polygon fill="CornflowerBlue" stroke="black" points="375,-340 321,-340 321,-304 375,-304 375,-340"/>
<text text-anchor="middle" x="348" y="-318.3" font-family="Times,serif" font-size="14.00">array</text>
</g>
<!-- json&#45;&gt;array -->
<g id="edge8" class="edge"><title>json&#45;&gt;array</title>
<path fill="none" stroke="grey" d="M308.464,-808.151C316.353,-781.518 330,-728.827 330,-683 330,-683 330,-683 330,-465 330,-424.896 337.153,-378.924 342.441,-350.419"/>
<polygon fill="grey" stroke="grey" points="345.917,-350.878 344.357,-340.399 339.041,-349.563 345.917,-350.878"/>
</g>
<!-- ( &#39;{&#39; ) members ( &#39;}&#39; ) -->
<g id="node10" class="node"><title>( &#39;{&#39; ) members ( &#39;}&#39; )</title>
<polygon fill="CornflowerBlue" stroke="black" points="192.5,-700 59.5,-700 59.5,-664 192.5,-664 192.5,-700"/>
<text text-anchor="middle" x="126" y="-678.3" font-family="Times,serif" font-size="14.00">( &#39;{&#39; ) members ( &#39;}&#39; )</text>
</g>
<!-- object&#45;&gt;( &#39;{&#39; ) members ( &#39;}&#39; ) -->
<g id="edge9" class="edge"><title>object&#45;&gt;( &#39;{&#39; ) members ( &#39;}&#39; )</title>
<path fill="none" stroke="grey" d="M212.984,-736.411C197.984,-727.201 179.112,-715.612 162.782,-705.586"/>
<polygon fill="grey" stroke="grey" points="164.366,-702.451 154.013,-700.201 160.703,-708.416 164.366,-702.451"/>
</g>
<!-- ( &#39;[&#39; &#39;]&#39; ) -->
<g id="node21" class="node"><title>( &#39;[&#39; &#39;]&#39; )</title>
<polygon fill="CornflowerBlue" stroke="black" points="300.5,-268 243.5,-268 243.5,-232 300.5,-232 300.5,-268"/>
<text text-anchor="middle" x="272" y="-246.3" font-family="Times,serif" font-size="14.00">( &#39;[&#39; &#39;]&#39; )</text>
</g>
<!-- array&#45;&gt;( &#39;[&#39; &#39;]&#39; ) -->
<g id="edge24" class="edge"><title>array&#45;&gt;( &#39;[&#39; &#39;]&#39; )</title>
<path fill="none" stroke="grey" d="M329.213,-303.697C319.826,-295.05 308.316,-284.449 298.087,-275.027"/>
<polygon fill="grey" stroke="grey" points="300.297,-272.305 290.57,-268.104 295.555,-277.454 300.297,-272.305"/>
</g>
<!-- ( &#39;[&#39; ) elements ( &#39;]&#39; ) -->
<g id="node22" class="node"><title>( &#39;[&#39; ) elements ( &#39;]&#39; )</title>
<polygon fill="CornflowerBlue" stroke="black" points="445.5,-268 318.5,-268 318.5,-232 445.5,-232 445.5,-268"/>
<text text-anchor="middle" x="382" y="-246.3" font-family="Times,serif" font-size="14.00">( &#39;[&#39; ) elements ( &#39;]&#39; )</text>
</g>
<!-- array&#45;&gt;( &#39;[&#39; ) elements ( &#39;]&#39; ) -->
<g id="edge25" class="edge"><title>array&#45;&gt;( &#39;[&#39; ) elements ( &#39;]&#39; )</title>
<path fill="none" stroke="grey" d="M356.404,-303.697C360.275,-295.728 364.952,-286.1 369.243,-277.264"/>
<polygon fill="grey" stroke="grey" points="372.471,-278.629 373.692,-268.104 366.175,-275.57 372.471,-278.629"/>
</g>
<!-- ( &#39;{&#39; ) -->
<g id="node11" class="node"><title>( &#39;{&#39; )</title>
<polygon fill="CornflowerBlue" stroke="black" points="54,-628 0,-628 0,-592 54,-592 54,-628"/>
<text text-anchor="middle" x="27" y="-606.3" font-family="Times,serif" font-size="14.00">( &#39;{&#39; )</text>
</g>
<!-- ( &#39;{&#39; ) members ( &#39;}&#39; )&#45;&gt;( &#39;{&#39; ) -->
<g id="edge10" class="edge"><title>( &#39;{&#39; ) members ( &#39;}&#39; )&#45;&gt;( &#39;{&#39; )</title>
<path fill="none" stroke="grey" d="M101.782,-663.876C89.0773,-654.893 73.3356,-643.763 59.5768,-634.034"/>
<polygon fill="grey" stroke="grey" points="61.497,-631.105 51.3112,-628.19 57.4557,-636.821 61.497,-631.105"/>
</g>
<!-- members -->
<g id="node12" class="node"><title>members</title>
<polygon fill="CornflowerBlue" stroke="black" points="140,-628 72,-628 72,-592 140,-592 140,-628"/>
<text text-anchor="middle" x="106" y="-606.3" font-family="Times,serif" font-size="14.00">members</text>
</g>
<!-- ( &#39;{&#39; ) members ( &#39;}&#39; )&#45;&gt;members -->
<g id="edge11" class="edge"><title>( &#39;{&#39; ) members ( &#39;}&#39; )&#45;&gt;members</title>
<path fill="none" stroke="grey" d="M121.056,-663.697C118.828,-655.898 116.145,-646.509 113.665,-637.829"/>
<polygon fill="grey" stroke="grey" points="117,-636.758 110.887,-628.104 110.269,-638.681 117,-636.758"/>
</g>
<!-- ( &#39;}&#39; ) -->
<g id="node13" class="node"><title>( &#39;}&#39; )</title>
<polygon fill="CornflowerBlue" stroke="black" points="212,-628 158,-628 158,-592 212,-592 212,-628"/>
<text text-anchor="middle" x="185" y="-606.3" font-family="Times,serif" font-size="14.00">( &#39;}&#39; )</text>
</g>
<!-- ( &#39;{&#39; ) members ( &#39;}&#39; )&#45;&gt;( &#39;}&#39; ) -->
<g id="edge12" class="edge"><title>( &#39;{&#39; ) members ( &#39;}&#39; )&#45;&gt;( &#39;}&#39; )</title>
<path fill="none" stroke="grey" d="M140.584,-663.697C147.658,-655.305 156.283,-645.07 164.045,-635.861"/>
<polygon fill="grey" stroke="grey" points="166.815,-638.006 170.583,-628.104 161.463,-633.495 166.815,-638.006"/>
</g>
<!-- pair -->
<g id="node14" class="node"><title>pair</title>
<polygon fill="CornflowerBlue" stroke="black" points="133,-556 79,-556 79,-520 133,-520 133,-556"/>
<text text-anchor="middle" x="106" y="-534.3" font-family="Times,serif" font-size="14.00">pair</text>
</g>
<!-- members&#45;&gt;pair -->
<g id="edge13" class="edge"><title>members&#45;&gt;pair</title>
<path fill="none" stroke="grey" d="M106,-591.697C106,-583.983 106,-574.712 106,-566.112"/>
<polygon fill="grey" stroke="grey" points="109.5,-566.104 106,-556.104 102.5,-566.104 109.5,-566.104"/>
</g>
<!-- string ( &#39;꞉&#39; ) value -->
<g id="node15" class="node"><title>string ( &#39;꞉&#39; ) value</title>
<polygon fill="CornflowerBlue" stroke="black" points="161,-484 51,-484 51,-448 161,-448 161,-484"/>
<text text-anchor="middle" x="106" y="-462.3" font-family="Times,serif" font-size="14.00">string ( &#39;꞉&#39; ) value</text>
</g>
<!-- pair&#45;&gt;string ( &#39;꞉&#39; ) value -->
<g id="edge14" class="edge"><title>pair&#45;&gt;string ( &#39;꞉&#39; ) value</title>
<path fill="none" stroke="grey" d="M106,-519.697C106,-511.983 106,-502.712 106,-494.112"/>
<polygon fill="grey" stroke="grey" points="109.5,-494.104 106,-484.104 102.5,-494.104 109.5,-494.104"/>
</g>
<!-- string -->
<g id="node16" class="node"><title>string</title>
<polygon fill="CornflowerBlue" stroke="black" points="115,-340 61,-340 61,-304 115,-304 115,-340"/>
<text text-anchor="middle" x="88" y="-318.3" font-family="Times,serif" font-size="14.00">string</text>
</g>
<!-- string ( &#39;꞉&#39; ) value&#45;&gt;string -->
<g id="edge15" class="edge"><title>string ( &#39;꞉&#39; ) value&#45;&gt;string</title>
<path fill="none" stroke="grey" d="M103.829,-447.871C100.761,-423.67 95.1253,-379.211 91.4724,-350.393"/>
<polygon fill="grey" stroke="grey" points="94.9088,-349.67 90.1789,-340.189 87.9643,-350.55 94.9088,-349.67"/>
</g>
<!-- ( &#39;꞉&#39; ) -->
<g id="node17" class="node"><title>( &#39;꞉&#39; )</title>
<polygon fill="CornflowerBlue" stroke="black" points="78,-412 24,-412 24,-376 78,-376 78,-412"/>
<text text-anchor="middle" x="51" y="-390.3" font-family="Times,serif" font-size="14.00">( &#39;꞉&#39; )</text>
</g>
<!-- string ( &#39;꞉&#39; ) value&#45;&gt;( &#39;꞉&#39; ) -->
<g id="edge16" class="edge"><title>string ( &#39;꞉&#39; ) value&#45;&gt;( &#39;꞉&#39; )</title>
<path fill="none" stroke="grey" d="M92.4045,-447.697C85.8773,-439.389 77.932,-429.277 70.7534,-420.141"/>
<polygon fill="grey" stroke="grey" points="73.3695,-417.805 64.4391,-412.104 67.8653,-422.13 73.3695,-417.805"/>
</g>
<!-- value -->
<g id="node18" class="node"><title>value</title>
<polygon fill="CornflowerBlue" stroke="black" points="214,-412 160,-412 160,-376 214,-376 214,-412"/>
<text text-anchor="middle" x="187" y="-390.3" font-family="Times,serif" font-size="14.00">value</text>
</g>
<!-- string ( &#39;꞉&#39; ) value&#45;&gt;value -->
<g id="edge17" class="edge"><title>string ( &#39;꞉&#39; ) value&#45;&gt;value</title>
<path fill="none" stroke="grey" d="M126.022,-447.697C136.126,-438.965 148.536,-428.24 159.518,-418.75"/>
<polygon fill="grey" stroke="grey" points="161.93,-421.291 167.208,-412.104 157.353,-415.995 161.93,-421.291"/>
</g>
<!-- value&#45;&gt;object -->
<g id="edge19" class="edge"><title>value&#45;&gt;object</title>
<path fill="none" stroke="grey" d="M197.982,-412.159C213.506,-438.108 240,-489.372 240,-537 240,-611 240,-611 240,-611 240,-651.004 240,-697.347 240,-725.92"/>
<polygon fill="grey" stroke="grey" points="236.5,-725.951 240,-735.951 243.5,-725.951 236.5,-725.951"/>
</g>
<!-- value&#45;&gt;array -->
<g id="edge21" class="edge"><title>value&#45;&gt;array</title>
<path fill="none" stroke="grey" d="M214.447,-381.734C237.979,-371.995 272.972,-357.319 311.577,-340.113"/>
<polygon fill="grey" stroke="grey" points="313.23,-343.207 320.927,-335.927 310.37,-336.818 313.23,-343.207"/>
</g>
<!-- value&#45;&gt;string -->
<g id="edge18" class="edge"><title>value&#45;&gt;string</title>
<path fill="none" stroke="grey" d="M162.782,-375.876C150.077,-366.893 134.336,-355.763 120.577,-346.034"/>
<polygon fill="grey" stroke="grey" points="122.497,-343.105 112.311,-340.19 118.456,-348.821 122.497,-343.105"/>
</g>
<!-- number -->
<g id="node19" class="node"><title>number</title>
<polygon fill="CornflowerBlue" stroke="black" points="303,-340 243,-340 243,-304 303,-304 303,-340"/>
<text text-anchor="middle" x="273" y="-318.3" font-family="Times,serif" font-size="14.00">number</text>
</g>
<!-- value&#45;&gt;number -->
<g id="edge20" class="edge"><title>value&#45;&gt;number</title>
<path fill="none" stroke="grey" d="M208.258,-375.697C219.089,-366.881 232.418,-356.032 244.16,-346.474"/>
<polygon fill="grey" stroke="grey" points="246.44,-349.132 251.986,-340.104 242.021,-343.703 246.44,-349.132"/>
</g>
<g id="node20" class="node"><title></title>
<polygon fill="CornflowerBlue" stroke="black" points="187,-340 133,-340 133,-304 187,-304 187,-340"/>
</g>
<!-- value&#45;&gt; -->
<g id="edge22" class="edge"><title>value&#45;&gt;</title>
<path fill="none" stroke="grey" d="M174.41,-375.697C170.598,-367.898 166.753,-358.509 163.765,-349.829"/>
<polygon fill="grey" stroke="grey" points="167.044,-348.591 160.702,-340.104 160.368,-350.694 167.044,-348.591"/>
</g>
<!-- value&#45;&gt; -->
<g id="edge23" class="edge"><title>value&#45;&gt;</title>
<path fill="none" stroke="grey" d="M186.242,-375.697C183.99,-367.728 180.491,-358.1 176.69,-349.264"/>
<polygon fill="grey" stroke="grey" points="179.84,-347.737 172.492,-340.104 173.477,-350.653 179.84,-347.737"/>
</g>
<!-- ( &#39;[&#39; ) -->
<g id="node23" class="node"><title>( &#39;[&#39; )</title>
<polygon fill="CornflowerBlue" stroke="black" points="373,-127.5 319,-127.5 319,-91.5 373,-91.5 373,-127.5"/>
<text text-anchor="middle" x="346" y="-105.8" font-family="Times,serif" font-size="14.00">( &#39;[&#39; )</text>
</g>
<!-- ( &#39;[&#39; ) elements ( &#39;]&#39; )&#45;&gt;( &#39;[&#39; ) -->
<g id="edge26" class="edge"><title>( &#39;[&#39; ) elements ( &#39;]&#39; )&#45;&gt;( &#39;[&#39; )</title>
<path fill="none" stroke="grey" d="M377.513,-231.739C371.363,-208.077 360.252,-165.33 353.001,-137.436"/>
<polygon fill="grey" stroke="grey" points="356.333,-136.341 350.43,-127.544 349.558,-138.102 356.333,-136.341"/>
</g>
<!-- elements -->
<g id="node24" class="node"><title>elements</title>
<polygon fill="CornflowerBlue" stroke="black" points="292.5,-127.5 225.5,-127.5 225.5,-91.5 292.5,-91.5 292.5,-127.5"/>
<text text-anchor="middle" x="259" y="-105.8" font-family="Times,serif" font-size="14.00">elements</text>
</g>
<!-- ( &#39;[&#39; ) elements ( &#39;]&#39; )&#45;&gt;elements -->
<g id="edge27" class="edge"><title>( &#39;[&#39; ) elements ( &#39;]&#39; )&#45;&gt;elements</title>
<path fill="none" stroke="grey" d="M353.581,-231.93C339.398,-222.508 322.623,-209.907 310,-196 293.926,-178.291 280.328,-154.746 271.226,-136.848"/>
<polygon fill="grey" stroke="grey" points="274.207,-134.979 266.644,-127.558 267.929,-138.075 274.207,-134.979"/>
</g>
<!-- ( &#39;]&#39; ) -->
<g id="node25" class="node"><title>( &#39;]&#39; )</title>
<polygon fill="CornflowerBlue" stroke="black" points="445,-127.5 391,-127.5 391,-91.5 445,-91.5 445,-127.5"/>
<text text-anchor="middle" x="418" y="-105.8" font-family="Times,serif" font-size="14.00">( &#39;]&#39; )</text>
</g>
<!-- ( &#39;[&#39; ) elements ( &#39;]&#39; )&#45;&gt;( &#39;]&#39; ) -->
<g id="edge28" class="edge"><title>( &#39;[&#39; ) elements ( &#39;]&#39; )&#45;&gt;( &#39;]&#39; )</title>
<path fill="none" stroke="grey" d="M386.487,-231.739C392.637,-208.077 403.748,-165.33 410.999,-137.436"/>
<polygon fill="grey" stroke="grey" points="414.442,-138.102 413.57,-127.544 407.667,-136.341 414.442,-138.102"/>
</g>
<!-- elements&#45;&gt;value -->
<g id="edge29" class="edge"><title>elements&#45;&gt;value</title>
<path fill="none" stroke="grey" d="M254.662,-127.521C242.602,-174.839 208.598,-308.258 193.905,-365.909"/>
<polygon fill="grey" stroke="grey" points="190.474,-365.199 191.396,-375.754 197.257,-366.928 190.474,-365.199"/>
</g>
<!-- whitespace -->
<g id="node27" class="node"><title>whitespace</title>
<polygon fill="magenta" stroke="black" points="425.5,-844.5 348.5,-844.5 348.5,-808.5 425.5,-808.5 425.5,-844.5"/>
<text text-anchor="middle" x="387" y="-822.8" font-family="Times,serif" font-size="14.00">whitespace</text>
</g>
<!-- ꞉discard&#45;&gt;whitespace -->
<g id="edge31" class="edge"><title>꞉discard&#45;&gt;whitespace</title>
<path fill="none" stroke="grey" d="M384.726,-881.313C385.065,-873.289 385.477,-863.547 385.856,-854.569"/>
<polygon fill="grey" stroke="grey" points="389.355,-854.668 386.28,-844.529 382.361,-854.372 389.355,-854.668"/>
</g>
<!-- Legend -->
<g id="node28" class="node"><title>Legend</title>
<polygon fill="lightgrey" stroke="none" points="732.5,-196 463.5,-196 463.5,-23 732.5,-23 732.5,-196"/>
<polygon fill="white" stroke="none" points="471.5,-27 471.5,-192 724.5,-192 724.5,-27 471.5,-27"/>
<polygon fill="pink" stroke="none" points="475,-167.5 475,-188.5 722,-188.5 722,-167.5 475,-167.5"/>
<polygon fill="none" stroke="black" points="475,-167.5 475,-188.5 722,-188.5 722,-167.5 475,-167.5"/>
<text text-anchor="start" x="517.5" y="-174.3" font-family="Times,serif" font-size="14.00">Pink nodes are &#39;:default&#39; rules</text>
<polygon fill="magenta" stroke="none" points="475,-144.5 475,-165.5 722,-165.5 722,-144.5 475,-144.5"/>
<polygon fill="none" stroke="black" points="475,-144.5 475,-165.5 722,-165.5 722,-144.5 475,-144.5"/>
<text text-anchor="start" x="505.5" y="-151.3" font-family="Times,serif" font-size="14.00">Magenta nodes are &#39;:discard&#39; rules</text>
<polygon fill="orchid" stroke="none" points="475,-121.5 475,-142.5 722,-142.5 722,-121.5 475,-121.5"/>
<polygon fill="none" stroke="black" points="475,-121.5 475,-142.5 722,-142.5 722,-121.5 475,-121.5"/>
<text text-anchor="start" x="478.5" y="-128.3" font-family="Times,serif" font-size="14.00">The orchid node is the &#39;discard default&#39; rule</text>
<polygon fill="goldenrod" stroke="none" points="475,-98.5 475,-119.5 722,-119.5 722,-98.5 475,-98.5"/>
<polygon fill="none" stroke="black" points="475,-98.5 475,-119.5 722,-119.5 722,-98.5 475,-98.5"/>
<text text-anchor="start" x="478" y="-105.3" font-family="Times,serif" font-size="14.00">The golden node is the &#39;lexeme default&#39; rule</text>
<polygon fill="lightblue" stroke="none" points="475,-75.5 475,-96.5 722,-96.5 722,-75.5 475,-75.5"/>
<polygon fill="none" stroke="black" points="475,-75.5 475,-96.5 722,-96.5 722,-75.5 475,-75.5"/>
<text text-anchor="start" x="495" y="-82.3" font-family="Times,serif" font-size="14.00">The LightBlue node is the &#39;:start&#39; rule</text>
<polygon fill="CornflowerBlue" stroke="none" points="475,-52.5 475,-73.5 722,-73.5 722,-52.5 475,-52.5"/>
<polygon fill="none" stroke="black" points="475,-52.5 475,-73.5 722,-73.5 722,-52.5 475,-52.5"/>
<text text-anchor="start" x="500.5" y="-59.3" font-family="Times,serif" font-size="14.00">CornflowerBlue nodes are G1 rules</text>
<polygon fill="lightgreen" stroke="none" points="475,-29.5 475,-50.5 722,-50.5 722,-29.5 475,-29.5"/>
<polygon fill="none" stroke="black" points="475,-29.5 475,-50.5 722,-50.5 722,-29.5 475,-29.5"/>
<text text-anchor="start" x="497" y="-36.3" font-family="Times,serif" font-size="14.00">LightGreen nodes are &#39;:lexeme&#39; rules</text>
<polygon fill="none" stroke="black" points="471.5,-27 471.5,-192 724.5,-192 724.5,-27 471.5,-27"/>
</g>
</g>
</svg>
