<?xml version="1.0" encoding="UTF-8" standalone="no"?>
<!DOCTYPE svg PUBLIC "-//W3C//DTD SVG 1.1//EN"
 "http://www.w3.org/Graphics/SVG/1.1/DTD/svg11.dtd">
<!-- Generated by graphviz version 2.38.0 (20140413.2041)
 -->
<!-- Title: Perl Pages: 1 -->
<svg width="1321pt" height="781pt"
 viewBox="0.00 0.00 1320.50 781.00" xmlns="http://www.w3.org/2000/svg" xmlns:xlink="http://www.w3.org/1999/xlink">
<g id="graph0" class="graph" transform="scale(1 1) rotate(0) translate(4 777)">
<title>Perl</title>
<polygon fill="white" stroke="none" points="-4,4 -4,-777 1316.5,-777 1316.5,4 -4,4"/>
<text text-anchor="middle" x="656.25" y="-7.8" font-family="Times,serif" font-size="14.00">json.3.bnf</text>
<!-- ꞉default -->
<g id="node1" class="node"><title>꞉default</title>
<path fill="pink" stroke="black" d="M55.5,-232.5C55.5,-232.5 90.5,-232.5 90.5,-232.5 96.5,-232.5 102.5,-238.5 102.5,-244.5 102.5,-244.5 102.5,-256.5 102.5,-256.5 102.5,-262.5 96.5,-268.5 90.5,-268.5 90.5,-268.5 55.5,-268.5 55.5,-268.5 49.5,-268.5 43.5,-262.5 43.5,-256.5 43.5,-256.5 43.5,-244.5 43.5,-244.5 43.5,-238.5 49.5,-232.5 55.5,-232.5"/>
<text text-anchor="middle" x="73" y="-246.8" font-family="Times,serif" font-size="14.00">꞉default</text>
</g>
<!-- ꞉default_1 -->
<g id="node3" class="node"><title>꞉default_1</title>
<path fill="pink" stroke="black" d="M12,-91.5C12,-91.5 90,-91.5 90,-91.5 96,-91.5 102,-97.5 102,-103.5 102,-103.5 102,-115.5 102,-115.5 102,-121.5 96,-127.5 90,-127.5 90,-127.5 12,-127.5 12,-127.5 6,-127.5 0,-121.5 0,-115.5 0,-115.5 0,-103.5 0,-103.5 0,-97.5 6,-91.5 12,-91.5"/>
<text text-anchor="middle" x="51" y="-105.8" font-family="Times,serif" font-size="14.00">action =&gt; ::first</text>
</g>
<!-- ꞉default&#45;&gt;꞉default_1 -->
<g id="edge2" class="edge"><title>꞉default&#45;&gt;꞉default_1</title>
<path fill="none" stroke="grey" d="M70.3024,-232.456C66.5583,-208.8 59.7462,-165.76 55.2976,-137.653"/>
<polygon fill="grey" stroke="grey" points="58.74,-137.013 53.7197,-127.684 51.8261,-138.108 58.74,-137.013"/>
</g>
<!-- DSL -->
<g id="node2" class="node"><title>DSL</title>
<polygon fill="lightgrey" stroke="black" points="220,-341 166,-341 166,-305 220,-305 220,-341"/>
<text text-anchor="middle" x="193" y="-319.3" font-family="Times,serif" font-size="14.00">DSL</text>
</g>
<!-- DSL&#45;&gt;꞉default -->
<g id="edge1" class="edge"><title>DSL&#45;&gt;꞉default</title>
<path fill="none" stroke="grey" d="M165.77,-306.002C149.635,-296.523 128.94,-284.365 111.192,-273.938"/>
<polygon fill="grey" stroke="grey" points="112.614,-270.714 102.219,-268.666 109.068,-276.749 112.614,-270.714"/>
</g>
<!-- lexeme default -->
<g id="node4" class="node"><title>lexeme default</title>
<polygon fill="goldenrod" stroke="black" points="242,-268.5 144,-268.5 144,-232.5 242,-232.5 242,-268.5"/>
<text text-anchor="middle" x="193" y="-246.8" font-family="Times,serif" font-size="14.00">lexeme default</text>
</g>
<!-- DSL&#45;&gt;lexeme default -->
<g id="edge3" class="edge"><title>DSL&#45;&gt;lexeme default</title>
<path fill="none" stroke="grey" d="M193,-304.934C193,-297.17 193,-287.784 193,-279.06"/>
<polygon fill="grey" stroke="grey" points="196.5,-278.899 193,-268.899 189.5,-278.899 196.5,-278.899"/>
</g>
<!-- ꞉discard -->
<g id="node32" class="node"><title>꞉discard</title>
<path fill="magenta" stroke="black" d="M288,-232.5C288,-232.5 324,-232.5 324,-232.5 330,-232.5 336,-238.5 336,-244.5 336,-244.5 336,-256.5 336,-256.5 336,-262.5 330,-268.5 324,-268.5 324,-268.5 288,-268.5 288,-268.5 282,-268.5 276,-262.5 276,-256.5 276,-256.5 276,-244.5 276,-244.5 276,-238.5 282,-232.5 288,-232.5"/>
<text text-anchor="middle" x="306" y="-246.8" font-family="Times,serif" font-size="14.00">꞉discard</text>
</g>
<!-- DSL&#45;&gt;꞉discard -->
<g id="edge38" class="edge"><title>DSL&#45;&gt;꞉discard</title>
<path fill="none" stroke="grey" d="M220.066,-305.113C234.941,-295.833 253.592,-284.197 269.713,-274.139"/>
<polygon fill="grey" stroke="grey" points="271.738,-277.001 278.37,-268.738 268.033,-271.062 271.738,-277.001"/>
</g>
<!-- lexeme default_1 -->
<g id="node5" class="node"><title>lexeme default_1</title>
<path fill="goldenrod" stroke="black" d="M132.5,-86.5C132.5,-86.5 253.5,-86.5 253.5,-86.5 259.5,-86.5 265.5,-92.5 265.5,-98.5 265.5,-98.5 265.5,-120.5 265.5,-120.5 265.5,-126.5 259.5,-132.5 253.5,-132.5 253.5,-132.5 132.5,-132.5 132.5,-132.5 126.5,-132.5 120.5,-126.5 120.5,-120.5 120.5,-120.5 120.5,-98.5 120.5,-98.5 120.5,-92.5 126.5,-86.5 132.5,-86.5"/>
<text text-anchor="middle" x="193" y="-117.3" font-family="Times,serif" font-size="14.00">latm =&gt; 1</text>
<polyline fill="none" stroke="black" points="120.5,-109.5 265.5,-109.5 "/>
<text text-anchor="middle" x="193" y="-94.3" font-family="Times,serif" font-size="14.00">action =&gt; [name,value]</text>
</g>
<!-- lexeme default&#45;&gt;lexeme default_1 -->
<g id="edge4" class="edge"><title>lexeme default&#45;&gt;lexeme default_1</title>
<path fill="none" stroke="grey" d="M193,-232.456C193,-210.214 193,-170.837 193,-142.847"/>
<polygon fill="grey" stroke="grey" points="196.5,-142.736 193,-132.736 189.5,-142.736 196.5,-142.736"/>
</g>
<!-- json -->
<g id="node6" class="node"><title>json</title>
<polygon fill="CornflowerBlue" stroke="black" points="568,-773 514,-773 514,-737 568,-737 568,-773"/>
<text text-anchor="middle" x="541" y="-751.3" font-family="Times,serif" font-size="14.00">json</text>
</g>
<!-- hash -->
<g id="node7" class="node"><title>hash</title>
<polygon fill="CornflowerBlue" stroke="black" points="505,-341 451,-341 451,-305 505,-305 505,-341"/>
<text text-anchor="middle" x="478" y="-319.3" font-family="Times,serif" font-size="14.00">hash</text>
</g>
<!-- json&#45;&gt;hash -->
<g id="edge5" class="edge"><title>json&#45;&gt;hash</title>
<path fill="none" stroke="grey" d="M531.676,-736.63C518.495,-710.412 496,-658.809 496,-612 496,-612 496,-612 496,-466 496,-425.896 488.847,-379.924 483.559,-351.419"/>
<polygon fill="grey" stroke="grey" points="486.959,-350.563 481.643,-341.399 480.083,-351.878 486.959,-350.563"/>
</g>
<!-- array -->
<g id="node8" class="node"><title>array</title>
<polygon fill="CornflowerBlue" stroke="black" points="596,-701 542,-701 542,-665 596,-665 596,-701"/>
<text text-anchor="middle" x="569" y="-679.3" font-family="Times,serif" font-size="14.00">array</text>
</g>
<!-- json&#45;&gt;array -->
<g id="edge6" class="edge"><title>json&#45;&gt;array</title>
<path fill="none" stroke="grey" d="M547.921,-736.697C551.075,-728.813 554.878,-719.304 558.381,-710.546"/>
<polygon fill="grey" stroke="grey" points="561.694,-711.689 562.158,-701.104 555.195,-709.089 561.694,-711.689"/>
</g>
<!-- ( &#39;{&#39; ) ( &#39;}&#39; ) [name,value] -->
<g id="node9" class="node"><title>( &#39;{&#39; ) ( &#39;}&#39; ) [name,value]</title>
<polygon fill="CornflowerBlue" stroke="black" points="554.5,-268.5 401.5,-268.5 401.5,-232.5 554.5,-232.5 554.5,-268.5"/>
<text text-anchor="middle" x="478" y="-246.8" font-family="Times,serif" font-size="14.00">( &#39;{&#39; ) ( &#39;}&#39; ) [name,value]</text>
</g>
<!-- hash&#45;&gt;( &#39;{&#39; ) ( &#39;}&#39; ) [name,value] -->
<g id="edge7" class="edge"><title>hash&#45;&gt;( &#39;{&#39; ) ( &#39;}&#39; ) [name,value]</title>
<path fill="none" stroke="grey" d="M478,-304.934C478,-297.17 478,-287.784 478,-279.06"/>
<polygon fill="grey" stroke="grey" points="481.5,-278.899 478,-268.899 474.5,-278.899 481.5,-278.899"/>
</g>
<!-- ( &#39;[&#39; ) elements ( &#39;]&#39; ) [name,values] -->
<g id="node24" class="node"><title>( &#39;[&#39; ) elements ( &#39;]&#39; ) [name,values]</title>
<polygon fill="CornflowerBlue" stroke="black" points="822.5,-629 615.5,-629 615.5,-593 822.5,-593 822.5,-629"/>
<text text-anchor="middle" x="719" y="-607.3" font-family="Times,serif" font-size="14.00">( &#39;[&#39; ) elements ( &#39;]&#39; ) [name,values]</text>
</g>
<!-- array&#45;&gt;( &#39;[&#39; ) elements ( &#39;]&#39; ) [name,values] -->
<g id="edge26" class="edge"><title>array&#45;&gt;( &#39;[&#39; ) elements ( &#39;]&#39; ) [name,values]</title>
<path fill="none" stroke="grey" d="M596.164,-669.324C617.574,-659.332 647.911,-645.175 673.079,-633.43"/>
<polygon fill="grey" stroke="grey" points="674.861,-636.461 682.442,-629.06 671.9,-630.118 674.861,-636.461"/>
</g>
<!-- ( &#39;{&#39; ) -->
<g id="node10" class="node"><title>( &#39;{&#39; )</title>
<polygon fill="CornflowerBlue" stroke="black" points="433,-127.5 379,-127.5 379,-91.5 433,-91.5 433,-127.5"/>
<text text-anchor="middle" x="406" y="-105.8" font-family="Times,serif" font-size="14.00">( &#39;{&#39; )</text>
</g>
<!-- ( &#39;{&#39; ) ( &#39;}&#39; ) [name,value]&#45;&gt;( &#39;{&#39; ) -->
<g id="edge8" class="edge"><title>( &#39;{&#39; ) ( &#39;}&#39; ) [name,value]&#45;&gt;( &#39;{&#39; )</title>
<path fill="none" stroke="grey" d="M465.109,-232.205C457.812,-221.982 448.812,-208.607 442,-196 431.695,-176.93 422.275,-154.28 415.658,-137.085"/>
<polygon fill="grey" stroke="grey" points="418.906,-135.779 412.101,-127.659 412.357,-138.251 418.906,-135.779"/>
</g>
<!-- ( &#39;}&#39; ) -->
<g id="node11" class="node"><title>( &#39;}&#39; )</title>
<polygon fill="CornflowerBlue" stroke="black" points="505,-127.5 451,-127.5 451,-91.5 505,-91.5 505,-127.5"/>
<text text-anchor="middle" x="478" y="-105.8" font-family="Times,serif" font-size="14.00">( &#39;}&#39; )</text>
</g>
<!-- ( &#39;{&#39; ) ( &#39;}&#39; ) [name,value]&#45;&gt;( &#39;}&#39; ) -->
<g id="edge9" class="edge"><title>( &#39;{&#39; ) ( &#39;}&#39; ) [name,value]&#45;&gt;( &#39;}&#39; )</title>
<path fill="none" stroke="grey" d="M478,-232.456C478,-208.904 478,-166.139 478,-138.026"/>
<polygon fill="grey" stroke="grey" points="481.5,-137.684 478,-127.684 474.5,-137.684 481.5,-137.684"/>
</g>
<!-- [name,value] -->
<g id="node12" class="node"><title>[name,value]</title>
<polygon fill="CornflowerBlue" stroke="black" points="612.5,-127.5 523.5,-127.5 523.5,-91.5 612.5,-91.5 612.5,-127.5"/>
<text text-anchor="middle" x="568" y="-105.8" font-family="Times,serif" font-size="14.00">[name,value]</text>
</g>
<!-- ( &#39;{&#39; ) ( &#39;}&#39; ) [name,value]&#45;&gt;[name,value] -->
<g id="edge10" class="edge"><title>( &#39;{&#39; ) ( &#39;}&#39; ) [name,value]&#45;&gt;[name,value]</title>
<path fill="none" stroke="grey" d="M489.801,-232.237C496.892,-221.797 506.051,-208.191 514,-196 526.945,-176.146 541.254,-153.455 551.889,-136.441"/>
<polygon fill="grey" stroke="grey" points="555.064,-137.963 557.387,-127.626 549.125,-134.258 555.064,-137.963"/>
</g>
<!-- pair -->
<g id="node13" class="node"><title>pair</title>
<polygon fill="CornflowerBlue" stroke="black" points="818,-557 764,-557 764,-521 818,-521 818,-557"/>
<text text-anchor="middle" x="791" y="-535.3" font-family="Times,serif" font-size="14.00">pair</text>
</g>
<!-- string ( &#39;꞉&#39; ) value [values] -->
<g id="node14" class="node"><title>string ( &#39;꞉&#39; ) value [values]</title>
<polygon fill="CornflowerBlue" stroke="black" points="867.5,-485 710.5,-485 710.5,-449 867.5,-449 867.5,-485"/>
<text text-anchor="middle" x="789" y="-463.3" font-family="Times,serif" font-size="14.00">string ( &#39;꞉&#39; ) value [values]</text>
</g>
<!-- pair&#45;&gt;string ( &#39;꞉&#39; ) value [values] -->
<g id="edge11" class="edge"><title>pair&#45;&gt;string ( &#39;꞉&#39; ) value [values]</title>
<path fill="none" stroke="grey" d="M790.506,-520.697C790.285,-512.983 790.02,-503.712 789.775,-495.112"/>
<polygon fill="grey" stroke="grey" points="793.273,-495 789.489,-485.104 786.276,-495.2 793.273,-495"/>
</g>
<!-- string -->
<g id="node15" class="node"><title>string</title>
<polygon fill="CornflowerBlue" stroke="black" points="871,-341 817,-341 817,-305 871,-305 871,-341"/>
<text text-anchor="middle" x="844" y="-319.3" font-family="Times,serif" font-size="14.00">string</text>
</g>
<!-- string ( &#39;꞉&#39; ) value [values]&#45;&gt;string -->
<g id="edge12" class="edge"><title>string ( &#39;꞉&#39; ) value [values]&#45;&gt;string</title>
<path fill="none" stroke="grey" d="M803.165,-448.851C810.69,-438.93 819.497,-425.89 825,-413 833.413,-393.293 838.245,-369.488 840.928,-351.458"/>
<polygon fill="grey" stroke="grey" points="844.427,-351.705 842.303,-341.326 837.49,-350.764 844.427,-351.705"/>
</g>
<!-- ( &#39;꞉&#39; ) -->
<g id="node16" class="node"><title>( &#39;꞉&#39; )</title>
<polygon fill="CornflowerBlue" stroke="black" points="816,-413 762,-413 762,-377 816,-377 816,-413"/>
<text text-anchor="middle" x="789" y="-391.3" font-family="Times,serif" font-size="14.00">( &#39;꞉&#39; )</text>
</g>
<!-- string ( &#39;꞉&#39; ) value [values]&#45;&gt;( &#39;꞉&#39; ) -->
<g id="edge13" class="edge"><title>string ( &#39;꞉&#39; ) value [values]&#45;&gt;( &#39;꞉&#39; )</title>
<path fill="none" stroke="grey" d="M789,-448.697C789,-440.983 789,-431.712 789,-423.112"/>
<polygon fill="grey" stroke="grey" points="792.5,-423.104 789,-413.104 785.5,-423.104 792.5,-423.104"/>
</g>
<!-- value -->
<g id="node17" class="node"><title>value</title>
<polygon fill="CornflowerBlue" stroke="black" points="666,-413 612,-413 612,-377 666,-377 666,-413"/>
<text text-anchor="middle" x="639" y="-391.3" font-family="Times,serif" font-size="14.00">value</text>
</g>
<!-- string ( &#39;꞉&#39; ) value [values]&#45;&gt;value -->
<g id="edge14" class="edge"><title>string ( &#39;꞉&#39; ) value [values]&#45;&gt;value</title>
<path fill="none" stroke="grey" d="M752.265,-448.99C731.921,-439.553 705.97,-427.492 675.329,-413.143"/>
<polygon fill="grey" stroke="grey" points="676.659,-409.901 666.119,-408.827 673.689,-416.24 676.659,-409.901"/>
</g>
<!-- [values] -->
<g id="node18" class="node"><title>[values]</title>
<polygon fill="CornflowerBlue" stroke="black" points="744,-413 684,-413 684,-377 744,-377 744,-413"/>
<text text-anchor="middle" x="714" y="-391.3" font-family="Times,serif" font-size="14.00">[values]</text>
</g>
<!-- string ( &#39;꞉&#39; ) value [values]&#45;&gt;[values] -->
<g id="edge15" class="edge"><title>string ( &#39;꞉&#39; ) value [values]&#45;&gt;[values]</title>
<path fill="none" stroke="grey" d="M770.461,-448.697C761.197,-440.05 749.838,-429.449 739.743,-420.027"/>
<polygon fill="grey" stroke="grey" points="742.025,-417.369 732.326,-413.104 737.249,-422.486 742.025,-417.369"/>
</g>
<!-- ( bare_name ) ( bare_name ) [name,values] -->
<g id="node30" class="node"><title>( bare_name ) ( bare_name ) [name,values]</title>
<polygon fill="CornflowerBlue" stroke="black" points="972,-268.5 716,-268.5 716,-232.5 972,-232.5 972,-268.5"/>
<text text-anchor="middle" x="844" y="-246.8" font-family="Times,serif" font-size="14.00">( bare_name ) ( bare_name ) [name,values]</text>
</g>
<!-- string&#45;&gt;( bare_name ) ( bare_name ) [name,values] -->
<g id="edge34" class="edge"><title>string&#45;&gt;( bare_name ) ( bare_name ) [name,values]</title>
<path fill="none" stroke="grey" d="M844,-304.934C844,-297.17 844,-287.784 844,-279.06"/>
<polygon fill="grey" stroke="grey" points="847.5,-278.899 844,-268.899 840.5,-278.899 847.5,-278.899"/>
</g>
<!-- value&#45;&gt;hash -->
<g id="edge17" class="edge"><title>value&#45;&gt;hash</title>
<path fill="none" stroke="grey" d="M611.553,-382.734C588.021,-372.995 553.028,-358.319 514.423,-341.113"/>
<polygon fill="grey" stroke="grey" points="515.63,-337.818 505.073,-336.927 512.77,-344.207 515.63,-337.818"/>
</g>
<!-- value&#45;&gt;array -->
<g id="edge19" class="edge"><title>value&#45;&gt;array</title>
<path fill="none" stroke="grey" d="M616.447,-413.155C605.901,-422.513 594.301,-435.032 588,-449 556.934,-517.868 561.001,-609.78 565.533,-654.809"/>
<polygon fill="grey" stroke="grey" points="562.076,-655.392 566.644,-664.952 569.035,-654.63 562.076,-655.392"/>
</g>
<!-- value&#45;&gt;string -->
<g id="edge16" class="edge"><title>value&#45;&gt;string</title>
<path fill="none" stroke="grey" d="M666.304,-380.496C669.21,-379.242 672.146,-378.051 675,-377 729.549,-356.917 748.596,-361.587 806.977,-341.028"/>
<polygon fill="grey" stroke="grey" points="808.488,-344.203 816.696,-337.504 806.102,-337.623 808.488,-344.203"/>
</g>
<!-- number -->
<g id="node19" class="node"><title>number</title>
<polygon fill="CornflowerBlue" stroke="black" points="583,-341 523,-341 523,-305 583,-305 583,-341"/>
<text text-anchor="middle" x="553" y="-319.3" font-family="Times,serif" font-size="14.00">number</text>
</g>
<!-- value&#45;&gt;number -->
<g id="edge18" class="edge"><title>value&#45;&gt;number</title>
<path fill="none" stroke="grey" d="M617.742,-376.697C606.911,-367.881 593.582,-357.032 581.84,-347.474"/>
<polygon fill="grey" stroke="grey" points="583.979,-344.703 574.014,-341.104 579.56,-350.132 583.979,-344.703"/>
</g>
<!-- true -->
<g id="node20" class="node"><title>true</title>
<polygon fill="CornflowerBlue" stroke="black" points="727,-341 673,-341 673,-305 727,-305 727,-341"/>
<text text-anchor="middle" x="700" y="-319.3" font-family="Times,serif" font-size="14.00">true</text>
</g>
<!-- value&#45;&gt;true -->
<g id="edge20" class="edge"><title>value&#45;&gt;true</title>
<path fill="none" stroke="grey" d="M654.079,-376.697C661.392,-368.305 670.31,-358.07 678.335,-348.861"/>
<polygon fill="grey" stroke="grey" points="681.164,-350.943 685.095,-341.104 675.886,-346.344 681.164,-350.943"/>
</g>
<!-- false -->
<g id="node21" class="node"><title>false</title>
<polygon fill="CornflowerBlue" stroke="black" points="799,-341 745,-341 745,-305 799,-305 799,-341"/>
<text text-anchor="middle" x="772" y="-319.3" font-family="Times,serif" font-size="14.00">false</text>
</g>
<!-- value&#45;&gt;false -->
<g id="edge21" class="edge"><title>value&#45;&gt;false</title>
<path fill="none" stroke="grey" d="M666.235,-379.666C686.318,-369.096 713.844,-354.609 735.78,-343.063"/>
<polygon fill="grey" stroke="grey" points="737.582,-346.07 744.801,-338.315 734.322,-339.876 737.582,-346.07"/>
</g>
<!-- null -->
<g id="node22" class="node"><title>null</title>
<polygon fill="CornflowerBlue" stroke="black" points="655,-341 601,-341 601,-305 655,-305 655,-341"/>
<text text-anchor="middle" x="628" y="-319.3" font-family="Times,serif" font-size="14.00">null</text>
</g>
<!-- value&#45;&gt;null -->
<g id="edge22" class="edge"><title>value&#45;&gt;null</title>
<path fill="none" stroke="grey" d="M636.281,-376.697C635.069,-368.983 633.612,-359.712 632.261,-351.112"/>
<polygon fill="grey" stroke="grey" points="635.698,-350.44 630.688,-341.104 628.783,-351.526 635.698,-350.44"/>
</g>
<!-- [name] -->
<g id="node23" class="node"><title>[name]</title>
<polygon fill="CornflowerBlue" stroke="black" points="698,-268.5 642,-268.5 642,-232.5 698,-232.5 698,-268.5"/>
<text text-anchor="middle" x="670" y="-246.8" font-family="Times,serif" font-size="14.00">[name]</text>
</g>
<!-- true&#45;&gt;[name] -->
<g id="edge23" class="edge"><title>true&#45;&gt;[name]</title>
<path fill="none" stroke="grey" d="M692.738,-304.934C689.325,-296.914 685.176,-287.164 681.361,-278.199"/>
<polygon fill="grey" stroke="grey" points="684.54,-276.73 677.404,-268.899 678.099,-279.471 684.54,-276.73"/>
</g>
<!-- false&#45;&gt;[name] -->
<g id="edge24" class="edge"><title>false&#45;&gt;[name]</title>
<path fill="none" stroke="grey" d="M747.309,-304.934C734.126,-295.822 717.713,-284.478 703.406,-274.589"/>
<polygon fill="grey" stroke="grey" points="705.034,-271.46 694.818,-268.653 701.054,-277.218 705.034,-271.46"/>
</g>
<!-- null&#45;&gt;[name] -->
<g id="edge25" class="edge"><title>null&#45;&gt;[name]</title>
<path fill="none" stroke="grey" d="M638.167,-304.934C643.047,-296.743 649.001,-286.748 654.434,-277.628"/>
<polygon fill="grey" stroke="grey" points="657.524,-279.281 659.635,-268.899 651.51,-275.698 657.524,-279.281"/>
</g>
<!-- ( &#39;[&#39; ) -->
<g id="node25" class="node"><title>( &#39;[&#39; )</title>
<polygon fill="CornflowerBlue" stroke="black" points="746,-557 692,-557 692,-521 746,-521 746,-557"/>
<text text-anchor="middle" x="719" y="-535.3" font-family="Times,serif" font-size="14.00">( &#39;[&#39; )</text>
</g>
<!-- ( &#39;[&#39; ) elements ( &#39;]&#39; ) [name,values]&#45;&gt;( &#39;[&#39; ) -->
<g id="edge27" class="edge"><title>( &#39;[&#39; ) elements ( &#39;]&#39; ) [name,values]&#45;&gt;( &#39;[&#39; )</title>
<path fill="none" stroke="grey" d="M719,-592.697C719,-584.983 719,-575.712 719,-567.112"/>
<polygon fill="grey" stroke="grey" points="722.5,-567.104 719,-557.104 715.5,-567.104 722.5,-567.104"/>
</g>
<!-- elements -->
<g id="node26" class="node"><title>elements</title>
<polygon fill="CornflowerBlue" stroke="black" points="673.5,-557 606.5,-557 606.5,-521 673.5,-521 673.5,-557"/>
<text text-anchor="middle" x="640" y="-535.3" font-family="Times,serif" font-size="14.00">elements</text>
</g>
<!-- ( &#39;[&#39; ) elements ( &#39;]&#39; ) [name,values]&#45;&gt;elements -->
<g id="edge28" class="edge"><title>( &#39;[&#39; ) elements ( &#39;]&#39; ) [name,values]&#45;&gt;elements</title>
<path fill="none" stroke="grey" d="M699.472,-592.697C689.618,-583.965 677.514,-573.24 666.804,-563.75"/>
<polygon fill="grey" stroke="grey" points="669.109,-561.117 659.303,-557.104 664.467,-566.356 669.109,-561.117"/>
</g>
<!-- ( &#39;]&#39; ) -->
<g id="node27" class="node"><title>( &#39;]&#39; )</title>
<polygon fill="CornflowerBlue" stroke="black" points="890,-557 836,-557 836,-521 890,-521 890,-557"/>
<text text-anchor="middle" x="863" y="-535.3" font-family="Times,serif" font-size="14.00">( &#39;]&#39; )</text>
</g>
<!-- ( &#39;[&#39; ) elements ( &#39;]&#39; ) [name,values]&#45;&gt;( &#39;]&#39; ) -->
<g id="edge29" class="edge"><title>( &#39;[&#39; ) elements ( &#39;]&#39; ) [name,values]&#45;&gt;( &#39;]&#39; )</title>
<path fill="none" stroke="grey" d="M754.226,-592.876C776.229,-582.18 804.494,-568.44 826.697,-557.647"/>
<polygon fill="grey" stroke="grey" points="828.341,-560.74 835.805,-553.22 825.281,-554.444 828.341,-560.74"/>
</g>
<!-- [name,values] -->
<g id="node28" class="node"><title>[name,values]</title>
<polygon fill="CornflowerBlue" stroke="black" points="1025,-127.5 931,-127.5 931,-91.5 1025,-91.5 1025,-127.5"/>
<text text-anchor="middle" x="978" y="-105.8" font-family="Times,serif" font-size="14.00">[name,values]</text>
</g>
<!-- ( &#39;[&#39; ) elements ( &#39;]&#39; ) [name,values]&#45;&gt;[name,values] -->
<g id="edge30" class="edge"><title>( &#39;[&#39; ) elements ( &#39;]&#39; ) [name,values]&#45;&gt;[name,values]</title>
<path fill="none" stroke="grey" d="M822.836,-599.441C902.882,-584.88 1000,-550.263 1000,-468 1000,-468 1000,-468 1000,-322 1000,-255.551 989.124,-177.985 982.666,-137.786"/>
<polygon fill="grey" stroke="grey" points="986.086,-137.01 981.013,-127.709 979.178,-138.143 986.086,-137.01"/>
</g>
<!-- value [values] -->
<g id="node29" class="node"><title>value [values]</title>
<polygon fill="CornflowerBlue" stroke="black" points="689,-485 597,-485 597,-449 689,-449 689,-485"/>
<text text-anchor="middle" x="643" y="-463.3" font-family="Times,serif" font-size="14.00">value [values]</text>
</g>
<!-- elements&#45;&gt;value [values] -->
<g id="edge31" class="edge"><title>elements&#45;&gt;value [values]</title>
<path fill="none" stroke="grey" d="M640.742,-520.697C641.072,-512.983 641.469,-503.712 641.838,-495.112"/>
<polygon fill="grey" stroke="grey" points="645.335,-495.245 642.267,-485.104 638.342,-494.945 645.335,-495.245"/>
</g>
<!-- value [values]&#45;&gt;value -->
<g id="edge32" class="edge"><title>value [values]&#45;&gt;value</title>
<path fill="none" stroke="grey" d="M642.011,-448.697C641.57,-440.983 641.041,-431.712 640.549,-423.112"/>
<polygon fill="grey" stroke="grey" points="644.042,-422.888 639.977,-413.104 637.054,-423.288 644.042,-422.888"/>
</g>
<!-- value [values]&#45;&gt;[values] -->
<g id="edge33" class="edge"><title>value [values]&#45;&gt;[values]</title>
<path fill="none" stroke="grey" d="M660.551,-448.697C669.234,-440.135 679.863,-429.656 689.348,-420.304"/>
<polygon fill="grey" stroke="grey" points="691.988,-422.617 696.651,-413.104 687.073,-417.633 691.988,-422.617"/>
</g>
<!-- ( bare_name ) ( bare_name ) [name,values]&#45;&gt;[name,values] -->
<g id="edge37" class="edge"><title>( bare_name ) ( bare_name ) [name,values]&#45;&gt;[name,values]</title>
<path fill="none" stroke="grey" d="M862.465,-232.462C873.533,-222.102 887.783,-208.501 900,-196 919.607,-175.937 941.027,-152.327 956.452,-135.006"/>
<polygon fill="grey" stroke="grey" points="959.07,-137.329 963.089,-127.526 953.834,-132.683 959.07,-137.329"/>
</g>
<!-- ( bare_name ) -->
<g id="node31" class="node"><title>( bare_name )</title>
<polygon fill="CornflowerBlue" stroke="black" points="891.5,-127.5 796.5,-127.5 796.5,-91.5 891.5,-91.5 891.5,-127.5"/>
<text text-anchor="middle" x="844" y="-105.8" font-family="Times,serif" font-size="14.00">( bare_name )</text>
</g>
<!-- ( bare_name ) ( bare_name ) [name,values]&#45;&gt;( bare_name ) -->
<g id="edge35" class="edge"><title>( bare_name ) ( bare_name ) [name,values]&#45;&gt;( bare_name )</title>
<path fill="none" stroke="grey" d="M839.386,-232.456C836.865,-208.8 836.576,-165.76 838.517,-137.653"/>
<polygon fill="grey" stroke="grey" points="842.005,-137.946 839.371,-127.684 835.031,-137.349 842.005,-137.946"/>
</g>
<!-- ( bare_name ) ( bare_name ) [name,values]&#45;&gt;( bare_name ) -->
<g id="edge36" class="edge"><title>( bare_name ) ( bare_name ) [name,values]&#45;&gt;( bare_name )</title>
<path fill="none" stroke="grey" d="M848.614,-232.456C851.135,-208.8 851.424,-165.76 849.483,-137.653"/>
<polygon fill="grey" stroke="grey" points="852.969,-137.349 848.629,-127.684 845.995,-137.946 852.969,-137.349"/>
</g>
<!-- whitespace -->
<g id="node33" class="node"><title>whitespace</title>
<polygon fill="magenta" stroke="black" points="360.5,-127.5 283.5,-127.5 283.5,-91.5 360.5,-91.5 360.5,-127.5"/>
<text text-anchor="middle" x="322" y="-105.8" font-family="Times,serif" font-size="14.00">whitespace</text>
</g>
<!-- ꞉discard&#45;&gt;whitespace -->
<g id="edge39" class="edge"><title>꞉discard&#45;&gt;whitespace</title>
<path fill="none" stroke="grey" d="M307.962,-232.456C310.685,-208.8 315.639,-165.76 318.874,-137.653"/>
<polygon fill="grey" stroke="grey" points="322.355,-138.018 320.022,-127.684 315.401,-137.218 322.355,-138.018"/>
</g>
<!-- Legend -->
<g id="node34" class="node"><title>Legend</title>
<polygon fill="lightgrey" stroke="none" points="1312.5,-196 1043.5,-196 1043.5,-23 1312.5,-23 1312.5,-196"/>
<polygon fill="white" stroke="none" points="1051.5,-27 1051.5,-192 1304.5,-192 1304.5,-27 1051.5,-27"/>
<polygon fill="pink" stroke="none" points="1055,-167.5 1055,-188.5 1302,-188.5 1302,-167.5 1055,-167.5"/>
<polygon fill="none" stroke="black" points="1055,-167.5 1055,-188.5 1302,-188.5 1302,-167.5 1055,-167.5"/>
<text text-anchor="start" x="1097.5" y="-174.3" font-family="Times,serif" font-size="14.00">Pink nodes are &#39;:default&#39; rules</text>
<polygon fill="magenta" stroke="none" points="1055,-144.5 1055,-165.5 1302,-165.5 1302,-144.5 1055,-144.5"/>
<polygon fill="none" stroke="black" points="1055,-144.5 1055,-165.5 1302,-165.5 1302,-144.5 1055,-144.5"/>
<text text-anchor="start" x="1085.5" y="-151.3" font-family="Times,serif" font-size="14.00">Magenta nodes are &#39;:discard&#39; rules</text>
<polygon fill="orchid" stroke="none" points="1055,-121.5 1055,-142.5 1302,-142.5 1302,-121.5 1055,-121.5"/>
<polygon fill="none" stroke="black" points="1055,-121.5 1055,-142.5 1302,-142.5 1302,-121.5 1055,-121.5"/>
<text text-anchor="start" x="1058.5" y="-128.3" font-family="Times,serif" font-size="14.00">The orchid node is the &#39;discard default&#39; rule</text>
<polygon fill="goldenrod" stroke="none" points="1055,-98.5 1055,-119.5 1302,-119.5 1302,-98.5 1055,-98.5"/>
<polygon fill="none" stroke="black" points="1055,-98.5 1055,-119.5 1302,-119.5 1302,-98.5 1055,-98.5"/>
<text text-anchor="start" x="1058" y="-105.3" font-family="Times,serif" font-size="14.00">The golden node is the &#39;lexeme default&#39; rule</text>
<polygon fill="lightblue" stroke="none" points="1055,-75.5 1055,-96.5 1302,-96.5 1302,-75.5 1055,-75.5"/>
<polygon fill="none" stroke="black" points="1055,-75.5 1055,-96.5 1302,-96.5 1302,-75.5 1055,-75.5"/>
<text text-anchor="start" x="1075" y="-82.3" font-family="Times,serif" font-size="14.00">The LightBlue node is the &#39;:start&#39; rule</text>
<polygon fill="CornflowerBlue" stroke="none" points="1055,-52.5 1055,-73.5 1302,-73.5 1302,-52.5 1055,-52.5"/>
<polygon fill="none" stroke="black" points="1055,-52.5 1055,-73.5 1302,-73.5 1302,-52.5 1055,-52.5"/>
<text text-anchor="start" x="1080.5" y="-59.3" font-family="Times,serif" font-size="14.00">CornflowerBlue nodes are G1 rules</text>
<polygon fill="lightgreen" stroke="none" points="1055,-29.5 1055,-50.5 1302,-50.5 1302,-29.5 1055,-29.5"/>
<polygon fill="none" stroke="black" points="1055,-29.5 1055,-50.5 1302,-50.5 1302,-29.5 1055,-29.5"/>
<text text-anchor="start" x="1077" y="-36.3" font-family="Times,serif" font-size="14.00">LightGreen nodes are &#39;:lexeme&#39; rules</text>
<polygon fill="none" stroke="black" points="1051.5,-27 1051.5,-192 1304.5,-192 1304.5,-27 1051.5,-27"/>
</g>
</g>
</svg>
