<?xml version="1.0" encoding="UTF-8" standalone="no"?>
<!DOCTYPE svg PUBLIC "-//W3C//DTD SVG 1.1//EN"
 "http://www.w3.org/Graphics/SVG/1.1/DTD/svg11.dtd">
<!-- Generated by graphviz version 2.38.0 (20140413.2041)
 -->
<!-- Title: Perl Pages: 1 -->
<svg width="1006pt" height="349pt"
 viewBox="0.00 0.00 1006.00 349.00" xmlns="http://www.w3.org/2000/svg" xmlns:xlink="http://www.w3.org/1999/xlink">
<g id="graph0" class="graph" transform="scale(1 1) rotate(0) translate(4 345)">
<title>Perl</title>
<polygon fill="white" stroke="none" points="-4,4 -4,-345 1002,-345 1002,4 -4,4"/>
<text text-anchor="middle" x="499" y="-7.8" font-family="Times,serif" font-size="14.00">metag.bnf</text>
<!-- ꞉default -->
<g id="node1" class="node"><title>꞉default</title>
<polygon fill="orange" stroke="black" points="185,-268.5 126,-268.5 126,-232.5 185,-232.5 185,-268.5"/>
<text text-anchor="middle" x="155.5" y="-246.8" font-family="Times,serif" font-size="14.00">꞉default</text>
</g>
<!-- ꞉default_1 -->
<g id="node3" class="node"><title>꞉default_1</title>
<path fill="orange" stroke="black" d="M12,-86.5C12,-86.5 171,-86.5 171,-86.5 177,-86.5 183,-92.5 183,-98.5 183,-98.5 183,-120.5 183,-120.5 183,-126.5 177,-132.5 171,-132.5 171,-132.5 12,-132.5 12,-132.5 6,-132.5 0,-126.5 0,-120.5 0,-120.5 0,-98.5 0,-98.5 0,-92.5 6,-86.5 12,-86.5"/>
<text text-anchor="middle" x="91.5" y="-117.3" font-family="Times,serif" font-size="14.00">action =&gt; [start,length,values]</text>
<polyline fill="none" stroke="black" points="0,-109.5 183,-109.5 "/>
<text text-anchor="middle" x="91.5" y="-94.3" font-family="Times,serif" font-size="14.00">bless =&gt; ::lhs</text>
</g>
<!-- ꞉default&#45;&gt;꞉default_1 -->
<g id="edge2" class="edge"><title>꞉default&#45;&gt;꞉default_1</title>
<path fill="none" stroke="grey" d="M147.652,-232.456C137.321,-210.018 118.961,-170.142 106.054,-142.11"/>
<polygon fill="grey" stroke="grey" points="109.1,-140.356 101.738,-132.736 102.741,-143.284 109.1,-140.356"/>
</g>
<!-- BNF -->
<g id="node2" class="node"><title>BNF</title>
<polygon fill="lightgrey" stroke="black" points="390.5,-341 336.5,-341 336.5,-305 390.5,-305 390.5,-341"/>
<text text-anchor="middle" x="363.5" y="-319.3" font-family="Times,serif" font-size="14.00">BNF</text>
</g>
<!-- BNF&#45;&gt;꞉default -->
<g id="edge1" class="edge"><title>BNF&#45;&gt;꞉default</title>
<path fill="none" stroke="grey" d="M336.308,-312.783C300.117,-300.517 235.889,-278.747 194.529,-264.729"/>
<polygon fill="grey" stroke="grey" points="195.644,-261.411 185.049,-261.516 193.397,-268.04 195.644,-261.411"/>
</g>
<!-- lexeme default -->
<g id="node4" class="node"><title>lexeme default</title>
<polygon fill="goldenrod" stroke="black" points="352.5,-268.5 254.5,-268.5 254.5,-232.5 352.5,-232.5 352.5,-268.5"/>
<text text-anchor="middle" x="303.5" y="-246.8" font-family="Times,serif" font-size="14.00">lexeme default</text>
</g>
<!-- BNF&#45;&gt;lexeme default -->
<g id="edge3" class="edge"><title>BNF&#45;&gt;lexeme default</title>
<path fill="none" stroke="grey" d="M348.976,-304.934C341.787,-296.487 332.965,-286.122 325.011,-276.776"/>
<polygon fill="grey" stroke="grey" points="327.454,-274.246 318.307,-268.899 322.123,-278.783 327.454,-274.246"/>
</g>
<!-- start -->
<g id="node6" class="node"><title>start</title>
<path fill="lightgreen" stroke="black" d="M408.5,-232.5C408.5,-232.5 438.5,-232.5 438.5,-232.5 444.5,-232.5 450.5,-238.5 450.5,-244.5 450.5,-244.5 450.5,-256.5 450.5,-256.5 450.5,-262.5 444.5,-268.5 438.5,-268.5 438.5,-268.5 408.5,-268.5 408.5,-268.5 402.5,-268.5 396.5,-262.5 396.5,-256.5 396.5,-256.5 396.5,-244.5 396.5,-244.5 396.5,-238.5 402.5,-232.5 408.5,-232.5"/>
<text text-anchor="middle" x="423.5" y="-246.8" font-family="Times,serif" font-size="14.00">꞉start</text>
</g>
<!-- BNF&#45;&gt;start -->
<g id="edge5" class="edge"><title>BNF&#45;&gt;start</title>
<path fill="none" stroke="grey" d="M378.024,-304.934C385.213,-296.487 394.035,-286.122 401.989,-276.776"/>
<polygon fill="grey" stroke="grey" points="404.877,-278.783 408.693,-268.899 399.546,-274.246 404.877,-278.783"/>
</g>
<!-- ꞉discard -->
<g id="node8" class="node"><title>꞉discard</title>
<polygon fill="magenta" stroke="black" points="561.5,-268.5 501.5,-268.5 501.5,-232.5 561.5,-232.5 561.5,-268.5"/>
<text text-anchor="middle" x="531.5" y="-246.8" font-family="Times,serif" font-size="14.00">꞉discard</text>
</g>
<!-- BNF&#45;&gt;꞉discard -->
<g id="edge7" class="edge"><title>BNF&#45;&gt;꞉discard</title>
<path fill="none" stroke="grey" d="M390.866,-310.516C418.335,-298.989 460.929,-281.115 492.047,-268.056"/>
<polygon fill="grey" stroke="grey" points="493.439,-271.268 501.306,-264.171 490.73,-264.813 493.439,-271.268"/>
</g>
<!-- lexeme default_1 -->
<g id="node5" class="node"><title>lexeme default_1</title>
<path fill="goldenrod" stroke="black" d="M213.5,-75C213.5,-75 367.5,-75 367.5,-75 373.5,-75 379.5,-81 379.5,-87 379.5,-87 379.5,-132 379.5,-132 379.5,-138 373.5,-144 367.5,-144 367.5,-144 213.5,-144 213.5,-144 207.5,-144 201.5,-138 201.5,-132 201.5,-132 201.5,-87 201.5,-87 201.5,-81 207.5,-75 213.5,-75"/>
<text text-anchor="middle" x="290.5" y="-128.8" font-family="Times,serif" font-size="14.00">action =&gt; [start,length,value]</text>
<polyline fill="none" stroke="black" points="201.5,-121 379.5,-121 "/>
<text text-anchor="middle" x="290.5" y="-105.8" font-family="Times,serif" font-size="14.00">bless =&gt; ::name</text>
<polyline fill="none" stroke="black" points="201.5,-98 379.5,-98 "/>
<text text-anchor="middle" x="290.5" y="-82.8" font-family="Times,serif" font-size="14.00">latm =&gt; 1</text>
</g>
<!-- lexeme default&#45;&gt;lexeme default_1 -->
<g id="edge4" class="edge"><title>lexeme default&#45;&gt;lexeme default_1</title>
<path fill="none" stroke="grey" d="M301.906,-232.456C300.098,-213.128 297.081,-180.861 294.603,-154.37"/>
<polygon fill="grey" stroke="grey" points="298.065,-153.801 293.649,-144.17 291.095,-154.453 298.065,-153.801"/>
</g>
<!-- statements -->
<g id="node7" class="node"><title>statements</title>
<path fill="lightgreen" stroke="black" d="M410,-91.5C410,-91.5 463,-91.5 463,-91.5 469,-91.5 475,-97.5 475,-103.5 475,-103.5 475,-115.5 475,-115.5 475,-121.5 469,-127.5 463,-127.5 463,-127.5 410,-127.5 410,-127.5 404,-127.5 398,-121.5 398,-115.5 398,-115.5 398,-103.5 398,-103.5 398,-97.5 404,-91.5 410,-91.5"/>
<text text-anchor="middle" x="436.5" y="-105.8" font-family="Times,serif" font-size="14.00">statements</text>
</g>
<!-- start&#45;&gt;statements -->
<g id="edge6" class="edge"><title>start&#45;&gt;statements</title>
<path fill="none" stroke="grey" d="M425.094,-232.456C427.306,-208.8 431.332,-165.76 433.96,-137.653"/>
<polygon fill="grey" stroke="grey" points="437.446,-137.966 434.893,-127.684 430.477,-137.314 437.446,-137.966"/>
</g>
<!-- whitespace -->
<g id="node9" class="node"><title>whitespace</title>
<polygon fill="magenta" stroke="black" points="570,-127.5 493,-127.5 493,-91.5 570,-91.5 570,-127.5"/>
<text text-anchor="middle" x="531.5" y="-105.8" font-family="Times,serif" font-size="14.00">whitespace</text>
</g>
<!-- ꞉discard&#45;&gt;whitespace -->
<g id="edge8" class="edge"><title>꞉discard&#45;&gt;whitespace</title>
<path fill="none" stroke="grey" d="M531.5,-232.456C531.5,-208.904 531.5,-166.139 531.5,-138.026"/>
<polygon fill="grey" stroke="grey" points="535,-137.684 531.5,-127.684 528,-137.684 535,-137.684"/>
</g>
<!-- &lt;hash comment&gt; -->
<g id="node10" class="node"><title>&lt;hash comment&gt;</title>
<polygon fill="magenta" stroke="black" points="687,-127.5 588,-127.5 588,-91.5 687,-91.5 687,-127.5"/>
<text text-anchor="start" x="596" y="-105.8" font-family="Times,serif" font-size="14.00">hash comment</text>
</g>
<!-- ꞉discard&#45;&gt;&lt;hash comment&gt; -->
<g id="edge9" class="edge"><title>꞉discard&#45;&gt;&lt;hash comment&gt;</title>
<path fill="none" stroke="grey" d="M548.121,-232.187C557.661,-221.957 569.661,-208.582 579.5,-196 594.649,-176.628 610.207,-153.483 621.391,-136.162"/>
<polygon fill="grey" stroke="grey" points="624.373,-137.995 626.816,-127.686 618.477,-134.222 624.373,-137.995"/>
</g>
<!-- Legend -->
<g id="node11" class="node"><title>Legend</title>
<polygon fill="lightgrey" stroke="none" points="998,-196 705,-196 705,-23 998,-23 998,-196"/>
<polygon fill="white" stroke="none" points="713,-27 713,-192 990,-192 990,-27 713,-27"/>
<polygon fill="lightblue" stroke="none" points="716.5,-167.5 716.5,-188.5 987.5,-188.5 987.5,-167.5 716.5,-167.5"/>
<polygon fill="none" stroke="black" points="716.5,-167.5 716.5,-188.5 987.5,-188.5 987.5,-167.5 716.5,-167.5"/>
<text text-anchor="start" x="719.5" y="-174.3" font-family="Times,serif" font-size="14.00">Lightblue nodes are for reserved rule names, etc</text>
<polygon fill="orange" stroke="none" points="716.5,-144.5 716.5,-165.5 987.5,-165.5 987.5,-144.5 716.5,-144.5"/>
<polygon fill="none" stroke="black" points="716.5,-144.5 716.5,-165.5 987.5,-165.5 987.5,-144.5 716.5,-144.5"/>
<text text-anchor="start" x="763" y="-151.3" font-family="Times,serif" font-size="14.00">Orange nodes are &#39;:default&#39; rules</text>
<polygon fill="magenta" stroke="none" points="716.5,-121.5 716.5,-142.5 987.5,-142.5 987.5,-121.5 716.5,-121.5"/>
<polygon fill="none" stroke="black" points="716.5,-121.5 716.5,-142.5 987.5,-142.5 987.5,-121.5 716.5,-121.5"/>
<text text-anchor="start" x="759" y="-128.3" font-family="Times,serif" font-size="14.00">Magenta nodes are &#39;:discard&#39; rules</text>
<polygon fill="orchid" stroke="none" points="716.5,-98.5 716.5,-119.5 987.5,-119.5 987.5,-98.5 716.5,-98.5"/>
<polygon fill="none" stroke="black" points="716.5,-98.5 716.5,-119.5 987.5,-119.5 987.5,-98.5 716.5,-98.5"/>
<text text-anchor="start" x="732" y="-105.3" font-family="Times,serif" font-size="14.00">The orchid node is the &#39;discard default&#39; rule</text>
<polygon fill="#ff3030" stroke="none" points="716.5,-75.5 716.5,-96.5 987.5,-96.5 987.5,-75.5 716.5,-75.5"/>
<polygon fill="none" stroke="black" points="716.5,-75.5 716.5,-96.5 987.5,-96.5 987.5,-75.5 716.5,-75.5"/>
<text text-anchor="start" x="783" y="-82.3" font-family="Times,serif" font-size="14.00">Red nodes are the events</text>
<polygon fill="goldenrod" stroke="none" points="716.5,-52.5 716.5,-73.5 987.5,-73.5 987.5,-52.5 716.5,-52.5"/>
<polygon fill="none" stroke="black" points="716.5,-52.5 716.5,-73.5 987.5,-73.5 987.5,-52.5 716.5,-52.5"/>
<text text-anchor="start" x="731.5" y="-59.3" font-family="Times,serif" font-size="14.00">The golden node is the &#39;lexeme default&#39; rule</text>
<polygon fill="lightgreen" stroke="none" points="716.5,-29.5 716.5,-50.5 987.5,-50.5 987.5,-29.5 716.5,-29.5"/>
<polygon fill="none" stroke="black" points="716.5,-29.5 716.5,-50.5 987.5,-50.5 987.5,-29.5 716.5,-29.5"/>
<text text-anchor="start" x="761" y="-36.3" font-family="Times,serif" font-size="14.00">The green node is the &#39;:start&#39; rule</text>
<polygon fill="none" stroke="black" points="713,-27 713,-192 990,-192 990,-27 713,-27"/>
</g>
</g>
</svg>
