<?xml version="1.0" encoding="UTF-8" standalone="no"?>
<!DOCTYPE svg PUBLIC "-//W3C//DTD SVG 1.1//EN"
 "http://www.w3.org/Graphics/SVG/1.1/DTD/svg11.dtd">
<!-- Generated by graphviz version 2.38.0 (20140413.2041)
 -->
<!-- Title: Perl Pages: 1 -->
<svg width="571pt" height="302pt"
 viewBox="0.00 0.00 571.00 302.00" xmlns="http://www.w3.org/2000/svg" xmlns:xlink="http://www.w3.org/1999/xlink">
<g id="graph0" class="graph" transform="scale(1 1) rotate(0) translate(4 298)">
<title>Perl</title>
<polygon fill="white" stroke="none" points="-4,4 -4,-298 567,-298 567,4 -4,4"/>
<text text-anchor="middle" x="281.5" y="-7.8" font-family="Times,serif" font-size="14.00">numeric.expressions.bnf</text>
<!-- ꞉default -->
<g id="node1" class="node"><title>꞉default</title>
<polygon fill="lightblue" stroke="black" points="59,-222 0,-222 0,-186 59,-186 59,-222"/>
<text text-anchor="middle" x="29.5" y="-200.3" font-family="Times,serif" font-size="14.00">꞉default</text>
</g>
<!-- BNF -->
<g id="node2" class="node"><title>BNF</title>
<polygon fill="lightgrey" stroke="black" points="153.5,-294 99.5,-294 99.5,-258 153.5,-258 153.5,-294"/>
<text text-anchor="middle" x="126.5" y="-272.3" font-family="Times,serif" font-size="14.00">BNF</text>
</g>
<!-- BNF&#45;&gt;꞉default -->
<g id="edge1" class="edge"><title>BNF&#45;&gt;꞉default</title>
<path fill="none" stroke="grey" d="M102.522,-257.697C90.1887,-248.796 74.9836,-237.823 61.647,-228.199"/>
<polygon fill="grey" stroke="grey" points="63.3589,-225.118 53.2017,-222.104 59.2626,-230.794 63.3589,-225.118"/>
</g>
<!-- lexeme default -->
<g id="node3" class="node"><title>lexeme default</title>
<polygon fill="lightblue" stroke="black" points="175.5,-222 77.5,-222 77.5,-186 175.5,-186 175.5,-222"/>
<text text-anchor="middle" x="126.5" y="-200.3" font-family="Times,serif" font-size="14.00">lexeme default</text>
</g>
<!-- BNF&#45;&gt;lexeme default -->
<g id="edge2" class="edge"><title>BNF&#45;&gt;lexeme default</title>
<path fill="none" stroke="grey" d="M126.5,-257.697C126.5,-249.983 126.5,-240.712 126.5,-232.112"/>
<polygon fill="grey" stroke="grey" points="130,-232.104 126.5,-222.104 123,-232.104 130,-232.104"/>
</g>
<!-- ꞉discard -->
<g id="node4" class="node"><title>꞉discard</title>
<polygon fill="lightblue" stroke="black" points="253.5,-222 193.5,-222 193.5,-186 253.5,-186 253.5,-222"/>
<text text-anchor="middle" x="223.5" y="-200.3" font-family="Times,serif" font-size="14.00">꞉discard</text>
</g>
<!-- BNF&#45;&gt;꞉discard -->
<g id="edge3" class="edge"><title>BNF&#45;&gt;꞉discard</title>
<path fill="none" stroke="grey" d="M150.478,-257.697C162.811,-248.796 178.016,-237.823 191.353,-228.199"/>
<polygon fill="grey" stroke="grey" points="193.737,-230.794 199.798,-222.104 189.641,-225.118 193.737,-230.794"/>
</g>
<!-- lexeme -->
<g id="node5" class="node"><title>lexeme</title>
<polygon fill="lightblue" stroke="black" points="251.5,-104.5 195.5,-104.5 195.5,-68.5 251.5,-68.5 251.5,-104.5"/>
<text text-anchor="middle" x="223.5" y="-82.8" font-family="Times,serif" font-size="14.00">lexeme</text>
</g>
<!-- ꞉discard&#45;&gt;lexeme -->
<g id="edge4" class="edge"><title>꞉discard&#45;&gt;lexeme</title>
<path fill="none" stroke="grey" d="M223.5,-185.958C223.5,-167.191 223.5,-136.756 223.5,-114.687"/>
<polygon fill="grey" stroke="grey" points="227,-114.612 223.5,-104.612 220,-114.612 227,-114.612"/>
</g>
<!-- Legend -->
<g id="node6" class="node"><title>Legend</title>
<polygon fill="lightgrey" stroke="none" points="563,-150 270,-150 270,-23 563,-23 563,-150"/>
<polygon fill="white" stroke="none" points="278,-27 278,-146 555,-146 555,-27 278,-27"/>
<polygon fill="lightgreen" stroke="none" points="281.5,-121.5 281.5,-142.5 552.5,-142.5 552.5,-121.5 281.5,-121.5"/>
<polygon fill="none" stroke="black" points="281.5,-121.5 281.5,-142.5 552.5,-142.5 552.5,-121.5 281.5,-121.5"/>
<text text-anchor="start" x="328" y="-128.3" font-family="Times,serif" font-size="14.00">The green node is the start node</text>
<polygon fill="lightblue" stroke="none" points="281.5,-98.5 281.5,-119.5 552.5,-119.5 552.5,-98.5 281.5,-98.5"/>
<polygon fill="none" stroke="black" points="281.5,-98.5 281.5,-119.5 552.5,-119.5 552.5,-98.5 281.5,-98.5"/>
<text text-anchor="start" x="284.5" y="-105.3" font-family="Times,serif" font-size="14.00">Lightblue nodes are for reserved rule names, etc</text>
<polygon fill="orchid" stroke="none" points="281.5,-75.5 281.5,-96.5 552.5,-96.5 552.5,-75.5 281.5,-75.5"/>
<polygon fill="none" stroke="black" points="281.5,-75.5 281.5,-96.5 552.5,-96.5 552.5,-75.5 281.5,-75.5"/>
<text text-anchor="start" x="335.5" y="-82.3" font-family="Times,serif" font-size="14.00">Orchid nodes are for lexemes</text>
<polygon fill="goldenrod" stroke="none" points="281.5,-52.5 281.5,-73.5 552.5,-73.5 552.5,-52.5 281.5,-52.5"/>
<polygon fill="none" stroke="black" points="281.5,-52.5 281.5,-73.5 552.5,-73.5 552.5,-52.5 281.5,-52.5"/>
<text text-anchor="start" x="337" y="-59.3" font-family="Times,serif" font-size="14.00">Golden nodes are for actions</text>
<polygon fill="#ff3030" stroke="none" points="281.5,-29.5 281.5,-50.5 552.5,-50.5 552.5,-29.5 281.5,-29.5"/>
<polygon fill="none" stroke="black" points="281.5,-29.5 281.5,-50.5 552.5,-50.5 552.5,-29.5 281.5,-29.5"/>
<text text-anchor="start" x="349" y="-36.3" font-family="Times,serif" font-size="14.00">Red nodes are for events</text>
<polygon fill="none" stroke="black" points="278,-27 278,-146 555,-146 555,-27 278,-27"/>
</g>
</g>
</svg>
