<?xml version="1.0" encoding="UTF-8" standalone="no"?>
<!DOCTYPE svg PUBLIC "-//W3C//DTD SVG 1.1//EN"
 "http://www.w3.org/Graphics/SVG/1.1/DTD/svg11.dtd">
<!-- Generated by graphviz version 2.38.0 (20140413.2041)
 -->
<!-- Title: Perl Pages: 1 -->
<svg width="378pt" height="230pt"
 viewBox="0.00 0.00 378.00 230.00" xmlns="http://www.w3.org/2000/svg" xmlns:xlink="http://www.w3.org/1999/xlink">
<g id="graph0" class="graph" transform="scale(1 1) rotate(0) translate(4 226)">
<title>Perl</title>
<polygon fill="white" stroke="none" points="-4,4 -4,-226 374,-226 374,4 -4,4"/>
<text text-anchor="middle" x="185" y="-7.8" font-family="Times,serif" font-size="14.00">termcap.info.bnf</text>
<!-- ꞉default -->
<g id="node1" class="node"><title>꞉default</title>
<polygon fill="lightblue" stroke="black" points="59,-104.5 0,-104.5 0,-68.5 59,-68.5 59,-104.5"/>
<text text-anchor="middle" x="29.5" y="-82.8" font-family="Times,serif" font-size="14.00">꞉default</text>
</g>
<!-- BNF -->
<g id="node2" class="node"><title>BNF</title>
<polygon fill="lightgrey" stroke="black" points="56.5,-222 2.5,-222 2.5,-186 56.5,-186 56.5,-222"/>
<text text-anchor="middle" x="29.5" y="-200.3" font-family="Times,serif" font-size="14.00">BNF</text>
</g>
<!-- BNF&#45;&gt;꞉default -->
<g id="edge1" class="edge"><title>BNF&#45;&gt;꞉default</title>
<path fill="none" stroke="grey" d="M29.5,-185.958C29.5,-167.191 29.5,-136.756 29.5,-114.687"/>
<polygon fill="grey" stroke="grey" points="33.0001,-114.612 29.5,-104.612 26.0001,-114.612 33.0001,-114.612"/>
</g>
<!-- Legend -->
<g id="node3" class="node"><title>Legend</title>
<polygon fill="lightgrey" stroke="none" points="370,-150 77,-150 77,-23 370,-23 370,-150"/>
<polygon fill="white" stroke="none" points="85,-27 85,-146 362,-146 362,-27 85,-27"/>
<polygon fill="lightgreen" stroke="none" points="88.5,-121.5 88.5,-142.5 359.5,-142.5 359.5,-121.5 88.5,-121.5"/>
<polygon fill="none" stroke="black" points="88.5,-121.5 88.5,-142.5 359.5,-142.5 359.5,-121.5 88.5,-121.5"/>
<text text-anchor="start" x="135" y="-128.3" font-family="Times,serif" font-size="14.00">The green node is the start node</text>
<polygon fill="lightblue" stroke="none" points="88.5,-98.5 88.5,-119.5 359.5,-119.5 359.5,-98.5 88.5,-98.5"/>
<polygon fill="none" stroke="black" points="88.5,-98.5 88.5,-119.5 359.5,-119.5 359.5,-98.5 88.5,-98.5"/>
<text text-anchor="start" x="91.5" y="-105.3" font-family="Times,serif" font-size="14.00">Lightblue nodes are for reserved rule names, etc</text>
<polygon fill="orchid" stroke="none" points="88.5,-75.5 88.5,-96.5 359.5,-96.5 359.5,-75.5 88.5,-75.5"/>
<polygon fill="none" stroke="black" points="88.5,-75.5 88.5,-96.5 359.5,-96.5 359.5,-75.5 88.5,-75.5"/>
<text text-anchor="start" x="142.5" y="-82.3" font-family="Times,serif" font-size="14.00">Orchid nodes are for lexemes</text>
<polygon fill="goldenrod" stroke="none" points="88.5,-52.5 88.5,-73.5 359.5,-73.5 359.5,-52.5 88.5,-52.5"/>
<polygon fill="none" stroke="black" points="88.5,-52.5 88.5,-73.5 359.5,-73.5 359.5,-52.5 88.5,-52.5"/>
<text text-anchor="start" x="144" y="-59.3" font-family="Times,serif" font-size="14.00">Golden nodes are for actions</text>
<polygon fill="#ff3030" stroke="none" points="88.5,-29.5 88.5,-50.5 359.5,-50.5 359.5,-29.5 88.5,-29.5"/>
<polygon fill="none" stroke="black" points="88.5,-29.5 88.5,-50.5 359.5,-50.5 359.5,-29.5 88.5,-29.5"/>
<text text-anchor="start" x="156" y="-36.3" font-family="Times,serif" font-size="14.00">Red nodes are for events</text>
<polygon fill="none" stroke="black" points="85,-27 85,-146 362,-146 362,-27 85,-27"/>
</g>
</g>
</svg>
