<?xml version="1.0" encoding="UTF-8" standalone="no"?>
<!DOCTYPE svg PUBLIC "-//W3C//DTD SVG 1.1//EN"
 "http://www.w3.org/Graphics/SVG/1.1/DTD/svg11.dtd">
<!-- Generated by graphviz version 2.36.0 (20140111.2315)
 -->
<!-- Title: test Pages: 1 -->
<svg width="163pt" height="216pt"
 viewBox="0.00 0.00 162.75 216.00" xmlns="http://www.w3.org/2000/svg" xmlns:xlink="http://www.w3.org/1999/xlink">
<g id="graph0" class="graph" transform="scale(1 1) rotate(0) translate(4 212)">
<title>test</title>
<polygon fill="white" stroke="none" points="-4,4 -4,-212 158.745,-212 158.745,4 -4,4"/>
<!-- node1 -->
<g id="node1" class="node"><title>node1</title>
<ellipse fill="white" stroke="gray" cx="27" cy="-104" rx="10.8" ry="10.8"/>
</g>
<!-- Bob -->
<g id="node2" class="node"><title>Bob</title>
<polygon fill="none" stroke="gray" points="54,-208 0,-208 0,-172 54,-172 54,-208"/>
<text text-anchor="middle" x="27" y="-185.8" font-family="Times,serif" font-size="14.00">Bob</text>
</g>
<!-- node1&#45;&gt;Bob -->
<g id="edge1" class="edge"><title>node1&#45;&gt;Bob</title>
<path fill="none" stroke="black" d="M27,-114.966C27,-126.336 27,-145.417 27,-161.359"/>
<polygon fill="black" stroke="black" points="23.5001,-161.762 27,-171.762 30.5001,-161.762 23.5001,-161.762"/>
<text text-anchor="middle" x="55.3726" y="-142.8" font-family="Times,serif" font-size="14.00">foaf:name</text>
</g>
<!-- node2 -->
<g id="node3" class="node"><title>node2</title>
<path fill="none" stroke="gray" d="M87.5263,-36C87.5263,-36 52.4737,-36 52.4737,-36 46.4737,-36 40.4737,-30 40.4737,-24 40.4737,-24 40.4737,-12 40.4737,-12 40.4737,-6 46.4737,-0 52.4737,-0 52.4737,-0 87.5263,-0 87.5263,-0 93.5263,-0 99.5263,-6 99.5263,-12 99.5263,-12 99.5263,-24 99.5263,-24 99.5263,-30 93.5263,-36 87.5263,-36"/>
<text text-anchor="middle" x="70" y="-13.8" font-family="Times,serif" font-size="14.00" fill="blue">ex:alice</text>
</g>
<!-- node2&#45;&gt;node1 -->
<g id="edge2" class="edge"><title>node2&#45;&gt;node1</title>
<path fill="none" stroke="black" d="M42.4175,-36.181C36.6383,-41.1747 31.3042,-47.1583 28.0137,-54 23.7662,-62.8314 23.1354,-73.6341 23.7267,-82.8469"/>
<polygon fill="black" stroke="black" points="20.2806,-83.5186 24.8931,-93.0567 27.2353,-82.724 20.2806,-83.5186"/>
<text text-anchor="middle" x="60.4932" y="-56.8" font-family="Times,serif" font-size="14.00">foaf:knows</text>
</g>
<!-- Alice -->
<g id="node4" class="node"><title>Alice</title>
<polygon fill="none" stroke="gray" points="140,-122 86,-122 86,-86 140,-86 140,-122"/>
<text text-anchor="middle" x="113" y="-99.8" font-family="Times,serif" font-size="14.00">Alice</text>
</g>
<!-- node2&#45;&gt;Alice -->
<g id="edge3" class="edge"><title>node2&#45;&gt;Alice</title>
<path fill="none" stroke="black" d="M80.8813,-36.2152C84.2666,-41.8081 87.9169,-48.0954 91,-54 94.7388,-61.1604 98.4664,-69.0855 101.762,-76.4379"/>
<polygon fill="black" stroke="black" points="98.727,-78.2316 105.949,-85.9832 105.137,-75.4196 98.727,-78.2316"/>
<text text-anchor="middle" x="126.373" y="-56.8" font-family="Times,serif" font-size="14.00">foaf:name</text>
</g>
</g>
</svg>
