<?xml version="1.0" encoding="UTF-8" standalone="no"?>
<!DOCTYPE svg PUBLIC "-//W3C//DTD SVG 1.1//EN"
 "http://www.w3.org/Graphics/SVG/1.1/DTD/svg11.dtd">
<!-- Generated by graphviz version 2.36.0 (20140111.2315)
 -->
<!-- Title: finite_state_machine Pages: 1 -->
<svg width="734pt" height="323pt"
 viewBox="0.00 0.00 734.00 323.00" xmlns="http://www.w3.org/2000/svg" xmlns:xlink="http://www.w3.org/1999/xlink">
<g id="graph0" class="graph" transform="scale(1 1) rotate(0) translate(4 319)">
<title>finite_state_machine</title>
<polygon fill="white" stroke="none" points="-4,4 -4,-319 730,-319 730,4 -4,4"/>
<!-- LR_0 -->
<g id="node1" class="node"><title>LR_0</title>
<ellipse fill="none" stroke="black" cx="35" cy="-104" rx="30.0322" ry="30.0322"/>
<ellipse fill="none" stroke="black" cx="35" cy="-104" rx="34.0033" ry="34.0033"/>
<text text-anchor="middle" x="35" y="-99.8" font-family="Times,serif" font-size="14.00">LR_0</text>
</g>
<!-- LR_2 -->
<g id="node5" class="node"><title>LR_2</title>
<ellipse fill="none" stroke="black" cx="171" cy="-142" rx="30.0035" ry="30.0035"/>
<text text-anchor="middle" x="171" y="-137.8" font-family="Times,serif" font-size="14.00">LR_2</text>
</g>
<!-- LR_0&#45;&gt;LR_2 -->
<g id="edge1" class="edge"><title>LR_0&#45;&gt;LR_2</title>
<path fill="none" stroke="black" d="M68.0963,-113.102C87.3049,-118.549 111.824,-125.502 131.997,-131.223"/>
<polygon fill="black" stroke="black" points="131.228,-134.643 141.803,-134.004 133.138,-127.908 131.228,-134.643"/>
<text text-anchor="middle" x="105" y="-130.8" font-family="Times,serif" font-size="14.00">SS(B)</text>
</g>
<!-- LR_1 -->
<g id="node6" class="node"><title>LR_1</title>
<ellipse fill="none" stroke="black" cx="171" cy="-53" rx="30.0035" ry="30.0035"/>
<text text-anchor="middle" x="171" y="-48.8" font-family="Times,serif" font-size="14.00">LR_1</text>
</g>
<!-- LR_0&#45;&gt;LR_1 -->
<g id="edge2" class="edge"><title>LR_0&#45;&gt;LR_1</title>
<path fill="none" stroke="black" d="M67.417,-92.0428C87.0504,-84.5704 112.427,-74.9123 133.027,-67.0717"/>
<polygon fill="black" stroke="black" points="134.313,-70.3273 142.414,-63.4991 131.823,-63.7851 134.313,-70.3273"/>
<text text-anchor="middle" x="105" y="-86.8" font-family="Times,serif" font-size="14.00">SS(S)</text>
</g>
<!-- LR_3 -->
<g id="node2" class="node"><title>LR_3</title>
<ellipse fill="none" stroke="black" cx="317" cy="-34" rx="30.0322" ry="30.0322"/>
<ellipse fill="none" stroke="black" cx="317" cy="-34" rx="34.0033" ry="34.0033"/>
<text text-anchor="middle" x="317" y="-29.8" font-family="Times,serif" font-size="14.00">LR_3</text>
</g>
<!-- LR_4 -->
<g id="node3" class="node"><title>LR_4</title>
<ellipse fill="none" stroke="black" cx="317" cy="-281" rx="30.0322" ry="30.0322"/>
<ellipse fill="none" stroke="black" cx="317" cy="-281" rx="34.0033" ry="34.0033"/>
<text text-anchor="middle" x="317" y="-276.8" font-family="Times,serif" font-size="14.00">LR_4</text>
</g>
<!-- LR_8 -->
<g id="node4" class="node"><title>LR_8</title>
<ellipse fill="none" stroke="black" cx="691" cy="-143" rx="30.0322" ry="30.0322"/>
<ellipse fill="none" stroke="black" cx="691" cy="-143" rx="34.0033" ry="34.0033"/>
<text text-anchor="middle" x="691" y="-138.8" font-family="Times,serif" font-size="14.00">LR_8</text>
</g>
<!-- LR_6 -->
<g id="node7" class="node"><title>LR_6</title>
<ellipse fill="none" stroke="black" cx="317" cy="-166" rx="30.0035" ry="30.0035"/>
<text text-anchor="middle" x="317" y="-161.8" font-family="Times,serif" font-size="14.00">LR_6</text>
</g>
<!-- LR_8&#45;&gt;LR_6 -->
<g id="edge13" class="edge"><title>LR_8&#45;&gt;LR_6</title>
<path fill="none" stroke="black" d="M657.233,-149.391C615.055,-157.262 539.406,-170.181 474,-175 446.519,-177.025 439.524,-176.315 412,-175 393.964,-174.139 374.048,-172.352 357.208,-170.597"/>
<polygon fill="black" stroke="black" points="357.481,-167.106 347.164,-169.516 356.732,-174.066 357.481,-167.106"/>
<text text-anchor="middle" x="504" y="-176.8" font-family="Times,serif" font-size="14.00">S(b)</text>
</g>
<!-- LR_5 -->
<g id="node8" class="node"><title>LR_5</title>
<ellipse fill="none" stroke="black" cx="443" cy="-104" rx="30.0035" ry="30.0035"/>
<text text-anchor="middle" x="443" y="-99.8" font-family="Times,serif" font-size="14.00">LR_5</text>
</g>
<!-- LR_8&#45;&gt;LR_5 -->
<g id="edge14" class="edge"><title>LR_8&#45;&gt;LR_5</title>
<path fill="none" stroke="black" d="M656.939,-137.759C611.872,-130.614 531.276,-117.836 483.213,-110.217"/>
<polygon fill="black" stroke="black" points="483.61,-106.736 473.185,-108.627 482.514,-113.65 483.61,-106.736"/>
<text text-anchor="middle" x="565" y="-131.8" font-family="Times,serif" font-size="14.00">S(a)</text>
</g>
<!-- LR_2&#45;&gt;LR_4 -->
<g id="edge6" class="edge"><title>LR_2&#45;&gt;LR_4</title>
<path fill="none" stroke="black" d="M193.248,-162.51C217.275,-185.703 256.646,-223.707 284.307,-250.408"/>
<polygon fill="black" stroke="black" points="282.15,-253.19 291.776,-257.617 287.012,-248.154 282.15,-253.19"/>
<text text-anchor="middle" x="242" y="-230.8" font-family="Times,serif" font-size="14.00">S(A)</text>
</g>
<!-- LR_2&#45;&gt;LR_6 -->
<g id="edge4" class="edge"><title>LR_2&#45;&gt;LR_6</title>
<path fill="none" stroke="black" d="M201.141,-146.857C222.903,-150.484 252.88,-155.48 276.752,-159.459"/>
<polygon fill="black" stroke="black" points="276.463,-162.959 286.903,-161.15 277.614,-156.054 276.463,-162.959"/>
<text text-anchor="middle" x="242" y="-159.8" font-family="Times,serif" font-size="14.00">SS(b)</text>
</g>
<!-- LR_2&#45;&gt;LR_5 -->
<g id="edge5" class="edge"><title>LR_2&#45;&gt;LR_5</title>
<path fill="none" stroke="black" d="M200.154,-132.897C222.182,-126.186 253.715,-117.477 282,-113 322.789,-106.544 370.069,-104.549 402.599,-104.012"/>
<polygon fill="black" stroke="black" points="402.661,-107.512 412.616,-103.885 402.572,-100.512 402.661,-107.512"/>
<text text-anchor="middle" x="317" y="-115.8" font-family="Times,serif" font-size="14.00">SS(a)</text>
</g>
<!-- LR_1&#45;&gt;LR_3 -->
<g id="edge3" class="edge"><title>LR_1&#45;&gt;LR_3</title>
<path fill="none" stroke="black" d="M201.141,-49.1551C221.758,-46.4347 249.747,-42.7417 272.934,-39.6823"/>
<polygon fill="black" stroke="black" points="273.417,-43.149 282.873,-38.3709 272.501,-36.2092 273.417,-43.149"/>
<text text-anchor="middle" x="242" y="-49.8" font-family="Times,serif" font-size="14.00">S($end)</text>
</g>
<!-- LR_6&#45;&gt;LR_6 -->
<g id="edge9" class="edge"><title>LR_6&#45;&gt;LR_6</title>
<path fill="none" stroke="black" d="M305.047,-194.103C304.516,-204.969 308.5,-214 317,-214 322.578,-214 326.212,-210.111 327.9,-204.366"/>
<polygon fill="black" stroke="black" points="331.414,-204.408 328.953,-194.103 324.451,-203.694 331.414,-204.408"/>
<text text-anchor="middle" x="317" y="-216.8" font-family="Times,serif" font-size="14.00">S(b)</text>
</g>
<!-- LR_6&#45;&gt;LR_5 -->
<g id="edge10" class="edge"><title>LR_6&#45;&gt;LR_5</title>
<path fill="none" stroke="black" d="M344.297,-152.851C362.463,-143.768 386.833,-131.583 406.689,-121.655"/>
<polygon fill="black" stroke="black" points="408.362,-124.732 415.741,-117.13 405.231,-118.471 408.362,-124.732"/>
<text text-anchor="middle" x="382" y="-141.8" font-family="Times,serif" font-size="14.00">S(a)</text>
</g>
<!-- LR_5&#45;&gt;LR_5 -->
<g id="edge8" class="edge"><title>LR_5&#45;&gt;LR_5</title>
<path fill="none" stroke="black" d="M431.794,-132.103C431.296,-142.969 435.031,-152 443,-152 448.229,-152 451.636,-148.111 453.219,-142.366"/>
<polygon fill="black" stroke="black" points="456.732,-142.392 454.206,-132.103 449.765,-141.722 456.732,-142.392"/>
<text text-anchor="middle" x="443" y="-154.8" font-family="Times,serif" font-size="14.00">S(a)</text>
</g>
<!-- LR_7 -->
<g id="node9" class="node"><title>LR_7</title>
<ellipse fill="none" stroke="black" cx="565" cy="-77" rx="30.0035" ry="30.0035"/>
<text text-anchor="middle" x="565" y="-72.8" font-family="Times,serif" font-size="14.00">LR_7</text>
</g>
<!-- LR_5&#45;&gt;LR_7 -->
<g id="edge7" class="edge"><title>LR_5&#45;&gt;LR_7</title>
<path fill="none" stroke="black" d="M472.743,-97.5328C488.361,-94.0187 507.9,-89.6225 524.887,-85.8005"/>
<polygon fill="black" stroke="black" points="526.088,-89.1178 535.076,-83.508 524.551,-82.2885 526.088,-89.1178"/>
<text text-anchor="middle" x="504" y="-95.8" font-family="Times,serif" font-size="14.00">S(b)</text>
</g>
<!-- LR_7&#45;&gt;LR_8 -->
<g id="edge11" class="edge"><title>LR_7&#45;&gt;LR_8</title>
<path fill="none" stroke="black" d="M592.022,-90.6672C605.718,-97.8775 622.784,-106.888 638,-115 642.466,-117.381 647.143,-119.885 651.783,-122.375"/>
<polygon fill="black" stroke="black" points="650.132,-125.461 660.598,-127.113 653.447,-119.295 650.132,-125.461"/>
<text text-anchor="middle" x="626" y="-117.8" font-family="Times,serif" font-size="14.00">S(b)</text>
</g>
<!-- LR_7&#45;&gt;LR_5 -->
<g id="edge12" class="edge"><title>LR_7&#45;&gt;LR_5</title>
<path fill="none" stroke="black" d="M535.42,-69.7072C521.981,-67.5115 505.895,-66.6842 492,-71 486.184,-72.8063 480.449,-75.5888 475.077,-78.7883"/>
<polygon fill="black" stroke="black" points="472.868,-76.052 466.431,-84.4677 476.711,-81.9026 472.868,-76.052"/>
<text text-anchor="middle" x="504" y="-73.8" font-family="Times,serif" font-size="14.00">S(a)</text>
</g>
</g>
</svg>
