/* XPM */
static char * file_quit_xpm[] = {
"16 16 103 2",
"  	c None",
". 	c #3F475E",
"+ 	c #39455D",
"@ 	c #3B4560",
"# 	c #3B455E",
"$ 	c #3E4360",
"% 	c #3D445E",
"& 	c #3C435F",
"* 	c #3B465C",
"= 	c #FFFFFF",
"- 	c #FDFFFC",
"; 	c #FFFFFD",
"> 	c #FEFFFD",
", 	c #FFFEFF",
"' 	c #FDFFFE",
") 	c #000100",
"! 	c #A09EA1",
"~ 	c #FFF6EF",
"{ 	c #000002",
"] 	c #A0A0A2",
"^ 	c #FEFEFC",
"/ 	c #961318",
"( 	c #FBFFFC",
"_ 	c #FCF7F4",
": 	c #FCF9F2",
"< 	c #FEFCFD",
"[ 	c #000200",
"} 	c #9F9DA0",
"| 	c #951218",
"1 	c #921519",
"2 	c #3C435D",
"3 	c #FEFFFA",
"4 	c #FEFDFB",
"5 	c #010002",
"6 	c #9FA0A4",
"7 	c #951419",
"8 	c #971118",
"9 	c #96131B",
"0 	c #FF602C",
"a 	c #FCFAFB",
"b 	c #3A445F",
"c 	c #FEFEFF",
"d 	c #FEFFFF",
"e 	c #FCFCFC",
"f 	c #9EA09F",
"g 	c #FD602B",
"h 	c #FC6030",
"i 	c #FD612E",
"j 	c #FF602E",
"k 	c #FD6130",
"l 	c #FE6030",
"m 	c #921417",
"n 	c #FDFDFD",
"o 	c #FCFCFA",
"p 	c #9E9FA1",
"q 	c #931518",
"r 	c #FB0605",
"s 	c #FB0506",
"t 	c #FC0704",
"u 	c #F90801",
"v 	c #FD0503",
"w 	c #FA0605",
"x 	c #951418",
"y 	c #FBFBFD",
"z 	c #F9FAF5",
"A 	c #9F9EA3",
"B 	c #941317",
"C 	c #FA0701",
"D 	c #3B465A",
"E 	c #F7F7F7",
"F 	c #FEFEFE",
"G 	c #FDFBFE",
"H 	c #A09EA3",
"I 	c #39455F",
"J 	c #92131C",
"K 	c #DADADC",
"L 	c #3D4460",
"M 	c #9F9FA1",
"N 	c #3A455B",
"O 	c #FAFFF9",
"P 	c #8E151C",
"Q 	c #CDCDCD",
"R 	c #B4B4B4",
"S 	c #FCFCFE",
"T 	c #39455B",
"U 	c #FCFDF8",
"V 	c #FBFBFB",
"W 	c #EEEDEB",
"X 	c #000000",
"Y 	c #A09FA4",
"Z 	c #3A445D",
"` 	c #FAFAF8",
" .	c #EEEBE6",
"..	c #222836",
"+.	c #010000",
"@.	c #9FA0A2",
"#.	c #000102",
"$.	c #F4F3EF",
"%.	c #3C4B62",
"&.	c #010103",
"*.	c #9E9FA3",
"=.	c #A19FA2",
"-.	c #9F9DA2",
"                                ",
"      . + @ # $ @ @ % # & *     ",
"      # = - ; > ; > , ' * ) !   ",
"      + ; , = , = , @ @ ~ { ]   ",
"      * ^ / = = ( # _ : < [ }   ",
"      @ ; | 1 = = 2 = 3 4 5 6   ",
"  7 8 / 7 9 0 8 a b c d e ) f   ",
"  / g h i j k l m * n = o { p   ",
"  q r s t u v w x & y d z { A   ",
"  B B B | / C B ; D E F G ) H   ",
"      I = J B = K L o = , { M   ",
"      N O P , Q R # S , = ) !   ",
"      @ d ; Q R R T U V W X Y   ",
"      Z d Q R R R L `  ...+.@.  ",
"    #.#.5 +.X X { 2 $.%.X &.}   ",
"        p M A @.*.% X A =.-.6   "};
