/* XPM */
static const char *bookmark9_xpm[] = {
/* columns rows colors chars-per-pixel */
"16 16 88 1",
"l c #DEDDD8",
"V c #DEDDD9",
"] c #A29E9D",
"p c #5A6070",
". c #A09E9F",
"+ c #A09EA3",
"z c #58606D",
"d c #E1DED9",
"e c #FFFFFF",
"Q c #5D616D",
"b c #FFFCFD",
"B c #FDFFFA",
"7 c #FDFFFC",
"A c #FDFFFE",
"; c #DFDEDA",
"P c #DFDEDC",
"W c #5B616D",
"! c #5B616F",
"O c #A19FA0",
"o c #A19FA2",
"q c #A19FA4",
"y c #605F71",
"H c #DBDED7",
"C c #5E626E",
"0 c #9F9F9D",
"g c #9F9F9F",
"6 c #FEFDF9",
"- c #E0DCDB",
", c #DEDFD9",
"T c #DEDFDA",
"f c #5A626D",
"a c #A2A0A5",
"c c #FCFDFF",
"X c #A0A0A0",
"_ c #A0A0A2",
"R c #5F6072",
": c #E1E0DE",
"S c #FFFEFA",
"N c #FFFEFC",
"i c #E1DDDA",
"F c #FFFEFF",
"9 c #5D606F",
"t c #FDFEF9",
"$ c #A3A1A2",
"` c #9E9DA2",
"I c #F3F3F3",
"5 c #FDFEFF",
"< c #DFDDE0",
"J c #5B6073",
"@ c #A1A19F",
"& c #DDDDDB",
"* c #DDDDDD",
"K c #9FA1A0",
"u c #FEFFF7",
"U c #FEFFFA",
"x c #9F9EA3",
"v c #FEFFFD",
"w c #FEFFFF",
"4 c #FEFCFD",
"j c #FCFFF8",
") c #A2A2A2",
"( c #9D9EA3",
"^ c #5A6470",
"2 c #F2F4F3",
"n c #FAFFF9",
"# c #A09F9D",
"Z c #F5F5F5",
"k c #FFFDFE",
"/ c #5D5F6E",
"  c None",
"r c #FDFDFB",
"D c #FDFDFD",
"G c #FDFDFF",
"' c #A1A09C",
"L c #A1A09E",
"Y c #F6F6EE",
"~ c #59626B",
"E c #5E606C",
"M c #9FA0A2",
"1 c #5E606D",
"m c #9FA0A4",
"% c #9F9D9E",
"h c #9F9DA0",
"8 c #FEFEFC",
"= c #E0DDD8",
"3 c #FEFEFE",
"s c #FEFEFF",
"> c #DEE0DB",
/* pixels */
"                ",
"                ",
"   .XoOo+@#$    ",
"  %&*=-;:>,<1   ",
"  o23445678-90  ",
"  qwertyyu8ipX  ",
"  ae8tytsyedfg  ",
"  he8jkyyyelzx  ",
"  .cvwbtny3;fm  ",
"  MNettyyBkVC@  ",
"  OZASDFGktHJK  ",
"  LPIFU8ekYTRm  ",
"   EWQQ!~^C/()  ",
"    oqq_`o'a]   ",
"                ",
"                "
};
