/* XPM */
static const char *bookmark1_xpm[] = {
/* columns rows colors chars-per-pixel */
"16 16 92 1",
"m c #DEDDD8",
"b c #FCFEFD",
"K c #A29E9D",
"p c #5A6070",
". c #A09E9F",
"+ c #A09EA3",
"M c #58606D",
"j c #E1DED9",
"e c #FFFFFF",
"' c #5D616D",
"C c #FFFCFD",
"d c #FDFFFA",
"7 c #FDFFFC",
"I c #FDFFFE",
"; c #DFDEDA",
"! c #DFDEDC",
"` c #5B616D",
"] c #5B616F",
"y c #5B6171",
"O c #A19FA0",
"o c #A19FA2",
"q c #A19FA4",
"t c #605F71",
"R c #DBDED7",
"L c #5E626E",
"0 c #9F9F9D",
"v c #595E72",
"l c #9F9F9F",
"6 c #FEFDF9",
"- c #E0DCDB",
"J c #5C6272",
", c #DEDFD9",
"( c #DEDFDA",
"k c #5A626D",
"a c #A2A0A5",
"B c #FCFDFF",
"G c #5A5F72",
"X c #A0A0A0",
") c #5F6072",
": c #E1E0DE",
"n c #FFFEFA",
"i c #E1DDDA",
"Y c #FFFEFF",
"9 c #5D606F",
"s c #FDFEF9",
"$ c #A3A1A2",
"h c #9E9DA2",
"~ c #F3F3F3",
"5 c #FDFEFF",
"< c #DFDDE0",
"E c #5B6073",
"@ c #A1A19F",
"Z c #5B6074",
"& c #DDDDDB",
"* c #DDDDDD",
"F c #FBFBFB",
"W c #9FA1A0",
"u c #FEFFF7",
"^ c #FEFFFA",
"N c #9F9EA3",
"V c #FEFFFD",
"w c #FEFFFF",
"f c #5C6471",
"4 c #FEFCFD",
"x c #FCFFF8",
"U c #A2A2A2",
"| c #9D9EA3",
"{ c #5A6470",
"2 c #F2F4F3",
"A c #FAFFF9",
"# c #A09F9D",
"P c #F5F5F5",
"c c #FFFDFE",
"} c #5D5F6E",
"  c None",
"r c #FDFDFB",
"T c #FDFDFF",
"H c #5B6275",
"Q c #A1A09E",
"/ c #F6F6EE",
"[ c #59626B",
"_ c #5E606C",
"D c #9FA0A2",
"1 c #5E606D",
"S c #9FA0A4",
"% c #9F9D9E",
"z c #9F9DA0",
"8 c #FEFEFC",
"= c #E0DDD8",
"3 c #FEFEFE",
"g c #FEFEFF",
"> c #DEE0DB",
/* pixels */
"                ",
"                ",
"   .XoOo+@#$    ",
"  %&*=-;:>,<1   ",
"  o23445678-90  ",
"  qwerty8u8ipX  ",
"  ae8sdfgnejkl  ",
"  ze8xcvbnemMN  ",
"  .BVwCZA33;kS  ",
"  DneFGHJdcmL@  ",
"  OPInrYTcsREW  ",
"  Q!~Y^8ec/()S  ",
"   _`''][{L}|U  ",
"    oqqXhoQaK   ",
"                ",
"                "
};
