/* XPM */
static const char *bookmark6_xpm[] = {
/* columns rows colors chars-per-pixel */
"16 16 87 1",
"z c #DEDDD8",
"V c #DEDDD9",
"' c #A29E9D",
"p c #5A6070",
". c #A09E9F",
"+ c #A09EA3",
"x c #58606D",
"f c #E1DED9",
"e c #FFFFFF",
"W c #5D616D",
"N c #FDFFFA",
"7 c #FDFFFC",
"A c #FDFFFE",
"; c #DFDEDA",
"L c #DFDEDC",
"E c #5B616D",
"Q c #5B616F",
"O c #A19FA0",
"o c #A19FA2",
"q c #A19FA4",
"y c #605F71",
"G c #DBDED7",
"C c #5E626E",
"0 c #9F9F9D",
"h c #9F9F9F",
"6 c #FEFDF9",
"- c #E0DCDB",
", c #DEDFD9",
"Y c #DEDFDA",
"g c #5A626D",
"a c #A2A0A5",
"v c #FCFDFF",
"X c #A0A0A0",
") c #A0A0A2",
"T c #5F6072",
": c #E1E0DE",
"l c #FFFEFA",
"d c #FFFEFC",
"i c #E1DDDA",
"D c #FFFEFF",
"9 c #5D606F",
"t c #FDFEF9",
"$ c #A3A1A2",
"_ c #9E9DA2",
"P c #F3F3F3",
"5 c #FDFEFF",
"< c #DFDDE0",
"H c #5B6073",
"@ c #A1A19F",
"& c #DDDDDB",
"* c #DDDDDD",
"J c #9FA1A0",
"u c #FEFFF7",
"I c #FEFFFA",
"c c #9F9EA3",
"b c #FEFFFD",
"w c #FEFFFF",
"4 c #FEFCFD",
"k c #FCFFF8",
"( c #A2A2A2",
"/ c #9D9EA3",
"~ c #5A6470",
"2 c #F2F4F3",
"n c #FAFFF9",
"# c #A09F9D",
"Z c #F5F5F5",
"B c #FFFDFE",
"^ c #5D5F6E",
"  c None",
"r c #FDFDFB",
"S c #FDFDFD",
"F c #FDFDFF",
"` c #A1A09C",
"K c #A1A09E",
"U c #F6F6EE",
"! c #59626B",
"R c #5E606C",
"M c #9FA0A2",
"1 c #5E606D",
"m c #9FA0A4",
"% c #9F9D9E",
"j c #9F9DA0",
"8 c #FEFEFC",
"= c #E0DDD8",
"3 c #FEFEFE",
"s c #FEFEFF",
"> c #DEE0DB",
/* pixels */
"                ",
"                ",
"   .XoOo+@#$    ",
"  %&*=-;:>,<1   ",
"  o23445678-90  ",
"  qwertyyu8ipX  ",
"  ae8tytsdefgh  ",
"  je8kyyylezxc  ",
"  .vbwytny3;gm  ",
"  MdettyyNBVC@  ",
"  OZAlSDFBtGHJ  ",
"  KLPDI8eBUYTm  ",
"   REWWQ!~C^/(  ",
"    oqq)_o`a'   ",
"                ",
"                "
};
