/* XPM */
static const char *bookmark4_xpm[] = {
/* columns rows colors chars-per-pixel */
"16 16 85 1",
"l c #DEDDD8",
"N c #DEDDD9",
"_ c #A29E9D",
"p c #5A6070",
". c #A09E9F",
"+ c #A09EA3",
"z c #58606D",
"d c #E1DED9",
"e c #FFFFFF",
"R c #5D616D",
"m c #FDFFFA",
"7 c #FDFFFC",
"C c #FDFFFE",
"; c #DFDEDA",
"J c #DFDEDC",
"T c #5B616D",
"E c #5B616F",
"O c #A19FA0",
"o c #A19FA2",
"q c #A19FA4",
"t c #605F71",
"D c #DBDED7",
"B c #5E626E",
"0 c #9F9F9D",
"g c #9F9F9F",
"6 c #FEFDF9",
"- c #E0DCDB",
", c #DEDFD9",
"I c #DEDFDA",
"f c #5A626D",
"a c #A2A0A5",
"c c #FCFDFF",
"X c #A0A0A0",
"/ c #A0A0A2",
"U c #5F6072",
": c #E1E0DE",
"k c #FFFEFA",
"s c #FFFEFC",
"i c #E1DDDA",
"A c #FFFEFF",
"9 c #5D606F",
"y c #FDFEF9",
"$ c #A3A1A2",
"( c #9E9DA2",
"K c #F3F3F3",
"5 c #FDFEFF",
"< c #DFDDE0",
"F c #5B6073",
"@ c #A1A19F",
"& c #DDDDDB",
"* c #DDDDDD",
"G c #9FA1A0",
"u c #FEFFF7",
"L c #FEFFFA",
"x c #9F9EA3",
"v c #FEFFFD",
"w c #FEFFFF",
"4 c #FEFCFD",
"j c #FCFFF8",
"^ c #A2A2A2",
"~ c #9D9EA3",
"Q c #5A6470",
"2 c #F2F4F3",
"# c #A09F9D",
"V c #F5F5F5",
"M c #FFFDFE",
"! c #5D5F6E",
"  c None",
"r c #FDFDFB",
"Z c #FDFDFD",
"S c #FDFDFF",
") c #A1A09C",
"H c #A1A09E",
"P c #F6F6EE",
"W c #59626B",
"Y c #5E606C",
"n c #9FA0A2",
"1 c #5E606D",
"b c #9FA0A4",
"% c #9F9D9E",
"h c #9F9DA0",
"8 c #FEFEFC",
"= c #E0DDD8",
"3 c #FEFEFE",
"> c #DEE0DB",
/* pixels */
"                ",
"                ",
"   .XoOo+@#$    ",
"  %&*=-;:>,<1   ",
"  o23445678-90  ",
"  qwertytu8ipX  ",
"  ae8ytytsedfg  ",
"  he8jtytkelzx  ",
"  .cvwtttt3;fb  ",
"  nseyyytmMNB@  ",
"  OVCkZASMyDFG  ",
"  HJKAL8eMPIUb  ",
"   YTRREWQB!~^  ",
"    oqq/(o)a_   ",
"                ",
"                "
};
