/* XPM */
static char * clean_up_xpm[] = {
"16 16 17 1",
" 	c None",
".	c #852A82",
"+	c #AC2EA3",
"@	c #D8A1FA",
"#	c #D467FF",
"$	c #FFFFFF",
"%	c #FDFFFD",
"&	c #BE46EE",
"*	c #6A385A",
"=	c #FFFEFE",
"-	c #FEFEFF",
";	c #FDFFFE",
">	c #849975",
",	c #E6CCF6",
"'	c #FBFFFB",
")	c #FEFFFD",
"!	c #FDFEFF",
" .+             ",
" .@+            ",
"  .@+           ",
"   .@+          ",
"    .@+         ",
"     .@+    ++  ",
"      .@+  +@#+ ",
"  $%$$ .@++@##&*",
"        .@@##&* ",
" ==-;%  .@##&* >",
"       .,##&* > ",
" ='-  .,##&* > >",
"     .###&* > > ",
" )%! **#&* > >  ",
"      *** > >   ",
"       * > >    "};
