/* XPM */
static const char *colorpicker_xpm[] = {
/* columns rows colors chars-per-pixel */
"16 16 177 2",
"<. c #EA0200",
"5. c #FCFEFD",
"W. c #A2A1A6",
"F. c #010255",
"Q. c #A2A1A7",
"2. c #E25543",
"W  c #5A6374",
"V. c #060354",
"(  c #5A606E",
"x. c #7F0301",
"_. c #A0A1A3",
"U. c #A0A1A6",
"p  c #8EA6FE",
"n. c #FFFFFA",
"]  c #FFFFFB",
"8  c #FFFFFD",
"6  c #FFFFFF",
"t  c #76B236",
"L. c #020650",
"M. c #FFFCFB",
"u. c #E60201",
"}  c #FFFCFF",
"_  c #F1FAE7",
"E  c #428100",
"k  c #88CB4A",
"Y. c #9EA1A6",
"H. c #09014E",
"T. c #9EA1A8",
"Q  c #5B646D",
"2  c #FDFFFC",
"G. c #020355",
"q. c #E9A400",
"'  c #FDFFFE",
"n  c #A8BEFA",
"N  c #000652",
"-  c #5B616F",
"B. c #A1A2A4",
"(. c #A1A2A6",
"d  c #596174",
":  c #5E626E",
"c. c #050156",
"s  c #8DA7FC",
"6. c #030454",
"7  c #FEFDFB",
"=  c #5C6270",
"@  c #5C6272",
"&. c #010451",
"E. c #A2A3A8",
"7. c #A2A0A3",
"L  c #5A626F",
"Y  c #3F8200",
"a  c #89A7FF",
"$. c #F34509",
"P. c #060257",
">. c #FEDE35",
"I  c #A0A0A8",
"!. c #9EA39F",
")  c #FFFEF9",
"s. c #FFFEFC",
"g  c #040255",
"N. c #040256",
"F  c #FFFEFF",
"/. c #9EA09F",
"o. c #F7C800",
"R  c #428001",
".  c #5D6071",
"T  c #3B8200",
"q  c #5D6073",
">  c #FDFEFF",
"C. c #00054F",
"b  c #A8BDFC",
"~  c #5B6376",
"m  c #A8BDFF",
":. c #FADB32",
"K. c #000556",
"~. c #A1A19F",
"%  c #5B6073",
"=. c #5B6074",
"S. c #000255",
"z. c #800000",
"k. c #800001",
"z  c #8BCB50",
"4. c #800003",
"-. c #ECA402",
"0  c #9FA4A8",
"b. c #596073",
"J  c #517CFE",
"D  c #3E8004",
"g. c #8B6100",
".. c #EAA700",
"0. c #EAA701",
"l  c #89CB4F",
"G  c #4F7FFF",
"<  c #FEFFFA",
"u  c #FEFFFB",
"e. c #FEFFFD",
"w  c #7DC032",
"d. c #8B5E01",
"v. c #A4A2A7",
",  c #FEFFFF",
"U  c #5C6471",
"y. c #EC0000",
"/  c #9DA1A4",
"^  c #080459",
"o  c #5C6174",
"i. c #7C0000",
"). c #A2A2A2",
"J. c #010356",
"f  c #FCFFFF",
"A. c #010358",
"p. c #06044F",
"9. c #E8A403",
"%. c #810102",
"+. c #EA0000",
"I. c #A29FA6",
"Z. c #060457",
"f. c #8E5F03",
"V  c #5A6171",
"!  c #615F75",
"K  c #527DFF",
"h. c #8C5F01",
"Z  c #7EC133",
"A  c #7EC136",
"&  c #586172",
"@. c #F14408",
"{  c #FFFDFE",
"4  c #FFFDFF",
";  c #040158",
"v  c #557EFE",
"X  c #5D6275",
",. c #8A5F00",
"   c None",
"$  c #5B6571",
"M  c #5D5F74",
"c  c #FDFDFB",
"1  c #FDFDFD",
"m. c #FDFDFF",
"8. c #EEA602",
"1. c #E35444",
"r  c #74B33E",
";. c #FFDE2F",
"a. c #9C9FA6",
"C  c #7AC135",
"w. c #8F5D06",
"#. c #F4450E",
"`  c #FBFDF8",
"l. c #800203",
"r. c #E90100",
"9  c #000153",
"R. c #A1A0A5",
"j. c #8D6002",
" . c #A1A0A6",
"S  c #7FC234",
"i  c #517EFD",
"#  c #596273",
"P  c #050253",
"h  c #9FA3A2",
"B  c #9FA3A6",
"y  c #3E7F01",
"D. c #030552",
"X. c #F8C802",
"x  c #438001",
"*  c #5C6670",
"O. c #8B6004",
"H  c #4F7EFF",
"[  c #FEFEFC",
"^. c #9DA3A3",
"t. c #EC0203",
"j  c #FEFEFE",
"3  c #FEFEFF",
"*. c #A4A1A8",
"3. c #E45545",
"+  c #5C6373",
"O  c #5C6375",
"|  c #060650",
"5  c #FCFEF9",
"e  c #75AE39",
/* pixels */
"                                ",
". X o O + @ # . $ % & * = - ;   ",
": > , < 1 2 3 4 < 5 6 7 8 6 9 0 ",
"q 1 w e r t y u i p a s d f g h ",
"+ j w k l z x c v b n m M 4 N B ",
"V 8 C Z A S D F G H J K L 6 P I ",
"U 3 Y y T R E 6 W Q ! ~ @ 5 ^ / ",
"( ) , j 3 3 _ ` ' ] [ { } f |  .",
"= 2 ..X.X.o.O.> +.@.#.$.%.8 &.*.",
"=.[ -.;.:.>.,., <.1.2.3.4.5.6.7.",
"W > 8.9.0.q.w.e.r.t.y.u.i.6 p.a.",
"= s.d.f.g.h.j.8 %.k.l.z.x.[ c.v.",
"b.6 n.m., F } ' 3 u { 3 M.j N.B.",
". V.C.Z.A.S.D.F.G.H.J.g K.L.P.I.",
"  U.Y.T.R.E.W.Q.!.~.^./. .(.)._.",
"                                "
};
