/* XPM */
static char * mode_perl_xpm[] = {
"16 16 8 1",
" 	c None",
".	c #3B455E",
"+	c #000000",
"@	c #98B1FF",
"#	c #9F9FA2",
"$	c #5B85FE",
"%	c #FFFFFF",
"&	c #3C465E",
"                ",
"..............+ ",
".@@@@@@@@@@@@@+#",
".@@@@@@@@@@@@@+#",
".$$$$$$$$$$$$$+#",
".%%%%%%%%%%%%%+#",
".%%%%%+++%%%%%+#",
"&%%%%%+%%+%%%%+#",
"&%%%%%+%%+%%%%+#",
".%%%%%+++%%%%%+#",
".%%%%%+%%%%%%%+#",
".%%%%%+%%%%%%%+#",
".%%%%%%%%%%%%%+#",
".++++++++++++++#",
" ###############",
"                "};
