/* XPM */
static char * preferences_xpm[] = {
"16 16 138 2",
"  	c None",
". 	c #7D4900",
"+ 	c #7B4B01",
"@ 	c #7C4B00",
"# 	c #363264",
"$ 	c #32336C",
"% 	c #323665",
"& 	c #814600",
"* 	c #CB9807",
"= 	c #7E4903",
"- 	c #DCC949",
"; 	c #DBC852",
"> 	c #DCC84D",
", 	c #0065C9",
"' 	c #0366CC",
") 	c #0066CA",
"! 	c #824902",
"~ 	c #C89905",
"{ 	c #7E4B00",
"] 	c #CE9804",
"^ 	c #804A02",
"/ 	c #C99A02",
"( 	c #CA9706",
"_ 	c #CB9801",
": 	c #0067CE",
"< 	c #0164C9",
"[ 	c #6D718A",
"} 	c #6B718B",
"| 	c #6D6F84",
"1 	c #6C728A",
"2 	c #7E4802",
"3 	c #814900",
"4 	c #DBC850",
"5 	c #7E4905",
"6 	c #CB9705",
"7 	c #7E4A01",
"8 	c #CC9902",
"9 	c #CA9605",
"0 	c #0066CB",
"a 	c #0464C8",
"b 	c #73708B",
"c 	c #FFFEFF",
"d 	c #FFFFFD",
"e 	c #7E4900",
"f 	c #DACB4C",
"g 	c #7A4800",
"h 	c #FFFDFE",
"i 	c #7C4701",
"j 	c #DEC84E",
"k 	c #7F4901",
"l 	c #CE9802",
"m 	c #33302B",
"n 	c #39312F",
"o 	c #0164CA",
"p 	c #0068CB",
"q 	c #6B7189",
"r 	c #FCFFFD",
"s 	c #FFFFFF",
"t 	c #FEFFFF",
"u 	c #7A4A00",
"v 	c #FEFFFD",
"w 	c #FCFFFF",
"x 	c #7F4805",
"y 	c #D8CB4B",
"z 	c #38302D",
"A 	c #FFFDFF",
"B 	c #3A475A",
"C 	c #9B98FF",
"D 	c #383167",
"E 	c #303366",
"F 	c #6D718E",
"G 	c #FCFFFB",
"H 	c #FBFFFF",
"I 	c #FCFDFF",
"J 	c #FEFEFF",
"K 	c #FEFEFE",
"L 	c #3B455E",
"M 	c #9DA2A5",
"N 	c #A0A1A5",
"O 	c #A0A1A6",
"P 	c #6C708B",
"Q 	c #FFFDFC",
"R 	c #FEFEFC",
"S 	c #FFFFFB",
"T 	c #FFFEFA",
"U 	c #3A4758",
"V 	c #A29FA8",
"W 	c #6A7287",
"X 	c #8BA58C",
"Y 	c #8EA68E",
"Z 	c #FDFFFE",
"` 	c #8CA590",
" .	c #8DA38C",
"..	c #8BA58A",
"+.	c #8BA491",
"@.	c #3C495A",
"#.	c #A1A0A6",
"$.	c #6C7089",
"%.	c #394959",
"&.	c #A0A0AA",
"*.	c #8CA48C",
"=.	c #8FA193",
"-.	c #8EA18E",
";.	c #8DA48A",
">.	c #8DA78E",
",.	c #8DA58D",
"'.	c #3B4757",
").	c #A09EA9",
"!.	c #5F6273",
"~.	c #FDFCFF",
"{.	c #3E465D",
"].	c #A2A1A7",
"^.	c #5D5E70",
"/.	c #FDFDFD",
"(.	c #3E445A",
"_.	c #A2A2A2",
":.	c #5E6472",
"<.	c #3A455B",
"[.	c #3E455F",
"}.	c #3C475D",
"|.	c #3A445F",
"1.	c #3D445E",
"2.	c #3F455B",
"3.	c #39485B",
"4.	c #394657",
"5.	c #38475C",
"6.	c #3D4457",
"7.	c #020355",
"8.	c #9EA1A8",
"9.	c #A1A0A8",
"0.	c #9EA2A5",
"a.	c #A49EA8",
"b.	c #9FA0A2",
"c.	c #A59DAA",
"d.	c #A0A0A8",
"e.	c #A2A1A6",
"f.	c #A1A0A5",
"g.	c #A39DA9",
"                                ",
"              . + . . @   # $ % ",
"            & * = - ; > + , ' ) ",
"          ! ~ { ] ^ / ( _ : < ' ",
"[ } | 1 2 ~ 3 4 5 6 7 8 9 0 ) a ",
"b c d e f g h i j k l m n o p 0 ",
"q r s t u h v w x y z A B C D E ",
"F h G d H c I d J z c K L M N O ",
"P Q R t S T S s v A d s U V     ",
"W K X Y Z X `  ...+.v J @.#.    ",
"$.c c S t s s K R t s K %.&.    ",
"[ Z *.=.d -.;.>.,. .c c '.).    ",
"!.J s R K K t A s s t ~.{.].    ",
"^.t /.d A s Z A d h Z v (._.    ",
":.<.[.}.|.1.2.3.4.5.1.6.7.8.    ",
"  9.0.O a.b.M c.d.e.9.f.O g.    "};
