/* XPM */
static const char *edit_undo_xpm[] = {
/* columns rows colors chars-per-pixel */
"16 16 96 2",
"W  c #A2A1A6",
"{  c #11550C",
"B  c #A2A1A9",
"]  c #114F0C",
"T  c #58BA0F",
"Z  c #17600F",
"#  c #0E6507",
"r  c #0C6805",
"S  c #189316",
"j  c #41772C",
":  c #6AC415",
"g  c #136012",
";  c #67DA0B",
"J  c #10A20F",
"@  c #1B9413",
"+  c #1B9415",
"K  c #A19FAA",
"~  c #47A519",
".. c #A6A0A4",
"[  c #0E560A",
"/  c #2B840E",
"O  c #17970F",
"P  c #14640B",
"=  c #74DD04",
"X  c #179412",
"&  c #76D70C",
"Y  c #67C805",
" . c #A2A0AD",
"x  c #74DA0D",
"1  c #15940F",
"l  c #87C95F",
"$  c #159413",
"I  c #0E6D13",
"Q  c #08560B",
"y  c #79D80C",
"3  c #77DE0B",
"5  c #6AC909",
"w  c #27A110",
"!  c #0F4E08",
"s  c #50A50A",
"q  c #55A90B",
"9  c #55A302",
"t  c #75DB0B",
"0  c #53A908",
"_  c #A3A1AE",
"2  c #1B9914",
"^  c #2D8612",
"V  c #A1A1A3",
"U  c #10520A",
"`  c #10520B",
"f  c #0E580D",
"|  c #9FA1A0",
",  c #259815",
"n  c #45B342",
".  c #56A402",
"c  c #62CF11",
"R  c #3B9C17",
"N  c #9DA1A2",
"6  c #67D011",
"-  c #76D90C",
"7  c #69C407",
"*  c #74DC09",
"G  c #62C60B",
"L  c #A29FA6",
"%  c #1F9E13",
"'  c #11530C",
"C  c #A29FA8",
"<  c #10660B",
"X. c #9B9EA7",
"H  c #69C113",
"D  c #0F5308",
"u  c #56BE0F",
"b  c #67C111",
"p  c #6CC513",
"d  c #0F531A",
">  c #50A406",
"F  c #77DA0D",
"   c None",
"a  c #67BE17",
"}  c #0D500B",
"A  c #3C7429",
"(  c #12540D",
"e  c #16940F",
"m  c #0B5309",
")  c #389D11",
"v  c #63C415",
"o. c #A1A0A6",
"i  c #6DC608",
"8  c #6FC315",
"z  c #105111",
"4  c #78DB0F",
"o  c #129717",
"h  c #008115",
"E  c #0C540B",
"M  c #14620C",
"k  c #179517",
/* pixels */
"                                ",
"                                ",
"                                ",
"            . X o O + @         ",
"  #     $ % & * = - ; : > ,     ",
"  < 1 2 3 4 5 6 7 8 9 0 q w e   ",
"  r t y u i p a s d f g h j k l ",
"  z x c v b n m M N B V C Z A S ",
"  D F G H J D K           L P I ",
"  U Y T R E W               W Q ",
"  ! ~ ^ / ( )                 _ ",
"  ` ' ] [ { }                   ",
"    |  ...X.o.                  ",
"                                ",
"                                ",
"                                "
};
