/* XPM */
static char * edit_delete_xpm[] = {
"16 16 65 1",
" 	c None",
".	c #931519",
"+	c #97141C",
"@	c #961318",
"#	c #92131A",
"$	c #911418",
"%	c #F97761",
"&	c #F67560",
"*	c #971515",
"=	c #971419",
"-	c #F5745F",
";	c #F7755F",
">	c #951218",
",	c #94121A",
"'	c #F6715E",
")	c #F8745F",
"!	c #921417",
"~	c #950F16",
"{	c #FA735D",
"]	c #FF5D2F",
"^	c #96151A",
"/	c #92151B",
"(	c #F5725E",
"_	c #F7725F",
":	c #FC602D",
"<	c #941318",
"[	c #941619",
"}	c #F3755F",
"|	c #F87563",
"1	c #F90504",
"2	c #98121B",
"3	c #FD602D",
"4	c #F97161",
"5	c #FE632D",
"6	c #FF6029",
"7	c #FD622A",
"8	c #FF5C31",
"9	c #941317",
"0	c #FB0603",
"a	c #FD5F2F",
"b	c #FD0600",
"c	c #93141B",
"d	c #FF5F2D",
"e	c #FD6131",
"f	c #F8602F",
"g	c #980F16",
"h	c #FE612E",
"i	c #FA0502",
"j	c #FB0804",
"k	c #FE6030",
"l	c #951419",
"m	c #FD612E",
"n	c #FA0504",
"o	c #961319",
"p	c #951217",
"q	c #FA0703",
"r	c #FF5E30",
"s	c #931518",
"t	c #FF5F2F",
"u	c #FB5F2C",
"v	c #FF622F",
"w	c #951418",
"x	c #951315",
"y	c #FF5F2B",
"z	c #971118",
"                ",
"                ",
"   .+      @#   ",
"  $%&*    =-;>  ",
"  ,%')!  ~'{]^  ",
"   /(_:<[}|1^   ",
"    23456789    ",
"     >:0ab!     ",
"     cdef0g     ",
"    ^ahijkil    ",
"   >0mnopqri@   ",
"  stu0s  .qviw  ",
"  xnyl    <00o  ",
"   <z      9l   ",
"                ",
"                "};
