/* XPM */
static char * edit_cut_xpm[] = {
"16 16 93 2",
"  	c None",
". 	c #585858",
"+ 	c #5B5D5C",
"@ 	c #010300",
"# 	c #595758",
"$ 	c #FFFFFF",
"% 	c #000002",
"& 	c #A1A2A4",
"* 	c #2B2F90",
"= 	c #013298",
"- 	c #023497",
"; 	c #FEFEFC",
"> 	c #020204",
", 	c #A09FA5",
"' 	c #00369A",
") 	c #00349A",
"! 	c #3F3D65",
"~ 	c #423B64",
"{ 	c #5A5A5C",
"] 	c #010101",
"^ 	c #A19EA7",
"/ 	c #023298",
"( 	c #0083D6",
"_ 	c #585A57",
": 	c #000000",
"< 	c #9F9EA3",
"[ 	c #6767C9",
"} 	c #6764CB",
"| 	c #6767CB",
"1 	c #6765CA",
"2 	c #595854",
"3 	c #DADAD8",
"4 	c #8F8F8D",
"5 	c #828284",
"6 	c #7F7F81",
"7 	c #818181",
"8 	c #7F7E7A",
"9 	c #807E7F",
"0 	c #7F7F7F",
"a 	c #808082",
"b 	c #303366",
"c 	c #323467",
"d 	c #6567CE",
"e 	c #6665CB",
"f 	c #0181D8",
"g 	c #D9D7D8",
"h 	c #D9DAD5",
"i 	c #D9D9D9",
"j 	c #DADADA",
"k 	c #DADADC",
"l 	c #DBDBDD",
"m 	c #0182D5",
"n 	c #2D3290",
"o 	c #02339C",
"p 	c #585A55",
"q 	c #595B5A",
"r 	c #58595B",
"s 	c #59595B",
"t 	c #5A5A5A",
"u 	c #595957",
"v 	c #5A585D",
"w 	c #A4A09F",
"x 	c #2D3195",
"y 	c #04349A",
"z 	c #0483D2",
"A 	c #003398",
"B 	c #A0A0A2",
"C 	c #A19FA2",
"D 	c #A39EA2",
"E 	c #A09E9F",
"F 	c #A19FA4",
"G 	c #2C318F",
"H 	c #003599",
"I 	c #007FD8",
"J 	c #423E61",
"K 	c #A19FA0",
"L 	c #2D3091",
"M 	c #0084D3",
"N 	c #423B65",
"O 	c #A29DA1",
"P 	c #303296",
"Q 	c #0082D6",
"R 	c #0282D9",
"S 	c #2E3296",
"T 	c #6666CA",
"U 	c #A39F9E",
"V 	c #2C3091",
"W 	c #6967CC",
"X 	c #6867CD",
"Y 	c #3B3D63",
"Z 	c #A29E9F",
"` 	c #3F3D64",
" .	c #403E63",
"                                ",
"                      . + @     ",
"                    # $ % &     ",
"  * = -           # ; > ,       ",
"' ) ! ~ ~       { $ ] ^         ",
"/       (     _ $ : <           ",
") ) [ } | 1 2 3 4 5 6 7 8 9 0 a ",
"  - b c d e f g h i j k l l 3 { ",
"        m n o p q r s t u t v w ",
"        x y z A B C D D E F F   ",
"      G H   I J K               ",
"    L A     M N O               ",
"    P } Q R S T U               ",
"    V W | X Y Z                 ",
"      ! `  .O                   ",
"                                "};
