/* XPM */
static const char *edit_redo_xpm[] = {
/* columns rows colors chars-per-pixel */
"16 16 96 2",
"Y  c #A2A1A6",
"'  c #11550C",
"n  c #A2A1A9",
"[  c #114F0C",
"E  c #58BA0F",
"c  c #17600F",
",  c #0E6507",
"l  c #0C6805",
"z  c #189316",
"y  c #41772C",
"%  c #6AC415",
"i  c #136012",
"&  c #67DA0B",
"K  c #10A20F",
".  c #1B9413",
"X  c #1B9415",
"H  c #A19FAA",
")  c #47A519",
".. c #A6A0A4",
"]  c #0E560A",
"/  c #2B840E",
"o  c #17970F",
"F  c #14640B",
"=  c #74DD04",
"+  c #179412",
";  c #76D70C",
"W  c #67C805",
"X. c #A2A0AD",
"A  c #74DA0D",
"w  c #15940F",
"r  c #87C95F",
">  c #159413",
"D  c #0E6D13",
"U  c #08560B",
"j  c #79D80C",
"0  c #77DE0B",
"8  c #6AC909",
"1  c #27A110",
"_  c #0F4E08",
"s  c #50A50A",
"2  c #55A90B",
"4  c #55A302",
"k  c #75DB0B",
"3  c #53A908",
"!  c #A3A1AE",
"q  c #1B9914",
"(  c #2D8612",
"b  c #A1A1A3",
"Q  c #10520A",
"}  c #10520B",
"p  c #0E580D",
"o. c #9FA1A0",
"#  c #259815",
"B  c #45B342",
"@  c #56A402",
"Z  c #62CF11",
"R  c #3B9C17",
"m  c #9DA1A2",
"7  c #67D011",
"*  c #76D90C",
"6  c #69C407",
"-  c #74DC09",
"P  c #62C60B",
"G  c #A29FA6",
":  c #1F9E13",
"{  c #11530C",
"v  c #A29FA8",
"e  c #10660B",
" . c #9B9EA7",
"L  c #69C113",
"J  c #0F5308",
"h  c #56BE0F",
"V  c #67C111",
"f  c #6CC513",
"a  c #0F531A",
"$  c #50A406",
"I  c #77DA0D",
"   c None",
"d  c #67BE17",
"`  c #0D500B",
"x  c #3C7429",
"^  c #12540D",
"<  c #16940F",
"N  c #0B5309",
"~  c #389D11",
"C  c #63C415",
"|  c #A1A0A6",
"g  c #6DC608",
"5  c #6FC315",
"S  c #105111",
"9  c #78DB0F",
"O  c #129717",
"u  c #008115",
"T  c #0C540B",
"M  c #14620C",
"t  c #179517",
/* pixels */
"                                ",
"                                ",
"                                ",
"        . X o O + @             ",
"    # $ % & * = - ; : >     ,   ",
"  < 1 2 3 4 5 6 7 8 9 0 q w e   ",
"r t y u i p a s d f g h j k l   ",
"z x c v b n m M N B V C Z A S   ",
"D F G           H J K L P I J   ",
"U Y               Y T R E W Q   ",
"!                 ~ ^ / ( ) _   ",
"                  ` ' ] [ { }   ",
"                  |  ...X.o.    ",
"                                ",
"                                ",
"                                "
};
