/* XPM */
static const char *editor-fullscreen_xpm[] = {
/* columns rows colors chars-per-pixel */
"16 16 81 1",
"> c #5A6372",
"T c #040650",
"z c #1B21DB",
"n c #FFFFFD",
"m c #FFFFFF",
"U c #02064F",
"D c #020650",
"$ c #9A111B",
"- c #586075",
"B c #FDFFFE",
"0 c #92B7FD",
"C c #000652",
"u c #5264EA",
"d c #A2CAFB",
"i c #647AF1",
"1 c #050452",
"Y c #03074E",
"~ c #9B121A",
"r c #596174",
"e c #030750",
"E c #030751",
"X c #9B121C",
"w c #AAD5FF",
"y c #313CE6",
"f c #A8D5FF",
"I c #FEFDFF",
"8 c #728DF4",
"k c #1D20DD",
"h c #1D20DF",
"3 c #252BE1",
"x c #1B23E0",
"O c #9A131A",
"Z c #FFFEFD",
"b c #FFFEFF",
"^ c #9A101D",
"c c #020552",
"7 c #6178EC",
"t c #262CE2",
": c #596072",
"q c #A2C6FA",
"p c #7492F4",
"K c #030653",
"# c #9B111E",
"* c #576371",
"J c #FEFFFB",
"N c #FEFFFD",
"v c #FEFFFF",
"o c #99111B",
"+ c #99111D",
"S c #FEFCFD",
"H c #FCFFFD",
"G c #FCFFFF",
"j c #1D22E0",
"& c #5A6171",
"= c #5A6173",
"5 c #3F4EE7",
"< c #586472",
". c #9A121C",
"@ c #9A121E",
"P c #FFFDFE",
"A c #FFFDFF",
"R c #02044E",
"a c #85A6F5",
"  c None",
"2 c #981219",
"Q c #00074F",
"L c #5B6274",
"; c #5B6275",
"4 c #2E39E1",
"9 c #83A3F6",
"l c #1C20E1",
", c #596273",
"g c #03054F",
"W c #030550",
"s c #93B9F8",
"6 c #5062EA",
"M c #576274",
"V c #FEFEFC",
"% c #576276",
"! c #99131E",
"F c #FEFEFE",
/* pixels */
"                ",
".XoO        +.@#",
"$              @",
"@ %&*=-;:>,<*1 2",
"  ,34567890qwe  ",
"  rty5uipasdfg  ",
"  >hhjklhkjzxc  ",
"  rvvbnmvmmnvg  ",
"  MNnmBNVmmvnC  ",
"  rbmZmBAmmSnD  ",
"  =FGbHFnnvnJK  ",
"  LmvvbvbnPImD  ",
"@ *DUYTgREDgWQ .",
"$              !",
".X#O        !~^X",
"                "
};
