/* XPM */
static char * edit_xpm[] = {
"16 16 27 1",
" 	c None",
".	c #3B455E",
"+	c #000000",
"@	c #FFFFFF",
"#	c #00C93C",
"$	c #5ECB25",
"%	c #FFFE9C",
"&	c #32660D",
"*	c #2A981B",
"=	c #FEFECC",
"-	c #FFC99A",
";	c #FF9623",
">	c #9F9FA2",
",	c #9B6614",
"'	c #525109",
")	c #EDF0F4",
"!	c #FEFEFE",
"~	c #F0D5C5",
"{	c #E5EAF0",
"]	c #DDE3EB",
"^	c #D4DBE5",
"/	c #CCD5E1",
"(	c #FBFBFC",
"_	c #C4CFDC",
":	c #BECAD9",
"<	c #F5F6F9",
"[	c #BAC6D6",
"                ",
" .......... ++  ",
" .@@@@@@@@@+#$+ ",
" .@@@@@@@@+%&*&+",
" .@@@@@@@+=-;&+>",
" .@@@@@@+%-;,+> ",
" .@@@@@+=-;,+>  ",
" .@@@@+%-;,+>>  ",
" .@@@+=-;,+>+>  ",
" .@@+=';,+>)+>  ",
" .@@+!~++>{]+>  ",
" .@@+++>>]^/+>  ",
" .@(>>>]^/_:+>  ",
" .<){]^/_:[[+>  ",
" .+++++++++++>  ",
"  >>>>>>>>>>>>  "};
