/* XPM */
static char * edit_paste_xpm[] = {
"16 16 182 2",
"  	c None",
". 	c #918B7F",
"+ 	c #444348",
"@ 	c #9A6601",
"# 	c #986401",
"$ 	c #9F6501",
"% 	c #444643",
"& 	c #FFFDFE",
"* 	c #FEFEFE",
"= 	c #464541",
"- 	c #948D7B",
"; 	c #918A80",
"> 	c #928C7C",
", 	c #9C6500",
"' 	c #FEF9E6",
") 	c #FDFBE4",
"! 	c #58626B",
"~ 	c #B7BDCB",
"{ 	c #BBC1CF",
"] 	c #BCBECD",
"^ 	c #B7C2C8",
"/ 	c #5C6373",
"( 	c #FEFAE1",
"_ 	c #FCFAE3",
": 	c #B56C28",
"< 	c #9D6601",
"[ 	c #FEF9E5",
"} 	c #F3DE81",
"| 	c #CAC083",
"1 	c #656571",
"2 	c #576373",
"3 	c #5A626F",
"4 	c #5E6376",
"5 	c #8D8D81",
"6 	c #F1E084",
"7 	c #F4D757",
"8 	c #6E4600",
"9 	c #A49EA2",
"0 	c #9A6400",
"a 	c #FFFAE6",
"b 	c #F3E292",
"c 	c #F2E597",
"d 	c #F3E288",
"e 	c #F4D560",
"f 	c #F6E068",
"g 	c #F8DF61",
"h 	c #F1E181",
"i 	c #F5E08F",
"j 	c #F0D554",
"k 	c #6D4802",
"l 	c #A0A0A2",
"m 	c #9A6500",
"n 	c #FBF9E4",
"o 	c #F6E289",
"p 	c #F3E795",
"q 	c #EED765",
"r 	c #F0C946",
"s 	c #565C68",
"t 	c #37485C",
"u 	c #3B475F",
"v 	c #3B455E",
"w 	c #3A445F",
"x 	c #3E4764",
"y 	c #A49DA5",
"z 	c #9A6402",
"A 	c #FFFAE7",
"B 	c #F5E188",
"C 	c #F1D45F",
"D 	c #F2C93D",
"E 	c #F1C63B",
"F 	c #3B4761",
"G 	c #FDFEFF",
"H 	c #FBFFFC",
"I 	c #FDFFFA",
"J 	c #FDFDFD",
"K 	c #3A4660",
"L 	c #3C4661",
"M 	c #9E6401",
"N 	c #FCFAE5",
"O 	c #F2E390",
"P 	c #F2D257",
"Q 	c #F1C83C",
"R 	c #EFC83D",
"S 	c #3C4562",
"T 	c #FFFEFF",
"U 	c #FDFDFB",
"V 	c #FFFBFC",
"W 	c #3C495C",
"X 	c #ECF1F7",
"Y 	c #39485F",
"Z 	c #FFF9E7",
"` 	c #F1E694",
" .	c #F0D055",
"..	c #F2C73C",
"+.	c #F0C739",
"@.	c #3B4560",
"#.	c #FEFEFF",
"$.	c #FBFDFC",
"%.	c #FFFDFC",
"&.	c #3C475D",
"*.	c #3D425F",
"=.	c #454742",
"-.	c #895A02",
";.	c #F3E48F",
">.	c #EECB49",
",.	c #F1C73D",
"'.	c #F0C73B",
").	c #3A4360",
"!.	c #FEFCFD",
"~.	c #FEFEFC",
"{.	c #FFFFFF",
"].	c #FFFDFF",
"^.	c #FEFFFA",
"/.	c #434343",
"(.	c #A09EA1",
"_.	c #FFF9E3",
":.	c #EFD868",
"<.	c #F1C639",
"[.	c #F0C63C",
"}.	c #EFC83C",
"|.	c #394659",
"1.	c #91A790",
"2.	c #91A693",
"3.	c #8DA889",
"4.	c #8EA68E",
"5.	c #8DA38C",
"6.	c #FDFFFE",
"7.	c #434341",
"8.	c #A1A0A5",
"9.	c #885900",
"0.	c #F1D665",
"a.	c #EEC73C",
"b.	c #EDC83B",
"c.	c #EBC836",
"d.	c #374560",
"e.	c #FEFFFB",
"f.	c #FCFEFB",
"g.	c #FEFCFF",
"h.	c #444243",
"i.	c #885803",
"j.	c #FFFBE2",
"k.	c #F4D463",
"l.	c #EDC63B",
"m.	c #F2C93B",
"n.	c #3B475D",
"o.	c #FEFDFF",
"p.	c #8DA693",
"q.	c #90A68F",
"r.	c #8DA690",
"s.	c #8EA68C",
"t.	c #8EA48D",
"u.	c #444442",
"v.	c #A19FA4",
"w.	c #6D4601",
"x.	c #6E4A00",
"y.	c #6E4801",
"z.	c #6E4702",
"A.	c #6F4803",
"B.	c #404562",
"C.	c #FCFFFF",
"D.	c #FDFCFF",
"E.	c #444341",
"F.	c #A09DA4",
"G.	c #A29FA8",
"H.	c #9FA19E",
"I.	c #A4A09D",
"J.	c #A1A19F",
"K.	c #47423E",
"L.	c #444444",
"M.	c #464447",
"N.	c #454449",
"O.	c #474342",
"P.	c #434142",
"Q.	c #444549",
"R.	c #A5A1A2",
"S.	c #9F9F9F",
"T.	c #A1A1A1",
"U.	c #9E9EA6",
"V.	c #A09FA5",
"W.	c #A0A1A3",
"X.	c #A19FA2",
"Y.	c #A2A0A3",
"        . + + .                 ",
"  @ # $ % & * = - ; >           ",
", ' ) ! ~ { ] ^ / ( _ :         ",
"< [ } | 1 2 3 4 5 6 7 8 9       ",
"0 a b c d e f g h i j k l       ",
"m n o p q r s t u v w x y       ",
"z A B C D E F G H I J K L       ",
"M N O P Q R S T G U V W X Y     ",
", Z `  ...+.@.#.$.%.& L &.*.=.  ",
"-.[ ;.>.,.'.).& !.~.{.].^.{./.(.",
"-._.:.<.[.}.|.U 1.2.3.4.5.6.7.8.",
"9.[ 0.a.b.c.d.e.f.#.{.g.* ].h.(.",
"i.j.k.l.'.m.n.o.p.q.r.s.t.{.u.v.",
"  w.x.y.z.A.B.* G C.D.& ^.{.E.F.",
"    G.H.I.J./.K.L.M.N.O.% P.Q.R.",
"              S.T.U.l V.W.v.X.Y."};
