/* XPM */
static char * edit_copy_xpm[] = {
"16 16 117 2",
"  	c None",
". 	c #6C7288",
"+ 	c #707289",
"@ 	c #6D7285",
"# 	c #6C7489",
"$ 	c #6E7585",
"% 	c #6D7486",
"& 	c #6D7487",
"* 	c #6F7186",
"= 	c #697488",
"- 	c #6C7487",
"; 	c #FFFFFF",
"> 	c #FEFFF9",
", 	c #FDFFFE",
"' 	c #FEFEFE",
") 	c #FAFFFB",
"! 	c #FFFFFD",
"~ 	c #030454",
"{ 	c #A4A0A1",
"] 	c #6D7687",
"^ 	c #6D7389",
"/ 	c #6E7386",
"( 	c #6E7387",
"_ 	c #5B616F",
": 	c #A29DA1",
"< 	c #6C7383",
"[ 	c #FBFFFF",
"} 	c #FCFEF9",
"| 	c #FDFDFB",
"1 	c #FEFEFC",
"2 	c #FEFCFF",
"3 	c #596070",
"4 	c #5B6370",
"5 	c #FEFCFD",
"6 	c #FDFFFC",
"7 	c #FFFBFF",
"8 	c #FEFFFA",
"9 	c #5D6477",
"0 	c #5E6172",
"a 	c #6A7587",
"b 	c #FFFEFC",
"c 	c #6E7587",
"d 	c #FEFFFF",
"e 	c #5B6571",
"f 	c #5D6570",
"g 	c #5B6275",
"h 	c #050251",
"i 	c #6F7488",
"j 	c #FCFEFD",
"k 	c #6E7588",
"l 	c #8FA58E",
"m 	c #8DA78E",
"n 	c #8DA48A",
"o 	c #FCFCFE",
"p 	c #040150",
"q 	c #A39EA2",
"r 	c #6C7385",
"s 	c #FCFEFB",
"t 	c #FFFDFE",
"u 	c #010455",
"v 	c #A09EA3",
"w 	c #FEFEFF",
"x 	c #FFFEF9",
"y 	c #90A892",
"z 	c #8DA689",
"A 	c #8FA892",
"B 	c #8EA68C",
"C 	c #8CA28B",
"D 	c #8EA68E",
"E 	c #FFFAFE",
"F 	c #050155",
"G 	c #A09FA4",
"H 	c #FDFEF8",
"I 	c #FDFFFA",
"J 	c #FDFEF9",
"K 	c #020554",
"L 	c #A1A1A3",
"M 	c #FCFDFF",
"N 	c #EDF1F4",
"O 	c #8EA48F",
"P 	c #8EA78A",
"Q 	c #8DA58D",
"R 	c #8FA78D",
"S 	c #040054",
"T 	c #A39EA4",
"U 	c #5E6474",
"V 	c #02044F",
"W 	c #060553",
"X 	c #6D758A",
"Y 	c #F1F0F6",
"Z 	c #EFF0F4",
"` 	c #080458",
" .	c #A29FA6",
"..	c #A39CA3",
"+.	c #A0A0A0",
"@.	c #6C7586",
"#.	c #F9FDFE",
"$.	c #DBDFEA",
"%.	c #EDF0F7",
"&.	c #DCE3ED",
"*.	c #F0F1F5",
"=.	c #DAE1EB",
"-.	c #060555",
";.	c #A19FA2",
">.	c #5B6171",
",.	c #010254",
"'.	c #060257",
").	c #000151",
"!.	c #070654",
"~.	c #030552",
"{.	c #A5A1A2",
"].	c #A49EA2",
"^.	c #A09DA4",
"/.	c #A09EA1",
"(.	c #A2A0A5",
"_.	c #A39FA0",
":.	c #A0A2A1",
"                                ",
"  . + @ # $ % & & * =           ",
"  - ; > ; , ' ) , ! ~ {         ",
"  ] ' ; ^ & / ( ^ % _ :         ",
"  < [ } % ! | 1 ' 2 3 4         ",
"  ] 5 , & 6 7 8 ; | 9 2 0       ",
"  a ! b c d 1 ' ; ' e f g h     ",
"  i j ' k 6 l m n ; ! o b p q   ",
"  & 1 6 r 5 ; s ' d 1 t ; u v   ",
"  % w x ^ d y z A B C D E F G   ",
"  i , j & H I ' J d ; ' , K L   ",
"  % M N & b O z m P Q R , S T   ",
"  U V W X 1 ' , 6 I 8 Y Z `  .  ",
"    ..+.@.b #.d $.%.&.*.=.-.;.  ",
"        >.,.'.).!.~.K ~ F '.{.  ",
"          ].^.G /.;.^.(.;._.:.  "};
