/* XPM */
static const char *file_save_xpm[] = {
/* columns rows colors chars-per-pixel */
"16 16 177 2",
"R  c #748BFF",
"!. c #044182",
"^  c #FCFEFD",
"#. c #6275FF",
"H. c #DCE9F1",
"c. c #024480",
"a  c #FCFBFF",
"B  c #E1EAF1",
"2. c #5363F6",
"I. c #5962B1",
"g. c #E1EAF3",
"]  c #6579FF",
"i. c #373FEA",
"/  c #FFFFFB",
"I  c #465CA5",
"N. c #FFFFFD",
"(. c #023E84",
"/. c #004483",
"c  c #FFFFFF",
"i  c #FAFBFF",
"$. c #00417B",
"T  c #00417D",
"a. c #4F51A8",
"^. c #004181",
"J. c #FFFCFF",
"R. c #8787A3",
"=  c #004185",
"k. c #F3F7F8",
"D  c #FDFFFC",
"_. c #B7B8BD",
"p  c #FDFFFE",
"X. c #434FB5",
"f  c #FDFCF8",
"h. c #F8F8FA",
"6. c #4C41A9",
"l. c #4349A7",
"V. c #FBFFF9",
"<  c #E2EBF4",
"7. c #4A44A8",
"K  c #505BB4",
"N  c #505BB5",
"v. c #034287",
"'  c #01427A",
"~. c #01427C",
"}  c #3D55AB",
"P  c #F9FFF9",
"v  c #4450A4",
"r  c #504F9D",
" . c #4343B1",
"Y  c #014282",
"Z  c #FEFDF9",
"3. c #064080",
".. c #494EA9",
"9. c #554DA3",
"b  c #96BFFD",
"d  c #FEFDFF",
"t. c #434FF1",
"3  c #E3ECF1",
"r. c #444DB6",
"[  c #4E52B3",
"G. c #424DA7",
"K. c #FCFDF7",
"). c #04407E",
"2  c #DCEBF2",
"e. c #534DA3",
"&  c #02437D",
"f. c #E8EAF9",
"u  c #FCFAFD",
"y. c #4650F0",
"*. c #5362F3",
":. c #5362F9",
"n. c #2A2FEB",
".  c #00437E",
"A  c #FFFEFC",
"9  c #A9D6FD",
"b. c #282FE0",
"o. c #454BA9",
"G  c #8AAEFC",
"o  c #004384",
"<. c #5162F6",
"+  c #00407D",
"S. c #00407E",
"!  c #FFFBFA",
">. c #5162F8",
"0  c #004080",
"Y. c #1920E0",
"E. c #05417F",
"B. c #FDFEF9",
"l  c #9CBEFE",
">  c #4548B3",
"F. c #1E21E2",
"~  c #FDFBFC",
")  c #414EAA",
"%  c #03417C",
"{  c #4348AC",
"t  c #E7EEF4",
"|  c #5642A3",
"u. c #01447B",
"8  c #4345AC",
"q  c #BAB8BD",
":  c #AAD7FF",
"1. c #4B65F0",
"@. c #3F4B9D",
"s. c #E2E4F3",
"@  c #01417E",
",  c #E5EEF5",
"#  c #01417F",
"7  c #E0E7ED",
"g  c #444C9F",
"Z. c #292DE4",
"%. c #5260F5",
"1  c #E0E7F1",
"Q  c #FEFFF9",
"U  c #7CA0FF",
"F  c #3F48A5",
"5. c #4351F0",
"C  c #FEFFFF",
"W  c #E5E8F1",
"J  c #839BFF",
"z. c #363CEA",
"L. c #FEFCFD",
"X  c #04427F",
"V  c #FCFCFE",
"8. c #4750B5",
"A. c #2A31E4",
"m  c #024280",
"+. c #534CAB",
"-. c #5361F6",
"L  c #E1E8F2",
"Q. c #00457E",
"n  c #00427C",
"w  c #00427E",
"H  c #00427F",
"s  c #FFFDFE",
"j. c #F5F5FD",
"E  c #4F55B5",
",. c #5161F4",
"T. c #003F7C",
"x  c #DFE8F1",
"0. c #2F3D9E",
"O  c #003F7D",
"$  c #003F7F",
"4. c #4252ED",
"-  c #003F82",
"   c None",
"d. c #DFE5F1",
"z  c #5453B0",
"(  c #FFF7FA",
"w. c #434DAF",
"_  c #6E8CFE",
";  c #054084",
"D. c #1E20E4",
"W. c #034380",
"k  c #034381",
";. c #4D64F0",
"h  c #A2CEFF",
"6  c #E2E9F1",
"S  c #FBFDFA",
"p. c #333DED",
"C. c #3D539F",
"5  c #E7EAF3",
"`  c #01437D",
"*  c #01437F",
"q. c #414DB9",
"4  c #E0E9EE",
"O. c #4147A9",
"&. c #5262F5",
"=. c #5262F6",
"M  c #8BAEFF",
"j  c #064481",
"e  c #A0CBFF",
"y  c #FEFEFC",
"P. c #FEFEFE",
"m. c #5244A3",
"U. c #1F1EDB",
"x. c #3441E8",
"M. c #DEE6F3",
/* pixels */
"                                ",
". X o O + @ # $ % & + * = * -   ",
"; : > , < 1 2 3 4 5 6 7 8 9 0 q ",
"w e r t y u i p a s d f g h j q ",
"k l z x c c c c c c c s v b n q ",
"m M N B p V C Z A S c D F G H q ",
"# J K L p P c c c c c D I U Y q ",
"T R E W Q ! S ~ ^ / ( Z ) _ ` q ",
"' ] [ { } |  ...X.o.O.+.@.#.H q ",
"$.%.&.*.=.-.;.:.>.>.,.<.1.2.H q ",
"3.4.5.6.7.8.9.0.q.w.e.r.t.y.# q ",
"u.i.p.a.s.d.f.g.h.j.k.l.z.x.c.q ",
"v.b.n.m.M.N.B.V.y N.y C.Z.A.S.q ",
"# D.F.G.H.A J.K.L.P.c I.U.Y.T.q ",
"R.@ E.@ W.0 Q.!.~.m T.^./.(.)._.",
"  q q q q q q q q q q q q q q   "
};
