/* XPM */
static char * file_print_xpm[] = {
"16 16 169 2",
"  	c None",
". 	c #6B7285",
"+ 	c #6C7383",
"@ 	c #6D7286",
"# 	c #6B7282",
"$ 	c #6F748A",
"% 	c #6B7284",
"& 	c #605F6F",
"* 	c #6F7285",
"= 	c #FEFDFB",
"- 	c #FDFDFF",
"; 	c #FFFFFD",
"> 	c #FFFCFD",
", 	c #FAFFF9",
"' 	c #62616F",
") 	c #717286",
"! 	c #FCFDFF",
"~ 	c #8EA78A",
"{ 	c #8AA78B",
"] 	c #8CA588",
"^ 	c #91A993",
"/ 	c #FAFFF8",
"( 	c #59616E",
"_ 	c #9C9CA6",
": 	c #FAFCFB",
"< 	c #FEFFFF",
"[ 	c #FFFFFF",
"} 	c #FEFEFE",
"| 	c #FFFEFA",
"1 	c #FEFCFD",
"2 	c #3B4664",
"3 	c #9A9FA3",
"4 	c #6C7282",
"5 	c #FEFFFD",
"6 	c #91AA8D",
"7 	c #90A892",
"8 	c #8BA88C",
"9 	c #88A287",
"0 	c #FEFEFF",
"a 	c #3A4559",
"b 	c #9DA1A2",
"c 	c #848081",
"d 	c #6D7389",
"e 	c #FCFBF7",
"f 	c #FDFBFF",
"g 	c #FCFCFA",
"h 	c #FAFEFF",
"i 	c #FAFFFB",
"j 	c #FDFEF8",
"k 	c #454449",
"l 	c #80837C",
"m 	c #878382",
"n 	c #FFFEFC",
"o 	c #5C6174",
"p 	c #E8E7ED",
"q 	c #E8E7E5",
"r 	c #EAE9E5",
"s 	c #E3E3E1",
"t 	c #E7E6E4",
"u 	c #E6E7E9",
"v 	c #494345",
"w 	c #DAD9DE",
"x 	c #858384",
"y 	c #817D7A",
"z 	c #FEFDF9",
"A 	c #575654",
"B 	c #5D5C5A",
"C 	c #585A57",
"D 	c #595B5A",
"E 	c #585954",
"F 	c #5A5B56",
"G 	c #5B5B53",
"H 	c #565B57",
"I 	c #5C5D57",
"J 	c #5B5C57",
"K 	c #C3C2C7",
"L 	c #595957",
"M 	c #717173",
"N 	c #FCFEF9",
"O 	c #F1EFF2",
"P 	c #EEEEF0",
"Q 	c #EDF1F2",
"R 	c #EAECE9",
"S 	c #E8E7E3",
"T 	c #DBDBDD",
"U 	c #D9D7DC",
"V 	c #D5D6D1",
"W 	c #D5D0D4",
"X 	c #CDCDCD",
"Y 	c #C2C3BE",
"Z 	c #535C59",
"` 	c #9A9FA2",
" .	c #727270",
"..	c #FEFFF9",
"+.	c #F1EFF4",
"@.	c #F2F2F0",
"#.	c #EBEBEB",
"$.	c #D4DAD8",
"%.	c #D1CFD4",
"&.	c #D5D6D0",
"*.	c #D0CED1",
"=.	c #CED0CD",
"-.	c #C6C6C6",
";.	c #9C9FA4",
">.	c #706D74",
",.	c #F2F0F3",
"'.	c #E8E8EA",
").	c #E8EAE9",
"!.	c #DDDBDC",
"~.	c #D8D9DD",
"{.	c #D3D2CD",
"].	c #CDD7D9",
"^.	c #CCCDD1",
"/.	c #64CB31",
"(.	c #029801",
"_.	c #C3BDBD",
":.	c #9F9EA6",
"<.	c #72716F",
"[.	c #C4C6C3",
"}.	c #C4C4C2",
"|.	c #C6C4C7",
"1.	c #BDC3BF",
"2.	c #C5C3C6",
"3.	c #C2C2C0",
"4.	c #C3C3C1",
"5.	c #C4C0BD",
"6.	c #C2C3C5",
"7.	c #C2C1C9",
"8.	c #C6C8C5",
"9.	c #5B5E57",
"0.	c #716F70",
"a.	c #C3C4C9",
"b.	c #C0BFC5",
"c.	c #C1C3C2",
"d.	c #C0C0C0",
"e.	c #C2C3BD",
"f.	c #C3C2BD",
"g.	c #C3BFBE",
"h.	c #C1C7C3",
"i.	c #C6C0C4",
"j.	c #575A51",
"k.	c #9A9DA4",
"l.	c #5A5B5F",
"m.	c #5A5A58",
"n.	c #5C5F58",
"o.	c #5C5954",
"p.	c #58585A",
"q.	c #5B5B5B",
"r.	c #5C5859",
"s.	c #585657",
"t.	c #5D5854",
"u.	c #5A5C57",
"v.	c #5B5A5F",
"w.	c #5F5A56",
"x.	c #5B5A56",
"y.	c #989DA1",
"z.	c #9F9D9E",
"A.	c #A09EA3",
"B.	c #A19BA5",
"C.	c #9CA0A9",
"D.	c #9C9D9F",
"E.	c #9AA19A",
"F.	c #9DA0A5",
"G.	c #9D9F9C",
"H.	c #9B9FAB",
"I.	c #97A1A2",
"J.	c #97A1A3",
"K.	c #999D9E",
"L.	c #A09FA4",
"                                ",
"        . + @ # $ % &           ",
"        * = - ; > , ; '         ",
"        ) ! ~ { ] ^ / ( _       ",
"        * : < [ } | 1 2 3       ",
"        4 5 6 7 8 9 0 a b       ",
"      c d e f g h i j k l       ",
"    m n o p q r s t u v w x     ",
"  y z A B C D E F G H I J K L   ",
"  M N O P Q R S T U V W X Y Z ` ",
"   ...+.@.#.#.w $.%.&.*.=.-.H ;.",
"  >.[ ,.'.).!.~.{.].^./.(._.B :.",
"  <.[.}.|.1.2.2.3.4.5.6.7.8.9.;.",
"  0.a.b.3.}.c.d.b.e.f.g.h.i.j.k.",
"    l.m.n.o.p.q.r.s.t.u.v.w.x.y.",
"    z.A.B.C.D.E.D.F.G.H.I.J.K.L."};
