/* XPM */
static char * file_save_as_xpm[] = {
"16 16 36 1",
" 	c None",
".	c #000000",
"+	c #3B455E",
"@	c #00C93C",
"#	c #5ECB25",
"$	c #B2C5FF",
"%	c #FFFFFF",
"&	c #FEFEFE",
"*	c #FFFE9C",
"=	c #32660D",
"-	c #2A981B",
";	c #ADC1FF",
">	c #FEFECC",
",	c #FFC99A",
"'	c #FF9623",
")	c #848484",
"!	c #A6BCFF",
"~	c #9B6614",
"{	c #686768",
"]	c #9F9FA2",
"^	c #9DB6FF",
"/	c #94AEFF",
"(	c #565656",
"_	c #8AA7FF",
":	c #525109",
"<	c #7F9FFF",
"[	c #FFCBCB",
"}	c #7497FE",
"|	c #6A90FE",
"1	c #6188FE",
"2	c #EDF0F4",
"3	c #DCE1EA",
"4	c #5882FE",
"5	c #517DFE",
"6	c #408DED",
"7	c #9A9A9A",
"            ..  ",
"+++++++++++.@#. ",
"+$+%&&&&&&.*=-=.",
"+;+%&.....>,'=.)",
"+!+%&&&&.>,'~.{]",
"+^+%&...*,'~.{.]",
"+/+%&&.>,'~.(/.]",
"+_+%&.>:'~.{+_.]",
"+<+++.&[..{++<.]",
"+}}}}...{)}}}}.]",
"+||++{){)+++||.]",
"+11+2222323+11.]",
"+44+2+++233+44.]",
"+55+2+6+333+55.]",
"7..............]",
"   ]]]]]]]]]]]]]"};
