/* XPM */
static const char *file_save_all_xpm[] = {
/* columns rows colors chars-per-pixel */
"16 16 181 2",
"_  c #7473B5",
"p. c #6D6C96",
"9. c #4E62F5",
"C  c #024481",
"k. c #5B59A2",
"<. c #8B8DC0",
"=  c #99C1FF",
"j. c #595995",
"[. c #A0A1A3",
"&. c #393CED",
"R. c #726A93",
"^. c #9B9A9F",
"S. c #373FEA",
"N  c #00447F",
"c. c #A09EA3",
"=. c #FFFFFD",
",  c #FFFFFF",
"@  c #00417B",
"Q  c #00417D",
"7  c #6B6FAE",
">. c #828CBD",
"1. c #898AC0",
"'  c #004183",
" . c #CDCEE2",
"w  c #FDFFFA",
"e  c #7070AE",
"D  c #5C78FD",
"&  c #898DD6",
"k  c #A3A2AA",
"d. c #494CF1",
"_. c #9CA1A5",
"M. c #333FED",
"-. c #033F7D",
"). c #A19FA0",
".. c #033F7E",
"'. c #A19FA2",
"^  c #FBFCFE",
"O  c #01427C",
"u  c #064386",
"]  c #A4A3A9",
"r  c #89B0FF",
"<  c #FEFDFB",
"b. c #9F9CA3",
"{  c #434FEF",
"5. c #2E2CE7",
"g. c #58549E",
":. c #8888BC",
"J  c #FCFDF5",
"b  c #04407C",
"v  c #7475B5",
":  c #FCFDF7",
"K. c #FCFDF8",
"#  c #04407E",
"Y  c #04407F",
"!  c #7A9EFE",
"A  c #6077F7",
"0. c #6077FB",
"E  c #5E62A2",
"s. c #02407B",
"9  c #FAFDF6",
"%  c #00467E",
"~. c #A0A0AA",
"I. c #7078B6",
">  c #FFFEFC",
"2. c #898CBF",
"X. c #6B89FF",
"%. c #A3A49E",
"*  c #00407D",
"P. c #FFFBFA",
"m  c #00407E",
"q. c #5E74FB",
"8  c #DADFE2",
"E. c #05417F",
"7. c #FDFEF9",
";. c #5C77F8",
"x. c #054180",
"i. c #9E9DA2",
"S  c #5C77FA",
"y  c #A3A1A6",
"M  c #03447E",
"t. c #6178FA",
"]. c #A39EA5",
"Y. c #03417C",
"n  c #014782",
"V. c #C9CDD8",
"6  c #8DACFE",
"A. c #4E5AA6",
"H. c #6467B6",
"d  c #FBFBFB",
"3  c #033E82",
"O. c #F9FEF8",
"j  c #01417E",
"t  c #01417F",
"F  c #014181",
"c  c #7871B4",
"B  c #013E7D",
"L. c #FEFFFA",
"e. c #6476FE",
"T. c #9F9EA6",
"x  c #6A72B0",
"U  c #9DA1A2",
"/  c #FEFCFD",
"6. c #6067AF",
"i  c #819EFC",
"Z  c #5B78F6",
"5  c #04427D",
"B. c #BECFD7",
"q  c #FCFFF8",
"N. c #5158A6",
"+  c #04427F",
";  c #D9DDE0",
"@. c #7474B2",
"U. c #2530E4",
"C. c #CACEDA",
"p  c #6F6DAC",
"r. c #6079FA",
"#. c #7489FF",
"W  c #595D9A",
"z. c #414EF2",
"H  c #A4A5D3",
"m. c #02427F",
"~  c #A4A5D5",
".  c #024282",
"F. c #A29CA6",
",. c #8B8BC1",
"2  c #99BFFE",
"`  c #7F9BFC",
"f. c #5E5B94",
"8. c #023F80",
"!. c #004580",
"(. c #A09FA4",
"}  c #5456A0",
"/. c #A09FA7",
"$. c #00427C",
"+. c #F8FFF7",
"a  c #D5E0E6",
"o  c #00427E",
"[  c #00427F",
"J. c #FFFDFE",
"f  c #FFFDFF",
"3. c #6377FA",
"I  c #054380",
"   c None",
"W. c #003F84",
"(  c #FDFDFB",
"K  c #FDFDFD",
"w. c #5C76FF",
"L  c #6E74B2",
"Z. c #C4CED7",
"Q. c #034380",
"V  c #8988D6",
"*. c #5D68AA",
"l  c #034081",
"n. c #A1A0A5",
"l. c #5F5C9F",
"X  c #01437F",
"a. c #014380",
"y. c #5F77FD",
"z  c #6C89FF",
"G. c #292FE5",
"u. c #06447F",
"`. c #9FA0A2",
"-  c #736CB0",
"v. c #9FA0A4",
"o. c #A1A6CE",
"D. c #014085",
"h  c #7C9FFD",
"|  c #C5D2DB",
"T  c #525FF9",
"4  c #9F9DA2",
"1  c #716FAE",
"s  c #FEFEFF",
"P  c #90ACFF",
"g  c #6F75B3",
"R  c #6764A9",
"$  c #044481",
"0  c #F7FDFB",
"h. c #5855A2",
"4. c #9DA0A5",
"G  c #8EAFFE",
")  c #FCFEF9",
/* pixels */
"                                ",
". X o O + @ @ # $ % &           ",
"* = - ; : > , < 1 2 3 4         ",
"5 6 7 8 9 0 q w e r t y         ",
"u i p a s , d f g h j k         ",
"l z x c v @ b o n m M N B * V   ",
"C Z A S D F G H w s J K L P I U ",
"Y T R E W Q ! ~ ^ / ( ) _ ` ' ] ",
"[ { } |  ...X.o.< O.K +.@.#.$.%.",
"X &.*.=., -.;.:.>.,.<.1.2.3.o 4.",
"j 5.6.7., 8.9.0.q.w.e.r.t.y.u.i.",
"p.a.@ a.s.$.d.f.g.h.j.k.l.z.x.c.",
"  v.b.n.c.m.M.N.B.V.C.Z.A.S.D.F.",
"          o G.H.J.K.L.P.I.U.Y.T.",
"          R.E.C * C W.. m.Q.!.~.",
"            ^./.(.)._.`.'.].[.  "
};
