/* XPM */
static char * file_close_xpm[] = {
"16 16 115 2",
"  	c None",
". 	c #5C6272",
"+ 	c #5C6270",
"@ 	c #5D606F",
"# 	c #595E71",
"$ 	c #5D6371",
"% 	c #5B6272",
"& 	c #5A6470",
"* 	c #FEFEFE",
"= 	c #FDFFFE",
"- 	c #FEFFFF",
"; 	c #FFFDFE",
"> 	c #FAFEFD",
", 	c #5B6074",
"' 	c #5B616F",
") 	c #FFFFFF",
"! 	c #FCFAFB",
"~ 	c #FEFCFF",
"{ 	c #5B6473",
"] 	c #FFFCFD",
"^ 	c #050452",
"/ 	c #FFFDFF",
"( 	c #FFFEFF",
"_ 	c #5C6375",
": 	c #5C626E",
"< 	c #5C6373",
"[ 	c #020355",
"} 	c #A19FA0",
"| 	c #FEFDFB",
"1 	c #FCFEFB",
"2 	c #FDFFFC",
"3 	c #FFFEFC",
"4 	c #FFFFFD",
"5 	c #030456",
"6 	c #A19FA4",
"7 	c #FFFEFA",
"8 	c #FDFEFF",
"9 	c #FEFFFA",
"0 	c #FEFEFC",
"a 	c #FEFCFD",
"b 	c #FDFEF9",
"c 	c #A1A1A3",
"d 	c #FDFDFD",
"e 	c #FDFCF7",
"f 	c #931519",
"g 	c #931217",
"h 	c #98151B",
"i 	c #951419",
"j 	c #A4A09F",
"k 	c #FEFEFF",
"l 	c #941317",
"m 	c #FC0704",
"n 	c #F90504",
"o 	c #FB0603",
"p 	c #F90800",
"q 	c #F80602",
"r 	c #FC0706",
"s 	c #921418",
"t 	c #5B6274",
"u 	c #FBFFFE",
"v 	c #FEFFFD",
"w 	c #991417",
"x 	c #FB0605",
"y 	c #FD0505",
"z 	c #FF0506",
"A 	c #F80403",
"B 	c #951218",
"C 	c #A0A0A2",
"D 	c #5B636E",
"E 	c #961519",
"F 	c #FA0703",
"G 	c #FDFDFB",
"H 	c #F90703",
"I 	c #95111C",
"J 	c #9F9FA1",
"K 	c #F6F4FF",
"L 	c #F2F1F7",
"M 	c #961318",
"N 	c #FE0501",
"O 	c #FB0506",
"P 	c #FFFFFB",
"Q 	c #FE0702",
"R 	c #F90505",
"S 	c #941318",
"T 	c #5E6174",
"U 	c #F5F5F7",
"V 	c #EFF1F0",
"W 	c #EAEAF2",
"X 	c #E0E4F0",
"Y 	c #FB0700",
"Z 	c #FE0606",
"` 	c #911317",
" .	c #A39EA2",
"..	c #606271",
"+.	c #010453",
"@.	c #020556",
"#.	c #040653",
"$.	c #010252",
"%.	c #961617",
"&.	c #FB0601",
"*.	c #F90706",
"=.	c #FD0506",
"-.	c #FA0701",
";.	c #FA0605",
">.	c #931516",
",.	c #A2A0A5",
"'.	c #9F9EA3",
").	c #A19FA2",
"!.	c #A09E9F",
"~.	c #94161A",
"{.	c #961319",
"].	c #951217",
"^.	c #96131B",
"/.	c #A6A0A4",
"(.	c #9FA0A4",
"                                ",
"  . + @ # $ . % & . %           ",
"  . * = * - ; > ; , * '         ",
"  . ; ; = ) ! ~ ) { - ] ^       ",
"  . = / ; = ( = ( _ : < [ }     ",
"  . | 1 2 ) * - 3 - = 4 5 6     ",
"  . 7 8 9 ; 9 8 ; 0 a b 5 c     ",
"  . ; = d e * f f g f h i j     ",
"  . 9 b k ) l m n o p q r s     ",
"  t 0 * u v w x / y z - A B C   ",
"  D / ) ( = E q F u G H y I J   ",
"  . 4 G K L M N O | P Q R S c   ",
"  T U V W X i m 0 Y R ( Z `  .  ",
"  ..+.@.#.$.%.&.*.=.-.;.H >.,.  ",
"    '.,.).} !.~.{.i i ].^./.    ",
"              ).} (.). . .      "};
