/* XPM */
static char * file_open_xpm[] = {
"16 16 182 2",
"  	c None",
". 	c #6D7290",
"+ 	c #6F7186",
"@ 	c #6C728A",
"# 	c #6E7387",
"$ 	c #717286",
"% 	c #6D7285",
"& 	c #6C7386",
"* 	c #6C7489",
"= 	c #6D7687",
"- 	c #6F6F87",
"; 	c #6D7486",
"> 	c #F9FDFE",
", 	c #FEFFFF",
"' 	c #FEFCFD",
") 	c #FFFFFD",
"! 	c #FEFEFE",
"~ 	c #FFFFFF",
"{ 	c #DFE0E5",
"] 	c #37383C",
"^ 	c #875B02",
"/ 	c #FFFDFF",
"( 	c #FDFFFE",
"_ 	c #ECEFFE",
": 	c #DEDFE3",
"< 	c #363634",
"[ 	c #845C04",
"} 	c #9C6500",
"| 	c #FFFBE2",
"1 	c #FFFEFC",
"2 	c #FFFEFF",
"3 	c #EDEFFE",
"4 	c #F0EFFF",
"5 	c #DFE0E2",
"6 	c #36353A",
"7 	c #FFFEE0",
"8 	c #875904",
"9 	c #966602",
"0 	c #FEFF99",
"a 	c #717388",
"b 	c #FEFDFF",
"c 	c #FEFEFC",
"d 	c #FEFFFA",
"e 	c #FAFFFB",
"f 	c #F1F0FF",
"g 	c #EAF0FC",
"h 	c #DCE0DF",
"i 	c #C9D2DB",
"j 	c #37383D",
"k 	c #FDFF99",
"l 	c #6A4801",
"m 	c #A09DA6",
"n 	c #895A00",
"o 	c #FFDF7C",
"p 	c #5A626F",
"q 	c #FBFFFC",
"r 	c #F0EDFE",
"s 	c #DFDEE4",
"t 	c #DEDFE1",
"u 	c #C9D2D7",
"v 	c #C8D1D6",
"w 	c #C9D4D8",
"x 	c #CCD0D9",
"y 	c #454442",
"z 	c #FFFD99",
"A 	c #333132",
"B 	c #A3A49F",
"C 	c #996801",
"D 	c #986701",
"E 	c #9D6602",
"F 	c #9F6400",
"G 	c #9C6700",
"H 	c #9D6300",
"I 	c #996802",
"J 	c #9E6400",
"K 	c #996400",
"L 	c #9C6604",
"M 	c #966902",
"N 	c #C8D2DB",
"O 	c #43443E",
"P 	c #FDE078",
"Q 	c #2D322E",
"R 	c #9DA1A2",
"S 	c #986700",
"T 	c #FFFDFE",
"U 	c #FEFEFF",
"V 	c #FFFFFB",
"W 	c #474246",
"X 	c #FEDD7C",
"Y 	c #30312C",
"Z 	c #9F9EA4",
"` 	c #996500",
" .	c #F8E46B",
"..	c #F7E46B",
"+.	c #F8E56C",
"@.	c #F9E56A",
"#.	c #FAE268",
"$.	c #F4DF62",
"%.	c #F7DF63",
"&.	c #F6DE60",
"*.	c #6D4601",
"=.	c #424645",
"-.	c #FDDF7C",
";.	c #2E3235",
">.	c #A29DA1",
",.	c #9C6701",
"'.	c #F7E569",
").	c #FBE369",
"!.	c #FBE26C",
"~.	c #F8E062",
"{.	c #F5DC5B",
"].	c #F4DB5A",
"^.	c #F2D958",
"/.	c #F4D654",
"(.	c #F1D54E",
"_.	c #6E4902",
":.	c #FFE07D",
"<.	c #343237",
"[.	c #A19FA2",
"}.	c #6D4900",
"|.	c #F9E36B",
"1.	c #F7E265",
"2.	c #F4DF60",
"3.	c #F6DF5F",
"4.	c #F6DA5C",
"5.	c #F4D755",
"6.	c #F2D450",
"7.	c #F0D44C",
"8.	c #F2D345",
"9.	c #EFCD45",
"0.	c #9D6800",
"a.	c #313131",
"b.	c #A09DA4",
"c.	c #6D4804",
"d.	c #F7DB5D",
"e.	c #F3DB57",
"f.	c #F3D752",
"g.	c #F4D350",
"h.	c #F2D249",
"i.	c #F3CE49",
"j.	c #EECD42",
"k.	c #F0CB3C",
"l.	c #EFC83D",
"m.	c #EEC839",
"n.	c #6E4608",
"o.	c #333331",
"p.	c #A1A0A5",
"q.	c #6D4801",
"r.	c #F3D750",
"s.	c #F1D44A",
"t.	c #F1D14A",
"u.	c #F3CF45",
"v.	c #EFCA3D",
"w.	c #EDC937",
"x.	c #EDC738",
"y.	c #EDC736",
"z.	c #EEC73B",
"A.	c #6E4601",
"B.	c #323137",
"C.	c #A0A0A2",
"D.	c #6E4A00",
"E.	c #523700",
"F.	c #553703",
"G.	c #323234",
"H.	c #313332",
"I.	c #353034",
"J.	c #303135",
"K.	c #2C3033",
"L.	c #2F3332",
"M.	c #313234",
"N.	c #312F32",
"O.	c #956801",
"P.	c #A0A0A0",
"Q.	c #A09EA1",
"R.	c #A19FA4",
"S.	c #A49FA5",
"T.	c #A39EA2",
"U.	c #A1A09E",
"V.	c #A09FA5",
"W.	c #9EA2A3",
"X.	c #9F9DA0",
"Y.	c #A1A3A2",
"                                ",
"      . + @ # $ % & * = -       ",
"      ; > , ' ) ! ) ~ { ]       ",
"    ^ ; ~ / ! ! ( ~ _ : < [     ",
"  } | ; ! 1 ) 1 2 3 4 5 6 7 8   ",
"  9 0 a b c d e f g h i j k l m ",
"  n o p q r s t u v w x y z A B ",
"C D E F G H I J K L M N O P Q R ",
"S / ~ c 1 T U ) ! 1 V J W X Y Z ",
"` /  ... .+.@.#.$.%.&.*.=.-.;.>.",
"  ,.'. .).!.~.{.].^./.(._.:.<.[.",
"  }.|.1.2.3.4.5.6.7.8.9.*.0.a.b.",
"    c.d.e.f.g.h.i.j.k.l.m.n.o.p.",
"    q.r.s.t.u.j.v.w.x.y.z.A.B.C.",
"      D.E.F.G.H.I.J.K.L.M.N.O.P.",
"        Q.R.P.S.T.U.V.S.W.X.Y.R."};
