/* XPM */
static char * file_new_xpm[] = {
"16 16 128 2",
"  	c None",
". 	c #6A748D",
"+ 	c #6C7184",
"@ 	c #6E7389",
"# 	c #6D7487",
"$ 	c #6D7484",
"% 	c #6E7587",
"& 	c #6C7386",
"* 	c #6B7386",
"= 	c #717485",
"- 	c #596271",
"; 	c #707287",
"> 	c #FFFFFF",
", 	c #FEFEFE",
"' 	c #FEFFFF",
") 	c #FDFFFC",
"! 	c #FFFFFD",
"~ 	c #FEFEFC",
"{ 	c #5A606E",
"] 	c #FDFEFF",
"^ 	c #58606D",
"/ 	c #6D7285",
"( 	c #FDFFFA",
"_ 	c #FEFFFA",
": 	c #FEFCFD",
"< 	c #FFFEFC",
"[ 	c #5C6670",
"} 	c #030550",
"| 	c #6B7284",
"1 	c #FDFFFE",
"2 	c #FEFDFB",
"3 	c #FFFDFE",
"4 	c #5B6171",
"5 	c #585F6F",
"6 	c #5A646E",
"7 	c #020554",
"8 	c #A1A09C",
"9 	c #6D7286",
"0 	c #FEFEFF",
"a 	c #FFFDFF",
"b 	c #030552",
"c 	c #A2A0A3",
"d 	c #6F7585",
"e 	c #FEFFF9",
"f 	c #FEFCFF",
"g 	c #030454",
"h 	c #9F9EA4",
"i 	c #FDFDFB",
"j 	c #FFFEFA",
"k 	c #060555",
"l 	c #A19EA5",
"m 	c #FBFCFE",
"n 	c #FFFEFF",
"o 	c #FFFFFB",
"p 	c #FFFCFD",
"q 	c #030751",
"r 	c #9E9FA3",
"s 	c #6E748A",
"t 	c #FEFDF9",
"u 	c #FDFBFE",
"v 	c #F5F7F4",
"w 	c #F0F1F6",
"x 	c #060354",
"y 	c #9F9DA2",
"z 	c #6B7485",
"A 	c #FDFDFF",
"B 	c #FBFFFA",
"C 	c #F6F7FB",
"D 	c #EBEEF3",
"E 	c #E3E8EC",
"F 	c #DEE2EB",
"G 	c #020356",
"H 	c #A09EA3",
"I 	c #6E728B",
"J 	c #FDFCFA",
"K 	c #F8F7FC",
"L 	c #EBEEF5",
"M 	c #E8ECEF",
"N 	c #DDE1ED",
"O 	c #D3D9E7",
"P 	c #CCD4E1",
"Q 	c #02044F",
"R 	c #A3A1A4",
"S 	c #6C7481",
"T 	c #FCFFFF",
"U 	c #F3F6FB",
"V 	c #ECEFF6",
"W 	c #E3EAF0",
"X 	c #DCE5EE",
"Y 	c #D4DBE3",
"Z 	c #CDD5E0",
"` 	c #C1CDD9",
" .	c #BFCBDB",
"..	c #030456",
"+.	c #9F9CA3",
"@.	c #6D7582",
"#.	c #F7F8FC",
"$.	c #EFF1F0",
"%.	c #E4EAEA",
"&.	c #DFE4EA",
"*.	c #D4DBE1",
"=.	c #CAD9E0",
"-.	c #C6CFDE",
";.	c #BFC9D3",
">.	c #BCCAD7",
",.	c #B9C6D9",
"'.	c #070652",
").	c #A1A0A5",
"!.	c #6D7383",
"~.	c #030154",
"{.	c #000352",
"].	c #040758",
"^.	c #040150",
"/.	c #050156",
"(.	c #060553",
"_.	c #020556",
":.	c #010850",
"<.	c #020353",
"[.	c #9FA0A2",
"}.	c #A39F9E",
"|.	c #A09EA1",
"1.	c #A29FA6",
"2.	c #9E9DA2",
"3.	c #A39FA0",
"4.	c #A49FA6",
"5.	c #A49FA5",
"6.	c #A19FA2",
"7.	c #A0A0A2",
"                                ",
"    . + @ # $ % & * = -         ",
"    ; > , ' ) ! ~ , { ] ^       ",
"    / ( _ ~ , : < ) [ > : }     ",
"    | 1 2 , > 3 ~ , 4 5 6 7 8   ",
"    9 0 3 , ! > > ~ ~ a < b c   ",
"    d ) _ ~ , > ' 3 e f ] g h   ",
"    / > 3 > > , i ) ( _ j k l   ",
"    % m > > , > , n < o p q r   ",
"    s t ( u > ' < a ] v w x y   ",
"    z : A ' B o ~ C D E F G H   ",
"    I ~ _ f J K L M N O P Q R   ",
"    S ] T U V W X Y Z `  ...+.  ",
"    @.#.$.%.&.*.=.-.;.>.,.'.).  ",
"    !.~.{.].^./.(.7 _.:.<.x [.  ",
"      }.c |.1.2.3.4.5.H 6.6.7.  "};
