/* XPM */
static const char *find-next_xpm[] = {
/* columns rows colors chars-per-pixel */
"16 16 142 2",
"n  c #313366",
"m  c #FCFEFD",
"=. c #545585",
"&. c #5FB4F4",
"<  c #EBF2EB",
"j. c #363466",
"l  c #CBD7CD",
"z  c #C6D0C5",
"d. c #372F2C",
"'  c #B5D9F9",
"5. c #3F9CEA",
"e  c #F5F7F6",
"q. c #CB9809",
"W  c #B5D6F5",
"I  c #A09EA3",
"H  c #040353",
"a  c #FFFFFD",
"t  c #E9EFE5",
"%  c #FFFFFF",
"X  c #6C7386",
"Y  c #323465",
"$  c #FDFFFC",
"i. c #46446C",
"~  c #3F4360",
";  c #FDFFFE",
"B  c #3C3C6E",
"Z  c #ACC0B4",
"Q  c #050751",
"E  c #B6DAF4",
"O  c #6A7086",
"a. c #38302D",
"4  c #F6FBFE",
"0. c #DCCA4E",
"O. c #050452",
"b  c #A19FA2",
"/  c #7B4900",
"C  c #B6C2B6",
"k. c #A19FAC",
"+  c #A19CA2",
".  c #6D7487",
"p. c #9F9FA7",
"8  c #E3ECE7",
"S  c #9DA29E",
"u  c #DEE5DD",
"q  c #33326C",
"s. c #D8CA4F",
"L  c #313562",
"k  c #D2DDD7",
"]  c #A1D4FF",
"y. c #3AA3F6",
",. c #9D9CA1",
"j  c #DCE2D8",
"X. c #7C4A01",
"o. c #A29DA3",
":  c #FCFAFB",
"A  c #363368",
"s  c #36336A",
"x. c #2F3569",
"e. c #343666",
"f  c #6E6F81",
"1  c #2F2F61",
"D  c #FFFEFA",
"3  c #FFFEFC",
"c  c #FFFEFF",
"P  c #784D00",
";. c #D9C846",
"@. c #5BB3F2",
"0  c #FDFEF8",
"p  c #CCDACB",
"o  c #6A7587",
"g  c #E7EEE7",
"N  c #000857",
"_  c #B6DCF3",
"h  c #E2E7E1",
"x  c #BBCEBB",
"5  c #F8F7FC",
">. c #7D4802",
"r  c #F1F3EE",
"9  c #E0E7E0",
"l. c #804C00",
"G  c #B4D9F3",
"#. c #5EB1F7",
"i  c #D4DFD9",
"f. c #9F9EA3",
"8. c #362C2B",
"[  c #B4D6F9",
"J  c #A3B8A5",
"{  c #B9DAFB",
"-  c #72748D",
"h. c #379EFA",
"#  c #FEFCFF",
",  c #F2F7F3",
"V  c #BEC9C1",
"2  c #9D9EA2",
"T  c #313467",
"v  c #31346B",
".. c #CD9908",
"%. c #5AB1F8",
"1. c #38A5F7",
"-. c #DBCA48",
"6. c #343868",
"*. c #69B7F5",
"w. c #A09FA4",
" . c #DBC74C",
"c. c #2D3768",
"w  c #6C7789",
"2. c #36A5F7",
"z. c #9E9F9A",
"`  c #B3DAF7",
"|  c #D9CA4B",
"3. c #42A1F1",
"$. c #5DAFF8",
"U  c #323568",
"   c None",
"!  c #32356C",
"&  c #FDFDFB",
"@  c #717286",
"R  c #323268",
":. c #CE9706",
")  c #000758",
"M  c #D1DDD3",
"=  c #A1A3A2",
"F  c #353664",
"9. c #DCC84B",
"+. c #60B0F9",
"}  c #1E1C65",
"t. c #372D62",
"7. c #A1A0A8",
"^  c #CC9709",
"g. c #353066",
"(  c #9FA0A4",
"r. c #333669",
"y  c #E3EAE2",
"K  c #FEFEFE",
">  c #F9F7F8",
"6  c #EDF2EC",
"<. c #3CA1F9",
"*  c #333371",
"4. c #46A3E9",
"d  c #9DA0A5",
"u. c #599DDC",
"7  c #EDEFEA",
/* pixels */
"        . X o O                 ",
"    + @ # $ % & * =             ",
"    - % ; : > , < 1 2           ",
"  . 3 4 5 6 7 8 9 0 q           ",
"  w e r t y u i p a s d         ",
"  f g h j k l z x c v b         ",
"  n m M N B V C Z 3 A S         ",
"    s D F G H J K L P I         ",
"  U Y T R E W Q ! ~ ^ / (       ",
"  ) _ ` ' ] [ { } |  ...X.o.    ",
"  O.+.@.#.$.%.&.*.=.-.;.:.>.,.  ",
"  Q <.1.2.3.4.5.6.7.8.9.0.q.w.  ",
"  e.r.L t.y.u.i.    p.a.s.d.f.  ",
"        g.h.j.        k.l.z.    ",
"        x.c.                    ",
"                                "
};
