/* XPM */
static const char *find-previous_xpm[] = {
/* columns rows colors chars-per-pixel */
"16 16 142 2",
"#  c #FCFEFD",
"o  c #697585",
"q. c #DDC94C",
"O. c #545585",
"@. c #5FB4F4",
"D  c #363466",
"h  c #E6EBE7",
"q  c #E1E4DD",
"m  c #2F3362",
".. c #D2990C",
"]  c #B5D9F9",
"2. c #3F9CEA",
"w. c #CB9807",
"7  c #F5F7F6",
"T  c #B5D6F5",
"F  c #040353",
"l  c #D5DCD5",
"u  c #E4EBE3",
";  c #FFFFFD",
"g. c #35322B",
"$  c #FFFFFF",
"a  c #CEDBD1",
"z. c #9E9E9E",
"Q  c #323465",
"r. c #46446C",
"5  c #FDFFFE",
"N  c #3C3C6E",
",  c #F8F8F8",
"I  c #7D4900",
"V  c #BDC9BF",
"R  c #B6DAF4",
"Y  c #050751",
"Z  c #ACBDAD",
">. c #CC9902",
"c  c #BBCCBC",
"O  c #6A7086",
"=. c #050452",
"/  c #7B4900",
"+  c #A19CA2",
".  c #6D7486",
"3  c #9F9FA7",
"f. c #DAC74E",
"i. c #313562",
"P  c #313564",
"p  c #D9DBD6",
"'  c #A1D4FF",
"y  c #EDEEE9",
"X. c #7E4704",
"y. c #3AA3F6",
"d. c #392E2C",
"@  c #707287",
"J  c #ABBEAB",
"8  c #F0F5F1",
"c. c #2F3569",
"S  c #A0A09E",
"n  c #A0A0A0",
"a. c #343666",
"^  c #CB9705",
"v  c #FFFEFC",
"e. c #A09DA6",
"C  c #B3C6B2",
"0  c #E2EDE5",
"&. c #5BB3F2",
"-  c #717388",
"B  c #000857",
"{  c #B6DCF3",
"k. c #A39EA5",
"z  c #CCD7CF",
"j  c #E0E7DF",
">  c #FBFBF9",
"0. c #D5C846",
"g  c #6F7084",
"2  c #303064",
"6  c #FBFBFB",
"(  c #A19EA5",
"X  c #6D7687",
"8. c #A19EA7",
"G  c #B4D9F3",
"%. c #5EB1F7",
"<. c #A19BA5",
"b  c #333767",
"t  c #EFF0EB",
"l. c #804906",
"d  c #333464",
"`  c #B4D6F9",
"s  c #FEFFFF",
"_  c #B9DAFB",
"h. c #379EFA",
"L  c #FEFCFF",
" . c #D8C94C",
"W  c #313467",
"#. c #5AB1F8",
"f  c #A29FA6",
"-. c #392D2F",
"M  c #D0DCD2",
"6. c #38A5F7",
"r  c #F5F8F1",
"1. c #343868",
"~  c #3C435F",
"|  c #DDC44E",
"+. c #69B7F5",
"<  c #F0F4F5",
"o. c #A09FA5",
":. c #DBC74C",
"x. c #2D3768",
"K  c #A4B9A8",
"5. c #36A5F7",
"x  c #C4D1C7",
"[  c #B3DAF7",
":  c #FFFDFE",
"w  c #FFFDFF",
"4. c #42A1F1",
"$. c #5DAFF8",
"!  c #323568",
"   c None",
"i  c #DDE5DA",
";. c #D7CA4A",
"E  c #323268",
"}  c #000758",
"1  c #ECF1EB",
"s. c #A39DA7",
"9  c #ECEEEB",
"H  c #353664",
"*. c #60B0F9",
")  c #1E1C65",
"u. c #372D62",
"j. c #353066",
"p. c #333669",
"4  c #6D7288",
"e  c #333365",
"&  c #FEFEFC",
"%  c #FEFEFE",
"A  c #333369",
"*  c #33336F",
"7. c #3CA1F9",
"=  c #A2A4A3",
"3. c #46A3E9",
",. c #7E4800",
"t. c #599DDC",
"k  c #D7E2DA",
"U  c #9DA0A9",
"9. c #342E32",
/* pixels */
"        . X o O                 ",
"    + @ # $ % & * =             ",
"    - ; : > , < 1 2 3           ",
"  4 5 6 7 8 9 0 q w e           ",
"  X r t y u i p a s d f         ",
"  g h j k l z x c v b n         ",
"  m & M N B V C Z w A S         ",
"    D F G H J K L P I U         ",
"    Y T R E W Q ! ~ ^ / (       ",
"  ) _ ` ' ] [ { } |  ...X.o.    ",
"O.+.@.#.$.%.&.*.=.-.;.:.>.,.<.  ",
"  1.2.3.4.5.6.7.Y 8.9.0.q.w.e.  ",
"    r.t.y.u.i.p.a.  s.d.f.g.n   ",
"      D h.j.          k.l.z.    ",
"        x.c.                    ",
"                                "
};
