/* XPM */
static char * find_start_xpm[] = {
"16 16 86 1",
" 	c None",
".	c #6C7487",
"+	c #6D7487",
"@	c #6B7187",
"#	c #9F9CA3",
"$	c #6E7386",
"%	c #FFFFFF",
"&	c #FDFEFD",
"*	c #32346F",
"=	c #A1A3A2",
"-	c #6F748A",
";	c #FBFCFC",
">	c #F8F9F8",
",	c #F2F6F3",
"'	c #EDF1EE",
")	c #303262",
"!	c #9F9EA3",
"~	c #6E7387",
"{	c #FEFEFE",
"]	c #FAFBFB",
"^	c #F6F8F7",
"/	c #F1F4F1",
"(	c #EBEFEC",
"_	c #E5EBE6",
":	c #DFE6E0",
"<	c #353267",
"[	c #6D7588",
"}	c #F4F7F4",
"|	c #EFF2EF",
"1	c #E9EEEA",
"2	c #E3EAE3",
"3	c #DCE4DD",
"4	c #D5DED6",
"5	c #CED9D0",
"6	c #333367",
"7	c #9EA2A5",
"8	c #6E7085",
"9	c #E7EDE7",
"0	c #E1E7E1",
"a	c #DAE2DB",
"b	c #D3DDD4",
"c	c #CCD7CD",
"d	c #C4D1C6",
"e	c #BDCCBF",
"f	c #34346A",
"g	c #A0A0A2",
"h	c #323264",
"i	c #D1DBD2",
"j	c #C9D5CA",
"k	c #C2D0C4",
"l	c #BBCABD",
"m	c #B4C5B6",
"n	c #ADBFAF",
"o	c #363169",
"p	c #A0A29F",
"q	c #B9C8BA",
"r	c #B1C3B4",
"s	c #ABBEAD",
"t	c #A5B9A8",
"u	c #333565",
"v	c #7B4B00",
"w	c #9FA0A5",
"x	c #9F9FA1",
"y	c #343468",
"z	c #32336B",
"A	c #3D445E",
"B	c #CC9806",
"C	c #7B4A00",
"D	c #9FA0A4",
"E	c #9E9FA3",
"F	c #333568",
"G	c #372F2C",
"H	c #DAC84C",
"I	c #CF9807",
"J	c #7D4802",
"K	c #9D9EA2",
"L	c #9FA0A2",
"M	c #A09EA1",
"N	c #DAC84A",
"O	c #7E4800",
"P	c #A09FA7",
"Q	c #DCCA4E",
"R	c #A09FA4",
"S	c #35322D",
"T	c #7E4A00",
"U	c #9F9F9F",
"                ",
"     .+.@       ",
"   #$%%%&*=     ",
"   -%%;>,')!    ",
"  ~{]^/(_:%<    ",
"  [}|12345%67   ",
"  890abcde%fg   ",
"  h%ijklmn%op   ",
"   f%qrst%uvw   ",
"   xy%%%%zABCD  ",
"    E<66FGHHIJ! ",
"      KLgMGHNBO#",
"          PGHQBR",
"           PGHSx",
"            PTU ",
"                "};
