/* XPM */
static char * search_fast_forward_xpm[] = {
"16 16 4 1",
" 	c None",
".	c #000000",
"+	c #FFFFFF",
"@	c #DADADA",
"                ",
"                ",
"                ",
"                ",
"   ..   ..      ",
"   .+.  .+.     ",
"   .++. .++.    ",
"   .+++..+++.   ",
"   .@@@..@@@.   ",
"   .@@. .@@.    ",
"   .@.  .@.     ",
"   ..   ..      ",
"                ",
"                ",
"                ",
"                "};
