/* XPM */
static char * find_last_xpm[] = {
"16 16 4 1",
" 	c None",
".	c #000000",
"+	c #FFFFFF",
"@	c #DADADA",
"                ",
"                ",
"                ",
"             .  ",
"       ..    .  ",
"       .+.   .  ",
" . .....++.  .  ",
" . .+++++++. .  ",
" . .@@@@@@@. .  ",
" . .....@@.  .  ",
"       .@.   .  ",
"       ..    .  ",
"             .  ",
"                ",
"                ",
"                "};
