/* XPM */
static const char *goto-line_xpm[] = {
/* columns rows colors chars-per-pixel */
"16 16 147 2",
"~  c #545585",
"/  c #5FB4F4",
"q. c #363466",
"g. c #DEDDE2",
"%. c #F2F0F1",
"}  c #F7F7FF",
"i. c #D2DBE4",
"o  c #FAFEFD",
"I  c #B5D9F9",
"i  c #5A5D70",
"o. c #3F9CEA",
"W  c #95AC9A",
"B  c #B5D6F5",
";  c #FFFFFB",
"l  c #040353",
"#  c #FFFFFD",
"5  c #343468",
"+  c #FFFFFF",
"a  c #F5F4F9",
"A  c #323465",
":. c #46446C",
"3  c #FDFFFE",
"&  c #E9E9E9",
"s  c #3C3C6E",
"t  c #F8F8F8",
"4. c #FDFCFA",
"x. c #020053",
"<  c #FDFCFF",
"V  c #B6DAF4",
"N  c #050751",
"r. c #F6FBFE",
"v  c #AAC0AB",
"]  c #050452",
"q  c #F9FFF8",
"k  c #F9FCF5",
"0. c #CAD8E1",
"9. c #D6DAE6",
"*. c #94A793",
"c. c #080554",
"p. c #C5D1DD",
"9  c #5C626E",
"m  c #5C6270",
"1. c #313562",
"P  c #A1D4FF",
"c  c #E5E0E7",
",. c #3AA3F6",
"n. c #060553",
"j  c #FCFDFF",
">  c #757381",
"y. c #E8E7ED",
",  c #646A7A",
"M. c #060256",
"=  c #36336A",
"f. c #2F3569",
"Q  c #95AB94",
"3. c #343666",
"%  c #EBEBE9",
"=. c #8EAA91",
"w  c #FFFEFC",
"z. c #09034D",
"0  c #FFFEFF",
"1  c #FDFEF6",
"`  c #5BB3F2",
"F  c #FDFEF8",
"u. c #DFE3EC",
".. c #EEEFF4",
"d  c #000857",
"Y  c #B6DCF3",
"u  c #FDFBFC",
"y  c #303668",
"p  c #F6F7F2",
"{  c #FBFBF9",
"5. c #F6F7F9",
"X  c #777B7E",
"b. c #050356",
"z  c #B4D9F3",
"h  c #F9FEFA",
"_  c #5EB1F7",
"-. c #8FA590",
"h. c #6D7083",
"f  c #FEFFFA",
"L  c #B4D6F9",
"2  c #FEFFFF",
"K  c #B9DAFB",
"w. c #379EFA",
"r  c #F2F7F1",
"!  c #92A995",
"Z  c #313467",
".  c #6B7086",
"8. c #DEE4F2",
"$  c #EDEDEB",
":  c #FCFCFA",
"[  c #F2F1EF",
"D  c #FCFCFC",
"(  c #5AB1F8",
"8  c #FAFFF9",
"#. c #38A5F7",
"M  c #E9F6EC",
"s. c #BEC9DB",
"X. c #343868",
"^  c #69B7F5",
"g  c #586474",
"d. c #2D3768",
"|  c #FAF9F5",
"-  c #9EA2A1",
"@. c #36A5F7",
"U  c #B3DAF7",
"v. c #02044F",
"t. c #E9EDEC",
"+. c #42A1F1",
")  c #5DAFF8",
"S  c #323568",
"   c None",
"k. c #020457",
"H  c #FDFDFB",
"R  c #FDFDFD",
"E  c #91AA8C",
"C  c #323268",
"m. c #00044E",
"T  c #000758",
"l. c #050855",
" . c #F6F9F2",
"7  c #FBFDF8",
"x  c #353664",
"n  c #596575",
"4  c #FBFDFC",
";. c #E7EAEF",
"&. c #8FAD95",
"'  c #60B0F9",
"J  c #1E1C65",
"6  c #A1A0A6",
"6. c #E7EAF1",
"<. c #372D62",
"*  c #ECEBF1",
"7. c #E7E7F3",
"e. c #353066",
"2. c #333669",
"@  c #FEFEFC",
"e  c #F4F3F1",
"O  c #FEFEFE",
"G  c #FEFEFF",
"b  c #6E7C7F",
"$. c #3CA1F9",
"a. c #C0C8D3",
"O. c #46A3E9",
">. c #599DDC",
"j. c #080053",
/* pixels */
"                                ",
"  . . . . . . . . . . . X       ",
"  . o O O + @ # $ % & * = -     ",
"  . ; : > , < 1 # 2 3 4 5 6     ",
"  . : 7 8 9 0 q w e r t y 6     ",
"  . u 8 w i : ; @ p a s d 6     ",
"  . u f O g h f j k l z x 6 c   ",
"  . O v b n m M # N B V C Z A S ",
"  . D F G H w + J K L P I U Y T ",
"  . R E W Q ! ~ ^ / ( ) _ ` ' ] ",
"  . [ { } |  ...X.o.O.+.@.#.$.N ",
"  . %.&.*.=.=.-.;.:.>.,.<.1.2.3.",
"  . 4 4.5.6.7.8.9.0.q.w.e.6     ",
"  . r.t.y.u.i.0.p.a.s.d.f.6     ",
"g.h.j.k.l.z.x.c.v.b.n.m.M.6     ",
"    6 6 6 6 6 6 6 6 6 6 6 6     "
};
