/* XPM */
static const char *goto-last-edit_xpm[] = {
/* columns rows colors chars-per-pixel */
"16 16 195 2",
"2. c #545585",
"4. c #5FB4F4",
"+  c #69758B",
"G. c #363466",
",. c #90A88E",
"f  c #37322F",
"k. c #90A892",
"&  c #6E7386",
"XX c #A0A1A5",
"S. c #DCE3ED",
"A. c #E6EBEF",
"!  c #6E7387",
"&. c #B5D9F9",
"u. c #3F9CEA",
"q  c #DBC94D",
"'  c #B5D6F5",
"R  c #040353",
"-  c #6E7085",
"s  c #CBAA49",
"u  c #FFFFFF",
".. c #FAFBFF",
":. c #FFFCF9",
"Q  c #999D9E",
"/. c #6C7385",
"=  c #6C7386",
"o. c #7D4F01",
"t  c #FFF9F9",
"L  c #FDFFF9",
"b  c #3C2D34",
"}  c #323465",
"7  c #FDFFFC",
"1  c #717487",
"x. c #46446C",
"e. c #FDFFFE",
"q. c #6A7686",
".X c #9E9EA6",
"F  c #3C3C6E",
"B. c #FDFCFA",
"0  c #CEA845",
"]  c #B6DAF4",
"`  c #050751",
"l. c #91A993",
"}. c #000352",
"C. c #F8F5FC",
"V. c #FBFFFC",
"4  c #FBFFFF",
"a  c #BD8D05",
"g  c #A89DA3",
"0. c #050452",
"1. c #91A695",
";  c #7B4900",
"N. c #6D7484",
"U  c #CCA847",
"%  c #6D7486",
";. c #6D7487",
"_  c #363032",
"9  c #BB8D06",
"w  c #362D2E",
"r. c #FEFDF9",
"$  c #6B7483",
"j. c #8DA993",
"I  c #BB8A09",
"W. c #C0CAD3",
",  c #4FA401",
"Z. c #E8F0F2",
"n. c #313562",
"%. c #A1D4FF",
" . c #70758B",
"l  c #FCFDF7",
"v. c #3AA3F6",
"%X c #9D9CA1",
"'. c #060555",
"<. c #92A798",
"8  c #FCFDFF",
"#  c #70728B",
"h. c #8BA693",
"~. c #2F3569",
"c  c #CBAC42",
"Y  c #DBC847",
"M. c #343666",
".  c #7A4A00",
"Q. c #BCCAD5",
"T. c #D7DBE6",
"V  c #FFFEF9",
"+X c #A09DA4",
"2  c #FFFEFF",
"n  c #F8FDF6",
"w. c #FFFBFC",
"F. c #CBD3E0",
"@  c #6C7288",
"r  c #FDFEF6",
"8. c #5BB3F2",
"y  c #FDFEF8",
"G  c #000857",
"=. c #B6DCF3",
"3  c #FDFBFC",
">  c #CEA742",
"K. c #9C9D9F",
"T  c #382F28",
"`. c #070057",
"P. c #F6FAFD",
"o  c #53A302",
"m  c #A6A2A3",
"(  c #CCAA48",
"z. c #E5EBE9",
"J  c #6D7381",
"E  c #B4D9F3",
">. c #8FA892",
"e  c #6D7383",
"B  c #F9FEFA",
"7. c #5EB1F7",
"). c #030655",
"t. c #FEFFF9",
"~  c #FEFFFA",
"#X c #9F9EA3",
" X c #9F9EA4",
"$. c #B4D6F9",
"#. c #B9DAFB",
"H. c #379EFA",
"K  c #FCFFF8",
"$X c #9D9EA3",
"{  c #313467",
"X  c #12660E",
"6  c #FCFCFA",
"&X c #A29FA6",
"5. c #5AB1F8",
"[. c #060457",
"x  c #BE8D0C",
"^. c #A0A2A1",
"k  c #FAFFF9",
"s. c #38A5F7",
"5  c #FAFFFB",
"y. c #343868",
"P  c #7A4C00",
"g. c #90A68F",
"O. c #7A4C01",
"3. c #69B7F5",
"OX c #A09FA4",
"U. c #E6E9EE",
"!. c #2D3768",
"a. c #36A5F7",
"R. c #C9DBDD",
"*. c #B3DAF7",
"j  c #FFFDFE",
"f. c #6C7487",
"oX c #9E9FA1",
"L. c #6C7185",
"p. c #42A1F1",
"S  c #D9C749",
"6. c #5DAFF8",
"|  c #323568",
"z  c #FFFAFF",
"   c None",
"{. c #020457",
"Y. c #DFE2E7",
"(. c #02014F",
"d  c #D9C447",
"<  c #136711",
"A  c #C9A847",
"p  c #FDFDFD",
"[  c #323268",
"^  c #FDFDFF",
"-. c #000758",
"D. c #D3DAE2",
"W  c #353664",
"9. c #60B0F9",
"H  c #A1A0A5",
"@. c #1E1C65",
")  c #DCC84D",
"b. c #372D62",
"_. c #05024F",
"i  c #FBFAF8",
"Z  c #BB8E01",
"E. c #C7CFDC",
"J. c #353066",
"M  c #6D7285",
"v  c #DAC84A",
"@X c #9FA0A5",
"m. c #333669",
"O  c #68BF10",
"C  c #794A02",
"I. c #EFEFEF",
"+. c #34312A",
"N  c #FEFEFF",
"D  c #3B2F2F",
"]. c #01054E",
"/  c #794702",
":  c #B98E04",
"*  c #6B7282",
"d. c #3CA1F9",
"h  c #6B7284",
"|. c #080355",
"i. c #46A3E9",
"c. c #599DDC",
"X. c #FCFEF9",
/* pixels */
"                      . X o O   ",
"  + @ # $ % & * = - ; : > , <   ",
"  1 2 3 4 5 6 7 8 . 9 0 q w     ",
"  e r t y u i p ; a s d f g     ",
"  h j k 7 l z . x c v b n m     ",
"  M N B V u C Z A S D F G H     ",
"  J K L y P I U Y T R E W Q     ",
"  ! ~ N ^ / ( ) _ ` ' ] [ { } | ",
"   ...^ X.o.O.+.@.#.$.%.&.*.=.-.",
"  ;.:.>.,.<.1.2.3.4.5.6.7.8.9.0.",
"  q.w.X.e.r.t.p y.u.i.p.a.s.d.` ",
"  f.2 g.h.j.k.l.z.x.c.v.b.n.m.M.",
"  N.B.V.C.Z.A.S.D.F.G.H.J.K.    ",
"  L.P.I.U.Y.T.R.E.W.Q.!.~.^.    ",
"  /.R (.)._.`.'.].[.{.}.|. X    ",
"    .XXXoXOX+X@X#X$X X#X%X&X    "
};
