/* XPM */
static char * help_info_xpm[] = {
"16 16 9 1",
" 	c None",
".	c #63669D",
"+	c #505986",
"@	c #5A6591",
"#	c #4C5381",
"$	c #4A507F",
"%	c #3F4274",
"&	c #FFFFFF",
"*	c #333367",
"                ",
"     .+@@+.     ",
"    #......#    ",
"   $........$   ",
"  %....&&....%  ",
" ......&&...... ",
" *............* ",
" *....&&&.....* ",
" *.....&&.....* ",
" *.....&&.....* ",
" ......&&...... ",
"  %...&&&&...%  ",
"   $........$   ",
"    #......#    ",
"     .+@@+.     ",
"                "};
