/* XPM */
static char * help_mail_xpm[] = {
"16 16 7 1",
" 	c None",
".	c #3B455E",
"+	c #3B445C",
"@	c #000000",
"#	c #FFFFFF",
"$	c #3C455D",
"%	c #3B455D",
"                ",
"                ",
"                ",
" .++++++++++++@ ",
" ++##########+@ ",
" +#+########+#@ ",
" +##+######+##@ ",
" +###+####+###@ ",
" +####+##+####@ ",
" +###$#++#+###@ ",
" +##+######+##@ ",
" +#%########+#@ ",
" ++##########+@ ",
" +@@@@@@@@@@@@@ ",
"                ",
"                "};
