/* XPM */
static char * help_keyboard_xpm[] = {
"16 16 16 1",
" 	c None",
".	c #5C6272",
"+	c #FEFFFF",
"@	c #FFFFFF",
"#	c #030353",
"$	c #FFFEFF",
"%	c #FFFFFD",
"&	c #FFFEFC",
"*	c #FEFEFC",
"=	c #FCFFFF",
"-	c #FEFEFE",
";	c #C8D0DD",
">	c #FEFFFD",
",	c #FDFFFE",
"'	c #FBFFFA",
")	c #FFFFFB",
"                ",
" .............  ",
".+@@@@@@@@@@@@# ",
".$%@&@$*=@%-%;# ",
".>%@$,$@@@#%@;# ",
".%+@>#'$@+#%@;# ",
".$*$##@$$$#$%;# ",
".%@########++;# ",
".@-$##@$%$)@@;# ",
".+@++#',-@@$%;# ",
".@@@@@@@@@@@@;# ",
".@;;;;;;;;;;;;# ",
" #############  ",
"                ",
"                ",
"                "};
