/* XPM */
static char * help_documentation_xpm[] = {
"16 16 19 1",
" 	c None",
".	c #3B455E",
"+	c #4B4B4B",
"@	c #98B1FF",
"#	c #9F9FA2",
"$	c #737373",
"%	c #5B85FE",
"&	c #FFFFFF",
"*	c #3C465E",
"=	c #3D445E",
"-	c #FBFBFC",
";	c #F5F6F9",
">	c #EDF0F4",
",	c #E5EAF0",
"'	c #DDE3EB",
")	c #D4DBE5",
"!	c #CCD5E1",
"~	c #C4CFDC",
"{	c #BECAD9",
" ...........+   ",
" .@@@@@@@@@@+#  ",
" .@@@@@@@@@@+#$ ",
" .%%%%%%%%%%+#$ ",
" .&&&&&&&&&&+#$ ",
" .&&&&&&&&&&+#$ ",
" *&&&&&&&&&&+#$ ",
" .&======&&&+#$ ",
" .&&&&&&&&&-+#$ ",
" .&====&&-;>+#$ ",
" .&&&&&-;>,'+#$ ",
" *&&&-;>,')!+#$ ",
" *&-;>,')!~{+#$ ",
" ++++++++++++#$ ",
"  ############$ ",
"   $$$$$$$$$$$$ "};
