/* XPM */
static char * help_home_xpm[] = {
"16 16 44 1",
" 	c None",
".	c #3B455E",
"+	c #020000",
"@	c #E50000",
"#	c #100303",
"$	c #8288AC",
"%	c #E79755",
"&	c #E30000",
"*	c #0D0202",
"=	c #DF0000",
"-	c #D70000",
";	c #CE0000",
">	c #130303",
",	c #3D455E",
"'	c #DC0000",
")	c #D30000",
"!	c #C90000",
"~	c #C00000",
"{	c #B80000",
"]	c #1F0606",
"^	c #3C455E",
"/	c #C40000",
"(	c #BB0000",
"_	c #B40000",
":	c #B20000",
"<	c #0A0202",
"[	c #010000",
"}	c #FFFFFF",
"|	c #210707",
"1	c #9F9FA2",
"2	c #FFFEFE",
"3	c #3F7F00",
"4	c #FFFCFB",
"5	c #FFFDFD",
"6	c #FDFAF1",
"7	c #CCDCB8",
"8	c #FDF9F1",
"9	c #FFFFFE",
"0	c #000000",
"a	c #010101",
"b	c #0B0B08",
"c	c #12120E",
"d	c #0C0B09",
"e	c #040403",
"       .+       ",
"      .@@# $..  ",
"     .@%@&*$..  ",
"    .@%@=-;>,.  ",
"   .@%&')!~{]^  ",
"  .@%=-;/(_::<  ",
" .@&')!~{:::::[ ",
"...}}}}}}}}}}|+.",
"  .}}}}}}}}}}<1 ",
"  .2}}3333245[1 ",
"  .}6}377389}01 ",
"  .}}}3773}}}01 ",
"  .}}}3773}}}01 ",
"  .}}}3773}}}01 ",
"  .00abcde00001 ",
"   111111111111 "};
