/* XPM */
static char * image_xpm[] = {
"16 16 28 1",
" 	c None",
".	c #3B455E",
"+	c #000000",
"@	c #FFFFFF",
"#	c #9F9FA2",
"$	c #517DFE",
"%	c #8AA7FF",
"&	c #FEFFFE",
"*	c #FDFEFD",
"=	c #FCFEFC",
"-	c #A6BCFF",
";	c #3C465E",
">	c #F1F9EB",
",	c #3F7F00",
"'	c #D2EABA",
")	c #EFF8E8",
"!	c #FDFFFD",
"~	c #F3FAEC",
"{	c #7CC235",
"]	c #E7F4DB",
"^	c #FAFDF8",
"/	c #D2EAB8",
"(	c #F0F8E8",
"_	c #89C849",
":	c #8BC94C",
"<	c #8ECA51",
"[	c #8CC94D",
"}	c #93CD58",
"                ",
"                ",
"..............+ ",
".@@@@@@@@@@@@@+#",
".@@@@@@@$%%%.@+#",
".@&*==&@$---.@+#",
".@@@@@@@$$$$.@+#",
".@@@@@@@.....@+#",
";&>,,')!@@@@@@+#",
";~,{{,,]^&@@@@+#",
".,{{{{{,/(,,,*+#",
".{{{{{{{,,___,+#",
".{{{{{{{:<_[}_+#",
".{{{{{{{{{{{{{+#",
".++++++++++++++#",
" ###############"};
