/* XPM */
static const char *marker-next_xpm[] = {
/* columns rows colors chars-per-pixel */
"16 16 156 2",
"&. c #010252",
"*  c #707386",
"M. c #010255",
"h  c #12650D",
"@  c #6E7689",
",. c #DCE3ED",
"J  c #4BAB13",
"z  c #10650A",
"#  c #6E7085",
"<  c #FFFFFD",
"q  c #FFFFFF",
"w  c #02064F",
"I  c #090454",
"d  c #6C7385",
"D  c #6C7386",
"-. c #FDFFF7",
")  c #070751",
"0  c #FDFFFA",
"m  c #FDFFFC",
"X. c #FFF9FF",
"r  c #FDFFFE",
"@. c #44A112",
"s. c #CED8E1",
"^  c #44A114",
"5. c #FBFFFC",
"f. c #BDCCD3",
"Z  c #FBFFFE",
"L  c #4CAC15",
"f  c #11660B",
"3. c #A19FA0",
"8  c #125011",
"S. c #A19FA4",
"A  c #050454",
"n  c #6D7484",
"+  c #6D7486",
"o  c #6D7487",
"N  c #78DA0B",
"C. c #9F9FA1",
"M  c #105013",
"z. c #030456",
":  c #FEFDF8",
"j. c #080554",
"S  c #9F9CA3",
"=  c #6B7485",
"k  c #76DA08",
"o. c #FEFAFB",
"g  c #12670C",
" . c #EDF1F4",
"b  c #A2A0A5",
"t. c #6E757D",
"2  c #FCFDFF",
"Q  c #43A214",
"m. c #04084F",
"=. c #FCFAFB",
"Y  c #6E7587",
"i. c #E6EAE9",
"n. c #040555",
"F  c #115115",
"~  c #41A214",
"g. c #BCCAD7",
"7. c #EBEEF5",
"6  c #FFFEFA",
"b. c #040255",
":. c #0E6709",
"-  c #FFFEFF",
"+. c #0E670B",
"i  c #77DB09",
"F. c #9EA09F",
"(  c #FFFBFF",
"4  c #020556",
"c  c #FDFEF8",
"$. c #E4E7EC",
"Z. c #A3A1A4",
"%. c #DFE3EE",
"6. c #F3F6FD",
"3  c #FDFEFF",
"W  c #44A315",
"e  c #6A727F",
"l  c #75DB0D",
"t  c #FDFBFC",
"y. c #F8F7FD",
"u  c #11680A",
"O  c #6F7689",
"x. c #00024F",
"q. c #C4CCD9",
"{  c #44A017",
"|  c #F6F7F1",
"/  c #11650D",
"}  c #42A316",
"[  c #11650F",
"'  c #FBFBF9",
"V  c #78DC0A",
"2. c #030653",
"P  c #0F650A",
"5  c #FEFFF9",
".. c #9F9EA3",
"r. c #9F9EA4",
"p. c #E0E4EF",
"u. c #EFF0F2",
"0. c #CAD7E0",
"O. c #FEFFFF",
"j  c #0D680B",
"1. c #CCD1E4",
"a. c #D4DCDE",
"8. c #E3EBEE",
"y  c #FEFCFF",
"a  c #010658",
"U  c #9D9EA3",
"9  c #126608",
"e. c #010358",
"c. c #06075A",
"T  c #FCFCFE",
"V. c #A29FA8",
"!  c #43A115",
"`  c #6E748A",
"p  c #10660D",
"<. c #D2D9E9",
"*. c #A09FA5",
"A. c #A5A0A6",
"x  c #FFFDFE",
"N. c #9EA2A5",
"H  c #49AC13",
"1  c #FFFDFF",
"K  c #49AC14",
"d. c #C6D1E3",
"_  c #9E9FA1",
"C  c #0E660F",
"B  c #77DA0D",
"&  c #6C7184",
"   c None",
"7  c #FDFDFB",
".  c #6C718E",
"9. c #D3DAE2",
"]  c #11670C",
"s  c #A1A09E",
"l. c #6F7283",
"$  c #687482",
"w. c #BDCDDA",
"k. c #A1A0A5",
"B. c #A19D9E",
";. c #FBFAF6",
">. c #ECEBF3",
"v  c #030550",
"R  c #105111",
"D. c #9FA0A4",
"v. c #030250",
"%  c #727385",
",  c #FEFEFC",
">  c #FEFEFE",
"G  c #48AD13",
";  c #FEFEFF",
"h. c #BBC7D7",
"4. c #6B7282",
"#. c #E8EEEE",
"X  c #6B7285",
"E  c #45A015",
/* pixels */
"                                ",
"    . X o O + @ # $ % & * =     ",
"    * - ; : > , < ; 1 2 3 4     ",
"    X 5 6 7 3 8 9 0 < < q w     ",
"    e r t > y u i p q q < a s   ",
"    d > f g h j k l z x c v b   ",
"    n m M l i N N B V C Z A S   ",
"    D q F G G H G J K L P I U   ",
"    Y T R E W Q ! ~ ^ / ( ) _   ",
"    ` ' ] f g [ { } [ |  .A ..  ",
"    D X.o.O.0 +.@.f #.$.%.&.*.  ",
"    o =.-.7 ;.P :.>.,.<.1.2.3.  ",
"    4.5.y 6.7.8.,.9.0.q.w.e.r.  ",
"    t.y.u.i.p.a.s.d.f.g.h.j.k.  ",
"    l.z.x.c.v.b.n.4 4 m.M.A N.  ",
"      B.V.C.Z.S s b A...S.D.F.  "
};
