/* XPM */
static const char *marker-previous_xpm[] = {
/* columns rows colors chars-per-pixel */
"16 16 155 2",
"d. c #707386",
"y  c #FCFEFD",
"b. c #A29E9F",
"6. c #BECBDB",
"'  c #060354",
"P  c #FCFBFF",
"Y  c #43A014",
"q  c #115210",
"Q  c #115212",
"o  c #6E7387",
"x  c #A0A1A6",
"2  c #FAFEFF",
"m. c #A09E9F",
"-. c #D2D8E8",
"k. c #040353",
">  c #FFFFFD",
"<  c #FFFFFF",
"e  c #02064D",
":  c #FFFCF9",
"C  c #A09BA1",
"@  c #6C7383",
"d  c #6C7385",
"*  c #6C7386",
"f  c #FFFCFF",
"(  c #46A115",
"w. c #E4E8E9",
"$  c #717485",
"p  c #FDFFFC",
"+. c #020355",
"9  c #FDFFFE",
"f. c #020356",
"}  c #13660E",
"N. c #9E9BA2",
"a  c #000654",
"t. c #CED8E1",
"W  c #44A115",
"Z  c #116609",
"O  c #6F7487",
"S  c #4CAC14",
"g  c #FBFFFE",
"0  c #11660B",
"x. c #030A52",
"n. c #A19FA4",
"&  c #6F7186",
"o. c #E7E6EC",
"+  c #6D7484",
"c  c #6D7486",
"h  c #78DA0B",
"4  c #030454",
"i. c #BBC9D6",
"7  c #FEFDF8",
"l  c #FEFDF9",
"a. c #080552",
"y. c #C5D1DF",
"=  c #FEFDFF",
"A  c #48AC14",
"k  c #0D660A",
"R  c #45A216",
"=. c #E0DFED",
"J  c #060551",
",. c #F2F5FA",
"l. c #060555",
"B  c #FCFDFF",
"p. c #B9C6D7",
"~  c #040851",
" . c #106708",
"2. c #DCE5EE",
"L  c #6E7588",
"M  c #79DB0A",
"m  c #79DB0C",
"u. c #BCCAD3",
"T  c #41A214",
";  c #FFFEFA",
"8  c #FFFEFC",
"K  c #A09DA6",
"H  c #FFFEFF",
"I  c #0E670B",
"F  c #49AD17",
"v  c #77DB0B",
"G  c #0F5111",
"z. c #020554",
"$. c #FFFBFF",
"X. c #E9EEF1",
".  c #6C728A",
"M. c #A3A1A2",
"8. c #9E9DA3",
"O. c #DFE3EC",
"e. c #DFE3EE",
"B. c #A39EA2",
"^  c #9CA0A1",
"V. c #A39EA4",
"{  c #FDFBFC",
"@. c #A39EA5",
"!  c #FDFBFE",
"c. c #000253",
"%. c #FBFBF9",
".. c #F6F7FB",
"j  c #78DC08",
"N  c #105212",
"_  c #0F650A",
"6  c #FEFFF7",
"]  c #9F9EA3",
"A. c #9F9EA4",
"-  c #FEFFFD",
"4. c #CAD7E0",
"3  c #FEFFFF",
"7. c #030359",
"b  c #76DC0C",
"0. c #F9F8FD",
"E  c #45A112",
"#  c #6B7388",
",  c #FCFFF8",
"g. c #010350",
"h. c #06075A",
"r. c #D2DCDD",
"<. c #EDF0F7",
"V  c #060457",
"u  c #10660B",
"&. c #10660D",
"n  c #79DA0F",
"S. c #A09FA4",
"`  c #F0F1F5",
"C. c #A5A0A6",
"1  c #FFFDFE",
"D  c #49AC14",
">. c #A3A3A1",
"D. c #9E9FA1",
":. c #020451",
"i  c #77DA0D",
"%  c #6C7184",
"5  c #6C7185",
"[  c #FFFAFF",
"   c None",
"j. c #02014F",
";. c #CBD2E4",
"w  c #FDFDFB",
"9. c #6F7581",
"5. c #C4CED8",
"|  c #44A216",
"r  c #6A7181",
"U  c #44A218",
"3. c #D3DAE2",
"s  c #A1A09C",
")  c #11670E",
"s. c #A1A0A8",
"v. c #9FA3A4",
"Z. c #9FA0A2",
"z  c #030552",
"1. c #E5EAF0",
"*. c #EAEEF1",
"#. c #FEFEF6",
"q. c #EFEFEF",
"/  c #FEFEFC",
"t  c #FEFEFE",
"X  c #6B7282",
/* pixels */
"                                ",
"    . X o O + o @ # $ % & *     ",
"    o = - ; : > , < 1 2 3 4     ",
"    5 6 7 8 9 0 q w > < 1 e     ",
"    r t y y u i 0 p < < > a s   ",
"    d f g 0 h j u u 0 k l z x   ",
"    c t u v b v n m M N B V C   ",
"    c Z A S D D A D F G H J K   ",
"    L P I U Y T R E W Q ! ~ ^   ",
"    L l / 0 ( Y u ) 0 _ ` ' ]   ",
"    c [ { 9 } |  ...X.o.O.+.@.  ",
"    c y #.$.%.I &.*.=.-.;.:.>.  ",
"    @ < y ,.<.1.2.3.4.5.6.7.8.  ",
"    9.0.q.w.e.r.t.y.u.i.p.a.s.  ",
"    d.f.g.h.j.k.l.+.z.x.c.' v.  ",
"      b.n.m.M.N.B.V.C.Z.A.S.D.  "
};
