/* XPM */
static const char *marker_xpm[] = {
/* columns rows colors chars-per-pixel */
"16 16 38 1",
"y c #12650B",
". c #115212",
"p c #44A115",
"# c #11660B",
"$ c #78DA0B",
", c #105013",
"q c #40A114",
"< c #48AC14",
"0 c #45A216",
"& c #106708",
"; c #79DB0C",
"X c #0E6709",
"* c #77DB09",
"5 c #49AD17",
"> c #0E670D",
"% c #77DB0B",
"8 c #44A315",
"= c #75DB0B",
"e c #44A019",
"r c #11650D",
"- c #78DC0C",
": c #76DC0C",
"9 c #43A117",
"@ c #10660B",
"t c #10660D",
"3 c #49AC11",
"2 c #49AC13",
"4 c #49AC14",
"  c None",
"O c #75DD0E",
"1 c #47AC12",
"u c #44A216",
"6 c #4CAD12",
"i c #11670C",
"+ c #11670E",
"o c #11640A",
"7 c #105111",
"w c #45A017",
/* pixels */
"                ",
"                ",
"                ",
"                ",
"       .X       ",
"       oO+      ",
"    @@#@$%&     ",
"    .*=%-;:>    ",
"    ,<123456o   ",
"    7890qwer    ",
"    t@y@9ui     ",
"       ipo      ",
"       ##       ",
"                ",
"                ",
"                "
};
