/* XPM */
static const char *run_shell_xpm[] = {
/* columns rows colors chars-per-pixel */
"16 16 136 2",
"W  c Black",
"l  c #000002",
"=. c #000004",
"}  c #000005",
"-. c #050100",
"g  c #5A6070",
"^  c #FAFEFD",
"I  c #5F6170",
"-  c #6E7387",
"|  c #3A4559",
"_  c #030102",
"F  c #030104",
"2. c #3A4561",
"r. c #A09EA9",
" . c #A09EAB",
"9  c #444D6C",
"0. c #384558",
"/  c #FDFFFA",
"D  c #010100",
"]  c #5B646D",
"R  c #010101",
"c  c #010103",
"s  c #353FEE",
"0  c #9E9BA2",
"{  c #FDFCFF",
"a. c #A1A2A4",
"2  c #333FEB",
"4  c #333FED",
"=  c #6D7783",
":  c #596478",
"A  c #040205",
"O. c #020200",
":. c #3B405D",
".  c #868B9E",
")  c #020202",
"(  c #020204",
"s. c #9F9FAB",
"u  c #2F3FEA",
"N  c #9A98A5",
"r  c #2F3FEC",
".. c #5A656B",
"G  c #000200",
"b  c #000201",
"y  c #3440EE",
"Z  c #000205",
"e  c #2D42ED",
"7  c #2D3FE7",
"<. c #3E4160",
"~  c #5A626F",
"'  c #A2A0AD",
"M  c #2B4776",
"O  c #697184",
"i  c #3240EB",
"m  c #050004",
"!  c #9B9FAA",
"i. c #A0A0A2",
"f  c #9698A5",
"&  c #6E728B",
"T  c #DCDCDE",
"4. c #3A445D",
"7. c #3A445F",
"%. c #5D6371",
"1  c #3040ED",
",  c #3040EE",
"v  c #010300",
"z  c #010302",
"w. c #56626E",
"5  c #303DEC",
"e. c #9EA0AC",
"j  c #010000",
"8  c #2E40EA",
"&. c #010004",
"X. c #010005",
"k  c #010006",
"h. c #A39EA5",
"f. c #A3A1AF",
"B  c #5B6074",
"6. c #36445F",
"p  c #333EEE",
";  c #6F7082",
"p. c #9FA4A8",
"w  c #3141EF",
"E  c #020403",
"@. c #020100",
"3  c #2F41EB",
"*. c #020106",
"o  c #6B7380",
"t  c #3442EB",
"#. c #39425F",
"+  c #6B7388",
"U  c #000405",
"Q  c #393F59",
"+. c #D9DAD5",
"t. c #9D9EA3",
"h  c #000103",
"J  c #000105",
"u. c #A2A2AA",
"*  c #707185",
"9. c #3C465F",
"q. c #3C4661",
"$. c #9B9EA5",
">  c #323FEE",
"d  c #4E658F",
"C  c #030200",
"5. c #354566",
"a  c #3042EC",
"`  c #3A4660",
"Y  c #030207",
";. c #FFFDFE",
"8. c #3A4362",
"   c None",
"n  c #010204",
"x  c #010206",
"o. c #FDFDFF",
"P  c #9E9CA9",
"X  c #6A7184",
"<  c #3340EE",
"y. c #A1A0A5",
">. c #A1A0A6",
"%  c #6D7582",
"H  c #040001",
"[  c #040003",
",. c #5E606C",
"@  c #6D7285",
"L  c #394764",
"q  c #52617E",
"1. c #575F6C",
"V  c #020001",
"S  c #020003",
"3. c #3E4861",
"d. c #9F9DA8",
"6  c #2F40EE",
"g. c #9F9DAA",
"#  c #727391",
"K  c #000302",
"$  c #707384",
/* pixels */
"                                ",
"                                ",
"  . X o O + @ # $ % & * = - ;   ",
"  : > , < 1 2 3 4 5 2 6 7 8 9 0 ",
"  q w e , r t 6 y u i p a s d f ",
"  g h j h k l z x c v b n m M N ",
"  B V C Z A S D F G H h J K L P ",
"  I j l U Y T R c b E W W S Q ! ",
"  ~ V K ^ V / ( ) j _ W x J ` ' ",
"  ] S l ) [ l { W ) W ( } D |  .",
"  ..v X.o.O.G +.h n J F j @.#.$.",
"  %.b c &.*.=.-.;.S W W l O.:.>.",
"  ,.l W @.R _ W z h D z G b <.P ",
"  1.2.3.4.5.6.7.8.4.9.0.2.q.w.e.",
"    r.t.y.u.i.p.a.s.d.f.g.'  .h.",
"                                "
};
