/* XPM */
static char * searchbar_close_xpm[] = {
"16 16 50 1",
" 	c None",
".	c #FFFFFF",
"+	c #FEFEFE",
"@	c #FEFEFF",
"#	c #FDFDFD",
"$	c #7F7F7F",
"%	c #808080",
"&	c #828282",
"*	c #818181",
"=	c #FCFCFC",
"-	c #FBFBFB",
";	c #F8F8F8",
">	c #F9F9F9",
",	c #FAFAFA",
"'	c #F6F6F6",
")	c #F7F7F7",
"!	c #F5F5F5",
"~	c #F3F3F5",
"{	c #F5F5F7",
"]	c #F4F4F6",
"^	c #818183",
"/	c #F1F2F4",
"(	c #807E7F",
"_	c #F3F1F2",
":	c #F2F2F2",
"<	c #F2F3F5",
"[	c #F3F2F7",
"}	c #F1F1F3",
"|	c #808082",
"1	c #EFEFF1",
"2	c #F1EFF2",
"3	c #7E7F81",
"4	c #818382",
"5	c #F0F2F1",
"6	c #F2F2F4",
"7	c #F0EFF4",
"8	c #EEEEF0",
"9	c #F0F0F2",
"0	c #EDEEF2",
"a	c #ECEDF1",
"b	c #EFEDF0",
"c	c #ECECEE",
"d	c #EBEBED",
"e	c #EDEDEF",
"f	c #EAEAEC",
"g	c #EBEAEF",
"h	c #EAE9EE",
"i	c #EAEBEF",
"j	c #EAEBED",
"k	c #E9E9EB",
"                ",
"......++.+.+.@@ ",
".+...+......+.. ",
".....#..+++...# ",
"..+$%..+.+&%... ",
"..+.*$+.+%$.... ",
"...++*%+%*+#... ",
"==-==#%%%-=#=-= ",
";>>>>;*&%,;,;>> ",
"''')!%%'*%)''') ",
"~{]]^^{]/^(_:<[ ",
"}}~||1}}2~34567 ",
"818189180a18b88 ",
"cdcdefdcggghijk ",
"ccccccccccccccc ",
"                "};
