/* XPM */
static char * preview_xpm[] = {
"16 16 38 1",
" 	c None",
".	c #3B455E",
"+	c #FFFFFF",
"@	c #000000",
"#	c #FEFFFE",
"$	c #9F9FA2",
"%	c #F7FBF3",
"&	c #FDFEFC",
"*	c #1A1913",
"=	c #212121",
"-	c #1D1C1A",
";	c #F7F7F7",
">	c #FCFEFB",
",	c #28282D",
"'	c #3E3E43",
")	c #191711",
"!	c #FDFDFD",
"~	c #35322E",
"{	c #FBFBFC",
"]	c #232324",
"^	c #454646",
"/	c #020202",
"(	c #F4F6F7",
"_	c #E9EDF2",
":	c #312C21",
"<	c #EFEFEF",
"[	c #49494A",
"}	c #727476",
"|	c #755332",
"1	c #3A3B48",
"2	c #42435F",
"3	c #3F423D",
"4	c #070000",
"5	c #237DF1",
"6	c #003C82",
"7	c #413C36",
"8	c #1A8BFF",
"9	c #0F0F0F",
"                ",
" ..........     ",
" .+++++++.+.    ",
" .+++++++.++@   ",
" .+++##++...@$  ",
" .+#++%#++++@$  ",
" .+&++*=-;++@$  ",
" .+>+,+++'++@$  ",
" .+#)++!++~{@$  ",
" .++]+!+++^+@$  ",
" .++/++(_+:+@$  ",
" .++<[+++}@|@$  ",
" .++++1234564$  ",
" .++++++++7867  ",
" .@@@@@@@@9487  ",
"  $$$$$$$$$$7$  "};
