/* XPM */
static char * reload_xpm[] = {
"16 16 11 1",
" 	c None",
".	c #000000",
"+	c #A8AFA0",
"@	c #DEE6D6",
"#	c #CCDCB8",
"$	c #BDD2A1",
"%	c #BAD09D",
"&	c #9FA498",
"*	c #7CC235",
"=	c #3F7F00",
"-	c #9CB476",
"                ",
"     .          ",
"   ..+.         ",
"  .@#$%.        ",
" .&**=*.        ",
" .*=.=.         ",
" .*. .     .    ",
" .=.       ..   ",
"  ..       .@.  ",
"   .     . .*.  ",
"        .@.=*.  ",
"       .@***=.  ",
"       .-*==.   ",
"        .-..    ",
"         .      ",
"                "};
