/* XPM */
static char * search_replace_xpm[] = {
"16 16 5 1",
" 	c None",
".	c #000000",
"+	c #FFFFFF",
"@	c #9FA0A2",
"#	c #DADADA",
"                ",
"                ",
"                ",
"                ",
"    ..   ..     ",
"   .+.@  .+.    ",
"  .++.....++.   ",
" .+++++++++++.  ",
" .###########.  ",
"  .##.....##.@  ",
"  @.#.@@@.#.@   ",
"   @..   ..@    ",
"    @@   @@     ",
"                ",
"                ",
"                "};
