/* XPM */
static const char *run-skript_xpm[] = {
/* columns rows colors chars-per-pixel */
"15 17 106 2",
"'  c #060653",
"Y  c #BECBDB",
"v  c #060354",
"o  c #6E7387",
"y  c #A0A1A6",
"s  c #871412",
"2  c #FAFEFF",
"S  c #D2D8E8",
"f  c #869A87",
"[  c #040353",
">  c #FFFFFD",
"<  c #FFFFFF",
"7  c #02064D",
":  c #FFFCF9",
"a  c #A09BA1",
"@  c #6C7383",
"w  c #6C7385",
"*  c #6C7386",
"$  c #717485",
"o. c #949397",
"9  c #FDFFFC",
"B  c #020355",
"J  c #DADDE4",
"@. c #9E9BA2",
"0  c #000654",
"!  c #CED8E1",
"C  c #EB582D",
"O  c #6F7487",
"|  c #030A52",
"&  c #6F7186",
"M  c #E7E6EC",
"+  c #6D7484",
"u  c #6D7486",
"4  c #030454",
"/  c #BBC9D6",
"r  c #FEFDF9",
")  c #080552",
"~  c #C5D1DF",
"=  c #FEFDFF",
"A  c #E0DFED",
"h  c #060551",
"{  c #060555",
"i  c #FCFDFF",
"(  c #B9C6D7",
"z  c #040851",
"L  c #DCE5EE",
"^  c #BCCAD3",
"k  c #E16A56",
"d  c #EBEBEB",
";  c #FFFEFA",
"j  c #A09DA6",
"g  c #FFFEFF",
"}  c #020554",
"m  c #E9EEF1",
".  c #6C728A",
"R  c #9E9DA3",
"N  c #DFE3EC",
"#. c #A39EA2",
"x  c #9CA0A1",
"$. c #A39EA4",
"V  c #A39EA5",
"l  c #FDFBFE",
" . c #000253",
"W  c #CED1DB",
"n  c #F6F7FB",
"b  c #9F9EA3",
"*. c #9F9EA4",
"-  c #FEFFFD",
"I  c #CAD7E0",
"3  c #FEFFFF",
"T  c #030359",
"`  c #01034A",
"#  c #6B7388",
",  c #FCFFF8",
"Q  c #D2DCDD",
"p  c #060457",
"E  c #D2D6D7",
"+. c #969495",
"=. c #A09FA4",
"H  c #E60603",
"c  c #F0F1F5",
"%. c #A5A0A6",
"1  c #FFFDFE",
"G  c #A3A3A1",
"-. c #9E9FA1",
"F  c #020451",
"%  c #6C7184",
"]  c #020149",
"5  c #6C7185",
"   c None",
"D  c #CBD2E4",
"6  c #FDFDFB",
"U  c #C4CED8",
"8  c #6A7181",
"P  c #D3DAE2",
"q  c #A1A09C",
"e  c #91A792",
"_  c #A1A0A8",
".. c #9FA3A4",
"&. c #9FA0A2",
"t  c #030552",
"K  c #E5EAF0",
"Z  c #EAEEF1",
"X. c #959293",
"X  c #6B7282",
"O. c #939293",
/* pixels */
"                              ",
"    . X o O + o @ # $ % & *   ",
"    o = - ; : > , < 1 2 3 4   ",
"    5 < < < < < < 6 > < 1 7   ",
"    8 < < < < < < 9 < < > 0 q ",
"    w < < e e e e e e < r t y ",
"    u < < < < < < < < < i p a ",
"  s s d d f f e e e e < g h j ",
"  s k s d d d < < < < < l z x ",
"  s k k s d d e e e e < c v b ",
"  s k k k s d < < n m M N B V ",
"  s C C C C s < < Z A S D F G ",
"  s H H H s J K L P I U Y T R ",
"  s H H s E W Q ! ~ ^ / ( ) _ ",
"  s H s ` ' ] [ { B } |  .v ..",
"  s s X.o.O.+.@.#.$.%.&.*.=.-.",
"                              "
};
