/* XPM */
static const char *stay_on_top_xpm[] = {
/* columns rows colors chars-per-pixel */
"16 16 188 2",
"6. c #FCFEFB",
"`  c #707386",
"x  c #6078F2",
"|  c #FCFEFD",
"M  c #3E425F",
"_  c #A2A1A7",
"p. c #92A287",
"t  c #697281",
":. c #8BA791",
"XX c #A99CA6",
"C. c #35475F",
"g. c #8BA48F",
"@. c #A29EAC",
"l. c #A0A1A5",
"3. c #FAFEFD",
" X c #A0A1A6",
"~  c #FAFEFF",
"%. c #6C7680",
"i. c #FFFFFF",
"[. c #A59FA1",
"z. c #586073",
"/  c #FFFCFB",
"$  c #6C7383",
"{  c #F8FEFA",
"&. c #FFFCFD",
"<  c #C1C3BE",
"%  c #6C7386",
"8. c #FDFFF7",
"B  c #FDFFFA",
"T. c #323465",
"i  c #6C7089",
"b. c #FDFCF7",
"2. c #5B6473",
"5. c #FDFCFF",
"Q. c #3C3666",
"@  c #6A7086",
"I  c #FBFFFF",
"+  c #6F748A",
"e. c #3B465A",
"|. c #A19FA4",
"a. c #8FA98E",
",  c #C2C4B9",
".. c #FBF9FC",
"F  c #454FEF",
"-. c #8FA68C",
"#. c #6D7487",
"M. c #F9FFFF",
"]. c #A6A0AC",
"Y  c #667384",
"N. c #FEFDF9",
"0  c #C7C5C6",
"S. c #2C3463",
"R  c #FEFDFB",
"2  c #C2C1C7",
"d. c #8DA689",
"7  c #9DA2A6",
"}. c #A2A39E",
"N  c #9D9F9E",
":  c #BDB7BB",
"G  c #4E64ED",
"(. c #57555A",
"A. c #5C5F70",
"y  c #6B7187",
"$. c #FCFDF5",
"m  c #91B8FD",
"p  c #707589",
"9  c #B1B2B4",
"0. c #FCFDF8",
"). c #A2A0A5",
"S  c #272BEC",
"h  c #75768A",
",. c #F5FFFE",
"n  c #89A7FF",
"v. c #FCFAFB",
"w. c #FCFAFD",
"o. c #FAFDF2",
"j. c #FAFDF6",
"*  c #677484",
"8  c #6C7888",
"k  c #323AE5",
"!  c #FFFEF9",
"z  c #5162EE",
"x. c #FFFEFC",
"~. c #3A445D",
"6  c #6C7586",
"W  c #FFFEFF",
"c. c #585F71",
"O. c #FFFBF8",
"e  c #6E6F8B",
"#  c #6C7280",
"a  c #6C7282",
"'. c #A09AA6",
".  c #657487",
"7. c #FDFEF9",
"U. c #5B636E",
"X  c #717388",
"W. c #353A60",
"c  c #738BEF",
"s  c #71738A",
">  c #C4C9C3",
"3  c #C1BFC4",
"[  c #FDFBFE",
"T  c #FDFBFF",
"V. c #FBFEF5",
"D  c #3538E5",
"s. c #8CA48E",
"t. c #5B6074",
"4. c #6A6F83",
"L  c #3B485B",
"R. c #353767",
"K. c #3D425F",
"f  c #FDF8FE",
"=. c #8AA791",
"r. c #9FA4A7",
"+. c #3B425E",
"v  c #7CA0F8",
"E  c #FEFFFA",
"w  c #707A83",
"`. c #98A0A2",
" . c #FEFFFF",
")  c #3E465D",
"oX c #A49FA6",
"Z  c #1D25E0",
"V  c #FCFFF8",
"J  c #6F85F4",
">. c #86A794",
"q  c #78828E",
"^  c #FCFCFA",
"D. c #313165",
"=  c #6B708E",
"Q  c #F7F8FD",
"^. c #3C4661",
"B. c #FAFCEE",
"&  c #6E7484",
"L. c #A29CA6",
"(  c #FAFCF7",
"H  c #5E76F2",
"_. c #A09FA7",
"J. c #FFFDF6",
"l  c #3D51E6",
"n. c #FAF9F7",
"r  c #73758C",
"h. c #F8FFF7",
"f. c #89A58F",
"d  c #6C7481",
"g  c #FFFDFA",
"k. c #3F475C",
"}  c #FFFDFF",
"/. c #3D4A5B",
"q. c #FFFAFC",
"u. c #5D5F6E",
"   c None",
"]  c #6A7787",
"P. c #9CA2A0",
"!. c #3C3A6B",
"X. c #F6FFFE",
"{. c #A3A0AB",
";  c #ADA8AE",
"-  c #6F7585",
"Y. c #3D4460",
";. c #91A790",
"C  c #1E1DE3",
"m. c #FBFDF8",
"9. c #F4FFF6",
"H. c #FBFDFA",
"A  c #1C23E5",
"E. c #353666",
"O  c #687484",
".X c #A1A0A6",
"U  c #FBFAF5",
"I. c #A1A0A8",
"'  c #FBFAFF",
"<. c #3B4461",
"4  c #C4BFC3",
"K  c #90ACEB",
"u  c #6D7285",
"5  c #C9C0C1",
"Z. c #9FA0A5",
"1. c #9F9DA2",
"G. c #FEFEFC",
"F. c #5C636D",
"y. c #FEFEFE",
"j  c #2929E9",
"1  c #C0C2BD",
"o  c #6B7284",
"b  c #7FA3F9",
"P  c #9D9D9D",
"*. c #8DA490",
/* pixels */
"                                ",
". X o O + @ # $ % & * =         ",
"- ; : > , < 1 2 3 4 5 6 7       ",
"8 9 0 q w e r t y u i p a s u , ",
"d f g h j k l z x c v b n m M N ",
"X B V d C Z A S D F G H J K L P ",
"6 I U Y T R E W Q ! ~ ^ / ( ) _ ",
"` ' V ] [ { } |  .B ..X.o.O.+.@.",
"#./ $.%.&.*.=.-.;.:.>.E ^ ,.<.1.",
"2.V 3.4.5.6.7.8.9.O.B 0.q.w.e.r.",
"t.y.| u.i.p.a.s.d.f.g.h...j.k.l.",
"z.w.x.c.v.y.b.n.R m.M.N.B.V.C.Z.",
"A.S.D.F.G.x.x.H.E J.E N.m.^ K.L.",
"  P.I.U.Y.T.R.E.W.Q.!.~.^./.(.).",
"        _.`.'.].[.{.}.|. X.XXXoX",
"                                "
};
