<?xml version="1.0" encoding="UTF-8" standalone="yes"?>
<!DOCTYPE svg PUBLIC "-//W3C//DTD SVG 1.0//EN" "http://www.w3.org/TR/2001/REC-SVG-20010904/DTD/svg10.dtd">
<svg height="450" width="900" xmlns="http://www.w3.org/2000/svg" xmlns:svg="http://www.w3.org/2000/svg" xmlns:xlink="http://www.w3.org/1999/xlink">
	<rect fill="black" height="400" rx="20" ry="20" width="150" x="25" y="25" />
	<circle cx="100" cy="100" fill="rgb(63,0,0)" r="50" />
	<circle cx="100" cy="225" fill="rgb(59,29,0)" r="50" />
	<circle cx="100" cy="350" fill="green" r="50" />
	<rect fill="black" height="400" rx="20" ry="20" width="150" x="200" y="25" />
	<circle cx="275" cy="100" fill="rgb(63,0,0)" r="50" />
	<circle cx="275" cy="225" fill="orange" r="50" />
	<circle cx="275" cy="350" fill="rgb(0,63,0)" r="50" />
	<rect fill="black" height="400" rx="20" ry="20" width="150" x="375" y="25" />
	<circle cx="450" cy="100" fill="red" r="50" />
	<circle cx="450" cy="225" fill="rgb(59,29,0)" r="50" />
	<circle cx="450" cy="350" fill="rgb(0,63,0)" r="50" />
	<rect fill="black" height="400" rx="20" ry="20" width="150" x="550" y="25" />
	<circle cx="625" cy="100" fill="red" r="50" />
	<circle cx="625" cy="225" fill="orange" r="50" />
	<circle cx="625" cy="350" fill="rgb(0,63,0)" r="50" />
	<rect fill="black" height="400" rx="20" ry="20" width="150" x="725" y="25" />
	<circle cx="800" cy="100" fill="rgb(63,0,0)" r="50" />
	<circle cx="800" cy="225" fill="rgb(59,29,0)" r="50" />
	<circle cx="800" cy="350" fill="green" r="50" />
	<!-- 
	Generated using the Perl SVG Module V2.64
	by Ronan Oger
	Info: http://www.roitsystems.com/
 -->
</svg>
