<?xml version="1.0" encoding="UTF-8" standalone="no"?>
<!DOCTYPE svg PUBLIC "-//W3C//DTD SVG 1.1//EN"
 "http://www.w3.org/Graphics/SVG/1.1/DTD/svg11.dtd">
<!-- Generated by graphviz version 2.38.0 (20140413.2041)
 -->
<!-- Title: G Pages: 1 -->
<svg width="908pt" height="332pt"
 viewBox="0.00 0.00 908.00 332.00" xmlns="http://www.w3.org/2000/svg" xmlns:xlink="http://www.w3.org/1999/xlink">
<g id="graph0" class="graph" transform="scale(1 1) rotate(0) translate(4 328)">
<title>G</title>
<polygon fill="white" stroke="none" points="-4,4 -4,-328 904,-328 904,4 -4,4"/>
<!-- a -->
<g id="node1" class="node"><title>a</title>
<ellipse fill="none" stroke="black" cx="18" cy="-306" rx="18" ry="18"/>
</g>
<!-- Z -->
<g id="node2" class="node"><title>Z</title>
<ellipse fill="none" stroke="black" cx="450" cy="-162" rx="18" ry="18"/>
</g>
<!-- a&#45;&gt;Z -->
<g id="edge1" class="edge"><title>a&#45;&gt;Z</title>
<path fill="none" stroke="black" d="M32.408,-294.802C36.3591,-292.323 40.7329,-289.855 45,-288 215.738,-213.77 450,-181 450,-181"/>
<text text-anchor="middle" x="48.8304" y="-265.996" font-family="Times,serif" font-size="14.00">none</text>
</g>
<!-- A -->
<g id="node19" class="node"><title>A</title>
<ellipse fill="none" stroke="black" cx="18" cy="-18" rx="18" ry="18"/>
</g>
<!-- Z&#45;&gt;A -->
<g id="edge18" class="edge"><title>Z&#45;&gt;A</title>
<path fill="none" stroke="black" d="M450,-143C450,-143 215.738,-110.23 45,-36 40.7329,-34.1448 36.3591,-31.6768 32.408,-29.1978"/>
<text text-anchor="middle" x="62.1963" y="-29.0553" font-family="Times,serif" font-size="14.00">none</text>
</g>
<!-- B -->
<g id="node20" class="node"><title>B</title>
<ellipse fill="none" stroke="black" cx="72" cy="-18" rx="18" ry="18"/>
</g>
<!-- Z&#45;&gt;B -->
<g id="edge19" class="edge"><title>Z&#45;&gt;B</title>
<path fill="none" stroke="black" d="M450,-143C450,-143 276.651,-109.495 123.349,-45.344"/>
<polygon fill="black" stroke="black" points="128.706,-32.4054 86.4562,-29.0896 117.416,-58.0287 128.706,-32.4054"/>
<text text-anchor="middle" x="116.449" y="-24.7495" font-family="Times,serif" font-size="14.00">normal</text>
</g>
<!-- C -->
<g id="node21" class="node"><title>C</title>
<ellipse fill="none" stroke="black" cx="126" cy="-18" rx="18" ry="18"/>
</g>
<!-- Z&#45;&gt;C -->
<g id="edge20" class="edge"><title>Z&#45;&gt;C</title>
<path fill="none" stroke="black" d="M450,-143C450,-143 307.212,-104.997 176.838,-46.0994"/>
<polygon fill="black" stroke="black" points="146.503,-16.2885 176.692,-46.0307 134.544,-41.6065 146.503,-16.2885"/>
<text text-anchor="middle" x="170.523" y="-25.3953" font-family="Times,serif" font-size="14.00">inv</text>
</g>
<!-- D -->
<g id="node22" class="node"><title>D</title>
<ellipse fill="none" stroke="black" cx="180" cy="-18" rx="18" ry="18"/>
</g>
<!-- Z&#45;&gt;D -->
<g id="edge21" class="edge"><title>Z&#45;&gt;D</title>
<path fill="none" stroke="black" d="M450,-143C450,-143 332.799,-99.3965 223.324,-43.7407"/>
<ellipse fill="black" stroke="black" cx="208.805" cy="-36.1594" rx="16" ry="16"/>
<text text-anchor="middle" x="224.592" y="-26.3996" font-family="Times,serif" font-size="14.00">dot</text>
</g>
<!-- E -->
<g id="node23" class="node"><title>E</title>
<ellipse fill="none" stroke="black" cx="234" cy="-18" rx="18" ry="18"/>
</g>
<!-- Z&#45;&gt;E -->
<g id="edge22" class="edge"><title>Z&#45;&gt;E</title>
<path fill="none" stroke="black" d="M450,-143C450,-143 363.395,-96.0863 276.56,-44.9795"/>
<ellipse fill="none" stroke="black" cx="262.534" cy="-36.6489" rx="16" ry="16"/>
<text text-anchor="middle" x="278.629" y="-27.7618" font-family="Times,serif" font-size="14.00">odot</text>
</g>
<!-- F -->
<g id="node24" class="node"><title>F</title>
<ellipse fill="none" stroke="black" cx="288" cy="-18" rx="18" ry="18"/>
</g>
<!-- Z&#45;&gt;F -->
<g id="edge23" class="edge"><title>Z&#45;&gt;F</title>
<path fill="none" stroke="black" d="M450,-143C450,-143 402.773,-106.851 359.317,-73.5884"/>
<polygon fill="black" stroke="black" points="310.321,-18.4551 333.575,-53.8847 293.303,-40.6893 310.321,-18.4551"/>
<ellipse fill="black" stroke="black" cx="346.28" cy="-63.6098" rx="16" ry="16"/>
<text text-anchor="middle" x="331.109" y="-32.3304" font-family="Times,serif" font-size="14.00">invdot</text>
</g>
<!-- G -->
<g id="node25" class="node"><title>G</title>
<ellipse fill="none" stroke="black" cx="342" cy="-18" rx="18" ry="18"/>
</g>
<!-- Z&#45;&gt;G -->
<g id="edge24" class="edge"><title>Z&#45;&gt;G</title>
<path fill="none" stroke="black" d="M450,-143C450,-143 426.14,-115.605 400.849,-86.5674"/>
<polygon fill="black" stroke="black" points="364.115,-23.0752 379.829,-62.4334 343.001,-41.4651 364.115,-23.0752"/>
<ellipse fill="none" stroke="black" cx="390.338" cy="-74.4988" rx="16" ry="16"/>
<text text-anchor="middle" x="380.976" y="-40.746" font-family="Times,serif" font-size="14.00">invodot</text>
</g>
<!-- H -->
<g id="node26" class="node"><title>H</title>
<ellipse fill="none" stroke="black" cx="396" cy="-18" rx="18" ry="18"/>
</g>
<!-- Z&#45;&gt;H -->
<g id="edge25" class="edge"><title>Z&#45;&gt;H</title>
<path fill="none" stroke="black" d="M450,-143C450,-143 433.598,-105.336 418.873,-71.524"/>
<polygon fill="black" stroke="black" points="402.839,-34.7047 435.313,-64.1913 410.825,-53.0414 418.81,-71.3781 418.81,-71.3781 418.81,-71.3781 410.825,-53.0414 402.307,-78.5649 402.839,-34.7047 402.839,-34.7047"/>
<text text-anchor="middle" x="425.319" y="-50.8706" font-family="Times,serif" font-size="14.00">open</text>
</g>
<!-- I -->
<g id="node27" class="node"><title>I</title>
<ellipse fill="none" stroke="black" cx="450" cy="-18" rx="18" ry="18"/>
</g>
<!-- Z&#45;&gt;I -->
<g id="edge26" class="edge"><title>Z&#45;&gt;I</title>
<path fill="none" stroke="black" d="M450,-143C450,-143 450,-108.839 450,-76.3777"/>
<polygon fill="black" stroke="black" points="450,-36.2417 468,-76.2416 450,-56.2417 450,-76.2417 450,-76.2417 450,-76.2417 450,-36.2417"/>
<text text-anchor="middle" x="462.679" y="-59.7309" font-family="Times,serif" font-size="14.00">halfopen</text>
<text text-anchor="middle" x="437.321" y="-112.111" font-family="Times,serif" font-size="14.00">sametail</text>
</g>
<!-- J -->
<g id="node28" class="node"><title>J</title>
<ellipse fill="none" stroke="black" cx="504" cy="-18" rx="18" ry="18"/>
</g>
<!-- Z&#45;&gt;J -->
<g id="edge27" class="edge"><title>Z&#45;&gt;J</title>
<path fill="none" stroke="black" d="M450,-143C450,-143 466.402,-105.336 481.127,-71.524"/>
<polygon fill="none" stroke="black" points="494.026,-76.9678 497.161,-34.7047 468.354,-65.7883 494.026,-76.9678"/>
<text text-anchor="middle" x="497.929" y="-60.9948" font-family="Times,serif" font-size="14.00">empty</text>
</g>
<!-- K -->
<g id="node29" class="node"><title>K</title>
<ellipse fill="none" stroke="black" cx="558" cy="-18" rx="18" ry="18"/>
</g>
<!-- Z&#45;&gt;K -->
<g id="edge28" class="edge"><title>Z&#45;&gt;K</title>
<path fill="none" stroke="black" d="M450,-143C450,-143 488.98,-98.2455 520.104,-62.5107"/>
<polygon fill="none" stroke="black" points="556.999,-41.4651 520.171,-62.4335 535.885,-23.0752 556.999,-41.4651"/>
<text text-anchor="middle" x="538.145" y="-57.4001" font-family="Times,serif" font-size="14.00">invempty</text>
</g>
<!-- L -->
<g id="node30" class="node"><title>L</title>
<ellipse fill="none" stroke="black" cx="612" cy="-18" rx="18" ry="18"/>
</g>
<!-- Z&#45;&gt;L -->
<g id="edge29" class="edge"><title>Z&#45;&gt;L</title>
<path fill="none" stroke="black" d="M450,-143C450,-143 512.603,-95.0814 559.976,-58.8208"/>
<polygon fill="black" stroke="black" points="560.072,-58.7473 569.405,-31.4544 598.188,-29.5722 588.855,-56.865 560.072,-58.7473"/>
<text text-anchor="middle" x="584.304" y="-52.4659" font-family="Times,serif" font-size="14.00">diamond</text>
</g>
<!-- M -->
<g id="node31" class="node"><title>M</title>
<ellipse fill="none" stroke="black" cx="666" cy="-18" rx="18" ry="18"/>
</g>
<!-- Z&#45;&gt;M -->
<g id="edge30" class="edge"><title>Z&#45;&gt;M</title>
<path fill="none" stroke="black" d="M450,-143C450,-143 527.672,-100.925 609.655,-53.0597"/>
<polygon fill="none" stroke="black" points="609.906,-52.911 622.42,-26.9226 651.223,-28.4784 638.709,-54.4669 609.906,-52.911"/>
<text text-anchor="middle" x="634.273" y="-49.5312" font-family="Times,serif" font-size="14.00">odiamond</text>
</g>
<!-- N -->
<g id="node32" class="node"><title>N</title>
<ellipse fill="none" stroke="black" cx="720" cy="-18" rx="18" ry="18"/>
</g>
<!-- Z&#45;&gt;N -->
<g id="edge31" class="edge"><title>Z&#45;&gt;N</title>
<path fill="none" stroke="black" d="M450,-143C450,-143 562.272,-101.23 669.686,-47.2727"/>
<polygon fill="black" stroke="black" points="698.009,-14.5517 712.747,-42.9559 684.343,-57.6936 669.605,-29.2894 698.009,-14.5517"/>
<polyline fill="none" stroke="black" points="676.974,-43.4915 669.873,-47.176 "/>
<text text-anchor="middle" x="687.083" y="-48.8298" font-family="Times,serif" font-size="14.00">box</text>
</g>
<!-- O -->
<g id="node33" class="node"><title>O</title>
<ellipse fill="none" stroke="black" cx="774" cy="-18" rx="18" ry="18"/>
</g>
<!-- Z&#45;&gt;O -->
<g id="edge32" class="edge"><title>Z&#45;&gt;O</title>
<path fill="none" stroke="black" d="M450,-143C450,-143 592.788,-104.997 723.162,-46.0994"/>
<polygon fill="none" stroke="black" points="752.643,-14.48 766.31,-43.4149 737.375,-57.0815 723.708,-28.1466 752.643,-14.48"/>
<polyline fill="none" stroke="black" points="730.542,-42.614 723.308,-46.0307 "/>
<text text-anchor="middle" x="740.306" y="-48.3235" font-family="Times,serif" font-size="14.00">obox</text>
</g>
<!-- P -->
<g id="node34" class="node"><title>P</title>
<ellipse fill="none" stroke="black" cx="828" cy="-18" rx="18" ry="18"/>
</g>
<!-- Z&#45;&gt;P -->
<g id="edge33" class="edge"><title>Z&#45;&gt;P</title>
<path fill="none" stroke="black" d="M450,-143C450,-143 637.54,-106.752 794.996,-37.4737"/>
<polygon fill="black" stroke="black" points="801.661,-12.5126 818.137,-48.9618 810.847,-52.257 794.371,-15.8078 801.661,-12.5126"/>
<polyline fill="none" stroke="black" points="813.544,-29.0896 795.319,-37.3276 "/>
<text text-anchor="middle" x="793.99" y="-48.1419" font-family="Times,serif" font-size="14.00">tee</text>
</g>
<!-- Q -->
<g id="node35" class="node"><title>Q</title>
<ellipse fill="none" stroke="black" cx="882" cy="-18" rx="18" ry="18"/>
</g>
<!-- Z&#45;&gt;Q -->
<g id="edge34" class="edge"><title>Z&#45;&gt;Q</title>
<path fill="none" stroke="black" d="M450,-143C450,-143 654.182,-114.438 830.479,-44.707"/>
<polygon fill="black" stroke="black" points="830.685,-44.621 874.532,-45.806 849.138,-36.9094 867.592,-29.1978 867.592,-29.1978 867.592,-29.1978 849.138,-36.9094 860.652,-12.5896 830.685,-44.621 830.685,-44.621"/>
<text text-anchor="middle" x="847.394" y="-47.6796" font-family="Times,serif" font-size="14.00">crow</text>
</g>
<!-- b -->
<g id="node3" class="node"><title>b</title>
<ellipse fill="none" stroke="black" cx="72" cy="-306" rx="18" ry="18"/>
</g>
<!-- b&#45;&gt;Z -->
<g id="edge2" class="edge"><title>b&#45;&gt;Z</title>
<path fill="none" stroke="black" d="M105.004,-286.526C262.46,-217.248 450,-181 450,-181"/>
<polygon fill="black" stroke="black" points="101.798,-280.294 86.4562,-294.91 107.564,-293.051 101.798,-280.294"/>
<text text-anchor="middle" x="106.01" y="-268.458" font-family="Times,serif" font-size="14.00">normal</text>
</g>
<!-- c -->
<g id="node4" class="node"><title>c</title>
<ellipse fill="none" stroke="black" cx="126" cy="-306" rx="18" ry="18"/>
</g>
<!-- c&#45;&gt;Z -->
<g id="edge3" class="edge"><title>c&#45;&gt;Z</title>
<path fill="none" stroke="black" d="M158.55,-286.343C293.472,-222.66 450,-181 450,-181"/>
<polygon fill="black" stroke="black" points="137.478,-288.75 158.532,-286.352 143.569,-301.355 137.478,-288.75"/>
<text text-anchor="middle" x="159.49" y="-268.109" font-family="Times,serif" font-size="14.00">inv</text>
</g>
<!-- d -->
<g id="node5" class="node"><title>d</title>
<ellipse fill="none" stroke="black" cx="180" cy="-306" rx="18" ry="18"/>
</g>
<!-- d&#45;&gt;Z -->
<g id="edge4" class="edge"><title>d&#45;&gt;Z</title>
<path fill="none" stroke="black" d="M209.069,-287.6C322.364,-228.486 450,-181 450,-181"/>
<ellipse fill="black" stroke="black" cx="201.693" cy="-291.504" rx="8.00002" ry="8.00002"/>
<text text-anchor="middle" x="212.723" y="-267.622" font-family="Times,serif" font-size="14.00">dot</text>
</g>
<!-- e -->
<g id="node6" class="node"><title>e</title>
<ellipse fill="none" stroke="black" cx="234" cy="-306" rx="18" ry="18"/>
</g>
<!-- e&#45;&gt;Z -->
<g id="edge5" class="edge"><title>e&#45;&gt;Z</title>
<path fill="none" stroke="black" d="M262.772,-287.171C353.977,-233.016 450,-181 450,-181"/>
<ellipse fill="none" stroke="black" cx="255.647" cy="-291.422" rx="8.00002" ry="8.00002"/>
<text text-anchor="middle" x="265.629" y="-267.002" font-family="Times,serif" font-size="14.00">odot</text>
</g>
<!-- f -->
<g id="node7" class="node"><title>f</title>
<ellipse fill="none" stroke="black" cx="288" cy="-306" rx="18" ry="18"/>
</g>
<!-- f&#45;&gt;Z -->
<g id="edge6" class="edge"><title>f&#45;&gt;Z</title>
<path fill="none" stroke="black" d="M330.729,-272.294C378.725,-235.556 450,-181 450,-181"/>
<polygon fill="black" stroke="black" points="297.557,-288.869 317.694,-282.272 306.067,-299.986 297.557,-288.869"/>
<ellipse fill="black" stroke="black" cx="324.046" cy="-277.409" rx="8.00001" ry="8.00001"/>
<text text-anchor="middle" x="315.696" y="-264.134" font-family="Times,serif" font-size="14.00">invdot</text>
</g>
<!-- g -->
<g id="node8" class="node"><title>g</title>
<ellipse fill="none" stroke="black" cx="342" cy="-306" rx="18" ry="18"/>
</g>
<!-- g&#45;&gt;Z -->
<g id="edge7" class="edge"><title>g&#45;&gt;Z</title>
<path fill="none" stroke="black" d="M377.256,-264.521C408.767,-228.342 450,-181 450,-181"/>
<polygon fill="black" stroke="black" points="348.279,-287.132 366.694,-276.648 358.836,-296.327 348.279,-287.132"/>
<ellipse fill="none" stroke="black" cx="371.948" cy="-270.616" rx="8.00001" ry="8.00001"/>
<text text-anchor="middle" x="361.855" y="-259.2" font-family="Times,serif" font-size="14.00">invodot</text>
</g>
<!-- h -->
<g id="node9" class="node"><title>h</title>
<ellipse fill="none" stroke="black" cx="396" cy="-306" rx="18" ry="18"/>
</g>
<!-- h&#45;&gt;Z -->
<g id="edge8" class="edge"><title>h&#45;&gt;Z</title>
<path fill="none" stroke="black" d="M410.894,-270.8C426.878,-234.096 450,-181 450,-181"/>
<polygon fill="black" stroke="black" points="402.839,-289.295 402.573,-267.365 406.832,-280.127 410.825,-270.959 410.825,-270.959 410.825,-270.959 406.832,-280.127 419.076,-274.552 402.839,-289.295 402.839,-289.295"/>
<text text-anchor="middle" x="402.071" y="-255.605" font-family="Times,serif" font-size="14.00">open</text>
</g>
<!-- i -->
<g id="node10" class="node"><title>i</title>
<ellipse fill="none" stroke="black" cx="450" cy="-306" rx="18" ry="18"/>
</g>
<!-- i&#45;&gt;Z -->
<g id="edge9" class="edge"><title>i&#45;&gt;Z</title>
<path fill="none" stroke="black" d="M450,-267.591C450,-231.083 450,-181 450,-181"/>
<polygon fill="black" stroke="black" points="450,-287.758 441,-267.758 450,-277.758 450,-267.758 450,-267.758 450,-267.758 450,-287.758"/>
<text text-anchor="middle" x="462.679" y="-204.489" font-family="Times,serif" font-size="14.00">samehead</text>
<text text-anchor="middle" x="437.321" y="-256.869" font-family="Times,serif" font-size="14.00">halfopen</text>
</g>
<!-- j -->
<g id="node11" class="node"><title>j</title>
<ellipse fill="none" stroke="black" cx="504" cy="-306" rx="18" ry="18"/>
</g>
<!-- j&#45;&gt;Z -->
<g id="edge10" class="edge"><title>j&#45;&gt;Z</title>
<path fill="none" stroke="black" d="M489.106,-270.8C473.122,-234.096 450,-181 450,-181"/>
<polygon fill="none" stroke="black" points="482.758,-273.753 497.161,-289.295 495.593,-268.164 482.758,-273.753"/>
<text text-anchor="middle" x="474.681" y="-265.729" font-family="Times,serif" font-size="14.00">empty</text>
</g>
<!-- k -->
<g id="node12" class="node"><title>k</title>
<ellipse fill="none" stroke="black" cx="558" cy="-306" rx="18" ry="18"/>
</g>
<!-- k&#45;&gt;Z -->
<g id="edge11" class="edge"><title>k&#45;&gt;Z</title>
<path fill="none" stroke="black" d="M533.011,-276.309C501.11,-239.682 450,-181 450,-181"/>
<polygon fill="none" stroke="black" points="541.164,-296.327 533.306,-276.648 551.721,-287.132 541.164,-296.327"/>
<text text-anchor="middle" x="519.024" y="-275.854" font-family="Times,serif" font-size="14.00">invempty</text>
</g>
<!-- l -->
<g id="node13" class="node"><title>l</title>
<ellipse fill="none" stroke="black" cx="612" cy="-306" rx="18" ry="18"/>
</g>
<!-- l&#45;&gt;Z -->
<g id="edge12" class="edge"><title>l&#45;&gt;Z</title>
<path fill="none" stroke="black" d="M578.982,-279.727C531.61,-243.467 450,-181 450,-181"/>
<polygon fill="black" stroke="black" points="579.13,-279.84 593.522,-280.781 598.188,-294.428 583.796,-293.487 579.13,-279.84"/>
<text text-anchor="middle" x="568.891" y="-284.27" font-family="Times,serif" font-size="14.00">diamond</text>
</g>
<!-- m -->
<g id="node14" class="node"><title>m</title>
<ellipse fill="none" stroke="black" cx="666" cy="-306" rx="18" ry="18"/>
</g>
<!-- m&#45;&gt;Z -->
<g id="edge13" class="edge"><title>m&#45;&gt;Z</title>
<path fill="none" stroke="black" d="M630.479,-283.173C541.349,-230.484 450,-181 450,-181"/>
<polygon fill="none" stroke="black" points="630.6,-283.245 645.004,-282.509 651.223,-295.522 636.819,-296.257 630.6,-283.245"/>
<text text-anchor="middle" x="621.374" y="-288.808" font-family="Times,serif" font-size="14.00">odiamond</text>
</g>
<!-- n -->
<g id="node15" class="node"><title>n</title>
<ellipse fill="none" stroke="black" cx="720" cy="-306" rx="18" ry="18"/>
</g>
<!-- n&#45;&gt;Z -->
<g id="edge14" class="edge"><title>n&#45;&gt;Z</title>
<path fill="none" stroke="black" d="M687.465,-285.798C575.05,-227.524 450,-181 450,-181"/>
<polygon fill="black" stroke="black" points="709.11,-288.17 701.646,-302.322 687.494,-294.857 694.958,-280.705 709.11,-288.17"/>
<polyline fill="none" stroke="black" points="691.226,-287.781 687.688,-285.915 "/>
<text text-anchor="middle" x="675.414" y="-290.075" font-family="Times,serif" font-size="14.00">box</text>
</g>
<!-- o -->
<g id="node16" class="node"><title>o</title>
<ellipse fill="none" stroke="black" cx="774" cy="-306" rx="18" ry="18"/>
</g>
<!-- o&#45;&gt;Z -->
<g id="edge15" class="edge"><title>o&#45;&gt;Z</title>
<path fill="none" stroke="black" d="M741.45,-286.343C606.528,-222.66 450,-181 450,-181"/>
<polygon fill="none" stroke="black" points="762.957,-287.849 755.996,-302.256 741.59,-295.296 748.55,-280.889 762.957,-287.849"/>
<polyline fill="none" stroke="black" points="745.07,-288.092 741.468,-286.352 "/>
<text text-anchor="middle" x="729.479" y="-290.941" font-family="Times,serif" font-size="14.00">obox</text>
</g>
<!-- p -->
<g id="node17" class="node"><title>p</title>
<ellipse fill="none" stroke="black" cx="828" cy="-306" rx="18" ry="18"/>
</g>
<!-- p&#45;&gt;Z -->
<g id="edge16" class="edge"><title>p&#45;&gt;Z</title>
<path fill="none" stroke="black" d="M804.589,-289.753C803.391,-289.133 802.19,-288.544 801,-288 652.685,-220.176 450,-181 450,-181"/>
<polygon fill="black" stroke="black" points="816.802,-285.247 806.82,-302.578 803.353,-300.581 813.335,-283.25 816.802,-285.247"/>
<polyline fill="none" stroke="black" points="813.544,-294.91 804.878,-289.919 "/>
<text text-anchor="middle" x="783.655" y="-288.627" font-family="Times,serif" font-size="14.00">tee</text>
</g>
<!-- q -->
<g id="node18" class="node"><title>q</title>
<ellipse fill="none" stroke="black" cx="882" cy="-306" rx="18" ry="18"/>
</g>
<!-- q&#45;&gt;Z -->
<g id="edge17" class="edge"><title>q&#45;&gt;Z</title>
<path fill="none" stroke="black" d="M849.173,-286.89C668.964,-211.63 450,-181 450,-181"/>
<polygon fill="black" stroke="black" points="849.216,-286.908 864.04,-303.071 858.404,-290.855 867.592,-294.802 867.592,-294.802 867.592,-294.802 858.404,-290.855 871.144,-286.533 849.216,-286.908 849.216,-286.908"/>
<text text-anchor="middle" x="837.606" y="-292.02" font-family="Times,serif" font-size="14.00">crow</text>
</g>
</g>
</svg>
