<?xml version="1.0" encoding="UTF-8" standalone="no"?>
<!DOCTYPE svg PUBLIC "-//W3C//DTD SVG 1.1//EN"
 "http://www.w3.org/Graphics/SVG/1.1/DTD/svg11.dtd">
<!-- Generated by graphviz version 2.38.0 (20140413.2041)
 -->
<!-- Title: %3 Pages: 1 -->
<svg width="481pt" height="452pt"
 viewBox="0.00 0.00 481.00 452.00" xmlns="http://www.w3.org/2000/svg" xmlns:xlink="http://www.w3.org/1999/xlink">
<g id="graph0" class="graph" transform="scale(1 1) rotate(0) translate(4 448)">
<title>%3</title>
<polygon fill="white" stroke="none" points="-4,4 -4,-448 477,-448 477,4 -4,4"/>
<!-- 1 -->
<g id="node1" class="node"><title>1</title>
<polygon fill="none" stroke="black" points="473,-444 0,-444 0,-360 473,-360 473,-444"/>
<polygon fill="none" stroke="black" points="0.5,-423 0.5,-444 473.5,-444 473.5,-423 0.5,-423"/>
<text text-anchor="start" x="170.5" y="-429.8" font-family="URW Gothic L,sans-Serif" font-weight="book" font-size="14.00">&quot;AvantGarde&#45;Book&quot;</text>
<polygon fill="none" stroke="black" points="0.5,-402 0.5,-423 473.5,-423 473.5,-402 0.5,-402"/>
<text text-anchor="start" x="112" y="-408.8" font-family="URW Gothic L,sans-Serif" font-weight="book" font-size="14.00">&quot;ABCDEFGHIJLKLMNOPQRSTUVWXYZ&quot;</text>
<polygon fill="none" stroke="black" points="0.5,-381 0.5,-402 473.5,-402 473.5,-381 0.5,-381"/>
<text text-anchor="start" x="131.5" y="-387.8" font-family="URW Gothic L,sans-Serif" font-weight="book" font-size="14.00">&quot;abcdefghijlklmnopqrstuvwxyz&quot;</text>
<polygon fill="none" stroke="black" points="0.5,-360 0.5,-381 473.5,-381 473.5,-360 0.5,-360"/>
<text text-anchor="start" x="3.5" y="-366.8" font-family="URW Gothic L,sans-Serif" font-weight="book" font-size="14.00">&quot;ABCDEFGHIJLKLMNOPQRSTUVWXYZ\nabcdefghijlklmnopqrstuvwxyz&quot;</text>
</g>
<!-- 2 -->
<g id="node2" class="node"><title>2</title>
<polygon fill="none" stroke="black" points="473,-324 0,-324 0,-240 473,-240 473,-324"/>
<polygon fill="none" stroke="black" points="0.5,-303 0.5,-324 473.5,-324 473.5,-303 0.5,-303"/>
<text text-anchor="start" x="143.5" y="-309.8" font-family="URW Gothic L,sans-Serif" font-weight="book" font-style="oblique" font-size="14.00">&quot;AvantGarde&#45;BookOblique&quot;</text>
<polygon fill="none" stroke="black" points="0.5,-282 0.5,-303 473.5,-303 473.5,-282 0.5,-282"/>
<text text-anchor="start" x="112" y="-288.8" font-family="URW Gothic L,sans-Serif" font-weight="book" font-style="oblique" font-size="14.00">&quot;ABCDEFGHIJLKLMNOPQRSTUVWXYZ&quot;</text>
<polygon fill="none" stroke="black" points="0.5,-261 0.5,-282 473.5,-282 473.5,-261 0.5,-261"/>
<text text-anchor="start" x="131.5" y="-267.8" font-family="URW Gothic L,sans-Serif" font-weight="book" font-style="oblique" font-size="14.00">&quot;abcdefghijlklmnopqrstuvwxyz&quot;</text>
<polygon fill="none" stroke="black" points="0.5,-240 0.5,-261 473.5,-261 473.5,-240 0.5,-240"/>
<text text-anchor="start" x="3.5" y="-246.8" font-family="URW Gothic L,sans-Serif" font-weight="book" font-style="oblique" font-size="14.00">&quot;ABCDEFGHIJLKLMNOPQRSTUVWXYZ\nabcdefghijlklmnopqrstuvwxyz&quot;</text>
</g>
<!-- 1&#45;&gt;2 -->
<g id="edge1" class="edge"><title>1&#45;&gt;2</title>
<path fill="none" stroke="black" d="M236.5,-359.729C236.5,-351.508 236.5,-342.78 236.5,-334.271"/>
<polygon fill="black" stroke="black" points="240,-334.048 236.5,-324.048 233,-334.048 240,-334.048"/>
</g>
<!-- 3 -->
<g id="node3" class="node"><title>3</title>
<polygon fill="none" stroke="black" points="473,-204 0,-204 0,-120 473,-120 473,-204"/>
<polygon fill="none" stroke="black" points="0.5,-183 0.5,-204 473.5,-204 473.5,-183 0.5,-183"/>
<text text-anchor="start" x="169" y="-189.8" font-family="URW Gothic L,sans-Serif" font-weight="demi" font-size="14.00">&quot;AvantGarde&#45;Demi&quot;</text>
<polygon fill="none" stroke="black" points="0.5,-162 0.5,-183 473.5,-183 473.5,-162 0.5,-162"/>
<text text-anchor="start" x="112" y="-168.8" font-family="URW Gothic L,sans-Serif" font-weight="demi" font-size="14.00">&quot;ABCDEFGHIJLKLMNOPQRSTUVWXYZ&quot;</text>
<polygon fill="none" stroke="black" points="0.5,-141 0.5,-162 473.5,-162 473.5,-141 0.5,-141"/>
<text text-anchor="start" x="131.5" y="-147.8" font-family="URW Gothic L,sans-Serif" font-weight="demi" font-size="14.00">&quot;abcdefghijlklmnopqrstuvwxyz&quot;</text>
<polygon fill="none" stroke="black" points="0.5,-120 0.5,-141 473.5,-141 473.5,-120 0.5,-120"/>
<text text-anchor="start" x="3.5" y="-126.8" font-family="URW Gothic L,sans-Serif" font-weight="demi" font-size="14.00">&quot;ABCDEFGHIJLKLMNOPQRSTUVWXYZ\nabcdefghijlklmnopqrstuvwxyz&quot;</text>
</g>
<!-- 2&#45;&gt;3 -->
<g id="edge2" class="edge"><title>2&#45;&gt;3</title>
<path fill="none" stroke="black" d="M236.5,-239.729C236.5,-231.508 236.5,-222.78 236.5,-214.271"/>
<polygon fill="black" stroke="black" points="240,-214.048 236.5,-204.048 233,-214.048 240,-214.048"/>
</g>
<!-- 4 -->
<g id="node4" class="node"><title>4</title>
<polygon fill="none" stroke="black" points="473,-84 0,-84 0,-0 473,-0 473,-84"/>
<polygon fill="none" stroke="black" points="0.5,-63 0.5,-84 473.5,-84 473.5,-63 0.5,-63"/>
<text text-anchor="start" x="142" y="-69.8" font-family="URW Gothic L,sans-Serif" font-weight="demi" font-style="oblique" font-size="14.00">&quot;AvantGarde&#45;DemiOblique&quot;</text>
<polygon fill="none" stroke="black" points="0.5,-42 0.5,-63 473.5,-63 473.5,-42 0.5,-42"/>
<text text-anchor="start" x="112" y="-48.8" font-family="URW Gothic L,sans-Serif" font-weight="demi" font-style="oblique" font-size="14.00">&quot;ABCDEFGHIJLKLMNOPQRSTUVWXYZ&quot;</text>
<polygon fill="none" stroke="black" points="0.5,-21 0.5,-42 473.5,-42 473.5,-21 0.5,-21"/>
<text text-anchor="start" x="131.5" y="-27.8" font-family="URW Gothic L,sans-Serif" font-weight="demi" font-style="oblique" font-size="14.00">&quot;abcdefghijlklmnopqrstuvwxyz&quot;</text>
<polygon fill="none" stroke="black" points="0.5,7.10543e-15 0.5,-21 473.5,-21 473.5,7.10543e-15 0.5,7.10543e-15"/>
<text text-anchor="start" x="3.5" y="-6.8" font-family="URW Gothic L,sans-Serif" font-weight="demi" font-style="oblique" font-size="14.00">&quot;ABCDEFGHIJLKLMNOPQRSTUVWXYZ\nabcdefghijlklmnopqrstuvwxyz&quot;</text>
</g>
<!-- 3&#45;&gt;4 -->
<g id="edge3" class="edge"><title>3&#45;&gt;4</title>
<path fill="none" stroke="black" d="M236.5,-119.729C236.5,-111.508 236.5,-102.78 236.5,-94.2708"/>
<polygon fill="black" stroke="black" points="240,-94.0481 236.5,-84.0481 233,-94.0481 240,-94.0481"/>
</g>
</g>
</svg>
