<?xml version="1.0" encoding="UTF-8" standalone="no"?>
<!DOCTYPE svg PUBLIC "-//W3C//DTD SVG 1.1//EN"
 "http://www.w3.org/Graphics/SVG/1.1/DTD/svg11.dtd">
<!-- Generated by graphviz version 2.38.0 (20140413.2041)
 -->
<!-- Title: bla Pages: 1 -->
<svg width="340pt" height="116pt"
 viewBox="0.00 0.00 340.37 116.00" xmlns="http://www.w3.org/2000/svg" xmlns:xlink="http://www.w3.org/1999/xlink">
<g id="graph0" class="graph" transform="scale(1 1) rotate(0) translate(4 112)">
<title>bla</title>
<polygon fill="white" stroke="none" points="-4,4 -4,-112 336.374,-112 336.374,4 -4,4"/>
<g id="clust1" class="cluster"><title>cluster_foo</title>
<polygon fill="none" stroke="black" points="234.329,-8 234.329,-62 304.329,-62 304.329,-8 234.329,-8"/>
</g>
<!-- label_foo -->
<g id="node1" class="node"><title>label_foo</title>
<polygon fill="none" stroke="black" points="242.329,-17 242.329,-53 296.329,-53 296.329,-17 242.329,-17"/>
<text text-anchor="middle" x="269.329" y="-31.3" font-family="Times,serif" font-size="14.00">foo</text>
</g>
<!-- cluster_foo -->
<g id="node2" class="node"><title>cluster_foo</title>
<ellipse fill="none" stroke="black" cx="85.1424" cy="-90" rx="50.0912" ry="18"/>
<text text-anchor="middle" x="85.1424" y="-86.3" font-family="Times,serif" font-size="14.00">cluster_foo</text>
</g>
<!-- label_xxxxxxx -->
<g id="node3" class="node"><title>label_xxxxxxx</title>
<ellipse fill="none" stroke="black" cx="269.329" cy="-90" rx="63.0888" ry="18"/>
<text text-anchor="middle" x="269.329" y="-86.3" font-family="Times,serif" font-size="14.00">label_xxxxxxx</text>
</g>
<!-- cluster_foo&#45;&gt;label_xxxxxxx -->
<g id="edge1" class="edge"><title>cluster_foo&#45;&gt;label_xxxxxxx</title>
<path fill="none" stroke="black" d="M135.445,-90C154.106,-90 175.755,-90 196.092,-90"/>
<polygon fill="black" stroke="black" points="196.267,-93.5001 206.267,-90 196.267,-86.5001 196.267,-93.5001"/>
</g>
<!-- columns_foo_insider -->
<g id="node4" class="node"><title>columns_foo_insider</title>
<ellipse fill="none" stroke="black" cx="85.1424" cy="-35" rx="85.2851" ry="18"/>
<text text-anchor="middle" x="85.1424" y="-31.3" font-family="Times,serif" font-size="14.00">columns_foo_insider</text>
</g>
<!-- columns_foo_insider&#45;&gt;label_foo -->
<g id="edge2" class="edge"><title>columns_foo_insider:foo&#45;&gt;label_foo</title>
<path fill="none" stroke="black" d="M170.303,-35C192.024,-35 214.273,-35 232.073,-35"/>
<polygon fill="black" stroke="black" points="224.329,-38.5004 234.329,-35 224.329,-31.5004 224.329,-38.5004"/>
</g>
</g>
</svg>
