<?xml version="1.0" encoding="UTF-8" standalone="no"?>
<!DOCTYPE svg PUBLIC "-//W3C//DTD SVG 1.1//EN"
 "http://www.w3.org/Graphics/SVG/1.1/DTD/svg11.dtd">
<!-- Generated by graphviz version 2.38.0 (20140413.2041)
 -->
<!-- Title: G Pages: 1 -->
<svg width="180pt" height="118pt"
 viewBox="0.00 0.00 179.69 118.00" xmlns="http://www.w3.org/2000/svg" xmlns:xlink="http://www.w3.org/1999/xlink">
<g id="graph0" class="graph" transform="scale(1 1) rotate(0) translate(4 114)">
<title>G</title>
<polygon fill="white" stroke="none" points="-4,4 -4,-114 175.693,-114 175.693,4 -4,4"/>
<!-- Node29 -->
<g id="node1" class="node"><title>Node29</title>
<polygon fill="none" stroke="black" points="55.8466,-73.5 55.8466,-109.5 114.847,-109.5 114.847,-73.5 55.8466,-73.5"/>
<text text-anchor="middle" x="85.3466" y="-87.8" font-family="Times,serif" font-size="14.00">Node29</text>
</g>
<!-- Node29&#45;&gt;Node29 -->
<g id="edge3" class="edge"><title>Node29&#45;&gt;Node29</title>
<path fill="none" stroke="black" d="M115.034,-98.25C124.93,-98.25 132.847,-96 132.847,-91.5 132.847,-88.6875 129.754,-86.7539 125.019,-85.6992"/>
<polygon fill="black" stroke="black" points="125.32,-82.2122 115.034,-84.75 124.658,-89.1808 125.32,-82.2122"/>
<text text-anchor="middle" x="136.347" y="-87.8" font-family="Times,serif" font-size="14.00">v</text>
</g>
<!-- Node27 -->
<g id="node2" class="node"><title>Node27</title>
<ellipse fill="none" stroke="black" cx="38.3466" cy="-18" rx="38.1938" ry="18"/>
<text text-anchor="middle" x="38.3466" y="-14.3" font-family="Times,serif" font-size="14.00">Node27</text>
</g>
<!-- Node29&#45;&gt;Node27 -->
<g id="edge1" class="edge"><title>Node29&#45;&gt;Node27</title>
<path fill="none" stroke="black" d="M73.9692,-73.1918C68.2284,-64.4584 61.1584,-53.703 54.8342,-44.0823"/>
<polygon fill="black" stroke="black" points="57.7133,-42.0902 49.2956,-35.6564 51.8639,-45.9353 57.7133,-42.0902"/>
</g>
<!-- Node26 -->
<g id="node3" class="node"><title>Node26</title>
<ellipse fill="none" stroke="black" cx="133.347" cy="-18" rx="38.1938" ry="18"/>
<text text-anchor="middle" x="133.347" y="-14.3" font-family="Times,serif" font-size="14.00">Node26</text>
</g>
<!-- Node29&#45;&gt;Node26 -->
<g id="edge2" class="edge"><title>Node29&#45;&gt;Node26</title>
<path fill="none" stroke="black" d="M96.9661,-73.1918C102.829,-64.4584 110.049,-53.703 116.508,-44.0823"/>
<polygon fill="black" stroke="black" points="119.497,-45.9099 122.165,-35.6564 113.685,-42.0082 119.497,-45.9099"/>
</g>
</g>
</svg>
