<?xml version="1.0" encoding="UTF-8" standalone="no"?>
<!DOCTYPE svg PUBLIC "-//W3C//DTD SVG 1.1//EN"
 "http://www.w3.org/Graphics/SVG/1.1/DTD/svg11.dtd">
<!-- Generated by graphviz version 2.38.0 (20140413.2041)
 -->
<!-- Title: G Pages: 1 -->
<svg width="278pt" height="188pt"
 viewBox="0.00 0.00 278.00 188.00" xmlns="http://www.w3.org/2000/svg" xmlns:xlink="http://www.w3.org/1999/xlink">
<g id="graph0" class="graph" transform="scale(1 1) rotate(0) translate(4 184)">
<title>G</title>
<polygon fill="white" stroke="none" points="-4,4 -4,-184 274,-184 274,4 -4,4"/>
<!-- 1 -->
<g id="node1" class="node"><title>1</title>
<ellipse fill="none" stroke="black" cx="27" cy="-18" rx="27" ry="18"/>
<text text-anchor="middle" x="27" y="-14.3" font-family="Times,serif" font-size="14.00">1</text>
</g>
<!-- 2 -->
<g id="node2" class="node"><title>2</title>
<ellipse fill="none" stroke="black" cx="99" cy="-18" rx="27" ry="18"/>
<text text-anchor="middle" x="99" y="-14.3" font-family="Times,serif" font-size="14.00">2</text>
</g>
<!-- 1&#45;&gt;2 -->
<g id="edge1" class="edge"><title>1&#45;&gt;2</title>
<path fill="none" stroke="black" d="M54,-18C56.6147,-18 59.2295,-18 61.8442,-18"/>
<polygon fill="black" stroke="black" points="61.9297,-21.5001 71.9297,-18 61.9297,-14.5001 61.9297,-21.5001"/>
</g>
<!-- 4 -->
<g id="node3" class="node"><title>4</title>
<ellipse fill="none" stroke="black" cx="243" cy="-18" rx="27" ry="18"/>
<text text-anchor="middle" x="243" y="-14.3" font-family="Times,serif" font-size="14.00">4</text>
</g>
<!-- 5 -->
<g id="node4" class="node"><title>5</title>
<ellipse fill="none" stroke="black" cx="171" cy="-18" rx="27" ry="18"/>
<text text-anchor="middle" x="171" y="-14.3" font-family="Times,serif" font-size="14.00">5</text>
</g>
<!-- 4&#45;&gt;5 -->
<g id="edge2" class="edge"><title>4&#45;&gt;5</title>
<path fill="none" stroke="black" d="M215.93,-18C213.315,-18 210.7,-18 208.085,-18"/>
<polygon fill="black" stroke="black" points="208,-14.5001 198,-18 208,-21.5001 208,-14.5001"/>
</g>
<!-- 7 -->
<g id="node5" class="node"><title>7</title>
<ellipse fill="none" stroke="black" cx="207" cy="-90" rx="27" ry="18"/>
<text text-anchor="middle" x="207" y="-86.3" font-family="Times,serif" font-size="14.00">7</text>
</g>
<!-- 7&#45;&gt;4 -->
<g id="edge4" class="edge"><title>7&#45;&gt;4</title>
<path fill="none" stroke="black" d="M215.35,-72.7646C219.712,-64.2831 225.147,-53.7144 230.041,-44.1974"/>
<polygon fill="black" stroke="black" points="233.235,-45.6409 234.696,-35.1473 227.01,-42.4395 233.235,-45.6409"/>
</g>
<!-- 7&#45;&gt;5 -->
<g id="edge3" class="edge"><title>7&#45;&gt;5</title>
<path fill="none" stroke="black" d="M198.65,-72.7646C194.288,-64.2831 188.853,-53.7144 183.959,-44.1974"/>
<polygon fill="black" stroke="black" points="186.99,-42.4395 179.304,-35.1473 180.765,-45.6409 186.99,-42.4395"/>
</g>
<!-- 6 -->
<g id="node6" class="node"><title>6</title>
<ellipse fill="none" stroke="black" cx="63" cy="-90" rx="27" ry="18"/>
<text text-anchor="middle" x="63" y="-86.3" font-family="Times,serif" font-size="14.00">6</text>
</g>
<!-- 6&#45;&gt;1 -->
<g id="edge5" class="edge"><title>6&#45;&gt;1</title>
<path fill="none" stroke="black" d="M54.6504,-72.7646C50.2885,-64.2831 44.8531,-53.7144 39.9587,-44.1974"/>
<polygon fill="black" stroke="black" points="42.9904,-42.4395 35.3043,-35.1473 36.7654,-45.6409 42.9904,-42.4395"/>
</g>
<!-- 6&#45;&gt;4 -->
<g id="edge7" class="edge"><title>6&#45;&gt;4</title>
<path fill="none" stroke="black" d="M84.1344,-78.5057C88.9711,-76.2483 94.1246,-73.9556 99,-72 145.96,-53.1639 160.04,-54.8361 207,-36 208.828,-35.2667 210.696,-34.4859 212.571,-33.6774"/>
<polygon fill="black" stroke="black" points="214.183,-36.79 221.866,-29.4943 211.31,-30.4066 214.183,-36.79"/>
</g>
<!-- 3 -->
<g id="node7" class="node"><title>3</title>
<ellipse fill="none" stroke="black" cx="99" cy="-162" rx="27" ry="18"/>
<text text-anchor="middle" x="99" y="-158.3" font-family="Times,serif" font-size="14.00">3</text>
</g>
<!-- 3&#45;&gt;6 -->
<g id="edge6" class="edge"><title>3&#45;&gt;6</title>
<path fill="none" stroke="black" d="M90.6504,-144.765C86.2885,-136.283 80.8531,-125.714 75.9587,-116.197"/>
<polygon fill="black" stroke="black" points="78.9904,-114.439 71.3043,-107.147 72.7654,-117.641 78.9904,-114.439"/>
</g>
<!-- 8 -->
<g id="node8" class="node"><title>8</title>
<ellipse fill="none" stroke="black" cx="135" cy="-90" rx="27" ry="18"/>
<text text-anchor="middle" x="135" y="-86.3" font-family="Times,serif" font-size="14.00">8</text>
</g>
<!-- 3&#45;&gt;8 -->
<g id="edge8" class="edge"><title>3&#45;&gt;8</title>
<path fill="none" stroke="black" d="M107.35,-144.765C111.712,-136.283 117.147,-125.714 122.041,-116.197"/>
<polygon fill="black" stroke="black" points="125.235,-117.641 126.696,-107.147 119.01,-114.439 125.235,-117.641"/>
</g>
</g>
</svg>
