<?xml version="1.0" encoding="UTF-8" standalone="no"?>
<!DOCTYPE svg PUBLIC "-//W3C//DTD SVG 1.1//EN"
 "http://www.w3.org/Graphics/SVG/1.1/DTD/svg11.dtd">
<!-- Generated by graphviz version 2.38.0 (20140413.2041)
 -->
<!-- Title: simple Pages: 1 -->
<svg width="211pt" height="638pt"
 viewBox="0.00 0.00 638.00 211.00" xmlns="http://www.w3.org/2000/svg" xmlns:xlink="http://www.w3.org/1999/xlink">
<g id="graph0" class="graph" transform="scale(1 1) rotate(-90) translate(-634 207)">
<title>simple</title>
<polygon fill="white" stroke="none" points="-4,4 -4,-207 634,-207 634,4 -4,4"/>
<text text-anchor="middle" x="315" y="-7.8" font-family="Times,serif" font-size="14.00">Task Hierarchy: model2</text>
<!-- task15 -->
<g id="node1" class="node"><title>task15</title>
<polygon fill="none" stroke="black" points="306,-203 252,-203 252,-167 306,-167 306,-203"/>
<text text-anchor="middle" x="279" y="-181.3" font-family="Times,serif" font-size="14.00" fill="forestgreen">task15</text>
</g>
<!-- task16 -->
<g id="node2" class="node"><title>task16</title>
<polygon fill="none" stroke="black" points="54,-131 0,-131 0,-95 54,-95 54,-131"/>
<text text-anchor="middle" x="27" y="-109.3" font-family="Times,serif" font-size="14.00">task16</text>
</g>
<!-- task15&#45;&gt;task16 -->
<g id="edge1" class="edge"><title>task15&#45;&gt;task16</title>
<path fill="none" stroke="black" d="M251.891,-179.164C212.243,-171.706 136.138,-155.929 63.9713,-130.989"/>
<polygon fill="black" stroke="black" points="64.8731,-127.596 54.2783,-127.574 62.5472,-134.198 64.8731,-127.596"/>
</g>
<!-- task17 -->
<g id="node3" class="node"><title>task17</title>
<polygon fill="none" stroke="black" points="126,-131 72,-131 72,-95 126,-95 126,-131"/>
<text text-anchor="middle" x="99" y="-109.3" font-family="Times,serif" font-size="14.00">task17</text>
</g>
<!-- task15&#45;&gt;task17 -->
<g id="edge2" class="edge"><title>task15&#45;&gt;task17</title>
<path fill="none" stroke="black" d="M251.918,-174.837C224.645,-165.435 181.228,-149.994 135.492,-131.037"/>
<polygon fill="black" stroke="black" points="136.587,-127.701 126.011,-127.069 133.885,-134.158 136.587,-127.701"/>
</g>
<!-- task18 -->
<g id="node4" class="node"><title>task18</title>
<polygon fill="none" stroke="black" points="198,-131 144,-131 144,-95 198,-95 198,-131"/>
<text text-anchor="middle" x="171" y="-109.3" font-family="Times,serif" font-size="14.00">task18</text>
</g>
<!-- task15&#45;&gt;task18 -->
<g id="edge3" class="edge"><title>task15&#45;&gt;task18</title>
<path fill="none" stroke="black" d="M252.58,-166.876C238.59,-157.808 221.224,-146.552 206.114,-136.759"/>
<polygon fill="black" stroke="black" points="207.817,-133.692 197.521,-131.19 204.009,-139.566 207.817,-133.692"/>
</g>
<!-- task19 -->
<g id="node5" class="node"><title>task19</title>
<polygon fill="none" stroke="black" points="270,-131 216,-131 216,-95 270,-95 270,-131"/>
<text text-anchor="middle" x="243" y="-109.3" font-family="Times,serif" font-size="14.00">task19</text>
</g>
<!-- task15&#45;&gt;task19 -->
<g id="edge4" class="edge"><title>task15&#45;&gt;task19</title>
<path fill="none" stroke="black" d="M270.101,-166.697C266.003,-158.728 261.051,-149.1 256.507,-140.264"/>
<polygon fill="black" stroke="black" points="259.483,-138.396 251.797,-131.104 253.258,-141.598 259.483,-138.396"/>
</g>
<!-- task20 -->
<g id="node6" class="node"><title>task20</title>
<polygon fill="none" stroke="black" points="342,-131 288,-131 288,-95 342,-95 342,-131"/>
<text text-anchor="middle" x="315" y="-109.3" font-family="Times,serif" font-size="14.00">task20</text>
</g>
<!-- task15&#45;&gt;task20 -->
<g id="edge5" class="edge"><title>task15&#45;&gt;task20</title>
<path fill="none" stroke="black" d="M287.899,-166.697C291.997,-158.728 296.949,-149.1 301.493,-140.264"/>
<polygon fill="black" stroke="black" points="304.742,-141.598 306.203,-131.104 298.517,-138.396 304.742,-141.598"/>
</g>
<!-- task21 -->
<g id="node7" class="node"><title>task21</title>
<polygon fill="none" stroke="black" points="414,-131 360,-131 360,-95 414,-95 414,-131"/>
<text text-anchor="middle" x="387" y="-109.3" font-family="Times,serif" font-size="14.00">task21</text>
</g>
<!-- task15&#45;&gt;task21 -->
<g id="edge6" class="edge"><title>task15&#45;&gt;task21</title>
<path fill="none" stroke="black" d="M305.42,-166.876C319.41,-157.808 336.776,-146.552 351.886,-136.759"/>
<polygon fill="black" stroke="black" points="353.991,-139.566 360.479,-131.19 350.183,-133.692 353.991,-139.566"/>
</g>
<!-- task95 -->
<g id="node8" class="node"><title>task95</title>
<polygon fill="none" stroke="black" points="486,-131 432,-131 432,-95 486,-95 486,-131"/>
<text text-anchor="middle" x="459" y="-109.3" font-family="Times,serif" font-size="14.00">task95</text>
</g>
<!-- task15&#45;&gt;task95 -->
<g id="edge7" class="edge"><title>task15&#45;&gt;task95</title>
<path fill="none" stroke="black" d="M306.082,-174.837C333.355,-165.435 376.772,-149.994 422.508,-131.037"/>
<polygon fill="black" stroke="black" points="424.115,-134.158 431.989,-127.069 421.413,-127.701 424.115,-134.158"/>
</g>
<!-- task31 -->
<g id="node9" class="node"><title>task31</title>
<polygon fill="none" stroke="black" points="558,-131 504,-131 504,-95 558,-95 558,-131"/>
<text text-anchor="middle" x="531" y="-109.3" font-family="Times,serif" font-size="14.00">task31</text>
</g>
<!-- task15&#45;&gt;task31 -->
<g id="edge8" class="edge"><title>task15&#45;&gt;task31</title>
<path fill="none" stroke="black" d="M306.109,-179.164C345.757,-171.706 421.862,-155.929 494.029,-130.989"/>
<polygon fill="black" stroke="black" points="495.453,-134.198 503.722,-127.574 493.127,-127.596 495.453,-134.198"/>
</g>
<!-- task32 -->
<g id="node10" class="node"><title>task32</title>
<polygon fill="none" stroke="black" points="486,-59 432,-59 432,-23 486,-23 486,-59"/>
<text text-anchor="middle" x="459" y="-37.3" font-family="Times,serif" font-size="14.00">task32</text>
</g>
<!-- task31&#45;&gt;task32 -->
<g id="edge9" class="edge"><title>task31&#45;&gt;task32</title>
<path fill="none" stroke="black" d="M513.202,-94.6966C504.396,-86.135 493.618,-75.6562 483.999,-66.3045"/>
<polygon fill="black" stroke="black" points="486.203,-63.5657 476.593,-59.1043 481.323,-68.5846 486.203,-63.5657"/>
</g>
<!-- task33 -->
<g id="node11" class="node"><title>task33</title>
<polygon fill="none" stroke="black" points="558,-59 504,-59 504,-23 558,-23 558,-59"/>
<text text-anchor="middle" x="531" y="-37.3" font-family="Times,serif" font-size="14.00">task33</text>
</g>
<!-- task31&#45;&gt;task33 -->
<g id="edge10" class="edge"><title>task31&#45;&gt;task33</title>
<path fill="none" stroke="black" d="M531,-94.6966C531,-86.9827 531,-77.7125 531,-69.1124"/>
<polygon fill="black" stroke="black" points="534.5,-69.1043 531,-59.1043 527.5,-69.1044 534.5,-69.1043"/>
</g>
<!-- task34 -->
<g id="node12" class="node"><title>task34</title>
<polygon fill="none" stroke="black" points="630,-59 576,-59 576,-23 630,-23 630,-59"/>
<text text-anchor="middle" x="603" y="-37.3" font-family="Times,serif" font-size="14.00">task34</text>
</g>
<!-- task31&#45;&gt;task34 -->
<g id="edge11" class="edge"><title>task31&#45;&gt;task34</title>
<path fill="none" stroke="black" d="M548.798,-94.6966C557.604,-86.135 568.382,-75.6562 578.001,-66.3045"/>
<polygon fill="black" stroke="black" points="580.677,-68.5846 585.407,-59.1043 575.797,-63.5657 580.677,-68.5846"/>
</g>
</g>
</svg>
