<?xml version="1.0" encoding="UTF-8" standalone="no"?>
<!DOCTYPE svg PUBLIC "-//W3C//DTD SVG 1.1//EN"
 "http://www.w3.org/Graphics/SVG/1.1/DTD/svg11.dtd">
<!-- Generated by graphviz version 2.38.0 (20140413.2041)
 -->
<!-- Title: G Pages: 1 -->
<svg width="300pt" height="148pt"
 viewBox="0.00 0.00 300.00 148.00" xmlns="http://www.w3.org/2000/svg" xmlns:xlink="http://www.w3.org/1999/xlink">
<g id="graph0" class="graph" transform="scale(1 1) rotate(0) translate(4 144)">
<title>G</title>
<polygon fill="white" stroke="none" points="-4,4 -4,-144 296,-144 296,4 -4,4"/>
<g id="clust1" class="cluster"><title>cluster_0</title>
<polygon fill="none" stroke="black" points="8,-8 8,-132 78,-132 78,-8 8,-8"/>
</g>
<g id="clust3" class="cluster"><title>cluster_1</title>
<polygon fill="none" stroke="black" points="86,-8 86,-132 228,-132 228,-8 86,-8"/>
</g>
<!-- a -->
<g id="node1" class="node"><title>a</title>
<ellipse fill="none" stroke="black" cx="43" cy="-106" rx="27" ry="18"/>
<text text-anchor="middle" x="43" y="-102.3" font-family="Times,serif" font-size="14.00">a</text>
</g>
<!-- c -->
<g id="node2" class="node"><title>c</title>
<ellipse fill="none" stroke="black" cx="43" cy="-34" rx="27" ry="18"/>
<text text-anchor="middle" x="43" y="-30.3" font-family="Times,serif" font-size="14.00">c</text>
</g>
<!-- a&#45;&gt;c -->
<g id="edge1" class="edge"><title>a&#45;&gt;c</title>
<path fill="none" stroke="black" d="M43,-87.6966C43,-79.9827 43,-70.7125 43,-62.1124"/>
<polygon fill="black" stroke="black" points="46.5001,-62.1043 43,-52.1043 39.5001,-62.1044 46.5001,-62.1043"/>
</g>
<!-- y -->
<g id="node3" class="node"><title>y</title>
<ellipse fill="none" stroke="black" cx="193" cy="-106" rx="27" ry="18"/>
<text text-anchor="middle" x="193" y="-102.3" font-family="Times,serif" font-size="14.00">y</text>
</g>
<!-- z -->
<g id="node4" class="node"><title>z</title>
<ellipse fill="none" stroke="black" cx="121" cy="-34" rx="27" ry="18"/>
<text text-anchor="middle" x="121" y="-30.3" font-family="Times,serif" font-size="14.00">z</text>
</g>
<!-- y&#45;&gt;z -->
<g id="edge2" class="edge"><title>y&#45;&gt;z</title>
<path fill="none" stroke="black" d="M178.43,-90.8345C168.25,-80.9376 154.476,-67.5462 142.969,-56.3591"/>
<polygon fill="black" stroke="black" points="145.405,-53.8461 135.796,-49.3847 140.526,-58.865 145.405,-53.8461"/>
</g>
<!-- q -->
<g id="node5" class="node"><title>q</title>
<ellipse fill="none" stroke="black" cx="193" cy="-34" rx="27" ry="18"/>
<text text-anchor="middle" x="193" y="-30.3" font-family="Times,serif" font-size="14.00">q</text>
</g>
<!-- y&#45;&gt;q -->
<g id="edge3" class="edge"><title>y&#45;&gt;q</title>
<path fill="none" stroke="black" d="M193,-87.6966C193,-79.9827 193,-70.7125 193,-62.1124"/>
<polygon fill="black" stroke="black" points="196.5,-62.1043 193,-52.1043 189.5,-62.1044 196.5,-62.1043"/>
</g>
<!-- b -->
<g id="node6" class="node"><title>b</title>
<ellipse fill="none" stroke="black" cx="265" cy="-34" rx="27" ry="18"/>
<text text-anchor="middle" x="265" y="-30.3" font-family="Times,serif" font-size="14.00">b</text>
</g>
<!-- y&#45;&gt;b -->
<g id="edge4" class="edge"><title>y&#45;&gt;b</title>
<path fill="none" stroke="black" d="M207.57,-90.8345C217.75,-80.9376 231.524,-67.5462 243.031,-56.3591"/>
<polygon fill="black" stroke="black" points="245.474,-58.865 250.204,-49.3847 240.595,-53.8461 245.474,-58.865"/>
</g>
</g>
</svg>
