<?xml version="1.0" encoding="UTF-8" standalone="no"?>
<!DOCTYPE svg PUBLIC "-//W3C//DTD SVG 1.1//EN"
 "http://www.w3.org/Graphics/SVG/1.1/DTD/svg11.dtd">
<!-- Generated by graphviz version 2.38.0 (20140413.2041)
 -->
<!-- Title: NL Pages: 1 -->
<svg width="1623pt" height="836pt"
 viewBox="0.00 0.00 1623.04 836.00" xmlns="http://www.w3.org/2000/svg" xmlns:xlink="http://www.w3.org/1999/xlink">
<g id="graph0" class="graph" transform="scale(1 1) rotate(0) translate(4 832)">
<title>NL</title>
<polygon fill="white" stroke="none" points="-4,4 -4,-832 1619.04,-832 1619.04,4 -4,4"/>
<!-- Berne -->
<g id="node1" class="node"><title>Berne</title>
<ellipse fill="none" stroke="black" cx="1152.55" cy="-306" rx="31.6951" ry="18"/>
<text text-anchor="middle" x="1152.55" y="-302.3" font-family="Times,serif" font-size="14.00">Berne</text>
</g>
<!-- WIPOCopyright -->
<g id="node13" class="node"><title>WIPOCopyright</title>
<ellipse fill="none" stroke="black" cx="1152.55" cy="-234" rx="69.5877" ry="18"/>
<text text-anchor="middle" x="1152.55" y="-230.3" font-family="Times,serif" font-size="14.00">WIPOCopyright</text>
</g>
<!-- Berne&#45;&gt;WIPOCopyright -->
<g id="edge3" class="edge"><title>Berne&#45;&gt;WIPOCopyright</title>
<path fill="none" stroke="black" d="M1152.55,-287.697C1152.55,-279.983 1152.55,-270.712 1152.55,-262.112"/>
<polygon fill="black" stroke="black" points="1156.05,-262.104 1152.55,-252.104 1149.05,-262.104 1156.05,-262.104"/>
</g>
<!-- USCopyright1976 -->
<g id="node41" class="node"><title>USCopyright1976</title>
<ellipse fill="none" stroke="black" cx="1315.55" cy="-234" rx="75.2868" ry="18"/>
<text text-anchor="middle" x="1315.55" y="-230.3" font-family="Times,serif" font-size="14.00">USCopyright1976</text>
</g>
<!-- Berne&#45;&gt;USCopyright1976 -->
<g id="edge17" class="edge"><title>Berne&#45;&gt;USCopyright1976</title>
<path fill="none" stroke="black" d="M1177.3,-294.369C1202.14,-283.704 1240.92,-267.049 1271.1,-254.089"/>
<polygon fill="black" stroke="black" points="1272.76,-257.186 1280.56,-250.024 1269.99,-250.754 1272.76,-257.186"/>
</g>
<!-- FirstBerne -->
<g id="node2" class="node"><title>FirstBerne</title>
<ellipse fill="none" stroke="black" cx="1083.55" cy="-450" rx="48.1917" ry="18"/>
<text text-anchor="middle" x="1083.55" y="-446.3" font-family="Times,serif" font-size="14.00">FirstBerne</text>
</g>
<!-- UniversalCopyright -->
<g id="node10" class="node"><title>UniversalCopyright</title>
<ellipse fill="none" stroke="black" cx="1145.55" cy="-378" rx="80.6858" ry="18"/>
<text text-anchor="middle" x="1145.55" y="-374.3" font-family="Times,serif" font-size="14.00">UniversalCopyright</text>
</g>
<!-- FirstBerne&#45;&gt;UniversalCopyright -->
<g id="edge1" class="edge"><title>FirstBerne&#45;&gt;UniversalCopyright</title>
<path fill="none" stroke="black" d="M1097.93,-432.765C1105.53,-424.182 1115.02,-413.462 1123.53,-403.858"/>
<polygon fill="black" stroke="black" points="1126.37,-405.93 1130.38,-396.124 1121.13,-401.289 1126.37,-405.93"/>
</g>
<!-- FirstWIPO -->
<g id="node12" class="node"><title>FirstWIPO</title>
<ellipse fill="none" stroke="black" cx="1015.55" cy="-306" rx="50.0912" ry="18"/>
<text text-anchor="middle" x="1015.55" y="-302.3" font-family="Times,serif" font-size="14.00">FirstWIPO</text>
</g>
<!-- FirstBerne&#45;&gt;FirstWIPO -->
<g id="edge4" class="edge"><title>FirstBerne&#45;&gt;FirstWIPO</title>
<path fill="none" stroke="black" d="M1074.19,-431.956C1068.61,-421.634 1061.48,-408.157 1055.55,-396 1045.33,-375.064 1034.54,-350.936 1026.75,-333.088"/>
<polygon fill="black" stroke="black" points="1029.94,-331.658 1022.75,-323.879 1023.52,-334.446 1029.94,-331.658"/>
</g>
<!-- FTA -->
<g id="node3" class="node"><title>FTA</title>
<ellipse fill="none" stroke="black" cx="106.547" cy="-234" rx="27.0966" ry="18"/>
<text text-anchor="middle" x="106.547" y="-230.3" font-family="Times,serif" font-size="14.00">FTA</text>
</g>
<!-- NAFTA -->
<g id="node6" class="node"><title>NAFTA</title>
<ellipse fill="none" stroke="black" cx="131.547" cy="-162" rx="40.0939" ry="18"/>
<text text-anchor="middle" x="131.547" y="-158.3" font-family="Times,serif" font-size="14.00">NAFTA</text>
</g>
<!-- FTA&#45;&gt;NAFTA -->
<g id="edge9" class="edge"><title>FTA&#45;&gt;NAFTA</title>
<path fill="none" stroke="black" d="M112.472,-216.411C115.325,-208.421 118.818,-198.642 122.031,-189.645"/>
<polygon fill="black" stroke="black" points="125.424,-190.551 125.492,-179.956 118.832,-188.196 125.424,-190.551"/>
</g>
<!-- FTAA -->
<g id="node4" class="node"><title>FTAA</title>
<ellipse fill="none" stroke="black" cx="641.547" cy="-90" rx="33.5952" ry="18"/>
<text text-anchor="middle" x="641.547" y="-86.3" font-family="Times,serif" font-size="14.00">FTAA</text>
</g>
<!-- MAI -->
<g id="node5" class="node"><title>MAI</title>
<ellipse fill="none" stroke="black" cx="641.547" cy="-162" rx="28.6953" ry="18"/>
<text text-anchor="middle" x="641.547" y="-158.3" font-family="Times,serif" font-size="14.00">MAI</text>
</g>
<!-- MAI&#45;&gt;FTAA -->
<g id="edge6" class="edge"><title>MAI&#45;&gt;FTAA</title>
<path fill="none" stroke="black" d="M641.547,-143.697C641.547,-135.983 641.547,-126.712 641.547,-118.112"/>
<polygon fill="black" stroke="black" points="645.047,-118.104 641.547,-108.104 638.047,-118.104 645.047,-118.104"/>
</g>
<!-- NAFTA&#45;&gt;FTAA -->
<g id="edge10" class="edge"><title>NAFTA&#45;&gt;FTAA</title>
<path fill="none" stroke="black" d="M163.83,-151.164C173.333,-148.537 183.798,-145.902 193.547,-144 340.315,-115.365 517.354,-99.962 597.873,-93.9818"/>
<polygon fill="black" stroke="black" points="598.405,-97.4524 608.124,-93.233 597.895,-90.471 598.405,-97.4524"/>
</g>
<!-- Paris -->
<g id="node7" class="node"><title>Paris</title>
<ellipse fill="none" stroke="black" cx="805.547" cy="-306" rx="28.6953" ry="18"/>
<text text-anchor="middle" x="805.547" y="-302.3" font-family="Times,serif" font-size="14.00">Paris</text>
</g>
<!-- PatentCooperation -->
<g id="node8" class="node"><title>PatentCooperation</title>
<ellipse fill="none" stroke="black" cx="805.547" cy="-234" rx="76.0865" ry="18"/>
<text text-anchor="middle" x="805.547" y="-230.3" font-family="Times,serif" font-size="14.00">PatentCooperation</text>
</g>
<!-- Paris&#45;&gt;PatentCooperation -->
<g id="edge14" class="edge"><title>Paris&#45;&gt;PatentCooperation</title>
<path fill="none" stroke="black" d="M805.547,-287.697C805.547,-279.983 805.547,-270.712 805.547,-262.112"/>
<polygon fill="black" stroke="black" points="809.047,-262.104 805.547,-252.104 802.047,-262.104 809.047,-262.104"/>
</g>
<!-- WTOTRIPs -->
<g id="node15" class="node"><title>WTOTRIPs</title>
<ellipse fill="none" stroke="black" cx="742.547" cy="-162" rx="53.8905" ry="18"/>
<text text-anchor="middle" x="742.547" y="-158.3" font-family="Times,serif" font-size="14.00">WTOTRIPs</text>
</g>
<!-- PatentCooperation&#45;&gt;WTOTRIPs -->
<g id="edge15" class="edge"><title>PatentCooperation&#45;&gt;WTOTRIPs</title>
<path fill="none" stroke="black" d="M790.297,-216.055C782.558,-207.457 773.018,-196.857 764.505,-187.397"/>
<polygon fill="black" stroke="black" points="766.949,-184.881 757.657,-179.789 761.746,-189.563 766.949,-184.881"/>
</g>
<!-- Rome -->
<g id="node9" class="node"><title>Rome</title>
<ellipse fill="none" stroke="black" cx="891.547" cy="-306" rx="32.4942" ry="18"/>
<text text-anchor="middle" x="891.547" y="-302.3" font-family="Times,serif" font-size="14.00">Rome</text>
</g>
<!-- WIPOPerformances -->
<g id="node14" class="node"><title>WIPOPerformances</title>
<ellipse fill="none" stroke="black" cx="982.547" cy="-234" rx="82.5854" ry="18"/>
<text text-anchor="middle" x="982.547" y="-230.3" font-family="Times,serif" font-size="14.00">WIPOPerformances</text>
</g>
<!-- Rome&#45;&gt;WIPOPerformances -->
<g id="edge16" class="edge"><title>Rome&#45;&gt;WIPOPerformances</title>
<path fill="none" stroke="black" d="M909.962,-290.834C922.292,-281.35 938.794,-268.657 952.947,-257.769"/>
<polygon fill="black" stroke="black" points="955.168,-260.477 960.96,-251.606 950.9,-254.929 955.168,-260.477"/>
</g>
<!-- CanadaCopyright1997 -->
<g id="node17" class="node"><title>CanadaCopyright1997</title>
<ellipse fill="none" stroke="black" cx="519.547" cy="-234" rx="90.1842" ry="18"/>
<text text-anchor="middle" x="519.547" y="-230.3" font-family="Times,serif" font-size="14.00">CanadaCopyright1997</text>
</g>
<!-- Rome&#45;&gt;CanadaCopyright1997 -->
<g id="edge29" class="edge"><title>Rome&#45;&gt;CanadaCopyright1997</title>
<path fill="none" stroke="black" d="M865.655,-294.862C858.567,-292.353 850.829,-289.856 843.547,-288 745.412,-262.992 718.454,-268.57 618.547,-252 610.987,-250.746 603.105,-249.422 595.234,-248.088"/>
<polygon fill="black" stroke="black" points="595.742,-244.624 585.296,-246.398 594.568,-251.525 595.742,-244.624"/>
</g>
<!-- UniversalCopyright&#45;&gt;Berne -->
<g id="edge2" class="edge"><title>UniversalCopyright&#45;&gt;Berne</title>
<path fill="none" stroke="black" d="M1147.28,-359.697C1148.05,-351.983 1148.98,-342.712 1149.84,-334.112"/>
<polygon fill="black" stroke="black" points="1153.32,-334.403 1150.84,-324.104 1146.36,-333.706 1153.32,-334.403"/>
</g>
<!-- Uruguay -->
<g id="node11" class="node"><title>Uruguay</title>
<ellipse fill="none" stroke="black" cx="669.547" cy="-234" rx="41.6928" ry="18"/>
<text text-anchor="middle" x="669.547" y="-230.3" font-family="Times,serif" font-size="14.00">Uruguay</text>
</g>
<!-- Uruguay&#45;&gt;MAI -->
<g id="edge5" class="edge"><title>Uruguay&#45;&gt;MAI</title>
<path fill="none" stroke="black" d="M662.769,-216.055C659.536,-207.973 655.596,-198.121 651.992,-189.112"/>
<polygon fill="black" stroke="black" points="655.227,-187.774 648.263,-179.789 648.727,-190.374 655.227,-187.774"/>
</g>
<!-- Uruguay&#45;&gt;WTOTRIPs -->
<g id="edge7" class="edge"><title>Uruguay&#45;&gt;WTOTRIPs</title>
<path fill="none" stroke="black" d="M686.112,-217.116C695.59,-208.027 707.655,-196.458 718.195,-186.351"/>
<polygon fill="black" stroke="black" points="720.746,-188.754 725.541,-179.307 715.901,-183.702 720.746,-188.754"/>
</g>
<!-- URAA -->
<g id="node38" class="node"><title>URAA</title>
<ellipse fill="none" stroke="black" cx="939.547" cy="-162" rx="35.9954" ry="18"/>
<text text-anchor="middle" x="939.547" y="-158.3" font-family="Times,serif" font-size="14.00">URAA</text>
</g>
<!-- Uruguay&#45;&gt;URAA -->
<g id="edge38" class="edge"><title>Uruguay&#45;&gt;URAA</title>
<path fill="none" stroke="black" d="M700.976,-222.063C707.419,-219.951 714.178,-217.829 720.547,-216 781.591,-198.473 853.29,-181.861 897.577,-172.052"/>
<polygon fill="black" stroke="black" points="898.396,-175.455 907.409,-169.886 896.89,-168.619 898.396,-175.455"/>
</g>
<!-- FirstWIPO&#45;&gt;PatentCooperation -->
<g id="edge13" class="edge"><title>FirstWIPO&#45;&gt;PatentCooperation</title>
<path fill="none" stroke="black" d="M979.924,-293.125C946.409,-281.954 895.824,-265.092 857.755,-252.403"/>
<polygon fill="black" stroke="black" points="858.464,-248.95 847.87,-249.108 856.25,-255.59 858.464,-248.95"/>
</g>
<!-- FirstWIPO&#45;&gt;WIPOCopyright -->
<g id="edge11" class="edge"><title>FirstWIPO&#45;&gt;WIPOCopyright</title>
<path fill="none" stroke="black" d="M1043.27,-290.834C1063.47,-280.512 1091.12,-266.387 1113.55,-254.927"/>
<polygon fill="black" stroke="black" points="1115.17,-258.026 1122.49,-250.359 1111.99,-251.792 1115.17,-258.026"/>
</g>
<!-- FirstWIPO&#45;&gt;WIPOPerformances -->
<g id="edge12" class="edge"><title>FirstWIPO&#45;&gt;WIPOPerformances</title>
<path fill="none" stroke="black" d="M1007.56,-288.055C1003.8,-280.091 999.241,-270.411 995.045,-261.51"/>
<polygon fill="black" stroke="black" points="998.121,-259.828 990.691,-252.275 991.79,-262.813 998.121,-259.828"/>
</g>
<!-- CPDCI -->
<g id="node26" class="node"><title>CPDCI</title>
<ellipse fill="none" stroke="black" cx="1154.55" cy="-18" rx="36.2938" ry="18"/>
<text text-anchor="middle" x="1154.55" y="-14.3" font-family="Times,serif" font-size="14.00">CPDCI</text>
</g>
<!-- WIPOCopyright&#45;&gt;CPDCI -->
<g id="edge21" class="edge"><title>WIPOCopyright&#45;&gt;CPDCI</title>
<path fill="none" stroke="black" d="M1126.83,-217.22C1113.62,-207.901 1098.3,-194.998 1088.55,-180 1066.15,-145.554 1062.05,-132.059 1063.55,-91"/>
<path fill="none" stroke="black" d="M1063.55,-89C1063.89,-61.376 1090.54,-43.145 1114.9,-32.2335"/>
<polygon fill="black" stroke="black" points="1116.53,-35.3458 1124.42,-28.2702 1113.84,-28.8838 1116.53,-35.3458"/>
</g>
<!-- WTOTRIPs&#45;&gt;FTAA -->
<g id="edge8" class="edge"><title>WTOTRIPs&#45;&gt;FTAA</title>
<path fill="none" stroke="black" d="M720.132,-145.465C705.323,-135.201 685.79,-121.664 669.903,-110.653"/>
<polygon fill="black" stroke="black" points="671.718,-107.652 661.505,-104.832 667.731,-113.405 671.718,-107.652"/>
</g>
<!-- Anne -->
<g id="node16" class="node"><title>Anne</title>
<ellipse fill="none" stroke="black" cx="1326.55" cy="-594" rx="29.795" ry="18"/>
<text text-anchor="middle" x="1326.55" y="-590.3" font-family="Times,serif" font-size="14.00">Anne</text>
</g>
<!-- CopyrightClause -->
<g id="node24" class="node"><title>CopyrightClause</title>
<ellipse fill="none" stroke="black" cx="1326.55" cy="-522" rx="70.3881" ry="18"/>
<text text-anchor="middle" x="1326.55" y="-518.3" font-family="Times,serif" font-size="14.00">CopyrightClause</text>
</g>
<!-- Anne&#45;&gt;CopyrightClause -->
<g id="edge31" class="edge"><title>Anne&#45;&gt;CopyrightClause</title>
<path fill="none" stroke="black" d="M1326.55,-575.697C1326.55,-567.983 1326.55,-558.712 1326.55,-550.112"/>
<polygon fill="black" stroke="black" points="1330.05,-550.104 1326.55,-540.104 1323.05,-550.104 1330.05,-550.104"/>
</g>
<!-- CanadaCopyright2001 -->
<g id="node18" class="node"><title>CanadaCopyright2001</title>
<ellipse fill="none" stroke="black" cx="476.547" cy="-162" rx="90.1842" ry="18"/>
<text text-anchor="middle" x="476.547" y="-158.3" font-family="Times,serif" font-size="14.00">CanadaCopyright2001</text>
</g>
<!-- CanadaCopyright1997&#45;&gt;CanadaCopyright2001 -->
<g id="edge18" class="edge"><title>CanadaCopyright1997&#45;&gt;CanadaCopyright2001</title>
<path fill="none" stroke="black" d="M509.138,-216.055C504.142,-207.922 498.046,-197.998 492.483,-188.943"/>
<polygon fill="black" stroke="black" points="495.376,-186.964 487.159,-180.275 489.411,-190.628 495.376,-186.964"/>
</g>
<!-- CDA -->
<g id="node19" class="node"><title>CDA</title>
<ellipse fill="none" stroke="black" cx="59.5473" cy="-666" rx="29.4969" ry="18"/>
<text text-anchor="middle" x="59.5473" y="-662.3" font-family="Times,serif" font-size="14.00">CDA</text>
</g>
<!-- COPA -->
<g id="node22" class="node"><title>COPA</title>
<ellipse fill="none" stroke="black" cx="83.5473" cy="-450" rx="34.394" ry="18"/>
<text text-anchor="middle" x="83.5473" y="-446.3" font-family="Times,serif" font-size="14.00">COPA</text>
</g>
<!-- CDA&#45;&gt;COPA -->
<g id="edge19" class="edge"><title>CDA&#45;&gt;COPA</title>
<path fill="none" stroke="black" d="M61.4707,-647.849C65.6222,-610.832 75.4522,-523.181 80.4759,-478.386"/>
<polygon fill="black" stroke="black" points="83.9783,-478.56 81.6147,-468.232 77.0219,-477.78 83.9783,-478.56"/>
</g>
<!-- ACLUReno -->
<g id="node43" class="node"><title>ACLUReno</title>
<ellipse fill="none" stroke="black" cx="140.547" cy="-594" rx="53.0913" ry="18"/>
<text text-anchor="middle" x="140.547" y="-590.3" font-family="Times,serif" font-size="14.00">ACLUReno</text>
</g>
<!-- CDA&#45;&gt;ACLUReno -->
<g id="edge41" class="edge"><title>CDA&#45;&gt;ACLUReno</title>
<path fill="none" stroke="black" d="M75.9388,-650.834C86.8601,-641.396 101.459,-628.78 114.016,-617.929"/>
<polygon fill="black" stroke="black" points="116.636,-620.29 121.913,-611.103 112.059,-614.994 116.636,-620.29"/>
</g>
<!-- CharterOfRights -->
<g id="node20" class="node"><title>CharterOfRights</title>
<ellipse fill="none" stroke="black" cx="475.547" cy="-810" rx="69.5877" ry="18"/>
<text text-anchor="middle" x="475.547" y="-806.3" font-family="Times,serif" font-size="14.00">CharterOfRights</text>
</g>
<!-- CIPA -->
<g id="node21" class="node"><title>CIPA</title>
<ellipse fill="none" stroke="black" cx="30.5473" cy="-234" rx="30.5947" ry="18"/>
<text text-anchor="middle" x="30.5473" y="-230.3" font-family="Times,serif" font-size="14.00">CIPA</text>
</g>
<!-- ALA -->
<g id="node45" class="node"><title>ALA</title>
<ellipse fill="none" stroke="black" cx="30.5473" cy="-162" rx="28.6953" ry="18"/>
<text text-anchor="middle" x="30.5473" y="-158.3" font-family="Times,serif" font-size="14.00">ALA</text>
</g>
<!-- CIPA&#45;&gt;ALA -->
<g id="edge47" class="edge"><title>CIPA&#45;&gt;ALA</title>
<path fill="none" stroke="black" d="M30.5473,-215.697C30.5473,-207.983 30.5473,-198.712 30.5473,-190.112"/>
<polygon fill="black" stroke="black" points="34.0474,-190.104 30.5473,-180.104 27.0474,-190.104 34.0474,-190.104"/>
</g>
<!-- Microsystems -->
<g id="node57" class="node"><title>Microsystems</title>
<ellipse fill="none" stroke="black" cx="263.547" cy="-162" rx="61.1893" ry="18"/>
<text text-anchor="middle" x="263.547" y="-158.3" font-family="Times,serif" font-size="14.00">Microsystems</text>
</g>
<!-- CIPA&#45;&gt;Microsystems -->
<g id="edge48" class="edge"><title>CIPA&#45;&gt;Microsystems</title>
<path fill="none" stroke="black" d="M54.0316,-222.401C59.4057,-220.149 65.1313,-217.885 70.5473,-216 115.885,-200.22 168.497,-186.036 207.328,-176.322"/>
<polygon fill="black" stroke="black" points="208.529,-179.63 217.393,-173.826 206.845,-172.836 208.529,-179.63"/>
</g>
<!-- COPA&#45;&gt;CIPA -->
<g id="edge20" class="edge"><title>COPA&#45;&gt;CIPA</title>
<path fill="none" stroke="black" d="M70.4282,-432.844C63.0321,-422.838 54.3392,-409.379 49.5473,-396 33.4325,-351.007 30.3362,-294.867 30.078,-262.163"/>
<polygon fill="black" stroke="black" points="33.578,-262.023 30.0846,-252.021 26.578,-262.018 33.578,-262.023"/>
</g>
<!-- ACLUReno2 -->
<g id="node44" class="node"><title>ACLUReno2</title>
<ellipse fill="none" stroke="black" cx="116.547" cy="-378" rx="57.6901" ry="18"/>
<text text-anchor="middle" x="116.547" y="-374.3" font-family="Times,serif" font-size="14.00">ACLUReno2</text>
</g>
<!-- COPA&#45;&gt;ACLUReno2 -->
<g id="edge44" class="edge"><title>COPA&#45;&gt;ACLUReno2</title>
<path fill="none" stroke="black" d="M91.3678,-432.411C95.2155,-424.249 99.9435,-414.22 104.259,-405.065"/>
<polygon fill="black" stroke="black" points="107.455,-406.494 108.554,-395.956 101.124,-403.509 107.455,-406.494"/>
</g>
<!-- COPPA -->
<g id="node23" class="node"><title>COPPA</title>
<ellipse fill="none" stroke="black" cx="602.547" cy="-810" rx="38.9931" ry="18"/>
<text text-anchor="middle" x="602.547" y="-806.3" font-family="Times,serif" font-size="14.00">COPPA</text>
</g>
<!-- FirstUSCopyright -->
<g id="node31" class="node"><title>FirstUSCopyright</title>
<ellipse fill="none" stroke="black" cx="1326.55" cy="-450" rx="73.387" ry="18"/>
<text text-anchor="middle" x="1326.55" y="-446.3" font-family="Times,serif" font-size="14.00">FirstUSCopyright</text>
</g>
<!-- CopyrightClause&#45;&gt;FirstUSCopyright -->
<g id="edge32" class="edge"><title>CopyrightClause&#45;&gt;FirstUSCopyright</title>
<path fill="none" stroke="black" d="M1326.55,-503.697C1326.55,-495.983 1326.55,-486.712 1326.55,-478.112"/>
<polygon fill="black" stroke="black" points="1330.05,-478.104 1326.55,-468.104 1323.05,-478.104 1330.05,-478.104"/>
</g>
<!-- CPACACRLI -->
<g id="node25" class="node"><title>CPACACRLI</title>
<ellipse fill="none" stroke="black" cx="351.547" cy="-234" rx="59.5901" ry="18"/>
<text text-anchor="middle" x="351.547" y="-230.3" font-family="Times,serif" font-size="14.00">CPACACRLI</text>
</g>
<!-- CPACACRLI&#45;&gt;CanadaCopyright2001 -->
<g id="edge28" class="edge"><title>CPACACRLI&#45;&gt;CanadaCopyright2001</title>
<path fill="none" stroke="black" d="M378.67,-217.811C396.275,-207.953 419.462,-194.968 438.849,-184.111"/>
<polygon fill="black" stroke="black" points="440.722,-187.073 447.737,-179.134 437.302,-180.966 440.722,-187.073"/>
</g>
<!-- CTEA -->
<g id="node27" class="node"><title>CTEA</title>
<ellipse fill="none" stroke="black" cx="1131.55" cy="-162" rx="33.5952" ry="18"/>
<text text-anchor="middle" x="1131.55" y="-158.3" font-family="Times,serif" font-size="14.00">CTEA</text>
</g>
<!-- DMCA -->
<g id="node28" class="node"><title>DMCA</title>
<ellipse fill="none" stroke="black" cx="1220.55" cy="-162" rx="37.8943" ry="18"/>
<text text-anchor="middle" x="1220.55" y="-158.3" font-family="Times,serif" font-size="14.00">DMCA</text>
</g>
<!-- DMCA&#45;&gt;CPDCI -->
<g id="edge22" class="edge"><title>DMCA&#45;&gt;CPDCI</title>
<path fill="none" stroke="black" d="M1191.61,-150.19C1152.6,-135.575 1087.43,-110.985 1082.55,-108 1072.88,-102.094 1063.13,-102.324 1063.55,-91"/>
</g>
<!-- RoCRuleMaking -->
<g id="node35" class="node"><title>RoCRuleMaking</title>
<ellipse fill="none" stroke="black" cx="850.547" cy="-90" rx="71.4873" ry="18"/>
<text text-anchor="middle" x="850.547" y="-86.3" font-family="Times,serif" font-size="14.00">RoCRuleMaking</text>
</g>
<!-- DMCA&#45;&gt;RoCRuleMaking -->
<g id="edge23" class="edge"><title>DMCA&#45;&gt;RoCRuleMaking</title>
<path fill="none" stroke="black" d="M1192.6,-149.702C1186.71,-147.594 1180.47,-145.564 1174.55,-144 1090.28,-121.758 991.095,-107.178 924.87,-99.0422"/>
<polygon fill="black" stroke="black" points="925.286,-95.5671 914.938,-97.84 924.445,-102.516 925.286,-95.5671"/>
</g>
<!-- SSSCA -->
<g id="node36" class="node"><title>SSSCA</title>
<ellipse fill="none" stroke="black" cx="1129.55" cy="-90" rx="37.8943" ry="18"/>
<text text-anchor="middle" x="1129.55" y="-86.3" font-family="Times,serif" font-size="14.00">SSSCA</text>
</g>
<!-- DMCA&#45;&gt;SSSCA -->
<g id="edge24" class="edge"><title>DMCA&#45;&gt;SSSCA</title>
<path fill="none" stroke="black" d="M1201.25,-146.155C1188.25,-136.157 1170.93,-122.832 1156.57,-111.783"/>
<polygon fill="black" stroke="black" points="1158.57,-108.907 1148.51,-105.584 1154.3,-114.455 1158.57,-108.907"/>
</g>
<!-- Felten -->
<g id="node52" class="node"><title>Felten</title>
<ellipse fill="none" stroke="black" cx="1497.55" cy="-90" rx="32.4942" ry="18"/>
<text text-anchor="middle" x="1497.55" y="-86.3" font-family="Times,serif" font-size="14.00">Felten</text>
</g>
<!-- DMCA&#45;&gt;Felten -->
<g id="edge49" class="edge"><title>DMCA&#45;&gt;Felten</title>
<path fill="none" stroke="black" d="M1248.52,-149.818C1254.42,-147.7 1260.64,-145.639 1266.55,-144 1349.37,-121.023 1374.19,-132.59 1456.55,-108 1458.85,-107.312 1461.2,-106.539 1463.56,-105.711"/>
<polygon fill="black" stroke="black" points="1465.02,-108.902 1473.13,-102.086 1462.54,-102.356 1465.02,-108.902"/>
</g>
<!-- Johansen -->
<g id="node54" class="node"><title>Johansen</title>
<ellipse fill="none" stroke="black" cx="1404.55" cy="-90" rx="42.7926" ry="18"/>
<text text-anchor="middle" x="1404.55" y="-86.3" font-family="Times,serif" font-size="14.00">Johansen</text>
</g>
<!-- DMCA&#45;&gt;Johansen -->
<g id="edge50" class="edge"><title>DMCA&#45;&gt;Johansen</title>
<path fill="none" stroke="black" d="M1249.3,-150.062C1280.25,-138.288 1329.71,-119.472 1364.47,-106.248"/>
<polygon fill="black" stroke="black" points="1365.75,-109.504 1373.85,-102.677 1363.26,-102.962 1365.75,-109.504"/>
</g>
<!-- Sklyarov -->
<g id="node62" class="node"><title>Sklyarov</title>
<ellipse fill="none" stroke="black" cx="1227.55" cy="-90" rx="42.4939" ry="18"/>
<text text-anchor="middle" x="1227.55" y="-86.3" font-family="Times,serif" font-size="14.00">Sklyarov</text>
</g>
<!-- DMCA&#45;&gt;Sklyarov -->
<g id="edge51" class="edge"><title>DMCA&#45;&gt;Sklyarov</title>
<path fill="none" stroke="black" d="M1222.28,-143.697C1223.05,-135.983 1223.98,-126.712 1224.84,-118.112"/>
<polygon fill="black" stroke="black" points="1228.32,-118.403 1225.84,-108.104 1221.36,-117.706 1228.32,-118.403"/>
</g>
<!-- EAR -->
<g id="node29" class="node"><title>EAR</title>
<ellipse fill="none" stroke="black" cx="359.547" cy="-810" rx="28.6953" ry="18"/>
<text text-anchor="middle" x="359.547" y="-806.3" font-family="Times,serif" font-size="14.00">EAR</text>
</g>
<!-- ITAR -->
<g id="node32" class="node"><title>ITAR</title>
<ellipse fill="none" stroke="black" cx="325.547" cy="-738" rx="31.3957" ry="18"/>
<text text-anchor="middle" x="325.547" y="-734.3" font-family="Times,serif" font-size="14.00">ITAR</text>
</g>
<!-- EAR&#45;&gt;ITAR -->
<g id="edge25" class="edge"><title>EAR&#45;&gt;ITAR</title>
<path fill="none" stroke="black" d="M351.49,-792.411C347.467,-784.129 342.511,-773.925 338.012,-764.662"/>
<polygon fill="black" stroke="black" points="341.064,-762.936 333.547,-755.47 334.768,-765.994 341.064,-762.936"/>
</g>
<!-- KarnSchneier -->
<g id="node56" class="node"><title>KarnSchneier</title>
<ellipse fill="none" stroke="black" cx="389.547" cy="-594" rx="59.2899" ry="18"/>
<text text-anchor="middle" x="389.547" y="-590.3" font-family="Times,serif" font-size="14.00">KarnSchneier</text>
</g>
<!-- EAR&#45;&gt;KarnSchneier -->
<g id="edge57" class="edge"><title>EAR&#45;&gt;KarnSchneier</title>
<path fill="none" stroke="black" d="M361.952,-791.849C367.141,-754.832 379.428,-667.181 385.708,-622.386"/>
<polygon fill="black" stroke="black" points="389.209,-622.622 387.132,-612.232 382.277,-621.65 389.209,-622.622"/>
</g>
<!-- FirstAmendment -->
<g id="node30" class="node"><title>FirstAmendment</title>
<ellipse fill="none" stroke="black" cx="178.547" cy="-666" rx="71.4873" ry="18"/>
<text text-anchor="middle" x="178.547" y="-662.3" font-family="Times,serif" font-size="14.00">FirstAmendment</text>
</g>
<!-- FirstAmendment&#45;&gt;ACLUReno -->
<g id="edge53" class="edge"><title>FirstAmendment&#45;&gt;ACLUReno</title>
<path fill="none" stroke="black" d="M169.349,-648.055C164.914,-639.887 159.499,-629.912 154.566,-620.824"/>
<polygon fill="black" stroke="black" points="157.508,-618.908 149.661,-611.789 151.356,-622.247 157.508,-618.908"/>
</g>
<!-- Bernstein -->
<g id="node47" class="node"><title>Bernstein</title>
<ellipse fill="none" stroke="black" cx="263.547" cy="-594" rx="44.393" ry="18"/>
<text text-anchor="middle" x="263.547" y="-590.3" font-family="Times,serif" font-size="14.00">Bernstein</text>
</g>
<!-- FirstAmendment&#45;&gt;Bernstein -->
<g id="edge52" class="edge"><title>FirstAmendment&#45;&gt;Bernstein</title>
<path fill="none" stroke="black" d="M198.691,-648.411C210.128,-638.992 224.585,-627.087 236.946,-616.907"/>
<polygon fill="black" stroke="black" points="239.218,-619.57 244.713,-610.511 234.768,-614.166 239.218,-619.57"/>
</g>
<!-- USCopyright1831 -->
<g id="node39" class="node"><title>USCopyright1831</title>
<ellipse fill="none" stroke="black" cx="1326.55" cy="-378" rx="75.2868" ry="18"/>
<text text-anchor="middle" x="1326.55" y="-374.3" font-family="Times,serif" font-size="14.00">USCopyright1831</text>
</g>
<!-- FirstUSCopyright&#45;&gt;USCopyright1831 -->
<g id="edge33" class="edge"><title>FirstUSCopyright&#45;&gt;USCopyright1831</title>
<path fill="none" stroke="black" d="M1326.55,-431.697C1326.55,-423.983 1326.55,-414.712 1326.55,-406.112"/>
<polygon fill="black" stroke="black" points="1330.05,-406.104 1326.55,-396.104 1323.05,-406.104 1330.05,-406.104"/>
</g>
<!-- ITAR1996 -->
<g id="node33" class="node"><title>ITAR1996</title>
<ellipse fill="none" stroke="black" cx="316.547" cy="-666" rx="48.9926" ry="18"/>
<text text-anchor="middle" x="316.547" y="-662.3" font-family="Times,serif" font-size="14.00">ITAR1996</text>
</g>
<!-- ITAR&#45;&gt;ITAR1996 -->
<g id="edge26" class="edge"><title>ITAR&#45;&gt;ITAR1996</title>
<path fill="none" stroke="black" d="M323.323,-719.697C322.331,-711.983 321.139,-702.712 320.033,-694.112"/>
<polygon fill="black" stroke="black" points="323.493,-693.576 318.746,-684.104 316.55,-694.469 323.493,-693.576"/>
</g>
<!-- ITAR1996&#45;&gt;Bernstein -->
<g id="edge59" class="edge"><title>ITAR1996&#45;&gt;Bernstein</title>
<path fill="none" stroke="black" d="M303.987,-648.411C297.453,-639.781 289.337,-629.062 282.095,-619.497"/>
<polygon fill="black" stroke="black" points="284.844,-617.33 276.017,-611.47 279.263,-621.555 284.844,-617.33"/>
</g>
<!-- ITAR1996&#45;&gt;KarnSchneier -->
<g id="edge61" class="edge"><title>ITAR1996&#45;&gt;KarnSchneier</title>
<path fill="none" stroke="black" d="M333.478,-648.765C342.901,-639.73 354.793,-628.326 365.198,-618.349"/>
<polygon fill="black" stroke="black" points="367.66,-620.837 372.455,-611.39 362.815,-615.785 367.66,-620.837"/>
</g>
<!-- JumpTV -->
<g id="node34" class="node"><title>JumpTV</title>
<ellipse fill="none" stroke="black" cx="351.547" cy="-306" rx="42.4939" ry="18"/>
<text text-anchor="middle" x="351.547" y="-302.3" font-family="Times,serif" font-size="14.00">JumpTV</text>
</g>
<!-- JumpTV&#45;&gt;CPACACRLI -->
<g id="edge27" class="edge"><title>JumpTV&#45;&gt;CPACACRLI</title>
<path fill="none" stroke="black" d="M351.547,-287.697C351.547,-279.983 351.547,-270.712 351.547,-262.112"/>
<polygon fill="black" stroke="black" points="355.047,-262.104 351.547,-252.104 348.047,-262.104 355.047,-262.104"/>
</g>
<!-- StationersCharter -->
<g id="node37" class="node"><title>StationersCharter</title>
<ellipse fill="none" stroke="black" cx="1326.55" cy="-666" rx="72.2875" ry="18"/>
<text text-anchor="middle" x="1326.55" y="-662.3" font-family="Times,serif" font-size="14.00">StationersCharter</text>
</g>
<!-- StationersCharter&#45;&gt;Anne -->
<g id="edge30" class="edge"><title>StationersCharter&#45;&gt;Anne</title>
<path fill="none" stroke="black" d="M1326.55,-647.697C1326.55,-639.983 1326.55,-630.712 1326.55,-622.112"/>
<polygon fill="black" stroke="black" points="1330.05,-622.104 1326.55,-612.104 1323.05,-622.104 1330.05,-622.104"/>
</g>
<!-- USCopyright1909 -->
<g id="node40" class="node"><title>USCopyright1909</title>
<ellipse fill="none" stroke="black" cx="1320.55" cy="-306" rx="75.2868" ry="18"/>
<text text-anchor="middle" x="1320.55" y="-302.3" font-family="Times,serif" font-size="14.00">USCopyright1909</text>
</g>
<!-- USCopyright1831&#45;&gt;USCopyright1909 -->
<g id="edge34" class="edge"><title>USCopyright1831&#45;&gt;USCopyright1909</title>
<path fill="none" stroke="black" d="M1325.06,-359.697C1324.4,-351.983 1323.61,-342.712 1322.87,-334.112"/>
<polygon fill="black" stroke="black" points="1326.35,-333.769 1322.01,-324.104 1319.38,-334.367 1326.35,-333.769"/>
</g>
<!-- Folsom -->
<g id="node53" class="node"><title>Folsom</title>
<ellipse fill="none" stroke="black" cx="1463.55" cy="-306" rx="37.8943" ry="18"/>
<text text-anchor="middle" x="1463.55" y="-302.3" font-family="Times,serif" font-size="14.00">Folsom</text>
</g>
<!-- USCopyright1831&#45;&gt;Folsom -->
<g id="edge69" class="edge"><title>USCopyright1831&#45;&gt;Folsom</title>
<path fill="none" stroke="black" d="M1356.95,-361.465C1378.47,-350.469 1407.35,-335.714 1429.62,-324.336"/>
<polygon fill="black" stroke="black" points="1431.41,-327.353 1438.72,-319.687 1428.22,-321.12 1431.41,-327.353"/>
</g>
<!-- USCopyright1909&#45;&gt;USCopyright1976 -->
<g id="edge35" class="edge"><title>USCopyright1909&#45;&gt;USCopyright1976</title>
<path fill="none" stroke="black" d="M1319.31,-287.697C1318.76,-279.983 1318.1,-270.712 1317.48,-262.112"/>
<polygon fill="black" stroke="black" points="1320.97,-261.83 1316.77,-252.104 1313.99,-262.328 1320.97,-261.83"/>
</g>
<!-- USCopyright1976&#45;&gt;CTEA -->
<g id="edge36" class="edge"><title>USCopyright1976&#45;&gt;CTEA</title>
<path fill="none" stroke="black" d="M1275.96,-218.553C1247.41,-208.056 1208,-193.401 1173.55,-180 1171.46,-179.189 1169.32,-178.349 1167.17,-177.495"/>
<polygon fill="black" stroke="black" points="1168.3,-174.18 1157.72,-173.721 1165.7,-180.681 1168.3,-174.18"/>
</g>
<!-- USCopyright1976&#45;&gt;DMCA -->
<g id="edge37" class="edge"><title>USCopyright1976&#45;&gt;DMCA</title>
<path fill="none" stroke="black" d="M1293.51,-216.765C1280.04,-206.839 1262.69,-194.054 1248.29,-183.442"/>
<polygon fill="black" stroke="black" points="1250.33,-180.597 1240.2,-177.483 1246.18,-186.233 1250.33,-180.597"/>
</g>
<!-- USCopyright1976&#45;&gt;URAA -->
<g id="edge39" class="edge"><title>USCopyright1976&#45;&gt;URAA</title>
<path fill="none" stroke="black" d="M1260.45,-221.685C1250.83,-219.755 1240.9,-217.795 1231.55,-216 1143.42,-199.087 1040.06,-180.656 982.975,-170.601"/>
<polygon fill="black" stroke="black" points="983.324,-167.109 972.869,-168.823 982.112,-174.003 983.324,-167.109"/>
</g>
<!-- Feist -->
<g id="node51" class="node"><title>Feist</title>
<ellipse fill="none" stroke="black" cx="1401.55" cy="-162" rx="27.8951" ry="18"/>
<text text-anchor="middle" x="1401.55" y="-158.3" font-family="Times,serif" font-size="14.00">Feist</text>
</g>
<!-- USCopyright1976&#45;&gt;Feist -->
<g id="edge70" class="edge"><title>USCopyright1976&#45;&gt;Feist</title>
<path fill="none" stroke="black" d="M1335.93,-216.411C1348.15,-206.462 1363.78,-193.737 1376.73,-183.204"/>
<polygon fill="black" stroke="black" points="1379.23,-185.677 1384.78,-176.65 1374.81,-180.248 1379.23,-185.677"/>
</g>
<!-- Playboy -->
<g id="node58" class="node"><title>Playboy</title>
<ellipse fill="none" stroke="black" cx="1315.55" cy="-162" rx="39.7935" ry="18"/>
<text text-anchor="middle" x="1315.55" y="-158.3" font-family="Times,serif" font-size="14.00">Playboy</text>
</g>
<!-- USCopyright1976&#45;&gt;Playboy -->
<g id="edge71" class="edge"><title>USCopyright1976&#45;&gt;Playboy</title>
<path fill="none" stroke="black" d="M1315.55,-215.697C1315.55,-207.983 1315.55,-198.712 1315.55,-190.112"/>
<polygon fill="black" stroke="black" points="1319.05,-190.104 1315.55,-180.104 1312.05,-190.104 1319.05,-190.104"/>
</g>
<!-- iCraveTV -->
<g id="node42" class="node"><title>iCraveTV</title>
<ellipse fill="none" stroke="black" cx="351.547" cy="-378" rx="46.2923" ry="18"/>
<text text-anchor="middle" x="351.547" y="-374.3" font-family="Times,serif" font-size="14.00">iCraveTV</text>
</g>
<!-- iCraveTV&#45;&gt;JumpTV -->
<g id="edge58" class="edge"><title>iCraveTV&#45;&gt;JumpTV</title>
<path fill="none" stroke="black" d="M351.547,-359.697C351.547,-351.983 351.547,-342.712 351.547,-334.112"/>
<polygon fill="black" stroke="black" points="355.047,-334.104 351.547,-324.104 348.047,-334.104 355.047,-334.104"/>
</g>
<!-- RenoACLU -->
<g id="node59" class="node"><title>RenoACLU</title>
<ellipse fill="none" stroke="black" cx="140.547" cy="-522" rx="53.0913" ry="18"/>
<text text-anchor="middle" x="140.547" y="-518.3" font-family="Times,serif" font-size="14.00">RenoACLU</text>
</g>
<!-- ACLUReno&#45;&gt;RenoACLU -->
<g id="edge42" class="edge"><title>ACLUReno&#45;&gt;RenoACLU</title>
<path fill="none" stroke="black" d="M140.547,-575.697C140.547,-567.983 140.547,-558.712 140.547,-550.112"/>
<polygon fill="black" stroke="black" points="144.047,-550.104 140.547,-540.104 137.047,-550.104 144.047,-550.104"/>
</g>
<!-- RenoACLU2 -->
<g id="node60" class="node"><title>RenoACLU2</title>
<ellipse fill="none" stroke="black" cx="116.547" cy="-306" rx="57.6901" ry="18"/>
<text text-anchor="middle" x="116.547" y="-302.3" font-family="Times,serif" font-size="14.00">RenoACLU2</text>
</g>
<!-- ACLUReno2&#45;&gt;RenoACLU2 -->
<g id="edge45" class="edge"><title>ACLUReno2&#45;&gt;RenoACLU2</title>
<path fill="none" stroke="black" d="M116.547,-359.697C116.547,-351.983 116.547,-342.712 116.547,-334.112"/>
<polygon fill="black" stroke="black" points="120.047,-334.104 116.547,-324.104 113.047,-334.104 120.047,-334.104"/>
</g>
<!-- Ashcroft -->
<g id="node46" class="node"><title>Ashcroft</title>
<ellipse fill="none" stroke="black" cx="193.547" cy="-234" rx="41.6928" ry="18"/>
<text text-anchor="middle" x="193.547" y="-230.3" font-family="Times,serif" font-size="14.00">Ashcroft</text>
</g>
<!-- Junger -->
<g id="node55" class="node"><title>Junger</title>
<ellipse fill="none" stroke="black" cx="263.547" cy="-522" rx="34.394" ry="18"/>
<text text-anchor="middle" x="263.547" y="-518.3" font-family="Times,serif" font-size="14.00">Junger</text>
</g>
<!-- Bernstein&#45;&gt;Junger -->
<g id="edge60" class="edge"><title>Bernstein&#45;&gt;Junger</title>
<path fill="none" stroke="black" d="M263.547,-575.697C263.547,-567.983 263.547,-558.712 263.547,-550.112"/>
<polygon fill="black" stroke="black" points="267.047,-550.104 263.547,-540.104 260.047,-550.104 267.047,-550.104"/>
</g>
<!-- Betamax -->
<g id="node48" class="node"><title>Betamax</title>
<ellipse fill="none" stroke="black" cx="1463.55" cy="-234" rx="42.4939" ry="18"/>
<text text-anchor="middle" x="1463.55" y="-230.3" font-family="Times,serif" font-size="14.00">Betamax</text>
</g>
<!-- Betamax&#45;&gt;Felten -->
<g id="edge40" class="edge"><title>Betamax&#45;&gt;Felten</title>
<path fill="none" stroke="black" d="M1467.65,-215.871C1473.47,-191.564 1484.18,-146.819 1491.08,-118.013"/>
<polygon fill="black" stroke="black" points="1494.51,-118.729 1493.43,-108.189 1487.7,-117.099 1494.51,-118.729"/>
</g>
<!-- Campbell -->
<g id="node49" class="node"><title>Campbell</title>
<ellipse fill="none" stroke="black" cx="1569.55" cy="-234" rx="45.4919" ry="18"/>
<text text-anchor="middle" x="1569.55" y="-230.3" font-family="Times,serif" font-size="14.00">Campbell</text>
</g>
<!-- Suntrust -->
<g id="node63" class="node"><title>Suntrust</title>
<ellipse fill="none" stroke="black" cx="1569.55" cy="-162" rx="40.0939" ry="18"/>
<text text-anchor="middle" x="1569.55" y="-158.3" font-family="Times,serif" font-size="14.00">Suntrust</text>
</g>
<!-- Campbell&#45;&gt;Suntrust -->
<g id="edge55" class="edge"><title>Campbell&#45;&gt;Suntrust</title>
<path fill="none" stroke="black" d="M1569.55,-215.697C1569.55,-207.983 1569.55,-198.712 1569.55,-190.112"/>
<polygon fill="black" stroke="black" points="1573.05,-190.104 1569.55,-180.104 1566.05,-190.104 1573.05,-190.104"/>
</g>
<!-- DVDCCA -->
<g id="node50" class="node"><title>DVDCCA</title>
<ellipse fill="none" stroke="black" cx="1348.55" cy="-18" rx="48.1917" ry="18"/>
<text text-anchor="middle" x="1348.55" y="-14.3" font-family="Times,serif" font-size="14.00">DVDCCA</text>
</g>
<!-- Folsom&#45;&gt;Betamax -->
<g id="edge56" class="edge"><title>Folsom&#45;&gt;Betamax</title>
<path fill="none" stroke="black" d="M1463.55,-287.697C1463.55,-279.983 1463.55,-270.712 1463.55,-262.112"/>
<polygon fill="black" stroke="black" points="1467.05,-262.104 1463.55,-252.104 1460.05,-262.104 1467.05,-262.104"/>
</g>
<!-- Folsom&#45;&gt;Campbell -->
<g id="edge54" class="edge"><title>Folsom&#45;&gt;Campbell</title>
<path fill="none" stroke="black" d="M1484.74,-291.003C1500.07,-280.878 1521.04,-267.032 1538.29,-255.641"/>
<polygon fill="black" stroke="black" points="1540.51,-258.372 1546.92,-249.941 1536.65,-252.531 1540.51,-258.372"/>
</g>
<!-- Johansen&#45;&gt;DVDCCA -->
<g id="edge62" class="edge"><title>Johansen&#45;&gt;DVDCCA</title>
<path fill="none" stroke="black" d="M1391.56,-72.7646C1384.66,-64.143 1376.04,-53.3647 1368.33,-43.7267"/>
<polygon fill="black" stroke="black" points="1370.83,-41.2557 1361.85,-35.6334 1365.37,-45.6286 1370.83,-41.2557"/>
</g>
<!-- Universal -->
<g id="node64" class="node"><title>Universal</title>
<ellipse fill="none" stroke="black" cx="1459.55" cy="-18" rx="44.6926" ry="18"/>
<text text-anchor="middle" x="1459.55" y="-14.3" font-family="Times,serif" font-size="14.00">Universal</text>
</g>
<!-- Johansen&#45;&gt;Universal -->
<g id="edge63" class="edge"><title>Johansen&#45;&gt;Universal</title>
<path fill="none" stroke="black" d="M1417.3,-72.7646C1424.08,-64.143 1432.55,-53.3647 1440.12,-43.7267"/>
<polygon fill="black" stroke="black" points="1443.05,-45.659 1446.48,-35.6334 1437.55,-41.3342 1443.05,-45.659"/>
</g>
<!-- Junger&#45;&gt;Microsystems -->
<g id="edge64" class="edge"><title>Junger&#45;&gt;Microsystems</title>
<path fill="none" stroke="black" d="M263.547,-503.951C263.547,-477.292 263.547,-424.115 263.547,-379 263.547,-379 263.547,-379 263.547,-305 263.547,-264.996 263.547,-218.653 263.547,-190.08"/>
<polygon fill="black" stroke="black" points="267.047,-190.049 263.547,-180.049 260.047,-190.049 267.047,-190.049"/>
</g>
<!-- Microsystems&#45;&gt;RoCRuleMaking -->
<g id="edge65" class="edge"><title>Microsystems&#45;&gt;RoCRuleMaking</title>
<path fill="none" stroke="black" d="M316.275,-152.728C335.535,-149.814 357.507,-146.616 377.547,-144 517.73,-125.7 681.8,-108.189 775.219,-98.5849"/>
<polygon fill="black" stroke="black" points="775.832,-102.041 785.423,-97.5386 775.118,-95.0771 775.832,-102.041"/>
</g>
<!-- RTC -->
<g id="node61" class="node"><title>RTC</title>
<ellipse fill="none" stroke="black" cx="1315.55" cy="-90" rx="27.8951" ry="18"/>
<text text-anchor="middle" x="1315.55" y="-86.3" font-family="Times,serif" font-size="14.00">RTC</text>
</g>
<!-- Playboy&#45;&gt;RTC -->
<g id="edge66" class="edge"><title>Playboy&#45;&gt;RTC</title>
<path fill="none" stroke="black" d="M1315.55,-143.697C1315.55,-135.983 1315.55,-126.712 1315.55,-118.112"/>
<polygon fill="black" stroke="black" points="1319.05,-118.104 1315.55,-108.104 1312.05,-118.104 1319.05,-118.104"/>
</g>
<!-- RenoACLU&#45;&gt;COPA -->
<g id="edge43" class="edge"><title>RenoACLU&#45;&gt;COPA</title>
<path fill="none" stroke="black" d="M127.039,-504.411C119.838,-495.567 110.851,-484.531 102.919,-474.789"/>
<polygon fill="black" stroke="black" points="105.595,-472.532 96.5662,-466.988 100.166,-476.952 105.595,-472.532"/>
</g>
<!-- RenoACLU2&#45;&gt;CIPA -->
<g id="edge46" class="edge"><title>RenoACLU2&#45;&gt;CIPA</title>
<path fill="none" stroke="black" d="M96.601,-288.765C84.4713,-278.892 68.8669,-266.19 55.8707,-255.612"/>
<polygon fill="black" stroke="black" points="57.7349,-252.617 47.7698,-249.018 53.3159,-258.046 57.7349,-252.617"/>
</g>
<!-- RenoACLU2&#45;&gt;Ashcroft -->
<g id="edge67" class="edge"><title>RenoACLU2&#45;&gt;Ashcroft</title>
<path fill="none" stroke="black" d="M134.406,-288.765C144.658,-279.445 157.681,-267.605 168.896,-257.41"/>
<polygon fill="black" stroke="black" points="171.27,-259.982 176.315,-250.666 166.561,-254.803 171.27,-259.982"/>
</g>
<!-- RTC&#45;&gt;CPDCI -->
<g id="edge68" class="edge"><title>RTC&#45;&gt;CPDCI</title>
<path fill="none" stroke="black" d="M1293.29,-78.6551C1288.44,-76.4351 1283.33,-74.1202 1278.55,-72 1249.26,-59.016 1215.85,-44.7698 1191.1,-34.3204"/>
<polygon fill="black" stroke="black" points="1192.3,-31.0296 1181.73,-30.3717 1189.59,-37.4803 1192.3,-31.0296"/>
</g>
</g>
</svg>
