<?xml version="1.0" encoding="UTF-8" standalone="no"?>
<!DOCTYPE svg PUBLIC "-//W3C//DTD SVG 1.1//EN"
 "http://www.w3.org/Graphics/SVG/1.1/DTD/svg11.dtd">
<!-- Generated by graphviz version 2.38.0 (20140413.2041)
 -->
<!-- Title: test Pages: 1 -->
<svg width="95pt" height="45pt"
 viewBox="0.00 0.00 95.00 45.00" xmlns="http://www.w3.org/2000/svg" xmlns:xlink="http://www.w3.org/1999/xlink">
<g id="graph0" class="graph" transform="scale(1 1) rotate(0) translate(4 41)">
<title>test</title>
<polygon fill="white" stroke="none" points="-4,4 -4,-41 91,-41 91,4 -4,4"/>
<!-- gvds_array0 -->
<g id="node1" class="node"><title>gvds_array0</title>
<polygon fill="none" stroke="black" points="0,-0.5 0,-36.5 69,-36.5 69,-0.5 0,-0.5"/>
<text text-anchor="middle" x="11.5" y="-14.8" font-family="Times,serif" font-size="14.00">1</text>
<polyline fill="none" stroke="black" points="23,-0.5 23,-36.5 "/>
<text text-anchor="middle" x="34.5" y="-14.8" font-family="Times,serif" font-size="14.00">2</text>
<polyline fill="none" stroke="black" points="46,-0.5 46,-36.5 "/>
<text text-anchor="middle" x="57.5" y="-14.8" font-family="Times,serif" font-size="14.00">3</text>
</g>
<!-- gvds_array0&#45;&gt;gvds_array0 -->
<g id="edge1" class="edge"><title>gvds_array0:port2&#45;&gt;gvds_array0</title>
<path fill="none" stroke="black" d="M46.1041,-22.6788C64.1162,-27.1703 87,-25.7773 87,-18.5 87,-15.8413 83.9456,-13.968 79.1904,-12.8801"/>
<polygon fill="black" stroke="black" points="79.4086,-9.38315 69.0862,-11.7702 78.6442,-16.3413 79.4086,-9.38315"/>
</g>
</g>
</svg>
