<?xml version="1.0" encoding="UTF-8" standalone="no"?>
<!DOCTYPE svg PUBLIC "-//W3C//DTD SVG 1.1//EN"
 "http://www.w3.org/Graphics/SVG/1.1/DTD/svg11.dtd">
<!-- Generated by graphviz version 2.38.0 (20140413.2041)
 -->
<!-- Title: g Pages: 1 -->
<svg width="374pt" height="296pt"
 viewBox="0.00 0.00 374.00 296.00" xmlns="http://www.w3.org/2000/svg" xmlns:xlink="http://www.w3.org/1999/xlink">
<g id="graph0" class="graph" transform="scale(1 1) rotate(0) translate(4 292)">
<title>g</title>
<polygon fill="white" stroke="none" points="-4,4 -4,-292 370,-292 370,4 -4,4"/>
<g id="clust1" class="cluster"><title>cluster0</title>
<polygon fill="none" stroke="black" points="8,-8 8,-280 358,-280 358,-8 8,-8"/>
</g>
<!-- n12 -->
<g id="node1" class="node"><title>n12</title>
<polygon fill="none" stroke="black" points="16,-16.5 16,-52.5 86,-52.5 86,-16.5 16,-16.5"/>
<text text-anchor="middle" x="26" y="-30.8" font-family="Times,serif" font-size="14.00"> </text>
<polyline fill="none" stroke="black" points="36,-16.5 36,-52.5 "/>
<text text-anchor="middle" x="51" y="-30.8" font-family="Times,serif" font-size="14.00">12</text>
<polyline fill="none" stroke="black" points="66,-16.5 66,-52.5 "/>
<text text-anchor="middle" x="76" y="-30.8" font-family="Times,serif" font-size="14.00"> </text>
</g>
<!-- n13 -->
<g id="node2" class="node"><title>n13</title>
<polygon fill="none" stroke="black" points="104,-16.5 104,-52.5 174,-52.5 174,-16.5 104,-16.5"/>
<text text-anchor="middle" x="114" y="-30.8" font-family="Times,serif" font-size="14.00"> </text>
<polyline fill="none" stroke="black" points="124,-16.5 124,-52.5 "/>
<text text-anchor="middle" x="139" y="-30.8" font-family="Times,serif" font-size="14.00">13</text>
<polyline fill="none" stroke="black" points="154,-16.5 154,-52.5 "/>
<text text-anchor="middle" x="164" y="-30.8" font-family="Times,serif" font-size="14.00"> </text>
</g>
<!-- n18 -->
<g id="node3" class="node"><title>n18</title>
<polygon fill="none" stroke="black" points="280,-16.5 280,-52.5 350,-52.5 350,-16.5 280,-16.5"/>
<text text-anchor="middle" x="290" y="-30.8" font-family="Times,serif" font-size="14.00"> </text>
<polyline fill="none" stroke="black" points="300,-16.5 300,-52.5 "/>
<text text-anchor="middle" x="315" y="-30.8" font-family="Times,serif" font-size="14.00">18</text>
<polyline fill="none" stroke="black" points="330,-16.5 330,-52.5 "/>
<text text-anchor="middle" x="340" y="-30.8" font-family="Times,serif" font-size="14.00"> </text>
</g>
<!-- n2 -->
<g id="node4" class="node"><title>n2</title>
<polygon fill="none" stroke="black" points="16.5,-89.5 16.5,-125.5 79.5,-125.5 79.5,-89.5 16.5,-89.5"/>
<text text-anchor="middle" x="26.5" y="-103.8" font-family="Times,serif" font-size="14.00"> </text>
<polyline fill="none" stroke="black" points="36.5,-89.5 36.5,-125.5 "/>
<text text-anchor="middle" x="48" y="-103.8" font-family="Times,serif" font-size="14.00">2</text>
<polyline fill="none" stroke="black" points="59.5,-89.5 59.5,-125.5 "/>
<text text-anchor="middle" x="69.5" y="-103.8" font-family="Times,serif" font-size="14.00"> </text>
</g>
<!-- n23 -->
<g id="node5" class="node"><title>n23</title>
<polygon fill="none" stroke="black" points="192,-16.5 192,-52.5 262,-52.5 262,-16.5 192,-16.5"/>
<text text-anchor="middle" x="202" y="-30.8" font-family="Times,serif" font-size="14.00"> </text>
<polyline fill="none" stroke="black" points="212,-16.5 212,-52.5 "/>
<text text-anchor="middle" x="227" y="-30.8" font-family="Times,serif" font-size="14.00">23</text>
<polyline fill="none" stroke="black" points="242,-16.5 242,-52.5 "/>
<text text-anchor="middle" x="252" y="-30.8" font-family="Times,serif" font-size="14.00"> </text>
</g>
<!-- n3 -->
<g id="node6" class="node"><title>n3</title>
<polygon fill="none" stroke="black" points="75.5,-162.5 75.5,-198.5 138.5,-198.5 138.5,-162.5 75.5,-162.5"/>
<text text-anchor="middle" x="85.5" y="-176.8" font-family="Times,serif" font-size="14.00"> </text>
<polyline fill="none" stroke="black" points="95.5,-162.5 95.5,-198.5 "/>
<text text-anchor="middle" x="107" y="-176.8" font-family="Times,serif" font-size="14.00">3</text>
<polyline fill="none" stroke="black" points="118.5,-162.5 118.5,-198.5 "/>
<text text-anchor="middle" x="128.5" y="-176.8" font-family="Times,serif" font-size="14.00"> </text>
</g>
<!-- n3&#45;&gt;n2 -->
<g id="edge1" class="edge"><title>n3:f0&#45;&gt;n2:f1</title>
<path fill="none" stroke="black" d="M85,-162C85,-143.179 60.1022,-146.451 51.1546,-135.569"/>
<polygon fill="black" stroke="black" points="54.455,-134.401 48,-126 47.807,-136.593 54.455,-134.401"/>
</g>
<!-- n4 -->
<g id="node7" class="node"><title>n4</title>
<polygon fill="none" stroke="black" points="97.5,-89.5 97.5,-125.5 160.5,-125.5 160.5,-89.5 97.5,-89.5"/>
<text text-anchor="middle" x="107.5" y="-103.8" font-family="Times,serif" font-size="14.00"> </text>
<polyline fill="none" stroke="black" points="117.5,-89.5 117.5,-125.5 "/>
<text text-anchor="middle" x="129" y="-103.8" font-family="Times,serif" font-size="14.00">4</text>
<polyline fill="none" stroke="black" points="140.5,-89.5 140.5,-125.5 "/>
<text text-anchor="middle" x="150.5" y="-103.8" font-family="Times,serif" font-size="14.00"> </text>
</g>
<!-- n3&#45;&gt;n4 -->
<g id="edge2" class="edge"><title>n3:f2&#45;&gt;n4:f1</title>
<path fill="none" stroke="black" d="M129,-162C129,-150 129,-144.75 129,-136.125"/>
<polygon fill="black" stroke="black" points="132.5,-136 129,-126 125.5,-136 132.5,-136"/>
</g>
<!-- n5 -->
<g id="node8" class="node"><title>n5</title>
<polygon fill="none" stroke="black" points="137.5,-235.5 137.5,-271.5 200.5,-271.5 200.5,-235.5 137.5,-235.5"/>
<text text-anchor="middle" x="147.5" y="-249.8" font-family="Times,serif" font-size="14.00"> </text>
<polyline fill="none" stroke="black" points="157.5,-235.5 157.5,-271.5 "/>
<text text-anchor="middle" x="169" y="-249.8" font-family="Times,serif" font-size="14.00">5</text>
<polyline fill="none" stroke="black" points="180.5,-235.5 180.5,-271.5 "/>
<text text-anchor="middle" x="190.5" y="-249.8" font-family="Times,serif" font-size="14.00"> </text>
</g>
<!-- n5&#45;&gt;n3 -->
<g id="edge3" class="edge"><title>n5:f0&#45;&gt;n3:f1</title>
<path fill="none" stroke="black" d="M147,-235C147,-215.193 119.568,-219.905 110.139,-208.527"/>
<polygon fill="black" stroke="black" points="113.453,-207.403 107,-199 106.805,-209.593 113.453,-207.403"/>
</g>
<!-- n7 -->
<g id="node10" class="node"><title>n7</title>
<polygon fill="none" stroke="black" points="200.5,-162.5 200.5,-198.5 263.5,-198.5 263.5,-162.5 200.5,-162.5"/>
<text text-anchor="middle" x="210.5" y="-176.8" font-family="Times,serif" font-size="14.00"> </text>
<polyline fill="none" stroke="black" points="220.5,-162.5 220.5,-198.5 "/>
<text text-anchor="middle" x="232" y="-176.8" font-family="Times,serif" font-size="14.00">7</text>
<polyline fill="none" stroke="black" points="243.5,-162.5 243.5,-198.5 "/>
<text text-anchor="middle" x="253.5" y="-176.8" font-family="Times,serif" font-size="14.00"> </text>
</g>
<!-- n5&#45;&gt;n7 -->
<g id="edge4" class="edge"><title>n5:f2&#45;&gt;n7:f1</title>
<path fill="none" stroke="black" d="M191,-235C191,-214.918 219.117,-220.039 228.783,-208.62"/>
<polygon fill="black" stroke="black" points="232.148,-209.594 232,-199 225.509,-207.374 232.148,-209.594"/>
</g>
<!-- n6 -->
<g id="node9" class="node"><title>n6</title>
<polygon fill="none" stroke="black" points="178.5,-89.5 178.5,-125.5 241.5,-125.5 241.5,-89.5 178.5,-89.5"/>
<text text-anchor="middle" x="188.5" y="-103.8" font-family="Times,serif" font-size="14.00"> </text>
<polyline fill="none" stroke="black" points="198.5,-89.5 198.5,-125.5 "/>
<text text-anchor="middle" x="210" y="-103.8" font-family="Times,serif" font-size="14.00">6</text>
<polyline fill="none" stroke="black" points="221.5,-89.5 221.5,-125.5 "/>
<text text-anchor="middle" x="231.5" y="-103.8" font-family="Times,serif" font-size="14.00"> </text>
</g>
<!-- n6&#45;&gt;n12 -->
<g id="edge5" class="edge"><title>n6:f0&#45;&gt;n12:f1</title>
<path fill="none" stroke="black" d="M177,-107.5C168.042,-107.5 175.679,-94.9697 169,-89 130.993,-55.0295 61.6657,-100.499 52.1044,-63.0017"/>
<polygon fill="black" stroke="black" points="55.5765,-62.5554 51,-53 48.6188,-63.3238 55.5765,-62.5554"/>
</g>
<!-- n6&#45;&gt;n13 -->
<g id="edge6" class="edge"><title>n6:f2&#45;&gt;n13:f1</title>
<path fill="none" stroke="black" d="M232,-89C232,-48.8331 155.62,-88.3035 141.299,-63.0686"/>
<polygon fill="black" stroke="black" points="144.638,-61.97 139,-53 137.814,-63.5282 144.638,-61.97"/>
</g>
<!-- n7&#45;&gt;n6 -->
<g id="edge7" class="edge"><title>n7:f0&#45;&gt;n6:f1</title>
<path fill="none" stroke="black" d="M210,-162C210,-150 210,-144.75 210,-136.125"/>
<polygon fill="black" stroke="black" points="213.5,-136 210,-126 206.5,-136 213.5,-136"/>
</g>
<!-- n8 -->
<g id="node11" class="node"><title>n8</title>
<polygon fill="none" stroke="black" points="259.5,-89.5 259.5,-125.5 322.5,-125.5 322.5,-89.5 259.5,-89.5"/>
<text text-anchor="middle" x="269.5" y="-103.8" font-family="Times,serif" font-size="14.00"> </text>
<polyline fill="none" stroke="black" points="279.5,-89.5 279.5,-125.5 "/>
<text text-anchor="middle" x="291" y="-103.8" font-family="Times,serif" font-size="14.00">8</text>
<polyline fill="none" stroke="black" points="302.5,-89.5 302.5,-125.5 "/>
<text text-anchor="middle" x="312.5" y="-103.8" font-family="Times,serif" font-size="14.00"> </text>
</g>
<!-- n7&#45;&gt;n8 -->
<g id="edge8" class="edge"><title>n7:f2&#45;&gt;n8:f1</title>
<path fill="none" stroke="black" d="M254,-162C254,-143.179 278.898,-146.451 287.845,-135.569"/>
<polygon fill="black" stroke="black" points="291.193,-136.593 291,-126 284.545,-134.401 291.193,-136.593"/>
</g>
<!-- n8&#45;&gt;n18 -->
<g id="edge10" class="edge"><title>n8:f2&#45;&gt;n18:f1</title>
<path fill="none" stroke="black" d="M313,-89C313,-76.9815 314.125,-71.7546 314.688,-63.1319"/>
<polygon fill="black" stroke="black" points="318.19,-63.1032 315,-53 311.193,-62.8873 318.19,-63.1032"/>
</g>
<!-- n8&#45;&gt;n23 -->
<g id="edge9" class="edge"><title>n8:f0&#45;&gt;n23:f1</title>
<path fill="none" stroke="black" d="M269,-89C269,-68.6402 240.197,-74.1733 230.296,-62.7142"/>
<polygon fill="black" stroke="black" points="233.527,-61.3454 227,-53 226.898,-63.5944 233.527,-61.3454"/>
</g>
</g>
</svg>
