<?xml version="1.0" encoding="UTF-8" standalone="no"?>
<!DOCTYPE svg PUBLIC "-//W3C//DTD SVG 1.1//EN"
 "http://www.w3.org/Graphics/SVG/1.1/DTD/svg11.dtd">
<!-- Generated by graphviz version 2.38.0 (20140413.2041)
 -->
<!-- Title: G Pages: 1 -->
<svg width="134pt" height="350pt"
 viewBox="0.00 0.00 134.00 350.00" xmlns="http://www.w3.org/2000/svg" xmlns:xlink="http://www.w3.org/1999/xlink">
<g id="graph0" class="graph" transform="scale(1 1) rotate(0) translate(4 346)">
<title>G</title>
<polygon fill="white" stroke="none" points="-4,4 -4,-346 130,-346 130,4 -4,4"/>
<!-- c -->
<g id="node1" class="node"><title>c</title>
<ellipse fill="none" stroke="black" cx="27" cy="-270" rx="27" ry="72"/>
<text text-anchor="middle" x="27" y="-266.3" font-family="Times,serif" font-size="14.00">c</text>
</g>
<!-- b -->
<g id="node3" class="node"><title>b</title>
<ellipse fill="none" stroke="black" cx="63" cy="-144" rx="27" ry="18"/>
<text text-anchor="middle" x="63" y="-140.3" font-family="Times,serif" font-size="14.00">b</text>
</g>
<!-- c&#45;&gt;b -->
<g id="edge2" class="edge"><title>c&#45;&gt;b</title>
<path fill="none" stroke="black" d="M43.4198,-212.443C47.5505,-198.215 51.7931,-183.602 55.2683,-171.631"/>
<polygon fill="black" stroke="black" points="58.6758,-172.448 58.1027,-161.868 51.9533,-170.496 58.6758,-172.448"/>
</g>
<!-- a -->
<g id="node2" class="node"><title>a</title>
<ellipse fill="none" stroke="black" cx="99" cy="-270" rx="27" ry="18"/>
<text text-anchor="middle" x="99" y="-266.3" font-family="Times,serif" font-size="14.00">a</text>
</g>
<!-- a&#45;&gt;b -->
<g id="edge1" class="edge"><title>a&#45;&gt;b</title>
<path fill="none" stroke="black" d="M94.1449,-252.277C88.1329,-231.569 77.8192,-196.044 70.718,-171.584"/>
<polygon fill="black" stroke="black" points="74.0426,-170.482 67.8932,-161.854 67.3201,-172.434 74.0426,-170.482"/>
</g>
<!-- d -->
<g id="node4" class="node"><title>d</title>
<ellipse fill="none" stroke="black" cx="63" cy="-18" rx="27" ry="18"/>
<text text-anchor="middle" x="63" y="-14.3" font-family="Times,serif" font-size="14.00">d</text>
</g>
<!-- b&#45;&gt;d -->
<g id="edge3" class="edge"><title>b&#45;&gt;d</title>
<path fill="none" stroke="black" d="M63,-125.758C63,-105.214 63,-70.6309 63,-46.408"/>
<polygon fill="black" stroke="black" points="66.5001,-46.0952 63,-36.0952 59.5001,-46.0953 66.5001,-46.0952"/>
</g>
</g>
</svg>
