<?xml version="1.0" encoding="UTF-8" standalone="no"?>
<!DOCTYPE svg PUBLIC "-//W3C//DTD SVG 1.1//EN"
 "http://www.w3.org/Graphics/SVG/1.1/DTD/svg11.dtd">
<!-- Generated by graphviz version 2.38.0 (20140413.2041)
 -->
<!-- Title: G Pages: 1 -->
<svg width="134pt" height="224pt"
 viewBox="0.00 0.00 134.00 224.00" xmlns="http://www.w3.org/2000/svg" xmlns:xlink="http://www.w3.org/1999/xlink">
<g id="graph0" class="graph" transform="scale(1 1) rotate(0) translate(4 220)">
<title>G</title>
<polygon fill="white" stroke="none" points="-4,4 -4,-220 130,-220 130,4 -4,4"/>
<!-- c -->
<g id="node1" class="node"><title>c</title>
<ellipse fill="none" stroke="black" cx="27" cy="-144" rx="27" ry="72"/>
<text text-anchor="middle" x="27" y="-140.3" font-family="Times,serif" font-size="14.00">c</text>
</g>
<!-- b -->
<g id="node3" class="node"><title>b</title>
<ellipse fill="none" stroke="black" cx="63" cy="-18" rx="27" ry="18"/>
<text text-anchor="middle" x="63" y="-14.3" font-family="Times,serif" font-size="14.00">b</text>
</g>
<!-- c&#45;&gt;b -->
<g id="edge2" class="edge"><title>c&#45;&gt;b</title>
<path fill="none" stroke="black" d="M43.4198,-86.443C47.5505,-72.2149 51.7931,-57.6016 55.2683,-45.6313"/>
<polygon fill="black" stroke="black" points="58.6758,-46.4477 58.1027,-35.8684 51.9533,-44.496 58.6758,-46.4477"/>
</g>
<!-- a -->
<g id="node2" class="node"><title>a</title>
<ellipse fill="none" stroke="black" cx="99" cy="-144" rx="27" ry="18"/>
<text text-anchor="middle" x="99" y="-140.3" font-family="Times,serif" font-size="14.00">a</text>
</g>
<!-- a&#45;&gt;b -->
<g id="edge1" class="edge"><title>a&#45;&gt;b</title>
<path fill="none" stroke="black" d="M94.1449,-126.277C88.1329,-105.569 77.8192,-70.044 70.718,-45.5842"/>
<polygon fill="black" stroke="black" points="74.0426,-44.4819 67.8932,-35.8543 67.3201,-46.4336 74.0426,-44.4819"/>
</g>
</g>
</svg>
