<?xml version="1.0" encoding="UTF-8" standalone="no"?>
<!DOCTYPE svg PUBLIC "-//W3C//DTD SVG 1.1//EN"
 "http://www.w3.org/Graphics/SVG/1.1/DTD/svg11.dtd">
<!-- Generated by graphviz version 2.38.0 (20140413.2041)
 -->
<!-- Title: inheritance Pages: 1 -->
<svg width="258pt" height="82pt"
 viewBox="0.00 0.00 257.50 82.00" xmlns="http://www.w3.org/2000/svg" xmlns:xlink="http://www.w3.org/1999/xlink">
<g id="graph0" class="graph" transform="scale(1 1) rotate(0) translate(4 78)">
<title>inheritance</title>
<polygon fill="white" stroke="none" points="-4,4 -4,-78 253.5,-78 253.5,4 -4,4"/>
<!-- Node1100 -->
<g id="node1" class="node"><title>Node1100</title>
<polygon fill="black" stroke="black" points="178,-19 56,-19 56,-0 178,-0 178,-19"/>
<text text-anchor="middle" x="117" y="-7" font-family="doxfont" font-size="10.00" fill="white">exotkAF_ViewType.hxx</text>
</g>
<!-- Node1101 -->
<g id="node2" class="node"><title>Node1101</title>
<g id="a_node2"><a xlink:href="$exotkAF__View_8cxx.html" xlink:title="exotkAF_View.cxx">
<polygon fill="none" stroke="black" points="100,-74 0,-74 0,-55 100,-55 100,-74"/>
<text text-anchor="middle" x="50" y="-62" font-family="doxfont" font-size="10.00">exotkAF_View.cxx</text>
</a>
</g>
</g>
<!-- Node1101&#45;&gt;Node1100 -->
<g id="edge1" class="edge"><title>Node1101&#45;&gt;Node1100</title>
<path fill="none" stroke="midnightblue" d="M60.7647,-54.9846C70.7661,-47.0731 85.8865,-35.1121 97.9305,-25.5848"/>
<polygon fill="midnightblue" stroke="midnightblue" points="100.368,-28.1194 106.039,-19.1703 96.0251,-22.6294 100.368,-28.1194"/>
</g>
<!-- Node1102 -->
<g id="node3" class="node"><title>Node1102</title>
<g id="a_node3"><a xlink:href="$exotkAF__ViewPopup_8cxx.html" xlink:title="exotkAF_ViewPopup.cxx">
<polygon fill="none" stroke="black" points="249.5,-74 118.5,-74 118.5,-55 249.5,-55 249.5,-74"/>
<text text-anchor="middle" x="184" y="-62" font-family="doxfont" font-size="10.00">exotkAF_ViewPopup.cxx</text>
</a>
</g>
</g>
<!-- Node1102&#45;&gt;Node1100 -->
<g id="edge2" class="edge"><title>Node1102&#45;&gt;Node1100</title>
<path fill="none" stroke="midnightblue" d="M173.235,-54.9846C163.234,-47.0731 148.113,-35.1121 136.07,-25.5848"/>
<polygon fill="midnightblue" stroke="midnightblue" points="137.975,-22.6294 127.961,-19.1703 133.632,-28.1194 137.975,-22.6294"/>
</g>
</g>
</svg>
