<?xml version="1.0" encoding="UTF-8" standalone="no"?>
<!DOCTYPE svg PUBLIC "-//W3C//DTD SVG 1.1//EN"
 "http://www.w3.org/Graphics/SVG/1.1/DTD/svg11.dtd">
<!-- Generated by graphviz version 2.38.0 (20140413.2041)
 -->
<!-- Title: G Pages: 1 -->
<svg width="335pt" height="116pt"
 viewBox="0.00 0.00 335.35 116.00" xmlns="http://www.w3.org/2000/svg" xmlns:xlink="http://www.w3.org/1999/xlink">
<g id="graph0" class="graph" transform="scale(1 1) rotate(0) translate(4 112)">
<title>G</title>
<polygon fill="white" stroke="none" points="-4,4 -4,-112 331.347,-112 331.347,4 -4,4"/>
<!-- Marden -->
<g id="node1" class="node"><title>Marden</title>
<ellipse fill="none" stroke="black" cx="38.3466" cy="-90" rx="38.1938" ry="18"/>
<text text-anchor="middle" x="38.3466" y="-86.3" font-family="Times,serif" font-size="14.00">Marden</text>
</g>
<!-- hg -->
<g id="node2" class="node"><title>hg</title>
<ellipse fill="none" stroke="black" cx="38.3466" cy="-18" rx="27" ry="18"/>
<text text-anchor="middle" x="38.3466" y="-14.3" font-family="Times,serif" font-size="14.00">hg</text>
</g>
<!-- Marden&#45;&#45;hg -->
<g id="edge1" class="edge"><title>Marden&#45;&#45;hg</title>
<path fill="none" stroke="black" d="M38.3466,-71.6966C38.3466,-60.8463 38.3466,-46.9167 38.3466,-36.1043"/>
</g>
<!-- Cannon -->
<g id="node3" class="node"><title>Cannon</title>
<ellipse fill="none" stroke="black" cx="133.347" cy="-90" rx="38.1938" ry="18"/>
<text text-anchor="middle" x="133.347" y="-86.3" font-family="Times,serif" font-size="14.00">Cannon</text>
</g>
<!-- ggt -->
<g id="node4" class="node"><title>ggt</title>
<ellipse fill="none" stroke="black" cx="133.347" cy="-18" rx="27" ry="18"/>
<text text-anchor="middle" x="133.347" y="-14.3" font-family="Times,serif" font-size="14.00">ggt</text>
</g>
<!-- Cannon&#45;&#45;ggt -->
<g id="edge2" class="edge"><title>Cannon&#45;&#45;ggt</title>
<path fill="none" stroke="black" d="M133.347,-71.6966C133.347,-60.8463 133.347,-46.9167 133.347,-36.1043"/>
</g>
<!-- Epstein -->
<g id="node5" class="node"><title>Epstein</title>
<ellipse fill="none" stroke="black" cx="251.347" cy="-90" rx="37.0935" ry="18"/>
<text text-anchor="middle" x="251.347" y="-86.3" font-family="Times,serif" font-size="14.00">Epstein</text>
</g>
<!-- kg -->
<g id="node6" class="node"><title>kg</title>
<ellipse fill="none" stroke="black" cx="228.347" cy="-18" rx="27" ry="18"/>
<text text-anchor="middle" x="228.347" y="-14.3" font-family="Times,serif" font-size="14.00">kg</text>
</g>
<!-- Epstein&#45;&#45;kg -->
<g id="edge3" class="edge"><title>Epstein&#45;&#45;kg</title>
<path fill="none" stroke="black" d="M245.779,-72.055C242.163,-61.0492 237.469,-46.7636 233.863,-35.789"/>
</g>
<!-- ldt -->
<g id="node7" class="node"><title>ldt</title>
<ellipse fill="none" stroke="black" cx="300.347" cy="-18" rx="27" ry="18"/>
<text text-anchor="middle" x="300.347" y="-14.3" font-family="Times,serif" font-size="14.00">ldt</text>
</g>
<!-- Epstein&#45;&#45;ldt -->
<g id="edge4" class="edge"><title>Epstein&#45;&#45;ldt</title>
<path fill="none" stroke="black" d="M262.711,-72.7646C270.74,-61.2944 281.442,-46.0068 289.381,-34.6658"/>
</g>
</g>
</svg>
