<?xml version="1.0" encoding="UTF-8" standalone="no"?>
<!DOCTYPE svg PUBLIC "-//W3C//DTD SVG 1.1//EN"
 "http://www.w3.org/Graphics/SVG/1.1/DTD/svg11.dtd">
<!-- Generated by graphviz version 2.38.0 (20140413.2041)
 -->
<!-- Title: g Pages: 1 -->
<svg width="1166pt" height="168pt"
 viewBox="0.00 0.00 1165.65 168.00" xmlns="http://www.w3.org/2000/svg" xmlns:xlink="http://www.w3.org/1999/xlink">
<g id="graph0" class="graph" transform="scale(1 1) rotate(0) translate(4 164)">
<title>g</title>
<polygon fill="white" stroke="none" points="-4,4 -4,-164 1161.65,-164 1161.65,4 -4,4"/>
<g id="clust1" class="cluster"><title>cluster_0</title>
<polygon fill="none" stroke="#f7f7f7" points="8,-100 8,-152 1036.06,-152 1036.06,-100 8,-100"/>
</g>
<!-- Hef1a -->
<g id="node1" class="node"><title>Hef1a</title>
<polygon fill="#ca0020" stroke="#ca0020" points="52,-138 16,-138 16,-108 34,-108 34,-114 52,-114 52,-108 70,-126 52,-144 52,-138"/>
<text text-anchor="middle" x="43" y="-122.3" font-family="Times,serif" font-size="14.00" fill="#f7f7f7">Hef1a</text>
</g>
<!-- Gal4VP16 -->
<g id="node5" class="node"><title>Gal4VP16</title>
<polygon fill="#0571b0" stroke="#0571b0" points="166,-138 106,-138 106,-114 166,-114 166,-108 184,-126 166,-144 166,-138"/>
<text text-anchor="middle" x="145" y="-122.3" font-family="Times,serif" font-size="14.00" fill="#f7f7f7">Gal4&#45;VP16</text>
</g>
<!-- Hef1a&#45;&gt;Gal4VP16 -->
<g id="edge1" class="edge"><title>Hef1a&#45;&gt;Gal4VP16</title>
<path fill="none" stroke="black" d="M70.0128,-126C80.8924,-126 93.7577,-126 105.684,-126"/>
</g>
<!-- TRE -->
<g id="node2" class="node"><title>TRE</title>
<polygon fill="#ca0020" stroke="#ca0020" points="810.574,-138 774.574,-138 774.574,-108 792.574,-108 792.574,-114 810.574,-114 810.574,-108 828.574,-126 810.574,-144 810.574,-138"/>
<text text-anchor="middle" x="801.574" y="-122.3" font-family="Times,serif" font-size="14.00" fill="#f7f7f7">TRE</text>
</g>
<!-- DeltamCherry -->
<g id="node8" class="node"><title>DeltamCherry</title>
<polygon fill="#0571b0" stroke="#0571b0" points="1010.06,-138 933.062,-138 933.062,-114 1010.06,-114 1010.06,-108 1028.06,-126 1010.06,-144 1010.06,-138"/>
<text text-anchor="middle" x="980.562" y="-122.3" font-family="Times,serif" font-size="14.00" fill="#f7f7f7">DeltamCherry</text>
</g>
<!-- TRE&#45;&gt;DeltamCherry -->
<g id="edge7" class="edge"><title>TRE&#45;&gt;DeltamCherry</title>
<path fill="none" stroke="black" d="M828.689,-126C856.094,-126 899.737,-126 933.05,-126"/>
</g>
<!-- UAS -->
<g id="node3" class="node"><title>UAS</title>
<polygon fill="#ca0020" stroke="#ca0020" points="279.696,-138 243.696,-138 243.696,-108 261.696,-108 261.696,-114 279.696,-114 279.696,-108 297.696,-126 279.696,-144 279.696,-138"/>
<text text-anchor="middle" x="270.696" y="-122.3" font-family="Times,serif" font-size="14.00" fill="#f7f7f7">UAS</text>
</g>
<!-- LacI -->
<g id="node6" class="node"><title>LacI</title>
<polygon fill="#0571b0" stroke="#0571b0" points="393.391,-138 357.391,-138 357.391,-114 393.391,-114 393.391,-108 411.391,-126 393.391,-144 393.391,-138"/>
<text text-anchor="middle" x="384.391" y="-122.3" font-family="Times,serif" font-size="14.00" fill="#f7f7f7">LacI</text>
</g>
<!-- UAS&#45;&gt;LacI -->
<g id="edge3" class="edge"><title>UAS&#45;&gt;LacI</title>
<path fill="none" stroke="black" d="M297.883,-126C315.809,-126 339.477,-126 357.367,-126"/>
</g>
<!-- Hef1aLacOid -->
<g id="node4" class="node"><title>Hef1aLacOid</title>
<polygon fill="#ca0020" stroke="#ca0020" points="524.391,-138 447.391,-138 447.391,-108 465.391,-108 465.391,-114 524.391,-114 524.391,-108 542.391,-126 524.391,-144 524.391,-138"/>
<text text-anchor="middle" x="494.891" y="-122.3" font-family="Times,serif" font-size="14.00" fill="#f7f7f7">Hef1a&#45;LacOid</text>
</g>
<!-- rtTA3 -->
<g id="node7" class="node"><title>rtTA3</title>
<polygon fill="#0571b0" stroke="#0571b0" points="653.035,-138 617.035,-138 617.035,-114 653.035,-114 653.035,-108 671.035,-126 653.035,-144 653.035,-138"/>
<text text-anchor="middle" x="644.035" y="-122.3" font-family="Times,serif" font-size="14.00" fill="#f7f7f7">rtTA3</text>
</g>
<!-- Hef1aLacOid&#45;&gt;rtTA3 -->
<g id="edge5" class="edge"><title>Hef1aLacOid&#45;&gt;rtTA3</title>
<path fill="none" stroke="black" d="M542.448,-126C567.034,-126 596.293,-126 616.898,-126"/>
</g>
<!-- Gal4VP16&#45;&gt;UAS -->
<g id="edge2" class="edge"><title>Gal4VP16&#45;&gt;UAS</title>
<path fill="none" stroke="black" d="M184.122,-126C203.43,-126 226.375,-126 243.642,-126"/>
</g>
<!-- Gal4VP16protein -->
<g id="node14" class="node"><title>Gal4VP16protein</title>
<ellipse fill="#92c5de" stroke="#92c5de" cx="270.696" cy="-72" rx="50.8918" ry="18"/>
<text text-anchor="middle" x="270.696" y="-68.3" font-family="Times,serif" font-size="14.00" fill="#0571b0">Gal4&#45;VP16</text>
</g>
<!-- Gal4VP16&#45;&gt;Gal4VP16protein -->
<g id="edge8" class="edge"><title>Gal4VP16&#45;&gt;Gal4VP16protein</title>
<path fill="none" stroke="black" d="M184.122,-109.358C198.08,-103.264 213.937,-96.3416 228.177,-90.125"/>
<polygon fill="black" stroke="black" points="229.97,-93.1616 237.734,-85.953 227.169,-86.7463 229.97,-93.1616"/>
</g>
<!-- LacI&#45;&gt;Hef1aLacOid -->
<g id="edge4" class="edge"><title>LacI&#45;&gt;Hef1aLacOid</title>
<path fill="none" stroke="black" d="M411.656,-126C422.318,-126 434.965,-126 447.105,-126"/>
</g>
<!-- LacIprotein -->
<g id="node12" class="node"><title>LacIprotein</title>
<ellipse fill="#92c5de" stroke="#92c5de" cx="494.891" cy="-72" rx="27" ry="18"/>
<text text-anchor="middle" x="494.891" y="-68.3" font-family="Times,serif" font-size="14.00" fill="#0571b0">LacI</text>
</g>
<!-- LacI&#45;&gt;LacIprotein -->
<g id="edge10" class="edge"><title>LacI&#45;&gt;LacIprotein</title>
<path fill="none" stroke="black" d="M411.656,-112.928C427.279,-105.152 447.167,-95.2546 463.47,-87.1402"/>
<polygon fill="black" stroke="black" points="465.203,-90.1873 472.596,-82.5982 462.084,-83.9205 465.203,-90.1873"/>
</g>
<!-- rtTA3&#45;&gt;TRE -->
<g id="edge6" class="edge"><title>rtTA3&#45;&gt;TRE</title>
<path fill="none" stroke="black" d="M671.069,-126C699.781,-126 745.71,-126 774.456,-126"/>
</g>
<!-- rtTA3protein -->
<g id="node13" class="node"><title>rtTA3protein</title>
<ellipse fill="#92c5de" stroke="#92c5de" cx="801.574" cy="-72" rx="32.4942" ry="18"/>
<text text-anchor="middle" x="801.574" y="-68.3" font-family="Times,serif" font-size="14.00" fill="#0571b0">rtTA3</text>
</g>
<!-- rtTA3&#45;&gt;rtTA3protein -->
<g id="edge14" class="edge"><title>rtTA3&#45;&gt;rtTA3protein</title>
<path fill="none" stroke="black" d="M671.069,-116.962C696.52,-108.125 735.501,-94.592 764.049,-84.6809"/>
<polygon fill="black" stroke="black" points="765.373,-87.9261 773.672,-81.3399 763.077,-81.3133 765.373,-87.9261"/>
</g>
<!-- product -->
<g id="node9" class="node"><title>product</title>
<ellipse fill="#f4a582" stroke="#f4a582" cx="1130.65" cy="-126" rx="27" ry="18"/>
</g>
<!-- DeltamCherry&#45;&gt;product -->
<g id="edge18" class="edge"><title>DeltamCherry&#45;&gt;product</title>
<path fill="none" stroke="black" d="M1028.42,-126C1049.39,-126 1073.75,-126 1093.31,-126"/>
<polygon fill="black" stroke="black" points="1093.35,-129.5 1103.35,-126 1093.35,-122.5 1093.35,-129.5"/>
</g>
<!-- repression -->
<g id="node10" class="node"><title>repression</title>
<ellipse fill="none" stroke="#0571b0" stroke-dasharray="1,5" cx="644.035" cy="-72" rx="65.7887" ry="18"/>
<text text-anchor="middle" x="644.035" y="-68.3" font-family="Times,serif" font-size="14.00">LacI repression</text>
</g>
<!-- repression&#45;&gt;Hef1aLacOid -->
<g id="edge12" class="edge"><title>repression&#45;&gt;Hef1aLacOid</title>
<path fill="none" stroke="black" d="M603.7,-86.4355C586.473,-92.7574 566.024,-100.262 547.59,-107.027"/>
<polygon fill="black" stroke="black" points="545.11,-113.263 541.664,-103.876 543.542,-103.187 546.987,-112.574 545.11,-113.263"/>
<polyline fill="none" stroke="black" points="542.448,-108.914 547.142,-107.191 "/>
</g>
<!-- combination -->
<g id="node11" class="node"><title>combination</title>
<ellipse fill="#92c5de" stroke="#92c5de" cx="980.562" cy="-72" rx="87.1846" ry="18"/>
<text text-anchor="middle" x="980.562" y="-68.3" font-family="Times,serif" font-size="14.00" fill="#0571b0">rtTA3 + Doxycycline</text>
</g>
<!-- combination&#45;&gt;TRE -->
<g id="edge16" class="edge"><title>combination&#45;&gt;TRE</title>
<path fill="none" stroke="black" d="M926.633,-86.3331C915.644,-89.4273 904.158,-92.7484 893.469,-96 875.301,-101.527 855.24,-108.098 838.596,-113.68"/>
<polygon fill="black" stroke="black" points="837.08,-110.497 828.723,-117.009 839.317,-117.13 837.08,-110.497"/>
</g>
<!-- LacIprotein&#45;&gt;repression -->
<g id="edge11" class="edge"><title>LacIprotein&#45;&gt;repression</title>
<path fill="none" stroke="black" d="M522.197,-72C535.136,-72 551.456,-72 567.881,-72"/>
<polygon fill="black" stroke="black" points="568.092,-75.5001 578.092,-72 568.092,-68.5001 568.092,-75.5001"/>
</g>
<!-- rtTA3protein&#45;&gt;combination -->
<g id="edge15" class="edge"><title>rtTA3protein&#45;&gt;combination</title>
<path fill="none" stroke="black" d="M834.216,-72C848.097,-72 865.213,-72 882.769,-72"/>
<polygon fill="black" stroke="black" points="883.136,-75.5001 893.136,-72 883.136,-68.5001 883.136,-75.5001"/>
</g>
<!-- Gal4VP16protein&#45;&gt;UAS -->
<g id="edge9" class="edge"><title>Gal4VP16protein&#45;&gt;UAS</title>
<path fill="none" stroke="black" d="M270.696,-90.1406C270.696,-92.6226 270.696,-95.1046 270.696,-97.5865"/>
<polygon fill="black" stroke="black" points="267.196,-97.7901 270.696,-107.79 274.196,-97.7902 267.196,-97.7901"/>
</g>
<!-- IPTG -->
<g id="node15" class="node"><title>IPTG</title>
<ellipse fill="#92c5de" stroke="#92c5de" cx="494.891" cy="-18" rx="30.5947" ry="18"/>
<text text-anchor="middle" x="494.891" y="-14.3" font-family="Times,serif" font-size="14.00" fill="#0571b0">IPTG</text>
</g>
<!-- IPTG&#45;&gt;repression -->
<g id="edge13" class="edge"><title>IPTG&#45;&gt;repression</title>
<path fill="none" stroke="black" d="M521.186,-27.2829C542.524,-35.1138 573.563,-46.5047 598.973,-55.8297"/>
<polygon fill="black" stroke="black" points="604.759,-52.6271 601.314,-62.0149 599.436,-61.3258 602.882,-51.938 604.759,-52.6271"/>
<polyline fill="none" stroke="black" points="603.975,-57.6655 599.281,-55.9428 "/>
</g>
<!-- Doxycycline -->
<g id="node16" class="node"><title>Doxycycline</title>
<ellipse fill="#92c5de" stroke="#92c5de" cx="801.574" cy="-18" rx="55.7903" ry="18"/>
<text text-anchor="middle" x="801.574" y="-14.3" font-family="Times,serif" font-size="14.00" fill="#0571b0">Doxycycline</text>
</g>
<!-- Doxycycline&#45;&gt;combination -->
<g id="edge17" class="edge"><title>Doxycycline&#45;&gt;combination</title>
<path fill="none" stroke="black" d="M842.736,-30.2534C865.887,-37.3172 895.405,-46.3234 921.094,-54.1611"/>
<polygon fill="black" stroke="black" points="920.145,-57.5306 930.731,-57.1013 922.187,-50.8353 920.145,-57.5306"/>
</g>
</g>
</svg>
