<?xml version="1.0" encoding="UTF-8" standalone="no"?>
<!DOCTYPE svg PUBLIC "-//W3C//DTD SVG 1.1//EN"
 "http://www.w3.org/Graphics/SVG/1.1/DTD/svg11.dtd">
<!-- Generated by graphviz version 2.38.0 (20140413.2041)
 -->
<!-- Title: %3 Pages: 1 -->
<svg width="515pt" height="452pt"
 viewBox="0.00 0.00 515.00 452.00" xmlns="http://www.w3.org/2000/svg" xmlns:xlink="http://www.w3.org/1999/xlink">
<g id="graph0" class="graph" transform="scale(1 1) rotate(0) translate(4 448)">
<title>%3</title>
<polygon fill="white" stroke="none" points="-4,4 -4,-448 511,-448 511,4 -4,4"/>
<!-- 5 -->
<g id="node1" class="node"><title>5</title>
<polygon fill="none" stroke="black" points="507,-444 -2.84217e-14,-444 -2.84217e-14,-360 507,-360 507,-444"/>
<polygon fill="none" stroke="black" points="0.5,-423 0.5,-444 507.5,-444 507.5,-423 0.5,-423"/>
<text text-anchor="start" x="195" y="-429.8" font-family="URW Bookman L,serif" font-weight="demi" font-size="14.00">&quot;Bookman&#45;Demi&quot;</text>
<polygon fill="none" stroke="black" points="0.5,-402 0.5,-423 507.5,-423 507.5,-402 0.5,-402"/>
<text text-anchor="start" x="115" y="-408.8" font-family="URW Bookman L,serif" font-weight="demi" font-size="14.00">&quot;ABCDEFGHIJLKLMNOPQRSTUVWXYZ&quot;</text>
<polygon fill="none" stroke="black" points="0.5,-381 0.5,-402 507.5,-402 507.5,-381 0.5,-381"/>
<text text-anchor="start" x="145.5" y="-387.8" font-family="URW Bookman L,serif" font-weight="demi" font-size="14.00">&quot;abcdefghijlklmnopqrstuvwxyz&quot;</text>
<polygon fill="none" stroke="black" points="0.5,-360 0.5,-381 507.5,-381 507.5,-360 0.5,-360"/>
<text text-anchor="start" x="3.5" y="-366.8" font-family="URW Bookman L,serif" font-weight="demi" font-size="14.00">&quot;ABCDEFGHIJLKLMNOPQRSTUVWXYZ\nabcdefghijlklmnopqrstuvwxyz&quot;</text>
</g>
<!-- 6 -->
<g id="node2" class="node"><title>6</title>
<polygon fill="none" stroke="black" points="498.5,-324 8.5,-324 8.5,-240 498.5,-240 498.5,-324"/>
<polygon fill="none" stroke="black" points="8.5,-303 8.5,-324 498.5,-324 498.5,-303 8.5,-303"/>
<text text-anchor="start" x="181" y="-309.8" font-family="URW Bookman L,serif" font-weight="demi" font-style="italic" font-size="14.00">&quot;Bookman&#45;DemiItalic&quot;</text>
<polygon fill="none" stroke="black" points="8.5,-282 8.5,-303 498.5,-303 498.5,-282 8.5,-282"/>
<text text-anchor="start" x="119.5" y="-288.8" font-family="URW Bookman L,serif" font-weight="demi" font-style="italic" font-size="14.00">&quot;ABCDEFGHIJLKLMNOPQRSTUVWXYZ&quot;</text>
<polygon fill="none" stroke="black" points="8.5,-261 8.5,-282 498.5,-282 498.5,-261 8.5,-261"/>
<text text-anchor="start" x="149" y="-267.8" font-family="URW Bookman L,serif" font-weight="demi" font-style="italic" font-size="14.00">&quot;abcdefghijlklmnopqrstuvwxyz&quot;</text>
<polygon fill="none" stroke="black" points="8.5,-240 8.5,-261 498.5,-261 498.5,-240 8.5,-240"/>
<text text-anchor="start" x="11.5" y="-246.8" font-family="URW Bookman L,serif" font-weight="demi" font-style="italic" font-size="14.00">&quot;ABCDEFGHIJLKLMNOPQRSTUVWXYZ\nabcdefghijlklmnopqrstuvwxyz&quot;</text>
</g>
<!-- 5&#45;&gt;6 -->
<g id="edge1" class="edge"><title>5&#45;&gt;6</title>
<path fill="none" stroke="black" d="M253.5,-359.729C253.5,-351.508 253.5,-342.78 253.5,-334.271"/>
<polygon fill="black" stroke="black" points="257,-334.048 253.5,-324.048 250,-334.048 257,-334.048"/>
</g>
<!-- 7 -->
<g id="node3" class="node"><title>7</title>
<polygon fill="none" stroke="black" points="507,-204 -2.84217e-14,-204 -2.84217e-14,-120 507,-120 507,-204"/>
<polygon fill="none" stroke="black" points="0.5,-183 0.5,-204 507.5,-204 507.5,-183 0.5,-183"/>
<text text-anchor="start" x="196" y="-189.8" font-family="URW Bookman L,serif" font-weight="light" font-size="14.00">&quot;Bookman&#45;Light&quot;</text>
<polygon fill="none" stroke="black" points="0.5,-162 0.5,-183 507.5,-183 507.5,-162 0.5,-162"/>
<text text-anchor="start" x="115" y="-168.8" font-family="URW Bookman L,serif" font-weight="light" font-size="14.00">&quot;ABCDEFGHIJLKLMNOPQRSTUVWXYZ&quot;</text>
<polygon fill="none" stroke="black" points="0.5,-141 0.5,-162 507.5,-162 507.5,-141 0.5,-141"/>
<text text-anchor="start" x="145.5" y="-147.8" font-family="URW Bookman L,serif" font-weight="light" font-size="14.00">&quot;abcdefghijlklmnopqrstuvwxyz&quot;</text>
<polygon fill="none" stroke="black" points="0.5,-120 0.5,-141 507.5,-141 507.5,-120 0.5,-120"/>
<text text-anchor="start" x="3.5" y="-126.8" font-family="URW Bookman L,serif" font-weight="light" font-size="14.00">&quot;ABCDEFGHIJLKLMNOPQRSTUVWXYZ\nabcdefghijlklmnopqrstuvwxyz&quot;</text>
</g>
<!-- 6&#45;&gt;7 -->
<g id="edge2" class="edge"><title>6&#45;&gt;7</title>
<path fill="none" stroke="black" d="M253.5,-239.729C253.5,-231.508 253.5,-222.78 253.5,-214.271"/>
<polygon fill="black" stroke="black" points="257,-214.048 253.5,-204.048 250,-214.048 257,-214.048"/>
</g>
<!-- 8 -->
<g id="node4" class="node"><title>8</title>
<polygon fill="none" stroke="black" points="498.5,-84 8.5,-84 8.5,-0 498.5,-0 498.5,-84"/>
<polygon fill="none" stroke="black" points="8.5,-63 8.5,-84 498.5,-84 498.5,-63 8.5,-63"/>
<text text-anchor="start" x="181.5" y="-69.8" font-family="URW Bookman L,serif" font-weight="light" font-style="italic" font-size="14.00">&quot;Bookman&#45;LightItalic&quot;</text>
<polygon fill="none" stroke="black" points="8.5,-42 8.5,-63 498.5,-63 498.5,-42 8.5,-42"/>
<text text-anchor="start" x="119.5" y="-48.8" font-family="URW Bookman L,serif" font-weight="light" font-style="italic" font-size="14.00">&quot;ABCDEFGHIJLKLMNOPQRSTUVWXYZ&quot;</text>
<polygon fill="none" stroke="black" points="8.5,-21 8.5,-42 498.5,-42 498.5,-21 8.5,-21"/>
<text text-anchor="start" x="149" y="-27.8" font-family="URW Bookman L,serif" font-weight="light" font-style="italic" font-size="14.00">&quot;abcdefghijlklmnopqrstuvwxyz&quot;</text>
<polygon fill="none" stroke="black" points="8.5,7.10543e-15 8.5,-21 498.5,-21 498.5,7.10543e-15 8.5,7.10543e-15"/>
<text text-anchor="start" x="11.5" y="-6.8" font-family="URW Bookman L,serif" font-weight="light" font-style="italic" font-size="14.00">&quot;ABCDEFGHIJLKLMNOPQRSTUVWXYZ\nabcdefghijlklmnopqrstuvwxyz&quot;</text>
</g>
<!-- 7&#45;&gt;8 -->
<g id="edge3" class="edge"><title>7&#45;&gt;8</title>
<path fill="none" stroke="black" d="M253.5,-119.729C253.5,-111.508 253.5,-102.78 253.5,-94.2708"/>
<polygon fill="black" stroke="black" points="257,-94.0481 253.5,-84.0481 250,-94.0481 257,-94.0481"/>
</g>
</g>
</svg>
