<?xml version="1.0" encoding="UTF-8" standalone="no"?>
<!DOCTYPE svg PUBLIC "-//W3C//DTD SVG 1.1//EN"
 "http://www.w3.org/Graphics/SVG/1.1/DTD/svg11.dtd">
<!-- Generated by graphviz version 2.38.0 (20140413.2041)
 -->
<!-- Title: G Pages: 1 -->
<svg width="1633pt" height="1001pt"
 viewBox="0.00 0.00 1633.00 1001.00" xmlns="http://www.w3.org/2000/svg" xmlns:xlink="http://www.w3.org/1999/xlink">
<g id="graph0" class="graph" transform="scale(1 1) rotate(0) translate(4 997)">
<title>G</title>
<polygon fill="white" stroke="none" points="-4,4 -4,-997 1629,-997 1629,4 -4,4"/>
<!-- ПРЕЗИДЕНТ РФ [1888] -->
<g id="node1" class="node"><title>ПРЕЗИДЕНТ РФ [1888]</title>
<polygon fill="lightgrey" stroke="black" points="861,-993 705,-993 705,-957 861,-957 861,-993"/>
<text text-anchor="middle" x="783" y="-971.3" font-family="Times,serif" font-size="14.00">ПРЕЗИДЕНТ РФ [1888]</text>
</g>
<!-- ВЛАДИМИР ПУТИН [2645] -->
<g id="node2" class="node"><title>ВЛАДИМИР ПУТИН [2645]</title>
<polygon fill="lightgrey" stroke="black" points="875.5,-906 690.5,-906 690.5,-870 875.5,-870 875.5,-906"/>
<text text-anchor="middle" x="783" y="-884.3" font-family="Times,serif" font-size="14.00">ВЛАДИМИР ПУТИН [2645]</text>
</g>
<!-- ПРЕЗИДЕНТ РФ [1888]&#45;&gt;ВЛАДИМИР ПУТИН [2645] -->
<g id="edge1" class="edge"><title>ПРЕЗИДЕНТ РФ [1888]&#45;&gt;ВЛАДИМИР ПУТИН [2645]</title>
<path fill="none" stroke="black" d="M783,-956.799C783,-945.163 783,-929.548 783,-916.237"/>
<polygon fill="black" stroke="black" points="786.5,-916.175 783,-906.175 779.5,-916.175 786.5,-916.175"/>
<text text-anchor="middle" x="793.5" y="-927.8" font-family="Times,serif" font-size="14.00">834</text>
</g>
<!-- ИРАК [2665] -->
<g id="node3" class="node"><title>ИРАК [2665]</title>
<polygon fill="lightgrey" stroke="black" points="386.5,-819 293.5,-819 293.5,-783 386.5,-783 386.5,-819"/>
<text text-anchor="middle" x="340" y="-797.3" font-family="Times,serif" font-size="14.00">ИРАК [2665]</text>
</g>
<!-- ПРЕЗИДЕНТ РФ [1888]&#45;&gt;ИРАК [2665] -->
<g id="edge2" class="edge"><title>ПРЕЗИДЕНТ РФ [1888]&#45;&gt;ИРАК [2665]</title>
<path fill="none" stroke="black" d="M704.681,-971.215C591.204,-966.616 391.454,-956.196 363,-939 327.426,-917.501 329.326,-862.855 334.367,-829.438"/>
<polygon fill="black" stroke="black" points="337.847,-829.848 336.07,-819.403 330.946,-828.677 337.847,-829.848"/>
<text text-anchor="middle" x="348.5" y="-884.3" font-family="Times,serif" font-size="14.00">157</text>
</g>
<!-- ВОЙНА [1616] -->
<g id="node4" class="node"><title>ВОЙНА [1616]</title>
<polygon fill="lightgrey" stroke="black" points="871,-732 767,-732 767,-696 871,-696 871,-732"/>
<text text-anchor="middle" x="819" y="-710.3" font-family="Times,serif" font-size="14.00">ВОЙНА [1616]</text>
</g>
<!-- ПРЕЗИДЕНТ РФ [1888]&#45;&gt;ВОЙНА [1616] -->
<g id="edge3" class="edge"><title>ПРЕЗИДЕНТ РФ [1888]&#45;&gt;ВОЙНА [1616]</title>
<path fill="none" stroke="black" d="M825.783,-956.995C847.409,-945.95 871.635,-929.232 884,-906 913.836,-849.945 868.818,-777.497 840,-739.985"/>
<polygon fill="black" stroke="black" points="842.72,-737.781 833.779,-732.095 837.223,-742.115 842.72,-737.781"/>
<text text-anchor="middle" x="901" y="-840.8" font-family="Times,serif" font-size="14.00">36</text>
</g>
<!-- ТЕКСТ [2064] -->
<g id="node5" class="node"><title>ТЕКСТ [2064]</title>
<polygon fill="lightgrey" stroke="black" points="1014,-645 914,-645 914,-609 1014,-609 1014,-645"/>
<text text-anchor="middle" x="964" y="-623.3" font-family="Times,serif" font-size="14.00">ТЕКСТ [2064]</text>
</g>
<!-- ПРЕЗИДЕНТ РФ [1888]&#45;&gt;ТЕКСТ [2064] -->
<g id="edge4" class="edge"><title>ПРЕЗИДЕНТ РФ [1888]&#45;&gt;ТЕКСТ [2064]</title>
<path fill="none" stroke="black" d="M843.609,-956.914C855.276,-952.146 866.972,-946.233 877,-939 997.755,-851.905 1037.52,-818.424 1087,-678 1097.2,-649.039 1058.92,-653.187 1023.81,-645.943"/>
<polygon fill="black" stroke="black" points="1024.58,-642.528 1014.03,-643.56 1022.92,-649.329 1024.58,-642.528"/>
<text text-anchor="middle" x="1051.5" y="-797.3" font-family="Times,serif" font-size="14.00">343</text>
</g>
<!-- МОСКВА [3539] -->
<g id="node6" class="node"><title>МОСКВА [3539]</title>
<polygon fill="lightgrey" stroke="black" points="1150,-558 1034,-558 1034,-522 1150,-522 1150,-558"/>
<text text-anchor="middle" x="1092" y="-536.3" font-family="Times,serif" font-size="14.00">МОСКВА [3539]</text>
</g>
<!-- ПРЕЗИДЕНТ РФ [1888]&#45;&gt;МОСКВА [3539] -->
<g id="edge5" class="edge"><title>ПРЕЗИДЕНТ РФ [1888]&#45;&gt;МОСКВА [3539]</title>
<path fill="none" stroke="black" d="M847.984,-956.9C957.151,-924.122 1173.23,-840.799 1253,-678 1278.95,-625.035 1208.88,-584.581 1153.11,-561.801"/>
<polygon fill="black" stroke="black" points="1154.18,-558.461 1143.59,-558.026 1151.6,-564.968 1154.18,-558.461"/>
<text text-anchor="middle" x="1215.5" y="-753.8" font-family="Times,serif" font-size="14.00">208</text>
</g>
<!-- ЯПОНИЯ [781] -->
<g id="node7" class="node"><title>ЯПОНИЯ [781]</title>
<polygon fill="lightgrey" stroke="black" points="847,-471 739,-471 739,-435 847,-435 847,-471"/>
<text text-anchor="middle" x="793" y="-449.3" font-family="Times,serif" font-size="14.00">ЯПОНИЯ [781]</text>
</g>
<!-- ПРЕЗИДЕНТ РФ [1888]&#45;&gt;ЯПОНИЯ [781] -->
<g id="edge6" class="edge"><title>ПРЕЗИДЕНТ РФ [1888]&#45;&gt;ЯПОНИЯ [781]</title>
<path fill="none" stroke="black" d="M704.877,-968.164C629.539,-957.904 519.324,-929.659 466,-852 441.206,-815.891 469.204,-858.62 537,-765 619.262,-651.404 574.036,-567.889 690,-489 701.749,-481.007 715.488,-474.69 729.034,-469.753"/>
<polygon fill="black" stroke="black" points="730.505,-472.949 738.832,-466.398 728.237,-466.326 730.505,-472.949"/>
<text text-anchor="middle" x="582" y="-710.3" font-family="Times,serif" font-size="14.00">82</text>
</g>
<!-- УКРАИНА [1103] -->
<g id="node8" class="node"><title>УКРАИНА [1103]</title>
<polygon fill="lightgrey" stroke="black" points="531,-471 409,-471 409,-435 531,-435 531,-471"/>
<text text-anchor="middle" x="470" y="-449.3" font-family="Times,serif" font-size="14.00">УКРАИНА [1103]</text>
</g>
<!-- ПРЕЗИДЕНТ РФ [1888]&#45;&gt;УКРАИНА [1103] -->
<g id="edge7" class="edge"><title>ПРЕЗИДЕНТ РФ [1888]&#45;&gt;УКРАИНА [1103]</title>
<path fill="none" stroke="black" d="M704.794,-971.903C586.609,-968.117 373.119,-958.639 344,-939 210.097,-848.692 248.851,-717.345 327,-576 353.007,-528.962 368.843,-522.342 411,-489 416.523,-484.632 422.642,-480.414 428.787,-476.511"/>
<polygon fill="black" stroke="black" points="431.036,-479.238 437.743,-471.036 427.385,-473.266 431.036,-479.238"/>
<text text-anchor="middle" x="279" y="-710.3" font-family="Times,serif" font-size="14.00">54</text>
</g>
<!-- ПОЛИТИКА [2170] -->
<g id="node9" class="node"><title>ПОЛИТИКА [2170]</title>
<polygon fill="lightgrey" stroke="black" points="739.5,-384 606.5,-384 606.5,-348 739.5,-348 739.5,-384"/>
<text text-anchor="middle" x="673" y="-362.3" font-family="Times,serif" font-size="14.00">ПОЛИТИКА [2170]</text>
</g>
<!-- ПРЕЗИДЕНТ РФ [1888]&#45;&gt;ПОЛИТИКА [2170] -->
<g id="edge8" class="edge"><title>ПРЕЗИДЕНТ РФ [1888]&#45;&gt;ПОЛИТИКА [2170]</title>
<path fill="none" stroke="black" d="M704.798,-967.509C659.268,-962.424 601.139,-953.668 551,-939 516.438,-928.889 502.249,-931.677 477,-906 458.71,-887.4 459.216,-877.559 454,-852 452.667,-845.468 452.537,-843.504 454,-837 499.327,-635.475 570.381,-606.317 653,-417 656.276,-409.493 659.652,-401.268 662.676,-393.696"/>
<polygon fill="black" stroke="black" points="665.995,-394.82 666.411,-384.233 659.484,-392.25 665.995,-394.82"/>
<text text-anchor="middle" x="523" y="-666.8" font-family="Times,serif" font-size="14.00">64</text>
</g>
<!-- ПЕРЕПИСЬ [832] -->
<g id="node10" class="node"><title>ПЕРЕПИСЬ [832]</title>
<polygon fill="lightgrey" stroke="black" points="1391.5,-471 1272.5,-471 1272.5,-435 1391.5,-435 1391.5,-471"/>
<text text-anchor="middle" x="1332" y="-449.3" font-family="Times,serif" font-size="14.00">ПЕРЕПИСЬ [832]</text>
</g>
<!-- ПРЕЗИДЕНТ РФ [1888]&#45;&gt;ПЕРЕПИСЬ [832] -->
<g id="edge9" class="edge"><title>ПРЕЗИДЕНТ РФ [1888]&#45;&gt;ПЕРЕПИСЬ [832]</title>
<path fill="none" stroke="black" d="M861.034,-971.001C1024.31,-963.683 1387,-941.517 1387,-889 1387,-889 1387,-889 1387,-756.5 1387,-636.085 1373.19,-605.824 1344,-489 1343.34,-486.346 1342.56,-483.605 1341.73,-480.882"/>
<polygon fill="black" stroke="black" points="1345.02,-479.68 1338.58,-471.271 1338.37,-481.864 1345.02,-479.68"/>
<text text-anchor="middle" x="1394" y="-710.3" font-family="Times,serif" font-size="14.00">47</text>
</g>
<!-- РЕСПУБЛИКА [1191] -->
<g id="node11" class="node"><title>РЕСПУБЛИКА [1191]</title>
<polygon fill="lightgrey" stroke="black" points="1304.5,-297 1155.5,-297 1155.5,-261 1304.5,-261 1304.5,-297"/>
<text text-anchor="middle" x="1230" y="-275.3" font-family="Times,serif" font-size="14.00">РЕСПУБЛИКА [1191]</text>
</g>
<!-- ПРЕЗИДЕНТ РФ [1888]&#45;&gt;РЕСПУБЛИКА [1191] -->
<g id="edge10" class="edge"><title>ПРЕЗИДЕНТ РФ [1888]&#45;&gt;РЕСПУБЛИКА [1191]</title>
<path fill="none" stroke="black" d="M861.061,-972.868C1048.01,-969.123 1506,-953.378 1506,-889 1506,-889 1506,-889 1506,-582.5 1506,-496.439 1384.56,-366.091 1366,-348 1345.05,-327.576 1316.74,-312.091 1291.38,-301.096"/>
<polygon fill="black" stroke="black" points="1292.4,-297.73 1281.83,-297.101 1289.7,-304.188 1292.4,-297.73"/>
<text text-anchor="middle" x="1513" y="-623.3" font-family="Times,serif" font-size="14.00">52</text>
</g>
<!-- СОЕДИНЕННЫЕ ШТАТЫ АМЕРИКИ [1284] -->
<g id="node12" class="node"><title>СОЕДИНЕННЫЕ ШТАТЫ АМЕРИКИ [1284]</title>
<polygon fill="lightgrey" stroke="black" points="1081.5,-210 794.5,-210 794.5,-174 1081.5,-174 1081.5,-210"/>
<text text-anchor="middle" x="938" y="-188.3" font-family="Times,serif" font-size="14.00">СОЕДИНЕННЫЕ ШТАТЫ АМЕРИКИ [1284]</text>
</g>
<!-- ПРЕЗИДЕНТ РФ [1888]&#45;&gt;СОЕДИНЕННЫЕ ШТАТЫ АМЕРИКИ [1284] -->
<g id="edge11" class="edge"><title>ПРЕЗИДЕНТ РФ [1888]&#45;&gt;СОЕДИНЕННЫЕ ШТАТЫ АМЕРИКИ [1284]</title>
<path fill="none" stroke="black" d="M861.146,-973.941C1065.13,-972.758 1598,-962.62 1598,-889 1598,-889 1598,-889 1598,-408.5 1598,-315.947 1534.24,-301.47 1451,-261 1389.44,-231.07 1219.42,-212.679 1091.86,-202.694"/>
<polygon fill="black" stroke="black" points="1091.84,-199.181 1081.6,-201.901 1091.3,-206.16 1091.84,-199.181"/>
<text text-anchor="middle" x="1605" y="-579.8" font-family="Times,serif" font-size="14.00">23</text>
</g>
<!-- ОРГАНИЗАЦИЯ ОБЪЕДИНЕННЫХ НАЦИЙ [935] -->
<g id="node13" class="node"><title>ОРГАНИЗАЦИЯ ОБЪЕДИНЕННЫХ НАЦИЙ [935]</title>
<polygon fill="lightgrey" stroke="black" points="635.5,-123 314.5,-123 314.5,-87 635.5,-87 635.5,-123"/>
<text text-anchor="middle" x="475" y="-101.3" font-family="Times,serif" font-size="14.00">ОРГАНИЗАЦИЯ ОБЪЕДИНЕННЫХ НАЦИЙ [935]</text>
</g>
<!-- ПРЕЗИДЕНТ РФ [1888]&#45;&gt;ОРГАНИЗАЦИЯ ОБЪЕДИНЕННЫХ НАЦИЙ [935] -->
<g id="edge12" class="edge"><title>ПРЕЗИДЕНТ РФ [1888]&#45;&gt;ОРГАНИЗАЦИЯ ОБЪЕДИНЕННЫХ НАЦИЙ [935]</title>
<path fill="none" stroke="black" d="M704.742,-972.423C523.829,-967.739 92,-950.152 92,-889 92,-889 92,-889 92,-582.5 92,-438.156 55.6399,-379.541 138,-261 190.768,-185.05 290.383,-145.535 367.68,-125.477"/>
<polygon fill="black" stroke="black" points="368.629,-128.848 377.47,-123.009 366.918,-122.06 368.629,-128.848"/>
<text text-anchor="middle" x="99" y="-536.3" font-family="Times,serif" font-size="14.00">74</text>
</g>
<!-- БЛЭР [1120] -->
<g id="node14" class="node"><title>БЛЭР [1120]</title>
<polygon fill="lightgrey" stroke="black" points="332,-36 240,-36 240,-0 332,-0 332,-36"/>
<text text-anchor="middle" x="286" y="-14.3" font-family="Times,serif" font-size="14.00">БЛЭР [1120]</text>
</g>
<!-- ПРЕЗИДЕНТ РФ [1888]&#45;&gt;БЛЭР [1120] -->
<g id="edge13" class="edge"><title>ПРЕЗИДЕНТ РФ [1888]&#45;&gt;БЛЭР [1120]</title>
<path fill="none" stroke="black" d="M704.7,-973.594C506.395,-971.532 0,-959.376 0,-889 0,-889 0,-889 0,-104 0,-56.5745 146.326,-33.5058 229.649,-24.2141"/>
<polygon fill="black" stroke="black" points="230.166,-27.6787 239.731,-23.1226 229.413,-20.7194 230.166,-27.6787"/>
<text text-anchor="middle" x="10.5" y="-492.8" font-family="Times,serif" font-size="14.00">140</text>
</g>
<!-- ВЛАДИМИР ПУТИН [2645]&#45;&gt;ИРАК [2665] -->
<g id="edge14" class="edge"><title>ВЛАДИМИР ПУТИН [2645]&#45;&gt;ИРАК [2665]</title>
<path fill="none" stroke="black" d="M690.493,-881.186C631.45,-876.229 553.586,-867.371 486,-852 483.612,-851.457 436.287,-835.211 396.157,-821.383"/>
<polygon fill="black" stroke="black" points="397.266,-818.064 386.672,-818.114 394.985,-824.682 397.266,-818.064"/>
<text text-anchor="middle" x="496.5" y="-840.8" font-family="Times,serif" font-size="14.00">275</text>
</g>
<!-- ВЛАДИМИР ПУТИН [2645]&#45;&gt;ВОЙНА [1616] -->
<g id="edge15" class="edge"><title>ВЛАДИМИР ПУТИН [2645]&#45;&gt;ВОЙНА [1616]</title>
<path fill="none" stroke="black" d="M786.583,-869.879C792.837,-840.001 805.79,-778.113 813.292,-742.274"/>
<polygon fill="black" stroke="black" points="816.808,-742.557 815.431,-732.052 809.957,-741.122 816.808,-742.557"/>
<text text-anchor="middle" x="812" y="-797.3" font-family="Times,serif" font-size="14.00">45</text>
</g>
<!-- ВЛАДИМИР ПУТИН [2645]&#45;&gt;ТЕКСТ [2064] -->
<g id="edge16" class="edge"><title>ВЛАДИМИР ПУТИН [2645]&#45;&gt;ТЕКСТ [2064]</title>
<path fill="none" stroke="black" d="M809.735,-869.886C846.854,-844.577 913.136,-793.472 946,-732 958.712,-708.223 962.758,-677.421 963.9,-655.525"/>
<polygon fill="black" stroke="black" points="967.407,-655.382 964.257,-645.266 960.411,-655.138 967.407,-655.382"/>
<text text-anchor="middle" x="944.5" y="-753.8" font-family="Times,serif" font-size="14.00">598</text>
</g>
<!-- ВЛАДИМИР ПУТИН [2645]&#45;&gt;МОСКВА [3539] -->
<g id="edge17" class="edge"><title>ВЛАДИМИР ПУТИН [2645]&#45;&gt;МОСКВА [3539]</title>
<path fill="none" stroke="black" d="M825.546,-869.898C892.161,-840.848 1020.34,-775.378 1087,-678 1113.09,-639.879 1116.29,-621.253 1107,-576 1106.45,-573.3 1105.67,-570.552 1104.77,-567.842"/>
<polygon fill="black" stroke="black" points="1107.97,-566.401 1101.08,-558.353 1101.44,-568.941 1107.97,-566.401"/>
<text text-anchor="middle" x="1084.5" y="-710.3" font-family="Times,serif" font-size="14.00">362</text>
</g>
<!-- ВЛАДИМИР ПУТИН [2645]&#45;&gt;ЯПОНИЯ [781] -->
<g id="edge18" class="edge"><title>ВЛАДИМИР ПУТИН [2645]&#45;&gt;ЯПОНИЯ [781]</title>
<path fill="none" stroke="black" d="M769.416,-869.899C728.118,-815.694 610.981,-644.086 680,-522 691.73,-501.252 712.604,-486.134 733.246,-475.498"/>
<polygon fill="black" stroke="black" points="734.901,-478.585 742.365,-471.067 731.841,-472.289 734.901,-478.585"/>
<text text-anchor="middle" x="679.5" y="-666.8" font-family="Times,serif" font-size="14.00">143</text>
</g>
<!-- ВЛАДИМИР ПУТИН [2645]&#45;&gt;УКРАИНА [1103] -->
<g id="edge19" class="edge"><title>ВЛАДИМИР ПУТИН [2645]&#45;&gt;УКРАИНА [1103]</title>
<path fill="none" stroke="black" d="M690.26,-881.347C631.094,-876.339 560.835,-867.361 535,-852 477.926,-818.065 477.147,-790.643 446,-732 434.066,-709.53 431.283,-703.079 427,-678 414.775,-606.42 442.128,-522.449 458.631,-480.569"/>
<polygon fill="black" stroke="black" points="461.957,-481.681 462.464,-471.099 455.468,-479.056 461.957,-481.681"/>
<text text-anchor="middle" x="434" y="-666.8" font-family="Times,serif" font-size="14.00">70</text>
</g>
<!-- ВЛАДИМИР ПУТИН [2645]&#45;&gt;ПОЛИТИКА [2170] -->
<g id="edge20" class="edge"><title>ВЛАДИМИР ПУТИН [2645]&#45;&gt;ПОЛИТИКА [2170]</title>
<path fill="none" stroke="black" d="M734.035,-869.839C679.056,-847.612 592.622,-803.068 555,-732 491.763,-612.544 602.958,-453.087 651.755,-392.133"/>
<polygon fill="black" stroke="black" points="654.611,-394.169 658.201,-384.201 649.178,-389.754 654.611,-394.169"/>
<text text-anchor="middle" x="550.5" y="-623.3" font-family="Times,serif" font-size="14.00">101</text>
</g>
<!-- ВЛАДИМИР ПУТИН [2645]&#45;&gt;ПЕРЕПИСЬ [832] -->
<g id="edge21" class="edge"><title>ВЛАДИМИР ПУТИН [2645]&#45;&gt;ПЕРЕПИСЬ [832]</title>
<path fill="none" stroke="black" d="M842.189,-869.877C878.991,-858.063 926.63,-840.606 966,-819 1134.24,-726.668 1206.85,-719.837 1310,-558 1324.75,-534.862 1329.79,-503.523 1331.42,-481.312"/>
<polygon fill="black" stroke="black" points="1334.92,-481.395 1331.97,-471.217 1327.93,-481.01 1334.92,-481.395"/>
<text text-anchor="middle" x="1235" y="-666.8" font-family="Times,serif" font-size="14.00">59</text>
</g>
<!-- ВЛАДИМИР ПУТИН [2645]&#45;&gt;РЕСПУБЛИКА [1191] -->
<g id="edge22" class="edge"><title>ВЛАДИМИР ПУТИН [2645]&#45;&gt;РЕСПУБЛИКА [1191]</title>
<path fill="none" stroke="black" d="M859.9,-869.954C881.431,-864.702 904.753,-858.559 926,-852 1097.95,-798.921 1162.93,-786.594 1274,-645 1341.18,-559.36 1440.77,-535.921 1400,-435 1375.49,-374.324 1312.72,-327.824 1270.7,-302.208"/>
<polygon fill="black" stroke="black" points="1272.45,-299.177 1262.07,-297.061 1268.86,-305.189 1272.45,-299.177"/>
<text text-anchor="middle" x="1351" y="-579.8" font-family="Times,serif" font-size="14.00">51</text>
</g>
<!-- ВЛАДИМИР ПУТИН [2645]&#45;&gt;СОЕДИНЕННЫЕ ШТАТЫ АМЕРИКИ [1284] -->
<g id="edge23" class="edge"><title>ВЛАДИМИР ПУТИН [2645]&#45;&gt;СОЕДИНЕННЫЕ ШТАТЫ АМЕРИКИ [1284]</title>
<path fill="none" stroke="black" d="M875.765,-879.795C971.855,-868.429 1122.7,-839.306 1230,-765 1393.2,-651.982 1444.03,-604.232 1510,-417 1520.37,-387.576 1541.79,-365.75 1498,-315 1445.81,-254.522 1238.8,-221.915 1091.7,-206.009"/>
<polygon fill="black" stroke="black" points="1091.98,-202.518 1081.66,-204.939 1091.24,-209.479 1091.98,-202.518"/>
<text text-anchor="middle" x="1474" y="-536.3" font-family="Times,serif" font-size="14.00">24</text>
</g>
<!-- ВЛАДИМИР ПУТИН [2645]&#45;&gt;ОРГАНИЗАЦИЯ ОБЪЕДИНЕННЫХ НАЦИЙ [935] -->
<g id="edge24" class="edge"><title>ВЛАДИМИР ПУТИН [2645]&#45;&gt;ОРГАНИЗАЦИЯ ОБЪЕДИНЕННЫХ НАЦИЙ [935]</title>
<path fill="none" stroke="black" d="M690.359,-887.18C620.444,-885.02 522.901,-877.057 441,-852 427.5,-847.87 426.422,-841.377 413,-837 357.964,-819.053 336.8,-842.733 284,-819 198.72,-780.669 134,-764.999 134,-671.5 134,-671.5 134,-671.5 134,-321.5 134,-254.216 326.114,-166.528 421.945,-126.973"/>
<polygon fill="black" stroke="black" points="423.54,-130.101 431.466,-123.07 420.885,-123.624 423.54,-130.101"/>
<text text-anchor="middle" x="144.5" y="-492.8" font-family="Times,serif" font-size="14.00">112</text>
</g>
<!-- ВЛАДИМИР ПУТИН [2645]&#45;&gt;БЛЭР [1120] -->
<g id="edge25" class="edge"><title>ВЛАДИМИР ПУТИН [2645]&#45;&gt;БЛЭР [1120]</title>
<path fill="none" stroke="black" d="M690.413,-884.822C547.86,-880.041 282.544,-865.061 201,-819 62.8829,-740.983 46,-656.128 46,-497.5 46,-497.5 46,-497.5 46,-104 46,-65.2398 158.633,-39.6946 229.579,-27.4488"/>
<polygon fill="black" stroke="black" points="230.446,-30.852 239.726,-25.7385 229.283,-23.9494 230.446,-30.852"/>
<text text-anchor="middle" x="56.5" y="-449.3" font-family="Times,serif" font-size="14.00">290</text>
</g>
<!-- ИРАК [2665]&#45;&gt;ВОЙНА [1616] -->
<g id="edge26" class="edge"><title>ИРАК [2665]&#45;&gt;ВОЙНА [1616]</title>
<path fill="none" stroke="black" d="M386.801,-791.695C473.653,-776.283 659.756,-743.258 756.973,-726.007"/>
<polygon fill="black" stroke="black" points="757.717,-729.43 766.952,-724.236 756.494,-722.537 757.717,-729.43"/>
<text text-anchor="middle" x="619.5" y="-753.8" font-family="Times,serif" font-size="14.00">389</text>
</g>
<!-- ИРАК [2665]&#45;&gt;ТЕКСТ [2064] -->
<g id="edge27" class="edge"><title>ИРАК [2665]&#45;&gt;ТЕКСТ [2064]</title>
<path fill="none" stroke="black" d="M386.545,-798.602C501.531,-794.45 795.79,-779.365 880,-732 912.108,-713.94 936.692,-678.296 950.739,-653.815"/>
<polygon fill="black" stroke="black" points="953.817,-655.482 955.601,-645.039 947.694,-652.09 953.817,-655.482"/>
<text text-anchor="middle" x="931.5" y="-710.3" font-family="Times,serif" font-size="14.00">197</text>
</g>
<!-- ИРАК [2665]&#45;&gt;МОСКВА [3539] -->
<g id="edge28" class="edge"><title>ИРАК [2665]&#45;&gt;МОСКВА [3539]</title>
<path fill="none" stroke="black" d="M386.628,-799.162C471.816,-797.053 658.105,-789.764 813,-765 873.14,-755.385 890.347,-756.738 946,-732 1009.19,-703.911 1036.57,-702.493 1075,-645 1090.2,-622.256 1093.45,-590.599 1093.51,-568.201"/>
<polygon fill="black" stroke="black" points="1097.01,-567.965 1093.33,-558.029 1090.01,-568.091 1097.01,-567.965"/>
<text text-anchor="middle" x="1072.5" y="-666.8" font-family="Times,serif" font-size="14.00">273</text>
</g>
<!-- ИРАК [2665]&#45;&gt;УКРАИНА [1103] -->
<g id="edge29" class="edge"><title>ИРАК [2665]&#45;&gt;УКРАИНА [1103]</title>
<path fill="none" stroke="black" d="M344.956,-782.931C346.588,-777.235 348.396,-770.851 350,-765 383.587,-642.523 352.882,-594.219 424,-489 426.736,-484.952 430.095,-481.178 433.741,-477.72"/>
<polygon fill="black" stroke="black" points="436.188,-480.233 441.522,-471.079 431.643,-474.909 436.188,-480.233"/>
<text text-anchor="middle" x="382" y="-623.3" font-family="Times,serif" font-size="14.00">36</text>
</g>
<!-- ИРАК [2665]&#45;&gt;ПОЛИТИКА [2170] -->
<g id="edge30" class="edge"><title>ИРАК [2665]&#45;&gt;ПОЛИТИКА [2170]</title>
<path fill="none" stroke="black" d="M336.588,-782.737C326.124,-724.209 300.892,-531.59 400,-435 414.227,-421.134 520.635,-397.428 596.31,-381.989"/>
<polygon fill="black" stroke="black" points="597.201,-385.379 606.306,-379.961 595.809,-378.519 597.201,-385.379"/>
<text text-anchor="middle" x="340" y="-579.8" font-family="Times,serif" font-size="14.00">68</text>
</g>
<!-- ИРАК [2665]&#45;&gt;СОЕДИНЕННЫЕ ШТАТЫ АМЕРИКИ [1284] -->
<g id="edge31" class="edge"><title>ИРАК [2665]&#45;&gt;СОЕДИНЕННЫЕ ШТАТЫ АМЕРИКИ [1284]</title>
<path fill="none" stroke="black" d="M333.392,-782.737C331.437,-777.141 329.437,-770.865 328,-765 318.774,-727.355 322.359,-716.757 322,-678 320.841,-552.839 293.535,-494.37 378,-402 489.095,-280.509 544.02,-262.463 705,-228 734.019,-221.788 765.303,-216.285 795.237,-211.59"/>
<polygon fill="black" stroke="black" points="795.985,-215.016 805.332,-210.028 794.915,-208.098 795.985,-215.016"/>
<text text-anchor="middle" x="335.5" y="-492.8" font-family="Times,serif" font-size="14.00">365</text>
</g>
<!-- ИРАК [2665]&#45;&gt;ОРГАНИЗАЦИЯ ОБЪЕДИНЕННЫХ НАЦИЙ [935] -->
<g id="edge32" class="edge"><title>ИРАК [2665]&#45;&gt;ОРГАНИЗАЦИЯ ОБЪЕДИНЕННЫХ НАЦИЙ [935]</title>
<path fill="none" stroke="black" d="M329.016,-782.761C325.97,-777.272 322.964,-771.05 321,-765 263.362,-587.461 207.833,-523.648 271,-348 289.307,-297.095 400.126,-181.343 450.324,-130.604"/>
<polygon fill="black" stroke="black" points="452.993,-132.884 457.555,-123.322 448.025,-127.952 452.993,-132.884"/>
<text text-anchor="middle" x="258.5" y="-449.3" font-family="Times,serif" font-size="14.00">556</text>
</g>
<!-- ИРАК [2665]&#45;&gt;БЛЭР [1120] -->
<g id="edge33" class="edge"><title>ИРАК [2665]&#45;&gt;БЛЭР [1120]</title>
<path fill="none" stroke="black" d="M306.809,-782.809C257.848,-756.326 172,-705.099 172,-671.5 172,-671.5 172,-671.5 172,-104 172,-71.8102 201.574,-50.3604 230.595,-37.0608"/>
<polygon fill="black" stroke="black" points="232.162,-40.1971 239.96,-33.0258 229.392,-33.7684 232.162,-40.1971"/>
<text text-anchor="middle" x="182.5" y="-405.8" font-family="Times,serif" font-size="14.00">337</text>
</g>
<!-- ВОЙНА [1616]&#45;&gt;ТЕКСТ [2064] -->
<g id="edge34" class="edge"><title>ВОЙНА [1616]&#45;&gt;ТЕКСТ [2064]</title>
<path fill="none" stroke="black" d="M851.506,-695.856C861.683,-690.319 872.893,-684.047 883,-678 893.473,-671.734 895.663,-669.487 906,-663 912.654,-658.824 919.785,-654.445 926.69,-650.252"/>
<polygon fill="black" stroke="black" points="928.515,-653.239 935.263,-645.071 924.894,-647.248 928.515,-653.239"/>
<text text-anchor="middle" x="913" y="-666.8" font-family="Times,serif" font-size="14.00">73</text>
</g>
<!-- ВОЙНА [1616]&#45;&gt;МОСКВА [3539] -->
<g id="edge35" class="edge"><title>ВОЙНА [1616]&#45;&gt;МОСКВА [3539]</title>
<path fill="none" stroke="black" d="M871.122,-699.792C923.209,-685.868 998.915,-663.438 1023,-645 1049.61,-624.625 1069.26,-590.901 1080.64,-567.4"/>
<polygon fill="black" stroke="black" points="1083.81,-568.872 1084.87,-558.33 1077.47,-565.913 1083.81,-568.872"/>
<text text-anchor="middle" x="1064" y="-623.3" font-family="Times,serif" font-size="14.00">93</text>
</g>
<!-- ВОЙНА [1616]&#45;&gt;ЯПОНИЯ [781] -->
<g id="edge36" class="edge"><title>ВОЙНА [1616]&#45;&gt;ЯПОНИЯ [781]</title>
<path fill="none" stroke="black" d="M820.865,-695.957C824.115,-662.351 829.439,-585.305 818,-522 815.441,-507.838 810.176,-492.752 805.134,-480.397"/>
<polygon fill="black" stroke="black" points="808.332,-478.974 801.195,-471.144 801.892,-481.716 808.332,-478.974"/>
<text text-anchor="middle" x="832" y="-579.8" font-family="Times,serif" font-size="14.00">10</text>
</g>
<!-- ВОЙНА [1616]&#45;&gt;УКРАИНА [1103] -->
<g id="edge37" class="edge"><title>ВОЙНА [1616]&#45;&gt;УКРАИНА [1103]</title>
<path fill="none" stroke="black" d="M795.034,-695.976C745.594,-660.749 628.886,-577.039 533,-504 521.869,-495.521 509.798,-486.018 499.23,-477.593"/>
<polygon fill="black" stroke="black" points="501.118,-474.621 491.123,-471.107 496.745,-480.087 501.118,-474.621"/>
<text text-anchor="middle" x="655" y="-579.8" font-family="Times,serif" font-size="14.00">19</text>
</g>
<!-- ВОЙНА [1616]&#45;&gt;ПОЛИТИКА [2170] -->
<g id="edge38" class="edge"><title>ВОЙНА [1616]&#45;&gt;ПОЛИТИКА [2170]</title>
<path fill="none" stroke="black" d="M812.009,-695.841C798.34,-662.349 767.046,-585.952 740,-522 720.835,-476.683 698.001,-424.164 684.547,-393.364"/>
<polygon fill="black" stroke="black" points="687.738,-391.925 680.525,-384.164 681.324,-394.729 687.738,-391.925"/>
<text text-anchor="middle" x="762" y="-536.3" font-family="Times,serif" font-size="14.00">74</text>
</g>
<!-- ВОЙНА [1616]&#45;&gt;РЕСПУБЛИКА [1191] -->
<g id="edge39" class="edge"><title>ВОЙНА [1616]&#45;&gt;РЕСПУБЛИКА [1191]</title>
<path fill="none" stroke="black" d="M871.117,-697.18C872.76,-696.77 874.391,-696.375 876,-696 922.538,-685.151 935.755,-690.035 982,-678 1093.2,-649.061 1153.71,-657.606 1211,-558 1257.71,-476.788 1244.62,-359.359 1235.48,-306.981"/>
<polygon fill="black" stroke="black" points="1238.91,-306.318 1233.67,-297.115 1232.03,-307.583 1238.91,-306.318"/>
<text text-anchor="middle" x="1244" y="-492.8" font-family="Times,serif" font-size="14.00">37</text>
</g>
<!-- ВОЙНА [1616]&#45;&gt;СОЕДИНЕННЫЕ ШТАТЫ АМЕРИКИ [1284] -->
<g id="edge40" class="edge"><title>ВОЙНА [1616]&#45;&gt;СОЕДИНЕННЫЕ ШТАТЫ АМЕРИКИ [1284]</title>
<path fill="none" stroke="black" d="M828.417,-695.764C831.324,-690.17 834.433,-683.888 837,-678 901.178,-530.822 916.201,-489.573 934,-330 938.215,-292.213 938.726,-248.223 938.516,-220.495"/>
<polygon fill="black" stroke="black" points="942.014,-220.325 938.401,-210.365 935.014,-220.404 942.014,-220.325"/>
<text text-anchor="middle" x="930.5" y="-449.3" font-family="Times,serif" font-size="14.00">216</text>
</g>
<!-- ВОЙНА [1616]&#45;&gt;ОРГАНИЗАЦИЯ ОБЪЕДИНЕННЫХ НАЦИЙ [935] -->
<g id="edge41" class="edge"><title>ВОЙНА [1616]&#45;&gt;ОРГАНИЗАЦИЯ ОБЪЕДИНЕННЫХ НАЦИЙ [935]</title>
<path fill="none" stroke="black" d="M766.888,-707.355C735.373,-702.511 695.036,-693.715 662,-678 645.248,-670.032 408.087,-487.695 400,-471 342.999,-353.32 422.762,-193.933 458.859,-132.057"/>
<polygon fill="black" stroke="black" points="461.952,-133.703 464.049,-123.318 455.933,-130.129 461.952,-133.703"/>
<text text-anchor="middle" x="391" y="-405.8" font-family="Times,serif" font-size="14.00">96</text>
</g>
<!-- ВОЙНА [1616]&#45;&gt;БЛЭР [1120] -->
<g id="edge42" class="edge"><title>ВОЙНА [1616]&#45;&gt;БЛЭР [1120]</title>
<path fill="none" stroke="black" d="M766.767,-706.427C729.917,-700.954 679.711,-691.801 637,-678 603.888,-667.301 593.223,-666.675 566,-645 550.143,-632.374 553.1,-622.523 538,-609 505.747,-580.115 487.589,-586.505 455,-558 417.434,-525.142 406.668,-515.464 384,-471 311.338,-328.473 321.358,-280.263 292,-123 287.569,-99.2624 287.335,-93.1107 286,-69 285.594,-61.6626 285.456,-53.7103 285.454,-46.352"/>
<polygon fill="black" stroke="black" points="288.955,-46.1639 285.532,-36.1374 281.956,-46.1102 288.955,-46.1639"/>
<text text-anchor="middle" x="352" y="-362.3" font-family="Times,serif" font-size="14.00">62</text>
</g>
<!-- ТЕКСТ [2064]&#45;&gt;МОСКВА [3539] -->
<g id="edge43" class="edge"><title>ТЕКСТ [2064]&#45;&gt;МОСКВА [3539]</title>
<path fill="none" stroke="black" d="M978.804,-608.686C988.364,-598.26 1001.5,-585.256 1015,-576 1022.22,-571.052 1030.24,-566.512 1038.31,-562.457"/>
<polygon fill="black" stroke="black" points="1039.91,-565.576 1047.4,-558.09 1036.87,-559.266 1039.91,-565.576"/>
<text text-anchor="middle" x="1025.5" y="-579.8" font-family="Times,serif" font-size="14.00">633</text>
</g>
<!-- ТЕКСТ [2064]&#45;&gt;ЯПОНИЯ [781] -->
<g id="edge44" class="edge"><title>ТЕКСТ [2064]&#45;&gt;ЯПОНИЯ [781]</title>
<path fill="none" stroke="black" d="M968.274,-608.874C969.949,-598.998 970.699,-586.498 967,-576 950.507,-529.192 937.708,-517.388 897,-489 884.938,-480.589 870.696,-474.068 856.683,-469.062"/>
<polygon fill="black" stroke="black" points="857.643,-465.693 847.049,-465.834 855.419,-472.33 857.643,-465.693"/>
<text text-anchor="middle" x="967" y="-536.3" font-family="Times,serif" font-size="14.00">88</text>
</g>
<!-- ТЕКСТ [2064]&#45;&gt;УКРАИНА [1103] -->
<g id="edge45" class="edge"><title>ТЕКСТ [2064]&#45;&gt;УКРАИНА [1103]</title>
<path fill="none" stroke="black" d="M913.875,-615.681C885.732,-609.445 850.119,-600.813 819,-591 709.095,-556.344 584.287,-504.099 517.754,-475.168"/>
<polygon fill="black" stroke="black" points="518.934,-471.864 508.369,-471.073 516.135,-478.28 518.934,-471.864"/>
<text text-anchor="middle" x="729" y="-536.3" font-family="Times,serif" font-size="14.00">58</text>
</g>
<!-- ТЕКСТ [2064]&#45;&gt;ПОЛИТИКА [2170] -->
<g id="edge46" class="edge"><title>ТЕКСТ [2064]&#45;&gt;ПОЛИТИКА [2170]</title>
<path fill="none" stroke="black" d="M954.148,-608.986C941.471,-587.698 918.186,-550.573 894,-522 886.485,-513.121 880.986,-513.974 875,-504 858.631,-476.727 877.492,-458.449 856,-435 828.461,-404.953 786.414,-388.13 749.566,-378.737"/>
<polygon fill="black" stroke="black" points="750.368,-375.33 739.826,-376.393 748.73,-382.136 750.368,-375.33"/>
<text text-anchor="middle" x="885.5" y="-492.8" font-family="Times,serif" font-size="14.00">120</text>
</g>
<!-- ТЕКСТ [2064]&#45;&gt;ПЕРЕПИСЬ [832] -->
<g id="edge47" class="edge"><title>ТЕКСТ [2064]&#45;&gt;ПЕРЕПИСЬ [832]</title>
<path fill="none" stroke="black" d="M1014.25,-610.008C1015.84,-609.647 1017.43,-609.31 1019,-609 1062.56,-600.397 1178.69,-611.642 1218,-591 1265.38,-566.125 1300.77,-512.342 1318.74,-480.057"/>
<polygon fill="black" stroke="black" points="1321.87,-481.633 1323.55,-471.173 1315.72,-478.3 1321.87,-481.633"/>
<text text-anchor="middle" x="1299" y="-536.3" font-family="Times,serif" font-size="14.00">68</text>
</g>
<!-- ТЕКСТ [2064]&#45;&gt;РЕСПУБЛИКА [1191] -->
<g id="edge48" class="edge"><title>ТЕКСТ [2064]&#45;&gt;РЕСПУБЛИКА [1191]</title>
<path fill="none" stroke="black" d="M1014.03,-610.424C1015.7,-609.939 1017.37,-609.463 1019,-609 1096.13,-587.176 1139.03,-618.163 1192,-558 1200.27,-548.608 1219.75,-375.147 1227.11,-307.084"/>
<polygon fill="black" stroke="black" points="1230.6,-307.424 1228.19,-297.106 1223.64,-306.674 1230.6,-307.424"/>
<text text-anchor="middle" x="1220" y="-449.3" font-family="Times,serif" font-size="14.00">47</text>
</g>
<!-- ТЕКСТ [2064]&#45;&gt;СОЕДИНЕННЫЕ ШТАТЫ АМЕРИКИ [1284] -->
<g id="edge49" class="edge"><title>ТЕКСТ [2064]&#45;&gt;СОЕДИНЕННЫЕ ШТАТЫ АМЕРИКИ [1284]</title>
<path fill="none" stroke="black" d="M1014.24,-610.077C1070.54,-591.996 1154.6,-564.193 1159,-558 1168.27,-544.956 1162.35,-537.646 1159,-522 1145.59,-459.3 1070.73,-314.9 1036,-261 1025.89,-245.304 1024.54,-239.711 1010,-228 1003.99,-223.158 997.194,-218.769 990.242,-214.865"/>
<polygon fill="black" stroke="black" points="991.873,-211.768 981.398,-210.181 988.597,-217.954 991.873,-211.768"/>
<text text-anchor="middle" x="1126" y="-405.8" font-family="Times,serif" font-size="14.00">51</text>
</g>
<!-- ТЕКСТ [2064]&#45;&gt;ОРГАНИЗАЦИЯ ОБЪЕДИНЕННЫХ НАЦИЙ [935] -->
<g id="edge50" class="edge"><title>ТЕКСТ [2064]&#45;&gt;ОРГАНИЗАЦИЯ ОБЪЕДИНЕННЫХ НАЦИЙ [935]</title>
<path fill="none" stroke="black" d="M933.815,-608.959C896.374,-587.963 830.454,-551.455 773,-522 725.151,-497.469 589.097,-458.578 555,-417 545.797,-405.778 498.624,-206.996 481.349,-133.244"/>
<polygon fill="black" stroke="black" points="484.711,-132.247 479.025,-123.307 477.894,-133.841 484.711,-132.247"/>
<text text-anchor="middle" x="551" y="-362.3" font-family="Times,serif" font-size="14.00">78</text>
</g>
<!-- ТЕКСТ [2064]&#45;&gt;БЛЭР [1120] -->
<g id="edge51" class="edge"><title>ТЕКСТ [2064]&#45;&gt;БЛЭР [1120]</title>
<path fill="none" stroke="black" d="M913.614,-621.746C874.317,-617.256 818.892,-608.317 773,-591 676.014,-554.403 652.293,-537.771 573,-471 558.356,-458.669 358.575,-225.958 348,-210 324.174,-174.046 318.562,-163.944 305,-123 296.607,-97.6612 291.618,-67.5487 288.874,-46.2635"/>
<polygon fill="black" stroke="black" points="292.344,-45.8047 287.67,-36.2966 285.395,-46.6442 292.344,-45.8047"/>
<text text-anchor="middle" x="459.5" y="-318.8" font-family="Times,serif" font-size="14.00">143</text>
</g>
<!-- МОСКВА [3539]&#45;&gt;ЯПОНИЯ [781] -->
<g id="edge52" class="edge"><title>МОСКВА [3539]&#45;&gt;ЯПОНИЯ [781]</title>
<path fill="none" stroke="black" d="M1045.84,-521.83C1033.04,-516.577 1019.29,-510.464 1007,-504 996.199,-498.318 995.335,-493.522 984,-489 961.392,-479.981 903.516,-470.001 857.353,-463.013"/>
<polygon fill="black" stroke="black" points="857.807,-459.542 847.399,-461.525 856.772,-466.465 857.807,-459.542"/>
<text text-anchor="middle" x="1017.5" y="-492.8" font-family="Times,serif" font-size="14.00">159</text>
</g>
<!-- МОСКВА [3539]&#45;&gt;УКРАИНА [1103] -->
<g id="edge53" class="edge"><title>МОСКВА [3539]&#45;&gt;УКРАИНА [1103]</title>
<path fill="none" stroke="black" d="M1033.61,-522.603C987.01,-509.743 925.47,-493.319 900,-489 833.001,-477.638 644.94,-464.798 541.101,-458.284"/>
<polygon fill="black" stroke="black" points="541.214,-454.785 531.015,-457.655 540.778,-461.771 541.214,-454.785"/>
<text text-anchor="middle" x="968" y="-492.8" font-family="Times,serif" font-size="14.00">46</text>
</g>
<!-- МОСКВА [3539]&#45;&gt;ПОЛИТИКА [2170] -->
<g id="edge54" class="edge"><title>МОСКВА [3539]&#45;&gt;ПОЛИТИКА [2170]</title>
<path fill="none" stroke="black" d="M1070.67,-521.952C1034.31,-492.909 963.945,-436.776 961,-435 896.2,-395.914 810.622,-379.294 749.629,-372.228"/>
<polygon fill="black" stroke="black" points="750.002,-368.748 739.68,-371.134 749.237,-375.706 750.002,-368.748"/>
<text text-anchor="middle" x="1017.5" y="-449.3" font-family="Times,serif" font-size="14.00">126</text>
</g>
<!-- МОСКВА [3539]&#45;&gt;ПЕРЕПИСЬ [832] -->
<g id="edge55" class="edge"><title>МОСКВА [3539]&#45;&gt;ПЕРЕПИСЬ [832]</title>
<path fill="none" stroke="black" d="M1131.58,-521.978C1155.76,-511.846 1187.42,-499.049 1216,-489 1230.89,-483.762 1247.03,-478.587 1262.39,-473.888"/>
<polygon fill="black" stroke="black" points="1263.8,-477.119 1272.36,-470.873 1261.77,-470.419 1263.8,-477.119"/>
<text text-anchor="middle" x="1223" y="-492.8" font-family="Times,serif" font-size="14.00">42</text>
</g>
<!-- МОСКВА [3539]&#45;&gt;РЕСПУБЛИКА [1191] -->
<g id="edge56" class="edge"><title>МОСКВА [3539]&#45;&gt;РЕСПУБЛИКА [1191]</title>
<path fill="none" stroke="black" d="M1098.94,-521.995C1119.05,-472.857 1176.8,-333.021 1190,-315 1192.71,-311.299 1195.88,-307.715 1199.22,-304.343"/>
<polygon fill="black" stroke="black" points="1201.8,-306.722 1206.71,-297.335 1197.02,-301.61 1201.8,-306.722"/>
<text text-anchor="middle" x="1156" y="-405.8" font-family="Times,serif" font-size="14.00">53</text>
</g>
<!-- МОСКВА [3539]&#45;&gt;СОЕДИНЕННЫЕ ШТАТЫ АМЕРИКИ [1284] -->
<g id="edge57" class="edge"><title>МОСКВА [3539]&#45;&gt;СОЕДИНЕННЫЕ ШТАТЫ АМЕРИКИ [1284]</title>
<path fill="none" stroke="black" d="M1090.31,-521.673C1084.65,-471.368 1062.38,-322.866 990,-228 986.782,-223.782 982.904,-219.902 978.734,-216.383"/>
<polygon fill="black" stroke="black" points="980.526,-213.348 970.451,-210.068 976.281,-218.915 980.526,-213.348"/>
<text text-anchor="middle" x="1070" y="-362.3" font-family="Times,serif" font-size="14.00">55</text>
</g>
<!-- МОСКВА [3539]&#45;&gt;ОРГАНИЗАЦИЯ ОБЪЕДИНЕННЫХ НАЦИЙ [935] -->
<g id="edge58" class="edge"><title>МОСКВА [3539]&#45;&gt;ОРГАНИЗАЦИЯ ОБЪЕДИНЕННЫХ НАЦИЙ [935]</title>
<path fill="none" stroke="black" d="M1083.52,-521.699C1072.46,-500.116 1051.73,-462.685 1028,-435 974.444,-372.524 961.163,-350.656 887,-315 849.057,-296.758 830.616,-317.778 794,-297 730.216,-260.804 745.432,-214.059 684,-174 649.892,-151.759 607.903,-136.244 570.531,-125.713"/>
<polygon fill="black" stroke="black" points="571.2,-122.267 560.631,-123.007 569.355,-129.02 571.2,-122.267"/>
<text text-anchor="middle" x="923" y="-318.8" font-family="Times,serif" font-size="14.00">99</text>
</g>
<!-- МОСКВА [3539]&#45;&gt;БЛЭР [1120] -->
<g id="edge59" class="edge"><title>МОСКВА [3539]&#45;&gt;БЛЭР [1120]</title>
<path fill="none" stroke="black" d="M1150.32,-530.601C1227.43,-518.74 1358.41,-495.752 1400,-471 1519.21,-400.047 1606,-375.225 1606,-236.5 1606,-236.5 1606,-236.5 1606,-104 1606,-39.6594 594.084,-22.8255 342.236,-19.6322"/>
<polygon fill="black" stroke="black" points="342.248,-16.1322 332.206,-19.5072 342.161,-23.1316 342.248,-16.1322"/>
<text text-anchor="middle" x="1614.5" y="-275.3" font-family="Times,serif" font-size="14.00">241</text>
</g>
<!-- ЯПОНИЯ [781]&#45;&gt;СОЕДИНЕННЫЕ ШТАТЫ АМЕРИКИ [1284] -->
<g id="edge60" class="edge"><title>ЯПОНИЯ [781]&#45;&gt;СОЕДИНЕННЫЕ ШТАТЫ АМЕРИКИ [1284]</title>
<path fill="none" stroke="black" d="M802.739,-434.604C827.658,-390.094 893.842,-271.876 923.393,-219.09"/>
<polygon fill="black" stroke="black" points="926.472,-220.756 928.303,-210.32 920.364,-217.336 926.472,-220.756"/>
<text text-anchor="middle" x="876" y="-318.8" font-family="Times,serif" font-size="14.00">29</text>
</g>
<!-- УКРАИНА [1103]&#45;&gt;ПОЛИТИКА [2170] -->
<g id="edge61" class="edge"><title>УКРАИНА [1103]&#45;&gt;ПОЛИТИКА [2170]</title>
<path fill="none" stroke="black" d="M503.654,-434.904C524.063,-424.806 550.761,-412.069 575,-402 587.099,-396.974 600.206,-391.987 612.781,-387.42"/>
<polygon fill="black" stroke="black" points="614.037,-390.688 622.267,-384.016 611.673,-384.1 614.037,-390.688"/>
<text text-anchor="middle" x="582" y="-405.8" font-family="Times,serif" font-size="14.00">59</text>
</g>
<!-- УКРАИНА [1103]&#45;&gt;СОЕДИНЕННЫЕ ШТАТЫ АМЕРИКИ [1284] -->
<g id="edge62" class="edge"><title>УКРАИНА [1103]&#45;&gt;СОЕДИНЕННЫЕ ШТАТЫ АМЕРИКИ [1284]</title>
<path fill="none" stroke="black" d="M473.782,-434.837C479.662,-411.999 493.116,-371.749 519,-348 601.987,-271.858 725.64,-232.225 817.125,-212.182"/>
<polygon fill="black" stroke="black" points="817.948,-215.585 826.993,-210.068 816.482,-208.74 817.948,-215.585"/>
<text text-anchor="middle" x="566" y="-318.8" font-family="Times,serif" font-size="14.00">46</text>
</g>
<!-- ПОЛИТИКА [2170]&#45;&gt;РЕСПУБЛИКА [1191] -->
<g id="edge63" class="edge"><title>ПОЛИТИКА [2170]&#45;&gt;РЕСПУБЛИКА [1191]</title>
<path fill="none" stroke="black" d="M739.764,-357.838C797.205,-351.415 882.227,-341.283 956,-330 1019.79,-320.244 1091.52,-307.073 1145.59,-296.698"/>
<polygon fill="black" stroke="black" points="1146.32,-300.123 1155.48,-294.795 1144.99,-293.249 1146.32,-300.123"/>
<text text-anchor="middle" x="1047" y="-318.8" font-family="Times,serif" font-size="14.00">60</text>
</g>
<!-- ПОЛИТИКА [2170]&#45;&gt;СОЕДИНЕННЫЕ ШТАТЫ АМЕРИКИ [1284] -->
<g id="edge64" class="edge"><title>ПОЛИТИКА [2170]&#45;&gt;СОЕДИНЕННЫЕ ШТАТЫ АМЕРИКИ [1284]</title>
<path fill="none" stroke="black" d="M699.378,-347.879C747.495,-316.649 849.494,-250.445 903.222,-215.573"/>
<polygon fill="black" stroke="black" points="905.246,-218.432 911.729,-210.052 901.435,-212.56 905.246,-218.432"/>
<text text-anchor="middle" x="839" y="-275.3" font-family="Times,serif" font-size="14.00">66</text>
</g>
<!-- ПОЛИТИКА [2170]&#45;&gt;ОРГАНИЗАЦИЯ ОБЪЕДИНЕННЫХ НАЦИЙ [935] -->
<g id="edge65" class="edge"><title>ПОЛИТИКА [2170]&#45;&gt;ОРГАНИЗАЦИЯ ОБЪЕДИНЕННЫХ НАЦИЙ [935]</title>
<path fill="none" stroke="black" d="M662.36,-347.653C658.988,-342.053 655.284,-335.795 652,-330 605.04,-247.14 620.31,-206.323 551,-141 545.767,-136.068 539.717,-131.735 533.36,-127.953"/>
<polygon fill="black" stroke="black" points="535.003,-124.863 524.55,-123.134 531.644,-131.004 535.003,-124.863"/>
<text text-anchor="middle" x="622" y="-231.8" font-family="Times,serif" font-size="14.00">18</text>
</g>
<!-- ПОЛИТИКА [2170]&#45;&gt;БЛЭР [1120] -->
<g id="edge66" class="edge"><title>ПОЛИТИКА [2170]&#45;&gt;БЛЭР [1120]</title>
<path fill="none" stroke="black" d="M670.747,-347.778C668.7,-330.631 666,-303.543 666,-280 666,-280 666,-280 666,-104 666,-38.4943 448.231,-23.4551 342.403,-20.0141"/>
<polygon fill="black" stroke="black" points="342.316,-16.51 332.216,-19.7075 342.106,-23.5068 342.316,-16.51"/>
<text text-anchor="middle" x="673" y="-188.3" font-family="Times,serif" font-size="14.00">43</text>
</g>
<!-- ПЕРЕПИСЬ [832]&#45;&gt;РЕСПУБЛИКА [1191] -->
<g id="edge67" class="edge"><title>ПЕРЕПИСЬ [832]&#45;&gt;РЕСПУБЛИКА [1191]</title>
<path fill="none" stroke="black" d="M1324.04,-434.994C1311.39,-408.529 1285.32,-356.244 1258,-315 1255.9,-311.829 1253.58,-308.593 1251.2,-305.433"/>
<polygon fill="black" stroke="black" points="1253.8,-303.067 1244.88,-297.34 1248.28,-307.375 1253.8,-303.067"/>
<text text-anchor="middle" x="1305" y="-362.3" font-family="Times,serif" font-size="14.00">30</text>
</g>
<!-- РЕСПУБЛИКА [1191]&#45;&gt;СОЕДИНЕННЫЕ ШТАТЫ АМЕРИКИ [1284] -->
<g id="edge68" class="edge"><title>РЕСПУБЛИКА [1191]&#45;&gt;СОЕДИНЕННЫЕ ШТАТЫ АМЕРИКИ [1284]</title>
<path fill="none" stroke="black" d="M1200.56,-260.885C1180.66,-249.997 1153.47,-236.411 1128,-228 1108.98,-221.718 1088.49,-216.462 1068.25,-212.095"/>
<polygon fill="black" stroke="black" points="1068.85,-208.645 1058.35,-210.023 1067.42,-215.497 1068.85,-208.645"/>
<text text-anchor="middle" x="1170" y="-231.8" font-family="Times,serif" font-size="14.00">12</text>
</g>
<!-- СОЕДИНЕННЫЕ ШТАТЫ АМЕРИКИ [1284]&#45;&gt;ОРГАНИЗАЦИЯ ОБЪЕДИНЕННЫХ НАЦИЙ [935] -->
<g id="edge69" class="edge"><title>СОЕДИНЕННЫЕ ШТАТЫ АМЕРИКИ [1284]&#45;&gt;ОРГАНИЗАЦИЯ ОБЪЕДИНЕННЫХ НАЦИЙ [935]</title>
<path fill="none" stroke="black" d="M845.14,-173.952C767.801,-159.754 657.778,-139.555 577.798,-124.872"/>
<polygon fill="black" stroke="black" points="578.173,-121.383 567.706,-123.019 576.909,-128.268 578.173,-121.383"/>
<text text-anchor="middle" x="742" y="-144.8" font-family="Times,serif" font-size="14.00">89</text>
</g>
<!-- СОЕДИНЕННЫЕ ШТАТЫ АМЕРИКИ [1284]&#45;&gt;БЛЭР [1120] -->
<g id="edge70" class="edge"><title>СОЕДИНЕННЫЕ ШТАТЫ АМЕРИКИ [1284]&#45;&gt;БЛЭР [1120]</title>
<path fill="none" stroke="black" d="M913.817,-173.842C869.751,-143.595 772.38,-81.4036 680,-54 618.287,-35.6935 435.665,-25.4293 342.316,-21.2459"/>
<polygon fill="black" stroke="black" points="342.35,-17.7441 332.206,-20.8009 342.042,-24.7373 342.35,-17.7441"/>
<text text-anchor="middle" x="839" y="-101.3" font-family="Times,serif" font-size="14.00">41</text>
</g>
<!-- ОРГАНИЗАЦИЯ ОБЪЕДИНЕННЫХ НАЦИЙ [935]&#45;&gt;БЛЭР [1120] -->
<g id="edge71" class="edge"><title>ОРГАНИЗАЦИЯ ОБЪЕДИНЕННЫХ НАЦИЙ [935]&#45;&gt;БЛЭР [1120]</title>
<path fill="none" stroke="black" d="M436.753,-86.799C406.81,-73.3326 365.021,-54.5384 333.033,-40.1522"/>
<polygon fill="black" stroke="black" points="334.423,-36.9398 323.867,-36.0302 331.552,-43.3239 334.423,-36.9398"/>
<text text-anchor="middle" x="402.5" y="-57.8" font-family="Times,serif" font-size="14.00">123</text>
</g>
</g>
</svg>
