<?xml version="1.0" encoding="UTF-8" standalone="no"?>
<!DOCTYPE svg PUBLIC "-//W3C//DTD SVG 1.1//EN"
 "http://www.w3.org/Graphics/SVG/1.1/DTD/svg11.dtd">
<!-- Generated by graphviz version 2.38.0 (20140413.2041)
 -->
<!-- Title: G Pages: 1 -->
<svg width="309pt" height="188pt"
 viewBox="0.00 0.00 309.00 188.00" xmlns="http://www.w3.org/2000/svg" xmlns:xlink="http://www.w3.org/1999/xlink">
<g id="graph0" class="graph" transform="scale(1 1) rotate(0) translate(4 184)">
<title>G</title>
<polygon fill="white" stroke="none" points="-4,4 -4,-184 305,-184 305,4 -4,4"/>
<!-- a -->
<g id="node1" class="node"><title>a</title>
<ellipse fill="none" stroke="black" cx="164" cy="-162" rx="27" ry="18"/>
<text text-anchor="middle" x="164" y="-158.3" font-family="Times,serif" font-size="14.00">a</text>
</g>
<!-- b -->
<g id="node2" class="node"><title>b</title>
<ellipse fill="none" stroke="black" cx="27" cy="-90" rx="27" ry="18"/>
<text text-anchor="middle" x="27" y="-86.3" font-family="Times,serif" font-size="14.00">b</text>
</g>
<!-- a&#45;&#45;b -->
<g id="edge1" class="edge"><title>a&#45;&#45;b</title>
<path fill="none" stroke="black" d="M143.193,-150.369C117.443,-137.212 73.8431,-114.934 48.0032,-101.732"/>
</g>
<!-- B -->
<g id="node4" class="node"><title>B</title>
<ellipse fill="none" stroke="black" cx="137" cy="-90" rx="27" ry="18"/>
<text text-anchor="middle" x="137" y="-86.3" font-family="Times,serif" font-size="14.00">B</text>
</g>
<!-- a&#45;&#45;B -->
<g id="edge4" class="edge"><title>a&#45;&#45;B</title>
<path fill="none" stroke="black" d="M157.601,-144.411C153.36,-133.414 147.811,-119.027 143.54,-107.956"/>
</g>
<!-- 1 -->
<g id="node6" class="node"><title>1</title>
<ellipse fill="none" stroke="black" cx="247" cy="-90" rx="27" ry="18"/>
<text text-anchor="middle" x="247" y="-86.3" font-family="Times,serif" font-size="14.00">1</text>
</g>
<!-- a&#45;&#45;1 -->
<g id="edge7" class="edge"><title>a&#45;&#45;1</title>
<path fill="none" stroke="black" d="M180.398,-147.17C195.044,-134.819 216.37,-116.832 230.918,-104.563"/>
</g>
<!-- c -->
<g id="node3" class="node"><title>c</title>
<ellipse fill="none" stroke="black" cx="46" cy="-18" rx="27" ry="18"/>
<text text-anchor="middle" x="46" y="-14.3" font-family="Times,serif" font-size="14.00">c</text>
</g>
<!-- b&#45;&#45;c -->
<g id="edge2" class="edge"><title>b&#45;&#45;c</title>
<path fill="none" stroke="black" d="M31.5994,-72.055C34.5866,-61.0492 38.4642,-46.7636 41.443,-35.789"/>
</g>
<!-- c&#45;&#45;a -->
<g id="edge3" class="edge"><title>c&#45;&#45;a</title>
<path fill="none" stroke="black" d="M54.1307,-35.4681C63.8073,-54.165 81.171,-85.045 101,-108 114.455,-123.576 132.706,-138.398 146.101,-148.387"/>
</g>
<!-- C -->
<g id="node5" class="node"><title>C</title>
<ellipse fill="none" stroke="black" cx="156" cy="-18" rx="27" ry="18"/>
<text text-anchor="middle" x="156" y="-14.3" font-family="Times,serif" font-size="14.00">C</text>
</g>
<!-- B&#45;&#45;C -->
<g id="edge5" class="edge"><title>B&#45;&#45;C</title>
<path fill="none" stroke="black" d="M141.599,-72.055C144.587,-61.0492 148.464,-46.7636 151.443,-35.789"/>
</g>
<!-- C&#45;&#45;a -->
<g id="edge6" class="edge"><title>C&#45;&#45;a</title>
<path fill="none" stroke="black" d="M162.89,-35.8592C166.705,-46.1155 171.058,-59.5889 173,-72 176.913,-97.01 172.194,-126.253 168.249,-144.199"/>
</g>
<!-- 2 -->
<g id="node7" class="node"><title>2</title>
<ellipse fill="none" stroke="black" cx="274" cy="-18" rx="27" ry="18"/>
<text text-anchor="middle" x="274" y="-14.3" font-family="Times,serif" font-size="14.00">2</text>
</g>
<!-- 1&#45;&#45;2 -->
<g id="edge8" class="edge"><title>1&#45;&#45;2</title>
<path fill="none" stroke="black" d="M253.399,-72.411C257.64,-61.4141 263.189,-47.0274 267.46,-35.9562"/>
</g>
<!-- 2&#45;&#45;a -->
<g id="edge9" class="edge"><title>2&#45;&#45;a</title>
<path fill="none" stroke="black" d="M281.496,-35.5625C288.892,-54.6267 297.209,-86.1176 283,-108 262.555,-139.487 218.588,-152.424 190.201,-157.629"/>
</g>
</g>
</svg>
