<?xml version="1.0" encoding="UTF-8" standalone="no"?>
<!DOCTYPE svg PUBLIC "-//W3C//DTD SVG 1.1//EN"
 "http://www.w3.org/Graphics/SVG/1.1/DTD/svg11.dtd">
<!-- Generated by graphviz version 2.38.0 (20140413.2041)
 -->
<!-- Title: G Pages: 1 -->
<svg width="432pt" height="225pt"
 viewBox="0.00 0.00 432.00 224.97" xmlns="http://www.w3.org/2000/svg" xmlns:xlink="http://www.w3.org/1999/xlink">
<g id="graph0" class="graph" transform="scale(0.815094 0.815094) rotate(0) translate(4 272)">
<title>G</title>
<polygon fill="white" stroke="none" points="-4,4 -4,-272 526,-272 526,4 -4,4"/>
<g id="clust1" class="cluster"><title>cluster0</title>
<polygon fill="none" stroke="black" points="8,-80 8,-204 150,-204 150,-80 8,-80"/>
</g>
<g id="clust2" class="cluster"><title>cluster1</title>
<polygon fill="none" stroke="black" points="222,-8 222,-132 364,-132 364,-8 222,-8"/>
</g>
<g id="clust3" class="cluster"><title>cluster2</title>
<polygon fill="none" stroke="black" points="372,-8 372,-132 514,-132 514,-8 372,-8"/>
</g>
<!-- a -->
<g id="node1" class="node"><title>a</title>
<ellipse fill="none" stroke="black" cx="294" cy="-250" rx="27" ry="18"/>
<text text-anchor="middle" x="294" y="-246.3" font-family="Times,serif" font-size="14.00">a</text>
</g>
<!-- b -->
<g id="node2" class="node"><title>b</title>
<ellipse fill="none" stroke="black" cx="294" cy="-178" rx="27" ry="18"/>
<text text-anchor="middle" x="294" y="-174.3" font-family="Times,serif" font-size="14.00">b</text>
</g>
<!-- a&#45;&gt;b -->
<g id="edge1" class="edge"><title>a&#45;&gt;b</title>
<path fill="none" stroke="black" d="M294,-231.697C294,-223.983 294,-214.712 294,-206.112"/>
<polygon fill="black" stroke="black" points="297.5,-206.104 294,-196.104 290.5,-206.104 297.5,-206.104"/>
</g>
<!-- x0 -->
<g id="node4" class="node"><title>x0</title>
<ellipse fill="none" stroke="black" cx="115" cy="-178" rx="27" ry="18"/>
<text text-anchor="middle" x="115" y="-174.3" font-family="Times,serif" font-size="14.00">x0</text>
</g>
<!-- a&#45;&gt;x0 -->
<g id="edge9" class="edge"><title>a&#45;&gt;x0</title>
<path fill="none" stroke="black" d="M271.33,-240.134C239.943,-227.86 183.081,-205.624 147.272,-191.62"/>
<polygon fill="black" stroke="black" points="148.356,-188.286 137.768,-187.904 145.807,-194.806 148.356,-188.286"/>
</g>
<!-- z2 -->
<g id="node12" class="node"><title>z2</title>
<ellipse fill="none" stroke="black" cx="479" cy="-34" rx="27" ry="18"/>
<text text-anchor="middle" x="479" y="-30.3" font-family="Times,serif" font-size="14.00">z2</text>
</g>
<!-- a&#45;&gt;z2 -->
<g id="edge12" class="edge"><title>a&#45;&gt;z2</title>
<path fill="none" stroke="black" d="M314.265,-238.043C345.964,-219.944 407.334,-180.891 443,-132 458.325,-110.992 467.83,-82.7251 473.196,-62.1268"/>
<polygon fill="black" stroke="black" points="476.665,-62.678 475.634,-52.1333 469.864,-61.0189 476.665,-62.678"/>
</g>
<!-- c -->
<g id="node3" class="node"><title>c</title>
<ellipse fill="none" stroke="black" cx="187" cy="-106" rx="27" ry="18"/>
<text text-anchor="middle" x="187" y="-102.3" font-family="Times,serif" font-size="14.00">c</text>
</g>
<!-- b&#45;&gt;c -->
<g id="edge2" class="edge"><title>b&#45;&gt;c</title>
<path fill="none" stroke="black" d="M273.505,-165.925C257.92,-157.253 236.141,-144.588 218,-132 215.813,-130.482 213.583,-128.856 211.372,-127.188"/>
<polygon fill="black" stroke="black" points="213.102,-124.097 203.071,-120.687 208.786,-129.608 213.102,-124.097"/>
</g>
<!-- x1 -->
<g id="node7" class="node"><title>x1</title>
<ellipse fill="none" stroke="black" cx="294" cy="-106" rx="27" ry="18"/>
<text text-anchor="middle" x="294" y="-102.3" font-family="Times,serif" font-size="14.00">x1</text>
</g>
<!-- b&#45;&gt;x1 -->
<g id="edge10" class="edge"><title>b&#45;&gt;x1</title>
<path fill="none" stroke="black" d="M294,-159.697C294,-151.983 294,-142.712 294,-134.112"/>
<polygon fill="black" stroke="black" points="297.5,-134.104 294,-124.104 290.5,-134.104 297.5,-134.104"/>
</g>
<!-- x2 -->
<g id="node10" class="node"><title>x2</title>
<ellipse fill="none" stroke="black" cx="407" cy="-106" rx="27" ry="18"/>
<text text-anchor="middle" x="407" y="-102.3" font-family="Times,serif" font-size="14.00">x2</text>
</g>
<!-- b&#45;&gt;x2 -->
<g id="edge11" class="edge"><title>b&#45;&gt;x2</title>
<path fill="none" stroke="black" d="M313.553,-165.282C328.516,-156.273 349.634,-143.468 368,-132 371.684,-129.7 375.549,-127.257 379.355,-124.836"/>
<polygon fill="black" stroke="black" points="381.475,-127.634 388.014,-119.298 377.704,-121.737 381.475,-127.634"/>
</g>
<!-- z1 -->
<g id="node9" class="node"><title>z1</title>
<ellipse fill="none" stroke="black" cx="257" cy="-34" rx="27" ry="18"/>
<text text-anchor="middle" x="257" y="-30.3" font-family="Times,serif" font-size="14.00">z1</text>
</g>
<!-- c&#45;&gt;z1 -->
<g id="edge13" class="edge"><title>c&#45;&gt;z1</title>
<path fill="none" stroke="black" d="M201.504,-90.496C211.265,-80.7348 224.31,-67.6897 235.3,-56.6999"/>
<polygon fill="black" stroke="black" points="237.918,-59.0314 242.515,-49.4855 232.969,-54.0817 237.918,-59.0314"/>
</g>
<!-- y0 -->
<g id="node5" class="node"><title>y0</title>
<ellipse fill="none" stroke="black" cx="43" cy="-106" rx="27" ry="18"/>
<text text-anchor="middle" x="43" y="-102.3" font-family="Times,serif" font-size="14.00">y0</text>
</g>
<!-- x0&#45;&gt;y0 -->
<g id="edge3" class="edge"><title>x0&#45;&gt;y0</title>
<path fill="none" stroke="black" d="M100.43,-162.834C90.2501,-152.938 76.4761,-139.546 64.9694,-128.359"/>
<polygon fill="black" stroke="black" points="67.4055,-125.846 57.7957,-121.385 62.5259,-130.865 67.4055,-125.846"/>
</g>
<!-- z0 -->
<g id="node6" class="node"><title>z0</title>
<ellipse fill="none" stroke="black" cx="115" cy="-106" rx="27" ry="18"/>
<text text-anchor="middle" x="115" y="-102.3" font-family="Times,serif" font-size="14.00">z0</text>
</g>
<!-- x0&#45;&gt;z0 -->
<g id="edge4" class="edge"><title>x0&#45;&gt;z0</title>
<path fill="none" stroke="black" d="M115,-159.697C115,-151.983 115,-142.712 115,-134.112"/>
<polygon fill="black" stroke="black" points="118.5,-134.104 115,-124.104 111.5,-134.104 118.5,-134.104"/>
</g>
<!-- y1 -->
<g id="node8" class="node"><title>y1</title>
<ellipse fill="none" stroke="black" cx="329" cy="-34" rx="27" ry="18"/>
<text text-anchor="middle" x="329" y="-30.3" font-family="Times,serif" font-size="14.00">y1</text>
</g>
<!-- x1&#45;&gt;y1 -->
<g id="edge5" class="edge"><title>x1&#45;&gt;y1</title>
<path fill="none" stroke="black" d="M302.118,-88.7646C306.298,-80.4043 311.492,-70.0159 316.197,-60.6059"/>
<polygon fill="black" stroke="black" points="319.342,-62.1429 320.683,-51.6334 313.081,-59.0124 319.342,-62.1429"/>
</g>
<!-- x1&#45;&gt;z1 -->
<g id="edge6" class="edge"><title>x1&#45;&gt;z1</title>
<path fill="none" stroke="black" d="M285.418,-88.7646C280.935,-80.2831 275.349,-69.7144 270.319,-60.1974"/>
<polygon fill="black" stroke="black" points="273.302,-58.3527 265.535,-51.1473 267.114,-61.6239 273.302,-58.3527"/>
</g>
<!-- y2 -->
<g id="node11" class="node"><title>y2</title>
<ellipse fill="none" stroke="black" cx="407" cy="-34" rx="27" ry="18"/>
<text text-anchor="middle" x="407" y="-30.3" font-family="Times,serif" font-size="14.00">y2</text>
</g>
<!-- x2&#45;&gt;y2 -->
<g id="edge7" class="edge"><title>x2&#45;&gt;y2</title>
<path fill="none" stroke="black" d="M407,-87.6966C407,-79.9827 407,-70.7125 407,-62.1124"/>
<polygon fill="black" stroke="black" points="410.5,-62.1043 407,-52.1043 403.5,-62.1044 410.5,-62.1043"/>
</g>
<!-- x2&#45;&gt;z2 -->
<g id="edge8" class="edge"><title>x2&#45;&gt;z2</title>
<path fill="none" stroke="black" d="M421.57,-90.8345C431.75,-80.9376 445.524,-67.5462 457.031,-56.3591"/>
<polygon fill="black" stroke="black" points="459.474,-58.865 464.204,-49.3847 454.595,-53.8461 459.474,-58.865"/>
</g>
</g>
</svg>
