<?xml version="1.0" encoding="UTF-8" standalone="no"?>
<!DOCTYPE svg PUBLIC "-//W3C//DTD SVG 1.1//EN"
 "http://www.w3.org/Graphics/SVG/1.1/DTD/svg11.dtd">
<!-- Generated by graphviz version 2.38.0 (20140413.2041)
 -->
<!-- Title: G Pages: 1 -->
<svg width="212pt" height="348pt"
 viewBox="0.00 0.00 212.00 348.00" xmlns="http://www.w3.org/2000/svg" xmlns:xlink="http://www.w3.org/1999/xlink">
<g id="graph0" class="graph" transform="scale(1 1) rotate(0) translate(4 344)">
<title>G</title>
<polygon fill="white" stroke="none" points="-4,4 -4,-344 208,-344 208,4 -4,4"/>
<g id="clust1" class="cluster"><title>cluster_c0</title>
<polygon fill="none" stroke="black" points="8,-8 8,-276 118,-276 118,-8 8,-8"/>
</g>
<g id="clust2" class="cluster"><title>cluster_c1</title>
<polygon fill="none" stroke="black" points="126,-8 126,-276 196,-276 196,-8 126,-8"/>
</g>
<!-- a0 -->
<g id="node1" class="node"><title>a0</title>
<ellipse fill="none" stroke="black" cx="83" cy="-250" rx="27" ry="18"/>
<text text-anchor="middle" x="83" y="-246.3" font-family="Times,serif" font-size="14.00">a0</text>
</g>
<!-- a1 -->
<g id="node2" class="node"><title>a1</title>
<ellipse fill="none" stroke="black" cx="63" cy="-178" rx="27" ry="18"/>
<text text-anchor="middle" x="63" y="-174.3" font-family="Times,serif" font-size="14.00">a1</text>
</g>
<!-- a0&#45;&gt;a1 -->
<g id="edge1" class="edge"><title>a0&#45;&gt;a1</title>
<path fill="none" stroke="black" d="M78.1586,-232.055C75.8984,-224.145 73.1542,-214.54 70.6251,-205.688"/>
<polygon fill="black" stroke="black" points="73.9095,-204.443 67.7969,-195.789 67.1788,-206.366 73.9095,-204.443"/>
</g>
<!-- a2 -->
<g id="node3" class="node"><title>a2</title>
<ellipse fill="none" stroke="black" cx="43" cy="-106" rx="27" ry="18"/>
<text text-anchor="middle" x="43" y="-102.3" font-family="Times,serif" font-size="14.00">a2</text>
</g>
<!-- a1&#45;&gt;a2 -->
<g id="edge2" class="edge"><title>a1&#45;&gt;a2</title>
<path fill="none" stroke="black" d="M58.1586,-160.055C55.8984,-152.145 53.1542,-142.54 50.6251,-133.688"/>
<polygon fill="black" stroke="black" points="53.9095,-132.443 47.7969,-123.789 47.1788,-134.366 53.9095,-132.443"/>
</g>
<!-- a3 -->
<g id="node4" class="node"><title>a3</title>
<ellipse fill="none" stroke="black" cx="83" cy="-34" rx="27" ry="18"/>
<text text-anchor="middle" x="83" y="-30.3" font-family="Times,serif" font-size="14.00">a3</text>
</g>
<!-- a1&#45;&gt;a3 -->
<g id="edge9" class="edge"><title>a1&#45;&gt;a3</title>
<path fill="none" stroke="black" d="M69.2847,-160.072C72.8046,-149.792 76.8978,-136.317 79,-124 82.4911,-103.546 83.4217,-80.0879 83.5167,-62.3916"/>
<polygon fill="black" stroke="black" points="87.0161,-62.1846 83.4833,-52.1961 80.0162,-62.2076 87.0161,-62.1846"/>
</g>
<!-- a2&#45;&gt;a3 -->
<g id="edge3" class="edge"><title>a2&#45;&gt;a3</title>
<path fill="none" stroke="black" d="M52.2773,-88.7646C57.1744,-80.1948 63.2891,-69.494 68.7712,-59.9004"/>
<polygon fill="black" stroke="black" points="71.8504,-61.5663 73.773,-51.1473 65.7727,-58.0932 71.8504,-61.5663"/>
</g>
<!-- a3&#45;&gt;a0 -->
<g id="edge10" class="edge"><title>a3&#45;&gt;a0</title>
<path fill="none" stroke="black" d="M87.4197,-51.9862C94.4689,-81.4186 106.714,-143.759 99,-196 97.7024,-204.788 95.2564,-214.138 92.6602,-222.5"/>
<polygon fill="black" stroke="black" points="89.3009,-221.511 89.4861,-232.104 95.9473,-223.708 89.3009,-221.511"/>
</g>
<!-- b0 -->
<g id="node5" class="node"><title>b0</title>
<ellipse fill="none" stroke="black" cx="161" cy="-250" rx="27" ry="18"/>
<text text-anchor="middle" x="161" y="-246.3" font-family="Times,serif" font-size="14.00">b0</text>
</g>
<!-- b1 -->
<g id="node6" class="node"><title>b1</title>
<ellipse fill="none" stroke="black" cx="161" cy="-178" rx="27" ry="18"/>
<text text-anchor="middle" x="161" y="-174.3" font-family="Times,serif" font-size="14.00">b1</text>
</g>
<!-- b0&#45;&gt;b1 -->
<g id="edge4" class="edge"><title>b0&#45;&gt;b1</title>
<path fill="none" stroke="black" d="M161,-231.697C161,-223.983 161,-214.712 161,-206.112"/>
<polygon fill="black" stroke="black" points="164.5,-206.104 161,-196.104 157.5,-206.104 164.5,-206.104"/>
</g>
<!-- b2 -->
<g id="node7" class="node"><title>b2</title>
<ellipse fill="none" stroke="black" cx="161" cy="-106" rx="27" ry="18"/>
<text text-anchor="middle" x="161" y="-102.3" font-family="Times,serif" font-size="14.00">b2</text>
</g>
<!-- b1&#45;&gt;b2 -->
<g id="edge5" class="edge"><title>b1&#45;&gt;b2</title>
<path fill="none" stroke="black" d="M161,-159.697C161,-151.983 161,-142.712 161,-134.112"/>
<polygon fill="black" stroke="black" points="164.5,-134.104 161,-124.104 157.5,-134.104 164.5,-134.104"/>
</g>
<!-- b3 -->
<g id="node8" class="node"><title>b3</title>
<ellipse fill="none" stroke="black" cx="161" cy="-34" rx="27" ry="18"/>
<text text-anchor="middle" x="161" y="-30.3" font-family="Times,serif" font-size="14.00">b3</text>
</g>
<!-- b2&#45;&gt;b3 -->
<g id="edge6" class="edge"><title>b2&#45;&gt;b3</title>
<path fill="none" stroke="black" d="M161,-87.6966C161,-79.9827 161,-70.7125 161,-62.1124"/>
<polygon fill="black" stroke="black" points="164.5,-62.1043 161,-52.1043 157.5,-62.1044 164.5,-62.1043"/>
</g>
<!-- x -->
<g id="node9" class="node"><title>x</title>
<ellipse fill="none" stroke="black" cx="122" cy="-322" rx="27" ry="18"/>
<text text-anchor="middle" x="122" y="-318.3" font-family="Times,serif" font-size="14.00">x</text>
</g>
<!-- x&#45;&gt;a0 -->
<g id="edge7" class="edge"><title>x&#45;&gt;a0</title>
<path fill="none" stroke="black" d="M112.955,-304.765C108.18,-296.195 102.218,-285.494 96.8731,-275.9"/>
<polygon fill="black" stroke="black" points="99.9209,-274.18 91.9964,-267.147 93.8059,-277.586 99.9209,-274.18"/>
</g>
<!-- x&#45;&gt;b0 -->
<g id="edge8" class="edge"><title>x&#45;&gt;b0</title>
<path fill="none" stroke="black" d="M131.045,-304.765C135.82,-296.195 141.782,-285.494 147.127,-275.9"/>
<polygon fill="black" stroke="black" points="150.194,-277.586 152.004,-267.147 144.079,-274.18 150.194,-277.586"/>
</g>
</g>
</svg>
