<?xml version="1.0" encoding="UTF-8" standalone="no"?>
<!DOCTYPE svg PUBLIC "-//W3C//DTD SVG 1.1//EN"
 "http://www.w3.org/Graphics/SVG/1.1/DTD/svg11.dtd">
<!-- Generated by graphviz version 2.38.0 (20140413.2041)
 -->
<!-- Title: G Pages: 1 -->
<svg width="316pt" height="246pt"
 viewBox="0.00 0.00 316.00 246.00" xmlns="http://www.w3.org/2000/svg" xmlns:xlink="http://www.w3.org/1999/xlink">
<g id="graph0" class="graph" transform="scale(1 1) rotate(0) translate(4 242)">
<title>G</title>
<polygon fill="white" stroke="none" points="-4,4 -4,-242 312,-242 312,4 -4,4"/>
<g id="clust1" class="cluster"><title>cluster_0</title>
<polygon fill="none" stroke="#000000" points="158,-8 158,-155 300,-155 300,-8 158,-8"/>
<text text-anchor="middle" x="229" y="-139.8" font-family="Times,serif" font-size="14.00">hello world</text>
</g>
<g id="clust2" class="cluster"><title>cluster_1</title>
<polygon fill="none" stroke="purple" stroke-dasharray="5,2" points="8,-8 8,-230 150,-230 150,-8 8,-8"/>
<text text-anchor="middle" x="79" y="-214.8" font-family="Times,serif" font-size="14.00">MSDOT</text>
</g>
<!-- a -->
<g id="node1" class="node"><title>a</title>
<ellipse fill="none" stroke="black" cx="193" cy="-106" rx="27" ry="18"/>
<text text-anchor="middle" x="193" y="-102.3" font-family="Times,serif" font-size="14.00">a</text>
</g>
<!-- b -->
<g id="node2" class="node"><title>b</title>
<ellipse fill="none" stroke="black" cx="193" cy="-34" rx="27" ry="18"/>
<text text-anchor="middle" x="193" y="-30.3" font-family="Times,serif" font-size="14.00">b</text>
</g>
<!-- a&#45;&gt;b -->
<g id="edge1" class="edge"><title>a&#45;&gt;b</title>
<path fill="none" stroke="black" d="M193,-87.6966C193,-79.9827 193,-70.7125 193,-62.1124"/>
<polygon fill="black" stroke="black" points="196.5,-62.1043 193,-52.1043 189.5,-62.1044 196.5,-62.1043"/>
</g>
<!-- c -->
<g id="node3" class="node"><title>c</title>
<ellipse fill="none" stroke="black" cx="265" cy="-34" rx="27" ry="18"/>
<text text-anchor="middle" x="265" y="-30.3" font-family="Times,serif" font-size="14.00">c</text>
</g>
<!-- a&#45;&gt;c -->
<g id="edge2" class="edge"><title>a&#45;&gt;c</title>
<path fill="none" stroke="black" d="M207.57,-90.8345C217.75,-80.9376 231.524,-67.5462 243.031,-56.3591"/>
<polygon fill="black" stroke="black" points="245.474,-58.865 250.204,-49.3847 240.595,-53.8461 245.474,-58.865"/>
</g>
<!-- x -->
<g id="node4" class="node"><title>x</title>
<ellipse fill="none" stroke="black" cx="79" cy="-181" rx="27" ry="18"/>
<text text-anchor="middle" x="79" y="-177.3" font-family="Times,serif" font-size="14.00">x</text>
</g>
<!-- y -->
<g id="node5" class="node"><title>y</title>
<ellipse fill="none" stroke="black" cx="115" cy="-106" rx="27" ry="18"/>
<text text-anchor="middle" x="115" y="-102.3" font-family="Times,serif" font-size="14.00">y</text>
</g>
<!-- x&#45;&gt;y -->
<g id="edge3" class="edge"><title>x&#45;&gt;y</title>
<path fill="none" stroke="black" d="M86.9896,-163.799C91.5254,-154.601 97.3048,-142.882 102.434,-132.48"/>
<polygon fill="black" stroke="black" points="105.624,-133.925 106.908,-123.408 99.3462,-130.829 105.624,-133.925"/>
</g>
<!-- z -->
<g id="node6" class="node"><title>z</title>
<ellipse fill="none" stroke="black" cx="43" cy="-34" rx="27" ry="18"/>
<text text-anchor="middle" x="43" y="-30.3" font-family="Times,serif" font-size="14.00">z</text>
</g>
<!-- x&#45;&gt;z -->
<g id="edge4" class="edge"><title>x&#45;&gt;z</title>
<path fill="none" stroke="black" d="M74.7999,-163.083C68.6218,-138.199 57.0231,-91.482 49.6717,-61.8721"/>
<polygon fill="black" stroke="black" points="52.9799,-60.6713 47.1734,-51.8094 46.1862,-62.3581 52.9799,-60.6713"/>
</g>
<!-- y&#45;&gt;b -->
<g id="edge9" class="edge"><title>y&#45;&gt;b</title>
<path fill="none" stroke="black" d="M130.41,-91.1703C141.734,-81.0075 157.309,-67.0304 170.089,-55.5614"/>
<polygon fill="black" stroke="black" points="172.517,-58.085 177.622,-48.801 167.842,-52.8753 172.517,-58.085"/>
</g>
<!-- y&#45;&gt;z -->
<g id="edge5" class="edge"><title>y&#45;&gt;z</title>
<path fill="none" stroke="black" d="M100.43,-90.8345C90.2501,-80.9376 76.4761,-67.5462 64.9694,-56.3591"/>
<polygon fill="black" stroke="black" points="67.4055,-53.8461 57.7957,-49.3847 62.5259,-58.865 67.4055,-53.8461"/>
</g>
<!-- q -->
<g id="node7" class="node"><title>q</title>
<ellipse fill="none" stroke="black" cx="115" cy="-34" rx="27" ry="18"/>
<text text-anchor="middle" x="115" y="-30.3" font-family="Times,serif" font-size="14.00">q</text>
</g>
<!-- y&#45;&gt;q -->
<g id="edge6" class="edge"><title>y&#45;&gt;q</title>
<path fill="none" stroke="black" d="M115,-87.6966C115,-79.9827 115,-70.7125 115,-62.1124"/>
<polygon fill="black" stroke="black" points="118.5,-62.1043 115,-52.1043 111.5,-62.1044 118.5,-62.1043"/>
</g>
<!-- top -->
<g id="node8" class="node"><title>top</title>
<ellipse fill="none" stroke="black" cx="189" cy="-181" rx="27" ry="18"/>
<text text-anchor="middle" x="189" y="-177.3" font-family="Times,serif" font-size="14.00">top</text>
</g>
<!-- top&#45;&gt;a -->
<g id="edge7" class="edge"><title>top&#45;&gt;a</title>
<path fill="none" stroke="black" d="M189.948,-162.7C190.411,-154.245 190.98,-143.869 191.5,-134.373"/>
<polygon fill="black" stroke="black" points="195.006,-134.352 192.059,-124.176 188.017,-133.969 195.006,-134.352"/>
</g>
<!-- top&#45;&gt;y -->
<g id="edge8" class="edge"><title>top&#45;&gt;y</title>
<path fill="none" stroke="black" d="M170.114,-167.903C164.677,-164.059 158.897,-159.602 154,-155 146.218,-147.687 138.597,-138.812 132.186,-130.692"/>
<polygon fill="black" stroke="black" points="134.847,-128.41 125.986,-122.6 129.29,-132.667 134.847,-128.41"/>
</g>
</g>
</svg>
