<?xml version="1.0" encoding="UTF-8" standalone="no"?>
<!DOCTYPE svg PUBLIC "-//W3C//DTD SVG 1.1//EN"
 "http://www.w3.org/Graphics/SVG/1.1/DTD/svg11.dtd">
<!-- Generated by graphviz version 2.38.0 (20140413.2041)
 -->
<!-- Title: G Pages: 1 -->
<svg width="224pt" height="407pt"
 viewBox="0.00 0.00 224.00 407.00" xmlns="http://www.w3.org/2000/svg" xmlns:xlink="http://www.w3.org/1999/xlink">
<g id="graph0" class="graph" transform="scale(1 1) rotate(0) translate(4 403)">
<title>G</title>
<polygon fill="white" stroke="none" points="-4,4 -4,-403 220,-403 220,4 -4,4"/>
<g id="clust1" class="cluster"><title>cluster_0</title>
<polygon fill="lightgrey" stroke="lightgrey" points="8,-64 8,-355 98,-355 98,-64 8,-64"/>
<text text-anchor="middle" x="53" y="-339.8" font-family="Times,serif" font-size="14.00">process #1</text>
</g>
<g id="clust2" class="cluster"><title>cluster_1</title>
<polygon fill="none" stroke="blue" points="134,-64 134,-355 208,-355 208,-64 134,-64"/>
<text text-anchor="middle" x="171" y="-339.8" font-family="Times,serif" font-size="14.00">process #2</text>
</g>
<!-- a0 -->
<g id="node1" class="node"><title>a0</title>
<ellipse fill="white" stroke="white" cx="63" cy="-306" rx="27" ry="18"/>
<text text-anchor="middle" x="63" y="-302.3" font-family="Times,serif" font-size="14.00">a0</text>
</g>
<!-- a1 -->
<g id="node2" class="node"><title>a1</title>
<ellipse fill="white" stroke="white" cx="63" cy="-234" rx="27" ry="18"/>
<text text-anchor="middle" x="63" y="-230.3" font-family="Times,serif" font-size="14.00">a1</text>
</g>
<!-- a0&#45;&gt;a1 -->
<g id="edge1" class="edge"><title>a0&#45;&gt;a1</title>
<path fill="none" stroke="black" d="M63,-287.697C63,-279.983 63,-270.712 63,-262.112"/>
<polygon fill="black" stroke="black" points="66.5001,-262.104 63,-252.104 59.5001,-262.104 66.5001,-262.104"/>
</g>
<!-- a2 -->
<g id="node3" class="node"><title>a2</title>
<ellipse fill="white" stroke="white" cx="63" cy="-162" rx="27" ry="18"/>
<text text-anchor="middle" x="63" y="-158.3" font-family="Times,serif" font-size="14.00">a2</text>
</g>
<!-- a1&#45;&gt;a2 -->
<g id="edge2" class="edge"><title>a1&#45;&gt;a2</title>
<path fill="none" stroke="black" d="M63,-215.697C63,-207.983 63,-198.712 63,-190.112"/>
<polygon fill="black" stroke="black" points="66.5001,-190.104 63,-180.104 59.5001,-190.104 66.5001,-190.104"/>
</g>
<!-- b3 -->
<g id="node8" class="node"><title>b3</title>
<ellipse fill="lightgrey" stroke="black" cx="169" cy="-90" rx="27" ry="18"/>
<text text-anchor="middle" x="169" y="-86.3" font-family="Times,serif" font-size="14.00">b3</text>
</g>
<!-- a1&#45;&gt;b3 -->
<g id="edge9" class="edge"><title>a1&#45;&gt;b3</title>
<path fill="none" stroke="black" d="M74.5456,-217.533C93.1037,-192.672 129.69,-143.661 151.48,-114.47"/>
<polygon fill="black" stroke="black" points="154.291,-116.555 157.469,-106.448 148.682,-112.368 154.291,-116.555"/>
</g>
<!-- a3 -->
<g id="node4" class="node"><title>a3</title>
<ellipse fill="white" stroke="white" cx="63" cy="-90" rx="27" ry="18"/>
<text text-anchor="middle" x="63" y="-86.3" font-family="Times,serif" font-size="14.00">a3</text>
</g>
<!-- a2&#45;&gt;a3 -->
<g id="edge3" class="edge"><title>a2&#45;&gt;a3</title>
<path fill="none" stroke="black" d="M63,-143.697C63,-135.983 63,-126.712 63,-118.112"/>
<polygon fill="black" stroke="black" points="66.5001,-118.104 63,-108.104 59.5001,-118.104 66.5001,-118.104"/>
</g>
<!-- a3&#45;&gt;a0 -->
<g id="edge11" class="edge"><title>a3&#45;&gt;a0</title>
<path fill="none" stroke="black" d="M49.2496,-105.931C41.0392,-115.9 31.381,-129.753 27,-144 12.8916,-189.88 12.8916,-206.12 27,-252 30.2858,-262.685 36.5399,-273.149 42.9254,-281.919"/>
<polygon fill="black" stroke="black" points="40.354,-284.314 49.2496,-290.069 45.8844,-280.023 40.354,-284.314"/>
</g>
<!-- end -->
<g id="node10" class="node"><title>end</title>
<polygon fill="none" stroke="black" points="134,-36 98,-36 98,-0 134,-0 134,-36"/>
<polyline fill="none" stroke="black" points="110,-36 98,-24 "/>
<polyline fill="none" stroke="black" points="98,-12 110,-0 "/>
<polyline fill="none" stroke="black" points="122,-0 134,-12 "/>
<polyline fill="none" stroke="black" points="134,-24 122,-36 "/>
<text text-anchor="middle" x="116" y="-14.3" font-family="Times,serif" font-size="14.00">end</text>
</g>
<!-- a3&#45;&gt;end -->
<g id="edge12" class="edge"><title>a3&#45;&gt;end</title>
<path fill="none" stroke="black" d="M74.7624,-73.4647C81.1781,-64.9912 89.2837,-54.2857 96.6072,-44.6131"/>
<polygon fill="black" stroke="black" points="99.5336,-46.5462 102.78,-36.4609 93.9528,-42.3207 99.5336,-46.5462"/>
</g>
<!-- b0 -->
<g id="node5" class="node"><title>b0</title>
<ellipse fill="lightgrey" stroke="black" cx="171" cy="-306" rx="27" ry="18"/>
<text text-anchor="middle" x="171" y="-302.3" font-family="Times,serif" font-size="14.00">b0</text>
</g>
<!-- b1 -->
<g id="node6" class="node"><title>b1</title>
<ellipse fill="lightgrey" stroke="black" cx="172" cy="-234" rx="27" ry="18"/>
<text text-anchor="middle" x="172" y="-230.3" font-family="Times,serif" font-size="14.00">b1</text>
</g>
<!-- b0&#45;&gt;b1 -->
<g id="edge4" class="edge"><title>b0&#45;&gt;b1</title>
<path fill="none" stroke="black" d="M171.247,-287.697C171.357,-279.983 171.49,-270.712 171.613,-262.112"/>
<polygon fill="black" stroke="black" points="175.112,-262.153 171.756,-252.104 168.113,-262.053 175.112,-262.153"/>
</g>
<!-- b2 -->
<g id="node7" class="node"><title>b2</title>
<ellipse fill="lightgrey" stroke="black" cx="173" cy="-162" rx="27" ry="18"/>
<text text-anchor="middle" x="173" y="-158.3" font-family="Times,serif" font-size="14.00">b2</text>
</g>
<!-- b1&#45;&gt;b2 -->
<g id="edge5" class="edge"><title>b1&#45;&gt;b2</title>
<path fill="none" stroke="black" d="M172.247,-215.697C172.357,-207.983 172.49,-198.712 172.613,-190.112"/>
<polygon fill="black" stroke="black" points="176.112,-190.153 172.756,-180.104 169.113,-190.053 176.112,-190.153"/>
</g>
<!-- b2&#45;&gt;a3 -->
<g id="edge10" class="edge"><title>b2&#45;&gt;a3</title>
<path fill="none" stroke="black" d="M153.839,-148.807C136.331,-137.665 110.241,-121.062 90.5068,-108.504"/>
<polygon fill="black" stroke="black" points="92.2567,-105.469 81.941,-103.053 88.4985,-111.375 92.2567,-105.469"/>
</g>
<!-- b2&#45;&gt;b3 -->
<g id="edge6" class="edge"><title>b2&#45;&gt;b3</title>
<path fill="none" stroke="black" d="M172.011,-143.697C171.57,-135.983 171.041,-126.712 170.549,-118.112"/>
<polygon fill="black" stroke="black" points="174.042,-117.888 169.977,-108.104 167.054,-118.288 174.042,-117.888"/>
</g>
<!-- b3&#45;&gt;end -->
<g id="edge13" class="edge"><title>b3&#45;&gt;end</title>
<path fill="none" stroke="black" d="M157.238,-73.4647C150.822,-64.9912 142.716,-54.2857 135.393,-44.6131"/>
<polygon fill="black" stroke="black" points="138.047,-42.3207 129.22,-36.4609 132.466,-46.5462 138.047,-42.3207"/>
</g>
<!-- start -->
<g id="node9" class="node"><title>start</title>
<polygon fill="none" stroke="black" points="117,-399 80.4659,-381 117,-363 153.534,-381 117,-399"/>
<polyline fill="none" stroke="black" points="91.2304,-386.304 91.2304,-375.696 "/>
<polyline fill="none" stroke="black" points="106.236,-368.304 127.764,-368.304 "/>
<polyline fill="none" stroke="black" points="142.77,-375.696 142.77,-386.304 "/>
<polyline fill="none" stroke="black" points="127.764,-393.696 106.236,-393.696 "/>
<text text-anchor="middle" x="117" y="-377.3" font-family="Times,serif" font-size="14.00">start</text>
</g>
<!-- start&#45;&gt;a0 -->
<g id="edge7" class="edge"><title>start&#45;&gt;a0</title>
<path fill="none" stroke="black" d="M107.594,-367.284C100.153,-357.226 89.5554,-342.899 80.5579,-330.736"/>
<polygon fill="black" stroke="black" points="83.1181,-328.311 74.3572,-322.353 77.4904,-332.474 83.1181,-328.311"/>
</g>
<!-- start&#45;&gt;b0 -->
<g id="edge8" class="edge"><title>start&#45;&gt;b0</title>
<path fill="none" stroke="black" d="M126.406,-367.284C133.847,-357.226 144.445,-342.899 153.442,-330.736"/>
<polygon fill="black" stroke="black" points="156.51,-332.474 159.643,-322.353 150.882,-328.311 156.51,-332.474"/>
</g>
</g>
</svg>
