<?xml version="1.0" encoding="UTF-8" standalone="no"?>
<!DOCTYPE svg PUBLIC "-//W3C//DTD SVG 1.1//EN"
 "http://www.w3.org/Graphics/SVG/1.1/DTD/svg11.dtd">
<!-- Generated by graphviz version 2.38.0 (20140413.2041)
 -->
<!-- Title: G Pages: 1 -->
<svg width="242pt" height="348pt"
 viewBox="0.00 0.00 242.00 348.00" xmlns="http://www.w3.org/2000/svg" xmlns:xlink="http://www.w3.org/1999/xlink">
<g id="graph0" class="graph" transform="scale(1 1) rotate(0) translate(4 344)">
<title>G</title>
<polygon fill="white" stroke="none" points="-4,4 -4,-344 238,-344 238,4 -4,4"/>
<g id="clust1" class="cluster"><title>cluster_c0</title>
<polygon fill="none" stroke="black" points="8,-8 8,-276 78,-276 78,-8 8,-8"/>
</g>
<g id="clust2" class="cluster"><title>cluster_c1</title>
<polygon fill="none" stroke="black" points="156,-8 156,-276 226,-276 226,-8 156,-8"/>
</g>
<!-- a0 -->
<g id="node1" class="node"><title>a0</title>
<ellipse fill="none" stroke="black" cx="43" cy="-250" rx="27" ry="18"/>
<text text-anchor="middle" x="43" y="-246.3" font-family="Times,serif" font-size="14.00">a0</text>
</g>
<!-- a1 -->
<g id="node2" class="node"><title>a1</title>
<ellipse fill="none" stroke="black" cx="43" cy="-178" rx="27" ry="18"/>
<text text-anchor="middle" x="43" y="-174.3" font-family="Times,serif" font-size="14.00">a1</text>
</g>
<!-- a0&#45;&gt;a1 -->
<g id="edge1" class="edge"><title>a0&#45;&gt;a1</title>
<path fill="none" stroke="black" d="M43,-231.697C43,-223.983 43,-214.712 43,-206.112"/>
<polygon fill="black" stroke="black" points="46.5001,-206.104 43,-196.104 39.5001,-206.104 46.5001,-206.104"/>
</g>
<!-- a2 -->
<g id="node3" class="node"><title>a2</title>
<ellipse fill="none" stroke="black" cx="43" cy="-106" rx="27" ry="18"/>
<text text-anchor="middle" x="43" y="-102.3" font-family="Times,serif" font-size="14.00">a2</text>
</g>
<!-- a1&#45;&gt;a2 -->
<g id="edge2" class="edge"><title>a1&#45;&gt;a2</title>
<path fill="none" stroke="black" d="M43,-159.697C43,-151.983 43,-142.712 43,-134.112"/>
<polygon fill="black" stroke="black" points="46.5001,-134.104 43,-124.104 39.5001,-134.104 46.5001,-134.104"/>
</g>
<!-- b3 -->
<g id="node8" class="node"><title>b3</title>
<ellipse fill="none" stroke="black" cx="191" cy="-34" rx="27" ry="18"/>
<text text-anchor="middle" x="191" y="-30.3" font-family="Times,serif" font-size="14.00">b3</text>
</g>
<!-- a1&#45;&gt;b3 -->
<g id="edge9" class="edge"><title>a1&#45;&gt;b3</title>
<path fill="none" stroke="black" d="M57.7319,-162.865C83.7494,-137.903 137.975,-85.875 168.632,-56.4609"/>
<polygon fill="black" stroke="black" points="171.094,-58.9491 175.887,-49.5002 166.248,-53.898 171.094,-58.9491"/>
</g>
<!-- a3 -->
<g id="node4" class="node"><title>a3</title>
<ellipse fill="none" stroke="black" cx="43" cy="-34" rx="27" ry="18"/>
<text text-anchor="middle" x="43" y="-30.3" font-family="Times,serif" font-size="14.00">a3</text>
</g>
<!-- a2&#45;&gt;a3 -->
<g id="edge3" class="edge"><title>a2&#45;&gt;a3</title>
<path fill="none" stroke="black" d="M43,-87.6966C43,-79.9827 43,-70.7125 43,-62.1124"/>
<polygon fill="black" stroke="black" points="46.5001,-62.1043 43,-52.1043 39.5001,-62.1044 46.5001,-62.1043"/>
</g>
<!-- b0 -->
<g id="node5" class="node"><title>b0</title>
<ellipse fill="none" stroke="black" cx="191" cy="-250" rx="27" ry="18"/>
<text text-anchor="middle" x="191" y="-246.3" font-family="Times,serif" font-size="14.00">b0</text>
</g>
<!-- b1 -->
<g id="node6" class="node"><title>b1</title>
<ellipse fill="none" stroke="black" cx="191" cy="-178" rx="27" ry="18"/>
<text text-anchor="middle" x="191" y="-174.3" font-family="Times,serif" font-size="14.00">b1</text>
</g>
<!-- b0&#45;&gt;b1 -->
<g id="edge4" class="edge"><title>b0&#45;&gt;b1</title>
<path fill="none" stroke="black" d="M191,-231.697C191,-223.983 191,-214.712 191,-206.112"/>
<polygon fill="black" stroke="black" points="194.5,-206.104 191,-196.104 187.5,-206.104 194.5,-206.104"/>
</g>
<!-- b1&#45;&gt;a3 -->
<g id="edge10" class="edge"><title>b1&#45;&gt;a3</title>
<path fill="none" stroke="black" d="M176.268,-162.865C150.251,-137.903 96.0246,-85.875 65.3677,-56.4609"/>
<polygon fill="black" stroke="black" points="67.7519,-53.898 58.1129,-49.5002 62.9056,-58.9491 67.7519,-53.898"/>
</g>
<!-- b2 -->
<g id="node7" class="node"><title>b2</title>
<ellipse fill="none" stroke="black" cx="191" cy="-106" rx="27" ry="18"/>
<text text-anchor="middle" x="191" y="-102.3" font-family="Times,serif" font-size="14.00">b2</text>
</g>
<!-- b1&#45;&gt;b2 -->
<g id="edge5" class="edge"><title>b1&#45;&gt;b2</title>
<path fill="none" stroke="black" d="M191,-159.697C191,-151.983 191,-142.712 191,-134.112"/>
<polygon fill="black" stroke="black" points="194.5,-134.104 191,-124.104 187.5,-134.104 194.5,-134.104"/>
</g>
<!-- b2&#45;&gt;b3 -->
<g id="edge6" class="edge"><title>b2&#45;&gt;b3</title>
<path fill="none" stroke="black" d="M191,-87.6966C191,-79.9827 191,-70.7125 191,-62.1124"/>
<polygon fill="black" stroke="black" points="194.5,-62.1043 191,-52.1043 187.5,-62.1044 194.5,-62.1043"/>
</g>
<!-- x -->
<g id="node9" class="node"><title>x</title>
<ellipse fill="none" stroke="black" cx="117" cy="-322" rx="27" ry="18"/>
<text text-anchor="middle" x="117" y="-318.3" font-family="Times,serif" font-size="14.00">x</text>
</g>
<!-- x&#45;&gt;a0 -->
<g id="edge7" class="edge"><title>x&#45;&gt;a0</title>
<path fill="none" stroke="black" d="M102.025,-306.834C91.4933,-296.872 77.2183,-283.369 65.345,-272.137"/>
<polygon fill="black" stroke="black" points="67.6227,-269.474 57.9527,-265.144 62.8122,-274.559 67.6227,-269.474"/>
</g>
<!-- x&#45;&gt;b0 -->
<g id="edge8" class="edge"><title>x&#45;&gt;b0</title>
<path fill="none" stroke="black" d="M131.975,-306.834C142.507,-296.872 156.782,-283.369 168.655,-272.137"/>
<polygon fill="black" stroke="black" points="171.188,-274.559 176.047,-265.144 166.377,-269.474 171.188,-274.559"/>
</g>
</g>
</svg>
