<?xml version="1.0" encoding="UTF-8" standalone="no"?>
<!DOCTYPE svg PUBLIC "-//W3C//DTD SVG 1.1//EN"
 "http://www.w3.org/Graphics/SVG/1.1/DTD/svg11.dtd">
<!-- Generated by graphviz version 2.38.0 (20140413.2041)
 -->
<!-- Title: G Pages: 1 -->
<svg width="576pt" height="44pt"
 viewBox="0.00 0.00 575.50 44.00" xmlns="http://www.w3.org/2000/svg" xmlns:xlink="http://www.w3.org/1999/xlink">
<g id="graph0" class="graph" transform="scale(1 1) rotate(0) translate(4 40)">
<title>G</title>
<polygon fill="white" stroke="none" points="-4,4 -4,-40 571.5,-40 571.5,4 -4,4"/>
<!-- 1 -->
<g id="node1" class="node"><title>1</title>
<polygon fill="#9e0142" stroke="#9e0142" points="54,-36 0,-36 0,-0 54,-0 54,-36"/>
<text text-anchor="middle" x="27" y="-14.3" font-family="Times,serif" font-size="14.00">1</text>
</g>
<!-- 4 -->
<g id="node2" class="node"><title>4</title>
<polygon fill="#fdae61" stroke="#fdae61" points="126,-36 72,-36 72,-0 126,-0 126,-36"/>
<text text-anchor="middle" x="99" y="-14.3" font-family="Times,serif" font-size="14.00">4</text>
</g>
<!-- 8 -->
<g id="node3" class="node"><title>8</title>
<polygon fill="#abdda4" stroke="#abdda4" points="198,-36 144,-36 144,-0 198,-0 198,-36"/>
<text text-anchor="middle" x="171" y="-14.3" font-family="Times,serif" font-size="14.00">8</text>
</g>
<!-- 11 -->
<g id="node4" class="node"><title>11</title>
<polygon fill="#5e4fa2" stroke="#5e4fa2" points="270,-36 216,-36 216,-0 270,-0 270,-36"/>
<text text-anchor="middle" x="243" y="-14.3" font-family="Times,serif" font-size="14.00">11</text>
</g>
<!-- ylgn7 -->
<g id="node5" class="node"><title>ylgn7</title>
<polygon fill="#41ab5d" stroke="#41ab5d" points="342,-36 288,-36 288,-0 342,-0 342,-36"/>
<text text-anchor="middle" x="315" y="-14.3" font-family="Times,serif" font-size="14.00">ylgn7</text>
</g>
<!-- X11 -->
<g id="node6" class="node"><title>X11</title>
<polygon fill="#d8bfd8" stroke="#d8bfd8" points="414,-36 360,-36 360,-0 414,-0 414,-36"/>
<text text-anchor="middle" x="387" y="-14.3" font-family="Times,serif" font-size="14.00">X11</text>
</g>
<!-- indigo -->
<g id="node7" class="node"><title>indigo</title>
<polygon fill="#4b0082" stroke="#4b0082" points="486,-36 432,-36 432,-0 486,-0 486,-36"/>
<text text-anchor="middle" x="459" y="-14.3" font-family="Times,serif" font-size="14.00">indigo</text>
</g>
<!-- magenta -->
<g id="node8" class="node"><title>magenta</title>
<polygon fill="magenta" stroke="magenta" points="567.5,-36 504.5,-36 504.5,-0 567.5,-0 567.5,-36"/>
<text text-anchor="middle" x="536" y="-14.3" font-family="Times,serif" font-size="14.00">magenta</text>
</g>
</g>
</svg>
