<?xml version="1.0" encoding="UTF-8" standalone="no"?>
<!DOCTYPE svg PUBLIC "-//W3C//DTD SVG 1.1//EN"
 "http://www.w3.org/Graphics/SVG/1.1/DTD/svg11.dtd">
<!-- Generated by graphviz version 2.38.0 (20140413.2041)
 -->
<!-- Title: G Pages: 1 -->
<svg width="350pt" height="116pt"
 viewBox="0.00 0.00 350.00 116.00" xmlns="http://www.w3.org/2000/svg" xmlns:xlink="http://www.w3.org/1999/xlink">
<g id="graph0" class="graph" transform="scale(1 1) rotate(0) translate(4 112)">
<title>G</title>
<polygon fill="white" stroke="none" points="-4,4 -4,-112 346,-112 346,4 -4,4"/>
<!-- abc -->
<g id="node1" class="node"><title>abc</title>
<ellipse fill="green" stroke="green" cx="27" cy="-90" rx="27" ry="18"/>
<text text-anchor="middle" x="27" y="-86.3" font-family="Times,serif" font-size="14.00">abc</text>
</g>
<!-- def -->
<g id="node2" class="node"><title>def</title>
<ellipse fill="#abcc28" stroke="#abcc28" cx="27" cy="-18" rx="27" ry="18"/>
<text text-anchor="middle" x="27" y="-14.3" font-family="Times,serif" font-size="14.00">def</text>
</g>
<!-- abc&#45;&gt;def -->
<g id="edge1" class="edge"><title>abc&#45;&gt;def</title>
<path fill="none" stroke="red" d="M25,-71.6966C25,-63.9827 25,-54.7125 25,-46.1124"/>
<path fill="none" stroke="blue" d="M27,-71.6966C27,-63.9827 27,-54.7125 27,-46.1124"/>
<path fill="none" stroke="#00ff00" d="M29,-71.6966C29,-63.9827 29,-54.7125 29,-46.1124"/>
<polygon fill="red" stroke="red" points="30.5001,-46.1043 27,-36.1043 23.5001,-46.1044 30.5001,-46.1043"/>
</g>
<!-- ghi -->
<g id="node3" class="node"><title>ghi</title>
<ellipse fill="#ff0000" stroke="#ff0000" cx="99" cy="-90" rx="27" ry="18"/>
<text text-anchor="middle" x="99" y="-86.3" font-family="Times,serif" font-size="14.00">ghi</text>
</g>
<!-- kl -->
<g id="node4" class="node"><title>kl</title>
<ellipse fill="#ff0000" fill-opacity="0.498039" stroke="#ff0000" stroke-opacity="0.498039" cx="171" cy="-90" rx="27" ry="18"/>
<text text-anchor="middle" x="171" y="-86.3" font-family="Times,serif" font-size="14.00">kl</text>
</g>
<!-- mno -->
<g id="node5" class="node"><title>mno</title>
<ellipse fill="yellow" stroke="yellow" cx="243" cy="-90" rx="27" ry="18"/>
<text text-anchor="middle" x="243" y="-86.3" font-family="Times,serif" font-size="14.00" fill="#ff0000">mno</text>
</g>
<!-- pqr -->
<g id="node6" class="node"><title>pqr</title>
<ellipse fill="yellow" stroke="yellow" cx="315" cy="-90" rx="27" ry="18"/>
<text text-anchor="middle" x="315" y="-86.3" font-family="Times,serif" font-size="14.00" fill="#ff0000">mno</text>
</g>
</g>
</svg>
