<?xml version="1.0" encoding="UTF-8" standalone="no"?>
<!DOCTYPE svg PUBLIC "-//W3C//DTD SVG 1.1//EN"
 "http://www.w3.org/Graphics/SVG/1.1/DTD/svg11.dtd">
<!-- Generated by graphviz version 2.38.0 (20140413.2041)
 -->
<!-- Title: G Pages: 1 -->
<svg width="111pt" height="236pt"
 viewBox="0.00 0.00 111.00 236.00" xmlns="http://www.w3.org/2000/svg" xmlns:xlink="http://www.w3.org/1999/xlink">
<g id="graph0" class="graph" transform="scale(1 1) rotate(0) translate(4 232)">
<title>G</title>
<polygon fill="white" stroke="none" points="-4,4 -4,-232 107,-232 107,4 -4,4"/>
<g id="clust1" class="cluster"><title>clusterA</title>
<polygon fill="lightgray" stroke="blue" points="9,-8 9,-149 95,-149 95,-8 9,-8"/>
</g>
<!-- ddddddd -->
<g id="node1" class="node"><title>ddddddd</title>
<polygon fill="blue" stroke="orange" points="84,-228 20,-228 20,-192 84,-192 84,-228"/>
<text text-anchor="middle" x="52" y="-206.3" font-family="Times,serif" font-size="14.00" fill="yellow">ddddddd</text>
</g>
<!-- eeeee -->
<g id="node2" class="node"><title>eeeee</title>
<polygon fill="yellow" stroke="yellow" points="79,-133 25,-133 25,-97 79,-97 79,-133"/>
<polygon fill="none" stroke="yellow" points="83,-137 21,-137 21,-93 83,-93 83,-137"/>
<polygon fill="none" stroke="yellow" points="87,-141 17,-141 17,-89 87,-89 87,-141"/>
<text text-anchor="middle" x="52" y="-111.3" font-family="Times,serif" font-size="14.00" fill="red">eeeee</text>
</g>
<!-- ddddddd&#45;&gt;eeeee -->
<g id="edge2" class="edge"><title>ddddddd&#45;&gt;eeeee</title>
<path fill="none" stroke="lightblue" d="M52,-191.942C52,-180.576 52,-165.224 52,-151.297"/>
<polygon fill="lightblue" stroke="lightblue" points="55.5001,-151.014 52,-141.014 48.5001,-151.014 55.5001,-151.014"/>
<text text-anchor="middle" x="63" y="-162.8" font-family="Times,serif" font-size="14.00" fill="green">flue</text>
<text text-anchor="middle" x="26" y="-144.814" font-family="Times,serif" font-size="14.00" fill="chocolate">headlabel</text>
</g>
<!-- ee -->
<g id="node3" class="node"><title>ee</title>
<polygon fill="lightgrey" stroke="black" points="79,-52 25,-52 25,-16 79,-16 79,-52"/>
<text text-anchor="middle" x="52" y="-30.3" font-family="Times,serif" font-size="14.00">ee</text>
</g>
<!-- eeeee&#45;&gt;ee -->
<g id="edge1" class="edge"><title>eeeee&#45;&gt;ee</title>
<path fill="none" stroke="black" d="M52,-88.5691C52,-80.1963 52,-70.8534 52,-62.3443"/>
<polygon fill="black" stroke="black" points="55.5001,-62.1479 52,-52.1479 48.5001,-62.1479 55.5001,-62.1479"/>
</g>
</g>
</svg>
