<?xml version="1.0" encoding="UTF-8" standalone="no"?>
<!DOCTYPE svg PUBLIC "-//W3C//DTD SVG 1.1//EN"
 "http://www.w3.org/Graphics/SVG/1.1/DTD/svg11.dtd">
<!-- Generated by graphviz version 2.38.0 (20140413.2041)
 -->
<!-- Title: G Pages: 1 -->
<svg width="324pt" height="228pt"
 viewBox="0.00 0.00 324.00 228.00" xmlns="http://www.w3.org/2000/svg" xmlns:xlink="http://www.w3.org/1999/xlink">
<g id="graph0" class="graph" transform="scale(1 1) rotate(0) translate(4 224)">
<title>G</title>
<polygon fill="white" stroke="none" points="-4,4 -4,-224 320,-224 320,4 -4,4"/>
<g id="clust1" class="cluster"><title>clusterA</title>
<polygon fill="none" stroke="black" points="8,-8 8,-204 78,-204 78,-8 8,-8"/>
</g>
<g id="clust2" class="cluster"><title>clusterB</title>
<polygon fill="none" stroke="black" points="86,-72 86,-212 308,-212 308,-72 86,-72"/>
</g>
<g id="clust3" class="cluster"><title>clusterC</title>
<polygon fill="none" stroke="black" points="230,-80 230,-204 300,-204 300,-80 230,-80"/>
</g>
<!-- a1 -->
<g id="node1" class="node"><title>a1</title>
<ellipse fill="none" stroke="black" cx="43" cy="-178" rx="27" ry="18"/>
<text text-anchor="middle" x="43" y="-174.3" font-family="Times,serif" font-size="14.00">a1</text>
</g>
<!-- a2 -->
<g id="node2" class="node"><title>a2</title>
<ellipse fill="none" stroke="black" cx="43" cy="-106" rx="27" ry="18"/>
<text text-anchor="middle" x="43" y="-102.3" font-family="Times,serif" font-size="14.00">a2</text>
</g>
<!-- a1&#45;&gt;a2 -->
<g id="edge1" class="edge"><title>a1&#45;&gt;a2</title>
<path fill="none" stroke="black" d="M43,-159.697C43,-151.983 43,-142.712 43,-134.112"/>
<polygon fill="black" stroke="black" points="46.5001,-134.104 43,-124.104 39.5001,-134.104 46.5001,-134.104"/>
</g>
<!-- b2 -->
<g id="node7" class="node"><title>b2</title>
<ellipse fill="none" stroke="black" cx="121" cy="-106" rx="27" ry="18"/>
<text text-anchor="middle" x="121" y="-102.3" font-family="Times,serif" font-size="14.00">b2</text>
</g>
<!-- a1&#45;&gt;b2 -->
<g id="edge7" class="edge"><title>a1&#45;&gt;b2</title>
<path fill="none" stroke="black" d="M58.4103,-163.17C64.2576,-157.923 71.2382,-151.658 78.3821,-145.247"/>
<polygon fill="black" stroke="black" points="81.0474,-147.558 86.1521,-138.274 76.372,-142.348 81.0474,-147.558"/>
</g>
<!-- a3 -->
<g id="node3" class="node"><title>a3</title>
<ellipse fill="none" stroke="black" cx="43" cy="-34" rx="27" ry="18"/>
<text text-anchor="middle" x="43" y="-30.3" font-family="Times,serif" font-size="14.00">a3</text>
</g>
<!-- a2&#45;&gt;a3 -->
<g id="edge2" class="edge"><title>a2&#45;&gt;a3</title>
<path fill="none" stroke="black" d="M43,-87.6966C43,-79.9827 43,-70.7125 43,-62.1124"/>
<polygon fill="black" stroke="black" points="46.5001,-62.1043 43,-52.1043 39.5001,-62.1044 46.5001,-62.1043"/>
</g>
<!-- c1 -->
<g id="node4" class="node"><title>c1</title>
<ellipse fill="none" stroke="black" cx="265" cy="-178" rx="27" ry="18"/>
<text text-anchor="middle" x="265" y="-174.3" font-family="Times,serif" font-size="14.00">c1</text>
</g>
<!-- c2 -->
<g id="node5" class="node"><title>c2</title>
<ellipse fill="none" stroke="black" cx="265" cy="-106" rx="27" ry="18"/>
<text text-anchor="middle" x="265" y="-102.3" font-family="Times,serif" font-size="14.00">c2</text>
</g>
<!-- c1&#45;&gt;c2 -->
<g id="edge3" class="edge"><title>c1&#45;&gt;c2</title>
<path fill="none" stroke="black" d="M265,-159.697C265,-151.983 265,-142.712 265,-134.112"/>
<polygon fill="black" stroke="black" points="268.5,-134.104 265,-124.104 261.5,-134.104 268.5,-134.104"/>
</g>
<!-- c2&#45;&gt;a3 -->
<g id="edge8" class="edge"><title>c2&#45;&gt;a3</title>
<path fill="none" stroke="black" d="M245.173,-80.2245C241.734,-77.0747 237.975,-74.1922 234,-72 185.401,-45.1977 120.5,-37.5587 80.2469,-35.5247"/>
<polygon fill="black" stroke="black" points="80.2114,-32.0203 70.0753,-35.104 79.9221,-39.0144 80.2114,-32.0203"/>
</g>
<!-- b1 -->
<g id="node6" class="node"><title>b1</title>
<ellipse fill="none" stroke="black" cx="193" cy="-178" rx="27" ry="18"/>
<text text-anchor="middle" x="193" y="-174.3" font-family="Times,serif" font-size="14.00">b1</text>
</g>
<!-- b1&#45;&gt;c2 -->
<g id="edge6" class="edge"><title>b1&#45;&gt;c2</title>
<path fill="none" stroke="black" d="M207.57,-162.834C217.75,-152.938 231.524,-139.546 243.031,-128.359"/>
<polygon fill="black" stroke="black" points="245.474,-130.865 250.204,-121.385 240.595,-125.846 245.474,-130.865"/>
</g>
<!-- b1&#45;&gt;b2 -->
<g id="edge4" class="edge"><title>b1&#45;&gt;b2</title>
<path fill="none" stroke="black" d="M178.43,-162.834C168.25,-152.938 154.476,-139.546 142.969,-128.359"/>
<polygon fill="black" stroke="black" points="145.405,-125.846 135.796,-121.385 140.526,-130.865 145.405,-125.846"/>
</g>
<!-- b3 -->
<g id="node8" class="node"><title>b3</title>
<ellipse fill="none" stroke="black" cx="193" cy="-106" rx="27" ry="18"/>
<text text-anchor="middle" x="193" y="-102.3" font-family="Times,serif" font-size="14.00">b3</text>
</g>
<!-- b1&#45;&gt;b3 -->
<g id="edge5" class="edge"><title>b1&#45;&gt;b3</title>
<path fill="none" stroke="black" d="M193,-159.697C193,-151.983 193,-142.712 193,-134.112"/>
<polygon fill="black" stroke="black" points="196.5,-134.104 193,-124.104 189.5,-134.104 196.5,-134.104"/>
</g>
<!-- b3&#45;&gt;a3 -->
<g id="edge9" class="edge"><title>b3&#45;&gt;a3</title>
<path fill="none" stroke="black" d="M157,-72C132.573,-57.757 101.957,-48.2094 78.6049,-42.3857"/>
<polygon fill="black" stroke="black" points="88.4235,-43.9425 78,-42.0417 84.963,-50.0278 88.4235,-43.9425"/>
</g>
</g>
</svg>
