<?xml version="1.0" encoding="UTF-8" standalone="no"?>
<!DOCTYPE svg PUBLIC "-//W3C//DTD SVG 1.1//EN"
 "http://www.w3.org/Graphics/SVG/1.1/DTD/svg11.dtd">
<!-- Generated by graphviz version 2.38.0 (20140413.2041)
 -->
<!-- Title: %3 Pages: 1 -->
<svg width="493pt" height="452pt"
 viewBox="0.00 0.00 493.00 452.00" xmlns="http://www.w3.org/2000/svg" xmlns:xlink="http://www.w3.org/1999/xlink">
<g id="graph0" class="graph" transform="scale(1 1) rotate(0) translate(4 448)">
<title>%3</title>
<polygon fill="white" stroke="none" points="-4,4 -4,-448 489,-448 489,4 -4,4"/>
<!-- 9 -->
<g id="node1" class="node"><title>9</title>
<polygon fill="none" stroke="black" points="485,-444 0,-444 0,-360 485,-360 485,-444"/>
<polygon fill="none" stroke="black" points="0.5,-423 0.5,-444 485.5,-444 485.5,-423 0.5,-423"/>
<text text-anchor="start" x="205.5" y="-429.8" font-family="Courier,monospace" font-size="14.00">&quot;Courier&quot;</text>
<polygon fill="none" stroke="black" points="0.5,-402 0.5,-423 485.5,-423 485.5,-402 0.5,-402"/>
<text text-anchor="start" x="123" y="-408.8" font-family="Courier,monospace" font-size="14.00">&quot;ABCDEFGHIJLKLMNOPQRSTUVWXYZ&quot;</text>
<polygon fill="none" stroke="black" points="0.5,-381 0.5,-402 485.5,-402 485.5,-381 0.5,-381"/>
<text text-anchor="start" x="123" y="-387.8" font-family="Courier,monospace" font-size="14.00">&quot;abcdefghijlklmnopqrstuvwxyz&quot;</text>
<polygon fill="none" stroke="black" points="0.5,-360 0.5,-381 485.5,-381 485.5,-360 0.5,-360"/>
<text text-anchor="start" x="3.5" y="-366.8" font-family="Courier,monospace" font-size="14.00">&quot;ABCDEFGHIJLKLMNOPQRSTUVWXYZ\nabcdefghijlklmnopqrstuvwxyz&quot;</text>
</g>
<!-- 10 -->
<g id="node2" class="node"><title>10</title>
<polygon fill="none" stroke="black" points="485,-324 0,-324 0,-240 485,-240 485,-324"/>
<polygon fill="none" stroke="black" points="0.5,-303 0.5,-324 485.5,-324 485.5,-303 0.5,-303"/>
<text text-anchor="start" x="185" y="-309.8" font-family="Courier,monospace" font-weight="bold" font-size="14.00">&quot;Courier&#45;Bold&quot;</text>
<polygon fill="none" stroke="black" points="0.5,-282 0.5,-303 485.5,-303 485.5,-282 0.5,-282"/>
<text text-anchor="start" x="123" y="-288.8" font-family="Courier,monospace" font-weight="bold" font-size="14.00">&quot;ABCDEFGHIJLKLMNOPQRSTUVWXYZ&quot;</text>
<polygon fill="none" stroke="black" points="0.5,-261 0.5,-282 485.5,-282 485.5,-261 0.5,-261"/>
<text text-anchor="start" x="123" y="-267.8" font-family="Courier,monospace" font-weight="bold" font-size="14.00">&quot;abcdefghijlklmnopqrstuvwxyz&quot;</text>
<polygon fill="none" stroke="black" points="0.5,-240 0.5,-261 485.5,-261 485.5,-240 0.5,-240"/>
<text text-anchor="start" x="3.5" y="-246.8" font-family="Courier,monospace" font-weight="bold" font-size="14.00">&quot;ABCDEFGHIJLKLMNOPQRSTUVWXYZ\nabcdefghijlklmnopqrstuvwxyz&quot;</text>
</g>
<!-- 9&#45;&gt;10 -->
<g id="edge1" class="edge"><title>9&#45;&gt;10</title>
<path fill="none" stroke="black" d="M242.5,-359.729C242.5,-351.508 242.5,-342.78 242.5,-334.271"/>
<polygon fill="black" stroke="black" points="246,-334.048 242.5,-324.048 239,-334.048 246,-334.048"/>
</g>
<!-- 11 -->
<g id="node3" class="node"><title>11</title>
<polygon fill="none" stroke="black" points="485,-204 0,-204 0,-120 485,-120 485,-204"/>
<polygon fill="none" stroke="black" points="0.5,-183 0.5,-204 485.5,-204 485.5,-183 0.5,-183"/>
<text text-anchor="start" x="156" y="-189.8" font-family="Courier,monospace" font-weight="bold" font-style="oblique" font-size="14.00">&quot;Courier&#45;BoldOblique&quot;</text>
<polygon fill="none" stroke="black" points="0.5,-162 0.5,-183 485.5,-183 485.5,-162 0.5,-162"/>
<text text-anchor="start" x="123" y="-168.8" font-family="Courier,monospace" font-weight="bold" font-style="oblique" font-size="14.00">&quot;ABCDEFGHIJLKLMNOPQRSTUVWXYZ&quot;</text>
<polygon fill="none" stroke="black" points="0.5,-141 0.5,-162 485.5,-162 485.5,-141 0.5,-141"/>
<text text-anchor="start" x="123" y="-147.8" font-family="Courier,monospace" font-weight="bold" font-style="oblique" font-size="14.00">&quot;abcdefghijlklmnopqrstuvwxyz&quot;</text>
<polygon fill="none" stroke="black" points="0.5,-120 0.5,-141 485.5,-141 485.5,-120 0.5,-120"/>
<text text-anchor="start" x="3.5" y="-126.8" font-family="Courier,monospace" font-weight="bold" font-style="oblique" font-size="14.00">&quot;ABCDEFGHIJLKLMNOPQRSTUVWXYZ\nabcdefghijlklmnopqrstuvwxyz&quot;</text>
</g>
<!-- 10&#45;&gt;11 -->
<g id="edge2" class="edge"><title>10&#45;&gt;11</title>
<path fill="none" stroke="black" d="M242.5,-239.729C242.5,-231.508 242.5,-222.78 242.5,-214.271"/>
<polygon fill="black" stroke="black" points="246,-214.048 242.5,-204.048 239,-214.048 246,-214.048"/>
</g>
<!-- 12 -->
<g id="node4" class="node"><title>12</title>
<polygon fill="none" stroke="black" points="485,-84 0,-84 0,-0 485,-0 485,-84"/>
<polygon fill="none" stroke="black" points="0.5,-63 0.5,-84 485.5,-84 485.5,-63 0.5,-63"/>
<text text-anchor="start" x="172.5" y="-69.8" font-family="Courier,monospace" font-style="oblique" font-size="14.00">&quot;Courier&#45;Oblique&quot;</text>
<polygon fill="none" stroke="black" points="0.5,-42 0.5,-63 485.5,-63 485.5,-42 0.5,-42"/>
<text text-anchor="start" x="123" y="-48.8" font-family="Courier,monospace" font-style="oblique" font-size="14.00">&quot;ABCDEFGHIJLKLMNOPQRSTUVWXYZ&quot;</text>
<polygon fill="none" stroke="black" points="0.5,-21 0.5,-42 485.5,-42 485.5,-21 0.5,-21"/>
<text text-anchor="start" x="123" y="-27.8" font-family="Courier,monospace" font-style="oblique" font-size="14.00">&quot;abcdefghijlklmnopqrstuvwxyz&quot;</text>
<polygon fill="none" stroke="black" points="0.5,7.10543e-15 0.5,-21 485.5,-21 485.5,7.10543e-15 0.5,7.10543e-15"/>
<text text-anchor="start" x="3.5" y="-6.8" font-family="Courier,monospace" font-style="oblique" font-size="14.00">&quot;ABCDEFGHIJLKLMNOPQRSTUVWXYZ\nabcdefghijlklmnopqrstuvwxyz&quot;</text>
</g>
<!-- 11&#45;&gt;12 -->
<g id="edge3" class="edge"><title>11&#45;&gt;12</title>
<path fill="none" stroke="black" d="M242.5,-119.729C242.5,-111.508 242.5,-102.78 242.5,-94.2708"/>
<polygon fill="black" stroke="black" points="246,-94.0481 242.5,-84.0481 239,-94.0481 246,-94.0481"/>
</g>
</g>
</svg>
