<?xml version="1.0" encoding="UTF-8" standalone="no"?>
<!DOCTYPE svg PUBLIC "-//W3C//DTD SVG 1.1//EN"
 "http://www.w3.org/Graphics/SVG/1.1/DTD/svg11.dtd">
<!-- Generated by graphviz version 2.38.0 (20140413.2041)
 -->
<!-- Title: unix Pages: 1 -->
<svg width="432pt" height="394pt"
 viewBox="0.00 0.00 432.00 393.52" xmlns="http://www.w3.org/2000/svg" xmlns:xlink="http://www.w3.org/1999/xlink">
<g id="graph0" class="graph" transform="scale(0.327384 0.327384) rotate(0) translate(4 1198)">
<title>unix</title>
<polygon fill="white" stroke="none" points="-4,4 -4,-1198 1315.55,-1198 1315.55,4 -4,4"/>
<text text-anchor="middle" x="655.776" y="-55.2" font-family="Helvetica,sans-Serif" font-size="36.00">Object Oriented Graphs</text>
<text text-anchor="middle" x="655.776" y="-15.2" font-family="Helvetica,sans-Serif" font-size="36.00">Stephen North, 3/19/93</text>
<!-- 5th Edition -->
<g id="node1" class="node"><title>5th Edition</title>
<polygon fill="#ee8262" stroke="#ee8262" points="886.988,-1171.81 896.671,-1187.3 866.101,-1194.13 796.465,-1186.82 740.442,-1172.29 744.343,-1160.82 793.226,-1155.51 839.565,-1154.55 866.234,-1159.19 886.988,-1171.81"/>
<text text-anchor="middle" x="825.559" y="-1167.68" font-family="Helvetica,sans-Serif" font-size="14.00">5th Edition</text>
</g>
<!-- 6th Edition -->
<g id="node2" class="node"><title>6th Edition</title>
<polygon fill="deepskyblue" stroke="deepskyblue" points="727.806,-1104.7 641.735,-1112.64 529.164,-1093.96 554.326,-1074.95 659.767,-1080.64 727.806,-1104.7"/>
<text text-anchor="middle" x="622.559" y="-1089.68" font-family="Helvetica,sans-Serif" font-size="14.00">6th Edition</text>
</g>
<!-- 5th Edition&#45;&gt;6th Edition -->
<g id="edge1" class="edge"><title>5th Edition&#45;&gt;6th Edition</title>
<path fill="none" stroke="black" d="M787.377,-1156.08C755.672,-1144.21 710.245,-1127.21 675.108,-1114.05"/>
<polygon fill="black" stroke="black" points="676.083,-1110.68 665.49,-1110.45 673.628,-1117.23 676.083,-1110.68"/>
</g>
<!-- PWB 1.0 -->
<g id="node3" class="node"><title>PWB 1.0</title>
<polygon fill="#eeb422" stroke="#eeb422" points="979.655,-1111.66 940.774,-1111.5 907.553,-1100.59 899.454,-1085.31 921.363,-1074.9 960.446,-1075.44 993.666,-1086.36 1001.56,-1101.25 979.655,-1111.66"/>
<text text-anchor="middle" x="950.559" y="-1089.68" font-family="Helvetica,sans-Serif" font-size="14.00">PWB 1.0</text>
</g>
<!-- 5th Edition&#45;&gt;PWB 1.0 -->
<g id="edge2" class="edge"><title>5th Edition&#45;&gt;PWB 1.0</title>
<path fill="none" stroke="black" d="M849.071,-1156.08C869.21,-1143.84 898.342,-1126.13 920.233,-1112.82"/>
<polygon fill="black" stroke="black" points="922.1,-1115.78 928.826,-1107.59 918.463,-1109.8 922.1,-1115.78"/>
</g>
<!-- LSX -->
<g id="node4" class="node"><title>LSX</title>
<polygon fill="#eec591" stroke="#eec591" points="879.9,-1007.64 866.487,-1017.27 841.481,-1022.48 821.992,-1022.17 808.852,-1014.43 799.92,-1000.85 804.786,-989.106 831.339,-987.212 865.277,-995.587 879.9,-1007.64"/>
<text text-anchor="middle" x="835.559" y="-1002.6" font-family="Helvetica,sans-Serif" font-size="14.00">LSX</text>
</g>
<!-- 6th Edition&#45;&gt;LSX -->
<g id="edge3" class="edge"><title>6th Edition&#45;&gt;LSX</title>
<path fill="none" stroke="black" d="M662.188,-1081.29C695.086,-1071.53 742.757,-1056.07 782.559,-1038 791.141,-1034.1 800.134,-1029.22 808.225,-1024.51"/>
<polygon fill="black" stroke="black" points="810.118,-1027.46 816.906,-1019.32 806.527,-1021.45 810.118,-1027.46"/>
</g>
<!-- 1 BSD -->
<g id="node5" class="node"><title>1 BSD</title>
<polygon fill="#ffd700" stroke="#ffd700" points="248.626,-1011.25 236.782,-1025.59 195.224,-1024.06 161.449,-1009.16 167.093,-993.46 198.942,-986.829 230.8,-993.779 248.626,-1011.25"/>
<text text-anchor="middle" x="205.559" y="-1002.6" font-family="Helvetica,sans-Serif" font-size="14.00">1 BSD</text>
</g>
<!-- 6th Edition&#45;&gt;1 BSD -->
<g id="edge4" class="edge"><title>6th Edition&#45;&gt;1 BSD</title>
<path fill="none" stroke="black" d="M543.071,-1083.26C475.718,-1074.6 376.922,-1059.65 292.559,-1038 278.578,-1034.41 263.658,-1029.54 250.193,-1024.74"/>
<polygon fill="black" stroke="black" points="251.274,-1021.41 240.68,-1021.28 248.88,-1027.99 251.274,-1021.41"/>
</g>
<!-- Mini Unix -->
<g id="node6" class="node"><title>Mini Unix</title>
<polygon fill="greenyellow" stroke="greenyellow" points="586.481,-1024.3 477.362,-1022.91 505.29,-988.339 609.105,-989.667 586.481,-1024.3"/>
<text text-anchor="middle" x="544.559" y="-1002.6" font-family="Helvetica,sans-Serif" font-size="14.00">Mini Unix</text>
</g>
<!-- 6th Edition&#45;&gt;Mini Unix -->
<g id="edge5" class="edge"><title>6th Edition&#45;&gt;Mini Unix</title>
<path fill="none" stroke="black" d="M608.973,-1077.56C597.302,-1064.83 580.253,-1046.23 566.626,-1031.37"/>
<polygon fill="black" stroke="black" points="569.197,-1029 559.859,-1023.99 564.038,-1033.73 569.197,-1029"/>
</g>
<!-- Wollongong -->
<g id="node7" class="node"><title>Wollongong</title>
<polygon fill="darkseagreen" stroke="darkseagreen" points="716.096,-1025.7 634.637,-1014.05 645.663,-991.694 738.342,-991.654 773.06,-1008.42 716.096,-1025.7"/>
<text text-anchor="middle" x="701.559" y="-1002.6" font-family="Helvetica,sans-Serif" font-size="14.00">Wollongong</text>
</g>
<!-- 6th Edition&#45;&gt;Wollongong -->
<g id="edge6" class="edge"><title>6th Edition&#45;&gt;Wollongong</title>
<path fill="none" stroke="black" d="M634.903,-1079.08C647.172,-1065.87 666.216,-1045.37 680.811,-1029.65"/>
<polygon fill="black" stroke="black" points="683.739,-1031.64 687.979,-1021.93 678.609,-1026.88 683.739,-1031.64"/>
</g>
<!-- Interdata -->
<g id="node8" class="node"><title>Interdata</title>
<polygon fill="#1e90ff" stroke="#1e90ff" points="386.794,-1031.49 301.392,-996.327 396.801,-990.371 437.252,-1007.03 386.794,-1031.49"/>
<text text-anchor="middle" x="380.559" y="-1002.6" font-family="Helvetica,sans-Serif" font-size="14.00">Interdata</text>
</g>
<!-- 6th Edition&#45;&gt;Interdata -->
<g id="edge7" class="edge"><title>6th Edition&#45;&gt;Interdata</title>
<path fill="none" stroke="black" d="M576.186,-1076.07C531.876,-1060.5 465.663,-1037.22 422.787,-1022.15"/>
<polygon fill="black" stroke="black" points="423.809,-1018.8 413.214,-1018.78 421.488,-1025.4 423.809,-1018.8"/>
</g>
<!-- PWB 1.2 -->
<g id="node28" class="node"><title>PWB 1.2</title>
<polygon fill="cyan" stroke="cyan" points="970.786,-1035.8 926.067,-1031.92 897.57,-1001.28 908.976,-974.42 953.916,-979.045 995.34,-1000.87 1001.26,-1020.8 970.786,-1035.8"/>
<text text-anchor="middle" x="950.559" y="-1002.6" font-family="Helvetica,sans-Serif" font-size="14.00">PWB 1.2</text>
</g>
<!-- PWB 1.0&#45;&gt;PWB 1.2 -->
<g id="edge31" class="edge"><title>PWB 1.0&#45;&gt;PWB 1.2</title>
<path fill="none" stroke="black" d="M950.559,-1075.16C950.559,-1066.26 950.559,-1055.03 950.559,-1044.28"/>
<polygon fill="black" stroke="black" points="954.06,-1044.21 950.559,-1034.21 947.06,-1044.21 954.06,-1044.21"/>
</g>
<!-- USG 1.0 -->
<g id="node29" class="node"><title>USG 1.0</title>
<polygon fill="blue" stroke="blue" points="1142.72,-1031.5 1021.79,-1000.44 1116.13,-990.283 1165.6,-1002.99 1142.72,-1031.5"/>
<text text-anchor="middle" x="1111.56" y="-1002.6" font-family="Helvetica,sans-Serif" font-size="14.00">USG 1.0</text>
</g>
<!-- PWB 1.0&#45;&gt;USG 1.0 -->
<g id="edge32" class="edge"><title>PWB 1.0&#45;&gt;USG 1.0</title>
<path fill="none" stroke="black" d="M974.316,-1079.82C1002.85,-1064.74 1050.75,-1039.44 1081.74,-1023.06"/>
<polygon fill="black" stroke="black" points="1083.57,-1026.05 1090.78,-1018.28 1080.3,-1019.86 1083.57,-1026.05"/>
</g>
<!-- 2 BSD -->
<g id="node19" class="node"><title>2 BSD</title>
<polygon fill="blanchedalmond" stroke="blanchedalmond" points="128.776,-574.997 93.8209,-574.32 75.2645,-561.409 87.051,-545.862 120.275,-539.263 149.962,-546.76 153.766,-562.752 128.776,-574.997"/>
<text text-anchor="middle" x="115.559" y="-554.209" font-family="Helvetica,sans-Serif" font-size="14.00">2 BSD</text>
</g>
<!-- 1 BSD&#45;&gt;2 BSD -->
<g id="edge19" class="edge"><title>1 BSD&#45;&gt;2 BSD</title>
<path fill="none" stroke="black" d="M194.166,-987.591C174.568,-955.369 136.559,-884.423 136.559,-818.839 136.559,-818.839 136.559,-818.839 136.559,-725.044 136.559,-675.155 127.124,-617.5 120.902,-584.907"/>
<polygon fill="black" stroke="black" points="124.291,-584.002 118.933,-574.862 117.422,-585.348 124.291,-584.002"/>
</g>
<!-- Unix/TS 3.0 -->
<g id="node9" class="node"><title>Unix/TS 3.0</title>
<polygon fill="#eed2ee" stroke="#eed2ee" points="956.131,-741.495 927.806,-752.56 850.503,-744.654 769.505,-722.41 757.289,-705.731 821.011,-704.388 898.315,-712.294 943.915,-724.817 956.131,-741.495"/>
<text text-anchor="middle" x="865.559" y="-722.344" font-family="Helvetica,sans-Serif" font-size="14.00">Unix/TS 3.0</text>
</g>
<!-- Interdata&#45;&gt;Unix/TS 3.0 -->
<g id="edge8" class="edge"><title>Interdata&#45;&gt;Unix/TS 3.0</title>
<path fill="none" stroke="black" d="M403.616,-993.097C452.264,-967.183 568.733,-904.326 663.559,-846.727 703.548,-822.437 711.411,-812.976 751.559,-788.952 776.868,-773.808 806.116,-757.957 828.649,-746.086"/>
<polygon fill="black" stroke="black" points="830.321,-749.161 837.553,-741.418 827.071,-742.961 830.321,-749.161"/>
</g>
<!-- PWB 2.0 -->
<g id="node10" class="node"><title>PWB 2.0</title>
<polygon fill="#a2cd5a" stroke="#a2cd5a" points="873.613,-927.431 806.687,-931.062 715.087,-910.045 727.506,-893.908 812.979,-894.533 867.486,-907.039 873.613,-927.431"/>
<text text-anchor="middle" x="800.559" y="-906.97" font-family="Helvetica,sans-Serif" font-size="14.00">PWB 2.0</text>
</g>
<!-- Interdata&#45;&gt;PWB 2.0 -->
<g id="edge9" class="edge"><title>Interdata&#45;&gt;PWB 2.0</title>
<path fill="none" stroke="black" d="M407.135,-994.612C424.398,-988.023 447.522,-979.86 468.559,-974.613 570.229,-949.254 599.066,-960.405 701.559,-938.613 719.765,-934.742 739.603,-929.542 756.707,-924.743"/>
<polygon fill="black" stroke="black" points="757.768,-928.08 766.428,-921.977 755.852,-921.347 757.768,-928.08"/>
</g>
<!-- 7th Edition -->
<g id="node11" class="node"><title>7th Edition</title>
<polygon fill="chocolate" stroke="chocolate" points="428.118,-918.485 408.247,-929.878 377.801,-933.934 345.913,-927.373 325.717,-913.362 328.011,-899.392 352.872,-891.462 388.309,-890.867 418.29,-896.106 432.318,-905.838 428.118,-918.485"/>
<text text-anchor="middle" x="380.559" y="-906.97" font-family="Helvetica,sans-Serif" font-size="14.00">7th Edition</text>
</g>
<!-- Interdata&#45;&gt;7th Edition -->
<g id="edge10" class="edge"><title>Interdata&#45;&gt;7th Edition</title>
<path fill="none" stroke="black" d="M380.559,-991.084C380.559,-978.577 380.559,-959.91 380.559,-943.816"/>
<polygon fill="black" stroke="black" points="384.06,-943.703 380.559,-933.703 377.06,-943.703 384.06,-943.703"/>
</g>
<!-- TS 4.0 -->
<g id="node38" class="node"><title>TS 4.0</title>
<polygon fill="crimson" stroke="crimson" points="988.862,-579.138 967.957,-583.918 929.33,-578.763 893.329,-568.778 871.567,-556.579 865.445,-542.951 875.162,-531.9 902.602,-530.784 942.876,-543.165 978.466,-563.115 988.862,-579.138"/>
<text text-anchor="middle" x="921.559" y="-554.209" font-family="Helvetica,sans-Serif" font-size="14.00">TS 4.0</text>
</g>
<!-- Unix/TS 3.0&#45;&gt;TS 4.0 -->
<g id="edge44" class="edge"><title>Unix/TS 3.0&#45;&gt;TS 4.0</title>
<path fill="none" stroke="black" d="M870.828,-709.414C880.492,-680.742 901.14,-619.487 912.897,-584.608"/>
<polygon fill="black" stroke="black" points="916.222,-585.701 916.1,-575.107 909.589,-583.465 916.222,-585.701"/>
</g>
<!-- PWB 2.0&#45;&gt;Unix/TS 3.0 -->
<g id="edge42" class="edge"><title>PWB 2.0&#45;&gt;Unix/TS 3.0</title>
<path fill="none" stroke="black" d="M787.701,-893.976C769.818,-870.113 741.749,-823.799 761.559,-788.952 773.907,-767.232 797.221,-752.333 818.65,-742.604"/>
<polygon fill="black" stroke="black" points="820.171,-745.76 827.998,-738.619 817.426,-739.321 820.171,-745.76"/>
</g>
<!-- 8th Edition -->
<g id="node12" class="node"><title>8th Edition</title>
<polygon fill="#00c5cd" stroke="#00c5cd" points="682.793,-480.816 632.566,-466.196 667.165,-436.728 811.714,-478.801 682.793,-480.816"/>
<text text-anchor="middle" x="698.559" y="-461.935" font-family="Helvetica,sans-Serif" font-size="14.00">8th Edition</text>
</g>
<!-- 7th Edition&#45;&gt;8th Edition -->
<g id="edge11" class="edge"><title>7th Edition&#45;&gt;8th Edition</title>
<path fill="none" stroke="black" d="M423.995,-900.037C493.705,-884.394 623.508,-854.437 630.559,-846.727 666.907,-806.983 649.559,-780.902 649.559,-727.044 649.559,-727.044 649.559,-727.044 649.559,-641.053 649.559,-585.185 673.149,-522.876 687.593,-489.96"/>
<polygon fill="black" stroke="black" points="690.836,-491.284 691.746,-480.728 684.452,-488.412 690.836,-491.284"/>
</g>
<!-- 32V -->
<g id="node13" class="node"><title>32V</title>
<polygon fill="#4f94cd" stroke="#4f94cd" points="617.299,-822.91 620.149,-839.472 571.217,-836.438 523.296,-819.4 528.417,-804.491 559.682,-798.163 587.856,-804.001 617.299,-822.91"/>
<text text-anchor="middle" x="572.559" y="-814.139" font-family="Helvetica,sans-Serif" font-size="14.00">32V</text>
</g>
<!-- 7th Edition&#45;&gt;32V -->
<g id="edge12" class="edge"><title>7th Edition&#45;&gt;32V</title>
<path fill="none" stroke="black" d="M412.004,-894.997C439.184,-882.292 479.506,-863.386 514.559,-846.727 523.378,-842.536 532.935,-837.956 541.698,-833.742"/>
<polygon fill="black" stroke="black" points="543.332,-836.84 550.823,-829.348 540.295,-830.533 543.332,-836.84"/>
</g>
<!-- V7M -->
<g id="node14" class="node"><title>V7M</title>
<polygon fill="navy" stroke="navy" points="103.179,-732.404 96.9207,-742.559 73.3365,-746.406 50.2984,-745.702 33.2204,-739.484 17.6689,-726.138 6.19825,-709.528 12.054,-699.227 41.8638,-702.396 80.8553,-716.592 103.179,-732.404"/>
<text text-anchor="middle" x="51.5595" y="-722.344" font-family="Helvetica,sans-Serif" font-size="14.00">V7M</text>
</g>
<!-- 7th Edition&#45;&gt;V7M -->
<g id="edge13" class="edge"><title>7th Edition&#45;&gt;V7M</title>
<path fill="none" stroke="black" d="M327.269,-901.426C282.7,-892.799 218.706,-876.266 169.559,-846.727 129.443,-822.615 93.2714,-781.73 71.8511,-754.559"/>
<polygon fill="black" stroke="black" points="74.5786,-752.365 65.689,-746.6 69.0438,-756.65 74.5786,-752.365"/>
</g>
<!-- Ultrix&#45;11 -->
<g id="node15" class="node"><title>Ultrix&#45;11</title>
<polygon fill="#698b69" stroke="#698b69" points="178.841,-364.965 180.468,-375.895 158.067,-385.154 130.32,-389.909 103.959,-388.075 76.5329,-379.482 54.6507,-367.143 56.7975,-356.476 92.2806,-352.259 143.679,-355.834 178.841,-364.965"/>
<text text-anchor="middle" x="117.559" y="-367.819" font-family="Helvetica,sans-Serif" font-size="14.00">Ultrix&#45;11</text>
</g>
<!-- 7th Edition&#45;&gt;Ultrix&#45;11 -->
<g id="edge14" class="edge"><title>7th Edition&#45;&gt;Ultrix&#45;11</title>
<path fill="none" stroke="black" d="M326.752,-905.1C286.399,-898.703 233.07,-883.382 202.559,-846.727 168.103,-805.332 183.559,-780.902 183.559,-727.044 183.559,-727.044 183.559,-727.044 183.559,-556.909 183.559,-497.703 153.024,-433.73 133.493,-398.867"/>
<polygon fill="black" stroke="black" points="136.323,-396.766 128.31,-389.834 130.251,-400.25 136.323,-396.766"/>
</g>
<!-- Xenix -->
<g id="node16" class="node"><title>Xenix</title>
<polygon fill="coral" stroke="coral" points="305.034,-836.383 273.547,-838.136 236.668,-829.83 216,-816.33 218.047,-801.884 241.61,-794.954 278.489,-803.26 307.081,-821.937 305.034,-836.383"/>
<text text-anchor="middle" x="259.559" y="-814.139" font-family="Helvetica,sans-Serif" font-size="14.00">Xenix</text>
</g>
<!-- 7th Edition&#45;&gt;Xenix -->
<g id="edge15" class="edge"><title>7th Edition&#45;&gt;Xenix</title>
<path fill="none" stroke="black" d="M356.073,-891.289C337.946,-877.681 313.037,-858.983 293.065,-843.991"/>
<polygon fill="black" stroke="black" points="294.941,-841.022 284.842,-837.818 290.738,-846.621 294.941,-841.022"/>
</g>
<!-- UniPlus+ -->
<g id="node17" class="node"><title>UniPlus+</title>
<polygon fill="#a2cd5a" stroke="#a2cd5a" points="483.851,-832.06 452.361,-842.659 372.834,-828.807 325.48,-806.696 366.283,-798.737 435.146,-802.598 472.961,-813.316 483.851,-832.06"/>
<text text-anchor="middle" x="415.559" y="-814.139" font-family="Helvetica,sans-Serif" font-size="14.00">UniPlus+</text>
</g>
<!-- 7th Edition&#45;&gt;UniPlus+ -->
<g id="edge16" class="edge"><title>7th Edition&#45;&gt;UniPlus+</title>
<path fill="none" stroke="black" d="M387.812,-890.85C392.952,-877.508 399.915,-859.439 405.58,-844.739"/>
<polygon fill="black" stroke="black" points="408.926,-845.789 409.255,-835.199 402.394,-843.272 408.926,-845.789"/>
</g>
<!-- 9th Edition -->
<g id="node18" class="node"><title>9th Edition</title>
<polygon fill="#cd5b45" stroke="#cd5b45" points="777.277,-385.33 739.195,-395.101 690.837,-385.802 671.638,-365.748 699.075,-351.352 748.123,-351.558 780.771,-365.743 777.277,-385.33"/>
<text text-anchor="middle" x="729.559" y="-367.819" font-family="Helvetica,sans-Serif" font-size="14.00">9th Edition</text>
</g>
<!-- 8th Edition&#45;&gt;9th Edition -->
<g id="edge18" class="edge"><title>8th Edition&#45;&gt;9th Edition</title>
<path fill="none" stroke="black" d="M704.39,-447.309C708.694,-434.521 714.653,-416.812 719.693,-401.837"/>
<polygon fill="black" stroke="black" points="723.131,-402.594 723.004,-392 716.497,-400.361 723.131,-402.594"/>
</g>
<!-- 3 BSD -->
<g id="node22" class="node"><title>3 BSD</title>
<polygon fill="lemonchiffon" stroke="lemonchiffon" points="603.12,-721.922 602.562,-733.364 584.433,-742.01 552.431,-744.044 520.013,-738.885 503.548,-729.138 510.557,-718.723 535.137,-711.104 564.675,-708.678 589.119,-712.568 603.12,-721.922"/>
<text text-anchor="middle" x="556.559" y="-722.344" font-family="Helvetica,sans-Serif" font-size="14.00">3 BSD</text>
</g>
<!-- 32V&#45;&gt;3 BSD -->
<g id="edge23" class="edge"><title>32V&#45;&gt;3 BSD</title>
<path fill="none" stroke="black" d="M569.55,-799.949C567.248,-787.031 564.029,-768.962 561.371,-754.044"/>
<polygon fill="black" stroke="black" points="564.755,-753.089 559.555,-743.858 557.864,-754.317 564.755,-753.089"/>
</g>
<!-- V7M&#45;&gt;Ultrix&#45;11 -->
<g id="edge17" class="edge"><title>V7M&#45;&gt;Ultrix&#45;11</title>
<path fill="none" stroke="black" d="M51.5595,-705.823C51.8869,-670.725 54.1182,-594.052 66.5595,-530.847 75.98,-482.988 95.1709,-429.359 107.138,-398.408"/>
<polygon fill="black" stroke="black" points="110.505,-399.41 110.895,-388.822 103.988,-396.855 110.505,-399.41"/>
</g>
<!-- 2.8 BSD -->
<g id="node20" class="node"><title>2.8 BSD</title>
<polygon fill="#b0e2ff" stroke="#b0e2ff" points="276.498,-482.835 221.936,-467.321 270.038,-445.426 345.766,-466.959 276.498,-482.835"/>
<text text-anchor="middle" x="278.559" y="-461.935" font-family="Helvetica,sans-Serif" font-size="14.00">2.8 BSD</text>
</g>
<!-- 2 BSD&#45;&gt;2.8 BSD -->
<g id="edge20" class="edge"><title>2 BSD&#45;&gt;2.8 BSD</title>
<path fill="none" stroke="black" d="M139.261,-543.782C168.388,-527.651 217.806,-500.282 249.278,-482.852"/>
<polygon fill="black" stroke="black" points="251.375,-485.692 258.427,-477.785 247.983,-479.568 251.375,-485.692"/>
</g>
<!-- 2.8 BSD&#45;&gt;Ultrix&#45;11 -->
<g id="edge21" class="edge"><title>2.8 BSD&#45;&gt;Ultrix&#45;11</title>
<path fill="none" stroke="black" d="M255.834,-451.633C229.01,-436.286 184.1,-410.59 152.764,-392.661"/>
<polygon fill="black" stroke="black" points="154.33,-389.525 143.912,-387.596 150.853,-395.601 154.33,-389.525"/>
</g>
<!-- 2.9 BSD -->
<g id="node21" class="node"><title>2.9 BSD</title>
<polygon fill="#76eec6" stroke="#76eec6" points="250.466,-386.111 215.912,-358.436 288.9,-342.709 358.96,-398.821 250.466,-386.111"/>
<text text-anchor="middle" x="278.559" y="-367.819" font-family="Helvetica,sans-Serif" font-size="14.00">2.9 BSD</text>
</g>
<!-- 2.8 BSD&#45;&gt;2.9 BSD -->
<g id="edge22" class="edge"><title>2.8 BSD&#45;&gt;2.9 BSD</title>
<path fill="none" stroke="black" d="M278.559,-447.74C278.559,-434.32 278.559,-415.289 278.559,-399.727"/>
<polygon fill="black" stroke="black" points="282.06,-399.619 278.559,-389.619 275.06,-399.619 282.06,-399.619"/>
</g>
<!-- 4 BSD -->
<g id="node23" class="node"><title>4 BSD</title>
<polygon fill="#ff7f00" stroke="#ff7f00" points="550.597,-654.619 495.702,-658.457 466.867,-639.625 485.735,-620.889 573.896,-636.676 550.597,-654.619"/>
<text text-anchor="middle" x="514.559" y="-638.353" font-family="Helvetica,sans-Serif" font-size="14.00">4 BSD</text>
</g>
<!-- 3 BSD&#45;&gt;4 BSD -->
<g id="edge24" class="edge"><title>3 BSD&#45;&gt;4 BSD</title>
<path fill="none" stroke="black" d="M548.66,-709.622C542.327,-697.259 533.348,-679.731 526.193,-665.764"/>
<polygon fill="black" stroke="black" points="529.261,-664.075 521.586,-656.771 523.031,-667.267 529.261,-664.075"/>
</g>
<!-- 4.1 BSD -->
<g id="node24" class="node"><title>4.1 BSD</title>
<polygon fill="#ffffe0" stroke="#ffffe0" points="512.44,-578.328 438.28,-561.458 463.68,-534.987 559.838,-556.862 512.44,-578.328"/>
<text text-anchor="middle" x="493.559" y="-554.209" font-family="Helvetica,sans-Serif" font-size="14.00">4.1 BSD</text>
</g>
<!-- 4 BSD&#45;&gt;4.1 BSD -->
<g id="edge25" class="edge"><title>4 BSD&#45;&gt;4.1 BSD</title>
<path fill="none" stroke="black" d="M510.51,-625.215C507.595,-613.811 503.596,-598.169 500.215,-584.942"/>
<polygon fill="black" stroke="black" points="503.536,-583.8 497.668,-574.979 496.754,-585.534 503.536,-583.8"/>
</g>
<!-- 4.1 BSD&#45;&gt;8th Edition -->
<g id="edge28" class="edge"><title>4.1 BSD&#45;&gt;8th Edition</title>
<path fill="none" stroke="black" d="M516.281,-546.903C551.968,-531.188 621.421,-500.604 663.533,-482.059"/>
<polygon fill="black" stroke="black" points="665.106,-485.191 672.847,-477.958 662.285,-478.785 665.106,-485.191"/>
</g>
<!-- 4.1 BSD&#45;&gt;2.8 BSD -->
<g id="edge27" class="edge"><title>4.1 BSD&#45;&gt;2.8 BSD</title>
<path fill="none" stroke="black" d="M457.088,-541.595C416.554,-524.576 351.635,-497.318 312.257,-480.784"/>
<polygon fill="black" stroke="black" points="313.401,-477.469 302.826,-476.824 310.691,-483.923 313.401,-477.469"/>
</g>
<!-- 4.2 BSD -->
<g id="node25" class="node"><title>4.2 BSD</title>
<polygon fill="#68228b" stroke="#68228b" points="567.906,-488.779 542.139,-493.223 493.997,-487.13 450.286,-476.792 424.487,-464.642 416.05,-450.421 424.98,-438.047 456.286,-436.211 506.428,-449.578 553.037,-471.529 567.906,-488.779"/>
<text text-anchor="middle" x="483.559" y="-461.935" font-family="Helvetica,sans-Serif" font-size="14.00">4.2 BSD</text>
</g>
<!-- 4.1 BSD&#45;&gt;4.2 BSD -->
<g id="edge26" class="edge"><title>4.1 BSD&#45;&gt;4.2 BSD</title>
<path fill="none" stroke="black" d="M491.818,-541.184C490.417,-528.543 488.413,-510.45 486.73,-495.254"/>
<polygon fill="black" stroke="black" points="490.207,-494.853 485.627,-485.299 483.249,-495.624 490.207,-494.853"/>
</g>
<!-- 4.3 BSD -->
<g id="node26" class="node"><title>4.3 BSD</title>
<polygon fill="#eee9bf" stroke="#eee9bf" points="647.391,-384.206 625.685,-396.363 597.437,-399.03 573.568,-391.377 563.145,-376.256 569.988,-359.209 591.434,-346.675 619.422,-343.631 643.39,-351.428 654.135,-367.015 647.391,-384.206"/>
<text text-anchor="middle" x="608.559" y="-367.819" font-family="Helvetica,sans-Serif" font-size="14.00">4.3 BSD</text>
</g>
<!-- 4.2 BSD&#45;&gt;4.3 BSD -->
<g id="edge29" class="edge"><title>4.2 BSD&#45;&gt;4.3 BSD</title>
<path fill="none" stroke="black" d="M504.764,-449.009C523.046,-435.536 549.861,-415.776 571.656,-399.714"/>
<polygon fill="black" stroke="black" points="573.761,-402.511 579.735,-393.761 569.608,-396.876 573.761,-402.511"/>
</g>
<!-- Ultrix&#45;32 -->
<g id="node27" class="node"><title>Ultrix&#45;32</title>
<polygon fill="#cd9b1d" stroke="#cd9b1d" points="488.824,-388.292 413.599,-379.868 395.258,-350.599 544.557,-367.318 488.824,-388.292"/>
<text text-anchor="middle" x="460.559" y="-367.819" font-family="Helvetica,sans-Serif" font-size="14.00">Ultrix&#45;32</text>
</g>
<!-- 4.2 BSD&#45;&gt;Ultrix&#45;32 -->
<g id="edge30" class="edge"><title>4.2 BSD&#45;&gt;Ultrix&#45;32</title>
<path fill="none" stroke="black" d="M477.874,-441.865C474.355,-427.77 469.849,-409.726 466.317,-395.577"/>
<polygon fill="black" stroke="black" points="469.656,-394.501 463.837,-385.647 462.864,-396.197 469.656,-394.501"/>
</g>
<!-- PWB 1.2&#45;&gt;PWB 2.0 -->
<g id="edge33" class="edge"><title>PWB 1.2&#45;&gt;PWB 2.0</title>
<path fill="none" stroke="black" d="M907.173,-978.222C885.52,-964.705 859.565,-948.503 838.685,-935.469"/>
<polygon fill="black" stroke="black" points="840.411,-932.42 830.074,-930.094 836.704,-938.358 840.411,-932.42"/>
</g>
<!-- CB Unix 1 -->
<g id="node30" class="node"><title>CB Unix 1</title>
<polygon fill="firebrick" stroke="firebrick" points="1262.72,-918.667 1249.69,-931.022 1213.91,-934.494 1176.08,-928.662 1147.83,-914.411 1136.31,-896.566 1150.88,-884.68 1192.16,-886.576 1239.45,-900.949 1262.72,-918.667"/>
<text text-anchor="middle" x="1196.56" y="-906.97" font-family="Helvetica,sans-Serif" font-size="14.00">CB Unix 1</text>
</g>
<!-- USG 1.0&#45;&gt;CB Unix 1 -->
<g id="edge34" class="edge"><title>USG 1.0&#45;&gt;CB Unix 1</title>
<path fill="none" stroke="black" d="M1123.74,-991.889C1136.64,-977.681 1157.31,-954.909 1173.34,-937.251"/>
<polygon fill="black" stroke="black" points="1176.2,-939.304 1180.33,-929.547 1171.02,-934.599 1176.2,-939.304"/>
</g>
<!-- USG 2.0 -->
<g id="node31" class="node"><title>USG 2.0</title>
<polygon fill="#458b00" stroke="#458b00" points="974.251,-937.65 918.79,-882.784 1025.94,-896.616 1055.26,-925.629 974.251,-937.65"/>
<text text-anchor="middle" x="993.559" y="-906.97" font-family="Helvetica,sans-Serif" font-size="14.00">USG 2.0</text>
</g>
<!-- USG 1.0&#45;&gt;USG 2.0 -->
<g id="edge35" class="edge"><title>USG 1.0&#45;&gt;USG 2.0</title>
<path fill="none" stroke="black" d="M1095.15,-992.285C1077.44,-978.232 1048.77,-955.48 1026.39,-937.725"/>
<polygon fill="black" stroke="black" points="1028.48,-934.909 1018.47,-931.434 1024.12,-940.392 1028.48,-934.909"/>
</g>
<!-- CB Unix 2 -->
<g id="node32" class="node"><title>CB Unix 2</title>
<polygon fill="greenyellow" stroke="greenyellow" points="1284.67,-816.287 1292.76,-830.51 1278.24,-839.893 1233.21,-837.977 1180.02,-826.59 1155.57,-813.639 1174.36,-805.168 1215.76,-801.538 1250.52,-801.257 1270.49,-805.533 1284.67,-816.287"/>
<text text-anchor="middle" x="1233.56" y="-814.139" font-family="Helvetica,sans-Serif" font-size="14.00">CB Unix 2</text>
</g>
<!-- CB Unix 1&#45;&gt;CB Unix 2 -->
<g id="edge36" class="edge"><title>CB Unix 1&#45;&gt;CB Unix 2</title>
<path fill="none" stroke="black" d="M1204.59,-889.961C1209.79,-877.197 1216.63,-860.395 1222.36,-846.326"/>
<polygon fill="black" stroke="black" points="1225.77,-847.244 1226.3,-836.663 1219.29,-844.603 1225.77,-847.244"/>
</g>
<!-- USG 3.0 -->
<g id="node36" class="node"><title>USG 3.0</title>
<polygon fill="#eed5b7" stroke="#eed5b7" points="867.693,-836.047 809.722,-820.225 824.706,-789.064 960.117,-826.022 867.693,-836.047"/>
<text text-anchor="middle" x="865.559" y="-814.139" font-family="Helvetica,sans-Serif" font-size="14.00">USG 3.0</text>
</g>
<!-- USG 2.0&#45;&gt;USG 3.0 -->
<g id="edge40" class="edge"><title>USG 2.0&#45;&gt;USG 3.0</title>
<path fill="none" stroke="black" d="M963.872,-888.603C943.323,-874.021 916.072,-854.684 895.474,-840.067"/>
<polygon fill="black" stroke="black" points="897.273,-837.052 887.092,-834.119 893.222,-842.761 897.273,-837.052"/>
</g>
<!-- CB Unix 3 -->
<g id="node33" class="node"><title>CB Unix 3</title>
<polygon fill="#8b7d6b" stroke="#8b7d6b" points="1197.65,-724.38 1216.37,-739.867 1206.9,-750.074 1156.67,-748.07 1091.04,-735.779 1055.1,-721.643 1068.75,-712.22 1110.6,-708.077 1148.46,-707.765 1174.07,-712.561 1197.65,-724.38"/>
<text text-anchor="middle" x="1142.56" y="-722.344" font-family="Helvetica,sans-Serif" font-size="14.00">CB Unix 3</text>
</g>
<!-- CB Unix 2&#45;&gt;CB Unix 3 -->
<g id="edge37" class="edge"><title>CB Unix 2&#45;&gt;CB Unix 3</title>
<path fill="none" stroke="black" d="M1217.71,-801.198C1205.02,-788.675 1186.88,-770.774 1171.6,-755.697"/>
<polygon fill="black" stroke="black" points="1173.94,-753.092 1164.36,-748.559 1169.02,-758.074 1173.94,-753.092"/>
</g>
<!-- Unix/TS++ -->
<g id="node34" class="node"><title>Unix/TS++</title>
<polygon fill="#eed5d2" stroke="#eed5d2" points="1103.63,-648.557 1069.79,-661.825 970.17,-653.419 949.488,-635.55 1005.88,-624.184 1060.4,-628.785 1103.63,-648.557"/>
<text text-anchor="middle" x="1026.56" y="-638.353" font-family="Helvetica,sans-Serif" font-size="14.00">Unix/TS++</text>
</g>
<!-- CB Unix 3&#45;&gt;Unix/TS++ -->
<g id="edge38" class="edge"><title>CB Unix 3&#45;&gt;Unix/TS++</title>
<path fill="none" stroke="black" d="M1118.24,-707.856C1101.19,-695.802 1078.19,-679.547 1059.49,-666.332"/>
<polygon fill="black" stroke="black" points="1061.43,-663.415 1051.24,-660.501 1057.39,-669.131 1061.43,-663.415"/>
</g>
<!-- PDP&#45;11 Sys V -->
<g id="node35" class="node"><title>PDP&#45;11 Sys V</title>
<polygon fill="#98f5ff" stroke="#98f5ff" points="1277.35,-646.784 1252.17,-657.32 1204.59,-661.187 1161.1,-657.466 1135.59,-646.533 1133.59,-632.139 1160.23,-621.91 1210.92,-622.307 1260.49,-632.834 1277.35,-646.784"/>
<text text-anchor="middle" x="1199.56" y="-638.353" font-family="Helvetica,sans-Serif" font-size="14.00">PDP&#45;11 Sys V</text>
</g>
<!-- CB Unix 3&#45;&gt;PDP&#45;11 Sys V -->
<g id="edge39" class="edge"><title>CB Unix 3&#45;&gt;PDP&#45;11 Sys V</title>
<path fill="none" stroke="black" d="M1154.09,-708.452C1162.08,-696.97 1172.85,-681.473 1181.91,-668.446"/>
<polygon fill="black" stroke="black" points="1185.01,-670.111 1187.85,-659.902 1179.26,-666.115 1185.01,-670.111"/>
</g>
<!-- CB Unix 3&#45;&gt;TS 4.0 -->
<g id="edge46" class="edge"><title>CB Unix 3&#45;&gt;TS 4.0</title>
<path fill="none" stroke="black" d="M1058.4,-719.311C1017.18,-712.074 970.175,-696.438 940.559,-663.135 922.094,-642.371 918.806,-609.816 919.212,-586.619"/>
<polygon fill="black" stroke="black" points="922.719,-586.522 919.638,-576.385 915.725,-586.231 922.719,-586.522"/>
</g>
<!-- Unix/TS++&#45;&gt;TS 4.0 -->
<g id="edge45" class="edge"><title>Unix/TS++&#45;&gt;TS 4.0</title>
<path fill="none" stroke="black" d="M1005.06,-624.232C991.672,-613.76 974.097,-600.01 958.525,-587.828"/>
<polygon fill="black" stroke="black" points="960.63,-585.031 950.598,-581.626 956.317,-590.545 960.63,-585.031"/>
</g>
<!-- USG 3.0&#45;&gt;Unix/TS 3.0 -->
<g id="edge41" class="edge"><title>USG 3.0&#45;&gt;Unix/TS 3.0</title>
<path fill="none" stroke="black" d="M865.559,-799.949C865.559,-787.804 865.559,-771.106 865.559,-756.755"/>
<polygon fill="black" stroke="black" points="869.06,-756.352 865.559,-746.352 862.06,-756.352 869.06,-756.352"/>
</g>
<!-- Unix/TS 1.0 -->
<g id="node37" class="node"><title>Unix/TS 1.0</title>
<polygon fill="orangered" stroke="orangered" points="1018.85,-837.378 977.626,-805.763 1103.2,-803.619 1130.56,-824.597 1018.85,-837.378"/>
<text text-anchor="middle" x="1057.56" y="-814.139" font-family="Helvetica,sans-Serif" font-size="14.00">Unix/TS 1.0</text>
</g>
<!-- Unix/TS 1.0&#45;&gt;Unix/TS 3.0 -->
<g id="edge43" class="edge"><title>Unix/TS 1.0&#45;&gt;Unix/TS 3.0</title>
<path fill="none" stroke="black" d="M1031.67,-804.729C1005.07,-792.293 962.704,-772.477 927.413,-755.971"/>
<polygon fill="black" stroke="black" points="928.678,-752.7 918.137,-751.634 925.713,-759.04 928.678,-752.7"/>
</g>
<!-- System V.0 -->
<g id="node39" class="node"><title>System V.0</title>
<polygon fill="#ff7f00" stroke="#ff7f00" points="1001.73,-467.635 979.532,-478.707 930.034,-483.635 876.066,-480.06 843.385,-469.735 847.787,-457.573 886.884,-449.211 941.762,-448.464 986.857,-455.698 1001.73,-467.635"/>
<text text-anchor="middle" x="921.559" y="-461.935" font-family="Helvetica,sans-Serif" font-size="14.00">System V.0</text>
</g>
<!-- TS 4.0&#45;&gt;System V.0 -->
<g id="edge47" class="edge"><title>TS 4.0&#45;&gt;System V.0</title>
<path fill="none" stroke="black" d="M921.559,-536.424C921.559,-523.7 921.559,-507.204 921.559,-493.446"/>
<polygon fill="black" stroke="black" points="925.06,-493.122 921.559,-483.122 918.06,-493.122 925.06,-493.122"/>
</g>
<!-- System V.2 -->
<g id="node40" class="node"><title>System V.2</title>
<polygon fill="#6e8b3d" stroke="#6e8b3d" points="1013.93,-388.385 946.808,-394.849 816.763,-371.105 829.185,-354.653 933.981,-355.067 988.685,-365.055 1013.93,-388.385"/>
<text text-anchor="middle" x="921.559" y="-367.819" font-family="Helvetica,sans-Serif" font-size="14.00">System V.2</text>
</g>
<!-- System V.0&#45;&gt;System V.2 -->
<g id="edge48" class="edge"><title>System V.0&#45;&gt;System V.2</title>
<path fill="none" stroke="black" d="M921.559,-448.59C921.559,-435.355 921.559,-416.265 921.559,-400.519"/>
<polygon fill="black" stroke="black" points="925.06,-400.266 921.559,-390.266 918.06,-400.266 925.06,-400.266"/>
</g>
<!-- System V.3 -->
<g id="node41" class="node"><title>System V.3</title>
<polygon fill="#cae1ff" stroke="#cae1ff" points="980.124,-302.819 912.306,-300.044 866.068,-291.404 861.616,-276.667 887.691,-260.191 945.773,-264.122 997.339,-287.903 980.124,-302.819"/>
<text text-anchor="middle" x="921.559" y="-279.607" font-family="Helvetica,sans-Serif" font-size="14.00">System V.3</text>
</g>
<!-- System V.2&#45;&gt;System V.3 -->
<g id="edge49" class="edge"><title>System V.2&#45;&gt;System V.3</title>
<path fill="none" stroke="black" d="M921.559,-354.706C921.559,-342.466 921.559,-325.237 921.559,-310.887"/>
<polygon fill="black" stroke="black" points="925.06,-310.605 921.559,-300.605 918.06,-310.605 925.06,-310.605"/>
</g>
</g>
</svg>
