<?xml version="1.0" encoding="UTF-8" standalone="no"?>
<!DOCTYPE svg PUBLIC "-//W3C//DTD SVG 1.1//EN"
 "http://www.w3.org/Graphics/SVG/1.1/DTD/svg11.dtd">
<!-- Generated by graphviz version 2.38.0 (20140413.2041)
 -->
<!-- Title: G Pages: 1 -->
<svg width="336pt" height="237pt"
 viewBox="0.00 0.00 336.39 236.85" xmlns="http://www.w3.org/2000/svg" xmlns:xlink="http://www.w3.org/1999/xlink">
<g id="graph0" class="graph" transform="scale(1 1) rotate(0) translate(4 232.853)">
<title>G</title>
<polygon fill="white" stroke="none" points="-4,4 -4,-232.853 332.393,-232.853 332.393,4 -4,4"/>
<!-- xyz -->
<g id="node1" class="node"><title>xyz</title>
<ellipse fill="slateblue" stroke="slateblue" cx="65.4469" cy="-186.426" rx="50.8235" ry="42.3529"/>
<text text-anchor="middle" x="65.4469" y="-193.226" font-family="Palatino Linotype,serif" font-style="italic" font-size="24.00" fill="hotpink">hello</text>
<text text-anchor="middle" x="65.4469" y="-167.226" font-family="Palatino Linotype,serif" font-style="italic" font-size="24.00" fill="hotpink">world</text>
</g>
<!-- red -->
<g id="node2" class="node"><title>red</title>
<ellipse fill="red" stroke="red" cx="161.447" cy="-186.426" rx="27" ry="18"/>
<text text-anchor="middle" x="161.447" y="-182.726" font-family="Times,serif" font-size="14.00">red</text>
</g>
<!-- green -->
<g id="node3" class="node"><title>green</title>
<ellipse fill="green" stroke="green" cx="121.447" cy="-90" rx="30.5947" ry="18"/>
<text text-anchor="middle" x="121.447" y="-86.3" font-family="Times,serif" font-size="14.00">green</text>
</g>
<!-- red&#45;&gt;green -->
<g id="edge1" class="edge"><title>red&#45;&gt;green</title>
<path fill="none" stroke="black" d="M154.479,-168.979C148.437,-154.714 139.582,-133.812 132.562,-117.238"/>
<polygon fill="black" stroke="black" points="135.592,-115.419 128.469,-107.576 129.147,-118.149 135.592,-115.419"/>
</g>
<!-- blue -->
<g id="node4" class="node"><title>blue</title>
<ellipse fill="blue" stroke="blue" cx="201.447" cy="-90" rx="27" ry="18"/>
<text text-anchor="middle" x="201.447" y="-86.3" font-family="Times,serif" font-size="14.00">blue</text>
</g>
<!-- red&#45;&gt;blue -->
<g id="edge2" class="edge"><title>red&#45;&gt;blue</title>
<path fill="none" stroke="black" d="M168.414,-168.979C174.457,-154.714 183.311,-133.812 190.332,-117.238"/>
<polygon fill="black" stroke="black" points="193.747,-118.149 194.425,-107.576 187.302,-115.419 193.747,-118.149"/>
</g>
<!-- yellow -->
<g id="node7" class="node"><title>yellow</title>
<ellipse fill="yellow" stroke="yellow" cx="34.4469" cy="-18" rx="34.394" ry="18"/>
<text text-anchor="middle" x="34.4469" y="-14.3" font-family="Times,serif" font-size="14.00">yellow</text>
</g>
<!-- green&#45;&gt;yellow -->
<g id="edge5" class="edge"><title>green&#45;&gt;yellow</title>
<path fill="none" stroke="black" d="M103.841,-74.8345C91.3895,-64.8158 74.4872,-51.2163 60.4815,-39.9473"/>
<polygon fill="black" stroke="black" points="62.6107,-37.1682 52.6254,-33.6263 58.2225,-42.6221 62.6107,-37.1682"/>
</g>
<!-- orange -->
<g id="node8" class="node"><title>orange</title>
<ellipse fill="orange" stroke="orange" cx="121.447" cy="-18" rx="34.394" ry="18"/>
<text text-anchor="middle" x="121.447" y="-14.3" font-family="Times,serif" font-size="14.00">orange</text>
</g>
<!-- green&#45;&gt;orange -->
<g id="edge6" class="edge"><title>green&#45;&gt;orange</title>
<path fill="none" stroke="black" d="M121.447,-71.6966C121.447,-63.9827 121.447,-54.7125 121.447,-46.1124"/>
<polygon fill="black" stroke="black" points="124.947,-46.1043 121.447,-36.1043 117.947,-46.1044 124.947,-46.1043"/>
</g>
<!-- cyan -->
<g id="node5" class="node"><title>cyan</title>
<ellipse fill="cyan" stroke="cyan" cx="201.447" cy="-18" rx="27.0966" ry="18"/>
<text text-anchor="middle" x="201.447" y="-14.3" font-family="Times,serif" font-size="14.00">cyan</text>
</g>
<!-- blue&#45;&gt;cyan -->
<g id="edge3" class="edge"><title>blue&#45;&gt;cyan</title>
<path fill="none" stroke="black" d="M201.447,-71.6966C201.447,-63.9827 201.447,-54.7125 201.447,-46.1124"/>
<polygon fill="black" stroke="black" points="204.947,-46.1043 201.447,-36.1043 197.947,-46.1044 204.947,-46.1043"/>
</g>
<!-- magenta -->
<g id="node6" class="node"><title>magenta</title>
<ellipse fill="magenta" stroke="magenta" cx="287.447" cy="-18" rx="40.8928" ry="18"/>
<text text-anchor="middle" x="287.447" y="-14.3" font-family="Times,serif" font-size="14.00">magenta</text>
</g>
<!-- blue&#45;&gt;magenta -->
<g id="edge4" class="edge"><title>blue&#45;&gt;magenta</title>
<path fill="none" stroke="black" d="M218.029,-75.5033C230.188,-65.6065 246.948,-51.9644 260.953,-40.5644"/>
<polygon fill="black" stroke="black" points="263.28,-43.1838 268.826,-34.1566 258.861,-37.7549 263.28,-43.1838"/>
</g>
</g>
</svg>
