<?xml version="1.0" encoding="UTF-8" standalone="no"?>
<!DOCTYPE svg PUBLIC "-//W3C//DTD SVG 1.1//EN"
 "http://www.w3.org/Graphics/SVG/1.1/DTD/svg11.dtd">
<!-- Generated by graphviz version 2.38.0 (20140413.2041)
 -->
<!-- Title: G Pages: 1 -->
<svg width="370pt" height="116pt"
 viewBox="0.00 0.00 369.64 116.00" xmlns="http://www.w3.org/2000/svg" xmlns:xlink="http://www.w3.org/1999/xlink">
<g id="graph0" class="graph" transform="scale(1 1) rotate(0) translate(4 112)">
<title>G</title>
<polygon fill="white" stroke="none" points="-4,4 -4,-112 365.643,-112 365.643,4 -4,4"/>
<!-- Marden -->
<g id="node1" class="node"><title>Marden</title>
<ellipse fill="none" stroke="black" cx="38.3466" cy="-90" rx="38.1938" ry="18"/>
<text text-anchor="middle" x="38.3466" y="-86.3" font-family="Times,serif" font-size="14.00">Marden</text>
</g>
<!-- ldt -->
<g id="node2" class="node"><title>ldt</title>
<ellipse fill="none" stroke="black" cx="182.347" cy="-18" rx="27" ry="18"/>
<text text-anchor="middle" x="182.347" y="-14.3" font-family="Times,serif" font-size="14.00">ldt</text>
</g>
<!-- Marden&#45;&#45;ldt -->
<g id="edge1" class="edge"><title>Marden&#45;&#45;ldt</title>
<path fill="none" stroke="black" d="M64.0909,-76.4854C91.7578,-63.0362 135.227,-41.9053 161.043,-29.3558"/>
</g>
<!-- kg -->
<g id="node3" class="node"><title>kg</title>
<ellipse fill="none" stroke="black" cx="110.347" cy="-18" rx="27" ry="18"/>
<text text-anchor="middle" x="110.347" y="-14.3" font-family="Times,serif" font-size="14.00">kg</text>
</g>
<!-- Marden&#45;&#45;kg -->
<g id="edge2" class="edge"><title>Marden&#45;&#45;kg</title>
<path fill="none" stroke="black" d="M54.3257,-73.4647C66.5888,-61.5423 83.3965,-45.2015 95.3954,-33.5359"/>
</g>
<!-- hg -->
<g id="node4" class="node"><title>hg</title>
<ellipse fill="none" stroke="black" cx="38.3466" cy="-18" rx="27" ry="18"/>
<text text-anchor="middle" x="38.3466" y="-14.3" font-family="Times,serif" font-size="14.00">hg</text>
</g>
<!-- Marden&#45;&#45;hg -->
<g id="edge3" class="edge"><title>Marden&#45;&#45;hg</title>
<path fill="none" stroke="black" d="M38.3466,-71.6966C38.3466,-60.8463 38.3466,-46.9167 38.3466,-36.1043"/>
</g>
<!-- Cannon -->
<g id="node5" class="node"><title>Cannon</title>
<ellipse fill="none" stroke="black" cx="224.347" cy="-90" rx="38.1938" ry="18"/>
<text text-anchor="middle" x="224.347" y="-86.3" font-family="Times,serif" font-size="14.00">Cannon</text>
</g>
<!-- Cannon&#45;&#45;ldt -->
<g id="edge4" class="edge"><title>Cannon&#45;&#45;ldt</title>
<path fill="none" stroke="black" d="M214.393,-72.411C207.601,-61.0907 198.654,-46.1782 191.939,-34.9881"/>
</g>
<!-- Cannon&#45;&#45;kg -->
<g id="edge5" class="edge"><title>Cannon&#45;&#45;kg</title>
<path fill="none" stroke="black" d="M202.096,-75.3371C180.972,-62.3663 149.552,-43.0734 129.511,-30.7676"/>
</g>
<!-- ggt -->
<g id="node6" class="node"><title>ggt</title>
<ellipse fill="none" stroke="black" cx="254.347" cy="-18" rx="27" ry="18"/>
<text text-anchor="middle" x="254.347" y="-14.3" font-family="Times,serif" font-size="14.00">ggt</text>
</g>
<!-- Cannon&#45;&#45;ggt -->
<g id="edge6" class="edge"><title>Cannon&#45;&#45;ggt</title>
<path fill="none" stroke="black" d="M231.609,-72.055C236.326,-61.0492 242.448,-46.7636 247.151,-35.789"/>
</g>
<!-- Epstein -->
<g id="node7" class="node"><title>Epstein</title>
<ellipse fill="none" stroke="black" cx="131.347" cy="-90" rx="37.0935" ry="18"/>
<text text-anchor="middle" x="131.347" y="-86.3" font-family="Times,serif" font-size="14.00">Epstein</text>
</g>
<!-- Epstein&#45;&#45;ldt -->
<g id="edge8" class="edge"><title>Epstein&#45;&#45;ldt</title>
<path fill="none" stroke="black" d="M143.175,-72.7646C151.532,-61.2944 162.67,-46.0068 170.933,-34.6658"/>
</g>
<!-- Epstein&#45;&#45;kg -->
<g id="edge7" class="edge"><title>Epstein&#45;&#45;kg</title>
<path fill="none" stroke="black" d="M126.263,-72.055C122.961,-61.0492 118.676,-46.7636 115.383,-35.789"/>
</g>
<!-- Epstein&#45;&#45;hg -->
<g id="edge10" class="edge"><title>Epstein&#45;&#45;hg</title>
<path fill="none" stroke="black" d="M112.077,-74.496C95.4774,-62.0017 71.7297,-44.127 55.7097,-32.069"/>
</g>
<!-- Epstein&#45;&#45;ggt -->
<g id="edge9" class="edge"><title>Epstein&#45;&#45;ggt</title>
<path fill="none" stroke="black" d="M154.482,-75.8335C177.586,-62.685 212.717,-42.6916 234.563,-30.2589"/>
</g>
<!-- Conway -->
<g id="node8" class="node"><title>Conway</title>
<ellipse fill="none" stroke="black" cx="321.347" cy="-90" rx="40.0939" ry="18"/>
<text text-anchor="middle" x="321.347" y="-86.3" font-family="Times,serif" font-size="14.00">Conway</text>
</g>
<!-- Conway&#45;&#45;ggt -->
<g id="edge11" class="edge"><title>Conway&#45;&#45;ggt</title>
<path fill="none" stroke="black" d="M306.143,-73.1159C294.869,-61.3373 279.608,-45.3921 268.574,-33.8639"/>
</g>
</g>
</svg>
