<?xml version="1.0" encoding="UTF-8" standalone="no"?>
<!DOCTYPE svg PUBLIC "-//W3C//DTD SVG 1.1//EN"
 "http://www.w3.org/Graphics/SVG/1.1/DTD/svg11.dtd">
<!-- Generated by graphviz version 2.38.0 (20140413.2041)
 -->
<!-- Title: G Pages: 1 -->
<svg width="229pt" height="260pt"
 viewBox="0.00 0.00 229.35 260.00" xmlns="http://www.w3.org/2000/svg" xmlns:xlink="http://www.w3.org/1999/xlink">
<g id="graph0" class="graph" transform="scale(1 1) rotate(0) translate(4 256)">
<title>G</title>
<polygon fill="white" stroke="none" points="-4,4 -4,-256 225.347,-256 225.347,4 -4,4"/>
<!-- Marden -->
<g id="node1" class="node"><title>Marden</title>
<ellipse fill="none" stroke="black" cx="133.347" cy="-234" rx="38.1938" ry="18"/>
<text text-anchor="middle" x="133.347" y="-230.3" font-family="Times,serif" font-size="14.00">Marden</text>
</g>
<!-- ldt -->
<g id="node2" class="node"><title>ldt</title>
<ellipse fill="none" stroke="black" cx="122.347" cy="-162" rx="27" ry="18"/>
<text text-anchor="middle" x="122.347" y="-158.3" font-family="Times,serif" font-size="14.00">ldt</text>
</g>
<!-- Marden&#45;&#45;ldt -->
<g id="edge1" class="edge"><title>Marden&#45;&#45;ldt</title>
<path fill="none" stroke="black" d="M130.627,-215.697C128.922,-204.846 126.734,-190.917 125.034,-180.104"/>
</g>
<!-- kg -->
<g id="node3" class="node"><title>kg</title>
<ellipse fill="none" stroke="black" cx="50.3466" cy="-162" rx="27" ry="18"/>
<text text-anchor="middle" x="50.3466" y="-158.3" font-family="Times,serif" font-size="14.00">kg</text>
</g>
<!-- Marden&#45;&#45;kg -->
<g id="edge2" class="edge"><title>Marden&#45;&#45;kg</title>
<path fill="none" stroke="black" d="M115.337,-217.811C100.747,-205.507 80.3829,-188.332 66.3575,-176.503"/>
</g>
<!-- hg -->
<g id="node4" class="node"><title>hg</title>
<ellipse fill="none" stroke="black" cx="194.347" cy="-162" rx="27" ry="18"/>
<text text-anchor="middle" x="194.347" y="-158.3" font-family="Times,serif" font-size="14.00">hg</text>
</g>
<!-- Marden&#45;&#45;hg -->
<g id="edge3" class="edge"><title>Marden&#45;&#45;hg</title>
<path fill="none" stroke="black" d="M147.188,-217.116C157.453,-205.337 171.348,-189.392 181.394,-177.864"/>
</g>
<!-- Epstein -->
<g id="node7" class="node"><title>Epstein</title>
<ellipse fill="none" stroke="black" cx="91.3466" cy="-90" rx="37.0935" ry="18"/>
<text text-anchor="middle" x="91.3466" y="-86.3" font-family="Times,serif" font-size="14.00">Epstein</text>
</g>
<!-- ldt&#45;&#45;Epstein -->
<g id="edge8" class="edge"><title>ldt&#45;&#45;Epstein</title>
<path fill="none" stroke="black" d="M115,-144.411C110.13,-133.414 103.759,-119.027 98.8558,-107.956"/>
</g>
<!-- kg&#45;&#45;Epstein -->
<g id="edge7" class="edge"><title>kg&#45;&#45;Epstein</title>
<path fill="none" stroke="black" d="M59.8559,-144.765C66.3849,-133.618 75.0257,-118.865 81.6042,-107.633"/>
</g>
<!-- hg&#45;&#45;Epstein -->
<g id="edge10" class="edge"><title>hg&#45;&#45;Epstein</title>
<path fill="none" stroke="black" d="M175.932,-148.485C157.994,-136.295 130.77,-117.792 112.08,-105.091"/>
</g>
<!-- Cannon -->
<g id="node5" class="node"><title>Cannon</title>
<ellipse fill="none" stroke="black" cx="38.3466" cy="-234" rx="38.1938" ry="18"/>
<text text-anchor="middle" x="38.3466" y="-230.3" font-family="Times,serif" font-size="14.00">Cannon</text>
</g>
<!-- Cannon&#45;&#45;ldt -->
<g id="edge4" class="edge"><title>Cannon&#45;&#45;ldt</title>
<path fill="none" stroke="black" d="M56.5733,-217.811C71.3385,-205.507 91.9484,-188.332 106.143,-176.503"/>
</g>
<!-- Cannon&#45;&#45;kg -->
<g id="edge5" class="edge"><title>Cannon&#45;&#45;kg</title>
<path fill="none" stroke="black" d="M41.3129,-215.697C43.1729,-204.846 45.5609,-190.917 47.4144,-180.104"/>
</g>
<!-- ggt -->
<g id="node6" class="node"><title>ggt</title>
<ellipse fill="none" stroke="black" cx="43.3466" cy="-18" rx="27" ry="18"/>
<text text-anchor="middle" x="43.3466" y="-14.3" font-family="Times,serif" font-size="14.00">ggt</text>
</g>
<!-- Cannon&#45;&#45;ggt -->
<g id="edge6" class="edge"><title>Cannon&#45;&#45;ggt</title>
<path fill="none" stroke="black" d="M28.6414,-216.449C23.263,-206.302 17.1173,-192.835 14.3466,-180 3.02024,-127.53 24.2247,-64.7808 36.0997,-35.5294"/>
</g>
<!-- Epstein&#45;&#45;ggt -->
<g id="edge9" class="edge"><title>Epstein&#45;&#45;ggt</title>
<path fill="none" stroke="black" d="M80.2138,-72.7646C72.3485,-61.2944 61.8655,-46.0068 54.0888,-34.6658"/>
</g>
</g>
</svg>
