<?xml version="1.0" encoding="UTF-8" standalone="no"?>
<!DOCTYPE svg PUBLIC "-//W3C//DTD SVG 1.1//EN"
 "http://www.w3.org/Graphics/SVG/1.1/DTD/svg11.dtd">
<!-- Generated by graphviz version 2.38.0 (20140413.2041)
 -->
<!-- Title: G Pages: 1 -->
<svg width="350pt" height="116pt"
 viewBox="0.00 0.00 350.00 116.00" xmlns="http://www.w3.org/2000/svg" xmlns:xlink="http://www.w3.org/1999/xlink">
<g id="graph0" class="graph" transform="scale(1 1) rotate(0) translate(4 112)">
<title>G</title>
<polygon fill="white" stroke="none" points="-4,4 -4,-112 346,-112 346,4 -4,4"/>
<!-- a -->
<g id="node1" class="node"><title>a</title>
<ellipse fill="none" stroke="black" cx="171" cy="-90" rx="27" ry="18"/>
<text text-anchor="middle" x="171" y="-86.3" font-family="Times,serif" font-size="14.00">a</text>
</g>
<!-- b -->
<g id="node2" class="node"><title>b</title>
<ellipse fill="none" stroke="black" cx="27" cy="-18" rx="27" ry="18"/>
<text text-anchor="middle" x="27" y="-14.3" font-family="Times,serif" font-size="14.00">b</text>
</g>
<!-- a&#45;&gt;b -->
<g id="edge1" class="edge"><title>a&#45;&gt;b</title>
<path fill="none" stroke="black" d="M149.752,-78.6713C125.398,-66.8324 85.2814,-47.3312 57.5723,-33.8615"/>
<polygon fill="black" stroke="black" points="58.8588,-30.5953 48.3349,-29.3711 55.7984,-36.8909 58.8588,-30.5953"/>
</g>
<!-- c -->
<g id="node3" class="node"><title>c</title>
<ellipse fill="none" stroke="black" cx="99" cy="-18" rx="27" ry="18"/>
<text text-anchor="middle" x="99" y="-14.3" font-family="Times,serif" font-size="14.00">c</text>
</g>
<!-- a&#45;&gt;c -->
<g id="edge2" class="edge"><title>a&#45;&gt;c</title>
<path fill="none" stroke="black" d="M156.43,-74.8345C146.25,-64.9376 132.476,-51.5462 120.969,-40.3591"/>
<polygon fill="black" stroke="black" points="123.405,-37.8461 113.796,-33.3847 118.526,-42.865 123.405,-37.8461"/>
</g>
<!-- d -->
<g id="node4" class="node"><title>d</title>
<ellipse fill="none" stroke="black" cx="171" cy="-18" rx="27" ry="18"/>
<text text-anchor="middle" x="171" y="-14.3" font-family="Times,serif" font-size="14.00">d</text>
</g>
<!-- a&#45;&gt;d -->
<g id="edge3" class="edge"><title>a&#45;&gt;d</title>
<path fill="none" stroke="black" d="M171,-61.6651C171,-53.0537 171,-43.7913 171,-36.1043"/>
<polygon fill="black" stroke="black" points="167.5,-61.6966 171,-71.6966 174.5,-61.6967 167.5,-61.6966"/>
</g>
<!-- e -->
<g id="node5" class="node"><title>e</title>
<ellipse fill="none" stroke="black" cx="243" cy="-18" rx="27" ry="18"/>
<text text-anchor="middle" x="243" y="-14.3" font-family="Times,serif" font-size="14.00">e</text>
</g>
<!-- a&#45;&gt;e -->
<g id="edge4" class="edge"><title>a&#45;&gt;e</title>
<path fill="none" stroke="black" d="M193.044,-67.5684C201.866,-58.9909 212.012,-49.1272 220.846,-40.5391"/>
<polygon fill="black" stroke="black" points="190.3,-65.3542 185.57,-74.8345 195.18,-70.3731 190.3,-65.3542"/>
<polygon fill="black" stroke="black" points="223.474,-42.865 228.204,-33.3847 218.595,-37.8461 223.474,-42.865"/>
</g>
<!-- f -->
<g id="node6" class="node"><title>f</title>
<ellipse fill="none" stroke="black" cx="315" cy="-18" rx="27" ry="18"/>
<text text-anchor="middle" x="315" y="-14.3" font-family="Times,serif" font-size="14.00">f</text>
</g>
<!-- a&#45;&gt;f -->
<g id="edge5" class="edge"><title>a&#45;&gt;f</title>
<path fill="none" stroke="black" d="M192.248,-78.6713C219.473,-65.4366 266.398,-42.6262 293.665,-29.3711"/>
</g>
</g>
</svg>
