<?xml version="1.0" encoding="UTF-8" standalone="no"?>
<!DOCTYPE svg PUBLIC "-//W3C//DTD SVG 1.1//EN"
 "http://www.w3.org/Graphics/SVG/1.1/DTD/svg11.dtd">
<!-- Generated by graphviz version 2.38.0 (20140413.2041)
 -->
<!-- Title: unix Pages: 1 -->
<svg width="970pt" height="836pt"
 viewBox="0.00 0.00 970.40 836.00" xmlns="http://www.w3.org/2000/svg" xmlns:xlink="http://www.w3.org/1999/xlink">
<g id="graph0" class="graph" transform="scale(1 1) rotate(0) translate(4 832)">
<title>unix</title>
<polygon fill="white" stroke="none" points="-4,4 -4,-832 966.397,-832 966.397,4 -4,4"/>
<!-- 5th Edition -->
<g id="node1" class="node"><title>5th Edition</title>
<ellipse fill="#b2dfee" stroke="#b2dfee" cx="588.897" cy="-810" rx="51" ry="18"/>
<text text-anchor="middle" x="588.897" y="-806.3" font-family="Times,serif" font-size="14.00">5th Edition</text>
</g>
<!-- 6th Edition -->
<g id="node2" class="node"><title>6th Edition</title>
<ellipse fill="#b2dfee" stroke="#b2dfee" cx="432.897" cy="-738" rx="51" ry="18"/>
<text text-anchor="middle" x="432.897" y="-734.3" font-family="Times,serif" font-size="14.00">6th Edition</text>
</g>
<!-- 5th Edition&#45;&gt;6th Edition -->
<g id="edge1" class="edge"><title>5th Edition&#45;&gt;6th Edition</title>
<path fill="none" stroke="black" d="M558.449,-795.337C533.968,-784.352 499.381,-768.832 472.706,-756.863"/>
<polygon fill="black" stroke="black" points="473.826,-753.529 463.269,-752.628 470.96,-759.916 473.826,-753.529"/>
</g>
<!-- PWB 1.0 -->
<g id="node3" class="node"><title>PWB 1.0</title>
<ellipse fill="#b2dfee" stroke="#b2dfee" cx="684.897" cy="-738" rx="44.393" ry="18"/>
<text text-anchor="middle" x="684.897" y="-734.3" font-family="Times,serif" font-size="14.00">PWB 1.0</text>
</g>
<!-- 5th Edition&#45;&gt;PWB 1.0 -->
<g id="edge2" class="edge"><title>5th Edition&#45;&gt;PWB 1.0</title>
<path fill="none" stroke="black" d="M610.203,-793.465C623.686,-783.633 641.29,-770.797 656.022,-760.055"/>
<polygon fill="black" stroke="black" points="658.292,-762.731 664.31,-754.011 654.168,-757.075 658.292,-762.731"/>
</g>
<!-- LSX -->
<g id="node4" class="node"><title>LSX</title>
<ellipse fill="#b2dfee" stroke="#b2dfee" cx="594.897" cy="-666" rx="27.5" ry="18"/>
<text text-anchor="middle" x="594.897" y="-662.3" font-family="Times,serif" font-size="14.00">LSX</text>
</g>
<!-- 6th Edition&#45;&gt;LSX -->
<g id="edge3" class="edge"><title>6th Edition&#45;&gt;LSX</title>
<path fill="none" stroke="black" d="M464.133,-723.503C492.59,-711.207 534.427,-693.129 563.069,-680.753"/>
<polygon fill="black" stroke="black" points="564.814,-683.812 572.606,-676.632 562.038,-677.386 564.814,-683.812"/>
</g>
<!-- 1 BSD -->
<g id="node5" class="node"><title>1 BSD</title>
<ellipse fill="#b2dfee" stroke="#b2dfee" cx="128.897" cy="-666" rx="35" ry="18"/>
<text text-anchor="middle" x="128.897" y="-662.3" font-family="Times,serif" font-size="14.00">1 BSD</text>
</g>
<!-- 6th Edition&#45;&gt;1 BSD -->
<g id="edge4" class="edge"><title>6th Edition&#45;&gt;1 BSD</title>
<path fill="none" stroke="black" d="M391.265,-727.414C333.125,-714.026 228.245,-689.876 170.254,-676.523"/>
<polygon fill="black" stroke="black" points="170.866,-673.072 160.336,-674.239 169.295,-679.894 170.866,-673.072"/>
</g>
<!-- Mini Unix -->
<g id="node6" class="node"><title>Mini Unix</title>
<ellipse fill="#b2dfee" stroke="#b2dfee" cx="371.897" cy="-666" rx="48.5" ry="18"/>
<text text-anchor="middle" x="371.897" y="-662.3" font-family="Times,serif" font-size="14.00">Mini Unix</text>
</g>
<!-- 6th Edition&#45;&gt;Mini Unix -->
<g id="edge5" class="edge"><title>6th Edition&#45;&gt;Mini Unix</title>
<path fill="none" stroke="black" d="M418.441,-720.411C410.844,-711.693 401.391,-700.845 392.993,-691.208"/>
<polygon fill="black" stroke="black" points="395.458,-688.71 386.25,-683.47 390.181,-693.309 395.458,-688.71"/>
</g>
<!-- Wollongong -->
<g id="node7" class="node"><title>Wollongong</title>
<ellipse fill="#b2dfee" stroke="#b2dfee" cx="493.897" cy="-666" rx="55.5" ry="18"/>
<text text-anchor="middle" x="493.897" y="-662.3" font-family="Times,serif" font-size="14.00">Wollongong</text>
</g>
<!-- 6th Edition&#45;&gt;Wollongong -->
<g id="edge6" class="edge"><title>6th Edition&#45;&gt;Wollongong</title>
<path fill="none" stroke="black" d="M447.353,-720.411C454.95,-711.693 464.403,-700.845 472.802,-691.208"/>
<polygon fill="black" stroke="black" points="475.614,-693.309 479.545,-683.47 470.336,-688.71 475.614,-693.309"/>
</g>
<!-- Interdata -->
<g id="node8" class="node"><title>Interdata</title>
<ellipse fill="#b2dfee" stroke="#b2dfee" cx="262.897" cy="-666" rx="42.5" ry="18"/>
<text text-anchor="middle" x="262.897" y="-662.3" font-family="Times,serif" font-size="14.00">Interdata</text>
</g>
<!-- 6th Edition&#45;&gt;Interdata -->
<g id="edge7" class="edge"><title>6th Edition&#45;&gt;Interdata</title>
<path fill="none" stroke="black" d="M400.922,-723.834C372.715,-712.219 331.539,-695.264 301.504,-682.897"/>
<polygon fill="black" stroke="black" points="302.754,-679.626 292.174,-679.055 300.088,-686.099 302.754,-679.626"/>
</g>
<!-- PWB 1.2 -->
<g id="node33" class="node"><title>PWB 1.2</title>
<ellipse fill="#b2dfee" stroke="#b2dfee" cx="684.897" cy="-666" rx="44.393" ry="18"/>
<text text-anchor="middle" x="684.897" y="-662.3" font-family="Times,serif" font-size="14.00">PWB 1.2</text>
</g>
<!-- PWB 1.0&#45;&gt;PWB 1.2 -->
<g id="edge36" class="edge"><title>PWB 1.0&#45;&gt;PWB 1.2</title>
<path fill="none" stroke="black" d="M684.897,-719.697C684.897,-711.983 684.897,-702.712 684.897,-694.112"/>
<polygon fill="black" stroke="black" points="688.397,-694.104 684.897,-684.104 681.397,-694.104 688.397,-694.104"/>
</g>
<!-- USG 1.0 -->
<g id="node34" class="node"><title>USG 1.0</title>
<ellipse fill="#b2dfee" stroke="#b2dfee" cx="789.897" cy="-666" rx="42.5" ry="18"/>
<text text-anchor="middle" x="789.897" y="-662.3" font-family="Times,serif" font-size="14.00">USG 1.0</text>
</g>
<!-- PWB 1.0&#45;&gt;USG 1.0 -->
<g id="edge37" class="edge"><title>PWB 1.0&#45;&gt;USG 1.0</title>
<path fill="none" stroke="black" d="M706.909,-722.326C722.169,-712.152 742.689,-698.472 759.506,-687.261"/>
<polygon fill="black" stroke="black" points="761.536,-690.114 767.915,-681.655 757.653,-684.29 761.536,-690.114"/>
</g>
<!-- 2 BSD -->
<g id="node20" class="node"><title>2 BSD</title>
<ellipse fill="#b2dfee" stroke="#b2dfee" cx="90.8973" cy="-306" rx="35" ry="18"/>
<text text-anchor="middle" x="90.8973" y="-302.3" font-family="Times,serif" font-size="14.00">2 BSD</text>
</g>
<!-- 1 BSD&#45;&gt;2 BSD -->
<g id="edge20" class="edge"><title>1 BSD&#45;&gt;2 BSD</title>
<path fill="none" stroke="black" d="M126.961,-647.653C120.76,-588.913 101.369,-405.201 93.8851,-334.305"/>
<polygon fill="black" stroke="black" points="97.3606,-333.888 92.8301,-324.31 90.3993,-334.623 97.3606,-333.888"/>
</g>
<!-- Unix/TS 3.0 -->
<g id="node9" class="node"><title>Unix/TS 3.0</title>
<ellipse fill="#b2dfee" stroke="#b2dfee" cx="624.897" cy="-450" rx="55.5" ry="18"/>
<text text-anchor="middle" x="624.897" y="-446.3" font-family="Times,serif" font-size="14.00">Unix/TS 3.0</text>
</g>
<!-- Interdata&#45;&gt;Unix/TS 3.0 -->
<g id="edge8" class="edge"><title>Interdata&#45;&gt;Unix/TS 3.0</title>
<path fill="none" stroke="black" d="M287.779,-651.153C350.739,-613.586 516.543,-514.653 589.54,-471.097"/>
<polygon fill="black" stroke="black" points="591.588,-473.951 598.382,-465.821 588.001,-467.94 591.588,-473.951"/>
</g>
<!-- PWB 2.0 -->
<g id="node10" class="node"><title>PWB 2.0</title>
<ellipse fill="#b2dfee" stroke="#b2dfee" cx="565.897" cy="-594" rx="44.393" ry="18"/>
<text text-anchor="middle" x="565.897" y="-590.3" font-family="Times,serif" font-size="14.00">PWB 2.0</text>
</g>
<!-- Interdata&#45;&gt;PWB 2.0 -->
<g id="edge9" class="edge"><title>Interdata&#45;&gt;PWB 2.0</title>
<path fill="none" stroke="black" d="M299.446,-656.556C354.202,-643.907 457.556,-620.029 518.191,-606.021"/>
<polygon fill="black" stroke="black" points="519.313,-609.354 528.268,-603.693 517.737,-602.534 519.313,-609.354"/>
</g>
<!-- 7th Edition -->
<g id="node11" class="node"><title>7th Edition</title>
<ellipse fill="#b2dfee" stroke="#b2dfee" cx="262.897" cy="-594" rx="51" ry="18"/>
<text text-anchor="middle" x="262.897" y="-590.3" font-family="Times,serif" font-size="14.00">7th Edition</text>
</g>
<!-- Interdata&#45;&gt;7th Edition -->
<g id="edge10" class="edge"><title>Interdata&#45;&gt;7th Edition</title>
<path fill="none" stroke="black" d="M262.897,-647.697C262.897,-639.983 262.897,-630.712 262.897,-622.112"/>
<polygon fill="black" stroke="black" points="266.397,-622.104 262.897,-612.104 259.397,-622.104 266.397,-622.104"/>
</g>
<!-- TS 4.0 -->
<g id="node43" class="node"><title>TS 4.0</title>
<ellipse fill="#b2dfee" stroke="#b2dfee" cx="683.897" cy="-306" rx="35" ry="18"/>
<text text-anchor="middle" x="683.897" y="-302.3" font-family="Times,serif" font-size="14.00">TS 4.0</text>
</g>
<!-- Unix/TS 3.0&#45;&gt;TS 4.0 -->
<g id="edge49" class="edge"><title>Unix/TS 3.0&#45;&gt;TS 4.0</title>
<path fill="none" stroke="black" d="M632.25,-432.053C642.419,-407.235 660.862,-362.222 672.735,-333.243"/>
<polygon fill="black" stroke="black" points="676.084,-334.301 676.637,-323.72 669.607,-331.647 676.084,-334.301"/>
</g>
<!-- PWB 2.0&#45;&gt;Unix/TS 3.0 -->
<g id="edge47" class="edge"><title>PWB 2.0&#45;&gt;Unix/TS 3.0</title>
<path fill="none" stroke="black" d="M573.25,-576.053C583.364,-551.37 601.662,-506.711 613.541,-477.717"/>
<polygon fill="black" stroke="black" points="616.899,-478.753 617.452,-468.173 610.421,-476.099 616.899,-478.753"/>
</g>
<!-- 8th Edition -->
<g id="node12" class="node"><title>8th Edition</title>
<ellipse fill="#b2dfee" stroke="#b2dfee" cx="466.897" cy="-234" rx="51" ry="18"/>
<text text-anchor="middle" x="466.897" y="-230.3" font-family="Times,serif" font-size="14.00">8th Edition</text>
</g>
<!-- 7th Edition&#45;&gt;8th Edition -->
<g id="edge11" class="edge"><title>7th Edition&#45;&gt;8th Edition</title>
<path fill="none" stroke="black" d="M273.014,-576.148C306.185,-517.61 411.8,-331.23 451.561,-261.064"/>
<polygon fill="black" stroke="black" points="454.835,-262.386 456.72,-251.96 448.745,-258.935 454.835,-262.386"/>
</g>
<!-- 32V -->
<g id="node13" class="node"><title>32V</title>
<ellipse fill="#b2dfee" stroke="#b2dfee" cx="400.897" cy="-522" rx="27" ry="18"/>
<text text-anchor="middle" x="400.897" y="-518.3" font-family="Times,serif" font-size="14.00">32V</text>
</g>
<!-- 7th Edition&#45;&gt;32V -->
<g id="edge12" class="edge"><title>7th Edition&#45;&gt;32V</title>
<path fill="none" stroke="black" d="M290.824,-578.834C314.046,-567.055 347.028,-550.325 370.826,-538.253"/>
<polygon fill="black" stroke="black" points="372.439,-541.36 379.774,-533.715 369.272,-535.117 372.439,-541.36"/>
</g>
<!-- V7M -->
<g id="node14" class="node"><title>V7M</title>
<ellipse fill="#b2dfee" stroke="#b2dfee" cx="29.8973" cy="-450" rx="29.795" ry="18"/>
<text text-anchor="middle" x="29.8973" y="-446.3" font-family="Times,serif" font-size="14.00">V7M</text>
</g>
<!-- 7th Edition&#45;&gt;V7M -->
<g id="edge13" class="edge"><title>7th Edition&#45;&gt;V7M</title>
<path fill="none" stroke="black" d="M237.519,-578.315C194.063,-551.459 105.636,-496.809 59.4641,-468.273"/>
<polygon fill="black" stroke="black" points="61.1656,-465.21 50.8189,-462.93 57.4854,-471.165 61.1656,-465.21"/>
</g>
<!-- Ultrix&#45;11 -->
<g id="node15" class="node"><title>Ultrix&#45;11</title>
<ellipse fill="#b2dfee" stroke="#b2dfee" cx="119.897" cy="-162" rx="44.5" ry="18"/>
<text text-anchor="middle" x="119.897" y="-158.3" font-family="Times,serif" font-size="14.00">Ultrix&#45;11</text>
</g>
<!-- 7th Edition&#45;&gt;Ultrix&#45;11 -->
<g id="edge14" class="edge"><title>7th Edition&#45;&gt;Ultrix&#45;11</title>
<path fill="none" stroke="black" d="M256.935,-575.987C234.631,-508.607 156.016,-271.112 129.053,-189.659"/>
<polygon fill="black" stroke="black" points="132.351,-188.483 125.885,-180.089 125.705,-190.683 132.351,-188.483"/>
</g>
<!-- Xenix -->
<g id="node16" class="node"><title>Xenix</title>
<ellipse fill="#b2dfee" stroke="#b2dfee" cx="214.897" cy="-522" rx="33" ry="18"/>
<text text-anchor="middle" x="214.897" y="-518.3" font-family="Times,serif" font-size="14.00">Xenix</text>
</g>
<!-- 7th Edition&#45;&gt;Xenix -->
<g id="edge15" class="edge"><title>7th Edition&#45;&gt;Xenix</title>
<path fill="none" stroke="black" d="M251.522,-576.411C245.579,-567.744 238.192,-556.971 231.612,-547.375"/>
<polygon fill="black" stroke="black" points="234.403,-545.256 225.861,-538.988 228.629,-549.215 234.403,-545.256"/>
</g>
<!-- UniPlus+ -->
<g id="node17" class="node"><title>UniPlus+</title>
<ellipse fill="#b2dfee" stroke="#b2dfee" cx="310.897" cy="-522" rx="45" ry="18"/>
<text text-anchor="middle" x="310.897" y="-518.3" font-family="Times,serif" font-size="14.00">UniPlus+</text>
</g>
<!-- 7th Edition&#45;&gt;UniPlus+ -->
<g id="edge16" class="edge"><title>7th Edition&#45;&gt;UniPlus+</title>
<path fill="none" stroke="black" d="M274.273,-576.411C280.131,-567.868 287.392,-557.278 293.9,-547.787"/>
<polygon fill="black" stroke="black" points="296.835,-549.697 299.604,-539.47 291.062,-545.738 296.835,-549.697"/>
</g>
<!-- 9th Edition -->
<g id="node18" class="node"><title>9th Edition</title>
<ellipse fill="#b2dfee" stroke="#b2dfee" cx="543.897" cy="-162" rx="51" ry="18"/>
<text text-anchor="middle" x="543.897" y="-158.3" font-family="Times,serif" font-size="14.00">9th Edition</text>
</g>
<!-- 8th Edition&#45;&gt;9th Edition -->
<g id="edge18" class="edge"><title>8th Edition&#45;&gt;9th Edition</title>
<path fill="none" stroke="black" d="M484.756,-216.765C494.766,-207.665 507.419,-196.162 518.45,-186.134"/>
<polygon fill="black" stroke="black" points="521.09,-188.464 526.135,-179.147 516.382,-183.284 521.09,-188.464"/>
</g>
<!-- 3 BSD -->
<g id="node23" class="node"><title>3 BSD</title>
<ellipse fill="#b2dfee" stroke="#b2dfee" cx="380.897" cy="-450" rx="35" ry="18"/>
<text text-anchor="middle" x="380.897" y="-446.3" font-family="Times,serif" font-size="14.00">3 BSD</text>
</g>
<!-- 32V&#45;&gt;3 BSD -->
<g id="edge24" class="edge"><title>32V&#45;&gt;3 BSD</title>
<path fill="none" stroke="black" d="M396.056,-504.055C393.829,-496.261 391.132,-486.822 388.634,-478.079"/>
<polygon fill="black" stroke="black" points="391.946,-476.929 385.833,-468.275 385.215,-478.852 391.946,-476.929"/>
</g>
<!-- V7M&#45;&gt;Ultrix&#45;11 -->
<g id="edge17" class="edge"><title>V7M&#45;&gt;Ultrix&#45;11</title>
<path fill="none" stroke="black" d="M35.5273,-431.984C50.7746,-383.193 92.9481,-248.238 111.243,-189.693"/>
<polygon fill="black" stroke="black" points="114.627,-190.598 114.27,-180.009 107.946,-188.51 114.627,-190.598"/>
</g>
<!-- 10th Edition -->
<g id="node19" class="node"><title>10th Edition</title>
<ellipse fill="#b2dfee" stroke="#b2dfee" cx="545.897" cy="-90" rx="55.5" ry="18"/>
<text text-anchor="middle" x="545.897" y="-86.3" font-family="Times,serif" font-size="14.00">10th Edition</text>
</g>
<!-- 9th Edition&#45;&gt;10th Edition -->
<g id="edge19" class="edge"><title>9th Edition&#45;&gt;10th Edition</title>
<path fill="none" stroke="black" d="M544.392,-143.697C544.612,-135.983 544.877,-126.712 545.123,-118.112"/>
<polygon fill="black" stroke="black" points="548.622,-118.2 545.409,-108.104 541.624,-118 548.622,-118.2"/>
</g>
<!-- 2.8 BSD -->
<g id="node21" class="node"><title>2.8 BSD</title>
<ellipse fill="#b2dfee" stroke="#b2dfee" cx="223.897" cy="-234" rx="42" ry="18"/>
<text text-anchor="middle" x="223.897" y="-230.3" font-family="Times,serif" font-size="14.00">2.8 BSD</text>
</g>
<!-- 2 BSD&#45;&gt;2.8 BSD -->
<g id="edge21" class="edge"><title>2 BSD&#45;&gt;2.8 BSD</title>
<path fill="none" stroke="black" d="M114.369,-292.647C135.173,-281.697 165.822,-265.566 189.412,-253.15"/>
<polygon fill="black" stroke="black" points="191.175,-256.178 198.394,-248.423 187.914,-249.983 191.175,-256.178"/>
</g>
<!-- 2.8 BSD&#45;&gt;Ultrix&#45;11 -->
<g id="edge22" class="edge"><title>2.8 BSD&#45;&gt;Ultrix&#45;11</title>
<path fill="none" stroke="black" d="M202.348,-218.496C187.25,-208.334 166.864,-194.612 150.14,-183.356"/>
<polygon fill="black" stroke="black" points="152.027,-180.407 141.776,-177.726 148.118,-186.214 152.027,-180.407"/>
</g>
<!-- 2.9 BSD -->
<g id="node22" class="node"><title>2.9 BSD</title>
<ellipse fill="#b2dfee" stroke="#b2dfee" cx="223.897" cy="-162" rx="42" ry="18"/>
<text text-anchor="middle" x="223.897" y="-158.3" font-family="Times,serif" font-size="14.00">2.9 BSD</text>
</g>
<!-- 2.8 BSD&#45;&gt;2.9 BSD -->
<g id="edge23" class="edge"><title>2.8 BSD&#45;&gt;2.9 BSD</title>
<path fill="none" stroke="black" d="M223.897,-215.697C223.897,-207.983 223.897,-198.712 223.897,-190.112"/>
<polygon fill="black" stroke="black" points="227.397,-190.104 223.897,-180.104 220.397,-190.104 227.397,-190.104"/>
</g>
<!-- 4 BSD -->
<g id="node24" class="node"><title>4 BSD</title>
<ellipse fill="#b2dfee" stroke="#b2dfee" cx="377.897" cy="-378" rx="35" ry="18"/>
<text text-anchor="middle" x="377.897" y="-374.3" font-family="Times,serif" font-size="14.00">4 BSD</text>
</g>
<!-- 3 BSD&#45;&gt;4 BSD -->
<g id="edge25" class="edge"><title>3 BSD&#45;&gt;4 BSD</title>
<path fill="none" stroke="black" d="M380.156,-431.697C379.825,-423.983 379.428,-414.712 379.059,-406.112"/>
<polygon fill="black" stroke="black" points="382.555,-405.945 378.63,-396.104 375.562,-406.245 382.555,-405.945"/>
</g>
<!-- 4.1 BSD -->
<g id="node25" class="node"><title>4.1 BSD</title>
<ellipse fill="#b2dfee" stroke="#b2dfee" cx="375.897" cy="-306" rx="42" ry="18"/>
<text text-anchor="middle" x="375.897" y="-302.3" font-family="Times,serif" font-size="14.00">4.1 BSD</text>
</g>
<!-- 4 BSD&#45;&gt;4.1 BSD -->
<g id="edge26" class="edge"><title>4 BSD&#45;&gt;4.1 BSD</title>
<path fill="none" stroke="black" d="M377.403,-359.697C377.183,-351.983 376.918,-342.712 376.672,-334.112"/>
<polygon fill="black" stroke="black" points="380.17,-334 376.386,-324.104 373.173,-334.2 380.17,-334"/>
</g>
<!-- 4.1 BSD&#45;&gt;8th Edition -->
<g id="edge29" class="edge"><title>4.1 BSD&#45;&gt;8th Edition</title>
<path fill="none" stroke="black" d="M395.643,-289.811C408.11,-280.221 424.424,-267.672 438.295,-257.002"/>
<polygon fill="black" stroke="black" points="440.768,-259.515 446.56,-250.644 436.5,-253.967 440.768,-259.515"/>
</g>
<!-- 4.1 BSD&#45;&gt;2.8 BSD -->
<g id="edge28" class="edge"><title>4.1 BSD&#45;&gt;2.8 BSD</title>
<path fill="none" stroke="black" d="M348.371,-292.324C323.806,-281.01 287.644,-264.357 260.619,-251.911"/>
<polygon fill="black" stroke="black" points="262.022,-248.704 251.475,-247.7 259.094,-255.062 262.022,-248.704"/>
</g>
<!-- 4.2 BSD -->
<g id="node26" class="node"><title>4.2 BSD</title>
<ellipse fill="#b2dfee" stroke="#b2dfee" cx="355.897" cy="-234" rx="42" ry="18"/>
<text text-anchor="middle" x="355.897" y="-230.3" font-family="Times,serif" font-size="14.00">4.2 BSD</text>
</g>
<!-- 4.1 BSD&#45;&gt;4.2 BSD -->
<g id="edge27" class="edge"><title>4.1 BSD&#45;&gt;4.2 BSD</title>
<path fill="none" stroke="black" d="M371.056,-288.055C368.829,-280.261 366.132,-270.822 363.634,-262.079"/>
<polygon fill="black" stroke="black" points="366.946,-260.929 360.833,-252.275 360.215,-262.852 366.946,-260.929"/>
</g>
<!-- 4.3 BSD -->
<g id="node27" class="node"><title>4.3 BSD</title>
<ellipse fill="#b2dfee" stroke="#b2dfee" cx="431.897" cy="-162" rx="42" ry="18"/>
<text text-anchor="middle" x="431.897" y="-158.3" font-family="Times,serif" font-size="14.00">4.3 BSD</text>
</g>
<!-- 4.2 BSD&#45;&gt;4.3 BSD -->
<g id="edge30" class="edge"><title>4.2 BSD&#45;&gt;4.3 BSD</title>
<path fill="none" stroke="black" d="M372.764,-217.465C382.926,-208.105 396.045,-196.022 407.343,-185.616"/>
<polygon fill="black" stroke="black" points="409.831,-188.083 414.815,-178.734 405.088,-182.934 409.831,-188.083"/>
</g>
<!-- Ultrix&#45;32 -->
<g id="node28" class="node"><title>Ultrix&#45;32</title>
<ellipse fill="#b2dfee" stroke="#b2dfee" cx="327.897" cy="-162" rx="44.5" ry="18"/>
<text text-anchor="middle" x="327.897" y="-158.3" font-family="Times,serif" font-size="14.00">Ultrix&#45;32</text>
</g>
<!-- 4.2 BSD&#45;&gt;Ultrix&#45;32 -->
<g id="edge31" class="edge"><title>4.2 BSD&#45;&gt;Ultrix&#45;32</title>
<path fill="none" stroke="black" d="M349.119,-216.055C345.968,-208.176 342.144,-198.617 338.615,-189.794"/>
<polygon fill="black" stroke="black" points="341.771,-188.26 334.807,-180.275 335.272,-190.86 341.771,-188.26"/>
</g>
<!-- 4.4 BSD -->
<g id="node29" class="node"><title>4.4 BSD</title>
<ellipse fill="#b2dfee" stroke="#b2dfee" cx="430.897" cy="-90" rx="42" ry="18"/>
<text text-anchor="middle" x="430.897" y="-86.3" font-family="Times,serif" font-size="14.00">4.4 BSD</text>
</g>
<!-- 4.3 BSD&#45;&gt;4.4 BSD -->
<g id="edge32" class="edge"><title>4.3 BSD&#45;&gt;4.4 BSD</title>
<path fill="none" stroke="black" d="M431.65,-143.697C431.54,-135.983 431.408,-126.712 431.285,-118.112"/>
<polygon fill="black" stroke="black" points="434.784,-118.053 431.142,-108.104 427.785,-118.153 434.784,-118.053"/>
</g>
<!-- FreeBSD -->
<g id="node30" class="node"><title>FreeBSD</title>
<ellipse fill="#b2dfee" stroke="#b2dfee" cx="326.897" cy="-18" rx="44.5" ry="18"/>
<text text-anchor="middle" x="326.897" y="-14.3" font-family="Times,serif" font-size="14.00">FreeBSD</text>
</g>
<!-- 4.4 BSD&#45;&gt;FreeBSD -->
<g id="edge33" class="edge"><title>4.4 BSD&#45;&gt;FreeBSD</title>
<path fill="none" stroke="black" d="M409.348,-74.496C394.25,-64.3337 373.864,-50.6122 357.14,-39.3559"/>
<polygon fill="black" stroke="black" points="359.027,-36.4065 348.776,-33.7263 355.118,-42.2137 359.027,-36.4065"/>
</g>
<!-- NetBSD -->
<g id="node31" class="node"><title>NetBSD</title>
<ellipse fill="#b2dfee" stroke="#b2dfee" cx="430.897" cy="-18" rx="41.5" ry="18"/>
<text text-anchor="middle" x="430.897" y="-14.3" font-family="Times,serif" font-size="14.00">NetBSD</text>
</g>
<!-- 4.4 BSD&#45;&gt;NetBSD -->
<g id="edge34" class="edge"><title>4.4 BSD&#45;&gt;NetBSD</title>
<path fill="none" stroke="black" d="M430.897,-71.6966C430.897,-63.9827 430.897,-54.7125 430.897,-46.1124"/>
<polygon fill="black" stroke="black" points="434.397,-46.1043 430.897,-36.1043 427.397,-46.1044 434.397,-46.1043"/>
</g>
<!-- OpenBSD -->
<g id="node32" class="node"><title>OpenBSD</title>
<ellipse fill="#b2dfee" stroke="#b2dfee" cx="538.897" cy="-18" rx="48" ry="18"/>
<text text-anchor="middle" x="538.897" y="-14.3" font-family="Times,serif" font-size="14.00">OpenBSD</text>
</g>
<!-- 4.4 BSD&#45;&gt;OpenBSD -->
<g id="edge35" class="edge"><title>4.4 BSD&#45;&gt;OpenBSD</title>
<path fill="none" stroke="black" d="M453.013,-74.6655C468.569,-64.5833 489.624,-50.9367 506.993,-39.6788"/>
<polygon fill="black" stroke="black" points="509.203,-42.417 515.691,-34.0409 505.396,-36.5429 509.203,-42.417"/>
</g>
<!-- PWB 1.2&#45;&gt;PWB 2.0 -->
<g id="edge38" class="edge"><title>PWB 1.2&#45;&gt;PWB 2.0</title>
<path fill="none" stroke="black" d="M660.816,-650.834C642.912,-640.303 618.281,-625.814 598.597,-614.235"/>
<polygon fill="black" stroke="black" points="600.337,-611.198 589.943,-609.144 596.788,-617.232 600.337,-611.198"/>
</g>
<!-- CB Unix 1 -->
<g id="node35" class="node"><title>CB Unix 1</title>
<ellipse fill="#b2dfee" stroke="#b2dfee" cx="845.897" cy="-594" rx="50" ry="18"/>
<text text-anchor="middle" x="845.897" y="-590.3" font-family="Times,serif" font-size="14.00">CB Unix 1</text>
</g>
<!-- USG 1.0&#45;&gt;CB Unix 1 -->
<g id="edge39" class="edge"><title>USG 1.0&#45;&gt;CB Unix 1</title>
<path fill="none" stroke="black" d="M802.886,-648.765C809.783,-640.143 818.406,-629.365 826.116,-619.727"/>
<polygon fill="black" stroke="black" points="829.077,-621.629 832.591,-611.633 823.611,-617.256 829.077,-621.629"/>
</g>
<!-- USG 2.0 -->
<g id="node36" class="node"><title>USG 2.0</title>
<ellipse fill="#b2dfee" stroke="#b2dfee" cx="705.897" cy="-594" rx="42.5" ry="18"/>
<text text-anchor="middle" x="705.897" y="-590.3" font-family="Times,serif" font-size="14.00">USG 2.0</text>
</g>
<!-- USG 1.0&#45;&gt;USG 2.0 -->
<g id="edge40" class="edge"><title>USG 1.0&#45;&gt;USG 2.0</title>
<path fill="none" stroke="black" d="M771.255,-649.465C759.757,-639.883 744.834,-627.447 732.151,-616.878"/>
<polygon fill="black" stroke="black" points="734.121,-613.964 724.199,-610.251 729.64,-619.342 734.121,-613.964"/>
</g>
<!-- CB Unix 2 -->
<g id="node37" class="node"><title>CB Unix 2</title>
<ellipse fill="#b2dfee" stroke="#b2dfee" cx="864.897" cy="-522" rx="50" ry="18"/>
<text text-anchor="middle" x="864.897" y="-518.3" font-family="Times,serif" font-size="14.00">CB Unix 2</text>
</g>
<!-- CB Unix 1&#45;&gt;CB Unix 2 -->
<g id="edge41" class="edge"><title>CB Unix 1&#45;&gt;CB Unix 2</title>
<path fill="none" stroke="black" d="M850.497,-576.055C852.612,-568.261 855.174,-558.822 857.547,-550.079"/>
<polygon fill="black" stroke="black" points="860.967,-550.843 860.208,-540.275 854.211,-549.009 860.967,-550.843"/>
</g>
<!-- USG 3.0 -->
<g id="node41" class="node"><title>USG 3.0</title>
<ellipse fill="#b2dfee" stroke="#b2dfee" cx="624.897" cy="-522" rx="42.5" ry="18"/>
<text text-anchor="middle" x="624.897" y="-518.3" font-family="Times,serif" font-size="14.00">USG 3.0</text>
</g>
<!-- USG 2.0&#45;&gt;USG 3.0 -->
<g id="edge45" class="edge"><title>USG 2.0&#45;&gt;USG 3.0</title>
<path fill="none" stroke="black" d="M687.921,-577.465C676.91,-567.949 662.642,-555.619 650.467,-545.097"/>
<polygon fill="black" stroke="black" points="652.678,-542.382 642.824,-538.492 648.101,-547.679 652.678,-542.382"/>
</g>
<!-- CB Unix 3 -->
<g id="node38" class="node"><title>CB Unix 3</title>
<ellipse fill="#b2dfee" stroke="#b2dfee" cx="806.897" cy="-450" rx="50" ry="18"/>
<text text-anchor="middle" x="806.897" y="-446.3" font-family="Times,serif" font-size="14.00">CB Unix 3</text>
</g>
<!-- CB Unix 2&#45;&gt;CB Unix 3 -->
<g id="edge42" class="edge"><title>CB Unix 2&#45;&gt;CB Unix 3</title>
<path fill="none" stroke="black" d="M851.152,-504.411C843.929,-495.693 834.941,-484.845 826.955,-475.208"/>
<polygon fill="black" stroke="black" points="829.619,-472.937 820.544,-467.47 824.229,-477.403 829.619,-472.937"/>
</g>
<!-- Unix/TS++ -->
<g id="node39" class="node"><title>Unix/TS++</title>
<ellipse fill="#b2dfee" stroke="#b2dfee" cx="764.897" cy="-378" rx="52.5" ry="18"/>
<text text-anchor="middle" x="764.897" y="-374.3" font-family="Times,serif" font-size="14.00">Unix/TS++</text>
</g>
<!-- CB Unix 3&#45;&gt;Unix/TS++ -->
<g id="edge43" class="edge"><title>CB Unix 3&#45;&gt;Unix/TS++</title>
<path fill="none" stroke="black" d="M796.73,-432.055C791.778,-423.801 785.718,-413.701 780.22,-404.538"/>
<polygon fill="black" stroke="black" points="783.117,-402.563 774.971,-395.789 777.115,-406.165 783.117,-402.563"/>
</g>
<!-- PDP&#45;11 Sys V -->
<g id="node40" class="node"><title>PDP&#45;11 Sys V</title>
<ellipse fill="#b2dfee" stroke="#b2dfee" cx="898.897" cy="-378" rx="63.5" ry="18"/>
<text text-anchor="middle" x="898.897" y="-374.3" font-family="Times,serif" font-size="14.00">PDP&#45;11 Sys V</text>
</g>
<!-- CB Unix 3&#45;&gt;PDP&#45;11 Sys V -->
<g id="edge44" class="edge"><title>CB Unix 3&#45;&gt;PDP&#45;11 Sys V</title>
<path fill="none" stroke="black" d="M827.315,-433.465C839.678,-424.058 855.655,-411.902 869.377,-401.461"/>
<polygon fill="black" stroke="black" points="871.739,-404.062 877.578,-395.222 867.5,-398.491 871.739,-404.062"/>
</g>
<!-- CB Unix 3&#45;&gt;TS 4.0 -->
<g id="edge51" class="edge"><title>CB Unix 3&#45;&gt;TS 4.0</title>
<path fill="none" stroke="black" d="M792.061,-432.63C770.218,-407.058 729.323,-359.181 704.555,-330.185"/>
<polygon fill="black" stroke="black" points="707.183,-327.872 698.027,-322.542 701.86,-332.419 707.183,-327.872"/>
</g>
<!-- Unix/TS++&#45;&gt;TS 4.0 -->
<g id="edge50" class="edge"><title>Unix/TS++&#45;&gt;TS 4.0</title>
<path fill="none" stroke="black" d="M746.517,-361.116C735.337,-351.454 720.912,-338.988 708.725,-328.456"/>
<polygon fill="black" stroke="black" points="710.952,-325.754 701.097,-321.864 706.375,-331.051 710.952,-325.754"/>
</g>
<!-- USG 3.0&#45;&gt;Unix/TS 3.0 -->
<g id="edge46" class="edge"><title>USG 3.0&#45;&gt;Unix/TS 3.0</title>
<path fill="none" stroke="black" d="M624.897,-503.697C624.897,-495.983 624.897,-486.712 624.897,-478.112"/>
<polygon fill="black" stroke="black" points="628.397,-478.104 624.897,-468.104 621.397,-478.104 628.397,-478.104"/>
</g>
<!-- Unix/TS 1.0 -->
<g id="node42" class="node"><title>Unix/TS 1.0</title>
<ellipse fill="#b2dfee" stroke="#b2dfee" cx="740.897" cy="-522" rx="55.5" ry="18"/>
<text text-anchor="middle" x="740.897" y="-518.3" font-family="Times,serif" font-size="14.00">Unix/TS 1.0</text>
</g>
<!-- Unix/TS 1.0&#45;&gt;Unix/TS 3.0 -->
<g id="edge48" class="edge"><title>Unix/TS 1.0&#45;&gt;Unix/TS 3.0</title>
<path fill="none" stroke="black" d="M715.727,-505.811C699.006,-495.721 676.857,-482.355 658.618,-471.348"/>
<polygon fill="black" stroke="black" points="660.389,-468.329 650.018,-466.159 656.772,-474.323 660.389,-468.329"/>
</g>
<!-- System V.0 -->
<g id="node44" class="node"><title>System V.0</title>
<ellipse fill="#b2dfee" stroke="#b2dfee" cx="683.897" cy="-234" rx="53" ry="18"/>
<text text-anchor="middle" x="683.897" y="-230.3" font-family="Times,serif" font-size="14.00">System V.0</text>
</g>
<!-- TS 4.0&#45;&gt;System V.0 -->
<g id="edge52" class="edge"><title>TS 4.0&#45;&gt;System V.0</title>
<path fill="none" stroke="black" d="M683.897,-287.697C683.897,-279.983 683.897,-270.712 683.897,-262.112"/>
<polygon fill="black" stroke="black" points="687.397,-262.104 683.897,-252.104 680.397,-262.104 687.397,-262.104"/>
</g>
<!-- System V.2 -->
<g id="node45" class="node"><title>System V.2</title>
<ellipse fill="#b2dfee" stroke="#b2dfee" cx="683.897" cy="-162" rx="53" ry="18"/>
<text text-anchor="middle" x="683.897" y="-158.3" font-family="Times,serif" font-size="14.00">System V.2</text>
</g>
<!-- System V.0&#45;&gt;System V.2 -->
<g id="edge53" class="edge"><title>System V.0&#45;&gt;System V.2</title>
<path fill="none" stroke="black" d="M683.897,-215.697C683.897,-207.983 683.897,-198.712 683.897,-190.112"/>
<polygon fill="black" stroke="black" points="687.397,-190.104 683.897,-180.104 680.397,-190.104 687.397,-190.104"/>
</g>
<!-- System V.3 -->
<g id="node46" class="node"><title>System V.3</title>
<ellipse fill="#b2dfee" stroke="#b2dfee" cx="683.897" cy="-90" rx="53" ry="18"/>
<text text-anchor="middle" x="683.897" y="-86.3" font-family="Times,serif" font-size="14.00">System V.3</text>
</g>
<!-- System V.2&#45;&gt;System V.3 -->
<g id="edge54" class="edge"><title>System V.2&#45;&gt;System V.3</title>
<path fill="none" stroke="black" d="M683.897,-143.697C683.897,-135.983 683.897,-126.712 683.897,-118.112"/>
<polygon fill="black" stroke="black" points="687.397,-118.104 683.897,-108.104 680.397,-118.104 687.397,-118.104"/>
</g>
<!-- System V.4 -->
<g id="node47" class="node"><title>System V.4</title>
<ellipse fill="#b2dfee" stroke="#b2dfee" cx="683.897" cy="-18" rx="53" ry="18"/>
<text text-anchor="middle" x="683.897" y="-14.3" font-family="Times,serif" font-size="14.00">System V.4</text>
</g>
<!-- System V.3&#45;&gt;System V.4 -->
<g id="edge55" class="edge"><title>System V.3&#45;&gt;System V.4</title>
<path fill="none" stroke="black" d="M683.897,-71.6966C683.897,-63.9827 683.897,-54.7125 683.897,-46.1124"/>
<polygon fill="black" stroke="black" points="687.397,-46.1043 683.897,-36.1043 680.397,-46.1044 687.397,-46.1043"/>
</g>
</g>
</svg>
