<?xml version="1.0" encoding="UTF-8" standalone="no"?>
<!DOCTYPE svg PUBLIC "-//W3C//DTD SVG 1.1//EN"
 "http://www.w3.org/Graphics/SVG/1.1/DTD/svg11.dtd">
<!-- Generated by graphviz version 2.38.0 (20140413.2041)
 -->
<!-- Title: ER Pages: 1 -->
<svg width="330pt" height="652pt"
 viewBox="0.00 0.00 330.48 652.00" xmlns="http://www.w3.org/2000/svg" xmlns:xlink="http://www.w3.org/1999/xlink">
<g id="graph0" class="graph" transform="scale(1 1) rotate(0) translate(4 648)">
<title>ER</title>
<polygon fill="white" stroke="none" points="-4,4 -4,-648 326.475,-648 326.475,4 -4,4"/>
<text text-anchor="middle" x="161.238" y="-32" font-family="Times,serif" font-size="20.00">Entity Relation Diagram</text>
<text text-anchor="middle" x="161.238" y="-10" font-family="Times,serif" font-size="20.00">drawn by NEATO</text>
<!-- course -->
<g id="node1" class="node"><title>course</title>
<polygon fill="none" stroke="black" points="268.547,-571 214.547,-571 214.547,-535 268.547,-535 268.547,-571"/>
<text text-anchor="middle" x="241.547" y="-549.3" font-family="Times,serif" font-size="14.00">course</text>
</g>
<!-- C&#45;I -->
<g id="node10" class="node"><title>C&#45;I</title>
<polygon fill="lightgrey" stroke="lightgrey" points="196.547,-484 164.205,-466 196.547,-448 228.889,-466 196.547,-484"/>
<text text-anchor="middle" x="196.547" y="-462.3" font-family="Times,serif" font-size="14.00">C&#45;I</text>
</g>
<!-- course&#45;&#45;C&#45;I -->
<g id="edge3" class="edge"><title>course&#45;&#45;C&#45;I</title>
<path fill="none" stroke="black" d="M232.441,-534.799C223.914,-518.694 211.354,-494.967 203.575,-480.275"/>
<text text-anchor="middle" x="226.047" y="-505.8" font-family="Times,serif" font-size="14.00">n</text>
</g>
<!-- institute -->
<g id="node2" class="node"><title>institute</title>
<polygon fill="none" stroke="black" points="226.547,-397 166.547,-397 166.547,-361 226.547,-361 226.547,-397"/>
<text text-anchor="middle" x="196.547" y="-375.3" font-family="Times,serif" font-size="14.00">institute</text>
</g>
<!-- name1 -->
<g id="node5" class="node"><title>name1</title>
<ellipse fill="none" stroke="black" cx="117.547" cy="-292" rx="30.5947" ry="18"/>
<text text-anchor="middle" x="117.547" y="-288.3" font-family="Times,serif" font-size="14.00">name</text>
</g>
<!-- institute&#45;&#45;name1 -->
<g id="edge5" class="edge"><title>institute&#45;&#45;name1</title>
<path fill="none" stroke="black" d="M180.56,-360.799C166.223,-345.373 145.388,-322.955 131.657,-308.181"/>
</g>
<!-- S&#45;I -->
<g id="node12" class="node"><title>S&#45;I</title>
<polygon fill="lightgrey" stroke="lightgrey" points="196.547,-310 166.382,-292 196.547,-274 226.713,-292 196.547,-310"/>
<text text-anchor="middle" x="196.547" y="-288.3" font-family="Times,serif" font-size="14.00">S&#45;I</text>
</g>
<!-- institute&#45;&#45;S&#45;I -->
<g id="edge6" class="edge"><title>institute&#45;&#45;S&#45;I</title>
<path fill="none" stroke="black" d="M196.547,-360.799C196.547,-346.052 196.547,-324.915 196.547,-310.175"/>
<text text-anchor="middle" x="200.047" y="-331.8" font-family="Times,serif" font-size="14.00">1</text>
</g>
<!-- student -->
<g id="node3" class="node"><title>student</title>
<polygon fill="none" stroke="black" points="224.547,-223 168.547,-223 168.547,-187 224.547,-187 224.547,-223"/>
<text text-anchor="middle" x="196.547" y="-201.3" font-family="Times,serif" font-size="14.00">student</text>
</g>
<!-- name2 -->
<g id="node6" class="node"><title>name2</title>
<ellipse fill="none" stroke="black" cx="30.5473" cy="-118" rx="30.5947" ry="18"/>
<text text-anchor="middle" x="30.5473" y="-114.3" font-family="Times,serif" font-size="14.00">name</text>
</g>
<!-- student&#45;&#45;name2 -->
<g id="edge9" class="edge"><title>student&#45;&#45;name2</title>
<path fill="none" stroke="black" d="M168.388,-189.581C135.827,-172.908 82.8863,-145.8 52.9779,-130.486"/>
</g>
<!-- grade -->
<g id="node8" class="node"><title>grade</title>
<ellipse fill="none" stroke="black" cx="109.547" cy="-118" rx="30.5947" ry="18"/>
<text text-anchor="middle" x="109.547" y="-114.3" font-family="Times,serif" font-size="14.00">grade</text>
</g>
<!-- student&#45;&#45;grade -->
<g id="edge8" class="edge"><title>student&#45;&#45;grade</title>
<path fill="none" stroke="black" d="M178.942,-186.799C163.053,-171.276 139.918,-148.673 124.801,-133.903"/>
</g>
<!-- number -->
<g id="node9" class="node"><title>number</title>
<ellipse fill="none" stroke="black" cx="196.547" cy="-118" rx="38.1938" ry="18"/>
<text text-anchor="middle" x="196.547" y="-114.3" font-family="Times,serif" font-size="14.00">number</text>
</g>
<!-- student&#45;&#45;number -->
<g id="edge10" class="edge"><title>student&#45;&#45;number</title>
<path fill="none" stroke="black" d="M196.547,-186.799C196.547,-172.052 196.547,-150.915 196.547,-136.175"/>
</g>
<!-- S&#45;C -->
<g id="node11" class="node"><title>S&#45;C</title>
<polygon fill="lightgrey" stroke="lightgrey" points="287.547,-136 252.691,-118 287.547,-100 322.403,-118 287.547,-136"/>
<text text-anchor="middle" x="287.547" y="-114.3" font-family="Times,serif" font-size="14.00">S&#45;C</text>
</g>
<!-- student&#45;&#45;S&#45;C -->
<g id="edge11" class="edge"><title>student&#45;&#45;S&#45;C</title>
<path fill="none" stroke="black" d="M214.962,-186.799C233.14,-169.82 260.384,-144.372 275.805,-129.968"/>
<text text-anchor="middle" x="253.547" y="-157.8" font-family="Times,serif" font-size="14.00">m</text>
</g>
<!-- name0 -->
<g id="node4" class="node"><title>name0</title>
<ellipse fill="none" stroke="black" cx="203.547" cy="-626" rx="30.5947" ry="18"/>
<text text-anchor="middle" x="203.547" y="-622.3" font-family="Times,serif" font-size="14.00">name</text>
</g>
<!-- name0&#45;&#45;course -->
<g id="edge1" class="edge"><title>name0&#45;&#45;course</title>
<path fill="none" stroke="black" d="M212.361,-608.533C218.324,-597.39 226.189,-582.696 232.251,-571.369"/>
</g>
<!-- code -->
<g id="node7" class="node"><title>code</title>
<ellipse fill="none" stroke="black" cx="279.547" cy="-626" rx="27.0966" ry="18"/>
<text text-anchor="middle" x="279.547" y="-622.3" font-family="Times,serif" font-size="14.00">code</text>
</g>
<!-- code&#45;&#45;course -->
<g id="edge2" class="edge"><title>code&#45;&#45;course</title>
<path fill="none" stroke="black" d="M270.925,-608.889C264.881,-597.597 256.816,-582.529 250.666,-571.037"/>
</g>
<!-- C&#45;I&#45;&#45;institute -->
<g id="edge4" class="edge"><title>C&#45;I&#45;&#45;institute</title>
<path fill="none" stroke="black" d="M196.547,-447.799C196.547,-433.052 196.547,-411.915 196.547,-397.175"/>
<text text-anchor="middle" x="200.047" y="-418.8" font-family="Times,serif" font-size="14.00">1</text>
</g>
<!-- S&#45;C&#45;&#45;course -->
<g id="edge12" class="edge"><title>S&#45;C&#45;&#45;course</title>
<path fill="none" stroke="black" d="M285.147,-134.937C282.791,-151.986 279.547,-179.84 279.547,-204 279.547,-467 279.547,-467 279.547,-467 279.547,-492.217 265.436,-518.264 254.412,-534.766"/>
<text text-anchor="middle" x="283.047" y="-331.8" font-family="Times,serif" font-size="14.00">n</text>
</g>
<!-- S&#45;I&#45;&#45;student -->
<g id="edge7" class="edge"><title>S&#45;I&#45;&#45;student</title>
<path fill="none" stroke="black" d="M196.547,-273.799C196.547,-259.052 196.547,-237.915 196.547,-223.175"/>
<text text-anchor="middle" x="200.047" y="-244.8" font-family="Times,serif" font-size="14.00">n</text>
</g>
</g>
</svg>
