<?xml version="1.0" encoding="UTF-8" standalone="no"?>
<!DOCTYPE svg PUBLIC "-//W3C//DTD SVG 1.1//EN"
 "http://www.w3.org/Graphics/SVG/1.1/DTD/svg11.dtd">
<!-- Generated by graphviz version 2.38.0 (20140413.2041)
 -->
<!-- Title: G Pages: 1 -->
<svg width="406pt" height="164pt"
 viewBox="0.00 0.00 406.00 164.00" xmlns="http://www.w3.org/2000/svg" xmlns:xlink="http://www.w3.org/1999/xlink">
<g id="graph0" class="graph" transform="scale(1 1) rotate(0) translate(4 160)">
<title>G</title>
<polygon fill="white" stroke="none" points="-4,4 -4,-160 402,-160 402,4 -4,4"/>
<g id="clust1" class="cluster"><title>clusterA</title>
<polygon fill="none" stroke="black" points="162,-8 162,-148 312,-148 312,-8 162,-8"/>
</g>
<g id="clust2" class="cluster"><title>clusterC</title>
<polygon fill="none" stroke="black" points="234,-16 234,-140 304,-140 304,-16 234,-16"/>
</g>
<g id="clust3" class="cluster"><title>clusterB</title>
<polygon fill="none" stroke="black" points="320,-16 320,-140 390,-140 390,-16 320,-16"/>
</g>
<!-- e -->
<g id="node1" class="node"><title>e</title>
<ellipse fill="none" stroke="black" cx="27" cy="-114" rx="27" ry="18"/>
<text text-anchor="middle" x="27" y="-110.3" font-family="Times,serif" font-size="14.00">e</text>
</g>
<!-- clusterB -->
<g id="node8" class="node"><title>clusterB</title>
<ellipse fill="none" stroke="black" cx="69" cy="-42" rx="40.0939" ry="18"/>
<text text-anchor="middle" x="69" y="-38.3" font-family="Times,serif" font-size="14.00">clusterB</text>
</g>
<!-- e&#45;&#45;clusterB -->
<g id="edge5" class="edge"><title>e&#45;&#45;clusterB</title>
<path fill="none" stroke="black" d="M36.5305,-97.1159C43.2104,-85.9827 52.1238,-71.127 58.9216,-59.7973"/>
</g>
<!-- a -->
<g id="node2" class="node"><title>a</title>
<ellipse fill="none" stroke="black" cx="197" cy="-114" rx="27" ry="18"/>
<text text-anchor="middle" x="197" y="-110.3" font-family="Times,serif" font-size="14.00">a</text>
</g>
<!-- b -->
<g id="node3" class="node"><title>b</title>
<ellipse fill="none" stroke="black" cx="197" cy="-42" rx="27" ry="18"/>
<text text-anchor="middle" x="197" y="-38.3" font-family="Times,serif" font-size="14.00">b</text>
</g>
<!-- a&#45;&#45;b -->
<g id="edge1" class="edge"><title>a&#45;&#45;b</title>
<path fill="none" stroke="black" d="M197,-95.6966C197,-84.8463 197,-70.9167 197,-60.1043"/>
</g>
<!-- C -->
<g id="node4" class="node"><title>C</title>
<ellipse fill="none" stroke="black" cx="269" cy="-114" rx="27" ry="18"/>
<text text-anchor="middle" x="269" y="-110.3" font-family="Times,serif" font-size="14.00">C</text>
</g>
<!-- D -->
<g id="node5" class="node"><title>D</title>
<ellipse fill="none" stroke="black" cx="269" cy="-42" rx="27" ry="18"/>
<text text-anchor="middle" x="269" y="-38.3" font-family="Times,serif" font-size="14.00">D</text>
</g>
<!-- C&#45;&#45;D -->
<g id="edge2" class="edge"><title>C&#45;&#45;D</title>
<path fill="none" stroke="black" d="M269,-95.6966C269,-84.8463 269,-70.9167 269,-60.1043"/>
</g>
<!-- d -->
<g id="node6" class="node"><title>d</title>
<ellipse fill="none" stroke="black" cx="355" cy="-114" rx="27" ry="18"/>
<text text-anchor="middle" x="355" y="-110.3" font-family="Times,serif" font-size="14.00">d</text>
</g>
<!-- d&#45;&#45;D -->
<g id="edge4" class="edge"><title>d&#45;&#45;D</title>
<path fill="none" stroke="black" d="M338.418,-99.5033C323.19,-87.1079 300.743,-68.8376 285.531,-56.4553"/>
</g>
<!-- f -->
<g id="node7" class="node"><title>f</title>
<ellipse fill="none" stroke="black" cx="355" cy="-42" rx="27" ry="18"/>
<text text-anchor="middle" x="355" y="-38.3" font-family="Times,serif" font-size="14.00">f</text>
</g>
<!-- d&#45;&#45;f -->
<g id="edge3" class="edge"><title>d&#45;&#45;f</title>
<path fill="none" stroke="black" d="M355,-95.6966C355,-84.8463 355,-70.9167 355,-60.1043"/>
</g>
<!-- clusterC -->
<g id="node9" class="node"><title>clusterC</title>
<ellipse fill="none" stroke="black" cx="112" cy="-114" rx="40.0939" ry="18"/>
<text text-anchor="middle" x="112" y="-110.3" font-family="Times,serif" font-size="14.00">clusterC</text>
</g>
<!-- clusterC&#45;&#45;clusterB -->
<g id="edge6" class="edge"><title>clusterC&#45;&#45;clusterB</title>
<path fill="none" stroke="black" d="M101.81,-96.411C94.9551,-85.2524 85.9565,-70.6036 79.1173,-59.4699"/>
</g>
</g>
</svg>
