<?xml version="1.0" encoding="UTF-8" standalone="no"?>
<!DOCTYPE svg PUBLIC "-//W3C//DTD SVG 1.1//EN"
 "http://www.w3.org/Graphics/SVG/1.1/DTD/svg11.dtd">
<!-- Generated by graphviz version 2.38.0 (20140413.2041)
 -->
<!-- Title: G Pages: 1 -->
<svg width="576pt" height="250pt"
 viewBox="0.00 0.00 576.00 249.52" xmlns="http://www.w3.org/2000/svg" xmlns:xlink="http://www.w3.org/1999/xlink">
<g id="graph0" class="graph" transform="scale(0.455336 0.455336) rotate(0) translate(4 544)">
<title>G</title>
<polygon fill="white" stroke="none" points="-4,4 -4,-544 1261,-544 1261,4 -4,4"/>
<!-- S8 -->
<g id="node1" class="node"><title>S8</title>
<ellipse fill="none" stroke="black" cx="640" cy="-522" rx="27" ry="18"/>
<text text-anchor="middle" x="640" y="-518.3" font-family="Times,serif" font-size="14.00">S8</text>
</g>
<!-- 9 -->
<g id="node11" class="node"><title>9</title>
<ellipse fill="none" stroke="black" cx="640" cy="-450" rx="27" ry="18"/>
<text text-anchor="middle" x="640" y="-446.3" font-family="Times,serif" font-size="14.00">9</text>
</g>
<!-- S8&#45;&gt;9 -->
<g id="edge1" class="edge"><title>S8&#45;&gt;9</title>
<path fill="none" stroke="black" d="M640,-503.697C640,-495.983 640,-486.712 640,-478.112"/>
<polygon fill="black" stroke="black" points="643.5,-478.104 640,-468.104 636.5,-478.104 643.5,-478.104"/>
</g>
<!-- S24 -->
<g id="node2" class="node"><title>S24</title>
<ellipse fill="none" stroke="black" cx="149" cy="-522" rx="27" ry="18"/>
<text text-anchor="middle" x="149" y="-518.3" font-family="Times,serif" font-size="14.00">S24</text>
</g>
<!-- 27 -->
<g id="node12" class="node"><title>27</title>
<ellipse fill="none" stroke="black" cx="137" cy="-90" rx="27" ry="18"/>
<text text-anchor="middle" x="137" y="-86.3" font-family="Times,serif" font-size="14.00">27</text>
</g>
<!-- S24&#45;&gt;27 -->
<g id="edge2" class="edge"><title>S24&#45;&gt;27</title>
<path fill="none" stroke="black" d="M143.666,-504.148C135.797,-477.753 122,-424.923 122,-379 122,-379 122,-379 122,-233 122,-192.773 128.027,-146.49 132.44,-117.99"/>
<polygon fill="black" stroke="black" points="135.916,-118.415 134.036,-107.988 129.004,-117.311 135.916,-118.415"/>
</g>
<!-- 25 -->
<g id="node13" class="node"><title>25</title>
<ellipse fill="none" stroke="black" cx="177" cy="-450" rx="27" ry="18"/>
<text text-anchor="middle" x="177" y="-446.3" font-family="Times,serif" font-size="14.00">25</text>
</g>
<!-- S24&#45;&gt;25 -->
<g id="edge3" class="edge"><title>S24&#45;&gt;25</title>
<path fill="none" stroke="black" d="M155.636,-504.411C158.913,-496.216 162.944,-486.14 166.618,-476.955"/>
<polygon fill="black" stroke="black" points="169.948,-478.055 170.412,-467.47 163.448,-475.455 169.948,-478.055"/>
</g>
<!-- S1 -->
<g id="node3" class="node"><title>S1</title>
<ellipse fill="none" stroke="black" cx="941" cy="-522" rx="27" ry="18"/>
<text text-anchor="middle" x="941" y="-518.3" font-family="Times,serif" font-size="14.00">S1</text>
</g>
<!-- 10 -->
<g id="node14" class="node"><title>10</title>
<ellipse fill="none" stroke="black" cx="884" cy="-450" rx="27" ry="18"/>
<text text-anchor="middle" x="884" y="-446.3" font-family="Times,serif" font-size="14.00">10</text>
</g>
<!-- S1&#45;&gt;10 -->
<g id="edge4" class="edge"><title>S1&#45;&gt;10</title>
<path fill="none" stroke="black" d="M928.632,-505.811C921.088,-496.546 911.295,-484.52 902.805,-474.094"/>
<polygon fill="black" stroke="black" points="905.372,-471.704 896.344,-466.159 899.944,-476.124 905.372,-471.704"/>
</g>
<!-- 2 -->
<g id="node15" class="node"><title>2</title>
<ellipse fill="none" stroke="black" cx="998" cy="-450" rx="27" ry="18"/>
<text text-anchor="middle" x="998" y="-446.3" font-family="Times,serif" font-size="14.00">2</text>
</g>
<!-- S1&#45;&gt;2 -->
<g id="edge5" class="edge"><title>S1&#45;&gt;2</title>
<path fill="none" stroke="black" d="M953.368,-505.811C960.912,-496.546 970.705,-484.52 979.195,-474.094"/>
<polygon fill="black" stroke="black" points="982.056,-476.124 985.656,-466.159 976.628,-471.704 982.056,-476.124"/>
</g>
<!-- S35 -->
<g id="node4" class="node"><title>S35</title>
<ellipse fill="none" stroke="black" cx="485" cy="-522" rx="27" ry="18"/>
<text text-anchor="middle" x="485" y="-518.3" font-family="Times,serif" font-size="14.00">S35</text>
</g>
<!-- 36 -->
<g id="node16" class="node"><title>36</title>
<ellipse fill="none" stroke="black" cx="535" cy="-450" rx="27" ry="18"/>
<text text-anchor="middle" x="535" y="-446.3" font-family="Times,serif" font-size="14.00">36</text>
</g>
<!-- S35&#45;&gt;36 -->
<g id="edge6" class="edge"><title>S35&#45;&gt;36</title>
<path fill="none" stroke="black" d="M496.097,-505.465C502.505,-496.493 510.701,-485.019 517.916,-474.918"/>
<polygon fill="black" stroke="black" points="520.97,-476.664 523.934,-466.492 515.274,-472.595 520.97,-476.664"/>
</g>
<!-- 43 -->
<g id="node17" class="node"><title>43</title>
<ellipse fill="none" stroke="black" cx="435" cy="-450" rx="27" ry="18"/>
<text text-anchor="middle" x="435" y="-446.3" font-family="Times,serif" font-size="14.00">43</text>
</g>
<!-- S35&#45;&gt;43 -->
<g id="edge7" class="edge"><title>S35&#45;&gt;43</title>
<path fill="none" stroke="black" d="M473.903,-505.465C467.495,-496.493 459.299,-485.019 452.084,-474.918"/>
<polygon fill="black" stroke="black" points="454.726,-472.595 446.066,-466.492 449.03,-476.664 454.726,-472.595"/>
</g>
<!-- S30 -->
<g id="node5" class="node"><title>S30</title>
<ellipse fill="none" stroke="black" cx="1198" cy="-522" rx="27" ry="18"/>
<text text-anchor="middle" x="1198" y="-518.3" font-family="Times,serif" font-size="14.00">S30</text>
</g>
<!-- 31 -->
<g id="node18" class="node"><title>31</title>
<ellipse fill="none" stroke="black" cx="1175" cy="-234" rx="27" ry="18"/>
<text text-anchor="middle" x="1175" y="-230.3" font-family="Times,serif" font-size="14.00">31</text>
</g>
<!-- S30&#45;&gt;31 -->
<g id="edge8" class="edge"><title>S30&#45;&gt;31</title>
<path fill="none" stroke="black" d="M1196.63,-503.966C1192.8,-456.291 1181.93,-321.185 1177.22,-262.63"/>
<polygon fill="black" stroke="black" points="1180.68,-261.994 1176.39,-252.306 1173.7,-262.555 1180.68,-261.994"/>
</g>
<!-- 33 -->
<g id="node19" class="node"><title>33</title>
<ellipse fill="none" stroke="black" cx="1230" cy="-306" rx="27" ry="18"/>
<text text-anchor="middle" x="1230" y="-302.3" font-family="Times,serif" font-size="14.00">33</text>
</g>
<!-- S30&#45;&gt;33 -->
<g id="edge9" class="edge"><title>S30&#45;&gt;33</title>
<path fill="none" stroke="black" d="M1200.56,-503.849C1206.11,-466.74 1219.27,-378.747 1225.95,-334.054"/>
<polygon fill="black" stroke="black" points="1229.45,-334.343 1227.47,-323.935 1222.53,-333.308 1229.45,-334.343"/>
</g>
<!-- T8 -->
<g id="node6" class="node"><title>T8</title>
<ellipse fill="none" stroke="black" cx="27" cy="-18" rx="27" ry="18"/>
<text text-anchor="middle" x="27" y="-14.3" font-family="Times,serif" font-size="14.00">T8</text>
</g>
<!-- T24 -->
<g id="node7" class="node"><title>T24</title>
<ellipse fill="none" stroke="black" cx="270" cy="-18" rx="27" ry="18"/>
<text text-anchor="middle" x="270" y="-14.3" font-family="Times,serif" font-size="14.00">T24</text>
</g>
<!-- T1 -->
<g id="node8" class="node"><title>T1</title>
<ellipse fill="none" stroke="black" cx="672" cy="-18" rx="27" ry="18"/>
<text text-anchor="middle" x="672" y="-14.3" font-family="Times,serif" font-size="14.00">T1</text>
</g>
<!-- T35 -->
<g id="node9" class="node"><title>T35</title>
<ellipse fill="none" stroke="black" cx="132" cy="-18" rx="27" ry="18"/>
<text text-anchor="middle" x="132" y="-14.3" font-family="Times,serif" font-size="14.00">T35</text>
</g>
<!-- T30 -->
<g id="node10" class="node"><title>T30</title>
<ellipse fill="none" stroke="black" cx="1215" cy="-18" rx="27" ry="18"/>
<text text-anchor="middle" x="1215" y="-14.3" font-family="Times,serif" font-size="14.00">T30</text>
</g>
<!-- 9&#45;&gt;T1 -->
<g id="edge11" class="edge"><title>9&#45;&gt;T1</title>
<path fill="none" stroke="black" d="M646.322,-432.227C655.648,-405.937 672,-353.246 672,-307 672,-307 672,-307 672,-161 672,-120.996 672,-74.6528 672,-46.0798"/>
<polygon fill="black" stroke="black" points="675.5,-46.0492 672,-36.0493 668.5,-46.0493 675.5,-46.0492"/>
</g>
<!-- 42 -->
<g id="node20" class="node"><title>42</title>
<ellipse fill="none" stroke="black" cx="507" cy="-378" rx="27" ry="18"/>
<text text-anchor="middle" x="507" y="-374.3" font-family="Times,serif" font-size="14.00">42</text>
</g>
<!-- 9&#45;&gt;42 -->
<g id="edge10" class="edge"><title>9&#45;&gt;42</title>
<path fill="none" stroke="black" d="M619.51,-438.216C597.413,-426.586 562.021,-407.959 536.836,-394.703"/>
<polygon fill="black" stroke="black" points="538.212,-391.472 527.732,-389.912 534.951,-397.666 538.212,-391.472"/>
</g>
<!-- 27&#45;&gt;T24 -->
<g id="edge14" class="edge"><title>27&#45;&gt;T24</title>
<path fill="none" stroke="black" d="M157.49,-78.2159C179.587,-66.5858 214.979,-47.9586 240.164,-34.7031"/>
<polygon fill="black" stroke="black" points="242.049,-37.6664 249.268,-29.9117 238.788,-31.472 242.049,-37.6664"/>
</g>
<!-- 25&#45;&gt;T1 -->
<g id="edge12" class="edge"><title>25&#45;&gt;T1</title>
<path fill="none" stroke="black" d="M174.034,-431.839C164.147,-368.204 139.72,-145.604 267,-72 329.233,-36.0117 546.943,-23.7836 634.808,-20.2539"/>
<polygon fill="black" stroke="black" points="635.003,-23.7491 644.861,-19.8656 634.733,-16.7543 635.003,-23.7491"/>
</g>
<!-- 26 -->
<g id="node21" class="node"><title>26</title>
<ellipse fill="none" stroke="black" cx="253" cy="-378" rx="27" ry="18"/>
<text text-anchor="middle" x="253" y="-374.3" font-family="Times,serif" font-size="14.00">26</text>
</g>
<!-- 25&#45;&gt;26 -->
<g id="edge13" class="edge"><title>25&#45;&gt;26</title>
<path fill="none" stroke="black" d="M192.38,-434.834C203.196,-424.872 217.857,-411.369 230.051,-400.137"/>
<polygon fill="black" stroke="black" points="232.659,-402.494 237.643,-393.144 227.916,-397.345 232.659,-402.494"/>
</g>
<!-- 10&#45;&gt;T1 -->
<g id="edge22" class="edge"><title>10&#45;&gt;T1</title>
<path fill="none" stroke="black" d="M881.033,-431.863C875.028,-395.64 862,-308.577 862,-235 862,-235 862,-235 862,-161 862,-84.4338 761.778,-44.1821 706.913,-27.8832"/>
<polygon fill="black" stroke="black" points="707.807,-24.4988 697.231,-25.1152 705.883,-31.2291 707.807,-24.4988"/>
</g>
<!-- 11 -->
<g id="node26" class="node"><title>11</title>
<ellipse fill="none" stroke="black" cx="617" cy="-378" rx="27" ry="18"/>
<text text-anchor="middle" x="617" y="-374.3" font-family="Times,serif" font-size="14.00">11</text>
</g>
<!-- 10&#45;&gt;11 -->
<g id="edge20" class="edge"><title>10&#45;&gt;11</title>
<path fill="none" stroke="black" d="M859.36,-442.54C811.696,-430.044 706.749,-402.53 651.917,-388.154"/>
<polygon fill="black" stroke="black" points="652.529,-384.697 641.969,-385.546 650.754,-391.468 652.529,-384.697"/>
</g>
<!-- 14 -->
<g id="node27" class="node"><title>14</title>
<ellipse fill="none" stroke="black" cx="767" cy="-306" rx="27" ry="18"/>
<text text-anchor="middle" x="767" y="-302.3" font-family="Times,serif" font-size="14.00">14</text>
</g>
<!-- 10&#45;&gt;14 -->
<g id="edge21" class="edge"><title>10&#45;&gt;14</title>
<path fill="none" stroke="black" d="M877.28,-432.336C869.14,-413.46 854.111,-382.415 835,-360 823.449,-346.452 807.952,-334.052 794.669,-324.658"/>
<polygon fill="black" stroke="black" points="796.551,-321.705 786.324,-318.937 792.593,-327.478 796.551,-321.705"/>
</g>
<!-- 13 -->
<g id="node28" class="node"><title>13</title>
<ellipse fill="none" stroke="black" cx="799" cy="-378" rx="27" ry="18"/>
<text text-anchor="middle" x="799" y="-374.3" font-family="Times,serif" font-size="14.00">13</text>
</g>
<!-- 10&#45;&gt;13 -->
<g id="edge23" class="edge"><title>10&#45;&gt;13</title>
<path fill="none" stroke="black" d="M867.611,-435.503C855.029,-425.142 837.462,-410.674 823.253,-398.973"/>
<polygon fill="black" stroke="black" points="825.283,-396.111 815.339,-392.455 820.833,-401.514 825.283,-396.111"/>
</g>
<!-- 12 -->
<g id="node29" class="node"><title>12</title>
<ellipse fill="none" stroke="black" cx="917" cy="-306" rx="27" ry="18"/>
<text text-anchor="middle" x="917" y="-302.3" font-family="Times,serif" font-size="14.00">12</text>
</g>
<!-- 10&#45;&gt;12 -->
<g id="edge24" class="edge"><title>10&#45;&gt;12</title>
<path fill="none" stroke="black" d="M909.458,-443.264C933.171,-436.421 967.173,-422.426 983,-396 991.221,-382.274 989.918,-374.427 983,-360 975.443,-344.239 960.66,-331.682 946.997,-322.755"/>
<polygon fill="black" stroke="black" points="948.625,-319.647 938.268,-317.415 944.972,-325.619 948.625,-319.647"/>
</g>
<!-- 2&#45;&gt;T1 -->
<g id="edge18" class="edge"><title>2&#45;&gt;T1</title>
<path fill="none" stroke="black" d="M1014.89,-435.484C1039.28,-414.668 1082.95,-372.096 1097,-324 1101.49,-308.642 1102.45,-303.044 1097,-288 1089.91,-268.417 1078.07,-269.642 1067,-252 1038.99,-207.351 1056.11,-180.415 1018,-144 929.059,-59.0095 778.086,-31.1496 708.776,-22.5637"/>
<polygon fill="black" stroke="black" points="709.106,-19.0786 698.766,-21.3887 708.29,-26.0309 709.106,-19.0786"/>
</g>
<!-- 3 -->
<g id="node22" class="node"><title>3</title>
<ellipse fill="none" stroke="black" cx="727" cy="-378" rx="27" ry="18"/>
<text text-anchor="middle" x="727" y="-374.3" font-family="Times,serif" font-size="14.00">3</text>
</g>
<!-- 2&#45;&gt;3 -->
<g id="edge15" class="edge"><title>2&#45;&gt;3</title>
<path fill="none" stroke="black" d="M972.811,-443.475C914.225,-430.603 773.01,-399.446 763,-396 761.088,-395.342 759.144,-394.612 757.198,-393.836"/>
<polygon fill="black" stroke="black" points="758.184,-390.449 747.617,-389.682 755.399,-396.871 758.184,-390.449"/>
</g>
<!-- 16 -->
<g id="node23" class="node"><title>16</title>
<ellipse fill="none" stroke="black" cx="989" cy="-306" rx="27" ry="18"/>
<text text-anchor="middle" x="989" y="-302.3" font-family="Times,serif" font-size="14.00">16</text>
</g>
<!-- 2&#45;&gt;16 -->
<g id="edge16" class="edge"><title>2&#45;&gt;16</title>
<path fill="none" stroke="black" d="M1005.64,-432.519C1012.95,-414.594 1022.03,-385.139 1016,-360 1013.66,-350.266 1009.23,-340.305 1004.61,-331.683"/>
<polygon fill="black" stroke="black" points="1007.62,-329.888 999.628,-322.929 1001.53,-333.351 1007.62,-329.888"/>
</g>
<!-- 17 -->
<g id="node24" class="node"><title>17</title>
<ellipse fill="none" stroke="black" cx="947" cy="-378" rx="27" ry="18"/>
<text text-anchor="middle" x="947" y="-374.3" font-family="Times,serif" font-size="14.00">17</text>
</g>
<!-- 2&#45;&gt;17 -->
<g id="edge17" class="edge"><title>2&#45;&gt;17</title>
<path fill="none" stroke="black" d="M986.681,-433.465C980.079,-424.402 971.616,-412.786 964.203,-402.612"/>
<polygon fill="black" stroke="black" points="967.004,-400.513 958.287,-394.492 961.347,-404.635 967.004,-400.513"/>
</g>
<!-- 18 -->
<g id="node25" class="node"><title>18</title>
<ellipse fill="none" stroke="black" cx="1061" cy="-306" rx="27" ry="18"/>
<text text-anchor="middle" x="1061" y="-302.3" font-family="Times,serif" font-size="14.00">18</text>
</g>
<!-- 2&#45;&gt;18 -->
<g id="edge19" class="edge"><title>2&#45;&gt;18</title>
<path fill="none" stroke="black" d="M1008.7,-433.244C1015.4,-422.946 1023.88,-409.036 1030,-396 1039.54,-375.698 1047.75,-351.616 1053.32,-333.626"/>
<polygon fill="black" stroke="black" points="1056.75,-334.396 1056.29,-323.812 1050.04,-332.372 1056.75,-334.396"/>
</g>
<!-- 19 -->
<g id="node34" class="node"><title>19</title>
<ellipse fill="none" stroke="black" cx="562" cy="-306" rx="27" ry="18"/>
<text text-anchor="middle" x="562" y="-302.3" font-family="Times,serif" font-size="14.00">19</text>
</g>
<!-- 36&#45;&gt;19 -->
<g id="edge45" class="edge"><title>36&#45;&gt;19</title>
<path fill="none" stroke="black" d="M538.257,-431.871C542.858,-407.67 551.312,-363.211 556.791,-334.393"/>
<polygon fill="black" stroke="black" points="560.302,-334.667 558.732,-324.189 553.425,-333.359 560.302,-334.667"/>
</g>
<!-- 38 -->
<g id="node39" class="node"><title>38</title>
<ellipse fill="none" stroke="black" cx="363" cy="-378" rx="27" ry="18"/>
<text text-anchor="middle" x="363" y="-374.3" font-family="Times,serif" font-size="14.00">38</text>
</g>
<!-- 43&#45;&gt;38 -->
<g id="edge43" class="edge"><title>43&#45;&gt;38</title>
<path fill="none" stroke="black" d="M420.43,-434.834C410.25,-424.938 396.476,-411.546 384.969,-400.359"/>
<polygon fill="black" stroke="black" points="387.405,-397.846 377.796,-393.385 382.526,-402.865 387.405,-397.846"/>
</g>
<!-- 40 -->
<g id="node40" class="node"><title>40</title>
<ellipse fill="none" stroke="black" cx="435" cy="-378" rx="27" ry="18"/>
<text text-anchor="middle" x="435" y="-374.3" font-family="Times,serif" font-size="14.00">40</text>
</g>
<!-- 43&#45;&gt;40 -->
<g id="edge44" class="edge"><title>43&#45;&gt;40</title>
<path fill="none" stroke="black" d="M435,-431.697C435,-423.983 435,-414.712 435,-406.112"/>
<polygon fill="black" stroke="black" points="438.5,-406.104 435,-396.104 431.5,-406.104 438.5,-406.104"/>
</g>
<!-- 31&#45;&gt;T1 -->
<g id="edge25" class="edge"><title>31&#45;&gt;T1</title>
<path fill="none" stroke="black" d="M1170.59,-216.192C1165.15,-197.46 1154.66,-166.81 1139,-144 1112.48,-105.375 1104.32,-92.103 1062,-72 999.851,-42.4781 794.134,-26.6052 709.189,-21.1764"/>
<polygon fill="black" stroke="black" points="709.173,-17.6686 698.974,-20.5369 708.736,-24.6549 709.173,-17.6686"/>
</g>
<!-- 32 -->
<g id="node30" class="node"><title>32</title>
<ellipse fill="none" stroke="black" cx="1103" cy="-162" rx="27" ry="18"/>
<text text-anchor="middle" x="1103" y="-158.3" font-family="Times,serif" font-size="14.00">32</text>
</g>
<!-- 31&#45;&gt;32 -->
<g id="edge26" class="edge"><title>31&#45;&gt;32</title>
<path fill="none" stroke="black" d="M1160.43,-218.834C1150.25,-208.938 1136.48,-195.546 1124.97,-184.359"/>
<polygon fill="black" stroke="black" points="1127.41,-181.846 1117.8,-177.385 1122.53,-186.865 1127.41,-181.846"/>
</g>
<!-- 33&#45;&gt;T30 -->
<g id="edge27" class="edge"><title>33&#45;&gt;T30</title>
<path fill="none" stroke="black" d="M1229.11,-287.966C1226.61,-240.291 1219.52,-105.185 1216.45,-46.63"/>
<polygon fill="black" stroke="black" points="1219.93,-46.1094 1215.91,-36.3065 1212.94,-46.4761 1219.93,-46.1094"/>
</g>
<!-- 34 -->
<g id="node31" class="node"><title>34</title>
<ellipse fill="none" stroke="black" cx="1103" cy="-234" rx="27" ry="18"/>
<text text-anchor="middle" x="1103" y="-230.3" font-family="Times,serif" font-size="14.00">34</text>
</g>
<!-- 33&#45;&gt;34 -->
<g id="edge28" class="edge"><title>33&#45;&gt;34</title>
<path fill="none" stroke="black" d="M1209.88,-293.908C1189.01,-282.405 1156.16,-264.302 1132.39,-251.198"/>
<polygon fill="black" stroke="black" points="1133.9,-248.034 1123.45,-246.272 1130.52,-254.164 1133.9,-248.034"/>
</g>
<!-- 4 -->
<g id="node32" class="node"><title>4</title>
<ellipse fill="none" stroke="black" cx="427" cy="-306" rx="27" ry="18"/>
<text text-anchor="middle" x="427" y="-302.3" font-family="Times,serif" font-size="14.00">4</text>
</g>
<!-- 42&#45;&gt;4 -->
<g id="edge29" class="edge"><title>42&#45;&gt;4</title>
<path fill="none" stroke="black" d="M491.195,-363.17C479.58,-353.008 463.606,-339.03 450.499,-327.561"/>
<polygon fill="black" stroke="black" points="452.603,-324.752 442.773,-320.801 447.994,-330.02 452.603,-324.752"/>
</g>
<!-- 26&#45;&gt;4 -->
<g id="edge30" class="edge"><title>26&#45;&gt;4</title>
<path fill="none" stroke="black" d="M275.747,-367.849C306.182,-355.605 360.319,-333.825 394.897,-319.915"/>
<polygon fill="black" stroke="black" points="396.552,-323.022 404.523,-316.043 393.939,-316.528 396.552,-323.022"/>
</g>
<!-- 3&#45;&gt;4 -->
<g id="edge31" class="edge"><title>3&#45;&gt;4</title>
<path fill="none" stroke="black" d="M701.938,-371.152C648.556,-358.696 523.512,-329.519 462.18,-315.209"/>
<polygon fill="black" stroke="black" points="462.735,-311.744 452.201,-312.88 461.145,-318.561 462.735,-311.744"/>
</g>
<!-- 15 -->
<g id="node33" class="node"><title>15</title>
<ellipse fill="none" stroke="black" cx="524" cy="-162" rx="27" ry="18"/>
<text text-anchor="middle" x="524" y="-158.3" font-family="Times,serif" font-size="14.00">15</text>
</g>
<!-- 16&#45;&gt;15 -->
<g id="edge32" class="edge"><title>16&#45;&gt;15</title>
<path fill="none" stroke="black" d="M967.92,-294.367C963.08,-292.117 957.912,-289.862 953,-288 810.228,-233.877 633.41,-189.089 559.289,-171.274"/>
<polygon fill="black" stroke="black" points="559.654,-167.763 549.114,-168.844 558.027,-174.572 559.654,-167.763"/>
</g>
<!-- 17&#45;&gt;19 -->
<g id="edge33" class="edge"><title>17&#45;&gt;19</title>
<path fill="none" stroke="black" d="M921.141,-372.298C854.155,-360.119 674.865,-327.521 597.904,-313.528"/>
<polygon fill="black" stroke="black" points="598.211,-310.027 587.746,-311.681 596.959,-316.914 598.211,-310.027"/>
</g>
<!-- 29 -->
<g id="node35" class="node"><title>29</title>
<ellipse fill="none" stroke="black" cx="982" cy="-162" rx="27" ry="18"/>
<text text-anchor="middle" x="982" y="-158.3" font-family="Times,serif" font-size="14.00">29</text>
</g>
<!-- 18&#45;&gt;29 -->
<g id="edge34" class="edge"><title>18&#45;&gt;29</title>
<path fill="none" stroke="black" d="M1052.09,-288.987C1038.4,-264.378 1012.08,-217.061 995.873,-187.937"/>
<polygon fill="black" stroke="black" points="998.918,-186.21 990.997,-179.173 992.801,-189.613 998.918,-186.21"/>
</g>
<!-- 11&#45;&gt;4 -->
<g id="edge35" class="edge"><title>11&#45;&gt;4</title>
<path fill="none" stroke="black" d="M593.702,-368.417C560.137,-356.05 498.02,-333.165 459.821,-319.092"/>
<polygon fill="black" stroke="black" points="460.784,-315.717 450.191,-315.544 458.364,-322.285 460.784,-315.717"/>
</g>
<!-- 14&#45;&gt;15 -->
<g id="edge36" class="edge"><title>14&#45;&gt;15</title>
<path fill="none" stroke="black" d="M740.367,-302.244C687.142,-296.191 570.386,-279.996 543,-252 527.246,-235.895 523.147,-210.118 522.607,-190.441"/>
<polygon fill="black" stroke="black" points="526.108,-190.242 522.622,-180.237 519.108,-190.232 526.108,-190.242"/>
</g>
<!-- 13&#45;&gt;19 -->
<g id="edge41" class="edge"><title>13&#45;&gt;19</title>
<path fill="none" stroke="black" d="M777.955,-366.273C773.113,-364.028 767.935,-361.799 763,-360 706.387,-339.367 638.12,-323.103 597.483,-314.286"/>
<polygon fill="black" stroke="black" points="598.036,-310.825 587.525,-312.155 596.571,-317.67 598.036,-310.825"/>
</g>
<!-- 12&#45;&gt;29 -->
<g id="edge42" class="edge"><title>12&#45;&gt;29</title>
<path fill="none" stroke="black" d="M929.265,-289.48C936.883,-279.277 946.439,-265.383 953,-252 962.807,-231.996 970.427,-207.893 975.39,-189.819"/>
<polygon fill="black" stroke="black" points="978.827,-190.512 978.002,-179.95 972.06,-188.722 978.827,-190.512"/>
</g>
<!-- 23 -->
<g id="node41" class="node"><title>23</title>
<ellipse fill="none" stroke="black" cx="303" cy="-90" rx="27" ry="18"/>
<text text-anchor="middle" x="303" y="-86.3" font-family="Times,serif" font-size="14.00">23</text>
</g>
<!-- 32&#45;&gt;23 -->
<g id="edge46" class="edge"><title>32&#45;&gt;23</title>
<path fill="none" stroke="black" d="M1077.85,-155.121C1061,-151.394 1038.28,-146.769 1018,-144 760.158,-108.796 446.584,-95.7437 340.281,-92.1412"/>
<polygon fill="black" stroke="black" points="340.183,-88.6361 330.072,-91.8029 339.951,-95.6323 340.183,-88.6361"/>
</g>
<!-- 34&#45;&gt;29 -->
<g id="edge47" class="edge"><title>34&#45;&gt;29</title>
<path fill="none" stroke="black" d="M1083.29,-221.597C1063.51,-210.157 1032.85,-192.42 1010.44,-179.455"/>
<polygon fill="black" stroke="black" points="1012.11,-176.376 1001.7,-174.398 1008.6,-182.435 1012.11,-176.376"/>
</g>
<!-- 5 -->
<g id="node42" class="node"><title>5</title>
<ellipse fill="none" stroke="black" cx="231" cy="-234" rx="27" ry="18"/>
<text text-anchor="middle" x="231" y="-230.3" font-family="Times,serif" font-size="14.00">5</text>
</g>
<!-- 4&#45;&gt;5 -->
<g id="edge52" class="edge"><title>4&#45;&gt;5</title>
<path fill="none" stroke="black" d="M403.747,-296.695C368.972,-284.276 303.282,-260.815 263.691,-246.676"/>
<polygon fill="black" stroke="black" points="264.818,-243.361 254.223,-243.294 262.463,-249.954 264.818,-243.361"/>
</g>
<!-- 15&#45;&gt;T1 -->
<g id="edge63" class="edge"><title>15&#45;&gt;T1</title>
<path fill="none" stroke="black" d="M538.732,-146.865C564.749,-121.903 618.975,-69.875 649.632,-40.4609"/>
<polygon fill="black" stroke="black" points="652.094,-42.9491 656.887,-33.5002 647.248,-37.898 652.094,-42.9491"/>
</g>
<!-- 21 -->
<g id="node43" class="node"><title>21</title>
<ellipse fill="none" stroke="black" cx="378" cy="-234" rx="27" ry="18"/>
<text text-anchor="middle" x="378" y="-230.3" font-family="Times,serif" font-size="14.00">21</text>
</g>
<!-- 19&#45;&gt;21 -->
<g id="edge53" class="edge"><title>19&#45;&gt;21</title>
<path fill="none" stroke="black" d="M539.068,-296.276C506.751,-283.981 447.638,-261.493 410.716,-247.446"/>
<polygon fill="black" stroke="black" points="411.522,-244.008 400.931,-243.724 409.033,-250.551 411.522,-244.008"/>
</g>
<!-- 20 -->
<g id="node44" class="node"><title>20</title>
<ellipse fill="none" stroke="black" cx="469" cy="-234" rx="27" ry="18"/>
<text text-anchor="middle" x="469" y="-230.3" font-family="Times,serif" font-size="14.00">20</text>
</g>
<!-- 19&#45;&gt;20 -->
<g id="edge54" class="edge"><title>19&#45;&gt;20</title>
<path fill="none" stroke="black" d="M544.507,-291.834C530.478,-281.274 510.584,-266.3 494.738,-254.373"/>
<polygon fill="black" stroke="black" points="496.509,-251.325 486.414,-248.107 492.299,-256.918 496.509,-251.325"/>
</g>
<!-- 28 -->
<g id="node45" class="node"><title>28</title>
<ellipse fill="none" stroke="black" cx="917" cy="-234" rx="27" ry="18"/>
<text text-anchor="middle" x="917" y="-230.3" font-family="Times,serif" font-size="14.00">28</text>
</g>
<!-- 19&#45;&gt;28 -->
<g id="edge55" class="edge"><title>19&#45;&gt;28</title>
<path fill="none" stroke="black" d="M587.531,-299.966C649.809,-287.686 809.656,-256.167 881.313,-242.037"/>
<polygon fill="black" stroke="black" points="882.09,-245.451 891.224,-240.083 880.735,-238.583 882.09,-245.451"/>
</g>
<!-- 29&#45;&gt;T30 -->
<g id="edge66" class="edge"><title>29&#45;&gt;T30</title>
<path fill="none" stroke="black" d="M1001.46,-149.137C1042.77,-123.964 1139.32,-65.1221 1187.14,-35.9771"/>
<polygon fill="black" stroke="black" points="1189.04,-38.9218 1195.75,-30.729 1185.39,-32.9444 1189.04,-38.9218"/>
</g>
<!-- 37 -->
<g id="node36" class="node"><title>37</title>
<ellipse fill="none" stroke="black" cx="336" cy="-450" rx="27" ry="18"/>
<text text-anchor="middle" x="336" y="-446.3" font-family="Times,serif" font-size="14.00">37</text>
</g>
<!-- 39 -->
<g id="node37" class="node"><title>39</title>
<ellipse fill="none" stroke="black" cx="239" cy="-306" rx="27" ry="18"/>
<text text-anchor="middle" x="239" y="-302.3" font-family="Times,serif" font-size="14.00">39</text>
</g>
<!-- 37&#45;&gt;39 -->
<g id="edge37" class="edge"><title>37&#45;&gt;39</title>
<path fill="none" stroke="black" d="M309.799,-445.629C281.412,-440.424 237.445,-427.487 217,-396 204.394,-376.586 213.211,-350.508 223.178,-331.602"/>
<polygon fill="black" stroke="black" points="226.338,-333.125 228.231,-322.7 220.251,-329.669 226.338,-333.125"/>
</g>
<!-- 41 -->
<g id="node38" class="node"><title>41</title>
<ellipse fill="none" stroke="black" cx="579" cy="-234" rx="27" ry="18"/>
<text text-anchor="middle" x="579" y="-230.3" font-family="Times,serif" font-size="14.00">41</text>
</g>
<!-- 37&#45;&gt;41 -->
<g id="edge38" class="edge"><title>37&#45;&gt;41</title>
<path fill="none" stroke="black" d="M329.945,-432.337C324.265,-414.001 317.893,-383.952 327,-360 342.215,-319.98 354.713,-310.723 391,-288 404.075,-279.813 493.546,-256.487 544.203,-243.68"/>
<polygon fill="black" stroke="black" points="545.241,-247.028 554.083,-241.191 543.531,-240.24 545.241,-247.028"/>
</g>
<!-- 37&#45;&gt;38 -->
<g id="edge39" class="edge"><title>37&#45;&gt;38</title>
<path fill="none" stroke="black" d="M342.399,-432.411C345.514,-424.335 349.334,-414.431 352.835,-405.355"/>
<polygon fill="black" stroke="black" points="356.126,-406.546 356.46,-395.956 349.595,-404.027 356.126,-406.546"/>
</g>
<!-- 37&#45;&gt;40 -->
<g id="edge40" class="edge"><title>37&#45;&gt;40</title>
<path fill="none" stroke="black" d="M354.158,-436.161C369.369,-425.405 391.289,-409.907 408.467,-397.761"/>
<polygon fill="black" stroke="black" points="410.813,-400.389 416.957,-391.758 406.771,-394.673 410.813,-400.389"/>
</g>
<!-- 39&#45;&gt;15 -->
<g id="edge48" class="edge"><title>39&#45;&gt;15</title>
<path fill="none" stroke="black" d="M252.184,-290.179C270.478,-270.484 305.458,-235.868 342,-216 389.042,-190.424 449.804,-175.949 487.845,-168.796"/>
<polygon fill="black" stroke="black" points="488.724,-172.194 497.941,-166.97 487.478,-165.306 488.724,-172.194"/>
</g>
<!-- 41&#45;&gt;29 -->
<g id="edge49" class="edge"><title>41&#45;&gt;29</title>
<path fill="none" stroke="black" d="M604.823,-228.515C674.402,-216.429 865.93,-183.161 946.037,-169.247"/>
<polygon fill="black" stroke="black" points="946.879,-172.653 956.132,-167.493 945.681,-165.756 946.879,-172.653"/>
</g>
<!-- 38&#45;&gt;4 -->
<g id="edge50" class="edge"><title>38&#45;&gt;4</title>
<path fill="none" stroke="black" d="M376.573,-362.155C385.312,-352.596 396.834,-339.994 406.658,-329.249"/>
<polygon fill="black" stroke="black" points="409.282,-331.566 413.447,-321.824 404.116,-326.842 409.282,-331.566"/>
</g>
<!-- 40&#45;&gt;19 -->
<g id="edge51" class="edge"><title>40&#45;&gt;19</title>
<path fill="none" stroke="black" d="M455.124,-365.908C475.994,-354.405 508.838,-336.302 532.612,-323.198"/>
<polygon fill="black" stroke="black" points="534.482,-326.164 541.55,-318.272 531.103,-320.034 534.482,-326.164"/>
</g>
<!-- 23&#45;&gt;T24 -->
<g id="edge68" class="edge"><title>23&#45;&gt;T24</title>
<path fill="none" stroke="black" d="M295.179,-72.411C291.275,-64.1292 286.465,-53.9249 282.098,-44.662"/>
<polygon fill="black" stroke="black" points="285.194,-43.0227 277.764,-35.4699 278.863,-46.0077 285.194,-43.0227"/>
</g>
<!-- 23&#45;&gt;T1 -->
<g id="edge69" class="edge"><title>23&#45;&gt;T1</title>
<path fill="none" stroke="black" d="M328.654,-84.1333C392.991,-71.9286 561.351,-39.9904 635.753,-25.8762"/>
<polygon fill="black" stroke="black" points="636.852,-29.2301 646.025,-23.9276 635.547,-22.3528 636.852,-29.2301"/>
</g>
<!-- 5&#45;&gt;T35 -->
<g id="edge57" class="edge"><title>5&#45;&gt;T35</title>
<path fill="none" stroke="black" d="M211.29,-221.477C180.852,-202.392 123.567,-161.007 101,-108 91.8307,-86.463 102.591,-61.2027 113.87,-43.1065"/>
<polygon fill="black" stroke="black" points="117.071,-44.6145 119.712,-34.3541 111.249,-40.7281 117.071,-44.6145"/>
</g>
<!-- 5&#45;&gt;23 -->
<g id="edge58" class="edge"><title>5&#45;&gt;23</title>
<path fill="none" stroke="black" d="M248.426,-220.075C260.265,-210.357 275.3,-196.006 284,-180 294.407,-160.853 299.115,-136.502 301.244,-118.114"/>
<polygon fill="black" stroke="black" points="304.738,-118.352 302.224,-108.06 297.771,-117.674 304.738,-118.352"/>
</g>
<!-- 6 -->
<g id="node46" class="node"><title>6</title>
<ellipse fill="none" stroke="black" cx="27" cy="-162" rx="27" ry="18"/>
<text text-anchor="middle" x="27" y="-158.3" font-family="Times,serif" font-size="14.00">6</text>
</g>
<!-- 5&#45;&gt;6 -->
<g id="edge56" class="edge"><title>5&#45;&gt;6</title>
<path fill="none" stroke="black" d="M206.769,-225.774C174.751,-216.078 116.711,-197.986 68,-180 64.8917,-178.852 61.6708,-177.61 58.4629,-176.339"/>
<polygon fill="black" stroke="black" points="59.5856,-173.017 49.0035,-172.497 56.9515,-179.502 59.5856,-173.017"/>
</g>
<!-- 22 -->
<g id="node47" class="node"><title>22</title>
<ellipse fill="none" stroke="black" cx="248" cy="-162" rx="27" ry="18"/>
<text text-anchor="middle" x="248" y="-158.3" font-family="Times,serif" font-size="14.00">22</text>
</g>
<!-- 21&#45;&gt;22 -->
<g id="edge59" class="edge"><title>21&#45;&gt;22</title>
<path fill="none" stroke="black" d="M357.688,-222.062C336.158,-210.47 301.952,-192.051 277.462,-178.864"/>
<polygon fill="black" stroke="black" points="279.063,-175.751 268.599,-174.092 275.744,-181.914 279.063,-175.751"/>
</g>
<!-- 20&#45;&gt;15 -->
<g id="edge60" class="edge"><title>20&#45;&gt;15</title>
<path fill="none" stroke="black" d="M480.934,-217.811C488.214,-208.546 497.663,-196.52 505.854,-186.094"/>
<polygon fill="black" stroke="black" points="508.663,-188.185 512.089,-178.159 503.159,-183.86 508.663,-188.185"/>
</g>
<!-- 28&#45;&gt;29 -->
<g id="edge61" class="edge"><title>28&#45;&gt;29</title>
<path fill="none" stroke="black" d="M930.785,-218.155C939.661,-208.596 951.363,-195.994 961.34,-185.249"/>
<polygon fill="black" stroke="black" points="963.995,-187.533 968.235,-177.824 958.866,-182.77 963.995,-187.533"/>
</g>
<!-- 7 -->
<g id="node48" class="node"><title>7</title>
<ellipse fill="none" stroke="black" cx="27" cy="-90" rx="27" ry="18"/>
<text text-anchor="middle" x="27" y="-86.3" font-family="Times,serif" font-size="14.00">7</text>
</g>
<!-- 6&#45;&gt;7 -->
<g id="edge62" class="edge"><title>6&#45;&gt;7</title>
<path fill="none" stroke="black" d="M27,-143.697C27,-135.983 27,-126.712 27,-118.112"/>
<polygon fill="black" stroke="black" points="30.5001,-118.104 27,-108.104 23.5001,-118.104 30.5001,-118.104"/>
</g>
<!-- 22&#45;&gt;T35 -->
<g id="edge65" class="edge"><title>22&#45;&gt;T35</title>
<path fill="none" stroke="black" d="M235.586,-145.804C215.265,-120.928 174.776,-71.3643 150.881,-42.1127"/>
<polygon fill="black" stroke="black" points="153.362,-39.6174 144.325,-34.0872 147.941,-44.0459 153.362,-39.6174"/>
</g>
<!-- 22&#45;&gt;23 -->
<g id="edge64" class="edge"><title>22&#45;&gt;23</title>
<path fill="none" stroke="black" d="M259.934,-145.811C267.214,-136.546 276.663,-124.52 284.854,-114.094"/>
<polygon fill="black" stroke="black" points="287.663,-116.185 291.089,-106.159 282.159,-111.86 287.663,-116.185"/>
</g>
<!-- 7&#45;&gt;T8 -->
<g id="edge67" class="edge"><title>7&#45;&gt;T8</title>
<path fill="none" stroke="black" d="M27,-71.6966C27,-63.9827 27,-54.7125 27,-46.1124"/>
<polygon fill="black" stroke="black" points="30.5001,-46.1043 27,-36.1043 23.5001,-46.1044 30.5001,-46.1043"/>
</g>
</g>
</svg>
