<?xml version="1.0" encoding="UTF-8" standalone="no"?>
<!DOCTYPE svg PUBLIC "-//W3C//DTD SVG 1.1//EN"
 "http://www.w3.org/Graphics/SVG/1.1/DTD/svg11.dtd">
<!-- Generated by graphviz version 2.38.0 (20140413.2041)
 -->
<!-- Title: G Pages: 1 -->
<svg width="340pt" height="116pt"
 viewBox="0.00 0.00 339.50 116.00" xmlns="http://www.w3.org/2000/svg" xmlns:xlink="http://www.w3.org/1999/xlink">
<g id="graph0" class="graph" transform="scale(1 1) rotate(0) translate(4 112)">
<title>G</title>
<polygon fill="white" stroke="none" points="-4,4 -4,-112 335.5,-112 335.5,4 -4,4"/>
<!-- b -->
<g id="node1" class="node"><title>b</title>
<ellipse fill="yellow" stroke="black" cx="157.5" cy="-90" rx="18" ry="18"/>
<text text-anchor="middle" x="157.5" y="-81.9" font-family="Times,serif" font-size="32.00" fill="blue">a very long label</text>
</g>
<!-- d -->
<g id="node2" class="node"><title>d</title>
<ellipse fill="lightgrey" stroke="black" cx="129.5" cy="-18" rx="18" ry="18"/>
<text text-anchor="middle" x="129.5" y="-9.9" font-family="Times,serif" font-size="32.00" fill="blue">an even longer label</text>
</g>
<!-- b&#45;&gt;d -->
<g id="edge3" class="edge"><title>b&#45;&gt;d</title>
<path fill="none" stroke="black" d="M151.146,-73.1159C147.793,-64.7332 143.596,-54.2402 139.792,-44.7309"/>
<polygon fill="black" stroke="black" points="142.986,-43.2919 136.023,-35.307 136.487,-45.8917 142.986,-43.2919"/>
</g>
<!-- c -->
<g id="node4" class="node"><title>c</title>
<ellipse fill="none" stroke="black" cx="304.5" cy="-18" rx="27" ry="18"/>
<text text-anchor="middle" x="304.5" y="-14.3" font-family="Times,serif" font-size="14.00">c</text>
</g>
<!-- b&#45;&gt;c -->
<g id="edge4" class="edge"><title>b&#45;&gt;c</title>
<path fill="none" stroke="black" d="M173.511,-81.3755C197.482,-69.9608 243.143,-48.2178 273.71,-33.6618"/>
<polygon fill="black" stroke="black" points="275.534,-36.6699 283.058,-29.2105 272.525,-30.3499 275.534,-36.6699"/>
</g>
<!-- a -->
<g id="node3" class="node"><title>a</title>
<ellipse fill="none" stroke="black" cx="276.5" cy="-90" rx="27" ry="18"/>
<text text-anchor="middle" x="276.5" y="-86.3" font-family="Times,serif" font-size="14.00">a</text>
</g>
<!-- a&#45;&gt;d -->
<g id="edge1" class="edge"><title>a&#45;&gt;d</title>
<path fill="none" stroke="black" d="M255.125,-78.8214C228.485,-66.1355 183.022,-44.4865 154.709,-31.0043"/>
<polygon fill="black" stroke="black" points="156.002,-27.7435 145.469,-26.6041 152.992,-34.0635 156.002,-27.7435"/>
</g>
<!-- a&#45;&gt;c -->
<g id="edge2" class="edge"><title>a&#45;&gt;c</title>
<path fill="none" stroke="black" d="M283.136,-72.411C286.413,-64.2164 290.444,-54.1395 294.118,-44.9548"/>
<polygon fill="black" stroke="black" points="297.448,-46.0546 297.912,-35.4699 290.948,-43.4548 297.448,-46.0546"/>
</g>
</g>
</svg>
