<?xml version="1.0" encoding="UTF-8" standalone="no"?>
<!DOCTYPE svg PUBLIC "-//W3C//DTD SVG 1.1//EN"
 "http://www.w3.org/Graphics/SVG/1.1/DTD/svg11.dtd">
<!-- Generated by graphviz version 2.38.0 (20140413.2041)
 -->
<!-- Title: %3 Pages: 1 -->
<svg width="506pt" height="131pt"
 viewBox="0.00 0.00 506.00 131.00" xmlns="http://www.w3.org/2000/svg" xmlns:xlink="http://www.w3.org/1999/xlink">
<g id="graph0" class="graph" transform="scale(1 1) rotate(0) translate(4 127)">
<title>%3</title>
<polygon fill="white" stroke="none" points="-4,4 -4,-127 502,-127 502,4 -4,4"/>
<!-- tcp -->
<g id="node1" class="node"><title>tcp</title>
<ellipse fill="none" stroke="black" cx="56.5" cy="-105" rx="27" ry="18"/>
<text text-anchor="middle" x="56.5" y="-101.3" font-family="Times,serif" font-size="14.00">tcp</text>
</g>
<!-- kernel_linux -->
<g id="node2" class="node"><title>kernel_linux</title>
<ellipse fill="none" stroke="black" cx="56.5" cy="-18" rx="56.5" ry="18"/>
<text text-anchor="middle" x="56.5" y="-14.3" font-family="Times,serif" font-size="14.00">kernel_linux</text>
</g>
<!-- tcp&#45;&gt;kernel_linux -->
<g id="edge1" class="edge"><title>tcp&#45;&gt;kernel_linux</title>
<path fill="none" stroke="black" d="M56.5,-86.799C56.5,-75.1626 56.5,-59.5479 56.5,-46.2368"/>
<polygon fill="black" stroke="black" points="60.0001,-46.1754 56.5,-36.1754 53.0001,-46.1755 60.0001,-46.1754"/>
<text text-anchor="middle" x="70.5" y="-57.8" font-family="Times,serif" font-size="14.00">linux</text>
</g>
<!-- usmStats -->
<g id="node3" class="node"><title>usmStats</title>
<ellipse fill="none" stroke="black" cx="174.5" cy="-18" rx="43.5" ry="18"/>
<text text-anchor="middle" x="174.5" y="-14.3" font-family="Times,serif" font-size="14.00">usmStats</text>
</g>
<!-- usmStats&#45;5.5 -->
<g id="node4" class="node"><title>usmStats&#45;5.5</title>
<ellipse fill="none" stroke="black" cx="311.5" cy="-18" rx="57.5" ry="18"/>
<text text-anchor="middle" x="311.5" y="-14.3" font-family="Times,serif" font-size="14.00">usmStats&#45;5.5</text>
</g>
<!-- usmStats&#45;&gt;usmStats&#45;5.5 -->
<g id="edge2" class="edge"><title>usmStats&#45;&gt;usmStats&#45;5.5</title>
<path fill="none" stroke="red" d="M210.088,-7.61648C225.794,-4.64198 241.501,-3.79672 257.207,-5.08071"/>
<polygon fill="red" stroke="red" points="257.202,-8.60176 267.528,-6.23097 257.978,-1.64482 257.202,-8.60176"/>
</g>
<!-- usmStats&#45;5.5&#45;&gt;usmStats -->
<g id="edge3" class="edge"><title>usmStats&#45;5.5&#45;&gt;usmStats</title>
<path fill="none" stroke="red" d="M267.528,-29.769C251.822,-31.9858 236.116,-32.0734 220.409,-30.0317"/>
<polygon fill="red" stroke="red" points="220.515,-26.5043 210.088,-28.3835 219.411,-33.4167 220.515,-26.5043"/>
</g>
<!-- snmpv3mibs -->
<g id="node5" class="node"><title>snmpv3mibs</title>
<ellipse fill="none" stroke="black" cx="311.5" cy="-105" rx="57" ry="18"/>
<text text-anchor="middle" x="311.5" y="-101.3" font-family="Times,serif" font-size="14.00">snmpv3mibs</text>
</g>
<!-- snmpv3mibs&#45;&gt;usmStats -->
<g id="edge6" class="edge"><title>snmpv3mibs&#45;&gt;usmStats</title>
<path fill="none" stroke="black" stroke-dasharray="5,2" d="M286.69,-88.6071C264.165,-74.6315 230.822,-53.9441 206.338,-38.7534"/>
<polygon fill="black" stroke="black" points="208.097,-35.7262 197.755,-33.4281 204.407,-41.6743 208.097,-35.7262"/>
</g>
<!-- snmpv3mibs&#45;&gt;usmStats&#45;5.5 -->
<g id="edge5" class="edge"><title>snmpv3mibs&#45;&gt;usmStats&#45;5.5</title>
<path fill="none" stroke="black" d="M311.5,-86.799C311.5,-75.1626 311.5,-59.5479 311.5,-46.2368"/>
<polygon fill="black" stroke="black" points="315,-46.1754 311.5,-36.1754 308,-46.1755 315,-46.1754"/>
</g>
<!-- snmpEngine -->
<g id="node6" class="node"><title>snmpEngine</title>
<ellipse fill="none" stroke="black" cx="442.5" cy="-18" rx="55.5" ry="18"/>
<text text-anchor="middle" x="442.5" y="-14.3" font-family="Times,serif" font-size="14.00">snmpEngine</text>
</g>
<!-- snmpv3mibs&#45;&gt;snmpEngine -->
<g id="edge4" class="edge"><title>snmpv3mibs&#45;&gt;snmpEngine</title>
<path fill="none" stroke="black" d="M335.223,-88.6071C356.144,-75.0322 386.825,-55.1248 410.023,-40.0732"/>
<polygon fill="black" stroke="black" points="412.027,-42.9448 418.511,-34.5656 408.217,-37.0727 412.027,-42.9448"/>
</g>
</g>
</svg>
