<?xml version="1.0" encoding="UTF-8" standalone="no"?>
<!DOCTYPE svg PUBLIC "-//W3C//DTD SVG 1.1//EN"
 "http://www.w3.org/Graphics/SVG/1.1/DTD/svg11.dtd">
<!-- Generated by graphviz version 2.38.0 (20140413.2041)
 -->
<!-- Title: %3 Pages: 1 -->
<svg width="500pt" height="131pt"
 viewBox="0.00 0.00 500.49 131.00" xmlns="http://www.w3.org/2000/svg" xmlns:xlink="http://www.w3.org/1999/xlink">
<g id="graph0" class="graph" transform="scale(1 1) rotate(0) translate(4 127)">
<title>%3</title>
<polygon fill="white" stroke="none" points="-4,4 -4,-127 496.49,-127 496.49,4 -4,4"/>
<!-- tcp -->
<g id="node1" class="node"><title>tcp</title>
<ellipse fill="none" stroke="black" cx="55.2451" cy="-105" rx="27" ry="18"/>
<text text-anchor="middle" x="55.2451" y="-101.3" font-family="Times,serif" font-size="14.00">tcp</text>
</g>
<!-- kernel_linux -->
<g id="node2" class="node"><title>kernel_linux</title>
<ellipse fill="none" stroke="black" cx="55.2451" cy="-18" rx="55.4913" ry="18"/>
<text text-anchor="middle" x="55.2451" y="-14.3" font-family="Times,serif" font-size="14.00">kernel_linux</text>
</g>
<!-- tcp&#45;&gt;kernel_linux -->
<g id="edge1" class="edge"><title>tcp&#45;&gt;kernel_linux</title>
<path fill="none" stroke="black" d="M55.2451,-86.799C55.2451,-75.1626 55.2451,-59.5479 55.2451,-46.2368"/>
<polygon fill="black" stroke="black" points="58.7452,-46.1754 55.2451,-36.1754 51.7452,-46.1755 58.7452,-46.1754"/>
<text text-anchor="middle" x="69.2451" y="-57.8" font-family="Times,serif" font-size="14.00">linux</text>
</g>
<!-- usmStats -->
<g id="node3" class="node"><title>usmStats</title>
<ellipse fill="none" stroke="black" cx="171.245" cy="-18" rx="42.7926" ry="18"/>
<text text-anchor="middle" x="171.245" y="-14.3" font-family="Times,serif" font-size="14.00">usmStats</text>
</g>
<!-- usmStats&#45;5.5 -->
<g id="node4" class="node"><title>usmStats&#45;5.5</title>
<ellipse fill="none" stroke="black" cx="307.245" cy="-18" rx="57.3905" ry="18"/>
<text text-anchor="middle" x="307.245" y="-14.3" font-family="Times,serif" font-size="14.00">usmStats&#45;5.5</text>
</g>
<!-- usmStats&#45;&gt;usmStats&#45;5.5 -->
<g id="edge2" class="edge"><title>usmStats&#45;&gt;usmStats&#45;5.5</title>
<path fill="none" stroke="red" d="M206.573,-7.61648C222.165,-4.64198 237.757,-3.79672 253.348,-5.08071"/>
<polygon fill="red" stroke="red" points="253.266,-8.5934 263.594,-6.23097 254.047,-1.6371 253.266,-8.5934"/>
</g>
<!-- usmStats&#45;5.5&#45;&gt;usmStats -->
<g id="edge3" class="edge"><title>usmStats&#45;5.5&#45;&gt;usmStats</title>
<path fill="none" stroke="red" d="M263.594,-29.769C248.003,-31.9858 232.411,-32.0734 216.819,-30.0317"/>
<polygon fill="red" stroke="red" points="217.002,-26.5162 206.573,-28.3835 215.89,-33.4274 217.002,-26.5162"/>
</g>
<!-- snmpv3mibs -->
<g id="node5" class="node"><title>snmpv3mibs</title>
<ellipse fill="none" stroke="black" cx="307.245" cy="-105" rx="56.59" ry="18"/>
<text text-anchor="middle" x="307.245" y="-101.3" font-family="Times,serif" font-size="14.00">snmpv3mibs</text>
</g>
<!-- snmpv3mibs&#45;&gt;usmStats -->
<g id="edge6" class="edge"><title>snmpv3mibs&#45;&gt;usmStats</title>
<path fill="none" stroke="black" stroke-dasharray="5,2" d="M282.617,-88.6071C260.256,-74.6315 227.156,-53.9441 202.851,-38.7534"/>
<polygon fill="black" stroke="black" points="204.665,-35.7602 194.33,-33.4281 200.955,-41.6961 204.665,-35.7602"/>
</g>
<!-- snmpv3mibs&#45;&gt;usmStats&#45;5.5 -->
<g id="edge5" class="edge"><title>snmpv3mibs&#45;&gt;usmStats&#45;5.5</title>
<path fill="none" stroke="black" d="M307.245,-86.799C307.245,-75.1626 307.245,-59.5479 307.245,-46.2368"/>
<polygon fill="black" stroke="black" points="310.745,-46.1754 307.245,-36.1754 303.745,-46.1755 310.745,-46.1754"/>
</g>
<!-- snmpEngine -->
<g id="node6" class="node"><title>snmpEngine</title>
<ellipse fill="none" stroke="black" cx="437.245" cy="-18" rx="55.4913" ry="18"/>
<text text-anchor="middle" x="437.245" y="-14.3" font-family="Times,serif" font-size="14.00">snmpEngine</text>
</g>
<!-- snmpv3mibs&#45;&gt;snmpEngine -->
<g id="edge4" class="edge"><title>snmpv3mibs&#45;&gt;snmpEngine</title>
<path fill="none" stroke="black" d="M330.787,-88.6071C351.549,-75.0322 381.995,-55.1248 405.016,-40.0732"/>
<polygon fill="black" stroke="black" points="406.985,-42.9675 413.439,-34.5656 403.154,-37.1087 406.985,-42.9675"/>
</g>
</g>
</svg>
