<?xml version="1.0" encoding="UTF-8" standalone="no"?>
<!DOCTYPE svg PUBLIC "-//W3C//DTD SVG 1.1//EN"
 "http://www.w3.org/Graphics/SVG/1.1/DTD/svg11.dtd">
<!-- Generated by graphviz version 2.38.0 (20140413.2041)
 -->
<!-- Title: L0 Pages: 1 -->
<svg width="576pt" height="576pt"
 viewBox="0.00 0.00 576.00 575.58" xmlns="http://www.w3.org/2000/svg" xmlns:xlink="http://www.w3.org/1999/xlink">
<g id="graph0" class="graph" transform="scale(0.831769 0.831769) rotate(0) translate(4 688)">
<title>L0</title>
<polygon fill="white" stroke="none" points="-4,4 -4,-688 688.5,-688 688.5,4 -4,4"/>
<!-- n0 -->
<g id="node1" class="node"><title>n0</title>
<polygon fill="none" stroke="black" points="294,-684 240,-684 240,-648 294,-648 294,-684"/>
<text text-anchor="middle" x="267" y="-662.3" font-family="Times,serif" font-size="14.00">E</text>
</g>
<!-- n1 -->
<g id="node2" class="node"><title>n1</title>
<polygon fill="none" stroke="black" points="129,-612 75,-612 75,-576 129,-576 129,-612"/>
<text text-anchor="middle" x="102" y="-590.3" font-family="Times,serif" font-size="14.00">T</text>
</g>
<!-- n0&#45;&gt;n1 -->
<g id="edge1" class="edge"><title>n0&#45;&gt;n1</title>
<path fill="none" stroke="black" d="M239.754,-653.441C212.085,-641.703 169.07,-623.454 138.475,-610.474"/>
<polygon fill="black" stroke="black" points="139.585,-607.143 129.013,-606.46 136.852,-613.588 139.585,-607.143"/>
</g>
<!-- n4 -->
<g id="node5" class="node"><title>n4</title>
<polygon fill="none" stroke="black" points="222,-612 168,-612 168,-576 222,-576 222,-612"/>
<text text-anchor="middle" x="195" y="-590.3" font-family="Times,serif" font-size="14.00">+</text>
</g>
<!-- n0&#45;&gt;n4 -->
<g id="edge2" class="edge"><title>n0&#45;&gt;n4</title>
<path fill="none" stroke="black" d="M249.202,-647.697C240.396,-639.135 229.618,-628.656 219.999,-619.304"/>
<polygon fill="black" stroke="black" points="222.203,-616.566 212.593,-612.104 217.323,-621.585 222.203,-616.566"/>
</g>
<!-- n5 -->
<g id="node6" class="node"><title>n5</title>
<polygon fill="none" stroke="black" points="294,-612 240,-612 240,-576 294,-576 294,-612"/>
<text text-anchor="middle" x="267" y="-590.3" font-family="Times,serif" font-size="14.00">T</text>
</g>
<!-- n0&#45;&gt;n5 -->
<g id="edge3" class="edge"><title>n0&#45;&gt;n5</title>
<path fill="none" stroke="black" d="M267,-647.697C267,-639.983 267,-630.712 267,-622.112"/>
<polygon fill="black" stroke="black" points="270.5,-622.104 267,-612.104 263.5,-622.104 270.5,-622.104"/>
</g>
<!-- n39 -->
<g id="node40" class="node"><title>n39</title>
<polygon fill="none" stroke="black" points="366,-612 312,-612 312,-576 366,-576 366,-612"/>
<text text-anchor="middle" x="339" y="-590.3" font-family="Times,serif" font-size="14.00">+</text>
</g>
<!-- n0&#45;&gt;n39 -->
<g id="edge4" class="edge"><title>n0&#45;&gt;n39</title>
<path fill="none" stroke="black" d="M284.798,-647.697C293.604,-639.135 304.382,-628.656 314.001,-619.304"/>
<polygon fill="black" stroke="black" points="316.677,-621.585 321.407,-612.104 311.797,-616.566 316.677,-621.585"/>
</g>
<!-- n40 -->
<g id="node41" class="node"><title>n40</title>
<polygon fill="none" stroke="black" points="477,-612 423,-612 423,-576 477,-576 477,-612"/>
<text text-anchor="middle" x="450" y="-590.3" font-family="Times,serif" font-size="14.00">T</text>
</g>
<!-- n0&#45;&gt;n40 -->
<g id="edge5" class="edge"><title>n0&#45;&gt;n40</title>
<path fill="none" stroke="black" d="M294.002,-654.671C325.628,-642.574 378.17,-622.476 413.431,-608.988"/>
<polygon fill="black" stroke="black" points="414.797,-612.213 422.887,-605.371 412.296,-605.675 414.797,-612.213"/>
</g>
<!-- n2 -->
<g id="node3" class="node"><title>n2</title>
<polygon fill="none" stroke="black" points="108,-540 54,-540 54,-504 108,-504 108,-540"/>
<text text-anchor="middle" x="81" y="-518.3" font-family="Times,serif" font-size="14.00">F</text>
</g>
<!-- n1&#45;&gt;n2 -->
<g id="edge6" class="edge"><title>n1&#45;&gt;n2</title>
<path fill="none" stroke="black" d="M96.809,-575.697C94.4694,-567.898 91.6526,-558.509 89.0487,-549.829"/>
<polygon fill="black" stroke="black" points="92.3572,-548.677 86.1313,-540.104 85.6525,-550.688 92.3572,-548.677"/>
</g>
<!-- n3 -->
<g id="node4" class="node"><title>n3</title>
<polygon fill="none" stroke="black" points="78,-468 0,-468 0,-432 78,-432 78,-468"/>
<text text-anchor="middle" x="39" y="-446.3" font-family="Times,serif" font-size="14.00">IDENT : a </text>
</g>
<!-- n2&#45;&gt;n3 -->
<g id="edge7" class="edge"><title>n2&#45;&gt;n3</title>
<path fill="none" stroke="black" d="M70.618,-503.697C65.7353,-495.559 59.8134,-485.689 54.4208,-476.701"/>
<polygon fill="black" stroke="black" points="57.4088,-474.879 49.2626,-468.104 51.4064,-478.48 57.4088,-474.879"/>
</g>
<!-- n6 -->
<g id="node7" class="node"><title>n6</title>
<polygon fill="none" stroke="black" points="222,-540 168,-540 168,-504 222,-504 222,-540"/>
<text text-anchor="middle" x="195" y="-518.3" font-family="Times,serif" font-size="14.00">F</text>
</g>
<!-- n5&#45;&gt;n6 -->
<g id="edge8" class="edge"><title>n5&#45;&gt;n6</title>
<path fill="none" stroke="black" d="M249.202,-575.697C240.396,-567.135 229.618,-556.656 219.999,-547.304"/>
<polygon fill="black" stroke="black" points="222.203,-544.566 212.593,-540.104 217.323,-549.585 222.203,-544.566"/>
</g>
<!-- n16 -->
<g id="node17" class="node"><title>n16</title>
<polygon fill="none" stroke="black" points="294,-540 240,-540 240,-504 294,-504 294,-540"/>
<text text-anchor="middle" x="267" y="-518.3" font-family="Times,serif" font-size="14.00">*</text>
</g>
<!-- n5&#45;&gt;n16 -->
<g id="edge9" class="edge"><title>n5&#45;&gt;n16</title>
<path fill="none" stroke="black" d="M267,-575.697C267,-567.983 267,-558.712 267,-550.112"/>
<polygon fill="black" stroke="black" points="270.5,-550.104 267,-540.104 263.5,-550.104 270.5,-550.104"/>
</g>
<!-- n17 -->
<g id="node18" class="node"><title>n17</title>
<polygon fill="none" stroke="black" points="402,-540 348,-540 348,-504 402,-504 402,-540"/>
<text text-anchor="middle" x="375" y="-518.3" font-family="Times,serif" font-size="14.00">F</text>
</g>
<!-- n5&#45;&gt;n17 -->
<g id="edge10" class="edge"><title>n5&#45;&gt;n17</title>
<path fill="none" stroke="black" d="M293.42,-575.876C307.41,-566.808 324.776,-555.552 339.886,-545.759"/>
<polygon fill="black" stroke="black" points="341.991,-548.566 348.479,-540.19 338.183,-542.692 341.991,-548.566"/>
</g>
<!-- n7 -->
<g id="node8" class="node"><title>n7</title>
<polygon fill="none" stroke="black" points="150,-468 96,-468 96,-432 150,-432 150,-468"/>
<text text-anchor="middle" x="123" y="-446.3" font-family="Times,serif" font-size="14.00">(</text>
</g>
<!-- n6&#45;&gt;n7 -->
<g id="edge11" class="edge"><title>n6&#45;&gt;n7</title>
<path fill="none" stroke="black" d="M177.202,-503.697C168.396,-495.135 157.618,-484.656 147.999,-475.304"/>
<polygon fill="black" stroke="black" points="150.203,-472.566 140.593,-468.104 145.323,-477.585 150.203,-472.566"/>
</g>
<!-- n8 -->
<g id="node9" class="node"><title>n8</title>
<polygon fill="none" stroke="black" points="222,-468 168,-468 168,-432 222,-432 222,-468"/>
<text text-anchor="middle" x="195" y="-446.3" font-family="Times,serif" font-size="14.00">E</text>
</g>
<!-- n6&#45;&gt;n8 -->
<g id="edge12" class="edge"><title>n6&#45;&gt;n8</title>
<path fill="none" stroke="black" d="M195,-503.697C195,-495.983 195,-486.712 195,-478.112"/>
<polygon fill="black" stroke="black" points="198.5,-478.104 195,-468.104 191.5,-478.104 198.5,-478.104"/>
</g>
<!-- n15 -->
<g id="node16" class="node"><title>n15</title>
<polygon fill="none" stroke="black" points="294,-468 240,-468 240,-432 294,-432 294,-468"/>
<text text-anchor="middle" x="267" y="-446.3" font-family="Times,serif" font-size="14.00">)</text>
</g>
<!-- n6&#45;&gt;n15 -->
<g id="edge13" class="edge"><title>n6&#45;&gt;n15</title>
<path fill="none" stroke="black" d="M212.798,-503.697C221.604,-495.135 232.382,-484.656 242.001,-475.304"/>
<polygon fill="black" stroke="black" points="244.677,-477.585 249.407,-468.104 239.797,-472.566 244.677,-477.585"/>
</g>
<!-- n9 -->
<g id="node10" class="node"><title>n9</title>
<polygon fill="none" stroke="black" points="198,-396 144,-396 144,-360 198,-360 198,-396"/>
<text text-anchor="middle" x="171" y="-374.3" font-family="Times,serif" font-size="14.00">T</text>
</g>
<!-- n8&#45;&gt;n9 -->
<g id="edge14" class="edge"><title>n8&#45;&gt;n9</title>
<path fill="none" stroke="black" d="M189.067,-431.697C186.394,-423.898 183.174,-414.509 180.199,-405.829"/>
<polygon fill="black" stroke="black" points="183.418,-404.429 176.864,-396.104 176.797,-406.699 183.418,-404.429"/>
</g>
<!-- n10 -->
<g id="node11" class="node"><title>n10</title>
<polygon fill="none" stroke="black" points="90,-324 36,-324 36,-288 90,-288 90,-324"/>
<text text-anchor="middle" x="63" y="-302.3" font-family="Times,serif" font-size="14.00">F</text>
</g>
<!-- n9&#45;&gt;n10 -->
<g id="edge15" class="edge"><title>n9&#45;&gt;n10</title>
<path fill="none" stroke="black" d="M144.58,-359.876C130.59,-350.808 113.224,-339.552 98.1142,-329.759"/>
<polygon fill="black" stroke="black" points="99.8165,-326.692 89.5213,-324.19 96.0092,-332.566 99.8165,-326.692"/>
</g>
<!-- n12 -->
<g id="node13" class="node"><title>n12</title>
<polygon fill="none" stroke="black" points="162,-324 108,-324 108,-288 162,-288 162,-324"/>
<text text-anchor="middle" x="135" y="-302.3" font-family="Times,serif" font-size="14.00">*</text>
</g>
<!-- n9&#45;&gt;n12 -->
<g id="edge16" class="edge"><title>n9&#45;&gt;n12</title>
<path fill="none" stroke="black" d="M162.101,-359.697C158.003,-351.728 153.051,-342.1 148.507,-333.264"/>
<polygon fill="black" stroke="black" points="151.483,-331.396 143.797,-324.104 145.258,-334.598 151.483,-331.396"/>
</g>
<!-- n13 -->
<g id="node14" class="node"><title>n13</title>
<polygon fill="none" stroke="black" points="234,-324 180,-324 180,-288 234,-288 234,-324"/>
<text text-anchor="middle" x="207" y="-302.3" font-family="Times,serif" font-size="14.00">F</text>
</g>
<!-- n9&#45;&gt;n13 -->
<g id="edge17" class="edge"><title>n9&#45;&gt;n13</title>
<path fill="none" stroke="black" d="M179.899,-359.697C183.997,-351.728 188.949,-342.1 193.493,-333.264"/>
<polygon fill="black" stroke="black" points="196.742,-334.598 198.203,-324.104 190.517,-331.396 196.742,-334.598"/>
</g>
<!-- n11 -->
<g id="node12" class="node"><title>n11</title>
<polygon fill="none" stroke="black" points="102.5,-252 23.5,-252 23.5,-216 102.5,-216 102.5,-252"/>
<text text-anchor="middle" x="63" y="-230.3" font-family="Times,serif" font-size="14.00">IDENT : b </text>
</g>
<!-- n10&#45;&gt;n11 -->
<g id="edge18" class="edge"><title>n10&#45;&gt;n11</title>
<path fill="none" stroke="black" d="M63,-287.697C63,-279.983 63,-270.712 63,-262.112"/>
<polygon fill="black" stroke="black" points="66.5001,-262.104 63,-252.104 59.5001,-262.104 66.5001,-262.104"/>
</g>
<!-- n14 -->
<g id="node15" class="node"><title>n14</title>
<polygon fill="none" stroke="black" points="239,-252 161,-252 161,-216 239,-216 239,-252"/>
<text text-anchor="middle" x="200" y="-230.3" font-family="Times,serif" font-size="14.00">IDENT : c </text>
</g>
<!-- n13&#45;&gt;n14 -->
<g id="edge19" class="edge"><title>n13&#45;&gt;n14</title>
<path fill="none" stroke="black" d="M205.27,-287.697C204.498,-279.983 203.571,-270.712 202.711,-262.112"/>
<polygon fill="black" stroke="black" points="206.188,-261.706 201.71,-252.104 199.223,-262.403 206.188,-261.706"/>
</g>
<!-- n18 -->
<g id="node19" class="node"><title>n18</title>
<polygon fill="none" stroke="black" points="366,-468 312,-468 312,-432 366,-432 366,-468"/>
<text text-anchor="middle" x="339" y="-446.3" font-family="Times,serif" font-size="14.00">(</text>
</g>
<!-- n17&#45;&gt;n18 -->
<g id="edge20" class="edge"><title>n17&#45;&gt;n18</title>
<path fill="none" stroke="black" d="M366.101,-503.697C362.003,-495.728 357.051,-486.1 352.507,-477.264"/>
<polygon fill="black" stroke="black" points="355.483,-475.396 347.797,-468.104 349.258,-478.598 355.483,-475.396"/>
</g>
<!-- n19 -->
<g id="node20" class="node"><title>n19</title>
<polygon fill="none" stroke="black" points="438,-468 384,-468 384,-432 438,-432 438,-468"/>
<text text-anchor="middle" x="411" y="-446.3" font-family="Times,serif" font-size="14.00">E</text>
</g>
<!-- n17&#45;&gt;n19 -->
<g id="edge21" class="edge"><title>n17&#45;&gt;n19</title>
<path fill="none" stroke="black" d="M383.899,-503.697C387.997,-495.728 392.949,-486.1 397.493,-477.264"/>
<polygon fill="black" stroke="black" points="400.742,-478.598 402.203,-468.104 394.517,-475.396 400.742,-478.598"/>
</g>
<!-- n38 -->
<g id="node39" class="node"><title>n38</title>
<polygon fill="none" stroke="black" points="510,-468 456,-468 456,-432 510,-432 510,-468"/>
<text text-anchor="middle" x="483" y="-446.3" font-family="Times,serif" font-size="14.00">)</text>
</g>
<!-- n17&#45;&gt;n38 -->
<g id="edge22" class="edge"><title>n17&#45;&gt;n38</title>
<path fill="none" stroke="black" d="M401.42,-503.876C415.41,-494.808 432.776,-483.552 447.886,-473.759"/>
<polygon fill="black" stroke="black" points="449.991,-476.566 456.479,-468.19 446.183,-470.692 449.991,-476.566"/>
</g>
<!-- n20 -->
<g id="node21" class="node"><title>n20</title>
<polygon fill="none" stroke="black" points="390,-396 336,-396 336,-360 390,-360 390,-396"/>
<text text-anchor="middle" x="363" y="-374.3" font-family="Times,serif" font-size="14.00">T</text>
</g>
<!-- n19&#45;&gt;n20 -->
<g id="edge23" class="edge"><title>n19&#45;&gt;n20</title>
<path fill="none" stroke="black" d="M399.135,-431.697C393.497,-423.474 386.646,-413.483 380.431,-404.421"/>
<polygon fill="black" stroke="black" points="383.271,-402.372 374.729,-396.104 377.497,-406.331 383.271,-402.372"/>
</g>
<!-- n26 -->
<g id="node27" class="node"><title>n26</title>
<polygon fill="none" stroke="black" points="462,-396 408,-396 408,-360 462,-360 462,-396"/>
<text text-anchor="middle" x="435" y="-374.3" font-family="Times,serif" font-size="14.00">+</text>
</g>
<!-- n19&#45;&gt;n26 -->
<g id="edge24" class="edge"><title>n19&#45;&gt;n26</title>
<path fill="none" stroke="black" d="M416.933,-431.697C419.606,-423.898 422.826,-414.509 425.801,-405.829"/>
<polygon fill="black" stroke="black" points="429.203,-406.699 429.136,-396.104 422.582,-404.429 429.203,-406.699"/>
</g>
<!-- n27 -->
<g id="node28" class="node"><title>n27</title>
<polygon fill="none" stroke="black" points="534,-396 480,-396 480,-360 534,-360 534,-396"/>
<text text-anchor="middle" x="507" y="-374.3" font-family="Times,serif" font-size="14.00">T</text>
</g>
<!-- n19&#45;&gt;n27 -->
<g id="edge25" class="edge"><title>n19&#45;&gt;n27</title>
<path fill="none" stroke="black" d="M434.73,-431.697C446.937,-422.796 461.985,-411.823 475.184,-402.199"/>
<polygon fill="black" stroke="black" points="477.525,-404.824 483.543,-396.104 473.4,-399.168 477.525,-404.824"/>
</g>
<!-- n21 -->
<g id="node22" class="node"><title>n21</title>
<polygon fill="none" stroke="black" points="318,-324 264,-324 264,-288 318,-288 318,-324"/>
<text text-anchor="middle" x="291" y="-302.3" font-family="Times,serif" font-size="14.00">F</text>
</g>
<!-- n20&#45;&gt;n21 -->
<g id="edge26" class="edge"><title>n20&#45;&gt;n21</title>
<path fill="none" stroke="black" d="M345.202,-359.697C336.396,-351.135 325.618,-340.656 315.999,-331.304"/>
<polygon fill="black" stroke="black" points="318.203,-328.566 308.593,-324.104 313.323,-333.585 318.203,-328.566"/>
</g>
<!-- n23 -->
<g id="node24" class="node"><title>n23</title>
<polygon fill="none" stroke="black" points="390,-324 336,-324 336,-288 390,-288 390,-324"/>
<text text-anchor="middle" x="363" y="-302.3" font-family="Times,serif" font-size="14.00">*</text>
</g>
<!-- n20&#45;&gt;n23 -->
<g id="edge27" class="edge"><title>n20&#45;&gt;n23</title>
<path fill="none" stroke="black" d="M363,-359.697C363,-351.983 363,-342.712 363,-334.112"/>
<polygon fill="black" stroke="black" points="366.5,-334.104 363,-324.104 359.5,-334.104 366.5,-334.104"/>
</g>
<!-- n24 -->
<g id="node25" class="node"><title>n24</title>
<polygon fill="none" stroke="black" points="462,-324 408,-324 408,-288 462,-288 462,-324"/>
<text text-anchor="middle" x="435" y="-302.3" font-family="Times,serif" font-size="14.00">F</text>
</g>
<!-- n20&#45;&gt;n24 -->
<g id="edge28" class="edge"><title>n20&#45;&gt;n24</title>
<path fill="none" stroke="black" d="M380.798,-359.697C389.604,-351.135 400.382,-340.656 410.001,-331.304"/>
<polygon fill="black" stroke="black" points="412.677,-333.585 417.407,-324.104 407.797,-328.566 412.677,-333.585"/>
</g>
<!-- n22 -->
<g id="node23" class="node"><title>n22</title>
<polygon fill="none" stroke="black" points="336.5,-252 257.5,-252 257.5,-216 336.5,-216 336.5,-252"/>
<text text-anchor="middle" x="297" y="-230.3" font-family="Times,serif" font-size="14.00">IDENT : d </text>
</g>
<!-- n21&#45;&gt;n22 -->
<g id="edge29" class="edge"><title>n21&#45;&gt;n22</title>
<path fill="none" stroke="black" d="M292.483,-287.697C293.144,-279.983 293.939,-270.712 294.676,-262.112"/>
<polygon fill="black" stroke="black" points="298.167,-262.367 295.534,-252.104 291.193,-261.769 298.167,-262.367"/>
</g>
<!-- n25 -->
<g id="node26" class="node"><title>n25</title>
<polygon fill="none" stroke="black" points="456,-252 378,-252 378,-216 456,-216 456,-252"/>
<text text-anchor="middle" x="417" y="-230.3" font-family="Times,serif" font-size="14.00">IDENT : e </text>
</g>
<!-- n24&#45;&gt;n25 -->
<g id="edge30" class="edge"><title>n24&#45;&gt;n25</title>
<path fill="none" stroke="black" d="M430.551,-287.697C428.545,-279.898 426.131,-270.509 423.899,-261.829"/>
<polygon fill="black" stroke="black" points="427.278,-260.918 421.398,-252.104 420.499,-262.661 427.278,-260.918"/>
</g>
<!-- n28 -->
<g id="node29" class="node"><title>n28</title>
<polygon fill="none" stroke="black" points="552,-324 498,-324 498,-288 552,-288 552,-324"/>
<text text-anchor="middle" x="525" y="-302.3" font-family="Times,serif" font-size="14.00">F</text>
</g>
<!-- n27&#45;&gt;n28 -->
<g id="edge31" class="edge"><title>n27&#45;&gt;n28</title>
<path fill="none" stroke="black" d="M511.449,-359.697C513.455,-351.898 515.869,-342.509 518.101,-333.829"/>
<polygon fill="black" stroke="black" points="521.501,-334.661 520.602,-324.104 514.722,-332.918 521.501,-334.661"/>
</g>
<!-- n29 -->
<g id="node30" class="node"><title>n29</title>
<polygon fill="none" stroke="black" points="528,-252 474,-252 474,-216 528,-216 528,-252"/>
<text text-anchor="middle" x="501" y="-230.3" font-family="Times,serif" font-size="14.00">(</text>
</g>
<!-- n28&#45;&gt;n29 -->
<g id="edge32" class="edge"><title>n28&#45;&gt;n29</title>
<path fill="none" stroke="black" d="M519.067,-287.697C516.394,-279.898 513.174,-270.509 510.199,-261.829"/>
<polygon fill="black" stroke="black" points="513.418,-260.429 506.864,-252.104 506.797,-262.699 513.418,-260.429"/>
</g>
<!-- n30 -->
<g id="node31" class="node"><title>n30</title>
<polygon fill="none" stroke="black" points="600,-252 546,-252 546,-216 600,-216 600,-252"/>
<text text-anchor="middle" x="573" y="-230.3" font-family="Times,serif" font-size="14.00">E</text>
</g>
<!-- n28&#45;&gt;n30 -->
<g id="edge33" class="edge"><title>n28&#45;&gt;n30</title>
<path fill="none" stroke="black" d="M536.865,-287.697C542.503,-279.474 549.354,-269.483 555.569,-260.421"/>
<polygon fill="black" stroke="black" points="558.503,-262.331 561.271,-252.104 552.729,-258.372 558.503,-262.331"/>
</g>
<!-- n37 -->
<g id="node38" class="node"><title>n37</title>
<polygon fill="none" stroke="black" points="672,-252 618,-252 618,-216 672,-216 672,-252"/>
<text text-anchor="middle" x="645" y="-230.3" font-family="Times,serif" font-size="14.00">)</text>
</g>
<!-- n28&#45;&gt;n37 -->
<g id="edge34" class="edge"><title>n28&#45;&gt;n37</title>
<path fill="none" stroke="black" d="M552.23,-289.116C569.107,-279.271 590.974,-266.515 609.239,-255.861"/>
<polygon fill="black" stroke="black" points="611.004,-258.883 617.878,-250.821 607.477,-252.837 611.004,-258.883"/>
</g>
<!-- n31 -->
<g id="node32" class="node"><title>n31</title>
<polygon fill="none" stroke="black" points="600,-180 546,-180 546,-144 600,-144 600,-180"/>
<text text-anchor="middle" x="573" y="-158.3" font-family="Times,serif" font-size="14.00">T</text>
</g>
<!-- n30&#45;&gt;n31 -->
<g id="edge35" class="edge"><title>n30&#45;&gt;n31</title>
<path fill="none" stroke="black" d="M573,-215.697C573,-207.983 573,-198.712 573,-190.112"/>
<polygon fill="black" stroke="black" points="576.5,-190.104 573,-180.104 569.5,-190.104 576.5,-190.104"/>
</g>
<!-- n32 -->
<g id="node33" class="node"><title>n32</title>
<polygon fill="none" stroke="black" points="528,-108 474,-108 474,-72 528,-72 528,-108"/>
<text text-anchor="middle" x="501" y="-86.3" font-family="Times,serif" font-size="14.00">F</text>
</g>
<!-- n31&#45;&gt;n32 -->
<g id="edge36" class="edge"><title>n31&#45;&gt;n32</title>
<path fill="none" stroke="black" d="M555.202,-143.697C546.396,-135.135 535.618,-124.656 525.999,-115.304"/>
<polygon fill="black" stroke="black" points="528.203,-112.566 518.593,-108.104 523.323,-117.585 528.203,-112.566"/>
</g>
<!-- n34 -->
<g id="node35" class="node"><title>n34</title>
<polygon fill="none" stroke="black" points="600,-108 546,-108 546,-72 600,-72 600,-108"/>
<text text-anchor="middle" x="573" y="-86.3" font-family="Times,serif" font-size="14.00">*</text>
</g>
<!-- n31&#45;&gt;n34 -->
<g id="edge37" class="edge"><title>n31&#45;&gt;n34</title>
<path fill="none" stroke="black" d="M573,-143.697C573,-135.983 573,-126.712 573,-118.112"/>
<polygon fill="black" stroke="black" points="576.5,-118.104 573,-108.104 569.5,-118.104 576.5,-118.104"/>
</g>
<!-- n35 -->
<g id="node36" class="node"><title>n35</title>
<polygon fill="none" stroke="black" points="672,-108 618,-108 618,-72 672,-72 672,-108"/>
<text text-anchor="middle" x="645" y="-86.3" font-family="Times,serif" font-size="14.00">F</text>
</g>
<!-- n31&#45;&gt;n35 -->
<g id="edge38" class="edge"><title>n31&#45;&gt;n35</title>
<path fill="none" stroke="black" d="M590.798,-143.697C599.604,-135.135 610.382,-124.656 620.001,-115.304"/>
<polygon fill="black" stroke="black" points="622.677,-117.585 627.407,-108.104 617.797,-112.566 622.677,-117.585"/>
</g>
<!-- n33 -->
<g id="node34" class="node"><title>n33</title>
<polygon fill="none" stroke="black" points="540,-36 462,-36 462,-0 540,-0 540,-36"/>
<text text-anchor="middle" x="501" y="-14.3" font-family="Times,serif" font-size="14.00">IDENT : a </text>
</g>
<!-- n32&#45;&gt;n33 -->
<g id="edge39" class="edge"><title>n32&#45;&gt;n33</title>
<path fill="none" stroke="black" d="M501,-71.6966C501,-63.9827 501,-54.7125 501,-46.1124"/>
<polygon fill="black" stroke="black" points="504.5,-46.1043 501,-36.1043 497.5,-46.1044 504.5,-46.1043"/>
</g>
<!-- n36 -->
<g id="node37" class="node"><title>n36</title>
<polygon fill="none" stroke="black" points="684.5,-36 605.5,-36 605.5,-0 684.5,-0 684.5,-36"/>
<text text-anchor="middle" x="645" y="-14.3" font-family="Times,serif" font-size="14.00">IDENT : b </text>
</g>
<!-- n35&#45;&gt;n36 -->
<g id="edge40" class="edge"><title>n35&#45;&gt;n36</title>
<path fill="none" stroke="black" d="M645,-71.6966C645,-63.9827 645,-54.7125 645,-46.1124"/>
<polygon fill="black" stroke="black" points="648.5,-46.1043 645,-36.1043 641.5,-46.1044 648.5,-46.1043"/>
</g>
<!-- n41 -->
<g id="node42" class="node"><title>n41</title>
<polygon fill="none" stroke="black" points="555,-540 501,-540 501,-504 555,-504 555,-540"/>
<text text-anchor="middle" x="528" y="-518.3" font-family="Times,serif" font-size="14.00">F</text>
</g>
<!-- n40&#45;&gt;n41 -->
<g id="edge41" class="edge"><title>n40&#45;&gt;n41</title>
<path fill="none" stroke="black" d="M469.281,-575.697C478.915,-567.05 490.729,-556.449 501.227,-547.027"/>
<polygon fill="black" stroke="black" points="503.836,-549.388 508.941,-540.104 499.161,-544.179 503.836,-549.388"/>
</g>
<!-- n42 -->
<g id="node43" class="node"><title>n42</title>
<polygon fill="none" stroke="black" points="607.5,-468 528.5,-468 528.5,-432 607.5,-432 607.5,-468"/>
<text text-anchor="middle" x="568" y="-446.3" font-family="Times,serif" font-size="14.00">IDENT : q </text>
</g>
<!-- n41&#45;&gt;n42 -->
<g id="edge42" class="edge"><title>n41&#45;&gt;n42</title>
<path fill="none" stroke="black" d="M537.888,-503.697C542.489,-495.644 548.06,-485.894 553.153,-476.982"/>
<polygon fill="black" stroke="black" points="556.304,-478.523 558.226,-468.104 550.226,-475.05 556.304,-478.523"/>
</g>
</g>
</svg>
