<?xml version="1.0" encoding="UTF-8" standalone="no"?>
<!DOCTYPE svg PUBLIC "-//W3C//DTD SVG 1.1//EN"
 "http://www.w3.org/Graphics/SVG/1.1/DTD/svg11.dtd">
<!-- Generated by graphviz version 2.38.0 (20140413.2041)
 -->
<!-- Title: G Pages: 1 -->
<svg width="510pt" height="392pt"
 viewBox="0.00 0.00 510.00 392.19" xmlns="http://www.w3.org/2000/svg" xmlns:xlink="http://www.w3.org/1999/xlink">
<g id="graph0" class="graph" transform="scale(1 1) rotate(0) translate(4 388.191)">
<title>G</title>
<polygon fill="blue" stroke="none" points="-4,4 -4,-388.191 506,-388.191 506,4 -4,4"/>
<g id="clust1" class="cluster"><title>cluster_1</title>
<polygon fill="blue" stroke="black" points="49,-291.191 49,-376.191 489,-376.191 489,-291.191 49,-291.191"/>
<text text-anchor="middle" x="269" y="-360.991" font-family="Times,serif" font-size="14.00" fill="white">X11 Colors</text>
</g>
<g id="clust2" class="cluster"><title>cluster_2</title>
<polygon fill="blue" stroke="black" points="49,-198.191 49,-283.191 489,-283.191 489,-198.191 49,-198.191"/>
<text text-anchor="middle" x="269" y="-267.991" font-family="Times,serif" font-size="14.00" fill="white">SVG Colors</text>
</g>
<g id="clust3" class="cluster"><title>cluster_3</title>
<polygon fill="blue" stroke="black" points="8,-103.096 8,-190.191 494,-190.191 494,-103.096 8,-103.096"/>
<text text-anchor="middle" x="251" y="-174.991" font-family="Times,serif" font-size="14.00" fill="white">Brewer &#45; accent</text>
</g>
<g id="clust4" class="cluster"><title>cluster_4</title>
<polygon fill="blue" stroke="black" points="8,-8 8,-95.0957 494,-95.0957 494,-8 8,-8"/>
<text text-anchor="middle" x="251" y="-79.8957" font-family="Times,serif" font-size="14.00" fill="white">Brewer &#45; blues</text>
</g>
<!-- n5 -->
<g id="node1" class="node"><title>n5</title>
<defs>
<linearGradient id="l_0" gradientUnits="userSpaceOnUse" x1="427" y1="-322.191" x2="481" y2="-322.191" >
<stop offset="0" style="stop-color:antiquewhite;stop-opacity:1.;"/>
<stop offset="1" style="stop-color:aquamarine;stop-opacity:1.;"/>
</linearGradient>
</defs>
<polygon fill="url(#l_0)" stroke="black" points="481,-340.191 427,-340.191 427,-304.191 481,-304.191 481,-340.191"/>
<text text-anchor="middle" x="454" y="-318.491" font-family="Times,serif" font-size="14.00">n5</text>
</g>
<!-- n4 -->
<g id="node2" class="node"><title>n4</title>
<defs>
<linearGradient id="l_1" gradientUnits="userSpaceOnUse" x1="355" y1="-322.191" x2="409" y2="-322.191" >
<stop offset="0" style="stop-color:#8b7d6b;stop-opacity:1.;"/>
<stop offset="1" style="stop-color:#0000ee;stop-opacity:1.;"/>
</linearGradient>
</defs>
<ellipse fill="url(#l_1)" stroke="black" cx="382" cy="-322.191" rx="27" ry="18"/>
<text text-anchor="middle" x="382" y="-318.491" font-family="Times,serif" font-size="14.00">n4</text>
</g>
<!-- n3 -->
<g id="node3" class="node"><title>n3</title>
<defs>
<linearGradient id="l_2" gradientUnits="userSpaceOnUse" x1="298.503" y1="-322.191" x2="337.497" y2="-322.191" >
<stop offset="0" style="stop-color:#98f5ff;stop-opacity:1.;"/>
<stop offset="1" style="stop-color:#ff7f24;stop-opacity:1.;"/>
</linearGradient>
</defs>
<ellipse fill="url(#l_2)" stroke="black" cx="318" cy="-322.191" rx="19.4965" ry="19.4965"/>
<text text-anchor="middle" x="318" y="-318.491" font-family="Times,serif" font-size="14.00">n3</text>
</g>
<!-- n9 -->
<g id="node9" class="node"><title>n9</title>
<defs>
<linearGradient id="l_3" gradientUnits="userSpaceOnUse" x1="298.503" y1="-229.191" x2="337.497" y2="-229.191" >
<stop offset="0" style="stop-color:deepskyblue;stop-opacity:1.;"/>
<stop offset="1" style="stop-color:gold;stop-opacity:1.;"/>
</linearGradient>
</defs>
<ellipse fill="url(#l_3)" stroke="black" cx="318" cy="-229.191" rx="19.4965" ry="19.4965"/>
<text text-anchor="middle" x="318" y="-225.491" font-family="Times,serif" font-size="14.00">n9</text>
</g>
<!-- n3&#45;&gt;n9 -->
<g id="edge1" class="edge"><title>n3&#45;&gt;n9</title>
<path fill="none" stroke="black" d="M318,-302.336C318,-289.808 318,-273.118 318,-258.947"/>
<polygon fill="black" stroke="black" points="321.5,-258.711 318,-248.711 314.5,-258.711 321.5,-258.711"/>
</g>
<!-- n2 -->
<g id="node4" class="node"><title>n2</title>
<defs>
<linearGradient id="l_4" gradientUnits="userSpaceOnUse" x1="225.35" y1="-322.191" x2="280.65" y2="-322.191" >
<stop offset="0" style="stop-color:crimson;stop-opacity:1.;"/>
<stop offset="1" style="stop-color:#008b8b;stop-opacity:1.;"/>
</linearGradient>
</defs>
<polygon fill="url(#l_4)" stroke="black" points="253,-340.191 225.35,-322.191 253,-304.191 280.65,-322.191 253,-340.191"/>
<text text-anchor="middle" x="253" y="-318.491" font-family="Times,serif" font-size="14.00">n2</text>
</g>
<!-- n1 -->
<g id="node5" class="node"><title>n1</title>
<defs>
<linearGradient id="l_5" gradientUnits="userSpaceOnUse" x1="129.007" y1="-327.941" x2="206.993" y2="-327.941" >
<stop offset="0" style="stop-color:#00b2ee;stop-opacity:1.;"/>
<stop offset="1" style="stop-color:firebrick;stop-opacity:1.;"/>
</linearGradient>
</defs>
<polygon fill="url(#l_5)" stroke="black" points="168,-345.191 129.007,-310.691 206.993,-310.691 168,-345.191"/>
<text text-anchor="middle" x="168" y="-318.491" font-family="Times,serif" font-size="14.00">n1</text>
</g>
<!-- n0 -->
<g id="node6" class="node"><title>n0</title>
<defs>
<linearGradient id="l_6" gradientUnits="userSpaceOnUse" x1="57" y1="-323.91" x2="111" y2="-323.91" >
<stop offset="0" style="stop-color:#3d3d3d;stop-opacity:1.;"/>
<stop offset="1" style="stop-color:#e0e0e0;stop-opacity:1.;"/>
</linearGradient>
</defs>
<polygon fill="url(#l_6)" stroke="black" points="111,-327.754 84,-340.191 57,-327.754 67.3131,-307.629 100.687,-307.629 111,-327.754"/>
<text text-anchor="middle" x="84" y="-318.491" font-family="Times,serif" font-size="14.00">n0</text>
</g>
<!-- n11 -->
<g id="node7" class="node"><title>n11</title>
<defs>
<linearGradient id="l_7" gradientUnits="userSpaceOnUse" x1="427" y1="-229.191" x2="481" y2="-229.191" >
<stop offset="0" style="stop-color:bisque;stop-opacity:1.;"/>
<stop offset="1" style="stop-color:brown;stop-opacity:1.;"/>
</linearGradient>
</defs>
<polygon fill="url(#l_7)" stroke="black" points="481,-247.191 427,-247.191 427,-211.191 481,-211.191 481,-247.191"/>
<text text-anchor="middle" x="454" y="-225.491" font-family="Times,serif" font-size="14.00">n11</text>
</g>
<!-- n10 -->
<g id="node8" class="node"><title>n10</title>
<defs>
<linearGradient id="l_8" gradientUnits="userSpaceOnUse" x1="355" y1="-229.191" x2="409" y2="-229.191" >
<stop offset="0" style="stop-color:green;stop-opacity:1.;"/>
<stop offset="1" style="stop-color:darkorchid;stop-opacity:1.;"/>
</linearGradient>
</defs>
<ellipse fill="url(#l_8)" stroke="black" cx="382" cy="-229.191" rx="27" ry="18"/>
<text text-anchor="middle" x="382" y="-225.491" font-family="Times,serif" font-size="14.00">n10</text>
</g>
<!-- n15 -->
<g id="node15" class="node"><title>n15</title>
<defs>
<linearGradient id="l_9" gradientUnits="userSpaceOnUse" x1="293.904" y1="-135.144" x2="342.096" y2="-135.144" >
<stop offset="0" style="stop-color:#7fc97f;stop-opacity:1.;"/>
<stop offset="1" style="stop-color:#386cb0;stop-opacity:1.;"/>
</linearGradient>
</defs>
<ellipse fill="url(#l_9)" stroke="black" cx="318" cy="-135.144" rx="24.0958" ry="24.0958"/>
<text text-anchor="middle" x="318" y="-131.444" font-family="Times,serif" font-size="14.00">n15</text>
</g>
<!-- n9&#45;&gt;n15 -->
<g id="edge2" class="edge"><title>n9&#45;&gt;n15</title>
<path fill="none" stroke="black" d="M318,-209.564C318,-198.124 318,-183.132 318,-169.68"/>
<polygon fill="black" stroke="black" points="321.5,-169.319 318,-159.319 314.5,-169.319 321.5,-169.319"/>
</g>
<!-- n8 -->
<g id="node10" class="node"><title>n8</title>
<defs>
<linearGradient id="l_10" gradientUnits="userSpaceOnUse" x1="225.35" y1="-229.191" x2="280.65" y2="-229.191" >
<stop offset="0" style="stop-color:lightseagreen;stop-opacity:1.;"/>
<stop offset="1" style="stop-color:orangered;stop-opacity:1.;"/>
</linearGradient>
</defs>
<polygon fill="url(#l_10)" stroke="black" points="253,-247.191 225.35,-229.191 253,-211.191 280.65,-229.191 253,-247.191"/>
<text text-anchor="middle" x="253" y="-225.491" font-family="Times,serif" font-size="14.00">n8</text>
</g>
<!-- n7 -->
<g id="node11" class="node"><title>n7</title>
<defs>
<linearGradient id="l_11" gradientUnits="userSpaceOnUse" x1="129.007" y1="-234.941" x2="206.993" y2="-234.941" >
<stop offset="0" style="stop-color:turquoise;stop-opacity:1.;"/>
<stop offset="1" style="stop-color:salmon;stop-opacity:1.;"/>
</linearGradient>
</defs>
<polygon fill="url(#l_11)" stroke="black" points="168,-252.191 129.007,-217.691 206.993,-217.691 168,-252.191"/>
<text text-anchor="middle" x="168" y="-225.491" font-family="Times,serif" font-size="14.00">n7</text>
</g>
<!-- n6 -->
<g id="node12" class="node"><title>n6</title>
<defs>
<linearGradient id="l_12" gradientUnits="userSpaceOnUse" x1="57" y1="-230.91" x2="111" y2="-230.91" >
<stop offset="0" style="stop-color:snow;stop-opacity:1.;"/>
<stop offset="1" style="stop-color:black;stop-opacity:1.;"/>
</linearGradient>
</defs>
<polygon fill="url(#l_12)" stroke="black" points="111,-234.754 84,-247.191 57,-234.754 67.3131,-214.629 100.687,-214.629 111,-234.754"/>
<text text-anchor="middle" x="84" y="-225.491" font-family="Times,serif" font-size="14.00">n6</text>
</g>
<!-- n17 -->
<g id="node13" class="node"><title>n17</title>
<defs>
<linearGradient id="l_13" gradientUnits="userSpaceOnUse" x1="432" y1="-135.144" x2="486" y2="-135.144" >
<stop offset="0" style="stop-color:#7fc97f;stop-opacity:1.;"/>
<stop offset="1" style="stop-color:#fdc086;stop-opacity:1.;"/>
</linearGradient>
</defs>
<polygon fill="url(#l_13)" stroke="black" points="486,-153.144 432,-153.144 432,-117.144 486,-117.144 486,-153.144"/>
<text text-anchor="middle" x="459" y="-131.444" font-family="Times,serif" font-size="14.00">n17</text>
</g>
<!-- n16 -->
<g id="node14" class="node"><title>n16</title>
<defs>
<linearGradient id="l_14" gradientUnits="userSpaceOnUse" x1="360" y1="-135.144" x2="414" y2="-135.144" >
<stop offset="0" style="stop-color:#7fc97f;stop-opacity:1.;"/>
<stop offset="1" style="stop-color:#ffff99;stop-opacity:1.;"/>
</linearGradient>
</defs>
<ellipse fill="url(#l_14)" stroke="black" cx="387" cy="-135.144" rx="27" ry="18"/>
<text text-anchor="middle" x="387" y="-131.444" font-family="Times,serif" font-size="14.00">n16</text>
</g>
<!-- n21 -->
<g id="node21" class="node"><title>n21</title>
<defs>
<linearGradient id="l_15" gradientUnits="userSpaceOnUse" x1="293.904" y1="-40.0479" x2="342.096" y2="-40.0479" >
<stop offset="0" style="stop-color:#eff3ff;stop-opacity:1.;"/>
<stop offset="1" style="stop-color:#3182bd;stop-opacity:1.;"/>
</linearGradient>
</defs>
<ellipse fill="url(#l_15)" stroke="black" cx="318" cy="-40.0479" rx="24.0958" ry="24.0958"/>
<text text-anchor="middle" x="318" y="-36.3479" font-family="Times,serif" font-size="14.00">n21</text>
</g>
<!-- n15&#45;&gt;n21 -->
<g id="edge3" class="edge"><title>n15&#45;&gt;n21</title>
<path fill="none" stroke="black" d="M318,-110.652C318,-99.6531 318,-86.357 318,-74.3451"/>
<polygon fill="black" stroke="black" points="321.5,-74.2098 318,-64.2098 314.5,-74.2099 321.5,-74.2098"/>
</g>
<!-- n14 -->
<g id="node16" class="node"><title>n14</title>
<defs>
<linearGradient id="l_16" gradientUnits="userSpaceOnUse" x1="207.982" y1="-135.144" x2="276.018" y2="-135.144" >
<stop offset="0" style="stop-color:#7fc97f;stop-opacity:1.;"/>
<stop offset="1" style="stop-color:#f0027f;stop-opacity:1.;"/>
</linearGradient>
</defs>
<polygon fill="url(#l_16)" stroke="black" points="242,-153.144 207.982,-135.144 242,-117.144 276.018,-135.144 242,-153.144"/>
<text text-anchor="middle" x="242" y="-131.444" font-family="Times,serif" font-size="14.00">n14</text>
</g>
<!-- n13 -->
<g id="node17" class="node"><title>n13</title>
<defs>
<linearGradient id="l_17" gradientUnits="userSpaceOnUse" x1="93.8083" y1="-140.894" x2="190.192" y2="-140.894" >
<stop offset="0" style="stop-color:#7fc97f;stop-opacity:1.;"/>
<stop offset="1" style="stop-color:#bf5b17;stop-opacity:1.;"/>
</linearGradient>
</defs>
<polygon fill="url(#l_17)" stroke="black" points="142,-158.144 93.8083,-123.644 190.192,-123.644 142,-158.144"/>
<text text-anchor="middle" x="142" y="-131.444" font-family="Times,serif" font-size="14.00">n13</text>
</g>
<!-- n12 -->
<g id="node18" class="node"><title>n12</title>
<defs>
<linearGradient id="l_18" gradientUnits="userSpaceOnUse" x1="16.0487" y1="-136.862" x2="75.9513" y2="-136.862" >
<stop offset="0" style="stop-color:#7fc97f;stop-opacity:1.;"/>
<stop offset="1" style="stop-color:#666666;stop-opacity:1.;"/>
</linearGradient>
</defs>
<polygon fill="url(#l_18)" stroke="black" points="75.9513,-140.706 46,-153.144 16.0487,-140.706 27.4891,-120.581 64.5109,-120.581 75.9513,-140.706"/>
<text text-anchor="middle" x="46" y="-131.444" font-family="Times,serif" font-size="14.00">n12</text>
</g>
<!-- n23 -->
<g id="node19" class="node"><title>n23</title>
<defs>
<linearGradient id="l_19" gradientUnits="userSpaceOnUse" x1="432" y1="-40.0479" x2="486" y2="-40.0479" >
<stop offset="0" style="stop-color:#deebf7;stop-opacity:1.;"/>
<stop offset="1" style="stop-color:#9ecae1;stop-opacity:1.;"/>
</linearGradient>
</defs>
<polygon fill="url(#l_19)" stroke="black" points="486,-58.0479 432,-58.0479 432,-22.0479 486,-22.0479 486,-58.0479"/>
<text text-anchor="middle" x="459" y="-36.3479" font-family="Times,serif" font-size="14.00">n23</text>
</g>
<!-- n22 -->
<g id="node20" class="node"><title>n22</title>
<defs>
<linearGradient id="l_20" gradientUnits="userSpaceOnUse" x1="360" y1="-40.0479" x2="414" y2="-40.0479" >
<stop offset="0" style="stop-color:#eff3ff;stop-opacity:1.;"/>
<stop offset="1" style="stop-color:#6baed6;stop-opacity:1.;"/>
</linearGradient>
</defs>
<ellipse fill="url(#l_20)" stroke="black" cx="387" cy="-40.0479" rx="27" ry="18"/>
<text text-anchor="middle" x="387" y="-36.3479" font-family="Times,serif" font-size="14.00">n22</text>
</g>
<!-- n20 -->
<g id="node22" class="node"><title>n20</title>
<defs>
<linearGradient id="l_21" gradientUnits="userSpaceOnUse" x1="207.982" y1="-40.0479" x2="276.018" y2="-40.0479" >
<stop offset="0" style="stop-color:#eff3ff;stop-opacity:1.;"/>
<stop offset="1" style="stop-color:#3182bd;stop-opacity:1.;"/>
</linearGradient>
</defs>
<polygon fill="url(#l_21)" stroke="black" points="242,-58.0479 207.982,-40.0479 242,-22.0479 276.018,-40.0479 242,-58.0479"/>
<text text-anchor="middle" x="242" y="-36.3479" font-family="Times,serif" font-size="14.00">n20</text>
</g>
<!-- n19 -->
<g id="node23" class="node"><title>n19</title>
<defs>
<linearGradient id="l_22" gradientUnits="userSpaceOnUse" x1="93.8083" y1="-45.7979" x2="190.192" y2="-45.7979" >
<stop offset="0" style="stop-color:#eff3ff;stop-opacity:1.;"/>
<stop offset="1" style="stop-color:#2171b5;stop-opacity:1.;"/>
</linearGradient>
</defs>
<polygon fill="url(#l_22)" stroke="black" points="142,-63.0479 93.8083,-28.5479 190.192,-28.5479 142,-63.0479"/>
<text text-anchor="middle" x="142" y="-36.3479" font-family="Times,serif" font-size="14.00">n19</text>
</g>
<!-- n18 -->
<g id="node24" class="node"><title>n18</title>
<defs>
<linearGradient id="l_23" gradientUnits="userSpaceOnUse" x1="16.0487" y1="-41.7667" x2="75.9513" y2="-41.7667" >
<stop offset="0" style="stop-color:#f7fbff;stop-opacity:1.;"/>
<stop offset="1" style="stop-color:#2171b5;stop-opacity:1.;"/>
</linearGradient>
</defs>
<polygon fill="url(#l_23)" stroke="black" points="75.9513,-45.6102 46,-58.0479 16.0487,-45.6102 27.4891,-25.4856 64.5109,-25.4856 75.9513,-45.6102"/>
<text text-anchor="middle" x="46" y="-36.3479" font-family="Times,serif" font-size="14.00">n18</text>
</g>
</g>
</svg>
