<?xml version="1.0" encoding="UTF-8" standalone="no"?>
<!DOCTYPE svg PUBLIC "-//W3C//DTD SVG 1.1//EN"
 "http://www.w3.org/Graphics/SVG/1.1/DTD/svg11.dtd">
<!-- Generated by graphviz version 2.38.0 (20140413.2041)
 -->
<!-- Title: G Pages: 1 -->
<svg width="742pt" height="789pt"
 viewBox="0.00 0.00 742.00 788.86" xmlns="http://www.w3.org/2000/svg" xmlns:xlink="http://www.w3.org/1999/xlink">
<g id="graph0" class="graph" transform="scale(1 1) rotate(0) translate(4 784.864)">
<title>G</title>
<defs>
<linearGradient id="l_0" gradientUnits="userSpaceOnUse" x1="-4" y1="-390.432" x2="738" y2="-390.432" >
<stop offset="0" style="stop-color:purple;stop-opacity:1.;"/>
<stop offset="1" style="stop-color:pink;stop-opacity:1.;"/>
</linearGradient>
</defs>
<polygon fill="url(#l_0)" stroke="none" points="-4,4 -4,-784.864 738,-784.864 738,4 -4,4"/>
<text text-anchor="middle" x="367" y="-7.8" font-family="Times,serif" font-size="14.00" fill="white">Graph</text>
<g id="clust1" class="cluster"><title>cluster1</title>
<defs>
<linearGradient id="l_1" gradientUnits="userSpaceOnUse" x1="8" y1="-401.932" x2="726" y2="-401.932" >
<stop offset="0" style="stop-color:blue;stop-opacity:1.;"/>
<stop offset="1" style="stop-color:green;stop-opacity:1.;"/>
</linearGradient>
</defs>
<polygon fill="url(#l_1)" stroke="black" points="8,-31 8,-772.864 726,-772.864 726,-31 8,-31"/>
<text text-anchor="middle" x="367" y="-757.664" font-family="Times,serif" font-size="14.00" fill="white">Cluster</text>
</g>
<!-- a0 -->
<g id="node1" class="node"><title>a0</title>
<defs>
<radialGradient id="r_0" cx="50%" cy="50%" r="75%" fx="0%" fy="50%">
<stop offset="0" style="stop-color:gold;stop-opacity:1.;"/>
<stop offset="1" style="stop-color:brown;stop-opacity:1.;"/>
</radialGradient>
</defs>
<ellipse fill="url(#r_0)" stroke="black" cx="367" cy="-390.432" rx="351.364" ry="351.364"/>
<defs>
<linearGradient id="l_2" gradientUnits="userSpaceOnUse" x1="200.83" y1="-559.784" x2="533.17" y2="-221.08" >
<stop offset="0" style="stop-color:yellow;stop-opacity:1.;"/>
<stop offset="1" style="stop-color:violet;stop-opacity:1.;"/>
</linearGradient>
</defs>
<path fill="url(#l_2)" stroke="none" d="M144,-150.932C144,-150.932 590,-150.932 590,-150.932 596,-150.932 602,-156.932 602,-162.932 602,-162.932 602,-617.932 602,-617.932 602,-623.932 596,-629.932 590,-629.932 590,-629.932 144,-629.932 144,-629.932 138,-629.932 132,-623.932 132,-617.932 132,-617.932 132,-162.932 132,-162.932 132,-156.932 138,-150.932 144,-150.932"/>
<polygon fill="yellow" stroke="none" points="147,-573.432 147,-614.432 187,-614.432 187,-573.432 147,-573.432"/>
<polygon fill="none" stroke="black" stroke-width="3" points="148.5,-574.932 148.5,-612.932 185.5,-612.932 185.5,-574.932 148.5,-574.932"/>
<text text-anchor="start" x="160" y="-590.232" font-family="Times,serif" font-size="14.00">00</text>
<defs>
<radialGradient id="r_1" cx="50%" cy="50%" r="75%" fx="74%" fy="6%">
<stop offset="0" style="stop-color:yellow;stop-opacity:1.;"/>
<stop offset="1" style="stop-color:green;stop-opacity:1.;"/>
</radialGradient>
</defs>
<polygon fill="url(#r_1)" stroke="none" stroke-width="3" points="197,-573.432 197,-614.432 237,-614.432 237,-573.432 197,-573.432"/>
<polygon fill="none" stroke="black" stroke-width="3" points="198.5,-574.932 198.5,-612.932 235.5,-612.932 235.5,-574.932 198.5,-574.932"/>
<text text-anchor="start" x="210" y="-590.232" font-family="Times,serif" font-size="14.00">01</text>
<polygon fill="green" stroke="none" stroke-width="3" points="247,-573.432 247,-614.432 287,-614.432 287,-573.432 247,-573.432"/>
<polygon fill="none" stroke="black" stroke-width="3" points="248.5,-574.932 248.5,-612.932 285.5,-612.932 285.5,-574.932 248.5,-574.932"/>
<text text-anchor="start" x="260" y="-590.232" font-family="Times,serif" font-size="14.00">02</text>
<defs>
<radialGradient id="r_2" cx="50%" cy="50%" r="75%" fx="74%" fy="6%">
<stop offset="0" style="stop-color:green;stop-opacity:1.;"/>
<stop offset="1" style="stop-color:blue;stop-opacity:1.;"/>
</radialGradient>
</defs>
<polygon fill="url(#r_2)" stroke="none" stroke-width="3" points="297,-573.432 297,-614.432 337,-614.432 337,-573.432 297,-573.432"/>
<polygon fill="none" stroke="black" stroke-width="3" points="298.5,-574.932 298.5,-612.932 335.5,-612.932 335.5,-574.932 298.5,-574.932"/>
<text text-anchor="start" x="310" y="-590.232" font-family="Times,serif" font-size="14.00">03</text>
<polygon fill="blue" stroke="none" stroke-width="3" points="347,-573.432 347,-614.432 387,-614.432 387,-573.432 347,-573.432"/>
<polygon fill="none" stroke="black" stroke-width="3" points="348.5,-574.932 348.5,-612.932 385.5,-612.932 385.5,-574.932 348.5,-574.932"/>
<text text-anchor="start" x="360" y="-590.232" font-family="Times,serif" font-size="14.00">04</text>
<defs>
<radialGradient id="r_3" cx="50%" cy="50%" r="75%" fx="74%" fy="6%">
<stop offset="0" style="stop-color:blue;stop-opacity:1.;"/>
<stop offset="1" style="stop-color:purple;stop-opacity:1.;"/>
</radialGradient>
</defs>
<polygon fill="url(#r_3)" stroke="none" stroke-width="3" points="397,-573.432 397,-614.432 437,-614.432 437,-573.432 397,-573.432"/>
<polygon fill="none" stroke="black" stroke-width="3" points="398.5,-574.932 398.5,-612.932 435.5,-612.932 435.5,-574.932 398.5,-574.932"/>
<text text-anchor="start" x="410" y="-590.232" font-family="Times,serif" font-size="14.00">05</text>
<polygon fill="purple" stroke="none" stroke-width="3" points="447,-573.432 447,-614.432 487,-614.432 487,-573.432 447,-573.432"/>
<polygon fill="none" stroke="black" stroke-width="3" points="448.5,-574.932 448.5,-612.932 485.5,-612.932 485.5,-574.932 448.5,-574.932"/>
<text text-anchor="start" x="460" y="-590.232" font-family="Times,serif" font-size="14.00">06</text>
<defs>
<radialGradient id="r_4" cx="50%" cy="50%" r="75%" fx="74%" fy="6%">
<stop offset="0" style="stop-color:purple;stop-opacity:1.;"/>
<stop offset="1" style="stop-color:violet;stop-opacity:1.;"/>
</radialGradient>
</defs>
<polygon fill="url(#r_4)" stroke="none" stroke-width="3" points="497,-573.432 497,-614.432 537,-614.432 537,-573.432 497,-573.432"/>
<polygon fill="none" stroke="black" stroke-width="3" points="498.5,-574.932 498.5,-612.932 535.5,-612.932 535.5,-574.932 498.5,-574.932"/>
<text text-anchor="start" x="510" y="-590.232" font-family="Times,serif" font-size="14.00">07</text>
<polygon fill="violet" stroke="none" stroke-width="3" points="547,-573.432 547,-614.432 587,-614.432 587,-573.432 547,-573.432"/>
<polygon fill="none" stroke="black" stroke-width="3" points="548.5,-574.932 548.5,-612.932 585.5,-612.932 585.5,-574.932 548.5,-574.932"/>
<text text-anchor="start" x="560" y="-590.232" font-family="Times,serif" font-size="14.00">08</text>
<defs>
<radialGradient id="r_5" cx="50%" cy="50%" r="75%" fx="74%" fy="6%">
<stop offset="0" style="stop-color:yellow;stop-opacity:1.;"/>
<stop offset="1" style="stop-color:gold;stop-opacity:1.;"/>
</radialGradient>
</defs>
<polygon fill="url(#r_5)" stroke="none" stroke-width="3" points="147,-522.432 147,-563.432 187,-563.432 187,-522.432 147,-522.432"/>
<polygon fill="none" stroke="black" stroke-width="3" points="148.5,-523.932 148.5,-561.932 185.5,-561.932 185.5,-523.932 148.5,-523.932"/>
<text text-anchor="start" x="160" y="-539.232" font-family="Times,serif" font-size="14.00">10</text>
<defs>
<radialGradient id="r_6" cx="50%" cy="50%" r="75%" fx="74%" fy="6%">
<stop offset="0" style="stop-color:yellow;stop-opacity:1.;"/>
<stop offset="1" style="stop-color:green;stop-opacity:1.;"/>
</radialGradient>
</defs>
<polygon fill="url(#r_6)" stroke="none" stroke-width="3" points="197,-522.432 197,-563.432 237,-563.432 237,-522.432 197,-522.432"/>
<polygon fill="none" stroke="black" stroke-width="3" points="198.5,-523.932 198.5,-561.932 235.5,-561.932 235.5,-523.932 198.5,-523.932"/>
<text text-anchor="start" x="210" y="-539.232" font-family="Times,serif" font-size="14.00">11</text>
<defs>
<radialGradient id="r_7" cx="50%" cy="50%" r="75%" fx="74%" fy="6%">
<stop offset="0" style="stop-color:yellow;stop-opacity:1.;"/>
<stop offset="1" style="stop-color:green;stop-opacity:1.;"/>
</radialGradient>
</defs>
<polygon fill="url(#r_7)" stroke="none" stroke-width="3" points="247,-522.432 247,-563.432 287,-563.432 287,-522.432 247,-522.432"/>
<polygon fill="none" stroke="black" stroke-width="3" points="248.5,-523.932 248.5,-561.932 285.5,-561.932 285.5,-523.932 248.5,-523.932"/>
<text text-anchor="start" x="260" y="-539.232" font-family="Times,serif" font-size="14.00">12</text>
<defs>
<radialGradient id="r_8" cx="50%" cy="50%" r="75%" fx="74%" fy="6%">
<stop offset="0" style="stop-color:yellow;stop-opacity:1.;"/>
<stop offset="1" style="stop-color:blue;stop-opacity:1.;"/>
</radialGradient>
</defs>
<polygon fill="url(#r_8)" stroke="none" stroke-width="3" points="297,-522.432 297,-563.432 337,-563.432 337,-522.432 297,-522.432"/>
<polygon fill="none" stroke="black" stroke-width="3" points="298.5,-523.932 298.5,-561.932 335.5,-561.932 335.5,-523.932 298.5,-523.932"/>
<text text-anchor="start" x="310" y="-539.232" font-family="Times,serif" font-size="14.00">13</text>
<defs>
<radialGradient id="r_9" cx="50%" cy="50%" r="75%" fx="74%" fy="6%">
<stop offset="0" style="stop-color:yellow;stop-opacity:1.;"/>
<stop offset="1" style="stop-color:blue;stop-opacity:1.;"/>
</radialGradient>
</defs>
<polygon fill="url(#r_9)" stroke="none" stroke-width="3" points="347,-522.432 347,-563.432 387,-563.432 387,-522.432 347,-522.432"/>
<polygon fill="none" stroke="black" stroke-width="3" points="348.5,-523.932 348.5,-561.932 385.5,-561.932 385.5,-523.932 348.5,-523.932"/>
<text text-anchor="start" x="360" y="-539.232" font-family="Times,serif" font-size="14.00">14</text>
<defs>
<radialGradient id="r_10" cx="50%" cy="50%" r="75%" fx="74%" fy="6%">
<stop offset="0" style="stop-color:yellow;stop-opacity:1.;"/>
<stop offset="1" style="stop-color:purple;stop-opacity:1.;"/>
</radialGradient>
</defs>
<polygon fill="url(#r_10)" stroke="none" stroke-width="3" points="397,-522.432 397,-563.432 437,-563.432 437,-522.432 397,-522.432"/>
<polygon fill="none" stroke="black" stroke-width="3" points="398.5,-523.932 398.5,-561.932 435.5,-561.932 435.5,-523.932 398.5,-523.932"/>
<text text-anchor="start" x="410" y="-539.232" font-family="Times,serif" font-size="14.00">15</text>
<defs>
<radialGradient id="r_11" cx="50%" cy="50%" r="75%" fx="74%" fy="6%">
<stop offset="0" style="stop-color:yellow;stop-opacity:1.;"/>
<stop offset="1" style="stop-color:purple;stop-opacity:1.;"/>
</radialGradient>
</defs>
<polygon fill="url(#r_11)" stroke="none" stroke-width="3" points="447,-522.432 447,-563.432 487,-563.432 487,-522.432 447,-522.432"/>
<polygon fill="none" stroke="black" stroke-width="3" points="448.5,-523.932 448.5,-561.932 485.5,-561.932 485.5,-523.932 448.5,-523.932"/>
<text text-anchor="start" x="460" y="-539.232" font-family="Times,serif" font-size="14.00">16</text>
<defs>
<radialGradient id="r_12" cx="50%" cy="50%" r="75%" fx="74%" fy="6%">
<stop offset="0" style="stop-color:yellow;stop-opacity:1.;"/>
<stop offset="1" style="stop-color:violet;stop-opacity:1.;"/>
</radialGradient>
</defs>
<polygon fill="url(#r_12)" stroke="none" stroke-width="3" points="497,-522.432 497,-563.432 537,-563.432 537,-522.432 497,-522.432"/>
<polygon fill="none" stroke="black" stroke-width="3" points="498.5,-523.932 498.5,-561.932 535.5,-561.932 535.5,-523.932 498.5,-523.932"/>
<text text-anchor="start" x="510" y="-539.232" font-family="Times,serif" font-size="14.00">17</text>
<defs>
<radialGradient id="r_13" cx="50%" cy="50%" r="75%" fx="74%" fy="6%">
<stop offset="0" style="stop-color:yellow;stop-opacity:1.;"/>
<stop offset="1" style="stop-color:violet;stop-opacity:1.;"/>
</radialGradient>
</defs>
<polygon fill="url(#r_13)" stroke="none" stroke-width="3" points="547,-522.432 547,-563.432 587,-563.432 587,-522.432 547,-522.432"/>
<polygon fill="none" stroke="black" stroke-width="3" points="548.5,-523.932 548.5,-561.932 585.5,-561.932 585.5,-523.932 548.5,-523.932"/>
<text text-anchor="start" x="560" y="-539.232" font-family="Times,serif" font-size="14.00">18</text>
<polygon fill="gold" stroke="none" stroke-width="3" points="147,-471.432 147,-512.432 187,-512.432 187,-471.432 147,-471.432"/>
<polygon fill="none" stroke="black" stroke-width="3" points="148.5,-472.932 148.5,-510.932 185.5,-510.932 185.5,-472.932 148.5,-472.932"/>
<text text-anchor="start" x="160" y="-488.232" font-family="Times,serif" font-size="14.00">20</text>
<defs>
<radialGradient id="r_14" cx="50%" cy="50%" r="75%" fx="74%" fy="6%">
<stop offset="0" style="stop-color:gold;stop-opacity:1.;"/>
<stop offset="1" style="stop-color:green;stop-opacity:1.;"/>
</radialGradient>
</defs>
<polygon fill="url(#r_14)" stroke="none" stroke-width="3" points="197,-471.432 197,-512.432 237,-512.432 237,-471.432 197,-471.432"/>
<polygon fill="none" stroke="black" stroke-width="3" points="198.5,-472.932 198.5,-510.932 235.5,-510.932 235.5,-472.932 198.5,-472.932"/>
<text text-anchor="start" x="210" y="-488.232" font-family="Times,serif" font-size="14.00">21</text>
<defs>
<radialGradient id="r_15" cx="50%" cy="50%" r="75%" fx="74%" fy="6%">
<stop offset="0" style="stop-color:gold;stop-opacity:1.;"/>
<stop offset="1" style="stop-color:green;stop-opacity:1.;"/>
</radialGradient>
</defs>
<polygon fill="url(#r_15)" stroke="none" stroke-width="3" points="247,-471.432 247,-512.432 287,-512.432 287,-471.432 247,-471.432"/>
<polygon fill="none" stroke="black" stroke-width="3" points="248.5,-472.932 248.5,-510.932 285.5,-510.932 285.5,-472.932 248.5,-472.932"/>
<text text-anchor="start" x="260" y="-488.232" font-family="Times,serif" font-size="14.00">22</text>
<defs>
<radialGradient id="r_16" cx="50%" cy="50%" r="75%" fx="74%" fy="6%">
<stop offset="0" style="stop-color:gold;stop-opacity:1.;"/>
<stop offset="1" style="stop-color:blue;stop-opacity:1.;"/>
</radialGradient>
</defs>
<polygon fill="url(#r_16)" stroke="none" stroke-width="3" points="297,-471.432 297,-512.432 337,-512.432 337,-471.432 297,-471.432"/>
<polygon fill="none" stroke="black" stroke-width="3" points="298.5,-472.932 298.5,-510.932 335.5,-510.932 335.5,-472.932 298.5,-472.932"/>
<text text-anchor="start" x="310" y="-488.232" font-family="Times,serif" font-size="14.00">23</text>
<defs>
<radialGradient id="r_17" cx="50%" cy="50%" r="75%" fx="74%" fy="6%">
<stop offset="0" style="stop-color:gold;stop-opacity:1.;"/>
<stop offset="1" style="stop-color:blue;stop-opacity:1.;"/>
</radialGradient>
</defs>
<polygon fill="url(#r_17)" stroke="none" stroke-width="3" points="347,-471.432 347,-512.432 387,-512.432 387,-471.432 347,-471.432"/>
<polygon fill="none" stroke="black" stroke-width="3" points="348.5,-472.932 348.5,-510.932 385.5,-510.932 385.5,-472.932 348.5,-472.932"/>
<text text-anchor="start" x="360" y="-488.232" font-family="Times,serif" font-size="14.00">24</text>
<defs>
<radialGradient id="r_18" cx="50%" cy="50%" r="75%" fx="74%" fy="6%">
<stop offset="0" style="stop-color:gold;stop-opacity:1.;"/>
<stop offset="1" style="stop-color:purple;stop-opacity:1.;"/>
</radialGradient>
</defs>
<polygon fill="url(#r_18)" stroke="none" stroke-width="3" points="397,-471.432 397,-512.432 437,-512.432 437,-471.432 397,-471.432"/>
<polygon fill="none" stroke="black" stroke-width="3" points="398.5,-472.932 398.5,-510.932 435.5,-510.932 435.5,-472.932 398.5,-472.932"/>
<text text-anchor="start" x="410" y="-488.232" font-family="Times,serif" font-size="14.00">25</text>
<defs>
<radialGradient id="r_19" cx="50%" cy="50%" r="75%" fx="74%" fy="6%">
<stop offset="0" style="stop-color:gold;stop-opacity:1.;"/>
<stop offset="1" style="stop-color:purple;stop-opacity:1.;"/>
</radialGradient>
</defs>
<polygon fill="url(#r_19)" stroke="none" stroke-width="3" points="447,-471.432 447,-512.432 487,-512.432 487,-471.432 447,-471.432"/>
<polygon fill="none" stroke="black" stroke-width="3" points="448.5,-472.932 448.5,-510.932 485.5,-510.932 485.5,-472.932 448.5,-472.932"/>
<text text-anchor="start" x="460" y="-488.232" font-family="Times,serif" font-size="14.00">26</text>
<defs>
<radialGradient id="r_20" cx="50%" cy="50%" r="75%" fx="74%" fy="6%">
<stop offset="0" style="stop-color:gold;stop-opacity:1.;"/>
<stop offset="1" style="stop-color:violet;stop-opacity:1.;"/>
</radialGradient>
</defs>
<polygon fill="url(#r_20)" stroke="none" stroke-width="3" points="497,-471.432 497,-512.432 537,-512.432 537,-471.432 497,-471.432"/>
<polygon fill="none" stroke="black" stroke-width="3" points="498.5,-472.932 498.5,-510.932 535.5,-510.932 535.5,-472.932 498.5,-472.932"/>
<text text-anchor="start" x="510" y="-488.232" font-family="Times,serif" font-size="14.00">27</text>
<defs>
<radialGradient id="r_21" cx="50%" cy="50%" r="75%" fx="74%" fy="6%">
<stop offset="0" style="stop-color:gold;stop-opacity:1.;"/>
<stop offset="1" style="stop-color:violet;stop-opacity:1.;"/>
</radialGradient>
</defs>
<polygon fill="url(#r_21)" stroke="none" stroke-width="3" points="547,-471.432 547,-512.432 587,-512.432 587,-471.432 547,-471.432"/>
<polygon fill="none" stroke="black" stroke-width="3" points="548.5,-472.932 548.5,-510.932 585.5,-510.932 585.5,-472.932 548.5,-472.932"/>
<text text-anchor="start" x="560" y="-488.232" font-family="Times,serif" font-size="14.00">28</text>
<defs>
<radialGradient id="r_22" cx="50%" cy="50%" r="75%" fx="74%" fy="6%">
<stop offset="0" style="stop-color:gold;stop-opacity:1.;"/>
<stop offset="1" style="stop-color:orange;stop-opacity:1.;"/>
</radialGradient>
</defs>
<polygon fill="url(#r_22)" stroke="none" stroke-width="3" points="147,-420.432 147,-461.432 187,-461.432 187,-420.432 147,-420.432"/>
<polygon fill="none" stroke="black" stroke-width="3" points="148.5,-421.932 148.5,-459.932 185.5,-459.932 185.5,-421.932 148.5,-421.932"/>
<text text-anchor="start" x="160" y="-437.232" font-family="Times,serif" font-size="14.00">30</text>
<defs>
<radialGradient id="r_23" cx="50%" cy="50%" r="75%" fx="74%" fy="6%">
<stop offset="0" style="stop-color:orange;stop-opacity:1.;"/>
<stop offset="1" style="stop-color:green;stop-opacity:1.;"/>
</radialGradient>
</defs>
<polygon fill="url(#r_23)" stroke="none" stroke-width="3" points="197,-420.432 197,-461.432 237,-461.432 237,-420.432 197,-420.432"/>
<polygon fill="none" stroke="black" stroke-width="3" points="198.5,-421.932 198.5,-459.932 235.5,-459.932 235.5,-421.932 198.5,-421.932"/>
<text text-anchor="start" x="210" y="-437.232" font-family="Times,serif" font-size="14.00">31</text>
<defs>
<radialGradient id="r_24" cx="50%" cy="50%" r="75%" fx="74%" fy="6%">
<stop offset="0" style="stop-color:orange;stop-opacity:1.;"/>
<stop offset="1" style="stop-color:green;stop-opacity:1.;"/>
</radialGradient>
</defs>
<polygon fill="url(#r_24)" stroke="none" stroke-width="3" points="247,-420.432 247,-461.432 287,-461.432 287,-420.432 247,-420.432"/>
<polygon fill="none" stroke="black" stroke-width="3" points="248.5,-421.932 248.5,-459.932 285.5,-459.932 285.5,-421.932 248.5,-421.932"/>
<text text-anchor="start" x="260" y="-437.232" font-family="Times,serif" font-size="14.00">32</text>
<defs>
<radialGradient id="r_25" cx="50%" cy="50%" r="75%" fx="74%" fy="6%">
<stop offset="0" style="stop-color:orange;stop-opacity:1.;"/>
<stop offset="1" style="stop-color:blue;stop-opacity:1.;"/>
</radialGradient>
</defs>
<polygon fill="url(#r_25)" stroke="none" stroke-width="3" points="297,-420.432 297,-461.432 337,-461.432 337,-420.432 297,-420.432"/>
<polygon fill="none" stroke="black" stroke-width="3" points="298.5,-421.932 298.5,-459.932 335.5,-459.932 335.5,-421.932 298.5,-421.932"/>
<text text-anchor="start" x="310" y="-437.232" font-family="Times,serif" font-size="14.00">33</text>
<defs>
<radialGradient id="r_26" cx="50%" cy="50%" r="75%" fx="74%" fy="6%">
<stop offset="0" style="stop-color:orange;stop-opacity:1.;"/>
<stop offset="1" style="stop-color:blue;stop-opacity:1.;"/>
</radialGradient>
</defs>
<polygon fill="url(#r_26)" stroke="none" stroke-width="3" points="347,-420.432 347,-461.432 387,-461.432 387,-420.432 347,-420.432"/>
<polygon fill="none" stroke="black" stroke-width="3" points="348.5,-421.932 348.5,-459.932 385.5,-459.932 385.5,-421.932 348.5,-421.932"/>
<text text-anchor="start" x="360" y="-437.232" font-family="Times,serif" font-size="14.00">34</text>
<defs>
<radialGradient id="r_27" cx="50%" cy="50%" r="75%" fx="74%" fy="6%">
<stop offset="0" style="stop-color:orange;stop-opacity:1.;"/>
<stop offset="1" style="stop-color:purple;stop-opacity:1.;"/>
</radialGradient>
</defs>
<polygon fill="url(#r_27)" stroke="none" stroke-width="3" points="397,-420.432 397,-461.432 437,-461.432 437,-420.432 397,-420.432"/>
<polygon fill="none" stroke="black" stroke-width="3" points="398.5,-421.932 398.5,-459.932 435.5,-459.932 435.5,-421.932 398.5,-421.932"/>
<text text-anchor="start" x="410" y="-437.232" font-family="Times,serif" font-size="14.00">35</text>
<defs>
<radialGradient id="r_28" cx="50%" cy="50%" r="75%" fx="74%" fy="6%">
<stop offset="0" style="stop-color:orange;stop-opacity:1.;"/>
<stop offset="1" style="stop-color:purple;stop-opacity:1.;"/>
</radialGradient>
</defs>
<polygon fill="url(#r_28)" stroke="none" stroke-width="3" points="447,-420.432 447,-461.432 487,-461.432 487,-420.432 447,-420.432"/>
<polygon fill="none" stroke="black" stroke-width="3" points="448.5,-421.932 448.5,-459.932 485.5,-459.932 485.5,-421.932 448.5,-421.932"/>
<text text-anchor="start" x="460" y="-437.232" font-family="Times,serif" font-size="14.00">36</text>
<defs>
<radialGradient id="r_29" cx="50%" cy="50%" r="75%" fx="74%" fy="6%">
<stop offset="0" style="stop-color:orange;stop-opacity:1.;"/>
<stop offset="1" style="stop-color:violet;stop-opacity:1.;"/>
</radialGradient>
</defs>
<polygon fill="url(#r_29)" stroke="none" stroke-width="3" points="497,-420.432 497,-461.432 537,-461.432 537,-420.432 497,-420.432"/>
<polygon fill="none" stroke="black" stroke-width="3" points="498.5,-421.932 498.5,-459.932 535.5,-459.932 535.5,-421.932 498.5,-421.932"/>
<text text-anchor="start" x="510" y="-437.232" font-family="Times,serif" font-size="14.00">37</text>
<defs>
<radialGradient id="r_30" cx="50%" cy="50%" r="75%" fx="74%" fy="6%">
<stop offset="0" style="stop-color:orange;stop-opacity:1.;"/>
<stop offset="1" style="stop-color:violet;stop-opacity:1.;"/>
</radialGradient>
</defs>
<polygon fill="url(#r_30)" stroke="none" stroke-width="3" points="547,-420.432 547,-461.432 587,-461.432 587,-420.432 547,-420.432"/>
<polygon fill="none" stroke="black" stroke-width="3" points="548.5,-421.932 548.5,-459.932 585.5,-459.932 585.5,-421.932 548.5,-421.932"/>
<text text-anchor="start" x="560" y="-437.232" font-family="Times,serif" font-size="14.00">38</text>
<polygon fill="orange" stroke="none" stroke-width="3" points="147,-369.432 147,-410.432 187,-410.432 187,-369.432 147,-369.432"/>
<polygon fill="none" stroke="black" stroke-width="3" points="148.5,-370.932 148.5,-408.932 185.5,-408.932 185.5,-370.932 148.5,-370.932"/>
<text text-anchor="start" x="160" y="-386.232" font-family="Times,serif" font-size="14.00">40</text>
<defs>
<radialGradient id="r_31" cx="50%" cy="50%" r="75%" fx="74%" fy="6%">
<stop offset="0" style="stop-color:orange;stop-opacity:1.;"/>
<stop offset="1" style="stop-color:green;stop-opacity:1.;"/>
</radialGradient>
</defs>
<polygon fill="url(#r_31)" stroke="none" stroke-width="3" points="197,-369.432 197,-410.432 237,-410.432 237,-369.432 197,-369.432"/>
<polygon fill="none" stroke="black" stroke-width="3" points="198.5,-370.932 198.5,-408.932 235.5,-408.932 235.5,-370.932 198.5,-370.932"/>
<text text-anchor="start" x="210" y="-386.232" font-family="Times,serif" font-size="14.00">41</text>
<defs>
<radialGradient id="r_32" cx="50%" cy="50%" r="75%" fx="74%" fy="6%">
<stop offset="0" style="stop-color:orange;stop-opacity:1.;"/>
<stop offset="1" style="stop-color:green;stop-opacity:1.;"/>
</radialGradient>
</defs>
<polygon fill="url(#r_32)" stroke="none" stroke-width="3" points="247,-369.432 247,-410.432 287,-410.432 287,-369.432 247,-369.432"/>
<polygon fill="none" stroke="black" stroke-width="3" points="248.5,-370.932 248.5,-408.932 285.5,-408.932 285.5,-370.932 248.5,-370.932"/>
<text text-anchor="start" x="260" y="-386.232" font-family="Times,serif" font-size="14.00">42</text>
<defs>
<radialGradient id="r_33" cx="50%" cy="50%" r="75%" fx="74%" fy="6%">
<stop offset="0" style="stop-color:orange;stop-opacity:1.;"/>
<stop offset="1" style="stop-color:blue;stop-opacity:1.;"/>
</radialGradient>
</defs>
<polygon fill="url(#r_33)" stroke="none" stroke-width="3" points="297,-369.432 297,-410.432 337,-410.432 337,-369.432 297,-369.432"/>
<polygon fill="none" stroke="black" stroke-width="3" points="298.5,-370.932 298.5,-408.932 335.5,-408.932 335.5,-370.932 298.5,-370.932"/>
<text text-anchor="start" x="310" y="-386.232" font-family="Times,serif" font-size="14.00">43</text>
<defs>
<radialGradient id="r_34" cx="50%" cy="50%" r="75%" fx="74%" fy="6%">
<stop offset="0" style="stop-color:orange;stop-opacity:1.;"/>
<stop offset="1" style="stop-color:blue;stop-opacity:1.;"/>
</radialGradient>
</defs>
<polygon fill="url(#r_34)" stroke="none" stroke-width="3" points="347,-369.432 347,-410.432 387,-410.432 387,-369.432 347,-369.432"/>
<polygon fill="none" stroke="black" stroke-width="3" points="348.5,-370.932 348.5,-408.932 385.5,-408.932 385.5,-370.932 348.5,-370.932"/>
<text text-anchor="start" x="360" y="-386.232" font-family="Times,serif" font-size="14.00">44</text>
<defs>
<radialGradient id="r_35" cx="50%" cy="50%" r="75%" fx="74%" fy="6%">
<stop offset="0" style="stop-color:orange;stop-opacity:1.;"/>
<stop offset="1" style="stop-color:purple;stop-opacity:1.;"/>
</radialGradient>
</defs>
<polygon fill="url(#r_35)" stroke="none" stroke-width="3" points="397,-369.432 397,-410.432 437,-410.432 437,-369.432 397,-369.432"/>
<polygon fill="none" stroke="black" stroke-width="3" points="398.5,-370.932 398.5,-408.932 435.5,-408.932 435.5,-370.932 398.5,-370.932"/>
<text text-anchor="start" x="410" y="-386.232" font-family="Times,serif" font-size="14.00">45</text>
<defs>
<radialGradient id="r_36" cx="50%" cy="50%" r="75%" fx="74%" fy="6%">
<stop offset="0" style="stop-color:orange;stop-opacity:1.;"/>
<stop offset="1" style="stop-color:purple;stop-opacity:1.;"/>
</radialGradient>
</defs>
<polygon fill="url(#r_36)" stroke="none" stroke-width="3" points="447,-369.432 447,-410.432 487,-410.432 487,-369.432 447,-369.432"/>
<polygon fill="none" stroke="black" stroke-width="3" points="448.5,-370.932 448.5,-408.932 485.5,-408.932 485.5,-370.932 448.5,-370.932"/>
<text text-anchor="start" x="460" y="-386.232" font-family="Times,serif" font-size="14.00">46</text>
<defs>
<radialGradient id="r_37" cx="50%" cy="50%" r="75%" fx="74%" fy="6%">
<stop offset="0" style="stop-color:orange;stop-opacity:1.;"/>
<stop offset="1" style="stop-color:violet;stop-opacity:1.;"/>
</radialGradient>
</defs>
<polygon fill="url(#r_37)" stroke="none" stroke-width="3" points="497,-369.432 497,-410.432 537,-410.432 537,-369.432 497,-369.432"/>
<polygon fill="none" stroke="black" stroke-width="3" points="498.5,-370.932 498.5,-408.932 535.5,-408.932 535.5,-370.932 498.5,-370.932"/>
<text text-anchor="start" x="510" y="-386.232" font-family="Times,serif" font-size="14.00">47</text>
<defs>
<radialGradient id="r_38" cx="50%" cy="50%" r="75%" fx="74%" fy="6%">
<stop offset="0" style="stop-color:orange;stop-opacity:1.;"/>
<stop offset="1" style="stop-color:violet;stop-opacity:1.;"/>
</radialGradient>
</defs>
<polygon fill="url(#r_38)" stroke="none" stroke-width="3" points="547,-369.432 547,-410.432 587,-410.432 587,-369.432 547,-369.432"/>
<polygon fill="none" stroke="black" stroke-width="3" points="548.5,-370.932 548.5,-408.932 585.5,-408.932 585.5,-370.932 548.5,-370.932"/>
<text text-anchor="start" x="560" y="-386.232" font-family="Times,serif" font-size="14.00">48</text>
<defs>
<radialGradient id="r_39" cx="50%" cy="50%" r="75%" fx="74%" fy="6%">
<stop offset="0" style="stop-color:orange;stop-opacity:1.;"/>
<stop offset="1" style="stop-color:red;stop-opacity:1.;"/>
</radialGradient>
</defs>
<polygon fill="url(#r_39)" stroke="none" stroke-width="3" points="147,-318.432 147,-359.432 187,-359.432 187,-318.432 147,-318.432"/>
<polygon fill="none" stroke="black" stroke-width="3" points="148.5,-319.932 148.5,-357.932 185.5,-357.932 185.5,-319.932 148.5,-319.932"/>
<text text-anchor="start" x="160" y="-335.232" font-family="Times,serif" font-size="14.00">50</text>
<defs>
<radialGradient id="r_40" cx="50%" cy="50%" r="75%" fx="74%" fy="6%">
<stop offset="0" style="stop-color:red;stop-opacity:1.;"/>
<stop offset="1" style="stop-color:green;stop-opacity:1.;"/>
</radialGradient>
</defs>
<polygon fill="url(#r_40)" stroke="none" stroke-width="3" points="197,-318.432 197,-359.432 237,-359.432 237,-318.432 197,-318.432"/>
<polygon fill="none" stroke="black" stroke-width="3" points="198.5,-319.932 198.5,-357.932 235.5,-357.932 235.5,-319.932 198.5,-319.932"/>
<text text-anchor="start" x="210" y="-335.232" font-family="Times,serif" font-size="14.00">51</text>
<defs>
<radialGradient id="r_41" cx="50%" cy="50%" r="75%" fx="74%" fy="6%">
<stop offset="0" style="stop-color:red;stop-opacity:1.;"/>
<stop offset="1" style="stop-color:green;stop-opacity:1.;"/>
</radialGradient>
</defs>
<polygon fill="url(#r_41)" stroke="none" stroke-width="3" points="247,-318.432 247,-359.432 287,-359.432 287,-318.432 247,-318.432"/>
<polygon fill="none" stroke="black" stroke-width="3" points="248.5,-319.932 248.5,-357.932 285.5,-357.932 285.5,-319.932 248.5,-319.932"/>
<text text-anchor="start" x="260" y="-335.232" font-family="Times,serif" font-size="14.00">52</text>
<defs>
<radialGradient id="r_42" cx="50%" cy="50%" r="75%" fx="74%" fy="6%">
<stop offset="0" style="stop-color:red;stop-opacity:1.;"/>
<stop offset="1" style="stop-color:blue;stop-opacity:1.;"/>
</radialGradient>
</defs>
<polygon fill="url(#r_42)" stroke="none" stroke-width="3" points="297,-318.432 297,-359.432 337,-359.432 337,-318.432 297,-318.432"/>
<polygon fill="none" stroke="black" stroke-width="3" points="298.5,-319.932 298.5,-357.932 335.5,-357.932 335.5,-319.932 298.5,-319.932"/>
<text text-anchor="start" x="310" y="-335.232" font-family="Times,serif" font-size="14.00">53</text>
<defs>
<radialGradient id="r_43" cx="50%" cy="50%" r="75%" fx="74%" fy="6%">
<stop offset="0" style="stop-color:red;stop-opacity:1.;"/>
<stop offset="1" style="stop-color:blue;stop-opacity:1.;"/>
</radialGradient>
</defs>
<polygon fill="url(#r_43)" stroke="none" stroke-width="3" points="347,-318.432 347,-359.432 387,-359.432 387,-318.432 347,-318.432"/>
<polygon fill="none" stroke="black" stroke-width="3" points="348.5,-319.932 348.5,-357.932 385.5,-357.932 385.5,-319.932 348.5,-319.932"/>
<text text-anchor="start" x="360" y="-335.232" font-family="Times,serif" font-size="14.00">54</text>
<defs>
<radialGradient id="r_44" cx="50%" cy="50%" r="75%" fx="74%" fy="6%">
<stop offset="0" style="stop-color:red;stop-opacity:1.;"/>
<stop offset="1" style="stop-color:purple;stop-opacity:1.;"/>
</radialGradient>
</defs>
<polygon fill="url(#r_44)" stroke="none" stroke-width="3" points="397,-318.432 397,-359.432 437,-359.432 437,-318.432 397,-318.432"/>
<polygon fill="none" stroke="black" stroke-width="3" points="398.5,-319.932 398.5,-357.932 435.5,-357.932 435.5,-319.932 398.5,-319.932"/>
<text text-anchor="start" x="410" y="-335.232" font-family="Times,serif" font-size="14.00">55</text>
<defs>
<radialGradient id="r_45" cx="50%" cy="50%" r="75%" fx="74%" fy="6%">
<stop offset="0" style="stop-color:red;stop-opacity:1.;"/>
<stop offset="1" style="stop-color:purple;stop-opacity:1.;"/>
</radialGradient>
</defs>
<polygon fill="url(#r_45)" stroke="none" stroke-width="3" points="447,-318.432 447,-359.432 487,-359.432 487,-318.432 447,-318.432"/>
<polygon fill="none" stroke="black" stroke-width="3" points="448.5,-319.932 448.5,-357.932 485.5,-357.932 485.5,-319.932 448.5,-319.932"/>
<text text-anchor="start" x="460" y="-335.232" font-family="Times,serif" font-size="14.00">56</text>
<defs>
<radialGradient id="r_46" cx="50%" cy="50%" r="75%" fx="74%" fy="6%">
<stop offset="0" style="stop-color:red;stop-opacity:1.;"/>
<stop offset="1" style="stop-color:violet;stop-opacity:1.;"/>
</radialGradient>
</defs>
<polygon fill="url(#r_46)" stroke="none" stroke-width="3" points="497,-318.432 497,-359.432 537,-359.432 537,-318.432 497,-318.432"/>
<polygon fill="none" stroke="black" stroke-width="3" points="498.5,-319.932 498.5,-357.932 535.5,-357.932 535.5,-319.932 498.5,-319.932"/>
<text text-anchor="start" x="510" y="-335.232" font-family="Times,serif" font-size="14.00">57</text>
<defs>
<radialGradient id="r_47" cx="50%" cy="50%" r="75%" fx="74%" fy="6%">
<stop offset="0" style="stop-color:red;stop-opacity:1.;"/>
<stop offset="1" style="stop-color:violet;stop-opacity:1.;"/>
</radialGradient>
</defs>
<polygon fill="url(#r_47)" stroke="none" stroke-width="3" points="547,-318.432 547,-359.432 587,-359.432 587,-318.432 547,-318.432"/>
<polygon fill="none" stroke="black" stroke-width="3" points="548.5,-319.932 548.5,-357.932 585.5,-357.932 585.5,-319.932 548.5,-319.932"/>
<text text-anchor="start" x="560" y="-335.232" font-family="Times,serif" font-size="14.00">58</text>
<polygon fill="red" stroke="none" stroke-width="3" points="147,-267.432 147,-308.432 187,-308.432 187,-267.432 147,-267.432"/>
<polygon fill="none" stroke="black" stroke-width="3" points="148.5,-268.932 148.5,-306.932 185.5,-306.932 185.5,-268.932 148.5,-268.932"/>
<text text-anchor="start" x="160" y="-284.232" font-family="Times,serif" font-size="14.00">60</text>
<defs>
<radialGradient id="r_48" cx="50%" cy="50%" r="75%" fx="74%" fy="6%">
<stop offset="0" style="stop-color:red;stop-opacity:1.;"/>
<stop offset="1" style="stop-color:green;stop-opacity:1.;"/>
</radialGradient>
</defs>
<polygon fill="url(#r_48)" stroke="none" stroke-width="3" points="197,-267.432 197,-308.432 237,-308.432 237,-267.432 197,-267.432"/>
<polygon fill="none" stroke="black" stroke-width="3" points="198.5,-268.932 198.5,-306.932 235.5,-306.932 235.5,-268.932 198.5,-268.932"/>
<text text-anchor="start" x="210" y="-284.232" font-family="Times,serif" font-size="14.00">61</text>
<defs>
<radialGradient id="r_49" cx="50%" cy="50%" r="75%" fx="74%" fy="6%">
<stop offset="0" style="stop-color:red;stop-opacity:1.;"/>
<stop offset="1" style="stop-color:green;stop-opacity:1.;"/>
</radialGradient>
</defs>
<polygon fill="url(#r_49)" stroke="none" stroke-width="3" points="247,-267.432 247,-308.432 287,-308.432 287,-267.432 247,-267.432"/>
<polygon fill="none" stroke="black" stroke-width="3" points="248.5,-268.932 248.5,-306.932 285.5,-306.932 285.5,-268.932 248.5,-268.932"/>
<text text-anchor="start" x="260" y="-284.232" font-family="Times,serif" font-size="14.00">62</text>
<defs>
<radialGradient id="r_50" cx="50%" cy="50%" r="75%" fx="74%" fy="6%">
<stop offset="0" style="stop-color:red;stop-opacity:1.;"/>
<stop offset="1" style="stop-color:blue;stop-opacity:1.;"/>
</radialGradient>
</defs>
<polygon fill="url(#r_50)" stroke="none" stroke-width="3" points="297,-267.432 297,-308.432 337,-308.432 337,-267.432 297,-267.432"/>
<polygon fill="none" stroke="black" stroke-width="3" points="298.5,-268.932 298.5,-306.932 335.5,-306.932 335.5,-268.932 298.5,-268.932"/>
<text text-anchor="start" x="310" y="-284.232" font-family="Times,serif" font-size="14.00">63</text>
<defs>
<radialGradient id="r_51" cx="50%" cy="50%" r="75%" fx="74%" fy="6%">
<stop offset="0" style="stop-color:red;stop-opacity:1.;"/>
<stop offset="1" style="stop-color:blue;stop-opacity:1.;"/>
</radialGradient>
</defs>
<polygon fill="url(#r_51)" stroke="none" stroke-width="3" points="347,-267.432 347,-308.432 387,-308.432 387,-267.432 347,-267.432"/>
<polygon fill="none" stroke="black" stroke-width="3" points="348.5,-268.932 348.5,-306.932 385.5,-306.932 385.5,-268.932 348.5,-268.932"/>
<text text-anchor="start" x="360" y="-284.232" font-family="Times,serif" font-size="14.00">64</text>
<defs>
<radialGradient id="r_52" cx="50%" cy="50%" r="75%" fx="74%" fy="6%">
<stop offset="0" style="stop-color:red;stop-opacity:1.;"/>
<stop offset="1" style="stop-color:purple;stop-opacity:1.;"/>
</radialGradient>
</defs>
<polygon fill="url(#r_52)" stroke="none" stroke-width="3" points="397,-267.432 397,-308.432 437,-308.432 437,-267.432 397,-267.432"/>
<polygon fill="none" stroke="black" stroke-width="3" points="398.5,-268.932 398.5,-306.932 435.5,-306.932 435.5,-268.932 398.5,-268.932"/>
<text text-anchor="start" x="410" y="-284.232" font-family="Times,serif" font-size="14.00">65</text>
<defs>
<radialGradient id="r_53" cx="50%" cy="50%" r="75%" fx="74%" fy="6%">
<stop offset="0" style="stop-color:red;stop-opacity:1.;"/>
<stop offset="1" style="stop-color:purple;stop-opacity:1.;"/>
</radialGradient>
</defs>
<polygon fill="url(#r_53)" stroke="none" stroke-width="3" points="447,-267.432 447,-308.432 487,-308.432 487,-267.432 447,-267.432"/>
<polygon fill="none" stroke="black" stroke-width="3" points="448.5,-268.932 448.5,-306.932 485.5,-306.932 485.5,-268.932 448.5,-268.932"/>
<text text-anchor="start" x="460" y="-284.232" font-family="Times,serif" font-size="14.00">66</text>
<defs>
<radialGradient id="r_54" cx="50%" cy="50%" r="75%" fx="74%" fy="6%">
<stop offset="0" style="stop-color:red;stop-opacity:1.;"/>
<stop offset="1" style="stop-color:violet;stop-opacity:1.;"/>
</radialGradient>
</defs>
<polygon fill="url(#r_54)" stroke="none" stroke-width="3" points="497,-267.432 497,-308.432 537,-308.432 537,-267.432 497,-267.432"/>
<polygon fill="none" stroke="black" stroke-width="3" points="498.5,-268.932 498.5,-306.932 535.5,-306.932 535.5,-268.932 498.5,-268.932"/>
<text text-anchor="start" x="510" y="-284.232" font-family="Times,serif" font-size="14.00">67</text>
<defs>
<radialGradient id="r_55" cx="50%" cy="50%" r="75%" fx="74%" fy="6%">
<stop offset="0" style="stop-color:red;stop-opacity:1.;"/>
<stop offset="1" style="stop-color:violet;stop-opacity:1.;"/>
</radialGradient>
</defs>
<polygon fill="url(#r_55)" stroke="none" stroke-width="3" points="547,-267.432 547,-308.432 587,-308.432 587,-267.432 547,-267.432"/>
<polygon fill="none" stroke="black" stroke-width="3" points="548.5,-268.932 548.5,-306.932 585.5,-306.932 585.5,-268.932 548.5,-268.932"/>
<text text-anchor="start" x="560" y="-284.232" font-family="Times,serif" font-size="14.00">68</text>
<defs>
<radialGradient id="r_56" cx="50%" cy="50%" r="75%" fx="74%" fy="6%">
<stop offset="0" style="stop-color:red;stop-opacity:1.;"/>
<stop offset="1" style="stop-color:brown;stop-opacity:1.;"/>
</radialGradient>
</defs>
<polygon fill="url(#r_56)" stroke="none" stroke-width="3" points="147,-216.432 147,-257.432 187,-257.432 187,-216.432 147,-216.432"/>
<polygon fill="none" stroke="black" stroke-width="3" points="148.5,-217.932 148.5,-255.932 185.5,-255.932 185.5,-217.932 148.5,-217.932"/>
<text text-anchor="start" x="160" y="-233.232" font-family="Times,serif" font-size="14.00">70</text>
<defs>
<radialGradient id="r_57" cx="50%" cy="50%" r="75%" fx="74%" fy="6%">
<stop offset="0" style="stop-color:brown;stop-opacity:1.;"/>
<stop offset="1" style="stop-color:green;stop-opacity:1.;"/>
</radialGradient>
</defs>
<polygon fill="url(#r_57)" stroke="none" stroke-width="3" points="197,-216.432 197,-257.432 237,-257.432 237,-216.432 197,-216.432"/>
<polygon fill="none" stroke="black" stroke-width="3" points="198.5,-217.932 198.5,-255.932 235.5,-255.932 235.5,-217.932 198.5,-217.932"/>
<text text-anchor="start" x="210" y="-233.232" font-family="Times,serif" font-size="14.00">71</text>
<defs>
<radialGradient id="r_58" cx="50%" cy="50%" r="75%" fx="74%" fy="6%">
<stop offset="0" style="stop-color:brown;stop-opacity:1.;"/>
<stop offset="1" style="stop-color:green;stop-opacity:1.;"/>
</radialGradient>
</defs>
<polygon fill="url(#r_58)" stroke="none" stroke-width="3" points="247,-216.432 247,-257.432 287,-257.432 287,-216.432 247,-216.432"/>
<polygon fill="none" stroke="black" stroke-width="3" points="248.5,-217.932 248.5,-255.932 285.5,-255.932 285.5,-217.932 248.5,-217.932"/>
<text text-anchor="start" x="260" y="-233.232" font-family="Times,serif" font-size="14.00">72</text>
<defs>
<radialGradient id="r_59" cx="50%" cy="50%" r="75%" fx="74%" fy="6%">
<stop offset="0" style="stop-color:brown;stop-opacity:1.;"/>
<stop offset="1" style="stop-color:blue;stop-opacity:1.;"/>
</radialGradient>
</defs>
<polygon fill="url(#r_59)" stroke="none" stroke-width="3" points="297,-216.432 297,-257.432 337,-257.432 337,-216.432 297,-216.432"/>
<polygon fill="none" stroke="black" stroke-width="3" points="298.5,-217.932 298.5,-255.932 335.5,-255.932 335.5,-217.932 298.5,-217.932"/>
<text text-anchor="start" x="310" y="-233.232" font-family="Times,serif" font-size="14.00">73</text>
<defs>
<radialGradient id="r_60" cx="50%" cy="50%" r="75%" fx="74%" fy="6%">
<stop offset="0" style="stop-color:brown;stop-opacity:1.;"/>
<stop offset="1" style="stop-color:blue;stop-opacity:1.;"/>
</radialGradient>
</defs>
<polygon fill="url(#r_60)" stroke="none" stroke-width="3" points="347,-216.432 347,-257.432 387,-257.432 387,-216.432 347,-216.432"/>
<polygon fill="none" stroke="black" stroke-width="3" points="348.5,-217.932 348.5,-255.932 385.5,-255.932 385.5,-217.932 348.5,-217.932"/>
<text text-anchor="start" x="360" y="-233.232" font-family="Times,serif" font-size="14.00">74</text>
<defs>
<radialGradient id="r_61" cx="50%" cy="50%" r="75%" fx="74%" fy="6%">
<stop offset="0" style="stop-color:brown;stop-opacity:1.;"/>
<stop offset="1" style="stop-color:purple;stop-opacity:1.;"/>
</radialGradient>
</defs>
<polygon fill="url(#r_61)" stroke="none" stroke-width="3" points="397,-216.432 397,-257.432 437,-257.432 437,-216.432 397,-216.432"/>
<polygon fill="none" stroke="black" stroke-width="3" points="398.5,-217.932 398.5,-255.932 435.5,-255.932 435.5,-217.932 398.5,-217.932"/>
<text text-anchor="start" x="410" y="-233.232" font-family="Times,serif" font-size="14.00">75</text>
<defs>
<radialGradient id="r_62" cx="50%" cy="50%" r="75%" fx="74%" fy="6%">
<stop offset="0" style="stop-color:brown;stop-opacity:1.;"/>
<stop offset="1" style="stop-color:purple;stop-opacity:1.;"/>
</radialGradient>
</defs>
<polygon fill="url(#r_62)" stroke="none" stroke-width="3" points="447,-216.432 447,-257.432 487,-257.432 487,-216.432 447,-216.432"/>
<polygon fill="none" stroke="black" stroke-width="3" points="448.5,-217.932 448.5,-255.932 485.5,-255.932 485.5,-217.932 448.5,-217.932"/>
<text text-anchor="start" x="460" y="-233.232" font-family="Times,serif" font-size="14.00">76</text>
<defs>
<radialGradient id="r_63" cx="50%" cy="50%" r="75%" fx="74%" fy="6%">
<stop offset="0" style="stop-color:brown;stop-opacity:1.;"/>
<stop offset="1" style="stop-color:violet;stop-opacity:1.;"/>
</radialGradient>
</defs>
<polygon fill="url(#r_63)" stroke="none" stroke-width="3" points="497,-216.432 497,-257.432 537,-257.432 537,-216.432 497,-216.432"/>
<polygon fill="none" stroke="black" stroke-width="3" points="498.5,-217.932 498.5,-255.932 535.5,-255.932 535.5,-217.932 498.5,-217.932"/>
<text text-anchor="start" x="510" y="-233.232" font-family="Times,serif" font-size="14.00">77</text>
<defs>
<radialGradient id="r_64" cx="50%" cy="50%" r="75%" fx="74%" fy="6%">
<stop offset="0" style="stop-color:brown;stop-opacity:1.;"/>
<stop offset="1" style="stop-color:violet;stop-opacity:1.;"/>
</radialGradient>
</defs>
<polygon fill="url(#r_64)" stroke="none" stroke-width="3" points="547,-216.432 547,-257.432 587,-257.432 587,-216.432 547,-216.432"/>
<polygon fill="none" stroke="black" stroke-width="3" points="548.5,-217.932 548.5,-255.932 585.5,-255.932 585.5,-217.932 548.5,-217.932"/>
<text text-anchor="start" x="560" y="-233.232" font-family="Times,serif" font-size="14.00">78</text>
<polygon fill="brown" stroke="none" stroke-width="3" points="147,-165.432 147,-206.432 187,-206.432 187,-165.432 147,-165.432"/>
<polygon fill="none" stroke="black" stroke-width="3" points="148.5,-166.932 148.5,-204.932 185.5,-204.932 185.5,-166.932 148.5,-166.932"/>
<text text-anchor="start" x="160" y="-182.232" font-family="Times,serif" font-size="14.00">80</text>
<defs>
<radialGradient id="r_65" cx="50%" cy="50%" r="75%" fx="74%" fy="6%">
<stop offset="0" style="stop-color:brown;stop-opacity:1.;"/>
<stop offset="1" style="stop-color:green;stop-opacity:1.;"/>
</radialGradient>
</defs>
<polygon fill="url(#r_65)" stroke="none" stroke-width="3" points="197,-165.432 197,-206.432 237,-206.432 237,-165.432 197,-165.432"/>
<polygon fill="none" stroke="black" stroke-width="3" points="198.5,-166.932 198.5,-204.932 235.5,-204.932 235.5,-166.932 198.5,-166.932"/>
<text text-anchor="start" x="210" y="-182.232" font-family="Times,serif" font-size="14.00">81</text>
<defs>
<radialGradient id="r_66" cx="50%" cy="50%" r="75%" fx="74%" fy="6%">
<stop offset="0" style="stop-color:brown;stop-opacity:1.;"/>
<stop offset="1" style="stop-color:green;stop-opacity:1.;"/>
</radialGradient>
</defs>
<polygon fill="url(#r_66)" stroke="none" stroke-width="3" points="247,-165.432 247,-206.432 287,-206.432 287,-165.432 247,-165.432"/>
<polygon fill="none" stroke="black" stroke-width="3" points="248.5,-166.932 248.5,-204.932 285.5,-204.932 285.5,-166.932 248.5,-166.932"/>
<text text-anchor="start" x="260" y="-182.232" font-family="Times,serif" font-size="14.00">82</text>
<defs>
<radialGradient id="r_67" cx="50%" cy="50%" r="75%" fx="74%" fy="6%">
<stop offset="0" style="stop-color:brown;stop-opacity:1.;"/>
<stop offset="1" style="stop-color:blue;stop-opacity:1.;"/>
</radialGradient>
</defs>
<polygon fill="url(#r_67)" stroke="none" stroke-width="3" points="297,-165.432 297,-206.432 337,-206.432 337,-165.432 297,-165.432"/>
<polygon fill="none" stroke="black" stroke-width="3" points="298.5,-166.932 298.5,-204.932 335.5,-204.932 335.5,-166.932 298.5,-166.932"/>
<text text-anchor="start" x="310" y="-182.232" font-family="Times,serif" font-size="14.00">83</text>
<defs>
<radialGradient id="r_68" cx="50%" cy="50%" r="75%" fx="74%" fy="6%">
<stop offset="0" style="stop-color:brown;stop-opacity:1.;"/>
<stop offset="1" style="stop-color:blue;stop-opacity:1.;"/>
</radialGradient>
</defs>
<polygon fill="url(#r_68)" stroke="none" stroke-width="3" points="347,-165.432 347,-206.432 387,-206.432 387,-165.432 347,-165.432"/>
<polygon fill="none" stroke="black" stroke-width="3" points="348.5,-166.932 348.5,-204.932 385.5,-204.932 385.5,-166.932 348.5,-166.932"/>
<text text-anchor="start" x="360" y="-182.232" font-family="Times,serif" font-size="14.00">84</text>
<defs>
<radialGradient id="r_69" cx="50%" cy="50%" r="75%" fx="74%" fy="6%">
<stop offset="0" style="stop-color:brown;stop-opacity:1.;"/>
<stop offset="1" style="stop-color:purple;stop-opacity:1.;"/>
</radialGradient>
</defs>
<polygon fill="url(#r_69)" stroke="none" stroke-width="3" points="397,-165.432 397,-206.432 437,-206.432 437,-165.432 397,-165.432"/>
<polygon fill="none" stroke="black" stroke-width="3" points="398.5,-166.932 398.5,-204.932 435.5,-204.932 435.5,-166.932 398.5,-166.932"/>
<text text-anchor="start" x="410" y="-182.232" font-family="Times,serif" font-size="14.00">85</text>
<defs>
<radialGradient id="r_70" cx="50%" cy="50%" r="75%" fx="74%" fy="6%">
<stop offset="0" style="stop-color:brown;stop-opacity:1.;"/>
<stop offset="1" style="stop-color:purple;stop-opacity:1.;"/>
</radialGradient>
</defs>
<polygon fill="url(#r_70)" stroke="none" stroke-width="3" points="447,-165.432 447,-206.432 487,-206.432 487,-165.432 447,-165.432"/>
<polygon fill="none" stroke="black" stroke-width="3" points="448.5,-166.932 448.5,-204.932 485.5,-204.932 485.5,-166.932 448.5,-166.932"/>
<text text-anchor="start" x="460" y="-182.232" font-family="Times,serif" font-size="14.00">86</text>
<defs>
<radialGradient id="r_71" cx="50%" cy="50%" r="75%" fx="74%" fy="6%">
<stop offset="0" style="stop-color:brown;stop-opacity:1.;"/>
<stop offset="1" style="stop-color:violet;stop-opacity:1.;"/>
</radialGradient>
</defs>
<polygon fill="url(#r_71)" stroke="none" stroke-width="3" points="497,-165.432 497,-206.432 537,-206.432 537,-165.432 497,-165.432"/>
<polygon fill="none" stroke="black" stroke-width="3" points="498.5,-166.932 498.5,-204.932 535.5,-204.932 535.5,-166.932 498.5,-166.932"/>
<text text-anchor="start" x="510" y="-182.232" font-family="Times,serif" font-size="14.00">87</text>
<defs>
<radialGradient id="r_72" cx="50%" cy="50%" r="75%" fx="74%" fy="6%">
<stop offset="0" style="stop-color:brown;stop-opacity:1.;"/>
<stop offset="1" style="stop-color:violet;stop-opacity:1.;"/>
</radialGradient>
</defs>
<polygon fill="url(#r_72)" stroke="none" stroke-width="3" points="547,-165.432 547,-206.432 587,-206.432 587,-165.432 547,-165.432"/>
<polygon fill="none" stroke="black" stroke-width="3" points="548.5,-166.932 548.5,-204.932 585.5,-204.932 585.5,-166.932 548.5,-166.932"/>
<text text-anchor="start" x="560" y="-182.232" font-family="Times,serif" font-size="14.00">88</text>
<path fill="none" stroke="black" stroke-width="10" d="M144,-150.932C144,-150.932 590,-150.932 590,-150.932 596,-150.932 602,-156.932 602,-162.932 602,-162.932 602,-617.932 602,-617.932 602,-623.932 596,-629.932 590,-629.932 590,-629.932 144,-629.932 144,-629.932 138,-629.932 132,-623.932 132,-617.932 132,-617.932 132,-162.932 132,-162.932 132,-156.932 138,-150.932 144,-150.932"/>
</g>
</g>
</svg>
