<?xml version="1.0" encoding="UTF-8" standalone="no"?>
<!DOCTYPE svg PUBLIC "-//W3C//DTD SVG 1.1//EN"
 "http://www.w3.org/Graphics/SVG/1.1/DTD/svg11.dtd">
<!-- Generated by graphviz version 2.38.0 (20140413.2041)
 -->
<!-- Title: G Pages: 1 -->
<svg width="265pt" height="1102pt"
 viewBox="0.00 0.00 265.00 1102.09" xmlns="http://www.w3.org/2000/svg" xmlns:xlink="http://www.w3.org/1999/xlink">
<g id="graph0" class="graph" transform="scale(1 1) rotate(0) translate(4 1098.09)">
<title>G</title>
<polygon fill="blue" stroke="none" points="-4,4 -4,-1098.09 261,-1098.09 261,4 -4,4"/>
<g id="clust1" class="cluster"><title>cluster_1</title>
<polygon fill="blue" stroke="black" points="8,-8 8,-1086.09 249,-1086.09 249,-8 8,-8"/>
<text text-anchor="middle" x="128.5" y="-1070.89" font-family="Times,serif" font-size="14.00" fill="white">Shape Variations</text>
</g>
<!-- n27 -->
<g id="node1" class="node"><title>n27</title>
<defs>
<linearGradient id="l_0" gradientUnits="userSpaceOnUse" x1="175" y1="-106" x2="229" y2="-106" >
<stop offset="0" style="stop-color:bisque;stop-opacity:1.;"/>
<stop offset="1" style="stop-color:brown;stop-opacity:1.;"/>
</linearGradient>
</defs>
<polygon fill="url(#l_0)" stroke="black" points="229,-124 175,-124 175,-88 229,-88 229,-124"/>
<text text-anchor="middle" x="202" y="-102.3" font-family="Times,serif" font-size="14.00">n27</text>
</g>
<!-- n26 -->
<g id="node2" class="node"><title>n26</title>
<defs>
<linearGradient id="l_1" gradientUnits="userSpaceOnUse" x1="175" y1="-178" x2="229" y2="-178" >
<stop offset="0" style="stop-color:bisque;stop-opacity:1.;"/>
<stop offset="1" style="stop-color:brown;stop-opacity:1.;"/>
</linearGradient>
</defs>
<ellipse fill="url(#l_1)" stroke="black" cx="202" cy="-178" rx="27" ry="18"/>
<text text-anchor="middle" x="202" y="-174.3" font-family="Times,serif" font-size="14.00">n26</text>
</g>
<!-- n26&#45;&gt;n27 -->
<g id="edge25" class="edge"><title>n26&#45;&gt;n27</title>
<path fill="none" stroke="black" d="M202,-159.697C202,-151.983 202,-142.712 202,-134.112"/>
<polygon fill="black" stroke="black" points="205.5,-134.104 202,-124.104 198.5,-134.104 205.5,-134.104"/>
</g>
<!-- n25 -->
<g id="node3" class="node"><title>n25</title>
<defs>
<linearGradient id="l_2" gradientUnits="userSpaceOnUse" x1="173.011" y1="-255" x2="230.989" y2="-255" >
<stop offset="0" style="stop-color:bisque;stop-opacity:1.;"/>
<stop offset="1" style="stop-color:brown;stop-opacity:1.;"/>
</linearGradient>
</defs>
<polygon fill="url(#l_2)" stroke="black" points="204.683,-237.049 206.459,-237.148 208.216,-237.295 209.948,-237.491 211.648,-237.735 213.308,-238.027 214.923,-238.364 216.485,-238.748 217.989,-239.176 219.429,-239.647 220.8,-240.161 222.098,-240.715 223.317,-241.308 224.455,-241.939 225.507,-242.605 226.472,-243.306 227.346,-244.039 228.127,-244.801 228.815,-245.592 229.408,-246.408 229.906,-247.248 230.309,-248.109 230.617,-248.989 230.832,-249.886 230.956,-250.797 230.989,-251.719 230.934,-252.65 230.794,-253.587 230.571,-254.529 230.269,-255.471 229.89,-256.413 229.439,-257.35 228.918,-258.281 228.332,-259.203 227.685,-260.114 226.981,-261.011 226.223,-261.891 225.415,-262.752 224.561,-263.592 223.666,-264.408 222.732,-265.199 221.764,-265.961 220.764,-266.694 219.737,-267.395 218.684,-268.061 217.61,-268.692 216.516,-269.285 215.405,-269.839 214.28,-270.353 213.142,-270.824 211.994,-271.252 210.837,-271.636 209.672,-271.973 208.501,-272.265 207.325,-272.509 206.145,-272.705 204.963,-272.852 203.779,-272.951 202.593,-273 201.407,-273 200.221,-272.951 199.037,-272.852 197.855,-272.705 196.675,-272.509 195.499,-272.265 194.328,-271.973 193.163,-271.636 192.006,-271.252 190.858,-270.824 189.72,-270.353 188.595,-269.839 187.484,-269.285 186.39,-268.692 185.316,-268.061 184.263,-267.395 183.236,-266.694 182.236,-265.961 181.268,-265.199 180.334,-264.408 179.439,-263.592 178.585,-262.752 177.777,-261.891 177.019,-261.011 176.315,-260.114 175.668,-259.203 175.082,-258.281 174.561,-257.35 174.11,-256.413 173.731,-255.471 173.429,-254.529 173.206,-253.587 173.066,-252.65 173.011,-251.719 173.044,-250.797 173.168,-249.886 173.383,-248.989 173.691,-248.109 174.094,-247.248 174.592,-246.408 175.185,-245.592 175.873,-244.801 176.654,-244.039 177.528,-243.306 178.493,-242.605 179.545,-241.939 180.683,-241.308 181.902,-240.715 183.2,-240.161 184.571,-239.647 186.011,-239.176 187.515,-238.748 189.077,-238.364 190.692,-238.027 192.352,-237.735 194.052,-237.491 195.784,-237.295 197.541,-237.148 199.317,-237.049 201.105,-237 202.895,-237 204.683,-237.049"/>
<text text-anchor="middle" x="202" y="-251.3" font-family="Times,serif" font-size="14.00">n25</text>
</g>
<!-- n25&#45;&gt;n26 -->
<g id="edge24" class="edge"><title>n25&#45;&gt;n26</title>
<path fill="none" stroke="black" d="M202,-236.981C202,-227.936 202,-216.597 202,-206.351"/>
<polygon fill="black" stroke="black" points="205.5,-206.211 202,-196.211 198.5,-206.211 205.5,-206.211"/>
</g>
<!-- n24 -->
<g id="node4" class="node"><title>n24</title>
<defs>
<linearGradient id="l_3" gradientUnits="userSpaceOnUse" x1="167.982" y1="-332" x2="236.018" y2="-332" >
<stop offset="0" style="stop-color:bisque;stop-opacity:1.;"/>
<stop offset="1" style="stop-color:brown;stop-opacity:1.;"/>
</linearGradient>
</defs>
<polygon fill="url(#l_3)" stroke="black" points="221.867,-350 182.133,-350 167.982,-314 236.018,-314 221.867,-350"/>
<text text-anchor="middle" x="202" y="-328.3" font-family="Times,serif" font-size="14.00">n24</text>
</g>
<!-- n24&#45;&gt;n25 -->
<g id="edge23" class="edge"><title>n24&#45;&gt;n25</title>
<path fill="none" stroke="black" d="M202,-313.981C202,-304.936 202,-293.597 202,-283.351"/>
<polygon fill="black" stroke="black" points="205.5,-283.211 202,-273.211 198.5,-283.211 205.5,-283.211"/>
</g>
<!-- n23 -->
<g id="node5" class="node"><title>n23</title>
<defs>
<linearGradient id="l_4" gradientUnits="userSpaceOnUse" x1="166.981" y1="-404" x2="237.019" y2="-404" >
<stop offset="0" style="stop-color:bisque;stop-opacity:1.;"/>
<stop offset="1" style="stop-color:brown;stop-opacity:1.;"/>
</linearGradient>
</defs>
<polygon fill="url(#l_4)" stroke="black" points="237.019,-422 181.312,-422 166.981,-386 222.688,-386 237.019,-422"/>
<text text-anchor="middle" x="202" y="-400.3" font-family="Times,serif" font-size="14.00">n23</text>
</g>
<!-- n23&#45;&gt;n24 -->
<g id="edge22" class="edge"><title>n23&#45;&gt;n24</title>
<path fill="none" stroke="black" d="M202,-385.697C202,-377.983 202,-368.712 202,-360.112"/>
<polygon fill="black" stroke="black" points="205.5,-360.104 202,-350.104 198.5,-360.104 205.5,-360.104"/>
</g>
<!-- n22 -->
<g id="node6" class="node"><title>n22</title>
<defs>
<linearGradient id="l_5" gradientUnits="userSpaceOnUse" x1="172.049" y1="-483.217" x2="231.951" y2="-483.217" >
<stop offset="0" style="stop-color:bisque;stop-opacity:1.;"/>
<stop offset="1" style="stop-color:brown;stop-opacity:1.;"/>
</linearGradient>
</defs>
<polygon fill="url(#l_5)" stroke="black" points="231.951,-487.061 202,-499.498 172.049,-487.061 172.077,-466.936 231.923,-466.936 231.951,-487.061"/>
<text text-anchor="middle" x="202" y="-477.798" font-family="Times,serif" font-size="14.00">n22</text>
</g>
<!-- n22&#45;&gt;n23 -->
<g id="edge21" class="edge"><title>n22&#45;&gt;n23</title>
<path fill="none" stroke="black" d="M202,-466.651C202,-457.069 202,-443.996 202,-432.354"/>
<polygon fill="black" stroke="black" points="205.5,-432.205 202,-422.206 198.5,-432.206 205.5,-432.205"/>
</g>
<!-- n21 -->
<g id="node7" class="node"><title>n21</title>
<defs>
<linearGradient id="l_6" gradientUnits="userSpaceOnUse" x1="174" y1="-562.997" x2="228" y2="-562.997" >
<stop offset="0" style="stop-color:bisque;stop-opacity:1.;"/>
<stop offset="1" style="stop-color:brown;stop-opacity:1.;"/>
</linearGradient>
</defs>
<polygon fill="url(#l_6)" stroke="black" points="228,-555.541 228,-570.452 212.184,-580.997 189.816,-580.997 174,-570.452 174,-555.541 189.816,-544.997 212.184,-544.997 228,-555.541"/>
<text text-anchor="middle" x="201" y="-559.297" font-family="Times,serif" font-size="14.00">n21</text>
</g>
<!-- n21&#45;&gt;n22 -->
<g id="edge20" class="edge"><title>n21&#45;&gt;n22</title>
<path fill="none" stroke="black" d="M201.217,-544.747C201.346,-534.467 201.513,-521.195 201.66,-509.548"/>
<polygon fill="black" stroke="black" points="205.161,-509.485 201.787,-499.441 198.161,-509.397 205.161,-509.485"/>
</g>
<!-- n20 -->
<g id="node8" class="node"><title>n20</title>
<defs>
<linearGradient id="l_7" gradientUnits="userSpaceOnUse" x1="172" y1="-646.997" x2="226" y2="-646.997" >
<stop offset="0" style="stop-color:bisque;stop-opacity:1.;"/>
<stop offset="1" style="stop-color:brown;stop-opacity:1.;"/>
</linearGradient>
</defs>
<polygon fill="url(#l_7)" stroke="black" points="226,-664.997 172,-664.997 172,-628.997 226,-628.997 226,-664.997"/>
<text text-anchor="middle" x="199" y="-643.297" font-family="Times,serif" font-size="14.00">n20</text>
</g>
<!-- n20&#45;&gt;n21 -->
<g id="edge19" class="edge"><title>n20&#45;&gt;n21</title>
<path fill="none" stroke="black" d="M199.424,-628.606C199.688,-617.771 200.034,-603.598 200.334,-591.288"/>
<polygon fill="black" stroke="black" points="203.838,-591.163 200.583,-581.08 196.84,-590.992 203.838,-591.163"/>
</g>
<!-- n19 -->
<g id="node9" class="node"><title>n19</title>
<defs>
<linearGradient id="l_8" gradientUnits="userSpaceOnUse" x1="170.904" y1="-733.044" x2="219.096" y2="-733.044" >
<stop offset="0" style="stop-color:bisque;stop-opacity:1.;"/>
<stop offset="1" style="stop-color:brown;stop-opacity:1.;"/>
</linearGradient>
</defs>
<ellipse fill="url(#l_8)" stroke="black" cx="195" cy="-733.044" rx="24.0958" ry="24.0958"/>
<text text-anchor="middle" x="195" y="-729.344" font-family="Times,serif" font-size="14.00">n19</text>
</g>
<!-- n19&#45;&gt;n20 -->
<g id="edge18" class="edge"><title>n19&#45;&gt;n20</title>
<path fill="none" stroke="black" d="M196.114,-708.632C196.607,-698.286 197.189,-686.054 197.701,-675.296"/>
<polygon fill="black" stroke="black" points="201.204,-675.309 198.183,-665.154 194.212,-674.976 201.204,-675.309"/>
</g>
<!-- n18 -->
<g id="node10" class="node"><title>n18</title>
<defs>
<linearGradient id="l_9" gradientUnits="userSpaceOnUse" x1="160.982" y1="-811.092" x2="229.018" y2="-811.092" >
<stop offset="0" style="stop-color:bisque;stop-opacity:1.;"/>
<stop offset="1" style="stop-color:brown;stop-opacity:1.;"/>
</linearGradient>
</defs>
<polygon fill="url(#l_9)" stroke="black" points="195,-829.092 160.982,-811.092 195,-793.092 229.018,-811.092 195,-829.092"/>
<text text-anchor="middle" x="195" y="-807.392" font-family="Times,serif" font-size="14.00">n18</text>
</g>
<!-- n18&#45;&gt;n19 -->
<g id="edge17" class="edge"><title>n18&#45;&gt;n19</title>
<path fill="none" stroke="black" d="M195,-792.836C195,-785.276 195,-776.137 195,-767.341"/>
<polygon fill="black" stroke="black" points="198.5,-767.287 195,-757.287 191.5,-767.287 198.5,-767.287"/>
</g>
<!-- n17 -->
<g id="node11" class="node"><title>n17</title>
<defs>
<linearGradient id="l_10" gradientUnits="userSpaceOnUse" x1="167" y1="-883.092" x2="221" y2="-883.092" >
<stop offset="0" style="stop-color:bisque;stop-opacity:1.;"/>
<stop offset="1" style="stop-color:brown;stop-opacity:1.;"/>
</linearGradient>
</defs>
<ellipse fill="url(#l_10)" stroke="black" cx="194" cy="-883.092" rx="27" ry="18"/>
<text text-anchor="middle" x="194" y="-879.392" font-family="Times,serif" font-size="14.00">n17</text>
</g>
<!-- n17&#45;&gt;n18 -->
<g id="edge16" class="edge"><title>n17&#45;&gt;n18</title>
<path fill="none" stroke="black" d="M194.247,-864.789C194.357,-857.075 194.49,-847.805 194.613,-839.205"/>
<polygon fill="black" stroke="black" points="198.112,-839.246 194.756,-829.197 191.113,-839.146 198.112,-839.246"/>
</g>
<!-- n16 -->
<g id="node12" class="node"><title>n16</title>
<defs>
<linearGradient id="l_11" gradientUnits="userSpaceOnUse" x1="165.462" y1="-955.092" x2="220.538" y2="-955.092" >
<stop offset="0" style="stop-color:bisque;stop-opacity:1.;"/>
<stop offset="1" style="stop-color:brown;stop-opacity:1.;"/>
</linearGradient>
</defs>
<polygon fill="url(#l_11)" stroke="black" points="220.538,-955.092 206.769,-973.092 179.231,-973.092 165.462,-955.092 179.231,-937.092 206.769,-937.092 220.538,-955.092"/>
<text text-anchor="middle" x="193" y="-951.392" font-family="Times,serif" font-size="14.00">n16</text>
</g>
<!-- n16&#45;&gt;n17 -->
<g id="edge15" class="edge"><title>n16&#45;&gt;n17</title>
<path fill="none" stroke="black" d="M193.247,-936.789C193.357,-929.075 193.49,-919.805 193.613,-911.205"/>
<polygon fill="black" stroke="black" points="197.112,-911.246 193.756,-901.197 190.113,-911.146 197.112,-911.246"/>
</g>
<!-- n15 -->
<g id="node13" class="node"><title>n15</title>
<defs>
<linearGradient id="l_12" gradientUnits="userSpaceOnUse" x1="144.808" y1="-1026.34" x2="241.192" y2="-1026.34" >
<stop offset="0" style="stop-color:bisque;stop-opacity:1.;"/>
<stop offset="1" style="stop-color:brown;stop-opacity:1.;"/>
</linearGradient>
</defs>
<polygon fill="url(#l_12)" stroke="black" points="193,-1009.09 241.192,-1043.59 144.808,-1043.59 193,-1009.09"/>
<text text-anchor="middle" x="193" y="-1028.39" font-family="Times,serif" font-size="14.00">n15</text>
</g>
<!-- n15&#45;&gt;n16 -->
<g id="edge14" class="edge"><title>n15&#45;&gt;n16</title>
<path fill="none" stroke="black" d="M193,-1009C193,-1000.97 193,-991.816 193,-983.399"/>
<polygon fill="black" stroke="black" points="196.5,-983.275 193,-973.275 189.5,-983.275 196.5,-983.275"/>
</g>
<!-- n14 -->
<g id="node14" class="node"><title>n14</title>
<defs>
<linearGradient id="l_13" gradientUnits="userSpaceOnUse" x1="77.0487" y1="-35.7188" x2="136.951" y2="-35.7188" >
<stop offset="0" style="stop-color:bisque;stop-opacity:1.;"/>
<stop offset="1" style="stop-color:brown;stop-opacity:1.;"/>
</linearGradient>
</defs>
<polygon fill="url(#l_13)" stroke="black" points="136.951,-39.5623 107,-52 77.0487,-39.5623 88.4891,-19.4377 125.511,-19.4377 136.951,-39.5623"/>
<text text-anchor="middle" x="107" y="-30.3" font-family="Times,serif" font-size="14.00">n14</text>
</g>
<!-- n13 -->
<g id="node15" class="node"><title>n13</title>
<defs>
<linearGradient id="l_14" gradientUnits="userSpaceOnUse" x1="80" y1="-106" x2="134" y2="-106" >
<stop offset="0" style="stop-color:bisque;stop-opacity:1.;"/>
<stop offset="1" style="stop-color:brown;stop-opacity:1.;"/>
</linearGradient>
</defs>
<polygon fill="url(#l_14)" stroke="black" points="134,-124 80,-124 80,-88 134,-88 134,-124"/>
<text text-anchor="middle" x="107" y="-102.3" font-family="Times,serif" font-size="14.00">n13</text>
</g>
<!-- n13&#45;&gt;n14 -->
<g id="edge13" class="edge"><title>n13&#45;&gt;n14</title>
<path fill="none" stroke="black" d="M107,-87.6966C107,-79.9827 107,-70.7125 107,-62.1124"/>
<polygon fill="black" stroke="black" points="110.5,-62.1043 107,-52.1043 103.5,-62.1044 110.5,-62.1043"/>
</g>
<!-- n12 -->
<g id="node16" class="node"><title>n12</title>
<defs>
<linearGradient id="l_15" gradientUnits="userSpaceOnUse" x1="80" y1="-178.891" x2="134" y2="-178.891" >
<stop offset="0" style="stop-color:bisque;stop-opacity:1.;"/>
<stop offset="1" style="stop-color:brown;stop-opacity:1.;"/>
</linearGradient>
</defs>
<polygon fill="url(#l_15)" stroke="black" points="134,-173.995 128.652,-189.223 107,-196 85.3477,-189.223 80,-173.995 94.9839,-161.783 119.016,-161.783 134,-173.995"/>
<text text-anchor="middle" x="107" y="-174.3" font-family="Times,serif" font-size="14.00">n12</text>
</g>
<!-- n12&#45;&gt;n13 -->
<g id="edge12" class="edge"><title>n12&#45;&gt;n13</title>
<path fill="none" stroke="black" d="M107,-161.465C107,-153.59 107,-143.788 107,-134.679"/>
<polygon fill="black" stroke="black" points="110.5,-134.461 107,-124.461 103.5,-134.461 110.5,-134.461"/>
</g>
<!-- n11 -->
<g id="node17" class="node"><title>n11</title>
<defs>
<linearGradient id="l_16" gradientUnits="userSpaceOnUse" x1="58.8083" y1="-260.75" x2="155.192" y2="-260.75" >
<stop offset="0" style="stop-color:bisque;stop-opacity:1.;"/>
<stop offset="1" style="stop-color:brown;stop-opacity:1.;"/>
</linearGradient>
</defs>
<polygon fill="url(#l_16)" stroke="black" points="107,-278 58.8083,-243.5 155.192,-243.5 107,-278"/>
<text text-anchor="middle" x="107" y="-251.3" font-family="Times,serif" font-size="14.00">n11</text>
</g>
<!-- n11&#45;&gt;n12 -->
<g id="edge11" class="edge"><title>n11&#45;&gt;n12</title>
<path fill="none" stroke="black" d="M107,-243.254C107,-233.635 107,-219.114 107,-206.308"/>
<polygon fill="black" stroke="black" points="110.5,-206.101 107,-196.101 103.5,-206.101 110.5,-206.101"/>
</g>
<!-- n10 -->
<g id="node18" class="node"><title>n10</title>
<defs>
<linearGradient id="l_17" gradientUnits="userSpaceOnUse" x1="80" y1="-332" x2="134" y2="-332" >
<stop offset="0" style="stop-color:bisque;stop-opacity:1.;"/>
<stop offset="1" style="stop-color:brown;stop-opacity:1.;"/>
</linearGradient>
</defs>
<polygon fill="url(#l_17)" stroke="black" points="134,-350 80,-350 80,-314 134,-314 134,-350"/>
<text text-anchor="middle" x="107" y="-328.3" font-family="Times,serif" font-size="14.00">n10</text>
</g>
<!-- n10&#45;&gt;n11 -->
<g id="edge10" class="edge"><title>n10&#45;&gt;n11</title>
<path fill="none" stroke="black" d="M107,-313.981C107,-306.34 107,-297.061 107,-288.188"/>
<polygon fill="black" stroke="black" points="110.5,-288.079 107,-278.079 103.5,-288.079 110.5,-288.079"/>
</g>
<!-- n9 -->
<g id="node19" class="node"><title>n9</title>
<defs>
<linearGradient id="l_18" gradientUnits="userSpaceOnUse" x1="89" y1="-404" x2="125" y2="-404" >
<stop offset="0" style="stop-color:bisque;stop-opacity:1.;"/>
<stop offset="1" style="stop-color:brown;stop-opacity:1.;"/>
</linearGradient>
</defs>
<polygon fill="url(#l_18)" stroke="black" points="125,-422 89,-422 89,-386 125,-386 125,-422"/>
<text text-anchor="middle" x="107" y="-400.3" font-family="Times,serif" font-size="14.00">n9</text>
</g>
<!-- n9&#45;&gt;n10 -->
<g id="edge9" class="edge"><title>n9&#45;&gt;n10</title>
<path fill="none" stroke="black" d="M107,-385.697C107,-377.983 107,-368.712 107,-360.112"/>
<polygon fill="black" stroke="black" points="110.5,-360.104 107,-350.104 103.5,-360.104 110.5,-360.104"/>
</g>
<!-- n8 -->
<g id="node20" class="node"><title>n8</title>
<defs>
<linearGradient id="l_19" gradientUnits="userSpaceOnUse" x1="88.5032" y1="-481.498" x2="127.497" y2="-481.498" >
<stop offset="0" style="stop-color:bisque;stop-opacity:1.;"/>
<stop offset="1" style="stop-color:brown;stop-opacity:1.;"/>
</linearGradient>
</defs>
<ellipse fill="url(#l_19)" stroke="black" cx="108" cy="-481.498" rx="19.4968" ry="19.4968"/>
<ellipse fill="none" stroke="black" cx="108" cy="-481.498" rx="23.4965" ry="23.4965"/>
<text text-anchor="middle" x="108" y="-477.798" font-family="Times,serif" font-size="14.00">n8</text>
</g>
<!-- n8&#45;&gt;n9 -->
<g id="edge8" class="edge"><title>n8&#45;&gt;n9</title>
<path fill="none" stroke="black" d="M107.7,-457.846C107.593,-449.784 107.472,-440.621 107.36,-432.216"/>
<polygon fill="black" stroke="black" points="110.859,-432.067 107.227,-422.114 103.86,-432.16 110.859,-432.067"/>
</g>
<!-- n7 -->
<g id="node21" class="node"><title>n7</title>
<defs>
<linearGradient id="l_20" gradientUnits="userSpaceOnUse" x1="81" y1="-562.997" x2="135" y2="-562.997" >
<stop offset="0" style="stop-color:bisque;stop-opacity:1.;"/>
<stop offset="1" style="stop-color:brown;stop-opacity:1.;"/>
</linearGradient>
</defs>
<polygon fill="url(#l_20)" stroke="black" points="135,-555.541 135,-570.452 119.184,-580.997 96.8162,-580.997 81,-570.452 81,-555.541 96.8162,-544.997 119.184,-544.997 135,-555.541"/>
<polygon fill="none" stroke="black" points="139,-553.4 139,-572.593 120.395,-584.997 95.6051,-584.997 77,-572.593 77,-553.4 95.6051,-540.997 120.395,-540.997 139,-553.4"/>
<text text-anchor="middle" x="108" y="-559.297" font-family="Times,serif" font-size="14.00">n7</text>
</g>
<!-- n7&#45;&gt;n8 -->
<g id="edge7" class="edge"><title>n7&#45;&gt;n8</title>
<path fill="none" stroke="black" d="M108,-540.692C108,-532.91 108,-523.916 108,-515.361"/>
<polygon fill="black" stroke="black" points="111.5,-515.254 108,-505.254 104.5,-515.254 111.5,-515.254"/>
</g>
<!-- n6 -->
<g id="node22" class="node"><title>n6</title>
<defs>
<linearGradient id="l_21" gradientUnits="userSpaceOnUse" x1="85" y1="-646.997" x2="139" y2="-646.997" >
<stop offset="0" style="stop-color:bisque;stop-opacity:1.;"/>
<stop offset="1" style="stop-color:brown;stop-opacity:1.;"/>
</linearGradient>
</defs>
<polygon fill="url(#l_21)" stroke="black" points="139,-639.541 139,-654.452 123.184,-664.997 100.816,-664.997 85,-654.452 85,-639.541 100.816,-628.997 123.184,-628.997 139,-639.541"/>
<polygon fill="none" stroke="black" points="143,-637.4 143,-656.593 124.395,-668.997 99.6051,-668.997 81,-656.593 81,-637.4 99.6051,-624.997 124.395,-624.997 143,-637.4"/>
<polygon fill="none" stroke="black" points="147,-635.259 147,-658.734 125.606,-672.997 98.394,-672.997 77,-658.734 77,-635.259 98.394,-620.997 125.606,-620.997 147,-635.259"/>
<text text-anchor="middle" x="112" y="-643.297" font-family="Times,serif" font-size="14.00">n6</text>
</g>
<!-- n6&#45;&gt;n7 -->
<g id="edge6" class="edge"><title>n6&#45;&gt;n7</title>
<path fill="none" stroke="black" d="M110.778,-620.948C110.38,-612.778 109.932,-603.607 109.515,-595.05"/>
<polygon fill="black" stroke="black" points="113.009,-594.845 109.026,-585.027 106.017,-595.186 113.009,-594.845"/>
</g>
<!-- n5 -->
<g id="node23" class="node"><title>n5</title>
<defs>
<linearGradient id="l_22" gradientUnits="userSpaceOnUse" x1="88.3504" y1="-733.044" x2="143.65" y2="-733.044" >
<stop offset="0" style="stop-color:bisque;stop-opacity:1.;"/>
<stop offset="1" style="stop-color:brown;stop-opacity:1.;"/>
</linearGradient>
</defs>
<polygon fill="url(#l_22)" stroke="black" points="99.8521,-715.044 132.148,-715.044 143.65,-751.044 88.3504,-751.044 99.8521,-715.044"/>
<text text-anchor="middle" x="116" y="-729.344" font-family="Times,serif" font-size="14.00">n5</text>
</g>
<!-- n5&#45;&gt;n6 -->
<g id="edge5" class="edge"><title>n5&#45;&gt;n6</title>
<path fill="none" stroke="black" d="M115.191,-715.036C114.758,-705.949 114.209,-694.407 113.688,-683.472"/>
<polygon fill="black" stroke="black" points="117.175,-683.096 113.203,-673.274 110.182,-683.429 117.175,-683.096"/>
</g>
<!-- n4 -->
<g id="node24" class="node"><title>n4</title>
<defs>
<linearGradient id="l_23" gradientUnits="userSpaceOnUse" x1="89" y1="-809.373" x2="143" y2="-809.373" >
<stop offset="0" style="stop-color:bisque;stop-opacity:1.;"/>
<stop offset="1" style="stop-color:brown;stop-opacity:1.;"/>
</linearGradient>
</defs>
<polygon fill="url(#l_23)" stroke="black" points="89,-805.53 116,-793.092 143,-805.53 142.975,-825.655 89.0252,-825.655 89,-805.53"/>
<text text-anchor="middle" x="116" y="-807.392" font-family="Times,serif" font-size="14.00">n4</text>
</g>
<!-- n4&#45;&gt;n5 -->
<g id="edge4" class="edge"><title>n4&#45;&gt;n5</title>
<path fill="none" stroke="black" d="M116,-792.836C116,-783.599 116,-772.003 116,-761.556"/>
<polygon fill="black" stroke="black" points="119.5,-761.233 116,-751.233 112.5,-761.233 119.5,-761.233"/>
</g>
<!-- n3 -->
<g id="node25" class="node"><title>n3</title>
<defs>
<linearGradient id="l_24" gradientUnits="userSpaceOnUse" x1="88.3504" y1="-883.092" x2="143.65" y2="-883.092" >
<stop offset="0" style="stop-color:bisque;stop-opacity:1.;"/>
<stop offset="1" style="stop-color:brown;stop-opacity:1.;"/>
</linearGradient>
</defs>
<polygon fill="url(#l_24)" stroke="black" points="116,-901.092 88.3504,-883.092 116,-865.092 143.65,-883.092 116,-901.092"/>
<polyline fill="none" stroke="black" points="97.5669,-889.092 97.5669,-877.092 "/>
<polyline fill="none" stroke="black" points="106.783,-871.092 125.217,-871.092 "/>
<polyline fill="none" stroke="black" points="134.433,-877.092 134.433,-889.092 "/>
<polyline fill="none" stroke="black" points="125.217,-895.092 106.783,-895.092 "/>
<text text-anchor="middle" x="116" y="-879.392" font-family="Times,serif" font-size="14.00">n3</text>
</g>
<!-- n3&#45;&gt;n4 -->
<g id="edge3" class="edge"><title>n3&#45;&gt;n4</title>
<path fill="none" stroke="black" d="M116,-864.789C116,-856.082 116,-845.392 116,-835.921"/>
<polygon fill="black" stroke="black" points="119.5,-835.917 116,-825.917 112.5,-835.917 119.5,-835.917"/>
</g>
<!-- n2 -->
<g id="node26" class="node"><title>n2</title>
<defs>
<linearGradient id="l_25" gradientUnits="userSpaceOnUse" x1="93" y1="-955.092" x2="129" y2="-955.092" >
<stop offset="0" style="stop-color:bisque;stop-opacity:1.;"/>
<stop offset="1" style="stop-color:brown;stop-opacity:1.;"/>
</linearGradient>
</defs>
<polygon fill="url(#l_25)" stroke="black" points="129,-973.092 93,-973.092 93,-937.092 129,-937.092 129,-973.092"/>
<polyline fill="none" stroke="black" points="105,-973.092 93,-961.092 "/>
<polyline fill="none" stroke="black" points="93,-949.092 105,-937.092 "/>
<polyline fill="none" stroke="black" points="117,-937.092 129,-949.092 "/>
<polyline fill="none" stroke="black" points="129,-961.092 117,-973.092 "/>
<text text-anchor="middle" x="111" y="-951.392" font-family="Times,serif" font-size="14.00">n2</text>
</g>
<!-- n2&#45;&gt;n3 -->
<g id="edge2" class="edge"><title>n2&#45;&gt;n3</title>
<path fill="none" stroke="black" d="M112.236,-936.789C112.795,-928.96 113.469,-919.528 114.091,-910.82"/>
<polygon fill="black" stroke="black" points="117.591,-910.939 114.813,-900.715 110.609,-910.44 117.591,-910.939"/>
</g>
<!-- n1 -->
<g id="node27" class="node"><title>n1</title>
<defs>
<linearGradient id="l_26" gradientUnits="userSpaceOnUse" x1="87.5035" y1="-1032.09" x2="126.497" y2="-1032.09" >
<stop offset="0" style="stop-color:bisque;stop-opacity:1.;"/>
<stop offset="1" style="stop-color:brown;stop-opacity:1.;"/>
</linearGradient>
</defs>
<ellipse fill="url(#l_26)" stroke="black" cx="107" cy="-1032.09" rx="19.4965" ry="19.4965"/>
<polyline fill="none" stroke="black" points="119.896,-1046.72 94.1038,-1046.72 "/>
<polyline fill="none" stroke="black" points="119.896,-1017.47 94.1038,-1017.47 "/>
<text text-anchor="middle" x="107" y="-1028.39" font-family="Times,serif" font-size="14.00">n1</text>
</g>
<!-- n1&#45;&gt;n2 -->
<g id="edge1" class="edge"><title>n1&#45;&gt;n2</title>
<path fill="none" stroke="black" d="M107.989,-1012.55C108.461,-1003.7 109.036,-992.927 109.556,-983.176"/>
<polygon fill="black" stroke="black" points="113.053,-983.308 110.091,-973.136 106.063,-982.935 113.053,-983.308"/>
</g>
<!-- x1 -->
<g id="node28" class="node"><title>x1</title>
<defs>
<linearGradient id="l_27" gradientUnits="userSpaceOnUse" x1="16" y1="-1032.09" x2="70" y2="-1032.09" >
<stop offset="0" style="stop-color:bisque;stop-opacity:1.;"/>
<stop offset="1" style="stop-color:brown;stop-opacity:1.;"/>
</linearGradient>
</defs>
<polygon fill="url(#l_27)" stroke="black" points="64,-1050.09 16,-1050.09 16,-1014.09 70,-1014.09 70,-1044.09 64,-1050.09"/>
<polyline fill="none" stroke="black" points="64,-1050.09 64,-1044.09 "/>
<polyline fill="none" stroke="black" points="70,-1044.09 64,-1044.09 "/>
<text text-anchor="middle" x="43" y="-1028.39" font-family="Times,serif" font-size="14.00">x1</text>
</g>
<!-- x2 -->
<g id="node29" class="node"><title>x2</title>
<defs>
<linearGradient id="l_28" gradientUnits="userSpaceOnUse" x1="16" y1="-957.092" x2="70" y2="-957.092" >
<stop offset="0" style="stop-color:bisque;stop-opacity:1.;"/>
<stop offset="1" style="stop-color:brown;stop-opacity:1.;"/>
</linearGradient>
</defs>
<polygon fill="url(#l_28)" stroke="black" points="70,-973.092 28,-973.092 28,-977.092 16,-977.092 16,-937.092 70,-937.092 70,-973.092"/>
<polyline fill="none" stroke="black" points="16,-973.092 28,-973.092 "/>
<text text-anchor="middle" x="43" y="-951.392" font-family="Times,serif" font-size="14.00">x2</text>
</g>
<!-- x1&#45;&gt;x2 -->
<g id="edge26" class="edge"><title>x1&#45;&gt;x2</title>
<path fill="none" stroke="black" d="M43,-1014.07C43,-1005.03 43,-993.689 43,-983.443"/>
<polygon fill="black" stroke="black" points="46.5001,-983.303 43,-973.303 39.5001,-983.303 46.5001,-983.303"/>
</g>
<!-- x3 -->
<g id="node30" class="node"><title>x3</title>
<defs>
<linearGradient id="l_29" gradientUnits="userSpaceOnUse" x1="16" y1="-885.092" x2="70" y2="-885.092" >
<stop offset="0" style="stop-color:bisque;stop-opacity:1.;"/>
<stop offset="1" style="stop-color:brown;stop-opacity:1.;"/>
</linearGradient>
</defs>
<polygon fill="url(#l_29)" stroke="black" points="70,-901.092 67,-905.092 46,-905.092 43,-901.092 16,-901.092 16,-865.092 70,-865.092 70,-901.092"/>
<text text-anchor="middle" x="43" y="-879.392" font-family="Times,serif" font-size="14.00">x3</text>
</g>
<!-- x2&#45;&gt;x3 -->
<g id="edge27" class="edge"><title>x2&#45;&gt;x3</title>
<path fill="none" stroke="black" d="M43,-936.789C43,-929.075 43,-919.805 43,-911.205"/>
<polygon fill="black" stroke="black" points="46.5001,-911.197 43,-901.197 39.5001,-911.197 46.5001,-911.197"/>
</g>
<!-- x4 -->
<g id="node31" class="node"><title>x4</title>
<defs>
<linearGradient id="l_30" gradientUnits="userSpaceOnUse" x1="16" y1="-811.092" x2="70" y2="-811.092" >
<stop offset="0" style="stop-color:bisque;stop-opacity:1.;"/>
<stop offset="1" style="stop-color:brown;stop-opacity:1.;"/>
</linearGradient>
</defs>
<polygon fill="url(#l_30)" stroke="black" points="70,-829.092 20,-829.092 16,-825.092 16,-793.092 66,-793.092 70,-797.092 70,-829.092"/>
<polyline fill="none" stroke="black" points="66,-825.092 16,-825.092 "/>
<polyline fill="none" stroke="black" points="66,-825.092 66,-793.092 "/>
<polyline fill="none" stroke="black" points="66,-825.092 70,-829.092 "/>
<text text-anchor="middle" x="43" y="-807.392" font-family="Times,serif" font-size="14.00">x4</text>
</g>
<!-- x3&#45;&gt;x4 -->
<g id="edge28" class="edge"><title>x3&#45;&gt;x4</title>
<path fill="none" stroke="black" d="M43,-864.789C43,-857.075 43,-847.805 43,-839.205"/>
<polygon fill="black" stroke="black" points="46.5001,-839.197 43,-829.197 39.5001,-839.197 46.5001,-839.197"/>
</g>
<!-- x5 -->
<g id="node32" class="node"><title>x5</title>
<defs>
<linearGradient id="l_31" gradientUnits="userSpaceOnUse" x1="12" y1="-733.044" x2="70" y2="-733.044" >
<stop offset="0" style="stop-color:bisque;stop-opacity:1.;"/>
<stop offset="1" style="stop-color:brown;stop-opacity:1.;"/>
</linearGradient>
</defs>
<polygon fill="url(#l_31)" stroke="black" points="70,-751.044 16,-751.044 16,-747.044 12,-747.044 12,-743.044 16,-743.044 16,-723.044 12,-723.044 12,-719.044 16,-719.044 16,-715.044 70,-715.044 70,-751.044"/>
<polyline fill="none" stroke="black" points="16,-747.044 20,-747.044 20,-743.044 16,-743.044 "/>
<polyline fill="none" stroke="black" points="16,-723.044 20,-723.044 20,-719.044 16,-719.044 "/>
<text text-anchor="middle" x="43" y="-729.344" font-family="Times,serif" font-size="14.00">x5</text>
</g>
<!-- x4&#45;&gt;x5 -->
<g id="edge29" class="edge"><title>x4&#45;&gt;x5</title>
<path fill="none" stroke="black" d="M43,-792.836C43,-783.599 43,-772.003 43,-761.556"/>
<polygon fill="black" stroke="black" points="46.5001,-761.233 43,-751.233 39.5001,-761.233 46.5001,-761.233"/>
</g>
</g>
</svg>
