<?xml version="1.0" encoding="UTF-8" standalone="no"?>
<!DOCTYPE svg PUBLIC "-//W3C//DTD SVG 1.1//EN"
 "http://www.w3.org/Graphics/SVG/1.1/DTD/svg11.dtd">
<!-- Generated by graphviz version 2.38.0 (20140413.2041)
 -->
<!-- Title: G Pages: 1 -->
<svg width="316pt" height="199pt"
 viewBox="0.00 0.00 316.00 198.50" xmlns="http://www.w3.org/2000/svg" xmlns:xlink="http://www.w3.org/1999/xlink">
<g id="graph0" class="graph" transform="scale(1 1) rotate(0) translate(4 194.5)">
<title>G</title>
<polygon fill="white" stroke="none" points="-4,4 -4,-194.5 312,-194.5 312,4 -4,4"/>
<!-- node0 -->
<g id="node1" class="node"><title>node0</title>
<polygon fill="none" stroke="black" points="0,-0.5 0,-184.5 20,-184.5 20,-0.5 0,-0.5"/>
<text text-anchor="middle" x="10" y="-169.3" font-family="Times,serif" font-size="14.00"> </text>
<polyline fill="none" stroke="black" points="0,-161.5 20,-161.5 "/>
<text text-anchor="middle" x="10" y="-146.3" font-family="Times,serif" font-size="14.00"> </text>
<polyline fill="none" stroke="black" points="0,-138.5 20,-138.5 "/>
<text text-anchor="middle" x="10" y="-123.3" font-family="Times,serif" font-size="14.00"> </text>
<polyline fill="none" stroke="black" points="0,-115.5 20,-115.5 "/>
<text text-anchor="middle" x="10" y="-100.3" font-family="Times,serif" font-size="14.00"> </text>
<polyline fill="none" stroke="black" points="0,-92.5 20,-92.5 "/>
<text text-anchor="middle" x="10" y="-77.3" font-family="Times,serif" font-size="14.00"> </text>
<polyline fill="none" stroke="black" points="0,-69.5 20,-69.5 "/>
<text text-anchor="middle" x="10" y="-54.3" font-family="Times,serif" font-size="14.00"> </text>
<polyline fill="none" stroke="black" points="0,-46.5 20,-46.5 "/>
<text text-anchor="middle" x="10" y="-31.3" font-family="Times,serif" font-size="14.00"> </text>
<polyline fill="none" stroke="black" points="0,-23.5 20,-23.5 "/>
<text text-anchor="middle" x="10" y="-8.3" font-family="Times,serif" font-size="14.00"> </text>
</g>
<!-- node1 -->
<g id="node2" class="node"><title>node1</title>
<polygon fill="none" stroke="black" points="56,-167 56,-190 164,-190 164,-167 56,-167"/>
<text text-anchor="middle" x="76.5" y="-174.8" font-family="Times,serif" font-size="14.00">n14</text>
<polyline fill="none" stroke="black" points="97,-167 97,-190 "/>
<text text-anchor="middle" x="118" y="-174.8" font-family="Times,serif" font-size="14.00">719</text>
<polyline fill="none" stroke="black" points="139,-167 139,-190 "/>
<text text-anchor="middle" x="151.5" y="-174.8" font-family="Times,serif" font-size="14.00"> </text>
</g>
<!-- node0&#45;&gt;node1 -->
<g id="edge1" class="edge"><title>node0:f0&#45;&gt;node1:n</title>
<path fill="none" stroke="black" d="M20,-173.5C32.1152,-173.5 37.2212,-176.312 45.8318,-177.719"/>
<polygon fill="black" stroke="black" points="45.7612,-181.224 56,-178.5 46.2975,-174.244 45.7612,-181.224"/>
</g>
<!-- node2 -->
<g id="node3" class="node"><title>node2</title>
<polygon fill="none" stroke="black" points="56,-139 56,-162 164,-162 164,-139 56,-139"/>
<text text-anchor="middle" x="74" y="-146.8" font-family="Times,serif" font-size="14.00">a1</text>
<polyline fill="none" stroke="black" points="92,-139 92,-162 "/>
<text text-anchor="middle" x="114" y="-146.8" font-family="Times,serif" font-size="14.00">805</text>
<polyline fill="none" stroke="black" points="136,-139 136,-162 "/>
<text text-anchor="middle" x="150" y="-146.8" font-family="Times,serif" font-size="14.00"> </text>
</g>
<!-- node0&#45;&gt;node2 -->
<g id="edge2" class="edge"><title>node0:f1&#45;&gt;node2:n</title>
<path fill="none" stroke="black" d="M20,-150.5C32,-150.5 37.25,-150.5 45.875,-150.5"/>
<polygon fill="black" stroke="black" points="46,-154 56,-150.5 46,-147 46,-154"/>
</g>
<!-- node3 -->
<g id="node4" class="node"><title>node3</title>
<polygon fill="none" stroke="black" points="56,-111 56,-134 164,-134 164,-111 56,-111"/>
<text text-anchor="middle" x="73.5" y="-118.8" font-family="Times,serif" font-size="14.00">i9</text>
<polyline fill="none" stroke="black" points="91,-111 91,-134 "/>
<text text-anchor="middle" x="113.5" y="-118.8" font-family="Times,serif" font-size="14.00">718</text>
<polyline fill="none" stroke="black" points="136,-111 136,-134 "/>
<text text-anchor="middle" x="150" y="-118.8" font-family="Times,serif" font-size="14.00"> </text>
</g>
<!-- node0&#45;&gt;node3 -->
<g id="edge3" class="edge"><title>node0:f2&#45;&gt;node3:n</title>
<path fill="none" stroke="black" d="M20,-127.5C32.1152,-127.5 37.2212,-124.687 45.8318,-123.281"/>
<polygon fill="black" stroke="black" points="46.2975,-126.756 56,-122.5 45.7612,-119.776 46.2975,-126.756"/>
</g>
<!-- node4 -->
<g id="node5" class="node"><title>node4</title>
<polygon fill="none" stroke="black" points="56,-49 56,-72 164,-72 164,-49 56,-49"/>
<text text-anchor="middle" x="74" y="-56.8" font-family="Times,serif" font-size="14.00">e5</text>
<polyline fill="none" stroke="black" points="92,-49 92,-72 "/>
<text text-anchor="middle" x="114" y="-56.8" font-family="Times,serif" font-size="14.00">989</text>
<polyline fill="none" stroke="black" points="136,-49 136,-72 "/>
<text text-anchor="middle" x="150" y="-56.8" font-family="Times,serif" font-size="14.00"> </text>
</g>
<!-- node0&#45;&gt;node4 -->
<g id="edge4" class="edge"><title>node0:f5&#45;&gt;node4:n</title>
<path fill="none" stroke="black" d="M20,-57.5C32.0416,-57.5 37.2396,-59.1875 45.8594,-60.0312"/>
<polygon fill="black" stroke="black" points="45.849,-63.5344 56,-60.5 46.1723,-56.5419 45.849,-63.5344"/>
</g>
<!-- node5 -->
<g id="node6" class="node"><title>node5</title>
<polygon fill="none" stroke="black" points="56,-21 56,-44 164,-44 164,-21 56,-21"/>
<text text-anchor="middle" x="75.5" y="-28.8" font-family="Times,serif" font-size="14.00">t20</text>
<polyline fill="none" stroke="black" points="95,-21 95,-44 "/>
<text text-anchor="middle" x="116.5" y="-28.8" font-family="Times,serif" font-size="14.00">959</text>
<polyline fill="none" stroke="black" points="138,-21 138,-44 "/>
<text text-anchor="middle" x="151" y="-28.8" font-family="Times,serif" font-size="14.00"> </text>
</g>
<!-- node0&#45;&gt;node5 -->
<g id="edge5" class="edge"><title>node0:f6&#45;&gt;node5:n</title>
<path fill="none" stroke="black" d="M20,-34.5C32.0185,-34.5 37.2454,-33.375 45.8681,-32.8125"/>
<polygon fill="black" stroke="black" points="46.1127,-36.3067 56,-32.5 45.8968,-29.31 46.1127,-36.3067"/>
</g>
<!-- node6 -->
<g id="node7" class="node"><title>node6</title>
<polygon fill="none" stroke="black" points="200,-139 200,-162 308,-162 308,-139 200,-139"/>
<text text-anchor="middle" x="220.5" y="-146.8" font-family="Times,serif" font-size="14.00">o15</text>
<polyline fill="none" stroke="black" points="241,-139 241,-162 "/>
<text text-anchor="middle" x="262" y="-146.8" font-family="Times,serif" font-size="14.00">794</text>
<polyline fill="none" stroke="black" points="283,-139 283,-162 "/>
<text text-anchor="middle" x="295.5" y="-146.8" font-family="Times,serif" font-size="14.00"> </text>
</g>
<!-- node2&#45;&gt;node6 -->
<g id="edge6" class="edge"><title>node2:p&#45;&gt;node6:n</title>
<path fill="none" stroke="black" d="M164,-150.5C176,-150.5 181.25,-150.5 189.875,-150.5"/>
<polygon fill="black" stroke="black" points="190,-154 200,-150.5 190,-147 190,-154"/>
</g>
<!-- node7 -->
<g id="node8" class="node"><title>node7</title>
<polygon fill="none" stroke="black" points="200,-49 200,-72 308,-72 308,-49 200,-49"/>
<text text-anchor="middle" x="220" y="-56.8" font-family="Times,serif" font-size="14.00">s19</text>
<polyline fill="none" stroke="black" points="240,-49 240,-72 "/>
<text text-anchor="middle" x="261" y="-56.8" font-family="Times,serif" font-size="14.00">659</text>
<polyline fill="none" stroke="black" points="282,-49 282,-72 "/>
<text text-anchor="middle" x="295" y="-56.8" font-family="Times,serif" font-size="14.00"> </text>
</g>
<!-- node4&#45;&gt;node7 -->
<g id="edge7" class="edge"><title>node4:p&#45;&gt;node7:n</title>
<path fill="none" stroke="black" d="M164,-60.5C176,-60.5 181.25,-60.5 189.875,-60.5"/>
<polygon fill="black" stroke="black" points="190,-64.0001 200,-60.5 190,-57.0001 190,-64.0001"/>
</g>
</g>
</svg>
