<?xml version="1.0" encoding="UTF-8" standalone="no"?>
<!DOCTYPE svg PUBLIC "-//W3C//DTD SVG 1.1//EN"
 "http://www.w3.org/Graphics/SVG/1.1/DTD/svg11.dtd">
<!-- Generated by graphviz version 2.38.0 (20140413.2041)
 -->
<!-- Title: %3 Pages: 1 -->
<svg width="488pt" height="932pt"
 viewBox="0.00 0.00 488.00 932.00" xmlns="http://www.w3.org/2000/svg" xmlns:xlink="http://www.w3.org/1999/xlink">
<g id="graph0" class="graph" transform="scale(1 1) rotate(0) translate(4 928)">
<title>%3</title>
<polygon fill="white" stroke="none" points="-4,4 -4,-928 484,-928 484,4 -4,4"/>
<!-- 13 -->
<g id="node1" class="node"><title>13</title>
<polygon fill="none" stroke="black" points="466.5,-924 13.5,-924 13.5,-840 466.5,-840 466.5,-924"/>
<polygon fill="none" stroke="black" points="14,-903 14,-924 467,-924 467,-903 14,-903"/>
<text text-anchor="start" x="207" y="-909.8" font-family="Helvetica,sans-Serif" font-size="14.00">&quot;Helvetica&quot;</text>
<polygon fill="none" stroke="black" points="14,-882 14,-903 467,-903 467,-882 14,-882"/>
<text text-anchor="start" x="110.5" y="-888.8" font-family="Helvetica,sans-Serif" font-size="14.00">&quot;ABCDEFGHIJLKLMNOPQRSTUVWXYZ&quot;</text>
<polygon fill="none" stroke="black" points="14,-861 14,-882 467,-882 467,-861 14,-861"/>
<text text-anchor="start" x="147" y="-867.8" font-family="Helvetica,sans-Serif" font-size="14.00">&quot;abcdefghijlklmnopqrstuvwxyz&quot;</text>
<polygon fill="none" stroke="black" points="14,-840 14,-861 467,-861 467,-840 14,-840"/>
<text text-anchor="start" x="17" y="-846.8" font-family="Helvetica,sans-Serif" font-size="14.00">&quot;ABCDEFGHIJLKLMNOPQRSTUVWXYZ\nabcdefghijlklmnopqrstuvwxyz&quot;</text>
</g>
<!-- 14 -->
<g id="node2" class="node"><title>14</title>
<polygon fill="none" stroke="black" points="480,-804 0,-804 0,-720 480,-720 480,-804"/>
<polygon fill="none" stroke="black" points="-2.84217e-14,-783 -2.84217e-14,-804 480,-804 480,-783 -2.84217e-14,-783"/>
<text text-anchor="start" x="186" y="-789.8" font-family="Helvetica,sans-Serif" font-weight="bold" font-size="14.00">&quot;Helvetica&#45;Bold&quot;</text>
<polygon fill="none" stroke="black" points="-2.84217e-14,-762 -2.84217e-14,-783 480,-783 480,-762 -2.84217e-14,-762"/>
<text text-anchor="start" x="106" y="-768.8" font-family="Helvetica,sans-Serif" font-weight="bold" font-size="14.00">&quot;ABCDEFGHIJLKLMNOPQRSTUVWXYZ&quot;</text>
<polygon fill="none" stroke="black" points="-2.84217e-14,-741 -2.84217e-14,-762 480,-762 480,-741 -2.84217e-14,-741"/>
<text text-anchor="start" x="136" y="-747.8" font-family="Helvetica,sans-Serif" font-weight="bold" font-size="14.00">&quot;abcdefghijlklmnopqrstuvwxyz&quot;</text>
<polygon fill="none" stroke="black" points="-2.84217e-14,-720 -2.84217e-14,-741 480,-741 480,-720 -2.84217e-14,-720"/>
<text text-anchor="start" x="3" y="-726.8" font-family="Helvetica,sans-Serif" font-weight="bold" font-size="14.00">&quot;ABCDEFGHIJLKLMNOPQRSTUVWXYZ\nabcdefghijlklmnopqrstuvwxyz&quot;</text>
</g>
<!-- 13&#45;&gt;14 -->
<g id="edge1" class="edge"><title>13&#45;&gt;14</title>
<path fill="none" stroke="black" d="M240,-839.729C240,-831.508 240,-822.78 240,-814.271"/>
<polygon fill="black" stroke="black" points="243.5,-814.048 240,-804.048 236.5,-814.048 243.5,-814.048"/>
</g>
<!-- 15 -->
<g id="node3" class="node"><title>15</title>
<polygon fill="none" stroke="black" points="480,-684 0,-684 0,-600 480,-600 480,-684"/>
<polygon fill="none" stroke="black" points="-2.84217e-14,-663 -2.84217e-14,-684 480,-684 480,-663 -2.84217e-14,-663"/>
<text text-anchor="start" x="160.5" y="-669.8" font-family="Helvetica,sans-Serif" font-weight="bold" font-style="oblique" font-size="14.00">&quot;Helvetica&#45;BoldOblique&quot;</text>
<polygon fill="none" stroke="black" points="-2.84217e-14,-642 -2.84217e-14,-663 480,-663 480,-642 -2.84217e-14,-642"/>
<text text-anchor="start" x="106" y="-648.8" font-family="Helvetica,sans-Serif" font-weight="bold" font-style="oblique" font-size="14.00">&quot;ABCDEFGHIJLKLMNOPQRSTUVWXYZ&quot;</text>
<polygon fill="none" stroke="black" points="-2.84217e-14,-621 -2.84217e-14,-642 480,-642 480,-621 -2.84217e-14,-621"/>
<text text-anchor="start" x="136" y="-627.8" font-family="Helvetica,sans-Serif" font-weight="bold" font-style="oblique" font-size="14.00">&quot;abcdefghijlklmnopqrstuvwxyz&quot;</text>
<polygon fill="none" stroke="black" points="-2.84217e-14,-600 -2.84217e-14,-621 480,-621 480,-600 -2.84217e-14,-600"/>
<text text-anchor="start" x="3" y="-606.8" font-family="Helvetica,sans-Serif" font-weight="bold" font-style="oblique" font-size="14.00">&quot;ABCDEFGHIJLKLMNOPQRSTUVWXYZ\nabcdefghijlklmnopqrstuvwxyz&quot;</text>
</g>
<!-- 14&#45;&gt;15 -->
<g id="edge2" class="edge"><title>14&#45;&gt;15</title>
<path fill="none" stroke="black" d="M240,-719.729C240,-711.508 240,-702.78 240,-694.271"/>
<polygon fill="black" stroke="black" points="243.5,-694.048 240,-684.048 236.5,-694.048 243.5,-694.048"/>
</g>
<!-- 16 -->
<g id="node4" class="node"><title>16</title>
<polygon fill="none" stroke="black" points="432,-564 48,-564 48,-480 432,-480 432,-564"/>
<polygon fill="none" stroke="black" points="48,-543 48,-564 432,-564 432,-543 48,-543"/>
<text text-anchor="start" x="191.5" y="-549.8" font-family="Helvetica,sans-Serif" font-stretch="condensed" font-size="14.00">&quot;Helvetica&#45;Narrow&quot;</text>
<polygon fill="none" stroke="black" points="48,-522 48,-543 432,-543 432,-522 48,-522"/>
<text text-anchor="start" x="132.5" y="-528.8" font-family="Helvetica,sans-Serif" font-stretch="condensed" font-size="14.00">&quot;ABCDEFGHIJLKLMNOPQRSTUVWXYZ&quot;</text>
<polygon fill="none" stroke="black" points="48,-501 48,-522 432,-522 432,-501 48,-501"/>
<text text-anchor="start" x="159.5" y="-507.8" font-family="Helvetica,sans-Serif" font-stretch="condensed" font-size="14.00">&quot;abcdefghijlklmnopqrstuvwxyz&quot;</text>
<polygon fill="none" stroke="black" points="48,-480 48,-501 432,-501 432,-480 48,-480"/>
<text text-anchor="start" x="51" y="-486.8" font-family="Helvetica,sans-Serif" font-stretch="condensed" font-size="14.00">&quot;ABCDEFGHIJLKLMNOPQRSTUVWXYZ\nabcdefghijlklmnopqrstuvwxyz&quot;</text>
</g>
<!-- 15&#45;&gt;16 -->
<g id="edge3" class="edge"><title>15&#45;&gt;16</title>
<path fill="none" stroke="black" d="M240,-599.729C240,-591.508 240,-582.78 240,-574.271"/>
<polygon fill="black" stroke="black" points="243.5,-574.048 240,-564.048 236.5,-574.048 243.5,-574.048"/>
</g>
<!-- 17 -->
<g id="node5" class="node"><title>17</title>
<polygon fill="none" stroke="black" points="440.5,-444 39.5,-444 39.5,-360 440.5,-360 440.5,-444"/>
<polygon fill="none" stroke="black" points="40,-423 40,-444 441,-444 441,-423 40,-423"/>
<text text-anchor="start" x="173" y="-429.8" font-family="Helvetica,sans-Serif" font-weight="bold" font-stretch="condensed" font-size="14.00">&quot;Helvetica&#45;Narrow&#45;Bold&quot;</text>
<polygon fill="none" stroke="black" points="40,-402 40,-423 441,-423 441,-402 40,-402"/>
<text text-anchor="start" x="130" y="-408.8" font-family="Helvetica,sans-Serif" font-weight="bold" font-stretch="condensed" font-size="14.00">&quot;ABCDEFGHIJLKLMNOPQRSTUVWXYZ&quot;</text>
<polygon fill="none" stroke="black" points="40,-381 40,-402 441,-402 441,-381 40,-381"/>
<text text-anchor="start" x="153" y="-387.8" font-family="Helvetica,sans-Serif" font-weight="bold" font-stretch="condensed" font-size="14.00">&quot;abcdefghijlklmnopqrstuvwxyz&quot;</text>
<polygon fill="none" stroke="black" points="40,-360 40,-381 441,-381 441,-360 40,-360"/>
<text text-anchor="start" x="43" y="-366.8" font-family="Helvetica,sans-Serif" font-weight="bold" font-stretch="condensed" font-size="14.00">&quot;ABCDEFGHIJLKLMNOPQRSTUVWXYZ\nabcdefghijlklmnopqrstuvwxyz&quot;</text>
</g>
<!-- 16&#45;&gt;17 -->
<g id="edge4" class="edge"><title>16&#45;&gt;17</title>
<path fill="none" stroke="black" d="M240,-479.729C240,-471.508 240,-462.78 240,-454.271"/>
<polygon fill="black" stroke="black" points="243.5,-454.048 240,-444.048 236.5,-454.048 243.5,-454.048"/>
</g>
<!-- 18 -->
<g id="node6" class="node"><title>18</title>
<polygon fill="none" stroke="black" points="440.5,-324 39.5,-324 39.5,-240 440.5,-240 440.5,-324"/>
<polygon fill="none" stroke="black" points="40,-303 40,-324 441,-324 441,-303 40,-303"/>
<text text-anchor="start" x="152" y="-309.8" font-family="Helvetica,sans-Serif" font-weight="bold" font-stretch="condensed" font-style="oblique" font-size="14.00">&quot;Helvetica&#45;Narrow&#45;BoldOblique&quot;</text>
<polygon fill="none" stroke="black" points="40,-282 40,-303 441,-303 441,-282 40,-282"/>
<text text-anchor="start" x="130" y="-288.8" font-family="Helvetica,sans-Serif" font-weight="bold" font-stretch="condensed" font-style="oblique" font-size="14.00">&quot;ABCDEFGHIJLKLMNOPQRSTUVWXYZ&quot;</text>
<polygon fill="none" stroke="black" points="40,-261 40,-282 441,-282 441,-261 40,-261"/>
<text text-anchor="start" x="153" y="-267.8" font-family="Helvetica,sans-Serif" font-weight="bold" font-stretch="condensed" font-style="oblique" font-size="14.00">&quot;abcdefghijlklmnopqrstuvwxyz&quot;</text>
<polygon fill="none" stroke="black" points="40,-240 40,-261 441,-261 441,-240 40,-240"/>
<text text-anchor="start" x="43" y="-246.8" font-family="Helvetica,sans-Serif" font-weight="bold" font-stretch="condensed" font-style="oblique" font-size="14.00">&quot;ABCDEFGHIJLKLMNOPQRSTUVWXYZ\nabcdefghijlklmnopqrstuvwxyz&quot;</text>
</g>
<!-- 17&#45;&gt;18 -->
<g id="edge5" class="edge"><title>17&#45;&gt;18</title>
<path fill="none" stroke="black" d="M240,-359.729C240,-351.508 240,-342.78 240,-334.271"/>
<polygon fill="black" stroke="black" points="243.5,-334.048 240,-324.048 236.5,-334.048 243.5,-334.048"/>
</g>
<!-- 19 -->
<g id="node7" class="node"><title>19</title>
<polygon fill="none" stroke="black" points="432,-204 48,-204 48,-120 432,-120 432,-204"/>
<polygon fill="none" stroke="black" points="48,-183 48,-204 432,-204 432,-183 48,-183"/>
<text text-anchor="start" x="169" y="-189.8" font-family="Helvetica,sans-Serif" font-stretch="condensed" font-style="oblique" font-size="14.00">&quot;Helvetica&#45;Narrow&#45;Oblique&quot;</text>
<polygon fill="none" stroke="black" points="48,-162 48,-183 432,-183 432,-162 48,-162"/>
<text text-anchor="start" x="132.5" y="-168.8" font-family="Helvetica,sans-Serif" font-stretch="condensed" font-style="oblique" font-size="14.00">&quot;ABCDEFGHIJLKLMNOPQRSTUVWXYZ&quot;</text>
<polygon fill="none" stroke="black" points="48,-141 48,-162 432,-162 432,-141 48,-141"/>
<text text-anchor="start" x="159.5" y="-147.8" font-family="Helvetica,sans-Serif" font-stretch="condensed" font-style="oblique" font-size="14.00">&quot;abcdefghijlklmnopqrstuvwxyz&quot;</text>
<polygon fill="none" stroke="black" points="48,-120 48,-141 432,-141 432,-120 48,-120"/>
<text text-anchor="start" x="51" y="-126.8" font-family="Helvetica,sans-Serif" font-stretch="condensed" font-style="oblique" font-size="14.00">&quot;ABCDEFGHIJLKLMNOPQRSTUVWXYZ\nabcdefghijlklmnopqrstuvwxyz&quot;</text>
</g>
<!-- 18&#45;&gt;19 -->
<g id="edge6" class="edge"><title>18&#45;&gt;19</title>
<path fill="none" stroke="black" d="M240,-239.729C240,-231.508 240,-222.78 240,-214.271"/>
<polygon fill="black" stroke="black" points="243.5,-214.048 240,-204.048 236.5,-214.048 243.5,-214.048"/>
</g>
<!-- 20 -->
<g id="node8" class="node"><title>20</title>
<polygon fill="none" stroke="black" points="466.5,-84 13.5,-84 13.5,-0 466.5,-0 466.5,-84"/>
<polygon fill="none" stroke="black" points="14,-63 14,-84 467,-84 467,-63 14,-63"/>
<text text-anchor="start" x="181.5" y="-69.8" font-family="Helvetica,sans-Serif" font-style="oblique" font-size="14.00">&quot;Helvetica&#45;Oblique&quot;</text>
<polygon fill="none" stroke="black" points="14,-42 14,-63 467,-63 467,-42 14,-42"/>
<text text-anchor="start" x="110.5" y="-48.8" font-family="Helvetica,sans-Serif" font-style="oblique" font-size="14.00">&quot;ABCDEFGHIJLKLMNOPQRSTUVWXYZ&quot;</text>
<polygon fill="none" stroke="black" points="14,-21 14,-42 467,-42 467,-21 14,-21"/>
<text text-anchor="start" x="147" y="-27.8" font-family="Helvetica,sans-Serif" font-style="oblique" font-size="14.00">&quot;abcdefghijlklmnopqrstuvwxyz&quot;</text>
<polygon fill="none" stroke="black" points="14,7.10543e-15 14,-21 467,-21 467,7.10543e-15 14,7.10543e-15"/>
<text text-anchor="start" x="17" y="-6.8" font-family="Helvetica,sans-Serif" font-style="oblique" font-size="14.00">&quot;ABCDEFGHIJLKLMNOPQRSTUVWXYZ\nabcdefghijlklmnopqrstuvwxyz&quot;</text>
</g>
<!-- 19&#45;&gt;20 -->
<g id="edge7" class="edge"><title>19&#45;&gt;20</title>
<path fill="none" stroke="black" d="M240,-119.729C240,-111.508 240,-102.78 240,-94.2708"/>
<polygon fill="black" stroke="black" points="243.5,-94.0481 240,-84.0481 236.5,-94.0481 243.5,-94.0481"/>
</g>
</g>
</svg>
