<?xml version="1.0" encoding="UTF-8" standalone="no"?>
<!DOCTYPE svg PUBLIC "-//W3C//DTD SVG 1.1//EN"
 "http://www.w3.org/Graphics/SVG/1.1/DTD/svg11.dtd">
<!-- Generated by graphviz version 2.38.0 (20140413.2041)
 -->
<!-- Title: structs Pages: 1 -->
<svg width="238pt" height="163pt"
 viewBox="0.00 0.00 238.00 163.00" xmlns="http://www.w3.org/2000/svg" xmlns:xlink="http://www.w3.org/1999/xlink">
<g id="graph0" class="graph" transform="scale(1 1) rotate(0) translate(4 159)">
<title>structs</title>
<polygon fill="white" stroke="none" points="-4,4 -4,-159 234,-159 234,4 -4,4"/>
<!-- struct1 -->
<g id="node1" class="node"><title>struct1</title>
<polygon fill="none" stroke="black" points="22.5,-126 22.5,-147 47.5,-147 47.5,-126 22.5,-126"/>
<text text-anchor="start" x="25.5" y="-132.8" font-family="Times,serif" font-size="14.00">left</text>
<polygon fill="none" stroke="black" points="47.5,-126 47.5,-147 96.5,-147 96.5,-126 47.5,-126"/>
<text text-anchor="start" x="50.5" y="-132.8" font-family="Times,serif" font-size="14.00">mid dle</text>
<polygon fill="none" stroke="black" points="96.5,-126 96.5,-147 128.5,-147 128.5,-126 96.5,-126"/>
<text text-anchor="start" x="99.5" y="-132.8" font-family="Times,serif" font-size="14.00">right</text>
</g>
<!-- struct2 -->
<g id="node2" class="node"><title>struct2</title>
<polygon fill="none" stroke="black" points="8.5,-30.5 8.5,-51.5 34.5,-51.5 34.5,-30.5 8.5,-30.5"/>
<text text-anchor="start" x="11.5" y="-37.3" font-family="Times,serif" font-size="14.00">one</text>
<polygon fill="none" stroke="black" points="34.5,-30.5 34.5,-51.5 61.5,-51.5 61.5,-30.5 34.5,-30.5"/>
<text text-anchor="start" x="37.5" y="-37.3" font-family="Times,serif" font-size="14.00">two</text>
</g>
<!-- struct1&#45;&gt;struct2 -->
<g id="edge1" class="edge"><title>struct1:f1&#45;&gt;struct2:f0</title>
<path fill="none" stroke="black" d="M71.5,-125C71.5,-89.6804 30.7888,-90.9408 22.8374,-62.7657"/>
<polygon fill="black" stroke="black" points="26.2626,-61.964 21.5,-52.5 19.3213,-62.8684 26.2626,-61.964"/>
</g>
<!-- struct3 -->
<g id="node3" class="node"><title>struct3</title>
<polygon fill="none" stroke="black" points="95.5,-3.5 95.5,-78.5 137.5,-78.5 137.5,-3.5 95.5,-3.5"/>
<text text-anchor="start" x="102.5" y="-44.8" font-family="Times,serif" font-size="14.00">hello</text>
<text text-anchor="start" x="100.5" y="-29.8" font-family="Times,serif" font-size="14.00">world</text>
<polygon fill="none" stroke="black" points="137.5,-53.5 137.5,-78.5 188.5,-78.5 188.5,-53.5 137.5,-53.5"/>
<text text-anchor="start" x="159.5" y="-62.3" font-family="Times,serif" font-size="14.00">b</text>
<polygon fill="none" stroke="black" points="188.5,-3.5 188.5,-78.5 205.5,-78.5 205.5,-3.5 188.5,-3.5"/>
<text text-anchor="start" x="193.5" y="-37.3" font-family="Times,serif" font-size="14.00">g</text>
<polygon fill="none" stroke="black" points="205.5,-3.5 205.5,-78.5 222.5,-78.5 222.5,-3.5 205.5,-3.5"/>
<text text-anchor="start" x="210.5" y="-37.3" font-family="Times,serif" font-size="14.00">h</text>
<polygon fill="none" stroke="black" points="137.5,-28.5 137.5,-53.5 154.5,-53.5 154.5,-28.5 137.5,-28.5"/>
<text text-anchor="start" x="142.5" y="-37.3" font-family="Times,serif" font-size="14.00">c</text>
<polygon fill="none" stroke="black" points="154.5,-28.5 154.5,-53.5 171.5,-53.5 171.5,-28.5 154.5,-28.5"/>
<text text-anchor="start" x="159.5" y="-37.3" font-family="Times,serif" font-size="14.00">d</text>
<polygon fill="none" stroke="black" points="171.5,-28.5 171.5,-53.5 188.5,-53.5 188.5,-28.5 171.5,-28.5"/>
<text text-anchor="start" x="176.5" y="-37.3" font-family="Times,serif" font-size="14.00">e</text>
<polygon fill="none" stroke="black" points="137.5,-3.5 137.5,-28.5 188.5,-28.5 188.5,-3.5 137.5,-3.5"/>
<text text-anchor="start" x="160.5" y="-12.3" font-family="Times,serif" font-size="14.00">f</text>
</g>
<!-- struct1&#45;&gt;struct3 -->
<g id="edge2" class="edge"><title>struct1:f2&#45;&gt;struct3:here</title>
<path fill="none" stroke="black" d="M112.5,-125C112.5,-98.0948 132.023,-72.5185 146.911,-56.9261"/>
<polygon fill="black" stroke="black" points="149.525,-59.2624 154.146,-49.7283 144.588,-54.3 149.525,-59.2624"/>
</g>
</g>
</svg>
