<?xml version="1.0" encoding="UTF-8" standalone="no"?>
<!DOCTYPE svg PUBLIC "-//W3C//DTD SVG 1.1//EN"
 "http://www.w3.org/Graphics/SVG/1.1/DTD/svg11.dtd">
<!-- Generated by graphviz version 2.38.0 (20140413.2041)
 -->
<!-- Title: structs Pages: 1 -->
<svg width="300pt" height="54pt"
 viewBox="0.00 0.00 300.00 54.00" xmlns="http://www.w3.org/2000/svg" xmlns:xlink="http://www.w3.org/1999/xlink">
<g id="graph0" class="graph" transform="scale(1 1) rotate(0) translate(4 50)">
<title>structs</title>
<polygon fill="white" stroke="none" points="-4,4 -4,-50 296,-50 296,4 -4,4"/>
<!-- struct1 -->
<g id="node1" class="node"><title>struct1</title>
<polygon fill="none" stroke="black" points="11,-7 11,-39 48,-39 48,-7 11,-7"/>
<text text-anchor="start" x="14" y="-19.3" font-family="Times,serif" font-size="14.00">line 1</text>
<polygon fill="blue" stroke="none" points="50,-7 50,-39 84,-39 84,-7 50,-7"/>
<polygon fill="none" stroke="black" points="50,-7 50,-39 84,-39 84,-7 50,-7"/>
<text text-anchor="start" x="53" y="-19.3" font-family="Times,serif" font-size="14.00" fill="white">line2</text>
<polygon fill="gray" stroke="none" points="86,-7 86,-39 141,-39 141,-7 86,-7"/>
<polygon fill="none" stroke="black" points="86,-7 86,-39 141,-39 141,-7 86,-7"/>
<text text-anchor="start" x="89" y="-16.8" font-family="Times,serif" font-size="24.00">line3</text>
<polygon fill="yellow" stroke="none" points="143,-7 143,-39 208,-39 208,-7 143,-7"/>
<polygon fill="none" stroke="black" points="143,-7 143,-39 208,-39 208,-7 143,-7"/>
<text text-anchor="start" x="146" y="-16.8" font-family="ambrosia" font-size="24.00">line4</text>
<polygon fill="none" stroke="black" points="210,-7 210,-39 281,-39 281,-7 210,-7"/>
<text text-anchor="start" x="213" y="-19.3" font-family="Times,serif" font-size="14.00" fill="green">Mixed</text>
<text text-anchor="start" x="250" y="-19.3" font-family="Times,serif" font-size="14.00" fill="red">fonts</text>
<polygon fill="none" stroke="black" points="8,-4 8,-42 284,-42 284,-4 8,-4"/>
</g>
</g>
</svg>
