<?xml version="1.0" encoding="UTF-8" standalone="no"?>
<!DOCTYPE svg PUBLIC "-//W3C//DTD SVG 1.1//EN"
 "http://www.w3.org/Graphics/SVG/1.1/DTD/svg11.dtd">
<!-- Generated by graphviz version 2.38.0 (20140413.2041)
 -->
<!-- Title: structs Pages: 1 -->
<svg width="242pt" height="163pt"
 viewBox="0.00 0.00 242.00 163.00" xmlns="http://www.w3.org/2000/svg" xmlns:xlink="http://www.w3.org/1999/xlink">
<g id="graph0" class="graph" transform="scale(1 1) rotate(0) translate(4 159)">
<title>structs</title>
<polygon fill="white" stroke="none" points="-4,4 -4,-159 238,-159 238,4 -4,4"/>
<!-- struct1 -->
<g id="node1" class="node"><title>struct1</title>
<polygon fill="none" stroke="black" points="25,-126 25,-147 50,-147 50,-126 25,-126"/>
<text text-anchor="start" x="28" y="-132.8" font-family="Times,serif" font-size="14.00">left</text>
<polygon fill="none" stroke="black" points="50,-126 50,-147 99,-147 99,-126 50,-126"/>
<text text-anchor="start" x="53" y="-132.8" font-family="Times,serif" font-size="14.00">mid dle</text>
<polygon fill="none" stroke="black" points="99,-126 99,-147 131,-147 131,-126 99,-126"/>
<text text-anchor="start" x="102" y="-132.8" font-family="Times,serif" font-size="14.00">right</text>
</g>
<!-- struct2 -->
<g id="node2" class="node"><title>struct2</title>
<polygon fill="none" stroke="black" points="10,-30.5 10,-51.5 36,-51.5 36,-30.5 10,-30.5"/>
<text text-anchor="start" x="13" y="-37.3" font-family="Times,serif" font-size="14.00">one</text>
<polygon fill="none" stroke="black" points="36,-30.5 36,-51.5 63,-51.5 63,-30.5 36,-30.5"/>
<text text-anchor="start" x="39" y="-37.3" font-family="Times,serif" font-size="14.00">two</text>
</g>
<!-- struct1&#45;&gt;struct2 -->
<g id="edge1" class="edge"><title>struct1:f1&#45;&gt;struct2:f0</title>
<path fill="none" stroke="black" d="M74,-125C74,-89.2973 32.1143,-91.1178 24.2607,-62.4508"/>
<polygon fill="black" stroke="black" points="27.7292,-61.9808 23,-52.5 20.7847,-62.8606 27.7292,-61.9808"/>
</g>
<!-- struct3 -->
<g id="node3" class="node"><title>struct3</title>
<polygon fill="none" stroke="black" points="99,-3.5 99,-78.5 141,-78.5 141,-3.5 99,-3.5"/>
<text text-anchor="start" x="106" y="-44.8" font-family="Times,serif" font-size="14.00">hello</text>
<text text-anchor="start" x="104" y="-29.8" font-family="Times,serif" font-size="14.00">world</text>
<polygon fill="none" stroke="black" points="141,-53.5 141,-78.5 192,-78.5 192,-53.5 141,-53.5"/>
<text text-anchor="start" x="163" y="-62.3" font-family="Times,serif" font-size="14.00">b</text>
<polygon fill="none" stroke="black" points="192,-3.5 192,-78.5 209,-78.5 209,-3.5 192,-3.5"/>
<text text-anchor="start" x="197" y="-37.3" font-family="Times,serif" font-size="14.00">g</text>
<polygon fill="none" stroke="black" points="209,-3.5 209,-78.5 226,-78.5 226,-3.5 209,-3.5"/>
<text text-anchor="start" x="214" y="-37.3" font-family="Times,serif" font-size="14.00">h</text>
<polygon fill="none" stroke="black" points="141,-28.5 141,-53.5 158,-53.5 158,-28.5 141,-28.5"/>
<text text-anchor="start" x="146" y="-37.3" font-family="Times,serif" font-size="14.00">c</text>
<polygon fill="none" stroke="black" points="158,-28.5 158,-53.5 175,-53.5 175,-28.5 158,-28.5"/>
<text text-anchor="start" x="163" y="-37.3" font-family="Times,serif" font-size="14.00">d</text>
<polygon fill="none" stroke="black" points="175,-28.5 175,-53.5 192,-53.5 192,-28.5 175,-28.5"/>
<text text-anchor="start" x="180" y="-37.3" font-family="Times,serif" font-size="14.00">e</text>
<polygon fill="none" stroke="black" points="141,-3.5 141,-28.5 192,-28.5 192,-3.5 141,-3.5"/>
<text text-anchor="start" x="164" y="-12.3" font-family="Times,serif" font-size="14.00">f</text>
</g>
<!-- struct1&#45;&gt;struct3 -->
<g id="edge2" class="edge"><title>struct1:f2&#45;&gt;struct3:here</title>
<path fill="none" stroke="black" d="M115,-125C115,-97.6596 135.336,-71.8593 150.574,-56.3652"/>
<polygon fill="black" stroke="black" points="153.181,-58.7132 157.942,-49.2487 148.318,-53.6781 153.181,-58.7132"/>
</g>
</g>
</svg>
