<?xml version="1.0" encoding="UTF-8" standalone="no"?>
<!DOCTYPE svg PUBLIC "-//W3C//DTD SVG 1.1//EN"
 "http://www.w3.org/Graphics/SVG/1.1/DTD/svg11.dtd">
<!-- Generated by graphviz version 2.38.0 (20140413.2041)
 -->
<!-- Title: G Pages: 1 -->
<svg width="465pt" height="283pt"
 viewBox="0.00 0.00 465.44 283.00" xmlns="http://www.w3.org/2000/svg" xmlns:xlink="http://www.w3.org/1999/xlink">
<g id="graph0" class="graph" transform="scale(1 1) rotate(0) translate(4 279)">
<title>G</title>
<polygon fill="white" stroke="none" points="-4,4 -4,-279 461.439,-279 461.439,4 -4,4"/>
<text text-anchor="middle" x="228.719" y="-7.8" font-family="Times,serif" font-size="14.00">下駄配列の派生図</text>
<!-- getas -->
<g id="node1" class="node"><title>getas</title>
<ellipse fill="none" stroke="black" cx="189.195" cy="-257" rx="48.1917" ry="18"/>
<text text-anchor="middle" x="189.195" y="-253.3" font-family="Times,serif" font-size="14.00">下駄配列</text>
</g>
<!-- new_getas -->
<g id="node2" class="node"><title>new_getas</title>
<ellipse fill="none" stroke="black" cx="57.1949" cy="-185" rx="57.3905" ry="18"/>
<text text-anchor="middle" x="57.1949" y="-181.3" font-family="Times,serif" font-size="14.00">新下駄配列</text>
</g>
<!-- getas&#45;&gt;new_getas -->
<g id="edge1" class="edge"><title>getas&#45;&gt;new_getas</title>
<path fill="none" stroke="black" d="M162.483,-241.834C142.84,-231.418 115.896,-217.129 94.183,-205.615"/>
<polygon fill="black" stroke="black" points="95.7086,-202.462 85.2341,-200.869 92.429,-208.646 95.7086,-202.462"/>
</g>
<!-- getas_in_fine_weather -->
<g id="node3" class="node"><title>getas_in_fine_weather</title>
<ellipse fill="none" stroke="black" cx="126.195" cy="-41" rx="66.0889" ry="18"/>
<text text-anchor="middle" x="126.195" y="-37.3" font-family="Times,serif" font-size="14.00">日和下駄配列</text>
</g>
<!-- getas&#45;&gt;getas_in_fine_weather -->
<g id="edge2" class="edge"><title>getas&#45;&gt;getas_in_fine_weather</title>
<path fill="none" stroke="black" d="M178.895,-239.357C172.982,-229.177 165.834,-215.708 161.195,-203 144.626,-157.616 134.685,-102.033 129.838,-69.4657"/>
<polygon fill="black" stroke="black" points="133.272,-68.7534 128.388,-59.3516 126.343,-69.7472 133.272,-68.7534"/>
</g>
<!-- lacquered_getas -->
<g id="node6" class="node"><title>lacquered_getas</title>
<ellipse fill="none" stroke="black" cx="236.195" cy="-185" rx="66.0889" ry="18"/>
<text text-anchor="middle" x="236.195" y="-181.3" font-family="Times,serif" font-size="14.00">塗り下駄配列</text>
</g>
<!-- getas&#45;&gt;lacquered_getas -->
<g id="edge3" class="edge"><title>getas&#45;&gt;lacquered_getas</title>
<path fill="none" stroke="black" d="M200.333,-239.411C205.929,-231.077 212.831,-220.797 219.081,-211.488"/>
<polygon fill="black" stroke="black" points="222.141,-213.209 224.81,-202.956 216.33,-209.307 222.141,-213.209"/>
</g>
<!-- new_JIS_getas -->
<g id="node7" class="node"><title>new_JIS_getas</title>
<ellipse fill="none" stroke="black" cx="389.195" cy="-185" rx="68.4888" ry="18"/>
<text text-anchor="middle" x="389.195" y="-181.3" font-family="Times,serif" font-size="14.00">新JIS下駄配列</text>
</g>
<!-- getas&#45;&gt;new_JIS_getas -->
<g id="edge4" class="edge"><title>getas&#45;&gt;new_JIS_getas</title>
<path fill="none" stroke="black" d="M223.122,-244.125C255.211,-232.894 303.73,-215.913 340.051,-203.2"/>
<polygon fill="black" stroke="black" points="341.666,-206.344 349.948,-199.736 339.353,-199.737 341.666,-206.344"/>
</g>
<!-- black_lacquered_getas -->
<g id="node4" class="node"><title>black_lacquered_getas</title>
<ellipse fill="none" stroke="black" cx="278.195" cy="-113" rx="75.2868" ry="18"/>
<text text-anchor="middle" x="278.195" y="-109.3" font-family="Times,serif" font-size="14.00">黒塗り下駄配列</text>
</g>
<!-- black_lacquered_getas&#45;&gt;getas_in_fine_weather -->
<g id="edge8" class="edge"><title>black_lacquered_getas&#45;&gt;getas_in_fine_weather</title>
<path fill="none" stroke="black" stroke-dasharray="1,5" d="M245.213,-96.811C222.474,-86.3391 192.074,-72.3393 167.69,-61.1098"/>
<polygon fill="black" stroke="black" points="168.877,-57.803 158.33,-56.7991 165.949,-64.1612 168.877,-57.803"/>
</g>
<!-- black_lacquered_getas_made_of_paulownia -->
<g id="node5" class="node"><title>black_lacquered_getas_made_of_paulownia</title>
<ellipse fill="none" stroke="black" cx="295.195" cy="-41" rx="85.2851" ry="18"/>
<text text-anchor="middle" x="295.195" y="-37.3" font-family="Times,serif" font-size="14.00">黒塗り桐下駄配列</text>
</g>
<!-- black_lacquered_getas&#45;&gt;black_lacquered_getas_made_of_paulownia -->
<g id="edge6" class="edge"><title>black_lacquered_getas&#45;&gt;black_lacquered_getas_made_of_paulownia</title>
<path fill="none" stroke="black" d="M276.481,-94.6966C277.571,-86.8979 279.629,-77.5085 282.095,-68.8292"/>
<polygon fill="black" stroke="black" points="285.492,-69.6935 285.146,-59.1043 278.813,-67.5983 285.492,-69.6935"/>
</g>
<!-- black_lacquered_getas_made_of_paulownia&#45;&gt;black_lacquered_getas -->
<g id="edge7" class="edge"><title>black_lacquered_getas_made_of_paulownia&#45;&gt;black_lacquered_getas</title>
<path fill="none" stroke="black" d="M296.912,-59.2753C295.819,-67.1152 293.745,-76.5671 291.26,-85.2901"/>
<polygon fill="black" stroke="black" points="287.851,-84.4655 288.188,-95.055 294.528,-86.5662 287.851,-84.4655"/>
</g>
<!-- lacquered_getas&#45;&gt;black_lacquered_getas -->
<g id="edge5" class="edge"><title>lacquered_getas&#45;&gt;black_lacquered_getas</title>
<path fill="none" stroke="black" d="M246.362,-167.055C251.242,-158.922 257.196,-148.998 262.629,-139.943"/>
<polygon fill="black" stroke="black" points="265.686,-141.651 267.83,-131.275 259.684,-138.049 265.686,-141.651"/>
</g>
</g>
</svg>
