<?xml version="1.0" encoding="UTF-8" standalone="no"?>
<!DOCTYPE svg PUBLIC "-//W3C//DTD SVG 1.1//EN"
 "http://www.w3.org/Graphics/SVG/1.1/DTD/svg11.dtd">
<!-- Generated by graphviz version 2.38.0 (20140413.2041)
 -->
<!-- Title: prof Pages: 1 -->
<svg width="431pt" height="288pt"
 viewBox="0.00 0.00 431.29 288.00" xmlns="http://www.w3.org/2000/svg" xmlns:xlink="http://www.w3.org/1999/xlink">
<g id="graph0" class="graph" transform="scale(0.216867 0.216867) rotate(0) translate(4 1324)">
<title>prof</title>
<polygon fill="white" stroke="none" points="-4,4 -4,-1324 1984.74,-1324 1984.74,4 -4,4"/>
<!-- start -->
<g id="node1" class="node"><title>start</title>
<ellipse fill="lightgrey" stroke="black" cx="1135.5" cy="-1281" rx="27" ry="18"/>
<text text-anchor="middle" x="1135.5" y="-1277.3" font-family="Times,serif" font-size="14.00">start</text>
</g>
<!-- main -->
<g id="node2" class="node"><title>main</title>
<ellipse fill="#ccd1ff" stroke="#ccd1ff" cx="963.497" cy="-971" rx="28.6953" ry="18"/>
<text text-anchor="middle" x="963.497" y="-967.3" font-family="Times,serif" font-size="14.00">main</text>
</g>
<!-- start&#45;&gt;main -->
<g id="edge1" class="edge"><title>start&#45;&gt;main</title>
<path fill="none" stroke="#fe0300" d="M1126.49,-1263.87C1098.34,-1213.47 1011.87,-1058.61 977.647,-997.338"/>
<polygon fill="#fe0300" stroke="#fe0300" points="980.552,-995.362 972.621,-988.338 974.441,-998.775 980.552,-995.362"/>
</g>
<!-- on_exit -->
<g id="node3" class="node"><title>on_exit</title>
<ellipse fill="#ccd1ff" stroke="#ccd1ff" cx="1462.5" cy="-1126" rx="37.0935" ry="18"/>
<text text-anchor="middle" x="1462.5" y="-1122.3" font-family="Times,serif" font-size="14.00">on_exit</text>
</g>
<!-- start&#45;&gt;on_exit -->
<g id="edge2" class="edge"><title>start&#45;&gt;on_exit</title>
<path fill="none" stroke="#3542b2" d="M1156.95,-1269.96C1212.07,-1244.17 1359.06,-1175.39 1427.07,-1143.57"/>
<polygon fill="#3542b2" stroke="#3542b2" points="1428.94,-1146.57 1436.51,-1139.16 1425.97,-1140.23 1428.94,-1146.57"/>
</g>
<!-- sort -->
<g id="node4" class="node"><title>sort</title>
<ellipse fill="#80ffb8" stroke="#80ffb8" cx="333.497" cy="-815" rx="27" ry="18"/>
<text text-anchor="middle" x="333.497" y="-811.3" font-family="Times,serif" font-size="14.00">sort</text>
</g>
<!-- main&#45;&gt;sort -->
<g id="edge3" class="edge"><title>main&#45;&gt;sort</title>
<path fill="none" stroke="#22d532" d="M936.059,-965.282C851.272,-950.351 586.405,-901.066 374.497,-833 371.342,-831.987 368.091,-830.834 364.864,-829.618"/>
<polygon fill="#22d532" stroke="#22d532" points="365.964,-826.289 355.378,-825.852 363.381,-832.795 365.964,-826.289"/>
</g>
<!-- merge -->
<g id="node5" class="node"><title>merge</title>
<ellipse fill="#bdd6ff" stroke="#bdd6ff" cx="449.497" cy="-815" rx="33.2948" ry="18"/>
<text text-anchor="middle" x="449.497" y="-811.3" font-family="Times,serif" font-size="14.00">merge</text>
</g>
<!-- main&#45;&gt;merge -->
<g id="edge4" class="edge"><title>main&#45;&gt;merge</title>
<path fill="none" stroke="#2eb4c2" d="M938.008,-962.363C854.285,-937.279 587.401,-857.318 487.622,-827.423"/>
<polygon fill="#2eb4c2" stroke="#2eb4c2" points="488.531,-824.041 477.947,-824.524 486.522,-830.747 488.531,-824.041"/>
</g>
<!-- term -->
<g id="node6" class="node"><title>term</title>
<ellipse fill="#ccd1ff" stroke="#ccd1ff" cx="823.497" cy="-815" rx="27.0966" ry="18"/>
<text text-anchor="middle" x="823.497" y="-811.3" font-family="Times,serif" font-size="14.00">term</text>
</g>
<!-- main&#45;&gt;term -->
<g id="edge5" class="edge"><title>main&#45;&gt;term</title>
<path fill="none" stroke="#3544b3" d="M949.818,-954.953C925.081,-927.743 872.797,-870.229 843.851,-838.389"/>
<polygon fill="#3544b3" stroke="#3544b3" points="846.342,-835.926 837.025,-830.881 841.162,-840.635 846.342,-835.926"/>
</g>
<!-- signal -->
<g id="node7" class="node"><title>signal</title>
<ellipse fill="#cad1ff" stroke="#cad1ff" cx="1141.5" cy="-660" rx="31.6951" ry="18"/>
<text text-anchor="middle" x="1141.5" y="-656.3" font-family="Times,serif" font-size="14.00">signal</text>
</g>
<!-- main&#45;&gt;signal -->
<g id="edge6" class="edge"><title>main&#45;&gt;signal</title>
<path fill="none" stroke="#3542b2" d="M991.271,-966.054C1050,-956.046 1186,-923.685 1242.5,-833 1276.33,-778.694 1208.71,-713.178 1168.46,-680.925"/>
<polygon fill="#3542b2" stroke="#3542b2" points="1170.61,-678.158 1160.57,-674.747 1166.29,-683.669 1170.61,-678.158"/>
</g>
<!-- sbrk -->
<g id="node8" class="node"><title>sbrk</title>
<ellipse fill="#cad1ff" stroke="#cad1ff" cx="1621.5" cy="-194" rx="27" ry="18"/>
<text text-anchor="middle" x="1621.5" y="-190.3" font-family="Times,serif" font-size="14.00">sbrk</text>
</g>
<!-- main&#45;&gt;sbrk -->
<g id="edge7" class="edge"><title>main&#45;&gt;sbrk</title>
<path fill="none" stroke="#3542b2" d="M991.648,-967.766C1099.16,-958.627 1481.66,-920.351 1558.5,-833 1639.7,-740.691 1627.67,-332.598 1622.85,-222.467"/>
<polygon fill="#3542b2" stroke="#3542b2" points="1626.33,-222.03 1622.38,-212.199 1619.34,-222.348 1626.33,-222.03"/>
</g>
<!-- unlink -->
<g id="node9" class="node"><title>unlink</title>
<ellipse fill="#c5d2ff" stroke="#c5d2ff" cx="817.497" cy="-660" rx="33.2948" ry="18"/>
<text text-anchor="middle" x="817.497" y="-656.3" font-family="Times,serif" font-size="14.00">unlink</text>
</g>
<!-- main&#45;&gt;unlink -->
<g id="edge8" class="edge"><title>main&#45;&gt;unlink</title>
<path fill="none" stroke="#3542b2" d="M936.678,-964.539C883.226,-952.044 764.364,-915.822 715.497,-833 683.051,-778.008 749.872,-713.255 790.074,-681.151"/>
<polygon fill="#3542b2" stroke="#3542b2" points="792.47,-683.72 798.203,-674.811 788.165,-678.2 792.47,-683.72"/>
</g>
<!-- newfile -->
<g id="node10" class="node"><title>newfile</title>
<ellipse fill="#ccd1ff" stroke="#ccd1ff" cx="691.497" cy="-660" rx="37.0935" ry="18"/>
<text text-anchor="middle" x="691.497" y="-656.3" font-family="Times,serif" font-size="14.00">newfile</text>
</g>
<!-- main&#45;&gt;newfile -->
<g id="edge9" class="edge"><title>main&#45;&gt;newfile</title>
<path fill="none" stroke="#3542b2" d="M936.346,-964.756C881.505,-952.575 758.113,-916.772 703.497,-833 674.829,-789.028 679.806,-724.591 685.785,-688.359"/>
<polygon fill="#3542b2" stroke="#3542b2" points="689.31,-688.536 687.637,-678.074 682.42,-687.295 689.31,-688.536"/>
</g>
<!-- fclose -->
<g id="node11" class="node"><title>fclose</title>
<ellipse fill="#ccd1ff" stroke="#ccd1ff" cx="342.497" cy="-660" rx="31.6951" ry="18"/>
<text text-anchor="middle" x="342.497" y="-656.3" font-family="Times,serif" font-size="14.00">fclose</text>
</g>
<!-- main&#45;&gt;fclose -->
<g id="edge10" class="edge"><title>main&#45;&gt;fclose</title>
<path fill="none" stroke="#3542b2" d="M935.741,-966.593C834.753,-953.693 488.568,-904.902 407.497,-833 364.893,-795.214 350.102,-726.569 345.05,-688.421"/>
<polygon fill="#3542b2" stroke="#3542b2" points="348.476,-687.592 343.821,-678.074 341.525,-688.417 348.476,-687.592"/>
</g>
<!-- close -->
<g id="node12" class="node"><title>close</title>
<ellipse fill="#ccd1ff" stroke="#ccd1ff" cx="595.497" cy="-505" rx="28.6953" ry="18"/>
<text text-anchor="middle" x="595.497" y="-501.3" font-family="Times,serif" font-size="14.00">close</text>
</g>
<!-- main&#45;&gt;close -->
<g id="edge11" class="edge"><title>main&#45;&gt;close</title>
<path fill="none" stroke="#3542b2" d="M936.766,-964.542C881.251,-951.787 753.03,-914.7 685.497,-833 646.861,-786.259 612.133,-603.035 600.037,-533.22"/>
<polygon fill="#3542b2" stroke="#3542b2" points="603.43,-532.293 598.293,-523.027 596.53,-533.474 603.43,-532.293"/>
</g>
<!-- brk -->
<g id="node13" class="node"><title>brk</title>
<ellipse fill="#ccd1ff" stroke="#ccd1ff" cx="751.497" cy="-815" rx="27" ry="18"/>
<text text-anchor="middle" x="751.497" y="-811.3" font-family="Times,serif" font-size="14.00">brk</text>
</g>
<!-- main&#45;&gt;brk -->
<g id="edge12" class="edge"><title>main&#45;&gt;brk</title>
<path fill="none" stroke="#3542b2" d="M945.422,-956.87C907.779,-929.525 820.865,-866.39 777.329,-834.764"/>
<polygon fill="#3542b2" stroke="#3542b2" points="779.375,-831.925 769.227,-828.88 775.261,-837.588 779.375,-831.925"/>
</g>
<!-- setbuf -->
<g id="node14" class="node"><title>setbuf</title>
<ellipse fill="#ccd1ff" stroke="#ccd1ff" cx="32.4971" cy="-660" rx="32.4942" ry="18"/>
<text text-anchor="middle" x="32.4971" y="-656.3" font-family="Times,serif" font-size="14.00">setbuf</text>
</g>
<!-- main&#45;&gt;setbuf -->
<g id="edge13" class="edge"><title>main&#45;&gt;setbuf</title>
<path fill="none" stroke="#3542b2" d="M935.134,-967.943C841.022,-960.34 531.76,-929.102 297.497,-833 201.438,-793.594 102.542,-718.418 57.5286,-681.919"/>
<polygon fill="#3542b2" stroke="#3542b2" points="59.469,-678.985 49.512,-675.364 55.0379,-684.404 59.469,-678.985"/>
</g>
<!-- copyproto -->
<g id="node15" class="node"><title>copyproto</title>
<ellipse fill="#ccd1ff" stroke="#ccd1ff" cx="914.497" cy="-815" rx="46.2923" ry="18"/>
<text text-anchor="middle" x="914.497" y="-811.3" font-family="Times,serif" font-size="14.00">copyproto</text>
</g>
<!-- main&#45;&gt;copyproto -->
<g id="edge14" class="edge"><title>main&#45;&gt;copyproto</title>
<path fill="none" stroke="#3542b2" d="M958.16,-953.226C949.7,-926.636 933.134,-874.573 923.017,-842.777"/>
<polygon fill="#3542b2" stroke="#3542b2" points="926.345,-841.691 919.977,-833.223 919.674,-843.814 926.345,-841.691"/>
</g>
<!-- initree -->
<g id="node16" class="node"><title>initree</title>
<ellipse fill="#ccd1ff" stroke="#ccd1ff" cx="1011.5" cy="-815" rx="33.2948" ry="18"/>
<text text-anchor="middle" x="1011.5" y="-811.3" font-family="Times,serif" font-size="14.00">initree</text>
</g>
<!-- main&#45;&gt;initree -->
<g id="edge15" class="edge"><title>main&#45;&gt;initree</title>
<path fill="none" stroke="#3542b2" d="M968.725,-953.226C977.013,-926.636 993.241,-874.573 1003.15,-842.777"/>
<polygon fill="#3542b2" stroke="#3542b2" points="1006.49,-843.812 1006.13,-833.223 999.812,-841.729 1006.49,-843.812"/>
</g>
<!-- safeoutfil -->
<g id="node17" class="node"><title>safeoutfil</title>
<ellipse fill="#ccd1ff" stroke="#ccd1ff" cx="1106.5" cy="-815" rx="44.393" ry="18"/>
<text text-anchor="middle" x="1106.5" y="-811.3" font-family="Times,serif" font-size="14.00">safeoutfil</text>
</g>
<!-- main&#45;&gt;safeoutfil -->
<g id="edge16" class="edge"><title>main&#45;&gt;safeoutfil</title>
<path fill="none" stroke="#3542b2" d="M977.469,-954.953C1002.35,-928.161 1054.5,-871.992 1084.33,-839.876"/>
<polygon fill="#3542b2" stroke="#3542b2" points="1087.16,-841.972 1091.4,-832.262 1082.03,-837.209 1087.16,-841.972"/>
</g>
<!-- getpid -->
<g id="node18" class="node"><title>getpid</title>
<ellipse fill="#ccd1ff" stroke="#ccd1ff" cx="1201.5" cy="-815" rx="32.4942" ry="18"/>
<text text-anchor="middle" x="1201.5" y="-811.3" font-family="Times,serif" font-size="14.00">getpid</text>
</g>
<!-- main&#45;&gt;getpid -->
<g id="edge17" class="edge"><title>main&#45;&gt;getpid</title>
<path fill="none" stroke="#3542b2" d="M982.974,-957.398C1024.78,-930.347 1123.29,-866.601 1172.49,-834.769"/>
<polygon fill="#3542b2" stroke="#3542b2" points="1174.58,-837.584 1181.08,-829.213 1170.78,-831.707 1174.58,-837.584"/>
</g>
<!-- sprintf -->
<g id="node19" class="node"><title>sprintf</title>
<ellipse fill="#ccd1ff" stroke="#ccd1ff" cx="1397.5" cy="-815" rx="33.5952" ry="18"/>
<text text-anchor="middle" x="1397.5" y="-811.3" font-family="Times,serif" font-size="14.00">sprintf</text>
</g>
<!-- main&#45;&gt;sprintf -->
<g id="edge18" class="edge"><title>main&#45;&gt;sprintf</title>
<path fill="none" stroke="#3542b2" d="M988.322,-961.682C1050.35,-940.814 1217,-884.244 1354.5,-833 1356.87,-832.117 1359.3,-831.194 1361.76,-830.254"/>
<polygon fill="#3542b2" stroke="#3542b2" points="1363.13,-833.476 1371.18,-826.594 1360.59,-826.951 1363.13,-833.476"/>
</g>
<!-- creat -->
<g id="node20" class="node"><title>creat</title>
<ellipse fill="#ccd1ff" stroke="#ccd1ff" cx="1317.5" cy="-815" rx="27.8951" ry="18"/>
<text text-anchor="middle" x="1317.5" y="-811.3" font-family="Times,serif" font-size="14.00">creat</text>
</g>
<!-- main&#45;&gt;creat -->
<g id="edge19" class="edge"><title>main&#45;&gt;creat</title>
<path fill="none" stroke="#3542b2" d="M986.451,-960.014C1047.76,-933.342 1215.47,-860.386 1285.8,-829.791"/>
<polygon fill="#3542b2" stroke="#3542b2" points="1287.28,-832.963 1295.05,-825.764 1284.49,-826.544 1287.28,-832.963"/>
</g>
<!-- rem -->
<g id="node21" class="node"><title>rem</title>
<ellipse fill="#ccd1ff" stroke="#ccd1ff" cx="1046.5" cy="-349" rx="27" ry="18"/>
<text text-anchor="middle" x="1046.5" y="-345.3" font-family="Times,serif" font-size="14.00">rem</text>
</g>
<!-- main&#45;&gt;rem -->
<g id="edge20" class="edge"><title>main&#45;&gt;rem</title>
<path fill="none" stroke="#3542b2" d="M991.829,-967.605C1096.46,-958.119 1458.59,-919.411 1526.5,-833 1558.95,-791.703 1691.58,-744.84 1454.5,-487 1336.91,-359.12 1244.04,-430.89 1082.5,-367 1080.67,-366.276 1078.8,-365.502 1076.92,-364.698"/>
<polygon fill="#3542b2" stroke="#3542b2" points="1078.17,-361.426 1067.62,-360.529 1075.31,-367.814 1078.17,-361.426"/>
</g>
<!-- oldfile -->
<g id="node22" class="node"><title>oldfile</title>
<ellipse fill="#ccd1ff" stroke="#ccd1ff" cx="1483.5" cy="-815" rx="33.5952" ry="18"/>
<text text-anchor="middle" x="1483.5" y="-811.3" font-family="Times,serif" font-size="14.00">oldfile</text>
</g>
<!-- main&#45;&gt;oldfile -->
<g id="edge21" class="edge"><title>main&#45;&gt;oldfile</title>
<path fill="none" stroke="#3542b2" d="M989.624,-963.448C1061.98,-945.097 1270.84,-890.749 1440.5,-833 1443.05,-832.133 1445.66,-831.201 1448.29,-830.236"/>
<polygon fill="#3542b2" stroke="#3542b2" points="1449.62,-833.476 1457.73,-826.657 1447.13,-826.931 1449.62,-833.476"/>
</g>
<!-- malloc -->
<g id="node44" class="node"><title>malloc</title>
<ellipse fill="#ccd1ff" stroke="#ccd1ff" cx="1657.5" cy="-971" rx="35.194" ry="18"/>
<text text-anchor="middle" x="1657.5" y="-967.3" font-family="Times,serif" font-size="14.00">malloc</text>
</g>
<!-- on_exit&#45;&gt;malloc -->
<g id="edge71" class="edge"><title>on_exit&#45;&gt;malloc</title>
<path fill="none" stroke="#29d820" d="M1481.19,-1110.33C1516.08,-1082.96 1591.17,-1024.04 1631.17,-992.66"/>
<polygon fill="#29d820" stroke="#29d820" points="1633.43,-995.329 1639.14,-986.402 1629.11,-989.822 1633.43,-995.329"/>
</g>
<!-- sort&#45;&gt;newfile -->
<g id="edge24" class="edge"><title>sort&#45;&gt;newfile</title>
<path fill="none" stroke="#3542b2" d="M355.621,-804.545C415.438,-778.98 580.84,-708.292 654.86,-676.658"/>
<polygon fill="#3542b2" stroke="#3542b2" points="656.439,-679.789 664.259,-672.641 653.688,-673.352 656.439,-679.789"/>
</g>
<!-- sort&#45;&gt;fclose -->
<g id="edge25" class="edge"><title>sort&#45;&gt;fclose</title>
<path fill="none" stroke="#3542b2" d="M334.512,-796.746C336.058,-770.461 339.019,-720.13 340.868,-688.688"/>
<polygon fill="#3542b2" stroke="#3542b2" points="344.379,-688.614 341.472,-678.425 337.391,-688.203 344.379,-688.614"/>
</g>
<!-- sort&#45;&gt;setbuf -->
<g id="edge26" class="edge"><title>sort&#45;&gt;setbuf</title>
<path fill="none" stroke="#3542b2" d="M312.331,-803.241C260.4,-776.844 126.425,-708.744 64.6141,-677.325"/>
<polygon fill="#3542b2" stroke="#3542b2" points="66.1867,-674.198 55.6863,-672.787 63.0148,-680.439 66.1867,-674.198"/>
</g>
<!-- msort -->
<g id="node23" class="node"><title>msort</title>
<ellipse fill="#b9d9ff" stroke="#b9d9ff" cx="261.497" cy="-660" rx="31.3957" ry="18"/>
<text text-anchor="middle" x="261.497" y="-656.3" font-family="Times,serif" font-size="14.00">msort</text>
</g>
<!-- sort&#45;&gt;msort -->
<g id="edge22" class="edge"><title>sort&#45;&gt;msort</title>
<path fill="none" stroke="#3459b6" d="M325.792,-797.626C313.299,-771.079 288.525,-718.433 273.642,-686.808"/>
<polygon fill="#3459b6" stroke="#3459b6" points="276.79,-685.278 269.365,-677.72 270.456,-688.258 276.79,-685.278"/>
</g>
<!-- filbuf -->
<g id="node24" class="node"><title>filbuf</title>
<ellipse fill="#c8d1ff" stroke="#c8d1ff" cx="99.4971" cy="-505" rx="30.5947" ry="18"/>
<text text-anchor="middle" x="99.4971" y="-501.3" font-family="Times,serif" font-size="14.00">filbuf</text>
</g>
<!-- sort&#45;&gt;filbuf -->
<g id="edge23" class="edge"><title>sort&#45;&gt;filbuf</title>
<path fill="none" stroke="#3542b2" d="M309.112,-807.237C261.557,-792.616 157.103,-753.157 111.497,-678 84.2664,-633.124 88.711,-569.022 94.2131,-533.09"/>
<polygon fill="#3542b2" stroke="#3542b2" points="97.7205,-533.336 95.9207,-522.896 90.8167,-532.18 97.7205,-533.336"/>
</g>
<!-- setfil -->
<g id="node25" class="node"><title>setfil</title>
<ellipse fill="#ccd1ff" stroke="#ccd1ff" cx="754.497" cy="-505" rx="28.6953" ry="18"/>
<text text-anchor="middle" x="754.497" y="-501.3" font-family="Times,serif" font-size="14.00">setfil</text>
</g>
<!-- sort&#45;&gt;setfil -->
<g id="edge27" class="edge"><title>sort&#45;&gt;setfil</title>
<path fill="none" stroke="#3542b2" d="M348.562,-799.794C381.281,-769.256 461.834,-695.769 535.497,-642 600.328,-594.677 681.803,-546.914 724.785,-522.551"/>
<polygon fill="#3542b2" stroke="#3542b2" points="726.614,-525.538 733.603,-517.576 723.174,-519.442 726.614,-525.538"/>
</g>
<!-- merge&#45;&gt;unlink -->
<g id="edge36" class="edge"><title>merge&#45;&gt;unlink</title>
<path fill="none" stroke="#3542b2" d="M475.082,-803.363C539.663,-776.513 709.345,-705.965 782.789,-675.43"/>
<polygon fill="#3542b2" stroke="#3542b2" points="784.192,-678.638 792.082,-671.567 781.504,-672.174 784.192,-678.638"/>
</g>
<!-- merge&#45;&gt;fclose -->
<g id="edge38" class="edge"><title>merge&#45;&gt;fclose</title>
<path fill="none" stroke="#3542b2" d="M438.248,-797.915C419.513,-771.126 381.799,-717.198 359.706,-685.606"/>
<polygon fill="#3542b2" stroke="#3542b2" points="362.516,-683.518 353.917,-677.329 356.78,-687.53 362.516,-683.518"/>
</g>
<!-- merge&#45;&gt;setbuf -->
<g id="edge41" class="edge"><title>merge&#45;&gt;setbuf</title>
<path fill="none" stroke="#3542b2" d="M422.778,-804.196C350.401,-777.641 150.503,-704.297 68.4056,-674.175"/>
<polygon fill="#3542b2" stroke="#3542b2" points="69.5878,-670.881 58.9942,-670.722 67.1766,-677.452 69.5878,-670.881"/>
</g>
<!-- merge&#45;&gt;setfil -->
<g id="edge39" class="edge"><title>merge&#45;&gt;setfil</title>
<path fill="none" stroke="#3542b2" d="M481.116,-809.36C542.166,-798.569 675.688,-765.674 737.497,-678 768.026,-634.697 764.529,-569.304 759.42,-532.893"/>
<polygon fill="#3542b2" stroke="#3542b2" points="762.878,-532.355 757.891,-523.007 755.96,-533.425 762.878,-532.355"/>
</g>
<!-- insert -->
<g id="node27" class="node"><title>insert</title>
<ellipse fill="#ccd1ff" stroke="#ccd1ff" cx="517.497" cy="-505" rx="30.5947" ry="18"/>
<text text-anchor="middle" x="517.497" y="-501.3" font-family="Times,serif" font-size="14.00">insert</text>
</g>
<!-- merge&#45;&gt;insert -->
<g id="edge33" class="edge"><title>merge&#45;&gt;insert</title>
<path fill="none" stroke="#3542b2" d="M449.393,-796.657C449.56,-765.342 451.553,-697.461 464.497,-642 473.782,-602.219 492.389,-558.611 504.896,-531.77"/>
<polygon fill="#3542b2" stroke="#3542b2" points="508.085,-533.214 509.2,-522.678 501.758,-530.219 508.085,-533.214"/>
</g>
<!-- wline -->
<g id="node28" class="node"><title>wline</title>
<ellipse fill="#d7ff3e" stroke="#d7ff3e" cx="184.497" cy="-505" rx="30.5947" ry="18"/>
<text text-anchor="middle" x="184.497" y="-501.3" font-family="Times,serif" font-size="14.00">wline</text>
</g>
<!-- merge&#45;&gt;wline -->
<g id="edge35" class="edge"><title>merge&#45;&gt;wline</title>
<path fill="none" stroke="#3542b2" d="M421.256,-805.473C372.354,-789.174 272.283,-748.775 221.497,-678 190.27,-634.483 184.463,-569.878 183.903,-533.494"/>
<polygon fill="#3542b2" stroke="#3542b2" points="187.402,-533.154 183.875,-523.164 180.402,-533.173 187.402,-533.154"/>
</g>
<!-- cmpsave -->
<g id="node30" class="node"><title>cmpsave</title>
<ellipse fill="#ccd1ff" stroke="#ccd1ff" cx="388.497" cy="-505" rx="42.4939" ry="18"/>
<text text-anchor="middle" x="388.497" y="-501.3" font-family="Times,serif" font-size="14.00">cmpsave</text>
</g>
<!-- merge&#45;&gt;cmpsave -->
<g id="edge42" class="edge"><title>merge&#45;&gt;cmpsave</title>
<path fill="none" stroke="#3542b2" d="M446.131,-797.002C436.07,-746.203 406.166,-595.214 393.87,-533.127"/>
<polygon fill="#3542b2" stroke="#3542b2" points="397.229,-532.075 391.853,-522.946 390.363,-533.435 397.229,-532.075"/>
</g>
<!-- rline -->
<g id="node31" class="node"><title>rline</title>
<ellipse fill="#6fff82" stroke="#6fff82" cx="147.497" cy="-660" rx="27" ry="18"/>
<text text-anchor="middle" x="147.497" y="-656.3" font-family="Times,serif" font-size="14.00">rline</text>
</g>
<!-- merge&#45;&gt;rline -->
<g id="edge34" class="edge"><title>merge&#45;&gt;rline</title>
<path fill="none" stroke="#3542b2" d="M425.8,-801.994C371.42,-774.444 237.744,-706.721 177.635,-676.269"/>
<polygon fill="#3542b2" stroke="#3542b2" points="179.145,-673.11 168.643,-671.713 175.982,-679.355 179.145,-673.11"/>
</g>
<!-- fopen -->
<g id="node32" class="node"><title>fopen</title>
<ellipse fill="#ccd1ff" stroke="#ccd1ff" cx="672.497" cy="-505" rx="30.5947" ry="18"/>
<text text-anchor="middle" x="672.497" y="-501.3" font-family="Times,serif" font-size="14.00">fopen</text>
</g>
<!-- merge&#45;&gt;fopen -->
<g id="edge37" class="edge"><title>merge&#45;&gt;fopen</title>
<path fill="none" stroke="#3542b2" d="M455.889,-796.862C468.334,-764.716 497.922,-693.932 535.497,-642 568.719,-596.085 617.828,-551.488 647.341,-526.501"/>
<polygon fill="#3542b2" stroke="#3542b2" points="649.697,-529.094 655.115,-519.989 645.202,-523.727 649.697,-529.094"/>
</g>
<!-- mul -->
<g id="node33" class="node"><title>mul</title>
<ellipse fill="#ccd1ff" stroke="#ccd1ff" cx="571.497" cy="-660" rx="27" ry="18"/>
<text text-anchor="middle" x="571.497" y="-656.3" font-family="Times,serif" font-size="14.00">mul</text>
</g>
<!-- merge&#45;&gt;mul -->
<g id="edge40" class="edge"><title>merge&#45;&gt;mul</title>
<path fill="none" stroke="#3542b2" d="M462.094,-798.203C483.666,-771.149 527.778,-715.828 552.9,-684.322"/>
<polygon fill="#3542b2" stroke="#3542b2" points="555.653,-686.484 559.151,-676.484 550.18,-682.12 555.653,-686.484"/>
</g>
<!-- term&#45;&gt;signal -->
<g id="edge51" class="edge"><title>term&#45;&gt;signal</title>
<path fill="none" stroke="#3542b2" d="M844.856,-803.724C899.296,-777.531 1043.54,-708.13 1108.71,-676.773"/>
<polygon fill="#3542b2" stroke="#3542b2" points="1110.61,-679.745 1118.1,-672.256 1107.57,-673.438 1110.61,-679.745"/>
</g>
<!-- term&#45;&gt;unlink -->
<g id="edge50" class="edge"><title>term&#45;&gt;unlink</title>
<path fill="none" stroke="#3542b2" d="M822.821,-796.746C821.79,-770.461 819.816,-720.13 818.583,-688.688"/>
<polygon fill="#3542b2" stroke="#3542b2" points="822.07,-688.28 818.18,-678.425 815.075,-688.555 822.07,-688.28"/>
</g>
<!-- term&#45;&gt;setfil -->
<g id="edge52" class="edge"><title>term&#45;&gt;setfil</title>
<path fill="none" stroke="#3542b2" d="M841.788,-801.577C880.047,-773.962 962.511,-704.941 931.497,-642 901.464,-581.048 829.536,-539.79 787.193,-519.843"/>
<polygon fill="#3542b2" stroke="#3542b2" points="788.419,-516.555 777.87,-515.57 785.503,-522.918 788.419,-516.555"/>
</g>
<!-- exit -->
<g id="node39" class="node"><title>exit</title>
<ellipse fill="#ccd1ff" stroke="#ccd1ff" cx="895.497" cy="-660" rx="27" ry="18"/>
<text text-anchor="middle" x="895.497" y="-656.3" font-family="Times,serif" font-size="14.00">exit</text>
</g>
<!-- term&#45;&gt;exit -->
<g id="edge53" class="edge"><title>term&#45;&gt;exit</title>
<path fill="none" stroke="#3542b2" d="M831.202,-797.626C843.695,-771.079 868.47,-718.433 883.352,-686.808"/>
<polygon fill="#3542b2" stroke="#3542b2" points="886.538,-688.258 887.629,-677.72 880.204,-685.278 886.538,-688.258"/>
</g>
<!-- sigvec -->
<g id="node53" class="node"><title>sigvec</title>
<ellipse fill="#ccd1ff" stroke="#ccd1ff" cx="1141.5" cy="-505" rx="33.2948" ry="18"/>
<text text-anchor="middle" x="1141.5" y="-501.3" font-family="Times,serif" font-size="14.00">sigvec</text>
</g>
<!-- signal&#45;&gt;sigvec -->
<g id="edge72" class="edge"><title>signal&#45;&gt;sigvec</title>
<path fill="none" stroke="#3542b2" d="M1141.5,-641.746C1141.5,-615.461 1141.5,-565.13 1141.5,-533.688"/>
<polygon fill="#3542b2" stroke="#3542b2" points="1145,-533.425 1141.5,-523.425 1138,-533.425 1145,-533.425"/>
</g>
<!-- newfile&#45;&gt;setfil -->
<g id="edge58" class="edge"><title>newfile&#45;&gt;setfil</title>
<path fill="none" stroke="#3542b2" d="M698.48,-642.042C709.465,-615.364 730.861,-563.403 743.796,-531.988"/>
<polygon fill="#3542b2" stroke="#3542b2" points="747.103,-533.149 747.675,-522.569 740.631,-530.483 747.103,-533.149"/>
</g>
<!-- newfile&#45;&gt;fopen -->
<g id="edge57" class="edge"><title>newfile&#45;&gt;fopen</title>
<path fill="none" stroke="#344db4" d="M689.355,-641.746C686.09,-615.461 679.84,-565.13 675.936,-533.688"/>
<polygon fill="#344db4" stroke="#344db4" points="679.367,-532.918 674.661,-523.425 672.42,-533.78 679.367,-532.918"/>
</g>
<!-- fclose&#45;&gt;close -->
<g id="edge60" class="edge"><title>fclose&#45;&gt;close</title>
<path fill="none" stroke="#3542b2" d="M363.633,-646.218C409.007,-618.779 515.773,-554.213 567.043,-523.208"/>
<polygon fill="#3542b2" stroke="#3542b2" points="568.906,-526.171 575.652,-518.001 565.284,-520.181 568.906,-526.171"/>
</g>
<!-- fflush -->
<g id="node43" class="node"><title>fflush</title>
<ellipse fill="#ccd1ff" stroke="#ccd1ff" cx="354.497" cy="-349" rx="31.3957" ry="18"/>
<text text-anchor="middle" x="354.497" y="-345.3" font-family="Times,serif" font-size="14.00">fflush</text>
</g>
<!-- fclose&#45;&gt;fflush -->
<g id="edge59" class="edge"><title>fclose&#45;&gt;fflush</title>
<path fill="none" stroke="#3547b3" d="M358.093,-644.08C381.168,-620.801 423.407,-573.27 439.497,-523 457.819,-465.759 408.596,-403.684 377.585,-371.733"/>
<polygon fill="#3547b3" stroke="#3547b3" points="380.06,-369.258 370.522,-364.647 375.102,-374.2 380.06,-369.258"/>
</g>
<!-- doprnt -->
<g id="node58" class="node"><title>doprnt</title>
<ellipse fill="#ccd1ff" stroke="#ccd1ff" cx="1397.5" cy="-660" rx="33.5952" ry="18"/>
<text text-anchor="middle" x="1397.5" y="-656.3" font-family="Times,serif" font-size="14.00">doprnt</text>
</g>
<!-- sprintf&#45;&gt;doprnt -->
<g id="edge85" class="edge"><title>sprintf&#45;&gt;doprnt</title>
<path fill="none" stroke="#3542b2" d="M1397.5,-796.746C1397.5,-770.461 1397.5,-720.13 1397.5,-688.688"/>
<polygon fill="#3542b2" stroke="#3542b2" points="1401,-688.425 1397.5,-678.425 1394,-688.425 1401,-688.425"/>
</g>
<!-- qsort -->
<g id="node26" class="node"><title>qsort</title>
<ellipse fill="#8dffdc" stroke="#8dffdc" cx="261.497" cy="-505" rx="28.6953" ry="18"/>
<text text-anchor="middle" x="261.497" y="-501.3" font-family="Times,serif" font-size="14.00">qsort</text>
</g>
<!-- msort&#45;&gt;qsort -->
<g id="edge28" class="edge"><title>msort&#45;&gt;qsort</title>
<path fill="none" stroke="#3542b2" d="M261.497,-641.746C261.497,-615.461 261.497,-565.13 261.497,-533.688"/>
<polygon fill="#3542b2" stroke="#3542b2" points="264.997,-533.425 261.497,-523.425 257.997,-533.425 264.997,-533.425"/>
</g>
<!-- msort&#45;&gt;insert -->
<g id="edge29" class="edge"><title>msort&#45;&gt;insert</title>
<path fill="none" stroke="#3542b2" d="M282.447,-646.479C327.845,-619.347 435.419,-555.055 487.804,-523.747"/>
<polygon fill="#3542b2" stroke="#3542b2" points="489.829,-526.614 496.617,-518.479 486.238,-520.605 489.829,-526.614"/>
</g>
<!-- msort&#45;&gt;wline -->
<g id="edge30" class="edge"><title>msort&#45;&gt;wline</title>
<path fill="none" stroke="#3542b2" d="M253.257,-642.626C239.896,-616.079 213.402,-563.433 197.485,-531.808"/>
<polygon fill="#3542b2" stroke="#3542b2" points="200.534,-530.079 192.912,-522.72 194.281,-533.226 200.534,-530.079"/>
</g>
<!-- div -->
<g id="node29" class="node"><title>div</title>
<ellipse fill="#ccd1ff" stroke="#ccd1ff" cx="753.497" cy="-349" rx="27" ry="18"/>
<text text-anchor="middle" x="753.497" y="-345.3" font-family="Times,serif" font-size="14.00">div</text>
</g>
<!-- msort&#45;&gt;div -->
<g id="edge31" class="edge"><title>msort&#45;&gt;div</title>
<path fill="none" stroke="#3542b2" d="M264.258,-641.855C270.701,-607.434 289.95,-529.576 337.497,-487 469.439,-368.851 552.6,-431.628 717.497,-367 719.331,-366.281 721.203,-365.512 723.082,-364.712"/>
<polygon fill="#3542b2" stroke="#3542b2" points="724.685,-367.829 732.386,-360.552 721.828,-361.438 724.685,-367.829"/>
</g>
<!-- msort&#45;&gt;cmpsave -->
<g id="edge32" class="edge"><title>msort&#45;&gt;cmpsave</title>
<path fill="none" stroke="#3542b2" d="M274.373,-643.488C296.487,-616.847 341.842,-562.206 368.23,-530.416"/>
<polygon fill="#3542b2" stroke="#3542b2" points="371.126,-532.407 374.82,-522.477 365.74,-527.936 371.126,-532.407"/>
</g>
<!-- read -->
<g id="node38" class="node"><title>read</title>
<ellipse fill="#b5dcff" stroke="#b5dcff" cx="99.4971" cy="-349" rx="27" ry="18"/>
<text text-anchor="middle" x="99.4971" y="-345.3" font-family="Times,serif" font-size="14.00">read</text>
</g>
<!-- filbuf&#45;&gt;read -->
<g id="edge49" class="edge"><title>filbuf&#45;&gt;read</title>
<path fill="none" stroke="#3542b2" d="M99.4971,-486.931C99.4971,-460.451 99.4971,-409.224 99.4971,-377.486"/>
<polygon fill="#3542b2" stroke="#3542b2" points="102.997,-377.146 99.4971,-367.146 95.9972,-377.146 102.997,-377.146"/>
</g>
<!-- setfil&#45;&gt;rem -->
<g id="edge78" class="edge"><title>setfil&#45;&gt;rem</title>
<path fill="none" stroke="#3542b2" d="M775.969,-492.676C827.37,-465.567 957.595,-396.887 1016.61,-365.762"/>
<polygon fill="#3542b2" stroke="#3542b2" points="1018.57,-368.688 1025.78,-360.927 1015.3,-362.496 1018.57,-368.688"/>
</g>
<!-- setfil&#45;&gt;div -->
<g id="edge77" class="edge"><title>setfil&#45;&gt;div</title>
<path fill="none" stroke="#3542b2" d="M754.386,-486.931C754.214,-460.451 753.882,-409.224 753.676,-377.486"/>
<polygon fill="#3542b2" stroke="#3542b2" points="757.173,-377.123 753.608,-367.146 750.174,-377.168 757.173,-377.123"/>
</g>
<!-- cmpa -->
<g id="node34" class="node"><title>cmpa</title>
<ellipse fill="#ff0000" stroke="#ff0000" cx="470.497" cy="-349" rx="30.5947" ry="18"/>
<text text-anchor="middle" x="470.497" y="-345.3" font-family="Times,serif" font-size="14.00">cmpa</text>
</g>
<!-- qsort&#45;&gt;cmpa -->
<g id="edge45" class="edge"><title>qsort&#45;&gt;cmpa</title>
<path fill="none" stroke="#3542b2" d="M279.316,-490.87C316.149,-463.73 400.832,-401.332 444.061,-369.48"/>
<polygon fill="#3542b2" stroke="#3542b2" points="446.153,-372.285 452.127,-363.536 442,-366.65 446.153,-372.285"/>
</g>
<!-- insert&#45;&gt;cmpa -->
<g id="edge43" class="edge"><title>insert&#45;&gt;cmpa</title>
<path fill="none" stroke="#3542b2" d="M512.378,-487.226C504.255,-460.612 488.343,-408.475 478.642,-376.687"/>
<polygon fill="#3542b2" stroke="#3542b2" points="481.877,-375.296 475.61,-366.753 475.182,-377.339 481.877,-375.296"/>
</g>
<!-- getfreehdr -->
<g id="node47" class="node"><title>getfreehdr</title>
<ellipse fill="#ccd1ff" stroke="#ccd1ff" cx="954.497" cy="-349" rx="46.5926" ry="18"/>
<text text-anchor="middle" x="954.497" y="-345.3" font-family="Times,serif" font-size="14.00">getfreehdr</text>
</g>
<!-- insert&#45;&gt;getfreehdr -->
<g id="edge76" class="edge"><title>insert&#45;&gt;getfreehdr</title>
<path fill="none" stroke="#3542b2" d="M541.5,-493.479C546.744,-491.27 552.285,-489.004 557.497,-487 683.917,-438.39 835.907,-388.19 909.791,-364.302"/>
<polygon fill="#3542b2" stroke="#3542b2" points="911.245,-367.511 919.687,-361.109 909.096,-360.849 911.245,-367.511"/>
</g>
<!-- flsbuf -->
<g id="node35" class="node"><title>flsbuf</title>
<ellipse fill="#ccd1ff" stroke="#ccd1ff" cx="202.497" cy="-349" rx="31.3957" ry="18"/>
<text text-anchor="middle" x="202.497" y="-345.3" font-family="Times,serif" font-size="14.00">flsbuf</text>
</g>
<!-- wline&#45;&gt;flsbuf -->
<g id="edge44" class="edge"><title>wline&#45;&gt;flsbuf</title>
<path fill="none" stroke="#3542b2" d="M186.492,-486.931C189.587,-460.451 195.575,-409.224 199.284,-377.486"/>
<polygon fill="#3542b2" stroke="#3542b2" points="202.808,-377.484 200.493,-367.146 195.856,-376.672 202.808,-377.484"/>
</g>
<!-- rline&#45;&gt;filbuf -->
<g id="edge46" class="edge"><title>rline&#45;&gt;filbuf</title>
<path fill="none" stroke="#3542b2" d="M142.269,-642.335C134.017,-616.032 117.894,-564.64 107.972,-533.014"/>
<polygon fill="#3542b2" stroke="#3542b2" points="111.198,-531.605 104.865,-523.111 104.519,-533.701 111.198,-531.605"/>
</g>
<!-- endopen -->
<g id="node40" class="node"><title>endopen</title>
<ellipse fill="#ccd1ff" stroke="#ccd1ff" cx="577.497" cy="-349" rx="40.0939" ry="18"/>
<text text-anchor="middle" x="577.497" y="-345.3" font-family="Times,serif" font-size="14.00">endopen</text>
</g>
<!-- fopen&#45;&gt;endopen -->
<g id="edge55" class="edge"><title>fopen&#45;&gt;endopen</title>
<path fill="none" stroke="#354ab3" d="M662.51,-487.81C645.947,-460.961 612.677,-407.029 593.028,-375.176"/>
<polygon fill="#354ab3" stroke="#354ab3" points="595.865,-373.11 587.636,-366.436 589.908,-376.785 595.865,-373.11"/>
</g>
<!-- findiop -->
<g id="node42" class="node"><title>findiop</title>
<ellipse fill="#ccd1ff" stroke="#ccd1ff" cx="672.497" cy="-349" rx="36.2938" ry="18"/>
<text text-anchor="middle" x="672.497" y="-345.3" font-family="Times,serif" font-size="14.00">findiop</text>
</g>
<!-- fopen&#45;&gt;findiop -->
<g id="edge56" class="edge"><title>fopen&#45;&gt;findiop</title>
<path fill="none" stroke="#3542b2" d="M672.497,-486.931C672.497,-460.451 672.497,-409.224 672.497,-377.486"/>
<polygon fill="#3542b2" stroke="#3542b2" points="675.997,-377.146 672.497,-367.146 668.997,-377.146 675.997,-377.146"/>
</g>
<!-- xflsbuf -->
<g id="node36" class="node"><title>xflsbuf</title>
<ellipse fill="#ccd1ff" stroke="#ccd1ff" cx="278.497" cy="-194" rx="35.9954" ry="18"/>
<text text-anchor="middle" x="278.497" y="-190.3" font-family="Times,serif" font-size="14.00">xflsbuf</text>
</g>
<!-- flsbuf&#45;&gt;xflsbuf -->
<g id="edge48" class="edge"><title>flsbuf&#45;&gt;xflsbuf</title>
<path fill="none" stroke="#3542b2" d="M210.775,-331.335C224.024,-304.663 250.088,-252.193 265.734,-220.695"/>
<polygon fill="#3542b2" stroke="#3542b2" points="268.915,-222.157 270.229,-211.644 262.646,-219.043 268.915,-222.157"/>
</g>
<!-- write -->
<g id="node37" class="node"><title>write</title>
<ellipse fill="#9cfffe" stroke="#9cfffe" cx="278.497" cy="-39" rx="28.6953" ry="18"/>
<text text-anchor="middle" x="278.497" y="-35.3" font-family="Times,serif" font-size="14.00">write</text>
</g>
<!-- xflsbuf&#45;&gt;write -->
<g id="edge47" class="edge"><title>xflsbuf&#45;&gt;write</title>
<path fill="none" stroke="#3542b2" d="M278.497,-175.746C278.497,-149.461 278.497,-99.1295 278.497,-67.6883"/>
<polygon fill="#3542b2" stroke="#3542b2" points="281.997,-67.4253 278.497,-57.4253 274.997,-67.4254 281.997,-67.4253"/>
</g>
<!-- open -->
<g id="node41" class="node"><title>open</title>
<ellipse fill="#c8d1ff" stroke="#c8d1ff" cx="577.497" cy="-194" rx="27.8951" ry="18"/>
<text text-anchor="middle" x="577.497" y="-190.3" font-family="Times,serif" font-size="14.00">open</text>
</g>
<!-- endopen&#45;&gt;open -->
<g id="edge54" class="edge"><title>endopen&#45;&gt;open</title>
<path fill="none" stroke="#3542b2" d="M577.497,-330.746C577.497,-304.461 577.497,-254.13 577.497,-222.688"/>
<polygon fill="#3542b2" stroke="#3542b2" points="580.997,-222.425 577.497,-212.425 573.997,-222.425 580.997,-222.425"/>
</g>
<!-- fflush&#45;&gt;xflsbuf -->
<g id="edge61" class="edge"><title>fflush&#45;&gt;xflsbuf</title>
<path fill="none" stroke="#344db4" d="M346.219,-331.335C332.97,-304.663 306.907,-252.193 291.26,-220.695"/>
<polygon fill="#344db4" stroke="#344db4" points="294.348,-219.043 286.765,-211.644 288.079,-222.157 294.348,-219.043"/>
</g>
<!-- morecore -->
<g id="node45" class="node"><title>morecore</title>
<ellipse fill="#ccd1ff" stroke="#ccd1ff" cx="1657.5" cy="-815" rx="44.393" ry="18"/>
<text text-anchor="middle" x="1657.5" y="-811.3" font-family="Times,serif" font-size="14.00">morecore</text>
</g>
<!-- malloc&#45;&gt;morecore -->
<g id="edge62" class="edge"><title>malloc&#45;&gt;morecore</title>
<path fill="none" stroke="#29d820" d="M1657.5,-952.931C1657.5,-926.451 1657.5,-875.224 1657.5,-843.486"/>
<polygon fill="#29d820" stroke="#29d820" points="1661,-843.146 1657.5,-833.146 1654,-843.146 1661,-843.146"/>
</g>
<!-- demote -->
<g id="node46" class="node"><title>demote</title>
<ellipse fill="#ccd1ff" stroke="#ccd1ff" cx="1756.5" cy="-815" rx="37.0935" ry="18"/>
<text text-anchor="middle" x="1756.5" y="-811.3" font-family="Times,serif" font-size="14.00">demote</text>
</g>
<!-- malloc&#45;&gt;demote -->
<g id="edge63" class="edge"><title>malloc&#45;&gt;demote</title>
<path fill="none" stroke="#3542b2" d="M1668.09,-953.519C1685.43,-926.542 1719.99,-872.789 1740.38,-841.066"/>
<polygon fill="#3542b2" stroke="#3542b2" points="1743.52,-842.667 1745.98,-832.362 1737.63,-838.881 1743.52,-842.667"/>
</g>
<!-- morecore&#45;&gt;sbrk -->
<g id="edge64" class="edge"><title>morecore&#45;&gt;sbrk</title>
<path fill="none" stroke="#3542b2" d="M1657.07,-796.867C1655.44,-734.411 1649,-513.072 1635.5,-331 1632.69,-293.177 1627.93,-249.585 1624.75,-222.162"/>
<polygon fill="#3542b2" stroke="#3542b2" points="1628.22,-221.671 1623.58,-212.147 1621.27,-222.487 1628.22,-221.671"/>
</g>
<!-- morecore&#45;&gt;getfreehdr -->
<g id="edge65" class="edge"><title>morecore&#45;&gt;getfreehdr</title>
<path fill="none" stroke="#3542b2" d="M1655,-797.017C1645.71,-736.25 1611.31,-530.917 1564.5,-487 1380.77,-314.627 1254.34,-430.31 1010.5,-367 1006.73,-366.023 1002.84,-364.957 998.946,-363.852"/>
<polygon fill="#3542b2" stroke="#3542b2" points="999.904,-360.486 989.324,-361.051 997.947,-367.207 999.904,-360.486"/>
</g>
<!-- free -->
<g id="node48" class="node"><title>free</title>
<ellipse fill="#ccd1ff" stroke="#ccd1ff" cx="1268.5" cy="-660" rx="27" ry="18"/>
<text text-anchor="middle" x="1268.5" y="-656.3" font-family="Times,serif" font-size="14.00">free</text>
</g>
<!-- morecore&#45;&gt;free -->
<g id="edge66" class="edge"><title>morecore&#45;&gt;free</title>
<path fill="none" stroke="#3542b2" d="M1626.65,-801.866C1554.39,-773.447 1374.74,-702.787 1300.94,-673.759"/>
<polygon fill="#3542b2" stroke="#3542b2" points="1301.83,-670.351 1291.25,-669.948 1299.27,-676.865 1301.83,-670.351"/>
</g>
<!-- getpagesize -->
<g id="node49" class="node"><title>getpagesize</title>
<ellipse fill="#ccd1ff" stroke="#ccd1ff" cx="1739.5" cy="-660" rx="51.9908" ry="18"/>
<text text-anchor="middle" x="1739.5" y="-656.3" font-family="Times,serif" font-size="14.00">getpagesize</text>
</g>
<!-- morecore&#45;&gt;getpagesize -->
<g id="edge67" class="edge"><title>morecore&#45;&gt;getpagesize</title>
<path fill="none" stroke="#3542b2" d="M1666.43,-797.335C1680.65,-770.804 1708.55,-718.744 1725.46,-687.194"/>
<polygon fill="#3542b2" stroke="#3542b2" points="1728.69,-688.579 1730.33,-678.111 1722.52,-685.272 1728.69,-688.579"/>
</g>
<!-- putfreehdr -->
<g id="node50" class="node"><title>putfreehdr</title>
<ellipse fill="#ccd1ff" stroke="#ccd1ff" cx="1856.5" cy="-660" rx="47.3916" ry="18"/>
<text text-anchor="middle" x="1856.5" y="-656.3" font-family="Times,serif" font-size="14.00">putfreehdr</text>
</g>
<!-- morecore&#45;&gt;putfreehdr -->
<g id="edge68" class="edge"><title>morecore&#45;&gt;putfreehdr</title>
<path fill="none" stroke="#3542b2" d="M1677.31,-798.77C1712.83,-771.461 1787.45,-714.09 1828.3,-682.683"/>
<polygon fill="#3542b2" stroke="#3542b2" points="1830.68,-685.265 1836.47,-676.395 1826.41,-679.716 1830.68,-685.265"/>
</g>
<!-- udiv -->
<g id="node51" class="node"><title>udiv</title>
<ellipse fill="#ccd1ff" stroke="#ccd1ff" cx="1528.5" cy="-505" rx="27" ry="18"/>
<text text-anchor="middle" x="1528.5" y="-501.3" font-family="Times,serif" font-size="14.00">udiv</text>
</g>
<!-- morecore&#45;&gt;udiv -->
<g id="edge69" class="edge"><title>morecore&#45;&gt;udiv</title>
<path fill="none" stroke="#3542b2" d="M1650.38,-797.002C1628.96,-745.873 1565.04,-593.249 1539.36,-531.929"/>
<polygon fill="#3542b2" stroke="#3542b2" points="1542.53,-530.441 1535.44,-522.57 1536.07,-533.145 1542.53,-530.441"/>
</g>
<!-- umul -->
<g id="node52" class="node"><title>umul</title>
<ellipse fill="#ccd1ff" stroke="#ccd1ff" cx="1951.5" cy="-660" rx="29.4969" ry="18"/>
<text text-anchor="middle" x="1951.5" y="-656.3" font-family="Times,serif" font-size="14.00">umul</text>
</g>
<!-- morecore&#45;&gt;umul -->
<g id="edge70" class="edge"><title>morecore&#45;&gt;umul</title>
<path fill="none" stroke="#3542b2" d="M1683.59,-800.422C1737.9,-772.157 1862.87,-707.121 1920.88,-676.933"/>
<polygon fill="#3542b2" stroke="#3542b2" points="1922.67,-679.948 1929.92,-672.227 1919.44,-673.739 1922.67,-679.948"/>
</g>
<!-- getfreehdr&#45;&gt;sbrk -->
<g id="edge74" class="edge"><title>getfreehdr&#45;&gt;sbrk</title>
<path fill="none" stroke="#3542b2" d="M989.332,-336.98C996.314,-334.897 1003.62,-332.807 1010.5,-331 1227.55,-273.985 1492.01,-220.457 1586.16,-201.891"/>
<polygon fill="#3542b2" stroke="#3542b2" points="1586.88,-205.316 1596.01,-199.952 1585.53,-198.448 1586.88,-205.316"/>
</g>
<!-- free&#45;&gt;insert -->
<g id="edge75" class="edge"><title>free&#45;&gt;insert</title>
<path fill="none" stroke="#3542b2" d="M1242.92,-653.895C1225.82,-650.494 1202.82,-645.943 1182.5,-642 904.906,-588.138 828.049,-605.214 557.497,-523 555.097,-522.271 552.645,-521.444 550.196,-520.557"/>
<polygon fill="#3542b2" stroke="#3542b2" points="551.464,-517.295 540.876,-516.922 548.92,-523.817 551.464,-517.295"/>
</g>
<!-- sigblock -->
<g id="node56" class="node"><title>sigblock</title>
<ellipse fill="#ccd1ff" stroke="#ccd1ff" cx="1249.5" cy="-349" rx="40.0939" ry="18"/>
<text text-anchor="middle" x="1249.5" y="-345.3" font-family="Times,serif" font-size="14.00">sigblock</text>
</g>
<!-- sigvec&#45;&gt;sigblock -->
<g id="edge79" class="edge"><title>sigvec&#45;&gt;sigblock</title>
<path fill="none" stroke="#3542b2" d="M1152.85,-487.81C1171.76,-460.846 1209.83,-406.565 1232.13,-374.767"/>
<polygon fill="#3542b2" stroke="#3542b2" points="1235.09,-376.633 1237.97,-366.436 1229.36,-372.614 1235.09,-376.633"/>
</g>
<!-- sigsetmask -->
<g id="node57" class="node"><title>sigsetmask</title>
<ellipse fill="#ccd1ff" stroke="#ccd1ff" cx="1141.5" cy="-349" rx="50.0912" ry="18"/>
<text text-anchor="middle" x="1141.5" y="-345.3" font-family="Times,serif" font-size="14.00">sigsetmask</text>
</g>
<!-- sigvec&#45;&gt;sigsetmask -->
<g id="edge80" class="edge"><title>sigvec&#45;&gt;sigsetmask</title>
<path fill="none" stroke="#3542b2" d="M1141.5,-486.931C1141.5,-460.451 1141.5,-409.224 1141.5,-377.486"/>
<polygon fill="#3542b2" stroke="#3542b2" points="1145,-377.146 1141.5,-367.146 1138,-377.146 1145,-377.146"/>
</g>
<!-- moncontrol -->
<g id="node54" class="node"><title>moncontrol</title>
<ellipse fill="#cad1ff" stroke="#cad1ff" cx="1548.5" cy="-1281" rx="51.9908" ry="18"/>
<text text-anchor="middle" x="1548.5" y="-1277.3" font-family="Times,serif" font-size="14.00">moncontrol</text>
</g>
<!-- profil -->
<g id="node55" class="node"><title>profil</title>
<ellipse fill="#ccd1ff" stroke="#ccd1ff" cx="1548.5" cy="-1126" rx="30.5947" ry="18"/>
<text text-anchor="middle" x="1548.5" y="-1122.3" font-family="Times,serif" font-size="14.00">profil</text>
</g>
<!-- moncontrol&#45;&gt;profil -->
<g id="edge73" class="edge"><title>moncontrol&#45;&gt;profil</title>
<path fill="none" stroke="#3542b2" d="M1548.5,-1262.75C1548.5,-1236.46 1548.5,-1186.13 1548.5,-1154.69"/>
<polygon fill="#3542b2" stroke="#3542b2" points="1552,-1154.43 1548.5,-1144.43 1545,-1154.43 1552,-1154.43"/>
</g>
<!-- doprnt&#45;&gt;udiv -->
<g id="edge82" class="edge"><title>doprnt&#45;&gt;udiv</title>
<path fill="none" stroke="#3542b2" d="M1411.02,-643.203C1434.31,-616.009 1482.04,-560.254 1508.95,-528.834"/>
<polygon fill="#3542b2" stroke="#3542b2" points="1511.78,-530.904 1515.63,-521.032 1506.46,-526.352 1511.78,-530.904"/>
</g>
<!-- urem -->
<g id="node59" class="node"><title>urem</title>
<ellipse fill="#ccd1ff" stroke="#ccd1ff" cx="1416.5" cy="-505" rx="29.4969" ry="18"/>
<text text-anchor="middle" x="1416.5" y="-501.3" font-family="Times,serif" font-size="14.00">urem</text>
</g>
<!-- doprnt&#45;&gt;urem -->
<g id="edge81" class="edge"><title>doprnt&#45;&gt;urem</title>
<path fill="none" stroke="#3542b2" d="M1399.64,-641.746C1402.92,-615.321 1409.22,-564.593 1413.12,-533.188"/>
<polygon fill="#3542b2" stroke="#3542b2" points="1416.63,-533.312 1414.39,-522.957 1409.69,-532.45 1416.63,-533.312"/>
</g>
<!-- strlen -->
<g id="node60" class="node"><title>strlen</title>
<ellipse fill="#ccd1ff" stroke="#ccd1ff" cx="1223.5" cy="-505" rx="30.5947" ry="18"/>
<text text-anchor="middle" x="1223.5" y="-501.3" font-family="Times,serif" font-size="14.00">strlen</text>
</g>
<!-- doprnt&#45;&gt;strlen -->
<g id="edge83" class="edge"><title>doprnt&#45;&gt;strlen</title>
<path fill="none" stroke="#3542b2" d="M1380.81,-644.33C1349.81,-617.072 1283.24,-558.533 1247.44,-527.055"/>
<polygon fill="#3542b2" stroke="#3542b2" points="1249.7,-524.377 1239.88,-520.402 1245.07,-529.634 1249.7,-524.377"/>
</g>
<!-- localeconv -->
<g id="node61" class="node"><title>localeconv</title>
<ellipse fill="#ccd1ff" stroke="#ccd1ff" cx="1320.5" cy="-505" rx="48.9926" ry="18"/>
<text text-anchor="middle" x="1320.5" y="-501.3" font-family="Times,serif" font-size="14.00">localeconv</text>
</g>
<!-- doprnt&#45;&gt;localeconv -->
<g id="edge84" class="edge"><title>doprnt&#45;&gt;localeconv</title>
<path fill="none" stroke="#3542b2" d="M1389.11,-642.335C1375.76,-615.804 1349.56,-563.744 1333.68,-532.194"/>
<polygon fill="#3542b2" stroke="#3542b2" points="1336.73,-530.471 1329.11,-523.111 1330.48,-533.617 1336.73,-530.471"/>
</g>
</g>
</svg>
