<?xml version="1.0" encoding="UTF-8" standalone="no"?>
<!DOCTYPE svg PUBLIC "-//W3C//DTD SVG 1.1//EN"
 "http://www.w3.org/Graphics/SVG/1.1/DTD/svg11.dtd">
<!-- Generated by graphviz version 2.38.0 (20140413.2041)
 -->
<!-- Title: G Pages: 1 -->
<svg width="312pt" height="479pt"
 viewBox="0.00 0.00 311.85 479.00" xmlns="http://www.w3.org/2000/svg" xmlns:xlink="http://www.w3.org/1999/xlink">
<g id="graph0" class="graph" transform="scale(1 1) rotate(0) translate(4 475)">
<title>G</title>
<polygon fill="white" stroke="none" points="-4,4 -4,-475 307.847,-475 307.847,4 -4,4"/>
<g id="clust1" class="cluster"><title>cluster_outer</title>
<polygon fill="none" stroke="black" stroke-width="2" points="71.8472,-64 71.8472,-407 295.847,-407 295.847,-64 71.8472,-64"/>
</g>
<g id="clust2" class="cluster"><title>cluster_inner</title>
<polygon fill="none" stroke="black" stroke-width="2" points="79.8472,-136 79.8472,-355 275.847,-355 275.847,-136 79.8472,-136"/>
<text text-anchor="middle" x="177.847" y="-339.8" font-family="Times,serif" font-size="14.00"> &#160;&#160;&#160;&#160;&#160;&#160;&#160;&#160;&#160;&#160;&#160;&#160;&#160;&#160;&#160;&#160;&#160;&#160;&#160;&#160;&#160;&#160;&#160;&#160;&#160;Act_2</text>
</g>
<!-- Act_1 -->
<g id="node1" class="node"><title>Act_1</title>
<ellipse fill="none" stroke="black" cx="189.847" cy="-381" rx="32.4942" ry="18"/>
<text text-anchor="middle" x="189.847" y="-377.3" font-family="Times,serif" font-size="14.00">Act_1</text>
</g>
<!-- Act_21 -->
<g id="node2" class="node"><title>Act_21</title>
<ellipse fill="none" stroke="black" cx="123.847" cy="-306" rx="36.2938" ry="18"/>
<text text-anchor="middle" x="123.847" y="-302.3" font-family="Times,serif" font-size="14.00">Act_21</text>
</g>
<!-- Act_1&#45;&gt;Act_21 -->
<g id="edge1" class="edge"><title>Act_1&#45;&gt;Act_21</title>
<path fill="none" stroke="black" d="M175.85,-364.519C166.898,-354.617 155.116,-341.585 145.031,-330.43"/>
<polygon fill="black" stroke="black" points="147.354,-327.781 138.051,-322.711 142.162,-332.476 147.354,-327.781"/>
</g>
<!-- Act_23 -->
<g id="node3" class="node"><title>Act_23</title>
<ellipse fill="none" stroke="black" cx="231.847" cy="-234" rx="36.2938" ry="18"/>
<text text-anchor="middle" x="231.847" y="-230.3" font-family="Times,serif" font-size="14.00">Act_23</text>
</g>
<!-- Act_1&#45;&gt;Act_23 -->
<g id="edge2" class="edge"><title>Act_1&#45;&gt;Act_23</title>
<path fill="none" stroke="black" d="M222.525,-379.749C241.627,-377.7 264.368,-371.571 276.847,-355 294.761,-331.213 287.113,-315.952 276.847,-288 272.705,-276.722 264.982,-266.203 257.088,-257.556"/>
<polygon fill="black" stroke="black" points="259.376,-254.889 249.888,-250.174 254.365,-259.777 259.376,-254.889"/>
</g>
<!-- Act_22 -->
<g id="node6" class="node"><title>Act_22</title>
<ellipse fill="none" stroke="black" cx="231.847" cy="-306" rx="36.2938" ry="18"/>
<text text-anchor="middle" x="231.847" y="-302.3" font-family="Times,serif" font-size="14.00">Act_22</text>
</g>
<!-- Act_21&#45;&gt;Act_22 -->
<g id="edge4" class="edge"><title>Act_21&#45;&gt;Act_22</title>
<path fill="none" stroke="black" d="M160.55,-306C168.8,-306 177.05,-306 185.3,-306"/>
<polygon fill="black" stroke="black" points="185.363,-309.5 195.363,-306 185.363,-302.5 185.363,-309.5"/>
</g>
<!-- Act_25 -->
<g id="node4" class="node"><title>Act_25</title>
<ellipse fill="none" stroke="black" cx="177.847" cy="-162" rx="36.2938" ry="18"/>
<text text-anchor="middle" x="177.847" y="-158.3" font-family="Times,serif" font-size="14.00">Act_25</text>
</g>
<!-- Act_23&#45;&gt;Act_25 -->
<g id="edge8" class="edge"><title>Act_23&#45;&gt;Act_25</title>
<path fill="none" stroke="black" d="M219.323,-216.765C212.575,-208.018 204.116,-197.052 196.599,-187.308"/>
<polygon fill="black" stroke="black" points="199.183,-184.927 190.304,-179.147 193.64,-189.203 199.183,-184.927"/>
</g>
<!-- Act_24 -->
<g id="node7" class="node"><title>Act_24</title>
<ellipse fill="none" stroke="black" cx="123.847" cy="-234" rx="36.2938" ry="18"/>
<text text-anchor="middle" x="123.847" y="-230.3" font-family="Times,serif" font-size="14.00">Act_24</text>
</g>
<!-- Act_23&#45;&gt;Act_24 -->
<g id="edge7" class="edge"><title>Act_23&#45;&gt;Act_24</title>
<path fill="none" stroke="black" d="M195.363,-234C187.113,-234 178.863,-234 170.613,-234"/>
<polygon fill="black" stroke="black" points="170.55,-230.5 160.55,-234 170.55,-237.5 170.55,-230.5"/>
</g>
<!-- Act_3 -->
<g id="node5" class="node"><title>Act_3</title>
<ellipse fill="none" stroke="black" cx="177.847" cy="-90" rx="32.4942" ry="18"/>
<text text-anchor="middle" x="177.847" y="-86.3" font-family="Times,serif" font-size="14.00">Act_3</text>
</g>
<!-- Act_25&#45;&gt;Act_3 -->
<g id="edge3" class="edge"><title>Act_25&#45;&gt;Act_3</title>
<path fill="none" stroke="black" d="M177.847,-143.697C177.847,-135.983 177.847,-126.712 177.847,-118.112"/>
<polygon fill="black" stroke="black" points="181.347,-118.104 177.847,-108.104 174.347,-118.104 181.347,-118.104"/>
</g>
<!-- Ext_2 -->
<g id="node9" class="node"><title>Ext_2</title>
<ellipse fill="none" stroke="black" cx="177.847" cy="-18" rx="31.6951" ry="18"/>
<text text-anchor="middle" x="177.847" y="-14.3" font-family="Times,serif" font-size="14.00">Ext_2</text>
</g>
<!-- Act_3&#45;&gt;Ext_2 -->
<g id="edge11" class="edge"><title>Act_3&#45;&gt;Ext_2</title>
<path fill="none" stroke="black" d="M177.847,-71.6966C177.847,-63.9827 177.847,-54.7125 177.847,-46.1124"/>
<polygon fill="black" stroke="black" points="181.347,-46.1043 177.847,-36.1043 174.347,-46.1044 181.347,-46.1043"/>
</g>
<!-- Act_22&#45;&gt;Act_23 -->
<g id="edge5" class="edge"><title>Act_22&#45;&gt;Act_23</title>
<path fill="none" stroke="black" d="M231.847,-287.697C231.847,-279.983 231.847,-270.712 231.847,-262.112"/>
<polygon fill="black" stroke="black" points="235.347,-262.104 231.847,-252.104 228.347,-262.104 235.347,-262.104"/>
</g>
<!-- Act_22&#45;&gt;Act_24 -->
<g id="edge6" class="edge"><title>Act_22&#45;&gt;Act_24</title>
<path fill="none" stroke="black" d="M210.51,-291.17C194.239,-280.624 171.63,-265.97 153.584,-254.274"/>
<polygon fill="black" stroke="black" points="155.435,-251.303 145.14,-248.801 151.628,-257.177 155.435,-251.303"/>
</g>
<!-- Act_24&#45;&gt;Act_25 -->
<g id="edge9" class="edge"><title>Act_24&#45;&gt;Act_25</title>
<path fill="none" stroke="black" d="M136.372,-216.765C143.119,-208.018 151.579,-197.052 159.095,-187.308"/>
<polygon fill="black" stroke="black" points="162.054,-189.203 165.391,-179.147 156.511,-184.927 162.054,-189.203"/>
</g>
<!-- Ext_1 -->
<g id="node8" class="node"><title>Ext_1</title>
<ellipse fill="none" stroke="black" cx="189.847" cy="-453" rx="31.6951" ry="18"/>
<text text-anchor="middle" x="189.847" y="-449.3" font-family="Times,serif" font-size="14.00">Ext_1</text>
</g>
<!-- Ext_1&#45;&gt;Act_1 -->
<g id="edge10" class="edge"><title>Ext_1&#45;&gt;Act_1</title>
<path fill="none" stroke="black" d="M189.847,-434.697C189.847,-426.983 189.847,-417.712 189.847,-409.112"/>
<polygon fill="black" stroke="black" points="193.347,-409.104 189.847,-399.104 186.347,-409.104 193.347,-409.104"/>
</g>
<!-- Ext_3 -->
<g id="node10" class="node"><title>Ext_3</title>
<ellipse fill="none" stroke="black" cx="31.8472" cy="-306" rx="31.6951" ry="18"/>
<text text-anchor="middle" x="31.8472" y="-302.3" font-family="Times,serif" font-size="14.00">Ext_3</text>
</g>
<!-- Ext_3&#45;&gt;Act_24 -->
<g id="edge12" class="edge"><title>Ext_3&#45;&gt;Act_24</title>
<path fill="none" stroke="black" d="M50.0234,-291.17C63.367,-281.017 81.714,-267.058 96.7792,-255.595"/>
<polygon fill="black" stroke="black" points="98.9196,-258.365 104.759,-249.524 94.6809,-252.794 98.9196,-258.365"/>
</g>
</g>
</svg>
