<?xml version="1.0" encoding="UTF-8" standalone="no"?>
<!DOCTYPE svg PUBLIC "-//W3C//DTD SVG 1.1//EN"
 "http://www.w3.org/Graphics/SVG/1.1/DTD/svg11.dtd">
<!-- Generated by graphviz version 2.38.0 (20140413.2041)
 -->
<!-- Title: G Pages: 1 -->
<svg width="184pt" height="205pt"
 viewBox="0.00 0.00 184.00 205.00" xmlns="http://www.w3.org/2000/svg" xmlns:xlink="http://www.w3.org/1999/xlink">
<g id="graph0" class="graph" transform="scale(1 1) rotate(0) translate(4 201)">
<title>G</title>
<polygon fill="white" stroke="none" points="-4,4 -4,-201 180,-201 180,4 -4,4"/>
<text text-anchor="middle" x="137.5" y="-7.8" font-family="Times,serif" font-size="14.00">label demo</text>
<g id="clust1" class="cluster"><title>cluster0</title>
<polygon fill="none" stroke="black" points="8,-31 8,-106 168,-106 168,-31 8,-31"/>
<text text-anchor="middle" x="138.5" y="-38.8" font-family="Times,serif" font-size="14.00">cluster0</text>
</g>
<g id="clust2" class="cluster"><title>cluster1</title>
<polygon fill="none" stroke="black" points="8,-114 8,-189 168,-189 168,-114 8,-114"/>
<text text-anchor="middle" x="138.5" y="-173.8" font-family="Times,serif" font-size="14.00">cluster1</text>
</g>
<!-- a -->
<g id="node1" class="node"><title>a</title>
<ellipse fill="none" stroke="black" cx="43" cy="-80" rx="27" ry="18"/>
<text text-anchor="middle" x="43" y="-76.3" font-family="Times,serif" font-size="14.00">a</text>
</g>
<!-- b -->
<g id="node2" class="node"><title>b</title>
<ellipse fill="none" stroke="black" cx="133" cy="-80" rx="27" ry="18"/>
<text text-anchor="middle" x="133" y="-76.3" font-family="Times,serif" font-size="14.00">b</text>
</g>
<!-- a&#45;&gt;b -->
<g id="edge1" class="edge"><title>a&#45;&gt;b</title>
<path fill="none" stroke="black" d="M70.4029,-80C78.3932,-80 87.3106,-80 95.8241,-80"/>
<polygon fill="black" stroke="black" points="95.919,-83.5001 105.919,-80 95.919,-76.5001 95.919,-83.5001"/>
</g>
<!-- c -->
<g id="node3" class="node"><title>c</title>
<ellipse fill="none" stroke="black" cx="43" cy="-140" rx="27" ry="18"/>
<text text-anchor="middle" x="43" y="-136.3" font-family="Times,serif" font-size="14.00">c</text>
</g>
<!-- d -->
<g id="node4" class="node"><title>d</title>
<ellipse fill="none" stroke="black" cx="133" cy="-140" rx="27" ry="18"/>
<text text-anchor="middle" x="133" y="-136.3" font-family="Times,serif" font-size="14.00">d</text>
</g>
<!-- c&#45;&gt;d -->
<g id="edge2" class="edge"><title>c&#45;&gt;d</title>
<path fill="none" stroke="black" d="M70.4029,-140C78.3932,-140 87.3106,-140 95.8241,-140"/>
<polygon fill="black" stroke="black" points="95.919,-143.5 105.919,-140 95.919,-136.5 95.919,-143.5"/>
</g>
</g>
</svg>
