<?xml version="1.0" encoding="UTF-8" standalone="no"?>
<!DOCTYPE svg PUBLIC "-//W3C//DTD SVG 1.1//EN"
 "http://www.w3.org/Graphics/SVG/1.1/DTD/svg11.dtd">
<!-- Generated by graphviz version 2.38.0 (20140413.2041)
 -->
<!-- Title: G Pages: 1 -->
<svg width="172pt" height="217pt"
 viewBox="0.00 0.00 172.00 217.00" xmlns="http://www.w3.org/2000/svg" xmlns:xlink="http://www.w3.org/1999/xlink">
<g id="graph0" class="graph" transform="scale(1 1) rotate(0) translate(4 213)">
<title>G</title>
<polygon fill="white" stroke="none" points="-4,4 -4,-213 168,-213 168,4 -4,4"/>
<text text-anchor="middle" x="38.5" y="-193.8" font-family="Times,serif" font-size="14.00">label demo</text>
<g id="clust1" class="cluster"><title>cluster0</title>
<polygon fill="none" stroke="black" points="8,-8 8,-155 78,-155 78,-8 8,-8"/>
<text text-anchor="middle" x="37.5" y="-15.8" font-family="Times,serif" font-size="14.00">cluster0</text>
</g>
<g id="clust2" class="cluster"><title>cluster1</title>
<polygon fill="none" stroke="black" points="86,-31 86,-178 156,-178 156,-31 86,-31"/>
<text text-anchor="middle" x="115.5" y="-162.8" font-family="Times,serif" font-size="14.00">cluster1</text>
</g>
<!-- a -->
<g id="node1" class="node"><title>a</title>
<ellipse fill="none" stroke="black" cx="43" cy="-129" rx="27" ry="18"/>
<text text-anchor="middle" x="43" y="-125.3" font-family="Times,serif" font-size="14.00">a</text>
</g>
<!-- b -->
<g id="node2" class="node"><title>b</title>
<ellipse fill="none" stroke="black" cx="43" cy="-57" rx="27" ry="18"/>
<text text-anchor="middle" x="43" y="-53.3" font-family="Times,serif" font-size="14.00">b</text>
</g>
<!-- a&#45;&gt;b -->
<g id="edge1" class="edge"><title>a&#45;&gt;b</title>
<path fill="none" stroke="black" d="M43,-110.697C43,-102.983 43,-93.7125 43,-85.1124"/>
<polygon fill="black" stroke="black" points="46.5001,-85.1043 43,-75.1043 39.5001,-85.1044 46.5001,-85.1043"/>
</g>
<!-- c -->
<g id="node3" class="node"><title>c</title>
<ellipse fill="none" stroke="black" cx="121" cy="-129" rx="27" ry="18"/>
<text text-anchor="middle" x="121" y="-125.3" font-family="Times,serif" font-size="14.00">c</text>
</g>
<!-- d -->
<g id="node4" class="node"><title>d</title>
<ellipse fill="none" stroke="black" cx="121" cy="-57" rx="27" ry="18"/>
<text text-anchor="middle" x="121" y="-53.3" font-family="Times,serif" font-size="14.00">d</text>
</g>
<!-- c&#45;&gt;d -->
<g id="edge2" class="edge"><title>c&#45;&gt;d</title>
<path fill="none" stroke="black" d="M121,-110.697C121,-102.983 121,-93.7125 121,-85.1124"/>
<polygon fill="black" stroke="black" points="124.5,-85.1043 121,-75.1043 117.5,-85.1044 124.5,-85.1043"/>
</g>
</g>
</svg>
