<?xml version="1.0" encoding="UTF-8" standalone="no"?>
<!DOCTYPE svg PUBLIC "-//W3C//DTD SVG 1.1//EN"
 "http://www.w3.org/Graphics/SVG/1.1/DTD/svg11.dtd">
<!-- Generated by graphviz version 2.38.0 (20140413.2041)
 -->
<!-- Title: G Pages: 1 -->
<svg width="198pt" height="116pt"
 viewBox="0.00 0.00 197.99 116.00" xmlns="http://www.w3.org/2000/svg" xmlns:xlink="http://www.w3.org/1999/xlink">
<g id="local" class="layer">
<g id="graph0" class="graph" transform="scale(1 1) rotate(0) translate(4 112)">
<title>G</title>
<polygon fill="white" stroke="none" points="-4,4 -4,-112 193.994,-112 193.994,4 -4,4"/>
<!-- node2 -->
<g id="node2" class="node"><title>node2</title>
<ellipse fill="none" stroke="black" cx="115.497" cy="-90" rx="32.4942" ry="18"/>
<text text-anchor="middle" x="115.497" y="-86.3" font-family="Times,serif" font-size="14.00">node2</text>
</g>
</g>
</g>
<g id="pvt" class="layer">
<g id="pvt_graph0" class="graph" transform="scale(1 1) rotate(0) translate(4 112)">
<title>G</title>
<polygon fill="white" stroke="none" points="-4,4 -4,-112 193.994,-112 193.994,4 -4,4"/>
<!-- node1 -->
<g id="pvt_node1_pvt" class="node"><title>node1</title>
<ellipse fill="none" stroke="black" cx="32.4971" cy="-90" rx="32.4942" ry="18"/>
<text text-anchor="middle" x="32.4971" y="-86.3" font-family="Times,serif" font-size="14.00">node1</text>
</g>
<!-- node2 -->
<g id="pvt_node2_pvt" class="node"><title>node2</title>
<ellipse fill="none" stroke="black" cx="115.497" cy="-90" rx="32.4942" ry="18"/>
<text text-anchor="middle" x="115.497" y="-86.3" font-family="Times,serif" font-size="14.00">node2</text>
</g>
<!-- node3 -->
<g id="pvt_node3_pvt" class="node"><title>node3</title>
<ellipse fill="none" stroke="black" cx="74.4971" cy="-18" rx="32.4942" ry="18"/>
<text text-anchor="middle" x="74.4971" y="-14.3" font-family="Times,serif" font-size="14.00">node3</text>
</g>
<!-- node2&#45;&gt;node3 -->
<g id="pvt_edge1" class="edge"><title>node2&#45;&gt;node3</title>
<path fill="none" stroke="black" d="M105.988,-72.7646C101.04,-64.3172 94.8796,-53.7993 89.3228,-44.3122"/>
<polygon fill="black" stroke="black" points="92.3137,-42.4933 84.2395,-35.6334 86.2735,-46.0312 92.3137,-42.4933"/>
</g>
</g>
</g>
<g id="test" class="layer">
<g id="test_graph0" class="graph" transform="scale(1 1) rotate(0) translate(4 112)">
<title>G</title>
<polygon fill="white" stroke="none" points="-4,4 -4,-112 193.994,-112 193.994,4 -4,4"/>
<!-- node2 -->
<g id="test_node2_test" class="node"><title>node2</title>
<ellipse fill="none" stroke="black" cx="115.497" cy="-90" rx="32.4942" ry="18"/>
<text text-anchor="middle" x="115.497" y="-86.3" font-family="Times,serif" font-size="14.00">node2</text>
</g>
<!-- node3 -->
<g id="test_node3_test" class="node"><title>node3</title>
<ellipse fill="none" stroke="black" cx="74.4971" cy="-18" rx="32.4942" ry="18"/>
<text text-anchor="middle" x="74.4971" y="-14.3" font-family="Times,serif" font-size="14.00">node3</text>
</g>
<!-- node2&#45;&gt;node3 -->
<g id="test_edge1" class="edge"><title>node2&#45;&gt;node3</title>
<path fill="none" stroke="black" d="M105.988,-72.7646C101.04,-64.3172 94.8796,-53.7993 89.3228,-44.3122"/>
<polygon fill="black" stroke="black" points="92.3137,-42.4933 84.2395,-35.6334 86.2735,-46.0312 92.3137,-42.4933"/>
</g>
<!-- node4 -->
<g id="test_node4_test" class="node"><title>node4</title>
<ellipse fill="none" stroke="black" cx="157.497" cy="-18" rx="32.4942" ry="18"/>
<text text-anchor="middle" x="157.497" y="-14.3" font-family="Times,serif" font-size="14.00">node4</text>
</g>
<!-- node2&#45;&gt;node4 -->
<g id="test_edge2" class="edge"><title>node2&#45;&gt;node4</title>
<path fill="none" stroke="black" d="M125.238,-72.7646C130.307,-64.3172 136.618,-53.7993 142.31,-44.3122"/>
<polygon fill="black" stroke="black" points="145.373,-46.0091 147.517,-35.6334 139.371,-42.4076 145.373,-46.0091"/>
</g>
</g>
</g>
<g id="new" class="layer">
<g id="new_graph0" class="graph" transform="scale(1 1) rotate(0) translate(4 112)">
<title>G</title>
<polygon fill="white" stroke="none" points="-4,4 -4,-112 193.994,-112 193.994,4 -4,4"/>
<!-- node2 -->
<g id="new_node2_new" class="node"><title>node2</title>
<ellipse fill="none" stroke="black" cx="115.497" cy="-90" rx="32.4942" ry="18"/>
<text text-anchor="middle" x="115.497" y="-86.3" font-family="Times,serif" font-size="14.00">node2</text>
</g>
<!-- node3 -->
<g id="new_node3_new" class="node"><title>node3</title>
<ellipse fill="none" stroke="black" cx="74.4971" cy="-18" rx="32.4942" ry="18"/>
<text text-anchor="middle" x="74.4971" y="-14.3" font-family="Times,serif" font-size="14.00">node3</text>
</g>
<!-- node2&#45;&gt;node3 -->
<g id="new_edge1" class="edge"><title>node2&#45;&gt;node3</title>
<path fill="none" stroke="black" d="M105.988,-72.7646C101.04,-64.3172 94.8796,-53.7993 89.3228,-44.3122"/>
<polygon fill="black" stroke="black" points="92.3137,-42.4933 84.2395,-35.6334 86.2735,-46.0312 92.3137,-42.4933"/>
</g>
</g>
</g>
<g id="ofc" class="layer">
<g id="ofc_graph0" class="graph" transform="scale(1 1) rotate(0) translate(4 112)">
<title>G</title>
<polygon fill="white" stroke="none" points="-4,4 -4,-112 193.994,-112 193.994,4 -4,4"/>
<!-- node2 -->
<g id="ofc_node2_ofc" class="node"><title>node2</title>
<ellipse fill="none" stroke="black" cx="115.497" cy="-90" rx="32.4942" ry="18"/>
<text text-anchor="middle" x="115.497" y="-86.3" font-family="Times,serif" font-size="14.00">node2</text>
</g>
<!-- node3 -->
<g id="ofc_node3_ofc" class="node"><title>node3</title>
<ellipse fill="none" stroke="black" cx="74.4971" cy="-18" rx="32.4942" ry="18"/>
<text text-anchor="middle" x="74.4971" y="-14.3" font-family="Times,serif" font-size="14.00">node3</text>
</g>
<!-- node2&#45;&gt;node3 -->
<g id="ofc_edge1" class="edge"><title>node2&#45;&gt;node3</title>
<path fill="none" stroke="black" d="M105.988,-72.7646C101.04,-64.3172 94.8796,-53.7993 89.3228,-44.3122"/>
<polygon fill="black" stroke="black" points="92.3137,-42.4933 84.2395,-35.6334 86.2735,-46.0312 92.3137,-42.4933"/>
</g>
</g>
</g>
</svg>
