<?xml version="1.0" encoding="UTF-8" standalone="no"?>
<!DOCTYPE svg PUBLIC "-//W3C//DTD SVG 1.1//EN"
 "http://www.w3.org/Graphics/SVG/1.1/DTD/svg11.dtd">
<!-- Generated by graphviz version 2.38.0 (20140413.2041)
 -->
<!-- Title: g Pages: 1 -->
<svg width="1095pt" height="622pt"
 viewBox="0.00 0.00 1095.19 622.00" xmlns="http://www.w3.org/2000/svg" xmlns:xlink="http://www.w3.org/1999/xlink">
<g id="graph0" class="graph" transform="scale(1 1) rotate(0) translate(4 617.997)">
<title>g</title>
<polygon fill="white" stroke="none" points="-4,4 -4,-617.997 1091.19,-617.997 1091.19,4 -4,4"/>
<g id="clust1" class="cluster"><title>cluster0</title>
<polygon fill="none" stroke="black" points="65.5975,-8 65.5975,-605.997 403.597,-605.997 403.597,-8 65.5975,-8"/>
<text text-anchor="middle" x="234.597" y="-590.797" font-family="Times,serif" font-size="14.00">toucan</text>
</g>
<!-- n0 -->
<g id="node1" class="node"><title>n0</title>
<polygon fill="lightblue" stroke="lightblue" points="395.597,-574.997 345.597,-574.997 345.597,-536.997 395.597,-536.997 395.597,-574.997"/>
<text text-anchor="middle" x="370.597" y="-559.797" font-family="Times,serif" font-size="14.00">18519</text>
<text text-anchor="middle" x="370.597" y="-544.797" font-family="Times,serif" font-size="14.00">?</text>
</g>
<!-- n1 -->
<g id="node2" class="node"><title>n1</title>
<ellipse fill="#ff34b3" stroke="#ff34b3" cx="1058.6" cy="-481.997" rx="28.6953" ry="18"/>
<text text-anchor="middle" x="1058.6" y="-478.297" font-family="Times,serif" font-size="14.00">4836</text>
</g>
<!-- n0&#45;&gt;n1 -->
<g id="edge1" class="edge"><title>n0&#45;&gt;n1</title>
<path fill="none" stroke="black" d="M405.842,-553.497C522.942,-548.288 898.24,-529.714 1015.6,-500.997 1019.47,-500.05 1023.44,-498.802 1027.33,-497.404"/>
<polygon fill="black" stroke="black" points="405.482,-550.01 395.645,-553.946 405.789,-557.003 405.482,-550.01"/>
<polygon fill="black" stroke="black" points="1028.71,-500.623 1036.73,-493.703 1026.14,-494.109 1028.71,-500.623"/>
</g>
<!-- n2 -->
<g id="node3" class="node"><title>n2</title>
<ellipse fill="#ff34b3" stroke="#ff34b3" cx="835.597" cy="-200.833" rx="28.6953" ry="18"/>
<text text-anchor="middle" x="835.597" y="-197.133" font-family="Times,serif" font-size="14.00">ttyqa</text>
</g>
<!-- n0&#45;&gt;n2 -->
<g id="edge2" class="edge"><title>n0&#45;&gt;n2</title>
<path fill="none" stroke="black" d="M405.816,-551.551C514.052,-541.23 834.802,-506.249 897.597,-426.997 906.652,-415.569 906.713,-290.966 895.597,-267.666 886.941,-249.521 870.638,-234.529 856.732,-223.459"/>
<polygon fill="black" stroke="black" points="405.355,-548.079 395.727,-552.5 406.011,-555.048 405.355,-548.079"/>
<polygon fill="black" stroke="black" points="858.527,-220.423 848.474,-217.08 854.248,-225.963 858.527,-220.423"/>
</g>
<!-- n0&#45;&gt;n2 -->
<g id="edge3" class="edge"><title>n0&#45;&gt;n2</title>
<path fill="none" stroke="black" d="M405.884,-552.263C516.234,-542.912 851.269,-508.185 915.597,-426.997 924.652,-415.569 924.713,-290.966 913.597,-267.666 903.527,-246.556 883.105,-229.713 865.684,-218.349"/>
<polygon fill="black" stroke="black" points="405.302,-548.799 395.625,-553.113 405.88,-555.775 405.302,-548.799"/>
<polygon fill="black" stroke="black" points="867.261,-215.209 856.918,-212.913 863.572,-221.158 867.261,-215.209"/>
</g>
<!-- n0&#45;&gt;n2 -->
<g id="edge4" class="edge"><title>n0&#45;&gt;n2</title>
<path fill="none" stroke="black" d="M406.021,-552.83C519.729,-544.382 867.888,-509.927 933.597,-426.997 942.652,-415.569 942.713,-290.966 931.597,-267.666 919.728,-242.785 893.481,-223.833 870.674,-212.792"/>
<polygon fill="black" stroke="black" points="405.489,-549.359 395.766,-553.567 405.991,-556.341 405.489,-549.359"/>
<polygon fill="black" stroke="black" points="872.047,-209.572 861.489,-208.684 869.189,-215.962 872.047,-209.572"/>
</g>
<!-- n448 -->
<g id="node4" class="node"><title>n448</title>
<polygon fill="lightblue" stroke="lightblue" points="327.597,-500.997 277.597,-500.997 277.597,-462.997 327.597,-462.997 327.597,-500.997"/>
<text text-anchor="middle" x="302.597" y="-485.797" font-family="Times,serif" font-size="14.00">21079</text>
<text text-anchor="middle" x="302.597" y="-470.797" font-family="Times,serif" font-size="14.00">lefty</text>
</g>
<!-- n0&#45;&gt;n448 -->
<g id="edge5" class="edge"><title>n0&#45;&gt;n448</title>
<path fill="none" stroke="black" stroke-dasharray="1,5" d="M353.438,-536.828C345.446,-528.366 335.794,-518.146 327.056,-508.894"/>
<polygon fill="black" stroke="black" points="329.399,-506.277 319.988,-501.41 324.309,-511.084 329.399,-506.277"/>
</g>
<!-- n464 -->
<g id="node10" class="node"><title>n464</title>
<polygon fill="lightblue" stroke="lightblue" points="395.597,-500.997 345.597,-500.997 345.597,-462.997 395.597,-462.997 395.597,-500.997"/>
<text text-anchor="middle" x="370.597" y="-485.797" font-family="Times,serif" font-size="14.00">21086</text>
<text text-anchor="middle" x="370.597" y="-470.797" font-family="Times,serif" font-size="14.00">ldbx</text>
</g>
<!-- n0&#45;&gt;n464 -->
<g id="edge22" class="edge"><title>n0&#45;&gt;n464</title>
<path fill="none" stroke="black" stroke-dasharray="1,5" d="M370.597,-536.828C370.597,-529.128 370.597,-519.971 370.597,-511.414"/>
<polygon fill="black" stroke="black" points="374.098,-511.41 370.597,-501.41 367.098,-511.41 374.098,-511.41"/>
</g>
<!-- n448&#45;&gt;n2 -->
<g id="edge6" class="edge"><title>n448&#45;&gt;n2</title>
<path fill="none" stroke="black" d="M328.395,-459.547C403.871,-435.4 737.413,-363.868 773.597,-329.331 801.959,-302.26 812.043,-256.059 820.663,-227.333"/>
<polygon fill="black" stroke="black" points="327.166,-456.269 318.887,-462.88 329.482,-462.875 327.166,-456.269"/>
<polygon fill="black" stroke="black" points="824.061,-228.199 823.803,-217.608 817.399,-226.048 824.061,-228.199"/>
</g>
<!-- n448&#45;&gt;n2 -->
<g id="edge7" class="edge"><title>n448&#45;&gt;n2</title>
<path fill="none" stroke="black" d="M337.519,-463.355C417.81,-436.27 755.193,-364.078 791.597,-329.331 819.384,-302.809 829.627,-257.925 833.4,-229.101"/>
<polygon fill="black" stroke="black" points="336.133,-460.135 327.954,-466.868 338.547,-466.705 336.133,-460.135"/>
<polygon fill="black" stroke="black" points="836.906,-229.242 834.553,-218.912 829.951,-228.455 836.906,-229.242"/>
</g>
<!-- n448&#45;&gt;n2 -->
<g id="edge8" class="edge"><title>n448&#45;&gt;n2</title>
<path fill="none" stroke="black" d="M337.29,-470.894C343.272,-468.111 349.076,-465.243 354.597,-462.997 403.406,-443.144 771.481,-365.712 809.597,-329.331 837.685,-302.523 847.846,-256.952 846.629,-228.172"/>
<polygon fill="black" stroke="black" points="335.499,-467.858 327.761,-475.096 338.323,-474.263 335.499,-467.858"/>
<polygon fill="black" stroke="black" points="850.093,-227.641 845.619,-218.038 843.128,-228.336 850.093,-227.641"/>
</g>
<!-- n449 -->
<g id="node5" class="node"><title>n449</title>
<ellipse fill="#ff34b3" stroke="#ff34b3" cx="532.597" cy="-298.498" rx="45.4919" ry="18"/>
<text text-anchor="middle" x="532.597" y="-294.798" font-family="Times,serif" font-size="14.00">tried.lefty</text>
</g>
<!-- n448&#45;&gt;n449 -->
<g id="edge9" class="edge"><title>n448&#45;&gt;n449</title>
<path fill="none" stroke="black" d="M336.642,-462.983C366.264,-447.307 404.499,-427.07 404.597,-426.997 451.054,-392.755 496.854,-341.87 518.942,-315.956"/>
<polygon fill="black" stroke="black" points="334.978,-459.903 327.777,-467.674 338.252,-466.09 334.978,-459.903"/>
</g>
<!-- n454 -->
<g id="node6" class="node"><title>n454</title>
<ellipse fill="green" stroke="green" cx="761.597" cy="-396.164" rx="26.6881" ry="26.6881"/>
<ellipse fill="none" stroke="green" cx="761.597" cy="-396.164" rx="30.6665" ry="30.6665"/>
<text text-anchor="middle" x="761.597" y="-398.564" font-family="Times,serif" font-size="7.00">bunting</text>
<text text-anchor="middle" x="761.597" y="-390.564" font-family="Times,serif" font-size="7.00">6000</text>
</g>
<!-- n448&#45;&gt;n454 -->
<g id="edge10" class="edge"><title>n448&#45;&gt;n454</title>
<path fill="none" stroke="black" d="M337.669,-463.403C501.412,-417.031 559.784,-482.457 716.597,-426.997 720.674,-425.555 724.742,-423.665 728.672,-421.534"/>
<polygon fill="black" stroke="black" points="336.368,-460.137 327.757,-466.309 338.337,-466.854 336.368,-460.137"/>
<polygon fill="black" stroke="black" points="730.755,-424.366 737.534,-416.223 727.157,-418.362 730.755,-424.366"/>
</g>
<!-- n460 -->
<g id="node7" class="node"><title>n460</title>
<ellipse fill="yellow" stroke="yellow" cx="157.597" cy="-298.498" rx="18" ry="18"/>
<ellipse fill="none" stroke="yellow" cx="157.597" cy="-298.498" rx="22" ry="22"/>
</g>
<!-- n448&#45;&gt;n460 -->
<g id="edge11" class="edge"><title>n448&#45;&gt;n460</title>
<path fill="none" stroke="black" d="M281.75,-454.902C251.484,-417.018 196.236,-347.863 170.916,-316.17"/>
<polygon fill="black" stroke="black" points="279.188,-457.302 288.164,-462.931 284.657,-452.933 279.188,-457.302"/>
</g>
<!-- n461 -->
<g id="node8" class="node"><title>n461</title>
<ellipse fill="yellow" stroke="yellow" cx="95.5975" cy="-298.498" rx="18" ry="18"/>
<ellipse fill="none" stroke="yellow" cx="95.5975" cy="-298.498" rx="22" ry="22"/>
</g>
<!-- n448&#45;&gt;n461 -->
<g id="edge12" class="edge"><title>n448&#45;&gt;n461</title>
<path fill="none" stroke="black" d="M277.547,-469.191C258.007,-459.357 230.73,-444.214 209.597,-426.997 171.792,-396.196 135.577,-352.443 114.47,-325.032"/>
<polygon fill="black" stroke="black" points="117.005,-322.583 108.165,-316.743 111.433,-326.821 117.005,-322.583"/>
</g>
<!-- n462 -->
<g id="node9" class="node"><title>n462</title>
<polygon fill="lightblue" stroke="lightblue" points="327.597,-415.164 277.597,-415.164 277.597,-377.164 327.597,-377.164 327.597,-415.164"/>
<text text-anchor="middle" x="302.597" y="-399.964" font-family="Times,serif" font-size="14.00">21084</text>
<text text-anchor="middle" x="302.597" y="-384.964" font-family="Times,serif" font-size="14.00">tried</text>
</g>
<!-- n448&#45;&gt;n462 -->
<g id="edge13" class="edge"><title>n448&#45;&gt;n462</title>
<path fill="none" stroke="black" stroke-dasharray="1,5" d="M302.597,-462.806C302.597,-451.931 302.597,-437.877 302.597,-425.566"/>
<polygon fill="black" stroke="black" points="306.098,-425.319 302.597,-415.319 299.098,-425.319 306.098,-425.319"/>
</g>
<!-- n462&#45;&gt;n2 -->
<g id="edge14" class="edge"><title>n462&#45;&gt;n2</title>
<path fill="none" stroke="black" d="M312.017,-370.208C314.169,-368.498 316.391,-366.852 318.597,-365.331 346.752,-345.922 358.198,-348.38 386.597,-329.331 422.152,-305.484 421.384,-284.845 460.597,-267.666 572.695,-218.555 614.611,-260.303 733.597,-231.666 755.35,-226.43 779.324,-217.593 799.315,-210.893"/>
<polygon fill="black" stroke="black" points="309.476,-367.78 304.247,-376.994 314.081,-373.052 309.476,-367.78"/>
<polygon fill="black" stroke="black" points="800.655,-214.137 809.076,-207.707 798.483,-207.482 800.655,-214.137"/>
</g>
<!-- n462&#45;&gt;n2 -->
<g id="edge15" class="edge"><title>n462&#45;&gt;n2</title>
<path fill="none" stroke="black" d="M329.504,-370.575C331.851,-368.734 334.234,-366.961 336.597,-365.331 364.752,-345.922 376.198,-348.38 404.597,-329.331 440.152,-305.484 439.384,-284.845 478.597,-267.666 590.695,-218.555 632.611,-260.303 751.597,-231.666 768.877,-227.507 787.558,-221.076 802.906,-215.248"/>
<polygon fill="black" stroke="black" points="327.216,-367.926 321.737,-376.994 331.675,-373.322 327.216,-367.926"/>
<polygon fill="black" stroke="black" points="804.408,-218.419 812.461,-211.535 801.873,-211.894 804.408,-218.419"/>
</g>
<!-- n462&#45;&gt;n2 -->
<g id="edge16" class="edge"><title>n462&#45;&gt;n2</title>
<path fill="none" stroke="black" d="M336.396,-379.189C342.569,-374.452 348.641,-369.437 354.597,-365.331 382.752,-345.922 394.198,-348.38 422.597,-329.331 458.152,-305.484 457.384,-284.845 496.597,-267.666 608.695,-218.555 650.611,-260.303 769.597,-231.666 782.88,-228.469 796.991,-223.929 809.042,-219.353"/>
<polygon fill="black" stroke="black" points="333.94,-376.648 327.919,-385.365 338.062,-382.305 333.94,-376.648"/>
<polygon fill="black" stroke="black" points="810.627,-222.488 818.616,-215.529 808.031,-215.988 810.627,-222.488"/>
</g>
<!-- n462&#45;&gt;n449 -->
<g id="edge17" class="edge"><title>n462&#45;&gt;n449</title>
<path fill="none" stroke="black" d="M328.047,-370.722C330.813,-368.723 333.685,-366.879 336.597,-365.331 392.187,-335.781 414.734,-351.66 473.597,-329.331 485.081,-324.975 497.272,-319.049 507.573,-313.626"/>
<polygon fill="black" stroke="black" points="325.755,-368.074 320.13,-377.052 330.126,-373.541 325.755,-368.074"/>
</g>
<!-- n462&#45;&gt;n460 -->
<g id="edge18" class="edge"><title>n462&#45;&gt;n460</title>
<path fill="none" stroke="black" d="M277.53,-385.019C252.802,-372.728 215.056,-350.968 184.597,-329.331 182.178,-327.613 179.715,-325.776 177.297,-323.891"/>
<polygon fill="black" stroke="black" points="179.327,-321.029 169.376,-317.392 174.887,-326.441 179.327,-321.029"/>
</g>
<!-- n462&#45;&gt;n460 -->
<g id="edge20" class="edge"><title>n462&#45;&gt;n460</title>
<path fill="none" stroke="black" d="M277.462,-377.084C256.769,-364.492 227.288,-346.871 202.597,-329.331 196.818,-325.225 190.791,-320.448 185.002,-315.936"/>
<polygon fill="black" stroke="black" points="186.815,-312.917 176.745,-309.624 182.564,-318.478 186.815,-312.917"/>
</g>
<!-- n462&#45;&gt;n461 -->
<g id="edge19" class="edge"><title>n462&#45;&gt;n461</title>
<path fill="none" stroke="black" d="M267.643,-388.307C228.629,-378.805 165.236,-359.336 117.597,-329.331 112.921,-326.386 108.357,-322.65 104.45,-318.828"/>
<polygon fill="black" stroke="black" points="266.955,-391.74 277.49,-390.616 268.553,-384.925 266.955,-391.74"/>
</g>
<!-- n462&#45;&gt;n461 -->
<g id="edge21" class="edge"><title>n462&#45;&gt;n461</title>
<path fill="none" stroke="black" d="M267.576,-384.668C232.382,-374.229 177.806,-355.916 135.597,-329.331 127.887,-324.475 120.485,-317.472 113.875,-311.471"/>
<polygon fill="black" stroke="black" points="266.821,-388.093 277.401,-387.529 268.778,-381.373 266.821,-388.093"/>
</g>
<!-- n464&#45;&gt;n2 -->
<g id="edge23" class="edge"><title>n464&#45;&gt;n2</title>
<path fill="none" stroke="black" d="M405.953,-479.567C512.919,-475.309 824.195,-460.845 854.597,-426.997 904.662,-371.258 860.561,-274.987 841.361,-228.492"/>
<polygon fill="black" stroke="black" points="405.53,-476.08 395.675,-479.97 405.804,-483.075 405.53,-476.08"/>
<polygon fill="black" stroke="black" points="844.561,-227.069 837.584,-219.097 838.067,-229.68 844.561,-227.069"/>
</g>
<!-- n464&#45;&gt;n2 -->
<g id="edge24" class="edge"><title>n464&#45;&gt;n2</title>
<path fill="none" stroke="black" d="M405.827,-479.872C514.873,-476.033 841.42,-461.708 872.597,-426.997 923.367,-370.473 877.3,-272.267 850.996,-226.557"/>
<polygon fill="black" stroke="black" points="405.55,-476.38 395.676,-480.221 405.79,-483.376 405.55,-476.38"/>
<polygon fill="black" stroke="black" points="853.976,-224.72 845.879,-217.888 847.948,-228.278 853.976,-224.72"/>
</g>
<!-- n464&#45;&gt;n2 -->
<g id="edge25" class="edge"><title>n464&#45;&gt;n2</title>
<path fill="none" stroke="black" d="M406.068,-480.105C518.705,-476.639 858.75,-462.453 890.597,-426.997 942.574,-369.13 893.056,-267.575 859.034,-223.388"/>
<polygon fill="black" stroke="black" points="405.788,-476.612 395.896,-480.408 405.996,-483.609 405.788,-476.612"/>
<polygon fill="black" stroke="black" points="861.71,-221.13 852.681,-215.586 856.282,-225.55 861.71,-221.13"/>
</g>
<!-- n466 -->
<g id="node11" class="node"><title>n466</title>
<ellipse fill="#ff34b3" stroke="#ff34b3" cx="836.597" cy="-396.164" rx="26.7961" ry="18"/>
<text text-anchor="middle" x="836.597" y="-392.464" font-family="Times,serif" font-size="14.00">ldbx</text>
</g>
<!-- n464&#45;&gt;n466 -->
<g id="edge26" class="edge"><title>n464&#45;&gt;n466</title>
<path fill="none" stroke="black" d="M405.835,-479.181C495.575,-474.148 730.649,-458.278 801.597,-426.997 809.488,-423.518 816.95,-417.665 822.941,-412.06"/>
<polygon fill="black" stroke="black" points="405.425,-475.699 395.632,-479.742 405.809,-482.688 405.425,-475.699"/>
</g>
<!-- n468 -->
<g id="node12" class="node"><title>n468</title>
<polygon fill="lightblue" stroke="lightblue" points="395.597,-415.164 345.597,-415.164 345.597,-377.164 395.597,-377.164 395.597,-415.164"/>
<text text-anchor="middle" x="370.597" y="-399.964" font-family="Times,serif" font-size="14.00">21087</text>
<text text-anchor="middle" x="370.597" y="-384.964" font-family="Times,serif" font-size="14.00">lefty</text>
</g>
<!-- n464&#45;&gt;n468 -->
<g id="edge27" class="edge"><title>n464&#45;&gt;n468</title>
<path fill="none" stroke="black" stroke-dasharray="1,5" d="M370.597,-462.806C370.597,-451.931 370.597,-437.877 370.597,-425.566"/>
<polygon fill="black" stroke="black" points="374.098,-425.319 370.597,-415.319 367.098,-425.319 374.098,-425.319"/>
</g>
<!-- n468&#45;&gt;n2 -->
<g id="edge28" class="edge"><title>n468&#45;&gt;n2</title>
<path fill="none" stroke="black" d="M405.756,-391.641C484.961,-383.724 673.949,-362.573 728.597,-329.331 769.491,-304.457 799.565,-255.715 817.673,-226.231"/>
<polygon fill="black" stroke="black" points="405.382,-388.161 395.774,-392.628 406.07,-395.127 405.382,-388.161"/>
<polygon fill="black" stroke="black" points="820.857,-227.738 823.131,-217.39 814.9,-224.061 820.857,-227.738"/>
</g>
<!-- n468&#45;&gt;n2 -->
<g id="edge29" class="edge"><title>n468&#45;&gt;n2</title>
<path fill="none" stroke="black" d="M405.814,-392.499C488.175,-385.338 689.84,-363.855 746.597,-329.331 786.457,-305.086 816.037,-258.165 829.27,-228.504"/>
<polygon fill="black" stroke="black" points="405.362,-389.025 395.694,-393.358 405.954,-395.999 405.362,-389.025"/>
<polygon fill="black" stroke="black" points="832.545,-229.744 833.122,-219.165 826.073,-227.075 832.545,-229.744"/>
</g>
<!-- n469 -->
<g id="node13" class="node"><title>n469</title>
<ellipse fill="#ff34b3" stroke="#ff34b3" cx="695.597" cy="-200.833" rx="47.3916" ry="18"/>
<text text-anchor="middle" x="695.597" y="-197.133" font-family="Times,serif" font-size="14.00">sh21086.1</text>
</g>
<!-- n468&#45;&gt;n469 -->
<g id="edge30" class="edge"><title>n468&#45;&gt;n469</title>
<path fill="none" stroke="black" d="M405.792,-392.001C476.038,-384.969 630.04,-365.713 666.597,-329.331 696.364,-299.707 698.253,-246.315 697.012,-218.978"/>
<polygon fill="black" stroke="black" points="405.276,-388.535 395.663,-392.988 405.955,-395.502 405.276,-388.535"/>
</g>
<!-- n474 -->
<g id="node14" class="node"><title>n474</title>
<ellipse fill="green" stroke="green" cx="626.597" cy="-298.498" rx="26.6881" ry="26.6881"/>
<ellipse fill="none" stroke="green" cx="626.597" cy="-298.498" rx="30.6665" ry="30.6665"/>
<text text-anchor="middle" x="626.597" y="-300.898" font-family="Times,serif" font-size="7.00">bunting</text>
<text text-anchor="middle" x="626.597" y="-292.898" font-family="Times,serif" font-size="7.00">6000</text>
</g>
<!-- n468&#45;&gt;n474 -->
<g id="edge31" class="edge"><title>n468&#45;&gt;n474</title>
<path fill="none" stroke="black" d="M405.519,-388.415C449.431,-379.067 526.36,-359.803 586.597,-329.331 589.368,-327.93 592.147,-326.336 594.878,-324.631"/>
<polygon fill="black" stroke="black" points="404.699,-385.01 395.621,-390.472 406.124,-391.864 404.699,-385.01"/>
<polygon fill="black" stroke="black" points="597.032,-327.399 603.366,-318.906 593.118,-321.596 597.032,-327.399"/>
</g>
<!-- n479 -->
<g id="node15" class="node"><title>n479</title>
<ellipse fill="#ff34b3" stroke="#ff34b3" cx="705.597" cy="-38" rx="44.6926" ry="18"/>
<text text-anchor="middle" x="705.597" y="-34.3" font-family="Times,serif" font-size="14.00">ldbx.lefty</text>
</g>
<!-- n468&#45;&gt;n479 -->
<g id="edge32" class="edge"><title>n468&#45;&gt;n479</title>
<path fill="none" stroke="black" d="M405.612,-383.361C424.418,-377.341 448.093,-370.268 469.597,-365.331 568.302,-342.671 611.047,-386.562 694.597,-329.331 715.329,-315.13 745.037,-255.923 751.597,-231.666 758.753,-205.209 756.203,-197.017 751.597,-170 744.347,-127.467 724.746,-80.3667 713.611,-55.8811"/>
<polygon fill="black" stroke="black" points="404.416,-380.07 395.986,-386.487 406.578,-386.728 404.416,-380.07"/>
</g>
<!-- n482 -->
<g id="node16" class="node"><title>n482</title>
<ellipse fill="yellow" stroke="yellow" cx="193.597" cy="-200.833" rx="18" ry="18"/>
<ellipse fill="none" stroke="yellow" cx="193.597" cy="-200.833" rx="22" ry="22"/>
</g>
<!-- n468&#45;&gt;n482 -->
<g id="edge33" class="edge"><title>n468&#45;&gt;n482</title>
<path fill="none" stroke="black" d="M344.058,-370.43C341.612,-368.6 339.107,-366.871 336.597,-365.331 299.878,-342.8 276.7,-360.15 246.597,-329.331 226.158,-308.406 234.78,-294.695 223.597,-267.666 217.019,-251.765 208.89,-234.029 202.754,-220.976"/>
<polygon fill="black" stroke="black" points="342.098,-373.346 352.076,-376.909 346.498,-367.902 342.098,-373.346"/>
</g>
<!-- n483 -->
<g id="node17" class="node"><title>n483</title>
<ellipse fill="yellow" stroke="yellow" cx="255.597" cy="-200.833" rx="18" ry="18"/>
<ellipse fill="none" stroke="yellow" cx="255.597" cy="-200.833" rx="22" ry="22"/>
</g>
<!-- n468&#45;&gt;n483 -->
<g id="edge34" class="edge"><title>n468&#45;&gt;n483</title>
<path fill="none" stroke="black" d="M351.458,-376.994C346.767,-372.935 341.641,-368.808 336.597,-365.331 308.443,-345.922 287.701,-357.694 268.597,-329.331 249.504,-300.984 248.644,-260.75 251.01,-233.101"/>
<polygon fill="black" stroke="black" points="254.526,-233.123 252.087,-222.813 247.564,-232.394 254.526,-233.123"/>
</g>
<!-- n484 -->
<g id="node18" class="node"><title>n484</title>
<polygon fill="lightblue" stroke="lightblue" points="327.597,-317.498 277.597,-317.498 277.597,-279.498 327.597,-279.498 327.597,-317.498"/>
<text text-anchor="middle" x="302.597" y="-302.298" font-family="Times,serif" font-size="14.00">21088</text>
<text text-anchor="middle" x="302.597" y="-287.298" font-family="Times,serif" font-size="14.00">dot</text>
</g>
<!-- n468&#45;&gt;n484 -->
<g id="edge35" class="edge"><title>n468&#45;&gt;n484</title>
<path fill="none" stroke="black" stroke-dasharray="1,5" d="M357.486,-376.719C347.261,-362.334 332.921,-342.159 321.463,-326.039"/>
<polygon fill="black" stroke="black" points="324.084,-323.686 315.438,-317.563 318.379,-327.741 324.084,-323.686"/>
</g>
<!-- n486 -->
<g id="node19" class="node"><title>n486</title>
<ellipse fill="yellow" stroke="yellow" cx="317.597" cy="-38" rx="18" ry="18"/>
<ellipse fill="none" stroke="yellow" cx="317.597" cy="-38" rx="22" ry="22"/>
</g>
<!-- n468&#45;&gt;n486 -->
<g id="edge40" class="edge"><title>n468&#45;&gt;n486</title>
<path fill="none" stroke="black" d="M344.614,-370.548C342.004,-368.642 339.313,-366.866 336.597,-365.331 290.707,-339.402 260.965,-366.505 223.597,-329.331 203.171,-309.011 219.434,-291.736 203.597,-267.666 190.269,-247.407 172.599,-253.757 162.597,-231.666 151.294,-206.698 151.059,-194.86 162.597,-170 177.32,-138.281 262.402,-76.9901 299.879,-51.0572"/>
<polygon fill="black" stroke="black" points="342.605,-373.424 352.598,-376.943 346.981,-367.96 342.605,-373.424"/>
</g>
<!-- n487 -->
<g id="node20" class="node"><title>n487</title>
<ellipse fill="yellow" stroke="yellow" cx="255.597" cy="-38" rx="18" ry="18"/>
<ellipse fill="none" stroke="yellow" cx="255.597" cy="-38" rx="22" ry="22"/>
</g>
<!-- n468&#45;&gt;n487 -->
<g id="edge41" class="edge"><title>n468&#45;&gt;n487</title>
<path fill="none" stroke="black" d="M353.05,-377.081C348.07,-372.733 342.411,-368.449 336.597,-365.331 282.631,-336.388 246.339,-373.187 203.597,-329.331 183.911,-309.132 202.747,-292.066 188.597,-267.666 176.927,-247.54 159.79,-253.037 150.597,-231.666 122.422,-166.162 191.588,-93.4426 230.808,-59.0807"/>
<polygon fill="black" stroke="black" points="233.355,-61.508 238.677,-52.3469 228.803,-56.1896 233.355,-61.508"/>
</g>
<!-- n488 -->
<g id="node21" class="node"><title>n488</title>
<polygon fill="lightblue" stroke="lightblue" points="395.597,-317.498 345.597,-317.498 345.597,-279.498 395.597,-279.498 395.597,-317.498"/>
<text text-anchor="middle" x="370.597" y="-302.298" font-family="Times,serif" font-size="14.00">21089</text>
<text text-anchor="middle" x="370.597" y="-287.298" font-family="Times,serif" font-size="14.00">xterm</text>
</g>
<!-- n468&#45;&gt;n488 -->
<g id="edge42" class="edge"><title>n468&#45;&gt;n488</title>
<path fill="none" stroke="black" stroke-dasharray="1,5" d="M370.597,-376.719C370.597,-362.867 370.597,-343.646 370.597,-327.846"/>
<polygon fill="black" stroke="black" points="374.098,-327.563 370.597,-317.563 367.098,-327.563 374.098,-327.563"/>
</g>
<!-- n484&#45;&gt;n2 -->
<g id="edge36" class="edge"><title>n484&#45;&gt;n2</title>
<path fill="none" stroke="black" d="M327.116,-272.985C330.137,-270.904 333.32,-269.064 336.597,-267.666 506.876,-194.996 570.679,-270.964 751.597,-231.666 768.965,-227.893 787.655,-221.501 802.986,-215.6"/>
<polygon fill="black" stroke="black" points="324.772,-270.377 319.095,-279.322 329.112,-275.87 324.772,-270.377"/>
<polygon fill="black" stroke="black" points="804.517,-218.758 812.528,-211.825 801.942,-212.249 804.517,-218.758"/>
</g>
<!-- n484&#45;&gt;n479 -->
<g id="edge38" class="edge"><title>n484&#45;&gt;n479</title>
<path fill="none" stroke="black" d="M330.604,-272.667C332.619,-270.96 334.632,-269.278 336.597,-267.666 356.942,-250.979 364.392,-249.651 383.597,-231.666 410.188,-206.764 408.17,-191.475 437.597,-170 470.078,-146.298 487.822,-157.293 520.597,-134 539.313,-120.699 536.552,-108.825 555.597,-96 593.395,-70.5486 609.029,-76.2583 651.597,-60 659.021,-57.1647 667.005,-54.0795 674.497,-51.1686"/>
<polygon fill="black" stroke="black" points="328.203,-270.116 322.904,-279.291 332.768,-275.422 328.203,-270.116"/>
</g>
<!-- n484&#45;&gt;n482 -->
<g id="edge39" class="edge"><title>n484&#45;&gt;n482</title>
<path fill="none" stroke="black" d="M280.416,-279.429C264.624,-266.408 243.024,-248.276 224.597,-231.666 221.827,-229.168 218.958,-226.51 216.134,-223.849"/>
<polygon fill="black" stroke="black" points="218.512,-221.28 208.863,-216.905 213.678,-226.343 218.512,-221.28"/>
</g>
<!-- n484&#45;&gt;n483 -->
<g id="edge37" class="edge"><title>n484&#45;&gt;n483</title>
<path fill="none" stroke="black" d="M288.997,-269.815C281.285,-254.118 271.832,-234.877 264.953,-220.876"/>
<polygon fill="black" stroke="black" points="285.984,-271.621 293.535,-279.053 292.267,-268.534 285.984,-271.621"/>
</g>
<!-- n488&#45;&gt;n2 -->
<g id="edge44" class="edge"><title>n488&#45;&gt;n2</title>
<path fill="none" stroke="black" d="M389.501,-273.434C393.029,-271.185 396.786,-269.183 400.597,-267.666 542.595,-211.125 593.545,-265.477 742.597,-231.666 762.153,-227.23 783.431,-219.642 800.846,-213.229"/>
<polygon fill="black" stroke="black" points="387.327,-270.688 381.302,-279.403 391.446,-276.347 387.327,-270.688"/>
<polygon fill="black" stroke="black" points="802.443,-216.37 810.611,-209.622 800.018,-209.804 802.443,-216.37"/>
</g>
<!-- n488&#45;&gt;n2 -->
<g id="edge47" class="edge"><title>n488&#45;&gt;n2</title>
<path fill="none" stroke="black" d="M403.865,-275.696C408.596,-272.535 413.549,-269.676 418.597,-267.666 560.595,-211.125 611.545,-265.477 760.597,-231.666 775.9,-228.194 792.257,-222.793 805.874,-217.535"/>
<polygon fill="black" stroke="black" points="401.717,-272.929 395.618,-281.592 405.788,-278.623 401.717,-272.929"/>
<polygon fill="black" stroke="black" points="807.281,-220.742 815.251,-213.762 804.668,-214.248 807.281,-220.742"/>
</g>
<!-- n488&#45;&gt;n469 -->
<g id="edge46" class="edge"><title>n488&#45;&gt;n469</title>
<path fill="none" stroke="black" d="M398.763,-273.468C402.263,-271.246 405.911,-269.242 409.597,-267.666 504.73,-226.981 541.461,-264.446 639.597,-231.666 650.777,-227.931 662.394,-222.107 672.13,-216.592"/>
<polygon fill="black" stroke="black" points="396.606,-270.706 390.433,-279.318 400.628,-276.435 396.606,-270.706"/>
</g>
<!-- n488&#45;&gt;n479 -->
<g id="edge48" class="edge"><title>n488&#45;&gt;n479</title>
<path fill="none" stroke="black" d="M395.775,-272.422C397.405,-270.81 399.023,-269.214 400.597,-267.666 416.954,-251.576 422.746,-249.155 437.597,-231.666 459.224,-206.197 455.144,-191.645 480.597,-170 508.765,-146.048 523.257,-151.922 555.597,-134 602.511,-108.002 654.948,-73.4571 683.727,-53.9945"/>
<polygon fill="black" stroke="black" points="393.29,-269.957 388.651,-279.482 398.217,-274.929 393.29,-269.957"/>
</g>
<!-- n488&#45;&gt;n486 -->
<g id="edge43" class="edge"><title>n488&#45;&gt;n486</title>
<path fill="none" stroke="black" d="M378.365,-279.093C387.996,-253.281 401.13,-205.513 383.597,-170 371.95,-146.406 350.514,-156.331 336.597,-134 324.739,-114.97 320.078,-89.9973 318.335,-70.4321"/>
<polygon fill="black" stroke="black" points="321.809,-69.9307 317.64,-60.1909 314.825,-70.4051 321.809,-69.9307"/>
</g>
<!-- n488&#45;&gt;n487 -->
<g id="edge45" class="edge"><title>n488&#45;&gt;n487</title>
<path fill="none" stroke="black" d="M343.156,-272.002C328.198,-257.593 311.712,-240.703 306.597,-231.666 298.033,-216.534 271.478,-106.391 260.462,-59.7625"/>
<polygon fill="black" stroke="black" points="341.116,-274.893 350.77,-279.257 345.944,-269.825 341.116,-274.893"/>
</g>
<!-- n496 -->
<g id="node22" class="node"><title>n496</title>
<ellipse fill="green" stroke="green" cx="599.597" cy="-200.833" rx="26.6881" ry="26.6881"/>
<ellipse fill="none" stroke="green" cx="599.597" cy="-200.833" rx="30.6665" ry="30.6665"/>
<text text-anchor="middle" x="599.597" y="-203.233" font-family="Times,serif" font-size="7.00">bunting</text>
<text text-anchor="middle" x="599.597" y="-195.233" font-family="Times,serif" font-size="7.00">6000</text>
</g>
<!-- n488&#45;&gt;n496 -->
<g id="edge49" class="edge"><title>n488&#45;&gt;n496</title>
<path fill="none" stroke="black" d="M399.428,-273.408C402.738,-271.268 406.161,-269.298 409.597,-267.666 471.914,-238.06 498.281,-261.272 560.597,-231.666 563.196,-230.431 565.788,-229.003 568.328,-227.455"/>
<polygon fill="black" stroke="black" points="397.151,-270.731 390.997,-279.355 401.186,-276.451 397.151,-270.731"/>
<polygon fill="black" stroke="black" points="570.355,-230.31 576.709,-221.832 566.455,-224.497 570.355,-230.31"/>
</g>
<!-- n500 -->
<g id="node23" class="node"><title>n500</title>
<ellipse fill="#ff34b3" stroke="#ff34b3" cx="520.597" cy="-200.833" rx="30.5947" ry="18"/>
<text text-anchor="middle" x="520.597" y="-197.133" font-family="Times,serif" font-size="14.00">ptyq2</text>
</g>
<!-- n488&#45;&gt;n500 -->
<g id="edge50" class="edge"><title>n488&#45;&gt;n500</title>
<path fill="none" stroke="black" d="M401.365,-273.282C404.112,-271.329 406.881,-269.43 409.597,-267.666 437.616,-249.462 446.98,-248.913 475.597,-231.666 481.287,-228.236 487.276,-224.419 492.962,-220.692"/>
<polygon fill="black" stroke="black" points="399.257,-270.487 393.269,-279.228 403.401,-276.129 399.257,-270.487"/>
<polygon fill="black" stroke="black" points="495.169,-223.427 501.561,-214.977 491.295,-217.597 495.169,-223.427"/>
</g>
<!-- n503 -->
<g id="node24" class="node"><title>n503</title>
<polygon fill="lightblue" stroke="lightblue" points="375.097,-219.833 316.097,-219.833 316.097,-181.833 375.097,-181.833 375.097,-219.833"/>
<text text-anchor="middle" x="345.597" y="-204.633" font-family="Times,serif" font-size="14.00">21090</text>
<text text-anchor="middle" x="345.597" y="-189.633" font-family="Times,serif" font-size="14.00">ldbxmp</text>
</g>
<!-- n488&#45;&gt;n503 -->
<g id="edge51" class="edge"><title>n488&#45;&gt;n503</title>
<path fill="none" stroke="black" stroke-dasharray="1,5" d="M365.777,-279.053C362.122,-265.068 357.038,-245.61 352.887,-229.726"/>
<polygon fill="black" stroke="black" points="356.233,-228.687 350.318,-219.897 349.46,-230.457 356.233,-228.687"/>
</g>
<!-- n503&#45;&gt;n479 -->
<g id="edge52" class="edge"><title>n503&#45;&gt;n479</title>
<path fill="none" stroke="black" d="M384.544,-181.714C424.045,-163.288 480.019,-137.02 484.597,-134 505.888,-119.958 505.254,-108.298 527.597,-96 577.872,-68.3288 597.247,-78.4178 651.597,-60 659.314,-57.385 667.554,-54.3225 675.213,-51.3574"/>
<polygon fill="black" stroke="black" points="382.981,-178.581 375.397,-185.979 385.939,-184.926 382.981,-178.581"/>
</g>
<!-- n503&#45;&gt;n486 -->
<g id="edge53" class="edge"><title>n503&#45;&gt;n486</title>
<path fill="none" stroke="black" d="M329.793,-181.822C322.779,-168.828 315.911,-150.706 312.597,-134 308.335,-112.514 307.417,-87.7776 308.774,-68.9335"/>
<polygon fill="black" stroke="black" points="312.269,-69.1602 309.792,-58.8591 305.305,-68.4567 312.269,-69.1602"/>
</g>
<!-- n503&#45;&gt;n486 -->
<g id="edge64" class="edge"><title>n503&#45;&gt;n486</title>
<path fill="none" stroke="black" d="M344.849,-181.822C340.779,-168.828 333.911,-150.706 330.597,-134 326.362,-112.65 325.429,-88.0906 324.289,-69.292"/>
<polygon fill="black" stroke="black" points="327.775,-68.9617 323.591,-59.2281 320.792,-69.4465 327.775,-68.9617"/>
</g>
<!-- n503&#45;&gt;n487 -->
<g id="edge54" class="edge"><title>n503&#45;&gt;n487</title>
<path fill="none" stroke="black" d="M325.55,-173.244C305.325,-141.158 275.714,-87.9321 262.188,-59.0818"/>
<polygon fill="black" stroke="black" points="322.632,-175.178 330.985,-181.696 328.52,-171.392 322.632,-175.178"/>
</g>
<!-- n503&#45;&gt;n487 -->
<g id="edge70" class="edge"><title>n503&#45;&gt;n487</title>
<path fill="none" stroke="black" d="M335.521,-172.496C319.127,-139.087 287.775,-83.5896 269.364,-55.8571"/>
<polygon fill="black" stroke="black" points="332.446,-174.179 339.912,-181.696 338.763,-171.163 332.446,-174.179"/>
</g>
<!-- n505 -->
<g id="node25" class="node"><title>n505</title>
<ellipse fill="#ff34b3" stroke="#ff34b3" cx="28.5975" cy="-38" rx="28.6953" ry="18"/>
<text text-anchor="middle" x="28.5975" y="-34.3" font-family="Times,serif" font-size="14.00">ttyq2</text>
</g>
<!-- n503&#45;&gt;n505 -->
<g id="edge55" class="edge"><title>n503&#45;&gt;n505</title>
<path fill="none" stroke="black" d="M306.444,-188.193C293.83,-182.649 280.555,-175.946 268.597,-170 171.848,-121.893 142.419,-114.801 45.0893,-60.6052"/>
<polygon fill="black" stroke="black" points="305.354,-191.531 315.929,-192.175 308.064,-185.077 305.354,-191.531"/>
<polygon fill="black" stroke="black" points="46.5231,-57.3968 36.0875,-55.5671 43.1044,-63.5052 46.5231,-57.3968"/>
</g>
<!-- n503&#45;&gt;n505 -->
<g id="edge56" class="edge"><title>n503&#45;&gt;n505</title>
<path fill="none" stroke="black" d="M306.896,-180.171C300.138,-176.764 293.169,-173.267 286.597,-170 186.928,-120.441 158.704,-114.41 61.5975,-60 59.8646,-59.0291 58.0969,-58.0059 56.325,-56.955"/>
<polygon fill="black" stroke="black" points="305.42,-183.346 315.924,-184.731 308.577,-177.098 305.42,-183.346"/>
<polygon fill="black" stroke="black" points="57.9255,-53.8307 47.5716,-51.5842 54.2647,-59.7972 57.9255,-53.8307"/>
</g>
<!-- n503&#45;&gt;n505 -->
<g id="edge57" class="edge"><title>n503&#45;&gt;n505</title>
<path fill="none" stroke="black" d="M327.634,-181.771C320.341,-177.87 312.203,-173.782 304.597,-170 204.928,-120.441 176.704,-114.41 79.5975,-60 74.4656,-57.1245 69.0282,-53.7906 63.3823,-50.6376"/>
<polygon fill="black" stroke="black" points="64.837,-47.4489 54.3525,-45.9239 61.5977,-53.6543 64.837,-47.4489"/>
</g>
<!-- n512 -->
<g id="node26" class="node"><title>n512</title>
<ellipse fill="#ff34b3" stroke="#ff34b3" cx="444.597" cy="-115" rx="30.5947" ry="18"/>
<text text-anchor="middle" x="444.597" y="-111.3" font-family="Times,serif" font-size="14.00">ptyq5</text>
</g>
<!-- n503&#45;&gt;n512 -->
<g id="edge58" class="edge"><title>n503&#45;&gt;n512</title>
<path fill="none" stroke="black" d="M375.157,-174.802C389.383,-162.755 406.248,-148.474 419.795,-137.003"/>
<polygon fill="black" stroke="black" points="372.449,-172.509 367.079,-181.642 376.972,-177.851 372.449,-172.509"/>
<polygon fill="black" stroke="black" points="422.378,-139.402 427.747,-130.269 417.854,-134.06 422.378,-139.402"/>
</g>
<!-- n514 -->
<g id="node28" class="node"><title>n514</title>
<polygon fill="lightblue" stroke="lightblue" points="395.597,-134 345.597,-134 345.597,-96 395.597,-96 395.597,-134"/>
<text text-anchor="middle" x="370.597" y="-118.8" font-family="Times,serif" font-size="14.00">21091</text>
<text text-anchor="middle" x="370.597" y="-103.8" font-family="Times,serif" font-size="14.00">dbx</text>
</g>
<!-- n503&#45;&gt;n514 -->
<g id="edge59" class="edge"><title>n503&#45;&gt;n514</title>
<path fill="none" stroke="black" stroke-dasharray="1,5" d="M351.022,-181.642C354.298,-170.657 358.541,-156.429 362.239,-144.03"/>
<polygon fill="black" stroke="black" points="365.68,-144.738 365.183,-134.155 358.972,-142.738 365.68,-144.738"/>
</g>
<!-- n513 -->
<g id="node27" class="node"><title>n513</title>
<ellipse fill="#ff34b3" stroke="#ff34b3" cx="555.597" cy="-38" rx="28.6953" ry="18"/>
<text text-anchor="middle" x="555.597" y="-34.3" font-family="Times,serif" font-size="14.00">ttyq5</text>
</g>
<!-- n514&#45;&gt;n479 -->
<g id="edge62" class="edge"><title>n514&#45;&gt;n479</title>
<path fill="none" stroke="black" d="M405.642,-96.2919C512.12,-63.0634 547.469,-87.4565 651.597,-60 659.768,-57.8457 668.39,-54.8441 676.289,-51.7833"/>
<polygon fill="black" stroke="black" points="404.249,-93.0637 395.803,-99.461 406.395,-99.7266 404.249,-93.0637"/>
</g>
<!-- n514&#45;&gt;n486 -->
<g id="edge61" class="edge"><title>n514&#45;&gt;n486</title>
<path fill="none" stroke="black" d="M357.768,-95.8446C351.162,-86.4967 342.995,-74.9404 335.754,-64.6937"/>
<polygon fill="black" stroke="black" points="338.574,-62.6186 329.944,-56.4718 332.857,-66.6584 338.574,-62.6186"/>
</g>
<!-- n514&#45;&gt;n487 -->
<g id="edge60" class="edge"><title>n514&#45;&gt;n487</title>
<path fill="none" stroke="black" d="M336.833,-92.5558C321.453,-82.7207 303.047,-70.857 286.597,-60 282.366,-57.207 277.835,-54.1664 273.58,-51.2885"/>
<polygon fill="black" stroke="black" points="335.189,-95.6587 345.501,-98.0892 338.956,-89.7584 335.189,-95.6587"/>
</g>
<!-- n514&#45;&gt;n505 -->
<g id="edge63" class="edge"><title>n514&#45;&gt;n505</title>
<path fill="none" stroke="black" d="M345.275,-112.92C291.343,-109.91 161.88,-98.8809 61.5975,-60 59.4882,-59.1822 57.3692,-58.2217 55.2785,-57.1694"/>
<polygon fill="black" stroke="black" points="56.8362,-54.0288 46.4135,-52.1267 53.3751,-60.1133 56.8362,-54.0288"/>
</g>
<!-- n514&#45;&gt;n513 -->
<g id="edge66" class="edge"><title>n514&#45;&gt;n513</title>
<path fill="none" stroke="black" d="M405.193,-92.1508C446.983,-76.1443 464.214,-79.7821 509.597,-60 514.02,-58.0724 518.594,-55.7615 523.104,-53.3883"/>
<polygon fill="black" stroke="black" points="403.866,-88.9123 395.884,-95.8801 406.469,-95.4103 403.866,-88.9123"/>
<polygon fill="black" stroke="black" points="525.028,-56.3287 532.202,-48.5325 521.732,-50.1532 525.028,-56.3287"/>
</g>
<!-- n514&#45;&gt;n513 -->
<g id="edge67" class="edge"><title>n514&#45;&gt;n513</title>
<path fill="none" stroke="black" d="M405.015,-99.8864C407.909,-98.5 410.792,-97.1741 413.597,-96 462.611,-75.4859 478.89,-81.2307 527.597,-60 528.816,-59.4688 530.047,-58.9084 531.278,-58.3257"/>
<polygon fill="black" stroke="black" points="403.24,-96.8588 395.808,-104.41 406.327,-103.141 403.24,-96.8588"/>
<polygon fill="black" stroke="black" points="533.275,-61.2331 540.551,-53.5313 530.06,-55.015 533.275,-61.2331"/>
</g>
<!-- n518 -->
<g id="node29" class="node"><title>n518</title>
<ellipse fill="#ff34b3" stroke="#ff34b3" cx="622.597" cy="-38" rx="20.2975" ry="18"/>
<text text-anchor="middle" x="622.597" y="-34.3" font-family="Times,serif" font-size="14.00">tty</text>
</g>
<!-- n514&#45;&gt;n518 -->
<g id="edge65" class="edge"><title>n514&#45;&gt;n518</title>
<path fill="none" stroke="black" d="M405.706,-92.6481C478.928,-69.8177 509.456,-92.4342 584.597,-60 591.674,-56.9453 598.699,-51.9229 605.085,-47.5556"/>
<polygon fill="black" stroke="black" points="404.465,-89.3719 396.07,-95.8347 406.663,-96.0179 404.465,-89.3719"/>
</g>
<!-- n514&#45;&gt;n518 -->
<g id="edge68" class="edge"><title>n514&#45;&gt;n518</title>
<path fill="none" stroke="black" d="M404.884,-99.5479C407.804,-98.2254 410.728,-97.0071 413.597,-96 494.282,-67.6802 524.089,-93.8876 602.597,-60 606.25,-58.4234 609.889,-56.3226 613.152,-54.0582"/>
<polygon fill="black" stroke="black" points="403.14,-96.5033 395.649,-103.996 406.178,-102.81 403.14,-96.5033"/>
</g>
<!-- n526 -->
<g id="node30" class="node"><title>n526</title>
<ellipse fill="#ff34b3" stroke="#ff34b3" cx="460.597" cy="-38" rx="48.9926" ry="18"/>
<text text-anchor="middle" x="460.597" y="-34.3" font-family="Times,serif" font-size="14.00">delaunay.c</text>
</g>
<!-- n514&#45;&gt;n526 -->
<g id="edge69" class="edge"><title>n514&#45;&gt;n526</title>
<path fill="none" stroke="black" d="M400.151,-89.3719C413.846,-77.9592 429.714,-64.7362 441.754,-54.7025"/>
<polygon fill="black" stroke="black" points="397.826,-86.7539 392.384,-95.8446 402.307,-92.1315 397.826,-86.7539"/>
</g>
</g>
</svg>
