<?xml version="1.0" encoding="UTF-8" standalone="no"?>
<!DOCTYPE svg PUBLIC "-//W3C//DTD SVG 1.1//EN"
 "http://www.w3.org/Graphics/SVG/1.1/DTD/svg11.dtd">
<!-- Generated by graphviz version 2.38.0 (20140413.2041)
 -->
<!-- Title: G Pages: 1 -->
<svg width="1375pt" height="764pt"
 viewBox="0.00 0.00 1374.50 764.00" xmlns="http://www.w3.org/2000/svg" xmlns:xlink="http://www.w3.org/1999/xlink">
<g id="graph0" class="graph" transform="scale(1 1) rotate(0) translate(4 760)">
<title>G</title>
<polygon fill="white" stroke="none" points="-4,4 -4,-760 1370.5,-760 1370.5,4 -4,4"/>
<!-- Marden -->
<g id="node1" class="node"><title>Marden</title>
<ellipse fill="none" stroke="black" cx="404.5" cy="-738" rx="38.5" ry="18"/>
<text text-anchor="middle" x="404.5" y="-734.3" font-family="Times,serif" font-size="14.00">Marden</text>
</g>
<!-- ldt -->
<g id="node2" class="node"><title>ldt</title>
<ellipse fill="none" stroke="black" cx="501.5" cy="-666" rx="27" ry="18"/>
<text text-anchor="middle" x="501.5" y="-662.3" font-family="Times,serif" font-size="14.00">ldt</text>
</g>
<!-- Marden&#45;&#45;ldt -->
<g id="edge1" class="edge"><title>Marden&#45;&#45;ldt</title>
<path fill="none" stroke="black" d="M424.598,-722.496C442.023,-709.922 466.999,-691.898 483.71,-679.838"/>
</g>
<!-- kg -->
<g id="node3" class="node"><title>kg</title>
<ellipse fill="none" stroke="black" cx="701.5" cy="-378" rx="27" ry="18"/>
<text text-anchor="middle" x="701.5" y="-374.3" font-family="Times,serif" font-size="14.00">kg</text>
</g>
<!-- Marden&#45;&#45;kg -->
<g id="edge2" class="edge"><title>Marden&#45;&#45;kg</title>
<path fill="none" stroke="black" d="M415.713,-720.576C427.927,-702.701 448.054,-673.287 465.5,-648 487.624,-615.932 486.271,-601.758 515.5,-576 541.451,-553.131 558.305,-562.589 584.5,-540 610.797,-517.322 667.927,-431.004 691.261,-394.961"/>
</g>
<!-- hg -->
<g id="node4" class="node"><title>hg</title>
<ellipse fill="none" stroke="black" cx="497.5" cy="-450" rx="27" ry="18"/>
<text text-anchor="middle" x="497.5" y="-446.3" font-family="Times,serif" font-size="14.00">hg</text>
</g>
<!-- Marden&#45;&#45;hg -->
<g id="edge3" class="edge"><title>Marden&#45;&#45;hg</title>
<path fill="none" stroke="black" d="M398.348,-719.91C388.509,-689.79 372.119,-625.74 390.5,-576 408.522,-527.233 455,-484.627 480.365,-464.071"/>
</g>
<!-- ldt&#45;&#45;hg -->
<g id="edge72" class="edge"><title>ldt&#45;&#45;hg</title>
<path fill="none" stroke="black" d="M501.013,-647.611C500.352,-623.466 499.177,-578.417 498.5,-540 498.059,-514.971 497.776,-485.979 497.627,-468.063"/>
</g>
<!-- ggt -->
<g id="node6" class="node"><title>ggt</title>
<ellipse fill="none" stroke="black" cx="287.5" cy="-522" rx="27" ry="18"/>
<text text-anchor="middle" x="287.5" y="-518.3" font-family="Times,serif" font-size="14.00">ggt</text>
</g>
<!-- ldt&#45;&#45;ggt -->
<g id="edge71" class="edge"><title>ldt&#45;&#45;ggt</title>
<path fill="none" stroke="black" d="M482.883,-652.647C442.309,-625.724 346.317,-562.028 305.921,-535.223"/>
</g>
<!-- kt -->
<g id="node9" class="node"><title>kt</title>
<ellipse fill="none" stroke="black" cx="658.5" cy="-522" rx="27" ry="18"/>
<text text-anchor="middle" x="658.5" y="-518.3" font-family="Times,serif" font-size="14.00">kt</text>
</g>
<!-- ldt&#45;&#45;kt -->
<g id="edge73" class="edge"><title>ldt&#45;&#45;kt</title>
<path fill="none" stroke="black" d="M505.432,-648.182C510.793,-628.583 522.139,-596.298 542.5,-576 549.576,-568.946 604.341,-545.491 636.029,-532.27"/>
</g>
<!-- ds -->
<g id="node18" class="node"><title>ds</title>
<ellipse fill="none" stroke="black" cx="725.5" cy="-594" rx="27" ry="18"/>
<text text-anchor="middle" x="725.5" y="-590.3" font-family="Times,serif" font-size="14.00">ds</text>
</g>
<!-- ldt&#45;&#45;ds -->
<g id="edge70" class="edge"><title>ldt&#45;&#45;ds</title>
<path fill="none" stroke="black" d="M525.472,-657.509C568.473,-644.071 658.241,-616.018 701.362,-602.543"/>
</g>
<!-- cd -->
<g id="node20" class="node"><title>cd</title>
<ellipse fill="none" stroke="black" cx="844.5" cy="-522" rx="27" ry="18"/>
<text text-anchor="middle" x="844.5" y="-518.3" font-family="Times,serif" font-size="14.00">cd</text>
</g>
<!-- ldt&#45;&#45;cd -->
<g id="edge74" class="edge"><title>ldt&#45;&#45;cd</title>
<path fill="none" stroke="black" d="M522.3,-654.204C556.606,-636.614 627.437,-601.208 689.5,-576 734.952,-557.539 789.527,-539.893 820.293,-530.345"/>
</g>
<!-- vd -->
<g id="node11" class="node"><title>vd</title>
<ellipse fill="none" stroke="black" cx="587.5" cy="-306" rx="27" ry="18"/>
<text text-anchor="middle" x="587.5" y="-302.3" font-family="Times,serif" font-size="14.00">vd</text>
</g>
<!-- kg&#45;&#45;vd -->
<g id="edge91" class="edge"><title>kg&#45;&#45;vd</title>
<path fill="none" stroke="black" d="M682.161,-365.125C661.198,-352.253 627.934,-331.828 606.933,-318.933"/>
</g>
<!-- hg&#45;&#45;kg -->
<g id="edge90" class="edge"><title>hg&#45;&#45;kg</title>
<path fill="none" stroke="black" d="M520.901,-440.97C560.148,-427.503 638.785,-400.52 678.058,-387.044"/>
</g>
<!-- lat -->
<g id="node10" class="node"><title>lat</title>
<ellipse fill="none" stroke="black" cx="515.5" cy="-378" rx="27" ry="18"/>
<text text-anchor="middle" x="515.5" y="-374.3" font-family="Times,serif" font-size="14.00">lat</text>
</g>
<!-- hg&#45;&#45;lat -->
<g id="edge87" class="edge"><title>hg&#45;&#45;lat</title>
<path fill="none" stroke="black" d="M501.857,-432.055C504.687,-421.049 508.361,-406.764 511.183,-395.789"/>
</g>
<!-- hg&#45;&#45;vd -->
<g id="edge88" class="edge"><title>hg&#45;&#45;vd</title>
<path fill="none" stroke="black" d="M514.416,-435.631C526.084,-425.704 541.275,-411.286 551.5,-396 566.791,-373.141 577.326,-342.776 582.884,-324.077"/>
</g>
<!-- cg -->
<g id="node28" class="node"><title>cg</title>
<ellipse fill="none" stroke="black" cx="865.5" cy="-90" rx="27" ry="18"/>
<text text-anchor="middle" x="865.5" y="-86.3" font-family="Times,serif" font-size="14.00">cg</text>
</g>
<!-- hg&#45;&#45;cg -->
<g id="edge89" class="edge"><title>hg&#45;&#45;cg</title>
<path fill="none" stroke="black" d="M517.988,-438.043C534.721,-428.437 558.327,-413.325 575.5,-396 602.575,-368.686 604.879,-357.651 623.5,-324 665.976,-247.242 639.303,-202.697 704.5,-144 742.772,-109.544 803.954,-97.4288 838.84,-93.2117"/>
</g>
<!-- Cannon -->
<g id="node5" class="node"><title>Cannon</title>
<ellipse fill="none" stroke="black" cx="38.5" cy="-738" rx="38.5" ry="18"/>
<text text-anchor="middle" x="38.5" y="-734.3" font-family="Times,serif" font-size="14.00">Cannon</text>
</g>
<!-- Cannon&#45;&#45;ldt -->
<g id="edge4" class="edge"><title>Cannon&#45;&#45;ldt</title>
<path fill="none" stroke="black" d="M74.6416,-731.168C95.3718,-727.845 121.89,-723.633 145.5,-720 268.711,-701.041 416.086,-679.444 475.137,-670.835"/>
</g>
<!-- Cannon&#45;&#45;kg -->
<g id="edge5" class="edge"><title>Cannon&#45;&#45;kg</title>
<path fill="none" stroke="black" d="M38.2287,-719.74C38.5174,-677.148 45.2461,-566.008 104.5,-504 153.934,-452.268 179.935,-452.465 248.5,-432 253.669,-430.457 578.531,-393.109 674.861,-382.055"/>
</g>
<!-- Cannon&#45;&#45;ggt -->
<g id="edge6" class="edge"><title>Cannon&#45;&#45;ggt</title>
<path fill="none" stroke="black" d="M58.1599,-722.138C88.1866,-699.243 146.991,-653.624 194.5,-612 223.244,-586.817 255.082,-555.566 273.057,-537.591"/>
</g>
<!-- ggt&#45;&#45;hg -->
<g id="edge86" class="edge"><title>ggt&#45;&#45;hg</title>
<path fill="none" stroke="black" d="M311.181,-513.106C351.621,-499.626 433.525,-472.325 473.905,-458.865"/>
</g>
<!-- ggt&#45;&#45;lat -->
<g id="edge85" class="edge"><title>ggt&#45;&#45;lat</title>
<path fill="none" stroke="black" d="M306.547,-509.137C349.465,-482.408 453.329,-417.721 496.347,-390.929"/>
</g>
<!-- Epstein -->
<g id="node7" class="node"><title>Epstein</title>
<ellipse fill="none" stroke="black" cx="192.5" cy="-738" rx="37.5" ry="18"/>
<text text-anchor="middle" x="192.5" y="-734.3" font-family="Times,serif" font-size="14.00">Epstein</text>
</g>
<!-- Epstein&#45;&#45;ldt -->
<g id="edge8" class="edge"><title>Epstein&#45;&#45;ldt</title>
<path fill="none" stroke="black" d="M225.568,-729.509C287.689,-715.436 420.563,-685.335 476.189,-672.734"/>
</g>
<!-- Epstein&#45;&#45;kg -->
<g id="edge7" class="edge"><title>Epstein&#45;&#45;kg</title>
<path fill="none" stroke="black" d="M161.95,-727.173C141.187,-718.915 114.809,-705.036 99.5,-684 50.3538,-616.467 80.9413,-545.367 153.5,-504 246.009,-451.259 579.082,-397.593 675.301,-382.912"/>
</g>
<!-- Epstein&#45;&#45;hg -->
<g id="edge10" class="edge"><title>Epstein&#45;&#45;hg</title>
<path fill="none" stroke="black" d="M172.489,-722.764C135.93,-694.927 64.8042,-631.181 95.5,-576 110.249,-549.487 129.022,-557.925 153.5,-540 173.336,-525.475 173.269,-514.498 195.5,-504 289.363,-459.676 415.457,-452.125 470.219,-451.044"/>
</g>
<!-- Epstein&#45;&#45;ggt -->
<g id="edge9" class="edge"><title>Epstein&#45;&#45;ggt</title>
<path fill="none" stroke="black" d="M199.954,-720.208C217.757,-680.105 262.576,-579.144 280.211,-539.42"/>
</g>
<!-- Conway -->
<g id="node8" class="node"><title>Conway</title>
<ellipse fill="none" stroke="black" cx="145.5" cy="-594" rx="40.5" ry="18"/>
<text text-anchor="middle" x="145.5" y="-590.3" font-family="Times,serif" font-size="14.00">Conway</text>
</g>
<!-- Conway&#45;&#45;hg -->
<g id="edge13" class="edge"><title>Conway&#45;&#45;hg</title>
<path fill="none" stroke="black" d="M159.601,-577.115C178.474,-556.895 213.949,-522.386 251.5,-504 325.462,-467.785 423.88,-456.167 470.637,-452.558"/>
</g>
<!-- Conway&#45;&#45;ggt -->
<g id="edge11" class="edge"><title>Conway&#45;&#45;ggt</title>
<path fill="none" stroke="black" d="M171.545,-580.161C198.768,-566.741 240.969,-545.938 266.251,-533.475"/>
</g>
<!-- Conway&#45;&#45;kt -->
<g id="edge12" class="edge"><title>Conway&#45;&#45;kt</title>
<path fill="none" stroke="black" d="M185.057,-589.637C262.239,-582.764 438.169,-565.568 584.5,-540 600.991,-537.119 619.332,-532.912 633.629,-529.405"/>
</g>
<!-- Conway&#45;&#45;lat -->
<g id="edge14" class="edge"><title>Conway&#45;&#45;lat</title>
<path fill="none" stroke="black" d="M151.129,-576.029C158.467,-556.281 173.074,-523.854 195.5,-504 295.058,-415.862 350.206,-443.232 474.5,-396 480.695,-393.646 487.354,-390.955 493.467,-388.419"/>
</g>
<!-- Conway&#45;&#45;vd -->
<g id="edge15" class="edge"><title>Conway&#45;&#45;vd</title>
<path fill="none" stroke="black" d="M146.188,-575.891C147.591,-557.165 151.818,-526.776 164.5,-504 186.979,-463.629 198.326,-452.972 239.5,-432 320.369,-390.809 359.232,-436.398 440.5,-396 461.623,-385.5 460.042,-373.335 479.5,-360 506.893,-341.227 541.921,-325.328 564.532,-315.975"/>
</g>
<!-- kt&#45;&#45;kg -->
<g id="edge80" class="edge"><title>kt&#45;&#45;kg</title>
<path fill="none" stroke="black" d="M663.602,-504.153C671.877,-476.824 688.134,-423.14 696.405,-395.825"/>
</g>
<!-- kt&#45;&#45;hg -->
<g id="edge79" class="edge"><title>kt&#45;&#45;hg</title>
<path fill="none" stroke="black" d="M636.451,-511.414C605.706,-498.046 550.281,-473.948 519.54,-460.583"/>
</g>
<!-- lat&#45;&#45;vd -->
<g id="edge96" class="edge"><title>lat&#45;&#45;vd</title>
<path fill="none" stroke="black" d="M530.07,-362.834C542.48,-350.77 560.231,-333.512 572.704,-321.385"/>
</g>
<!-- crys -->
<g id="node13" class="node"><title>crys</title>
<ellipse fill="none" stroke="black" cx="549.5" cy="-234" rx="27" ry="18"/>
<text text-anchor="middle" x="549.5" y="-230.3" font-family="Times,serif" font-size="14.00">crys</text>
</g>
<!-- lat&#45;&#45;crys -->
<g id="edge95" class="edge"><title>lat&#45;&#45;crys</title>
<path fill="none" stroke="black" d="M519.534,-360.153C526.077,-332.824 538.931,-279.14 545.471,-251.825"/>
</g>
<!-- vd&#45;&#45;crys -->
<g id="edge97" class="edge"><title>vd&#45;&#45;crys</title>
<path fill="none" stroke="black" d="M578.687,-288.765C572.548,-277.456 564.394,-262.437 558.266,-251.147"/>
</g>
<!-- gcv -->
<g id="node14" class="node"><title>gcv</title>
<ellipse fill="none" stroke="black" cx="619.5" cy="-162" rx="27" ry="18"/>
<text text-anchor="middle" x="619.5" y="-158.3" font-family="Times,serif" font-size="14.00">gcv</text>
</g>
<!-- vd&#45;&#45;gcv -->
<g id="edge98" class="edge"><title>vd&#45;&#45;gcv</title>
<path fill="none" stroke="black" d="M591.296,-288.153C597.455,-260.824 609.553,-207.14 615.708,-179.825"/>
</g>
<!-- cv -->
<g id="node34" class="node"><title>cv</title>
<ellipse fill="none" stroke="black" cx="799.5" cy="-234" rx="27" ry="18"/>
<text text-anchor="middle" x="799.5" y="-230.3" font-family="Times,serif" font-size="14.00">cv</text>
</g>
<!-- vd&#45;&#45;cv -->
<g id="edge99" class="edge"><title>vd&#45;&#45;cv</title>
<path fill="none" stroke="black" d="M610.079,-295.992C650.244,-281.776 733.164,-254.452 774.796,-241.772"/>
</g>
<!-- Taylor -->
<g id="node12" class="node"><title>Taylor</title>
<ellipse fill="none" stroke="black" cx="293.5" cy="-378" rx="35" ry="18"/>
<text text-anchor="middle" x="293.5" y="-374.3" font-family="Times,serif" font-size="14.00">Taylor</text>
</g>
<!-- Taylor&#45;&#45;vd -->
<g id="edge17" class="edge"><title>Taylor&#45;&#45;vd</title>
<path fill="none" stroke="black" d="M319.788,-366.057C325.564,-363.875 331.691,-361.726 337.5,-360 417.669,-336.181 515.321,-318.704 561.244,-311.143"/>
</g>
<!-- Taylor&#45;&#45;crys -->
<g id="edge16" class="edge"><title>Taylor&#45;&#45;crys</title>
<path fill="none" stroke="black" d="M316.67,-364.148C366.394,-336.567 482.612,-272.102 529.429,-246.133"/>
</g>
<!-- Taylor&#45;&#45;gcv -->
<g id="edge18" class="edge"><title>Taylor&#45;&#45;gcv</title>
<path fill="none" stroke="black" d="M307.223,-360.884C335.3,-328.863 402.656,-256.809 473.5,-216 513.222,-193.118 564.571,-177.254 594.589,-169.178"/>
</g>
<!-- fd -->
<g id="node15" class="node"><title>fd</title>
<ellipse fill="none" stroke="black" cx="580.5" cy="-18" rx="27" ry="18"/>
<text text-anchor="middle" x="580.5" y="-14.3" font-family="Times,serif" font-size="14.00">fd</text>
</g>
<!-- Taylor&#45;&#45;fd -->
<g id="edge19" class="edge"><title>Taylor&#45;&#45;fd</title>
<path fill="none" stroke="black" d="M291.722,-359.973C289.099,-333.343 284.5,-280.205 284.5,-235 284.5,-235 284.5,-235 284.5,-161 284.5,-42.3052 480.376,-22.7536 553.447,-19.5895"/>
</g>
<!-- crys&#45;&#45;gcv -->
<g id="edge105" class="edge"><title>crys&#45;&#45;gcv</title>
<path fill="none" stroke="black" d="M564.004,-218.496C576.018,-206.482 593.006,-189.494 605.015,-177.485"/>
</g>
<!-- crys&#45;&#45;fd -->
<g id="edge104" class="edge"><title>crys&#45;&#45;fd</title>
<path fill="none" stroke="black" d="M551.984,-215.849C557.803,-175.68 572.259,-75.8902 578.047,-35.9354"/>
</g>
<!-- gcv&#45;&#45;fd -->
<g id="edge106" class="edge"><title>gcv&#45;&#45;fd</title>
<path fill="none" stroke="black" d="M614.873,-144.153C607.367,-116.824 592.623,-63.14 585.121,-35.825"/>
</g>
<!-- gcv&#45;&#45;cg -->
<g id="edge107" class="edge"><title>gcv&#45;&#45;cg</title>
<path fill="none" stroke="black" d="M642.314,-152.298C649.955,-149.504 658.551,-146.491 666.5,-144 728.422,-124.595 802.57,-106.065 840.482,-96.9231"/>
</g>
<!-- Almgren -->
<g id="node16" class="node"><title>Almgren</title>
<ellipse fill="none" stroke="black" cx="389.5" cy="-378" rx="42.5" ry="18"/>
<text text-anchor="middle" x="389.5" y="-374.3" font-family="Times,serif" font-size="14.00">Almgren</text>
</g>
<!-- Almgren&#45;&#45;vd -->
<g id="edge21" class="edge"><title>Almgren&#45;&#45;vd</title>
<path fill="none" stroke="black" d="M421.312,-365.753C461.213,-351.647 528.683,-327.794 564.136,-315.26"/>
</g>
<!-- Almgren&#45;&#45;crys -->
<g id="edge20" class="edge"><title>Almgren&#45;&#45;crys</title>
<path fill="none" stroke="black" d="M414.074,-363.258C430.779,-353.372 452.945,-339.154 470.5,-324 497.087,-301.049 523.2,-269.333 537.745,-250.613"/>
</g>
<!-- Almgren&#45;&#45;gcv -->
<g id="edge22" class="edge"><title>Almgren&#45;&#45;gcv</title>
<path fill="none" stroke="black" d="M398.784,-360.414C417.154,-328.817 460.944,-259.294 513.5,-216 538.591,-195.33 573.088,-179.986 595.823,-171.267"/>
</g>
<!-- Almgren&#45;&#45;fd -->
<g id="edge23" class="edge"><title>Almgren&#45;&#45;fd</title>
<path fill="none" stroke="black" d="M393.843,-359.836C398.746,-341.587 407.493,-312.094 418.5,-288 464.939,-186.347 540.886,-75.0011 569.303,-34.6713"/>
</g>
<!-- Freedman -->
<g id="node17" class="node"><title>Freedman</title>
<ellipse fill="none" stroke="black" cx="774.5" cy="-738" rx="46.5" ry="18"/>
<text text-anchor="middle" x="774.5" y="-734.3" font-family="Times,serif" font-size="14.00">Freedman</text>
</g>
<!-- Freedman&#45;&#45;ldt -->
<g id="edge25" class="edge"><title>Freedman&#45;&#45;ldt</title>
<path fill="none" stroke="black" d="M736.827,-727.34C680.074,-712.788 574.194,-685.639 526.237,-673.343"/>
</g>
<!-- Freedman&#45;&#45;gcv -->
<g id="edge24" class="edge"><title>Freedman&#45;&#45;gcv</title>
<path fill="none" stroke="black" d="M819.355,-732.82C931.176,-721.359 1217.23,-685.293 1271.5,-612 1281.02,-599.141 1275.79,-591.413 1271.5,-576 1251.43,-503.97 1245.8,-474.82 1184.5,-432 1115.83,-384.031 1072.48,-437.115 999.5,-396 975.927,-382.72 858.779,-229.788 835.5,-216 774.205,-179.695 689.068,-168.192 646.292,-164.598"/>
</g>
<!-- Freedman&#45;&#45;ds -->
<g id="edge26" class="edge"><title>Freedman&#45;&#45;ds</title>
<path fill="none" stroke="black" d="M772.108,-719.859C769.23,-701.629 763.614,-672.151 754.5,-648 749.612,-635.047 742.054,-621.36 735.88,-611.141"/>
</g>
<!-- ds&#45;&#45;ggt -->
<g id="edge75" class="edge"><title>ds&#45;&#45;ggt</title>
<path fill="none" stroke="black" d="M699.413,-588.831C621.51,-576.381 391.174,-539.569 313.451,-527.147"/>
</g>
<!-- ds&#45;&#45;cd -->
<g id="edge76" class="edge"><title>ds&#45;&#45;cd</title>
<path fill="none" stroke="black" d="M745.15,-581.441C767.199,-568.471 802.76,-547.553 824.82,-534.576"/>
</g>
<!-- fg -->
<g id="node23" class="node"><title>fg</title>
<ellipse fill="none" stroke="black" cx="857.5" cy="-450" rx="27" ry="18"/>
<text text-anchor="middle" x="857.5" y="-446.3" font-family="Times,serif" font-size="14.00">fg</text>
</g>
<!-- ds&#45;&#45;fg -->
<g id="edge77" class="edge"><title>ds&#45;&#45;fg</title>
<path fill="none" stroke="black" d="M739.129,-578.338C764.423,-551.128 818.36,-493.105 843.747,-465.795"/>
</g>
<!-- sg -->
<g id="node26" class="node"><title>sg</title>
<ellipse fill="none" stroke="black" cx="887.5" cy="-378" rx="27" ry="18"/>
<text text-anchor="middle" x="887.5" y="-374.3" font-family="Times,serif" font-size="14.00">sg</text>
</g>
<!-- ds&#45;&#45;sg -->
<g id="edge78" class="edge"><title>ds&#45;&#45;sg</title>
<path fill="none" stroke="black" d="M732.55,-576.449C746.299,-545.509 779.098,-477.893 821.5,-432 835.96,-416.349 855.214,-401.425 869.191,-391.424"/>
</g>
<!-- Milnor -->
<g id="node19" class="node"><title>Milnor</title>
<ellipse fill="none" stroke="black" cx="556.5" cy="-738" rx="35.9954" ry="18"/>
<text text-anchor="middle" x="556.5" y="-734.3" font-family="Times,serif" font-size="14.00">Milnor</text>
</g>
<!-- Milnor&#45;&#45;ldt -->
<g id="edge27" class="edge"><title>Milnor&#45;&#45;ldt</title>
<path fill="none" stroke="black" d="M544.02,-721.116C534.892,-709.499 522.579,-693.828 513.553,-682.34"/>
</g>
<!-- Milnor&#45;&#45;hg -->
<g id="edge30" class="edge"><title>Milnor&#45;&#45;hg</title>
<path fill="none" stroke="black" d="M526.132,-728.221C505.022,-720.353 478.438,-706.508 465.5,-684 424.091,-611.962 468.737,-507.22 488.79,-467.29"/>
</g>
<!-- Milnor&#45;&#45;kt -->
<g id="edge31" class="edge"><title>Milnor&#45;&#45;kt</title>
<path fill="none" stroke="black" d="M561.369,-719.858C570.317,-689.658 591.01,-625.487 618.5,-576 626.113,-562.295 636.926,-548.193 645.391,-537.985"/>
</g>
<!-- Milnor&#45;&#45;ds -->
<g id="edge29" class="edge"><title>Milnor&#45;&#45;ds</title>
<path fill="none" stroke="black" d="M573.031,-721.884C592.816,-703.92 627.093,-673.208 657.5,-648 674.439,-633.957 694.346,-618.566 708.227,-608.006"/>
</g>
<!-- Milnor&#45;&#45;cd -->
<g id="edge28" class="edge"><title>Milnor&#45;&#45;cd</title>
<path fill="none" stroke="black" d="M591.982,-735.682C634.688,-732.399 706.618,-721.262 754.5,-684 803.653,-645.749 830.069,-572.685 839.924,-539.788"/>
</g>
<!-- cd&#45;&#45;kg -->
<g id="edge82" class="edge"><title>cd&#45;&#45;kg</title>
<path fill="none" stroke="black" d="M830.001,-506.603C802.593,-479.386 743.475,-420.681 716.037,-393.435"/>
</g>
<!-- cd&#45;&#45;fg -->
<g id="edge81" class="edge"><title>cd&#45;&#45;fg</title>
<path fill="none" stroke="black" d="M847.647,-504.055C849.661,-493.211 852.266,-479.183 854.292,-468.275"/>
</g>
<!-- Douady -->
<g id="node21" class="node"><title>Douady</title>
<ellipse fill="none" stroke="black" cx="706.5" cy="-666" rx="39.5" ry="18"/>
<text text-anchor="middle" x="706.5" y="-662.3" font-family="Times,serif" font-size="14.00">Douady</text>
</g>
<!-- Douady&#45;&#45;kg -->
<g id="edge34" class="edge"><title>Douady&#45;&#45;kg</title>
<path fill="none" stroke="black" d="M699.61,-648.141C695.795,-637.884 691.442,-624.411 689.5,-612 687.027,-596.192 688.397,-591.962 689.5,-576 690.614,-559.885 693.036,-556.087 694.5,-540 699.24,-487.897 700.79,-426.006 701.282,-396.428"/>
</g>
<!-- Douady&#45;&#45;ds -->
<g id="edge33" class="edge"><title>Douady&#45;&#45;ds</title>
<path fill="none" stroke="black" d="M711.099,-648.055C714.087,-637.049 717.964,-622.764 720.943,-611.789"/>
</g>
<!-- Douady&#45;&#45;cd -->
<g id="edge32" class="edge"><title>Douady&#45;&#45;cd</title>
<path fill="none" stroke="black" d="M723.088,-649.456C734.121,-639.011 748.853,-624.856 761.5,-612 786.689,-586.396 815.025,-555.55 831.221,-537.715"/>
</g>
<!-- Hubard -->
<g id="node22" class="node"><title>Hubard</title>
<ellipse fill="none" stroke="black" cx="989.5" cy="-666" rx="37.5" ry="18"/>
<text text-anchor="middle" x="989.5" y="-662.3" font-family="Times,serif" font-size="14.00">Hubard</text>
</g>
<!-- Hubard&#45;&#45;kg -->
<g id="edge37" class="edge"><title>Hubard&#45;&#45;kg</title>
<path fill="none" stroke="black" d="M1014.01,-652.37C1028.71,-643.32 1046.13,-629.625 1054.5,-612 1061.36,-597.547 1060.24,-590.934 1054.5,-576 1039.02,-535.762 962.001,-453.266 924.5,-432 852.774,-391.325 821.414,-419.908 742.5,-396 736.158,-394.079 729.45,-391.53 723.337,-388.992"/>
</g>
<!-- Hubard&#45;&#45;ds -->
<g id="edge35" class="edge"><title>Hubard&#45;&#45;ds</title>
<path fill="none" stroke="black" d="M957.392,-656.487C904.075,-642.35 798.396,-614.328 750.335,-601.585"/>
</g>
<!-- Hubard&#45;&#45;cd -->
<g id="edge36" class="edge"><title>Hubard&#45;&#45;cd</title>
<path fill="none" stroke="black" d="M966.541,-651.562C950.718,-641.707 929.705,-627.406 913.5,-612 889.553,-589.234 867.153,-557.739 854.694,-538.962"/>
</g>
<!-- Hubard&#45;&#45;fg -->
<g id="edge38" class="edge"><title>Hubard&#45;&#45;fg</title>
<path fill="none" stroke="black" d="M1008.72,-650.064C1019.41,-640.49 1031.69,-627.058 1037.5,-612 1043.26,-597.071 1044.92,-590.178 1037.5,-576 1020,-542.54 921.417,-485.815 878.015,-462.021"/>
</g>
<!-- fg&#45;&#45;kg -->
<g id="edge83" class="edge"><title>fg&#45;&#45;kg</title>
<path fill="none" stroke="black" d="M835.809,-439.267C806.088,-425.931 753.013,-402.115 723.258,-388.763"/>
</g>
<!-- fg&#45;&#45;sg -->
<g id="edge84" class="edge"><title>fg&#45;&#45;sg</title>
<path fill="none" stroke="black" d="M864.61,-432.411C869.392,-421.252 875.67,-406.604 880.441,-395.47"/>
</g>
<!-- Mandelbrot -->
<g id="node24" class="node"><title>Mandelbrot</title>
<ellipse fill="none" stroke="black" cx="975.5" cy="-594" rx="53" ry="18"/>
<text text-anchor="middle" x="975.5" y="-590.3" font-family="Times,serif" font-size="14.00">Mandelbrot</text>
</g>
<!-- Mandelbrot&#45;&#45;kg -->
<g id="edge41" class="edge"><title>Mandelbrot&#45;&#45;kg</title>
<path fill="none" stroke="black" d="M971.815,-575.867C963.752,-542.691 941.316,-469.64 893.5,-432 839.289,-389.326 808.128,-417.28 742.5,-396 736.196,-393.956 729.501,-391.367 723.388,-388.829"/>
</g>
<!-- Mandelbrot&#45;&#45;cd -->
<g id="edge39" class="edge"><title>Mandelbrot&#45;&#45;cd</title>
<path fill="none" stroke="black" d="M948.357,-578.496C923.626,-565.281 887.63,-546.047 865.165,-534.042"/>
</g>
<!-- Mandelbrot&#45;&#45;fg -->
<g id="edge40" class="edge"><title>Mandelbrot&#45;&#45;fg</title>
<path fill="none" stroke="black" d="M958.498,-576.848C948.032,-566.624 934.552,-552.937 923.5,-540 902.509,-515.428 880.645,-484.778 868.094,-466.609"/>
</g>
<!-- Wilks -->
<g id="node25" class="node"><title>Wilks</title>
<ellipse fill="none" stroke="black" cx="1230.5" cy="-594" rx="32.4942" ry="18"/>
<text text-anchor="middle" x="1230.5" y="-590.3" font-family="Times,serif" font-size="14.00">Wilks</text>
</g>
<!-- Wilks&#45;&#45;cd -->
<g id="edge44" class="edge"><title>Wilks&#45;&#45;cd</title>
<path fill="none" stroke="black" d="M1199.89,-587.449C1126.07,-574.061 939.267,-540.186 870.462,-527.708"/>
</g>
<!-- Wilks&#45;&#45;sg -->
<g id="edge42" class="edge"><title>Wilks&#45;&#45;sg</title>
<path fill="none" stroke="black" d="M1220.45,-576.6C1214.32,-566.283 1206.53,-552.585 1200.5,-540 1178.17,-493.411 1197.38,-464.85 1157.5,-432 1090.83,-377.074 1051.18,-413.088 966.5,-396 948.485,-392.365 928.22,-387.998 912.726,-384.601"/>
</g>
<!-- gv -->
<g id="node27" class="node"><title>gv</title>
<ellipse fill="none" stroke="black" cx="1056.5" cy="-162" rx="27" ry="18"/>
<text text-anchor="middle" x="1056.5" y="-158.3" font-family="Times,serif" font-size="14.00">gv</text>
</g>
<!-- Wilks&#45;&#45;gv -->
<g id="edge43" class="edge"><title>Wilks&#45;&#45;gv</title>
<path fill="none" stroke="black" d="M1230.3,-575.996C1229.34,-536.65 1223.93,-436.828 1194.5,-360 1165.22,-283.57 1099.88,-208.695 1070.86,-177.797"/>
</g>
<!-- Wilks&#45;&#45;cg -->
<g id="edge45" class="edge"><title>Wilks&#45;&#45;cg</title>
<path fill="none" stroke="black" d="M1234.76,-575.869C1247.67,-520.008 1281.59,-339.621 1215.5,-216 1195.59,-178.758 1190.13,-165.017 1153.5,-144 1067.73,-94.7864 946.046,-89.7605 892.528,-90.1859"/>
</g>
<!-- sg&#45;&#45;gv -->
<g id="edge93" class="edge"><title>sg&#45;&#45;gv</title>
<path fill="none" stroke="black" d="M901.754,-362.658C923.861,-340.083 967.225,-294.446 999.5,-252 1018.05,-227.608 1036.65,-197.166 1047.35,-178.947"/>
</g>
<!-- sg&#45;&#45;cv -->
<g id="edge94" class="edge"><title>sg&#45;&#45;cv</title>
<path fill="none" stroke="black" d="M881.73,-360.125C874.993,-341.603 862.798,-311.393 847.5,-288 838.124,-273.662 824.908,-259.381 814.717,-249.262"/>
</g>
<!-- dv -->
<g id="node36" class="node"><title>dv</title>
<ellipse fill="none" stroke="black" cx="811.5" cy="-306" rx="27" ry="18"/>
<text text-anchor="middle" x="811.5" y="-302.3" font-family="Times,serif" font-size="14.00">dv</text>
</g>
<!-- sg&#45;&#45;dv -->
<g id="edge92" class="edge"><title>sg&#45;&#45;dv</title>
<path fill="none" stroke="black" d="M872.12,-362.834C858.935,-350.69 840.036,-333.283 826.857,-321.144"/>
</g>
<!-- cg&#45;&#45;fd -->
<g id="edge108" class="edge"><title>cg&#45;&#45;fd</title>
<path fill="none" stroke="black" d="M840.208,-82.788C785.988,-69.4708 659.131,-38.3129 605.328,-25.0982"/>
</g>
<!-- Dobkin -->
<g id="node29" class="node"><title>Dobkin</title>
<ellipse fill="none" stroke="black" cx="1046.5" cy="-378" rx="37.5" ry="18"/>
<text text-anchor="middle" x="1046.5" y="-374.3" font-family="Times,serif" font-size="14.00">Dobkin</text>
</g>
<!-- Dobkin&#45;&#45;vd -->
<g id="edge47" class="edge"><title>Dobkin&#45;&#45;vd</title>
<path fill="none" stroke="black" d="M1011.25,-371.623C922.553,-358.097 691.689,-322.889 613.687,-310.994"/>
</g>
<!-- Dobkin&#45;&#45;gv -->
<g id="edge46" class="edge"><title>Dobkin&#45;&#45;gv</title>
<path fill="none" stroke="black" d="M1047.3,-359.849C1049.17,-319.78 1053.82,-220.383 1055.69,-180.232"/>
</g>
<!-- Dobkin&#45;&#45;cg -->
<g id="edge48" class="edge"><title>Dobkin&#45;&#45;cg</title>
<path fill="none" stroke="black" d="M1040.4,-360.103C1032.54,-340.428 1017.12,-308.07 994.5,-288 964.42,-261.317 938.011,-282.232 911.5,-252 874.7,-210.036 867.225,-140.455 865.788,-108.288"/>
</g>
<!-- Chazelle -->
<g id="node30" class="node"><title>Chazelle</title>
<ellipse fill="none" stroke="black" cx="1143.5" cy="-378" rx="42" ry="18"/>
<text text-anchor="middle" x="1143.5" y="-374.3" font-family="Times,serif" font-size="14.00">Chazelle</text>
</g>
<!-- Chazelle&#45;&#45;vd -->
<g id="edge51" class="edge"><title>Chazelle&#45;&#45;vd</title>
<path fill="none" stroke="black" d="M1112.78,-365.568C1106.17,-363.443 1099.16,-361.441 1092.5,-360 1045.49,-349.825 711.59,-318.477 614.138,-309.454"/>
</g>
<!-- Chazelle&#45;&#45;gv -->
<g id="edge50" class="edge"><title>Chazelle&#45;&#45;gv</title>
<path fill="none" stroke="black" d="M1136.67,-360.208C1120.41,-320.204 1079.53,-219.639 1063.3,-179.714"/>
</g>
<!-- Chazelle&#45;&#45;cg -->
<g id="edge49" class="edge"><title>Chazelle&#45;&#45;cg</title>
<path fill="none" stroke="black" d="M1145.42,-359.766C1149.17,-316.745 1152.45,-203.804 1092.5,-144 1064.35,-115.92 945.671,-99.7206 892.025,-93.7076"/>
</g>
<!-- Peskin -->
<g id="node31" class="node"><title>Peskin</title>
<ellipse fill="none" stroke="black" cx="955.5" cy="-234" rx="35" ry="18"/>
<text text-anchor="middle" x="955.5" y="-230.3" font-family="Times,serif" font-size="14.00">Peskin</text>
</g>
<!-- Peskin&#45;&#45;gcv -->
<g id="edge53" class="edge"><title>Peskin&#45;&#45;gcv</title>
<path fill="none" stroke="black" d="M923.587,-226.351C857.244,-212.53 705.589,-180.935 645.099,-168.333"/>
</g>
<!-- Peskin&#45;&#45;fd -->
<g id="edge52" class="edge"><title>Peskin&#45;&#45;fd</title>
<path fill="none" stroke="black" d="M955.194,-215.769C953.603,-182.421 945.045,-109.082 901.5,-72 857.206,-34.2805 676.343,-22.9471 607.383,-19.959"/>
</g>
<!-- Peskin&#45;&#45;gv -->
<g id="edge54" class="edge"><title>Peskin&#45;&#45;gv</title>
<path fill="none" stroke="black" d="M975.454,-219.17C993.736,-206.5 1020.57,-187.9 1038.28,-175.625"/>
</g>
<!-- Tarjan -->
<g id="node32" class="node"><title>Tarjan</title>
<ellipse fill="none" stroke="black" cx="541.5" cy="-522" rx="34" ry="18"/>
<text text-anchor="middle" x="541.5" y="-518.3" font-family="Times,serif" font-size="14.00">Tarjan</text>
</g>
<!-- Tarjan&#45;&#45;hg -->
<g id="edge56" class="edge"><title>Tarjan&#45;&#45;hg</title>
<path fill="none" stroke="black" d="M531.295,-504.765C524.187,-493.456 514.746,-478.437 507.65,-467.147"/>
</g>
<!-- Tarjan&#45;&#45;cg -->
<g id="edge55" class="edge"><title>Tarjan&#45;&#45;cg</title>
<path fill="none" stroke="black" d="M552.784,-504.921C584.97,-459.189 680.265,-324.665 763.5,-216 794.499,-175.531 832.975,-129.425 852.629,-106.151"/>
</g>
<!-- Mumford -->
<g id="node33" class="node"><title>Mumford</title>
<ellipse fill="none" stroke="black" cx="1103.5" cy="-450" rx="45.4919" ry="18"/>
<text text-anchor="middle" x="1103.5" y="-446.3" font-family="Times,serif" font-size="14.00">Mumford</text>
</g>
<!-- Mumford&#45;&#45;kg -->
<g id="edge57" class="edge"><title>Mumford&#45;&#45;kg</title>
<path fill="none" stroke="black" d="M1062.94,-441.746C1045.57,-438.678 1025.05,-435.103 1006.5,-432 906.183,-415.22 880.476,-414.705 780.5,-396 762.435,-392.62 742.172,-388.248 726.691,-384.784"/>
</g>
<!-- Mumford&#45;&#45;crys -->
<g id="edge61" class="edge"><title>Mumford&#45;&#45;crys</title>
<path fill="none" stroke="black" d="M1068.74,-438.219C1060.82,-435.976 1052.41,-433.762 1044.5,-432 945.224,-409.878 912.153,-435.677 818.5,-396 793.946,-385.598 792.818,-374.594 770.5,-360 699.482,-313.56 610.308,-266.282 570.438,-245.685"/>
</g>
<!-- Mumford&#45;&#45;gcv -->
<g id="edge60" class="edge"><title>Mumford&#45;&#45;gcv</title>
<path fill="none" stroke="black" d="M1068.7,-438.373C1060.79,-436.123 1052.38,-433.866 1044.5,-432 959.59,-411.897 929.241,-435.626 851.5,-396 824.1,-382.034 678.43,-226.472 633.025,-177.601"/>
</g>
<!-- Mumford&#45;&#45;cg -->
<g id="edge58" class="edge"><title>Mumford&#45;&#45;cg</title>
<path fill="none" stroke="black" d="M1138.86,-438.283C1159.01,-430.156 1182.56,-416.764 1194.5,-396 1252.74,-294.69 1210.85,-216.874 1119.5,-144 1084.37,-115.978 949.74,-99.4437 892.023,-93.5104"/>
</g>
<!-- Mumford&#45;&#45;cv -->
<g id="edge59" class="edge"><title>Mumford&#45;&#45;cv</title>
<path fill="none" stroke="black" d="M1069.46,-437.915C1034.74,-426.24 983.597,-407.93 966.5,-396 914.074,-359.418 918.624,-331.198 871.5,-288 854.681,-272.582 833.437,-257.395 818.396,-247.258"/>
</g>
<!-- cv&#45;&#45;vd -->
<g id="edge100" class="edge"><title>cv&#45;&#45;vd</title>
<path fill="none" stroke="black" d="M776.994,-243.982C736.792,-258.214 653.598,-285.627 612.006,-298.288"/>
</g>
<!-- cv&#45;&#45;gcv -->
<g id="edge101" class="edge"><title>cv&#45;&#45;gcv</title>
<path fill="none" stroke="black" d="M776.703,-224.134C742.174,-210.706 676.983,-185.355 642.396,-171.904"/>
</g>
<!-- cv&#45;&#45;gv -->
<g id="edge103" class="edge"><title>cv&#45;&#45;gv</title>
<path fill="none" stroke="black" d="M824.142,-226.288C873.265,-212.908 982.87,-183.055 1031.93,-169.692"/>
</g>
<!-- cv&#45;&#45;cg -->
<g id="edge102" class="edge"><title>cv&#45;&#45;cg</title>
<path fill="none" stroke="black" d="M807.071,-216.711C819.734,-189.465 845.074,-134.946 857.814,-107.537"/>
</g>
<!-- Thurston -->
<g id="node35" class="node"><title>Thurston</title>
<ellipse fill="none" stroke="black" cx="1007.5" cy="-738" rx="43.5" ry="18"/>
<text text-anchor="middle" x="1007.5" y="-734.3" font-family="Times,serif" font-size="14.00">Thurston</text>
</g>
<!-- Thurston&#45;&#45;ldt -->
<g id="edge68" class="edge"><title>Thurston&#45;&#45;ldt</title>
<path fill="none" stroke="black" d="M966.6,-731.549C895.699,-722.072 745.387,-701.862 618.5,-684 587.199,-679.594 551.217,-674.337 527.514,-670.847"/>
</g>
<!-- Thurston&#45;&#45;kg -->
<g id="edge66" class="edge"><title>Thurston&#45;&#45;kg</title>
<path fill="none" stroke="black" d="M1019.19,-720.634C1034.79,-697.677 1061.59,-653.999 1071.5,-612 1083.23,-562.331 1063.01,-544.906 1032.5,-504 1005.44,-467.726 1000.75,-452.678 960.5,-432 873.149,-387.13 836.921,-422.984 742.5,-396 736.128,-394.179 729.41,-391.663 723.298,-389.124"/>
</g>
<!-- Thurston&#45;&#45;ggt -->
<g id="edge62" class="edge"><title>Thurston&#45;&#45;ggt</title>
<path fill="none" stroke="black" d="M965.678,-732.982C839.079,-720.811 468.434,-685.107 465.5,-684 387.722,-654.658 323.068,-573.272 298.318,-538.777"/>
</g>
<!-- Thurston&#45;&#45;kt -->
<g id="edge69" class="edge"><title>Thurston&#45;&#45;kt</title>
<path fill="none" stroke="black" d="M966.033,-732.163C875.541,-721.415 667.598,-695.579 657.5,-684 621.858,-643.132 640.81,-571.746 652.081,-539.565"/>
</g>
<!-- Thurston&#45;&#45;vd -->
<g id="edge63" class="edge"><title>Thurston&#45;&#45;vd</title>
<path fill="none" stroke="black" d="M1028.65,-722.236C1040.99,-712.631 1055.96,-699.106 1065.5,-684 1083.37,-655.712 1082.56,-645.093 1087.5,-612 1100.71,-523.539 1075.79,-475.244 997.5,-432 908.083,-382.613 860.482,-444.35 770.5,-396 751.38,-385.726 755.605,-371.972 737.5,-360 716.42,-346.061 648.828,-324.967 611.993,-314.071"/>
</g>
<!-- Thurston&#45;&#45;cd -->
<g id="edge67" class="edge"><title>Thurston&#45;&#45;cd</title>
<path fill="none" stroke="black" d="M986.621,-722.052C958.331,-700.74 908.084,-658.963 879.5,-612 865.257,-588.598 854.834,-558.391 849.224,-539.872"/>
</g>
<!-- Thurston&#45;&#45;gv -->
<g id="edge65" class="edge"><title>Thurston&#45;&#45;gv</title>
<path fill="none" stroke="black" d="M1048.05,-731.343C1108.91,-720.431 1222,-690.2 1271.5,-612 1351.37,-485.818 1255.13,-418.484 1182.5,-288 1163.68,-254.178 1160.8,-243.443 1133.5,-216 1116.45,-198.857 1093.16,-183.715 1076.67,-174.052"/>
</g>
<!-- Thurston&#45;&#45;cg -->
<g id="edge64" class="edge"><title>Thurston&#45;&#45;cg</title>
<path fill="none" stroke="black" d="M1046.95,-730.073C1140.2,-712.58 1366.5,-663.114 1366.5,-595 1366.5,-595 1366.5,-595 1366.5,-233 1366.5,-133.554 996.499,-100.16 892.436,-92.7348"/>
</g>
</g>
</svg>
