<?xml version="1.0" encoding="UTF-8" standalone="no"?>
<!DOCTYPE svg PUBLIC "-//W3C//DTD SVG 1.1//EN"
 "http://www.w3.org/Graphics/SVG/1.1/DTD/svg11.dtd">
<!-- Generated by graphviz version 2.38.0 (20140413.2041)
 -->
<!-- Title: G Pages: 1 -->
<svg width="1375pt" height="764pt"
 viewBox="0.00 0.00 1374.50 764.00" xmlns="http://www.w3.org/2000/svg" xmlns:xlink="http://www.w3.org/1999/xlink">
<g id="graph0" class="graph" transform="scale(1 1) rotate(0) translate(4 760)">
<title>G</title>
<polygon fill="white" stroke="none" points="-4,4 -4,-760 1370.5,-760 1370.5,4 -4,4"/>
<!-- Marden -->
<g id="node1" class="node"><title>Marden</title>
<ellipse fill="none" stroke="black" cx="404.5" cy="-738" rx="38.5" ry="18"/>
<text text-anchor="middle" x="404.5" y="-734.3" font-family="Times,serif" font-size="14.00">Marden</text>
</g>
<!-- ldt -->
<g id="node2" class="node"><title>ldt</title>
<ellipse fill="none" stroke="black" cx="501.5" cy="-666" rx="27" ry="18"/>
<text text-anchor="middle" x="501.5" y="-662.3" font-family="Times,serif" font-size="14.00">ldt</text>
</g>
<!-- Marden&#45;&#45;ldt -->
<g id="edge1" class="edge"><title>Marden&#45;&#45;ldt</title>
<path fill="none" stroke="black" d="M424.598,-722.496C442.023,-709.922 466.999,-691.898 483.71,-679.838"/>
</g>
<!-- kg -->
<g id="node3" class="node"><title>kg</title>
<ellipse fill="none" stroke="black" cx="701.5" cy="-378" rx="27" ry="18"/>
<text text-anchor="middle" x="701.5" y="-374.3" font-family="Times,serif" font-size="14.00">kg</text>
</g>
<!-- Marden&#45;&#45;kg -->
<g id="edge2" class="edge"><title>Marden&#45;&#45;kg</title>
<path fill="none" stroke="black" d="M415.688,-720.676C433.299,-694.982 465.5,-648 465.5,-648 465.5,-648 523.5,-576 523.5,-576 523.5,-576 584.5,-540 584.5,-540 584.5,-540 660.997,-434.734 690.282,-394.437"/>
</g>
<!-- hg -->
<g id="node4" class="node"><title>hg</title>
<ellipse fill="none" stroke="black" cx="497.5" cy="-450" rx="27" ry="18"/>
<text text-anchor="middle" x="497.5" y="-446.3" font-family="Times,serif" font-size="14.00">hg</text>
</g>
<!-- Marden&#45;&#45;hg -->
<g id="edge3" class="edge"><title>Marden&#45;&#45;hg</title>
<path fill="none" stroke="black" d="M399.993,-719.939C395.901,-704.445 390.5,-684 390.5,-684 390.5,-684 390.5,-576 390.5,-576 390.5,-576 455.808,-499.706 484.38,-466.327"/>
</g>
<!-- ldt&#45;&#45;hg -->
<g id="edge72" class="edge"><title>ldt&#45;&#45;hg</title>
<path fill="none" stroke="black" d="M501.089,-647.881C500.268,-613.647 498.5,-540 498.5,-540 498.5,-540 497.983,-494.022 497.693,-468.16"/>
</g>
<!-- ggt -->
<g id="node6" class="node"><title>ggt</title>
<ellipse fill="none" stroke="black" cx="287.5" cy="-522" rx="27" ry="18"/>
<text text-anchor="middle" x="287.5" y="-518.3" font-family="Times,serif" font-size="14.00">ggt</text>
</g>
<!-- ldt&#45;&#45;ggt -->
<g id="edge71" class="edge"><title>ldt&#45;&#45;ggt</title>
<path fill="none" stroke="black" d="M482.883,-652.647C442.309,-625.724 346.317,-562.028 305.921,-535.223"/>
</g>
<!-- kt -->
<g id="node9" class="node"><title>kt</title>
<ellipse fill="none" stroke="black" cx="658.5" cy="-522" rx="27" ry="18"/>
<text text-anchor="middle" x="658.5" y="-518.3" font-family="Times,serif" font-size="14.00">kt</text>
</g>
<!-- ldt&#45;&#45;kt -->
<g id="edge73" class="edge"><title>ldt&#45;&#45;kt</title>
<path fill="none" stroke="black" d="M509.02,-648.676C520.856,-622.982 542.5,-576 542.5,-576 542.5,-576 603.079,-548.322 636.681,-532.969"/>
</g>
<!-- ds -->
<g id="node18" class="node"><title>ds</title>
<ellipse fill="none" stroke="black" cx="725.5" cy="-594" rx="27" ry="18"/>
<text text-anchor="middle" x="725.5" y="-590.3" font-family="Times,serif" font-size="14.00">ds</text>
</g>
<!-- ldt&#45;&#45;ds -->
<g id="edge70" class="edge"><title>ldt&#45;&#45;ds</title>
<path fill="none" stroke="black" d="M525.472,-657.509C568.473,-644.071 658.241,-616.018 701.362,-602.543"/>
</g>
<!-- cd -->
<g id="node20" class="node"><title>cd</title>
<ellipse fill="none" stroke="black" cx="844.5" cy="-522" rx="27" ry="18"/>
<text text-anchor="middle" x="844.5" y="-518.3" font-family="Times,serif" font-size="14.00">cd</text>
</g>
<!-- ldt&#45;&#45;cd -->
<g id="edge74" class="edge"><title>ldt&#45;&#45;cd</title>
<path fill="none" stroke="black" d="M523.066,-654.791C572.448,-631.413 689.5,-576 689.5,-576 689.5,-576 777.598,-545.876 820.959,-531.05"/>
</g>
<!-- vd -->
<g id="node11" class="node"><title>vd</title>
<ellipse fill="none" stroke="black" cx="587.5" cy="-306" rx="27" ry="18"/>
<text text-anchor="middle" x="587.5" y="-302.3" font-family="Times,serif" font-size="14.00">vd</text>
</g>
<!-- kg&#45;&#45;vd -->
<g id="edge91" class="edge"><title>kg&#45;&#45;vd</title>
<path fill="none" stroke="black" d="M682.161,-365.125C661.198,-352.253 627.934,-331.828 606.933,-318.933"/>
</g>
<!-- hg&#45;&#45;kg -->
<g id="edge90" class="edge"><title>hg&#45;&#45;kg</title>
<path fill="none" stroke="black" d="M520.901,-440.97C560.148,-427.503 638.785,-400.52 678.058,-387.044"/>
</g>
<!-- lat -->
<g id="node10" class="node"><title>lat</title>
<ellipse fill="none" stroke="black" cx="515.5" cy="-378" rx="27" ry="18"/>
<text text-anchor="middle" x="515.5" y="-374.3" font-family="Times,serif" font-size="14.00">lat</text>
</g>
<!-- hg&#45;&#45;lat -->
<g id="edge87" class="edge"><title>hg&#45;&#45;lat</title>
<path fill="none" stroke="black" d="M501.857,-432.055C504.687,-421.049 508.361,-406.764 511.183,-395.789"/>
</g>
<!-- hg&#45;&#45;vd -->
<g id="edge88" class="edge"><title>hg&#45;&#45;vd</title>
<path fill="none" stroke="black" d="M511.971,-434.797C527.966,-419.098 551.5,-396 551.5,-396 551.5,-396 570.3,-349.521 580.729,-323.74"/>
</g>
<!-- cg -->
<g id="node28" class="node"><title>cg</title>
<ellipse fill="none" stroke="black" cx="865.5" cy="-90" rx="27" ry="18"/>
<text text-anchor="middle" x="865.5" y="-86.3" font-family="Times,serif" font-size="14.00">cg</text>
</g>
<!-- hg&#45;&#45;cg -->
<g id="edge89" class="edge"><title>hg&#45;&#45;cg</title>
<path fill="none" stroke="black" d="M515.274,-436.44C537.452,-420.767 572.5,-396 572.5,-396 572.5,-396 623.5,-324 623.5,-324 623.5,-324 704.5,-144 704.5,-144 704.5,-144 796.959,-113.563 841.744,-98.8203"/>
</g>
<!-- Cannon -->
<g id="node5" class="node"><title>Cannon</title>
<ellipse fill="none" stroke="black" cx="38.5" cy="-738" rx="38.5" ry="18"/>
<text text-anchor="middle" x="38.5" y="-734.3" font-family="Times,serif" font-size="14.00">Cannon</text>
</g>
<!-- Cannon&#45;&#45;ldt -->
<g id="edge4" class="edge"><title>Cannon&#45;&#45;ldt</title>
<path fill="none" stroke="black" d="M74.4271,-731.292C105.512,-726.353 145.5,-720 145.5,-720 145.5,-720 393.109,-683.137 475.322,-670.897"/>
</g>
<!-- Cannon&#45;&#45;kg -->
<g id="edge5" class="edge"><title>Cannon&#45;&#45;kg</title>
<path fill="none" stroke="black" d="M43.6512,-720.074C56.2318,-678.738 87.5,-576 87.5,-576 87.5,-576 118.5,-504 118.5,-504 118.5,-504 303.5,-432 303.5,-432 303.5,-432 586.186,-394.356 675.078,-382.519"/>
</g>
<!-- Cannon&#45;&#45;ggt -->
<g id="edge6" class="edge"><title>Cannon&#45;&#45;ggt</title>
<path fill="none" stroke="black" d="M57.0079,-722.17C98.3306,-689.059 194.5,-612 194.5,-612 194.5,-612 246.269,-562.458 272.558,-537.299"/>
</g>
<!-- ggt&#45;&#45;hg -->
<g id="edge86" class="edge"><title>ggt&#45;&#45;hg</title>
<path fill="none" stroke="black" d="M311.181,-513.106C351.621,-499.626 433.525,-472.325 473.905,-458.865"/>
</g>
<!-- ggt&#45;&#45;lat -->
<g id="edge85" class="edge"><title>ggt&#45;&#45;lat</title>
<path fill="none" stroke="black" d="M306.547,-509.137C349.465,-482.408 453.329,-417.721 496.347,-390.929"/>
</g>
<!-- Epstein -->
<g id="node7" class="node"><title>Epstein</title>
<ellipse fill="none" stroke="black" cx="192.5" cy="-738" rx="37.5" ry="18"/>
<text text-anchor="middle" x="192.5" y="-734.3" font-family="Times,serif" font-size="14.00">Epstein</text>
</g>
<!-- Epstein&#45;&#45;ldt -->
<g id="edge8" class="edge"><title>Epstein&#45;&#45;ldt</title>
<path fill="none" stroke="black" d="M225.568,-729.509C287.689,-715.436 420.563,-685.335 476.189,-672.734"/>
</g>
<!-- Epstein&#45;&#45;kg -->
<g id="edge7" class="edge"><title>Epstein&#45;&#45;kg</title>
<path fill="none" stroke="black" d="M172.826,-722.518C151.508,-706.825 120.5,-684 120.5,-684 120.5,-684 91.5,-612 91.5,-612 91.5,-612 91.5,-576 91.5,-576 91.5,-576 153.5,-504 153.5,-504 153.5,-504 461.5,-432 461.5,-432 461.5,-432 614.65,-398.179 676.269,-384.572"/>
</g>
<!-- Epstein&#45;&#45;hg -->
<g id="edge10" class="edge"><title>Epstein&#45;&#45;hg</title>
<path fill="none" stroke="black" d="M180.018,-720.914C153.819,-687.154 95.5,-612 95.5,-612 95.5,-612 95.5,-576 95.5,-576 95.5,-576 153.5,-540 153.5,-540 153.5,-540 207.5,-504 207.5,-504 207.5,-504 400.791,-468.674 471.764,-455.703"/>
</g>
<!-- Epstein&#45;&#45;ggt -->
<g id="edge9" class="edge"><title>Epstein&#45;&#45;ggt</title>
<path fill="none" stroke="black" d="M199.954,-720.208C217.757,-680.105 262.576,-579.144 280.211,-539.42"/>
</g>
<!-- Conway -->
<g id="node8" class="node"><title>Conway</title>
<ellipse fill="none" stroke="black" cx="145.5" cy="-594" rx="40.5" ry="18"/>
<text text-anchor="middle" x="145.5" y="-590.3" font-family="Times,serif" font-size="14.00">Conway</text>
</g>
<!-- Conway&#45;&#45;hg -->
<g id="edge13" class="edge"><title>Conway&#45;&#45;hg</title>
<path fill="none" stroke="black" d="M163.964,-577.497C194.333,-551.998 251.5,-504 251.5,-504 251.5,-504 409.248,-470.014 472.1,-456.472"/>
</g>
<!-- Conway&#45;&#45;ggt -->
<g id="edge11" class="edge"><title>Conway&#45;&#45;ggt</title>
<path fill="none" stroke="black" d="M171.545,-580.161C198.768,-566.741 240.969,-545.938 266.251,-533.475"/>
</g>
<!-- Conway&#45;&#45;kt -->
<g id="edge12" class="edge"><title>Conway&#45;&#45;kt</title>
<path fill="none" stroke="black" d="M184.074,-588.343C291.198,-575.41 584.5,-540 584.5,-540 584.5,-540 611.979,-533.687 633.447,-528.755"/>
</g>
<!-- Conway&#45;&#45;lat -->
<g id="edge14" class="edge"><title>Conway&#45;&#45;lat</title>
<path fill="none" stroke="black" d="M156.872,-576.676C174.771,-550.982 207.5,-504 207.5,-504 207.5,-504 370.5,-432 370.5,-432 370.5,-432 474.5,-396 474.5,-396 474.5,-396 483.509,-392.265 493.081,-388.296"/>
</g>
<!-- Conway&#45;&#45;vd -->
<g id="edge15" class="edge"><title>Conway&#45;&#45;vd</title>
<path fill="none" stroke="black" d="M152.056,-575.84C161.936,-549.978 179.5,-504 179.5,-504 179.5,-504 285.5,-432 285.5,-432 285.5,-432 440.5,-396 440.5,-396 440.5,-396 479.5,-360 479.5,-360 479.5,-360 534.99,-332.769 566.42,-317.345"/>
</g>
<!-- kt&#45;&#45;kg -->
<g id="edge80" class="edge"><title>kt&#45;&#45;kg</title>
<path fill="none" stroke="black" d="M663.602,-504.153C671.877,-476.824 688.134,-423.14 696.405,-395.825"/>
</g>
<!-- kt&#45;&#45;hg -->
<g id="edge79" class="edge"><title>kt&#45;&#45;hg</title>
<path fill="none" stroke="black" d="M636.451,-511.414C605.706,-498.046 550.281,-473.948 519.54,-460.583"/>
</g>
<!-- lat&#45;&#45;vd -->
<g id="edge96" class="edge"><title>lat&#45;&#45;vd</title>
<path fill="none" stroke="black" d="M530.07,-362.834C542.48,-350.77 560.231,-333.512 572.704,-321.385"/>
</g>
<!-- crys -->
<g id="node13" class="node"><title>crys</title>
<ellipse fill="none" stroke="black" cx="549.5" cy="-234" rx="27" ry="18"/>
<text text-anchor="middle" x="549.5" y="-230.3" font-family="Times,serif" font-size="14.00">crys</text>
</g>
<!-- lat&#45;&#45;crys -->
<g id="edge95" class="edge"><title>lat&#45;&#45;crys</title>
<path fill="none" stroke="black" d="M519.534,-360.153C526.077,-332.824 538.931,-279.14 545.471,-251.825"/>
</g>
<!-- vd&#45;&#45;crys -->
<g id="edge97" class="edge"><title>vd&#45;&#45;crys</title>
<path fill="none" stroke="black" d="M578.687,-288.765C572.548,-277.456 564.394,-262.437 558.266,-251.147"/>
</g>
<!-- gcv -->
<g id="node14" class="node"><title>gcv</title>
<ellipse fill="none" stroke="black" cx="619.5" cy="-162" rx="27" ry="18"/>
<text text-anchor="middle" x="619.5" y="-158.3" font-family="Times,serif" font-size="14.00">gcv</text>
</g>
<!-- vd&#45;&#45;gcv -->
<g id="edge98" class="edge"><title>vd&#45;&#45;gcv</title>
<path fill="none" stroke="black" d="M591.296,-288.153C597.455,-260.824 609.553,-207.14 615.708,-179.825"/>
</g>
<!-- cv -->
<g id="node34" class="node"><title>cv</title>
<ellipse fill="none" stroke="black" cx="799.5" cy="-234" rx="27" ry="18"/>
<text text-anchor="middle" x="799.5" y="-230.3" font-family="Times,serif" font-size="14.00">cv</text>
</g>
<!-- vd&#45;&#45;cv -->
<g id="edge99" class="edge"><title>vd&#45;&#45;cv</title>
<path fill="none" stroke="black" d="M610.079,-295.992C650.244,-281.776 733.164,-254.452 774.796,-241.772"/>
</g>
<!-- Taylor -->
<g id="node12" class="node"><title>Taylor</title>
<ellipse fill="none" stroke="black" cx="293.5" cy="-378" rx="35" ry="18"/>
<text text-anchor="middle" x="293.5" y="-374.3" font-family="Times,serif" font-size="14.00">Taylor</text>
</g>
<!-- Taylor&#45;&#45;vd -->
<g id="edge17" class="edge"><title>Taylor&#45;&#45;vd</title>
<path fill="none" stroke="black" d="M320.614,-366.524C329.669,-363.026 337.5,-360 337.5,-360 337.5,-360 498.596,-325.848 562.153,-312.374"/>
</g>
<!-- Taylor&#45;&#45;crys -->
<g id="edge16" class="edge"><title>Taylor&#45;&#45;crys</title>
<path fill="none" stroke="black" d="M316.67,-364.148C366.394,-336.567 482.612,-272.102 529.429,-246.133"/>
</g>
<!-- Taylor&#45;&#45;gcv -->
<g id="edge18" class="edge"><title>Taylor&#45;&#45;gcv</title>
<path fill="none" stroke="black" d="M309.446,-361.902C336.264,-336.51 387.5,-288 387.5,-288 387.5,-288 483.5,-216 483.5,-216 483.5,-216 558.021,-186.959 596.737,-171.871"/>
</g>
<!-- fd -->
<g id="node15" class="node"><title>fd</title>
<ellipse fill="none" stroke="black" cx="580.5" cy="-18" rx="27" ry="18"/>
<text text-anchor="middle" x="580.5" y="-14.3" font-family="Times,serif" font-size="14.00">fd</text>
</g>
<!-- Taylor&#45;&#45;fd -->
<g id="edge19" class="edge"><title>Taylor&#45;&#45;fd</title>
<path fill="none" stroke="black" d="M292.414,-359.871C290.021,-322.104 284.5,-235 284.5,-235 284.5,-235 284.5,-235 284.5,-161 284.5,-161 491.342,-61.7716 559.212,-29.2123"/>
</g>
<!-- crys&#45;&#45;gcv -->
<g id="edge105" class="edge"><title>crys&#45;&#45;gcv</title>
<path fill="none" stroke="black" d="M564.004,-218.496C576.018,-206.482 593.006,-189.494 605.015,-177.485"/>
</g>
<!-- crys&#45;&#45;fd -->
<g id="edge104" class="edge"><title>crys&#45;&#45;fd</title>
<path fill="none" stroke="black" d="M551.984,-215.849C557.803,-175.68 572.259,-75.8902 578.047,-35.9354"/>
</g>
<!-- gcv&#45;&#45;fd -->
<g id="edge106" class="edge"><title>gcv&#45;&#45;fd</title>
<path fill="none" stroke="black" d="M614.873,-144.153C607.367,-116.824 592.623,-63.14 585.121,-35.825"/>
</g>
<!-- gcv&#45;&#45;cg -->
<g id="edge107" class="edge"><title>gcv&#45;&#45;cg</title>
<path fill="none" stroke="black" d="M642.725,-152.6C654.566,-148.317 666.5,-144 666.5,-144 666.5,-144 787.353,-111.813 840.699,-97.6053"/>
</g>
<!-- Almgren -->
<g id="node16" class="node"><title>Almgren</title>
<ellipse fill="none" stroke="black" cx="389.5" cy="-378" rx="42.5" ry="18"/>
<text text-anchor="middle" x="389.5" y="-374.3" font-family="Times,serif" font-size="14.00">Almgren</text>
</g>
<!-- Almgren&#45;&#45;vd -->
<g id="edge21" class="edge"><title>Almgren&#45;&#45;vd</title>
<path fill="none" stroke="black" d="M421.312,-365.753C461.213,-351.647 528.683,-327.794 564.136,-315.26"/>
</g>
<!-- Almgren&#45;&#45;crys -->
<g id="edge20" class="edge"><title>Almgren&#45;&#45;crys</title>
<path fill="none" stroke="black" d="M411.634,-362.518C435.616,-346.825 470.5,-324 470.5,-324 470.5,-324 513.56,-275.49 536.099,-250.098"/>
</g>
<!-- Almgren&#45;&#45;gcv -->
<g id="edge22" class="edge"><title>Almgren&#45;&#45;gcv</title>
<path fill="none" stroke="black" d="M402.072,-360.676C433.597,-319.746 513.5,-216 513.5,-216 513.5,-216 567.666,-188.917 598.558,-173.471"/>
</g>
<!-- Almgren&#45;&#45;fd -->
<g id="edge23" class="edge"><title>Almgren&#45;&#45;fd</title>
<path fill="none" stroke="black" d="M396.827,-359.84C407.869,-333.978 427.5,-288 427.5,-288 427.5,-288 538.449,-92.9323 571.387,-35.0216"/>
</g>
<!-- Freedman -->
<g id="node17" class="node"><title>Freedman</title>
<ellipse fill="none" stroke="black" cx="774.5" cy="-738" rx="46.5" ry="18"/>
<text text-anchor="middle" x="774.5" y="-734.3" font-family="Times,serif" font-size="14.00">Freedman</text>
</g>
<!-- Freedman&#45;&#45;ldt -->
<g id="edge25" class="edge"><title>Freedman&#45;&#45;ldt</title>
<path fill="none" stroke="black" d="M736.827,-727.34C680.074,-712.788 574.194,-685.639 526.237,-673.343"/>
</g>
<!-- Freedman&#45;&#45;gcv -->
<g id="edge24" class="edge"><title>Freedman&#45;&#45;gcv</title>
<path fill="none" stroke="black" d="M814.709,-728.835C887.922,-713.968 1035.5,-684 1035.5,-684 1035.5,-684 1271.5,-612 1271.5,-612 1271.5,-612 1271.5,-576 1271.5,-576 1271.5,-576 1179.5,-432 1179.5,-432 1179.5,-432 999.5,-396 999.5,-396 999.5,-396 835.5,-216 835.5,-216 835.5,-216 701.679,-183.164 644.701,-169.184"/>
</g>
<!-- Freedman&#45;&#45;ds -->
<g id="edge26" class="edge"><title>Freedman&#45;&#45;ds</title>
<path fill="none" stroke="black" d="M770.644,-719.84C764.832,-693.978 754.5,-648 754.5,-648 754.5,-648 742.887,-626.776 734.359,-611.19"/>
</g>
<!-- ds&#45;&#45;ggt -->
<g id="edge75" class="edge"><title>ds&#45;&#45;ggt</title>
<path fill="none" stroke="black" d="M699.413,-588.831C621.51,-576.381 391.174,-539.569 313.451,-527.147"/>
</g>
<!-- ds&#45;&#45;cd -->
<g id="edge76" class="edge"><title>ds&#45;&#45;cd</title>
<path fill="none" stroke="black" d="M745.15,-581.441C767.199,-568.471 802.76,-547.553 824.82,-534.576"/>
</g>
<!-- fg -->
<g id="node23" class="node"><title>fg</title>
<ellipse fill="none" stroke="black" cx="857.5" cy="-450" rx="27" ry="18"/>
<text text-anchor="middle" x="857.5" y="-446.3" font-family="Times,serif" font-size="14.00">fg</text>
</g>
<!-- ds&#45;&#45;fg -->
<g id="edge77" class="edge"><title>ds&#45;&#45;fg</title>
<path fill="none" stroke="black" d="M739.129,-578.338C764.423,-551.128 818.36,-493.105 843.747,-465.795"/>
</g>
<!-- sg -->
<g id="node26" class="node"><title>sg</title>
<ellipse fill="none" stroke="black" cx="887.5" cy="-378" rx="27" ry="18"/>
<text text-anchor="middle" x="887.5" y="-374.3" font-family="Times,serif" font-size="14.00">sg</text>
</g>
<!-- ds&#45;&#45;sg -->
<g id="edge78" class="edge"><title>ds&#45;&#45;sg</title>
<path fill="none" stroke="black" d="M734.121,-576.676C747.689,-550.982 772.5,-504 772.5,-504 772.5,-504 821.5,-432 821.5,-432 821.5,-432 851.293,-408.075 870.845,-392.374"/>
</g>
<!-- Milnor -->
<g id="node19" class="node"><title>Milnor</title>
<ellipse fill="none" stroke="black" cx="556.5" cy="-738" rx="35.9954" ry="18"/>
<text text-anchor="middle" x="556.5" y="-734.3" font-family="Times,serif" font-size="14.00">Milnor</text>
</g>
<!-- Milnor&#45;&#45;ldt -->
<g id="edge27" class="edge"><title>Milnor&#45;&#45;ldt</title>
<path fill="none" stroke="black" d="M544.02,-721.116C534.892,-709.499 522.579,-693.828 513.553,-682.34"/>
</g>
<!-- Milnor&#45;&#45;hg -->
<g id="edge30" class="edge"><title>Milnor&#45;&#45;hg</title>
<path fill="none" stroke="black" d="M534.006,-723.899C507.058,-708.204 465.5,-684 465.5,-684 465.5,-684 465.5,-648 465.5,-648 465.5,-648 486.931,-516.067 494.716,-468.138"/>
</g>
<!-- Milnor&#45;&#45;kt -->
<g id="edge31" class="edge"><title>Milnor&#45;&#45;kt</title>
<path fill="none" stroke="black" d="M563.018,-720.074C578.936,-678.738 618.5,-576 618.5,-576 618.5,-576 635.117,-553.983 646.93,-538.33"/>
</g>
<!-- Milnor&#45;&#45;ds -->
<g id="edge29" class="edge"><title>Milnor&#45;&#45;ds</title>
<path fill="none" stroke="black" d="M573.633,-721.902C602.449,-696.51 657.5,-648 657.5,-648 657.5,-648 688.554,-623.796 708.691,-608.101"/>
</g>
<!-- Milnor&#45;&#45;cd -->
<g id="edge28" class="edge"><title>Milnor&#45;&#45;cd</title>
<path fill="none" stroke="black" d="M587.438,-728.719C643.125,-713.812 754.5,-684 754.5,-684 754.5,-684 812.777,-579.749 835.541,-539.026"/>
</g>
<!-- cd&#45;&#45;kg -->
<g id="edge82" class="edge"><title>cd&#45;&#45;kg</title>
<path fill="none" stroke="black" d="M830.001,-506.603C802.593,-479.386 743.475,-420.681 716.037,-393.435"/>
</g>
<!-- cd&#45;&#45;fg -->
<g id="edge81" class="edge"><title>cd&#45;&#45;fg</title>
<path fill="none" stroke="black" d="M847.647,-504.055C849.661,-493.211 852.266,-479.183 854.292,-468.275"/>
</g>
<!-- Douady -->
<g id="node21" class="node"><title>Douady</title>
<ellipse fill="none" stroke="black" cx="706.5" cy="-666" rx="39.5" ry="18"/>
<text text-anchor="middle" x="706.5" y="-662.3" font-family="Times,serif" font-size="14.00">Douady</text>
</g>
<!-- Douady&#45;&#45;kg -->
<g id="edge34" class="edge"><title>Douady&#45;&#45;kg</title>
<path fill="none" stroke="black" d="M701.028,-647.939C696.058,-632.445 689.5,-612 689.5,-612 689.5,-612 689.5,-576 689.5,-576 689.5,-576 694.5,-540 694.5,-540 694.5,-540 698.945,-437.763 700.751,-396.23"/>
</g>
<!-- Douady&#45;&#45;ds -->
<g id="edge33" class="edge"><title>Douady&#45;&#45;ds</title>
<path fill="none" stroke="black" d="M711.099,-648.055C714.087,-637.049 717.964,-622.764 720.943,-611.789"/>
</g>
<!-- Douady&#45;&#45;cd -->
<g id="edge32" class="edge"><title>Douady&#45;&#45;cd</title>
<path fill="none" stroke="black" d="M722.704,-649.385C738.928,-633.751 761.5,-612 761.5,-612 761.5,-612 807.22,-562.975 830.794,-537.697"/>
</g>
<!-- Hubard -->
<g id="node22" class="node"><title>Hubard</title>
<ellipse fill="none" stroke="black" cx="989.5" cy="-666" rx="37.5" ry="18"/>
<text text-anchor="middle" x="989.5" y="-662.3" font-family="Times,serif" font-size="14.00">Hubard</text>
</g>
<!-- Hubard&#45;&#45;kg -->
<g id="edge37" class="edge"><title>Hubard&#45;&#45;kg</title>
<path fill="none" stroke="black" d="M1007.1,-649.954C1025.43,-634.285 1051.5,-612 1051.5,-612 1051.5,-612 1051.5,-576 1051.5,-576 1051.5,-576 916.5,-432 916.5,-432 916.5,-432 742.5,-396 742.5,-396 742.5,-396 733.491,-392.265 723.919,-388.296"/>
</g>
<!-- Hubard&#45;&#45;ds -->
<g id="edge35" class="edge"><title>Hubard&#45;&#45;ds</title>
<path fill="none" stroke="black" d="M957.392,-656.487C904.075,-642.35 798.396,-614.328 750.335,-601.585"/>
</g>
<!-- Hubard&#45;&#45;cd -->
<g id="edge36" class="edge"><title>Hubard&#45;&#45;cd</title>
<path fill="none" stroke="black" d="M969.133,-650.797C946.621,-635.098 913.5,-612 913.5,-612 913.5,-612 876.288,-564.002 856.519,-538.503"/>
</g>
<!-- Hubard&#45;&#45;fg -->
<g id="edge38" class="edge"><title>Hubard&#45;&#45;fg</title>
<path fill="none" stroke="black" d="M1003.9,-649.098C1018.04,-633.487 1037.5,-612 1037.5,-612 1037.5,-612 1037.5,-576 1037.5,-576 1037.5,-576 921.511,-495.452 875.75,-463.674"/>
</g>
<!-- fg&#45;&#45;kg -->
<g id="edge83" class="edge"><title>fg&#45;&#45;kg</title>
<path fill="none" stroke="black" d="M835.809,-439.267C806.088,-425.931 753.013,-402.115 723.258,-388.763"/>
</g>
<!-- fg&#45;&#45;sg -->
<g id="edge84" class="edge"><title>fg&#45;&#45;sg</title>
<path fill="none" stroke="black" d="M864.61,-432.411C869.392,-421.252 875.67,-406.604 880.441,-395.47"/>
</g>
<!-- Mandelbrot -->
<g id="node24" class="node"><title>Mandelbrot</title>
<ellipse fill="none" stroke="black" cx="975.5" cy="-594" rx="53" ry="18"/>
<text text-anchor="middle" x="975.5" y="-590.3" font-family="Times,serif" font-size="14.00">Mandelbrot</text>
</g>
<!-- Mandelbrot&#45;&#45;kg -->
<g id="edge41" class="edge"><title>Mandelbrot&#45;&#45;kg</title>
<path fill="none" stroke="black" d="M966.88,-576.074C945.826,-534.738 893.5,-432 893.5,-432 893.5,-432 742.5,-396 742.5,-396 742.5,-396 733.491,-392.265 723.919,-388.296"/>
</g>
<!-- Mandelbrot&#45;&#45;cd -->
<g id="edge39" class="edge"><title>Mandelbrot&#45;&#45;cd</title>
<path fill="none" stroke="black" d="M948.357,-578.496C923.626,-565.281 887.63,-546.047 865.165,-534.042"/>
</g>
<!-- Mandelbrot&#45;&#45;fg -->
<g id="edge40" class="edge"><title>Mandelbrot&#45;&#45;fg</title>
<path fill="none" stroke="black" d="M959.616,-576.81C944.323,-561.224 923.5,-540 923.5,-540 923.5,-540 887.906,-492.002 868.996,-466.503"/>
</g>
<!-- Wilks -->
<g id="node25" class="node"><title>Wilks</title>
<ellipse fill="none" stroke="black" cx="1230.5" cy="-594" rx="32.4942" ry="18"/>
<text text-anchor="middle" x="1230.5" y="-590.3" font-family="Times,serif" font-size="14.00">Wilks</text>
</g>
<!-- Wilks&#45;&#45;cd -->
<g id="edge44" class="edge"><title>Wilks&#45;&#45;cd</title>
<path fill="none" stroke="black" d="M1199.89,-587.449C1126.07,-574.061 939.267,-540.186 870.462,-527.708"/>
</g>
<!-- Wilks&#45;&#45;sg -->
<g id="edge42" class="edge"><title>Wilks&#45;&#45;sg</title>
<path fill="none" stroke="black" d="M1221.17,-576.521C1212.37,-560.963 1200.5,-540 1200.5,-540 1200.5,-540 1157.5,-432 1157.5,-432 1157.5,-432 966.5,-396 966.5,-396 966.5,-396 936.025,-389.442 912.931,-384.472"/>
</g>
<!-- gv -->
<g id="node27" class="node"><title>gv</title>
<ellipse fill="none" stroke="black" cx="1056.5" cy="-162" rx="27" ry="18"/>
<text text-anchor="middle" x="1056.5" y="-158.3" font-family="Times,serif" font-size="14.00">gv</text>
</g>
<!-- Wilks&#45;&#45;gv -->
<g id="edge43" class="edge"><title>Wilks&#45;&#45;gv</title>
<path fill="none" stroke="black" d="M1227.85,-575.867C1219.54,-522.058 1194.5,-360 1194.5,-360 1194.5,-360 1100.5,-216 1100.5,-216 1100.5,-216 1082,-193.715 1068.99,-178.046"/>
</g>
<!-- Wilks&#45;&#45;cg -->
<g id="edge45" class="edge"><title>Wilks&#45;&#45;cg</title>
<path fill="none" stroke="black" d="M1231.79,-575.939C1232.96,-560.445 1234.5,-540 1234.5,-540 1234.5,-540 1234.5,-504 1234.5,-504 1234.5,-504 1211.5,-360 1211.5,-360 1211.5,-360 1188.5,-288 1188.5,-288 1188.5,-288 1132.5,-144 1132.5,-144 1132.5,-144 957.929,-109.347 891.101,-96.0819"/>
</g>
<!-- sg&#45;&#45;gv -->
<g id="edge93" class="edge"><title>sg&#45;&#45;gv</title>
<path fill="none" stroke="black" d="M900.788,-362.17C930.455,-329.059 999.5,-252 999.5,-252 999.5,-252 1029.91,-204.511 1046.31,-178.911"/>
</g>
<!-- sg&#45;&#45;cv -->
<g id="edge94" class="edge"><title>sg&#45;&#45;cv</title>
<path fill="none" stroke="black" d="M880.163,-360.676C868.616,-334.982 847.5,-288 847.5,-288 847.5,-288 827.073,-265.446 812.871,-249.763"/>
</g>
<!-- dv -->
<g id="node36" class="node"><title>dv</title>
<ellipse fill="none" stroke="black" cx="811.5" cy="-306" rx="27" ry="18"/>
<text text-anchor="middle" x="811.5" y="-302.3" font-family="Times,serif" font-size="14.00">dv</text>
</g>
<!-- sg&#45;&#45;dv -->
<g id="edge92" class="edge"><title>sg&#45;&#45;dv</title>
<path fill="none" stroke="black" d="M872.12,-362.834C858.935,-350.69 840.036,-333.283 826.857,-321.144"/>
</g>
<!-- cg&#45;&#45;fd -->
<g id="edge108" class="edge"><title>cg&#45;&#45;fd</title>
<path fill="none" stroke="black" d="M840.208,-82.788C785.988,-69.4708 659.131,-38.3129 605.328,-25.0982"/>
</g>
<!-- Dobkin -->
<g id="node29" class="node"><title>Dobkin</title>
<ellipse fill="none" stroke="black" cx="1046.5" cy="-378" rx="37.5" ry="18"/>
<text text-anchor="middle" x="1046.5" y="-374.3" font-family="Times,serif" font-size="14.00">Dobkin</text>
</g>
<!-- Dobkin&#45;&#45;vd -->
<g id="edge47" class="edge"><title>Dobkin&#45;&#45;vd</title>
<path fill="none" stroke="black" d="M1011.25,-371.623C922.553,-358.097 691.689,-322.889 613.687,-310.994"/>
</g>
<!-- Dobkin&#45;&#45;gv -->
<g id="edge46" class="edge"><title>Dobkin&#45;&#45;gv</title>
<path fill="none" stroke="black" d="M1047.3,-359.849C1049.17,-319.78 1053.82,-220.383 1055.69,-180.232"/>
</g>
<!-- Dobkin&#45;&#45;cg -->
<g id="edge48" class="edge"><title>Dobkin&#45;&#45;cg</title>
<path fill="none" stroke="black" d="M1036.72,-360.26C1021.66,-334.479 994.5,-288 994.5,-288 994.5,-288 911.5,-252 911.5,-252 911.5,-252 882.146,-149.262 870.336,-107.926"/>
</g>
<!-- Chazelle -->
<g id="node30" class="node"><title>Chazelle</title>
<ellipse fill="none" stroke="black" cx="1143.5" cy="-378" rx="42" ry="18"/>
<text text-anchor="middle" x="1143.5" y="-374.3" font-family="Times,serif" font-size="14.00">Chazelle</text>
</g>
<!-- Chazelle&#45;&#45;vd -->
<g id="edge51" class="edge"><title>Chazelle&#45;&#45;vd</title>
<path fill="none" stroke="black" d="M1111.49,-366.33C1101.24,-362.915 1092.5,-360 1092.5,-360 1092.5,-360 717.847,-320.68 613.94,-309.775"/>
</g>
<!-- Chazelle&#45;&#45;gv -->
<g id="edge50" class="edge"><title>Chazelle&#45;&#45;gv</title>
<path fill="none" stroke="black" d="M1136.67,-360.208C1120.41,-320.204 1079.53,-219.639 1063.3,-179.714"/>
</g>
<!-- Chazelle&#45;&#45;cg -->
<g id="edge49" class="edge"><title>Chazelle&#45;&#45;cg</title>
<path fill="none" stroke="black" d="M1140.22,-359.84C1135.28,-333.978 1126.5,-288 1126.5,-288 1126.5,-288 1092.5,-144 1092.5,-144 1092.5,-144 949.763,-110.674 890.66,-96.8744"/>
</g>
<!-- Peskin -->
<g id="node31" class="node"><title>Peskin</title>
<ellipse fill="none" stroke="black" cx="955.5" cy="-234" rx="35" ry="18"/>
<text text-anchor="middle" x="955.5" y="-230.3" font-family="Times,serif" font-size="14.00">Peskin</text>
</g>
<!-- Peskin&#45;&#45;gcv -->
<g id="edge53" class="edge"><title>Peskin&#45;&#45;gcv</title>
<path fill="none" stroke="black" d="M923.587,-226.351C857.244,-212.53 705.589,-180.935 645.099,-168.333"/>
</g>
<!-- Peskin&#45;&#45;fd -->
<g id="edge52" class="edge"><title>Peskin&#45;&#45;fd</title>
<path fill="none" stroke="black" d="M949.823,-216.074C935.959,-174.738 901.5,-72 901.5,-72 901.5,-72 682.916,-35.9098 606.497,-23.2923"/>
</g>
<!-- Peskin&#45;&#45;gv -->
<g id="edge54" class="edge"><title>Peskin&#45;&#45;gv</title>
<path fill="none" stroke="black" d="M975.454,-219.17C993.736,-206.5 1020.57,-187.9 1038.28,-175.625"/>
</g>
<!-- Tarjan -->
<g id="node32" class="node"><title>Tarjan</title>
<ellipse fill="none" stroke="black" cx="541.5" cy="-522" rx="34" ry="18"/>
<text text-anchor="middle" x="541.5" y="-518.3" font-family="Times,serif" font-size="14.00">Tarjan</text>
</g>
<!-- Tarjan&#45;&#45;hg -->
<g id="edge56" class="edge"><title>Tarjan&#45;&#45;hg</title>
<path fill="none" stroke="black" d="M531.295,-504.765C524.187,-493.456 514.746,-478.437 507.65,-467.147"/>
</g>
<!-- Tarjan&#45;&#45;cg -->
<g id="edge55" class="edge"><title>Tarjan&#45;&#45;cg</title>
<path fill="none" stroke="black" d="M553.123,-505.031C598.801,-442.275 763.5,-216 763.5,-216 763.5,-216 821.5,-144 821.5,-144 821.5,-144 840.001,-121.715 853.009,-106.046"/>
</g>
<!-- Mumford -->
<g id="node33" class="node"><title>Mumford</title>
<ellipse fill="none" stroke="black" cx="1103.5" cy="-450" rx="45.4919" ry="18"/>
<text text-anchor="middle" x="1103.5" y="-446.3" font-family="Times,serif" font-size="14.00">Mumford</text>
</g>
<!-- Mumford&#45;&#45;kg -->
<g id="edge57" class="edge"><title>Mumford&#45;&#45;kg</title>
<path fill="none" stroke="black" d="M1062.64,-441.84C1036.13,-437.194 1006.5,-432 1006.5,-432 1006.5,-432 780.5,-396 780.5,-396 780.5,-396 750.025,-389.442 726.931,-384.472"/>
</g>
<!-- Mumford&#45;&#45;crys -->
<g id="edge61" class="edge"><title>Mumford&#45;&#45;crys</title>
<path fill="none" stroke="black" d="M1067.82,-438.719C1055.39,-435.139 1044.5,-432 1044.5,-432 1044.5,-432 818.5,-396 818.5,-396 818.5,-396 770.5,-360 770.5,-360 770.5,-360 623.903,-277.083 569.502,-246.313"/>
</g>
<!-- Mumford&#45;&#45;gcv -->
<g id="edge60" class="edge"><title>Mumford&#45;&#45;gcv</title>
<path fill="none" stroke="black" d="M1067.82,-438.719C1055.39,-435.139 1044.5,-432 1044.5,-432 1044.5,-432 851.5,-396 851.5,-396 851.5,-396 775.5,-324 775.5,-324 775.5,-324 672.02,-217.203 633.619,-177.572"/>
</g>
<!-- Mumford&#45;&#45;cg -->
<g id="edge58" class="edge"><title>Mumford&#45;&#45;cg</title>
<path fill="none" stroke="black" d="M1127.89,-434.797C1154.84,-419.098 1194.5,-396 1194.5,-396 1194.5,-396 1194.5,-360 1194.5,-360 1194.5,-360 1111.5,-144 1111.5,-144 1111.5,-144 953.752,-110.014 890.9,-96.4723"/>
</g>
<!-- Mumford&#45;&#45;cv -->
<g id="edge59" class="edge"><title>Mumford&#45;&#45;cv</title>
<path fill="none" stroke="black" d="M1072.07,-436.841C1031.62,-421.193 966.5,-396 966.5,-396 966.5,-396 869.5,-288 869.5,-288 869.5,-288 837.532,-263.796 816.803,-248.101"/>
</g>
<!-- cv&#45;&#45;vd -->
<g id="edge100" class="edge"><title>cv&#45;&#45;vd</title>
<path fill="none" stroke="black" d="M776.994,-243.982C736.792,-258.214 653.598,-285.627 612.006,-298.288"/>
</g>
<!-- cv&#45;&#45;gcv -->
<g id="edge101" class="edge"><title>cv&#45;&#45;gcv</title>
<path fill="none" stroke="black" d="M776.703,-224.134C742.174,-210.706 676.983,-185.355 642.396,-171.904"/>
</g>
<!-- cv&#45;&#45;gv -->
<g id="edge103" class="edge"><title>cv&#45;&#45;gv</title>
<path fill="none" stroke="black" d="M824.142,-226.288C873.265,-212.908 982.87,-183.055 1031.93,-169.692"/>
</g>
<!-- cv&#45;&#45;cg -->
<g id="edge102" class="edge"><title>cv&#45;&#45;cg</title>
<path fill="none" stroke="black" d="M807.071,-216.711C819.734,-189.465 845.074,-134.946 857.814,-107.537"/>
</g>
<!-- Thurston -->
<g id="node35" class="node"><title>Thurston</title>
<ellipse fill="none" stroke="black" cx="1007.5" cy="-738" rx="43.5" ry="18"/>
<text text-anchor="middle" x="1007.5" y="-734.3" font-family="Times,serif" font-size="14.00">Thurston</text>
</g>
<!-- Thurston&#45;&#45;ldt -->
<g id="edge68" class="edge"><title>Thurston&#45;&#45;ldt</title>
<path fill="none" stroke="black" d="M966.605,-731.428C866.731,-717.821 618.5,-684 618.5,-684 618.5,-684 562.253,-675.827 527.757,-670.815"/>
</g>
<!-- Thurston&#45;&#45;kg -->
<g id="edge66" class="edge"><title>Thurston&#45;&#45;kg</title>
<path fill="none" stroke="black" d="M1016.36,-720.23C1024.56,-704.703 1035.5,-684 1035.5,-684 1035.5,-684 1065.5,-612 1065.5,-612 1065.5,-612 1065.5,-576 1065.5,-576 1065.5,-576 1014.5,-504 1014.5,-504 1014.5,-504 947.5,-432 947.5,-432 947.5,-432 742.5,-396 742.5,-396 742.5,-396 733.491,-392.265 723.919,-388.296"/>
</g>
<!-- Thurston&#45;&#45;ggt -->
<g id="edge62" class="edge"><title>Thurston&#45;&#45;ggt</title>
<path fill="none" stroke="black" d="M965.421,-732.885C838.076,-720.433 465.5,-684 465.5,-684 465.5,-684 365.5,-612 365.5,-612 365.5,-612 322.985,-563.49 300.732,-538.098"/>
</g>
<!-- Thurston&#45;&#45;kt -->
<g id="edge69" class="edge"><title>Thurston&#45;&#45;kt</title>
<path fill="none" stroke="black" d="M967.351,-730.92C875.417,-716.999 657.5,-684 657.5,-684 657.5,-684 656.5,-612 656.5,-612 656.5,-612 656.5,-576 656.5,-576 656.5,-576 657.272,-555.555 657.856,-540.061"/>
</g>
<!-- Thurston&#45;&#45;vd -->
<g id="edge63" class="edge"><title>Thurston&#45;&#45;vd</title>
<path fill="none" stroke="black" d="M1022.5,-721.098C1037.23,-705.487 1057.5,-684 1057.5,-684 1057.5,-684 1079.5,-612 1079.5,-612 1079.5,-612 1079.5,-576 1079.5,-576 1079.5,-576 1041.5,-504 1041.5,-504 1041.5,-504 978.5,-432 978.5,-432 978.5,-432 770.5,-396 770.5,-396 770.5,-396 737.5,-360 737.5,-360 737.5,-360 653.125,-330.188 610.938,-315.281"/>
</g>
<!-- Thurston&#45;&#45;cd -->
<g id="edge67" class="edge"><title>Thurston&#45;&#45;cd</title>
<path fill="none" stroke="black" d="M988.699,-721.67C969.502,-706.017 942.5,-684 942.5,-684 942.5,-684 883.5,-612 883.5,-612 883.5,-612 863.133,-565.521 851.836,-539.74"/>
</g>
<!-- Thurston&#45;&#45;gv -->
<g id="edge65" class="edge"><title>Thurston&#45;&#45;gv</title>
<path fill="none" stroke="black" d="M1035.25,-723.859C1103.03,-691.766 1271.5,-612 1271.5,-612 1271.5,-612 1271.5,-576 1271.5,-576 1271.5,-576 1211.5,-360 1211.5,-360 1211.5,-360 1173.5,-288 1173.5,-288 1173.5,-288 1126.5,-216 1126.5,-216 1126.5,-216 1094.53,-191.796 1073.8,-176.101"/>
</g>
<!-- Thurston&#45;&#45;cg -->
<g id="edge64" class="edge"><title>Thurston&#45;&#45;cg</title>
<path fill="none" stroke="black" d="M1037.8,-725.016C1124.35,-690.781 1366.5,-595 1366.5,-595 1366.5,-595 1366.5,-595 1366.5,-233 1366.5,-233 1153.5,-144 1153.5,-144 1153.5,-144 962.001,-108.759 891.312,-95.75"/>
</g>
</g>
</svg>
