<?xml version="1.0" encoding="UTF-8" standalone="no"?>
<!DOCTYPE svg PUBLIC "-//W3C//DTD SVG 1.1//EN"
 "http://www.w3.org/Graphics/SVG/1.1/DTD/svg11.dtd">
<!-- Generated by graphviz version 2.38.0 (20140413.2041)
 -->
<!-- Title: G Pages: 1 -->
<svg width="308pt" height="228pt"
 viewBox="0.00 0.00 308.00 228.00" xmlns="http://www.w3.org/2000/svg" xmlns:xlink="http://www.w3.org/1999/xlink">
<g id="graph0" class="graph" transform="scale(1 1) rotate(0) translate(4 224)">
<title>G</title>
<polygon fill="white" stroke="none" points="-4,4 -4,-224 304,-224 304,4 -4,4"/>
<g id="clust2" class="cluster"><title>cluster_ss81</title>
<polygon fill="none" stroke="black" points="64,-8 64,-204 134,-204 134,-8 64,-8"/>
</g>
<g id="clust6" class="cluster"><title>cluster_x</title>
<polygon fill="none" stroke="black" points="142,-144 142,-212 292,-212 292,-144 142,-144"/>
</g>
<g id="clust7" class="cluster"><title>cluster_y</title>
<polygon fill="none" stroke="black" points="214,-152 214,-204 284,-204 284,-152 214,-152"/>
</g>
<!-- e -->
<g id="node1" class="node"><title>e</title>
<ellipse fill="#00ff00" fill-opacity="0.372549" stroke="#00ff00" stroke-opacity="0.372549" cx="27" cy="-178" rx="27" ry="18"/>
<text text-anchor="middle" x="27" y="-174.3" font-family="Times,serif" font-size="14.00">e</text>
</g>
<!-- f -->
<g id="node2" class="node"><title>f</title>
<ellipse fill="#00ff00" fill-opacity="0.372549" stroke="#00ff00" stroke-opacity="0.372549" cx="27" cy="-106" rx="27" ry="18"/>
<text text-anchor="middle" x="27" y="-102.3" font-family="Times,serif" font-size="14.00">f</text>
</g>
<!-- e&#45;&gt;f -->
<g id="edge1" class="edge"><title>e&#45;&gt;f</title>
<path fill="none" stroke="black" d="M27,-159.697C27,-151.983 27,-142.712 27,-134.112"/>
<polygon fill="black" stroke="black" points="30.5001,-134.104 27,-124.104 23.5001,-134.104 30.5001,-134.104"/>
</g>
<!-- a -->
<g id="node3" class="node"><title>a</title>
<ellipse fill="#00ff00" fill-opacity="0.372549" stroke="#00ff00" stroke-opacity="0.372549" cx="99" cy="-178" rx="27" ry="18"/>
<text text-anchor="middle" x="99" y="-174.3" font-family="Times,serif" font-size="14.00">a</text>
</g>
<!-- b -->
<g id="node4" class="node"><title>b</title>
<ellipse fill="#00ff00" fill-opacity="0.372549" stroke="#00ff00" stroke-opacity="0.372549" cx="99" cy="-106" rx="27" ry="18"/>
<text text-anchor="middle" x="99" y="-102.3" font-family="Times,serif" font-size="14.00">b</text>
</g>
<!-- a&#45;&gt;b -->
<g id="edge2" class="edge"><title>a&#45;&gt;b</title>
<path fill="none" stroke="black" d="M99,-159.697C99,-151.983 99,-142.712 99,-134.112"/>
<polygon fill="black" stroke="black" points="102.5,-134.104 99,-124.104 95.5001,-134.104 102.5,-134.104"/>
</g>
<!-- c -->
<g id="node5" class="node"><title>c</title>
<ellipse fill="#00ff00" fill-opacity="0.372549" stroke="#00ff00" stroke-opacity="0.372549" cx="99" cy="-34" rx="27" ry="18"/>
<text text-anchor="middle" x="99" y="-30.3" font-family="Times,serif" font-size="14.00">c</text>
</g>
<!-- b&#45;&gt;c -->
<g id="edge3" class="edge"><title>b&#45;&gt;c</title>
<path fill="none" stroke="black" d="M99,-87.6966C99,-79.9827 99,-70.7125 99,-62.1124"/>
<polygon fill="black" stroke="black" points="102.5,-62.1043 99,-52.1043 95.5001,-62.1044 102.5,-62.1043"/>
</g>
<!-- x -->
<g id="node6" class="node"><title>x</title>
<ellipse fill="#00ff00" fill-opacity="0.372549" stroke="#00ff00" stroke-opacity="0.372549" cx="177" cy="-178" rx="27" ry="18"/>
<text text-anchor="middle" x="177" y="-174.3" font-family="Times,serif" font-size="14.00">x</text>
</g>
<!-- y -->
<g id="node7" class="node"><title>y</title>
<ellipse fill="#00ff00" fill-opacity="0.372549" stroke="#00ff00" stroke-opacity="0.372549" cx="249" cy="-178" rx="27" ry="18"/>
<text text-anchor="middle" x="249" y="-174.3" font-family="Times,serif" font-size="14.00">y</text>
</g>
</g>
</svg>
