<?xml version="1.0" encoding="UTF-8" standalone="no"?>
<!DOCTYPE svg PUBLIC "-//W3C//DTD SVG 1.1//EN"
 "http://www.w3.org/Graphics/SVG/1.1/DTD/svg11.dtd">
<!-- Generated by graphviz version 2.38.0 (20140413.2041)
 -->
<!-- Title: G Pages: 1 -->
<svg width="318pt" height="228pt"
 viewBox="0.00 0.00 318.00 228.00" xmlns="http://www.w3.org/2000/svg" xmlns:xlink="http://www.w3.org/1999/xlink">
<g id="graph0" class="graph" transform="scale(1 1) rotate(0) translate(4 224)">
<title>G</title>
<polygon fill="white" stroke="none" points="-4,4 -4,-224 314,-224 314,4 -4,4"/>
<g id="clust2" class="cluster"><title>cluster_ss81</title>
<polygon fill="none" stroke="black" points="8,-8 8,-204 78,-204 78,-8 8,-8"/>
</g>
<g id="clust6" class="cluster"><title>cluster_x</title>
<polygon fill="none" stroke="black" points="152,-144 152,-212 302,-212 302,-144 152,-144"/>
</g>
<g id="clust7" class="cluster"><title>cluster_y</title>
<polygon fill="none" stroke="black" points="224,-152 224,-204 294,-204 294,-152 224,-152"/>
</g>
<!-- a -->
<g id="node1" class="node"><title>a</title>
<ellipse fill="#00ff00" fill-opacity="0.372549" stroke="#00ff00" stroke-opacity="0.372549" cx="43" cy="-178" rx="27" ry="18"/>
<text text-anchor="middle" x="43" y="-174.3" font-family="Times,serif" font-size="14.00">a</text>
</g>
<!-- b -->
<g id="node2" class="node"><title>b</title>
<ellipse fill="#00ff00" fill-opacity="0.372549" stroke="#00ff00" stroke-opacity="0.372549" cx="43" cy="-106" rx="27" ry="18"/>
<text text-anchor="middle" x="43" y="-102.3" font-family="Times,serif" font-size="14.00">b</text>
</g>
<!-- a&#45;&gt;b -->
<g id="edge1" class="edge"><title>a&#45;&gt;b</title>
<path fill="none" stroke="black" d="M43,-159.697C43,-151.983 43,-142.712 43,-134.112"/>
<polygon fill="black" stroke="black" points="46.5001,-134.104 43,-124.104 39.5001,-134.104 46.5001,-134.104"/>
</g>
<!-- c -->
<g id="node3" class="node"><title>c</title>
<ellipse fill="#00ff00" fill-opacity="0.372549" stroke="#00ff00" stroke-opacity="0.372549" cx="43" cy="-34" rx="27" ry="18"/>
<text text-anchor="middle" x="43" y="-30.3" font-family="Times,serif" font-size="14.00">c</text>
</g>
<!-- b&#45;&gt;c -->
<g id="edge2" class="edge"><title>b&#45;&gt;c</title>
<path fill="none" stroke="black" d="M43,-87.6966C43,-79.9827 43,-70.7125 43,-62.1124"/>
<polygon fill="black" stroke="black" points="46.5001,-62.1043 43,-52.1043 39.5001,-62.1044 46.5001,-62.1043"/>
</g>
<!-- e -->
<g id="node4" class="node"><title>e</title>
<ellipse fill="#00ff00" fill-opacity="0.372549" stroke="#00ff00" stroke-opacity="0.372549" cx="115" cy="-178" rx="27" ry="18"/>
<text text-anchor="middle" x="115" y="-174.3" font-family="Times,serif" font-size="14.00">e</text>
</g>
<!-- f -->
<g id="node5" class="node"><title>f</title>
<ellipse fill="#00ff00" fill-opacity="0.372549" stroke="#00ff00" stroke-opacity="0.372549" cx="115" cy="-106" rx="27" ry="18"/>
<text text-anchor="middle" x="115" y="-102.3" font-family="Times,serif" font-size="14.00">f</text>
</g>
<!-- e&#45;&gt;f -->
<g id="edge3" class="edge"><title>e&#45;&gt;f</title>
<path fill="none" stroke="black" d="M115,-159.697C115,-151.983 115,-142.712 115,-134.112"/>
<polygon fill="black" stroke="black" points="118.5,-134.104 115,-124.104 111.5,-134.104 118.5,-134.104"/>
</g>
<!-- y -->
<g id="node6" class="node"><title>y</title>
<ellipse fill="#00ff00" fill-opacity="0.372549" stroke="#00ff00" stroke-opacity="0.372549" cx="259" cy="-178" rx="27" ry="18"/>
<text text-anchor="middle" x="259" y="-174.3" font-family="Times,serif" font-size="14.00">y</text>
</g>
<!-- x -->
<g id="node7" class="node"><title>x</title>
<ellipse fill="#00ff00" fill-opacity="0.372549" stroke="#00ff00" stroke-opacity="0.372549" cx="187" cy="-178" rx="27" ry="18"/>
<text text-anchor="middle" x="187" y="-174.3" font-family="Times,serif" font-size="14.00">x</text>
</g>
</g>
</svg>
