<?xml version="1.0" encoding="UTF-8" standalone="no"?>
<!DOCTYPE svg PUBLIC "-//W3C//DTD SVG 1.1//EN"
 "http://www.w3.org/Graphics/SVG/1.1/DTD/svg11.dtd">
<!-- Generated by graphviz version 2.38.0 (20140413.2041)
 -->
<!-- Title: G Pages: 1 -->
<svg width="908pt" height="332pt"
 viewBox="0.00 0.00 908.00 332.00" xmlns="http://www.w3.org/2000/svg" xmlns:xlink="http://www.w3.org/1999/xlink">
<g id="graph0" class="graph" transform="scale(1 1) rotate(0) translate(4 328)">
<title>G</title>
<polygon fill="white" stroke="none" points="-4,4 -4,-328 904,-328 904,4 -4,4"/>
<!-- a -->
<g id="node1" class="node"><title>a</title>
<ellipse fill="none" stroke="black" cx="18" cy="-306" rx="18" ry="18"/>
</g>
<!-- Z -->
<g id="node2" class="node"><title>Z</title>
<ellipse fill="none" stroke="black" cx="450" cy="-162" rx="18" ry="18"/>
</g>
<!-- a&#45;&gt;Z -->
<g id="edge1" class="edge"><title>a&#45;&gt;Z</title>
<path fill="none" stroke="black" d="M32.408,-294.802C36.3591,-292.323 40.7329,-289.855 45,-288 215.738,-213.77 450,-181 450,-181"/>
<text text-anchor="middle" x="48.8304" y="-265.996" font-family="Times,serif" font-size="14.00">none</text>
</g>
<!-- A -->
<g id="node19" class="node"><title>A</title>
<ellipse fill="none" stroke="black" cx="18" cy="-18" rx="18" ry="18"/>
</g>
<!-- Z&#45;&gt;A -->
<g id="edge18" class="edge"><title>Z&#45;&gt;A</title>
<path fill="none" stroke="black" d="M450,-143C450,-143 215.738,-110.23 45,-36 40.7329,-34.1448 36.3591,-31.6768 32.408,-29.1978"/>
<text text-anchor="middle" x="62.1963" y="-29.0553" font-family="Times,serif" font-size="14.00">none</text>
</g>
<!-- B -->
<g id="node20" class="node"><title>B</title>
<ellipse fill="none" stroke="black" cx="72" cy="-18" rx="18" ry="18"/>
</g>
<!-- Z&#45;&gt;B -->
<g id="edge19" class="edge"><title>Z&#45;&gt;B</title>
<path fill="none" stroke="black" d="M450,-143C450,-143 247.315,-103.824 99,-36 97.8099,-35.4558 96.6095,-34.8672 95.4108,-34.2471"/>
<polygon fill="black" stroke="black" points="96.8686,-31.0477 86.4562,-29.0896 93.3749,-37.1135 96.8686,-31.0477"/>
<text text-anchor="middle" x="116.345" y="-27.9731" font-family="Times,serif" font-size="14.00">normal</text>
</g>
<!-- C -->
<g id="node21" class="node"><title>C</title>
<ellipse fill="none" stroke="black" cx="126" cy="-18" rx="18" ry="18"/>
</g>
<!-- Z&#45;&gt;C -->
<g id="edge20" class="edge"><title>Z&#45;&gt;C</title>
<path fill="none" stroke="black" d="M450,-143C450,-143 279.101,-97.5148 153,-36 151.824,-35.4262 150.635,-34.8136 149.445,-34.1741"/>
<polygon fill="black" stroke="black" points="142.293,-25.9275 149.152,-34.0023 138.754,-31.9674 142.293,-25.9275"/>
<text text-anchor="middle" x="170.392" y="-28.0513" font-family="Times,serif" font-size="14.00">inv</text>
</g>
<!-- D -->
<g id="node22" class="node"><title>D</title>
<ellipse fill="none" stroke="black" cx="180" cy="-18" rx="18" ry="18"/>
</g>
<!-- Z&#45;&gt;D -->
<g id="edge21" class="edge"><title>Z&#45;&gt;D</title>
<path fill="none" stroke="black" d="M450,-143C450,-143 311.212,-91.3653 207,-36 205.202,-35.0449 203.364,-34.0137 201.535,-32.9479"/>
<ellipse fill="black" stroke="black" cx="198.042" cy="-30.8287" rx="4.00002" ry="4.00002"/>
<text text-anchor="middle" x="224.444" y="-28.3181" font-family="Times,serif" font-size="14.00">dot</text>
</g>
<!-- E -->
<g id="node23" class="node"><title>E</title>
<ellipse fill="none" stroke="black" cx="234" cy="-18" rx="18" ry="18"/>
</g>
<!-- Z&#45;&gt;E -->
<g id="edge22" class="edge"><title>Z&#45;&gt;E</title>
<path fill="none" stroke="black" d="M450,-143C450,-143 343.865,-85.5068 261,-36 259.252,-34.9559 257.45,-33.8613 255.645,-32.7521"/>
<ellipse fill="none" stroke="black" cx="252.173" cy="-30.5918" rx="4.00002" ry="4.00002"/>
<text text-anchor="middle" x="278.56" y="-28.3794" font-family="Times,serif" font-size="14.00">odot</text>
</g>
<!-- F -->
<g id="node24" class="node"><title>F</title>
<ellipse fill="none" stroke="black" cx="288" cy="-18" rx="18" ry="18"/>
</g>
<!-- Z&#45;&gt;F -->
<g id="edge23" class="edge"><title>Z&#45;&gt;F</title>
<path fill="none" stroke="black" d="M450,-143C450,-143 362.77,-76.2315 316.328,-40.6834"/>
<polygon fill="black" stroke="black" points="303.939,-26.7929 309.753,-35.6503 299.685,-32.3515 303.939,-26.7929"/>
<ellipse fill="black" stroke="black" cx="312.929" cy="-38.0816" rx="4.00001" ry="4.00001"/>
<text text-anchor="middle" x="331.109" y="-32.3304" font-family="Times,serif" font-size="14.00">invdot</text>
</g>
<!-- G -->
<g id="node25" class="node"><title>G</title>
<ellipse fill="none" stroke="black" cx="342" cy="-18" rx="18" ry="18"/>
</g>
<!-- Z&#45;&gt;G -->
<g id="edge24" class="edge"><title>Z&#45;&gt;G</title>
<path fill="none" stroke="black" d="M450,-143C450,-143 397.493,-82.7138 365.701,-46.2123"/>
<polygon fill="black" stroke="black" points="356.197,-29.9714 360.126,-39.811 350.919,-34.5689 356.197,-29.9714"/>
<ellipse fill="none" stroke="black" cx="362.753" cy="-42.8273" rx="4.00001" ry="4.00001"/>
<text text-anchor="middle" x="380.976" y="-40.746" font-family="Times,serif" font-size="14.00">invodot</text>
</g>
<!-- H -->
<g id="node26" class="node"><title>H</title>
<ellipse fill="none" stroke="black" cx="396" cy="-18" rx="18" ry="18"/>
</g>
<!-- Z&#45;&gt;H -->
<g id="edge25" class="edge"><title>Z&#45;&gt;H</title>
<path fill="none" stroke="black" d="M450,-143C450,-143 422.737,-80.3963 406.954,-44.1539"/>
<polygon fill="black" stroke="black" points="402.839,-34.7047 410.958,-42.0763 404.836,-39.2889 406.832,-43.873 406.832,-43.873 406.832,-43.873 404.836,-39.2889 402.706,-45.6698 402.839,-34.7047 402.839,-34.7047"/>
<text text-anchor="middle" x="425.319" y="-50.8706" font-family="Times,serif" font-size="14.00">open</text>
</g>
<!-- I -->
<g id="node27" class="node"><title>I</title>
<ellipse fill="none" stroke="black" cx="450" cy="-18" rx="18" ry="18"/>
</g>
<!-- Z&#45;&gt;I -->
<g id="edge26" class="edge"><title>Z&#45;&gt;I</title>
<path fill="none" stroke="black" d="M450,-143C450,-143 450,-82.7876 450,-46.2795"/>
<polygon fill="black" stroke="black" points="450,-36.2417 454.5,-46.2416 450,-41.2417 450,-46.2417 450,-46.2417 450,-46.2417 450,-36.2417"/>
<text text-anchor="middle" x="462.679" y="-59.7309" font-family="Times,serif" font-size="14.00">halfopen</text>
<text text-anchor="middle" x="437.321" y="-112.111" font-family="Times,serif" font-size="14.00">sametail</text>
</g>
<!-- J -->
<g id="node28" class="node"><title>J</title>
<ellipse fill="none" stroke="black" cx="504" cy="-18" rx="18" ry="18"/>
</g>
<!-- Z&#45;&gt;J -->
<g id="edge27" class="edge"><title>Z&#45;&gt;J</title>
<path fill="none" stroke="black" d="M450,-143C450,-143 477.263,-80.3963 493.046,-44.1539"/>
<polygon fill="none" stroke="black" points="496.377,-45.2705 497.161,-34.7047 489.959,-42.4756 496.377,-45.2705"/>
<text text-anchor="middle" x="497.929" y="-60.9948" font-family="Times,serif" font-size="14.00">empty</text>
</g>
<!-- K -->
<g id="node29" class="node"><title>K</title>
<ellipse fill="none" stroke="black" cx="558" cy="-18" rx="18" ry="18"/>
</g>
<!-- Z&#45;&gt;K -->
<g id="edge28" class="edge"><title>Z&#45;&gt;K</title>
<path fill="none" stroke="black" d="M450,-143C450,-143 508.779,-75.5132 539.61,-40.1139"/>
<polygon fill="none" stroke="black" points="549.081,-34.5689 539.874,-39.811 543.803,-29.9714 549.081,-34.5689"/>
<text text-anchor="middle" x="538.145" y="-57.4001" font-family="Times,serif" font-size="14.00">invempty</text>
</g>
<!-- L -->
<g id="node30" class="node"><title>L</title>
<ellipse fill="none" stroke="black" cx="612" cy="-18" rx="18" ry="18"/>
</g>
<!-- Z&#45;&gt;L -->
<g id="edge29" class="edge"><title>Z&#45;&gt;L</title>
<path fill="none" stroke="black" d="M450,-143C450,-143 543.431,-71.485 588.384,-37.0763"/>
<polygon fill="black" stroke="black" points="588.659,-36.866 590.992,-30.0427 598.188,-29.5722 595.855,-36.3954 588.659,-36.866"/>
<text text-anchor="middle" x="584.304" y="-52.4659" font-family="Times,serif" font-size="14.00">diamond</text>
</g>
<!-- M -->
<g id="node31" class="node"><title>M</title>
<ellipse fill="none" stroke="black" cx="666" cy="-18" rx="18" ry="18"/>
</g>
<!-- Z&#45;&gt;M -->
<g id="edge30" class="edge"><title>Z&#45;&gt;M</title>
<path fill="none" stroke="black" d="M450,-143C450,-143 556.135,-85.5068 639,-36 639.624,-35.6271 640.255,-35.2478 640.891,-34.8637"/>
<polygon fill="none" stroke="black" points="641.015,-34.7872 644.016,-28.2302 651.223,-28.4784 648.222,-35.0354 641.015,-34.7872"/>
<text text-anchor="middle" x="634.759" y="-49.8575" font-family="Times,serif" font-size="14.00">odiamond</text>
</g>
<!-- N -->
<g id="node32" class="node"><title>N</title>
<ellipse fill="none" stroke="black" cx="720" cy="-18" rx="18" ry="18"/>
</g>
<!-- Z&#45;&gt;N -->
<g id="edge31" class="edge"><title>Z&#45;&gt;N</title>
<path fill="none" stroke="black" d="M450,-143C450,-143 588.788,-91.3653 693,-36 694.156,-35.386 695.328,-34.7406 696.504,-34.0747"/>
<polygon fill="black" stroke="black" points="703.321,-25.3232 707.435,-32.1844 700.574,-36.2984 696.46,-29.4373 703.321,-25.3232"/>
<polyline fill="none" stroke="black" points="698.517,-32.8679 696.802,-33.8964 "/>
<text text-anchor="middle" x="688.579" y="-49.9095" font-family="Times,serif" font-size="14.00">box</text>
</g>
<!-- O -->
<g id="node33" class="node"><title>O</title>
<ellipse fill="none" stroke="black" cx="774" cy="-18" rx="18" ry="18"/>
</g>
<!-- Z&#45;&gt;O -->
<g id="edge32" class="edge"><title>Z&#45;&gt;O</title>
<path fill="none" stroke="black" d="M450,-143C450,-143 620.899,-97.5148 747,-36 748.176,-35.4262 749.365,-34.8136 750.555,-34.1741"/>
<polygon fill="none" stroke="black" points="757.455,-25.4961 761.499,-32.3988 754.596,-36.4427 750.552,-29.5399 757.455,-25.4961"/>
<polyline fill="none" stroke="black" points="752.574,-32.9913 750.848,-34.0023 "/>
<text text-anchor="middle" x="742.425" y="-49.9305" font-family="Times,serif" font-size="14.00">obox</text>
</g>
<!-- P -->
<g id="node34" class="node"><title>P</title>
<ellipse fill="none" stroke="black" cx="828" cy="-18" rx="18" ry="18"/>
</g>
<!-- Z&#45;&gt;P -->
<g id="edge33" class="edge"><title>Z&#45;&gt;P</title>
<path fill="none" stroke="black" d="M450,-143C450,-143 652.685,-103.824 801,-36 803.645,-34.7906 806.34,-33.3622 808.954,-31.8556"/>
<polygon fill="black" stroke="black" points="810.106,-25.3235 815.268,-33.8882 813.555,-34.9206 808.393,-26.3559 810.106,-25.3235"/>
<polyline fill="none" stroke="black" points="813.544,-29.0896 809.261,-31.6707 "/>
<text text-anchor="middle" x="796.802" y="-50.2835" font-family="Times,serif" font-size="14.00">tee</text>
</g>
<!-- Q -->
<g id="node35" class="node"><title>Q</title>
<ellipse fill="none" stroke="black" cx="882" cy="-18" rx="18" ry="18"/>
</g>
<!-- Z&#45;&gt;Q -->
<g id="edge34" class="edge"><title>Z&#45;&gt;Q</title>
<path fill="none" stroke="black" d="M450,-143C450,-143 684.262,-110.23 855,-36 856.2,-35.4782 857.409,-34.908 858.614,-34.3026"/>
<polygon fill="black" stroke="black" points="858.899,-34.1406 869.816,-33.1097 863.245,-31.6692 867.592,-29.1978 867.592,-29.1978 867.592,-29.1978 863.245,-31.6692 865.368,-25.2859 858.899,-34.1406 858.899,-34.1406"/>
<text text-anchor="middle" x="850.223" y="-49.9583" font-family="Times,serif" font-size="14.00">crow</text>
</g>
<!-- b -->
<g id="node3" class="node"><title>b</title>
<ellipse fill="none" stroke="black" cx="72" cy="-306" rx="18" ry="18"/>
</g>
<!-- b&#45;&gt;Z -->
<g id="edge2" class="edge"><title>b&#45;&gt;Z</title>
<path fill="none" stroke="black" d="M95.4108,-289.753C96.6095,-289.133 97.8099,-288.544 99,-288 247.315,-220.176 450,-181 450,-181"/>
<polygon fill="black" stroke="black" points="93.3749,-286.886 86.4562,-294.91 96.8686,-292.952 93.3749,-286.886"/>
<text text-anchor="middle" x="103.689" y="-266.654" font-family="Times,serif" font-size="14.00">normal</text>
</g>
<!-- c -->
<g id="node4" class="node"><title>c</title>
<ellipse fill="none" stroke="black" cx="126" cy="-306" rx="18" ry="18"/>
</g>
<!-- c&#45;&gt;Z -->
<g id="edge3" class="edge"><title>c&#45;&gt;Z</title>
<path fill="none" stroke="black" d="M149.445,-289.826C150.635,-289.186 151.824,-288.574 153,-288 279.101,-226.485 450,-181 450,-181"/>
<polygon fill="black" stroke="black" points="138.754,-292.033 149.152,-289.998 142.293,-298.072 138.754,-292.033"/>
<text text-anchor="middle" x="157.575" y="-266.67" font-family="Times,serif" font-size="14.00">inv</text>
</g>
<!-- d -->
<g id="node5" class="node"><title>d</title>
<ellipse fill="none" stroke="black" cx="180" cy="-306" rx="18" ry="18"/>
</g>
<!-- d&#45;&gt;Z -->
<g id="edge4" class="edge"><title>d&#45;&gt;Z</title>
<path fill="none" stroke="black" d="M201.535,-291.052C203.364,-289.986 205.202,-288.955 207,-288 311.212,-232.635 450,-181 450,-181"/>
<ellipse fill="black" stroke="black" cx="198.042" cy="-293.171" rx="4.00002" ry="4.00002"/>
<text text-anchor="middle" x="211.291" y="-266.603" font-family="Times,serif" font-size="14.00">dot</text>
</g>
<!-- e -->
<g id="node6" class="node"><title>e</title>
<ellipse fill="none" stroke="black" cx="234" cy="-306" rx="18" ry="18"/>
</g>
<!-- e&#45;&gt;Z -->
<g id="edge5" class="edge"><title>e&#45;&gt;Z</title>
<path fill="none" stroke="black" d="M255.645,-291.248C257.45,-290.139 259.252,-289.044 261,-288 343.865,-238.493 450,-181 450,-181"/>
<ellipse fill="none" stroke="black" cx="252.173" cy="-293.408" rx="4.00002" ry="4.00002"/>
<text text-anchor="middle" x="265.163" y="-266.692" font-family="Times,serif" font-size="14.00">odot</text>
</g>
<!-- f -->
<g id="node7" class="node"><title>f</title>
<ellipse fill="none" stroke="black" cx="288" cy="-306" rx="18" ry="18"/>
</g>
<!-- f&#45;&gt;Z -->
<g id="edge6" class="edge"><title>f&#45;&gt;Z</title>
<path fill="none" stroke="black" d="M316.328,-283.317C362.77,-247.768 450,-181 450,-181"/>
<polygon fill="black" stroke="black" points="299.685,-291.649 309.753,-288.35 303.939,-297.207 299.685,-291.649"/>
<ellipse fill="black" stroke="black" cx="312.929" cy="-285.918" rx="4.00001" ry="4.00001"/>
<text text-anchor="middle" x="315.696" y="-264.134" font-family="Times,serif" font-size="14.00">invdot</text>
</g>
<!-- g -->
<g id="node8" class="node"><title>g</title>
<ellipse fill="none" stroke="black" cx="342" cy="-306" rx="18" ry="18"/>
</g>
<!-- g&#45;&gt;Z -->
<g id="edge7" class="edge"><title>g&#45;&gt;Z</title>
<path fill="none" stroke="black" d="M365.701,-277.788C397.493,-241.286 450,-181 450,-181"/>
<polygon fill="black" stroke="black" points="350.919,-289.431 360.126,-284.189 356.197,-294.029 350.919,-289.431"/>
<ellipse fill="none" stroke="black" cx="362.753" cy="-281.173" rx="4.00001" ry="4.00001"/>
<text text-anchor="middle" x="361.855" y="-259.2" font-family="Times,serif" font-size="14.00">invodot</text>
</g>
<!-- h -->
<g id="node9" class="node"><title>h</title>
<ellipse fill="none" stroke="black" cx="396" cy="-306" rx="18" ry="18"/>
</g>
<!-- h&#45;&gt;Z -->
<g id="edge8" class="edge"><title>h&#45;&gt;Z</title>
<path fill="none" stroke="black" d="M406.954,-279.846C422.737,-243.604 450,-181 450,-181"/>
<polygon fill="black" stroke="black" points="402.839,-289.295 402.706,-278.33 404.836,-284.711 406.832,-280.127 406.832,-280.127 406.832,-280.127 404.836,-284.711 410.958,-281.924 402.839,-289.295 402.839,-289.295"/>
<text text-anchor="middle" x="402.071" y="-255.605" font-family="Times,serif" font-size="14.00">open</text>
</g>
<!-- i -->
<g id="node10" class="node"><title>i</title>
<ellipse fill="none" stroke="black" cx="450" cy="-306" rx="18" ry="18"/>
</g>
<!-- i&#45;&gt;Z -->
<g id="edge9" class="edge"><title>i&#45;&gt;Z</title>
<path fill="none" stroke="black" d="M450,-277.721C450,-241.212 450,-181 450,-181"/>
<polygon fill="black" stroke="black" points="450,-287.758 445.5,-277.758 450,-282.758 450,-277.758 450,-277.758 450,-277.758 450,-287.758"/>
<text text-anchor="middle" x="462.679" y="-204.489" font-family="Times,serif" font-size="14.00">samehead</text>
<text text-anchor="middle" x="437.321" y="-256.869" font-family="Times,serif" font-size="14.00">halfopen</text>
</g>
<!-- j -->
<g id="node11" class="node"><title>j</title>
<ellipse fill="none" stroke="black" cx="504" cy="-306" rx="18" ry="18"/>
</g>
<!-- j&#45;&gt;Z -->
<g id="edge10" class="edge"><title>j&#45;&gt;Z</title>
<path fill="none" stroke="black" d="M493.046,-279.846C477.263,-243.604 450,-181 450,-181"/>
<polygon fill="none" stroke="black" points="489.959,-281.524 497.161,-289.295 496.377,-278.73 489.959,-281.524"/>
<text text-anchor="middle" x="474.681" y="-265.729" font-family="Times,serif" font-size="14.00">empty</text>
</g>
<!-- k -->
<g id="node12" class="node"><title>k</title>
<ellipse fill="none" stroke="black" cx="558" cy="-306" rx="18" ry="18"/>
</g>
<!-- k&#45;&gt;Z -->
<g id="edge11" class="edge"><title>k&#45;&gt;Z</title>
<path fill="none" stroke="black" d="M539.61,-283.886C508.779,-248.487 450,-181 450,-181"/>
<polygon fill="none" stroke="black" points="543.803,-294.029 539.874,-284.189 549.081,-289.431 543.803,-294.029"/>
<text text-anchor="middle" x="519.024" y="-275.854" font-family="Times,serif" font-size="14.00">invempty</text>
</g>
<!-- l -->
<g id="node13" class="node"><title>l</title>
<ellipse fill="none" stroke="black" cx="612" cy="-306" rx="18" ry="18"/>
</g>
<!-- l&#45;&gt;Z -->
<g id="edge12" class="edge"><title>l&#45;&gt;Z</title>
<path fill="none" stroke="black" d="M588.384,-286.924C543.431,-252.515 450,-181 450,-181"/>
<polygon fill="black" stroke="black" points="588.659,-287.134 595.855,-287.605 598.188,-294.428 590.992,-293.957 588.659,-287.134"/>
<text text-anchor="middle" x="568.891" y="-284.27" font-family="Times,serif" font-size="14.00">diamond</text>
</g>
<!-- m -->
<g id="node14" class="node"><title>m</title>
<ellipse fill="none" stroke="black" cx="666" cy="-306" rx="18" ry="18"/>
</g>
<!-- m&#45;&gt;Z -->
<g id="edge13" class="edge"><title>m&#45;&gt;Z</title>
<path fill="none" stroke="black" d="M640.891,-289.136C640.255,-288.752 639.624,-288.373 639,-288 556.135,-238.493 450,-181 450,-181"/>
<polygon fill="none" stroke="black" points="641.015,-289.213 648.222,-288.965 651.223,-295.522 644.016,-295.77 641.015,-289.213"/>
<text text-anchor="middle" x="621.429" y="-288.313" font-family="Times,serif" font-size="14.00">odiamond</text>
</g>
<!-- n -->
<g id="node15" class="node"><title>n</title>
<ellipse fill="none" stroke="black" cx="720" cy="-306" rx="18" ry="18"/>
</g>
<!-- n&#45;&gt;Z -->
<g id="edge14" class="edge"><title>n&#45;&gt;Z</title>
<path fill="none" stroke="black" d="M696.504,-289.925C695.328,-289.259 694.156,-288.614 693,-288 588.788,-232.635 450,-181 450,-181"/>
<polygon fill="black" stroke="black" points="707.435,-291.816 703.321,-298.677 696.46,-294.563 700.574,-287.702 707.435,-291.816"/>
<polyline fill="none" stroke="black" points="698.517,-291.132 696.802,-290.104 "/>
<text text-anchor="middle" x="675.539" y="-288.438" font-family="Times,serif" font-size="14.00">box</text>
</g>
<!-- o -->
<g id="node16" class="node"><title>o</title>
<ellipse fill="none" stroke="black" cx="774" cy="-306" rx="18" ry="18"/>
</g>
<!-- o&#45;&gt;Z -->
<g id="edge15" class="edge"><title>o&#45;&gt;Z</title>
<path fill="none" stroke="black" d="M750.555,-289.826C749.365,-289.186 748.176,-288.574 747,-288 620.899,-226.485 450,-181 450,-181"/>
<polygon fill="none" stroke="black" points="761.499,-291.601 757.455,-298.504 750.552,-294.46 754.596,-287.557 761.499,-291.601"/>
<polyline fill="none" stroke="black" points="752.574,-291.009 750.848,-289.998 "/>
<text text-anchor="middle" x="729.608" y="-288.549" font-family="Times,serif" font-size="14.00">obox</text>
</g>
<!-- p -->
<g id="node17" class="node"><title>p</title>
<ellipse fill="none" stroke="black" cx="828" cy="-306" rx="18" ry="18"/>
</g>
<!-- p&#45;&gt;Z -->
<g id="edge16" class="edge"><title>p&#45;&gt;Z</title>
<path fill="none" stroke="black" d="M808.954,-292.144C806.34,-290.638 803.645,-289.209 801,-288 652.685,-220.176 450,-181 450,-181"/>
<polygon fill="black" stroke="black" points="815.268,-290.112 810.106,-298.677 808.393,-297.644 813.555,-289.079 815.268,-290.112"/>
<polyline fill="none" stroke="black" points="813.544,-294.91 809.261,-292.329 "/>
<text text-anchor="middle" x="783.712" y="-288.034" font-family="Times,serif" font-size="14.00">tee</text>
</g>
<!-- q -->
<g id="node18" class="node"><title>q</title>
<ellipse fill="none" stroke="black" cx="882" cy="-306" rx="18" ry="18"/>
</g>
<!-- q&#45;&gt;Z -->
<g id="edge17" class="edge"><title>q&#45;&gt;Z</title>
<path fill="none" stroke="black" d="M858.614,-289.697C857.409,-289.092 856.2,-288.522 855,-288 684.262,-213.77 450,-181 450,-181"/>
<polygon fill="black" stroke="black" points="858.899,-289.859 865.368,-298.714 863.245,-292.331 867.592,-294.802 867.592,-294.802 867.592,-294.802 863.245,-292.331 869.816,-290.89 858.899,-289.859 858.899,-289.859"/>
<text text-anchor="middle" x="837.69" y="-288.685" font-family="Times,serif" font-size="14.00">crow</text>
</g>
</g>
</svg>
