<?xml version="1.0" encoding="UTF-8" standalone="no"?>
<!DOCTYPE svg PUBLIC "-//W3C//DTD SVG 1.1//EN"
 "http://www.w3.org/Graphics/SVG/1.1/DTD/svg11.dtd">
<!-- Generated by graphviz version 2.38.0 (20140413.2041)
 -->
<!-- Title: %3 Pages: 1 -->
<svg width="551pt" height="452pt"
 viewBox="0.00 0.00 551.00 452.00" xmlns="http://www.w3.org/2000/svg" xmlns:xlink="http://www.w3.org/1999/xlink">
<g id="graph0" class="graph" transform="scale(1 1) rotate(0) translate(4 448)">
<title>%3</title>
<polygon fill="white" stroke="none" points="-4,4 -4,-448 547,-448 547,4 -4,4"/>
<!-- 21 -->
<g id="node1" class="node"><title>21</title>
<polygon fill="none" stroke="black" points="543,-444 0,-444 0,-360 543,-360 543,-444"/>
<polygon fill="none" stroke="black" points="0.5,-423 0.5,-444 543.5,-444 543.5,-423 0.5,-423"/>
<text text-anchor="start" x="176.5" y="-429.8" font-family="Century Schoolbook L,serif" font-weight="bold" font-size="14.00">&quot;NewCenturySchlbk&#45;Bold&quot;</text>
<polygon fill="none" stroke="black" points="0.5,-402 0.5,-423 543.5,-423 543.5,-402 0.5,-402"/>
<text text-anchor="start" x="122.5" y="-408.8" font-family="Century Schoolbook L,serif" font-weight="bold" font-size="14.00">&quot;ABCDEFGHIJLKLMNOPQRSTUVWXYZ&quot;</text>
<polygon fill="none" stroke="black" points="0.5,-381 0.5,-402 543.5,-402 543.5,-381 0.5,-381"/>
<text text-anchor="start" x="157.5" y="-387.8" font-family="Century Schoolbook L,serif" font-weight="bold" font-size="14.00">&quot;abcdefghijlklmnopqrstuvwxyz&quot;</text>
<polygon fill="none" stroke="black" points="0.5,-360 0.5,-381 543.5,-381 543.5,-360 0.5,-360"/>
<text text-anchor="start" x="3.5" y="-366.8" font-family="Century Schoolbook L,serif" font-weight="bold" font-size="14.00">&quot;ABCDEFGHIJLKLMNOPQRSTUVWXYZ\nabcdefghijlklmnopqrstuvwxyz&quot;</text>
</g>
<!-- 22 -->
<g id="node2" class="node"><title>22</title>
<polygon fill="none" stroke="black" points="542,-324 1,-324 1,-240 542,-240 542,-324"/>
<polygon fill="none" stroke="black" points="1.5,-303 1.5,-324 542.5,-324 542.5,-303 1.5,-303"/>
<text text-anchor="start" x="158.5" y="-309.8" font-family="Century Schoolbook L,serif" font-weight="bold" font-style="italic" font-size="14.00">&quot;NewCenturySchlbk&#45;BoldItalic&quot;</text>
<polygon fill="none" stroke="black" points="1.5,-282 1.5,-303 542.5,-303 542.5,-282 1.5,-282"/>
<text text-anchor="start" x="121.5" y="-288.8" font-family="Century Schoolbook L,serif" font-weight="bold" font-style="italic" font-size="14.00">&quot;ABCDEFGHIJLKLMNOPQRSTUVWXYZ&quot;</text>
<polygon fill="none" stroke="black" points="1.5,-261 1.5,-282 542.5,-282 542.5,-261 1.5,-261"/>
<text text-anchor="start" x="158" y="-267.8" font-family="Century Schoolbook L,serif" font-weight="bold" font-style="italic" font-size="14.00">&quot;abcdefghijlklmnopqrstuvwxyz&quot;</text>
<polygon fill="none" stroke="black" points="1.5,-240 1.5,-261 542.5,-261 542.5,-240 1.5,-240"/>
<text text-anchor="start" x="4.5" y="-246.8" font-family="Century Schoolbook L,serif" font-weight="bold" font-style="italic" font-size="14.00">&quot;ABCDEFGHIJLKLMNOPQRSTUVWXYZ\nabcdefghijlklmnopqrstuvwxyz&quot;</text>
</g>
<!-- 21&#45;&gt;22 -->
<g id="edge1" class="edge"><title>21&#45;&gt;22</title>
<path fill="none" stroke="black" d="M271.5,-359.729C271.5,-351.508 271.5,-342.78 271.5,-334.271"/>
<polygon fill="black" stroke="black" points="275,-334.048 271.5,-324.048 268,-334.048 275,-334.048"/>
</g>
<!-- 23 -->
<g id="node3" class="node"><title>23</title>
<polygon fill="none" stroke="black" points="519.5,-204 23.5,-204 23.5,-120 519.5,-120 519.5,-204"/>
<polygon fill="none" stroke="black" points="23.5,-183 23.5,-204 519.5,-204 519.5,-183 23.5,-183"/>
<text text-anchor="start" x="185.5" y="-189.8" font-family="Century Schoolbook L,serif" font-style="italic" font-size="14.00">&quot;NewCenturySchlbk&#45;Italic&quot;</text>
<polygon fill="none" stroke="black" points="23.5,-162 23.5,-183 519.5,-183 519.5,-162 23.5,-162"/>
<text text-anchor="start" x="129.5" y="-168.8" font-family="Century Schoolbook L,serif" font-style="italic" font-size="14.00">&quot;ABCDEFGHIJLKLMNOPQRSTUVWXYZ&quot;</text>
<polygon fill="none" stroke="black" points="23.5,-141 23.5,-162 519.5,-162 519.5,-141 23.5,-141"/>
<text text-anchor="start" x="171" y="-147.8" font-family="Century Schoolbook L,serif" font-style="italic" font-size="14.00">&quot;abcdefghijlklmnopqrstuvwxyz&quot;</text>
<polygon fill="none" stroke="black" points="23.5,-120 23.5,-141 519.5,-141 519.5,-120 23.5,-120"/>
<text text-anchor="start" x="26.5" y="-126.8" font-family="Century Schoolbook L,serif" font-style="italic" font-size="14.00">&quot;ABCDEFGHIJLKLMNOPQRSTUVWXYZ\nabcdefghijlklmnopqrstuvwxyz&quot;</text>
</g>
<!-- 22&#45;&gt;23 -->
<g id="edge2" class="edge"><title>22&#45;&gt;23</title>
<path fill="none" stroke="black" d="M271.5,-239.729C271.5,-231.508 271.5,-222.78 271.5,-214.271"/>
<polygon fill="black" stroke="black" points="275,-214.048 271.5,-204.048 268,-214.048 275,-214.048"/>
</g>
<!-- 24 -->
<g id="node4" class="node"><title>24</title>
<polygon fill="none" stroke="black" points="520.5,-84 22.5,-84 22.5,-0 520.5,-0 520.5,-84"/>
<polygon fill="none" stroke="black" points="22.5,-63 22.5,-84 520.5,-84 520.5,-63 22.5,-63"/>
<text text-anchor="start" x="179" y="-69.8" font-family="Century Schoolbook L,serif" font-weight="roman" font-size="14.00">&quot;NewCenturySchlbk&#45;Roman&quot;</text>
<polygon fill="none" stroke="black" points="22.5,-42 22.5,-63 520.5,-63 520.5,-42 22.5,-42"/>
<text text-anchor="start" x="130" y="-48.8" font-family="Century Schoolbook L,serif" font-weight="roman" font-size="14.00">&quot;ABCDEFGHIJLKLMNOPQRSTUVWXYZ&quot;</text>
<polygon fill="none" stroke="black" points="22.5,-21 22.5,-42 520.5,-42 520.5,-21 22.5,-21"/>
<text text-anchor="start" x="169.5" y="-27.8" font-family="Century Schoolbook L,serif" font-weight="roman" font-size="14.00">&quot;abcdefghijlklmnopqrstuvwxyz&quot;</text>
<polygon fill="none" stroke="black" points="22.5,7.10543e-15 22.5,-21 520.5,-21 520.5,7.10543e-15 22.5,7.10543e-15"/>
<text text-anchor="start" x="25.5" y="-6.8" font-family="Century Schoolbook L,serif" font-weight="roman" font-size="14.00">&quot;ABCDEFGHIJLKLMNOPQRSTUVWXYZ\nabcdefghijlklmnopqrstuvwxyz&quot;</text>
</g>
<!-- 23&#45;&gt;24 -->
<g id="edge3" class="edge"><title>23&#45;&gt;24</title>
<path fill="none" stroke="black" d="M271.5,-119.729C271.5,-111.508 271.5,-102.78 271.5,-94.2708"/>
<polygon fill="black" stroke="black" points="275,-94.0481 271.5,-84.0481 268,-94.0481 275,-94.0481"/>
</g>
</g>
</svg>
