<?xml version="1.0" encoding="UTF-8" standalone="no"?>
<!DOCTYPE svg PUBLIC "-//W3C//DTD SVG 1.1//EN"
 "http://www.w3.org/Graphics/SVG/1.1/DTD/svg11.dtd">
<!-- Generated by graphviz version 2.38.0 (20140413.2041)
 -->
<!-- Title: G Pages: 1 -->
<svg width="1323pt" height="1916pt"
 viewBox="0.00 0.00 1323.07 1916.00" xmlns="http://www.w3.org/2000/svg" xmlns:xlink="http://www.w3.org/1999/xlink">
<g id="graph0" class="graph" transform="scale(1 1) rotate(0) translate(4 1912)">
<title>G</title>
<polygon fill="white" stroke="none" points="-4,4 -4,-1912 1319.07,-1912 1319.07,4 -4,4"/>
<!-- 1 -->
<g id="node1" class="node"><title>1</title>
<ellipse fill="none" stroke="black" cx="1172.07" cy="-1890" rx="27" ry="18"/>
<text text-anchor="middle" x="1172.07" y="-1886.3" font-family="Times,serif" font-size="14.00">1</text>
</g>
<!-- 30 -->
<g id="node2" class="node"><title>30</title>
<ellipse fill="none" stroke="black" cx="1030.07" cy="-1818" rx="27" ry="18"/>
<text text-anchor="middle" x="1030.07" y="-1814.3" font-family="Times,serif" font-size="14.00">30</text>
</g>
<!-- 1&#45;&#45;30 -->
<g id="edge1" class="edge"><title>1&#45;&#45;30</title>
<path fill="none" stroke="black" d="M1150.82,-1878.52C1124.05,-1865.32 1078.32,-1842.78 1051.48,-1829.55"/>
</g>
<!-- 40 -->
<g id="node3" class="node"><title>40</title>
<ellipse fill="none" stroke="black" cx="1221.07" cy="-162" rx="27" ry="18"/>
<text text-anchor="middle" x="1221.07" y="-158.3" font-family="Times,serif" font-size="14.00">40</text>
</g>
<!-- 1&#45;&#45;40 -->
<g id="edge2" class="edge"><title>1&#45;&#45;40</title>
<path fill="none" stroke="black" d="M1194.11,-1879.56C1234.22,-1860.7 1315.07,-1814.35 1315.07,-1747 1315.07,-1747 1315.07,-1747 1315.07,-305 1315.07,-249.714 1264.92,-199.428 1237.88,-176.338"/>
</g>
<!-- 24 -->
<g id="node16" class="node"><title>24</title>
<ellipse fill="none" stroke="black" cx="1030.07" cy="-1746" rx="27" ry="18"/>
<text text-anchor="middle" x="1030.07" y="-1742.3" font-family="Times,serif" font-size="14.00">24</text>
</g>
<!-- 30&#45;&#45;24 -->
<g id="edge23" class="edge"><title>30&#45;&#45;24</title>
<path fill="none" stroke="black" d="M1030.07,-1799.7C1030.07,-1788.85 1030.07,-1774.92 1030.07,-1764.1"/>
</g>
<!-- 44 -->
<g id="node22" class="node"><title>44</title>
<ellipse fill="none" stroke="black" cx="652.075" cy="-1314" rx="27" ry="18"/>
<text text-anchor="middle" x="652.075" y="-1310.3" font-family="Times,serif" font-size="14.00">44</text>
</g>
<!-- 30&#45;&#45;44 -->
<g id="edge24" class="edge"><title>30&#45;&#45;44</title>
<path fill="none" stroke="black" d="M1003.64,-1814.17C909.63,-1803.38 597.075,-1761.04 597.075,-1675 597.075,-1675 597.075,-1675 597.075,-1457 597.075,-1408.36 625.488,-1356.28 641.47,-1330.84"/>
</g>
<!-- 47 -->
<g id="node18" class="node"><title>47</title>
<ellipse fill="none" stroke="black" cx="996.075" cy="-90" rx="27" ry="18"/>
<text text-anchor="middle" x="996.075" y="-86.3" font-family="Times,serif" font-size="14.00">47</text>
</g>
<!-- 40&#45;&#45;47 -->
<g id="edge98" class="edge"><title>40&#45;&#45;47</title>
<path fill="none" stroke="black" d="M1199.12,-151.363C1193.01,-148.827 1186.33,-146.19 1180.07,-144 1124.07,-124.393 1056.71,-106.361 1021.06,-97.2402"/>
</g>
<!-- 22 -->
<g id="node50" class="node"><title>22</title>
<ellipse fill="none" stroke="black" cx="1145.07" cy="-90" rx="27" ry="18"/>
<text text-anchor="middle" x="1145.07" y="-86.3" font-family="Times,serif" font-size="14.00">22</text>
</g>
<!-- 40&#45;&#45;22 -->
<g id="edge97" class="edge"><title>40&#45;&#45;22</title>
<path fill="none" stroke="black" d="M1205.7,-146.834C1192.51,-134.69 1173.61,-117.283 1160.43,-105.144"/>
</g>
<!-- 8 -->
<g id="node4" class="node"><title>8</title>
<ellipse fill="none" stroke="black" cx="350.075" cy="-1602" rx="27" ry="18"/>
<text text-anchor="middle" x="350.075" y="-1598.3" font-family="Times,serif" font-size="14.00">8</text>
</g>
<!-- 46 -->
<g id="node5" class="node"><title>46</title>
<ellipse fill="none" stroke="black" cx="895.075" cy="-18" rx="27" ry="18"/>
<text text-anchor="middle" x="895.075" y="-14.3" font-family="Times,serif" font-size="14.00">46</text>
</g>
<!-- 8&#45;&#45;46 -->
<g id="edge3" class="edge"><title>8&#45;&#45;46</title>
<path fill="none" stroke="black" d="M353.829,-1584.05C359.366,-1557.52 369.075,-1504.52 369.075,-1459 369.075,-1459 369.075,-1459 369.075,-1385 369.075,-1046.66 622.075,-1005.34 622.075,-667 622.075,-667 622.075,-667 622.075,-521 622.075,-393.144 653.075,-362.856 653.075,-235 653.075,-235 653.075,-235 653.075,-161 653.075,-61.8697 805.995,-30.6112 868.716,-21.9594"/>
</g>
<!-- 16 -->
<g id="node6" class="node"><title>16</title>
<ellipse fill="none" stroke="black" cx="531.075" cy="-1530" rx="27" ry="18"/>
<text text-anchor="middle" x="531.075" y="-1526.3" font-family="Times,serif" font-size="14.00">16</text>
</g>
<!-- 8&#45;&#45;16 -->
<g id="edge4" class="edge"><title>8&#45;&#45;16</title>
<path fill="none" stroke="black" d="M372.999,-1592.13C407.815,-1578.67 473.632,-1553.22 508.337,-1539.79"/>
</g>
<!-- 39 -->
<g id="node31" class="node"><title>39</title>
<ellipse fill="none" stroke="black" cx="783.075" cy="-954" rx="27" ry="18"/>
<text text-anchor="middle" x="783.075" y="-950.3" font-family="Times,serif" font-size="14.00">39</text>
</g>
<!-- 16&#45;&#45;39 -->
<g id="edge62" class="edge"><title>16&#45;&#45;39</title>
<path fill="none" stroke="black" d="M558.097,-1528.18C630.09,-1524.42 821.075,-1503.46 821.075,-1387 821.075,-1387 821.075,-1387 821.075,-1097 821.075,-1050.3 801.657,-997.803 790.583,-971.662"/>
</g>
<!-- 50 -->
<g id="node33" class="node"><title>50</title>
<ellipse fill="none" stroke="black" cx="496.075" cy="-90" rx="27" ry="18"/>
<text text-anchor="middle" x="496.075" y="-86.3" font-family="Times,serif" font-size="14.00">50</text>
</g>
<!-- 16&#45;&#45;50 -->
<g id="edge60" class="edge"><title>16&#45;&#45;50</title>
<path fill="none" stroke="black" d="M518.579,-1513.95C455.392,-1437.26 174.075,-1088.34 174.075,-955 174.075,-955 174.075,-955 174.075,-809 174.075,-596.243 -43.0787,-566.516 8.07499,-360 58.6067,-155.995 374.819,-104.513 469.39,-93.6016"/>
</g>
<!-- 32 -->
<g id="node34" class="node"><title>32</title>
<ellipse fill="none" stroke="black" cx="701.075" cy="-1458" rx="27" ry="18"/>
<text text-anchor="middle" x="701.075" y="-1454.3" font-family="Times,serif" font-size="14.00">32</text>
</g>
<!-- 16&#45;&#45;32 -->
<g id="edge61" class="edge"><title>16&#45;&#45;32</title>
<path fill="none" stroke="black" d="M553.65,-1519.7C586.255,-1506.28 646.172,-1481.61 678.678,-1468.22"/>
</g>
<!-- 10 -->
<g id="node7" class="node"><title>10</title>
<ellipse fill="none" stroke="black" cx="339.075" cy="-666" rx="27" ry="18"/>
<text text-anchor="middle" x="339.075" y="-662.3" font-family="Times,serif" font-size="14.00">10</text>
</g>
<!-- 25 -->
<g id="node8" class="node"><title>25</title>
<ellipse fill="none" stroke="black" cx="449.075" cy="-594" rx="27" ry="18"/>
<text text-anchor="middle" x="449.075" y="-590.3" font-family="Times,serif" font-size="14.00">25</text>
</g>
<!-- 10&#45;&#45;25 -->
<g id="edge5" class="edge"><title>10&#45;&#45;25</title>
<path fill="none" stroke="black" d="M358.236,-652.807C378.425,-639.959 410.027,-619.848 430.134,-607.053"/>
</g>
<!-- 19 -->
<g id="node9" class="node"><title>19</title>
<ellipse fill="none" stroke="black" cx="339.075" cy="-594" rx="27" ry="18"/>
<text text-anchor="middle" x="339.075" y="-590.3" font-family="Times,serif" font-size="14.00">19</text>
</g>
<!-- 10&#45;&#45;19 -->
<g id="edge6" class="edge"><title>10&#45;&#45;19</title>
<path fill="none" stroke="black" d="M339.075,-647.697C339.075,-636.846 339.075,-622.917 339.075,-612.104"/>
</g>
<!-- 33 -->
<g id="node10" class="node"><title>33</title>
<ellipse fill="none" stroke="black" cx="191.075" cy="-594" rx="27" ry="18"/>
<text text-anchor="middle" x="191.075" y="-590.3" font-family="Times,serif" font-size="14.00">33</text>
</g>
<!-- 10&#45;&#45;33 -->
<g id="edge7" class="edge"><title>10&#45;&#45;33</title>
<path fill="none" stroke="black" d="M317.555,-654.821C289.495,-641.55 240.694,-618.468 212.621,-605.191"/>
</g>
<!-- 12 -->
<g id="node11" class="node"><title>12</title>
<ellipse fill="none" stroke="black" cx="255.075" cy="-1674" rx="27" ry="18"/>
<text text-anchor="middle" x="255.075" y="-1670.3" font-family="Times,serif" font-size="14.00">12</text>
</g>
<!-- 25&#45;&#45;12 -->
<g id="edge18" class="edge"><title>25&#45;&#45;12</title>
<path fill="none" stroke="black" d="M442.62,-611.703C408.958,-699.382 255.075,-1107.5 255.075,-1241 255.075,-1531 255.075,-1531 255.075,-1531 255.075,-1576.11 255.075,-1629.29 255.075,-1655.95"/>
</g>
<!-- 27 -->
<g id="node19" class="node"><title>27</title>
<ellipse fill="none" stroke="black" cx="487.075" cy="-522" rx="27" ry="18"/>
<text text-anchor="middle" x="487.075" y="-518.3" font-family="Times,serif" font-size="14.00">27</text>
</g>
<!-- 25&#45;&#45;27 -->
<g id="edge17" class="edge"><title>25&#45;&#45;27</title>
<path fill="none" stroke="black" d="M457.888,-576.765C464.027,-565.456 472.181,-550.437 478.309,-539.147"/>
</g>
<!-- 35 -->
<g id="node23" class="node"><title>35</title>
<ellipse fill="none" stroke="black" cx="1032.07" cy="-522" rx="27" ry="18"/>
<text text-anchor="middle" x="1032.07" y="-518.3" font-family="Times,serif" font-size="14.00">35</text>
</g>
<!-- 19&#45;&#45;35 -->
<g id="edge72" class="edge"><title>19&#45;&#45;35</title>
<path fill="none" stroke="black" d="M363.91,-586.377C378.195,-582.799 396.536,-578.595 413.075,-576 640.304,-540.352 918.491,-527.317 1005.06,-523.958"/>
</g>
<!-- 15 -->
<g id="node41" class="node"><title>15</title>
<ellipse fill="none" stroke="black" cx="153.075" cy="-306" rx="27" ry="18"/>
<text text-anchor="middle" x="153.075" y="-302.3" font-family="Times,serif" font-size="14.00">15</text>
</g>
<!-- 19&#45;&#45;15 -->
<g id="edge73" class="edge"><title>19&#45;&#45;15</title>
<path fill="none" stroke="black" d="M341.441,-576.016C346.292,-534.054 352.776,-424.238 299.075,-360 269.241,-324.312 213.322,-312.655 180.018,-308.847"/>
</g>
<!-- 43 -->
<g id="node45" class="node"><title>43</title>
<ellipse fill="none" stroke="black" cx="517.075" cy="-306" rx="27" ry="18"/>
<text text-anchor="middle" x="517.075" y="-302.3" font-family="Times,serif" font-size="14.00">43</text>
</g>
<!-- 19&#45;&#45;43 -->
<g id="edge74" class="edge"><title>19&#45;&#45;43</title>
<path fill="none" stroke="black" d="M358.696,-581.577C373.764,-572.015 394.265,-557.194 408.075,-540 464.846,-469.318 500.121,-364.223 512.294,-323.737"/>
</g>
<!-- 33&#45;&#45;46 -->
<g id="edge65" class="edge"><title>33&#45;&#45;46</title>
<path fill="none" stroke="black" d="M179.107,-577.631C153.989,-543.786 98.075,-459.411 98.075,-379 98.075,-379 98.075,-379 98.075,-161 98.075,-80.976 728.88,-30.9491 868.101,-20.8825"/>
</g>
<!-- 9 -->
<g id="node40" class="node"><title>9</title>
<ellipse fill="none" stroke="black" cx="263.075" cy="-522" rx="27" ry="18"/>
<text text-anchor="middle" x="263.075" y="-518.3" font-family="Times,serif" font-size="14.00">9</text>
</g>
<!-- 33&#45;&#45;9 -->
<g id="edge64" class="edge"><title>33&#45;&#45;9</title>
<path fill="none" stroke="black" d="M205.645,-578.834C218.055,-566.77 235.806,-549.512 248.279,-537.385"/>
</g>
<!-- 48 -->
<g id="node42" class="node"><title>48</title>
<ellipse fill="none" stroke="black" cx="200.075" cy="-234" rx="27" ry="18"/>
<text text-anchor="middle" x="200.075" y="-230.3" font-family="Times,serif" font-size="14.00">48</text>
</g>
<!-- 33&#45;&#45;48 -->
<g id="edge66" class="edge"><title>33&#45;&#45;48</title>
<path fill="none" stroke="black" d="M194.434,-576.029C199.388,-549.475 208.075,-496.437 208.075,-451 208.075,-451 208.075,-451 208.075,-377 208.075,-331.814 203.987,-278.668 201.656,-252.032"/>
</g>
<!-- 12&#45;&#45;8 -->
<g id="edge8" class="edge"><title>12&#45;&#45;8</title>
<path fill="none" stroke="black" d="M272.499,-1660.16C289.533,-1647.61 315.333,-1628.6 332.439,-1615.99"/>
</g>
<!-- 36 -->
<g id="node12" class="node"><title>36</title>
<ellipse fill="none" stroke="black" cx="1241.07" cy="-306" rx="27" ry="18"/>
<text text-anchor="middle" x="1241.07" y="-302.3" font-family="Times,serif" font-size="14.00">36</text>
</g>
<!-- 12&#45;&#45;36 -->
<g id="edge9" class="edge"><title>12&#45;&#45;36</title>
<path fill="none" stroke="black" d="M282.029,-1672.59C398.587,-1670.59 859.615,-1660.26 998.075,-1620 1078.08,-1596.74 1163.07,-1614.32 1163.07,-1531 1163.07,-1531 1163.07,-1531 1163.07,-737 1163.07,-569.159 1110.29,-510.261 1185.07,-360 1193.48,-343.103 1209.62,-328.741 1222.42,-319.247"/>
</g>
<!-- 17 -->
<g id="node13" class="node"><title>17</title>
<ellipse fill="none" stroke="black" cx="339.075" cy="-234" rx="27" ry="18"/>
<text text-anchor="middle" x="339.075" y="-230.3" font-family="Times,serif" font-size="14.00">17</text>
</g>
<!-- 12&#45;&#45;17 -->
<g id="edge10" class="edge"><title>12&#45;&#45;17</title>
<path fill="none" stroke="black" d="M235.157,-1661.57C201.281,-1640.48 136.075,-1591.95 136.075,-1531 136.075,-1531 136.075,-1531 136.075,-809 136.075,-725.916 187.701,-718.864 231.075,-648 285.208,-559.558 356.075,-554.694 356.075,-451 356.075,-451 356.075,-451 356.075,-377 356.075,-331.563 347.388,-278.525 342.434,-251.971"/>
</g>
<!-- 36&#45;&#45;46 -->
<g id="edge83" class="edge"><title>36&#45;&#45;46</title>
<path fill="none" stroke="black" d="M1247.92,-288.19C1259.13,-257.965 1278.16,-193.026 1257.07,-144 1238.69,-101.257 1222.54,-93.1058 1181.07,-72 1093.99,-27.6764 975.156,-20.0775 922.32,-19.009"/>
</g>
<!-- 21 -->
<g id="node44" class="node"><title>21</title>
<ellipse fill="none" stroke="black" cx="394.075" cy="-162" rx="27" ry="18"/>
<text text-anchor="middle" x="394.075" y="-158.3" font-family="Times,serif" font-size="14.00">21</text>
</g>
<!-- 17&#45;&#45;21 -->
<g id="edge71" class="edge"><title>17&#45;&#45;21</title>
<path fill="none" stroke="black" d="M351.009,-217.811C360.235,-206.07 372.945,-189.893 382.164,-178.159"/>
</g>
<!-- 13 -->
<g id="node14" class="node"><title>13</title>
<ellipse fill="none" stroke="black" cx="1030.07" cy="-1674" rx="27" ry="18"/>
<text text-anchor="middle" x="1030.07" y="-1670.3" font-family="Times,serif" font-size="14.00">13</text>
</g>
<!-- 38 -->
<g id="node15" class="node"><title>38</title>
<ellipse fill="none" stroke="black" cx="918.075" cy="-810" rx="27" ry="18"/>
<text text-anchor="middle" x="918.075" y="-806.3" font-family="Times,serif" font-size="14.00">38</text>
</g>
<!-- 13&#45;&#45;38 -->
<g id="edge11" class="edge"><title>13&#45;&#45;38</title>
<path fill="none" stroke="black" d="M1004.72,-1667.64C980.116,-1660.99 943.964,-1647.04 926.075,-1620 895.213,-1573.34 935.075,-1369.17 935.075,-1315 935.075,-1315 935.075,-1315 935.075,-953 935.075,-907.563 926.388,-854.525 921.434,-827.971"/>
</g>
<!-- 13&#45;&#45;24 -->
<g id="edge12" class="edge"><title>13&#45;&#45;24</title>
<path fill="none" stroke="black" d="M1035.95,-1691.96C1037.13,-1703.03 1037.12,-1717.41 1035.91,-1728.41"/>
</g>
<!-- 29 -->
<g id="node21" class="node"><title>29</title>
<ellipse fill="none" stroke="black" cx="491.075" cy="-738" rx="27" ry="18"/>
<text text-anchor="middle" x="491.075" y="-734.3" font-family="Times,serif" font-size="14.00">29</text>
</g>
<!-- 38&#45;&#45;29 -->
<g id="edge25" class="edge"><title>38&#45;&#45;29</title>
<path fill="none" stroke="black" d="M892.007,-804.727C815.686,-792.215 593.304,-755.759 517.072,-743.262"/>
</g>
<!-- 38&#45;&#45;35 -->
<g id="edge26" class="edge"><title>38&#45;&#45;35</title>
<path fill="none" stroke="black" d="M938.927,-798.446C954.673,-789.363 975.486,-774.763 987.075,-756 1030.81,-685.195 1033.54,-581.059 1032.75,-540.277"/>
</g>
<!-- 24&#45;&#45;12 -->
<g id="edge16" class="edge"><title>24&#45;&#45;12</title>
<path fill="none" stroke="black" d="M1003.4,-1742.59C884.156,-1731.82 400.653,-1688.15 281.64,-1677.4"/>
</g>
<!-- 24&#45;&#45;13 -->
<g id="edge14" class="edge"><title>24&#45;&#45;13</title>
<path fill="none" stroke="black" d="M1024.24,-1728.41C1023.03,-1717.41 1023.02,-1703.03 1024.2,-1691.96"/>
</g>
<!-- 49 -->
<g id="node17" class="node"><title>49</title>
<ellipse fill="none" stroke="black" cx="1065.07" cy="-378" rx="27" ry="18"/>
<text text-anchor="middle" x="1065.07" y="-374.3" font-family="Times,serif" font-size="14.00">49</text>
</g>
<!-- 24&#45;&#45;49 -->
<g id="edge13" class="edge"><title>24&#45;&#45;49</title>
<path fill="none" stroke="black" d="M1057.15,-1745.13C1097.32,-1743.79 1172.53,-1735.21 1215.07,-1692 1243.82,-1662.81 1239.07,-1643.97 1239.07,-1603 1239.07,-1603 1239.07,-1603 1239.07,-881 1239.07,-678.995 1111.74,-455.231 1074.93,-394.769"/>
</g>
<!-- 24&#45;&#45;47 -->
<g id="edge15" class="edge"><title>24&#45;&#45;47</title>
<path fill="none" stroke="black" d="M1054.21,-1737.6C1101.35,-1721.47 1201.07,-1678.44 1201.07,-1603 1201.07,-1603 1201.07,-1603 1201.07,-881 1201.07,-745.302 1197.38,-711.306 1187.07,-576 1180.39,-488.203 1166.07,-467.052 1166.07,-379 1166.07,-379 1166.07,-379 1166.07,-233 1166.07,-157.819 1066.93,-114.652 1020.07,-98.4472"/>
</g>
<!-- 27&#45;&#45;12 -->
<g id="edge19" class="edge"><title>27&#45;&#45;12</title>
<path fill="none" stroke="black" d="M465.836,-533.538C449.348,-542.703 427.018,-557.42 413.075,-576 382.532,-616.699 408.286,-645.448 375.075,-684 352.756,-709.908 327.783,-692.786 307.075,-720 183.332,-882.622 208.075,-964.651 208.075,-1169 208.075,-1531 208.075,-1531 208.075,-1531 208.075,-1578.78 232.355,-1631.23 246.013,-1656.96"/>
</g>
<!-- 14 -->
<g id="node20" class="node"><title>14</title>
<ellipse fill="none" stroke="black" cx="861.075" cy="-882" rx="27" ry="18"/>
<text text-anchor="middle" x="861.075" y="-878.3" font-family="Times,serif" font-size="14.00">14</text>
</g>
<!-- 27&#45;&#45;14 -->
<g id="edge20" class="edge"><title>27&#45;&#45;14</title>
<path fill="none" stroke="black" d="M501.978,-537.265C561.98,-594.701 785.547,-808.703 845.951,-866.523"/>
</g>
<!-- 14&#45;&#45;38 -->
<g id="edge32" class="edge"><title>14&#45;&#45;38</title>
<path fill="none" stroke="black" d="M873.443,-865.811C883.004,-854.07 896.176,-837.893 905.731,-826.159"/>
</g>
<!-- 14&#45;&#45;24 -->
<g id="edge31" class="edge"><title>14&#45;&#45;24</title>
<path fill="none" stroke="black" d="M860.68,-900.048C860.097,-926.706 859.075,-979.881 859.075,-1025 859.075,-1603 859.075,-1603 859.075,-1603 859.075,-1678.44 958.801,-1721.47 1005.94,-1737.6"/>
</g>
<!-- 18 -->
<g id="node27" class="node"><title>18</title>
<ellipse fill="none" stroke="black" cx="996.075" cy="-450" rx="27" ry="18"/>
<text text-anchor="middle" x="996.075" y="-446.3" font-family="Times,serif" font-size="14.00">18</text>
</g>
<!-- 14&#45;&#45;18 -->
<g id="edge30" class="edge"><title>14&#45;&#45;18</title>
<path fill="none" stroke="black" d="M862.83,-863.84C865.234,-845.336 870.635,-815.388 882.075,-792 891.103,-773.544 898.751,-772.439 911.075,-756 939.991,-717.428 973.075,-715.207 973.075,-667 973.075,-667 973.075,-667 973.075,-593 973.075,-547.297 984.828,-494.373 991.531,-467.906"/>
</g>
<!-- 29&#45;&#45;8 -->
<g id="edge22" class="edge"><title>29&#45;&#45;8</title>
<path fill="none" stroke="black" d="M482.819,-755.154C445.346,-829.058 293.075,-1135.84 293.075,-1241 293.075,-1459 293.075,-1459 293.075,-1459 293.075,-1499.97 300.739,-1510.43 317.075,-1548 322.867,-1561.32 331.637,-1575.22 338.68,-1585.44"/>
</g>
<!-- 29&#45;&#45;10 -->
<g id="edge21" class="edge"><title>29&#45;&#45;10</title>
<path fill="none" stroke="black" d="M469.297,-726.971C440.402,-713.664 389.687,-690.308 360.812,-677.011"/>
</g>
<!-- 37 -->
<g id="node32" class="node"><title>37</title>
<ellipse fill="none" stroke="black" cx="652.075" cy="-1242" rx="27" ry="18"/>
<text text-anchor="middle" x="652.075" y="-1238.3" font-family="Times,serif" font-size="14.00">37</text>
</g>
<!-- 44&#45;&#45;37 -->
<g id="edge50" class="edge"><title>44&#45;&#45;37</title>
<path fill="none" stroke="black" d="M652.075,-1295.7C652.075,-1284.85 652.075,-1270.92 652.075,-1260.1"/>
</g>
<!-- 44&#45;&#45;32 -->
<g id="edge51" class="edge"><title>44&#45;&#45;32</title>
<path fill="none" stroke="black" d="M657.881,-1331.82C667.306,-1359.14 685.831,-1412.82 695.262,-1440.15"/>
</g>
<!-- 35&#45;&#45;16 -->
<g id="edge81" class="edge"><title>35&#45;&#45;16</title>
<path fill="none" stroke="black" d="M1042.68,-538.835C1058.66,-564.28 1087.07,-616.355 1087.07,-665 1087.07,-1387 1087.07,-1387 1087.07,-1387 1087.07,-1427.86 1095.1,-1449.42 1064.07,-1476 1025.33,-1509.2 661.179,-1524.43 558.128,-1528.1"/>
</g>
<!-- 35&#45;&#45;18 -->
<g id="edge82" class="edge"><title>35&#45;&#45;18</title>
<path fill="none" stroke="black" d="M1023.73,-504.765C1017.91,-493.456 1010.19,-478.437 1004.38,-467.147"/>
</g>
<!-- 34 -->
<g id="node47" class="node"><title>34</title>
<ellipse fill="none" stroke="black" cx="1221.07" cy="-450" rx="27" ry="18"/>
<text text-anchor="middle" x="1221.07" y="-446.3" font-family="Times,serif" font-size="14.00">34</text>
</g>
<!-- 35&#45;&#45;34 -->
<g id="edge80" class="edge"><title>35&#45;&#45;34</title>
<path fill="none" stroke="black" d="M1055.25,-512.417C1091.62,-498.945 1161.7,-472.991 1198.01,-459.544"/>
</g>
<!-- 2 -->
<g id="node24" class="node"><title>2</title>
<ellipse fill="none" stroke="black" cx="1028.07" cy="-1458" rx="27" ry="18"/>
<text text-anchor="middle" x="1028.07" y="-1454.3" font-family="Times,serif" font-size="14.00">2</text>
</g>
<!-- 2&#45;&#45;35 -->
<g id="edge28" class="edge"><title>2&#45;&#45;35</title>
<path fill="none" stroke="black" d="M1032.22,-1440.07C1038.34,-1413.57 1049.07,-1360.61 1049.07,-1315 1049.07,-1315 1049.07,-1315 1049.07,-665 1049.07,-619.563 1040.39,-566.525 1035.43,-539.971"/>
</g>
<!-- 42 -->
<g id="node25" class="node"><title>42</title>
<ellipse fill="none" stroke="black" cx="728.075" cy="-1386" rx="27" ry="18"/>
<text text-anchor="middle" x="728.075" y="-1382.3" font-family="Times,serif" font-size="14.00">42</text>
</g>
<!-- 2&#45;&#45;42 -->
<g id="edge27" class="edge"><title>2&#45;&#45;42</title>
<path fill="none" stroke="black" d="M1003.01,-1451.15C946.543,-1437.98 809.879,-1406.09 753.276,-1392.88"/>
</g>
<!-- 11 -->
<g id="node26" class="node"><title>11</title>
<ellipse fill="none" stroke="black" cx="859.075" cy="-234" rx="27" ry="18"/>
<text text-anchor="middle" x="859.075" y="-230.3" font-family="Times,serif" font-size="14.00">11</text>
</g>
<!-- 2&#45;&#45;11 -->
<g id="edge29" class="edge"><title>2&#45;&#45;11</title>
<path fill="none" stroke="black" d="M1024.72,-1440.03C1019.76,-1413.48 1011.07,-1360.44 1011.07,-1315 1011.07,-1315 1011.07,-1315 1011.07,-881 1011.07,-840.031 1000.3,-830.774 987.075,-792 967.645,-735.053 935.075,-727.171 935.075,-667 935.075,-667 935.075,-667 935.075,-377 935.075,-325.271 895.385,-274.15 873.37,-249.772"/>
</g>
<!-- 42&#45;&#45;29 -->
<g id="edge49" class="edge"><title>42&#45;&#45;29</title>
<path fill="none" stroke="black" d="M728.156,-1367.8C727.443,-1336.09 721.781,-1267.66 688.075,-1224 667.655,-1197.55 646.853,-1210.42 622.075,-1188 557.808,-1129.86 512.075,-1113.66 512.075,-1027 512.075,-1027 512.075,-1027 512.075,-881 512.075,-835.395 501.344,-782.429 495.224,-755.93"/>
</g>
<!-- 42&#45;&#45;44 -->
<g id="edge48" class="edge"><title>42&#45;&#45;44</title>
<path fill="none" stroke="black" d="M712.695,-1370.83C699.51,-1358.69 680.611,-1341.28 667.432,-1329.14"/>
</g>
<!-- 11&#45;&#45;40 -->
<g id="edge89" class="edge"><title>11&#45;&#45;40</title>
<path fill="none" stroke="black" d="M884.819,-228.022C951.368,-215.153 1128.55,-180.892 1195.22,-168"/>
</g>
<!-- 11&#45;&#45;50 -->
<g id="edge90" class="edge"><title>11&#45;&#45;50</title>
<path fill="none" stroke="black" d="M836.368,-224.117C771.178,-198.616 583.953,-125.376 518.774,-99.8794"/>
</g>
<!-- 18&#45;&#45;49 -->
<g id="edge33" class="edge"><title>18&#45;&#45;49</title>
<path fill="none" stroke="black" d="M1010.37,-434.496C1022.21,-422.482 1038.96,-405.494 1050.8,-393.485"/>
</g>
<!-- 18&#45;&#45;47 -->
<g id="edge34" class="edge"><title>18&#45;&#45;47</title>
<path fill="none" stroke="black" d="M996.075,-431.951C996.075,-405.292 996.075,-352.115 996.075,-307 996.075,-307 996.075,-307 996.075,-233 996.075,-187.885 996.075,-134.708 996.075,-108.049"/>
</g>
<!-- 26 -->
<g id="node28" class="node"><title>26</title>
<ellipse fill="none" stroke="black" cx="658.075" cy="-1170" rx="27" ry="18"/>
<text text-anchor="middle" x="658.075" y="-1166.3" font-family="Times,serif" font-size="14.00">26</text>
</g>
<!-- 26&#45;&#45;42 -->
<g id="edge36" class="edge"><title>26&#45;&#45;42</title>
<path fill="none" stroke="black" d="M678.48,-1181.95C693.188,-1191.07 711.985,-1205.53 721.075,-1224 744.551,-1271.69 737.036,-1337.28 731.6,-1367.92"/>
</g>
<!-- 41 -->
<g id="node29" class="node"><title>41</title>
<ellipse fill="none" stroke="black" cx="658.075" cy="-1098" rx="27" ry="18"/>
<text text-anchor="middle" x="658.075" y="-1094.3" font-family="Times,serif" font-size="14.00">41</text>
</g>
<!-- 26&#45;&#45;41 -->
<g id="edge35" class="edge"><title>26&#45;&#45;41</title>
<path fill="none" stroke="black" d="M658.075,-1151.7C658.075,-1140.85 658.075,-1126.92 658.075,-1116.1"/>
</g>
<!-- 41&#45;&#45;8 -->
<g id="edge47" class="edge"><title>41&#45;&#45;8</title>
<path fill="none" stroke="black" d="M647.14,-1114.62C639.886,-1125.1 630.236,-1139.26 622.075,-1152 511.171,-1325.09 490.517,-1372.74 383.075,-1548 375.484,-1560.38 366.798,-1574.32 360.243,-1584.8"/>
</g>
<!-- 31 -->
<g id="node30" class="node"><title>31</title>
<ellipse fill="none" stroke="black" cx="663.075" cy="-1026" rx="27" ry="18"/>
<text text-anchor="middle" x="663.075" y="-1022.3" font-family="Times,serif" font-size="14.00">31</text>
</g>
<!-- 41&#45;&#45;31 -->
<g id="edge46" class="edge"><title>41&#45;&#45;31</title>
<path fill="none" stroke="black" d="M659.311,-1079.7C660.086,-1068.85 661.081,-1054.92 661.853,-1044.1"/>
</g>
<!-- 31&#45;&#45;25 -->
<g id="edge39" class="edge"><title>31&#45;&#45;25</title>
<path fill="none" stroke="black" d="M656.627,-1008.42C638.347,-961.925 583.822,-826.734 527.075,-720 505.46,-679.345 475.679,-634.063 459.902,-610.76"/>
</g>
<!-- 31&#45;&#45;47 -->
<g id="edge38" class="edge"><title>31&#45;&#45;47</title>
<path fill="none" stroke="black" d="M665.939,-1007.92C674.298,-956.527 698.075,-798.768 698.075,-667 698.075,-667 698.075,-667 698.075,-593 698.075,-496.401 736.075,-475.599 736.075,-379 736.075,-379 736.075,-379 736.075,-233 736.075,-127.564 902.8,-99.9327 969.23,-93.108"/>
</g>
<!-- 31&#45;&#45;39 -->
<g id="edge37" class="edge"><title>31&#45;&#45;39</title>
<path fill="none" stroke="black" d="M682.891,-1013.44C705.125,-1000.47 740.984,-979.553 763.23,-966.576"/>
</g>
<!-- 39&#45;&#45;47 -->
<g id="edge45" class="edge"><title>39&#45;&#45;47</title>
<path fill="none" stroke="black" d="M782.044,-935.74C776.446,-837.172 752.47,-345.345 823.075,-216 856.541,-154.692 934.52,-115.897 973.315,-99.7012"/>
</g>
<!-- 39&#45;&#45;14 -->
<g id="edge43" class="edge"><title>39&#45;&#45;14</title>
<path fill="none" stroke="black" d="M798.485,-939.17C812.16,-926.898 832.032,-909.064 845.697,-896.801"/>
</g>
<!-- 39&#45;&#45;18 -->
<g id="edge44" class="edge"><title>39&#45;&#45;18</title>
<path fill="none" stroke="black" d="M790.555,-936.349C815.917,-879.627 897.075,-695.864 897.075,-667 897.075,-667 897.075,-667 897.075,-593 897.075,-536.801 949.9,-486.936 978.376,-464.139"/>
</g>
<!-- 39&#45;&#45;50 -->
<g id="edge42" class="edge"><title>39&#45;&#45;50</title>
<path fill="none" stroke="black" d="M778.31,-936.075C766.361,-892.09 736.075,-770.405 736.075,-667 736.075,-667 736.075,-667 736.075,-593 736.075,-380.961 559.634,-163.479 509.32,-105.773"/>
</g>
<!-- 37&#45;&#45;16 -->
<g id="edge41" class="edge"><title>37&#45;&#45;16</title>
<path fill="none" stroke="black" d="M640.656,-1258.33C633.198,-1268.69 623.502,-1282.82 616.075,-1296 573.476,-1371.59 545.276,-1472.54 535.2,-1512.09"/>
</g>
<!-- 37&#45;&#45;26 -->
<g id="edge40" class="edge"><title>37&#45;&#45;26</title>
<path fill="none" stroke="black" d="M653.558,-1223.7C654.488,-1212.85 655.682,-1198.92 656.609,-1188.1"/>
</g>
<!-- 32&#45;&#45;42 -->
<g id="edge96" class="edge"><title>32&#45;&#45;42</title>
<path fill="none" stroke="black" d="M707.474,-1440.41C711.715,-1429.41 717.264,-1415.03 721.535,-1403.96"/>
</g>
<!-- 32&#45;&#45;39 -->
<g id="edge95" class="edge"><title>32&#45;&#45;39</title>
<path fill="none" stroke="black" d="M720.614,-1445.57C734.869,-1436.21 753.478,-1421.64 764.075,-1404 784.9,-1369.33 783.075,-1355.45 783.075,-1315 783.075,-1315 783.075,-1315 783.075,-1097 783.075,-1051.89 783.075,-998.708 783.075,-972.049"/>
</g>
<!-- 28 -->
<g id="node37" class="node"><title>28</title>
<ellipse fill="none" stroke="black" cx="542.075" cy="-378" rx="27" ry="18"/>
<text text-anchor="middle" x="542.075" y="-374.3" font-family="Times,serif" font-size="14.00">28</text>
</g>
<!-- 32&#45;&#45;28 -->
<g id="edge94" class="edge"><title>32&#45;&#45;28</title>
<path fill="none" stroke="black" d="M686.723,-1442.43C666.349,-1420.6 629.971,-1377.15 616.075,-1332 528.941,-1048.9 660.075,-963.202 660.075,-667 660.075,-667 660.075,-667 660.075,-521 660.075,-460.258 595.417,-411.634 561.826,-390.471"/>
</g>
<!-- 3 -->
<g id="node35" class="node"><title>3</title>
<ellipse fill="none" stroke="black" cx="343.075" cy="-738" rx="27" ry="18"/>
<text text-anchor="middle" x="343.075" y="-734.3" font-family="Times,serif" font-size="14.00">3</text>
</g>
<!-- 20 -->
<g id="node36" class="node"><title>20</title>
<ellipse fill="none" stroke="black" cx="267.075" cy="-666" rx="27" ry="18"/>
<text text-anchor="middle" x="267.075" y="-662.3" font-family="Times,serif" font-size="14.00">20</text>
</g>
<!-- 3&#45;&#45;20 -->
<g id="edge52" class="edge"><title>3&#45;&#45;20</title>
<path fill="none" stroke="black" d="M327.695,-722.834C314.51,-710.69 295.611,-693.283 282.432,-681.144"/>
</g>
<!-- 3&#45;&#45;28 -->
<g id="edge53" class="edge"><title>3&#45;&#45;28</title>
<path fill="none" stroke="black" d="M362.105,-724.939C402.584,-697.889 495.763,-627.812 523.075,-540 538.79,-489.474 541.67,-426.33 542.092,-396.349"/>
</g>
<!-- 20&#45;&#45;33 -->
<g id="edge63" class="edge"><title>20&#45;&#45;33</title>
<path fill="none" stroke="black" d="M251.695,-650.834C238.51,-638.69 219.611,-621.283 206.432,-609.144"/>
</g>
<!-- 28&#45;&#45;8 -->
<g id="edge93" class="edge"><title>28&#45;&#45;8</title>
<path fill="none" stroke="black" d="M546.539,-396.047C549.01,-406.37 551.827,-419.847 553.075,-432 558.008,-480.043 554.693,-493.664 541.075,-540 504.885,-663.133 436.075,-680.659 436.075,-809 436.075,-1027 436.075,-1027 436.075,-1027 436.075,-1162.41 331.075,-1177.59 331.075,-1313 331.075,-1459 331.075,-1459 331.075,-1459 331.075,-1504.52 340.784,-1557.52 346.321,-1584.05"/>
</g>
<!-- 28&#45;&#45;43 -->
<g id="edge92" class="edge"><title>28&#45;&#45;43</title>
<path fill="none" stroke="black" d="M536.15,-360.411C532.223,-349.414 527.085,-335.027 523.131,-323.956"/>
</g>
<!-- 6 -->
<g id="node38" class="node"><title>6</title>
<ellipse fill="none" stroke="black" cx="263.075" cy="-450" rx="27" ry="18"/>
<text text-anchor="middle" x="263.075" y="-446.3" font-family="Times,serif" font-size="14.00">6</text>
</g>
<!-- 6&#45;&#45;28 -->
<g id="edge55" class="edge"><title>6&#45;&#45;28</title>
<path fill="none" stroke="black" d="M287.834,-442.788C340.646,-429.538 463.853,-398.626 516.97,-385.299"/>
</g>
<!-- 45 -->
<g id="node39" class="node"><title>45</title>
<ellipse fill="none" stroke="black" cx="263.075" cy="-378" rx="27" ry="18"/>
<text text-anchor="middle" x="263.075" y="-374.3" font-family="Times,serif" font-size="14.00">45</text>
</g>
<!-- 6&#45;&#45;45 -->
<g id="edge54" class="edge"><title>6&#45;&#45;45</title>
<path fill="none" stroke="black" d="M263.075,-431.697C263.075,-420.846 263.075,-406.917 263.075,-396.104"/>
</g>
<!-- 45&#45;&#45;15 -->
<g id="edge67" class="edge"><title>45&#45;&#45;15</title>
<path fill="none" stroke="black" d="M243.914,-364.807C223.725,-351.959 192.123,-331.848 172.016,-319.053"/>
</g>
<!-- 9&#45;&#45;16 -->
<g id="edge57" class="edge"><title>9&#45;&#45;16</title>
<path fill="none" stroke="black" d="M255.606,-539.433C243.319,-568.536 221.144,-631.062 231.075,-684 261.146,-844.293 450.516,-1211.7 497.075,-1368 512.407,-1419.47 523.557,-1482.17 528.398,-1511.85"/>
</g>
<!-- 9&#45;&#45;6 -->
<g id="edge56" class="edge"><title>9&#45;&#45;6</title>
<path fill="none" stroke="black" d="M263.075,-503.697C263.075,-492.846 263.075,-478.917 263.075,-468.104"/>
</g>
<!-- 15&#45;&#45;16 -->
<g id="edge58" class="edge"><title>15&#45;&#45;16</title>
<path fill="none" stroke="black" d="M150.938,-324.093C145.578,-370.798 133.478,-504.267 155.075,-612 174.881,-710.8 473.264,-1396.59 523.823,-1512.41"/>
</g>
<!-- 15&#45;&#45;48 -->
<g id="edge59" class="edge"><title>15&#45;&#45;48</title>
<path fill="none" stroke="black" d="M163.74,-289.116C171.432,-277.66 181.77,-262.263 189.452,-250.821"/>
</g>
<!-- 4 -->
<g id="node43" class="node"><title>4</title>
<ellipse fill="none" stroke="black" cx="60.075" cy="-1746" rx="27" ry="18"/>
<text text-anchor="middle" x="60.075" y="-1742.3" font-family="Times,serif" font-size="14.00">4</text>
</g>
<!-- 4&#45;&#45;12 -->
<g id="edge70" class="edge"><title>4&#45;&#45;12</title>
<path fill="none" stroke="black" d="M83.2098,-1736.7C120.638,-1723.26 194.064,-1696.9 231.667,-1683.4"/>
</g>
<!-- 4&#45;&#45;17 -->
<g id="edge68" class="edge"><title>4&#45;&#45;17</title>
<path fill="none" stroke="black" d="M60.075,-1727.95C60.075,-1701.29 60.075,-1648.11 60.075,-1603 60.075,-1603 60.075,-1603 60.075,-377 60.075,-330.027 78.784,-315.207 117.075,-288 133.145,-276.582 258.378,-250.889 313.349,-240.014"/>
</g>
<!-- 4&#45;&#45;15 -->
<g id="edge69" class="edge"><title>4&#45;&#45;15</title>
<path fill="none" stroke="black" d="M52.5674,-1728.34C41.4931,-1702.2 22.075,-1649.7 22.075,-1603 22.075,-1603 22.075,-1603 22.075,-449 22.075,-384.936 94.9969,-337.423 132.028,-317.425"/>
</g>
<!-- 21&#45;&#45;19 -->
<g id="edge75" class="edge"><title>21&#45;&#45;19</title>
<path fill="none" stroke="black" d="M394.075,-180.049C394.075,-206.708 394.075,-259.885 394.075,-305 394.075,-451 394.075,-451 394.075,-451 394.075,-499.645 365.662,-551.72 349.68,-577.165"/>
</g>
<!-- 21&#45;&#45;50 -->
<g id="edge76" class="edge"><title>21&#45;&#45;50</title>
<path fill="none" stroke="black" d="M412.311,-148.485C430.877,-135.744 459.489,-116.108 477.997,-103.406"/>
</g>
<!-- 43&#45;&#45;17 -->
<g id="edge100" class="edge"><title>43&#45;&#45;17</title>
<path fill="none" stroke="black" d="M494.169,-295.992C459.991,-282.551 396.02,-257.394 361.893,-243.973"/>
</g>
<!-- 43&#45;&#45;11 -->
<g id="edge99" class="edge"><title>43&#45;&#45;11</title>
<path fill="none" stroke="black" d="M542.501,-299.796C605.816,-286.837 769.99,-253.234 833.481,-240.238"/>
</g>
<!-- 23 -->
<g id="node46" class="node"><title>23</title>
<ellipse fill="none" stroke="black" cx="1221.07" cy="-378" rx="27" ry="18"/>
<text text-anchor="middle" x="1221.07" y="-374.3" font-family="Times,serif" font-size="14.00">23</text>
</g>
<!-- 23&#45;&#45;36 -->
<g id="edge77" class="edge"><title>23&#45;&#45;36</title>
<path fill="none" stroke="black" d="M1225.92,-360.055C1229.06,-349.049 1233.14,-334.764 1236.28,-323.789"/>
</g>
<!-- 34&#45;&#45;24 -->
<g id="edge79" class="edge"><title>34&#45;&#45;24</title>
<path fill="none" stroke="black" d="M1228.51,-467.535C1243.74,-502.965 1277.07,-589.153 1277.07,-665 1277.07,-1603 1277.07,-1603 1277.07,-1603 1277.07,-1643.97 1282.48,-1663.47 1253.07,-1692 1225.09,-1719.16 1109.24,-1735.8 1056.47,-1742.11"/>
</g>
<!-- 34&#45;&#45;23 -->
<g id="edge78" class="edge"><title>34&#45;&#45;23</title>
<path fill="none" stroke="black" d="M1221.07,-431.697C1221.07,-420.846 1221.07,-406.917 1221.07,-396.104"/>
</g>
<!-- 5 -->
<g id="node48" class="node"><title>5</title>
<ellipse fill="none" stroke="black" cx="962.075" cy="-1602" rx="27" ry="18"/>
<text text-anchor="middle" x="962.075" y="-1598.3" font-family="Times,serif" font-size="14.00">5</text>
</g>
<!-- 5&#45;&#45;36 -->
<g id="edge85" class="edge"><title>5&#45;&#45;36</title>
<path fill="none" stroke="black" d="M985.777,-1592.99C1030.98,-1576.04 1125.07,-1532 1125.07,-1459 1125.07,-1459 1125.07,-1459 1125.07,-737 1125.07,-603.826 1226.96,-597.725 1257.07,-468 1267.93,-421.243 1264.09,-407.485 1257.07,-360 1255.25,-347.639 1251.15,-334.165 1247.56,-323.896"/>
</g>
<!-- 7 -->
<g id="node49" class="node"><title>7</title>
<ellipse fill="none" stroke="black" cx="957.075" cy="-1530" rx="27" ry="18"/>
<text text-anchor="middle" x="957.075" y="-1526.3" font-family="Times,serif" font-size="14.00">7</text>
</g>
<!-- 5&#45;&#45;7 -->
<g id="edge84" class="edge"><title>5&#45;&#45;7</title>
<path fill="none" stroke="black" d="M960.839,-1583.7C960.064,-1572.85 959.069,-1558.92 958.297,-1548.1"/>
</g>
<!-- 7&#45;&#45;14 -->
<g id="edge88" class="edge"><title>7&#45;&#45;14</title>
<path fill="none" stroke="black" d="M949.107,-1512.52C932.786,-1477.2 897.075,-1391.21 897.075,-1315 897.075,-1315 897.075,-1315 897.075,-1025 897.075,-978.458 878.679,-925.894 868.187,-899.701"/>
</g>
<!-- 7&#45;&#45;11 -->
<g id="edge87" class="edge"><title>7&#45;&#45;11</title>
<path fill="none" stroke="black" d="M960.236,-1512.02C964.899,-1485.45 973.075,-1432.4 973.075,-1387 973.075,-1387 973.075,-1387 973.075,-881 973.075,-840.553 970.94,-828.763 954.075,-792 924.98,-728.576 859.075,-736.779 859.075,-667 859.075,-667 859.075,-667 859.075,-377 859.075,-331.885 859.075,-278.708 859.075,-252.049"/>
</g>
<!-- 7&#45;&#45;32 -->
<g id="edge86" class="edge"><title>7&#45;&#45;32</title>
<path fill="none" stroke="black" d="M932.529,-1522.29C883.597,-1508.91 774.418,-1479.05 725.547,-1465.69"/>
</g>
<!-- 22&#45;&#45;46 -->
<g id="edge91" class="edge"><title>22&#45;&#45;46</title>
<path fill="none" stroke="black" d="M1120.65,-82.1607C1072.85,-68.7783 967.474,-39.2717 919.6,-25.8671"/>
</g>
</g>
</svg>
