<?xml version="1.0" encoding="UTF-8" standalone="no"?>
<!DOCTYPE svg PUBLIC "-//W3C//DTD SVG 1.1//EN"
 "http://www.w3.org/Graphics/SVG/1.1/DTD/svg11.dtd">
<!-- Generated by graphviz version 2.38.0 (20140413.2041)
 -->
<!-- Title: G Pages: 1 -->
<svg width="463pt" height="168pt"
 viewBox="0.00 0.00 462.50 168.00" xmlns="http://www.w3.org/2000/svg" xmlns:xlink="http://www.w3.org/1999/xlink">
<g id="graph0" class="graph" transform="scale(1 1) rotate(0) translate(4 164)">
<title>G</title>
<polygon fill="white" stroke="none" points="-4,4 -4,-164 458.5,-164 458.5,4 -4,4"/>
<!-- n -->
<g id="node1" class="node"><title>n</title>
<polygon fill="none" stroke="black" points="216,-148 0,-148 0,-110 216,-110 216,-148"/>
<text text-anchor="middle" x="108" y="-132.8" font-family="Times,serif" font-size="14.00">aaaaaaaaaaaaaa</text>
<text text-anchor="start" x="8" y="-117.8" font-family="Times,serif" font-size="14.00">ddd</text>
</g>
<!-- m -->
<g id="node2" class="node"><title>m</title>
<polygon fill="none" stroke="black" points="216,-50 0,-50 0,-12 216,-12 216,-50"/>
<text text-anchor="middle" x="108" y="-34.8" font-family="Times,serif" font-size="14.00">aaaaaaaaaaaaaa</text>
<text text-anchor="start" x="65.5" y="-19.8" font-family="Times,serif" font-size="14.00">ddd</text>
</g>
<!-- n&#45;&gt;m -->
<g id="edge1" class="edge"><title>n&#45;&gt;m</title>
<path fill="none" stroke="black" d="M108,-109.943C108,-96.0862 108,-76.6861 108,-60.7075"/>
<polygon fill="black" stroke="black" points="111.5,-60.3023 108,-50.3023 104.5,-60.3023 111.5,-60.3023"/>
</g>
<!-- b -->
<g id="node3" class="node"><title>b</title>
<polygon fill="none" stroke="black" points="335.5,-50 234.5,-50 234.5,-12 335.5,-12 335.5,-50"/>
<text text-anchor="middle" x="285" y="-34.8" font-family="Times,serif" font-size="14.00">aaaaaaaaaaaaaa</text>
<text text-anchor="start" x="242.5" y="-19.8" font-family="Times,serif" font-size="14.00">ddd</text>
</g>
<!-- l -->
<g id="node4" class="node"><title>l</title>
<polygon fill="none" stroke="black" points="353.5,-98.5 353.5,-159.5 454.5,-159.5 454.5,-98.5 353.5,-98.5"/>
<text text-anchor="middle" x="404" y="-144.3" font-family="Times,serif" font-size="14.00">aaaaaaaaaaaaaa</text>
<polyline fill="none" stroke="black" points="353.5,-136.5 454.5,-136.5 "/>
<text text-anchor="middle" x="404" y="-121.3" font-family="Times,serif" font-size="14.00">bbbbbb</text>
<text text-anchor="start" x="361.5" y="-106.3" font-family="Times,serif" font-size="14.00">ddd</text>
</g>
<!-- p -->
<g id="node5" class="node"><title>p</title>
<polygon fill="none" stroke="black" points="353.5,-0.5 353.5,-61.5 454.5,-61.5 454.5,-0.5 353.5,-0.5"/>
<text text-anchor="middle" x="404" y="-46.3" font-family="Times,serif" font-size="14.00">aaaaaaaaaaaaaa</text>
<polyline fill="none" stroke="black" points="353.5,-38.5 454.5,-38.5 "/>
<text text-anchor="middle" x="404" y="-23.3" font-family="Times,serif" font-size="14.00">bbbbbb</text>
<text text-anchor="start" x="383.5" y="-8.3" font-family="Times,serif" font-size="14.00">ddd</text>
</g>
<!-- l&#45;&gt;p -->
<g id="edge2" class="edge"><title>l&#45;&gt;p</title>
<path fill="none" stroke="black" d="M404,-98.4135C404,-90.0189 404,-80.7386 404,-71.8433"/>
<polygon fill="black" stroke="black" points="407.5,-71.654 404,-61.6541 400.5,-71.6541 407.5,-71.654"/>
</g>
<!-- a -->
<g id="node6" class="node"><title>a</title>
<polygon fill="none" stroke="black" points="335.5,-148 234.5,-148 234.5,-110 335.5,-110 335.5,-148"/>
<text text-anchor="middle" x="285" y="-132.8" font-family="Times,serif" font-size="14.00">aaaaaaaaaaaaaa</text>
<text text-anchor="start" x="242.5" y="-117.8" font-family="Times,serif" font-size="14.00">ddd</text>
</g>
<!-- a&#45;&gt;b -->
<g id="edge3" class="edge"><title>a&#45;&gt;b</title>
<path fill="none" stroke="black" d="M285,-109.943C285,-96.0862 285,-76.6861 285,-60.7075"/>
<polygon fill="black" stroke="black" points="288.5,-60.3023 285,-50.3023 281.5,-60.3023 288.5,-60.3023"/>
</g>
</g>
</svg>
