<?xml version="1.0" encoding="UTF-8" standalone="no"?>
<!DOCTYPE svg PUBLIC "-//W3C//DTD SVG 1.1//EN"
 "http://www.w3.org/Graphics/SVG/1.1/DTD/svg11.dtd">
<!-- Generated by graphviz version 2.38.0 (20140413.2041)
 -->
<!-- Title: G Pages: 1 -->
<svg width="422pt" height="260pt"
 viewBox="0.00 0.00 422.00 260.00" xmlns="http://www.w3.org/2000/svg" xmlns:xlink="http://www.w3.org/1999/xlink">
<g id="graph0" class="graph" transform="scale(1 1) rotate(0) translate(4 256)">
<title>G</title>
<polygon fill="white" stroke="none" points="-4,4 -4,-256 418,-256 418,4 -4,4"/>
<!-- 0 -->
<g id="node1" class="node"><title>0</title>
<ellipse fill="none" stroke="black" cx="207" cy="-234" rx="27" ry="18"/>
<text text-anchor="middle" x="207" y="-230.3" font-family="Times,serif" font-size="14.00">0</text>
</g>
<!-- 1 -->
<g id="node2" class="node"><title>1</title>
<ellipse fill="none" stroke="black" cx="135" cy="-162" rx="27" ry="18"/>
<text text-anchor="middle" x="135" y="-158.3" font-family="Times,serif" font-size="14.00">1</text>
</g>
<!-- 0&#45;&gt;1 -->
<g id="edge1" class="edge"><title>0&#45;&gt;1</title>
<path fill="none" stroke="black" d="M192.43,-218.834C182.25,-208.938 168.476,-195.546 156.969,-184.359"/>
<polygon fill="black" stroke="black" points="159.405,-181.846 149.796,-177.385 154.526,-186.865 159.405,-181.846"/>
</g>
<!-- 2 -->
<g id="node3" class="node"><title>2</title>
<ellipse fill="none" stroke="black" cx="243" cy="-162" rx="27" ry="18"/>
<text text-anchor="middle" x="243" y="-158.3" font-family="Times,serif" font-size="14.00">2</text>
</g>
<!-- 0&#45;&gt;2 -->
<g id="edge2" class="edge"><title>0&#45;&gt;2</title>
<path fill="none" stroke="black" d="M215.35,-216.765C219.712,-208.283 225.147,-197.714 230.041,-188.197"/>
<polygon fill="black" stroke="black" points="233.235,-189.641 234.696,-179.147 227.01,-186.439 233.235,-189.641"/>
</g>
<!-- 3 -->
<g id="node4" class="node"><title>3</title>
<ellipse fill="none" stroke="black" cx="27" cy="-90" rx="27" ry="18"/>
<text text-anchor="middle" x="27" y="-86.3" font-family="Times,serif" font-size="14.00">3</text>
</g>
<!-- 1&#45;&gt;3 -->
<g id="edge3" class="edge"><title>1&#45;&gt;3</title>
<path fill="none" stroke="black" d="M116.188,-148.807C98.9979,-137.665 73.3816,-121.062 54.0067,-108.504"/>
<polygon fill="black" stroke="black" points="55.8918,-105.555 45.5966,-103.053 52.0845,-111.429 55.8918,-105.555"/>
</g>
<!-- 5 -->
<g id="node5" class="node"><title>5</title>
<ellipse fill="none" stroke="black" cx="171" cy="-90" rx="27" ry="18"/>
<text text-anchor="middle" x="171" y="-86.3" font-family="Times,serif" font-size="14.00">5</text>
</g>
<!-- 1&#45;&gt;5 -->
<g id="edge4" class="edge"><title>1&#45;&gt;5</title>
<path fill="none" stroke="black" d="M143.35,-144.765C147.712,-136.283 153.147,-125.714 158.041,-116.197"/>
<polygon fill="black" stroke="black" points="161.235,-117.641 162.696,-107.147 155.01,-114.439 161.235,-117.641"/>
</g>
<!-- 7 -->
<g id="node6" class="node"><title>7</title>
<ellipse fill="none" stroke="black" cx="99" cy="-90" rx="27" ry="18"/>
<text text-anchor="middle" x="99" y="-86.3" font-family="Times,serif" font-size="14.00">7</text>
</g>
<!-- 1&#45;&gt;7 -->
<g id="edge5" class="edge"><title>1&#45;&gt;7</title>
<path fill="none" stroke="black" d="M126.65,-144.765C122.288,-136.283 116.853,-125.714 111.959,-116.197"/>
<polygon fill="black" stroke="black" points="114.99,-114.439 107.304,-107.147 108.765,-117.641 114.99,-114.439"/>
</g>
<!-- 2&#45;&gt;5 -->
<g id="edge7" class="edge"><title>2&#45;&gt;5</title>
<path fill="none" stroke="black" d="M228.43,-146.834C218.25,-136.938 204.476,-123.546 192.969,-112.359"/>
<polygon fill="black" stroke="black" points="195.405,-109.846 185.796,-105.385 190.526,-114.865 195.405,-109.846"/>
</g>
<!-- 4 -->
<g id="node7" class="node"><title>4</title>
<ellipse fill="none" stroke="black" cx="315" cy="-90" rx="27" ry="18"/>
<text text-anchor="middle" x="315" y="-86.3" font-family="Times,serif" font-size="14.00">4</text>
</g>
<!-- 2&#45;&gt;4 -->
<g id="edge6" class="edge"><title>2&#45;&gt;4</title>
<path fill="none" stroke="black" d="M257.57,-146.834C267.75,-136.938 281.524,-123.546 293.031,-112.359"/>
<polygon fill="black" stroke="black" points="295.474,-114.865 300.204,-105.385 290.595,-109.846 295.474,-114.865"/>
</g>
<!-- 6 -->
<g id="node8" class="node"><title>6</title>
<ellipse fill="none" stroke="black" cx="243" cy="-90" rx="27" ry="18"/>
<text text-anchor="middle" x="243" y="-86.3" font-family="Times,serif" font-size="14.00">6</text>
</g>
<!-- 2&#45;&gt;6 -->
<g id="edge8" class="edge"><title>2&#45;&gt;6</title>
<path fill="none" stroke="black" d="M243,-143.697C243,-135.983 243,-126.712 243,-118.112"/>
<polygon fill="black" stroke="black" points="246.5,-118.104 243,-108.104 239.5,-118.104 246.5,-118.104"/>
</g>
<!-- 8 -->
<g id="node9" class="node"><title>8</title>
<ellipse fill="none" stroke="black" cx="387" cy="-90" rx="27" ry="18"/>
<text text-anchor="middle" x="387" y="-86.3" font-family="Times,serif" font-size="14.00">8</text>
</g>
<!-- 2&#45;&gt;8 -->
<g id="edge9" class="edge"><title>2&#45;&gt;8</title>
<path fill="none" stroke="black" d="M264.248,-150.671C288.602,-138.832 328.719,-119.331 356.428,-105.862"/>
<polygon fill="black" stroke="black" points="358.202,-108.891 365.665,-101.371 355.141,-102.595 358.202,-108.891"/>
</g>
<!-- 9 -->
<g id="node10" class="node"><title>9</title>
<ellipse fill="none" stroke="black" cx="135" cy="-18" rx="27" ry="18"/>
<text text-anchor="middle" x="135" y="-14.3" font-family="Times,serif" font-size="14.00">9</text>
</g>
<!-- 3&#45;&gt;9 -->
<g id="edge10" class="edge"><title>3&#45;&gt;9</title>
<path fill="none" stroke="black" d="M45.8122,-76.8069C63.0021,-65.6653 88.6184,-49.0622 107.993,-36.5043"/>
<polygon fill="black" stroke="black" points="109.916,-39.4294 116.403,-31.0533 106.108,-33.5553 109.916,-39.4294"/>
</g>
<!-- 5&#45;&gt;9 -->
<g id="edge11" class="edge"><title>5&#45;&gt;9</title>
<path fill="none" stroke="black" d="M162.65,-72.7646C158.288,-64.2831 152.853,-53.7144 147.959,-44.1974"/>
<polygon fill="black" stroke="black" points="150.99,-42.4395 143.304,-35.1473 144.765,-45.6409 150.99,-42.4395"/>
</g>
<!-- 7&#45;&gt;9 -->
<g id="edge13" class="edge"><title>7&#45;&gt;9</title>
<path fill="none" stroke="black" d="M107.35,-72.7646C111.712,-64.2831 117.147,-53.7144 122.041,-44.1974"/>
<polygon fill="black" stroke="black" points="125.235,-45.6409 126.696,-35.1473 119.01,-42.4395 125.235,-45.6409"/>
</g>
<!-- 10 -->
<g id="node11" class="node"><title>10</title>
<ellipse fill="none" stroke="black" cx="315" cy="-18" rx="27" ry="18"/>
<text text-anchor="middle" x="315" y="-14.3" font-family="Times,serif" font-size="14.00">10</text>
</g>
<!-- 4&#45;&gt;10 -->
<g id="edge14" class="edge"><title>4&#45;&gt;10</title>
<path fill="none" stroke="black" d="M315,-71.6966C315,-63.9827 315,-54.7125 315,-46.1124"/>
<polygon fill="black" stroke="black" points="318.5,-46.1043 315,-36.1043 311.5,-46.1044 318.5,-46.1043"/>
</g>
<!-- 6&#45;&gt;9 -->
<g id="edge12" class="edge"><title>6&#45;&gt;9</title>
<path fill="none" stroke="black" d="M224.188,-76.8069C206.998,-65.6653 181.382,-49.0622 162.007,-36.5043"/>
<polygon fill="black" stroke="black" points="163.892,-33.5553 153.597,-31.0533 160.084,-39.4294 163.892,-33.5553"/>
</g>
<!-- 6&#45;&gt;10 -->
<g id="edge16" class="edge"><title>6&#45;&gt;10</title>
<path fill="none" stroke="black" d="M257.57,-74.8345C267.75,-64.9376 281.524,-51.5462 293.031,-40.3591"/>
<polygon fill="black" stroke="black" points="295.474,-42.865 300.204,-33.3847 290.595,-37.8461 295.474,-42.865"/>
</g>
<!-- 8&#45;&gt;10 -->
<g id="edge15" class="edge"><title>8&#45;&gt;10</title>
<path fill="none" stroke="black" d="M372.43,-74.8345C362.25,-64.9376 348.476,-51.5462 336.969,-40.3591"/>
<polygon fill="black" stroke="black" points="339.405,-37.8461 329.796,-33.3847 334.526,-42.865 339.405,-37.8461"/>
</g>
</g>
</svg>
