<?xml version="1.0" encoding="UTF-8" standalone="no"?>
<!DOCTYPE svg PUBLIC "-//W3C//DTD SVG 1.1//EN"
 "http://www.w3.org/Graphics/SVG/1.1/DTD/svg11.dtd">
<!-- Generated by graphviz version 2.38.0 (20140413.2041)
 -->
<!-- Title: G Pages: 1 -->
<svg width="1370pt" height="764pt"
 viewBox="0.00 0.00 1370.35 764.00" xmlns="http://www.w3.org/2000/svg" xmlns:xlink="http://www.w3.org/1999/xlink">
<g id="graph0" class="graph" transform="scale(1 1) rotate(0) translate(4 760)">
<title>G</title>
<polygon fill="white" stroke="none" points="-4,4 -4,-760 1366.35,-760 1366.35,4 -4,4"/>
<!-- Marden -->
<g id="node1" class="node"><title>Marden</title>
<ellipse fill="none" stroke="black" cx="402.347" cy="-738" rx="38.1938" ry="18"/>
<text text-anchor="middle" x="402.347" y="-734.3" font-family="Times,serif" font-size="14.00">Marden</text>
</g>
<!-- ldt -->
<g id="node2" class="node"><title>ldt</title>
<ellipse fill="none" stroke="black" cx="499.347" cy="-666" rx="27" ry="18"/>
<text text-anchor="middle" x="499.347" y="-662.3" font-family="Times,serif" font-size="14.00">ldt</text>
</g>
<!-- Marden&#45;&#45;ldt -->
<g id="edge1" class="edge"><title>Marden&#45;&#45;ldt</title>
<path fill="none" stroke="black" d="M422.445,-722.496C439.87,-709.922 464.846,-691.898 481.557,-679.838"/>
</g>
<!-- kg -->
<g id="node3" class="node"><title>kg</title>
<ellipse fill="none" stroke="black" cx="698.347" cy="-378" rx="27" ry="18"/>
<text text-anchor="middle" x="698.347" y="-374.3" font-family="Times,serif" font-size="14.00">kg</text>
</g>
<!-- Marden&#45;&#45;kg -->
<g id="edge2" class="edge"><title>Marden&#45;&#45;kg</title>
<path fill="none" stroke="black" d="M413.559,-720.576C425.773,-702.701 445.901,-673.287 463.347,-648 485.471,-615.932 484.195,-601.846 513.347,-576 538.934,-553.314 555.517,-562.41 581.347,-540 607.576,-517.243 664.744,-430.97 688.098,-394.95"/>
</g>
<!-- hg -->
<g id="node4" class="node"><title>hg</title>
<ellipse fill="none" stroke="black" cx="494.347" cy="-450" rx="27" ry="18"/>
<text text-anchor="middle" x="494.347" y="-446.3" font-family="Times,serif" font-size="14.00">hg</text>
</g>
<!-- Marden&#45;&#45;hg -->
<g id="edge3" class="edge"><title>Marden&#45;&#45;hg</title>
<path fill="none" stroke="black" d="M396.218,-719.918C386.416,-689.812 370.081,-625.782 388.347,-576 406.185,-527.384 452.235,-484.715 477.367,-464.109"/>
</g>
<!-- ldt&#45;&#45;hg -->
<g id="edge72" class="edge"><title>ldt&#45;&#45;hg</title>
<path fill="none" stroke="black" d="M498.676,-647.612C497.771,-623.469 496.177,-578.422 495.347,-540 494.806,-514.973 494.549,-485.981 494.433,-468.064"/>
</g>
<!-- ggt -->
<g id="node6" class="node"><title>ggt</title>
<ellipse fill="none" stroke="black" cx="269.347" cy="-522" rx="27" ry="18"/>
<text text-anchor="middle" x="269.347" y="-518.3" font-family="Times,serif" font-size="14.00">ggt</text>
</g>
<!-- ldt&#45;&#45;ggt -->
<g id="edge71" class="edge"><title>ldt&#45;&#45;ggt</title>
<path fill="none" stroke="black" d="M480.133,-653.137C436.839,-626.408 332.063,-561.721 288.668,-534.929"/>
</g>
<!-- kt -->
<g id="node9" class="node"><title>kt</title>
<ellipse fill="none" stroke="black" cx="655.347" cy="-522" rx="27" ry="18"/>
<text text-anchor="middle" x="655.347" y="-518.3" font-family="Times,serif" font-size="14.00">kt</text>
</g>
<!-- ldt&#45;&#45;kt -->
<g id="edge73" class="edge"><title>ldt&#45;&#45;kt</title>
<path fill="none" stroke="black" d="M503.387,-647.845C508.797,-628.224 520.139,-596.211 540.347,-576 547.361,-568.985 601.654,-545.514 633.069,-532.28"/>
</g>
<!-- ds -->
<g id="node18" class="node"><title>ds</title>
<ellipse fill="none" stroke="black" cx="723.347" cy="-594" rx="27" ry="18"/>
<text text-anchor="middle" x="723.347" y="-590.3" font-family="Times,serif" font-size="14.00">ds</text>
</g>
<!-- ldt&#45;&#45;ds -->
<g id="edge70" class="edge"><title>ldt&#45;&#45;ds</title>
<path fill="none" stroke="black" d="M523.319,-657.509C566.319,-644.071 656.087,-616.018 699.208,-602.543"/>
</g>
<!-- cd -->
<g id="node20" class="node"><title>cd</title>
<ellipse fill="none" stroke="black" cx="841.347" cy="-522" rx="27" ry="18"/>
<text text-anchor="middle" x="841.347" y="-518.3" font-family="Times,serif" font-size="14.00">cd</text>
</g>
<!-- ldt&#45;&#45;cd -->
<g id="edge74" class="edge"><title>ldt&#45;&#45;cd</title>
<path fill="none" stroke="black" d="M520.152,-654.218C554.466,-636.648 625.309,-601.269 687.347,-576 732.518,-557.601 786.737,-539.933 817.3,-530.365"/>
</g>
<!-- vd -->
<g id="node11" class="node"><title>vd</title>
<ellipse fill="none" stroke="black" cx="584.347" cy="-306" rx="27" ry="18"/>
<text text-anchor="middle" x="584.347" y="-302.3" font-family="Times,serif" font-size="14.00">vd</text>
</g>
<!-- kg&#45;&#45;vd -->
<g id="edge91" class="edge"><title>kg&#45;&#45;vd</title>
<path fill="none" stroke="black" d="M679.008,-365.125C658.045,-352.253 624.78,-331.828 603.78,-318.933"/>
</g>
<!-- hg&#45;&#45;kg -->
<g id="edge90" class="edge"><title>hg&#45;&#45;kg</title>
<path fill="none" stroke="black" d="M517.748,-440.97C556.994,-427.503 635.632,-400.52 674.905,-387.044"/>
</g>
<!-- lat -->
<g id="node10" class="node"><title>lat</title>
<ellipse fill="none" stroke="black" cx="512.347" cy="-378" rx="27" ry="18"/>
<text text-anchor="middle" x="512.347" y="-374.3" font-family="Times,serif" font-size="14.00">lat</text>
</g>
<!-- hg&#45;&#45;lat -->
<g id="edge87" class="edge"><title>hg&#45;&#45;lat</title>
<path fill="none" stroke="black" d="M498.704,-432.055C501.534,-421.049 505.207,-406.764 508.029,-395.789"/>
</g>
<!-- hg&#45;&#45;vd -->
<g id="edge88" class="edge"><title>hg&#45;&#45;vd</title>
<path fill="none" stroke="black" d="M511.263,-435.631C522.93,-425.704 538.122,-411.286 548.347,-396 563.637,-373.141 574.172,-342.776 579.73,-324.077"/>
</g>
<!-- cg -->
<g id="node28" class="node"><title>cg</title>
<ellipse fill="none" stroke="black" cx="864.347" cy="-90" rx="27" ry="18"/>
<text text-anchor="middle" x="864.347" y="-86.3" font-family="Times,serif" font-size="14.00">cg</text>
</g>
<!-- hg&#45;&#45;cg -->
<g id="edge89" class="edge"><title>hg&#45;&#45;cg</title>
<path fill="none" stroke="black" d="M514.835,-438.043C531.568,-428.437 555.174,-413.325 572.347,-396 599.421,-368.686 601.725,-357.651 620.347,-324 662.822,-247.242 636.042,-202.578 701.347,-144 740.222,-109.129 802.401,-97.1606 837.662,-93.0819"/>
</g>
<!-- Cannon -->
<g id="node5" class="node"><title>Cannon</title>
<ellipse fill="none" stroke="black" cx="38.3466" cy="-738" rx="38.1938" ry="18"/>
<text text-anchor="middle" x="38.3466" y="-734.3" font-family="Times,serif" font-size="14.00">Cannon</text>
</g>
<!-- Cannon&#45;&#45;ldt -->
<g id="edge4" class="edge"><title>Cannon&#45;&#45;ldt</title>
<path fill="none" stroke="black" d="M74.0008,-731.254C94.8022,-727.921 121.552,-723.671 145.347,-720 267.873,-701.095 414.416,-679.468 473.133,-670.843"/>
</g>
<!-- Cannon&#45;&#45;kg -->
<g id="edge5" class="edge"><title>Cannon&#45;&#45;kg</title>
<path fill="none" stroke="black" d="M37.9331,-719.776C37.8697,-677.265 43.6727,-566.296 102.347,-504 151.134,-452.201 177.191,-452.447 245.347,-432 250.513,-430.45 575.377,-393.106 671.708,-382.054"/>
</g>
<!-- Cannon&#45;&#45;ggt -->
<g id="edge6" class="edge"><title>Cannon&#45;&#45;ggt</title>
<path fill="none" stroke="black" d="M58.6575,-722.516C89.2511,-700.29 148.36,-655.739 193.347,-612 217.966,-588.063 243.202,-556.944 257.51,-538.557"/>
</g>
<!-- ggt&#45;&#45;hg -->
<g id="edge86" class="edge"><title>ggt&#45;&#45;hg</title>
<path fill="none" stroke="black" d="M293.426,-513.509C336.732,-500.036 427.261,-471.871 470.441,-458.437"/>
</g>
<!-- ggt&#45;&#45;lat -->
<g id="edge85" class="edge"><title>ggt&#45;&#45;lat</title>
<path fill="none" stroke="black" d="M289.232,-509.38C334.913,-482.686 446.911,-417.238 492.527,-390.582"/>
</g>
<!-- Epstein -->
<g id="node7" class="node"><title>Epstein</title>
<ellipse fill="none" stroke="black" cx="191.347" cy="-738" rx="37.0935" ry="18"/>
<text text-anchor="middle" x="191.347" y="-734.3" font-family="Times,serif" font-size="14.00">Epstein</text>
</g>
<!-- Epstein&#45;&#45;ldt -->
<g id="edge8" class="edge"><title>Epstein&#45;&#45;ldt</title>
<path fill="none" stroke="black" d="M224.308,-729.509C286.227,-715.436 418.672,-685.335 474.117,-672.734"/>
</g>
<!-- Epstein&#45;&#45;kg -->
<g id="edge7" class="edge"><title>Epstein&#45;&#45;kg</title>
<path fill="none" stroke="black" d="M161.559,-727.267C140.952,-718.991 114.591,-705.05 99.3466,-684 50.577,-616.655 78.5733,-545.981 150.347,-504 242.265,-450.237 575.754,-397.291 672.109,-382.845"/>
</g>
<!-- Epstein&#45;&#45;hg -->
<g id="edge10" class="edge"><title>Epstein&#45;&#45;hg</title>
<path fill="none" stroke="black" d="M171.339,-722.586C135.209,-694.702 65.4766,-631.251 95.3466,-576 109.241,-550.3 127.199,-557.824 150.347,-540 169.297,-525.408 168.838,-514.462 190.347,-504 284.533,-458.188 412.155,-451.437 467.217,-450.805"/>
</g>
<!-- Epstein&#45;&#45;ggt -->
<g id="edge9" class="edge"><title>Epstein&#45;&#45;ggt</title>
<path fill="none" stroke="black" d="M197.467,-720.208C212.048,-680.204 248.702,-579.639 263.255,-539.714"/>
</g>
<!-- Conway -->
<g id="node8" class="node"><title>Conway</title>
<ellipse fill="none" stroke="black" cx="144.347" cy="-594" rx="40.0939" ry="18"/>
<text text-anchor="middle" x="144.347" y="-590.3" font-family="Times,serif" font-size="14.00">Conway</text>
</g>
<!-- Conway&#45;&#45;hg -->
<g id="edge13" class="edge"><title>Conway&#45;&#45;hg</title>
<path fill="none" stroke="black" d="M158.301,-576.968C178.648,-553.973 215.925,-513.357 233.347,-504 310.945,-462.323 417.583,-453.325 467.071,-451.448"/>
</g>
<!-- Conway&#45;&#45;ggt -->
<g id="edge11" class="edge"><title>Conway&#45;&#45;ggt</title>
<path fill="none" stroke="black" d="M168.448,-579.503C191.86,-566.393 227.007,-546.71 249.037,-534.373"/>
</g>
<!-- Conway&#45;&#45;kt -->
<g id="edge12" class="edge"><title>Conway&#45;&#45;kt</title>
<path fill="none" stroke="black" d="M183.723,-589.624C260.552,-582.728 435.68,-565.493 581.347,-540 597.837,-537.114 616.178,-532.908 630.475,-529.401"/>
</g>
<!-- Conway&#45;&#45;lat -->
<g id="edge14" class="edge"><title>Conway&#45;&#45;lat</title>
<path fill="none" stroke="black" d="M149.217,-576.087C155.672,-556.395 168.825,-524.022 190.347,-504 288.305,-412.866 345.697,-441.971 471.347,-396 477.57,-393.723 484.239,-391.057 490.352,-388.521"/>
</g>
<!-- Conway&#45;&#45;vd -->
<g id="edge15" class="edge"><title>Conway&#45;&#45;vd</title>
<path fill="none" stroke="black" d="M144.366,-575.928C145.058,-557.234 148.19,-526.874 160.347,-504 181.881,-463.479 193.501,-452.912 234.347,-432 316.298,-390.043 356.118,-437.411 438.347,-396 459.125,-385.536 457.242,-373.276 476.347,-360 503.618,-341.049 538.675,-325.194 561.326,-315.899"/>
</g>
<!-- kt&#45;&#45;kg -->
<g id="edge80" class="edge"><title>kt&#45;&#45;kg</title>
<path fill="none" stroke="black" d="M660.448,-504.153C668.724,-476.824 684.98,-423.14 693.252,-395.825"/>
</g>
<!-- kt&#45;&#45;hg -->
<g id="edge79" class="edge"><title>kt&#45;&#45;hg</title>
<path fill="none" stroke="black" d="M633.298,-511.414C602.553,-498.046 547.127,-473.948 516.387,-460.583"/>
</g>
<!-- lat&#45;&#45;vd -->
<g id="edge96" class="edge"><title>lat&#45;&#45;vd</title>
<path fill="none" stroke="black" d="M526.917,-362.834C539.326,-350.77 557.077,-333.512 569.551,-321.385"/>
</g>
<!-- crys -->
<g id="node13" class="node"><title>crys</title>
<ellipse fill="none" stroke="black" cx="546.347" cy="-234" rx="27" ry="18"/>
<text text-anchor="middle" x="546.347" y="-230.3" font-family="Times,serif" font-size="14.00">crys</text>
</g>
<!-- lat&#45;&#45;crys -->
<g id="edge95" class="edge"><title>lat&#45;&#45;crys</title>
<path fill="none" stroke="black" d="M516.38,-360.153C522.924,-332.824 535.778,-279.14 542.318,-251.825"/>
</g>
<!-- vd&#45;&#45;crys -->
<g id="edge97" class="edge"><title>vd&#45;&#45;crys</title>
<path fill="none" stroke="black" d="M575.533,-288.765C569.394,-277.456 561.241,-262.437 555.112,-251.147"/>
</g>
<!-- gcv -->
<g id="node14" class="node"><title>gcv</title>
<ellipse fill="none" stroke="black" cx="612.347" cy="-162" rx="27" ry="18"/>
<text text-anchor="middle" x="612.347" y="-158.3" font-family="Times,serif" font-size="14.00">gcv</text>
</g>
<!-- vd&#45;&#45;gcv -->
<g id="edge98" class="edge"><title>vd&#45;&#45;gcv</title>
<path fill="none" stroke="black" d="M587.724,-287.871C593.106,-260.578 603.568,-207.52 608.957,-180.189"/>
</g>
<!-- cv -->
<g id="node34" class="node"><title>cv</title>
<ellipse fill="none" stroke="black" cx="798.347" cy="-234" rx="27" ry="18"/>
<text text-anchor="middle" x="798.347" y="-230.3" font-family="Times,serif" font-size="14.00">cv</text>
</g>
<!-- vd&#45;&#45;cv -->
<g id="edge99" class="edge"><title>vd&#45;&#45;cv</title>
<path fill="none" stroke="black" d="M607.183,-295.992C647.859,-281.739 731.89,-254.31 773.775,-241.674"/>
</g>
<!-- Taylor -->
<g id="node12" class="node"><title>Taylor</title>
<ellipse fill="none" stroke="black" cx="292.347" cy="-378" rx="34.394" ry="18"/>
<text text-anchor="middle" x="292.347" y="-374.3" font-family="Times,serif" font-size="14.00">Taylor</text>
</g>
<!-- Taylor&#45;&#45;vd -->
<g id="edge17" class="edge"><title>Taylor&#45;&#45;vd</title>
<path fill="none" stroke="black" d="M318.636,-366.064C324.412,-363.881 330.539,-361.731 336.347,-360 415.883,-336.298 512.75,-318.766 558.303,-311.168"/>
</g>
<!-- Taylor&#45;&#45;crys -->
<g id="edge16" class="edge"><title>Taylor&#45;&#45;crys</title>
<path fill="none" stroke="black" d="M315.335,-364.148C364.549,-336.635 479.411,-272.421 526.086,-246.327"/>
</g>
<!-- Taylor&#45;&#45;gcv -->
<g id="edge18" class="edge"><title>Taylor&#45;&#45;gcv</title>
<path fill="none" stroke="black" d="M305.908,-360.929C333.658,-328.99 400.241,-257.077 470.347,-216 508.716,-193.518 558.31,-177.622 587.587,-169.414"/>
</g>
<!-- fd -->
<g id="node15" class="node"><title>fd</title>
<ellipse fill="none" stroke="black" cx="576.347" cy="-18" rx="27" ry="18"/>
<text text-anchor="middle" x="576.347" y="-14.3" font-family="Times,serif" font-size="14.00">fd</text>
</g>
<!-- Taylor&#45;&#45;fd -->
<g id="edge19" class="edge"><title>Taylor&#45;&#45;fd</title>
<path fill="none" stroke="black" d="M290.568,-359.973C287.946,-333.343 283.347,-280.205 283.347,-235 283.347,-235 283.347,-235 283.347,-161 283.347,-43.4235 476.772,-23.1666 549.307,-19.7038"/>
</g>
<!-- crys&#45;&#45;gcv -->
<g id="edge105" class="edge"><title>crys&#45;&#45;gcv</title>
<path fill="none" stroke="black" d="M560.343,-218.155C571.544,-206.276 587.175,-189.697 598.37,-177.824"/>
</g>
<!-- crys&#45;&#45;fd -->
<g id="edge104" class="edge"><title>crys&#45;&#45;fd</title>
<path fill="none" stroke="black" d="M548.751,-215.849C554.382,-175.68 568.371,-75.8902 573.972,-35.9354"/>
</g>
<!-- gcv&#45;&#45;fd -->
<g id="edge106" class="edge"><title>gcv&#45;&#45;fd</title>
<path fill="none" stroke="black" d="M608.076,-144.153C601.147,-116.824 587.537,-63.14 580.612,-35.825"/>
</g>
<!-- gcv&#45;&#45;cg -->
<g id="edge107" class="edge"><title>gcv&#45;&#45;cg</title>
<path fill="none" stroke="black" d="M635.861,-152.813C644.469,-149.908 654.313,-146.694 663.347,-144 726.289,-125.232 801.327,-106.362 839.449,-97.0207"/>
</g>
<!-- Almgren -->
<g id="node16" class="node"><title>Almgren</title>
<ellipse fill="none" stroke="black" cx="387.347" cy="-378" rx="42.4939" ry="18"/>
<text text-anchor="middle" x="387.347" y="-374.3" font-family="Times,serif" font-size="14.00">Almgren</text>
</g>
<!-- Almgren&#45;&#45;vd -->
<g id="edge21" class="edge"><title>Almgren&#45;&#45;vd</title>
<path fill="none" stroke="black" d="M418.998,-365.753C458.697,-351.647 525.826,-327.794 561.101,-315.26"/>
</g>
<!-- Almgren&#45;&#45;crys -->
<g id="edge20" class="edge"><title>Almgren&#45;&#45;crys</title>
<path fill="none" stroke="black" d="M411.603,-363.207C428.095,-353.297 449.986,-339.073 467.347,-324 493.868,-300.973 520.003,-269.282 534.569,-250.588"/>
</g>
<!-- Almgren&#45;&#45;gcv -->
<g id="edge22" class="edge"><title>Almgren&#45;&#45;gcv</title>
<path fill="none" stroke="black" d="M396.87,-359.99C415.306,-328.286 458.641,-259.446 510.347,-216 534.334,-195.844 567.263,-180.477 589.144,-171.605"/>
</g>
<!-- Almgren&#45;&#45;fd -->
<g id="edge23" class="edge"><title>Almgren&#45;&#45;fd</title>
<path fill="none" stroke="black" d="M391.465,-359.833C396.137,-341.581 404.531,-312.086 415.347,-288 461.053,-186.216 536.799,-74.949 565.165,-34.6557"/>
</g>
<!-- Freedman -->
<g id="node17" class="node"><title>Freedman</title>
<ellipse fill="none" stroke="black" cx="770.347" cy="-738" rx="46.2923" ry="18"/>
<text text-anchor="middle" x="770.347" y="-734.3" font-family="Times,serif" font-size="14.00">Freedman</text>
</g>
<!-- Freedman&#45;&#45;ldt -->
<g id="edge25" class="edge"><title>Freedman&#45;&#45;ldt</title>
<path fill="none" stroke="black" d="M732.95,-727.34C676.757,-712.826 572.049,-685.779 524.271,-673.438"/>
</g>
<!-- Freedman&#45;&#45;gcv -->
<g id="edge24" class="edge"><title>Freedman&#45;&#45;gcv</title>
<path fill="none" stroke="black" d="M814.793,-732.862C926.325,-721.447 1213.01,-685.382 1267.35,-612 1276.87,-599.141 1271.64,-591.413 1267.35,-576 1247.28,-503.97 1241.62,-474.852 1180.35,-432 1112.06,-384.246 1068.84,-437.085 996.347,-396 972.937,-382.733 857.478,-229.745 834.347,-216 771.157,-178.451 682.98,-167.491 639.206,-164.302"/>
</g>
<!-- Freedman&#45;&#45;ds -->
<g id="edge26" class="edge"><title>Freedman&#45;&#45;ds</title>
<path fill="none" stroke="black" d="M768.125,-719.881C765.433,-701.67 760.133,-672.208 751.347,-648 746.66,-635.088 739.362,-621.4 733.392,-611.17"/>
</g>
<!-- ds&#45;&#45;ggt -->
<g id="edge75" class="edge"><title>ds&#45;&#45;ggt</title>
<path fill="none" stroke="black" d="M697.307,-588.985C617.324,-576.653 375.785,-539.411 295.564,-527.042"/>
</g>
<!-- ds&#45;&#45;cd -->
<g id="edge76" class="edge"><title>ds&#45;&#45;cd</title>
<path fill="none" stroke="black" d="M742.832,-581.441C764.695,-568.471 799.957,-547.553 821.832,-534.576"/>
</g>
<!-- fg -->
<g id="node23" class="node"><title>fg</title>
<ellipse fill="none" stroke="black" cx="853.347" cy="-450" rx="27" ry="18"/>
<text text-anchor="middle" x="853.347" y="-446.3" font-family="Times,serif" font-size="14.00">fg</text>
</g>
<!-- ds&#45;&#45;fg -->
<g id="edge77" class="edge"><title>ds&#45;&#45;fg</title>
<path fill="none" stroke="black" d="M736.769,-578.338C761.68,-551.128 814.8,-493.105 839.802,-465.795"/>
</g>
<!-- sg -->
<g id="node26" class="node"><title>sg</title>
<ellipse fill="none" stroke="black" cx="884.347" cy="-378" rx="27" ry="18"/>
<text text-anchor="middle" x="884.347" y="-374.3" font-family="Times,serif" font-size="14.00">sg</text>
</g>
<!-- ds&#45;&#45;sg -->
<g id="edge78" class="edge"><title>ds&#45;&#45;sg</title>
<path fill="none" stroke="black" d="M730.136,-576.411C743.411,-545.408 775.225,-477.691 817.347,-432 831.923,-416.188 851.482,-401.285 865.702,-391.334"/>
</g>
<!-- Milnor -->
<g id="node19" class="node"><title>Milnor</title>
<ellipse fill="none" stroke="black" cx="554.347" cy="-738" rx="35.9954" ry="18"/>
<text text-anchor="middle" x="554.347" y="-734.3" font-family="Times,serif" font-size="14.00">Milnor</text>
</g>
<!-- Milnor&#45;&#45;ldt -->
<g id="edge27" class="edge"><title>Milnor&#45;&#45;ldt</title>
<path fill="none" stroke="black" d="M541.866,-721.116C532.738,-709.499 520.426,-693.828 511.4,-682.34"/>
</g>
<!-- Milnor&#45;&#45;hg -->
<g id="edge30" class="edge"><title>Milnor&#45;&#45;hg</title>
<path fill="none" stroke="black" d="M523.979,-728.221C502.868,-720.353 476.285,-706.508 463.347,-684 421.961,-612.003 465.961,-507.237 485.748,-467.295"/>
</g>
<!-- Milnor&#45;&#45;kt -->
<g id="edge31" class="edge"><title>Milnor&#45;&#45;kt</title>
<path fill="none" stroke="black" d="M559.277,-719.892C568.321,-689.745 589.157,-625.653 616.347,-576 623.809,-562.373 634.349,-548.266 642.591,-538.036"/>
</g>
<!-- Milnor&#45;&#45;ds -->
<g id="edge29" class="edge"><title>Milnor&#45;&#45;ds</title>
<path fill="none" stroke="black" d="M571.317,-722.007C591.602,-704.162 626.661,-673.564 657.347,-648 673.831,-634.267 692.98,-618.959 706.392,-608.34"/>
</g>
<!-- Milnor&#45;&#45;cd -->
<g id="edge28" class="edge"><title>Milnor&#45;&#45;cd</title>
<path fill="none" stroke="black" d="M590.027,-735.604C632.564,-732.236 703.853,-721.008 751.347,-684 800.476,-645.718 826.904,-572.67 836.766,-539.783"/>
</g>
<!-- cd&#45;&#45;kg -->
<g id="edge82" class="edge"><title>cd&#45;&#45;kg</title>
<path fill="none" stroke="black" d="M826.848,-506.603C799.44,-479.386 740.321,-420.681 712.884,-393.435"/>
</g>
<!-- cd&#45;&#45;fg -->
<g id="edge81" class="edge"><title>cd&#45;&#45;fg</title>
<path fill="none" stroke="black" d="M844.251,-504.055C846.11,-493.211 848.515,-479.183 850.385,-468.275"/>
</g>
<!-- Douady -->
<g id="node21" class="node"><title>Douady</title>
<ellipse fill="none" stroke="black" cx="704.347" cy="-666" rx="38.1938" ry="18"/>
<text text-anchor="middle" x="704.347" y="-662.3" font-family="Times,serif" font-size="14.00">Douady</text>
</g>
<!-- Douady&#45;&#45;kg -->
<g id="edge34" class="edge"><title>Douady&#45;&#45;kg</title>
<path fill="none" stroke="black" d="M697.457,-648.141C693.642,-637.884 689.288,-624.411 687.347,-612 684.873,-596.192 686.462,-591.976 687.347,-576 688.237,-559.926 690.107,-556.051 691.347,-540 695.374,-487.837 697.253,-425.974 697.973,-396.415"/>
</g>
<!-- Douady&#45;&#45;ds -->
<g id="edge33" class="edge"><title>Douady&#45;&#45;ds</title>
<path fill="none" stroke="black" d="M708.946,-648.055C711.933,-637.049 715.811,-622.764 718.79,-611.789"/>
</g>
<!-- Douady&#45;&#45;cd -->
<g id="edge32" class="edge"><title>Douady&#45;&#45;cd</title>
<path fill="none" stroke="black" d="M720.961,-649.481C732.004,-639.046 746.738,-624.894 759.347,-612 784.171,-586.613 811.955,-555.958 827.973,-538.054"/>
</g>
<!-- Hubard -->
<g id="node22" class="node"><title>Hubard</title>
<ellipse fill="none" stroke="black" cx="985.347" cy="-666" rx="37.0935" ry="18"/>
<text text-anchor="middle" x="985.347" y="-662.3" font-family="Times,serif" font-size="14.00">Hubard</text>
</g>
<!-- Hubard&#45;&#45;kg -->
<g id="edge37" class="edge"><title>Hubard&#45;&#45;kg</title>
<path fill="none" stroke="black" d="M1009.86,-652.37C1024.56,-643.32 1041.98,-629.625 1050.35,-612 1057.21,-597.547 1056.09,-590.934 1050.35,-576 1034.87,-535.762 957.836,-453.286 920.347,-432 849.021,-391.503 817.831,-419.823 739.347,-396 733.005,-394.075 726.298,-391.525 720.185,-388.987"/>
</g>
<!-- Hubard&#45;&#45;ds -->
<g id="edge35" class="edge"><title>Hubard&#45;&#45;ds</title>
<path fill="none" stroke="black" d="M953.743,-656.556C900.936,-642.448 795.853,-614.372 748.05,-601.6"/>
</g>
<!-- Hubard&#45;&#45;cd -->
<g id="edge36" class="edge"><title>Hubard&#45;&#45;cd</title>
<path fill="none" stroke="black" d="M963.053,-651.419C947.675,-641.5 927.224,-627.179 911.347,-612 887.333,-589.042 864.519,-557.609 851.785,-538.896"/>
</g>
<!-- Hubard&#45;&#45;fg -->
<g id="edge38" class="edge"><title>Hubard&#45;&#45;fg</title>
<path fill="none" stroke="black" d="M1004.57,-650.064C1015.25,-640.49 1027.54,-627.058 1033.35,-612 1039.1,-597.071 1040.76,-590.178 1033.35,-576 1015.85,-542.54 917.263,-485.815 873.861,-462.021"/>
</g>
<!-- fg&#45;&#45;kg -->
<g id="edge83" class="edge"><title>fg&#45;&#45;kg</title>
<path fill="none" stroke="black" d="M831.468,-439.119C801.927,-425.778 749.598,-402.146 720.114,-388.831"/>
</g>
<!-- fg&#45;&#45;sg -->
<g id="edge84" class="edge"><title>fg&#45;&#45;sg</title>
<path fill="none" stroke="black" d="M860.693,-432.411C865.635,-421.252 872.122,-406.604 877.053,-395.47"/>
</g>
<!-- Mandelbrot -->
<g id="node24" class="node"><title>Mandelbrot</title>
<ellipse fill="none" stroke="black" cx="972.347" cy="-594" rx="51.9908" ry="18"/>
<text text-anchor="middle" x="972.347" y="-590.3" font-family="Times,serif" font-size="14.00">Mandelbrot</text>
</g>
<!-- Mandelbrot&#45;&#45;kg -->
<g id="edge41" class="edge"><title>Mandelbrot&#45;&#45;kg</title>
<path fill="none" stroke="black" d="M968.546,-575.87C960.262,-542.697 937.348,-469.654 889.347,-432 835.403,-389.685 804.548,-417.195 739.347,-396 733.044,-393.951 726.349,-391.361 720.237,-388.823"/>
</g>
<!-- Mandelbrot&#45;&#45;cd -->
<g id="edge39" class="edge"><title>Mandelbrot&#45;&#45;cd</title>
<path fill="none" stroke="black" d="M945.203,-578.496C920.472,-565.281 884.477,-546.047 862.011,-534.042"/>
</g>
<!-- Mandelbrot&#45;&#45;fg -->
<g id="edge40" class="edge"><title>Mandelbrot&#45;&#45;fg</title>
<path fill="none" stroke="black" d="M955.377,-576.82C944.924,-566.585 931.445,-552.897 920.347,-540 899.153,-515.372 876.921,-484.739 864.142,-466.589"/>
</g>
<!-- Wilks -->
<g id="node25" class="node"><title>Wilks</title>
<ellipse fill="none" stroke="black" cx="1226.35" cy="-594" rx="32.4942" ry="18"/>
<text text-anchor="middle" x="1226.35" y="-590.3" font-family="Times,serif" font-size="14.00">Wilks</text>
</g>
<!-- Wilks&#45;&#45;cd -->
<g id="edge44" class="edge"><title>Wilks&#45;&#45;cd</title>
<path fill="none" stroke="black" d="M1195.81,-587.449C1122.18,-574.061 935.868,-540.186 867.242,-527.708"/>
</g>
<!-- Wilks&#45;&#45;sg -->
<g id="edge42" class="edge"><title>Wilks&#45;&#45;sg</title>
<path fill="none" stroke="black" d="M1216.3,-576.6C1210.17,-566.283 1202.38,-552.585 1196.35,-540 1174.01,-493.411 1193.21,-464.869 1153.35,-432 1087.04,-377.32 1047.59,-413.042 963.347,-396 945.333,-392.356 925.069,-387.99 909.574,-384.595"/>
</g>
<!-- gv -->
<g id="node27" class="node"><title>gv</title>
<ellipse fill="none" stroke="black" cx="1053.35" cy="-162" rx="27" ry="18"/>
<text text-anchor="middle" x="1053.35" y="-158.3" font-family="Times,serif" font-size="14.00">gv</text>
</g>
<!-- Wilks&#45;&#45;gv -->
<g id="edge43" class="edge"><title>Wilks&#45;&#45;gv</title>
<path fill="none" stroke="black" d="M1226.15,-575.996C1225.18,-536.65 1219.78,-436.828 1190.35,-360 1161.14,-283.751 1096.35,-208.781 1067.58,-177.827"/>
</g>
<!-- Wilks&#45;&#45;cg -->
<g id="edge45" class="edge"><title>Wilks&#45;&#45;cg</title>
<path fill="none" stroke="black" d="M1230.56,-575.891C1243.35,-520.094 1276.94,-339.886 1211.35,-216 1191.72,-178.934 1186.63,-165.042 1150.35,-144 1065.6,-94.8491 945.055,-89.7557 891.635,-90.1715"/>
</g>
<!-- sg&#45;&#45;gv -->
<g id="edge93" class="edge"><title>sg&#45;&#45;gv</title>
<path fill="none" stroke="black" d="M898.601,-362.658C920.707,-340.083 964.071,-294.446 996.347,-252 1014.89,-227.608 1033.5,-197.166 1044.19,-178.947"/>
</g>
<!-- sg&#45;&#45;cv -->
<g id="edge94" class="edge"><title>sg&#45;&#45;cv</title>
<path fill="none" stroke="black" d="M878.482,-360.186C871.663,-341.717 859.397,-311.553 844.347,-288 835.293,-273.832 822.634,-259.538 812.886,-249.37"/>
</g>
<!-- dv -->
<g id="node36" class="node"><title>dv</title>
<ellipse fill="none" stroke="black" cx="808.347" cy="-306" rx="27" ry="18"/>
<text text-anchor="middle" x="808.347" y="-302.3" font-family="Times,serif" font-size="14.00">dv</text>
</g>
<!-- sg&#45;&#45;dv -->
<g id="edge92" class="edge"><title>sg&#45;&#45;dv</title>
<path fill="none" stroke="black" d="M868.967,-362.834C855.781,-350.69 836.883,-333.283 823.703,-321.144"/>
</g>
<!-- cg&#45;&#45;fd -->
<g id="edge108" class="edge"><title>cg&#45;&#45;fd</title>
<path fill="none" stroke="black" d="M839.292,-82.9104C784.825,-69.6718 656.149,-38.3964 601.548,-25.1254"/>
</g>
<!-- Dobkin -->
<g id="node29" class="node"><title>Dobkin</title>
<ellipse fill="none" stroke="black" cx="1042.35" cy="-378" rx="37.0935" ry="18"/>
<text text-anchor="middle" x="1042.35" y="-374.3" font-family="Times,serif" font-size="14.00">Dobkin</text>
</g>
<!-- Dobkin&#45;&#45;vd -->
<g id="edge47" class="edge"><title>Dobkin&#45;&#45;vd</title>
<path fill="none" stroke="black" d="M1007.55,-371.681C919.348,-358.201 688.535,-322.924 610.535,-311.003"/>
</g>
<!-- Dobkin&#45;&#45;gv -->
<g id="edge46" class="edge"><title>Dobkin&#45;&#45;gv</title>
<path fill="none" stroke="black" d="M1043.23,-359.849C1045.29,-319.78 1050.4,-220.383 1052.46,-180.232"/>
</g>
<!-- Dobkin&#45;&#45;cg -->
<g id="edge48" class="edge"><title>Dobkin&#45;&#45;cg</title>
<path fill="none" stroke="black" d="M1036.42,-360.137C1028.76,-340.494 1013.69,-308.167 991.347,-288 962.104,-261.601 936.188,-281.736 910.347,-252 873.735,-209.871 866.166,-140.373 864.67,-108.257"/>
</g>
<!-- Chazelle -->
<g id="node30" class="node"><title>Chazelle</title>
<ellipse fill="none" stroke="black" cx="1139.35" cy="-378" rx="41.6928" ry="18"/>
<text text-anchor="middle" x="1139.35" y="-374.3" font-family="Times,serif" font-size="14.00">Chazelle</text>
</g>
<!-- Chazelle&#45;&#45;vd -->
<g id="edge51" class="edge"><title>Chazelle&#45;&#45;vd</title>
<path fill="none" stroke="black" d="M1108.9,-365.657C1102.21,-363.499 1095.1,-361.462 1088.35,-360 1041.43,-349.84 708.191,-318.482 610.932,-309.455"/>
</g>
<!-- Chazelle&#45;&#45;gv -->
<g id="edge50" class="edge"><title>Chazelle&#45;&#45;gv</title>
<path fill="none" stroke="black" d="M1132.6,-360.208C1116.52,-320.204 1076.11,-219.639 1060.06,-179.714"/>
</g>
<!-- Chazelle&#45;&#45;cg -->
<g id="edge49" class="edge"><title>Chazelle&#45;&#45;cg</title>
<path fill="none" stroke="black" d="M1141.33,-359.791C1145.25,-316.827 1148.99,-204.007 1089.35,-144 1061.62,-116.106 944.459,-99.8571 891.063,-93.7726"/>
</g>
<!-- Peskin -->
<g id="node31" class="node"><title>Peskin</title>
<ellipse fill="none" stroke="black" cx="953.347" cy="-234" rx="34.394" ry="18"/>
<text text-anchor="middle" x="953.347" y="-230.3" font-family="Times,serif" font-size="14.00">Peskin</text>
</g>
<!-- Peskin&#45;&#45;gcv -->
<g id="edge53" class="edge"><title>Peskin&#45;&#45;gcv</title>
<path fill="none" stroke="black" d="M921.877,-226.54C854.937,-212.799 699.527,-180.896 638.047,-168.276"/>
</g>
<!-- Peskin&#45;&#45;fd -->
<g id="edge52" class="edge"><title>Peskin&#45;&#45;fd</title>
<path fill="none" stroke="black" d="M953.161,-215.773C951.799,-182.43 943.735,-109.102 900.347,-72 855.674,-33.7993 672.677,-22.7505 603.238,-19.8988"/>
</g>
<!-- Peskin&#45;&#45;gv -->
<g id="edge54" class="edge"><title>Peskin&#45;&#45;gv</title>
<path fill="none" stroke="black" d="M973.103,-219.17C991.204,-206.5 1017.77,-187.9 1035.31,-175.625"/>
</g>
<!-- Tarjan -->
<g id="node32" class="node"><title>Tarjan</title>
<ellipse fill="none" stroke="black" cx="538.347" cy="-522" rx="33.5952" ry="18"/>
<text text-anchor="middle" x="538.347" y="-518.3" font-family="Times,serif" font-size="14.00">Tarjan</text>
</g>
<!-- Tarjan&#45;&#45;hg -->
<g id="edge56" class="edge"><title>Tarjan&#45;&#45;hg</title>
<path fill="none" stroke="black" d="M528.142,-504.765C521.033,-493.456 511.592,-478.437 504.496,-467.147"/>
</g>
<!-- Tarjan&#45;&#45;cg -->
<g id="edge55" class="edge"><title>Tarjan&#45;&#45;cg</title>
<path fill="none" stroke="black" d="M549.758,-504.938C582.302,-459.248 678.618,-324.826 762.347,-216 793.432,-175.597 831.872,-129.463 851.498,-106.168"/>
</g>
<!-- Mumford -->
<g id="node33" class="node"><title>Mumford</title>
<ellipse fill="none" stroke="black" cx="1099.35" cy="-450" rx="45.4919" ry="18"/>
<text text-anchor="middle" x="1099.35" y="-446.3" font-family="Times,serif" font-size="14.00">Mumford</text>
</g>
<!-- Mumford&#45;&#45;kg -->
<g id="edge57" class="edge"><title>Mumford&#45;&#45;kg</title>
<path fill="none" stroke="black" d="M1058.78,-441.753C1041.41,-438.685 1020.89,-435.109 1002.35,-432 902.468,-415.258 876.885,-414.659 777.347,-396 759.283,-392.614 739.02,-388.242 723.538,-384.779"/>
</g>
<!-- Mumford&#45;&#45;crys -->
<g id="edge61" class="edge"><title>Mumford&#45;&#45;crys</title>
<path fill="none" stroke="black" d="M1064.59,-438.223C1056.67,-435.98 1048.25,-433.765 1040.35,-432 941.507,-409.939 908.582,-435.538 815.347,-396 790.796,-385.589 789.665,-374.594 767.347,-360 696.329,-313.56 607.154,-266.282 567.285,-245.685"/>
</g>
<!-- Mumford&#45;&#45;gcv -->
<g id="edge60" class="edge"><title>Mumford&#45;&#45;gcv</title>
<path fill="none" stroke="black" d="M1064.55,-438.379C1056.63,-436.128 1048.23,-433.87 1040.35,-432 955.871,-411.958 925.68,-435.464 848.347,-396 820.717,-381.9 672.37,-226.43 626.123,-177.591"/>
</g>
<!-- Mumford&#45;&#45;cg -->
<g id="edge58" class="edge"><title>Mumford&#45;&#45;cg</title>
<path fill="none" stroke="black" d="M1134.71,-438.283C1154.86,-430.156 1178.41,-416.764 1190.35,-396 1248.52,-294.799 1207.12,-217.392 1116.35,-144 1081.76,-116.031 948.668,-99.5192 891.118,-93.5528"/>
</g>
<!-- Mumford&#45;&#45;cv -->
<g id="edge59" class="edge"><title>Mumford&#45;&#45;cv</title>
<path fill="none" stroke="black" d="M1065.56,-437.893C1031.09,-426.201 980.321,-407.876 963.347,-396 910.966,-359.353 915.178,-331.515 868.347,-288 851.931,-272.747 831.287,-257.536 816.683,-247.348"/>
</g>
<!-- cv&#45;&#45;vd -->
<g id="edge100" class="edge"><title>cv&#45;&#45;vd</title>
<path fill="none" stroke="black" d="M775.583,-243.982C734.975,-258.214 650.998,-285.627 609.045,-298.288"/>
</g>
<!-- cv&#45;&#45;gcv -->
<g id="edge101" class="edge"><title>cv&#45;&#45;gcv</title>
<path fill="none" stroke="black" d="M775.166,-224.276C739.328,-210.789 670.895,-185.034 635.235,-171.614"/>
</g>
<!-- cv&#45;&#45;gv -->
<g id="edge103" class="edge"><title>cv&#45;&#45;gv</title>
<path fill="none" stroke="black" d="M822.797,-226.288C871.413,-212.942 979.734,-183.207 1028.6,-169.794"/>
</g>
<!-- cv&#45;&#45;cg -->
<g id="edge102" class="edge"><title>cv&#45;&#45;cg</title>
<path fill="none" stroke="black" d="M805.918,-216.711C818.581,-189.465 843.921,-134.946 856.661,-107.537"/>
</g>
<!-- Thurston -->
<g id="node35" class="node"><title>Thurston</title>
<ellipse fill="none" stroke="black" cx="1002.35" cy="-738" rx="42.4939" ry="18"/>
<text text-anchor="middle" x="1002.35" y="-734.3" font-family="Times,serif" font-size="14.00">Thurston</text>
</g>
<!-- Thurston&#45;&#45;ldt -->
<g id="edge68" class="edge"><title>Thurston&#45;&#45;ldt</title>
<path fill="none" stroke="black" d="M962.602,-731.647C892.603,-722.197 742.766,-701.863 616.347,-684 585.048,-679.577 549.066,-674.324 525.361,-670.84"/>
</g>
<!-- Thurston&#45;&#45;kg -->
<g id="edge66" class="edge"><title>Thurston&#45;&#45;kg</title>
<path fill="none" stroke="black" d="M1014.25,-720.673C1030.13,-697.761 1057.4,-654.136 1067.35,-612 1079.07,-562.331 1058.86,-544.906 1028.35,-504 1001.29,-467.726 996.593,-452.693 956.347,-432 869.403,-387.298 833.336,-422.898 739.347,-396 732.975,-394.177 726.258,-391.66 720.146,-389.121"/>
</g>
<!-- Thurston&#45;&#45;ggt -->
<g id="edge62" class="edge"><title>Thurston&#45;&#45;ggt</title>
<path fill="none" stroke="black" d="M961.644,-733.062C836.604,-720.956 466.295,-685.039 463.347,-684 380.579,-654.835 308.458,-572.596 281.077,-538.308"/>
</g>
<!-- Thurston&#45;&#45;kt -->
<g id="edge69" class="edge"><title>Thurston&#45;&#45;kt</title>
<path fill="none" stroke="black" d="M961.314,-733.6C874.275,-725.981 677.426,-706.437 657.347,-684 621.182,-643.589 638.681,-571.967 649.278,-539.645"/>
</g>
<!-- Thurston&#45;&#45;vd -->
<g id="edge63" class="edge"><title>Thurston&#45;&#45;vd</title>
<path fill="none" stroke="black" d="M1023.43,-722.193C1035.75,-712.571 1050.71,-699.046 1060.35,-684 1078.47,-655.714 1078.17,-645.192 1083.35,-612 1097.12,-523.624 1071.63,-475.27 993.347,-432 904.33,-382.795 856.926,-444.173 767.347,-396 748.23,-385.72 752.451,-371.972 734.347,-360 713.267,-346.061 645.674,-324.967 608.839,-314.071"/>
</g>
<!-- Thurston&#45;&#45;cd -->
<g id="edge67" class="edge"><title>Thurston&#45;&#45;cd</title>
<path fill="none" stroke="black" d="M981.856,-721.946C954.081,-700.509 904.703,-658.589 876.347,-612 862.103,-588.598 851.681,-558.391 846.071,-539.872"/>
</g>
<!-- Thurston&#45;&#45;gv -->
<g id="edge65" class="edge"><title>Thurston&#45;&#45;gv</title>
<path fill="none" stroke="black" d="M1042.04,-731.571C1102.88,-720.878 1217.37,-690.836 1267.35,-612 1347.31,-485.876 1250.97,-418.484 1178.35,-288 1159.52,-254.178 1156.56,-243.526 1129.35,-216 1112.61,-199.07 1089.82,-184.001 1073.58,-174.3"/>
</g>
<!-- Thurston&#45;&#45;cg -->
<g id="edge64" class="edge"><title>Thurston&#45;&#45;cg</title>
<path fill="none" stroke="black" d="M1040.87,-730.286C1133.74,-713.012 1362.35,-663.53 1362.35,-595 1362.35,-595 1362.35,-595 1362.35,-233 1362.35,-134.105 994.561,-100.315 891.121,-92.7675"/>
</g>
</g>
</svg>
