<?xml version="1.0" encoding="UTF-8" standalone="no"?>
<!DOCTYPE svg PUBLIC "-//W3C//DTD SVG 1.1//EN"
 "http://www.w3.org/Graphics/SVG/1.1/DTD/svg11.dtd">
<!-- Generated by graphviz version 2.38.0 (20140413.2041)
 -->
<!-- Title: G Pages: 1 -->
<svg width="287pt" height="476pt"
 viewBox="0.00 0.00 287.29 476.00" xmlns="http://www.w3.org/2000/svg" xmlns:xlink="http://www.w3.org/1999/xlink">
<g id="graph0" class="graph" transform="scale(1 1) rotate(0) translate(4 472)">
<title>G</title>
<polygon fill="white" stroke="none" points="-4,4 -4,-472 283.294,-472 283.294,4 -4,4"/>
<!-- kernel -->
<g id="node1" class="node"><title>kernel</title>
<ellipse fill="none" stroke="black" cx="121.047" cy="-378" rx="32.4942" ry="18"/>
<text text-anchor="middle" x="121.047" y="-374.3" font-family="Times,serif" font-size="14.00">kernel</text>
</g>
<!-- zombie -->
<g id="node5" class="node"><title>zombie</title>
<ellipse fill="none" stroke="black" cx="37.0467" cy="-306" rx="37.0935" ry="18"/>
<text text-anchor="middle" x="37.0467" y="-302.3" font-family="Times,serif" font-size="14.00">zombie</text>
</g>
<!-- kernel&#45;&#45;zombie -->
<g id="edge5" class="edge"><title>kernel&#45;&#45;zombie</title>
<path fill="none" stroke="black" d="M103.642,-362.496C89.4176,-350.642 69.3821,-333.946 55.0088,-321.968"/>
</g>
<!-- sleep -->
<g id="node6" class="node"><title>sleep</title>
<ellipse fill="none" stroke="black" cx="121.047" cy="-306" rx="28.6953" ry="18"/>
<text text-anchor="middle" x="121.047" y="-302.3" font-family="Times,serif" font-size="14.00">sleep</text>
</g>
<!-- kernel&#45;&#45;sleep -->
<g id="edge6" class="edge"><title>kernel&#45;&#45;sleep</title>
<path fill="none" stroke="black" d="M121.047,-359.697C121.047,-348.846 121.047,-334.917 121.047,-324.104"/>
</g>
<!-- runmem -->
<g id="node7" class="node"><title>runmem</title>
<ellipse fill="none" stroke="black" cx="108.047" cy="-18" rx="40.8928" ry="18"/>
<text text-anchor="middle" x="108.047" y="-14.3" font-family="Times,serif" font-size="14.00">runmem</text>
</g>
<!-- kernel&#45;&#45;runmem -->
<g id="edge7" class="edge"><title>kernel&#45;&#45;runmem</title>
<path fill="none" stroke="black" d="M134.543,-361.622C154.885,-336.805 191.047,-285.573 191.047,-235 191.047,-235 191.047,-235 191.047,-161 191.047,-120.553 193.006,-106.593 172.047,-72 162.179,-55.7133 145.472,-42.1311 131.602,-32.7947"/>
</g>
<!-- run -->
<g id="node2" class="node"><title>run</title>
<ellipse fill="none" stroke="black" cx="198.047" cy="-450" rx="27" ry="18"/>
<text text-anchor="middle" x="198.047" y="-446.3" font-family="Times,serif" font-size="14.00">run</text>
</g>
<!-- run&#45;&#45;kernel -->
<g id="edge4" class="edge"><title>run&#45;&#45;kernel</title>
<path fill="none" stroke="black" d="M182.465,-434.834C169.369,-422.929 150.712,-405.968 137.403,-393.869"/>
</g>
<!-- intr -->
<g id="node3" class="node"><title>intr</title>
<ellipse fill="none" stroke="black" cx="198.047" cy="-378" rx="27" ry="18"/>
<text text-anchor="middle" x="198.047" y="-374.3" font-family="Times,serif" font-size="14.00">intr</text>
</g>
<!-- run&#45;&#45;intr -->
<g id="edge1" class="edge"><title>run&#45;&#45;intr</title>
<path fill="none" stroke="black" d="M198.047,-431.697C198.047,-420.846 198.047,-406.917 198.047,-396.104"/>
</g>
<!-- runbl -->
<g id="node4" class="node"><title>runbl</title>
<ellipse fill="none" stroke="black" cx="250.047" cy="-306" rx="29.4969" ry="18"/>
<text text-anchor="middle" x="250.047" y="-302.3" font-family="Times,serif" font-size="14.00">runbl</text>
</g>
<!-- intr&#45;&#45;runbl -->
<g id="edge2" class="edge"><title>intr&#45;&#45;runbl</title>
<path fill="none" stroke="black" d="M209.587,-361.465C218.085,-350.026 229.604,-334.519 238.178,-322.977"/>
</g>
<!-- runbl&#45;&#45;run -->
<g id="edge3" class="edge"><title>runbl&#45;&#45;run</title>
<path fill="none" stroke="black" d="M249.072,-324.322C247.555,-342.703 243.711,-372.306 234.047,-396 228.418,-409.801 218.818,-423.676 210.947,-433.765"/>
</g>
<!-- sleep&#45;&#45;runmem -->
<g id="edge13" class="edge"><title>sleep&#45;&#45;runmem</title>
<path fill="none" stroke="black" d="M107.281,-289.935C98.9133,-279.913 88.7701,-266.051 83.0467,-252 70.8348,-222.02 74.4982,-212.278 72.0467,-180 70.835,-164.046 69.8108,-159.843 72.0467,-144 77.6328,-104.42 92.7039,-59.8161 101.474,-36.0567"/>
</g>
<!-- swap -->
<g id="node8" class="node"><title>swap</title>
<ellipse fill="none" stroke="black" cx="121.047" cy="-234" rx="28.6953" ry="18"/>
<text text-anchor="middle" x="121.047" y="-230.3" font-family="Times,serif" font-size="14.00">swap</text>
</g>
<!-- sleep&#45;&#45;swap -->
<g id="edge8" class="edge"><title>sleep&#45;&#45;swap</title>
<path fill="none" stroke="black" d="M121.047,-287.697C121.047,-276.846 121.047,-262.917 121.047,-252.104"/>
</g>
<!-- runswap -->
<g id="node9" class="node"><title>runswap</title>
<ellipse fill="none" stroke="black" cx="121.047" cy="-162" rx="40.0939" ry="18"/>
<text text-anchor="middle" x="121.047" y="-158.3" font-family="Times,serif" font-size="14.00">runswap</text>
</g>
<!-- swap&#45;&#45;runswap -->
<g id="edge9" class="edge"><title>swap&#45;&#45;runswap</title>
<path fill="none" stroke="black" d="M121.047,-215.697C121.047,-204.846 121.047,-190.917 121.047,-180.104"/>
</g>
<!-- runswap&#45;&#45;runmem -->
<g id="edge11" class="edge"><title>runswap&#45;&#45;runmem</title>
<path fill="none" stroke="black" d="M112.546,-144.306C107.837,-134.108 102.459,-120.638 100.047,-108 95.3342,-83.3136 99.7896,-54.2307 103.697,-36.2014"/>
</g>
<!-- new -->
<g id="node10" class="node"><title>new</title>
<ellipse fill="none" stroke="black" cx="136.047" cy="-90" rx="27" ry="18"/>
<text text-anchor="middle" x="136.047" y="-86.3" font-family="Times,serif" font-size="14.00">new</text>
</g>
<!-- runswap&#45;&#45;new -->
<g id="edge10" class="edge"><title>runswap&#45;&#45;new</title>
<path fill="none" stroke="black" d="M124.678,-144.055C127.001,-133.211 130.007,-119.183 132.345,-108.275"/>
</g>
<!-- new&#45;&#45;runmem -->
<g id="edge12" class="edge"><title>new&#45;&#45;runmem</title>
<path fill="none" stroke="black" d="M129.411,-72.411C125.012,-61.4141 119.258,-47.0274 114.829,-35.9562"/>
</g>
</g>
</svg>
