<?xml version="1.0" encoding="UTF-8" standalone="no"?>
<!DOCTYPE svg PUBLIC "-//W3C//DTD SVG 1.1//EN"
 "http://www.w3.org/Graphics/SVG/1.1/DTD/svg11.dtd">
<!-- Generated by graphviz version 2.38.0 (20140413.2041)
 -->
<!-- Title: G Pages: 1 -->
<svg width="304pt" height="476pt"
 viewBox="0.00 0.00 304.30 476.00" xmlns="http://www.w3.org/2000/svg" xmlns:xlink="http://www.w3.org/1999/xlink">
<g id="graph0" class="graph" transform="scale(1 1) rotate(0) translate(4 472)">
<title>G</title>
<polygon fill="white" stroke="none" points="-4,4 -4,-472 300.296,-472 300.296,4 -4,4"/>
<!-- run -->
<g id="node1" class="node"><title>run</title>
<ellipse fill="none" stroke="black" cx="61" cy="-162" rx="27" ry="18"/>
<text text-anchor="middle" x="61" y="-158.3" font-family="Times,serif" font-size="14.00">run</text>
</g>
<!-- intr -->
<g id="node2" class="node"><title>intr</title>
<ellipse fill="none" stroke="black" cx="27" cy="-90" rx="27" ry="18"/>
<text text-anchor="middle" x="27" y="-86.3" font-family="Times,serif" font-size="14.00">intr</text>
</g>
<!-- run&#45;&#45;intr -->
<g id="edge1" class="edge"><title>run&#45;&#45;intr</title>
<path fill="none" stroke="black" d="M53.1143,-144.765C47.6999,-133.618 40.5344,-118.865 35.0791,-107.633"/>
</g>
<!-- runmem -->
<g id="node4" class="node"><title>runmem</title>
<ellipse fill="none" stroke="black" cx="163" cy="-90" rx="40.8928" ry="18"/>
<text text-anchor="middle" x="163" y="-86.3" font-family="Times,serif" font-size="14.00">runmem</text>
</g>
<!-- run&#45;&#45;runmem -->
<g id="edge4" class="edge"><title>run&#45;&#45;runmem</title>
<path fill="none" stroke="black" d="M79.2356,-148.485C96.7701,-136.452 123.265,-118.269 141.747,-105.585"/>
</g>
<!-- runbl -->
<g id="node3" class="node"><title>runbl</title>
<ellipse fill="none" stroke="black" cx="54" cy="-18" rx="29.4969" ry="18"/>
<text text-anchor="middle" x="54" y="-14.3" font-family="Times,serif" font-size="14.00">runbl</text>
</g>
<!-- intr&#45;&#45;runbl -->
<g id="edge2" class="edge"><title>intr&#45;&#45;runbl</title>
<path fill="none" stroke="black" d="M33.3986,-72.411C37.6403,-61.4141 43.1894,-47.0274 47.4597,-35.9562"/>
</g>
<!-- runbl&#45;&#45;run -->
<g id="edge3" class="edge"><title>runbl&#45;&#45;run</title>
<path fill="none" stroke="black" d="M57.6538,-36.0925C59.6758,-46.4315 61.9808,-59.9098 63,-72 65.1033,-96.9491 63.7437,-125.962 62.4617,-143.905"/>
</g>
<!-- kernel -->
<g id="node5" class="node"><title>kernel</title>
<ellipse fill="none" stroke="black" cx="181" cy="-450" rx="32.4942" ry="18"/>
<text text-anchor="middle" x="181" y="-446.3" font-family="Times,serif" font-size="14.00">kernel</text>
</g>
<!-- kernel&#45;&#45;runmem -->
<g id="edge7" class="edge"><title>kernel&#45;&#45;runmem</title>
<path fill="none" stroke="black" d="M164.58,-434.317C154.547,-424.447 142.286,-410.61 135,-396 116.951,-359.804 116,-347.447 116,-307 116,-307 116,-307 116,-233 116,-185.738 139.755,-133.905 153.489,-107.889"/>
</g>
<!-- zombie -->
<g id="node6" class="node"><title>zombie</title>
<ellipse fill="none" stroke="black" cx="181" cy="-378" rx="37.0935" ry="18"/>
<text text-anchor="middle" x="181" y="-374.3" font-family="Times,serif" font-size="14.00">zombie</text>
</g>
<!-- kernel&#45;&#45;zombie -->
<g id="edge5" class="edge"><title>kernel&#45;&#45;zombie</title>
<path fill="none" stroke="black" d="M181,-431.697C181,-420.846 181,-406.917 181,-396.104"/>
</g>
<!-- sleep -->
<g id="node7" class="node"><title>sleep</title>
<ellipse fill="none" stroke="black" cx="265" cy="-378" rx="28.6953" ry="18"/>
<text text-anchor="middle" x="265" y="-374.3" font-family="Times,serif" font-size="14.00">sleep</text>
</g>
<!-- kernel&#45;&#45;sleep -->
<g id="edge6" class="edge"><title>kernel&#45;&#45;sleep</title>
<path fill="none" stroke="black" d="M198.405,-434.496C213.11,-422.242 234.025,-404.813 248.475,-392.771"/>
</g>
<!-- sleep&#45;&#45;runmem -->
<g id="edge13" class="edge"><title>sleep&#45;&#45;runmem</title>
<path fill="none" stroke="black" d="M250.274,-362.477C240.908,-352.463 229.223,-338.405 222,-324 184.404,-249.025 169.474,-148.146 164.794,-108.261"/>
</g>
<!-- swap -->
<g id="node8" class="node"><title>swap</title>
<ellipse fill="none" stroke="black" cx="260" cy="-306" rx="28.6953" ry="18"/>
<text text-anchor="middle" x="260" y="-302.3" font-family="Times,serif" font-size="14.00">swap</text>
</g>
<!-- sleep&#45;&#45;swap -->
<g id="edge8" class="edge"><title>sleep&#45;&#45;swap</title>
<path fill="none" stroke="black" d="M263.764,-359.697C262.989,-348.846 261.994,-334.917 261.222,-324.104"/>
</g>
<!-- runswap -->
<g id="node9" class="node"><title>runswap</title>
<ellipse fill="none" stroke="black" cx="256" cy="-234" rx="40.0939" ry="18"/>
<text text-anchor="middle" x="256" y="-230.3" font-family="Times,serif" font-size="14.00">runswap</text>
</g>
<!-- swap&#45;&#45;runswap -->
<g id="edge9" class="edge"><title>swap&#45;&#45;runswap</title>
<path fill="none" stroke="black" d="M259.011,-287.697C258.391,-276.846 257.595,-262.917 256.977,-252.104"/>
</g>
<!-- runswap&#45;&#45;runmem -->
<g id="edge11" class="edge"><title>runswap&#45;&#45;runmem</title>
<path fill="none" stroke="black" d="M244.534,-216.368C237.404,-205.964 228.085,-192.256 220,-180 203.43,-154.881 184.697,-125.42 173.373,-107.489"/>
</g>
<!-- new -->
<g id="node10" class="node"><title>new</title>
<ellipse fill="none" stroke="black" cx="256" cy="-162" rx="27" ry="18"/>
<text text-anchor="middle" x="256" y="-158.3" font-family="Times,serif" font-size="14.00">new</text>
</g>
<!-- runswap&#45;&#45;new -->
<g id="edge10" class="edge"><title>runswap&#45;&#45;new</title>
<path fill="none" stroke="black" d="M256,-215.697C256,-204.846 256,-190.917 256,-180.104"/>
</g>
<!-- new&#45;&#45;runmem -->
<g id="edge12" class="edge"><title>new&#45;&#45;runmem</title>
<path fill="none" stroke="black" d="M238.507,-147.834C222.617,-135.873 199.202,-118.249 182.668,-105.804"/>
</g>
</g>
</svg>
