<?xml version="1.0" encoding="UTF-8" standalone="no"?>
<!DOCTYPE svg PUBLIC "-//W3C//DTD SVG 1.1//EN"
 "http://www.w3.org/Graphics/SVG/1.1/DTD/svg11.dtd">
<!-- Generated by graphviz version 2.38.0 (20140413.2041)
 -->
<!-- Title: G Pages: 1 -->
<svg width="349pt" height="476pt"
 viewBox="0.00 0.00 349.25 476.00" xmlns="http://www.w3.org/2000/svg" xmlns:xlink="http://www.w3.org/1999/xlink">
<g id="graph0" class="graph" transform="scale(1 1) rotate(0) translate(4 472)">
<title>G</title>
<polygon fill="white" stroke="none" points="-4,4 -4,-472 345.247,-472 345.247,4 -4,4"/>
<!-- run -->
<g id="node1" class="node"><title>run</title>
<ellipse fill="none" stroke="black" cx="84.2474" cy="-450" rx="27" ry="18"/>
<text text-anchor="middle" x="84.2474" y="-446.3" font-family="Times,serif" font-size="14.00">run</text>
</g>
<!-- intr -->
<g id="node2" class="node"><title>intr</title>
<ellipse fill="none" stroke="black" cx="29.2474" cy="-378" rx="27" ry="18"/>
<text text-anchor="middle" x="29.2474" y="-374.3" font-family="Times,serif" font-size="14.00">intr</text>
</g>
<!-- run&#45;&#45;intr -->
<g id="edge1" class="edge"><title>run&#45;&#45;intr</title>
<path fill="none" stroke="black" d="M72.3132,-433.811C63.0879,-422.07 50.3778,-405.893 41.1583,-394.159"/>
</g>
<!-- kernel -->
<g id="node4" class="node"><title>kernel</title>
<ellipse fill="none" stroke="black" cx="197.247" cy="-378" rx="32.4942" ry="18"/>
<text text-anchor="middle" x="197.247" y="-374.3" font-family="Times,serif" font-size="14.00">kernel</text>
</g>
<!-- run&#45;&#45;kernel -->
<g id="edge4" class="edge"><title>run&#45;&#45;kernel</title>
<path fill="none" stroke="black" d="M103.416,-437.125C123.692,-424.565 155.577,-404.814 176.449,-391.884"/>
</g>
<!-- runbl -->
<g id="node3" class="node"><title>runbl</title>
<ellipse fill="none" stroke="black" cx="29.2474" cy="-306" rx="29.4969" ry="18"/>
<text text-anchor="middle" x="29.2474" y="-302.3" font-family="Times,serif" font-size="14.00">runbl</text>
</g>
<!-- intr&#45;&#45;runbl -->
<g id="edge2" class="edge"><title>intr&#45;&#45;runbl</title>
<path fill="none" stroke="black" d="M29.2474,-359.697C29.2474,-348.846 29.2474,-334.917 29.2474,-324.104"/>
</g>
<!-- runbl&#45;&#45;run -->
<g id="edge3" class="edge"><title>runbl&#45;&#45;run</title>
<path fill="none" stroke="black" d="M41.9953,-322.298C49.8059,-332.413 59.3951,-346.292 65.2474,-360 75.421,-383.83 80.3573,-413.654 82.5913,-432.012"/>
</g>
<!-- zombie -->
<g id="node5" class="node"><title>zombie</title>
<ellipse fill="none" stroke="black" cx="113.247" cy="-306" rx="37.0935" ry="18"/>
<text text-anchor="middle" x="113.247" y="-302.3" font-family="Times,serif" font-size="14.00">zombie</text>
</g>
<!-- kernel&#45;&#45;zombie -->
<g id="edge5" class="edge"><title>kernel&#45;&#45;zombie</title>
<path fill="none" stroke="black" d="M179.843,-362.496C165.618,-350.642 145.583,-333.946 131.21,-321.968"/>
</g>
<!-- sleep -->
<g id="node6" class="node"><title>sleep</title>
<ellipse fill="none" stroke="black" cx="197.247" cy="-306" rx="28.6953" ry="18"/>
<text text-anchor="middle" x="197.247" y="-302.3" font-family="Times,serif" font-size="14.00">sleep</text>
</g>
<!-- kernel&#45;&#45;sleep -->
<g id="edge6" class="edge"><title>kernel&#45;&#45;sleep</title>
<path fill="none" stroke="black" d="M197.247,-359.697C197.247,-348.846 197.247,-334.917 197.247,-324.104"/>
</g>
<!-- runmem -->
<g id="node7" class="node"><title>runmem</title>
<ellipse fill="none" stroke="black" cx="176.247" cy="-18" rx="40.8928" ry="18"/>
<text text-anchor="middle" x="176.247" y="-14.3" font-family="Times,serif" font-size="14.00">runmem</text>
</g>
<!-- kernel&#45;&#45;runmem -->
<g id="edge7" class="edge"><title>kernel&#45;&#45;runmem</title>
<path fill="none" stroke="black" d="M210.851,-361.247C218.942,-351.173 228.845,-337.504 235.247,-324 252.798,-286.981 259.247,-275.969 259.247,-235 259.247,-235 259.247,-235 259.247,-161 259.247,-120.553 261.207,-106.593 240.247,-72 230.38,-55.7133 213.672,-42.1311 199.802,-32.7947"/>
</g>
<!-- 1 -->
<g id="node11" class="node"><title>1</title>
<ellipse fill="none" stroke="black" cx="314.247" cy="-306" rx="27" ry="18"/>
<text text-anchor="middle" x="314.247" y="-302.3" font-family="Times,serif" font-size="14.00">1</text>
</g>
<!-- kernel&#45;&#45;1 -->
<g id="edge14" class="edge"><title>kernel&#45;&#45;1</title>
<path fill="none" stroke="black" d="M218.435,-364.324C240.166,-351.322 273.687,-331.267 294.772,-318.652"/>
</g>
<!-- sleep&#45;&#45;runmem -->
<g id="edge13" class="edge"><title>sleep&#45;&#45;runmem</title>
<path fill="none" stroke="black" d="M182.569,-290.037C173.61,-280.056 162.678,-266.2 156.247,-252 142.799,-222.304 145.373,-212.449 142.247,-180 137.125,-126.824 157.628,-65.4278 169.053,-36.1944"/>
</g>
<!-- swap -->
<g id="node8" class="node"><title>swap</title>
<ellipse fill="none" stroke="black" cx="194.247" cy="-234" rx="28.6953" ry="18"/>
<text text-anchor="middle" x="194.247" y="-230.3" font-family="Times,serif" font-size="14.00">swap</text>
</g>
<!-- sleep&#45;&#45;swap -->
<g id="edge8" class="edge"><title>sleep&#45;&#45;swap</title>
<path fill="none" stroke="black" d="M196.506,-287.697C196.041,-276.846 195.444,-262.917 194.98,-252.104"/>
</g>
<!-- runswap -->
<g id="node9" class="node"><title>runswap</title>
<ellipse fill="none" stroke="black" cx="191.247" cy="-162" rx="40.0939" ry="18"/>
<text text-anchor="middle" x="191.247" y="-158.3" font-family="Times,serif" font-size="14.00">runswap</text>
</g>
<!-- swap&#45;&#45;runswap -->
<g id="edge9" class="edge"><title>swap&#45;&#45;runswap</title>
<path fill="none" stroke="black" d="M193.506,-215.697C193.041,-204.846 192.444,-190.917 191.98,-180.104"/>
</g>
<!-- runswap&#45;&#45;runmem -->
<g id="edge11" class="edge"><title>runswap&#45;&#45;runmem</title>
<path fill="none" stroke="black" d="M181.943,-144.4C176.788,-134.235 170.898,-120.767 168.247,-108 163.107,-83.2407 167.756,-53.9293 171.812,-35.9003"/>
</g>
<!-- new -->
<g id="node10" class="node"><title>new</title>
<ellipse fill="none" stroke="black" cx="204.247" cy="-90" rx="27" ry="18"/>
<text text-anchor="middle" x="204.247" y="-86.3" font-family="Times,serif" font-size="14.00">new</text>
</g>
<!-- runswap&#45;&#45;new -->
<g id="edge10" class="edge"><title>runswap&#45;&#45;new</title>
<path fill="none" stroke="black" d="M194.394,-144.055C196.408,-133.211 199.013,-119.183 201.039,-108.275"/>
</g>
<!-- new&#45;&#45;runmem -->
<g id="edge12" class="edge"><title>new&#45;&#45;runmem</title>
<path fill="none" stroke="black" d="M197.612,-72.411C193.213,-61.4141 187.458,-47.0274 183.03,-35.9562"/>
</g>
</g>
</svg>
