<?xml version="1.0" encoding="UTF-8" standalone="no"?>
<!DOCTYPE svg PUBLIC "-//W3C//DTD SVG 1.1//EN"
 "http://www.w3.org/Graphics/SVG/1.1/DTD/svg11.dtd">
<!-- Generated by graphviz version 2.38.0 (20140413.2041)
 -->
<!-- Title: G Pages: 1 -->
<svg width="308pt" height="692pt"
 viewBox="0.00 0.00 307.74 692.00" xmlns="http://www.w3.org/2000/svg" xmlns:xlink="http://www.w3.org/1999/xlink">
<g id="graph0" class="graph" transform="scale(1 1) rotate(0) translate(4 688)">
<title>G</title>
<polygon fill="white" stroke="none" points="-4,4 -4,-688 303.737,-688 303.737,4 -4,4"/>
<!-- run -->
<g id="node1" class="node"><title>run</title>
<ellipse fill="none" stroke="black" cx="84.2474" cy="-666" rx="27" ry="18"/>
<text text-anchor="middle" x="84.2474" y="-662.3" font-family="Times,serif" font-size="14.00">run</text>
</g>
<!-- intr -->
<g id="node2" class="node"><title>intr</title>
<ellipse fill="none" stroke="black" cx="29.2474" cy="-594" rx="27" ry="18"/>
<text text-anchor="middle" x="29.2474" y="-590.3" font-family="Times,serif" font-size="14.00">intr</text>
</g>
<!-- run&#45;&#45;intr -->
<g id="edge1" class="edge"><title>run&#45;&#45;intr</title>
<path fill="none" stroke="black" d="M72.3132,-649.811C63.0879,-638.07 50.3778,-621.893 41.1583,-610.159"/>
</g>
<!-- kernel -->
<g id="node4" class="node"><title>kernel</title>
<ellipse fill="none" stroke="black" cx="170.247" cy="-594" rx="32.4942" ry="18"/>
<text text-anchor="middle" x="170.247" y="-590.3" font-family="Times,serif" font-size="14.00">kernel</text>
</g>
<!-- run&#45;&#45;kernel -->
<g id="edge4" class="edge"><title>run&#45;&#45;kernel</title>
<path fill="none" stroke="black" d="M100.829,-651.503C115.667,-639.426 137.358,-621.771 152.532,-609.419"/>
</g>
<!-- runbl -->
<g id="node3" class="node"><title>runbl</title>
<ellipse fill="none" stroke="black" cx="29.2474" cy="-522" rx="29.4969" ry="18"/>
<text text-anchor="middle" x="29.2474" y="-518.3" font-family="Times,serif" font-size="14.00">runbl</text>
</g>
<!-- intr&#45;&#45;runbl -->
<g id="edge2" class="edge"><title>intr&#45;&#45;runbl</title>
<path fill="none" stroke="black" d="M29.2474,-575.697C29.2474,-564.846 29.2474,-550.917 29.2474,-540.104"/>
</g>
<!-- runbl&#45;&#45;run -->
<g id="edge3" class="edge"><title>runbl&#45;&#45;run</title>
<path fill="none" stroke="black" d="M41.9953,-538.298C49.8059,-548.413 59.3951,-562.292 65.2474,-576 75.421,-599.83 80.3573,-629.654 82.5913,-648.012"/>
</g>
<!-- zombie -->
<g id="node5" class="node"><title>zombie</title>
<ellipse fill="none" stroke="black" cx="113.247" cy="-522" rx="37.0935" ry="18"/>
<text text-anchor="middle" x="113.247" y="-518.3" font-family="Times,serif" font-size="14.00">zombie</text>
</g>
<!-- kernel&#45;&#45;zombie -->
<g id="edge5" class="edge"><title>kernel&#45;&#45;zombie</title>
<path fill="none" stroke="black" d="M157.313,-577.116C148.116,-565.821 135.8,-550.696 126.526,-539.307"/>
</g>
<!-- sleep -->
<g id="node6" class="node"><title>sleep</title>
<ellipse fill="none" stroke="black" cx="197.247" cy="-522" rx="28.6953" ry="18"/>
<text text-anchor="middle" x="197.247" y="-518.3" font-family="Times,serif" font-size="14.00">sleep</text>
</g>
<!-- kernel&#45;&#45;sleep -->
<g id="edge6" class="edge"><title>kernel&#45;&#45;sleep</title>
<path fill="none" stroke="black" d="M176.783,-576.055C181.028,-565.049 186.539,-550.764 190.772,-539.789"/>
</g>
<!-- runmem -->
<g id="node7" class="node"><title>runmem</title>
<ellipse fill="none" stroke="black" cx="216.247" cy="-234" rx="40.8928" ry="18"/>
<text text-anchor="middle" x="216.247" y="-230.3" font-family="Times,serif" font-size="14.00">runmem</text>
</g>
<!-- kernel&#45;&#45;runmem -->
<g id="edge7" class="edge"><title>kernel&#45;&#45;runmem</title>
<path fill="none" stroke="black" d="M193.31,-581.187C230.415,-560.344 299.247,-513.283 299.247,-451 299.247,-451 299.247,-451 299.247,-377 299.247,-336.553 301.207,-322.593 280.247,-288 270.38,-271.713 253.672,-258.131 239.802,-248.795"/>
</g>
<!-- 1 -->
<g id="node11" class="node"><title>1</title>
<ellipse fill="none" stroke="black" cx="58.2474" cy="-450" rx="27" ry="18"/>
<text text-anchor="middle" x="58.2474" y="-446.3" font-family="Times,serif" font-size="14.00">1</text>
</g>
<!-- zombie&#45;&#45;1 -->
<g id="edge14" class="edge"><title>zombie&#45;&#45;1</title>
<path fill="none" stroke="black" d="M100.491,-504.765C91.3518,-493.133 79.1281,-477.575 70.1816,-466.189"/>
</g>
<!-- sleep&#45;&#45;runmem -->
<g id="edge13" class="edge"><title>sleep&#45;&#45;runmem</title>
<path fill="none" stroke="black" d="M188.886,-504.751C184.018,-494.491 178.263,-480.8 175.247,-468 164.228,-421.229 161.819,-407.307 170.247,-360 177.426,-319.705 196.668,-275.375 207.86,-251.852"/>
</g>
<!-- swap -->
<g id="node8" class="node"><title>swap</title>
<ellipse fill="none" stroke="black" cx="213.247" cy="-450" rx="28.6953" ry="18"/>
<text text-anchor="middle" x="213.247" y="-446.3" font-family="Times,serif" font-size="14.00">swap</text>
</g>
<!-- sleep&#45;&#45;swap -->
<g id="edge8" class="edge"><title>sleep&#45;&#45;swap</title>
<path fill="none" stroke="black" d="M201.121,-504.055C203.599,-493.211 206.806,-479.183 209.299,-468.275"/>
</g>
<!-- runswap -->
<g id="node9" class="node"><title>runswap</title>
<ellipse fill="none" stroke="black" cx="219.247" cy="-378" rx="40.0939" ry="18"/>
<text text-anchor="middle" x="219.247" y="-374.3" font-family="Times,serif" font-size="14.00">runswap</text>
</g>
<!-- swap&#45;&#45;runswap -->
<g id="edge9" class="edge"><title>swap&#45;&#45;runswap</title>
<path fill="none" stroke="black" d="M214.731,-431.697C215.661,-420.846 216.855,-406.917 217.781,-396.104"/>
</g>
<!-- runswap&#45;&#45;runmem -->
<g id="edge11" class="edge"><title>runswap&#45;&#45;runmem</title>
<path fill="none" stroke="black" d="M214.783,-359.953C212.312,-349.63 209.495,-336.153 208.247,-324 205.68,-298.999 209.566,-270 212.765,-252.074"/>
</g>
<!-- new -->
<g id="node10" class="node"><title>new</title>
<ellipse fill="none" stroke="black" cx="244.247" cy="-306" rx="27" ry="18"/>
<text text-anchor="middle" x="244.247" y="-302.3" font-family="Times,serif" font-size="14.00">new</text>
</g>
<!-- runswap&#45;&#45;new -->
<g id="edge10" class="edge"><title>runswap&#45;&#45;new</title>
<path fill="none" stroke="black" d="M225.299,-360.055C229.23,-349.049 234.332,-334.764 238.251,-323.789"/>
</g>
<!-- new&#45;&#45;runmem -->
<g id="edge12" class="edge"><title>new&#45;&#45;runmem</title>
<path fill="none" stroke="black" d="M237.612,-288.411C233.213,-277.414 227.458,-263.027 223.03,-251.956"/>
</g>
<!-- 2 -->
<g id="node12" class="node"><title>2</title>
<ellipse fill="none" stroke="black" cx="58.2474" cy="-378" rx="27" ry="18"/>
<text text-anchor="middle" x="58.2474" y="-374.3" font-family="Times,serif" font-size="14.00">2</text>
</g>
<!-- 1&#45;&#45;2 -->
<g id="edge15" class="edge"><title>1&#45;&#45;2</title>
<path fill="none" stroke="black" d="M58.2474,-431.697C58.2474,-420.846 58.2474,-406.917 58.2474,-396.104"/>
</g>
<!-- 4 -->
<g id="node13" class="node"><title>4</title>
<ellipse fill="none" stroke="black" cx="58.2474" cy="-306" rx="27" ry="18"/>
<text text-anchor="middle" x="58.2474" y="-302.3" font-family="Times,serif" font-size="14.00">4</text>
</g>
<!-- 2&#45;&#45;4 -->
<g id="edge16" class="edge"><title>2&#45;&#45;4</title>
<path fill="none" stroke="black" d="M58.2474,-359.697C58.2474,-348.846 58.2474,-334.917 58.2474,-324.104"/>
</g>
<!-- 5 -->
<g id="node14" class="node"><title>5</title>
<ellipse fill="none" stroke="black" cx="58.2474" cy="-234" rx="27" ry="18"/>
<text text-anchor="middle" x="58.2474" y="-230.3" font-family="Times,serif" font-size="14.00">5</text>
</g>
<!-- 4&#45;&#45;5 -->
<g id="edge17" class="edge"><title>4&#45;&#45;5</title>
<path fill="none" stroke="black" d="M58.2474,-287.697C58.2474,-276.846 58.2474,-262.917 58.2474,-252.104"/>
</g>
<!-- 6 -->
<g id="node15" class="node"><title>6</title>
<ellipse fill="none" stroke="black" cx="58.2474" cy="-162" rx="27" ry="18"/>
<text text-anchor="middle" x="58.2474" y="-158.3" font-family="Times,serif" font-size="14.00">6</text>
</g>
<!-- 5&#45;&#45;6 -->
<g id="edge18" class="edge"><title>5&#45;&#45;6</title>
<path fill="none" stroke="black" d="M58.2474,-215.697C58.2474,-204.846 58.2474,-190.917 58.2474,-180.104"/>
</g>
<!-- 7 -->
<g id="node16" class="node"><title>7</title>
<ellipse fill="none" stroke="black" cx="58.2474" cy="-90" rx="27" ry="18"/>
<text text-anchor="middle" x="58.2474" y="-86.3" font-family="Times,serif" font-size="14.00">7</text>
</g>
<!-- 6&#45;&#45;7 -->
<g id="edge19" class="edge"><title>6&#45;&#45;7</title>
<path fill="none" stroke="black" d="M58.2474,-143.697C58.2474,-132.846 58.2474,-118.917 58.2474,-108.104"/>
</g>
<!-- 8 -->
<g id="node17" class="node"><title>8</title>
<ellipse fill="none" stroke="black" cx="85.2474" cy="-18" rx="27" ry="18"/>
<text text-anchor="middle" x="85.2474" y="-14.3" font-family="Times,serif" font-size="14.00">8</text>
</g>
<!-- 7&#45;&#45;8 -->
<g id="edge20" class="edge"><title>7&#45;&#45;8</title>
<path fill="none" stroke="black" d="M64.646,-72.411C68.8877,-61.4141 74.4368,-47.0274 78.7072,-35.9562"/>
</g>
<!-- 8&#45;&#45;zombie -->
<g id="edge21" class="edge"><title>8&#45;&#45;zombie</title>
<path fill="none" stroke="black" d="M90.7793,-35.8374C98.9394,-62.2129 113.247,-115.017 113.247,-161 113.247,-379 113.247,-379 113.247,-379 113.247,-424.115 113.247,-477.292 113.247,-503.951"/>
</g>
</g>
</svg>
