<?xml version="1.0" encoding="UTF-8" standalone="no"?>
<!DOCTYPE svg PUBLIC "-//W3C//DTD SVG 1.1//EN"
 "http://www.w3.org/Graphics/SVG/1.1/DTD/svg11.dtd">
<!-- Generated by graphviz version 2.38.0 (20140413.2041)
 -->
<!-- Title: G Pages: 1 -->
<svg width="980pt" height="332pt"
 viewBox="0.00 0.00 980.00 332.00" xmlns="http://www.w3.org/2000/svg" xmlns:xlink="http://www.w3.org/1999/xlink">
<g id="graph0" class="graph" transform="scale(1 1) rotate(0) translate(4 328)">
<title>G</title>
<polygon fill="white" stroke="none" points="-4,4 -4,-328 976,-328 976,4 -4,4"/>
<!-- 2 -->
<g id="node1" class="node"><title>2</title>
<ellipse fill="none" stroke="black" cx="117" cy="-234" rx="27" ry="18"/>
<text text-anchor="middle" x="117" y="-230.3" font-family="Times,serif" font-size="14.00">2</text>
</g>
<!-- 8 -->
<g id="node6" class="node"><title>8</title>
<ellipse fill="none" stroke="black" cx="27" cy="-162" rx="27" ry="18"/>
<text text-anchor="middle" x="27" y="-158.3" font-family="Times,serif" font-size="14.00">8</text>
</g>
<!-- 2&#45;&#45;8 -->
<g id="edge6" class="edge"><title>2&#45;&#45;8</title>
<path fill="none" stroke="black" d="M100.072,-219.834C83.9811,-207.319 59.9178,-188.603 43.8524,-176.107"/>
</g>
<!-- 9 -->
<g id="node7" class="node"><title>9</title>
<ellipse fill="none" stroke="black" cx="99" cy="-162" rx="27" ry="18"/>
<text text-anchor="middle" x="99" y="-158.3" font-family="Times,serif" font-size="14.00">9</text>
</g>
<!-- 2&#45;&#45;9 -->
<g id="edge7" class="edge"><title>2&#45;&#45;9</title>
<path fill="none" stroke="black" d="M112.643,-216.055C109.813,-205.049 106.139,-190.764 103.317,-179.789"/>
</g>
<!-- 10 -->
<g id="node8" class="node"><title>10</title>
<ellipse fill="none" stroke="black" cx="171" cy="-162" rx="27" ry="18"/>
<text text-anchor="middle" x="171" y="-158.3" font-family="Times,serif" font-size="14.00">10</text>
</g>
<!-- 2&#45;&#45;10 -->
<g id="edge8" class="edge"><title>2&#45;&#45;10</title>
<path fill="none" stroke="black" d="M128.984,-217.465C137.933,-205.865 150.108,-190.082 159.049,-178.492"/>
</g>
<!-- 3 -->
<g id="node2" class="node"><title>3</title>
<ellipse fill="none" stroke="black" cx="225" cy="-234" rx="27" ry="18"/>
<text text-anchor="middle" x="225" y="-230.3" font-family="Times,serif" font-size="14.00">3</text>
</g>
<!-- 11 -->
<g id="node18" class="node"><title>11</title>
<ellipse fill="none" stroke="black" cx="243" cy="-162" rx="27" ry="18"/>
<text text-anchor="middle" x="243" y="-158.3" font-family="Times,serif" font-size="14.00">11</text>
</g>
<!-- 3&#45;&#45;11 -->
<g id="edge9" class="edge"><title>3&#45;&#45;11</title>
<path fill="none" stroke="black" d="M229.357,-216.055C232.187,-205.049 235.861,-190.764 238.683,-179.789"/>
</g>
<!-- 4 -->
<g id="node3" class="node"><title>4</title>
<ellipse fill="none" stroke="black" cx="297" cy="-234" rx="27" ry="18"/>
<text text-anchor="middle" x="297" y="-230.3" font-family="Times,serif" font-size="14.00">4</text>
</g>
<!-- 5 -->
<g id="node4" class="node"><title>5</title>
<ellipse fill="none" stroke="black" cx="369" cy="-234" rx="27" ry="18"/>
<text text-anchor="middle" x="369" y="-230.3" font-family="Times,serif" font-size="14.00">5</text>
</g>
<!-- 6 -->
<g id="node5" class="node"><title>6</title>
<ellipse fill="none" stroke="black" cx="441" cy="-234" rx="27" ry="18"/>
<text text-anchor="middle" x="441" y="-230.3" font-family="Times,serif" font-size="14.00">6</text>
</g>
<!-- a2 -->
<g id="node9" class="node"><title>a2</title>
<ellipse fill="none" stroke="black" cx="513" cy="-234" rx="27" ry="18"/>
<text text-anchor="middle" x="513" y="-230.3" font-family="Times,serif" font-size="14.00">a2</text>
</g>
<!-- a8 -->
<g id="node14" class="node"><title>a8</title>
<ellipse fill="none" stroke="black" cx="441" cy="-162" rx="27" ry="18"/>
<text text-anchor="middle" x="441" y="-158.3" font-family="Times,serif" font-size="14.00">a8</text>
</g>
<!-- a2&#45;&#45;a8 -->
<g id="edge17" class="edge"><title>a2&#45;&#45;a8</title>
<path fill="none" stroke="black" d="M498.43,-218.834C486.02,-206.77 468.269,-189.512 455.796,-177.385"/>
</g>
<!-- a9 -->
<g id="node15" class="node"><title>a9</title>
<ellipse fill="none" stroke="black" cx="513" cy="-162" rx="27" ry="18"/>
<text text-anchor="middle" x="513" y="-158.3" font-family="Times,serif" font-size="14.00">a9</text>
</g>
<!-- a2&#45;&#45;a9 -->
<g id="edge18" class="edge"><title>a2&#45;&#45;a9</title>
<path fill="none" stroke="black" d="M513,-215.697C513,-204.846 513,-190.917 513,-180.104"/>
</g>
<!-- a10 -->
<g id="node16" class="node"><title>a10</title>
<ellipse fill="none" stroke="black" cx="585" cy="-162" rx="27" ry="18"/>
<text text-anchor="middle" x="585" y="-158.3" font-family="Times,serif" font-size="14.00">a10</text>
</g>
<!-- a2&#45;&#45;a10 -->
<g id="edge19" class="edge"><title>a2&#45;&#45;a10</title>
<path fill="none" stroke="black" d="M527.57,-218.834C539.98,-206.77 557.731,-189.512 570.204,-177.385"/>
</g>
<!-- a3 -->
<g id="node10" class="node"><title>a3</title>
<ellipse fill="none" stroke="black" cx="585" cy="-234" rx="27" ry="18"/>
<text text-anchor="middle" x="585" y="-230.3" font-family="Times,serif" font-size="14.00">a3</text>
</g>
<!-- a4 -->
<g id="node11" class="node"><title>a4</title>
<ellipse fill="none" stroke="black" cx="657" cy="-234" rx="27" ry="18"/>
<text text-anchor="middle" x="657" y="-230.3" font-family="Times,serif" font-size="14.00">a4</text>
</g>
<!-- a5 -->
<g id="node12" class="node"><title>a5</title>
<ellipse fill="none" stroke="black" cx="729" cy="-234" rx="27" ry="18"/>
<text text-anchor="middle" x="729" y="-230.3" font-family="Times,serif" font-size="14.00">a5</text>
</g>
<!-- a6 -->
<g id="node13" class="node"><title>a6</title>
<ellipse fill="none" stroke="black" cx="801" cy="-234" rx="27" ry="18"/>
<text text-anchor="middle" x="801" y="-230.3" font-family="Times,serif" font-size="14.00">a6</text>
</g>
<!-- 1 -->
<g id="node17" class="node"><title>1</title>
<ellipse fill="none" stroke="black" cx="297" cy="-306" rx="27" ry="18"/>
<text text-anchor="middle" x="297" y="-302.3" font-family="Times,serif" font-size="14.00">1</text>
</g>
<!-- 1&#45;&#45;2 -->
<g id="edge1" class="edge"><title>1&#45;&#45;2</title>
<path fill="none" stroke="black" d="M274.203,-296.134C239.674,-282.706 174.483,-257.355 139.896,-243.904"/>
</g>
<!-- 1&#45;&#45;3 -->
<g id="edge2" class="edge"><title>1&#45;&#45;3</title>
<path fill="none" stroke="black" d="M282.43,-290.834C270.02,-278.77 252.269,-261.512 239.796,-249.385"/>
</g>
<!-- 1&#45;&#45;4 -->
<g id="edge3" class="edge"><title>1&#45;&#45;4</title>
<path fill="none" stroke="black" d="M297,-287.697C297,-276.846 297,-262.917 297,-252.104"/>
</g>
<!-- 1&#45;&#45;5 -->
<g id="edge4" class="edge"><title>1&#45;&#45;5</title>
<path fill="none" stroke="black" d="M311.57,-290.834C323.98,-278.77 341.731,-261.512 354.204,-249.385"/>
</g>
<!-- 1&#45;&#45;6 -->
<g id="edge5" class="edge"><title>1&#45;&#45;6</title>
<path fill="none" stroke="black" d="M318.248,-294.671C345.473,-281.437 392.398,-258.626 419.665,-245.371"/>
</g>
<!-- 12 -->
<g id="node19" class="node"><title>12</title>
<ellipse fill="none" stroke="black" cx="243" cy="-90" rx="27" ry="18"/>
<text text-anchor="middle" x="243" y="-86.3" font-family="Times,serif" font-size="14.00">12</text>
</g>
<!-- 11&#45;&#45;12 -->
<g id="edge10" class="edge"><title>11&#45;&#45;12</title>
<path fill="none" stroke="black" d="M243,-143.697C243,-132.846 243,-118.917 243,-108.104"/>
</g>
<!-- 13 -->
<g id="node20" class="node"><title>13</title>
<ellipse fill="none" stroke="black" cx="243" cy="-18" rx="27" ry="18"/>
<text text-anchor="middle" x="243" y="-14.3" font-family="Times,serif" font-size="14.00">13</text>
</g>
<!-- 12&#45;&#45;13 -->
<g id="edge11" class="edge"><title>12&#45;&#45;13</title>
<path fill="none" stroke="black" d="M243,-71.6966C243,-60.8463 243,-46.9167 243,-36.1043"/>
</g>
<!-- a1 -->
<g id="node21" class="node"><title>a1</title>
<ellipse fill="none" stroke="black" cx="657" cy="-306" rx="27" ry="18"/>
<text text-anchor="middle" x="657" y="-302.3" font-family="Times,serif" font-size="14.00">a1</text>
</g>
<!-- a1&#45;&#45;a2 -->
<g id="edge12" class="edge"><title>a1&#45;&#45;a2</title>
<path fill="none" stroke="black" d="M635.752,-294.671C608.527,-281.437 561.602,-258.626 534.335,-245.371"/>
</g>
<!-- a1&#45;&#45;a3 -->
<g id="edge13" class="edge"><title>a1&#45;&#45;a3</title>
<path fill="none" stroke="black" d="M642.43,-290.834C630.02,-278.77 612.269,-261.512 599.796,-249.385"/>
</g>
<!-- a1&#45;&#45;a4 -->
<g id="edge14" class="edge"><title>a1&#45;&#45;a4</title>
<path fill="none" stroke="black" d="M657,-287.697C657,-276.846 657,-262.917 657,-252.104"/>
</g>
<!-- a1&#45;&#45;a5 -->
<g id="edge15" class="edge"><title>a1&#45;&#45;a5</title>
<path fill="none" stroke="black" d="M671.57,-290.834C683.98,-278.77 701.731,-261.512 714.204,-249.385"/>
</g>
<!-- a1&#45;&#45;a6 -->
<g id="edge16" class="edge"><title>a1&#45;&#45;a6</title>
<path fill="none" stroke="black" d="M678.248,-294.671C705.473,-281.437 752.398,-258.626 779.665,-245.371"/>
</g>
<!-- A -->
<g id="node22" class="node"><title>A</title>
<ellipse fill="none" stroke="black" cx="873" cy="-306" rx="27" ry="18"/>
<text text-anchor="middle" x="873" y="-302.3" font-family="Times,serif" font-size="14.00">A</text>
</g>
<!-- B -->
<g id="node23" class="node"><title>B</title>
<ellipse fill="none" stroke="black" cx="873" cy="-234" rx="27" ry="18"/>
<text text-anchor="middle" x="873" y="-230.3" font-family="Times,serif" font-size="14.00">B</text>
</g>
<!-- A&#45;&#45;B -->
<g id="edge20" class="edge"><title>A&#45;&#45;B</title>
<path fill="none" stroke="black" d="M873,-287.697C873,-276.846 873,-262.917 873,-252.104"/>
</g>
<!-- C -->
<g id="node24" class="node"><title>C</title>
<ellipse fill="none" stroke="black" cx="945" cy="-306" rx="27" ry="18"/>
<text text-anchor="middle" x="945" y="-302.3" font-family="Times,serif" font-size="14.00">C</text>
</g>
</g>
</svg>
