<?xml version="1.0" encoding="UTF-8" standalone="no"?>
<!DOCTYPE svg PUBLIC "-//W3C//DTD SVG 1.1//EN"
 "http://www.w3.org/Graphics/SVG/1.1/DTD/svg11.dtd">
<!-- Generated by graphviz version 2.38.0 (20140413.2041)
 -->
<!-- Title: %3 Pages: 1 -->
<svg width="505pt" height="452pt"
 viewBox="0.00 0.00 505.00 452.00" xmlns="http://www.w3.org/2000/svg" xmlns:xlink="http://www.w3.org/1999/xlink">
<g id="graph0" class="graph" transform="scale(1 1) rotate(0) translate(4 448)">
<title>%3</title>
<polygon fill="white" stroke="none" points="-4,4 -4,-448 501,-448 501,4 -4,4"/>
<!-- 25 -->
<g id="node1" class="node"><title>25</title>
<polygon fill="none" stroke="black" points="497,-444 0,-444 0,-360 497,-360 497,-444"/>
<polygon fill="none" stroke="black" points="0.5,-423 0.5,-444 497.5,-444 497.5,-423 0.5,-423"/>
<text text-anchor="start" x="200.5" y="-429.8" font-family="Palatino Linotype,serif" font-weight="bold" font-size="14.00">&quot;Palatino&#45;Bold&quot;</text>
<polygon fill="none" stroke="black" points="0.5,-402 0.5,-423 497.5,-423 497.5,-402 0.5,-402"/>
<text text-anchor="start" x="108" y="-408.8" font-family="Palatino Linotype,serif" font-weight="bold" font-size="14.00">&quot;ABCDEFGHIJLKLMNOPQRSTUVWXYZ&quot;</text>
<polygon fill="none" stroke="black" points="0.5,-381 0.5,-402 497.5,-402 497.5,-381 0.5,-381"/>
<text text-anchor="start" x="146.5" y="-387.8" font-family="Palatino Linotype,serif" font-weight="bold" font-size="14.00">&quot;abcdefghijlklmnopqrstuvwxyz&quot;</text>
<polygon fill="none" stroke="black" points="0.5,-360 0.5,-381 497.5,-381 497.5,-360 0.5,-360"/>
<text text-anchor="start" x="3.5" y="-366.8" font-family="Palatino Linotype,serif" font-weight="bold" font-size="14.00">&quot;ABCDEFGHIJLKLMNOPQRSTUVWXYZ\nabcdefghijlklmnopqrstuvwxyz&quot;</text>
</g>
<!-- 26 -->
<g id="node2" class="node"><title>26</title>
<polygon fill="none" stroke="black" points="489,-324 8,-324 8,-240 489,-240 489,-324"/>
<polygon fill="none" stroke="black" points="8.5,-303 8.5,-324 489.5,-324 489.5,-303 8.5,-303"/>
<text text-anchor="start" x="182" y="-309.8" font-family="Palatino Linotype,serif" font-weight="bold" font-style="italic" font-size="14.00">&quot;Palatino&#45;BoldItalic&quot;</text>
<polygon fill="none" stroke="black" points="8.5,-282 8.5,-303 489.5,-303 489.5,-282 8.5,-282"/>
<text text-anchor="start" x="112" y="-288.8" font-family="Palatino Linotype,serif" font-weight="bold" font-style="italic" font-size="14.00">&quot;ABCDEFGHIJLKLMNOPQRSTUVWXYZ&quot;</text>
<polygon fill="none" stroke="black" points="8.5,-261 8.5,-282 489.5,-282 489.5,-261 8.5,-261"/>
<text text-anchor="start" x="149.5" y="-267.8" font-family="Palatino Linotype,serif" font-weight="bold" font-style="italic" font-size="14.00">&quot;abcdefghijlklmnopqrstuvwxyz&quot;</text>
<polygon fill="none" stroke="black" points="8.5,-240 8.5,-261 489.5,-261 489.5,-240 8.5,-240"/>
<text text-anchor="start" x="11.5" y="-246.8" font-family="Palatino Linotype,serif" font-weight="bold" font-style="italic" font-size="14.00">&quot;ABCDEFGHIJLKLMNOPQRSTUVWXYZ\nabcdefghijlklmnopqrstuvwxyz&quot;</text>
</g>
<!-- 25&#45;&gt;26 -->
<g id="edge1" class="edge"><title>25&#45;&gt;26</title>
<path fill="none" stroke="black" d="M248.5,-359.729C248.5,-351.508 248.5,-342.78 248.5,-334.271"/>
<polygon fill="black" stroke="black" points="252,-334.048 248.5,-324.048 245,-334.048 252,-334.048"/>
</g>
<!-- 27 -->
<g id="node3" class="node"><title>27</title>
<polygon fill="none" stroke="black" points="474.5,-204 22.5,-204 22.5,-120 474.5,-120 474.5,-204"/>
<polygon fill="none" stroke="black" points="22.5,-183 22.5,-204 474.5,-204 474.5,-183 22.5,-183"/>
<text text-anchor="start" x="202" y="-189.8" font-family="Palatino Linotype,serif" font-style="italic" font-size="14.00">&quot;Palatino&#45;Italic&quot;</text>
<polygon fill="none" stroke="black" points="22.5,-162 22.5,-183 474.5,-183 474.5,-162 22.5,-162"/>
<text text-anchor="start" x="116" y="-168.8" font-family="Palatino Linotype,serif" font-style="italic" font-size="14.00">&quot;ABCDEFGHIJLKLMNOPQRSTUVWXYZ&quot;</text>
<polygon fill="none" stroke="black" points="22.5,-141 22.5,-162 474.5,-162 474.5,-141 22.5,-141"/>
<text text-anchor="start" x="158.5" y="-147.8" font-family="Palatino Linotype,serif" font-style="italic" font-size="14.00">&quot;abcdefghijlklmnopqrstuvwxyz&quot;</text>
<polygon fill="none" stroke="black" points="22.5,-120 22.5,-141 474.5,-141 474.5,-120 22.5,-120"/>
<text text-anchor="start" x="25.5" y="-126.8" font-family="Palatino Linotype,serif" font-style="italic" font-size="14.00">&quot;ABCDEFGHIJLKLMNOPQRSTUVWXYZ\nabcdefghijlklmnopqrstuvwxyz&quot;</text>
</g>
<!-- 26&#45;&gt;27 -->
<g id="edge2" class="edge"><title>26&#45;&gt;27</title>
<path fill="none" stroke="black" d="M248.5,-239.729C248.5,-231.508 248.5,-222.78 248.5,-214.271"/>
<polygon fill="black" stroke="black" points="252,-214.048 248.5,-204.048 245,-214.048 252,-214.048"/>
</g>
<!-- 28 -->
<g id="node4" class="node"><title>28</title>
<polygon fill="none" stroke="black" points="487.5,-84 9.5,-84 9.5,-0 487.5,-0 487.5,-84"/>
<polygon fill="none" stroke="black" points="9.5,-63 9.5,-84 487.5,-84 487.5,-63 9.5,-63"/>
<text text-anchor="start" x="194" y="-69.8" font-family="Palatino Linotype,serif" font-weight="roman" font-size="14.00">&quot;Palatino&#45;Roman&quot;</text>
<polygon fill="none" stroke="black" points="9.5,-42 9.5,-63 487.5,-63 487.5,-42 9.5,-42"/>
<text text-anchor="start" x="114.5" y="-48.8" font-family="Palatino Linotype,serif" font-weight="roman" font-size="14.00">&quot;ABCDEFGHIJLKLMNOPQRSTUVWXYZ&quot;</text>
<polygon fill="none" stroke="black" points="9.5,-21 9.5,-42 487.5,-42 487.5,-21 9.5,-21"/>
<text text-anchor="start" x="149.5" y="-27.8" font-family="Palatino Linotype,serif" font-weight="roman" font-size="14.00">&quot;abcdefghijlklmnopqrstuvwxyz&quot;</text>
<polygon fill="none" stroke="black" points="9.5,7.10543e-15 9.5,-21 487.5,-21 487.5,7.10543e-15 9.5,7.10543e-15"/>
<text text-anchor="start" x="12.5" y="-6.8" font-family="Palatino Linotype,serif" font-weight="roman" font-size="14.00">&quot;ABCDEFGHIJLKLMNOPQRSTUVWXYZ\nabcdefghijlklmnopqrstuvwxyz&quot;</text>
</g>
<!-- 27&#45;&gt;28 -->
<g id="edge3" class="edge"><title>27&#45;&gt;28</title>
<path fill="none" stroke="black" d="M248.5,-119.729C248.5,-111.508 248.5,-102.78 248.5,-94.2708"/>
<polygon fill="black" stroke="black" points="252,-94.0481 248.5,-84.0481 245,-94.0481 252,-94.0481"/>
</g>
</g>
</svg>
