<?xml version="1.0" encoding="UTF-8" standalone="no"?>
<!DOCTYPE svg PUBLIC "-//W3C//DTD SVG 1.1//EN"
 "http://www.w3.org/Graphics/SVG/1.1/DTD/svg11.dtd">
<!-- Generated by graphviz version 2.38.0 (20140413.2041)
 -->
<!-- Title: test Pages: 1 -->
<svg width="504pt" height="682pt"
 viewBox="0.00 0.00 504.00 681.93" xmlns="http://www.w3.org/2000/svg" xmlns:xlink="http://www.w3.org/1999/xlink">
<g id="graph0" class="graph" transform="scale(0.393723 0.393723) rotate(0) translate(4 1728)">
<title>test</title>
<polygon fill="white" stroke="none" points="-4,4 -4,-1728 1276.09,-1728 1276.09,4 -4,4"/>
<!-- A -->
<g id="node1" class="node"><title>A</title>
<polygon fill="none" stroke="black" points="1236.09,-1580.56 1209.09,-1593 1182.09,-1580.56 1182.11,-1560.44 1236.06,-1560.44 1236.09,-1580.56"/>
<text text-anchor="middle" x="1209.09" y="-1571.3" font-family="Times,serif" font-size="14.00">A</text>
</g>
<!-- C -->
<g id="node2" class="node"><title>C</title>
<polygon fill="none" stroke="black" points="1236.09,-1526.56 1209.09,-1539 1182.09,-1526.56 1182.11,-1506.44 1236.06,-1506.44 1236.09,-1526.56"/>
<text text-anchor="middle" x="1209.09" y="-1517.3" font-family="Times,serif" font-size="14.00">C</text>
</g>
<!-- E -->
<g id="node3" class="node"><title>E</title>
<polygon fill="none" stroke="black" points="1236.09,-1472.56 1209.09,-1485 1182.09,-1472.56 1182.11,-1452.44 1236.06,-1452.44 1236.09,-1472.56"/>
<text text-anchor="middle" x="1209.09" y="-1463.3" font-family="Times,serif" font-size="14.00">E</text>
</g>
<!-- G -->
<g id="node4" class="node"><title>G</title>
<polygon fill="none" stroke="black" points="1236.09,-1418.56 1209.09,-1431 1182.09,-1418.56 1182.11,-1398.44 1236.06,-1398.44 1236.09,-1418.56"/>
<text text-anchor="middle" x="1209.09" y="-1409.3" font-family="Times,serif" font-size="14.00">G</text>
</g>
<!-- I -->
<g id="node5" class="node"><title>I</title>
<polygon fill="none" stroke="black" points="1236.09,-1364.56 1209.09,-1377 1182.09,-1364.56 1182.11,-1344.44 1236.06,-1344.44 1236.09,-1364.56"/>
<text text-anchor="middle" x="1209.09" y="-1355.3" font-family="Times,serif" font-size="14.00">I</text>
</g>
<!-- K -->
<g id="node6" class="node"><title>K</title>
<polygon fill="none" stroke="black" points="1236.09,-1310.56 1209.09,-1323 1182.09,-1310.56 1182.11,-1290.44 1236.06,-1290.44 1236.09,-1310.56"/>
<text text-anchor="middle" x="1209.09" y="-1301.3" font-family="Times,serif" font-size="14.00">K</text>
</g>
<!-- M -->
<g id="node7" class="node"><title>M</title>
<polygon fill="none" stroke="black" points="1236.09,-1256.56 1209.09,-1269 1182.09,-1256.56 1182.11,-1236.44 1236.06,-1236.44 1236.09,-1256.56"/>
<text text-anchor="middle" x="1209.09" y="-1247.3" font-family="Times,serif" font-size="14.00">M</text>
</g>
<!-- O -->
<g id="node8" class="node"><title>O</title>
<polygon fill="none" stroke="black" points="1236.09,-1202.56 1209.09,-1215 1182.09,-1202.56 1182.11,-1182.44 1236.06,-1182.44 1236.09,-1202.56"/>
<text text-anchor="middle" x="1209.09" y="-1193.3" font-family="Times,serif" font-size="14.00">O</text>
</g>
<!-- Q -->
<g id="node9" class="node"><title>Q</title>
<polygon fill="none" stroke="black" points="1236.09,-1148.56 1209.09,-1161 1182.09,-1148.56 1182.11,-1128.44 1236.06,-1128.44 1236.09,-1148.56"/>
<text text-anchor="middle" x="1209.09" y="-1139.3" font-family="Times,serif" font-size="14.00">Q</text>
</g>
<!-- S -->
<g id="node10" class="node"><title>S</title>
<polygon fill="none" stroke="black" points="1236.09,-1094.56 1209.09,-1107 1182.09,-1094.56 1182.11,-1074.44 1236.06,-1074.44 1236.09,-1094.56"/>
<text text-anchor="middle" x="1209.09" y="-1085.3" font-family="Times,serif" font-size="14.00">S</text>
</g>
<!-- U -->
<g id="node11" class="node"><title>U</title>
<polygon fill="none" stroke="black" points="1236.09,-1040.56 1209.09,-1053 1182.09,-1040.56 1182.11,-1020.44 1236.06,-1020.44 1236.09,-1040.56"/>
<text text-anchor="middle" x="1209.09" y="-1031.3" font-family="Times,serif" font-size="14.00">U</text>
</g>
<!-- W -->
<g id="node12" class="node"><title>W</title>
<polygon fill="none" stroke="black" points="1236.09,-986.562 1209.09,-999 1182.09,-986.562 1182.11,-966.438 1236.06,-966.438 1236.09,-986.562"/>
<text text-anchor="middle" x="1209.09" y="-977.3" font-family="Times,serif" font-size="14.00">W</text>
</g>
<!-- Y -->
<g id="node13" class="node"><title>Y</title>
<polygon fill="none" stroke="black" points="1236.09,-932.562 1209.09,-945 1182.09,-932.562 1182.11,-912.438 1236.06,-912.438 1236.09,-932.562"/>
<text text-anchor="middle" x="1209.09" y="-923.3" font-family="Times,serif" font-size="14.00">Y</text>
</g>
<!-- B -->
<g id="node14" class="node"><title>B</title>
<polygon fill="none" stroke="black" points="1182.09,-867.438 1209.09,-855 1236.09,-867.438 1236.06,-887.562 1182.11,-887.562 1182.09,-867.438"/>
<text text-anchor="middle" x="1209.09" y="-869.3" font-family="Times,serif" font-size="14.00">B</text>
</g>
<!-- D -->
<g id="node15" class="node"><title>D</title>
<polygon fill="none" stroke="black" points="1182.09,-813.438 1209.09,-801 1236.09,-813.438 1236.06,-833.562 1182.11,-833.562 1182.09,-813.438"/>
<text text-anchor="middle" x="1209.09" y="-815.3" font-family="Times,serif" font-size="14.00">D</text>
</g>
<!-- F -->
<g id="node16" class="node"><title>F</title>
<polygon fill="none" stroke="black" points="1182.09,-759.438 1209.09,-747 1236.09,-759.438 1236.06,-779.562 1182.11,-779.562 1182.09,-759.438"/>
<text text-anchor="middle" x="1209.09" y="-761.3" font-family="Times,serif" font-size="14.00">F</text>
</g>
<!-- H -->
<g id="node17" class="node"><title>H</title>
<polygon fill="none" stroke="black" points="1182.09,-705.438 1209.09,-693 1236.09,-705.438 1236.06,-725.562 1182.11,-725.562 1182.09,-705.438"/>
<text text-anchor="middle" x="1209.09" y="-707.3" font-family="Times,serif" font-size="14.00">H</text>
</g>
<!-- J -->
<g id="node18" class="node"><title>J</title>
<polygon fill="none" stroke="black" points="1182.09,-651.438 1209.09,-639 1236.09,-651.438 1236.06,-671.562 1182.11,-671.562 1182.09,-651.438"/>
<text text-anchor="middle" x="1209.09" y="-653.3" font-family="Times,serif" font-size="14.00">J</text>
</g>
<!-- L -->
<g id="node19" class="node"><title>L</title>
<polygon fill="none" stroke="black" points="1182.09,-597.438 1209.09,-585 1236.09,-597.438 1236.06,-617.562 1182.11,-617.562 1182.09,-597.438"/>
<text text-anchor="middle" x="1209.09" y="-599.3" font-family="Times,serif" font-size="14.00">L</text>
</g>
<!-- N -->
<g id="node20" class="node"><title>N</title>
<polygon fill="none" stroke="black" points="1182.09,-543.438 1209.09,-531 1236.09,-543.438 1236.06,-563.562 1182.11,-563.562 1182.09,-543.438"/>
<text text-anchor="middle" x="1209.09" y="-545.3" font-family="Times,serif" font-size="14.00">N</text>
</g>
<!-- P -->
<g id="node21" class="node"><title>P</title>
<polygon fill="none" stroke="black" points="1182.09,-489.438 1209.09,-477 1236.09,-489.438 1236.06,-509.562 1182.11,-509.562 1182.09,-489.438"/>
<text text-anchor="middle" x="1209.09" y="-491.3" font-family="Times,serif" font-size="14.00">P</text>
</g>
<!-- R -->
<g id="node22" class="node"><title>R</title>
<polygon fill="none" stroke="black" points="1182.09,-435.438 1209.09,-423 1236.09,-435.438 1236.06,-455.562 1182.11,-455.562 1182.09,-435.438"/>
<text text-anchor="middle" x="1209.09" y="-437.3" font-family="Times,serif" font-size="14.00">R</text>
</g>
<!-- T -->
<g id="node23" class="node"><title>T</title>
<polygon fill="none" stroke="black" points="1182.09,-381.438 1209.09,-369 1236.09,-381.438 1236.06,-401.562 1182.11,-401.562 1182.09,-381.438"/>
<text text-anchor="middle" x="1209.09" y="-383.3" font-family="Times,serif" font-size="14.00">T</text>
</g>
<!-- V -->
<g id="node24" class="node"><title>V</title>
<polygon fill="none" stroke="black" points="1182.09,-327.438 1209.09,-315 1236.09,-327.438 1236.06,-347.562 1182.11,-347.562 1182.09,-327.438"/>
<text text-anchor="middle" x="1209.09" y="-329.3" font-family="Times,serif" font-size="14.00">V</text>
</g>
<!-- X -->
<g id="node25" class="node"><title>X</title>
<polygon fill="none" stroke="black" points="1182.09,-273.438 1209.09,-261 1236.09,-273.438 1236.06,-293.562 1182.11,-293.562 1182.09,-273.438"/>
<text text-anchor="middle" x="1209.09" y="-275.3" font-family="Times,serif" font-size="14.00">X</text>
</g>
<!-- Z -->
<g id="node26" class="node"><title>Z</title>
<polygon fill="none" stroke="black" points="1182.09,-219.438 1209.09,-207 1236.09,-219.438 1236.06,-239.562 1182.11,-239.562 1182.09,-219.438"/>
<text text-anchor="middle" x="1209.09" y="-221.3" font-family="Times,serif" font-size="14.00">Z</text>
</g>
<!-- Parallelogram -->
<g id="node27" class="node"><title>Parallelogram</title>
<polygon fill="none" stroke="black" points="824.923,-983 559.526,-983 491.253,-817 756.65,-817 824.923,-983"/>
<text text-anchor="middle" x="658.088" y="-926.3" font-family="Times,serif" font-size="14.00">This is a test</text>
<text text-anchor="middle" x="658.088" y="-911.3" font-family="Times,serif" font-size="14.00">of a multiline</text>
<text text-anchor="middle" x="658.088" y="-896.3" font-family="Times,serif" font-size="14.00">label in an</text>
<text text-anchor="middle" x="658.088" y="-881.3" font-family="Times,serif" font-size="14.00">parallelogram with approx</text>
<text text-anchor="middle" x="658.088" y="-866.3" font-family="Times,serif" font-size="14.00">square aspect</text>
</g>
<!-- Parallelogram&#45;&gt;A -->
<g id="edge1" class="edge"><title>Parallelogram&#45;&gt;A</title>
<path fill="none" stroke="black" d="M820.599,-983.222C824.025,-986.081 827.356,-989.007 830.57,-992 1044.54,-1191.22 1001.65,-1317.97 1182.09,-1548 1183.32,-1549.57 1184.64,-1551.16 1185.99,-1552.73"/>
<polygon fill="black" stroke="black" points="1183.62,-1555.33 1192.95,-1560.35 1188.79,-1550.61 1183.62,-1555.33"/>
</g>
<!-- Parallelogram&#45;&gt;C -->
<g id="edge3" class="edge"><title>Parallelogram&#45;&gt;C</title>
<path fill="none" stroke="black" d="M820.009,-983.107C823.632,-986.007 827.16,-988.971 830.57,-992 1034.23,-1172.86 1008.98,-1283.71 1182.09,-1494 1183.36,-1495.54 1184.7,-1497.11 1186.08,-1498.66"/>
<polygon fill="black" stroke="black" points="1183.73,-1501.28 1193.08,-1506.25 1188.87,-1496.53 1183.73,-1501.28"/>
</g>
<!-- Parallelogram&#45;&gt;E -->
<g id="edge5" class="edge"><title>Parallelogram&#45;&gt;E</title>
<path fill="none" stroke="black" d="M819.381,-983.046C823.212,-985.971 826.949,-988.957 830.57,-992 1024.31,-1154.84 1015.98,-1249.05 1182.09,-1440 1183.55,-1441.68 1185.08,-1443.38 1186.64,-1445.09"/>
<polygon fill="black" stroke="black" points="1184.11,-1447.51 1193.51,-1452.4 1189.21,-1442.71 1184.11,-1447.51"/>
</g>
<!-- Parallelogram&#45;&gt;G -->
<g id="edge7" class="edge"><title>Parallelogram&#45;&gt;G</title>
<path fill="none" stroke="black" d="M818.709,-983.053C822.76,-985.984 826.722,-988.968 830.57,-992 1014.9,-1137.24 1022.55,-1213.89 1182.09,-1386 1183.6,-1387.63 1185.17,-1389.3 1186.75,-1390.98"/>
<polygon fill="black" stroke="black" points="1184.25,-1393.42 1193.68,-1398.24 1189.31,-1388.59 1184.25,-1393.42"/>
</g>
<!-- Parallelogram&#45;&gt;I -->
<g id="edge9" class="edge"><title>Parallelogram&#45;&gt;I</title>
<path fill="none" stroke="black" d="M818,-983.131C822.282,-986.049 826.481,-989.007 830.57,-992 870.335,-1021.11 1110.98,-1261.59 1185.86,-1336.68"/>
<polygon fill="black" stroke="black" points="1183.83,-1339.6 1193.37,-1344.22 1188.79,-1334.66 1183.83,-1339.6"/>
</g>
<!-- Parallelogram&#45;&gt;K -->
<g id="edge11" class="edge"><title>Parallelogram&#45;&gt;K</title>
<path fill="none" stroke="black" d="M816.819,-983.009C821.491,-985.982 826.085,-988.982 830.57,-992 974.6,-1088.92 1128.7,-1230.02 1185.45,-1283.43"/>
<polygon fill="black" stroke="black" points="1183.12,-1286.05 1192.8,-1290.38 1187.93,-1280.96 1183.12,-1286.05"/>
</g>
<!-- Parallelogram&#45;&gt;M -->
<g id="edge13" class="edge"><title>Parallelogram&#45;&gt;M</title>
<path fill="none" stroke="black" d="M815.574,-983.027C820.654,-986.018 825.664,-989.013 830.57,-992 965.44,-1074.11 1118.32,-1184.75 1180.05,-1230.2"/>
<polygon fill="black" stroke="black" points="1178.02,-1233.05 1188.14,-1236.17 1182.17,-1227.41 1178.02,-1233.05"/>
</g>
<!-- Parallelogram&#45;&gt;O -->
<g id="edge15" class="edge"><title>Parallelogram&#45;&gt;O</title>
<path fill="none" stroke="black" d="M814.27,-983.21C819.772,-986.174 825.218,-989.111 830.57,-992 956.876,-1060.17 1106.63,-1141.7 1173.19,-1177.98"/>
<polygon fill="black" stroke="black" points="1171.57,-1181.08 1182.02,-1182.79 1174.92,-1174.93 1171.57,-1181.08"/>
</g>
<!-- Parallelogram&#45;&gt;Q -->
<g id="edge17" class="edge"><title>Parallelogram&#45;&gt;Q</title>
<path fill="none" stroke="black" d="M820.467,-971.43C943.133,-1025.72 1102.33,-1096.19 1172.36,-1127.19"/>
<polygon fill="black" stroke="black" points="1171.08,-1130.45 1181.64,-1131.29 1173.91,-1124.05 1171.08,-1130.45"/>
</g>
<!-- Parallelogram&#45;&gt;S -->
<g id="edge19" class="edge"><title>Parallelogram&#45;&gt;S</title>
<path fill="none" stroke="black" d="M812.745,-952.898C936.354,-995.452 1100.81,-1052.07 1172.34,-1076.69"/>
<polygon fill="black" stroke="black" points="1171.2,-1080 1181.8,-1079.95 1173.48,-1073.39 1171.2,-1080"/>
</g>
<!-- Parallelogram&#45;&gt;U -->
<g id="edge21" class="edge"><title>Parallelogram&#45;&gt;U</title>
<path fill="none" stroke="black" d="M805.849,-936.089C929.973,-966.611 1098.94,-1008.16 1172,-1026.13"/>
<polygon fill="black" stroke="black" points="1171.52,-1029.61 1182.06,-1028.6 1173.19,-1022.81 1171.52,-1029.61"/>
</g>
<!-- Parallelogram&#45;&gt;W -->
<g id="edge23" class="edge"><title>Parallelogram&#45;&gt;W</title>
<path fill="none" stroke="black" d="M799.4,-920.702C923.851,-939.063 1097.11,-964.626 1171.63,-975.621"/>
<polygon fill="black" stroke="black" points="1171.49,-979.138 1181.89,-977.135 1172.51,-972.213 1171.49,-979.138"/>
</g>
<!-- Parallelogram&#45;&gt;Y -->
<g id="edge25" class="edge"><title>Parallelogram&#45;&gt;Y</title>
<path fill="none" stroke="black" d="M793.74,-906.622C918.405,-912.753 1095.58,-921.467 1171.38,-925.195"/>
<polygon fill="black" stroke="black" points="1171.65,-928.712 1181.81,-925.708 1172,-921.721 1171.65,-928.712"/>
</g>
<!-- Parallelogram&#45;&gt;B -->
<g id="edge2" class="edge"><title>Parallelogram&#45;&gt;B</title>
<path fill="none" stroke="black" d="M788.498,-893.636C913.693,-887.478 1095.39,-878.542 1171.94,-874.778"/>
<polygon fill="black" stroke="black" points="1172.21,-878.269 1182.03,-874.282 1171.87,-871.277 1172.21,-878.269"/>
</g>
<!-- Parallelogram&#45;&gt;D -->
<g id="edge4" class="edge"><title>Parallelogram&#45;&gt;D</title>
<path fill="none" stroke="black" d="M783.322,-881.67C908.542,-863.195 1094.06,-835.823 1171.78,-824.358"/>
<polygon fill="black" stroke="black" points="1172.63,-827.77 1182.01,-822.848 1171.6,-820.845 1172.63,-827.77"/>
</g>
<!-- Parallelogram&#45;&gt;F -->
<g id="edge6" class="edge"><title>Parallelogram&#45;&gt;F</title>
<path fill="none" stroke="black" d="M778.89,-870.54C904.348,-839.69 1093.82,-793.099 1172.2,-773.826"/>
<polygon fill="black" stroke="black" points="1173.19,-777.186 1182.07,-771.399 1171.52,-770.388 1173.19,-777.186"/>
</g>
<!-- Parallelogram&#45;&gt;H -->
<g id="edge8" class="edge"><title>Parallelogram&#45;&gt;H</title>
<path fill="none" stroke="black" d="M774.511,-860.264C899.98,-817.07 1093.15,-750.567 1172.35,-723.302"/>
<polygon fill="black" stroke="black" points="1173.56,-726.589 1181.87,-720.024 1171.28,-719.97 1173.56,-726.589"/>
</g>
<!-- Parallelogram&#45;&gt;J -->
<g id="edge10" class="edge"><title>Parallelogram&#45;&gt;J</title>
<path fill="none" stroke="black" d="M770.517,-850.679C895.852,-795.203 1092.34,-708.235 1172.37,-672.81"/>
<polygon fill="black" stroke="black" points="1174.26,-675.803 1181.98,-668.555 1171.42,-669.402 1174.26,-675.803"/>
</g>
<!-- Parallelogram&#45;&gt;L -->
<g id="edge12" class="edge"><title>Parallelogram&#45;&gt;L</title>
<path fill="none" stroke="black" d="M767.074,-842.172C788.142,-830.86 810.056,-819.073 830.57,-808 956.876,-739.826 1106.63,-658.3 1173.19,-622.024"/>
<polygon fill="black" stroke="black" points="1174.92,-625.071 1182.02,-617.212 1171.57,-618.924 1174.92,-625.071"/>
</g>
<!-- Parallelogram&#45;&gt;N -->
<g id="edge14" class="edge"><title>Parallelogram&#45;&gt;N</title>
<path fill="none" stroke="black" d="M768.038,-843.853C789.022,-832.394 810.658,-820.122 830.57,-808 965.44,-725.891 1118.32,-615.252 1180.05,-569.805"/>
<polygon fill="black" stroke="black" points="1182.17,-572.588 1188.14,-563.835 1178.02,-566.955 1182.17,-572.588"/>
</g>
<!-- Parallelogram&#45;&gt;P -->
<g id="edge16" class="edge"><title>Parallelogram&#45;&gt;P</title>
<path fill="none" stroke="black" d="M768.499,-845.533C789.547,-833.881 811.089,-821.109 830.57,-808 974.6,-711.078 1128.7,-569.975 1185.45,-516.565"/>
<polygon fill="black" stroke="black" points="1187.93,-519.035 1192.8,-509.625 1183.12,-513.946 1187.93,-519.035"/>
</g>
<!-- Parallelogram&#45;&gt;R -->
<g id="edge18" class="edge"><title>Parallelogram&#45;&gt;R</title>
<path fill="none" stroke="black" d="M769.348,-846.742C790.324,-834.988 811.623,-821.869 830.57,-808 870.335,-778.895 1110.98,-538.415 1185.86,-463.317"/>
<polygon fill="black" stroke="black" points="1188.79,-465.338 1193.37,-455.785 1183.83,-460.396 1188.79,-465.338"/>
</g>
<!-- Parallelogram&#45;&gt;T -->
<g id="edge20" class="edge"><title>Parallelogram&#45;&gt;T</title>
<path fill="none" stroke="black" d="M769.7,-848.055C790.756,-836.148 811.994,-822.637 830.57,-808 1014.9,-662.755 1022.55,-586.107 1182.09,-414 1183.6,-412.371 1185.17,-410.697 1186.75,-409.018"/>
<polygon fill="black" stroke="black" points="1189.31,-411.409 1193.68,-401.758 1184.25,-406.576 1189.31,-411.409"/>
</g>
<!-- Parallelogram&#45;&gt;V -->
<g id="edge22" class="edge"><title>Parallelogram&#45;&gt;V</title>
<path fill="none" stroke="black" d="M769.997,-849.229C791.141,-837.187 812.337,-823.325 830.57,-808 1024.31,-645.159 1015.98,-550.952 1182.09,-360 1183.55,-358.325 1185.08,-356.616 1186.64,-354.913"/>
<polygon fill="black" stroke="black" points="1189.21,-357.285 1193.51,-347.601 1184.11,-352.491 1189.21,-357.285"/>
</g>
<!-- Parallelogram&#45;&gt;X -->
<g id="edge24" class="edge"><title>Parallelogram&#45;&gt;X</title>
<path fill="none" stroke="black" d="M770.664,-850.001C791.755,-837.898 812.76,-823.816 830.57,-808 1034.23,-627.143 1008.98,-516.29 1182.09,-306 1183.36,-304.455 1184.7,-302.892 1186.08,-301.337"/>
<polygon fill="black" stroke="black" points="1188.87,-303.475 1193.08,-293.754 1183.73,-298.724 1188.87,-303.475"/>
</g>
<!-- Parallelogram&#45;&gt;Z -->
<g id="edge26" class="edge"><title>Parallelogram&#45;&gt;Z</title>
<path fill="none" stroke="black" d="M770.811,-850.913C792.006,-838.701 813.014,-824.346 830.57,-808 1044.54,-608.779 1001.65,-482.031 1182.09,-252 1183.32,-250.426 1184.64,-248.84 1185.99,-247.268"/>
<polygon fill="black" stroke="black" points="1188.79,-249.392 1192.95,-239.645 1183.62,-244.674 1188.79,-249.392"/>
</g>
<!-- Octagon -->
<g id="node31" class="node"><title>Octagon</title>
<polygon fill="none" stroke="black" points="756.022,-708.676 756.022,-761.324 698.654,-798.551 617.522,-798.551 560.154,-761.324 560.154,-708.676 617.522,-671.449 698.654,-671.449 756.022,-708.676"/>
<text text-anchor="middle" x="658.088" y="-761.3" font-family="Times,serif" font-size="14.00">This is a test</text>
<text text-anchor="middle" x="658.088" y="-746.3" font-family="Times,serif" font-size="14.00">of a multiline</text>
<text text-anchor="middle" x="658.088" y="-731.3" font-family="Times,serif" font-size="14.00">label in an</text>
<text text-anchor="middle" x="658.088" y="-716.3" font-family="Times,serif" font-size="14.00">octagon with approx</text>
<text text-anchor="middle" x="658.088" y="-701.3" font-family="Times,serif" font-size="14.00">square aspect</text>
</g>
<!-- Parallelogram&#45;&gt;Octagon -->
<g id="edge28" class="edge"><title>Parallelogram&#45;&gt;Octagon</title>
<path fill="none" stroke="black" d="M731.559,-816.859C731.453,-809.215 729.455,-801.57 725.564,-793.925"/>
<polygon fill="black" stroke="black" points="728.302,-791.69 720.126,-784.951 722.315,-795.318 728.302,-791.69"/>
</g>
<!-- Parallelogram&#45;&gt;Octagon -->
<g id="edge30" class="edge"><title>Parallelogram&#45;&gt;Octagon</title>
<path fill="none" stroke="black" d="M725.679,-816.727C725.575,-809.962 724.108,-803.197 721.277,-796.432"/>
<polygon fill="black" stroke="black" points="724.233,-794.525 716.571,-787.207 717.997,-797.705 724.233,-794.525"/>
</g>
<!-- Parallelogram&#45;&gt;Octagon -->
<g id="edge32" class="edge"><title>Parallelogram&#45;&gt;Octagon</title>
<path fill="none" stroke="black" d="M719.801,-816.665C719.711,-810.715 718.657,-804.764 716.641,-798.814"/>
<polygon fill="black" stroke="black" points="719.803,-797.305 712.679,-789.463 713.358,-800.036 719.803,-797.305"/>
</g>
<!-- Parallelogram&#45;&gt;Octagon -->
<g id="edge34" class="edge"><title>Parallelogram&#45;&gt;Octagon</title>
<path fill="none" stroke="black" d="M713.925,-816.75C713.864,-811.796 713.199,-806.843 711.93,-801.889"/>
<polygon fill="black" stroke="black" points="715.235,-800.738 708.745,-792.363 708.596,-802.957 715.235,-800.738"/>
</g>
<!-- Parallelogram&#45;&gt;Octagon -->
<g id="edge36" class="edge"><title>Parallelogram&#45;&gt;Octagon</title>
<path fill="none" stroke="black" d="M708.046,-816.692C707.999,-812.727 707.606,-808.762 706.867,-804.797"/>
<polygon fill="black" stroke="black" points="710.21,-803.745 704.315,-794.941 703.433,-805.499 710.21,-803.745"/>
</g>
<!-- Parallelogram&#45;&gt;Octagon -->
<g id="edge38" class="edge"><title>Parallelogram&#45;&gt;Octagon</title>
<path fill="none" stroke="black" d="M702.17,-816.861C702.146,-813.939 701.956,-811.018 701.6,-808.097"/>
<polygon fill="black" stroke="black" points="705.022,-807.355 699.751,-798.164 698.141,-808.636 705.022,-807.355"/>
</g>
<!-- Parallelogram&#45;&gt;Octagon -->
<g id="edge40" class="edge"><title>Parallelogram&#45;&gt;Octagon</title>
<path fill="none" stroke="black" d="M696.294,-816.991C696.278,-814.245 696.135,-811.499 695.866,-808.752"/>
<polygon fill="black" stroke="black" points="699.316,-808.159 694.334,-798.809 692.397,-809.225 699.316,-808.159"/>
</g>
<!-- Parallelogram&#45;&gt;Octagon -->
<g id="edge42" class="edge"><title>Parallelogram&#45;&gt;Octagon</title>
<path fill="none" stroke="black" d="M690.416,-816.991C690.403,-814.245 690.282,-811.499 690.054,-808.752"/>
<polygon fill="black" stroke="black" points="693.521,-808.272 688.758,-798.809 686.579,-809.177 693.521,-808.272"/>
</g>
<!-- Parallelogram&#45;&gt;Octagon -->
<g id="edge44" class="edge"><title>Parallelogram&#45;&gt;Octagon</title>
<path fill="none" stroke="black" d="M684.538,-816.991C684.527,-814.245 684.428,-811.499 684.242,-808.752"/>
<polygon fill="black" stroke="black" points="687.722,-808.381 683.181,-798.809 680.761,-809.123 687.722,-808.381"/>
</g>
<!-- Parallelogram&#45;&gt;Octagon -->
<g id="edge46" class="edge"><title>Parallelogram&#45;&gt;Octagon</title>
<path fill="none" stroke="black" d="M678.66,-816.991C678.652,-814.34 678.58,-811.688 678.445,-809.036"/>
<polygon fill="black" stroke="black" points="681.911,-808.489 677.605,-798.809 674.935,-809.061 681.911,-808.489"/>
</g>
<!-- Parallelogram&#45;&gt;Octagon -->
<g id="edge48" class="edge"><title>Parallelogram&#45;&gt;Octagon</title>
<path fill="none" stroke="black" d="M672.782,-816.991C672.777,-814.34 672.725,-811.688 672.628,-809.036"/>
<polygon fill="black" stroke="black" points="676.108,-808.587 672.029,-798.809 669.12,-808.996 676.108,-808.587"/>
</g>
<!-- Parallelogram&#45;&gt;Octagon -->
<g id="edge50" class="edge"><title>Parallelogram&#45;&gt;Octagon</title>
<path fill="none" stroke="black" d="M666.905,-816.991C666.901,-814.34 666.87,-811.688 666.812,-809.036"/>
<polygon fill="black" stroke="black" points="670.302,-808.679 666.452,-798.809 663.306,-808.925 670.302,-808.679"/>
</g>
<!-- Parallelogram&#45;&gt;Octagon -->
<g id="edge52" class="edge"><title>Parallelogram&#45;&gt;Octagon</title>
<path fill="none" stroke="black" d="M661.027,-816.991C661.026,-814.34 661.015,-811.688 660.996,-809.036"/>
<polygon fill="black" stroke="black" points="664.493,-808.767 660.876,-798.809 657.494,-808.849 664.493,-808.767"/>
</g>
<!-- Parallelogram&#45;&gt;Octagon -->
<g id="edge54" class="edge"><title>Parallelogram&#45;&gt;Octagon</title>
<path fill="none" stroke="black" d="M655.149,-816.991C655.15,-814.34 655.161,-811.688 655.18,-809.036"/>
<polygon fill="black" stroke="black" points="658.682,-808.849 655.3,-798.809 651.683,-808.767 658.682,-808.849"/>
</g>
<!-- Parallelogram&#45;&gt;Octagon -->
<g id="edge56" class="edge"><title>Parallelogram&#45;&gt;Octagon</title>
<path fill="none" stroke="black" d="M649.271,-816.991C649.275,-814.34 649.306,-811.688 649.364,-809.036"/>
<polygon fill="black" stroke="black" points="652.87,-808.925 649.724,-798.809 645.874,-808.679 652.87,-808.925"/>
</g>
<!-- Parallelogram&#45;&gt;Octagon -->
<g id="edge58" class="edge"><title>Parallelogram&#45;&gt;Octagon</title>
<path fill="none" stroke="black" d="M643.393,-816.991C643.399,-814.34 643.451,-811.688 643.548,-809.036"/>
<polygon fill="black" stroke="black" points="647.056,-808.996 644.147,-798.809 640.068,-808.587 647.056,-808.996"/>
</g>
<!-- Parallelogram&#45;&gt;Octagon -->
<g id="edge60" class="edge"><title>Parallelogram&#45;&gt;Octagon</title>
<path fill="none" stroke="black" d="M637.516,-816.991C637.524,-814.34 637.596,-811.688 637.731,-809.036"/>
<polygon fill="black" stroke="black" points="641.241,-809.061 638.571,-798.809 634.265,-808.489 641.241,-809.061"/>
</g>
<!-- Parallelogram&#45;&gt;Octagon -->
<g id="edge62" class="edge"><title>Parallelogram&#45;&gt;Octagon</title>
<path fill="none" stroke="black" d="M631.638,-816.991C631.649,-814.245 631.748,-811.499 631.934,-808.752"/>
<polygon fill="black" stroke="black" points="635.414,-809.123 632.995,-798.809 628.454,-808.381 635.414,-809.123"/>
</g>
<!-- Parallelogram&#45;&gt;Octagon -->
<g id="edge64" class="edge"><title>Parallelogram&#45;&gt;Octagon</title>
<path fill="none" stroke="black" d="M625.76,-816.991C625.773,-814.245 625.894,-811.499 626.122,-808.752"/>
<polygon fill="black" stroke="black" points="629.597,-809.177 627.418,-798.809 622.655,-808.272 629.597,-809.177"/>
</g>
<!-- Parallelogram&#45;&gt;Octagon -->
<g id="edge66" class="edge"><title>Parallelogram&#45;&gt;Octagon</title>
<path fill="none" stroke="black" d="M619.882,-816.991C619.898,-814.245 620.041,-811.499 620.31,-808.752"/>
<polygon fill="black" stroke="black" points="623.779,-809.225 621.842,-798.809 616.86,-808.159 623.779,-809.225"/>
</g>
<!-- Parallelogram&#45;&gt;Octagon -->
<g id="edge68" class="edge"><title>Parallelogram&#45;&gt;Octagon</title>
<path fill="none" stroke="black" d="M614.005,-816.861C614.03,-813.939 614.22,-811.018 614.576,-808.097"/>
<polygon fill="black" stroke="black" points="618.035,-808.636 616.425,-798.164 611.153,-807.355 618.035,-808.636"/>
</g>
<!-- Parallelogram&#45;&gt;Octagon -->
<g id="edge70" class="edge"><title>Parallelogram&#45;&gt;Octagon</title>
<path fill="none" stroke="black" d="M608.13,-816.692C608.177,-812.727 608.57,-808.762 609.309,-804.797"/>
<polygon fill="black" stroke="black" points="612.743,-805.499 611.86,-794.941 605.966,-803.745 612.743,-805.499"/>
</g>
<!-- Parallelogram&#45;&gt;Octagon -->
<g id="edge72" class="edge"><title>Parallelogram&#45;&gt;Octagon</title>
<path fill="none" stroke="black" d="M602.251,-816.75C602.312,-811.796 602.977,-806.843 604.246,-801.889"/>
<polygon fill="black" stroke="black" points="607.58,-802.957 607.431,-792.363 600.941,-800.738 607.58,-802.957"/>
</g>
<!-- Parallelogram&#45;&gt;Octagon -->
<g id="edge74" class="edge"><title>Parallelogram&#45;&gt;Octagon</title>
<path fill="none" stroke="black" d="M596.375,-816.665C596.465,-810.715 597.519,-804.764 599.535,-798.814"/>
<polygon fill="black" stroke="black" points="602.818,-800.036 603.497,-789.463 596.373,-797.305 602.818,-800.036"/>
</g>
<!-- Parallelogram&#45;&gt;Octagon -->
<g id="edge76" class="edge"><title>Parallelogram&#45;&gt;Octagon</title>
<path fill="none" stroke="black" d="M590.497,-816.727C590.601,-809.962 592.068,-803.197 594.899,-796.432"/>
<polygon fill="black" stroke="black" points="598.178,-797.705 599.605,-787.207 591.943,-794.525 598.178,-797.705"/>
</g>
<!-- Parallelogram&#45;&gt;Octagon -->
<g id="edge78" class="edge"><title>Parallelogram&#45;&gt;Octagon</title>
<path fill="none" stroke="black" d="M584.617,-816.859C584.723,-809.215 586.721,-801.57 590.612,-793.925"/>
<polygon fill="black" stroke="black" points="593.861,-795.318 596.05,-784.951 587.874,-791.69 593.861,-795.318"/>
</g>
<!-- a &#45;&#45;&#45;&#45;&#45; long thin parallelogram -->
<g id="node28" class="node"><title>a &#45;&#45;&#45;&#45;&#45; long thin parallelogram</title>
<polygon fill="none" stroke="black" points="830.552,-1037 556.2,-1037 485.624,-1001 759.976,-1001 830.552,-1037"/>
<text text-anchor="middle" x="658.088" y="-1015.3" font-family="Times,serif" font-size="14.00">a &#45;&#45;&#45;&#45;&#45; long thin parallelogram</text>
</g>
<!-- xx -->
<g id="node29" class="node"><title>xx</title>
<polygon fill="none" stroke="black" points="686.073,-1091 641.555,-1091 630.103,-1055 674.621,-1055 686.073,-1091"/>
<text text-anchor="middle" x="658.088" y="-1069.3" font-family="Times,serif" font-size="14.00">m</text>
</g>
<!-- yy -->
<g id="node30" class="node"><title>yy</title>
<polygon fill="none" stroke="black" points="686.073,-1305 641.555,-1305 630.103,-1109 674.621,-1109 686.073,-1305"/>
<text text-anchor="middle" x="658.088" y="-1240.8" font-family="Times,serif" font-size="14.00">a</text>
<text text-anchor="middle" x="658.088" y="-1225.8" font-family="Times,serif" font-size="14.00">b</text>
<text text-anchor="middle" x="658.088" y="-1210.8" font-family="Times,serif" font-size="14.00">c</text>
<text text-anchor="middle" x="658.088" y="-1195.8" font-family="Times,serif" font-size="14.00">d</text>
<text text-anchor="middle" x="658.088" y="-1180.8" font-family="Times,serif" font-size="14.00">e</text>
<text text-anchor="middle" x="658.088" y="-1165.8" font-family="Times,serif" font-size="14.00">f</text>
</g>
<!-- zz -->
<g id="node32" class="node"><title>zz</title>
<polygon fill="none" stroke="black" points="686.073,-1359 641.555,-1359 630.103,-1323 674.621,-1323 686.073,-1359"/>
<text text-anchor="middle" x="658.088" y="-1337.3" font-family="Times,serif" font-size="14.00">m</text>
</g>
<!-- qq -->
<g id="node33" class="node"><title>qq</title>
<polygon fill="none" stroke="black" points="686.073,-1573 641.555,-1573 630.103,-1377 674.621,-1377 686.073,-1573"/>
<text text-anchor="middle" x="658.088" y="-1508.8" font-family="Times,serif" font-size="14.00">a</text>
<text text-anchor="middle" x="658.088" y="-1493.8" font-family="Times,serif" font-size="14.00">b</text>
<text text-anchor="middle" x="658.088" y="-1478.8" font-family="Times,serif" font-size="14.00">c</text>
<text text-anchor="middle" x="658.088" y="-1463.8" font-family="Times,serif" font-size="14.00">d</text>
<text text-anchor="middle" x="658.088" y="-1448.8" font-family="Times,serif" font-size="14.00">e</text>
<text text-anchor="middle" x="658.088" y="-1433.8" font-family="Times,serif" font-size="14.00">f</text>
</g>
<!-- a -->
<g id="node34" class="node"><title>a</title>
<polygon fill="none" stroke="black" points="85.088,-1724 55.2929,-1689.5 114.883,-1689.5 85.088,-1724"/>
<text text-anchor="middle" x="85.088" y="-1697.3" font-family="Times,serif" font-size="14.00">a</text>
</g>
<!-- a&#45;&gt;Parallelogram -->
<g id="edge27" class="edge"><title>a&#45;&gt;Parallelogram</title>
<path fill="none" stroke="black" d="M101.302,-1689.25C108.004,-1683.59 115.66,-1676.43 121.485,-1669 332.197,-1400.07 243.898,-1233.46 485.606,-992 500.293,-977.329 517.808,-964.4 535.949,-953.223"/>
<polygon fill="black" stroke="black" points="538.106,-956.011 544.894,-947.876 534.515,-950.002 538.106,-956.011"/>
</g>
<!-- c -->
<g id="node35" class="node"><title>c</title>
<polygon fill="none" stroke="black" points="85.088,-1660 55.2929,-1625.5 114.883,-1625.5 85.088,-1660"/>
<text text-anchor="middle" x="85.088" y="-1633.3" font-family="Times,serif" font-size="14.00">c</text>
</g>
<!-- c&#45;&gt;Parallelogram -->
<g id="edge31" class="edge"><title>c&#45;&gt;Parallelogram</title>
<path fill="none" stroke="black" d="M100.807,-1625.43C107.56,-1619.7 115.398,-1612.44 121.485,-1605 322.183,-1359.77 256.707,-1211.14 485.606,-992 500.497,-977.745 518.03,-965.058 536.102,-954.003"/>
<polygon fill="black" stroke="black" points="538.201,-956.827 545.007,-948.707 534.623,-950.81 538.201,-956.827"/>
</g>
<!-- e -->
<g id="node36" class="node"><title>e</title>
<polygon fill="none" stroke="black" points="85.088,-1596 55.2929,-1561.5 114.883,-1561.5 85.088,-1596"/>
<text text-anchor="middle" x="85.088" y="-1569.3" font-family="Times,serif" font-size="14.00">e</text>
</g>
<!-- e&#45;&gt;Parallelogram -->
<g id="edge35" class="edge"><title>e&#45;&gt;Parallelogram</title>
<path fill="none" stroke="black" d="M100.643,-1561.29C107.36,-1555.54 115.216,-1548.28 121.485,-1541 312.488,-1319.09 269.152,-1189.16 485.606,-992 500.846,-978.118 518.562,-965.628 536.709,-954.654"/>
<polygon fill="black" stroke="black" points="538.805,-957.481 545.643,-949.389 535.251,-951.45 538.805,-957.481"/>
</g>
<!-- g -->
<g id="node37" class="node"><title>g</title>
<polygon fill="none" stroke="black" points="85.088,-1532 55.2929,-1497.5 114.883,-1497.5 85.088,-1532"/>
<text text-anchor="middle" x="85.088" y="-1505.3" font-family="Times,serif" font-size="14.00">g</text>
</g>
<!-- g&#45;&gt;Parallelogram -->
<g id="edge39" class="edge"><title>g&#45;&gt;Parallelogram</title>
<path fill="none" stroke="black" d="M100.111,-1497.42C106.859,-1491.58 114.894,-1484.22 121.485,-1477 303.209,-1277.93 281.126,-1167.62 485.606,-992 501.134,-978.664 518.917,-966.487 537.018,-955.668"/>
<polygon fill="black" stroke="black" points="539.052,-958.533 545.921,-950.466 535.521,-952.489 539.052,-958.533"/>
</g>
<!-- i -->
<g id="node38" class="node"><title>i</title>
<polygon fill="none" stroke="black" points="85.088,-1468 58.088,-1433.5 112.088,-1433.5 85.088,-1468"/>
<text text-anchor="middle" x="85.088" y="-1441.3" font-family="Times,serif" font-size="14.00">i</text>
</g>
<!-- i&#45;&gt;Parallelogram -->
<g id="edge43" class="edge"><title>i&#45;&gt;Parallelogram</title>
<path fill="none" stroke="black" d="M99.8969,-1433.22C106.594,-1427.33 114.649,-1419.99 121.485,-1413 294.482,-1236.16 292.48,-1146.6 485.606,-992 501.472,-979.299 519.351,-967.486 537.419,-956.847"/>
<polygon fill="black" stroke="black" points="539.388,-959.752 546.297,-951.719 535.887,-953.69 539.388,-959.752"/>
</g>
<!-- k -->
<g id="node39" class="node"><title>k</title>
<polygon fill="none" stroke="black" points="85.088,-1404 55.2929,-1369.5 114.883,-1369.5 85.088,-1404"/>
<text text-anchor="middle" x="85.088" y="-1377.3" font-family="Times,serif" font-size="14.00">k</text>
</g>
<!-- k&#45;&gt;Parallelogram -->
<g id="edge47" class="edge"><title>k&#45;&gt;Parallelogram</title>
<path fill="none" stroke="black" d="M99.3153,-1369.27C106.017,-1363.27 114.247,-1355.81 121.485,-1349 286.495,-1193.64 303.008,-1126.25 485.606,-992 501.864,-980.047 519.869,-968.664 537.922,-958.235"/>
<polygon fill="black" stroke="black" points="539.821,-961.182 546.781,-953.194 536.359,-955.098 539.821,-961.182"/>
</g>
<!-- m -->
<g id="node40" class="node"><title>m</title>
<polygon fill="none" stroke="black" points="85.088,-1340 48.7941,-1305.5 121.382,-1305.5 85.088,-1340"/>
<text text-anchor="middle" x="85.088" y="-1313.3" font-family="Times,serif" font-size="14.00">m</text>
</g>
<!-- m&#45;&gt;Parallelogram -->
<g id="edge51" class="edge"><title>m&#45;&gt;Parallelogram</title>
<path fill="none" stroke="black" d="M99.7496,-1305.29C159.975,-1253.78 402.45,-1047.4 485.606,-992 502.399,-980.813 520.691,-969.838 538.867,-959.585"/>
<polygon fill="black" stroke="black" points="540.749,-962.543 547.774,-954.612 537.337,-956.431 540.749,-962.543"/>
</g>
<!-- o -->
<g id="node41" class="node"><title>o</title>
<polygon fill="none" stroke="black" points="85.088,-1276 55.2929,-1241.5 114.883,-1241.5 85.088,-1276"/>
<text text-anchor="middle" x="85.088" y="-1249.3" font-family="Times,serif" font-size="14.00">o</text>
</g>
<!-- o&#45;&gt;Parallelogram -->
<g id="edge55" class="edge"><title>o&#45;&gt;Parallelogram</title>
<path fill="none" stroke="black" d="M102.888,-1241.27C157.221,-1203.5 333.487,-1082.27 485.606,-992 502.835,-981.777 521.282,-971.353 539.46,-961.371"/>
<polygon fill="black" stroke="black" points="541.259,-964.377 548.355,-956.509 537.902,-958.234 541.259,-964.377"/>
</g>
<!-- q -->
<g id="node42" class="node"><title>q</title>
<polygon fill="none" stroke="black" points="85.088,-1212 55.2929,-1177.5 114.883,-1177.5 85.088,-1212"/>
<text text-anchor="middle" x="85.088" y="-1185.3" font-family="Times,serif" font-size="14.00">q</text>
</g>
<!-- q&#45;&gt;Parallelogram -->
<g id="edge59" class="edge"><title>q&#45;&gt;Parallelogram</title>
<path fill="none" stroke="black" d="M108.824,-1177.49C179.709,-1141.62 400.23,-1030 539.049,-959.743"/>
<polygon fill="black" stroke="black" points="540.731,-962.815 548.072,-955.176 537.57,-956.569 540.731,-962.815"/>
</g>
<!-- s -->
<g id="node43" class="node"><title>s</title>
<polygon fill="none" stroke="black" points="85.088,-1148 56.3927,-1113.5 113.783,-1113.5 85.088,-1148"/>
<text text-anchor="middle" x="85.088" y="-1121.3" font-family="Times,serif" font-size="14.00">s</text>
</g>
<!-- s&#45;&gt;Parallelogram -->
<g id="edge63" class="edge"><title>s&#45;&gt;Parallelogram</title>
<path fill="none" stroke="black" d="M113.244,-1114.3C187.537,-1085.02 397.658,-1002.23 533.911,-948.537"/>
<polygon fill="black" stroke="black" points="535.57,-951.646 543.59,-944.723 533.003,-945.133 535.57,-951.646"/>
</g>
<!-- u -->
<g id="node44" class="node"><title>u</title>
<polygon fill="none" stroke="black" points="85.088,-1084 55.2929,-1049.5 114.883,-1049.5 85.088,-1084"/>
<text text-anchor="middle" x="85.088" y="-1057.3" font-family="Times,serif" font-size="14.00">u</text>
</g>
<!-- u&#45;&gt;Parallelogram -->
<g id="edge67" class="edge"><title>u&#45;&gt;Parallelogram</title>
<path fill="none" stroke="black" d="M111.36,-1053.87C183.075,-1033.65 391.551,-974.871 529.075,-936.095"/>
<polygon fill="black" stroke="black" points="530.177,-939.421 538.852,-933.338 528.277,-932.683 530.177,-939.421"/>
</g>
<!-- w -->
<g id="node45" class="node"><title>w</title>
<polygon fill="none" stroke="black" points="85.088,-1020 51.4928,-985.5 118.683,-985.5 85.088,-1020"/>
<text text-anchor="middle" x="85.088" y="-993.3" font-family="Times,serif" font-size="14.00">w</text>
</g>
<!-- w&#45;&gt;Parallelogram -->
<g id="edge71" class="edge"><title>w&#45;&gt;Parallelogram</title>
<path fill="none" stroke="black" d="M111.732,-992.644C182.866,-980.56 386.453,-945.975 523.736,-922.654"/>
<polygon fill="black" stroke="black" points="524.642,-926.05 533.914,-920.924 523.469,-919.149 524.642,-926.05"/>
</g>
<!-- y -->
<g id="node46" class="node"><title>y</title>
<polygon fill="none" stroke="black" points="85.088,-956 55.2929,-921.5 114.883,-921.5 85.088,-956"/>
<text text-anchor="middle" x="85.088" y="-929.3" font-family="Times,serif" font-size="14.00">y</text>
</g>
<!-- y&#45;&gt;Parallelogram -->
<g id="edge75" class="edge"><title>y&#45;&gt;Parallelogram</title>
<path fill="none" stroke="black" d="M106.075,-931.845C170.554,-928.118 377.049,-916.184 518.099,-908.033"/>
<polygon fill="black" stroke="black" points="518.357,-911.524 528.139,-907.452 517.953,-904.535 518.357,-911.524"/>
</g>
<!-- b -->
<g id="node47" class="node"><title>b</title>
<polygon fill="none" stroke="black" points="112.088,-858.544 112.088,-873.456 96.2717,-884 73.9042,-884 58.088,-873.456 58.088,-858.544 73.9042,-848 96.2717,-848 112.088,-858.544"/>
<polygon fill="none" stroke="black" points="116.088,-856.403 116.088,-875.597 97.4828,-888 72.6931,-888 54.088,-875.597 54.088,-856.403 72.6931,-844 97.4828,-844 116.088,-856.403"/>
<polygon fill="none" stroke="black" points="120.088,-854.263 120.088,-877.737 98.694,-892 71.482,-892 50.088,-877.737 50.088,-854.263 71.482,-840 98.694,-840 120.088,-854.263"/>
<text text-anchor="middle" x="85.088" y="-862.3" font-family="Times,serif" font-size="14.00">b</text>
</g>
<!-- b&#45;&gt;Parallelogram -->
<g id="edge29" class="edge"><title>b&#45;&gt;Parallelogram</title>
<path fill="none" stroke="black" d="M120.097,-868.025C195.442,-872.511 380.168,-883.511 511.88,-891.354"/>
<polygon fill="black" stroke="black" points="511.872,-894.859 522.063,-891.96 512.289,-887.872 511.872,-894.859"/>
</g>
<!-- d -->
<g id="node48" class="node"><title>d</title>
<polygon fill="none" stroke="black" points="112.088,-788.544 112.088,-803.456 96.2717,-814 73.9042,-814 58.088,-803.456 58.088,-788.544 73.9042,-778 96.2717,-778 112.088,-788.544"/>
<polygon fill="none" stroke="black" points="116.088,-786.403 116.088,-805.597 97.4828,-818 72.6931,-818 54.088,-805.597 54.088,-786.403 72.6931,-774 97.4828,-774 116.088,-786.403"/>
<polygon fill="none" stroke="black" points="120.088,-784.263 120.088,-807.737 98.694,-822 71.482,-822 50.088,-807.737 50.088,-784.263 71.482,-770 98.694,-770 120.088,-784.263"/>
<text text-anchor="middle" x="85.088" y="-792.3" font-family="Times,serif" font-size="14.00">d</text>
</g>
<!-- d&#45;&gt;Parallelogram -->
<g id="edge33" class="edge"><title>d&#45;&gt;Parallelogram</title>
<path fill="none" stroke="black" d="M120.097,-802.194C194.039,-815.662 373.321,-848.316 504.463,-872.201"/>
<polygon fill="black" stroke="black" points="504.146,-875.701 514.611,-874.05 505.4,-868.814 504.146,-875.701"/>
</g>
<!-- f -->
<g id="node49" class="node"><title>f</title>
<polygon fill="none" stroke="black" points="112.088,-718.544 112.088,-733.456 96.2717,-744 73.9042,-744 58.088,-733.456 58.088,-718.544 73.9042,-708 96.2717,-708 112.088,-718.544"/>
<polygon fill="none" stroke="black" points="116.088,-716.403 116.088,-735.597 97.4828,-748 72.6931,-748 54.088,-735.597 54.088,-716.403 72.6931,-704 97.4828,-704 116.088,-716.403"/>
<polygon fill="none" stroke="black" points="120.088,-714.263 120.088,-737.737 98.694,-752 71.482,-752 50.088,-737.737 50.088,-714.263 71.482,-700 98.694,-700 120.088,-714.263"/>
<text text-anchor="middle" x="85.088" y="-722.3" font-family="Times,serif" font-size="14.00">f</text>
</g>
<!-- f&#45;&gt;Parallelogram -->
<g id="edge37" class="edge"><title>f&#45;&gt;Parallelogram</title>
<path fill="none" stroke="black" d="M120.097,-736.363C192.59,-758.454 366.338,-811.4 496.702,-851.126"/>
<polygon fill="black" stroke="black" points="495.819,-854.516 506.405,-854.083 497.86,-847.82 495.819,-854.516"/>
</g>
<!-- h -->
<g id="node50" class="node"><title>h</title>
<polygon fill="none" stroke="black" points="112.088,-648.544 112.088,-663.456 96.2717,-674 73.9042,-674 58.088,-663.456 58.088,-648.544 73.9042,-638 96.2717,-638 112.088,-648.544"/>
<polygon fill="none" stroke="black" points="116.088,-646.403 116.088,-665.597 97.4828,-678 72.6931,-678 54.088,-665.597 54.088,-646.403 72.6931,-634 97.4828,-634 116.088,-646.403"/>
<polygon fill="none" stroke="black" points="120.088,-644.263 120.088,-667.737 98.694,-682 71.482,-682 50.088,-667.737 50.088,-644.263 71.482,-630 98.694,-630 120.088,-644.263"/>
<text text-anchor="middle" x="85.088" y="-652.3" font-family="Times,serif" font-size="14.00">h</text>
</g>
<!-- h&#45;&gt;Parallelogram -->
<g id="edge41" class="edge"><title>h&#45;&gt;Parallelogram</title>
<path fill="none" stroke="black" d="M117.601,-669.466C186.952,-699.101 357.026,-771.778 487.837,-827.675"/>
<polygon fill="black" stroke="black" points="486.614,-830.959 497.185,-831.67 489.365,-824.522 486.614,-830.959"/>
</g>
<!-- j -->
<g id="node51" class="node"><title>j</title>
<polygon fill="none" stroke="black" points="112.088,-578.544 112.088,-593.456 96.2717,-604 73.9042,-604 58.088,-593.456 58.088,-578.544 73.9042,-568 96.2717,-568 112.088,-578.544"/>
<polygon fill="none" stroke="black" points="116.088,-576.403 116.088,-595.597 97.4828,-608 72.6931,-608 54.088,-595.597 54.088,-576.403 72.6931,-564 97.4828,-564 116.088,-576.403"/>
<polygon fill="none" stroke="black" points="120.088,-574.263 120.088,-597.737 98.694,-612 71.482,-612 50.088,-597.737 50.088,-574.263 71.482,-560 98.694,-560 120.088,-574.263"/>
<text text-anchor="middle" x="85.088" y="-582.3" font-family="Times,serif" font-size="14.00">j</text>
</g>
<!-- j&#45;&gt;Parallelogram -->
<g id="edge45" class="edge"><title>j&#45;&gt;Parallelogram</title>
<path fill="none" stroke="black" d="M114.103,-601.754C179.166,-638.299 345.623,-731.563 485.606,-808 488.025,-809.321 490.463,-810.65 492.918,-811.988"/>
<polygon fill="black" stroke="black" points="491.413,-815.153 501.87,-816.858 494.758,-809.004 491.413,-815.153"/>
</g>
<!-- l -->
<g id="node52" class="node"><title>l</title>
<polygon fill="none" stroke="black" points="112.088,-508.544 112.088,-523.456 96.2717,-534 73.9042,-534 58.088,-523.456 58.088,-508.544 73.9042,-498 96.2717,-498 112.088,-508.544"/>
<polygon fill="none" stroke="black" points="116.088,-506.403 116.088,-525.597 97.4828,-538 72.6931,-538 54.088,-525.597 54.088,-506.403 72.6931,-494 97.4828,-494 116.088,-506.403"/>
<polygon fill="none" stroke="black" points="120.088,-504.263 120.088,-527.737 98.694,-542 71.482,-542 50.088,-527.737 50.088,-504.263 71.482,-490 98.694,-490 120.088,-504.263"/>
<text text-anchor="middle" x="85.088" y="-512.3" font-family="Times,serif" font-size="14.00">l</text>
</g>
<!-- l&#45;&gt;Parallelogram -->
<g id="edge49" class="edge"><title>l&#45;&gt;Parallelogram</title>
<path fill="none" stroke="black" d="M109.592,-534.979C170.027,-583.374 336.555,-714.182 485.606,-808 487.523,-809.206 489.456,-810.413 491.405,-811.618"/>
<polygon fill="black" stroke="black" points="489.681,-814.666 500.039,-816.895 493.331,-808.693 489.681,-814.666"/>
</g>
<!-- n -->
<g id="node53" class="node"><title>n</title>
<polygon fill="none" stroke="black" points="112.088,-438.544 112.088,-453.456 96.2717,-464 73.9042,-464 58.088,-453.456 58.088,-438.544 73.9042,-428 96.2717,-428 112.088,-438.544"/>
<polygon fill="none" stroke="black" points="116.088,-436.403 116.088,-455.597 97.4828,-468 72.6931,-468 54.088,-455.597 54.088,-436.403 72.6931,-424 97.4828,-424 116.088,-436.403"/>
<polygon fill="none" stroke="black" points="120.088,-434.263 120.088,-457.737 98.694,-472 71.482,-472 50.088,-457.737 50.088,-434.263 71.482,-420 98.694,-420 120.088,-434.263"/>
<text text-anchor="middle" x="85.088" y="-442.3" font-family="Times,serif" font-size="14.00">n</text>
</g>
<!-- n&#45;&gt;Parallelogram -->
<g id="edge53" class="edge"><title>n&#45;&gt;Parallelogram</title>
<path fill="none" stroke="black" d="M107.221,-466.419C177.474,-534.091 403.383,-750.005 485.606,-808 487.077,-809.038 488.561,-810.072 490.057,-811.102"/>
<polygon fill="black" stroke="black" points="488.499,-814.273 498.746,-816.963 492.413,-808.469 488.499,-814.273"/>
</g>
<!-- p -->
<g id="node54" class="node"><title>p</title>
<polygon fill="none" stroke="black" points="112.088,-368.544 112.088,-383.456 96.2717,-394 73.9042,-394 58.088,-383.456 58.088,-368.544 73.9042,-358 96.2717,-358 112.088,-368.544"/>
<polygon fill="none" stroke="black" points="116.088,-366.403 116.088,-385.597 97.4828,-398 72.6931,-398 54.088,-385.597 54.088,-366.403 72.6931,-354 97.4828,-354 116.088,-366.403"/>
<polygon fill="none" stroke="black" points="120.088,-364.263 120.088,-387.737 98.694,-402 71.482,-402 50.088,-387.737 50.088,-364.263 71.482,-350 98.694,-350 120.088,-364.263"/>
<text text-anchor="middle" x="85.088" y="-372.3" font-family="Times,serif" font-size="14.00">p</text>
</g>
<!-- p&#45;&gt;Parallelogram -->
<g id="edge57" class="edge"><title>p&#45;&gt;Parallelogram</title>
<path fill="none" stroke="black" d="M107.22,-396.561C111.958,-401.263 116.928,-406.269 121.485,-411 287.574,-583.443 296.538,-661.114 485.606,-808 486.815,-808.939 488.035,-809.874 489.265,-810.804"/>
<polygon fill="black" stroke="black" points="487.392,-813.772 497.522,-816.876 491.539,-808.132 487.392,-813.772"/>
</g>
<!-- r -->
<g id="node55" class="node"><title>r</title>
<polygon fill="none" stroke="black" points="112.088,-298.544 112.088,-313.456 96.2717,-324 73.9042,-324 58.088,-313.456 58.088,-298.544 73.9042,-288 96.2717,-288 112.088,-298.544"/>
<polygon fill="none" stroke="black" points="116.088,-296.403 116.088,-315.597 97.4828,-328 72.6931,-328 54.088,-315.597 54.088,-296.403 72.6931,-284 97.4828,-284 116.088,-296.403"/>
<polygon fill="none" stroke="black" points="120.088,-294.263 120.088,-317.737 98.694,-332 71.482,-332 50.088,-317.737 50.088,-294.263 71.482,-280 98.694,-280 120.088,-294.263"/>
<text text-anchor="middle" x="85.088" y="-302.3" font-family="Times,serif" font-size="14.00">r</text>
</g>
<!-- r&#45;&gt;Parallelogram -->
<g id="edge61" class="edge"><title>r&#45;&gt;Parallelogram</title>
<path fill="none" stroke="black" d="M107.506,-326.297C112.229,-331.012 117.121,-336.091 121.485,-341 296.338,-537.711 284.39,-638.351 485.606,-808 486.623,-808.857 487.649,-809.71 488.684,-810.559"/>
<polygon fill="black" stroke="black" points="486.77,-813.507 496.783,-816.969 491.114,-808.018 486.77,-813.507"/>
</g>
<!-- t -->
<g id="node56" class="node"><title>t</title>
<polygon fill="none" stroke="black" points="112.088,-228.544 112.088,-243.456 96.2717,-254 73.9042,-254 58.088,-243.456 58.088,-228.544 73.9042,-218 96.2717,-218 112.088,-228.544"/>
<polygon fill="none" stroke="black" points="116.088,-226.403 116.088,-245.597 97.4828,-258 72.6931,-258 54.088,-245.597 54.088,-226.403 72.6931,-214 97.4828,-214 116.088,-226.403"/>
<polygon fill="none" stroke="black" points="120.088,-224.263 120.088,-247.737 98.694,-262 71.482,-262 50.088,-247.737 50.088,-224.263 71.482,-210 98.694,-210 120.088,-224.263"/>
<text text-anchor="middle" x="85.088" y="-232.3" font-family="Times,serif" font-size="14.00">t</text>
</g>
<!-- t&#45;&gt;Parallelogram -->
<g id="edge65" class="edge"><title>t&#45;&gt;Parallelogram</title>
<path fill="none" stroke="black" d="M107.751,-256.086C112.461,-260.812 117.287,-265.949 121.485,-271 305.801,-492.763 271.437,-614.912 485.606,-808 486.453,-808.764 487.307,-809.523 488.169,-810.278"/>
<polygon fill="black" stroke="black" points="486.202,-813.197 496.105,-816.962 490.711,-807.843 486.202,-813.197"/>
</g>
<!-- v -->
<g id="node57" class="node"><title>v</title>
<polygon fill="none" stroke="black" points="112.088,-158.544 112.088,-173.456 96.2717,-184 73.9042,-184 58.088,-173.456 58.088,-158.544 73.9042,-148 96.2717,-148 112.088,-158.544"/>
<polygon fill="none" stroke="black" points="116.088,-156.403 116.088,-175.597 97.4828,-188 72.6931,-188 54.088,-175.597 54.088,-156.403 72.6931,-144 97.4828,-144 116.088,-156.403"/>
<polygon fill="none" stroke="black" points="120.088,-154.263 120.088,-177.737 98.694,-192 71.482,-192 50.088,-177.737 50.088,-154.263 71.482,-140 98.694,-140 120.088,-154.263"/>
<text text-anchor="middle" x="85.088" y="-162.3" font-family="Times,serif" font-size="14.00">v</text>
</g>
<!-- v&#45;&gt;Parallelogram -->
<g id="edge69" class="edge"><title>v&#45;&gt;Parallelogram</title>
<path fill="none" stroke="black" d="M107.962,-185.916C112.661,-190.651 117.428,-195.834 121.485,-201 315.776,-448.428 257.89,-590.94 485.606,-808 486.301,-808.663 487.003,-809.322 487.709,-809.979"/>
<polygon fill="black" stroke="black" points="485.679,-812.857 495.481,-816.879 490.327,-807.622 485.679,-812.857"/>
</g>
<!-- x -->
<g id="node58" class="node"><title>x</title>
<polygon fill="none" stroke="black" points="112.088,-88.5442 112.088,-103.456 96.2717,-114 73.9042,-114 58.088,-103.456 58.088,-88.5442 73.9042,-78 96.2717,-78 112.088,-88.5442"/>
<polygon fill="none" stroke="black" points="116.088,-86.4034 116.088,-105.597 97.4828,-118 72.6931,-118 54.088,-105.597 54.088,-86.4034 72.6931,-74 97.4828,-74 116.088,-86.4034"/>
<polygon fill="none" stroke="black" points="120.088,-84.2627 120.088,-107.737 98.694,-122 71.482,-122 50.088,-107.737 50.088,-84.2627 71.482,-70 98.694,-70 120.088,-84.2627"/>
<text text-anchor="middle" x="85.088" y="-92.3" font-family="Times,serif" font-size="14.00">x</text>
</g>
<!-- x&#45;&gt;Parallelogram -->
<g id="edge73" class="edge"><title>x&#45;&gt;Parallelogram</title>
<path fill="none" stroke="black" d="M108.143,-115.777C112.833,-120.519 117.551,-125.741 121.485,-131 326.131,-404.575 243.898,-566.544 485.606,-808 486.166,-808.56 486.731,-809.117 487.299,-809.671"/>
<polygon fill="black" stroke="black" points="485.194,-812.493 494.902,-816.738 489.96,-807.366 485.194,-812.493"/>
</g>
<!-- z -->
<g id="node59" class="node"><title>z</title>
<polygon fill="none" stroke="black" points="112.088,-18.5442 112.088,-33.4558 96.2717,-44 73.9042,-44 58.088,-33.4558 58.088,-18.5442 73.9042,-8 96.2717,-8 112.088,-18.5442"/>
<polygon fill="none" stroke="black" points="116.088,-16.4034 116.088,-35.5966 97.4828,-48 72.6931,-48 54.088,-35.5966 54.088,-16.4034 72.6931,-4 97.4828,-4 116.088,-16.4034"/>
<polygon fill="none" stroke="black" points="120.088,-14.2627 120.088,-37.7373 98.694,-52 71.482,-52 50.088,-37.7373 50.088,-14.2627 71.482,-3.55271e-15 98.694,-0 120.088,-14.2627"/>
<text text-anchor="middle" x="85.088" y="-22.3" font-family="Times,serif" font-size="14.00">z</text>
</g>
<!-- z&#45;&gt;Parallelogram -->
<g id="edge77" class="edge"><title>z&#45;&gt;Parallelogram</title>
<path fill="none" stroke="black" d="M108.3,-45.6621C112.981,-50.4104 117.656,-55.6632 121.485,-61 336.774,-361.106 229.566,-541.81 485.606,-808 486.155,-808.571 486.708,-809.139 487.266,-809.704"/>
<polygon fill="black" stroke="black" points="485.107,-812.484 494.739,-816.898 489.962,-807.441 485.107,-812.484"/>
</g>
</g>
</svg>
