<?xml version="1.0" encoding="UTF-8" standalone="no"?>
<!DOCTYPE svg PUBLIC "-//W3C//DTD SVG 1.1//EN"
 "http://www.w3.org/Graphics/SVG/1.1/DTD/svg11.dtd">
<!-- Generated by graphviz version 2.38.0 (20140413.2041)
 -->
<!-- Title: g Pages: 1 -->
<svg width="527pt" height="407pt"
 viewBox="0.00 0.00 526.72 407.12" xmlns="http://www.w3.org/2000/svg" xmlns:xlink="http://www.w3.org/1999/xlink">
<g id="graph0" class="graph" transform="scale(1 1) rotate(0) translate(4 403.12)">
<title>g</title>
<polygon fill="white" stroke="none" points="-4,4 -4,-403.12 522.718,-403.12 522.718,4 -4,4"/>
<!-- 22690 -->
<g id="node1" class="node"><title>22690</title>
<polygon fill="none" stroke="black" points="237.986,-399.12 187.986,-399.12 187.986,-361.12 237.986,-361.12 237.986,-399.12"/>
<text text-anchor="middle" x="212.986" y="-383.92" font-family="Times,serif" font-size="14.00">22690</text>
<text text-anchor="middle" x="212.986" y="-368.92" font-family="Times,serif" font-size="14.00">?</text>
</g>
<!-- 22692 -->
<g id="node2" class="node"><title>22692</title>
<polygon fill="none" stroke="black" points="237.986,-325.12 187.986,-325.12 187.986,-287.12 237.986,-287.12 237.986,-325.12"/>
<text text-anchor="middle" x="212.986" y="-309.92" font-family="Times,serif" font-size="14.00">22692</text>
<text text-anchor="middle" x="212.986" y="-294.92" font-family="Times,serif" font-size="14.00">dotty</text>
</g>
<!-- 22690&#45;&gt;22692 -->
<g id="edge1" class="edge"><title>22690&#45;&gt;22692</title>
<path fill="none" stroke="black" d="M212.986,-360.951C212.986,-353.251 212.986,-344.094 212.986,-335.536"/>
<polygon fill="black" stroke="black" points="216.486,-335.533 212.986,-325.533 209.486,-335.533 216.486,-335.533"/>
</g>
<!-- 116842+2595 -->
<g id="node3" class="node"><title>116842+2595</title>
<ellipse fill="none" stroke="black" cx="127.986" cy="-224.25" rx="127.973" ry="26.7407"/>
<text text-anchor="middle" x="127.986" y="-228.05" font-family="Times,serif" font-size="14.00">116842+2595</text>
<text text-anchor="middle" x="127.986" y="-213.05" font-family="Times,serif" font-size="14.00">/home/ek/work/sun4/bin/dotty</text>
</g>
<!-- 22692&#45;&gt;116842+2595 -->
<g id="edge2" class="edge"><title>22692&#45;&gt;116842+2595</title>
<path fill="none" stroke="black" d="M186.357,-280.097C176.348,-270.693 164.967,-259.999 154.93,-250.567"/>
<polygon fill="black" stroke="black" points="184.014,-282.699 193.699,-286.996 188.808,-277.598 184.014,-282.699"/>
</g>
<!-- 22693 -->
<g id="node4" class="node"><title>22693</title>
<polygon fill="none" stroke="black" points="323.986,-243.25 273.986,-243.25 273.986,-205.25 323.986,-205.25 323.986,-243.25"/>
<text text-anchor="middle" x="298.986" y="-228.05" font-family="Times,serif" font-size="14.00">22693</text>
<text text-anchor="middle" x="298.986" y="-213.05" font-family="Times,serif" font-size="14.00">lefty</text>
</g>
<!-- 22692&#45;&gt;22693 -->
<g id="edge3" class="edge"><title>22692&#45;&gt;22693</title>
<path fill="none" stroke="black" d="M232.501,-286.996C244.156,-276.171 259.133,-262.263 271.919,-250.387"/>
<polygon fill="black" stroke="black" points="274.603,-252.672 279.549,-243.302 269.84,-247.542 274.603,-252.672"/>
</g>
<!-- 182440&#45;1 -->
<g id="node5" class="node"><title>182440&#45;1</title>
<ellipse fill="none" stroke="black" cx="222.986" cy="-35.8198" rx="31.6605" ry="31.6605"/>
<ellipse fill="none" stroke="black" cx="222.986" cy="-35.8198" rx="35.6405" ry="35.6405"/>
<text text-anchor="middle" x="222.986" y="-42.2198" font-family="Times,serif" font-size="7.00">182440&#45;1</text>
<text text-anchor="middle" x="222.986" y="-34.2198" font-family="Times,serif" font-size="7.00">182441&#45;1</text>
<text text-anchor="middle" x="222.986" y="-26.2198" font-family="Times,serif" font-size="7.00">pipe</text>
</g>
<!-- 22693&#45;&gt;182440&#45;1 -->
<g id="edge4" class="edge"><title>22693&#45;&gt;182440&#45;1</title>
<path fill="none" stroke="black" d="M266.952,-198.421C255.964,-188.171 244.744,-175.401 237.986,-161.38 224.464,-133.321 221.368,-97.743 221.27,-71.8014"/>
<polygon fill="black" stroke="black" points="264.665,-201.071 274.464,-205.098 269.315,-195.839 264.665,-201.071"/>
</g>
<!-- 182442&#45;1 -->
<g id="node6" class="node"><title>182442&#45;1</title>
<ellipse fill="none" stroke="black" cx="320.986" cy="-35.8198" rx="31.6605" ry="31.6605"/>
<ellipse fill="none" stroke="black" cx="320.986" cy="-35.8198" rx="35.6405" ry="35.6405"/>
<text text-anchor="middle" x="320.986" y="-42.2198" font-family="Times,serif" font-size="7.00">182442&#45;1</text>
<text text-anchor="middle" x="320.986" y="-34.2198" font-family="Times,serif" font-size="7.00">182443&#45;1</text>
<text text-anchor="middle" x="320.986" y="-26.2198" font-family="Times,serif" font-size="7.00">pipe</text>
</g>
<!-- 22693&#45;&gt;182442&#45;1 -->
<g id="edge5" class="edge"><title>22693&#45;&gt;182442&#45;1</title>
<path fill="none" stroke="black" d="M301.136,-205.035C304.481,-176.691 311.03,-121.188 315.691,-81.6933"/>
<polygon fill="black" stroke="black" points="319.195,-81.8609 316.892,-71.5196 312.244,-81.0405 319.195,-81.8609"/>
</g>
<!-- 22694 -->
<g id="node7" class="node"><title>22694</title>
<polygon fill="none" stroke="black" points="296.986,-153.51 246.986,-153.51 246.986,-115.51 296.986,-115.51 296.986,-153.51"/>
<text text-anchor="middle" x="271.986" y="-138.31" font-family="Times,serif" font-size="14.00">22694</text>
<text text-anchor="middle" x="271.986" y="-123.31" font-family="Times,serif" font-size="14.00">dot</text>
</g>
<!-- 22693&#45;&gt;22694 -->
<g id="edge6" class="edge"><title>22693&#45;&gt;22694</title>
<path fill="none" stroke="black" d="M293.392,-205.07C289.699,-193.07 284.788,-177.111 280.602,-163.506"/>
<polygon fill="black" stroke="black" points="283.86,-162.194 277.574,-153.666 277.17,-164.253 283.86,-162.194"/>
</g>
<!-- 4761+2595 -->
<g id="node8" class="node"><title>4761+2595</title>
<ellipse fill="none" stroke="black" cx="435.986" cy="-134.51" rx="82.9636" ry="26.7407"/>
<text text-anchor="middle" x="435.986" y="-138.31" font-family="Times,serif" font-size="14.00">4761+2595</text>
<text text-anchor="middle" x="435.986" y="-123.31" font-family="Times,serif" font-size="14.00">/home/ek/pm2.dot</text>
</g>
<!-- 22693&#45;&gt;4761+2595 -->
<g id="edge9" class="edge"><title>22693&#45;&gt;4761+2595</title>
<path fill="none" stroke="black" d="M332.733,-201.637C353.045,-188.629 378.903,-172.068 399.661,-158.774"/>
<polygon fill="black" stroke="black" points="330.648,-198.816 324.114,-207.157 334.423,-204.711 330.648,-198.816"/>
</g>
<!-- 22694&#45;&gt;182440&#45;1 -->
<g id="edge7" class="edge"><title>22694&#45;&gt;182440&#45;1</title>
<path fill="none" stroke="black" d="M262.77,-115.323C257.319,-104.567 250.187,-90.4943 243.47,-77.2389"/>
<polygon fill="black" stroke="black" points="246.554,-75.5814 238.911,-68.2435 240.31,-78.7457 246.554,-75.5814"/>
</g>
<!-- 22694&#45;&gt;182442&#45;1 -->
<g id="edge8" class="edge"><title>22694&#45;&gt;182442&#45;1</title>
<path fill="none" stroke="black" d="M285.752,-106.347C291.756,-94.4997 298.832,-80.5364 305.062,-68.2435"/>
<polygon fill="black" stroke="black" points="282.601,-104.821 281.203,-115.323 288.845,-107.985 282.601,-104.821"/>
</g>
</g>
</svg>
