<?xml version="1.0" encoding="UTF-8" standalone="no"?>
<!DOCTYPE svg PUBLIC "-//W3C//DTD SVG 1.1//EN"
 "http://www.w3.org/Graphics/SVG/1.1/DTD/svg11.dtd">
<!-- Generated by graphviz version 2.38.0 (20140413.2041)
 -->
<!-- Title: g Pages: 1 -->
<svg width="826pt" height="228pt"
 viewBox="0.00 0.00 826.42 227.64" xmlns="http://www.w3.org/2000/svg" xmlns:xlink="http://www.w3.org/1999/xlink">
<g id="graph0" class="graph" transform="scale(1 1) rotate(0) translate(4 223.64)">
<title>g</title>
<polygon fill="white" stroke="none" points="-4,4 -4,-223.64 822.421,-223.64 822.421,4 -4,4"/>
<!-- 23296 -->
<g id="node1" class="node"><title>23296</title>
<polygon fill="none" stroke="black" points="528.459,-219.64 478.459,-219.64 478.459,-181.64 528.459,-181.64 528.459,-219.64"/>
<text text-anchor="middle" x="503.459" y="-204.44" font-family="Times,serif" font-size="14.00">23296</text>
<text text-anchor="middle" x="503.459" y="-189.44" font-family="Times,serif" font-size="14.00">?</text>
</g>
<!-- 23310 -->
<g id="node3" class="node"><title>23310</title>
<polygon fill="none" stroke="black" points="269.459,-145.64 219.459,-145.64 219.459,-107.64 269.459,-107.64 269.459,-145.64"/>
<text text-anchor="middle" x="244.459" y="-130.44" font-family="Times,serif" font-size="14.00">23310</text>
<text text-anchor="middle" x="244.459" y="-115.44" font-family="Times,serif" font-size="14.00">cat</text>
</g>
<!-- 23296&#45;&gt;23310 -->
<g id="edge1" class="edge"><title>23296&#45;&gt;23310</title>
<path fill="none" stroke="black" d="M478.344,-193.398C439.881,-183.74 364.146,-164.332 300.459,-145.64 293.613,-143.63 286.331,-141.376 279.363,-139.162"/>
<polygon fill="black" stroke="black" points="280.056,-135.708 269.464,-135.978 277.912,-142.372 280.056,-135.708"/>
</g>
<!-- 23311 -->
<g id="node5" class="node"><title>23311</title>
<polygon fill="none" stroke="black" points="359.459,-145.64 309.459,-145.64 309.459,-107.64 359.459,-107.64 359.459,-145.64"/>
<text text-anchor="middle" x="334.459" y="-130.44" font-family="Times,serif" font-size="14.00">23311</text>
<text text-anchor="middle" x="334.459" y="-115.44" font-family="Times,serif" font-size="14.00">cat</text>
</g>
<!-- 23296&#45;&gt;23311 -->
<g id="edge2" class="edge"><title>23296&#45;&gt;23311</title>
<path fill="none" stroke="black" d="M478.158,-188.86C449.202,-176.524 401.607,-156.247 369.192,-142.437"/>
<polygon fill="black" stroke="black" points="370.229,-139.074 359.657,-138.375 367.485,-145.514 370.229,-139.074"/>
</g>
<!-- 23312 -->
<g id="node7" class="node"><title>23312</title>
<polygon fill="none" stroke="black" points="449.459,-145.64 399.459,-145.64 399.459,-107.64 449.459,-107.64 449.459,-145.64"/>
<text text-anchor="middle" x="424.459" y="-130.44" font-family="Times,serif" font-size="14.00">23312</text>
<text text-anchor="middle" x="424.459" y="-115.44" font-family="Times,serif" font-size="14.00">cat</text>
</g>
<!-- 23296&#45;&gt;23312 -->
<g id="edge5" class="edge"><title>23296&#45;&gt;23312</title>
<path fill="none" stroke="black" d="M483.524,-181.471C473.981,-172.773 462.4,-162.218 452.029,-152.766"/>
<polygon fill="black" stroke="black" points="454.137,-149.952 444.388,-145.802 449.421,-155.125 454.137,-149.952"/>
</g>
<!-- 23313 -->
<g id="node9" class="node"><title>23313</title>
<polygon fill="none" stroke="black" points="528.459,-145.64 478.459,-145.64 478.459,-107.64 528.459,-107.64 528.459,-145.64"/>
<text text-anchor="middle" x="503.459" y="-130.44" font-family="Times,serif" font-size="14.00">23313</text>
<text text-anchor="middle" x="503.459" y="-115.44" font-family="Times,serif" font-size="14.00">cat</text>
</g>
<!-- 23296&#45;&gt;23313 -->
<g id="edge8" class="edge"><title>23296&#45;&gt;23313</title>
<path fill="none" stroke="black" d="M503.459,-181.471C503.459,-173.771 503.459,-164.614 503.459,-156.056"/>
<polygon fill="black" stroke="black" points="506.96,-156.053 503.459,-146.053 499.96,-156.053 506.96,-156.053"/>
</g>
<!-- 85+2560 -->
<g id="node11" class="node"><title>85+2560</title>
<ellipse fill="none" stroke="black" cx="772.459" cy="-35.8198" rx="45.9239" ry="26.7407"/>
<text text-anchor="middle" x="772.459" y="-39.6198" font-family="Times,serif" font-size="14.00">85+2560</text>
<text text-anchor="middle" x="772.459" y="-24.6198" font-family="Times,serif" font-size="14.00">?</text>
</g>
<!-- 23296&#45;&gt;85+2560 -->
<g id="edge12" class="edge"><title>23296&#45;&gt;85+2560</title>
<path fill="none" stroke="black" d="M538.491,-187.089C565.508,-177.788 603.024,-163.626 633.459,-145.64 672.204,-122.743 711.044,-88.3761 737.96,-64.4097"/>
<polygon fill="black" stroke="black" points="537.034,-183.887 528.687,-190.413 539.282,-190.517 537.034,-183.887"/>
<polygon fill="black" stroke="black" points="740.427,-66.8997 745.571,-57.6374 735.773,-61.6703 740.427,-66.8997"/>
</g>
<!-- 23296&#45;&gt;85+2560 -->
<g id="edge16" class="edge"><title>23296&#45;&gt;85+2560</title>
<path fill="none" stroke="black" d="M538.719,-191.581C569.951,-182.701 615.616,-166.822 651.459,-145.64 688.043,-124.02 724.71,-92.1754 748.117,-68.5146"/>
<polygon fill="black" stroke="black" points="537.435,-188.303 528.716,-194.321 539.285,-195.055 537.435,-188.303"/>
<polygon fill="black" stroke="black" points="750.805,-70.7686 755.233,-61.1434 745.769,-65.9066 750.805,-70.7686"/>
</g>
<!-- 23314 -->
<g id="node12" class="node"><title>23314</title>
<polygon fill="none" stroke="black" points="633.459,-145.64 583.459,-145.64 583.459,-107.64 633.459,-107.64 633.459,-145.64"/>
<text text-anchor="middle" x="608.459" y="-130.44" font-family="Times,serif" font-size="14.00">23314</text>
<text text-anchor="middle" x="608.459" y="-115.44" font-family="Times,serif" font-size="14.00">cat</text>
</g>
<!-- 23296&#45;&gt;23314 -->
<g id="edge13" class="edge"><title>23296&#45;&gt;23314</title>
<path fill="none" stroke="black" d="M528.61,-182.394C542.404,-172.934 559.695,-161.078 574.655,-150.82"/>
<polygon fill="black" stroke="black" points="576.883,-153.536 583.151,-144.994 572.924,-147.763 576.883,-153.536"/>
</g>
<!-- 182948&#45;1 -->
<g id="node2" class="node"><title>182948&#45;1</title>
<ellipse fill="none" stroke="black" cx="244.459" cy="-35.8198" rx="31.6605" ry="31.6605"/>
<ellipse fill="none" stroke="black" cx="244.459" cy="-35.8198" rx="35.6405" ry="35.6405"/>
<text text-anchor="middle" x="244.459" y="-42.2198" font-family="Times,serif" font-size="7.00">182948&#45;1</text>
<text text-anchor="middle" x="244.459" y="-34.2198" font-family="Times,serif" font-size="7.00">182949&#45;1</text>
<text text-anchor="middle" x="244.459" y="-26.2198" font-family="Times,serif" font-size="7.00">pipe</text>
</g>
<!-- 23310&#45;&gt;182948&#45;1 -->
<g id="edge4" class="edge"><title>23310&#45;&gt;182948&#45;1</title>
<path fill="none" stroke="black" d="M244.459,-107.236C244.459,-99.7786 244.459,-90.8105 244.459,-81.8105"/>
<polygon fill="black" stroke="black" points="247.96,-81.7146 244.459,-71.7146 240.96,-81.7146 247.96,-81.7146"/>
</g>
<!-- 79893+2568 -->
<g id="node10" class="node"><title>79893+2568</title>
<ellipse fill="none" stroke="black" cx="95.4594" cy="-35.8198" rx="95.4188" ry="26.7407"/>
<text text-anchor="middle" x="95.4594" y="-39.6198" font-family="Times,serif" font-size="14.00">79893+2568</text>
<text text-anchor="middle" x="95.4594" y="-24.6198" font-family="Times,serif" font-size="14.00">/usr/share/lib/termcap</text>
</g>
<!-- 23310&#45;&gt;79893+2568 -->
<g id="edge11" class="edge"><title>23310&#45;&gt;79893+2568</title>
<path fill="none" stroke="black" d="M210.331,-105.295C187.862,-91.9018 158.376,-74.3245 134.903,-60.3323"/>
<polygon fill="black" stroke="black" points="208.802,-108.459 219.184,-110.573 212.386,-102.446 208.802,-108.459"/>
</g>
<!-- 182950&#45;1 -->
<g id="node4" class="node"><title>182950&#45;1</title>
<ellipse fill="none" stroke="black" cx="334.459" cy="-35.8198" rx="31.6605" ry="31.6605"/>
<ellipse fill="none" stroke="black" cx="334.459" cy="-35.8198" rx="35.6405" ry="35.6405"/>
<text text-anchor="middle" x="334.459" y="-42.2198" font-family="Times,serif" font-size="7.00">182950&#45;1</text>
<text text-anchor="middle" x="334.459" y="-34.2198" font-family="Times,serif" font-size="7.00">182951&#45;1</text>
<text text-anchor="middle" x="334.459" y="-26.2198" font-family="Times,serif" font-size="7.00">pipe</text>
</g>
<!-- 23311&#45;&gt;182948&#45;1 -->
<g id="edge3" class="edge"><title>23311&#45;&gt;182948&#45;1</title>
<path fill="none" stroke="black" d="M308.525,-100.046C296.276,-87.9567 281.714,-73.5856 269.571,-61.6017"/>
<polygon fill="black" stroke="black" points="306.235,-102.703 315.811,-107.236 311.152,-97.7207 306.235,-102.703"/>
</g>
<!-- 23311&#45;&gt;182950&#45;1 -->
<g id="edge10" class="edge"><title>23311&#45;&gt;182950&#45;1</title>
<path fill="none" stroke="black" d="M334.459,-107.236C334.459,-99.7786 334.459,-90.8105 334.459,-81.8105"/>
<polygon fill="black" stroke="black" points="337.96,-81.7146 334.459,-71.7146 330.96,-81.7146 337.96,-81.7146"/>
</g>
<!-- 182952&#45;1 -->
<g id="node6" class="node"><title>182952&#45;1</title>
<ellipse fill="none" stroke="black" cx="424.459" cy="-35.8198" rx="31.6605" ry="31.6605"/>
<ellipse fill="none" stroke="black" cx="424.459" cy="-35.8198" rx="35.6405" ry="35.6405"/>
<text text-anchor="middle" x="424.459" y="-42.2198" font-family="Times,serif" font-size="7.00">182952&#45;1</text>
<text text-anchor="middle" x="424.459" y="-34.2198" font-family="Times,serif" font-size="7.00">182953&#45;1</text>
<text text-anchor="middle" x="424.459" y="-26.2198" font-family="Times,serif" font-size="7.00">pipe</text>
</g>
<!-- 23312&#45;&gt;182950&#45;1 -->
<g id="edge7" class="edge"><title>23312&#45;&gt;182950&#45;1</title>
<path fill="none" stroke="black" d="M398.525,-100.046C386.276,-87.9567 371.714,-73.5856 359.571,-61.6017"/>
<polygon fill="black" stroke="black" points="396.235,-102.703 405.811,-107.236 401.152,-97.7207 396.235,-102.703"/>
</g>
<!-- 23312&#45;&gt;182952&#45;1 -->
<g id="edge6" class="edge"><title>23312&#45;&gt;182952&#45;1</title>
<path fill="none" stroke="black" d="M424.459,-107.236C424.459,-99.7786 424.459,-90.8105 424.459,-81.8105"/>
<polygon fill="black" stroke="black" points="427.96,-81.7146 424.459,-71.7146 420.96,-81.7146 427.96,-81.7146"/>
</g>
<!-- 182954&#45;1 -->
<g id="node8" class="node"><title>182954&#45;1</title>
<ellipse fill="none" stroke="black" cx="514.459" cy="-35.8198" rx="31.6605" ry="31.6605"/>
<ellipse fill="none" stroke="black" cx="514.459" cy="-35.8198" rx="35.6405" ry="35.6405"/>
<text text-anchor="middle" x="514.459" y="-42.2198" font-family="Times,serif" font-size="7.00">182954&#45;1</text>
<text text-anchor="middle" x="514.459" y="-34.2198" font-family="Times,serif" font-size="7.00">182955&#45;1</text>
<text text-anchor="middle" x="514.459" y="-26.2198" font-family="Times,serif" font-size="7.00">pipe</text>
</g>
<!-- 23313&#45;&gt;182952&#45;1 -->
<g id="edge18" class="edge"><title>23313&#45;&gt;182952&#45;1</title>
<path fill="none" stroke="black" d="M480.367,-99.6765C470.184,-88.2285 458.233,-74.7917 448,-63.2864"/>
<polygon fill="black" stroke="black" points="477.829,-102.09 487.091,-107.236 483.06,-97.4379 477.829,-102.09"/>
</g>
<!-- 23313&#45;&gt;182954&#45;1 -->
<g id="edge9" class="edge"><title>23313&#45;&gt;182954&#45;1</title>
<path fill="none" stroke="black" d="M505.739,-107.236C506.662,-99.7786 507.773,-90.8105 508.887,-81.8105"/>
<polygon fill="black" stroke="black" points="512.382,-82.069 510.138,-71.7146 505.435,-81.2086 512.382,-82.069"/>
</g>
<!-- 23314&#45;&gt;182954&#45;1 -->
<g id="edge15" class="edge"><title>23314&#45;&gt;182954&#45;1</title>
<path fill="none" stroke="black" d="M581.676,-100.332C568.701,-88.0723 553.187,-73.4129 540.334,-61.2683"/>
<polygon fill="black" stroke="black" points="579.31,-102.912 588.983,-107.236 584.118,-97.8241 579.31,-102.912"/>
</g>
<!-- 23314&#45;&gt;85+2560 -->
<g id="edge14" class="edge"><title>23314&#45;&gt;85+2560</title>
<path fill="none" stroke="black" d="M642.676,-109.818C664.393,-99.501 692.925,-85.4336 717.459,-71.6396 722.954,-68.5501 728.666,-65.1538 734.239,-61.7311"/>
<polygon fill="black" stroke="black" points="641.068,-106.707 633.518,-114.139 644.055,-113.038 641.068,-106.707"/>
<polygon fill="black" stroke="black" points="736.199,-64.6335 742.831,-56.3711 732.494,-58.6943 736.199,-64.6335"/>
</g>
<!-- 4151865284+0 -->
<g id="node13" class="node"><title>4151865284+0</title>
<ellipse fill="none" stroke="black" cx="638.459" cy="-35.8198" rx="70.0071" ry="26.7407"/>
<text text-anchor="middle" x="638.459" y="-39.6198" font-family="Times,serif" font-size="14.00">4151865284+0</text>
<text text-anchor="middle" x="638.459" y="-24.6198" font-family="Times,serif" font-size="14.00">/tmp/termcap</text>
</g>
<!-- 23314&#45;&gt;4151865284+0 -->
<g id="edge17" class="edge"><title>23314&#45;&gt;4151865284+0</title>
<path fill="none" stroke="black" d="M614.675,-107.236C618.081,-97.153 622.42,-84.3084 626.456,-72.3574"/>
<polygon fill="black" stroke="black" points="629.865,-73.2032 629.749,-62.609 623.233,-70.9631 629.865,-73.2032"/>
</g>
</g>
</svg>
