<?xml version="1.0" encoding="UTF-8" standalone="no"?>
<!DOCTYPE svg PUBLIC "-//W3C//DTD SVG 1.1//EN"
 "http://www.w3.org/Graphics/SVG/1.1/DTD/svg11.dtd">
<!-- Generated by graphviz version 2.38.0 (20140413.2041)
 -->
<!-- Title: polypoly Pages: 1 -->
<svg width="2596pt" height="2054pt"
 viewBox="0.00 0.00 2596.47 2053.91" xmlns="http://www.w3.org/2000/svg" xmlns:xlink="http://www.w3.org/1999/xlink">
<g id="graph0" class="graph" transform="scale(1 1) rotate(0) translate(4 2049.91)">
<title>polypoly</title>
<polygon fill="white" stroke="none" points="-4,4 -4,-2049.91 2592.47,-2049.91 2592.47,4 -4,4"/>
<!-- 0000 -->
<g id="node1" class="node"><title>0000</title>
<ellipse fill="none" stroke="black" cx="37.6967" cy="-519.56" rx="27" ry="18"/>
<text text-anchor="middle" x="37.6967" y="-515.86" font-family="Times,serif" font-size="14.00">M</text>
</g>
<!-- 10000 -->
<g id="node77" class="node"><title>10000</title>
<ellipse fill="none" stroke="black" cx="37.6967" cy="-332.943" rx="27" ry="18"/>
<text text-anchor="middle" x="37.6967" y="-329.243" font-family="Times,serif" font-size="14.00">M</text>
</g>
<!-- 0000&#45;&gt;10000 -->
<g id="edge7" class="edge"><title>0000&#45;&gt;10000</title>
<path fill="none" stroke="black" d="M37.6967,-501.523C37.6967,-469.456 37.6967,-399.893 37.6967,-361.235"/>
<polygon fill="black" stroke="black" points="41.1968,-361.208 37.6967,-351.208 34.1968,-361.208 41.1968,-361.208"/>
</g>
<!-- 0001 -->
<g id="node2" class="node"><title>0001</title>
<ellipse fill="none" stroke="black" cx="176.697" cy="-519.56" rx="93.6835" ry="18"/>
<text text-anchor="middle" x="176.697" y="-515.86" font-family="Times,serif" font-size="14.00">MMMMMMMMMM</text>
</g>
<!-- 0002 -->
<g id="node3" class="node"><title>0002</title>
<ellipse fill="none" stroke="black" cx="315.697" cy="-519.56" rx="27" ry="69.0935"/>
<text text-anchor="middle" x="315.697" y="-553.36" font-family="Times,serif" font-size="14.00">M</text>
<text text-anchor="middle" x="315.697" y="-538.36" font-family="Times,serif" font-size="14.00">M</text>
<text text-anchor="middle" x="315.697" y="-523.36" font-family="Times,serif" font-size="14.00">M</text>
<text text-anchor="middle" x="315.697" y="-508.36" font-family="Times,serif" font-size="14.00">M</text>
<text text-anchor="middle" x="315.697" y="-493.36" font-family="Times,serif" font-size="14.00">M</text>
<text text-anchor="middle" x="315.697" y="-478.36" font-family="Times,serif" font-size="14.00">M</text>
</g>
<!-- 0003 -->
<g id="node4" class="node"><title>0003</title>
<ellipse fill="none" stroke="black" cx="462.697" cy="-519.56" rx="101.647" ry="69.0935"/>
<text text-anchor="middle" x="462.697" y="-553.36" font-family="Times,serif" font-size="14.00">MMMMMMMMMM</text>
<text text-anchor="middle" x="462.697" y="-538.36" font-family="Times,serif" font-size="14.00">MMMMMMMMMM</text>
<text text-anchor="middle" x="462.697" y="-523.36" font-family="Times,serif" font-size="14.00">MMMMMMMMMM</text>
<text text-anchor="middle" x="462.697" y="-508.36" font-family="Times,serif" font-size="14.00">MMMMMMMMMM</text>
<text text-anchor="middle" x="462.697" y="-493.36" font-family="Times,serif" font-size="14.00">MMMMMMMMMM</text>
<text text-anchor="middle" x="462.697" y="-478.36" font-family="Times,serif" font-size="14.00">MMMMMMMMMM</text>
</g>
<!-- 0010 -->
<g id="node5" class="node"><title>0010</title>
<ellipse fill="none" stroke="black" cx="613.697" cy="-519.56" rx="27" ry="18"/>
<ellipse fill="none" stroke="black" cx="613.697" cy="-519.56" rx="31" ry="22"/>
<text text-anchor="middle" x="613.697" y="-515.86" font-family="Times,serif" font-size="14.00">M</text>
</g>
<!-- 0011 -->
<g id="node6" class="node"><title>0011</title>
<ellipse fill="none" stroke="black" cx="760.697" cy="-519.56" rx="93.6797" ry="18"/>
<ellipse fill="none" stroke="black" cx="760.697" cy="-519.56" rx="97.6835" ry="22"/>
<text text-anchor="middle" x="760.697" y="-515.86" font-family="Times,serif" font-size="14.00">MMMMMMMMMM</text>
</g>
<!-- 0012 -->
<g id="node7" class="node"><title>0012</title>
<ellipse fill="none" stroke="black" cx="907.697" cy="-519.56" rx="27" ry="69.1046"/>
<ellipse fill="none" stroke="black" cx="907.697" cy="-519.56" rx="31" ry="73.0935"/>
<text text-anchor="middle" x="907.697" y="-553.36" font-family="Times,serif" font-size="14.00">M</text>
<text text-anchor="middle" x="907.697" y="-538.36" font-family="Times,serif" font-size="14.00">M</text>
<text text-anchor="middle" x="907.697" y="-523.36" font-family="Times,serif" font-size="14.00">M</text>
<text text-anchor="middle" x="907.697" y="-508.36" font-family="Times,serif" font-size="14.00">M</text>
<text text-anchor="middle" x="907.697" y="-493.36" font-family="Times,serif" font-size="14.00">M</text>
<text text-anchor="middle" x="907.697" y="-478.36" font-family="Times,serif" font-size="14.00">M</text>
</g>
<!-- 0013 -->
<g id="node8" class="node"><title>0013</title>
<ellipse fill="none" stroke="black" cx="1062.7" cy="-519.56" rx="101.654" ry="69.1046"/>
<ellipse fill="none" stroke="black" cx="1062.7" cy="-519.56" rx="105.647" ry="73.0935"/>
<text text-anchor="middle" x="1062.7" y="-553.36" font-family="Times,serif" font-size="14.00">MMMMMMMMMM</text>
<text text-anchor="middle" x="1062.7" y="-538.36" font-family="Times,serif" font-size="14.00">MMMMMMMMMM</text>
<text text-anchor="middle" x="1062.7" y="-523.36" font-family="Times,serif" font-size="14.00">MMMMMMMMMM</text>
<text text-anchor="middle" x="1062.7" y="-508.36" font-family="Times,serif" font-size="14.00">MMMMMMMMMM</text>
<text text-anchor="middle" x="1062.7" y="-493.36" font-family="Times,serif" font-size="14.00">MMMMMMMMMM</text>
<text text-anchor="middle" x="1062.7" y="-478.36" font-family="Times,serif" font-size="14.00">MMMMMMMMMM</text>
</g>
<!-- 0110 -->
<g id="node9" class="node"><title>0110</title>
<polygon fill="none" stroke="black" points="1222.38,-501.609 1224.15,-501.708 1225.91,-501.855 1227.64,-502.051 1229.34,-502.295 1230.99,-502.587 1232.61,-502.924 1234.17,-503.308 1235.67,-503.736 1237.11,-504.207 1238.48,-504.721 1239.78,-505.275 1240.99,-505.868 1242.13,-506.499 1243.18,-507.165 1244.15,-507.866 1245.02,-508.598 1245.8,-509.361 1246.49,-510.152 1247.08,-510.968 1247.58,-511.808 1247.98,-512.669 1248.29,-513.549 1248.5,-514.446 1248.63,-515.356 1248.66,-516.279 1248.6,-517.21 1248.46,-518.147 1248.24,-519.089 1247.94,-520.031 1247.56,-520.973 1247.11,-521.91 1246.59,-522.841 1246,-523.763 1245.36,-524.674 1244.65,-525.57 1243.9,-526.451 1243.09,-527.312 1242.24,-528.152 1241.34,-528.968 1240.41,-529.759 1239.44,-530.521 1238.44,-531.254 1237.42,-531.955 1236.37,-532.621 1235.29,-533.252 1234.2,-533.845 1233.09,-534.399 1231.97,-534.913 1230.83,-535.384 1229.68,-535.812 1228.53,-536.195 1227.36,-536.533 1226.19,-536.825 1225.02,-537.069 1223.84,-537.265 1222.66,-537.412 1221.47,-537.511 1220.29,-537.56 1219.1,-537.56 1217.92,-537.511 1216.74,-537.412 1215.55,-537.265 1214.38,-537.069 1213.2,-536.825 1212.03,-536.533 1210.87,-536.195 1209.71,-535.812 1208.56,-535.384 1207.43,-534.913 1206.3,-534.399 1205.19,-533.845 1204.1,-533.252 1203.03,-532.621 1201.98,-531.955 1200.95,-531.254 1199.95,-530.521 1198.98,-529.759 1198.05,-528.968 1197.16,-528.152 1196.3,-527.312 1195.5,-526.451 1194.74,-525.57 1194.03,-524.674 1193.39,-523.763 1192.8,-522.841 1192.28,-521.91 1191.83,-520.973 1191.45,-520.031 1191.15,-519.089 1190.93,-518.147 1190.79,-517.21 1190.73,-516.279 1190.77,-515.356 1190.89,-514.446 1191.11,-513.549 1191.41,-512.669 1191.82,-511.808 1192.31,-510.968 1192.91,-510.152 1193.59,-509.361 1194.37,-508.598 1195.25,-507.866 1196.21,-507.165 1197.26,-506.499 1198.4,-505.868 1199.62,-505.275 1200.91,-504.721 1202.28,-504.207 1203.72,-503.736 1205.23,-503.308 1206.79,-502.924 1208.4,-502.587 1210.06,-502.295 1211.76,-502.051 1213.49,-501.855 1215.24,-501.708 1217.02,-501.609 1218.8,-501.56 1220.59,-501.56 1222.38,-501.609"/>
<polygon fill="none" stroke="black" points="1222.55,-497.612 1224.43,-497.717 1226.31,-497.874 1228.16,-498.084 1229.98,-498.345 1231.76,-498.659 1233.51,-499.025 1235.21,-499.443 1236.86,-499.913 1238.45,-500.435 1239.99,-501.011 1241.46,-501.64 1242.87,-502.324 1244.2,-503.065 1245.46,-503.863 1246.64,-504.722 1247.74,-505.642 1248.74,-506.625 1249.65,-507.672 1250.46,-508.781 1251.15,-509.948 1251.72,-511.167 1252.16,-512.426 1252.47,-513.715 1252.65,-515.018 1252.69,-516.324 1252.62,-517.62 1252.43,-518.899 1252.13,-520.153 1251.74,-521.38 1251.26,-522.577 1250.69,-523.743 1250.06,-524.878 1249.36,-525.983 1248.6,-527.057 1247.78,-528.1 1246.91,-529.113 1245.99,-530.094 1245.02,-531.044 1244.02,-531.962 1242.97,-532.847 1241.89,-533.697 1240.78,-534.511 1239.64,-535.289 1238.48,-536.029 1237.29,-536.729 1236.07,-537.387 1234.84,-538.004 1233.59,-538.576 1232.32,-539.103 1231.03,-539.582 1229.73,-540.013 1228.42,-540.394 1227.1,-540.724 1225.76,-541 1224.42,-541.223 1223.08,-541.391 1221.73,-541.504 1220.37,-541.56 1219.02,-541.56 1217.67,-541.504 1216.32,-541.391 1214.97,-541.223 1213.63,-541 1212.3,-540.724 1210.98,-540.394 1209.66,-540.013 1208.36,-539.582 1207.08,-539.103 1205.81,-538.576 1204.55,-538.004 1203.32,-537.387 1202.11,-536.729 1200.92,-536.029 1199.75,-535.289 1198.61,-534.511 1197.5,-533.697 1196.42,-532.847 1195.38,-531.962 1194.37,-531.044 1193.41,-530.094 1192.49,-529.113 1191.62,-528.1 1190.8,-527.057 1190.03,-525.983 1189.33,-524.878 1188.7,-523.743 1188.14,-522.577 1187.66,-521.38 1187.26,-520.153 1186.97,-518.899 1186.78,-517.62 1186.7,-516.324 1186.75,-515.018 1186.92,-513.715 1187.23,-512.426 1187.67,-511.167 1188.24,-509.948 1188.93,-508.781 1189.74,-507.672 1190.65,-506.625 1191.66,-505.642 1192.75,-504.722 1193.93,-503.863 1195.19,-503.065 1196.53,-502.324 1197.93,-501.64 1199.4,-501.011 1200.94,-500.435 1202.53,-499.913 1204.18,-499.443 1205.89,-499.025 1207.63,-498.659 1209.42,-498.345 1211.24,-498.084 1213.09,-497.874 1214.96,-497.717 1216.85,-497.612 1218.75,-497.56 1220.65,-497.56 1222.55,-497.612"/>
<text text-anchor="middle" x="1219.7" y="-515.86" font-family="Times,serif" font-size="14.00">M</text>
</g>
<!-- 0111 -->
<g id="node10" class="node"><title>0111</title>
<polygon fill="none" stroke="black" points="1382.94,-501.609 1389.06,-501.708 1395.11,-501.855 1401.08,-502.051 1406.94,-502.295 1412.66,-502.587 1418.22,-502.924 1423.6,-503.308 1428.78,-503.736 1433.75,-504.207 1438.47,-504.721 1442.94,-505.275 1447.14,-505.868 1451.06,-506.499 1454.69,-507.165 1458.01,-507.866 1461.02,-508.598 1463.72,-509.361 1466.08,-510.152 1468.13,-510.968 1469.84,-511.808 1471.23,-512.669 1472.3,-513.549 1473.04,-514.446 1473.46,-515.356 1473.58,-516.279 1473.39,-517.21 1472.9,-518.147 1472.14,-519.089 1471.09,-520.031 1469.79,-520.973 1468.24,-521.91 1466.44,-522.841 1464.42,-523.763 1462.19,-524.674 1459.77,-525.57 1457.15,-526.451 1454.37,-527.312 1451.43,-528.152 1448.35,-528.968 1445.13,-529.759 1441.79,-530.521 1438.35,-531.254 1434.81,-531.955 1431.18,-532.621 1427.48,-533.252 1423.71,-533.845 1419.88,-534.399 1416.01,-534.913 1412.09,-535.384 1408.13,-535.812 1404.14,-536.195 1400.13,-536.533 1396.1,-536.825 1392.04,-537.069 1387.98,-537.265 1383.91,-537.412 1379.82,-537.511 1375.74,-537.56 1371.65,-537.56 1367.57,-537.511 1363.49,-537.412 1359.41,-537.265 1355.35,-537.069 1351.3,-536.825 1347.26,-536.533 1343.25,-536.195 1339.26,-535.812 1335.31,-535.384 1331.39,-534.913 1327.51,-534.399 1323.68,-533.845 1319.91,-533.252 1316.21,-532.621 1312.59,-531.955 1309.04,-531.254 1305.6,-530.521 1302.26,-529.759 1299.05,-528.968 1295.96,-528.152 1293.02,-527.312 1290.24,-526.451 1287.63,-525.57 1285.2,-524.674 1282.97,-523.763 1280.95,-522.841 1279.16,-521.91 1277.6,-520.973 1276.3,-520.031 1275.26,-519.089 1274.49,-518.147 1274.01,-517.21 1273.82,-516.279 1273.93,-515.356 1274.36,-514.446 1275.1,-513.549 1276.16,-512.669 1277.55,-511.808 1279.27,-510.968 1281.31,-510.152 1283.68,-509.361 1286.37,-508.598 1289.38,-507.866 1292.7,-507.165 1296.33,-506.499 1300.25,-505.868 1304.45,-505.275 1308.92,-504.721 1313.65,-504.207 1318.61,-503.736 1323.79,-503.308 1329.17,-502.924 1334.73,-502.587 1340.45,-502.295 1346.31,-502.051 1352.28,-501.855 1358.33,-501.708 1364.45,-501.609 1370.61,-501.56 1376.78,-501.56 1382.94,-501.609"/>
<polygon fill="none" stroke="black" points="1382.99,-497.609 1389.14,-497.709 1395.23,-497.857 1401.23,-498.054 1407.12,-498.299 1412.88,-498.593 1418.49,-498.933 1423.91,-499.32 1429.14,-499.751 1434.15,-500.228 1438.94,-500.747 1443.47,-501.309 1447.74,-501.913 1451.75,-502.557 1455.47,-503.241 1458.9,-503.965 1462.05,-504.73 1464.9,-505.538 1467.47,-506.395 1469.76,-507.311 1471.79,-508.305 1473.58,-509.416 1475.15,-510.711 1476.45,-512.294 1477.36,-514.24 1477.63,-516.434 1477.21,-518.546 1476.28,-520.348 1475.05,-521.849 1473.62,-523.143 1472,-524.311 1470.2,-525.4 1468.2,-526.436 1466.02,-527.434 1463.65,-528.402 1461.1,-529.342 1458.39,-530.256 1455.52,-531.145 1452.5,-532.008 1449.34,-532.844 1446.06,-533.65 1442.66,-534.427 1439.16,-535.172 1435.56,-535.883 1431.88,-536.56 1428.13,-537.199 1424.31,-537.8 1420.44,-538.361 1416.51,-538.881 1412.54,-539.358 1408.54,-539.791 1404.5,-540.179 1400.44,-540.521 1396.36,-540.816 1392.26,-541.063 1388.15,-541.261 1384.03,-541.41 1379.9,-541.51 1375.76,-541.56 1371.63,-541.56 1367.5,-541.51 1363.37,-541.41 1359.24,-541.261 1355.13,-541.063 1351.03,-540.816 1346.95,-540.521 1342.89,-540.179 1338.85,-539.791 1334.85,-539.358 1330.88,-538.881 1326.96,-538.361 1323.08,-537.8 1319.26,-537.199 1315.51,-536.56 1311.83,-535.883 1308.24,-535.172 1304.74,-534.427 1301.34,-533.65 1298.05,-532.844 1294.9,-532.008 1291.88,-531.145 1289,-530.256 1286.29,-529.342 1283.74,-528.402 1281.38,-527.434 1279.19,-526.436 1277.19,-525.4 1275.39,-524.311 1273.77,-523.143 1272.34,-521.849 1271.12,-520.348 1270.19,-518.546 1269.76,-516.434 1270.03,-514.24 1270.94,-512.294 1272.25,-510.711 1273.81,-509.416 1275.6,-508.305 1277.64,-507.311 1279.93,-506.395 1282.49,-505.538 1285.35,-504.73 1288.49,-503.965 1291.93,-503.241 1295.65,-502.557 1299.65,-501.913 1303.92,-501.309 1308.46,-500.747 1313.24,-500.228 1318.25,-499.751 1323.48,-499.32 1328.91,-498.933 1334.51,-498.593 1340.27,-498.299 1346.16,-498.054 1352.16,-497.857 1358.25,-497.709 1364.41,-497.609 1370.6,-497.56 1376.8,-497.56 1382.99,-497.609"/>
<text text-anchor="middle" x="1373.7" y="-515.86" font-family="Times,serif" font-size="14.00">MMMMMMMMMM</text>
</g>
<!-- 0112 -->
<g id="node11" class="node"><title>0112</title>
<polygon fill="none" stroke="black" points="1530.38,-450.599 1532.15,-450.977 1533.91,-451.544 1535.64,-452.297 1537.33,-453.234 1538.99,-454.353 1540.61,-455.651 1542.17,-457.124 1543.67,-458.768 1545.11,-460.579 1546.48,-462.551 1547.77,-464.68 1548.99,-466.959 1550.13,-469.383 1551.18,-471.943 1552.14,-474.635 1553.02,-477.449 1553.8,-480.379 1554.48,-483.416 1555.08,-486.553 1555.57,-489.78 1555.98,-493.088 1556.28,-496.469 1556.5,-499.913 1556.62,-503.411 1556.66,-506.954 1556.6,-510.531 1556.46,-514.133 1556.24,-517.749 1555.94,-521.371 1555.56,-524.987 1555.11,-528.589 1554.59,-532.166 1554,-535.708 1553.36,-539.206 1552.65,-542.651 1551.89,-546.032 1551.09,-549.34 1550.23,-552.567 1549.34,-555.703 1548.41,-558.741 1547.44,-561.671 1546.44,-564.485 1545.42,-567.176 1544.36,-569.737 1543.29,-572.161 1542.2,-574.44 1541.09,-576.568 1539.96,-578.541 1538.83,-580.352 1537.68,-581.996 1536.52,-583.469 1535.36,-584.767 1534.19,-585.886 1533.02,-586.823 1531.84,-587.576 1530.66,-588.142 1529.47,-588.521 1528.29,-588.711 1527.1,-588.711 1525.92,-588.521 1524.74,-588.142 1523.56,-587.576 1522.38,-586.823 1521.2,-585.886 1520.03,-584.767 1518.87,-583.469 1517.71,-581.996 1516.57,-580.352 1515.43,-578.541 1514.31,-576.568 1513.2,-574.44 1512.1,-572.161 1511.03,-569.737 1509.98,-567.176 1508.95,-564.485 1507.95,-561.671 1506.99,-558.741 1506.05,-555.703 1505.16,-552.567 1504.31,-549.34 1503.5,-546.032 1502.74,-542.651 1502.04,-539.206 1501.39,-535.708 1500.81,-532.166 1500.29,-528.589 1499.84,-524.987 1499.46,-521.371 1499.16,-517.749 1498.93,-514.133 1498.79,-510.531 1498.74,-506.954 1498.77,-503.411 1498.89,-499.913 1499.11,-496.469 1499.42,-493.088 1499.82,-489.78 1500.32,-486.553 1500.91,-483.416 1501.6,-480.379 1502.38,-477.449 1503.25,-474.635 1504.21,-471.943 1505.26,-469.383 1506.4,-466.959 1507.62,-464.68 1508.92,-462.551 1510.29,-460.579 1511.72,-458.768 1513.23,-457.124 1514.79,-455.651 1516.4,-454.353 1518.06,-453.234 1519.76,-452.297 1521.49,-451.544 1523.24,-450.977 1525.02,-450.599 1526.8,-450.409 1528.59,-450.409 1530.38,-450.599"/>
<polygon fill="none" stroke="black" points="1531.02,-446.654 1533.2,-447.12 1535.35,-447.811 1537.43,-448.72 1539.46,-449.836 1541.4,-451.151 1543.27,-452.654 1545.05,-454.338 1546.75,-456.193 1548.35,-458.213 1549.87,-460.389 1551.28,-462.715 1552.6,-465.184 1553.82,-467.79 1554.95,-470.525 1555.97,-473.382 1556.89,-476.354 1557.71,-479.434 1558.43,-482.613 1559.05,-485.885 1559.57,-489.24 1559.98,-492.67 1560.3,-496.166 1560.52,-499.721 1560.65,-503.323 1560.69,-506.966 1560.63,-510.638 1560.49,-514.331 1560.26,-518.035 1559.95,-521.74 1559.56,-525.438 1559.1,-529.119 1558.57,-532.772 1557.97,-536.39 1557.31,-539.961 1556.59,-543.479 1555.82,-546.932 1555,-550.314 1554.12,-553.614 1553.21,-556.826 1552.25,-559.941 1551.26,-562.952 1550.23,-565.851 1549.17,-568.633 1548.08,-571.29 1546.96,-573.818 1545.81,-576.211 1544.63,-578.464 1543.43,-580.575 1542.2,-582.54 1540.93,-584.356 1539.63,-586.02 1538.27,-587.53 1536.86,-588.88 1535.38,-590.062 1533.82,-591.061 1532.16,-591.854 1530.42,-592.412 1528.61,-592.701 1526.78,-592.701 1524.97,-592.412 1523.23,-591.854 1521.58,-591.061 1520.01,-590.062 1518.53,-588.88 1517.12,-587.53 1515.77,-586.02 1514.46,-584.356 1513.19,-582.54 1511.96,-580.575 1510.76,-578.464 1509.58,-576.211 1508.44,-573.818 1507.32,-571.29 1506.23,-568.633 1505.16,-565.851 1504.14,-562.952 1503.14,-559.941 1502.19,-556.826 1501.27,-553.614 1500.4,-550.314 1499.57,-546.932 1498.8,-543.479 1498.08,-539.961 1497.42,-536.39 1496.82,-532.772 1496.29,-529.119 1495.83,-525.438 1495.44,-521.74 1495.14,-518.035 1494.91,-514.331 1494.76,-510.638 1494.71,-506.966 1494.74,-503.323 1494.87,-499.721 1495.09,-496.166 1495.41,-492.67 1495.83,-489.24 1496.34,-485.885 1496.96,-482.613 1497.68,-479.434 1498.5,-476.354 1499.42,-473.382 1500.45,-470.525 1501.57,-467.79 1502.79,-465.184 1504.11,-462.715 1505.53,-460.389 1507.04,-458.213 1508.64,-456.193 1510.34,-454.338 1512.12,-452.654 1513.99,-451.151 1515.94,-449.836 1517.96,-448.72 1520.05,-447.811 1522.19,-447.12 1524.38,-446.654 1526.59,-446.419 1528.81,-446.419 1531.02,-446.654"/>
<text text-anchor="middle" x="1527.7" y="-553.36" font-family="Times,serif" font-size="14.00">M</text>
<text text-anchor="middle" x="1527.7" y="-538.36" font-family="Times,serif" font-size="14.00">M</text>
<text text-anchor="middle" x="1527.7" y="-523.36" font-family="Times,serif" font-size="14.00">M</text>
<text text-anchor="middle" x="1527.7" y="-508.36" font-family="Times,serif" font-size="14.00">M</text>
<text text-anchor="middle" x="1527.7" y="-493.36" font-family="Times,serif" font-size="14.00">M</text>
<text text-anchor="middle" x="1527.7" y="-478.36" font-family="Times,serif" font-size="14.00">M</text>
</g>
<!-- 0113 -->
<g id="node12" class="node"><title>0113</title>
<polygon fill="none" stroke="black" points="1700.73,-450.599 1707.37,-450.977 1713.94,-451.544 1720.41,-452.297 1726.77,-453.234 1732.97,-454.353 1739.01,-455.651 1744.85,-457.124 1750.47,-458.768 1755.86,-460.579 1760.98,-462.551 1765.83,-464.68 1770.39,-466.959 1774.65,-469.383 1778.58,-471.943 1782.19,-474.635 1785.45,-477.449 1788.37,-480.379 1790.94,-483.416 1793.16,-486.553 1795.02,-489.78 1796.53,-493.088 1797.68,-496.469 1798.49,-499.913 1798.95,-503.411 1799.07,-506.954 1798.87,-510.531 1798.34,-514.133 1797.51,-517.749 1796.38,-521.371 1794.97,-524.987 1793.28,-528.589 1791.33,-532.166 1789.14,-535.708 1786.72,-539.206 1784.09,-542.651 1781.25,-546.032 1778.23,-549.34 1775.04,-552.567 1771.7,-555.703 1768.21,-558.741 1764.59,-561.671 1760.85,-564.485 1757.01,-567.176 1753.07,-569.737 1749.06,-572.161 1744.97,-574.44 1740.81,-576.568 1736.61,-578.541 1732.35,-580.352 1728.06,-581.996 1723.73,-583.469 1719.38,-584.767 1715,-585.886 1710.6,-586.823 1706.19,-587.576 1701.77,-588.142 1697.35,-588.521 1692.91,-588.711 1688.48,-588.711 1684.05,-588.521 1679.62,-588.142 1675.2,-587.576 1670.79,-586.823 1666.39,-585.886 1662.02,-584.767 1657.66,-583.469 1653.33,-581.996 1649.04,-580.352 1644.79,-578.541 1640.58,-576.568 1636.43,-574.44 1632.34,-572.161 1628.32,-569.737 1624.39,-567.176 1620.54,-564.485 1616.81,-561.671 1613.19,-558.741 1609.7,-555.703 1606.35,-552.567 1603.16,-549.34 1600.14,-546.032 1597.3,-542.651 1594.67,-539.206 1592.25,-535.708 1590.06,-532.166 1588.12,-528.589 1586.43,-524.987 1585.01,-521.371 1583.88,-517.749 1583.05,-514.133 1582.52,-510.531 1582.32,-506.954 1582.44,-503.411 1582.9,-499.913 1583.71,-496.469 1584.86,-493.088 1586.37,-489.78 1588.23,-486.553 1590.45,-483.416 1593.02,-480.379 1595.94,-477.449 1599.21,-474.635 1602.81,-471.943 1606.75,-469.383 1611,-466.959 1615.56,-464.68 1620.41,-462.551 1625.54,-460.579 1630.92,-458.768 1636.54,-457.124 1642.38,-455.651 1648.42,-454.353 1654.63,-453.234 1660.98,-452.297 1667.46,-451.544 1674.03,-450.977 1680.67,-450.599 1687.35,-450.409 1694.04,-450.409 1700.73,-450.599"/>
<polygon fill="none" stroke="black" points="1700.9,-446.612 1707.65,-446.997 1714.34,-447.574 1720.94,-448.341 1727.41,-449.296 1733.75,-450.438 1739.92,-451.765 1745.9,-453.274 1751.67,-454.961 1757.21,-456.825 1762.51,-458.862 1767.53,-461.068 1772.28,-463.44 1776.73,-465.976 1780.87,-468.671 1784.69,-471.523 1788.18,-474.527 1791.32,-477.68 1794.11,-480.974 1796.53,-484.402 1798.58,-487.954 1800.25,-491.616 1801.53,-495.37 1802.43,-499.198 1802.94,-503.081 1803.08,-506.998 1802.85,-510.932 1802.28,-514.868 1801.37,-518.791 1800.16,-522.692 1798.64,-526.56 1796.85,-530.388 1794.79,-534.167 1792.49,-537.891 1789.96,-541.552 1787.21,-545.143 1784.27,-548.657 1781.14,-552.086 1777.84,-555.424 1774.38,-558.663 1770.78,-561.795 1767.05,-564.814 1763.2,-567.712 1759.25,-570.482 1755.2,-573.117 1751.06,-575.611 1746.85,-577.957 1742.58,-580.15 1738.24,-582.183 1733.85,-584.051 1729.42,-585.748 1724.95,-587.27 1720.45,-588.612 1715.91,-589.771 1711.36,-590.742 1706.79,-591.523 1702.2,-592.111 1697.6,-592.504 1693,-592.701 1688.39,-592.701 1683.79,-592.504 1679.19,-592.111 1674.61,-591.523 1670.03,-590.742 1665.48,-589.771 1660.95,-588.612 1656.44,-587.27 1651.97,-585.748 1647.54,-584.051 1643.15,-582.183 1638.82,-580.15 1634.54,-577.957 1630.33,-575.611 1626.19,-573.117 1622.15,-570.482 1618.19,-567.712 1614.34,-564.814 1610.61,-561.795 1607.01,-558.663 1603.56,-555.424 1600.26,-552.086 1597.13,-548.657 1594.18,-545.143 1591.43,-541.552 1588.9,-537.891 1586.6,-534.167 1584.55,-530.388 1582.75,-526.56 1581.24,-522.692 1580.02,-518.791 1579.12,-514.868 1578.54,-510.932 1578.32,-506.998 1578.45,-503.081 1578.97,-499.198 1579.86,-495.37 1581.14,-491.616 1582.81,-487.954 1584.86,-484.402 1587.28,-480.974 1590.07,-477.68 1593.21,-474.527 1596.7,-471.523 1600.52,-468.671 1604.66,-465.976 1609.11,-463.44 1613.86,-461.068 1618.89,-458.862 1624.18,-456.825 1629.72,-454.961 1635.49,-453.274 1641.47,-451.765 1647.64,-450.438 1653.98,-449.296 1660.46,-448.341 1667.05,-447.574 1673.74,-446.997 1680.5,-446.612 1687.29,-446.419 1694.1,-446.419 1700.9,-446.612"/>
<text text-anchor="middle" x="1690.7" y="-553.36" font-family="Times,serif" font-size="14.00">MMMMMMMMMM</text>
<text text-anchor="middle" x="1690.7" y="-538.36" font-family="Times,serif" font-size="14.00">MMMMMMMMMM</text>
<text text-anchor="middle" x="1690.7" y="-523.36" font-family="Times,serif" font-size="14.00">MMMMMMMMMM</text>
<text text-anchor="middle" x="1690.7" y="-508.36" font-family="Times,serif" font-size="14.00">MMMMMMMMMM</text>
<text text-anchor="middle" x="1690.7" y="-493.36" font-family="Times,serif" font-size="14.00">MMMMMMMMMM</text>
<text text-anchor="middle" x="1690.7" y="-478.36" font-family="Times,serif" font-size="14.00">MMMMMMMMMM</text>
</g>
<!-- 3000 -->
<g id="node13" class="node"><title>3000</title>
<polygon fill="none" stroke="black" points="37.6967,-811.14 -0.197686,-776.64 75.591,-776.64 37.6967,-811.14"/>
<text text-anchor="middle" x="37.6967" y="-784.44" font-family="Times,serif" font-size="14.00">M</text>
</g>
<!-- 3000&#45;&gt;0000 -->
<g id="edge1" class="edge"><title>3000&#45;&gt;0000</title>
<path fill="none" stroke="black" d="M37.6967,-776.359C37.6967,-737.742 37.6967,-605.561 37.6967,-547.865"/>
<polygon fill="black" stroke="black" points="41.1968,-547.683 37.6967,-537.683 34.1968,-547.683 41.1968,-547.683"/>
</g>
<!-- 3001 -->
<g id="node14" class="node"><title>3001</title>
<polygon fill="none" stroke="black" points="280.697,-811.14 93.3297,-776.64 468.064,-776.64 280.697,-811.14"/>
<text text-anchor="middle" x="280.697" y="-784.44" font-family="Times,serif" font-size="14.00">MMMMMMMMMM</text>
</g>
<!-- 3002 -->
<g id="node15" class="node"><title>3002</title>
<polygon fill="none" stroke="black" points="526.697,-926.826 485.672,-718.797 567.721,-718.797 526.697,-926.826"/>
<text text-anchor="middle" x="526.697" y="-821.94" font-family="Times,serif" font-size="14.00">M</text>
<text text-anchor="middle" x="526.697" y="-806.94" font-family="Times,serif" font-size="14.00">M</text>
<text text-anchor="middle" x="526.697" y="-791.94" font-family="Times,serif" font-size="14.00">M</text>
<text text-anchor="middle" x="526.697" y="-776.94" font-family="Times,serif" font-size="14.00">M</text>
<text text-anchor="middle" x="526.697" y="-761.94" font-family="Times,serif" font-size="14.00">M</text>
<text text-anchor="middle" x="526.697" y="-746.94" font-family="Times,serif" font-size="14.00">M</text>
</g>
<!-- 3003 -->
<g id="node16" class="node"><title>3003</title>
<polygon fill="none" stroke="black" points="789.697,-926.826 585.903,-718.797 993.49,-718.797 789.697,-926.826"/>
<text text-anchor="middle" x="789.697" y="-821.94" font-family="Times,serif" font-size="14.00">MMMMMMMMMM</text>
<text text-anchor="middle" x="789.697" y="-806.94" font-family="Times,serif" font-size="14.00">MMMMMMMMMM</text>
<text text-anchor="middle" x="789.697" y="-791.94" font-family="Times,serif" font-size="14.00">MMMMMMMMMM</text>
<text text-anchor="middle" x="789.697" y="-776.94" font-family="Times,serif" font-size="14.00">MMMMMMMMMM</text>
<text text-anchor="middle" x="789.697" y="-761.94" font-family="Times,serif" font-size="14.00">MMMMMMMMMM</text>
<text text-anchor="middle" x="789.697" y="-746.94" font-family="Times,serif" font-size="14.00">MMMMMMMMMM</text>
</g>
<!-- 3110 -->
<g id="node17" class="node"><title>3110</title>
<polygon fill="none" stroke="black" points="1022.01,-799.608 1059.7,-765.202 1097.39,-799.608 1022.01,-799.608"/>
<polygon fill="none" stroke="black" points="1011.71,-803.597 1059.7,-759.795 1107.68,-803.597 1011.71,-803.597"/>
<text text-anchor="middle" x="1059.7" y="-784.44" font-family="Times,serif" font-size="14.00">M</text>
</g>
<!-- 3111 -->
<g id="node18" class="node"><title>3111</title>
<polygon fill="none" stroke="black" points="1169.55,-799.668 1356.7,-765.082 1543.84,-799.668 1169.55,-799.668"/>
<polygon fill="none" stroke="black" points="1125.79,-803.678 1356.7,-761.005 1587.6,-803.678 1125.79,-803.678"/>
<text text-anchor="middle" x="1356.7" y="-784.44" font-family="Times,serif" font-size="14.00">MMMMMMMMMM</text>
</g>
<!-- 3112 -->
<g id="node19" class="node"><title>3112</title>
<polygon fill="none" stroke="black" points="1610.79,-857.332 1651.7,-649.756 1692.6,-857.332 1610.79,-857.332"/>
<polygon fill="none" stroke="black" points="1605.94,-861.326 1651.7,-629.12 1697.45,-861.326 1605.94,-861.326"/>
<text text-anchor="middle" x="1651.7" y="-821.94" font-family="Times,serif" font-size="14.00">M</text>
<text text-anchor="middle" x="1651.7" y="-806.94" font-family="Times,serif" font-size="14.00">M</text>
<text text-anchor="middle" x="1651.7" y="-791.94" font-family="Times,serif" font-size="14.00">M</text>
<text text-anchor="middle" x="1651.7" y="-776.94" font-family="Times,serif" font-size="14.00">M</text>
<text text-anchor="middle" x="1651.7" y="-761.94" font-family="Times,serif" font-size="14.00">M</text>
<text text-anchor="middle" x="1651.7" y="-746.94" font-family="Times,serif" font-size="14.00">M</text>
</g>
<!-- 3113 -->
<g id="node20" class="node"><title>3113</title>
<polygon fill="none" stroke="black" points="1724.89,-857.345 1928.7,-649.73 2132.5,-857.345 1724.89,-857.345"/>
<polygon fill="none" stroke="black" points="1715.37,-861.339 1928.7,-644.021 2142.03,-861.339 1715.37,-861.339"/>
<text text-anchor="middle" x="1928.7" y="-821.94" font-family="Times,serif" font-size="14.00">MMMMMMMMMM</text>
<text text-anchor="middle" x="1928.7" y="-806.94" font-family="Times,serif" font-size="14.00">MMMMMMMMMM</text>
<text text-anchor="middle" x="1928.7" y="-791.94" font-family="Times,serif" font-size="14.00">MMMMMMMMMM</text>
<text text-anchor="middle" x="1928.7" y="-776.94" font-family="Times,serif" font-size="14.00">MMMMMMMMMM</text>
<text text-anchor="middle" x="1928.7" y="-761.94" font-family="Times,serif" font-size="14.00">MMMMMMMMMM</text>
<text text-anchor="middle" x="1928.7" y="-746.94" font-family="Times,serif" font-size="14.00">MMMMMMMMMM</text>
</g>
<!-- 4000 -->
<g id="node21" class="node"><title>4000</title>
<polygon fill="none" stroke="black" points="64.6967,-1113.5 10.6967,-1113.5 10.6967,-1077.5 64.6967,-1077.5 64.6967,-1113.5"/>
<text text-anchor="middle" x="37.6967" y="-1091.8" font-family="Times,serif" font-size="14.00">M</text>
</g>
<!-- 4000&#45;&gt;3000 -->
<g id="edge2" class="edge"><title>4000&#45;&gt;3000</title>
<path fill="none" stroke="black" d="M37.6967,-1077.2C37.6967,-1027.95 37.6967,-886.315 37.6967,-821.826"/>
<polygon fill="black" stroke="black" points="41.1968,-821.441 37.6967,-811.441 34.1968,-821.441 41.1968,-821.441"/>
</g>
<!-- 4001 -->
<g id="node22" class="node"><title>4001</title>
<polygon fill="none" stroke="black" points="226.697,-1113.5 82.6967,-1113.5 82.6967,-1077.5 226.697,-1077.5 226.697,-1113.5"/>
<text text-anchor="middle" x="154.697" y="-1091.8" font-family="Times,serif" font-size="14.00">MMMMMMMMMM</text>
</g>
<!-- 4002 -->
<g id="node23" class="node"><title>4002</title>
<polygon fill="none" stroke="black" points="298.697,-1144.5 244.697,-1144.5 244.697,-1046.5 298.697,-1046.5 298.697,-1144.5"/>
<text text-anchor="middle" x="271.697" y="-1129.3" font-family="Times,serif" font-size="14.00">M</text>
<text text-anchor="middle" x="271.697" y="-1114.3" font-family="Times,serif" font-size="14.00">M</text>
<text text-anchor="middle" x="271.697" y="-1099.3" font-family="Times,serif" font-size="14.00">M</text>
<text text-anchor="middle" x="271.697" y="-1084.3" font-family="Times,serif" font-size="14.00">M</text>
<text text-anchor="middle" x="271.697" y="-1069.3" font-family="Times,serif" font-size="14.00">M</text>
<text text-anchor="middle" x="271.697" y="-1054.3" font-family="Times,serif" font-size="14.00">M</text>
</g>
<!-- 4003 -->
<g id="node24" class="node"><title>4003</title>
<polygon fill="none" stroke="black" points="460.697,-1144.5 316.697,-1144.5 316.697,-1046.5 460.697,-1046.5 460.697,-1144.5"/>
<text text-anchor="middle" x="388.697" y="-1129.3" font-family="Times,serif" font-size="14.00">MMMMMMMMMM</text>
<text text-anchor="middle" x="388.697" y="-1114.3" font-family="Times,serif" font-size="14.00">MMMMMMMMMM</text>
<text text-anchor="middle" x="388.697" y="-1099.3" font-family="Times,serif" font-size="14.00">MMMMMMMMMM</text>
<text text-anchor="middle" x="388.697" y="-1084.3" font-family="Times,serif" font-size="14.00">MMMMMMMMMM</text>
<text text-anchor="middle" x="388.697" y="-1069.3" font-family="Times,serif" font-size="14.00">MMMMMMMMMM</text>
<text text-anchor="middle" x="388.697" y="-1054.3" font-family="Times,serif" font-size="14.00">MMMMMMMMMM</text>
</g>
<!-- 4110 -->
<g id="node25" class="node"><title>4110</title>
<polygon fill="none" stroke="black" points="512.697,-1113.35 485.529,-1095.5 512.697,-1077.65 539.864,-1095.5 512.697,-1113.35"/>
<polygon fill="none" stroke="black" points="512.697,-1118.11 478.273,-1095.5 512.697,-1072.88 547.12,-1095.5 512.697,-1118.11"/>
<text text-anchor="middle" x="512.697" y="-1091.8" font-family="Times,serif" font-size="14.00">M</text>
</g>
<!-- 4111 -->
<g id="node26" class="node"><title>4111</title>
<polygon fill="none" stroke="black" points="726.697,-1113.53 594.303,-1095.5 726.697,-1077.47 859.09,-1095.5 726.697,-1113.53"/>
<polygon fill="none" stroke="black" points="726.697,-1117.57 564.612,-1095.5 726.697,-1073.42 888.782,-1095.5 726.697,-1117.57"/>
<text text-anchor="middle" x="726.697" y="-1091.8" font-family="Times,serif" font-size="14.00">MMMMMMMMMM</text>
</g>
<!-- 4112 -->
<g id="node27" class="node"><title>4112</title>
<polygon fill="none" stroke="black" points="939.697,-1193.58 910.546,-1095.5 939.697,-997.411 968.847,-1095.5 939.697,-1193.58"/>
<polygon fill="none" stroke="black" points="939.697,-1207.69 906.353,-1095.5 939.697,-983.303 973.04,-1095.5 939.697,-1207.69"/>
<text text-anchor="middle" x="939.697" y="-1129.3" font-family="Times,serif" font-size="14.00">M</text>
<text text-anchor="middle" x="939.697" y="-1114.3" font-family="Times,serif" font-size="14.00">M</text>
<text text-anchor="middle" x="939.697" y="-1099.3" font-family="Times,serif" font-size="14.00">M</text>
<text text-anchor="middle" x="939.697" y="-1084.3" font-family="Times,serif" font-size="14.00">M</text>
<text text-anchor="middle" x="939.697" y="-1069.3" font-family="Times,serif" font-size="14.00">M</text>
<text text-anchor="middle" x="939.697" y="-1054.3" font-family="Times,serif" font-size="14.00">M</text>
</g>
<!-- 4113 -->
<g id="node28" class="node"><title>4113</title>
<polygon fill="none" stroke="black" points="1141.7,-1193.34 997.592,-1095.5 1141.7,-997.65 1285.8,-1095.5 1141.7,-1193.34"/>
<polygon fill="none" stroke="black" points="1141.7,-1198.17 990.477,-1095.5 1141.7,-992.819 1292.92,-1095.5 1141.7,-1198.17"/>
<text text-anchor="middle" x="1141.7" y="-1129.3" font-family="Times,serif" font-size="14.00">MMMMMMMMMM</text>
<text text-anchor="middle" x="1141.7" y="-1114.3" font-family="Times,serif" font-size="14.00">MMMMMMMMMM</text>
<text text-anchor="middle" x="1141.7" y="-1099.3" font-family="Times,serif" font-size="14.00">MMMMMMMMMM</text>
<text text-anchor="middle" x="1141.7" y="-1084.3" font-family="Times,serif" font-size="14.00">MMMMMMMMMM</text>
<text text-anchor="middle" x="1141.7" y="-1069.3" font-family="Times,serif" font-size="14.00">MMMMMMMMMM</text>
<text text-anchor="middle" x="1141.7" y="-1054.3" font-family="Times,serif" font-size="14.00">MMMMMMMMMM</text>
</g>
<!-- 5000 -->
<g id="node29" class="node"><title>5000</title>
<polygon fill="none" stroke="black" points="64.6967,-1344.45 37.6967,-1356.89 10.6967,-1344.45 21.0097,-1324.32 54.3836,-1324.32 64.6967,-1344.45"/>
<text text-anchor="middle" x="37.6967" y="-1335.19" font-family="Times,serif" font-size="14.00">M</text>
</g>
<!-- 5000&#45;&gt;4000 -->
<g id="edge3" class="edge"><title>5000&#45;&gt;4000</title>
<path fill="none" stroke="black" d="M37.6967,-1324.22C37.6967,-1285.67 37.6967,-1175.55 37.6967,-1123.88"/>
<polygon fill="black" stroke="black" points="41.1968,-1123.79 37.6967,-1113.79 34.1968,-1123.79 41.1968,-1123.79"/>
</g>
<!-- 5001 -->
<g id="node30" class="node"><title>5001</title>
<polygon fill="none" stroke="black" points="314.568,-1344.45 198.697,-1356.89 82.825,-1344.45 127.084,-1324.32 270.309,-1324.32 314.568,-1344.45"/>
<text text-anchor="middle" x="198.697" y="-1335.19" font-family="Times,serif" font-size="14.00">MMMMMMMMMM</text>
</g>
<!-- 5002 -->
<g id="node31" class="node"><title>5002</title>
<polygon fill="none" stroke="black" points="386.697,-1365.4 359.697,-1424.7 332.697,-1365.4 343.01,-1269.46 376.384,-1269.46 386.697,-1365.4"/>
<text text-anchor="middle" x="359.697" y="-1372.69" font-family="Times,serif" font-size="14.00">M</text>
<text text-anchor="middle" x="359.697" y="-1357.69" font-family="Times,serif" font-size="14.00">M</text>
<text text-anchor="middle" x="359.697" y="-1342.69" font-family="Times,serif" font-size="14.00">M</text>
<text text-anchor="middle" x="359.697" y="-1327.69" font-family="Times,serif" font-size="14.00">M</text>
<text text-anchor="middle" x="359.697" y="-1312.69" font-family="Times,serif" font-size="14.00">M</text>
<text text-anchor="middle" x="359.697" y="-1297.69" font-family="Times,serif" font-size="14.00">M</text>
</g>
<!-- 5003 -->
<g id="node32" class="node"><title>5003</title>
<polygon fill="none" stroke="black" points="656.418,-1365.4 530.697,-1424.7 404.975,-1365.4 452.997,-1269.46 608.397,-1269.46 656.418,-1365.4"/>
<text text-anchor="middle" x="530.697" y="-1372.69" font-family="Times,serif" font-size="14.00">MMMMMMMMMM</text>
<text text-anchor="middle" x="530.697" y="-1357.69" font-family="Times,serif" font-size="14.00">MMMMMMMMMM</text>
<text text-anchor="middle" x="530.697" y="-1342.69" font-family="Times,serif" font-size="14.00">MMMMMMMMMM</text>
<text text-anchor="middle" x="530.697" y="-1327.69" font-family="Times,serif" font-size="14.00">MMMMMMMMMM</text>
<text text-anchor="middle" x="530.697" y="-1312.69" font-family="Times,serif" font-size="14.00">MMMMMMMMMM</text>
<text text-anchor="middle" x="530.697" y="-1297.69" font-family="Times,serif" font-size="14.00">MMMMMMMMMM</text>
</g>
<!-- 5110 -->
<g id="node33" class="node"><title>5110</title>
<polygon fill="none" stroke="black" points="723.364,-1353.39 690.029,-1353.39 679.728,-1333.35 706.697,-1320.96 733.665,-1333.35 723.364,-1353.39"/>
<polygon fill="none" stroke="black" points="725.806,-1357.37 687.587,-1357.37 674.272,-1331.47 706.697,-1316.58 739.121,-1331.47 725.806,-1357.37"/>
<text text-anchor="middle" x="706.697" y="-1335.19" font-family="Times,serif" font-size="14.00">M</text>
</g>
<!-- 5111 -->
<g id="node34" class="node"><title>5111</title>
<polygon fill="none" stroke="black" points="959.271,-1353.46 816.122,-1353.46 771.887,-1333.32 887.697,-1320.87 1003.51,-1333.32 959.271,-1353.46"/>
<polygon fill="none" stroke="black" points="960.14,-1357.47 815.253,-1357.47 756.917,-1330.9 887.697,-1316.84 1018.48,-1330.9 960.14,-1357.47"/>
<text text-anchor="middle" x="887.697" y="-1335.19" font-family="Times,serif" font-size="14.00">MMMMMMMMMM</text>
</g>
<!-- 5112 -->
<g id="node35" class="node"><title>5112</title>
<polygon fill="none" stroke="black" points="1084.43,-1408.03 1050.96,-1408.03 1040.61,-1312.47 1067.7,-1253.42 1094.78,-1312.47 1084.43,-1408.03"/>
<polygon fill="none" stroke="black" points="1088.04,-1412.02 1047.36,-1412.02 1036.51,-1311.81 1067.7,-1243.8 1098.89,-1311.81 1088.04,-1412.02"/>
<text text-anchor="middle" x="1067.7" y="-1372.69" font-family="Times,serif" font-size="14.00">M</text>
<text text-anchor="middle" x="1067.7" y="-1357.69" font-family="Times,serif" font-size="14.00">M</text>
<text text-anchor="middle" x="1067.7" y="-1342.69" font-family="Times,serif" font-size="14.00">M</text>
<text text-anchor="middle" x="1067.7" y="-1327.69" font-family="Times,serif" font-size="14.00">M</text>
<text text-anchor="middle" x="1067.7" y="-1312.69" font-family="Times,serif" font-size="14.00">M</text>
<text text-anchor="middle" x="1067.7" y="-1297.69" font-family="Times,serif" font-size="14.00">M</text>
</g>
<!-- 5113 -->
<g id="node36" class="node"><title>5113</title>
<polygon fill="none" stroke="black" points="1325.35,-1408.24 1170.04,-1408.24 1122.05,-1312.39 1247.7,-1253.16 1373.34,-1312.39 1325.35,-1408.24"/>
<polygon fill="none" stroke="black" points="1327.81,-1412.24 1167.58,-1412.24 1116.64,-1310.52 1247.7,-1248.73 1378.75,-1310.52 1327.81,-1412.24"/>
<text text-anchor="middle" x="1247.7" y="-1372.69" font-family="Times,serif" font-size="14.00">MMMMMMMMMM</text>
<text text-anchor="middle" x="1247.7" y="-1357.69" font-family="Times,serif" font-size="14.00">MMMMMMMMMM</text>
<text text-anchor="middle" x="1247.7" y="-1342.69" font-family="Times,serif" font-size="14.00">MMMMMMMMMM</text>
<text text-anchor="middle" x="1247.7" y="-1327.69" font-family="Times,serif" font-size="14.00">MMMMMMMMMM</text>
<text text-anchor="middle" x="1247.7" y="-1312.69" font-family="Times,serif" font-size="14.00">MMMMMMMMMM</text>
<text text-anchor="middle" x="1247.7" y="-1297.69" font-family="Times,serif" font-size="14.00">MMMMMMMMMM</text>
</g>
<!-- 6000 -->
<g id="node37" class="node"><title>6000</title>
<polygon fill="none" stroke="black" points="64.6967,-1557.35 51.1967,-1575.35 24.1967,-1575.35 10.6967,-1557.35 24.1967,-1539.35 51.1967,-1539.35 64.6967,-1557.35"/>
<text text-anchor="middle" x="37.6967" y="-1553.65" font-family="Times,serif" font-size="14.00">M</text>
</g>
<!-- 6000&#45;&gt;5000 -->
<g id="edge4" class="edge"><title>6000&#45;&gt;5000</title>
<path fill="none" stroke="black" d="M37.6967,-1539C37.6967,-1501.46 37.6967,-1412.46 37.6967,-1367.25"/>
<polygon fill="black" stroke="black" points="41.1968,-1367.02 37.6967,-1357.02 34.1968,-1367.02 41.1968,-1367.02"/>
</g>
<!-- 6001 -->
<g id="node38" class="node"><title>6001</title>
<polygon fill="none" stroke="black" points="298.837,-1557.35 244.767,-1575.35 136.626,-1575.35 82.5558,-1557.35 136.626,-1539.35 244.767,-1539.35 298.837,-1557.35"/>
<text text-anchor="middle" x="190.697" y="-1553.65" font-family="Times,serif" font-size="14.00">MMMMMMMMMM</text>
</g>
<!-- 6002 -->
<g id="node39" class="node"><title>6002</title>
<polygon fill="none" stroke="black" points="370.697,-1557.35 357.197,-1637.38 330.197,-1637.38 316.697,-1557.35 330.197,-1477.31 357.197,-1477.31 370.697,-1557.35"/>
<text text-anchor="middle" x="343.697" y="-1591.15" font-family="Times,serif" font-size="14.00">M</text>
<text text-anchor="middle" x="343.697" y="-1576.15" font-family="Times,serif" font-size="14.00">M</text>
<text text-anchor="middle" x="343.697" y="-1561.15" font-family="Times,serif" font-size="14.00">M</text>
<text text-anchor="middle" x="343.697" y="-1546.15" font-family="Times,serif" font-size="14.00">M</text>
<text text-anchor="middle" x="343.697" y="-1531.15" font-family="Times,serif" font-size="14.00">M</text>
<text text-anchor="middle" x="343.697" y="-1516.15" font-family="Times,serif" font-size="14.00">M</text>
</g>
<!-- 6003 -->
<g id="node40" class="node"><title>6003</title>
<polygon fill="none" stroke="black" points="624.348,-1557.35 565.522,-1637.38 447.871,-1637.38 389.046,-1557.35 447.871,-1477.31 565.522,-1477.31 624.348,-1557.35"/>
<text text-anchor="middle" x="506.697" y="-1591.15" font-family="Times,serif" font-size="14.00">MMMMMMMMMM</text>
<text text-anchor="middle" x="506.697" y="-1576.15" font-family="Times,serif" font-size="14.00">MMMMMMMMMM</text>
<text text-anchor="middle" x="506.697" y="-1561.15" font-family="Times,serif" font-size="14.00">MMMMMMMMMM</text>
<text text-anchor="middle" x="506.697" y="-1546.15" font-family="Times,serif" font-size="14.00">MMMMMMMMMM</text>
<text text-anchor="middle" x="506.697" y="-1531.15" font-family="Times,serif" font-size="14.00">MMMMMMMMMM</text>
<text text-anchor="middle" x="506.697" y="-1516.15" font-family="Times,serif" font-size="14.00">MMMMMMMMMM</text>
</g>
<!-- 6110 -->
<g id="node41" class="node"><title>6110</title>
<polygon fill="none" stroke="black" points="700.697,-1566.43 673.697,-1575.52 646.697,-1566.43 646.697,-1548.26 673.697,-1539.17 700.697,-1548.26 700.697,-1566.43"/>
<polygon fill="none" stroke="black" points="704.697,-1569.35 673.697,-1579.78 642.697,-1569.35 642.697,-1545.35 673.697,-1534.91 704.697,-1545.35 704.697,-1569.35"/>
<text text-anchor="middle" x="673.697" y="-1553.65" font-family="Times,serif" font-size="14.00">M</text>
</g>
<!-- 6111 -->
<g id="node42" class="node"><title>6111</title>
<polygon fill="none" stroke="black" points="942.835,-1566.35 834.697,-1575.36 726.558,-1566.35 726.558,-1548.34 834.697,-1539.33 942.835,-1548.34 942.835,-1566.35"/>
<polygon fill="none" stroke="black" points="946.837,-1570.03 834.697,-1579.37 722.556,-1570.03 722.556,-1544.66 834.697,-1535.32 946.837,-1544.66 946.837,-1570.03"/>
<text text-anchor="middle" x="834.697" y="-1553.65" font-family="Times,serif" font-size="14.00">MMMMMMMMMM</text>
</g>
<!-- 6112 -->
<g id="node43" class="node"><title>6112</title>
<polygon fill="none" stroke="black" points="1022.7,-1597.43 995.697,-1637.52 968.697,-1597.43 968.697,-1517.26 995.697,-1477.17 1022.7,-1517.26 1022.7,-1597.43"/>
<polygon fill="none" stroke="black" points="1026.7,-1598.66 995.697,-1644.68 964.697,-1598.66 964.697,-1516.03 995.697,-1470.01 1026.7,-1516.03 1026.7,-1598.66"/>
<text text-anchor="middle" x="995.697" y="-1591.15" font-family="Times,serif" font-size="14.00">M</text>
<text text-anchor="middle" x="995.697" y="-1576.15" font-family="Times,serif" font-size="14.00">M</text>
<text text-anchor="middle" x="995.697" y="-1561.15" font-family="Times,serif" font-size="14.00">M</text>
<text text-anchor="middle" x="995.697" y="-1546.15" font-family="Times,serif" font-size="14.00">M</text>
<text text-anchor="middle" x="995.697" y="-1531.15" font-family="Times,serif" font-size="14.00">M</text>
<text text-anchor="middle" x="995.697" y="-1516.15" font-family="Times,serif" font-size="14.00">M</text>
</g>
<!-- 6113 -->
<g id="node44" class="node"><title>6113</title>
<polygon fill="none" stroke="black" points="1284.35,-1597.47 1166.7,-1637.59 1049.05,-1597.47 1049.05,-1517.22 1166.7,-1477.1 1284.35,-1517.22 1284.35,-1597.47"/>
<polygon fill="none" stroke="black" points="1288.35,-1600.34 1166.7,-1641.83 1045.05,-1600.34 1045.05,-1514.35 1166.7,-1472.86 1288.35,-1514.35 1288.35,-1600.34"/>
<text text-anchor="middle" x="1166.7" y="-1591.15" font-family="Times,serif" font-size="14.00">MMMMMMMMMM</text>
<text text-anchor="middle" x="1166.7" y="-1576.15" font-family="Times,serif" font-size="14.00">MMMMMMMMMM</text>
<text text-anchor="middle" x="1166.7" y="-1561.15" font-family="Times,serif" font-size="14.00">MMMMMMMMMM</text>
<text text-anchor="middle" x="1166.7" y="-1546.15" font-family="Times,serif" font-size="14.00">MMMMMMMMMM</text>
<text text-anchor="middle" x="1166.7" y="-1531.15" font-family="Times,serif" font-size="14.00">MMMMMMMMMM</text>
<text text-anchor="middle" x="1166.7" y="-1516.15" font-family="Times,serif" font-size="14.00">MMMMMMMMMM</text>
</g>
<!-- 7000 -->
<g id="node45" class="node"><title>7000</title>
<polygon fill="none" stroke="black" points="64.6967,-1760.1 59.349,-1775.33 37.6967,-1782.11 16.0443,-1775.33 10.6967,-1760.1 25.6805,-1747.89 49.7128,-1747.89 64.6967,-1760.1"/>
<text text-anchor="middle" x="37.6967" y="-1760.41" font-family="Times,serif" font-size="14.00">M</text>
</g>
<!-- 7000&#45;&gt;6000 -->
<g id="edge5" class="edge"><title>7000&#45;&gt;6000</title>
<path fill="none" stroke="black" d="M37.6967,-1747.72C37.6967,-1713.25 37.6967,-1629.46 37.6967,-1585.81"/>
<polygon fill="black" stroke="black" points="41.1968,-1585.63 37.6967,-1575.63 34.1968,-1585.63 41.1968,-1585.63"/>
</g>
<!-- 7001 -->
<g id="node46" class="node"><title>7001</title>
<polygon fill="none" stroke="black" points="290.455,-1760.1 269.904,-1775.33 186.697,-1782.11 103.489,-1775.33 82.9386,-1760.1 140.52,-1747.89 232.873,-1747.89 290.455,-1760.1"/>
<text text-anchor="middle" x="186.697" y="-1760.41" font-family="Times,serif" font-size="14.00">MMMMMMMMMM</text>
</g>
<!-- 7002 -->
<g id="node47" class="node"><title>7002</title>
<polygon fill="none" stroke="black" points="362.697,-1747.01 357.349,-1812.01 335.697,-1840.93 314.044,-1812.01 308.697,-1747.01 323.681,-1694.89 347.713,-1694.89 362.697,-1747.01"/>
<text text-anchor="middle" x="335.697" y="-1797.91" font-family="Times,serif" font-size="14.00">M</text>
<text text-anchor="middle" x="335.697" y="-1782.91" font-family="Times,serif" font-size="14.00">M</text>
<text text-anchor="middle" x="335.697" y="-1767.91" font-family="Times,serif" font-size="14.00">M</text>
<text text-anchor="middle" x="335.697" y="-1752.91" font-family="Times,serif" font-size="14.00">M</text>
<text text-anchor="middle" x="335.697" y="-1737.91" font-family="Times,serif" font-size="14.00">M</text>
<text text-anchor="middle" x="335.697" y="-1722.91" font-family="Times,serif" font-size="14.00">M</text>
</g>
<!-- 7003 -->
<g id="node48" class="node"><title>7003</title>
<polygon fill="none" stroke="black" points="606.728,-1747.01 584.34,-1812.01 493.697,-1840.93 403.053,-1812.01 380.666,-1747.01 443.393,-1694.89 544,-1694.89 606.728,-1747.01"/>
<text text-anchor="middle" x="493.697" y="-1797.91" font-family="Times,serif" font-size="14.00">MMMMMMMMMM</text>
<text text-anchor="middle" x="493.697" y="-1782.91" font-family="Times,serif" font-size="14.00">MMMMMMMMMM</text>
<text text-anchor="middle" x="493.697" y="-1767.91" font-family="Times,serif" font-size="14.00">MMMMMMMMMM</text>
<text text-anchor="middle" x="493.697" y="-1752.91" font-family="Times,serif" font-size="14.00">MMMMMMMMMM</text>
<text text-anchor="middle" x="493.697" y="-1737.91" font-family="Times,serif" font-size="14.00">MMMMMMMMMM</text>
<text text-anchor="middle" x="493.697" y="-1722.91" font-family="Times,serif" font-size="14.00">MMMMMMMMMM</text>
</g>
<!-- 7110 -->
<g id="node49" class="node"><title>7110</title>
<polygon fill="none" stroke="black" points="683.873,-1768.14 668.797,-1780.46 644.609,-1780.47 629.524,-1768.15 634.9,-1752.79 656.69,-1745.95 678.485,-1752.78 683.873,-1768.14"/>
<polygon fill="none" stroke="black" points="688.609,-1769.48 670.231,-1784.5 643.177,-1784.5 624.789,-1769.49 631.769,-1749.54 656.689,-1741.72 681.613,-1749.54 688.609,-1769.48"/>
<text text-anchor="middle" x="656.697" y="-1760.41" font-family="Times,serif" font-size="14.00">M</text>
</g>
<!-- 7111 -->
<g id="node50" class="node"><title>7111</title>
<polygon fill="none" stroke="black" points="923.49,-1768.11 865.91,-1780.33 773.531,-1780.34 715.915,-1768.12 736.449,-1752.88 819.67,-1746.1 902.911,-1752.87 923.49,-1768.11"/>
<polygon fill="none" stroke="black" points="933.009,-1770.18 866.329,-1784.33 773.112,-1784.34 706.406,-1770.19 734.987,-1748.98 819.67,-1742.08 904.371,-1748.98 933.009,-1770.18"/>
<text text-anchor="middle" x="819.697" y="-1760.41" font-family="Times,serif" font-size="14.00">MMMMMMMMMM</text>
</g>
<!-- 7112 -->
<g id="node51" class="node"><title>7112</title>
<polygon fill="none" stroke="black" points="1008.74,-1781.22 993.736,-1833.47 969.669,-1833.49 954.659,-1781.26 960.009,-1716.11 981.69,-1687.11 1003.38,-1716.08 1008.74,-1781.22"/>
<polygon fill="none" stroke="black" points="1012.79,-1781.62 996.755,-1837.47 966.653,-1837.49 950.607,-1781.66 956.11,-1714.64 981.688,-1680.42 1007.27,-1714.61 1012.79,-1781.62"/>
<text text-anchor="middle" x="981.697" y="-1797.91" font-family="Times,serif" font-size="14.00">M</text>
<text text-anchor="middle" x="981.697" y="-1782.91" font-family="Times,serif" font-size="14.00">M</text>
<text text-anchor="middle" x="981.697" y="-1767.91" font-family="Times,serif" font-size="14.00">M</text>
<text text-anchor="middle" x="981.697" y="-1752.91" font-family="Times,serif" font-size="14.00">M</text>
<text text-anchor="middle" x="981.697" y="-1737.91" font-family="Times,serif" font-size="14.00">M</text>
<text text-anchor="middle" x="981.697" y="-1722.91" font-family="Times,serif" font-size="14.00">M</text>
</g>
<!-- 7113 -->
<g id="node52" class="node"><title>7113</title>
<polygon fill="none" stroke="black" points="1261.9,-1781.23 1199.1,-1833.49 1098.34,-1833.51 1035.51,-1781.26 1057.9,-1716.1 1148.67,-1687.09 1239.46,-1716.07 1261.9,-1781.23"/>
<polygon fill="none" stroke="black" points="1266.59,-1782.54 1200.55,-1837.5 1096.9,-1837.51 1030.82,-1782.58 1054.77,-1712.9 1148.67,-1682.88 1242.59,-1712.87 1266.59,-1782.54"/>
<text text-anchor="middle" x="1148.7" y="-1797.91" font-family="Times,serif" font-size="14.00">MMMMMMMMMM</text>
<text text-anchor="middle" x="1148.7" y="-1782.91" font-family="Times,serif" font-size="14.00">MMMMMMMMMM</text>
<text text-anchor="middle" x="1148.7" y="-1767.91" font-family="Times,serif" font-size="14.00">MMMMMMMMMM</text>
<text text-anchor="middle" x="1148.7" y="-1752.91" font-family="Times,serif" font-size="14.00">MMMMMMMMMM</text>
<text text-anchor="middle" x="1148.7" y="-1737.91" font-family="Times,serif" font-size="14.00">MMMMMMMMMM</text>
<text text-anchor="middle" x="1148.7" y="-1722.91" font-family="Times,serif" font-size="14.00">MMMMMMMMMM</text>
</g>
<!-- 8000 -->
<g id="node53" class="node"><title>8000</title>
<polygon fill="none" stroke="black" points="64.6967,-1957.35 64.6967,-1972.26 48.8804,-1982.8 26.5129,-1982.8 10.6967,-1972.26 10.6967,-1957.35 26.5129,-1946.8 48.8804,-1946.8 64.6967,-1957.35"/>
<text text-anchor="middle" x="37.6967" y="-1961.1" font-family="Times,serif" font-size="14.00">M</text>
</g>
<!-- 8000&#45;&gt;7000 -->
<g id="edge6" class="edge"><title>8000&#45;&gt;7000</title>
<path fill="none" stroke="black" d="M37.6967,-1946.52C37.6967,-1911.94 37.6967,-1833.99 37.6967,-1792.43"/>
<polygon fill="black" stroke="black" points="41.1968,-1792.21 37.6967,-1782.21 34.1968,-1792.21 41.1968,-1792.21"/>
</g>
<!-- 8001 -->
<g id="node54" class="node"><title>8001</title>
<polygon fill="none" stroke="black" points="284.803,-1957.35 284.803,-1972.26 225.576,-1982.8 141.817,-1982.8 82.5904,-1972.26 82.5904,-1957.35 141.817,-1946.8 225.576,-1946.8 284.803,-1957.35"/>
<text text-anchor="middle" x="183.697" y="-1961.1" font-family="Times,serif" font-size="14.00">MMMMMMMMMM</text>
</g>
<!-- 8002 -->
<g id="node55" class="node"><title>8002</title>
<polygon fill="none" stroke="black" points="356.697,-1933.73 356.697,-1995.87 340.88,-2039.82 318.513,-2039.82 302.697,-1995.87 302.697,-1933.73 318.513,-1889.79 340.88,-1889.79 356.697,-1933.73"/>
<text text-anchor="middle" x="329.697" y="-1998.6" font-family="Times,serif" font-size="14.00">M</text>
<text text-anchor="middle" x="329.697" y="-1983.6" font-family="Times,serif" font-size="14.00">M</text>
<text text-anchor="middle" x="329.697" y="-1968.6" font-family="Times,serif" font-size="14.00">M</text>
<text text-anchor="middle" x="329.697" y="-1953.6" font-family="Times,serif" font-size="14.00">M</text>
<text text-anchor="middle" x="329.697" y="-1938.6" font-family="Times,serif" font-size="14.00">M</text>
<text text-anchor="middle" x="329.697" y="-1923.6" font-family="Times,serif" font-size="14.00">M</text>
</g>
<!-- 8003 -->
<g id="node56" class="node"><title>8003</title>
<polygon fill="none" stroke="black" points="595.123,-1933.73 595.123,-1995.87 530.437,-2039.82 438.957,-2039.82 374.271,-1995.87 374.271,-1933.73 438.957,-1889.79 530.437,-1889.79 595.123,-1933.73"/>
<text text-anchor="middle" x="484.697" y="-1998.6" font-family="Times,serif" font-size="14.00">MMMMMMMMMM</text>
<text text-anchor="middle" x="484.697" y="-1983.6" font-family="Times,serif" font-size="14.00">MMMMMMMMMM</text>
<text text-anchor="middle" x="484.697" y="-1968.6" font-family="Times,serif" font-size="14.00">MMMMMMMMMM</text>
<text text-anchor="middle" x="484.697" y="-1953.6" font-family="Times,serif" font-size="14.00">MMMMMMMMMM</text>
<text text-anchor="middle" x="484.697" y="-1938.6" font-family="Times,serif" font-size="14.00">MMMMMMMMMM</text>
<text text-anchor="middle" x="484.697" y="-1923.6" font-family="Times,serif" font-size="14.00">MMMMMMMMMM</text>
</g>
<!-- 8110 -->
<g id="node57" class="node"><title>8110</title>
<polygon fill="none" stroke="black" points="671.876,-1964.8 663.915,-1977.62 644.697,-1982.93 625.478,-1977.62 617.517,-1964.8 625.478,-1951.99 644.697,-1946.68 663.915,-1951.99 671.876,-1964.8"/>
<polygon fill="none" stroke="black" points="676.616,-1964.8 666.505,-1981.08 644.697,-1987.1 622.889,-1981.08 612.777,-1964.8 622.889,-1948.53 644.697,-1942.5 666.505,-1948.53 676.616,-1964.8"/>
<text text-anchor="middle" x="644.697" y="-1961.1" font-family="Times,serif" font-size="14.00">M</text>
</g>
<!-- 8111 -->
<g id="node58" class="node"><title>8111</title>
<polygon fill="none" stroke="black" points="906.954,-1964.8 877.296,-1977.54 805.697,-1982.81 734.097,-1977.54 704.44,-1964.8 734.097,-1952.07 805.697,-1946.79 877.296,-1952.07 906.954,-1964.8"/>
<polygon fill="none" stroke="black" points="917.095,-1964.8 878.257,-1981.48 805.697,-1986.82 733.136,-1981.48 694.298,-1964.8 733.136,-1948.13 805.697,-1942.78 878.257,-1948.13 917.095,-1964.8"/>
<text text-anchor="middle" x="805.697" y="-1961.1" font-family="Times,serif" font-size="14.00">MMMMMMMMMM</text>
</g>
<!-- 8112 -->
<g id="node59" class="node"><title>8112</title>
<polygon fill="none" stroke="black" points="992.735,-1964.8 984.816,-2017.91 965.697,-2039.91 946.578,-2017.91 938.658,-1964.8 946.578,-1911.7 965.697,-1889.7 984.816,-1911.7 992.735,-1964.8"/>
<polygon fill="none" stroke="black" points="996.785,-1964.8 988.605,-2019.65 965.697,-2046.01 942.788,-2019.65 934.608,-1964.8 942.788,-1909.95 965.697,-1883.6 988.605,-1909.95 996.785,-1964.8"/>
<text text-anchor="middle" x="965.697" y="-1998.6" font-family="Times,serif" font-size="14.00">M</text>
<text text-anchor="middle" x="965.697" y="-1983.6" font-family="Times,serif" font-size="14.00">M</text>
<text text-anchor="middle" x="965.697" y="-1968.6" font-family="Times,serif" font-size="14.00">M</text>
<text text-anchor="middle" x="965.697" y="-1953.6" font-family="Times,serif" font-size="14.00">M</text>
<text text-anchor="middle" x="965.697" y="-1938.6" font-family="Times,serif" font-size="14.00">M</text>
<text text-anchor="middle" x="965.697" y="-1923.6" font-family="Times,serif" font-size="14.00">M</text>
</g>
<!-- 8113 -->
<g id="node60" class="node"><title>8113</title>
<polygon fill="none" stroke="black" points="1239.81,-1964.8 1207.56,-2017.95 1129.7,-2039.96 1051.84,-2017.95 1019.58,-1964.8 1051.84,-1911.66 1129.7,-1889.64 1207.56,-1911.66 1239.81,-1964.8"/>
<polygon fill="none" stroke="black" points="1244.49,-1964.8 1210.15,-2021.38 1129.7,-2044.13 1049.24,-2021.38 1014.91,-1964.8 1049.24,-1908.23 1129.7,-1885.48 1210.15,-1908.23 1244.49,-1964.8"/>
<text text-anchor="middle" x="1129.7" y="-1998.6" font-family="Times,serif" font-size="14.00">MMMMMMMMMM</text>
<text text-anchor="middle" x="1129.7" y="-1983.6" font-family="Times,serif" font-size="14.00">MMMMMMMMMM</text>
<text text-anchor="middle" x="1129.7" y="-1968.6" font-family="Times,serif" font-size="14.00">MMMMMMMMMM</text>
<text text-anchor="middle" x="1129.7" y="-1953.6" font-family="Times,serif" font-size="14.00">MMMMMMMMMM</text>
<text text-anchor="middle" x="1129.7" y="-1938.6" font-family="Times,serif" font-size="14.00">MMMMMMMMMM</text>
<text text-anchor="middle" x="1129.7" y="-1923.6" font-family="Times,serif" font-size="14.00">MMMMMMMMMM</text>
</g>
<!-- 9000 -->
<g id="node61" class="node"><title>9000</title>
<polygon fill="none" stroke="black" points="1318.67,-1991.62 1262.72,-1991.62 1276.16,-1937.99 1305.23,-1937.99 1318.67,-1991.62"/>
<text text-anchor="middle" x="1290.7" y="-1961.1" font-family="Times,serif" font-size="14.00">M</text>
</g>
<!-- 9001 -->
<g id="node62" class="node"><title>9001</title>
<polygon fill="none" stroke="black" points="1375.97,-1997.68 1336.82,-1958.53 1372.83,-1941.33 1393.17,-1961.67 1375.97,-1997.68"/>
<text text-anchor="middle" x="1369.7" y="-1961.1" font-family="Times,serif" font-size="14.00">M</text>
</g>
<!-- 9002 -->
<g id="node63" class="node"><title>9002</title>
<polygon fill="none" stroke="black" points="1420.88,-1992.78 1420.88,-1936.83 1474.51,-1950.27 1474.51,-1979.34 1420.88,-1992.78"/>
<text text-anchor="middle" x="1447.7" y="-1961.1" font-family="Times,serif" font-size="14.00">M</text>
</g>
<!-- 9003 -->
<g id="node64" class="node"><title>9003</title>
<polygon fill="none" stroke="black" points="1492.82,-1971.08 1531.97,-1931.92 1549.17,-1967.94 1528.83,-1988.28 1492.82,-1971.08"/>
<text text-anchor="middle" x="1525.7" y="-1961.1" font-family="Times,serif" font-size="14.00">M</text>
</g>
<!-- 9004 -->
<g id="node65" class="node"><title>9004</title>
<polygon fill="none" stroke="black" points="1576.72,-1937.99 1632.67,-1937.99 1619.23,-1991.62 1590.16,-1991.62 1576.72,-1937.99"/>
<text text-anchor="middle" x="1604.7" y="-1961.1" font-family="Times,serif" font-size="14.00">M</text>
</g>
<!-- 9005 -->
<g id="node66" class="node"><title>9005</title>
<polygon fill="none" stroke="black" points="1677.42,-1931.92 1716.58,-1971.08 1680.56,-1988.28 1660.22,-1967.94 1677.42,-1931.92"/>
<text text-anchor="middle" x="1683.7" y="-1961.1" font-family="Times,serif" font-size="14.00">M</text>
</g>
<!-- 9006 -->
<g id="node67" class="node"><title>9006</title>
<polygon fill="none" stroke="black" points="1788.51,-1936.83 1788.51,-1992.78 1734.88,-1979.34 1734.88,-1950.27 1788.51,-1936.83"/>
<text text-anchor="middle" x="1761.7" y="-1961.1" font-family="Times,serif" font-size="14.00">M</text>
</g>
<!-- 9007 -->
<g id="node68" class="node"><title>9007</title>
<polygon fill="none" stroke="black" points="1872.58,-1958.53 1833.42,-1997.68 1816.22,-1961.67 1836.56,-1941.33 1872.58,-1958.53"/>
<text text-anchor="middle" x="1839.7" y="-1961.1" font-family="Times,serif" font-size="14.00">M</text>
</g>
<!-- 9010 -->
<g id="node69" class="node"><title>9010</title>
<polygon fill="none" stroke="black" points="1951.32,-1991.59 1896.08,-1991.59 1909.35,-1938.01 1938.04,-1938.01 1951.32,-1991.59"/>
<polygon fill="none" stroke="black" points="1956.42,-1995.62 1890.98,-1995.62 1906.24,-1933.99 1941.15,-1933.99 1956.42,-1995.62"/>
<text text-anchor="middle" x="1923.7" y="-1961.1" font-family="Times,serif" font-size="14.00">M</text>
</g>
<!-- 9011 -->
<g id="node70" class="node"><title>9011</title>
<polygon fill="none" stroke="black" points="2020.95,-1997.55 1981.95,-1958.55 2017.82,-1941.42 2038.08,-1961.68 2020.95,-1997.55"/>
<polygon fill="none" stroke="black" points="2022.11,-2004.34 1975.16,-1957.39 2018.64,-1936.62 2042.88,-1960.86 2022.11,-2004.34"/>
<text text-anchor="middle" x="2014.7" y="-1961.1" font-family="Times,serif" font-size="14.00">M</text>
</g>
<!-- 9012 -->
<g id="node71" class="node"><title>9012</title>
<polygon fill="none" stroke="black" points="2075.91,-1992.42 2075.91,-1937.18 2129.49,-1950.46 2129.49,-1979.15 2075.91,-1992.42"/>
<polygon fill="none" stroke="black" points="2071.88,-1997.52 2071.88,-1932.08 2133.51,-1947.35 2133.51,-1982.26 2071.88,-1997.52"/>
<text text-anchor="middle" x="2102.7" y="-1961.1" font-family="Times,serif" font-size="14.00">M</text>
</g>
<!-- 9013 -->
<g id="node72" class="node"><title>9013</title>
<polygon fill="none" stroke="black" points="2157.95,-1971.05 2196.95,-1932.05 2214.08,-1967.92 2193.82,-1988.18 2157.95,-1971.05"/>
<polygon fill="none" stroke="black" points="2151.16,-1972.22 2198.11,-1925.26 2218.88,-1968.75 2194.64,-1992.98 2151.16,-1972.22"/>
<text text-anchor="middle" x="2190.7" y="-1961.1" font-family="Times,serif" font-size="14.00">M</text>
</g>
<!-- 9014 -->
<g id="node73" class="node"><title>9014</title>
<polygon fill="none" stroke="black" points="2254.08,-1938.01 2309.32,-1938.01 2296.04,-1991.59 2267.35,-1991.59 2254.08,-1938.01"/>
<polygon fill="none" stroke="black" points="2248.98,-1933.99 2314.42,-1933.99 2299.15,-1995.62 2264.24,-1995.62 2248.98,-1933.99"/>
<text text-anchor="middle" x="2281.7" y="-1961.1" font-family="Times,serif" font-size="14.00">M</text>
</g>
<!-- 9015 -->
<g id="node74" class="node"><title>9015</title>
<polygon fill="none" stroke="black" points="2366.45,-1932.05 2405.45,-1971.05 2369.58,-1988.18 2349.32,-1967.92 2366.45,-1932.05"/>
<polygon fill="none" stroke="black" points="2365.28,-1925.26 2412.24,-1972.22 2368.75,-1992.98 2344.52,-1968.75 2365.28,-1925.26"/>
<text text-anchor="middle" x="2372.7" y="-1961.1" font-family="Times,serif" font-size="14.00">M</text>
</g>
<!-- 9016 -->
<g id="node75" class="node"><title>9016</title>
<polygon fill="none" stroke="black" points="2487.49,-1937.18 2487.49,-1992.42 2433.91,-1979.15 2433.91,-1950.46 2487.49,-1937.18"/>
<polygon fill="none" stroke="black" points="2491.51,-1932.08 2491.51,-1997.52 2429.88,-1982.26 2429.88,-1947.35 2491.51,-1932.08"/>
<text text-anchor="middle" x="2460.7" y="-1961.1" font-family="Times,serif" font-size="14.00">M</text>
</g>
<!-- 9017 -->
<g id="node76" class="node"><title>9017</title>
<polygon fill="none" stroke="black" points="2581.45,-1958.55 2542.45,-1997.55 2525.32,-1961.68 2545.58,-1941.42 2581.45,-1958.55"/>
<polygon fill="none" stroke="black" points="2588.24,-1957.39 2541.28,-2004.34 2520.52,-1960.86 2544.75,-1936.62 2588.24,-1957.39"/>
<text text-anchor="middle" x="2548.7" y="-1961.1" font-family="Times,serif" font-size="14.00">M</text>
</g>
<!-- 20000 -->
<g id="node89" class="node"><title>20000</title>
<ellipse fill="none" stroke="black" cx="37.6967" cy="-109.823" rx="18.6979" ry="18.6979"/>
<text text-anchor="middle" x="37.6967" y="-106.123" font-family="Times,serif" font-size="14.00">M</text>
</g>
<!-- 10000&#45;&gt;20000 -->
<g id="edge8" class="edge"><title>10000&#45;&gt;20000</title>
<path fill="none" stroke="black" d="M37.6967,-314.592C37.6967,-276.514 37.6967,-185.331 37.6967,-138.949"/>
<polygon fill="black" stroke="black" points="41.1968,-138.708 37.6967,-128.708 34.1968,-138.708 41.1968,-138.708"/>
</g>
<!-- 10001 -->
<g id="node78" class="node"><title>10001</title>
<ellipse fill="none" stroke="black" cx="176.697" cy="-332.943" rx="93.6835" ry="18"/>
<text text-anchor="middle" x="176.697" y="-329.243" font-family="Times,serif" font-size="14.00">MMMMMMMMMM</text>
</g>
<!-- 10002 -->
<g id="node79" class="node"><title>10002</title>
<ellipse fill="none" stroke="black" cx="315.697" cy="-332.943" rx="27" ry="69.0935"/>
<text text-anchor="middle" x="315.697" y="-366.743" font-family="Times,serif" font-size="14.00">M</text>
<text text-anchor="middle" x="315.697" y="-351.743" font-family="Times,serif" font-size="14.00">M</text>
<text text-anchor="middle" x="315.697" y="-336.743" font-family="Times,serif" font-size="14.00">M</text>
<text text-anchor="middle" x="315.697" y="-321.743" font-family="Times,serif" font-size="14.00">M</text>
<text text-anchor="middle" x="315.697" y="-306.743" font-family="Times,serif" font-size="14.00">M</text>
<text text-anchor="middle" x="315.697" y="-291.743" font-family="Times,serif" font-size="14.00">M</text>
</g>
<!-- 10003 -->
<g id="node80" class="node"><title>10003</title>
<ellipse fill="none" stroke="black" cx="462.697" cy="-332.943" rx="101.647" ry="69.0935"/>
<text text-anchor="middle" x="462.697" y="-366.743" font-family="Times,serif" font-size="14.00">MMMMMMMMMM</text>
<text text-anchor="middle" x="462.697" y="-351.743" font-family="Times,serif" font-size="14.00">MMMMMMMMMM</text>
<text text-anchor="middle" x="462.697" y="-336.743" font-family="Times,serif" font-size="14.00">MMMMMMMMMM</text>
<text text-anchor="middle" x="462.697" y="-321.743" font-family="Times,serif" font-size="14.00">MMMMMMMMMM</text>
<text text-anchor="middle" x="462.697" y="-306.743" font-family="Times,serif" font-size="14.00">MMMMMMMMMM</text>
<text text-anchor="middle" x="462.697" y="-291.743" font-family="Times,serif" font-size="14.00">MMMMMMMMMM</text>
</g>
<!-- 10010 -->
<g id="node81" class="node"><title>10010</title>
<ellipse fill="none" stroke="black" cx="613.697" cy="-332.943" rx="27" ry="18"/>
<ellipse fill="none" stroke="black" cx="613.697" cy="-332.943" rx="31" ry="22"/>
<text text-anchor="middle" x="613.697" y="-329.243" font-family="Times,serif" font-size="14.00">M</text>
</g>
<!-- 10011 -->
<g id="node82" class="node"><title>10011</title>
<ellipse fill="none" stroke="black" cx="760.697" cy="-332.943" rx="93.6797" ry="18"/>
<ellipse fill="none" stroke="black" cx="760.697" cy="-332.943" rx="97.6835" ry="22"/>
<text text-anchor="middle" x="760.697" y="-329.243" font-family="Times,serif" font-size="14.00">MMMMMMMMMM</text>
</g>
<!-- 10012 -->
<g id="node83" class="node"><title>10012</title>
<ellipse fill="none" stroke="black" cx="907.697" cy="-332.943" rx="27" ry="69.1046"/>
<ellipse fill="none" stroke="black" cx="907.697" cy="-332.943" rx="31" ry="73.0935"/>
<text text-anchor="middle" x="907.697" y="-366.743" font-family="Times,serif" font-size="14.00">M</text>
<text text-anchor="middle" x="907.697" y="-351.743" font-family="Times,serif" font-size="14.00">M</text>
<text text-anchor="middle" x="907.697" y="-336.743" font-family="Times,serif" font-size="14.00">M</text>
<text text-anchor="middle" x="907.697" y="-321.743" font-family="Times,serif" font-size="14.00">M</text>
<text text-anchor="middle" x="907.697" y="-306.743" font-family="Times,serif" font-size="14.00">M</text>
<text text-anchor="middle" x="907.697" y="-291.743" font-family="Times,serif" font-size="14.00">M</text>
</g>
<!-- 10013 -->
<g id="node84" class="node"><title>10013</title>
<ellipse fill="none" stroke="black" cx="1062.7" cy="-332.943" rx="101.654" ry="69.1046"/>
<ellipse fill="none" stroke="black" cx="1062.7" cy="-332.943" rx="105.647" ry="73.0935"/>
<text text-anchor="middle" x="1062.7" y="-366.743" font-family="Times,serif" font-size="14.00">MMMMMMMMMM</text>
<text text-anchor="middle" x="1062.7" y="-351.743" font-family="Times,serif" font-size="14.00">MMMMMMMMMM</text>
<text text-anchor="middle" x="1062.7" y="-336.743" font-family="Times,serif" font-size="14.00">MMMMMMMMMM</text>
<text text-anchor="middle" x="1062.7" y="-321.743" font-family="Times,serif" font-size="14.00">MMMMMMMMMM</text>
<text text-anchor="middle" x="1062.7" y="-306.743" font-family="Times,serif" font-size="14.00">MMMMMMMMMM</text>
<text text-anchor="middle" x="1062.7" y="-291.743" font-family="Times,serif" font-size="14.00">MMMMMMMMMM</text>
</g>
<!-- 10014 -->
<g id="node85" class="node"><title>10014</title>
<ellipse fill="none" stroke="black" cx="1221.7" cy="-332.943" rx="27" ry="18"/>
<ellipse fill="none" stroke="black" cx="1221.7" cy="-332.943" rx="31" ry="22"/>
<ellipse fill="none" stroke="black" cx="1221.7" cy="-332.943" rx="35" ry="26"/>
<text text-anchor="middle" x="1221.7" y="-329.243" font-family="Times,serif" font-size="14.00">M</text>
</g>
<!-- 10015 -->
<g id="node86" class="node"><title>10015</title>
<ellipse fill="none" stroke="black" cx="1376.7" cy="-332.943" rx="93.6762" ry="18"/>
<ellipse fill="none" stroke="black" cx="1376.7" cy="-332.943" rx="97.6799" ry="22"/>
<ellipse fill="none" stroke="black" cx="1376.7" cy="-332.943" rx="101.683" ry="26"/>
<text text-anchor="middle" x="1376.7" y="-329.243" font-family="Times,serif" font-size="14.00">MMMMMMMMMM</text>
</g>
<!-- 10016 -->
<g id="node87" class="node"><title>10016</title>
<ellipse fill="none" stroke="black" cx="1531.7" cy="-332.943" rx="27" ry="69.1145"/>
<ellipse fill="none" stroke="black" cx="1531.7" cy="-332.943" rx="31" ry="73.104"/>
<ellipse fill="none" stroke="black" cx="1531.7" cy="-332.943" rx="35" ry="77.0935"/>
<text text-anchor="middle" x="1531.7" y="-366.743" font-family="Times,serif" font-size="14.00">M</text>
<text text-anchor="middle" x="1531.7" y="-351.743" font-family="Times,serif" font-size="14.00">M</text>
<text text-anchor="middle" x="1531.7" y="-336.743" font-family="Times,serif" font-size="14.00">M</text>
<text text-anchor="middle" x="1531.7" y="-321.743" font-family="Times,serif" font-size="14.00">M</text>
<text text-anchor="middle" x="1531.7" y="-306.743" font-family="Times,serif" font-size="14.00">M</text>
<text text-anchor="middle" x="1531.7" y="-291.743" font-family="Times,serif" font-size="14.00">M</text>
</g>
<!-- 10017 -->
<g id="node88" class="node"><title>10017</title>
<ellipse fill="none" stroke="black" cx="1694.7" cy="-332.943" rx="101.66" ry="69.1145"/>
<ellipse fill="none" stroke="black" cx="1694.7" cy="-332.943" rx="105.653" ry="73.104"/>
<ellipse fill="none" stroke="black" cx="1694.7" cy="-332.943" rx="109.647" ry="77.0935"/>
<text text-anchor="middle" x="1694.7" y="-366.743" font-family="Times,serif" font-size="14.00">MMMMMMMMMM</text>
<text text-anchor="middle" x="1694.7" y="-351.743" font-family="Times,serif" font-size="14.00">MMMMMMMMMM</text>
<text text-anchor="middle" x="1694.7" y="-336.743" font-family="Times,serif" font-size="14.00">MMMMMMMMMM</text>
<text text-anchor="middle" x="1694.7" y="-321.743" font-family="Times,serif" font-size="14.00">MMMMMMMMMM</text>
<text text-anchor="middle" x="1694.7" y="-306.743" font-family="Times,serif" font-size="14.00">MMMMMMMMMM</text>
<text text-anchor="middle" x="1694.7" y="-291.743" font-family="Times,serif" font-size="14.00">MMMMMMMMMM</text>
</g>
<!-- 20001 -->
<g id="node90" class="node"><title>20001</title>
<ellipse fill="none" stroke="black" cx="167.697" cy="-109.823" rx="93.6835" ry="93.6835"/>
<text text-anchor="middle" x="167.697" y="-106.123" font-family="Times,serif" font-size="14.00">MMMMMMMMMM</text>
</g>
<!-- 20002 -->
<g id="node91" class="node"><title>20002</title>
<ellipse fill="none" stroke="black" cx="348.697" cy="-109.823" rx="69.0935" ry="69.0935"/>
<text text-anchor="middle" x="348.697" y="-143.623" font-family="Times,serif" font-size="14.00">M</text>
<text text-anchor="middle" x="348.697" y="-128.623" font-family="Times,serif" font-size="14.00">M</text>
<text text-anchor="middle" x="348.697" y="-113.623" font-family="Times,serif" font-size="14.00">M</text>
<text text-anchor="middle" x="348.697" y="-98.6234" font-family="Times,serif" font-size="14.00">M</text>
<text text-anchor="middle" x="348.697" y="-83.6234" font-family="Times,serif" font-size="14.00">M</text>
<text text-anchor="middle" x="348.697" y="-68.6234" font-family="Times,serif" font-size="14.00">M</text>
</g>
<!-- 20003 -->
<g id="node92" class="node"><title>20003</title>
<ellipse fill="none" stroke="black" cx="537.697" cy="-109.823" rx="101.647" ry="101.647"/>
<text text-anchor="middle" x="537.697" y="-143.623" font-family="Times,serif" font-size="14.00">MMMMMMMMMM</text>
<text text-anchor="middle" x="537.697" y="-128.623" font-family="Times,serif" font-size="14.00">MMMMMMMMMM</text>
<text text-anchor="middle" x="537.697" y="-113.623" font-family="Times,serif" font-size="14.00">MMMMMMMMMM</text>
<text text-anchor="middle" x="537.697" y="-98.6234" font-family="Times,serif" font-size="14.00">MMMMMMMMMM</text>
<text text-anchor="middle" x="537.697" y="-83.6234" font-family="Times,serif" font-size="14.00">MMMMMMMMMM</text>
<text text-anchor="middle" x="537.697" y="-68.6234" font-family="Times,serif" font-size="14.00">MMMMMMMMMM</text>
</g>
<!-- 20010 -->
<g id="node93" class="node"><title>20010</title>
<ellipse fill="none" stroke="black" cx="680.697" cy="-109.823" rx="18.724" ry="18.724"/>
<ellipse fill="none" stroke="black" cx="680.697" cy="-109.823" rx="22.6977" ry="22.6977"/>
<text text-anchor="middle" x="680.697" y="-106.123" font-family="Times,serif" font-size="14.00">M</text>
</g>
<!-- 20011 -->
<g id="node94" class="node"><title>20011</title>
<ellipse fill="none" stroke="black" cx="818.697" cy="-109.823" rx="93.6797" ry="93.6797"/>
<ellipse fill="none" stroke="black" cx="818.697" cy="-109.823" rx="97.6835" ry="97.6835"/>
<text text-anchor="middle" x="818.697" y="-106.123" font-family="Times,serif" font-size="14.00">MMMMMMMMMM</text>
</g>
<!-- 20012 -->
<g id="node95" class="node"><title>20012</title>
<ellipse fill="none" stroke="black" cx="1007.7" cy="-109.823" rx="69.1046" ry="69.1046"/>
<ellipse fill="none" stroke="black" cx="1007.7" cy="-109.823" rx="73.0935" ry="73.0935"/>
<text text-anchor="middle" x="1007.7" y="-143.623" font-family="Times,serif" font-size="14.00">M</text>
<text text-anchor="middle" x="1007.7" y="-128.623" font-family="Times,serif" font-size="14.00">M</text>
<text text-anchor="middle" x="1007.7" y="-113.623" font-family="Times,serif" font-size="14.00">M</text>
<text text-anchor="middle" x="1007.7" y="-98.6234" font-family="Times,serif" font-size="14.00">M</text>
<text text-anchor="middle" x="1007.7" y="-83.6234" font-family="Times,serif" font-size="14.00">M</text>
<text text-anchor="middle" x="1007.7" y="-68.6234" font-family="Times,serif" font-size="14.00">M</text>
</g>
<!-- 20013 -->
<g id="node96" class="node"><title>20013</title>
<ellipse fill="none" stroke="black" cx="1204.7" cy="-109.823" rx="101.654" ry="101.654"/>
<ellipse fill="none" stroke="black" cx="1204.7" cy="-109.823" rx="105.647" ry="105.647"/>
<text text-anchor="middle" x="1204.7" y="-143.623" font-family="Times,serif" font-size="14.00">MMMMMMMMMM</text>
<text text-anchor="middle" x="1204.7" y="-128.623" font-family="Times,serif" font-size="14.00">MMMMMMMMMM</text>
<text text-anchor="middle" x="1204.7" y="-113.623" font-family="Times,serif" font-size="14.00">MMMMMMMMMM</text>
<text text-anchor="middle" x="1204.7" y="-98.6234" font-family="Times,serif" font-size="14.00">MMMMMMMMMM</text>
<text text-anchor="middle" x="1204.7" y="-83.6234" font-family="Times,serif" font-size="14.00">MMMMMMMMMM</text>
<text text-anchor="middle" x="1204.7" y="-68.6234" font-family="Times,serif" font-size="14.00">MMMMMMMMMM</text>
</g>
<!-- 20014 -->
<g id="node97" class="node"><title>20014</title>
<ellipse fill="none" stroke="black" cx="1355.7" cy="-109.823" rx="18.7424" ry="18.7424"/>
<ellipse fill="none" stroke="black" cx="1355.7" cy="-109.823" rx="22.72" ry="22.72"/>
<ellipse fill="none" stroke="black" cx="1355.7" cy="-109.823" rx="26.6975" ry="26.6975"/>
<text text-anchor="middle" x="1355.7" y="-106.123" font-family="Times,serif" font-size="14.00">M</text>
</g>
<!-- 20015 -->
<g id="node98" class="node"><title>20015</title>
<ellipse fill="none" stroke="black" cx="1501.7" cy="-109.823" rx="93.6762" ry="93.6762"/>
<ellipse fill="none" stroke="black" cx="1501.7" cy="-109.823" rx="97.6799" ry="97.6799"/>
<ellipse fill="none" stroke="black" cx="1501.7" cy="-109.823" rx="101.683" ry="101.683"/>
<text text-anchor="middle" x="1501.7" y="-106.123" font-family="Times,serif" font-size="14.00">MMMMMMMMMM</text>
</g>
<!-- 20016 -->
<g id="node99" class="node"><title>20016</title>
<ellipse fill="none" stroke="black" cx="1698.7" cy="-109.823" rx="69.1145" ry="69.1145"/>
<ellipse fill="none" stroke="black" cx="1698.7" cy="-109.823" rx="73.104" ry="73.104"/>
<ellipse fill="none" stroke="black" cx="1698.7" cy="-109.823" rx="77.0935" ry="77.0935"/>
<text text-anchor="middle" x="1698.7" y="-143.623" font-family="Times,serif" font-size="14.00">M</text>
<text text-anchor="middle" x="1698.7" y="-128.623" font-family="Times,serif" font-size="14.00">M</text>
<text text-anchor="middle" x="1698.7" y="-113.623" font-family="Times,serif" font-size="14.00">M</text>
<text text-anchor="middle" x="1698.7" y="-98.6234" font-family="Times,serif" font-size="14.00">M</text>
<text text-anchor="middle" x="1698.7" y="-83.6234" font-family="Times,serif" font-size="14.00">M</text>
<text text-anchor="middle" x="1698.7" y="-68.6234" font-family="Times,serif" font-size="14.00">M</text>
</g>
<!-- 20017 -->
<g id="node100" class="node"><title>20017</title>
<ellipse fill="none" stroke="black" cx="1903.7" cy="-109.823" rx="101.66" ry="101.66"/>
<ellipse fill="none" stroke="black" cx="1903.7" cy="-109.823" rx="105.653" ry="105.653"/>
<ellipse fill="none" stroke="black" cx="1903.7" cy="-109.823" rx="109.647" ry="109.647"/>
<text text-anchor="middle" x="1903.7" y="-143.623" font-family="Times,serif" font-size="14.00">MMMMMMMMMM</text>
<text text-anchor="middle" x="1903.7" y="-128.623" font-family="Times,serif" font-size="14.00">MMMMMMMMMM</text>
<text text-anchor="middle" x="1903.7" y="-113.623" font-family="Times,serif" font-size="14.00">MMMMMMMMMM</text>
<text text-anchor="middle" x="1903.7" y="-98.6234" font-family="Times,serif" font-size="14.00">MMMMMMMMMM</text>
<text text-anchor="middle" x="1903.7" y="-83.6234" font-family="Times,serif" font-size="14.00">MMMMMMMMMM</text>
<text text-anchor="middle" x="1903.7" y="-68.6234" font-family="Times,serif" font-size="14.00">MMMMMMMMMM</text>
</g>
</g>
</svg>
