<?xml version="1.0" encoding="UTF-8" standalone="no"?>
<!DOCTYPE svg PUBLIC "-//W3C//DTD SVG 1.1//EN"
 "http://www.w3.org/Graphics/SVG/1.1/DTD/svg11.dtd">
<!-- Generated by graphviz version 2.38.0 (20140413.2041)
 -->
<!-- Title: g Pages: 1 -->
<svg width="202pt" height="720pt"
 viewBox="0.00 0.00 720.00 201.77" xmlns="http://www.w3.org/2000/svg" xmlns:xlink="http://www.w3.org/1999/xlink">
<g id="graph0" class="graph" transform="scale(0.273598 0.273598) rotate(-90) translate(-2627.6 733.48)">
<title>g</title>
<polygon fill="white" stroke="none" points="-4,4 -4,-733.48 2627.6,-733.48 2627.6,4 -4,4"/>
<g id="clust1" class="cluster"><title>cluster_0</title>
<polygon fill="none" stroke="black" stroke-width="8" points="193.957,-117.74 193.957,-425.74 599.957,-425.74 599.957,-117.74 193.957,-117.74"/>
<text text-anchor="middle" x="396.957" y="-402.54" font-family="Courier,monospace" font-size="24.00">gryphon</text>
</g>
<g id="clust2" class="cluster"><title>cluster_1</title>
<polygon fill="none" stroke="black" stroke-width="8" points="697.957,-117.74 697.957,-425.74 1103.96,-425.74 1103.96,-117.74 697.957,-117.74"/>
<text text-anchor="middle" x="900.957" y="-402.54" font-family="Courier,monospace" font-size="24.00">toucan</text>
</g>
<g id="clust3" class="cluster"><title>cluster_2</title>
<polygon fill="none" stroke="black" stroke-width="8" points="1185.96,-117.74 1185.96,-425.74 1287.96,-425.74 1287.96,-117.74 1185.96,-117.74"/>
<text text-anchor="middle" x="1236.96" y="-402.54" font-family="Courier,monospace" font-size="24.00">parker</text>
</g>
<g id="clust4" class="cluster"><title>cluster_3</title>
<polygon fill="none" stroke="black" stroke-width="8" points="1442.96,-117.74 1442.96,-425.74 1644.96,-425.74 1644.96,-117.74 1442.96,-117.74"/>
<text text-anchor="middle" x="1543.96" y="-402.54" font-family="Courier,monospace" font-size="24.00">condor</text>
</g>
<g id="clust5" class="cluster"><title>cluster_4</title>
<polygon fill="none" stroke="black" stroke-width="8" points="1763.96,-117.74 1763.96,-425.74 1965.96,-425.74 1965.96,-117.74 1763.96,-117.74"/>
<text text-anchor="middle" x="1864.96" y="-402.54" font-family="Courier,monospace" font-size="24.00">kite</text>
</g>
<g id="clust6" class="cluster"><title>cluster_5</title>
<polygon fill="none" stroke="black" stroke-width="8" points="2146.96,-117.74 2146.96,-425.74 2348.96,-425.74 2348.96,-117.74 2146.96,-117.74"/>
<text text-anchor="middle" x="2247.96" y="-402.54" font-family="Courier,monospace" font-size="24.00">coot</text>
</g>
<!-- 22342 -->
<g id="node1" class="node"><title>22342</title>
<polygon fill="none" stroke="black" points="574.957,-383.74 524.957,-383.74 524.957,-345.74 574.957,-345.74 574.957,-383.74"/>
<text text-anchor="middle" x="549.957" y="-368.54" font-family="Times,serif" font-size="14.00">22342</text>
<text text-anchor="middle" x="549.957" y="-353.54" font-family="Times,serif" font-size="14.00">ksh</text>
</g>
<!-- 22343 -->
<g id="node2" class="node"><title>22343</title>
<polygon fill="none" stroke="black" points="557.957,-273.74 507.957,-273.74 507.957,-235.74 557.957,-235.74 557.957,-273.74"/>
<text text-anchor="middle" x="532.957" y="-258.54" font-family="Times,serif" font-size="14.00">22343</text>
<text text-anchor="middle" x="532.957" y="-243.54" font-family="Times,serif" font-size="14.00">gcc</text>
</g>
<!-- 22342&#45;&gt;22343 -->
<g id="edge4" class="edge"><title>22342&#45;&gt;22343</title>
<path fill="none" stroke="black" d="M547.073,-345.419C544.419,-328.561 540.444,-303.305 537.387,-283.887"/>
<polygon fill="black" stroke="black" points="540.811,-283.124 535.798,-273.79 533.896,-284.213 540.811,-283.124"/>
</g>
<!-- 22346 -->
<g id="node3" class="node"><title>22346</title>
<polygon fill="none" stroke="black" points="591.957,-163.74 541.957,-163.74 541.957,-125.74 591.957,-125.74 591.957,-163.74"/>
<text text-anchor="middle" x="566.957" y="-148.54" font-family="Times,serif" font-size="14.00">22346</text>
<text text-anchor="middle" x="566.957" y="-133.54" font-family="Times,serif" font-size="14.00">cpp</text>
</g>
<!-- 22343&#45;&gt;22346 -->
<g id="edge7" class="edge"><title>22343&#45;&gt;22346</title>
<path fill="none" stroke="black" d="M538.725,-235.419C544.081,-218.405 552.13,-192.837 558.265,-173.349"/>
<polygon fill="black" stroke="black" points="561.61,-174.38 561.274,-163.79 554.933,-172.278 561.61,-174.38"/>
</g>
<!-- 22347 -->
<g id="node4" class="node"><title>22347</title>
<polygon fill="none" stroke="black" points="455.957,-163.74 405.957,-163.74 405.957,-125.74 455.957,-125.74 455.957,-163.74"/>
<text text-anchor="middle" x="430.957" y="-148.54" font-family="Times,serif" font-size="14.00">22347</text>
<text text-anchor="middle" x="430.957" y="-133.54" font-family="Times,serif" font-size="14.00">cc1</text>
</g>
<!-- 22343&#45;&gt;22347 -->
<g id="edge8" class="edge"><title>22343&#45;&gt;22347</title>
<path fill="none" stroke="black" d="M515.654,-235.419C498.995,-217.781 473.654,-190.949 455.03,-171.229"/>
<polygon fill="black" stroke="black" points="457.415,-168.657 448.004,-163.79 452.326,-173.464 457.415,-168.657"/>
</g>
<!-- 22351 -->
<g id="node5" class="node"><title>22351</title>
<polygon fill="none" stroke="black" points="523.957,-163.74 473.957,-163.74 473.957,-125.74 523.957,-125.74 523.957,-163.74"/>
<text text-anchor="middle" x="498.957" y="-148.54" font-family="Times,serif" font-size="14.00">22351</text>
<text text-anchor="middle" x="498.957" y="-133.54" font-family="Times,serif" font-size="14.00">as</text>
</g>
<!-- 22343&#45;&gt;22351 -->
<g id="edge14" class="edge"><title>22343&#45;&gt;22351</title>
<path fill="none" stroke="black" d="M527.189,-235.419C521.833,-218.405 513.784,-192.837 507.649,-173.349"/>
<polygon fill="black" stroke="black" points="510.981,-172.278 504.639,-163.79 504.304,-174.38 510.981,-172.278"/>
</g>
<!-- 93736&#45;32246 -->
<g id="node42" class="node"><title>93736&#45;32246</title>
<ellipse fill="none" stroke="black" cx="438.957" cy="-26.8701" rx="130.63" ry="26.7407"/>
<text text-anchor="middle" x="438.957" y="-30.6701" font-family="Times,serif" font-size="14.00">93736&#45;32246</text>
<text text-anchor="middle" x="438.957" y="-15.6701" font-family="Times,serif" font-size="14.00">/home/ek/work/src/lefty/lefty.c</text>
</g>
<!-- 22346&#45;&gt;93736&#45;32246 -->
<g id="edge10" class="edge"><title>22346&#45;&gt;93736&#45;32246</title>
<path fill="none" stroke="black" d="M546.957,-125.635C527.626,-108.137 497.916,-81.2422 474.547,-60.0874"/>
<polygon fill="black" stroke="black" points="476.651,-57.2714 466.889,-53.1551 471.954,-62.4609 476.651,-57.2714"/>
</g>
<!-- 22344 -->
<g id="node6" class="node"><title>22344</title>
<polygon fill="none" stroke="black" points="413.957,-383.74 363.957,-383.74 363.957,-345.74 413.957,-345.74 413.957,-383.74"/>
<text text-anchor="middle" x="388.957" y="-368.54" font-family="Times,serif" font-size="14.00">22344</text>
<text text-anchor="middle" x="388.957" y="-353.54" font-family="Times,serif" font-size="14.00">ksh</text>
</g>
<!-- 22345 -->
<g id="node7" class="node"><title>22345</title>
<polygon fill="none" stroke="black" points="353.957,-273.74 303.957,-273.74 303.957,-235.74 353.957,-235.74 353.957,-273.74"/>
<text text-anchor="middle" x="328.957" y="-258.54" font-family="Times,serif" font-size="14.00">22345</text>
<text text-anchor="middle" x="328.957" y="-243.54" font-family="Times,serif" font-size="14.00">gcc</text>
</g>
<!-- 22344&#45;&gt;22345 -->
<g id="edge6" class="edge"><title>22344&#45;&gt;22345</title>
<path fill="none" stroke="black" d="M378.779,-345.419C369.196,-328.171 354.73,-302.131 343.85,-282.548"/>
<polygon fill="black" stroke="black" points="346.901,-280.832 338.985,-273.79 340.782,-284.232 346.901,-280.832"/>
</g>
<!-- 22348 -->
<g id="node8" class="node"><title>22348</title>
<polygon fill="none" stroke="black" points="319.957,-163.74 269.957,-163.74 269.957,-125.74 319.957,-125.74 319.957,-163.74"/>
<text text-anchor="middle" x="294.957" y="-148.54" font-family="Times,serif" font-size="14.00">22348</text>
<text text-anchor="middle" x="294.957" y="-133.54" font-family="Times,serif" font-size="14.00">cpp</text>
</g>
<!-- 22345&#45;&gt;22348 -->
<g id="edge9" class="edge"><title>22345&#45;&gt;22348</title>
<path fill="none" stroke="black" d="M323.189,-235.419C317.833,-218.405 309.784,-192.837 303.649,-173.349"/>
<polygon fill="black" stroke="black" points="306.981,-172.278 300.639,-163.79 300.304,-174.38 306.981,-172.278"/>
</g>
<!-- 22350 -->
<g id="node9" class="node"><title>22350</title>
<polygon fill="none" stroke="black" points="387.957,-163.74 337.957,-163.74 337.957,-125.74 387.957,-125.74 387.957,-163.74"/>
<text text-anchor="middle" x="362.957" y="-148.54" font-family="Times,serif" font-size="14.00">22350</text>
<text text-anchor="middle" x="362.957" y="-133.54" font-family="Times,serif" font-size="14.00">cc1</text>
</g>
<!-- 22345&#45;&gt;22350 -->
<g id="edge12" class="edge"><title>22345&#45;&gt;22350</title>
<path fill="none" stroke="black" d="M334.725,-235.419C340.081,-218.405 348.13,-192.837 354.265,-173.349"/>
<polygon fill="black" stroke="black" points="357.61,-174.38 357.274,-163.79 350.933,-172.278 357.61,-174.38"/>
</g>
<!-- 22357 -->
<g id="node10" class="node"><title>22357</title>
<polygon fill="none" stroke="black" points="251.957,-163.74 201.957,-163.74 201.957,-125.74 251.957,-125.74 251.957,-163.74"/>
<text text-anchor="middle" x="226.957" y="-148.54" font-family="Times,serif" font-size="14.00">22357</text>
<text text-anchor="middle" x="226.957" y="-133.54" font-family="Times,serif" font-size="14.00">as</text>
</g>
<!-- 22345&#45;&gt;22357 -->
<g id="edge20" class="edge"><title>22345&#45;&gt;22357</title>
<path fill="none" stroke="black" d="M311.654,-235.419C294.995,-217.781 269.654,-190.949 251.03,-171.229"/>
<polygon fill="black" stroke="black" points="253.415,-168.657 244.004,-163.79 248.326,-173.464 253.415,-168.657"/>
</g>
<!-- 93627&#45;32246 -->
<g id="node43" class="node"><title>93627&#45;32246</title>
<ellipse fill="none" stroke="black" cx="144.957" cy="-26.8701" rx="144.914" ry="26.7407"/>
<text text-anchor="middle" x="144.957" y="-30.6701" font-family="Times,serif" font-size="14.00">93627&#45;32246</text>
<text text-anchor="middle" x="144.957" y="-15.6701" font-family="Times,serif" font-size="14.00">/home/ek/work/src/lefty/gfxview.c</text>
</g>
<!-- 22348&#45;&gt;93627&#45;32246 -->
<g id="edge13" class="edge"><title>22348&#45;&gt;93627&#45;32246</title>
<path fill="none" stroke="black" d="M271.519,-125.635C248.67,-107.985 213.444,-80.7738 185.951,-59.5368"/>
<polygon fill="black" stroke="black" points="187.743,-56.4984 177.69,-53.1551 183.464,-62.0381 187.743,-56.4984"/>
</g>
<!-- 22349 -->
<g id="node11" class="node"><title>22349</title>
<polygon fill="none" stroke="black" points="1078.96,-383.74 1028.96,-383.74 1028.96,-345.74 1078.96,-345.74 1078.96,-383.74"/>
<text text-anchor="middle" x="1053.96" y="-368.54" font-family="Times,serif" font-size="14.00">22349</text>
<text text-anchor="middle" x="1053.96" y="-353.54" font-family="Times,serif" font-size="14.00">ksh</text>
</g>
<!-- 22352 -->
<g id="node12" class="node"><title>22352</title>
<polygon fill="none" stroke="black" points="1061.96,-273.74 1011.96,-273.74 1011.96,-235.74 1061.96,-235.74 1061.96,-273.74"/>
<text text-anchor="middle" x="1036.96" y="-258.54" font-family="Times,serif" font-size="14.00">22352</text>
<text text-anchor="middle" x="1036.96" y="-243.54" font-family="Times,serif" font-size="14.00">gcc</text>
</g>
<!-- 22349&#45;&gt;22352 -->
<g id="edge15" class="edge"><title>22349&#45;&gt;22352</title>
<path fill="none" stroke="black" d="M1051.07,-345.419C1048.42,-328.561 1044.44,-303.305 1041.39,-283.887"/>
<polygon fill="black" stroke="black" points="1044.81,-283.124 1039.8,-273.79 1037.9,-284.213 1044.81,-283.124"/>
</g>
<!-- 22356 -->
<g id="node13" class="node"><title>22356</title>
<polygon fill="none" stroke="black" points="1095.96,-163.74 1045.96,-163.74 1045.96,-125.74 1095.96,-125.74 1095.96,-163.74"/>
<text text-anchor="middle" x="1070.96" y="-148.54" font-family="Times,serif" font-size="14.00">22356</text>
<text text-anchor="middle" x="1070.96" y="-133.54" font-family="Times,serif" font-size="14.00">cpp</text>
</g>
<!-- 22352&#45;&gt;22356 -->
<g id="edge19" class="edge"><title>22352&#45;&gt;22356</title>
<path fill="none" stroke="black" d="M1042.72,-235.419C1048.08,-218.405 1056.13,-192.837 1062.27,-173.349"/>
<polygon fill="black" stroke="black" points="1065.61,-174.38 1065.27,-163.79 1058.93,-172.278 1065.61,-174.38"/>
</g>
<!-- 22361 -->
<g id="node14" class="node"><title>22361</title>
<polygon fill="none" stroke="black" points="959.957,-163.74 909.957,-163.74 909.957,-125.74 959.957,-125.74 959.957,-163.74"/>
<text text-anchor="middle" x="934.957" y="-148.54" font-family="Times,serif" font-size="14.00">22361</text>
<text text-anchor="middle" x="934.957" y="-133.54" font-family="Times,serif" font-size="14.00">cc1</text>
</g>
<!-- 22352&#45;&gt;22361 -->
<g id="edge24" class="edge"><title>22352&#45;&gt;22361</title>
<path fill="none" stroke="black" d="M1019.65,-235.419C1003,-217.781 977.654,-190.949 959.03,-171.229"/>
<polygon fill="black" stroke="black" points="961.415,-168.657 952.004,-163.79 956.326,-173.464 961.415,-168.657"/>
</g>
<!-- 22369 -->
<g id="node15" class="node"><title>22369</title>
<polygon fill="none" stroke="black" points="1027.96,-163.74 977.957,-163.74 977.957,-125.74 1027.96,-125.74 1027.96,-163.74"/>
<text text-anchor="middle" x="1002.96" y="-148.54" font-family="Times,serif" font-size="14.00">22369</text>
<text text-anchor="middle" x="1002.96" y="-133.54" font-family="Times,serif" font-size="14.00">as</text>
</g>
<!-- 22352&#45;&gt;22369 -->
<g id="edge33" class="edge"><title>22352&#45;&gt;22369</title>
<path fill="none" stroke="black" d="M1031.19,-235.419C1025.83,-218.405 1017.78,-192.837 1011.65,-173.349"/>
<polygon fill="black" stroke="black" points="1014.98,-172.278 1008.64,-163.79 1008.3,-174.38 1014.98,-172.278"/>
</g>
<!-- 93645&#45;32246 -->
<g id="node44" class="node"><title>93645&#45;32246</title>
<ellipse fill="none" stroke="black" cx="1033.96" cy="-26.8701" rx="142.257" ry="26.7407"/>
<text text-anchor="middle" x="1033.96" y="-30.6701" font-family="Times,serif" font-size="14.00">93645&#45;32246</text>
<text text-anchor="middle" x="1033.96" y="-15.6701" font-family="Times,serif" font-size="14.00">/home/ek/work/src/lefty/txtview.c</text>
</g>
<!-- 22356&#45;&gt;93645&#45;32246 -->
<g id="edge25" class="edge"><title>22356&#45;&gt;93645&#45;32246</title>
<path fill="none" stroke="black" d="M1065.18,-125.635C1059.9,-109.116 1051.95,-84.224 1045.4,-63.6916"/>
<polygon fill="black" stroke="black" points="1048.68,-62.4795 1042.31,-54.018 1042.01,-64.6088 1048.68,-62.4795"/>
</g>
<!-- 22353 -->
<g id="node16" class="node"><title>22353</title>
<polygon fill="none" stroke="black" points="917.957,-383.74 867.957,-383.74 867.957,-345.74 917.957,-345.74 917.957,-383.74"/>
<text text-anchor="middle" x="892.957" y="-368.54" font-family="Times,serif" font-size="14.00">22353</text>
<text text-anchor="middle" x="892.957" y="-353.54" font-family="Times,serif" font-size="14.00">ksh</text>
</g>
<!-- 22355 -->
<g id="node17" class="node"><title>22355</title>
<polygon fill="none" stroke="black" points="857.957,-273.74 807.957,-273.74 807.957,-235.74 857.957,-235.74 857.957,-273.74"/>
<text text-anchor="middle" x="832.957" y="-258.54" font-family="Times,serif" font-size="14.00">22355</text>
<text text-anchor="middle" x="832.957" y="-243.54" font-family="Times,serif" font-size="14.00">gcc</text>
</g>
<!-- 22353&#45;&gt;22355 -->
<g id="edge18" class="edge"><title>22353&#45;&gt;22355</title>
<path fill="none" stroke="black" d="M882.779,-345.419C873.196,-328.171 858.73,-302.131 847.85,-282.548"/>
<polygon fill="black" stroke="black" points="850.901,-280.832 842.985,-273.79 844.782,-284.232 850.901,-280.832"/>
</g>
<!-- 22360 -->
<g id="node18" class="node"><title>22360</title>
<polygon fill="none" stroke="black" points="823.957,-163.74 773.957,-163.74 773.957,-125.74 823.957,-125.74 823.957,-163.74"/>
<text text-anchor="middle" x="798.957" y="-148.54" font-family="Times,serif" font-size="14.00">22360</text>
<text text-anchor="middle" x="798.957" y="-133.54" font-family="Times,serif" font-size="14.00">cpp</text>
</g>
<!-- 22355&#45;&gt;22360 -->
<g id="edge23" class="edge"><title>22355&#45;&gt;22360</title>
<path fill="none" stroke="black" d="M827.189,-235.419C821.833,-218.405 813.784,-192.837 807.649,-173.349"/>
<polygon fill="black" stroke="black" points="810.981,-172.278 804.639,-163.79 804.304,-174.38 810.981,-172.278"/>
</g>
<!-- 22365 -->
<g id="node19" class="node"><title>22365</title>
<polygon fill="none" stroke="black" points="891.957,-163.74 841.957,-163.74 841.957,-125.74 891.957,-125.74 891.957,-163.74"/>
<text text-anchor="middle" x="866.957" y="-148.54" font-family="Times,serif" font-size="14.00">22365</text>
<text text-anchor="middle" x="866.957" y="-133.54" font-family="Times,serif" font-size="14.00">cc1</text>
</g>
<!-- 22355&#45;&gt;22365 -->
<g id="edge28" class="edge"><title>22355&#45;&gt;22365</title>
<path fill="none" stroke="black" d="M838.725,-235.419C844.081,-218.405 852.13,-192.837 858.265,-173.349"/>
<polygon fill="black" stroke="black" points="861.61,-174.38 861.274,-163.79 854.933,-172.278 861.61,-174.38"/>
</g>
<!-- 22374 -->
<g id="node20" class="node"><title>22374</title>
<polygon fill="none" stroke="black" points="755.957,-163.74 705.957,-163.74 705.957,-125.74 755.957,-125.74 755.957,-163.74"/>
<text text-anchor="middle" x="730.957" y="-148.54" font-family="Times,serif" font-size="14.00">22374</text>
<text text-anchor="middle" x="730.957" y="-133.54" font-family="Times,serif" font-size="14.00">as</text>
</g>
<!-- 22355&#45;&gt;22374 -->
<g id="edge39" class="edge"><title>22355&#45;&gt;22374</title>
<path fill="none" stroke="black" d="M815.654,-235.419C798.995,-217.781 773.654,-190.949 755.03,-171.229"/>
<polygon fill="black" stroke="black" points="757.415,-168.657 748.004,-163.79 752.326,-173.464 757.415,-168.657"/>
</g>
<!-- 93638&#45;32246 -->
<g id="node45" class="node"><title>93638&#45;32246</title>
<ellipse fill="none" stroke="black" cx="730.957" cy="-26.8701" rx="142.671" ry="26.7407"/>
<text text-anchor="middle" x="730.957" y="-30.6701" font-family="Times,serif" font-size="14.00">93638&#45;32246</text>
<text text-anchor="middle" x="730.957" y="-15.6701" font-family="Times,serif" font-size="14.00">/home/ek/work/src/lefty/internal.c</text>
</g>
<!-- 22360&#45;&gt;93638&#45;32246 -->
<g id="edge30" class="edge"><title>22360&#45;&gt;93638&#45;32246</title>
<path fill="none" stroke="black" d="M788.332,-125.635C778.505,-108.891 763.63,-83.5436 751.488,-62.8541"/>
<polygon fill="black" stroke="black" points="754.382,-60.871 746.302,-54.018 748.345,-64.4141 754.382,-60.871"/>
</g>
<!-- 22354 -->
<g id="node21" class="node"><title>22354</title>
<polygon fill="none" stroke="black" points="1261.96,-383.74 1211.96,-383.74 1211.96,-345.74 1261.96,-345.74 1261.96,-383.74"/>
<text text-anchor="middle" x="1236.96" y="-368.54" font-family="Times,serif" font-size="14.00">22354</text>
<text text-anchor="middle" x="1236.96" y="-353.54" font-family="Times,serif" font-size="14.00">ksh</text>
</g>
<!-- 22359 -->
<g id="node22" class="node"><title>22359</title>
<polygon fill="none" stroke="black" points="1270.96,-273.74 1220.96,-273.74 1220.96,-235.74 1270.96,-235.74 1270.96,-273.74"/>
<text text-anchor="middle" x="1245.96" y="-258.54" font-family="Times,serif" font-size="14.00">22359</text>
<text text-anchor="middle" x="1245.96" y="-243.54" font-family="Times,serif" font-size="14.00">gcc</text>
</g>
<!-- 22354&#45;&gt;22359 -->
<g id="edge22" class="edge"><title>22354&#45;&gt;22359</title>
<path fill="none" stroke="black" d="M1238.48,-345.419C1239.89,-328.561 1241.99,-303.305 1243.61,-283.887"/>
<polygon fill="black" stroke="black" points="1247.11,-284.046 1244.45,-273.79 1240.13,-283.465 1247.11,-284.046"/>
</g>
<!-- 22375 -->
<g id="node23" class="node"><title>22375</title>
<polygon fill="none" stroke="black" points="1274.96,-163.74 1224.96,-163.74 1224.96,-125.74 1274.96,-125.74 1274.96,-163.74"/>
<text text-anchor="middle" x="1249.96" y="-148.54" font-family="Times,serif" font-size="14.00">22375</text>
<text text-anchor="middle" x="1249.96" y="-133.54" font-family="Times,serif" font-size="14.00">as</text>
</g>
<!-- 22359&#45;&gt;22375 -->
<g id="edge40" class="edge"><title>22359&#45;&gt;22375</title>
<path fill="none" stroke="black" d="M1246.64,-235.419C1247.26,-218.561 1248.2,-193.305 1248.91,-173.887"/>
<polygon fill="black" stroke="black" points="1252.42,-173.913 1249.29,-163.79 1245.42,-173.654 1252.42,-173.913"/>
</g>
<!-- 135504&#45;32246 -->
<g id="node51" class="node"><title>135504&#45;32246</title>
<ellipse fill="none" stroke="black" cx="1342.96" cy="-26.8701" rx="148.485" ry="26.7407"/>
<text text-anchor="middle" x="1342.96" y="-30.6701" font-family="Times,serif" font-size="14.00">135504&#45;32246</text>
<text text-anchor="middle" x="1342.96" y="-15.6701" font-family="Times,serif" font-size="14.00">/home/ek/work/sun4/lefty/display.o</text>
</g>
<!-- 22375&#45;&gt;135504&#45;32246 -->
<g id="edge50" class="edge"><title>22375&#45;&gt;135504&#45;32246</title>
<path fill="none" stroke="black" d="M1264.49,-125.635C1278.2,-108.554 1299.1,-82.5178 1315.88,-61.6083"/>
<polygon fill="black" stroke="black" points="1318.79,-63.5749 1322.32,-53.5854 1313.33,-59.1933 1318.79,-63.5749"/>
</g>
<!-- 22358 -->
<g id="node24" class="node"><title>22358</title>
<polygon fill="none" stroke="black" points="1517.96,-383.74 1467.96,-383.74 1467.96,-345.74 1517.96,-345.74 1517.96,-383.74"/>
<text text-anchor="middle" x="1492.96" y="-368.54" font-family="Times,serif" font-size="14.00">22358</text>
<text text-anchor="middle" x="1492.96" y="-353.54" font-family="Times,serif" font-size="14.00">ksh</text>
</g>
<!-- 22362 -->
<g id="node25" class="node"><title>22362</title>
<polygon fill="none" stroke="black" points="1551.96,-273.74 1501.96,-273.74 1501.96,-235.74 1551.96,-235.74 1551.96,-273.74"/>
<text text-anchor="middle" x="1526.96" y="-258.54" font-family="Times,serif" font-size="14.00">22362</text>
<text text-anchor="middle" x="1526.96" y="-243.54" font-family="Times,serif" font-size="14.00">gcc</text>
</g>
<!-- 22358&#45;&gt;22362 -->
<g id="edge26" class="edge"><title>22358&#45;&gt;22362</title>
<path fill="none" stroke="black" d="M1498.72,-345.419C1504.08,-328.405 1512.13,-302.837 1518.27,-283.349"/>
<polygon fill="black" stroke="black" points="1521.61,-284.38 1521.27,-273.79 1514.93,-282.278 1521.61,-284.38"/>
</g>
<!-- 22367 -->
<g id="node26" class="node"><title>22367</title>
<polygon fill="none" stroke="black" points="1636.96,-163.74 1586.96,-163.74 1586.96,-125.74 1636.96,-125.74 1636.96,-163.74"/>
<text text-anchor="middle" x="1611.96" y="-148.54" font-family="Times,serif" font-size="14.00">22367</text>
<text text-anchor="middle" x="1611.96" y="-133.54" font-family="Times,serif" font-size="14.00">cpp</text>
</g>
<!-- 22362&#45;&gt;22367 -->
<g id="edge31" class="edge"><title>22362&#45;&gt;22367</title>
<path fill="none" stroke="black" d="M1541.38,-235.419C1555.14,-217.937 1576,-191.423 1591.48,-171.754"/>
<polygon fill="black" stroke="black" points="1594.32,-173.813 1597.75,-163.79 1588.82,-169.484 1594.32,-173.813"/>
</g>
<!-- 22373 -->
<g id="node27" class="node"><title>22373</title>
<polygon fill="none" stroke="black" points="1500.96,-163.74 1450.96,-163.74 1450.96,-125.74 1500.96,-125.74 1500.96,-163.74"/>
<text text-anchor="middle" x="1475.96" y="-148.54" font-family="Times,serif" font-size="14.00">22373</text>
<text text-anchor="middle" x="1475.96" y="-133.54" font-family="Times,serif" font-size="14.00">cc1</text>
</g>
<!-- 22362&#45;&gt;22373 -->
<g id="edge37" class="edge"><title>22362&#45;&gt;22373</title>
<path fill="none" stroke="black" d="M1518.31,-235.419C1510.23,-218.327 1498.09,-192.602 1488.87,-173.081"/>
<polygon fill="black" stroke="black" points="1491.92,-171.338 1484.48,-163.79 1485.59,-174.327 1491.92,-171.338"/>
</g>
<!-- 22378 -->
<g id="node28" class="node"><title>22378</title>
<polygon fill="none" stroke="black" points="1568.96,-163.74 1518.96,-163.74 1518.96,-125.74 1568.96,-125.74 1568.96,-163.74"/>
<text text-anchor="middle" x="1543.96" y="-148.54" font-family="Times,serif" font-size="14.00">22378</text>
<text text-anchor="middle" x="1543.96" y="-133.54" font-family="Times,serif" font-size="14.00">as</text>
</g>
<!-- 22362&#45;&gt;22378 -->
<g id="edge44" class="edge"><title>22362&#45;&gt;22378</title>
<path fill="none" stroke="black" d="M1529.84,-235.419C1532.49,-218.561 1536.47,-193.305 1539.53,-173.887"/>
<polygon fill="black" stroke="black" points="1543.02,-174.213 1541.12,-163.79 1536.1,-173.124 1543.02,-174.213"/>
</g>
<!-- 88860&#45;32246 -->
<g id="node47" class="node"><title>88860&#45;32246</title>
<ellipse fill="none" stroke="black" cx="1648.96" cy="-26.8701" rx="140.014" ry="26.7407"/>
<text text-anchor="middle" x="1648.96" y="-30.6701" font-family="Times,serif" font-size="14.00">88860&#45;32246</text>
<text text-anchor="middle" x="1648.96" y="-15.6701" font-family="Times,serif" font-size="14.00">/home/ek/dev/src/lefty/stringify.c</text>
</g>
<!-- 22367&#45;&gt;88860&#45;32246 -->
<g id="edge38" class="edge"><title>22367&#45;&gt;88860&#45;32246</title>
<path fill="none" stroke="black" d="M1617.74,-125.635C1623.01,-109.116 1630.96,-84.224 1637.52,-63.6916"/>
<polygon fill="black" stroke="black" points="1640.9,-64.6088 1640.61,-54.018 1634.23,-62.4795 1640.9,-64.6088"/>
</g>
<!-- 22363 -->
<g id="node29" class="node"><title>22363</title>
<polygon fill="none" stroke="black" points="1838.96,-383.74 1788.96,-383.74 1788.96,-345.74 1838.96,-345.74 1838.96,-383.74"/>
<text text-anchor="middle" x="1813.96" y="-368.54" font-family="Times,serif" font-size="14.00">22363</text>
<text text-anchor="middle" x="1813.96" y="-353.54" font-family="Times,serif" font-size="14.00">ksh</text>
</g>
<!-- 22366 -->
<g id="node30" class="node"><title>22366</title>
<polygon fill="none" stroke="black" points="1872.96,-273.74 1822.96,-273.74 1822.96,-235.74 1872.96,-235.74 1872.96,-273.74"/>
<text text-anchor="middle" x="1847.96" y="-258.54" font-family="Times,serif" font-size="14.00">22366</text>
<text text-anchor="middle" x="1847.96" y="-243.54" font-family="Times,serif" font-size="14.00">gcc</text>
</g>
<!-- 22363&#45;&gt;22366 -->
<g id="edge29" class="edge"><title>22363&#45;&gt;22366</title>
<path fill="none" stroke="black" d="M1819.72,-345.419C1825.08,-328.405 1833.13,-302.837 1839.27,-283.349"/>
<polygon fill="black" stroke="black" points="1842.61,-284.38 1842.27,-273.79 1835.93,-282.278 1842.61,-284.38"/>
</g>
<!-- 22371 -->
<g id="node31" class="node"><title>22371</title>
<polygon fill="none" stroke="black" points="1957.96,-163.74 1907.96,-163.74 1907.96,-125.74 1957.96,-125.74 1957.96,-163.74"/>
<text text-anchor="middle" x="1932.96" y="-148.54" font-family="Times,serif" font-size="14.00">22371</text>
<text text-anchor="middle" x="1932.96" y="-133.54" font-family="Times,serif" font-size="14.00">cpp</text>
</g>
<!-- 22366&#45;&gt;22371 -->
<g id="edge35" class="edge"><title>22366&#45;&gt;22371</title>
<path fill="none" stroke="black" d="M1862.38,-235.419C1876.14,-217.937 1897,-191.423 1912.48,-171.754"/>
<polygon fill="black" stroke="black" points="1915.32,-173.813 1918.75,-163.79 1909.82,-169.484 1915.32,-173.813"/>
</g>
<!-- 22376 -->
<g id="node32" class="node"><title>22376</title>
<polygon fill="none" stroke="black" points="1821.96,-163.74 1771.96,-163.74 1771.96,-125.74 1821.96,-125.74 1821.96,-163.74"/>
<text text-anchor="middle" x="1796.96" y="-148.54" font-family="Times,serif" font-size="14.00">22376</text>
<text text-anchor="middle" x="1796.96" y="-133.54" font-family="Times,serif" font-size="14.00">cc1</text>
</g>
<!-- 22366&#45;&gt;22376 -->
<g id="edge41" class="edge"><title>22366&#45;&gt;22376</title>
<path fill="none" stroke="black" d="M1839.31,-235.419C1831.23,-218.327 1819.09,-192.602 1809.87,-173.081"/>
<polygon fill="black" stroke="black" points="1812.92,-171.338 1805.48,-163.79 1806.59,-174.327 1812.92,-171.338"/>
</g>
<!-- 22380 -->
<g id="node33" class="node"><title>22380</title>
<polygon fill="none" stroke="black" points="1889.96,-163.74 1839.96,-163.74 1839.96,-125.74 1889.96,-125.74 1889.96,-163.74"/>
<text text-anchor="middle" x="1864.96" y="-148.54" font-family="Times,serif" font-size="14.00">22380</text>
<text text-anchor="middle" x="1864.96" y="-133.54" font-family="Times,serif" font-size="14.00">as</text>
</g>
<!-- 22366&#45;&gt;22380 -->
<g id="edge47" class="edge"><title>22366&#45;&gt;22380</title>
<path fill="none" stroke="black" d="M1850.84,-235.419C1853.49,-218.561 1857.47,-193.305 1860.53,-173.887"/>
<polygon fill="black" stroke="black" points="1864.02,-174.213 1862.12,-163.79 1857.1,-173.124 1864.02,-174.213"/>
</g>
<!-- 93626&#45;32246 -->
<g id="node48" class="node"><title>93626&#45;32246</title>
<ellipse fill="none" stroke="black" cx="2207.96" cy="-26.8701" rx="130.63" ry="26.7407"/>
<text text-anchor="middle" x="2207.96" y="-30.6701" font-family="Times,serif" font-size="14.00">93626&#45;32246</text>
<text text-anchor="middle" x="2207.96" y="-15.6701" font-family="Times,serif" font-size="14.00">/home/ek/work/src/lefty/exec.c</text>
</g>
<!-- 22371&#45;&gt;93626&#45;32246 -->
<g id="edge42" class="edge"><title>22371&#45;&gt;93626&#45;32246</title>
<path fill="none" stroke="black" d="M1958.34,-133.047C1999.99,-115.498 2084.11,-80.054 2143.14,-55.1802"/>
<polygon fill="black" stroke="black" points="2144.53,-58.3915 2152.39,-51.2832 2141.81,-51.9408 2144.53,-58.3915"/>
</g>
<!-- 37592&#45;32246 -->
<g id="node50" class="node"><title>37592&#45;32246</title>
<ellipse fill="none" stroke="black" cx="1932.96" cy="-26.8701" rx="125.73" ry="26.7407"/>
<text text-anchor="middle" x="1932.96" y="-30.6701" font-family="Times,serif" font-size="14.00">37592&#45;32246</text>
<text text-anchor="middle" x="1932.96" y="-15.6701" font-family="Times,serif" font-size="14.00">/home/ek/dev/src/lefty/exec.h</text>
</g>
<!-- 22371&#45;&gt;37592&#45;32246 -->
<g id="edge49" class="edge"><title>22371&#45;&gt;37592&#45;32246</title>
<path fill="none" stroke="black" d="M1932.96,-125.635C1932.96,-109.267 1932.96,-84.6759 1932.96,-64.2526"/>
<polygon fill="black" stroke="black" points="1936.46,-64.018 1932.96,-54.018 1929.46,-64.0181 1936.46,-64.018"/>
</g>
<!-- 22368 -->
<g id="node34" class="node"><title>22368</title>
<polygon fill="none" stroke="black" points="2221.96,-383.74 2171.96,-383.74 2171.96,-345.74 2221.96,-345.74 2221.96,-383.74"/>
<text text-anchor="middle" x="2196.96" y="-368.54" font-family="Times,serif" font-size="14.00">22368</text>
<text text-anchor="middle" x="2196.96" y="-353.54" font-family="Times,serif" font-size="14.00">ksh</text>
</g>
<!-- 22372 -->
<g id="node35" class="node"><title>22372</title>
<polygon fill="none" stroke="black" points="2255.96,-273.74 2205.96,-273.74 2205.96,-235.74 2255.96,-235.74 2255.96,-273.74"/>
<text text-anchor="middle" x="2230.96" y="-258.54" font-family="Times,serif" font-size="14.00">22372</text>
<text text-anchor="middle" x="2230.96" y="-243.54" font-family="Times,serif" font-size="14.00">gcc</text>
</g>
<!-- 22368&#45;&gt;22372 -->
<g id="edge36" class="edge"><title>22368&#45;&gt;22372</title>
<path fill="none" stroke="black" d="M2202.72,-345.419C2208.08,-328.405 2216.13,-302.837 2222.27,-283.349"/>
<polygon fill="black" stroke="black" points="2225.61,-284.38 2225.27,-273.79 2218.93,-282.278 2225.61,-284.38"/>
</g>
<!-- 22377 -->
<g id="node36" class="node"><title>22377</title>
<polygon fill="none" stroke="black" points="2340.96,-163.74 2290.96,-163.74 2290.96,-125.74 2340.96,-125.74 2340.96,-163.74"/>
<text text-anchor="middle" x="2315.96" y="-148.54" font-family="Times,serif" font-size="14.00">22377</text>
<text text-anchor="middle" x="2315.96" y="-133.54" font-family="Times,serif" font-size="14.00">cpp</text>
</g>
<!-- 22372&#45;&gt;22377 -->
<g id="edge43" class="edge"><title>22372&#45;&gt;22377</title>
<path fill="none" stroke="black" d="M2245.38,-235.419C2259.14,-217.937 2280,-191.423 2295.48,-171.754"/>
<polygon fill="black" stroke="black" points="2298.32,-173.813 2301.75,-163.79 2292.82,-169.484 2298.32,-173.813"/>
</g>
<!-- 22379 -->
<g id="node37" class="node"><title>22379</title>
<polygon fill="none" stroke="black" points="2204.96,-163.74 2154.96,-163.74 2154.96,-125.74 2204.96,-125.74 2204.96,-163.74"/>
<text text-anchor="middle" x="2179.96" y="-148.54" font-family="Times,serif" font-size="14.00">22379</text>
<text text-anchor="middle" x="2179.96" y="-133.54" font-family="Times,serif" font-size="14.00">cc1</text>
</g>
<!-- 22372&#45;&gt;22379 -->
<g id="edge45" class="edge"><title>22372&#45;&gt;22379</title>
<path fill="none" stroke="black" d="M2222.31,-235.419C2214.23,-218.327 2202.09,-192.602 2192.87,-173.081"/>
<polygon fill="black" stroke="black" points="2195.92,-171.338 2188.48,-163.79 2189.59,-174.327 2195.92,-171.338"/>
</g>
<!-- 22381 -->
<g id="node38" class="node"><title>22381</title>
<polygon fill="none" stroke="black" points="2272.96,-163.74 2222.96,-163.74 2222.96,-125.74 2272.96,-125.74 2272.96,-163.74"/>
<text text-anchor="middle" x="2247.96" y="-148.54" font-family="Times,serif" font-size="14.00">22381</text>
<text text-anchor="middle" x="2247.96" y="-133.54" font-family="Times,serif" font-size="14.00">as</text>
</g>
<!-- 22372&#45;&gt;22381 -->
<g id="edge48" class="edge"><title>22372&#45;&gt;22381</title>
<path fill="none" stroke="black" d="M2233.84,-235.419C2236.49,-218.561 2240.47,-193.305 2243.53,-173.887"/>
<polygon fill="black" stroke="black" points="2247.02,-174.213 2245.12,-163.79 2240.1,-173.124 2247.02,-174.213"/>
</g>
<!-- 93643&#45;32246 -->
<g id="node49" class="node"><title>93643&#45;32246</title>
<ellipse fill="none" stroke="black" cx="2489.96" cy="-26.8701" rx="133.787" ry="26.7407"/>
<text text-anchor="middle" x="2489.96" y="-30.6701" font-family="Times,serif" font-size="14.00">93643&#45;32246</text>
<text text-anchor="middle" x="2489.96" y="-15.6701" font-family="Times,serif" font-size="14.00">/home/ek/work/src/lefty/parse.c</text>
</g>
<!-- 22377&#45;&gt;93643&#45;32246 -->
<g id="edge46" class="edge"><title>22377&#45;&gt;93643&#45;32246</title>
<path fill="none" stroke="black" d="M2341.26,-126.892C2368.08,-109.03 2411.02,-80.4343 2443.88,-58.5541"/>
<polygon fill="black" stroke="black" points="2446.04,-61.3176 2452.43,-52.8617 2442.16,-55.4912 2446.04,-61.3176"/>
</g>
<!-- 22316 -->
<g id="node39" class="node"><title>22316</title>
<polygon fill="none" stroke="black" points="1334.96,-729.48 1284.96,-729.48 1284.96,-691.48 1334.96,-691.48 1334.96,-729.48"/>
<text text-anchor="middle" x="1309.96" y="-714.28" font-family="Times,serif" font-size="14.00">22316</text>
<text text-anchor="middle" x="1309.96" y="-699.28" font-family="Times,serif" font-size="14.00">ksh</text>
</g>
<!-- 22324 -->
<g id="node40" class="node"><title>22324</title>
<polygon fill="none" stroke="black" points="1336.46,-619.48 1283.46,-619.48 1283.46,-581.48 1336.46,-581.48 1336.46,-619.48"/>
<text text-anchor="middle" x="1309.96" y="-604.28" font-family="Times,serif" font-size="14.00">22324</text>
<text text-anchor="middle" x="1309.96" y="-589.28" font-family="Times,serif" font-size="14.00">nmake</text>
</g>
<!-- 22316&#45;&gt;22324 -->
<g id="edge1" class="edge"><title>22316&#45;&gt;22324</title>
<path fill="none" stroke="black" d="M1309.96,-691.16C1309.96,-674.301 1309.96,-649.045 1309.96,-629.627"/>
<polygon fill="black" stroke="black" points="1313.46,-629.53 1309.96,-619.53 1306.46,-629.53 1313.46,-629.53"/>
</g>
<!-- 22337 -->
<g id="node41" class="node"><title>22337</title>
<polygon fill="none" stroke="black" points="1169.96,-501.61 1119.96,-501.61 1119.96,-463.61 1169.96,-463.61 1169.96,-501.61"/>
<text text-anchor="middle" x="1144.96" y="-486.41" font-family="Times,serif" font-size="14.00">22337</text>
<text text-anchor="middle" x="1144.96" y="-471.41" font-family="Times,serif" font-size="14.00">ksh</text>
</g>
<!-- 22324&#45;&gt;22337 -->
<g id="edge2" class="edge"><title>22324&#45;&gt;22337</title>
<path fill="none" stroke="black" d="M1284.18,-581.376C1255.68,-561.362 1209.67,-529.057 1178.42,-507.106"/>
<polygon fill="black" stroke="black" points="1180.21,-504.091 1170.02,-501.208 1176.19,-509.82 1180.21,-504.091"/>
</g>
<!-- 93642&#45;32246 -->
<g id="node46" class="node"><title>93642&#45;32246</title>
<ellipse fill="none" stroke="black" cx="1474.96" cy="-482.61" rx="125.316" ry="26.7407"/>
<text text-anchor="middle" x="1474.96" y="-486.41" font-family="Times,serif" font-size="14.00">93642&#45;32246</text>
<text text-anchor="middle" x="1474.96" y="-471.41" font-family="Times,serif" font-size="14.00">/home/ek/work/src/lefty/lex.c</text>
</g>
<!-- 22324&#45;&gt;93642&#45;32246 -->
<g id="edge34" class="edge"><title>22324&#45;&gt;93642&#45;32246</title>
<path fill="none" stroke="black" d="M1335.74,-581.376C1361.26,-563.456 1400.8,-535.684 1431.24,-514.312"/>
<polygon fill="black" stroke="black" points="1433.39,-517.078 1439.56,-508.467 1429.37,-511.35 1433.39,-517.078"/>
</g>
<!-- 22337&#45;&gt;22342 -->
<g id="edge3" class="edge"><title>22337&#45;&gt;22342</title>
<path fill="none" stroke="black" d="M1119.82,-480.878C1050.7,-478.36 852.398,-467.723 693.957,-425.74 655.03,-415.425 612.743,-396.851 584.131,-383.092"/>
<polygon fill="black" stroke="black" points="585.5,-379.865 574.977,-378.629 582.432,-386.158 585.5,-379.865"/>
</g>
<!-- 22337&#45;&gt;22344 -->
<g id="edge5" class="edge"><title>22337&#45;&gt;22344</title>
<path fill="none" stroke="black" d="M1119.8,-480.557C1017.56,-476.094 633.004,-457.501 515.957,-425.74 482.985,-416.793 448.065,-399.669 423.204,-385.997"/>
<polygon fill="black" stroke="black" points="424.629,-382.783 414.194,-380.95 421.208,-388.891 424.629,-382.783"/>
</g>
<!-- 22337&#45;&gt;22349 -->
<g id="edge11" class="edge"><title>22337&#45;&gt;22349</title>
<path fill="none" stroke="black" d="M1130.74,-463.505C1115.67,-444.316 1091.72,-413.828 1074.58,-392"/>
<polygon fill="black" stroke="black" points="1077.31,-389.803 1068.38,-384.1 1071.8,-394.126 1077.31,-389.803"/>
</g>
<!-- 22337&#45;&gt;22353 -->
<g id="edge16" class="edge"><title>22337&#45;&gt;22353</title>
<path fill="none" stroke="black" d="M1119.51,-470.424C1094.2,-459.254 1054.3,-441.525 1019.96,-425.74 988.522,-411.291 952.923,-394.429 927.43,-382.267"/>
<polygon fill="black" stroke="black" points="928.717,-379.002 918.185,-377.85 925.699,-385.319 928.717,-379.002"/>
</g>
<!-- 22337&#45;&gt;22354 -->
<g id="edge17" class="edge"><title>22337&#45;&gt;22354</title>
<path fill="none" stroke="black" d="M1159.33,-463.505C1174.57,-444.316 1198.78,-413.828 1216.11,-392"/>
<polygon fill="black" stroke="black" points="1218.9,-394.108 1222.38,-384.1 1213.42,-389.755 1218.9,-394.108"/>
</g>
<!-- 22337&#45;&gt;22358 -->
<g id="edge21" class="edge"><title>22337&#45;&gt;22358</title>
<path fill="none" stroke="black" d="M1169.98,-473.277C1231.03,-452.95 1387.73,-400.777 1457.97,-377.388"/>
<polygon fill="black" stroke="black" points="1459.31,-380.633 1467.69,-374.153 1457.1,-373.992 1459.31,-380.633"/>
</g>
<!-- 22337&#45;&gt;22363 -->
<g id="edge27" class="edge"><title>22337&#45;&gt;22363</title>
<path fill="none" stroke="black" d="M1169.98,-478.029C1207.21,-472.764 1279.41,-462.798 1340.96,-455.74 1477.6,-440.072 1514.82,-456.148 1648.96,-425.74 1695.29,-415.236 1746.38,-395.279 1779.24,-381.275"/>
<polygon fill="black" stroke="black" points="1781.04,-384.312 1788.84,-377.137 1778.27,-377.885 1781.04,-384.312"/>
</g>
<!-- 22337&#45;&gt;22368 -->
<g id="edge32" class="edge"><title>22337&#45;&gt;22368</title>
<path fill="none" stroke="black" d="M1170.25,-477.583C1207.52,-471.807 1279.42,-461.259 1340.96,-455.74 1619.71,-430.74 1693.35,-468.403 1969.96,-425.74 2039.29,-415.047 2117.99,-391.616 2162.13,-377.405"/>
<polygon fill="black" stroke="black" points="2163.37,-380.683 2171.79,-374.263 2161.2,-374.026 2163.37,-380.683"/>
</g>
<!-- 22337&#45;&gt;93642&#45;32246 -->
</g>
</svg>
