<?xml version="1.0" encoding="UTF-8" standalone="no"?>
<!DOCTYPE svg PUBLIC "-//W3C//DTD SVG 1.1//EN"
 "http://www.w3.org/Graphics/SVG/1.1/DTD/svg11.dtd">
<!-- Generated by graphviz version 2.38.0 (20140413.2041)
 -->
<!-- Title: G Pages: 1 -->
<svg width="280pt" height="476pt"
 viewBox="0.00 0.00 279.74 476.00" xmlns="http://www.w3.org/2000/svg" xmlns:xlink="http://www.w3.org/1999/xlink">
<g id="graph0" class="graph" transform="scale(1 1) rotate(0) translate(4 472)">
<title>G</title>
<polygon fill="white" stroke="none" points="-4,4 -4,-472 275.737,-472 275.737,4 -4,4"/>
<!-- run -->
<g id="node1" class="node"><title>run</title>
<ellipse fill="none" stroke="black" cx="84.2474" cy="-450" rx="27" ry="18"/>
<text text-anchor="middle" x="84.2474" y="-446.3" font-family="Times,serif" font-size="14.00">run</text>
</g>
<!-- intr -->
<g id="node2" class="node"><title>intr</title>
<ellipse fill="none" stroke="black" cx="29.2474" cy="-378" rx="27" ry="18"/>
<text text-anchor="middle" x="29.2474" y="-374.3" font-family="Times,serif" font-size="14.00">intr</text>
</g>
<!-- run&#45;&#45;intr -->
<g id="edge1" class="edge"><title>run&#45;&#45;intr</title>
<path fill="none" stroke="black" d="M72.3132,-433.811C63.0879,-422.07 50.3778,-405.893 41.1583,-394.159"/>
</g>
<!-- kernel -->
<g id="node4" class="node"><title>kernel</title>
<ellipse fill="none" stroke="black" cx="170.247" cy="-378" rx="32.4942" ry="18"/>
<text text-anchor="middle" x="170.247" y="-374.3" font-family="Times,serif" font-size="14.00">kernel</text>
</g>
<!-- run&#45;&#45;kernel -->
<g id="edge4" class="edge"><title>run&#45;&#45;kernel</title>
<path fill="none" stroke="black" d="M100.829,-435.503C115.667,-423.426 137.358,-405.771 152.532,-393.419"/>
</g>
<!-- runbl -->
<g id="node3" class="node"><title>runbl</title>
<ellipse fill="none" stroke="black" cx="29.2474" cy="-306" rx="29.4969" ry="18"/>
<text text-anchor="middle" x="29.2474" y="-302.3" font-family="Times,serif" font-size="14.00">runbl</text>
</g>
<!-- intr&#45;&#45;runbl -->
<g id="edge2" class="edge"><title>intr&#45;&#45;runbl</title>
<path fill="none" stroke="black" d="M29.2474,-359.697C29.2474,-348.846 29.2474,-334.917 29.2474,-324.104"/>
</g>
<!-- runbl&#45;&#45;run -->
<g id="edge3" class="edge"><title>runbl&#45;&#45;run</title>
<path fill="none" stroke="black" d="M41.9953,-322.298C49.8059,-332.413 59.3951,-346.292 65.2474,-360 75.421,-383.83 80.3573,-413.654 82.5913,-432.012"/>
</g>
<!-- zombie -->
<g id="node5" class="node"><title>zombie</title>
<ellipse fill="none" stroke="black" cx="113.247" cy="-306" rx="37.0935" ry="18"/>
<text text-anchor="middle" x="113.247" y="-302.3" font-family="Times,serif" font-size="14.00">zombie</text>
</g>
<!-- kernel&#45;&#45;zombie -->
<g id="edge5" class="edge"><title>kernel&#45;&#45;zombie</title>
<path fill="none" stroke="black" d="M157.313,-361.116C148.116,-349.821 135.8,-334.696 126.526,-323.307"/>
</g>
<!-- sleep -->
<g id="node6" class="node"><title>sleep</title>
<ellipse fill="none" stroke="black" cx="197.247" cy="-306" rx="28.6953" ry="18"/>
<text text-anchor="middle" x="197.247" y="-302.3" font-family="Times,serif" font-size="14.00">sleep</text>
</g>
<!-- kernel&#45;&#45;sleep -->
<g id="edge6" class="edge"><title>kernel&#45;&#45;sleep</title>
<path fill="none" stroke="black" d="M176.783,-360.055C181.028,-349.049 186.539,-334.764 190.772,-323.789"/>
</g>
<!-- runmem -->
<g id="node7" class="node"><title>runmem</title>
<ellipse fill="none" stroke="black" cx="188.247" cy="-18" rx="40.8928" ry="18"/>
<text text-anchor="middle" x="188.247" y="-14.3" font-family="Times,serif" font-size="14.00">runmem</text>
</g>
<!-- kernel&#45;&#45;runmem -->
<g id="edge7" class="edge"><title>kernel&#45;&#45;runmem</title>
<path fill="none" stroke="black" d="M191.04,-364.114C205.102,-354.513 223.233,-340.287 235.247,-324 260.577,-289.663 271.247,-277.669 271.247,-235 271.247,-235 271.247,-235 271.247,-161 271.247,-120.553 273.207,-106.593 252.247,-72 242.38,-55.7133 225.672,-42.1311 211.802,-32.7947"/>
</g>
<!-- sleep&#45;&#45;runmem -->
<g id="edge13" class="edge"><title>sleep&#45;&#45;runmem</title>
<path fill="none" stroke="black" d="M183.482,-289.935C175.114,-279.913 164.971,-266.051 159.247,-252 147.036,-222.02 150.699,-212.278 148.247,-180 147.036,-164.046 145.78,-159.809 148.247,-144 154.468,-104.152 171.208,-59.6512 180.948,-35.9804"/>
</g>
<!-- swap -->
<g id="node8" class="node"><title>swap</title>
<ellipse fill="none" stroke="black" cx="197.247" cy="-234" rx="28.6953" ry="18"/>
<text text-anchor="middle" x="197.247" y="-230.3" font-family="Times,serif" font-size="14.00">swap</text>
</g>
<!-- sleep&#45;&#45;swap -->
<g id="edge8" class="edge"><title>sleep&#45;&#45;swap</title>
<path fill="none" stroke="black" d="M197.247,-287.697C197.247,-276.846 197.247,-262.917 197.247,-252.104"/>
</g>
<!-- runswap -->
<g id="node9" class="node"><title>runswap</title>
<ellipse fill="none" stroke="black" cx="197.247" cy="-162" rx="40.0939" ry="18"/>
<text text-anchor="middle" x="197.247" y="-158.3" font-family="Times,serif" font-size="14.00">runswap</text>
</g>
<!-- swap&#45;&#45;runswap -->
<g id="edge9" class="edge"><title>swap&#45;&#45;runswap</title>
<path fill="none" stroke="black" d="M197.247,-215.697C197.247,-204.846 197.247,-190.917 197.247,-180.104"/>
</g>
<!-- runswap&#45;&#45;runmem -->
<g id="edge11" class="edge"><title>runswap&#45;&#45;runmem</title>
<path fill="none" stroke="black" d="M190.358,-144.141C186.543,-133.884 182.189,-120.411 180.247,-108 176.363,-83.1699 180.598,-54.1252 184.232,-36.1432"/>
</g>
<!-- new -->
<g id="node10" class="node"><title>new</title>
<ellipse fill="none" stroke="black" cx="216.247" cy="-90" rx="27" ry="18"/>
<text text-anchor="middle" x="216.247" y="-86.3" font-family="Times,serif" font-size="14.00">new</text>
</g>
<!-- runswap&#45;&#45;new -->
<g id="edge10" class="edge"><title>runswap&#45;&#45;new</title>
<path fill="none" stroke="black" d="M201.847,-144.055C204.834,-133.049 208.712,-118.764 211.69,-107.789"/>
</g>
<!-- new&#45;&#45;runmem -->
<g id="edge12" class="edge"><title>new&#45;&#45;runmem</title>
<path fill="none" stroke="black" d="M209.612,-72.411C205.213,-61.4141 199.458,-47.0274 195.03,-35.9562"/>
</g>
</g>
</svg>
