<?xml version="1.0" encoding="UTF-8" standalone="no"?>
<!DOCTYPE svg PUBLIC "-//W3C//DTD SVG 1.1//EN"
 "http://www.w3.org/Graphics/SVG/1.1/DTD/svg11.dtd">
<!-- Generated by graphviz version 2.38.0 (20140413.2041)
 -->
<!-- Title: G Pages: 1 -->
<svg width="868pt" height="340pt"
 viewBox="0.00 0.00 868.00 340.00" xmlns="http://www.w3.org/2000/svg" xmlns:xlink="http://www.w3.org/1999/xlink">
<g id="graph0" class="graph" transform="scale(1 1) rotate(0) translate(4 336)">
<title>G</title>
<polygon fill="white" stroke="none" points="-4,4 -4,-336 864,-336 864,4 -4,4"/>
<!-- AvantGarde&#45;Book -->
<g id="node1" class="node"><title>AvantGarde&#45;Book</title>
<text text-anchor="middle" x="87.5" y="-14.3" font-family="URW Gothic L,sans-Serif" font-weight="book" font-size="14.00">AvantGarde&#45;Book</text>
</g>
<!-- AvantGarde&#45;Demi -->
<g id="node2" class="node"><title>AvantGarde&#45;Demi</title>
<text text-anchor="middle" x="302" y="-14.3" font-family="URW Gothic L,sans-Serif" font-weight="demi" font-size="14.00">AvantGarde&#45;Demi</text>
</g>
<!-- AvantGarde&#45;Book&#45;&gt;AvantGarde&#45;Demi -->
<g id="edge1" class="edge"><title>AvantGarde&#45;Book&#45;&gt;AvantGarde&#45;Demi</title>
<path fill="none" stroke="white" d="M149.679,-18C174.25,-18 202.768,-18 228.38,-18"/>
<polygon fill="white" stroke="white" points="228.41,-21.5001 238.41,-18 228.41,-14.5001 228.41,-21.5001"/>
</g>
<!-- AvantGarde&#45;BookOblique -->
<g id="node3" class="node"><title>AvantGarde&#45;BookOblique</title>
<text text-anchor="middle" x="518" y="-14.3" font-family="URW Gothic L,sans-Serif" font-weight="book" font-style="oblique" font-size="14.00">AvantGarde&#45;BookOblique</text>
</g>
<!-- AvantGarde&#45;Demi&#45;&gt;AvantGarde&#45;BookOblique -->
<g id="edge2" class="edge"><title>AvantGarde&#45;Demi&#45;&gt;AvantGarde&#45;BookOblique</title>
<path fill="none" stroke="white" d="M365.761,-18C382.334,-18 400.625,-18 418.591,-18"/>
<polygon fill="white" stroke="white" points="418.819,-21.5001 428.819,-18 418.819,-14.5001 418.819,-21.5001"/>
</g>
<!-- AvantGarde&#45;DemiOblique -->
<g id="node4" class="node"><title>AvantGarde&#45;DemiOblique</title>
<text text-anchor="middle" x="751.5" y="-14.3" font-family="URW Gothic L,sans-Serif" font-weight="demi" font-style="oblique" font-size="14.00">AvantGarde&#45;DemiOblique</text>
</g>
<!-- AvantGarde&#45;BookOblique&#45;&gt;AvantGarde&#45;DemiOblique -->
<g id="edge3" class="edge"><title>AvantGarde&#45;BookOblique&#45;&gt;AvantGarde&#45;DemiOblique</title>
<path fill="none" stroke="white" d="M607.181,-18C621.267,-18 635.932,-18 650.273,-18"/>
<polygon fill="white" stroke="white" points="650.645,-21.5001 660.645,-18 650.645,-14.5001 650.645,-21.5001"/>
</g>
<!-- Bookman&#45;Light -->
<g id="node5" class="node"><title>Bookman&#45;Light</title>
<text text-anchor="middle" x="87.5" y="-51.3" font-family="URW Bookman L,serif" font-weight="light" font-size="14.00">Bookman&#45;Light</text>
</g>
<!-- Bookman&#45;Demi -->
<g id="node6" class="node"><title>Bookman&#45;Demi</title>
<text text-anchor="middle" x="302" y="-51.3" font-family="URW Bookman L,serif" font-weight="demi" font-size="14.00">Bookman&#45;Demi</text>
</g>
<!-- Bookman&#45;Light&#45;&gt;Bookman&#45;Demi -->
<g id="edge4" class="edge"><title>Bookman&#45;Light&#45;&gt;Bookman&#45;Demi</title>
<path fill="none" stroke="white" d="M140.756,-55C170.014,-55 206.712,-55 237.604,-55"/>
<polygon fill="white" stroke="white" points="237.838,-58.5001 247.838,-55 237.838,-51.5001 237.838,-58.5001"/>
</g>
<!-- Bookman&#45;LightItalic -->
<g id="node7" class="node"><title>Bookman&#45;LightItalic</title>
<text text-anchor="middle" x="518" y="-51.3" font-family="URW Bookman L,serif" font-weight="light" font-style="italic" font-size="14.00">Bookman&#45;LightItalic</text>
</g>
<!-- Bookman&#45;Demi&#45;&gt;Bookman&#45;LightItalic -->
<g id="edge5" class="edge"><title>Bookman&#45;Demi&#45;&gt;Bookman&#45;LightItalic</title>
<path fill="none" stroke="white" d="M356.174,-55C381.862,-55 413.146,-55 441.27,-55"/>
<polygon fill="white" stroke="white" points="441.472,-58.5001 451.472,-55 441.472,-51.5001 441.472,-58.5001"/>
</g>
<!-- Bookman&#45;DemiItalic -->
<g id="node8" class="node"><title>Bookman&#45;DemiItalic</title>
<text text-anchor="middle" x="751.5" y="-51.3" font-family="URW Bookman L,serif" font-weight="demi" font-style="italic" font-size="14.00">Bookman&#45;DemiItalic</text>
</g>
<!-- Bookman&#45;LightItalic&#45;&gt;Bookman&#45;DemiItalic -->
<g id="edge6" class="edge"><title>Bookman&#45;LightItalic&#45;&gt;Bookman&#45;DemiItalic</title>
<path fill="none" stroke="white" d="M584.719,-55C612.581,-55 645.231,-55 674.154,-55"/>
<polygon fill="white" stroke="white" points="674.215,-58.5001 684.215,-55 674.215,-51.5001 674.215,-58.5001"/>
</g>
<!-- Courier -->
<g id="node9" class="node"><title>Courier</title>
<text text-anchor="middle" x="87.5" y="-88.3" font-family="Courier,monospace" font-size="14.00">Courier</text>
</g>
<!-- Courier&#45;Bold -->
<g id="node10" class="node"><title>Courier&#45;Bold</title>
<text text-anchor="middle" x="302" y="-88.3" font-family="Courier,monospace" font-weight="bold" font-size="14.00">Courier&#45;Bold</text>
</g>
<!-- Courier&#45;&gt;Courier&#45;Bold -->
<g id="edge7" class="edge"><title>Courier&#45;&gt;Courier&#45;Bold</title>
<path fill="none" stroke="white" d="M116.718,-92C148.462,-92 200.917,-92 241.762,-92"/>
<polygon fill="white" stroke="white" points="241.876,-95.5001 251.876,-92 241.876,-88.5001 241.876,-95.5001"/>
</g>
<!-- Courier&#45;Oblique -->
<g id="node11" class="node"><title>Courier&#45;Oblique</title>
<text text-anchor="middle" x="518" y="-88.3" font-family="Courier,monospace" font-style="oblique" font-size="14.00">Courier&#45;Oblique</text>
</g>
<!-- Courier&#45;Bold&#45;&gt;Courier&#45;Oblique -->
<g id="edge8" class="edge"><title>Courier&#45;Bold&#45;&gt;Courier&#45;Oblique</title>
<path fill="none" stroke="white" d="M352.096,-92C379.812,-92 414.947,-92 445.656,-92"/>
<polygon fill="white" stroke="white" points="445.884,-95.5001 455.884,-92 445.884,-88.5001 445.884,-95.5001"/>
</g>
<!-- Courier&#45;BoldOblique -->
<g id="node12" class="node"><title>Courier&#45;BoldOblique</title>
<text text-anchor="middle" x="751.5" y="-88.3" font-family="Courier,monospace" font-weight="bold" font-style="oblique" font-size="14.00">Courier&#45;BoldOblique</text>
</g>
<!-- Courier&#45;Oblique&#45;&gt;Courier&#45;BoldOblique -->
<g id="edge9" class="edge"><title>Courier&#45;Oblique&#45;&gt;Courier&#45;BoldOblique</title>
<path fill="none" stroke="white" d="M580.127,-92C605.42,-92 635.228,-92 662.781,-92"/>
<polygon fill="white" stroke="white" points="662.818,-95.5001 672.818,-92 662.818,-88.5001 662.818,-95.5001"/>
</g>
<!-- Helvetica -->
<g id="node13" class="node"><title>Helvetica</title>
<text text-anchor="middle" x="87.5" y="-125.3" font-family="Helvetica,sans-Serif" font-size="14.00">Helvetica</text>
</g>
<!-- Helvetica&#45;Bold -->
<g id="node14" class="node"><title>Helvetica&#45;Bold</title>
<text text-anchor="middle" x="302" y="-125.3" font-family="Helvetica,sans-Serif" font-weight="bold" font-size="14.00">Helvetica&#45;Bold</text>
</g>
<!-- Helvetica&#45;&gt;Helvetica&#45;Bold -->
<g id="edge10" class="edge"><title>Helvetica&#45;&gt;Helvetica&#45;Bold</title>
<path fill="none" stroke="white" d="M115.846,-129C148.259,-129 203.117,-129 244.729,-129"/>
<polygon fill="white" stroke="white" points="244.732,-132.5 254.732,-129 244.732,-125.5 244.732,-132.5"/>
</g>
<!-- Helvetica&#45;Oblique -->
<g id="node15" class="node"><title>Helvetica&#45;Oblique</title>
<text text-anchor="middle" x="518" y="-125.3" font-family="Helvetica,sans-Serif" font-style="oblique" font-size="14.00">Helvetica&#45;Oblique</text>
</g>
<!-- Helvetica&#45;Bold&#45;&gt;Helvetica&#45;Oblique -->
<g id="edge11" class="edge"><title>Helvetica&#45;Bold&#45;&gt;Helvetica&#45;Oblique</title>
<path fill="none" stroke="white" d="M349.171,-129C379.682,-129 420.073,-129 453.585,-129"/>
<polygon fill="white" stroke="white" points="453.746,-132.5 463.746,-129 453.745,-125.5 453.746,-132.5"/>
</g>
<!-- Helvetica&#45;BoldOblique -->
<g id="node16" class="node"><title>Helvetica&#45;BoldOblique</title>
<text text-anchor="middle" x="751.5" y="-125.3" font-family="Helvetica,sans-Serif" font-weight="bold" font-style="oblique" font-size="14.00">Helvetica&#45;BoldOblique</text>
</g>
<!-- Helvetica&#45;Oblique&#45;&gt;Helvetica&#45;BoldOblique -->
<g id="edge12" class="edge"><title>Helvetica&#45;Oblique&#45;&gt;Helvetica&#45;BoldOblique</title>
<path fill="none" stroke="white" d="M572.111,-129C600.658,-129 636.48,-129 668.519,-129"/>
<polygon fill="white" stroke="white" points="668.774,-132.5 678.774,-129 668.774,-125.5 668.774,-132.5"/>
</g>
<!-- Helvetica&#45;Narrow -->
<g id="node17" class="node"><title>Helvetica&#45;Narrow</title>
<text text-anchor="middle" x="87.5" y="-162.3" font-family="Helvetica,sans-Serif" font-stretch="condensed" font-size="14.00">Helvetica&#45;Narrow</text>
</g>
<!-- Helvetica&#45;Narrow&#45;Bold -->
<g id="node18" class="node"><title>Helvetica&#45;Narrow&#45;Bold</title>
<text text-anchor="middle" x="302" y="-162.3" font-family="Helvetica,sans-Serif" font-weight="bold" font-stretch="condensed" font-size="14.00">Helvetica&#45;Narrow&#45;Bold</text>
</g>
<!-- Helvetica&#45;Narrow&#45;&gt;Helvetica&#45;Narrow&#45;Bold -->
<g id="edge13" class="edge"><title>Helvetica&#45;Narrow&#45;&gt;Helvetica&#45;Narrow&#45;Bold</title>
<path fill="none" stroke="white" d="M132.53,-166C160.503,-166 197.358,-166 229.464,-166"/>
<polygon fill="white" stroke="white" points="229.703,-169.5 239.703,-166 229.703,-162.5 229.703,-169.5"/>
</g>
<!-- Helvetica&#45;Narrow&#45;Oblique -->
<g id="node19" class="node"><title>Helvetica&#45;Narrow&#45;Oblique</title>
<text text-anchor="middle" x="518" y="-162.3" font-family="Helvetica,sans-Serif" font-stretch="condensed" font-style="oblique" font-size="14.00">Helvetica&#45;Narrow&#45;Oblique</text>
</g>
<!-- Helvetica&#45;Narrow&#45;Bold&#45;&gt;Helvetica&#45;Narrow&#45;Oblique -->
<g id="edge14" class="edge"><title>Helvetica&#45;Narrow&#45;Bold&#45;&gt;Helvetica&#45;Narrow&#45;Oblique</title>
<path fill="none" stroke="white" d="M364.037,-166C387.816,-166 415.335,-166 440.42,-166"/>
<polygon fill="white" stroke="white" points="440.634,-169.5 450.634,-166 440.634,-162.5 440.634,-169.5"/>
</g>
<!-- Helvetica&#45;Narrow&#45;BoldOblique -->
<g id="node20" class="node"><title>Helvetica&#45;Narrow&#45;BoldOblique</title>
<text text-anchor="middle" x="751.5" y="-162.3" font-family="Helvetica,sans-Serif" font-weight="bold" font-stretch="condensed" font-style="oblique" font-size="14.00">Helvetica&#45;Narrow&#45;BoldOblique</text>
</g>
<!-- Helvetica&#45;Narrow&#45;Oblique&#45;&gt;Helvetica&#45;Narrow&#45;BoldOblique -->
<g id="edge15" class="edge"><title>Helvetica&#45;Narrow&#45;Oblique&#45;&gt;Helvetica&#45;Narrow&#45;BoldOblique</title>
<path fill="none" stroke="white" d="M585.029,-166C607.816,-166 633.777,-166 658.271,-166"/>
<polygon fill="white" stroke="white" points="658.3,-169.5 668.3,-166 658.3,-162.5 658.3,-169.5"/>
</g>
<!-- NewCenturySchlbk&#45;Roman -->
<g id="node21" class="node"><title>NewCenturySchlbk&#45;Roman</title>
<text text-anchor="middle" x="87.5" y="-199.3" font-family="Century Schoolbook L,serif" font-weight="roman" font-size="14.00">NewCenturySchlbk&#45;Roman</text>
</g>
<!-- NewCenturySchlbk&#45;Bold -->
<g id="node22" class="node"><title>NewCenturySchlbk&#45;Bold</title>
<text text-anchor="middle" x="302" y="-199.3" font-family="Century Schoolbook L,serif" font-weight="bold" font-size="14.00">NewCenturySchlbk&#45;Bold</text>
</g>
<!-- NewCenturySchlbk&#45;Roman&#45;&gt;NewCenturySchlbk&#45;Bold -->
<g id="edge16" class="edge"><title>NewCenturySchlbk&#45;Roman&#45;&gt;NewCenturySchlbk&#45;Bold</title>
<path fill="none" stroke="white" d="M175.238,-203C183.56,-203 192.048,-203 200.487,-203"/>
<polygon fill="white" stroke="white" points="200.743,-206.5 210.742,-203 200.742,-199.5 200.743,-206.5"/>
</g>
<!-- NewCenturySchlbk&#45;Italic -->
<g id="node23" class="node"><title>NewCenturySchlbk&#45;Italic</title>
<text text-anchor="middle" x="518" y="-199.3" font-family="Century Schoolbook L,serif" font-style="italic" font-size="14.00">NewCenturySchlbk&#45;Italic</text>
</g>
<!-- NewCenturySchlbk&#45;Bold&#45;&gt;NewCenturySchlbk&#45;Italic -->
<g id="edge17" class="edge"><title>NewCenturySchlbk&#45;Bold&#45;&gt;NewCenturySchlbk&#45;Italic</title>
<path fill="none" stroke="white" d="M393.135,-203C404.417,-203 415.955,-203 427.231,-203"/>
<polygon fill="white" stroke="white" points="427.498,-206.5 437.498,-203 427.498,-199.5 427.498,-206.5"/>
</g>
<!-- NewCenturySchlbk&#45;BoldItalic -->
<g id="node24" class="node"><title>NewCenturySchlbk&#45;BoldItalic</title>
<text text-anchor="middle" x="751.5" y="-199.3" font-family="Century Schoolbook L,serif" font-weight="bold" font-style="italic" font-size="14.00">NewCenturySchlbk&#45;BoldItalic</text>
</g>
<!-- NewCenturySchlbk&#45;Italic&#45;&gt;NewCenturySchlbk&#45;BoldItalic -->
<g id="edge18" class="edge"><title>NewCenturySchlbk&#45;Italic&#45;&gt;NewCenturySchlbk&#45;BoldItalic</title>
<path fill="none" stroke="white" d="M598.669,-203C609.695,-203 621.207,-203 632.745,-203"/>
<polygon fill="white" stroke="white" points="632.88,-206.5 642.88,-203 632.88,-199.5 632.88,-206.5"/>
</g>
<!-- Palatino&#45;Roman -->
<g id="node25" class="node"><title>Palatino&#45;Roman</title>
<text text-anchor="middle" x="87.5" y="-236.3" font-family="Palatino Linotype,serif" font-weight="roman" font-size="14.00">Palatino&#45;Roman</text>
</g>
<!-- Palatino&#45;Bold -->
<g id="node26" class="node"><title>Palatino&#45;Bold</title>
<text text-anchor="middle" x="302" y="-236.3" font-family="Palatino Linotype,serif" font-weight="bold" font-size="14.00">Palatino&#45;Bold</text>
</g>
<!-- Palatino&#45;Roman&#45;&gt;Palatino&#45;Bold -->
<g id="edge19" class="edge"><title>Palatino&#45;Roman&#45;&gt;Palatino&#45;Bold</title>
<path fill="none" stroke="white" d="M136.72,-240C170.234,-240 214.859,-240 249.141,-240"/>
<polygon fill="white" stroke="white" points="249.425,-243.5 259.425,-240 249.425,-236.5 249.425,-243.5"/>
</g>
<!-- Palatino&#45;Italic -->
<g id="node27" class="node"><title>Palatino&#45;Italic</title>
<text text-anchor="middle" x="518" y="-236.3" font-family="Palatino Linotype,serif" font-style="italic" font-size="14.00">Palatino&#45;Italic</text>
</g>
<!-- Palatino&#45;Bold&#45;&gt;Palatino&#45;Italic -->
<g id="edge20" class="edge"><title>Palatino&#45;Bold&#45;&gt;Palatino&#45;Italic</title>
<path fill="none" stroke="white" d="M344.515,-240C379.957,-240 430.973,-240 468.329,-240"/>
<polygon fill="white" stroke="white" points="468.479,-243.5 478.479,-240 468.479,-236.5 468.479,-243.5"/>
</g>
<!-- Palatino&#45;BoldItalic -->
<g id="node28" class="node"><title>Palatino&#45;BoldItalic</title>
<text text-anchor="middle" x="751.5" y="-236.3" font-family="Palatino Linotype,serif" font-weight="bold" font-style="italic" font-size="14.00">Palatino&#45;BoldItalic</text>
</g>
<!-- Palatino&#45;Italic&#45;&gt;Palatino&#45;BoldItalic -->
<g id="edge21" class="edge"><title>Palatino&#45;Italic&#45;&gt;Palatino&#45;BoldItalic</title>
<path fill="none" stroke="white" d="M557.748,-240C591.21,-240 640.385,-240 680.689,-240"/>
<polygon fill="white" stroke="white" points="680.73,-243.5 690.73,-240 680.73,-236.5 680.73,-243.5"/>
</g>
<!-- Times&#45;Roman -->
<g id="node29" class="node"><title>Times&#45;Roman</title>
<text text-anchor="middle" x="87.5" y="-273.3" font-family="Times,serif" font-size="14.00">Times&#45;Roman</text>
</g>
<!-- Times&#45;Bold -->
<g id="node30" class="node"><title>Times&#45;Bold</title>
<text text-anchor="middle" x="302" y="-273.3" font-family="Times,serif" font-weight="bold" font-size="14.00">Times&#45;Bold</text>
</g>
<!-- Times&#45;Roman&#45;&gt;Times&#45;Bold -->
<g id="edge22" class="edge"><title>Times&#45;Roman&#45;&gt;Times&#45;Bold</title>
<path fill="none" stroke="white" d="M127.476,-277C164.604,-277 220.349,-277 258.578,-277"/>
<polygon fill="white" stroke="white" points="258.867,-280.5 268.866,-277 258.866,-273.5 258.867,-280.5"/>
</g>
<!-- Times&#45;Italic -->
<g id="node31" class="node"><title>Times&#45;Italic</title>
<text text-anchor="middle" x="518" y="-273.3" font-family="Times,serif" font-style="italic" font-size="14.00">Times&#45;Italic</text>
</g>
<!-- Times&#45;Bold&#45;&gt;Times&#45;Italic -->
<g id="edge23" class="edge"><title>Times&#45;Bold&#45;&gt;Times&#45;Italic</title>
<path fill="none" stroke="white" d="M335.038,-277C372.151,-277 433.443,-277 474.508,-277"/>
<polygon fill="white" stroke="white" points="474.743,-280.5 484.743,-277 474.743,-273.5 474.743,-280.5"/>
</g>
<!-- Times&#45;BoldItalic -->
<g id="node32" class="node"><title>Times&#45;BoldItalic</title>
<text text-anchor="middle" x="751.5" y="-273.3" font-family="Times,serif" font-weight="bold" font-style="italic" font-size="14.00">Times&#45;BoldItalic</text>
</g>
<!-- Times&#45;Italic&#45;&gt;Times&#45;BoldItalic -->
<g id="edge24" class="edge"><title>Times&#45;Italic&#45;&gt;Times&#45;BoldItalic</title>
<path fill="none" stroke="white" d="M551.189,-277C588.533,-277 650.725,-277 695.718,-277"/>
<polygon fill="white" stroke="white" points="695.899,-280.5 705.899,-277 695.899,-273.5 695.899,-280.5"/>
</g>
<!-- ZapfChancery&#45;MediumItalic -->
<g id="node33" class="node"><title>ZapfChancery&#45;MediumItalic</title>
<text text-anchor="middle" x="518" y="-310.3" font-family="URW Chancery L,serif" font-weight="medium" font-style="italic" font-size="14.00">ZapfChancery&#45;MediumItalic</text>
</g>
<!-- ZapfDingbats -->
<g id="node34" class="node"><title>ZapfDingbats</title>
<text text-anchor="middle" x="302" y="-310.3" font-family="Dingbats,fantasy" font-size="14.00">ZapfDingbats</text>
</g>
<!-- ZapfDingbats&#45;&gt;ZapfChancery&#45;MediumItalic -->
<g id="edge26" class="edge"><title>ZapfDingbats&#45;&gt;ZapfChancery&#45;MediumItalic</title>
<path fill="none" stroke="white" d="M348.646,-314C374.231,-314 406.884,-314 436.612,-314"/>
<polygon fill="white" stroke="white" points="436.988,-317.5 446.988,-314 436.988,-310.5 436.988,-317.5"/>
</g>
<!-- Symbol -->
<g id="node35" class="node"><title>Symbol</title>
<text text-anchor="middle" x="87.5" y="-310.3" font-family="Symbol,fantasy" font-size="14.00">Symbol</text>
</g>
<!-- Symbol&#45;&gt;ZapfDingbats -->
<g id="edge25" class="edge"><title>Symbol&#45;&gt;ZapfDingbats</title>
<path fill="none" stroke="white" d="M114.557,-314C146.91,-314 202.982,-314 245.207,-314"/>
<polygon fill="white" stroke="white" points="245.348,-317.5 255.348,-314 245.348,-310.5 245.348,-317.5"/>
</g>
</g>
</svg>
