<?xml version="1.0" encoding="UTF-8" standalone="no"?>
<!DOCTYPE svg PUBLIC "-//W3C//DTD SVG 1.1//EN"
 "http://www.w3.org/Graphics/SVG/1.1/DTD/svg11.dtd">
<!-- Generated by graphviz version 2.38.0 (20140413.2041)
 -->
<!-- Title: G Pages: 1 -->
<svg width="1379pt" height="305pt"
 viewBox="0.00 0.00 1379.00 305.00" xmlns="http://www.w3.org/2000/svg" xmlns:xlink="http://www.w3.org/1999/xlink">
<g id="graph0" class="graph" transform="scale(1 1) rotate(0) translate(4 301)">
<title>G</title>
<polygon fill="white" stroke="none" points="-4,4 -4,-301 1375,-301 1375,4 -4,4"/>
<g id="clust1" class="cluster"><title>cluster_base</title>
<polygon fill="none" stroke="black" points="8,-81 8,-216 332,-216 332,-81 8,-81"/>
<text text-anchor="middle" x="170" y="-200.8" font-family="Times,serif" font-size="14.00">table border:10,cellspacing:0,cellpadding:0,cell border:1</text>
</g>
<g id="clust2" class="cluster"><title>cluster_table_border</title>
<polygon fill="none" stroke="black" points="340,-41 340,-256 671,-256 671,-41 340,-41"/>
<text text-anchor="middle" x="505.5" y="-240.8" font-family="Times,serif" font-size="14.00">table border:10,cellspacing:0,cellpadding:10,cell border:1</text>
</g>
<g id="clust3" class="cluster"><title>cluster_cellspacing</title>
<polygon fill="none" stroke="black" points="679,-20 679,-277 1017,-277 1017,-20 679,-20"/>
<text text-anchor="middle" x="848" y="-261.8" font-family="Times,serif" font-size="14.00">table border:10,cellspacing:10,cellpadding:10,cell border:0</text>
</g>
<g id="clust4" class="cluster"><title>cluster_cellpadding</title>
<polygon fill="none" stroke="black" points="1025,-8 1025,-289 1363,-289 1363,-8 1025,-8"/>
<text text-anchor="middle" x="1194" y="-273.8" font-family="Times,serif" font-size="14.00">table border:10,cellspacing:10,cellpadding:10,cell border:3</text>
</g>
<!-- tbl1100 -->
<g id="node1" class="node"><title>tbl1100</title>
<polygon fill="none" stroke="black" points="138,-154 138,-171 154,-171 154,-154 138,-154"/>
<text text-anchor="start" x="139" y="-158.8" font-family="Times,serif" font-size="14.00">00</text>
<polygon fill="none" stroke="black" points="154,-154 154,-171 170,-171 170,-154 154,-154"/>
<text text-anchor="start" x="155" y="-158.8" font-family="Times,serif" font-size="14.00">01</text>
<polygon fill="none" stroke="black" points="170,-154 170,-171 186,-171 186,-154 170,-154"/>
<text text-anchor="start" x="171" y="-158.8" font-family="Times,serif" font-size="14.00">02</text>
<polygon fill="none" stroke="black" points="186,-154 186,-171 202,-171 202,-154 186,-154"/>
<text text-anchor="start" x="187" y="-158.8" font-family="Times,serif" font-size="14.00">03</text>
<polygon fill="none" stroke="black" points="138,-137 138,-154 154,-154 154,-137 138,-137"/>
<text text-anchor="start" x="139" y="-141.8" font-family="Times,serif" font-size="14.00">10</text>
<polygon fill="none" stroke="black" points="154,-120 154,-154 170,-154 170,-120 154,-120"/>
<text text-anchor="start" x="155" y="-133.3" font-family="Times,serif" font-size="14.00">11</text>
<polygon fill="none" stroke="black" points="170,-137 170,-154 186,-154 186,-137 170,-137"/>
<text text-anchor="start" x="171" y="-141.8" font-family="Times,serif" font-size="14.00">12</text>
<polygon fill="none" stroke="black" points="186,-137 186,-154 202,-154 202,-137 186,-137"/>
<text text-anchor="start" x="187" y="-141.8" font-family="Times,serif" font-size="14.00">13</text>
<polygon fill="none" stroke="black" points="138,-120 138,-137 154,-137 154,-120 138,-120"/>
<text text-anchor="start" x="139" y="-124.8" font-family="Times,serif" font-size="14.00">20</text>
<polygon fill="none" stroke="black" points="170,-120 170,-137 202,-137 202,-120 170,-120"/>
<text text-anchor="start" x="179" y="-124.8" font-family="Times,serif" font-size="14.00">22</text>
<polygon fill="none" stroke="black" points="138,-103 138,-120 154,-120 154,-103 138,-103"/>
<text text-anchor="start" x="139" y="-107.8" font-family="Times,serif" font-size="14.00">30</text>
<polygon fill="none" stroke="black" points="154,-103 154,-120 170,-120 170,-103 154,-103"/>
<text text-anchor="start" x="155" y="-107.8" font-family="Times,serif" font-size="14.00">31</text>
<polygon fill="none" stroke="black" points="170,-103 170,-120 186,-120 186,-103 170,-103"/>
<text text-anchor="start" x="171" y="-107.8" font-family="Times,serif" font-size="14.00">32</text>
<polygon fill="none" stroke="black" points="186,-103 186,-120 202,-120 202,-103 186,-103"/>
<text text-anchor="start" x="187" y="-107.8" font-family="Times,serif" font-size="14.00">33</text>
<polygon fill="black" stroke="black" points="154,-154 154,-181 154,-181 154,-154 154,-154"/>
<polygon fill="black" stroke="black" points="128,-154 128,-154 154,-154 154,-154 128,-154"/>
<polygon fill="black" stroke="black" points="170,-154 170,-181 170,-181 170,-154 170,-154"/>
<polygon fill="black" stroke="black" points="154,-154 154,-154 170,-154 170,-154 154,-154"/>
<polygon fill="black" stroke="black" points="186,-154 186,-181 186,-181 186,-154 186,-154"/>
<polygon fill="black" stroke="black" points="170,-154 170,-154 186,-154 186,-154 170,-154"/>
<polygon fill="black" stroke="black" points="186,-154 186,-154 212,-154 212,-154 186,-154"/>
<polygon fill="black" stroke="black" points="154,-137 154,-154 154,-154 154,-137 154,-137"/>
<polygon fill="black" stroke="black" points="128,-137 128,-137 154,-137 154,-137 128,-137"/>
<polygon fill="black" stroke="black" points="170,-120 170,-154 170,-154 170,-120 170,-120"/>
<polygon fill="black" stroke="black" points="154,-120 154,-120 170,-120 170,-120 154,-120"/>
<polygon fill="black" stroke="black" points="186,-137 186,-154 186,-154 186,-137 186,-137"/>
<polygon fill="black" stroke="black" points="170,-137 170,-137 186,-137 186,-137 170,-137"/>
<polygon fill="black" stroke="black" points="186,-137 186,-137 212,-137 212,-137 186,-137"/>
<polygon fill="black" stroke="black" points="154,-120 154,-137 154,-137 154,-120 154,-120"/>
<polygon fill="black" stroke="black" points="128,-120 128,-120 154,-120 154,-120 128,-120"/>
<polygon fill="black" stroke="black" points="170,-120 170,-120 212,-120 212,-120 170,-120"/>
<polygon fill="black" stroke="black" points="154,-93 154,-120 154,-120 154,-93 154,-93"/>
<polygon fill="black" stroke="black" points="170,-93 170,-120 170,-120 170,-93 170,-93"/>
<polygon fill="black" stroke="black" points="186,-93 186,-120 186,-120 186,-93 186,-93"/>
<path fill="none" stroke="black" stroke-width="10" d="M145,-98C145,-98 195,-98 195,-98 201,-98 207,-104 207,-110 207,-110 207,-164 207,-164 207,-170 201,-176 195,-176 195,-176 145,-176 145,-176 139,-176 133,-170 133,-164 133,-164 133,-110 133,-110 133,-104 139,-98 145,-98"/>
</g>
<!-- tbl1010 -->
<g id="node2" class="node"><title>tbl1010</title>
<polygon fill="none" stroke="black" points="433,-174 433,-211 469,-211 469,-174 433,-174"/>
<text text-anchor="start" x="444" y="-188.8" font-family="Times,serif" font-size="14.00">00</text>
<polygon fill="none" stroke="black" points="469,-174 469,-211 505,-211 505,-174 469,-174"/>
<text text-anchor="start" x="480" y="-188.8" font-family="Times,serif" font-size="14.00">01</text>
<polygon fill="none" stroke="black" points="505,-174 505,-211 541,-211 541,-174 505,-174"/>
<text text-anchor="start" x="516" y="-188.8" font-family="Times,serif" font-size="14.00">02</text>
<polygon fill="none" stroke="black" points="541,-174 541,-211 577,-211 577,-174 541,-174"/>
<text text-anchor="start" x="552" y="-188.8" font-family="Times,serif" font-size="14.00">03</text>
<polygon fill="none" stroke="black" points="433,-137 433,-174 469,-174 469,-137 433,-137"/>
<text text-anchor="start" x="444" y="-151.8" font-family="Times,serif" font-size="14.00">10</text>
<polygon fill="none" stroke="black" points="469,-100 469,-174 505,-174 505,-100 469,-100"/>
<text text-anchor="start" x="480" y="-133.3" font-family="Times,serif" font-size="14.00">11</text>
<polygon fill="none" stroke="black" points="505,-137 505,-174 541,-174 541,-137 505,-137"/>
<text text-anchor="start" x="516" y="-151.8" font-family="Times,serif" font-size="14.00">12</text>
<polygon fill="none" stroke="black" points="541,-137 541,-174 577,-174 577,-137 541,-137"/>
<text text-anchor="start" x="552" y="-151.8" font-family="Times,serif" font-size="14.00">13</text>
<polygon fill="none" stroke="black" points="433,-100 433,-137 469,-137 469,-100 433,-100"/>
<text text-anchor="start" x="444" y="-114.8" font-family="Times,serif" font-size="14.00">20</text>
<polygon fill="none" stroke="black" points="505,-100 505,-137 577,-137 577,-100 505,-100"/>
<text text-anchor="start" x="534" y="-114.8" font-family="Times,serif" font-size="14.00">22</text>
<polygon fill="none" stroke="black" points="433,-63 433,-100 469,-100 469,-63 433,-63"/>
<text text-anchor="start" x="444" y="-77.8" font-family="Times,serif" font-size="14.00">30</text>
<polygon fill="none" stroke="black" points="469,-63 469,-100 505,-100 505,-63 469,-63"/>
<text text-anchor="start" x="480" y="-77.8" font-family="Times,serif" font-size="14.00">31</text>
<polygon fill="none" stroke="black" points="505,-63 505,-100 541,-100 541,-63 505,-63"/>
<text text-anchor="start" x="516" y="-77.8" font-family="Times,serif" font-size="14.00">32</text>
<polygon fill="none" stroke="black" points="541,-63 541,-100 577,-100 577,-63 541,-63"/>
<text text-anchor="start" x="552" y="-77.8" font-family="Times,serif" font-size="14.00">33</text>
<polygon fill="black" stroke="black" points="469,-174 469,-221 469,-221 469,-174 469,-174"/>
<polygon fill="black" stroke="black" points="505,-174 505,-221 505,-221 505,-174 505,-174"/>
<polygon fill="black" stroke="black" points="541,-174 541,-221 541,-221 541,-174 541,-174"/>
<polygon fill="black" stroke="black" points="469,-137 469,-174 469,-174 469,-137 469,-137"/>
<polygon fill="black" stroke="black" points="423,-137 423,-137 469,-137 469,-137 423,-137"/>
<polygon fill="black" stroke="black" points="505,-100 505,-174 505,-174 505,-100 505,-100"/>
<polygon fill="black" stroke="black" points="541,-137 541,-174 541,-174 541,-137 541,-137"/>
<polygon fill="black" stroke="black" points="505,-137 505,-137 541,-137 541,-137 505,-137"/>
<polygon fill="black" stroke="black" points="541,-137 541,-137 587,-137 587,-137 541,-137"/>
<polygon fill="black" stroke="black" points="469,-100 469,-137 469,-137 469,-100 469,-100"/>
<polygon fill="black" stroke="black" points="469,-53 469,-100 469,-100 469,-53 469,-53"/>
<polygon fill="black" stroke="black" points="505,-53 505,-100 505,-100 505,-53 505,-53"/>
<polygon fill="black" stroke="black" points="541,-53 541,-100 541,-100 541,-53 541,-53"/>
<path fill="none" stroke="black" stroke-width="10" d="M440,-58C440,-58 570,-58 570,-58 576,-58 582,-64 582,-70 582,-70 582,-204 582,-204 582,-210 576,-216 570,-216 570,-216 440,-216 440,-216 434,-216 428,-210 428,-204 428,-204 428,-70 428,-70 428,-64 434,-58 440,-58"/>
</g>
<!-- tbl1110 -->
<g id="node3" class="node"><title>tbl1110</title>
<text text-anchor="start" x="775" y="-200.8" font-family="Times,serif" font-size="14.00">00</text>
<text text-anchor="start" x="819" y="-200.8" font-family="Times,serif" font-size="14.00">01</text>
<text text-anchor="start" x="863" y="-200.8" font-family="Times,serif" font-size="14.00">02</text>
<text text-anchor="start" x="907" y="-200.8" font-family="Times,serif" font-size="14.00">03</text>
<text text-anchor="start" x="775" y="-155.8" font-family="Times,serif" font-size="14.00">10</text>
<text text-anchor="start" x="819" y="-133.3" font-family="Times,serif" font-size="14.00">11</text>
<text text-anchor="start" x="863" y="-155.8" font-family="Times,serif" font-size="14.00">12</text>
<text text-anchor="start" x="907" y="-155.8" font-family="Times,serif" font-size="14.00">13</text>
<text text-anchor="start" x="775" y="-110.8" font-family="Times,serif" font-size="14.00">20</text>
<text text-anchor="start" x="885" y="-110.8" font-family="Times,serif" font-size="14.00">22</text>
<text text-anchor="start" x="775" y="-65.8" font-family="Times,serif" font-size="14.00">30</text>
<text text-anchor="start" x="819" y="-65.8" font-family="Times,serif" font-size="14.00">31</text>
<text text-anchor="start" x="863" y="-65.8" font-family="Times,serif" font-size="14.00">32</text>
<text text-anchor="start" x="907" y="-65.8" font-family="Times,serif" font-size="14.00">33</text>
<polygon fill="black" stroke="black" points="804,-182 804,-242 804,-242 804,-182 804,-182"/>
<polygon fill="black" stroke="black" points="745,-182 745,-182 804,-182 804,-182 745,-182"/>
<polygon fill="black" stroke="black" points="804,-182 804,-182 848,-182 848,-182 804,-182"/>
<polygon fill="black" stroke="black" points="848,-182 848,-182 892,-182 892,-182 848,-182"/>
<polygon fill="black" stroke="black" points="892,-182 892,-182 951,-182 951,-182 892,-182"/>
<polygon fill="black" stroke="black" points="745,-137 745,-137 804,-137 804,-137 745,-137"/>
<polygon fill="black" stroke="black" points="848,-92 848,-182 848,-182 848,-92 848,-92"/>
<polygon fill="black" stroke="black" points="804,-92 804,-92 848,-92 848,-92 804,-92"/>
<polygon fill="black" stroke="black" points="848,-137 848,-137 892,-137 892,-137 848,-137"/>
<polygon fill="black" stroke="black" points="892,-137 892,-137 951,-137 951,-137 892,-137"/>
<polygon fill="black" stroke="black" points="745,-92 745,-92 804,-92 804,-92 745,-92"/>
<polygon fill="black" stroke="black" points="848,-92 848,-92 951,-92 951,-92 848,-92"/>
<polygon fill="black" stroke="black" points="892,-32 892,-92 892,-92 892,-32 892,-32"/>
<path fill="none" stroke="black" stroke-width="10" d="M762,-37C762,-37 934,-37 934,-37 940,-37 946,-43 946,-49 946,-49 946,-225 946,-225 946,-231 940,-237 934,-237 934,-237 762,-237 762,-237 756,-237 750,-231 750,-225 750,-225 750,-49 750,-49 750,-43 756,-37 762,-37"/>
</g>
<!-- tbl1111 -->
<g id="node4" class="node"><title>tbl1111</title>
<polygon fill="none" stroke="black" stroke-width="3" points="1100.5,-194.5 1100.5,-232.5 1137.5,-232.5 1137.5,-194.5 1100.5,-194.5"/>
<text text-anchor="start" x="1112" y="-209.8" font-family="Times,serif" font-size="14.00">00</text>
<polygon fill="none" stroke="black" stroke-width="3" points="1150.5,-194.5 1150.5,-232.5 1187.5,-232.5 1187.5,-194.5 1150.5,-194.5"/>
<text text-anchor="start" x="1162" y="-209.8" font-family="Times,serif" font-size="14.00">01</text>
<polygon fill="none" stroke="black" stroke-width="3" points="1200.5,-194.5 1200.5,-232.5 1237.5,-232.5 1237.5,-194.5 1200.5,-194.5"/>
<text text-anchor="start" x="1212" y="-209.8" font-family="Times,serif" font-size="14.00">02</text>
<polygon fill="none" stroke="black" stroke-width="3" points="1250.5,-194.5 1250.5,-232.5 1287.5,-232.5 1287.5,-194.5 1250.5,-194.5"/>
<text text-anchor="start" x="1262" y="-209.8" font-family="Times,serif" font-size="14.00">03</text>
<polygon fill="none" stroke="black" stroke-width="3" points="1100.5,-143.5 1100.5,-181.5 1137.5,-181.5 1137.5,-143.5 1100.5,-143.5"/>
<text text-anchor="start" x="1112" y="-158.8" font-family="Times,serif" font-size="14.00">10</text>
<polygon fill="none" stroke="black" stroke-width="3" points="1150.5,-92.5 1150.5,-181.5 1187.5,-181.5 1187.5,-92.5 1150.5,-92.5"/>
<text text-anchor="start" x="1162" y="-133.3" font-family="Times,serif" font-size="14.00">11</text>
<polygon fill="none" stroke="black" stroke-width="3" points="1200.5,-143.5 1200.5,-181.5 1237.5,-181.5 1237.5,-143.5 1200.5,-143.5"/>
<text text-anchor="start" x="1212" y="-158.8" font-family="Times,serif" font-size="14.00">12</text>
<polygon fill="none" stroke="black" stroke-width="3" points="1250.5,-143.5 1250.5,-181.5 1287.5,-181.5 1287.5,-143.5 1250.5,-143.5"/>
<text text-anchor="start" x="1262" y="-158.8" font-family="Times,serif" font-size="14.00">13</text>
<polygon fill="none" stroke="black" stroke-width="3" points="1100.5,-92.5 1100.5,-130.5 1137.5,-130.5 1137.5,-92.5 1100.5,-92.5"/>
<text text-anchor="start" x="1112" y="-107.8" font-family="Times,serif" font-size="14.00">20</text>
<polygon fill="none" stroke="black" stroke-width="3" points="1200.5,-92.5 1200.5,-130.5 1287.5,-130.5 1287.5,-92.5 1200.5,-92.5"/>
<text text-anchor="start" x="1237" y="-107.8" font-family="Times,serif" font-size="14.00">22</text>
<polygon fill="none" stroke="black" stroke-width="3" points="1100.5,-41.5 1100.5,-79.5 1137.5,-79.5 1137.5,-41.5 1100.5,-41.5"/>
<text text-anchor="start" x="1112" y="-56.8" font-family="Times,serif" font-size="14.00">30</text>
<polygon fill="none" stroke="black" stroke-width="3" points="1150.5,-41.5 1150.5,-79.5 1187.5,-79.5 1187.5,-41.5 1150.5,-41.5"/>
<text text-anchor="start" x="1162" y="-56.8" font-family="Times,serif" font-size="14.00">31</text>
<polygon fill="none" stroke="black" stroke-width="3" points="1200.5,-41.5 1200.5,-79.5 1237.5,-79.5 1237.5,-41.5 1200.5,-41.5"/>
<text text-anchor="start" x="1212" y="-56.8" font-family="Times,serif" font-size="14.00">32</text>
<polygon fill="none" stroke="black" stroke-width="3" points="1250.5,-41.5 1250.5,-79.5 1287.5,-79.5 1287.5,-41.5 1250.5,-41.5"/>
<text text-anchor="start" x="1262" y="-56.8" font-family="Times,serif" font-size="14.00">33</text>
<polygon fill="black" stroke="black" points="1144,-188 1144,-254 1144,-254 1144,-188 1144,-188"/>
<polygon fill="black" stroke="black" points="1079,-188 1079,-188 1144,-188 1144,-188 1079,-188"/>
<polygon fill="black" stroke="black" points="1144,-188 1144,-188 1194,-188 1194,-188 1144,-188"/>
<polygon fill="black" stroke="black" points="1194,-188 1194,-188 1244,-188 1244,-188 1194,-188"/>
<polygon fill="black" stroke="black" points="1244,-188 1244,-188 1309,-188 1309,-188 1244,-188"/>
<polygon fill="black" stroke="black" points="1079,-137 1079,-137 1144,-137 1144,-137 1079,-137"/>
<polygon fill="black" stroke="black" points="1194,-86 1194,-188 1194,-188 1194,-86 1194,-86"/>
<polygon fill="black" stroke="black" points="1144,-86 1144,-86 1194,-86 1194,-86 1144,-86"/>
<polygon fill="black" stroke="black" points="1194,-137 1194,-137 1244,-137 1244,-137 1194,-137"/>
<polygon fill="black" stroke="black" points="1244,-137 1244,-137 1309,-137 1309,-137 1244,-137"/>
<polygon fill="black" stroke="black" points="1079,-86 1079,-86 1144,-86 1144,-86 1079,-86"/>
<polygon fill="black" stroke="black" points="1194,-86 1194,-86 1309,-86 1309,-86 1194,-86"/>
<polygon fill="black" stroke="black" points="1244,-20 1244,-86 1244,-86 1244,-20 1244,-20"/>
<path fill="none" stroke="black" stroke-width="10" d="M1096,-25C1096,-25 1292,-25 1292,-25 1298,-25 1304,-31 1304,-37 1304,-37 1304,-237 1304,-237 1304,-243 1298,-249 1292,-249 1292,-249 1096,-249 1096,-249 1090,-249 1084,-243 1084,-237 1084,-237 1084,-37 1084,-37 1084,-31 1090,-25 1096,-25"/>
</g>
</g>
</svg>
