<?xml version="1.0" encoding="UTF-8" standalone="no"?>
<!DOCTYPE svg PUBLIC "-//W3C//DTD SVG 1.1//EN"
 "http://www.w3.org/Graphics/SVG/1.1/DTD/svg11.dtd">
<!-- Generated by graphviz version 2.38.0 (20140413.2041)
 -->
<!-- Title: G Pages: 1 -->
<svg width="266pt" height="278pt"
 viewBox="0.00 0.00 266.00 278.00" xmlns="http://www.w3.org/2000/svg" xmlns:xlink="http://www.w3.org/1999/xlink">
<g id="graph0" class="graph" transform="scale(1 1) rotate(0) translate(4 274)">
<title>G</title>
<polygon fill="white" stroke="none" points="-4,4 -4,-274 262,-274 262,4 -4,4"/>
<!-- a -->
<g id="node1" class="node"><title>a</title>
<polygon fill="none" stroke="black" points="0,-88 0,-172 78,-172 78,-88 0,-88"/>
<text text-anchor="start" x="8" y="-156.8" font-family="Times,serif" font-size="14.00">Graphs can</text>
<text text-anchor="start" x="8" y="-141.8" font-family="Times,serif" font-size="14.00">be fun</text>
<polyline fill="none" stroke="black" points="0,-134 78,-134 "/>
<text text-anchor="middle" x="39" y="-118.8" font-family="Times,serif" font-size="14.00">mid</text>
<polyline fill="none" stroke="black" points="0,-111 78,-111 "/>
<text text-anchor="end" x="70" y="-95.8" font-family="Times,serif" font-size="14.00">right</text>
</g>
<!-- b -->
<g id="node2" class="node"><title>b</title>
<polygon fill="none" stroke="black" points="114,-144.5 114,-213.5 168,-213.5 168,-144.5 114,-144.5"/>
<text text-anchor="middle" x="141" y="-198.3" font-family="Times,serif" font-size="14.00"> </text>
<polyline fill="none" stroke="black" points="114,-190.5 168,-190.5 "/>
<text text-anchor="middle" x="141" y="-175.3" font-family="Times,serif" font-size="14.00">b</text>
<polyline fill="none" stroke="black" points="114,-167.5 168,-167.5 "/>
<text text-anchor="middle" x="141" y="-152.3" font-family="Times,serif" font-size="14.00"> </text>
</g>
<!-- a&#45;&gt;b -->
<g id="edge1" class="edge"><title>a:bala&#45;&gt;b:left</title>
<path fill="none" stroke="black" d="M78,-153C100.801,-153 91.5158,-187.884 104.29,-198.785"/>
<polygon fill="black" stroke="black" points="103.407,-202.179 114,-202 105.607,-195.534 103.407,-202.179"/>
</g>
<!-- y -->
<g id="node5" class="node"><title>y</title>
<polygon fill="none" stroke="black" points="114,-0.5 114,-69.5 168,-69.5 168,-0.5 114,-0.5"/>
<text text-anchor="middle" x="141" y="-54.3" font-family="Times,serif" font-size="14.00"> </text>
<polyline fill="none" stroke="black" points="114,-46.5 168,-46.5 "/>
<text text-anchor="middle" x="141" y="-31.3" font-family="Times,serif" font-size="14.00">y</text>
<polyline fill="none" stroke="black" points="114,-23.5 168,-23.5 "/>
<text text-anchor="middle" x="141" y="-8.3" font-family="Times,serif" font-size="14.00"> </text>
</g>
<!-- a&#45;&gt;y -->
<g id="edge3" class="edge"><title>a:f2&#45;&gt;y:p1</title>
<path fill="none" stroke="black" d="M78,-99C98.0818,-99 92.9614,-70.8826 104.38,-61.2172"/>
<polygon fill="black" stroke="black" points="105.626,-64.491 114,-58 103.406,-57.8523 105.626,-64.491"/>
</g>
<!-- d -->
<g id="node7" class="node"><title>d</title>
<polygon fill="none" stroke="black" points="114,-89 114,-125 168,-125 168,-89 114,-89"/>
<text text-anchor="middle" x="141" y="-103.3" font-family="Times,serif" font-size="14.00">d</text>
</g>
<!-- a&#45;&gt;d -->
<g id="edge2" class="edge"><title>a:f1&#45;&gt;d</title>
<path fill="none" stroke="black" d="M78,-122C86.5031,-122 95.4828,-120.651 103.888,-118.761"/>
<polygon fill="black" stroke="black" points="104.958,-122.101 113.786,-116.244 103.232,-115.317 104.958,-122.101"/>
</g>
<!-- x -->
<g id="node4" class="node"><title>x</title>
<polygon fill="none" stroke="black" points="204,-112.5 204,-181.5 258,-181.5 258,-112.5 204,-112.5"/>
<text text-anchor="middle" x="231" y="-166.3" font-family="Times,serif" font-size="14.00"> </text>
<polyline fill="none" stroke="black" points="204,-158.5 258,-158.5 "/>
<text text-anchor="middle" x="231" y="-143.3" font-family="Times,serif" font-size="14.00">x</text>
<polyline fill="none" stroke="black" points="204,-135.5 258,-135.5 "/>
<text text-anchor="middle" x="231" y="-120.3" font-family="Times,serif" font-size="14.00"> </text>
</g>
<!-- b&#45;&gt;x -->
<g id="edge5" class="edge"><title>b:mid&#45;&gt;x:p1</title>
<path fill="none" stroke="black" d="M168,-179C180.498,-179 185.257,-173.831 194.006,-171.328"/>
<polygon fill="black" stroke="black" points="194.548,-174.787 204,-170 193.626,-167.848 194.548,-174.787"/>
</g>
<!-- z -->
<g id="node6" class="node"><title>z</title>
<polygon fill="none" stroke="black" points="204,-200.5 204,-269.5 258,-269.5 258,-200.5 204,-200.5"/>
<text text-anchor="middle" x="231" y="-254.3" font-family="Times,serif" font-size="14.00"> </text>
<polyline fill="none" stroke="black" points="204,-246.5 258,-246.5 "/>
<text text-anchor="middle" x="231" y="-231.3" font-family="Times,serif" font-size="14.00">z</text>
<polyline fill="none" stroke="black" points="204,-223.5 258,-223.5 "/>
<text text-anchor="middle" x="231" y="-208.3" font-family="Times,serif" font-size="14.00"> </text>
</g>
<!-- b&#45;&gt;z -->
<g id="edge7" class="edge"><title>b:left&#45;&gt;z:p2</title>
<path fill="none" stroke="black" d="M168,-202C180.584,-202 185.233,-207.743 193.974,-210.524"/>
<polygon fill="black" stroke="black" points="193.597,-214.007 204,-212 194.616,-207.081 193.597,-214.007"/>
</g>
<!-- c -->
<g id="node3" class="node"><title>c</title>
<polygon fill="none" stroke="black" points="12,-0.5 12,-69.5 66,-69.5 66,-0.5 12,-0.5"/>
<text text-anchor="middle" x="39" y="-54.3" font-family="Times,serif" font-size="14.00"> </text>
<polyline fill="none" stroke="black" points="12,-46.5 66,-46.5 "/>
<text text-anchor="middle" x="39" y="-31.3" font-family="Times,serif" font-size="14.00">c</text>
<polyline fill="none" stroke="black" points="12,-23.5 66,-23.5 "/>
<text text-anchor="middle" x="39" y="-8.3" font-family="Times,serif" font-size="14.00"> </text>
</g>
<!-- c&#45;&gt;y -->
<g id="edge6" class="edge"><title>c:p2&#45;&gt;y:p2</title>
<path fill="none" stroke="black" d="M67,-12C83.9722,-12 90.602,-12 103.696,-12"/>
<polygon fill="black" stroke="black" points="104,-15.5001 114,-12 104,-8.5001 104,-15.5001"/>
</g>
<!-- c&#45;&gt;d -->
<g id="edge4" class="edge"><title>c:p1&#45;&gt;d</title>
<path fill="none" stroke="black" d="M67,-58C76.7487,-58 94.9432,-70.1992 110.728,-82.4237"/>
<polygon fill="black" stroke="black" points="108.697,-85.2797 118.706,-88.7542 113.048,-79.7964 108.697,-85.2797"/>
</g>
</g>
</svg>
