<?xml version="1.0" encoding="UTF-8" standalone="no"?>
<!DOCTYPE svg PUBLIC "-//W3C//DTD SVG 1.1//EN"
 "http://www.w3.org/Graphics/SVG/1.1/DTD/svg11.dtd">
<!-- Generated by graphviz version 2.38.0 (20140413.2041)
 -->
<!-- Title: G Pages: 1 -->
<svg width="134pt" height="116pt"
 viewBox="0.00 0.00 134.00 116.00" xmlns="http://www.w3.org/2000/svg" xmlns:xlink="http://www.w3.org/1999/xlink">
<g id="graph0" class="graph" transform="scale(1 1) rotate(0) translate(4 112)">
<title>G</title>
<polygon fill="white" stroke="none" points="-4,4 -4,-112 130,-112 130,4 -4,4"/>
<!-- aaa -->
<g id="node1" class="node"><title>aaa</title>
<polygon fill="none" stroke="black" points="54,-108 0,-108 0,-72 54,-72 54,-108"/>
<text text-anchor="middle" x="27" y="-86.3" font-family="Times,serif" font-size="14.00">aaa</text>
</g>
<!-- bbb -->
<g id="node2" class="node"><title>bbb</title>
<polygon fill="none" stroke="black" points="54,-36 0,-36 0,-0 54,-0 54,-36"/>
<text text-anchor="middle" x="27" y="-14.3" font-family="Times,serif" font-size="14.00">bbb</text>
</g>
<!-- aaa&#45;&gt;bbb -->
<g id="edge1" class="edge"><title>aaa&#45;&gt;bbb</title>
<path fill="none" stroke="black" d="M27,-71.6966C27,-63.9827 27,-54.7125 27,-46.1124"/>
<polygon fill="black" stroke="black" points="30.5001,-46.1043 27,-36.1043 23.5001,-46.1044 30.5001,-46.1043"/>
</g>
<!-- BBB -->
<g id="node3" class="node"><title>BBB</title>
<polygon fill="none" stroke="black" points="126,-36 72,-36 72,-0 126,-0 126,-36"/>
<text text-anchor="middle" x="99" y="-14.3" font-family="Times,serif" font-size="14.00">BBB</text>
</g>
<!-- aaa&#45;&gt;BBB -->
<g id="edge2" class="edge"><title>aaa&#45;&gt;BBB</title>
<path fill="none" stroke="black" d="M44.7978,-71.6966C53.604,-63.135 64.3821,-52.6562 74.0011,-43.3045"/>
<polygon fill="black" stroke="black" points="76.6768,-45.5846 81.407,-36.1043 71.7972,-40.5657 76.6768,-45.5846"/>
</g>
<!-- AAA -->
<g id="node4" class="node"><title>AAA</title>
<polygon fill="none" stroke="black" points="126,-108 72,-108 72,-72 126,-72 126,-108"/>
<text text-anchor="middle" x="99" y="-86.3" font-family="Times,serif" font-size="14.00">AAA</text>
</g>
<!-- AAA&#45;&gt;bbb -->
<g id="edge4" class="edge"><title>AAA&#45;&gt;bbb</title>
<path fill="none" stroke="black" d="M81.2022,-71.6966C72.396,-63.135 61.6179,-52.6562 51.9989,-43.3045"/>
<polygon fill="black" stroke="black" points="54.2028,-40.5657 44.593,-36.1043 49.3232,-45.5846 54.2028,-40.5657"/>
</g>
<!-- AAA&#45;&gt;BBB -->
<g id="edge3" class="edge"><title>AAA&#45;&gt;BBB</title>
<path fill="none" stroke="black" d="M99,-71.6966C99,-63.9827 99,-54.7125 99,-46.1124"/>
<polygon fill="black" stroke="black" points="102.5,-46.1043 99,-36.1043 95.5001,-46.1044 102.5,-46.1043"/>
</g>
</g>
</svg>
