<?xml version="1.0" encoding="UTF-8" standalone="no"?>
<!DOCTYPE svg PUBLIC "-//W3C//DTD SVG 1.1//EN"
 "http://www.w3.org/Graphics/SVG/1.1/DTD/svg11.dtd">
<!-- Generated by graphviz version 2.38.0 (20140413.2041)
 -->
<!-- Title: G Pages: 1 -->
<svg width="152pt" height="116pt"
 viewBox="0.00 0.00 152.00 116.00" xmlns="http://www.w3.org/2000/svg" xmlns:xlink="http://www.w3.org/1999/xlink">
<g id="graph0" class="graph" transform="scale(1 1) rotate(0) translate(4 112)">
<title>G</title>
<polygon fill="white" stroke="none" points="-4,4 -4,-112 148,-112 148,4 -4,4"/>
<!-- aaa -->
<g id="node1" class="node"><title>aaa</title>
<polygon fill="none" stroke="black" points="54,-108 0,-108 0,-72 54,-72 54,-108"/>
<text text-anchor="middle" x="27" y="-86.3" font-family="Times,serif" font-size="14.00">aaa</text>
</g>
<!-- bbb -->
<g id="node2" class="node"><title>bbb</title>
<polygon fill="none" stroke="black" points="54,-36 0,-36 0,-0 54,-0 54,-36"/>
<text text-anchor="middle" x="27" y="-14.3" font-family="Times,serif" font-size="14.00">bbb</text>
</g>
<!-- aaa&#45;&gt;bbb -->
<g id="edge1" class="edge"><title>aaa&#45;&gt;bbb</title>
<path fill="none" stroke="black" d="M27,-71.6966C27,-63.9827 27,-54.7125 27,-46.1124"/>
<polygon fill="black" stroke="black" points="30.5001,-46.1043 27,-36.1043 23.5001,-46.1044 30.5001,-46.1043"/>
</g>
<!-- BBB -->
<g id="node3" class="node"><title>BBB</title>
<polygon fill="none" stroke="black" points="144,-36 90,-36 90,-0 144,-0 144,-36"/>
<text text-anchor="middle" x="117" y="-14.3" font-family="Times,serif" font-size="14.00">BBB</text>
</g>
<!-- aaa&#45;&gt;BBB -->
<g id="edge2" class="edge"><title>aaa&#45;&gt;BBB</title>
<path fill="none" stroke="black" d="M49.2472,-71.6966C60.5819,-62.8807 74.5302,-52.0321 86.8189,-42.4742"/>
<polygon fill="black" stroke="black" points="89.264,-45.0065 95.0087,-36.1043 84.9664,-39.481 89.264,-45.0065"/>
</g>
<!-- AAA -->
<g id="node4" class="node"><title>AAA</title>
<polygon fill="none" stroke="black" points="144,-108 90,-108 90,-72 144,-72 144,-108"/>
<text text-anchor="middle" x="117" y="-86.3" font-family="Times,serif" font-size="14.00">AAA</text>
</g>
<!-- AAA&#45;&gt;bbb -->
<g id="edge4" class="edge"><title>AAA&#45;&gt;bbb</title>
<path fill="none" stroke="black" d="M94.7528,-71.6966C83.4181,-62.8807 69.4698,-52.0321 57.1811,-42.4742"/>
<polygon fill="black" stroke="black" points="59.0336,-39.481 48.9913,-36.1043 54.736,-45.0065 59.0336,-39.481"/>
</g>
<!-- AAA&#45;&gt;BBB -->
<g id="edge3" class="edge"><title>AAA&#45;&gt;BBB</title>
<path fill="none" stroke="black" d="M117,-71.6966C117,-63.9827 117,-54.7125 117,-46.1124"/>
<polygon fill="black" stroke="black" points="120.5,-46.1043 117,-36.1043 113.5,-46.1044 120.5,-46.1043"/>
</g>
</g>
</svg>
