<?xml version="1.0" encoding="UTF-8" standalone="no"?>
<!DOCTYPE svg PUBLIC "-//W3C//DTD SVG 1.1//EN"
 "http://www.w3.org/Graphics/SVG/1.1/DTD/svg11.dtd">
<!-- Generated by graphviz version 2.38.0 (20140413.2041)
 -->
<!-- Title: G Pages: 1 -->
<svg width="134pt" height="188pt"
 viewBox="0.00 0.00 134.00 188.00" xmlns="http://www.w3.org/2000/svg" xmlns:xlink="http://www.w3.org/1999/xlink">
<g id="graph0" class="graph" transform="scale(1 1) rotate(0) translate(4 184)">
<title>G</title>
<polygon fill="white" stroke="none" points="-4,4 -4,-184 130,-184 130,4 -4,4"/>
<!-- aaa -->
<g id="node1" class="node"><title>aaa</title>
<polygon fill="none" stroke="black" points="54,-180 0,-180 0,-144 54,-144 54,-180"/>
<text text-anchor="middle" x="27" y="-158.3" font-family="Times,serif" font-size="14.00">aaa</text>
</g>
<!-- bbb -->
<g id="node2" class="node"><title>bbb</title>
<polygon fill="none" stroke="black" points="54,-36 0,-36 0,-0 54,-0 54,-36"/>
<text text-anchor="middle" x="27" y="-14.3" font-family="Times,serif" font-size="14.00">bbb</text>
</g>
<!-- aaa&#45;&gt;bbb -->
<g id="edge1" class="edge"><title>aaa&#45;&gt;bbb</title>
<path fill="none" stroke="black" d="M27,-143.871C27,-119.67 27,-75.2108 27,-46.3932"/>
<polygon fill="black" stroke="black" points="30.5001,-46.1892 27,-36.1893 23.5001,-46.1893 30.5001,-46.1892"/>
</g>
<!-- BBB -->
<g id="node3" class="node"><title>BBB</title>
<polygon fill="none" stroke="black" points="126,-36 72,-36 72,-0 126,-0 126,-36"/>
<text text-anchor="middle" x="99" y="-14.3" font-family="Times,serif" font-size="14.00">BBB</text>
</g>
<!-- aaa&#45;&gt;BBB -->
<g id="edge2" class="edge"><title>aaa&#45;&gt;BBB</title>
<path fill="none" stroke="black" d="M35.6849,-143.871C48.1181,-119.35 71.0964,-74.0321 85.6856,-45.2589"/>
<polygon fill="black" stroke="black" points="88.8836,-46.6911 90.2843,-36.1893 82.6403,-43.5255 88.8836,-46.6911"/>
</g>
<!-- AAA -->
<g id="node4" class="node"><title>AAA</title>
<polygon fill="none" stroke="black" points="126,-180 72,-180 72,-144 126,-144 126,-180"/>
<text text-anchor="middle" x="99" y="-158.3" font-family="Times,serif" font-size="14.00">AAA</text>
</g>
<!-- AAA&#45;&gt;bbb -->
<g id="edge4" class="edge"><title>AAA&#45;&gt;bbb</title>
<path fill="none" stroke="black" d="M90.3151,-143.871C77.8819,-119.35 54.9036,-74.0321 40.3144,-45.2589"/>
<polygon fill="black" stroke="black" points="43.3597,-43.5255 35.7157,-36.1893 37.1164,-46.6911 43.3597,-43.5255"/>
</g>
<!-- AAA&#45;&gt;BBB -->
<g id="edge3" class="edge"><title>AAA&#45;&gt;BBB</title>
<path fill="none" stroke="black" d="M99,-143.871C99,-119.67 99,-75.2108 99,-46.3932"/>
<polygon fill="black" stroke="black" points="102.5,-46.1892 99,-36.1893 95.5001,-46.1893 102.5,-46.1892"/>
</g>
</g>
</svg>
