<?xml version="1.0" encoding="UTF-8" standalone="no"?>
<!DOCTYPE svg PUBLIC "-//W3C//DTD SVG 1.1//EN"
 "http://www.w3.org/Graphics/SVG/1.1/DTD/svg11.dtd">
<!-- Generated by graphviz version 2.38.0 (20140413.2041)
 -->
<!-- Title: rowe Pages: 1 -->
<svg width="285pt" height="432pt"
 viewBox="0.00 0.00 284.82 432.00" xmlns="http://www.w3.org/2000/svg" xmlns:xlink="http://www.w3.org/1999/xlink">
<g id="graph0" class="graph" transform="scale(0.340694 0.340694) rotate(0) translate(4 1264)">
<title>rowe</title>
<polygon fill="white" stroke="none" points="-4,4 -4,-1264 832,-1264 832,4 -4,4"/>
<!-- 1 -->
<g id="node1" class="node"><title>1</title>
<polygon fill="none" stroke="black" points="520,-1260 466,-1260 466,-1224 520,-1224 520,-1260"/>
<text text-anchor="middle" x="493" y="-1238.3" font-family="Times,serif" font-size="14.00">1</text>
</g>
<!-- 2 -->
<g id="node2" class="node"><title>2</title>
<polygon fill="none" stroke="black" points="520,-1188 466,-1188 466,-1152 520,-1152 520,-1188"/>
<text text-anchor="middle" x="493" y="-1166.3" font-family="Times,serif" font-size="14.00">2</text>
</g>
<!-- 1&#45;&gt;2 -->
<g id="edge1" class="edge"><title>1&#45;&gt;2</title>
<path fill="none" stroke="black" d="M487.084,-1223.7C486.289,-1215.98 486.062,-1206.71 486.405,-1198.11"/>
<polygon fill="black" stroke="black" points="489.898,-1198.32 487.105,-1188.1 482.915,-1197.84 489.898,-1198.32"/>
</g>
<!-- 10 -->
<g id="node3" class="node"><title>10</title>
<polygon fill="none" stroke="black" points="620,-1188 566,-1188 566,-1152 620,-1152 620,-1188"/>
<text text-anchor="middle" x="593" y="-1166.3" font-family="Times,serif" font-size="14.00">10</text>
</g>
<!-- 1&#45;&gt;10 -->
<g id="edge2" class="edge"><title>1&#45;&gt;10</title>
<path fill="none" stroke="black" d="M511.803,-1223.7C524.633,-1214.02 541.859,-1201.89 557.198,-1191.71"/>
<polygon fill="black" stroke="black" points="559.512,-1194.37 565.963,-1185.97 555.679,-1188.52 559.512,-1194.37"/>
</g>
<!-- 2&#45;&gt;1 -->
<g id="edge58" class="edge"><title>2&#45;&gt;1</title>
<path fill="none" stroke="black" d="M498.895,-1188.1C499.701,-1195.79 499.937,-1205.05 499.604,-1213.67"/>
<polygon fill="black" stroke="black" points="496.109,-1213.48 498.916,-1223.7 503.092,-1213.96 496.109,-1213.48"/>
</g>
<!-- 18 -->
<g id="node8" class="node"><title>18</title>
<polygon fill="none" stroke="black" points="589,-1044 535,-1044 535,-1008 589,-1008 589,-1044"/>
<text text-anchor="middle" x="562" y="-1022.3" font-family="Times,serif" font-size="14.00">18</text>
</g>
<!-- 2&#45;&gt;18 -->
<g id="edge7" class="edge"><title>2&#45;&gt;18</title>
<path fill="none" stroke="black" d="M501.323,-1151.87C513.238,-1127.35 535.259,-1082.03 549.24,-1053.26"/>
<polygon fill="black" stroke="black" points="552.425,-1054.71 553.647,-1044.19 546.129,-1051.65 552.425,-1054.71"/>
</g>
<!-- 17 -->
<g id="node9" class="node"><title>17</title>
<polygon fill="none" stroke="black" points="513,-900 459,-900 459,-864 513,-864 513,-900"/>
<text text-anchor="middle" x="486" y="-878.3" font-family="Times,serif" font-size="14.00">17</text>
</g>
<!-- 2&#45;&gt;17 -->
<g id="edge8" class="edge"><title>2&#45;&gt;17</title>
<path fill="none" stroke="black" d="M492.583,-1151.97C491.416,-1104.29 488.109,-969.185 486.676,-910.63"/>
<polygon fill="black" stroke="black" points="490.167,-910.218 486.424,-900.306 483.169,-910.389 490.167,-910.218"/>
</g>
<!-- 16 -->
<g id="node10" class="node"><title>16</title>
<polygon fill="none" stroke="black" points="393,-1116 339,-1116 339,-1080 393,-1080 393,-1116"/>
<text text-anchor="middle" x="366" y="-1094.3" font-family="Times,serif" font-size="14.00">16</text>
</g>
<!-- 2&#45;&gt;16 -->
<g id="edge9" class="edge"><title>2&#45;&gt;16</title>
<path fill="none" stroke="black" d="M465.755,-1153.98C447.173,-1143.74 422.362,-1130.07 402.133,-1118.92"/>
<polygon fill="black" stroke="black" points="403.647,-1115.75 393.2,-1113.99 400.268,-1121.88 403.647,-1115.75"/>
</g>
<!-- 3 -->
<g id="node11" class="node"><title>3</title>
<polygon fill="none" stroke="black" points="321,-1116 267,-1116 267,-1080 321,-1080 321,-1116"/>
<text text-anchor="middle" x="294" y="-1094.3" font-family="Times,serif" font-size="14.00">3</text>
</g>
<!-- 2&#45;&gt;3 -->
<g id="edge10" class="edge"><title>2&#45;&gt;3</title>
<path fill="none" stroke="black" d="M465.804,-1161.31C434.989,-1152.35 383.179,-1136.53 330.797,-1116.09"/>
<polygon fill="black" stroke="black" points="331.946,-1112.78 321.359,-1112.36 329.372,-1119.29 331.946,-1112.78"/>
</g>
<!-- 10&#45;&gt;1 -->
<g id="edge54" class="edge"><title>10&#45;&gt;1</title>
<path fill="none" stroke="black" d="M574.321,-1188.21C561.504,-1197.89 544.258,-1210.03 528.892,-1220.23"/>
<polygon fill="black" stroke="black" points="526.56,-1217.58 520.11,-1225.98 530.394,-1223.43 526.56,-1217.58"/>
</g>
<!-- 14 -->
<g id="node4" class="node"><title>14</title>
<polygon fill="none" stroke="black" points="762,-972 708,-972 708,-936 762,-936 762,-972"/>
<text text-anchor="middle" x="735" y="-950.3" font-family="Times,serif" font-size="14.00">14</text>
</g>
<!-- 10&#45;&gt;14 -->
<g id="edge3" class="edge"><title>10&#45;&gt;14</title>
<path fill="none" stroke="black" d="M617.039,-1151.77C645.22,-1130.1 690.878,-1090.11 713,-1044 722.439,-1024.33 728.077,-1000.2 731.279,-982.033"/>
<polygon fill="black" stroke="black" points="734.743,-982.535 732.893,-972.103 727.834,-981.412 734.743,-982.535"/>
</g>
<!-- 12 -->
<g id="node5" class="node"><title>12</title>
<polygon fill="none" stroke="black" points="704,-1044 650,-1044 650,-1008 704,-1008 704,-1044"/>
<text text-anchor="middle" x="677" y="-1022.3" font-family="Times,serif" font-size="14.00">12</text>
</g>
<!-- 10&#45;&gt;12 -->
<g id="edge4" class="edge"><title>10&#45;&gt;12</title>
<path fill="none" stroke="black" d="M608.457,-1151.6C616.902,-1141.6 627.198,-1128.57 635,-1116 647.392,-1096.04 658.592,-1071.84 666.303,-1053.71"/>
<polygon fill="black" stroke="black" points="669.595,-1054.91 670.214,-1044.33 663.134,-1052.22 669.595,-1054.91"/>
</g>
<!-- 13 -->
<g id="node6" class="node"><title>13</title>
<polygon fill="none" stroke="black" points="652,-972 598,-972 598,-936 652,-936 652,-972"/>
<text text-anchor="middle" x="625" y="-950.3" font-family="Times,serif" font-size="14.00">13</text>
</g>
<!-- 10&#45;&gt;13 -->
<g id="edge5" class="edge"><title>10&#45;&gt;13</title>
<path fill="none" stroke="black" d="M595.565,-1151.85C601.1,-1114.83 614.207,-1027.18 620.905,-982.386"/>
<polygon fill="black" stroke="black" points="624.406,-982.64 622.423,-972.232 617.483,-981.605 624.406,-982.64"/>
</g>
<!-- 11 -->
<g id="node7" class="node"><title>11</title>
<polygon fill="none" stroke="black" points="465,-1116 411,-1116 411,-1080 465,-1080 465,-1116"/>
<text text-anchor="middle" x="438" y="-1094.3" font-family="Times,serif" font-size="14.00">11</text>
</g>
<!-- 10&#45;&gt;11 -->
<g id="edge6" class="edge"><title>10&#45;&gt;11</title>
<path fill="none" stroke="black" d="M565.646,-1156.65C540.302,-1145.2 502.419,-1128.09 474.503,-1115.49"/>
<polygon fill="black" stroke="black" points="475.635,-1112.16 465.081,-1111.23 472.754,-1118.54 475.635,-1112.16"/>
</g>
<!-- 15 -->
<g id="node40" class="node"><title>15</title>
<polygon fill="none" stroke="black" points="714,-540 660,-540 660,-504 714,-504 714,-540"/>
<text text-anchor="middle" x="687" y="-518.3" font-family="Times,serif" font-size="14.00">15</text>
</g>
<!-- 14&#45;&gt;15 -->
<g id="edge46" class="edge"><title>14&#45;&gt;15</title>
<path fill="none" stroke="black" d="M736.778,-935.973C739.401,-909.343 744,-856.205 744,-811 744,-811 744,-811 744,-665 744,-624.031 736.336,-613.571 720,-576 716.001,-566.802 710.581,-557.329 705.291,-548.982"/>
<polygon fill="black" stroke="black" points="708.09,-546.868 699.674,-540.432 702.239,-550.711 708.09,-546.868"/>
</g>
<!-- 29 -->
<g id="node26" class="node"><title>29</title>
<polygon fill="none" stroke="black" points="547,-540 493,-540 493,-504 547,-504 547,-540"/>
<text text-anchor="middle" x="520" y="-518.3" font-family="Times,serif" font-size="14.00">29</text>
</g>
<!-- 12&#45;&gt;29 -->
<g id="edge27" class="edge"><title>12&#45;&gt;29</title>
<path fill="none" stroke="black" d="M679.94,-1007.98C687.313,-963.756 706,-841.56 706,-739 706,-739 706,-739 706,-665 706,-590.611 610.846,-549.991 556.656,-532.889"/>
<polygon fill="black" stroke="black" points="557.632,-529.528 547.046,-529.967 555.595,-536.225 557.632,-529.528"/>
</g>
<!-- 19 -->
<g id="node14" class="node"><title>19</title>
<polygon fill="none" stroke="black" points="492,-684 438,-684 438,-648 492,-648 492,-684"/>
<text text-anchor="middle" x="465" y="-662.3" font-family="Times,serif" font-size="14.00">19</text>
</g>
<!-- 13&#45;&gt;19 -->
<g id="edge15" class="edge"><title>13&#45;&gt;19</title>
<path fill="none" stroke="black" d="M621.774,-935.914C613.399,-895.104 587.84,-790.135 535,-720 525.684,-707.635 512.743,-696.739 500.518,-688.093"/>
<polygon fill="black" stroke="black" points="502.466,-685.185 492.223,-682.476 498.541,-690.981 502.466,-685.185"/>
</g>
<!-- 4 -->
<g id="node12" class="node"><title>4</title>
<polygon fill="none" stroke="black" points="321,-1044 267,-1044 267,-1008 321,-1008 321,-1044"/>
<text text-anchor="middle" x="294" y="-1022.3" font-family="Times,serif" font-size="14.00">4</text>
</g>
<!-- 11&#45;&gt;4 -->
<g id="edge11" class="edge"><title>11&#45;&gt;4</title>
<path fill="none" stroke="black" d="M410.915,-1083.83C388.231,-1072.81 355.643,-1056.97 330.632,-1044.81"/>
<polygon fill="black" stroke="black" points="331.977,-1041.57 321.453,-1040.35 328.917,-1047.87 331.977,-1041.57"/>
</g>
<!-- 18&#45;&gt;29 -->
<g id="edge28" class="edge"><title>18&#45;&gt;29</title>
<path fill="none" stroke="black" d="M566.986,-1007.84C584.234,-948.139 640.761,-749.623 649,-684 650.993,-668.125 652.847,-663.531 649,-648 640.3,-612.878 636.046,-602.114 611,-576 595.697,-560.044 574.547,-547.337 556.489,-538.369"/>
<polygon fill="black" stroke="black" points="557.907,-535.168 547.374,-534.023 554.894,-541.486 557.907,-535.168"/>
</g>
<!-- 17&#45;&gt;19 -->
<g id="edge16" class="edge"><title>17&#45;&gt;19</title>
<path fill="none" stroke="black" d="M481.795,-863.747C476.185,-839.761 466.549,-794.895 463,-756 461.546,-740.066 462.698,-735.997 463,-720 463.157,-711.678 463.452,-702.626 463.769,-694.396"/>
<polygon fill="black" stroke="black" points="467.275,-694.316 464.187,-684.181 460.281,-694.029 467.275,-694.316"/>
</g>
<!-- 16&#45;&gt;4 -->
<g id="edge12" class="edge"><title>16&#45;&gt;4</title>
<path fill="none" stroke="black" d="M348.202,-1079.7C339.396,-1071.14 328.618,-1060.66 318.999,-1051.3"/>
<polygon fill="black" stroke="black" points="321.203,-1048.57 311.593,-1044.1 316.323,-1053.58 321.203,-1048.57"/>
</g>
<!-- 3&#45;&gt;4 -->
<g id="edge13" class="edge"><title>3&#45;&gt;4</title>
<path fill="none" stroke="black" d="M294,-1079.7C294,-1071.98 294,-1062.71 294,-1054.11"/>
<polygon fill="black" stroke="black" points="297.5,-1054.1 294,-1044.1 290.5,-1054.1 297.5,-1054.1"/>
</g>
<!-- 5 -->
<g id="node13" class="node"><title>5</title>
<polygon fill="none" stroke="black" points="305,-972 251,-972 251,-936 305,-936 305,-972"/>
<text text-anchor="middle" x="278" y="-950.3" font-family="Times,serif" font-size="14.00">5</text>
</g>
<!-- 4&#45;&gt;5 -->
<g id="edge14" class="edge"><title>4&#45;&gt;5</title>
<path fill="none" stroke="black" d="M290.045,-1007.7C288.282,-999.983 286.163,-990.712 284.197,-982.112"/>
<polygon fill="black" stroke="black" points="287.55,-981.073 281.91,-972.104 280.726,-982.633 287.55,-981.073"/>
</g>
<!-- 23 -->
<g id="node15" class="node"><title>23</title>
<polygon fill="none" stroke="black" points="261,-252 207,-252 207,-216 261,-216 261,-252"/>
<text text-anchor="middle" x="234" y="-230.3" font-family="Times,serif" font-size="14.00">23</text>
</g>
<!-- 5&#45;&gt;23 -->
<g id="edge17" class="edge"><title>5&#45;&gt;23</title>
<path fill="none" stroke="black" d="M274.762,-935.582C270.087,-908.875 262,-856.152 262,-811 262,-811 262,-811 262,-377 262,-336.27 250.774,-290.189 242.539,-261.862"/>
<polygon fill="black" stroke="black" points="245.889,-260.847 239.666,-252.272 239.183,-262.856 245.889,-260.847"/>
</g>
<!-- 35 -->
<g id="node16" class="node"><title>35</title>
<polygon fill="none" stroke="black" points="344,-900 290,-900 290,-864 344,-864 344,-900"/>
<text text-anchor="middle" x="317" y="-878.3" font-family="Times,serif" font-size="14.00">35</text>
</g>
<!-- 5&#45;&gt;35 -->
<g id="edge18" class="edge"><title>5&#45;&gt;35</title>
<path fill="none" stroke="black" d="M287.64,-935.697C292.127,-927.644 297.559,-917.894 302.524,-908.982"/>
<polygon fill="black" stroke="black" points="305.661,-910.544 307.47,-900.104 299.546,-907.137 305.661,-910.544"/>
</g>
<!-- 6 -->
<g id="node17" class="node"><title>6</title>
<polygon fill="none" stroke="black" points="234,-900 180,-900 180,-864 234,-864 234,-900"/>
<text text-anchor="middle" x="207" y="-878.3" font-family="Times,serif" font-size="14.00">6</text>
</g>
<!-- 5&#45;&gt;6 -->
<g id="edge19" class="edge"><title>5&#45;&gt;6</title>
<path fill="none" stroke="black" d="M260.449,-935.697C251.766,-927.135 241.137,-916.656 231.652,-907.304"/>
<polygon fill="black" stroke="black" points="233.927,-904.633 224.349,-900.104 229.012,-909.617 233.927,-904.633"/>
</g>
<!-- 20 -->
<g id="node23" class="node"><title>20</title>
<polygon fill="none" stroke="black" points="602,-612 548,-612 548,-576 602,-576 602,-612"/>
<text text-anchor="middle" x="575" y="-590.3" font-family="Times,serif" font-size="14.00">20</text>
</g>
<!-- 19&#45;&gt;20 -->
<g id="edge24" class="edge"><title>19&#45;&gt;20</title>
<path fill="none" stroke="black" d="M491.909,-647.876C506.158,-638.808 523.846,-627.552 539.236,-617.759"/>
<polygon fill="black" stroke="black" points="541.43,-620.511 547.988,-612.19 537.672,-614.606 541.43,-620.511"/>
</g>
<!-- 28 -->
<g id="node24" class="node"><title>28</title>
<polygon fill="none" stroke="black" points="492,-612 438,-612 438,-576 492,-576 492,-612"/>
<text text-anchor="middle" x="465" y="-590.3" font-family="Times,serif" font-size="14.00">28</text>
</g>
<!-- 19&#45;&gt;28 -->
<g id="edge25" class="edge"><title>19&#45;&gt;28</title>
<path fill="none" stroke="black" d="M465,-647.697C465,-639.983 465,-630.712 465,-622.112"/>
<polygon fill="black" stroke="black" points="468.5,-622.104 465,-612.104 461.5,-622.104 468.5,-622.104"/>
</g>
<!-- 21 -->
<g id="node25" class="node"><title>21</title>
<polygon fill="none" stroke="black" points="411,-612 357,-612 357,-576 411,-576 411,-612"/>
<text text-anchor="middle" x="384" y="-590.3" font-family="Times,serif" font-size="14.00">21</text>
</g>
<!-- 19&#45;&gt;21 -->
<g id="edge26" class="edge"><title>19&#45;&gt;21</title>
<path fill="none" stroke="black" d="M444.978,-647.697C434.874,-638.965 422.464,-628.24 411.482,-618.75"/>
<polygon fill="black" stroke="black" points="413.647,-615.995 403.792,-612.104 409.07,-621.291 413.647,-615.995"/>
</g>
<!-- 23&#45;&gt;1 -->
<g id="edge56" class="edge"><title>23&#45;&gt;1</title>
<path fill="none" stroke="black" d="M206.699,-244.885C144.973,-269.186 0,-338.07 0,-449 0,-1099 0,-1099 0,-1099 0,-1145.97 17.2289,-1163.01 57,-1188 123.129,-1229.56 362.613,-1238.54 455.664,-1240.48"/>
<polygon fill="black" stroke="black" points="455.687,-1243.98 465.752,-1240.67 455.821,-1236.98 455.687,-1243.98"/>
</g>
<!-- 24 -->
<g id="node33" class="node"><title>24</title>
<polygon fill="none" stroke="black" points="261,-180 207,-180 207,-144 261,-144 261,-180"/>
<text text-anchor="middle" x="234" y="-158.3" font-family="Times,serif" font-size="14.00">24</text>
</g>
<!-- 23&#45;&gt;24 -->
<g id="edge39" class="edge"><title>23&#45;&gt;24</title>
<path fill="none" stroke="black" d="M234,-215.697C234,-207.983 234,-198.712 234,-190.112"/>
<polygon fill="black" stroke="black" points="237.5,-190.104 234,-180.104 230.5,-190.104 237.5,-190.104"/>
</g>
<!-- 43 -->
<g id="node37" class="node"><title>43</title>
<polygon fill="none" stroke="black" points="382,-828 328,-828 328,-792 382,-792 382,-828"/>
<text text-anchor="middle" x="355" y="-806.3" font-family="Times,serif" font-size="14.00">43</text>
</g>
<!-- 35&#45;&gt;43 -->
<g id="edge43" class="edge"><title>35&#45;&gt;43</title>
<path fill="none" stroke="black" d="M326.393,-863.697C330.765,-855.644 336.057,-845.894 340.895,-836.982"/>
<polygon fill="black" stroke="black" points="344.02,-838.563 345.715,-828.104 337.868,-835.223 344.02,-838.563"/>
</g>
<!-- 36 -->
<g id="node38" class="node"><title>36</title>
<polygon fill="none" stroke="black" points="344,-756 290,-756 290,-720 344,-720 344,-756"/>
<text text-anchor="middle" x="317" y="-734.3" font-family="Times,serif" font-size="14.00">36</text>
</g>
<!-- 35&#45;&gt;36 -->
<g id="edge44" class="edge"><title>35&#45;&gt;36</title>
<path fill="none" stroke="black" d="M317,-863.871C317,-839.67 317,-795.211 317,-766.393"/>
<polygon fill="black" stroke="black" points="320.5,-766.189 317,-756.189 313.5,-766.189 320.5,-766.189"/>
</g>
<!-- 7 -->
<g id="node32" class="node"><title>7</title>
<polygon fill="none" stroke="black" points="234,-828 180,-828 180,-792 234,-792 234,-828"/>
<text text-anchor="middle" x="207" y="-806.3" font-family="Times,serif" font-size="14.00">7</text>
</g>
<!-- 6&#45;&gt;7 -->
<g id="edge38" class="edge"><title>6&#45;&gt;7</title>
<path fill="none" stroke="black" d="M207,-863.697C207,-855.983 207,-846.712 207,-838.112"/>
<polygon fill="black" stroke="black" points="210.5,-838.104 207,-828.104 203.5,-838.104 210.5,-838.104"/>
</g>
<!-- 37 -->
<g id="node18" class="node"><title>37</title>
<polygon fill="none" stroke="black" points="547,-828 493,-828 493,-792 547,-792 547,-828"/>
<text text-anchor="middle" x="520" y="-806.3" font-family="Times,serif" font-size="14.00">37</text>
</g>
<!-- 39 -->
<g id="node19" class="node"><title>39</title>
<polygon fill="none" stroke="black" points="640,-684 586,-684 586,-648 640,-648 640,-684"/>
<text text-anchor="middle" x="613" y="-662.3" font-family="Times,serif" font-size="14.00">39</text>
</g>
<!-- 37&#45;&gt;39 -->
<g id="edge20" class="edge"><title>37&#45;&gt;39</title>
<path fill="none" stroke="black" d="M531.218,-791.871C547.347,-767.244 577.216,-721.638 596.047,-692.885"/>
<polygon fill="black" stroke="black" points="599.191,-694.472 601.742,-684.189 593.335,-690.637 599.191,-694.472"/>
</g>
<!-- 41 -->
<g id="node20" class="node"><title>41</title>
<polygon fill="none" stroke="black" points="566,-684 512,-684 512,-648 566,-648 566,-684"/>
<text text-anchor="middle" x="539" y="-662.3" font-family="Times,serif" font-size="14.00">41</text>
</g>
<!-- 37&#45;&gt;41 -->
<g id="edge21" class="edge"><title>37&#45;&gt;41</title>
<path fill="none" stroke="black" d="M526.034,-791.563C529.296,-781.333 533.046,-768.083 535,-756 538.313,-735.516 539.252,-712.06 539.396,-694.372"/>
<polygon fill="black" stroke="black" points="542.896,-694.182 539.396,-684.182 535.896,-694.181 542.896,-694.182"/>
</g>
<!-- 40 -->
<g id="node21" class="node"><title>40</title>
<polygon fill="none" stroke="black" points="526,-756 472,-756 472,-720 526,-720 526,-756"/>
<text text-anchor="middle" x="499" y="-734.3" font-family="Times,serif" font-size="14.00">40</text>
</g>
<!-- 37&#45;&gt;40 -->
<g id="edge22" class="edge"><title>37&#45;&gt;40</title>
<path fill="none" stroke="black" d="M514.809,-791.697C512.469,-783.898 509.653,-774.509 507.049,-765.829"/>
<polygon fill="black" stroke="black" points="510.357,-764.677 504.131,-756.104 503.652,-766.688 510.357,-764.677"/>
</g>
<!-- 38 -->
<g id="node22" class="node"><title>38</title>
<polygon fill="none" stroke="black" points="416,-756 362,-756 362,-720 416,-720 416,-756"/>
<text text-anchor="middle" x="389" y="-734.3" font-family="Times,serif" font-size="14.00">38</text>
</g>
<!-- 37&#45;&gt;38 -->
<g id="edge23" class="edge"><title>37&#45;&gt;38</title>
<path fill="none" stroke="black" d="M492.857,-794.496C473.184,-783.984 446.384,-769.663 424.936,-758.203"/>
<polygon fill="black" stroke="black" points="426.578,-755.111 416.109,-753.485 423.279,-761.285 426.578,-755.111"/>
</g>
<!-- 39&#45;&gt;15 -->
<g id="edge47" class="edge"><title>39&#45;&gt;15</title>
<path fill="none" stroke="black" d="M621.926,-647.871C634.705,-623.35 658.321,-578.032 673.316,-549.259"/>
<polygon fill="black" stroke="black" points="676.525,-550.675 678.042,-540.189 670.317,-547.44 676.525,-550.675"/>
</g>
<!-- 41&#45;&gt;29 -->
<g id="edge29" class="edge"><title>41&#45;&gt;29</title>
<path fill="none" stroke="black" d="M536.708,-647.871C533.47,-623.67 527.521,-579.211 523.665,-550.393"/>
<polygon fill="black" stroke="black" points="527.095,-549.637 522.3,-540.189 520.157,-550.565 527.095,-549.637"/>
</g>
<!-- 40&#45;&gt;19 -->
<g id="edge64" class="edge"><title>40&#45;&gt;19</title>
<path fill="none" stroke="black" d="M490.596,-719.697C486.725,-711.728 482.048,-702.1 477.757,-693.264"/>
<polygon fill="black" stroke="black" points="480.825,-691.57 473.308,-684.104 474.529,-694.629 480.825,-691.57"/>
</g>
<!-- 38&#45;&gt;4 -->
<g id="edge61" class="edge"><title>38&#45;&gt;4</title>
<path fill="none" stroke="black" d="M391.908,-756.323C394.369,-774.452 396.678,-803.615 391,-828 375.658,-893.89 334.974,-963.095 311.455,-999.356"/>
<polygon fill="black" stroke="black" points="308.444,-997.565 305.872,-1007.84 314.292,-1001.41 308.444,-997.565"/>
</g>
<!-- 20&#45;&gt;15 -->
<g id="edge48" class="edge"><title>20&#45;&gt;15</title>
<path fill="none" stroke="black" d="M602.112,-576.055C616.861,-566.837 635.29,-555.319 651.206,-545.371"/>
<polygon fill="black" stroke="black" points="653.124,-548.3 659.749,-540.032 649.414,-542.364 653.124,-548.3"/>
</g>
<!-- 28&#45;&gt;29 -->
<g id="edge30" class="edge"><title>28&#45;&gt;29</title>
<path fill="none" stroke="black" d="M478.596,-575.697C485.123,-567.389 493.068,-557.277 500.247,-548.141"/>
<polygon fill="black" stroke="black" points="503.135,-550.13 506.561,-540.104 497.631,-545.805 503.135,-550.13"/>
</g>
<!-- 22 -->
<g id="node31" class="node"><title>22</title>
<polygon fill="none" stroke="black" points="382,-468 328,-468 328,-432 382,-432 382,-468"/>
<text text-anchor="middle" x="355" y="-446.3" font-family="Times,serif" font-size="14.00">22</text>
</g>
<!-- 21&#45;&gt;22 -->
<g id="edge35" class="edge"><title>21&#45;&gt;22</title>
<path fill="none" stroke="black" d="M380.502,-575.871C375.538,-551.564 366.4,-506.819 360.517,-478.013"/>
<polygon fill="black" stroke="black" points="363.941,-477.287 358.51,-468.189 357.082,-478.687 363.941,-477.287"/>
</g>
<!-- 30 -->
<g id="node27" class="node"><title>30</title>
<polygon fill="none" stroke="black" points="492,-468 438,-468 438,-432 492,-432 492,-468"/>
<text text-anchor="middle" x="465" y="-446.3" font-family="Times,serif" font-size="14.00">30</text>
</g>
<!-- 29&#45;&gt;30 -->
<g id="edge31" class="edge"><title>29&#45;&gt;30</title>
<path fill="none" stroke="black" d="M506.404,-503.697C499.877,-495.389 491.932,-485.277 484.753,-476.141"/>
<polygon fill="black" stroke="black" points="487.369,-473.805 478.439,-468.104 481.865,-478.13 487.369,-473.805"/>
</g>
<!-- 31 -->
<g id="node28" class="node"><title>31</title>
<polygon fill="none" stroke="black" points="234,-396 180,-396 180,-360 234,-360 234,-396"/>
<text text-anchor="middle" x="207" y="-374.3" font-family="Times,serif" font-size="14.00">31</text>
</g>
<!-- 30&#45;&gt;31 -->
<g id="edge32" class="edge"><title>30&#45;&gt;31</title>
<path fill="none" stroke="black" d="M437.877,-441.641C391.423,-429.037 296.576,-403.304 244.059,-389.055"/>
<polygon fill="black" stroke="black" points="244.714,-385.606 234.147,-386.365 242.881,-392.362 244.714,-385.606"/>
</g>
<!-- 33 -->
<g id="node29" class="node"><title>33</title>
<polygon fill="none" stroke="black" points="492,-396 438,-396 438,-360 492,-360 492,-396"/>
<text text-anchor="middle" x="465" y="-374.3" font-family="Times,serif" font-size="14.00">33</text>
</g>
<!-- 30&#45;&gt;33 -->
<g id="edge33" class="edge"><title>30&#45;&gt;33</title>
<path fill="none" stroke="black" d="M459.084,-431.697C458.289,-423.983 458.062,-414.712 458.405,-406.112"/>
<polygon fill="black" stroke="black" points="461.898,-406.324 459.105,-396.104 454.915,-405.836 461.898,-406.324"/>
</g>
<!-- 31&#45;&gt;1 -->
<g id="edge57" class="edge"><title>31&#45;&gt;1</title>
<path fill="none" stroke="black" d="M179.847,-395.895C132.075,-427.958 38,-502.578 38,-593 38,-1099 38,-1099 38,-1099 38,-1154.01 75.0239,-1162.96 124,-1188 181.552,-1217.42 373.939,-1233.2 455.713,-1238.71"/>
<polygon fill="black" stroke="black" points="455.599,-1242.21 465.808,-1239.38 456.06,-1235.22 455.599,-1242.21"/>
</g>
<!-- 32 -->
<g id="node30" class="node"><title>32</title>
<polygon fill="none" stroke="black" points="234,-324 180,-324 180,-288 234,-288 234,-324"/>
<text text-anchor="middle" x="207" y="-302.3" font-family="Times,serif" font-size="14.00">32</text>
</g>
<!-- 31&#45;&gt;32 -->
<g id="edge34" class="edge"><title>31&#45;&gt;32</title>
<path fill="none" stroke="black" d="M207,-359.697C207,-351.983 207,-342.712 207,-334.112"/>
<polygon fill="black" stroke="black" points="210.5,-334.104 207,-324.104 203.5,-334.104 210.5,-334.104"/>
</g>
<!-- 33&#45;&gt;30 -->
<g id="edge67" class="edge"><title>33&#45;&gt;30</title>
<path fill="none" stroke="black" d="M470.895,-396.104C471.701,-403.791 471.937,-413.054 471.604,-421.665"/>
<polygon fill="black" stroke="black" points="468.109,-421.48 470.916,-431.697 475.092,-421.96 468.109,-421.48"/>
</g>
<!-- 34 -->
<g id="node41" class="node"><title>34</title>
<polygon fill="none" stroke="black" points="519,-324 465,-324 465,-288 519,-288 519,-324"/>
<text text-anchor="middle" x="492" y="-302.3" font-family="Times,serif" font-size="14.00">34</text>
</g>
<!-- 33&#45;&gt;34 -->
<g id="edge49" class="edge"><title>33&#45;&gt;34</title>
<path fill="none" stroke="black" d="M471.674,-359.697C474.715,-351.813 478.383,-342.304 481.761,-333.546"/>
<polygon fill="black" stroke="black" points="485.069,-334.694 485.403,-324.104 478.538,-332.175 485.069,-334.694"/>
</g>
<!-- 32&#45;&gt;23 -->
<g id="edge36" class="edge"><title>32&#45;&gt;23</title>
<path fill="none" stroke="black" d="M213.674,-287.697C216.715,-279.813 220.383,-270.304 223.761,-261.546"/>
<polygon fill="black" stroke="black" points="227.069,-262.694 227.403,-252.104 220.538,-260.175 227.069,-262.694"/>
</g>
<!-- 22&#45;&gt;23 -->
<g id="edge37" class="edge"><title>22&#45;&gt;23</title>
<path fill="none" stroke="black" d="M348.054,-431.913C335.503,-401.8 307.414,-337.758 276,-288 270.016,-278.521 262.652,-268.74 255.771,-260.2"/>
<polygon fill="black" stroke="black" points="258.442,-257.938 249.383,-252.444 253.039,-262.388 258.442,-257.938"/>
</g>
<!-- 8 -->
<g id="node34" class="node"><title>8</title>
<polygon fill="none" stroke="black" points="234,-756 180,-756 180,-720 234,-720 234,-756"/>
<text text-anchor="middle" x="207" y="-734.3" font-family="Times,serif" font-size="14.00">8</text>
</g>
<!-- 7&#45;&gt;8 -->
<g id="edge40" class="edge"><title>7&#45;&gt;8</title>
<path fill="none" stroke="black" d="M207,-791.697C207,-783.983 207,-774.712 207,-766.112"/>
<polygon fill="black" stroke="black" points="210.5,-766.104 207,-756.104 203.5,-766.104 210.5,-766.104"/>
</g>
<!-- 25 -->
<g id="node35" class="node"><title>25</title>
<polygon fill="none" stroke="black" points="333,-108 279,-108 279,-72 333,-72 333,-108"/>
<text text-anchor="middle" x="306" y="-86.3" font-family="Times,serif" font-size="14.00">25</text>
</g>
<!-- 24&#45;&gt;25 -->
<g id="edge41" class="edge"><title>24&#45;&gt;25</title>
<path fill="none" stroke="black" d="M251.798,-143.697C260.604,-135.135 271.382,-124.656 281.001,-115.304"/>
<polygon fill="black" stroke="black" points="283.677,-117.585 288.407,-108.104 278.797,-112.566 283.677,-117.585"/>
</g>
<!-- 27 -->
<g id="node36" class="node"><title>27</title>
<polygon fill="none" stroke="black" points="261,-108 207,-108 207,-72 261,-72 261,-108"/>
<text text-anchor="middle" x="234" y="-86.3" font-family="Times,serif" font-size="14.00">27</text>
</g>
<!-- 24&#45;&gt;27 -->
<g id="edge42" class="edge"><title>24&#45;&gt;27</title>
<path fill="none" stroke="black" d="M228.084,-143.697C227.289,-135.983 227.062,-126.712 227.405,-118.112"/>
<polygon fill="black" stroke="black" points="230.898,-118.324 228.105,-108.104 223.915,-117.836 230.898,-118.324"/>
</g>
<!-- 9 -->
<g id="node39" class="node"><title>9</title>
<polygon fill="none" stroke="black" points="196,-684 142,-684 142,-648 196,-648 196,-684"/>
<text text-anchor="middle" x="169" y="-662.3" font-family="Times,serif" font-size="14.00">9</text>
</g>
<!-- 8&#45;&gt;9 -->
<g id="edge45" class="edge"><title>8&#45;&gt;9</title>
<path fill="none" stroke="black" d="M197.607,-719.697C193.235,-711.644 187.943,-701.894 183.105,-692.982"/>
<polygon fill="black" stroke="black" points="186.132,-691.223 178.285,-684.104 179.98,-694.563 186.132,-691.223"/>
</g>
<!-- 25&#45;&gt;1 -->
<g id="edge59" class="edge"><title>25&#45;&gt;1</title>
<path fill="none" stroke="black" d="M333.33,-92.4611C440.735,-98.9346 828,-129.455 828,-233 828,-1099 828,-1099 828,-1099 828,-1227.23 617.356,-1241.39 530.133,-1241.75"/>
<polygon fill="black" stroke="black" points="530.137,-1238.25 520.131,-1241.73 530.125,-1245.25 530.137,-1238.25"/>
</g>
<!-- 26 -->
<g id="node42" class="node"><title>26</title>
<polygon fill="none" stroke="black" points="185,-36 131,-36 131,-0 185,-0 185,-36"/>
<text text-anchor="middle" x="158" y="-14.3" font-family="Times,serif" font-size="14.00">26</text>
</g>
<!-- 25&#45;&gt;26 -->
<g id="edge52" class="edge"><title>25&#45;&gt;26</title>
<path fill="none" stroke="black" d="M278.855,-76.1609C255.146,-64.9473 220.536,-48.5778 194.424,-36.2274"/>
<polygon fill="black" stroke="black" points="195.76,-32.9877 185.224,-31.876 192.767,-39.3156 195.76,-32.9877"/>
</g>
<!-- 27&#45;&gt;24 -->
<g id="edge68" class="edge"><title>27&#45;&gt;24</title>
<path fill="none" stroke="black" d="M239.895,-108.104C240.701,-115.791 240.937,-125.054 240.604,-133.665"/>
<polygon fill="black" stroke="black" points="237.109,-133.48 239.916,-143.697 244.092,-133.96 237.109,-133.48"/>
</g>
<!-- 43&#45;&gt;40 -->
<g id="edge50" class="edge"><title>43&#45;&gt;40</title>
<path fill="none" stroke="black" d="M382.085,-795.834C404.769,-784.807 437.357,-768.966 462.368,-756.807"/>
<polygon fill="black" stroke="black" points="464.083,-759.865 471.547,-752.345 461.023,-753.57 464.083,-759.865"/>
</g>
<!-- 43&#45;&gt;38 -->
<g id="edge51" class="edge"><title>43&#45;&gt;38</title>
<path fill="none" stroke="black" d="M363.404,-791.697C367.275,-783.728 371.952,-774.1 376.243,-765.264"/>
<polygon fill="black" stroke="black" points="379.471,-766.629 380.692,-756.104 373.175,-763.57 379.471,-766.629"/>
</g>
<!-- 36&#45;&gt;19 -->
<g id="edge65" class="edge"><title>36&#45;&gt;19</title>
<path fill="none" stroke="black" d="M344.145,-724.161C367.854,-712.947 402.464,-696.578 428.576,-684.227"/>
<polygon fill="black" stroke="black" points="430.233,-687.316 437.776,-679.876 427.24,-680.988 430.233,-687.316"/>
</g>
<!-- 9&#45;&gt;1 -->
<g id="edge60" class="edge"><title>9&#45;&gt;1</title>
<path fill="none" stroke="black" d="M155.675,-684.206C129.96,-719.189 76,-802.007 76,-881 76,-1099 76,-1099 76,-1099 76,-1178.87 353.563,-1222.93 455.787,-1236.45"/>
<polygon fill="black" stroke="black" points="455.593,-1239.96 465.961,-1237.77 456.495,-1233.01 455.593,-1239.96"/>
</g>
<!-- 42 -->
<g id="node43" class="node"><title>42</title>
<polygon fill="none" stroke="black" points="177,-612 123,-612 123,-576 177,-576 177,-612"/>
<text text-anchor="middle" x="150" y="-590.3" font-family="Times,serif" font-size="14.00">42</text>
</g>
<!-- 9&#45;&gt;42 -->
<g id="edge53" class="edge"><title>9&#45;&gt;42</title>
<path fill="none" stroke="black" d="M164.303,-647.697C162.187,-639.898 159.638,-630.509 157.282,-621.829"/>
<polygon fill="black" stroke="black" points="160.64,-620.838 154.643,-612.104 153.884,-622.672 160.64,-620.838"/>
</g>
<!-- 15&#45;&gt;1 -->
<g id="edge55" class="edge"><title>15&#45;&gt;1</title>
<path fill="none" stroke="black" d="M710.63,-540.026C741.039,-564.115 790,-611.246 790,-665 790,-1099 790,-1099 790,-1099 790,-1212.91 609.989,-1235.52 530.252,-1239.95"/>
<polygon fill="black" stroke="black" points="529.962,-1236.46 520.144,-1240.44 530.303,-1243.45 529.962,-1236.46"/>
</g>
<!-- 34&#45;&gt;29 -->
<g id="edge66" class="edge"><title>34&#45;&gt;29</title>
<path fill="none" stroke="black" d="M495.139,-324.151C496.979,-334.511 499.273,-347.991 501,-360 507.731,-406.805 513.811,-461.519 517.195,-493.602"/>
<polygon fill="black" stroke="black" points="513.716,-493.988 518.236,-503.57 520.678,-493.261 513.716,-493.988"/>
</g>
<!-- 26&#45;&gt;4 -->
<g id="edge62" class="edge"><title>26&#45;&gt;4</title>
<path fill="none" stroke="black" d="M130.77,-34.9006C95.3651,-57.8581 38,-103.87 38,-161 38,-379 38,-379 38,-379 38,-475.599 76,-496.401 76,-593 76,-667 76,-667 76,-667 76,-682.809 121.17,-903.842 192,-972 210.497,-989.799 236.157,-1003.09 257.112,-1011.91"/>
<polygon fill="black" stroke="black" points="256.084,-1015.27 266.667,-1015.77 258.703,-1008.78 256.084,-1015.27"/>
</g>
<!-- 42&#45;&gt;4 -->
<g id="edge63" class="edge"><title>42&#45;&gt;4</title>
<path fill="none" stroke="black" d="M142.934,-612.335C139.162,-622.53 134.912,-635.78 133,-648 130.527,-663.808 131.609,-668.061 133,-684 141.477,-781.105 126.357,-813.35 171,-900 192.639,-942 233.24,-979.012 261.864,-1001.65"/>
<polygon fill="black" stroke="black" points="259.912,-1004.57 269.96,-1007.93 264.2,-999.034 259.912,-1004.57"/>
</g>
</g>
</svg>
