<?xml version="1.0" encoding="UTF-8" standalone="no"?>
<!DOCTYPE svg PUBLIC "-//W3C//DTD SVG 1.1//EN"
 "http://www.w3.org/Graphics/SVG/1.1/DTD/svg11.dtd">
<!-- Generated by graphviz version 2.38.0 (20140413.2041)
 -->
<!-- Title: G Pages: 1 -->
<svg width="1282pt" height="116pt"
 viewBox="0.00 0.00 1282.18 116.00" xmlns="http://www.w3.org/2000/svg" xmlns:xlink="http://www.w3.org/1999/xlink">
<g id="graph0" class="graph" transform="scale(1 1) rotate(0) translate(4 112)">
<title>G</title>
<polygon fill="white" stroke="none" points="-4,4 -4,-112 1278.18,-112 1278.18,4 -4,4"/>
<!-- Контрагенты -->
<g id="node1" class="node"><title>Контрагенты</title>
<ellipse fill="none" stroke="black" cx="249.343" cy="-90" rx="60.3893" ry="18"/>
<text text-anchor="middle" x="249.343" y="-86.3" font-family="Times,serif" font-size="14.00">Контрагенты</text>
</g>
<!-- БанковскиеСчета -->
<g id="node2" class="node"><title>БанковскиеСчета</title>
<ellipse fill="none" stroke="black" cx="77.3431" cy="-18" rx="77.1866" ry="18"/>
<text text-anchor="middle" x="77.3431" y="-14.3" font-family="Times,serif" font-size="14.00">БанковскиеСчета</text>
</g>
<!-- Контрагенты&#45;&gt;БанковскиеСчета -->
<g id="edge1" class="edge"><title>Контрагенты&#45;&gt;БанковскиеСчета</title>
<path fill="none" stroke="black" d="M214.95,-75.0027C188.702,-64.3206 152.278,-49.4967 123.497,-37.7835"/>
<polygon fill="black" stroke="black" points="124.637,-34.4687 114.055,-33.941 121.998,-40.9524 124.637,-34.4687"/>
</g>
<!-- ДоговорыВзаиморасчетов -->
<g id="node6" class="node"><title>ДоговорыВзаиморасчетов</title>
<ellipse fill="none" stroke="black" cx="283.343" cy="-18" rx="110.48" ry="18"/>
<text text-anchor="middle" x="283.343" y="-14.3" font-family="Times,serif" font-size="14.00">ДоговорыВзаиморасчетов</text>
</g>
<!-- Контрагенты&#45;&gt;ДоговорыВзаиморасчетов -->
<g id="edge4" class="edge"><title>Контрагенты&#45;&gt;ДоговорыВзаиморасчетов</title>
<path fill="none" stroke="black" d="M257.574,-72.055C261.442,-64.0915 266.144,-54.4107 270.467,-45.5097"/>
<polygon fill="black" stroke="black" points="273.731,-46.7996 274.952,-36.2753 267.435,-43.7412 273.731,-46.7996"/>
</g>
<!-- Организации -->
<g id="node3" class="node"><title>Организации</title>
<ellipse fill="none" stroke="black" cx="77.3431" cy="-90" rx="59.5901" ry="18"/>
<text text-anchor="middle" x="77.3431" y="-86.3" font-family="Times,serif" font-size="14.00">Организации</text>
</g>
<!-- Организации&#45;&gt;БанковскиеСчета -->
<g id="edge2" class="edge"><title>Организации&#45;&gt;БанковскиеСчета</title>
<path fill="none" stroke="black" d="M77.3431,-71.6966C77.3431,-63.9827 77.3431,-54.7125 77.3431,-46.1124"/>
<polygon fill="black" stroke="black" points="80.8432,-46.1043 77.3431,-36.1043 73.8432,-46.1044 80.8432,-46.1043"/>
</g>
<!-- ВопросыДляАнкетирования -->
<g id="node4" class="node"><title>ВопросыДляАнкетирования</title>
<ellipse fill="none" stroke="black" cx="525.343" cy="-90" rx="118.079" ry="18"/>
<text text-anchor="middle" x="525.343" y="-86.3" font-family="Times,serif" font-size="14.00">ВопросыДляАнкетирования</text>
</g>
<!-- ВариантыОтветовОпросов -->
<g id="node5" class="node"><title>ВариантыОтветовОпросов</title>
<ellipse fill="none" stroke="black" cx="525.343" cy="-18" rx="113.18" ry="18"/>
<text text-anchor="middle" x="525.343" y="-14.3" font-family="Times,serif" font-size="14.00">ВариантыОтветовОпросов</text>
</g>
<!-- ВопросыДляАнкетирования&#45;&gt;ВариантыОтветовОпросов -->
<g id="edge3" class="edge"><title>ВопросыДляАнкетирования&#45;&gt;ВариантыОтветовОпросов</title>
<path fill="none" stroke="black" d="M525.343,-71.6966C525.343,-63.9827 525.343,-54.7125 525.343,-46.1124"/>
<polygon fill="black" stroke="black" points="528.843,-46.1043 525.343,-36.1043 521.843,-46.1044 528.843,-46.1043"/>
</g>
<!-- Номенклатура -->
<g id="node7" class="node"><title>Номенклатура</title>
<ellipse fill="none" stroke="black" cx="774.343" cy="-90" rx="65.7887" ry="18"/>
<text text-anchor="middle" x="774.343" y="-86.3" font-family="Times,serif" font-size="14.00">Номенклатура</text>
</g>
<!-- ЕдиницыИзмерения -->
<g id="node8" class="node"><title>ЕдиницыИзмерения</title>
<ellipse fill="none" stroke="black" cx="822.343" cy="-18" rx="87.1846" ry="18"/>
<text text-anchor="middle" x="822.343" y="-14.3" font-family="Times,serif" font-size="14.00">ЕдиницыИзмерения</text>
</g>
<!-- Номенклатура&#45;&gt;ЕдиницыИзмерения -->
<g id="edge5" class="edge"><title>Номенклатура&#45;&gt;ЕдиницыИзмерения</title>
<path fill="none" stroke="black" d="M785.963,-72.055C791.598,-63.8373 798.486,-53.7911 804.748,-44.6599"/>
<polygon fill="black" stroke="black" points="807.728,-46.502 810.497,-36.2753 801.955,-42.5432 807.728,-46.502"/>
</g>
<!-- НоменклатурныеГруппы -->
<g id="node9" class="node"><title>НоменклатурныеГруппы</title>
<ellipse fill="none" stroke="black" cx="962.343" cy="-90" rx="104.782" ry="18"/>
<text text-anchor="middle" x="962.343" y="-86.3" font-family="Times,serif" font-size="14.00">НоменклатурныеГруппы</text>
</g>
<!-- НоменклатурныеГруппы&#45;&gt;ЕдиницыИзмерения -->
<g id="edge6" class="edge"><title>НоменклатурныеГруппы&#45;&gt;ЕдиницыИзмерения</title>
<path fill="none" stroke="black" d="M929.872,-72.7646C910.03,-62.8434 884.475,-50.0661 863.257,-39.4571"/>
<polygon fill="black" stroke="black" points="864.665,-36.2477 854.155,-34.906 861.534,-42.5087 864.665,-36.2477"/>
</g>
<!-- СвойстваОбектов -->
<g id="node10" class="node"><title>СвойстваОбектов</title>
<ellipse fill="none" stroke="black" cx="1164.34" cy="-90" rx="79.0865" ry="18"/>
<text text-anchor="middle" x="1164.34" y="-86.3" font-family="Times,serif" font-size="14.00">СвойстваОбектов</text>
</g>
<!-- ЗначенияСвойствОбектов -->
<g id="node11" class="node"><title>ЗначенияСвойствОбектов</title>
<ellipse fill="none" stroke="black" cx="1164.34" cy="-18" rx="109.681" ry="18"/>
<text text-anchor="middle" x="1164.34" y="-14.3" font-family="Times,serif" font-size="14.00">ЗначенияСвойствОбектов</text>
</g>
<!-- СвойстваОбектов&#45;&gt;ЗначенияСвойствОбектов -->
<g id="edge7" class="edge"><title>СвойстваОбектов&#45;&gt;ЗначенияСвойствОбектов</title>
<path fill="none" stroke="black" d="M1164.34,-71.6966C1164.34,-63.9827 1164.34,-54.7125 1164.34,-46.1124"/>
<polygon fill="black" stroke="black" points="1167.84,-46.1043 1164.34,-36.1043 1160.84,-46.1044 1167.84,-46.1043"/>
</g>
</g>
</svg>
