<?xml version="1.0" encoding="UTF-8" standalone="no"?>
<!DOCTYPE svg PUBLIC "-//W3C//DTD SVG 1.1//EN"
 "http://www.w3.org/Graphics/SVG/1.1/DTD/svg11.dtd">
<!-- Generated by graphviz version 2.38.0 (20140413.2041)
 -->
<!-- Title: G Pages: 1 -->
<svg width="138pt" height="191pt"
 viewBox="0.00 0.00 138.00 191.00" xmlns="http://www.w3.org/2000/svg" xmlns:xlink="http://www.w3.org/1999/xlink">
<g id="graph0" class="graph" transform="scale(1 1) rotate(0) translate(4 187)">
<title>G</title>
<polygon fill="white" stroke="none" points="-4,4 -4,-187 134,-187 134,4 -4,4"/>
<text text-anchor="middle" x="65" y="-7.8" font-family="Times,serif" font-size="14.00">SelfBottom</text>
<!-- node55 -->
<g id="node1" class="node"><title>node55</title>
<polygon fill="none" stroke="black" points="93,-183 37,-183 37,-147 93,-147 93,-183"/>
<text text-anchor="middle" x="65" y="-161.3" font-family="Times,serif" font-size="14.00">node55</text>
</g>
<!-- node55&#45;&gt;node55 -->
<g id="edge1" class="edge"><title>node55:se&#45;&gt;node55:se</title>
<path fill="none" stroke="black" d="M93,-147C97.5,-141 97.5,-129 93,-129 90.3984,-129 89.3009,-133.011 89.7074,-137.554"/>
<polygon fill="black" stroke="black" points="86.4034,-138.709 93,-147 93.0134,-136.405 86.4034,-138.709"/>
<text text-anchor="middle" x="65" y="-117.8" font-family="Times,serif" font-size="14.00">tailport=se headport=se</text>
</g>
<!-- node55&#45;&gt;node55 -->
<g id="edge2" class="edge"><title>node55:se&#45;&gt;node55:se</title>
<path fill="none" stroke="black" d="M93,-147C102,-135 102,-111 93,-111 85.9688,-111 84.4307,-125.648 88.3857,-137.779"/>
<polygon fill="black" stroke="black" points="85.3949,-139.624 93,-147 91.6548,-136.491 85.3949,-139.624"/>
<text text-anchor="middle" x="65" y="-99.8" font-family="Times,serif" font-size="14.00">tailport=se headport=se</text>
</g>
<!-- node66 -->
<g id="node2" class="node"><title>node66</title>
<polygon fill="none" stroke="black" points="93,-110 37,-110 37,-74 93,-74 93,-110"/>
<text text-anchor="middle" x="65" y="-88.3" font-family="Times,serif" font-size="14.00">node66</text>
</g>
<!-- node55&#45;&gt;node66 -->
<g id="edge3" class="edge"><title>node55&#45;&gt;node66</title>
<path fill="none" stroke="black" d="M65,-146.813C65,-138.789 65,-129.047 65,-120.069"/>
<polygon fill="black" stroke="black" points="68.5001,-120.029 65,-110.029 61.5001,-120.029 68.5001,-120.029"/>
</g>
<!-- node66&#45;&gt;node66 -->
<g id="edge4" class="edge"><title>node66:s&#45;&gt;node66:s</title>
<path fill="none" stroke="black" d="M65,-74C69.5,-68 69.5,-56 65,-56 62.3984,-56 61.3009,-60.0107 61.7074,-64.5542"/>
<polygon fill="black" stroke="black" points="58.4034,-65.7093 65,-74 65.0134,-63.4052 58.4034,-65.7093"/>
<text text-anchor="middle" x="65" y="-44.8" font-family="Times,serif" font-size="14.00">tailport=s headport=s</text>
</g>
<!-- node66&#45;&gt;node66 -->
<g id="edge5" class="edge"><title>node66:s&#45;&gt;node66:s</title>
<path fill="none" stroke="black" d="M65,-74C74,-62 74,-38 65,-38 57.9688,-38 56.4307,-52.6484 60.3857,-64.7792"/>
<polygon fill="black" stroke="black" points="57.3949,-66.6235 65,-74 63.6548,-63.4909 57.3949,-66.6235"/>
<text text-anchor="middle" x="65" y="-26.8" font-family="Times,serif" font-size="14.00">tailport=s headport=s</text>
</g>
</g>
</svg>
