<?xml version="1.0" encoding="UTF-8" standalone="no"?>
<!DOCTYPE svg PUBLIC "-//W3C//DTD SVG 1.1//EN"
 "http://www.w3.org/Graphics/SVG/1.1/DTD/svg11.dtd">
<!-- Generated by graphviz version 2.38.0 (20140413.2041)
 -->
<!-- Title: G Pages: 1 -->
<svg width="138pt" height="173pt"
 viewBox="0.00 0.00 138.00 173.00" xmlns="http://www.w3.org/2000/svg" xmlns:xlink="http://www.w3.org/1999/xlink">
<g id="graph0" class="graph" transform="scale(1 1) rotate(0) translate(4 169)">
<title>G</title>
<polygon fill="white" stroke="none" points="-4,4 -4,-169 134,-169 134,4 -4,4"/>
<text text-anchor="middle" x="65" y="-7.8" font-family="Times,serif" font-size="14.00">SelfBottom</text>
<!-- node55 -->
<g id="node1" class="node"><title>node55</title>
<polygon fill="none" stroke="black" points="93,-165 37,-165 37,-129 93,-129 93,-165"/>
<text text-anchor="middle" x="65" y="-143.3" font-family="Times,serif" font-size="14.00">node55</text>
</g>
<!-- node55&#45;&gt;node55 -->
<g id="edge1" class="edge"><title>node55:se&#45;&gt;node55:se</title>
<path fill="none" stroke="black" d="M93,-129C102,-123 102,-111 93,-111 87.2344,-111 85.1624,-115.925 86.7839,-121.042"/>
<polygon fill="black" stroke="black" points="84.0859,-123.274 93,-129 89.6025,-118.965 84.0859,-123.274"/>
<text text-anchor="middle" x="65" y="-99.8" font-family="Times,serif" font-size="14.00">tailport=se headport=se</text>
</g>
<!-- node66 -->
<g id="node2" class="node"><title>node66</title>
<polygon fill="none" stroke="black" points="93,-92 37,-92 37,-56 93,-56 93,-92"/>
<text text-anchor="middle" x="65" y="-70.3" font-family="Times,serif" font-size="14.00">node66</text>
</g>
<!-- node55&#45;&gt;node66 -->
<g id="edge2" class="edge"><title>node55&#45;&gt;node66</title>
<path fill="none" stroke="black" d="M65,-128.813C65,-120.789 65,-111.047 65,-102.069"/>
<polygon fill="black" stroke="black" points="68.5001,-102.029 65,-92.0288 61.5001,-102.029 68.5001,-102.029"/>
</g>
<!-- node66&#45;&gt;node66 -->
<g id="edge3" class="edge"><title>node66:s&#45;&gt;node66:s</title>
<path fill="none" stroke="black" d="M65,-56C74,-50 74,-38 65,-38 59.2344,-38 57.1624,-42.9248 58.7839,-48.042"/>
<polygon fill="black" stroke="black" points="56.0859,-50.2737 65,-56 61.6025,-45.9647 56.0859,-50.2737"/>
<text text-anchor="middle" x="65" y="-26.8" font-family="Times,serif" font-size="14.00">tailport=s headport=s</text>
</g>
</g>
</svg>
