<?xml version="1.0" encoding="UTF-8" standalone="no"?>
<!DOCTYPE svg PUBLIC "-//W3C//DTD SVG 1.1//EN"
 "http://www.w3.org/Graphics/SVG/1.1/DTD/svg11.dtd">
<!-- Generated by graphviz version 2.38.0 (20140413.2041)
 -->
<!-- Title: G Pages: 1 -->
<svg width="138pt" height="256pt"
 viewBox="0.00 0.00 138.00 255.59" xmlns="http://www.w3.org/2000/svg" xmlns:xlink="http://www.w3.org/1999/xlink">
<g id="graph0" class="graph" transform="scale(1 1) rotate(0) translate(4 251.587)">
<title>G</title>
<polygon fill="white" stroke="none" points="-4,4 -4,-251.587 134,-251.587 134,4 -4,4"/>
<text text-anchor="middle" x="65" y="-7.8" font-family="Times,serif" font-size="14.00">SelfBottom</text>
<!-- node55 -->
<g id="node1" class="node"><title>node55</title>
<ellipse fill="none" stroke="black" cx="65" cy="-211.19" rx="36.2938" ry="36.2938"/>
<text text-anchor="middle" x="65" y="-207.49" font-family="Times,serif" font-size="14.00">node55</text>
</g>
<!-- node55&#45;&gt;node55 -->
<g id="edge1" class="edge"><title>node55:se&#45;&gt;node55:se</title>
<path fill="none" stroke="black" d="M91,-185.19C100,-165.794 100,-147.794 91,-147.794 83.4766,-147.794 82.2422,-160.372 87.2971,-175.83"/>
<polygon fill="black" stroke="black" points="84.0669,-177.179 91,-185.19 90.5761,-174.604 84.0669,-177.179"/>
<text text-anchor="middle" x="65" y="-136.594" font-family="Times,serif" font-size="14.00">tailport=se headport=se</text>
</g>
<!-- node66 -->
<g id="node2" class="node"><title>node66</title>
<ellipse fill="none" stroke="black" cx="65" cy="-101.397" rx="36.2938" ry="36.2938"/>
<text text-anchor="middle" x="65" y="-97.6968" font-family="Times,serif" font-size="14.00">node66</text>
</g>
<!-- node55&#45;&gt;node66 -->
<g id="edge2" class="edge"><title>node55&#45;&gt;node66</title>
<path fill="none" stroke="black" d="M65,-174.596C65,-166.133 65,-156.987 65,-148.141"/>
<polygon fill="black" stroke="black" points="68.5001,-147.954 65,-137.954 61.5001,-147.954 68.5001,-147.954"/>
</g>
<!-- node66&#45;&gt;node66 -->
<g id="edge3" class="edge"><title>node66:s&#45;&gt;node66:s</title>
<path fill="none" stroke="black" d="M65,-64.3968C74,-56 74,-38 65,-38 58.4609,-38 56.6729,-47.5021 59.6359,-55.9191"/>
<polygon fill="black" stroke="black" points="56.6954,-57.8177 65,-64.3968 62.6108,-54.0748 56.6954,-57.8177"/>
<text text-anchor="middle" x="65" y="-26.8" font-family="Times,serif" font-size="14.00">tailport=s headport=s</text>
</g>
</g>
</svg>
