<?xml version="1.0" encoding="UTF-8" standalone="no"?>
<!DOCTYPE svg PUBLIC "-//W3C//DTD SVG 1.1//EN"
 "http://www.w3.org/Graphics/SVG/1.1/DTD/svg11.dtd">
<!-- Generated by graphviz version 2.38.0 (20140413.2041)
 -->
<!-- Title: G Pages: 1 -->
<svg width="138pt" height="283pt"
 viewBox="0.00 0.00 138.00 282.59" xmlns="http://www.w3.org/2000/svg" xmlns:xlink="http://www.w3.org/1999/xlink">
<g id="graph0" class="graph" transform="scale(1 1) rotate(0) translate(4 278.587)">
<title>G</title>
<polygon fill="white" stroke="none" points="-4,4 -4,-278.587 134,-278.587 134,4 -4,4"/>
<text text-anchor="middle" x="65" y="-7.8" font-family="Times,serif" font-size="14.00">SelfBottom</text>
<!-- node55 -->
<g id="node1" class="node"><title>node55</title>
<ellipse fill="none" stroke="black" cx="65" cy="-238.19" rx="36.2938" ry="36.2938"/>
<text text-anchor="middle" x="65" y="-234.49" font-family="Times,serif" font-size="14.00">node55</text>
</g>
<!-- node55&#45;&gt;node55 -->
<g id="edge1" class="edge"><title>node55:se&#45;&gt;node55:se</title>
<path fill="none" stroke="black" d="M91,-212.19C95.5,-192.794 95.5,-174.794 91,-174.794 87.3086,-174.794 86.6453,-186.906 89.0101,-201.966"/>
<polygon fill="black" stroke="black" points="85.654,-203.043 91,-212.19 92.5251,-201.706 85.654,-203.043"/>
<text text-anchor="middle" x="65" y="-163.594" font-family="Times,serif" font-size="14.00">tailport=se headport=se</text>
</g>
<!-- node55&#45;&gt;node55 -->
<g id="edge2" class="edge"><title>node55:se&#45;&gt;node55:se</title>
<path fill="none" stroke="black" d="M91,-212.19C100,-183.794 100,-147.794 91,-147.794 83.0195,-147.794 82.1155,-176.099 88.2879,-202.311"/>
<polygon fill="black" stroke="black" points="84.9776,-203.474 91,-212.19 91.7279,-201.621 84.9776,-203.474"/>
<text text-anchor="middle" x="65" y="-136.594" font-family="Times,serif" font-size="14.00">tailport=se headport=se</text>
</g>
<!-- node66 -->
<g id="node2" class="node"><title>node66</title>
<ellipse fill="none" stroke="black" cx="65" cy="-128.397" rx="36.2938" ry="36.2938"/>
<text text-anchor="middle" x="65" y="-124.697" font-family="Times,serif" font-size="14.00">node66</text>
</g>
<!-- node55&#45;&gt;node66 -->
<g id="edge3" class="edge"><title>node55&#45;&gt;node66</title>
<path fill="none" stroke="black" d="M65,-201.596C65,-193.133 65,-183.987 65,-175.141"/>
<polygon fill="black" stroke="black" points="68.5001,-174.954 65,-164.954 61.5001,-174.954 68.5001,-174.954"/>
</g>
<!-- node66&#45;&gt;node66 -->
<g id="edge4" class="edge"><title>node66:s&#45;&gt;node66:s</title>
<path fill="none" stroke="black" d="M65,-91.3968C69.5,-83 69.5,-65 65,-65 61.9062,-65 60.9395,-73.5078 62.0996,-81.5537"/>
<polygon fill="black" stroke="black" points="58.8162,-82.7938 65,-91.3968 65.5307,-80.8152 58.8162,-82.7938"/>
<text text-anchor="middle" x="65" y="-53.8" font-family="Times,serif" font-size="14.00">tailport=s headport=s</text>
</g>
<!-- node66&#45;&gt;node66 -->
<g id="edge5" class="edge"><title>node66:s&#45;&gt;node66:s</title>
<path fill="none" stroke="black" d="M65,-91.3968C74,-74 74,-38 65,-38 57.4414,-38 56.2309,-63.3922 61.3683,-81.831"/>
<polygon fill="black" stroke="black" points="58.1785,-83.2901 65,-91.3968 64.7227,-80.8056 58.1785,-83.2901"/>
<text text-anchor="middle" x="65" y="-26.8" font-family="Times,serif" font-size="14.00">tailport=s headport=s</text>
</g>
</g>
</svg>
