<?xml version="1.0" encoding="UTF-8" standalone="no"?>
<!DOCTYPE svg PUBLIC "-//W3C//DTD SVG 1.1//EN"
 "http://www.w3.org/Graphics/SVG/1.1/DTD/svg11.dtd">
<!-- Generated by graphviz version 2.38.0 (20140413.2041)
 -->
<!-- Title: G Pages: 1 -->
<svg width="388pt" height="560pt"
 viewBox="0.00 0.00 388.34 560.00" xmlns="http://www.w3.org/2000/svg" xmlns:xlink="http://www.w3.org/1999/xlink">
<g id="graph0" class="graph" transform="scale(1 1) rotate(0) translate(4 556)">
<title>G</title>
<polygon fill="white" stroke="none" points="-4,4 -4,-556 384.34,-556 384.34,4 -4,4"/>
<!-- a -->
<g id="node1" class="node"><title>a</title>
<polygon fill="none" stroke="black" points="57.3403,-552 3.3403,-552 3.3403,-516 57.3403,-516 57.3403,-552"/>
<text text-anchor="middle" x="30.3403" y="-530.3" font-family="Times,serif" font-size="14.00">a</text>
</g>
<!-- b -->
<g id="node2" class="node"><title>b</title>
<polygon fill="none" stroke="black" points="57.3403,-480 3.3403,-480 3.3403,-444 57.3403,-444 57.3403,-480"/>
<text text-anchor="middle" x="30.3403" y="-458.3" font-family="Times,serif" font-size="14.00">b</text>
</g>
<!-- a&#45;&gt;b -->
<g id="edge1" class="edge"><title>a&#45;&gt;b</title>
<path fill="none" stroke="black" d="M30.3403,-515.697C30.3403,-507.983 30.3403,-498.712 30.3403,-490.112"/>
<polygon fill="black" stroke="black" points="33.8404,-490.104 30.3403,-480.104 26.8404,-490.104 33.8404,-490.104"/>
</g>
<!-- c -->
<g id="node3" class="node"><title>c</title>
<ellipse fill="none" stroke="black" cx="30.3403" cy="-382" rx="27" ry="18"/>
<text text-anchor="middle" x="30.3403" y="-378.3" font-family="Times,serif" font-size="14.00">c</text>
</g>
<!-- b&#45;&gt;c -->
<g id="edge2" class="edge"><title>b&#45;&gt;c</title>
<path fill="none" stroke="black" d="M30.3403,-443.689C30.3403,-433.894 30.3403,-421.422 30.3403,-410.335"/>
<polygon fill="black" stroke="black" points="33.8404,-410.262 30.3403,-400.262 26.8404,-410.262 33.8404,-410.262"/>
</g>
<!-- d -->
<g id="node4" class="node"><title>d</title>
<ellipse fill="none" stroke="black" cx="30.3403" cy="-294" rx="18" ry="18"/>
<text text-anchor="middle" x="30.3403" y="-290.3" font-family="Times,serif" font-size="14.00">d</text>
</g>
<!-- c&#45;&gt;d -->
<g id="edge3" class="edge"><title>c&#45;&gt;d</title>
<path fill="none" stroke="black" d="M30.3403,-363.597C30.3403,-351.746 30.3403,-335.817 30.3403,-322.292"/>
<polygon fill="black" stroke="black" points="33.8404,-322.084 30.3403,-312.084 26.8404,-322.084 33.8404,-322.084"/>
</g>
<!-- e -->
<g id="node5" class="node"><title>e</title>
<ellipse fill="black" stroke="black" cx="30.3403" cy="-198" rx="1.4" ry="1.4"/>
</g>
<!-- d&#45;&gt;e -->
<g id="edge4" class="edge"><title>d&#45;&gt;e</title>
<path fill="none" stroke="black" d="M30.3403,-275.759C30.3403,-256.479 30.3403,-225.851 30.3403,-209.73"/>
<polygon fill="black" stroke="black" points="33.8404,-209.564 30.3403,-199.564 26.8404,-209.564 33.8404,-209.564"/>
</g>
<!-- f -->
<g id="node6" class="node"><title>f</title>
<polygon fill="none" stroke="black" points="33.1332,-87.0493 34.9823,-87.1479 36.8123,-87.2953 38.6157,-87.4913 40.3852,-87.7353 42.1137,-88.0266 43.7944,-88.3645 45.4208,-88.7479 46.9866,-89.1759 48.486,-89.6472 49.9137,-90.1606 51.2647,-90.7147 52.5344,-91.308 53.7189,-91.9388 54.8147,-92.6054 55.8187,-93.3059 56.7284,-94.0385 57.542,-94.8012 58.2579,-95.5918 58.8753,-96.4082 59.3937,-97.2481 59.8133,-98.1093 60.1347,-98.9894 60.3588,-99.886 60.4872,-100.797 60.5217,-101.719 60.4647,-102.65 60.3187,-103.587 60.0867,-104.529 59.7718,-105.471 59.3776,-106.413 58.9076,-107.35 58.3657,-108.281 57.7559,-109.203 57.0822,-110.114 56.3486,-111.011 55.5592,-111.891 54.7183,-112.752 53.8297,-113.592 52.8974,-114.408 51.9254,-115.199 50.9172,-115.961 49.8766,-116.694 48.8067,-117.395 47.711,-118.061 46.5923,-118.692 45.4535,-119.285 44.2971,-119.839 43.1256,-120.353 41.941,-120.824 40.7453,-121.252 39.5403,-121.636 38.3276,-121.973 37.1086,-122.265 35.8844,-122.509 34.6563,-122.705 33.4252,-122.852 32.192,-122.951 30.9577,-123 29.7229,-123 28.4886,-122.951 27.2554,-122.852 26.0243,-122.705 24.7962,-122.509 23.572,-122.265 22.353,-121.973 21.1403,-121.636 19.9353,-121.252 18.7396,-120.824 17.555,-120.353 16.3835,-119.839 15.2271,-119.285 14.0883,-118.692 12.9696,-118.061 11.8739,-117.395 10.804,-116.694 9.76336,-115.961 8.75522,-115.199 7.78316,-114.408 6.85092,-113.592 5.96233,-112.752 5.12136,-111.891 4.33203,-111.011 3.59844,-110.114 2.92469,-109.203 2.31487,-108.281 1.773,-107.35 1.30304,-106.413 0.908799,-105.471 0.593937,-104.529 0.361901,-103.587 0.2159,-102.65 0.158863,-101.719 0.193408,-100.797 0.321803,-99.886 0.545935,-98.9894 0.867284,-98.1093 1.28689,-97.2481 1.80533,-96.4082 2.42272,-95.5918 3.13864,-94.8012 3.95219,-94.0385 4.86194,-93.3059 5.86593,-92.6054 6.96168,-91.9388 8.14619,-91.308 9.41594,-90.7147 10.7669,-90.1606 12.1946,-89.6472 13.6941,-89.1759 15.2598,-88.7479 16.8862,-88.3645 18.5669,-88.0266 20.2954,-87.7353 22.0649,-87.4913 23.8683,-87.2953 25.6983,-87.1479 27.5474,-87.0493 29.4081,-87 31.2725,-87 33.1332,-87.0493"/>
<text text-anchor="middle" x="30.3403" y="-101.3" font-family="Times,serif" font-size="14.00">f</text>
</g>
<!-- e&#45;&gt;f -->
<g id="edge5" class="edge"><title>e&#45;&gt;f</title>
<path fill="none" stroke="black" d="M30.3403,-196.419C30.3403,-191.624 30.3403,-158.156 30.3403,-133.327"/>
<polygon fill="black" stroke="black" points="33.8404,-133.324 30.3403,-123.324 26.8404,-133.324 33.8404,-133.324"/>
</g>
<!-- g -->
<g id="node7" class="node"><title>g</title>
<polygon fill="none" stroke="black" points="30.3403,-46 0.840301,-11.5 59.8403,-11.5 30.3403,-46"/>
<text text-anchor="middle" x="30.3403" y="-19.3" font-family="Times,serif" font-size="14.00">g</text>
</g>
<!-- f&#45;&gt;g -->
<g id="edge6" class="edge"><title>f&#45;&gt;g</title>
<path fill="none" stroke="black" d="M30.3403,-86.6412C30.3403,-77.749 30.3403,-66.631 30.3403,-56.2396"/>
<polygon fill="black" stroke="black" points="33.8404,-56.1998 30.3403,-46.1998 26.8404,-56.1998 33.8404,-56.1998"/>
</g>
<!-- h -->
<g id="node8" class="node"><title>h</title>
<text text-anchor="middle" x="105.34" y="-530.3" font-family="Times,serif" font-size="14.00">h</text>
</g>
<!-- i -->
<g id="node9" class="node"><title>i</title>
<polygon fill="none" stroke="black" points="105.34,-480 78.3403,-462 105.34,-444 132.34,-462 105.34,-480"/>
<text text-anchor="middle" x="105.34" y="-458.3" font-family="Times,serif" font-size="14.00">i</text>
</g>
<!-- h&#45;&gt;i -->
<g id="edge7" class="edge"><title>h&#45;&gt;i</title>
<path fill="none" stroke="black" d="M105.34,-515.697C105.34,-507.983 105.34,-498.712 105.34,-490.112"/>
<polygon fill="black" stroke="black" points="108.84,-490.104 105.34,-480.104 101.84,-490.104 108.84,-490.104"/>
</g>
<!-- j -->
<g id="node10" class="node"><title>j</title>
<polygon fill="none" stroke="black" points="121.109,-400 89.5718,-400 78.3403,-364 132.34,-364 121.109,-400"/>
<text text-anchor="middle" x="105.34" y="-378.3" font-family="Times,serif" font-size="14.00">j</text>
</g>
<!-- i&#45;&gt;j -->
<g id="edge8" class="edge"><title>i&#45;&gt;j</title>
<path fill="none" stroke="black" d="M105.34,-443.689C105.34,-433.894 105.34,-421.422 105.34,-410.335"/>
<polygon fill="black" stroke="black" points="108.84,-410.262 105.34,-400.262 101.84,-410.262 108.84,-410.262"/>
</g>
<!-- k -->
<g id="node11" class="node"><title>k</title>
<polygon fill="none" stroke="black" points="133.862,-312 88.4905,-312 76.8189,-276 122.19,-276 133.862,-312"/>
<text text-anchor="middle" x="105.34" y="-290.3" font-family="Times,serif" font-size="14.00">k</text>
</g>
<!-- j&#45;&gt;k -->
<g id="edge9" class="edge"><title>j&#45;&gt;k</title>
<path fill="none" stroke="black" d="M105.34,-363.597C105.34,-351.746 105.34,-335.817 105.34,-322.292"/>
<polygon fill="black" stroke="black" points="108.84,-322.084 105.34,-312.084 101.84,-322.084 108.84,-322.084"/>
</g>
<!-- l -->
<g id="node12" class="node"><title>l</title>
<polygon fill="none" stroke="black" points="132.34,-203.562 105.34,-216 78.3403,-203.562 78.3655,-183.438 132.315,-183.438 132.34,-203.562"/>
<text text-anchor="middle" x="105.34" y="-194.3" font-family="Times,serif" font-size="14.00">l</text>
</g>
<!-- k&#45;&gt;l -->
<g id="edge10" class="edge"><title>k&#45;&gt;l</title>
<path fill="none" stroke="black" d="M105.34,-275.759C105.34,-261.978 105.34,-242.4 105.34,-226.465"/>
<polygon fill="black" stroke="black" points="108.84,-226.132 105.34,-216.132 101.84,-226.132 108.84,-226.132"/>
</g>
<!-- m -->
<g id="node13" class="node"><title>m</title>
<polygon fill="none" stroke="black" points="132.34,-110.562 105.34,-123 78.3403,-110.562 88.6534,-90.4377 122.027,-90.4377 132.34,-110.562"/>
<text text-anchor="middle" x="105.34" y="-101.3" font-family="Times,serif" font-size="14.00">m</text>
</g>
<!-- l&#45;&gt;m -->
<g id="edge11" class="edge"><title>l&#45;&gt;m</title>
<path fill="none" stroke="black" d="M105.34,-183.179C105.34,-169.964 105.34,-149.672 105.34,-133.211"/>
<polygon fill="black" stroke="black" points="108.84,-133.06 105.34,-123.06 101.84,-133.06 108.84,-133.06"/>
</g>
<!-- n -->
<g id="node14" class="node"><title>n</title>
<polygon fill="none" stroke="black" points="132.34,-23 118.84,-41 91.8403,-41 78.3403,-23 91.8403,-5 118.84,-5 132.34,-23"/>
<text text-anchor="middle" x="105.34" y="-19.3" font-family="Times,serif" font-size="14.00">n</text>
</g>
<!-- m&#45;&gt;n -->
<g id="edge12" class="edge"><title>m&#45;&gt;n</title>
<path fill="none" stroke="black" d="M105.34,-90.4291C105.34,-79.7357 105.34,-64.4812 105.34,-51.2864"/>
<polygon fill="black" stroke="black" points="108.84,-51.2726 105.34,-41.2726 101.84,-51.2727 108.84,-51.2726"/>
</g>
<!-- o -->
<g id="node15" class="node"><title>o</title>
<polygon fill="none" stroke="black" points="220.34,-529.995 214.993,-545.223 193.34,-552 171.688,-545.223 166.34,-529.995 181.324,-517.783 205.356,-517.783 220.34,-529.995"/>
<text text-anchor="middle" x="193.34" y="-530.3" font-family="Times,serif" font-size="14.00">o</text>
</g>
<!-- p -->
<g id="node16" class="node"><title>p</title>
<polygon fill="none" stroke="black" points="220.34,-454.544 220.34,-469.456 204.524,-480 182.157,-480 166.34,-469.456 166.34,-454.544 182.157,-444 204.524,-444 220.34,-454.544"/>
<text text-anchor="middle" x="193.34" y="-458.3" font-family="Times,serif" font-size="14.00">p</text>
</g>
<!-- o&#45;&gt;p -->
<g id="edge13" class="edge"><title>o&#45;&gt;p</title>
<path fill="none" stroke="black" d="M193.34,-517.465C193.34,-509.59 193.34,-499.788 193.34,-490.679"/>
<polygon fill="black" stroke="black" points="196.84,-490.461 193.34,-480.461 189.84,-490.461 196.84,-490.461"/>
</g>
<!-- q -->
<g id="node17" class="node"><title>q</title>
<ellipse fill="none" stroke="black" cx="193.34" cy="-382" rx="22" ry="22"/>
<ellipse fill="none" stroke="black" cx="193.34" cy="-382" rx="26" ry="26"/>
<text text-anchor="middle" x="193.34" y="-378.3" font-family="Times,serif" font-size="14.00">q</text>
</g>
<!-- p&#45;&gt;q -->
<g id="edge14" class="edge"><title>p&#45;&gt;q</title>
<path fill="none" stroke="black" d="M193.34,-443.689C193.34,-436.205 193.34,-427.159 193.34,-418.361"/>
<polygon fill="black" stroke="black" points="196.84,-418.257 193.34,-408.257 189.84,-418.257 196.84,-418.257"/>
</g>
<!-- r -->
<g id="node18" class="node"><title>r</title>
<polygon fill="none" stroke="black" points="224.34,-284.887 224.34,-303.113 206.181,-316 180.5,-316 162.34,-303.113 162.34,-284.887 180.5,-272 206.181,-272 224.34,-284.887"/>
<polygon fill="none" stroke="black" points="228.34,-282.821 228.34,-305.179 207.456,-320 179.225,-320 158.34,-305.179 158.34,-282.821 179.225,-268 207.456,-268 228.34,-282.821"/>
<text text-anchor="middle" x="193.34" y="-290.3" font-family="Times,serif" font-size="14.00">r</text>
</g>
<!-- q&#45;&gt;r -->
<g id="edge15" class="edge"><title>q&#45;&gt;r</title>
<path fill="none" stroke="black" d="M193.34,-355.662C193.34,-347.702 193.34,-338.763 193.34,-330.245"/>
<polygon fill="black" stroke="black" points="196.84,-330.157 193.34,-320.157 189.84,-330.157 196.84,-330.157"/>
</g>
<!-- s -->
<g id="node19" class="node"><title>s</title>
<polygon fill="none" stroke="black" points="228.34,-187.23 228.34,-208.77 207.838,-224 178.843,-224 158.34,-208.77 158.34,-187.23 178.843,-172 207.838,-172 228.34,-187.23"/>
<polygon fill="none" stroke="black" points="232.34,-185.219 232.34,-210.781 209.161,-228 177.52,-228 154.34,-210.781 154.34,-185.219 177.52,-168 209.161,-168 232.34,-185.219"/>
<polygon fill="none" stroke="black" points="236.34,-183.207 236.34,-212.793 210.484,-232 176.197,-232 150.34,-212.793 150.34,-183.207 176.197,-164 210.484,-164 236.34,-183.207"/>
<text text-anchor="middle" x="193.34" y="-194.3" font-family="Times,serif" font-size="14.00">s</text>
</g>
<!-- r&#45;&gt;s -->
<g id="edge16" class="edge"><title>r&#45;&gt;s</title>
<path fill="none" stroke="black" d="M193.34,-267.81C193.34,-259.914 193.34,-250.963 193.34,-242.191"/>
<polygon fill="black" stroke="black" points="196.84,-242.048 193.34,-232.048 189.84,-242.048 196.84,-242.048"/>
</g>
<!-- t -->
<g id="node20" class="node"><title>t</title>
<polygon fill="none" stroke="black" points="193.34,-82 220.34,-116.5 166.34,-116.5 193.34,-82"/>
<text text-anchor="middle" x="193.34" y="-101.3" font-family="Times,serif" font-size="14.00">t</text>
</g>
<!-- s&#45;&gt;t -->
<g id="edge17" class="edge"><title>s&#45;&gt;t</title>
<path fill="none" stroke="black" d="M193.34,-163.889C193.34,-151.518 193.34,-137.824 193.34,-126.862"/>
<polygon fill="black" stroke="black" points="196.84,-126.597 193.34,-116.597 189.84,-126.597 196.84,-126.597"/>
</g>
<!-- u -->
<g id="node21" class="node"><title>u</title>
<polygon fill="none" stroke="black" points="177.572,-5 209.109,-5 220.34,-41 166.34,-41 177.572,-5"/>
<text text-anchor="middle" x="193.34" y="-19.3" font-family="Times,serif" font-size="14.00">u</text>
</g>
<!-- t&#45;&gt;u -->
<g id="edge18" class="edge"><title>t&#45;&gt;u</title>
<path fill="none" stroke="black" d="M193.34,-81.7155C193.34,-72.2768 193.34,-61.1887 193.34,-51.2675"/>
<polygon fill="black" stroke="black" points="196.84,-51.093 193.34,-41.093 189.84,-51.093 196.84,-51.093"/>
</g>
<!-- v -->
<g id="node22" class="node"><title>v</title>
<polygon fill="none" stroke="black" points="254.34,-528.438 281.34,-516 308.34,-528.438 308.315,-548.562 254.366,-548.562 254.34,-528.438"/>
<text text-anchor="middle" x="281.34" y="-530.3" font-family="Times,serif" font-size="14.00">v</text>
</g>
<!-- w -->
<g id="node23" class="node"><title>w</title>
<polygon fill="none" stroke="black" points="281.34,-480 254.34,-462 281.34,-444 308.34,-462 281.34,-480"/>
<polyline fill="none" stroke="black" points="263.34,-468 263.34,-456 "/>
<polyline fill="none" stroke="black" points="272.34,-450 290.34,-450 "/>
<polyline fill="none" stroke="black" points="299.34,-456 299.34,-468 "/>
<polyline fill="none" stroke="black" points="290.34,-474 272.34,-474 "/>
<text text-anchor="middle" x="281.34" y="-458.3" font-family="Times,serif" font-size="14.00">w</text>
</g>
<!-- v&#45;&gt;w -->
<g id="edge19" class="edge"><title>v&#45;&gt;w</title>
<path fill="none" stroke="black" d="M281.34,-515.697C281.34,-507.983 281.34,-498.712 281.34,-490.112"/>
<polygon fill="black" stroke="black" points="284.84,-490.104 281.34,-480.104 277.84,-490.104 284.84,-490.104"/>
</g>
<!-- x -->
<g id="node24" class="node"><title>x</title>
<polygon fill="none" stroke="black" points="299.34,-400 263.34,-400 263.34,-364 299.34,-364 299.34,-400"/>
<polyline fill="none" stroke="black" points="275.34,-400 263.34,-388 "/>
<polyline fill="none" stroke="black" points="263.34,-376 275.34,-364 "/>
<polyline fill="none" stroke="black" points="287.34,-364 299.34,-376 "/>
<polyline fill="none" stroke="black" points="299.34,-388 287.34,-400 "/>
<text text-anchor="middle" x="281.34" y="-378.3" font-family="Times,serif" font-size="14.00">x</text>
</g>
<!-- w&#45;&gt;x -->
<g id="edge20" class="edge"><title>w&#45;&gt;x</title>
<path fill="none" stroke="black" d="M281.34,-443.689C281.34,-433.894 281.34,-421.422 281.34,-410.335"/>
<polygon fill="black" stroke="black" points="284.84,-410.262 281.34,-400.262 277.84,-410.262 284.84,-410.262"/>
</g>
<!-- y -->
<g id="node25" class="node"><title>y</title>
<ellipse fill="none" stroke="black" cx="281.34" cy="-294" rx="18" ry="18"/>
<polyline fill="none" stroke="black" points="293.246,-307.5 269.435,-307.5 "/>
<polyline fill="none" stroke="black" points="293.246,-280.5 269.435,-280.5 "/>
<text text-anchor="middle" x="281.34" y="-290.3" font-family="Times,serif" font-size="14.00">y</text>
</g>
<!-- x&#45;&gt;y -->
<g id="edge21" class="edge"><title>x&#45;&gt;y</title>
<path fill="none" stroke="black" d="M281.34,-363.597C281.34,-351.746 281.34,-335.817 281.34,-322.292"/>
<polygon fill="black" stroke="black" points="284.84,-322.084 281.34,-312.084 277.84,-322.084 284.84,-322.084"/>
</g>
<!-- z -->
<g id="node26" class="node"><title>z</title>
<polygon fill="none" stroke="black" points="308.34,-216 254.34,-216 254.34,-180 308.34,-180 308.34,-216"/>
<text text-anchor="middle" x="281.34" y="-194.3" font-family="Times,serif" font-size="14.00">z</text>
</g>
<!-- y&#45;&gt;z -->
<g id="edge22" class="edge"><title>y&#45;&gt;z</title>
<path fill="none" stroke="black" d="M281.34,-275.759C281.34,-261.978 281.34,-242.4 281.34,-226.465"/>
<polygon fill="black" stroke="black" points="284.84,-226.132 281.34,-216.132 277.84,-226.132 284.84,-226.132"/>
</g>
<!-- 1 -->
<g id="node27" class="node"><title>1</title>
<polygon fill="none" stroke="black" points="308.34,-123 254.34,-123 254.34,-87 308.34,-87 308.34,-123"/>
<text text-anchor="middle" x="281.34" y="-101.3" font-family="Times,serif" font-size="14.00">1</text>
</g>
<!-- z&#45;&gt;1 -->
<g id="edge23" class="edge"><title>z&#45;&gt;1</title>
<path fill="none" stroke="black" d="M281.34,-179.884C281.34,-166.792 281.34,-148.48 281.34,-133.363"/>
<polygon fill="black" stroke="black" points="284.84,-133.04 281.34,-123.04 277.84,-133.04 284.84,-133.04"/>
</g>
<!-- 2 -->
<g id="node28" class="node"><title>2</title>
<text text-anchor="middle" x="281.34" y="-19.3" font-family="Times,serif" font-size="14.00">2</text>
</g>
<!-- 1&#45;&gt;2 -->
<g id="edge24" class="edge"><title>1&#45;&gt;2</title>
<path fill="none" stroke="black" d="M281.34,-86.6412C281.34,-76.2971 281.34,-62.941 281.34,-51.2206"/>
<polygon fill="black" stroke="black" points="284.84,-51.0501 281.34,-41.0501 277.84,-51.0501 284.84,-51.0501"/>
</g>
<!-- 3 -->
<g id="node29" class="node"><title>3</title>
<polygon fill="none" stroke="black" points="374.34,-552 326.34,-552 326.34,-516 380.34,-516 380.34,-546 374.34,-552"/>
<polyline fill="none" stroke="black" points="374.34,-552 374.34,-546 "/>
<polyline fill="none" stroke="black" points="380.34,-546 374.34,-546 "/>
<text text-anchor="middle" x="353.34" y="-530.3" font-family="Times,serif" font-size="14.00">3</text>
</g>
<!-- 4 -->
<g id="node30" class="node"><title>4</title>
<polygon fill="none" stroke="black" points="380.34,-480 338.34,-480 338.34,-484 326.34,-484 326.34,-444 380.34,-444 380.34,-480"/>
<polyline fill="none" stroke="black" points="326.34,-480 338.34,-480 "/>
<text text-anchor="middle" x="353.34" y="-458.3" font-family="Times,serif" font-size="14.00">4</text>
</g>
<!-- 3&#45;&gt;4 -->
<g id="edge25" class="edge"><title>3&#45;&gt;4</title>
<path fill="none" stroke="black" d="M353.34,-515.697C353.34,-507.983 353.34,-498.712 353.34,-490.112"/>
<polygon fill="black" stroke="black" points="356.84,-490.104 353.34,-480.104 349.84,-490.104 356.84,-490.104"/>
</g>
<!-- 5 -->
<g id="node31" class="node"><title>5</title>
<polygon fill="none" stroke="black" points="380.34,-400 330.34,-400 326.34,-396 326.34,-364 376.34,-364 380.34,-368 380.34,-400"/>
<polyline fill="none" stroke="black" points="376.34,-396 326.34,-396 "/>
<polyline fill="none" stroke="black" points="376.34,-396 376.34,-364 "/>
<polyline fill="none" stroke="black" points="376.34,-396 380.34,-400 "/>
<text text-anchor="middle" x="353.34" y="-378.3" font-family="Times,serif" font-size="14.00">5</text>
</g>
<!-- 4&#45;&gt;5 -->
<g id="edge26" class="edge"><title>4&#45;&gt;5</title>
<path fill="none" stroke="black" d="M353.34,-443.689C353.34,-433.894 353.34,-421.422 353.34,-410.335"/>
<polygon fill="black" stroke="black" points="356.84,-410.262 353.34,-400.262 349.84,-410.262 356.84,-410.262"/>
</g>
<!-- 6 -->
<g id="node32" class="node"><title>6</title>
<polygon fill="none" stroke="black" points="380.34,-312 326.34,-312 326.34,-308 322.34,-308 322.34,-304 326.34,-304 326.34,-284 322.34,-284 322.34,-280 326.34,-280 326.34,-276 380.34,-276 380.34,-312"/>
<polyline fill="none" stroke="black" points="326.34,-308 330.34,-308 330.34,-304 326.34,-304 "/>
<polyline fill="none" stroke="black" points="326.34,-284 330.34,-284 330.34,-280 326.34,-280 "/>
<text text-anchor="middle" x="353.34" y="-290.3" font-family="Times,serif" font-size="14.00">6</text>
</g>
<!-- 5&#45;&gt;6 -->
<g id="edge27" class="edge"><title>5&#45;&gt;6</title>
<path fill="none" stroke="black" d="M353.34,-363.597C353.34,-351.746 353.34,-335.817 353.34,-322.292"/>
<polygon fill="black" stroke="black" points="356.84,-322.084 353.34,-312.084 349.84,-322.084 356.84,-322.084"/>
</g>
<!-- 7 -->
<g id="node33" class="node"><title>7</title>
<polygon fill="none" stroke="black" points="380.34,-216 377.34,-220 356.34,-220 353.34,-216 326.34,-216 326.34,-180 380.34,-180 380.34,-216"/>
<text text-anchor="middle" x="353.34" y="-194.3" font-family="Times,serif" font-size="14.00">7</text>
</g>
<!-- 6&#45;&gt;7 -->
<g id="edge28" class="edge"><title>6&#45;&gt;7</title>
<path fill="none" stroke="black" d="M353.34,-275.759C353.34,-261.978 353.34,-242.4 353.34,-226.465"/>
<polygon fill="black" stroke="black" points="356.84,-226.132 353.34,-216.132 349.84,-226.132 356.84,-226.132"/>
</g>
</g>
</svg>
