<?xml version="1.0" encoding="UTF-8" standalone="no"?>
<!DOCTYPE svg PUBLIC "-//W3C//DTD SVG 1.1//EN"
 "http://www.w3.org/Graphics/SVG/1.1/DTD/svg11.dtd">
<!-- Generated by graphviz version 2.38.0 (20140413.2041)
 -->
<!-- Title: G Pages: 1 -->
<svg width="372pt" height="528pt"
 viewBox="0.00 0.00 371.90 528.00" xmlns="http://www.w3.org/2000/svg" xmlns:xlink="http://www.w3.org/1999/xlink">
<g id="graph0" class="graph" transform="scale(1 1) rotate(0) translate(4 524)">
<title>G</title>
<polygon fill="white" stroke="none" points="-4,4 -4,-524 367.897,-524 367.897,4 -4,4"/>
<!-- a -->
<g id="node1" class="node"><title>a</title>
<polygon fill="none" stroke="black" points="56.8973,-520 2.89735,-520 2.89735,-484 56.8973,-484 56.8973,-520"/>
<text text-anchor="middle" x="29.8973" y="-498.3" font-family="Times,serif" font-size="14.00">a</text>
</g>
<!-- b -->
<g id="node2" class="node"><title>b</title>
<polygon fill="none" stroke="black" points="56.8973,-448 2.89735,-448 2.89735,-412 56.8973,-412 56.8973,-448"/>
<text text-anchor="middle" x="29.8973" y="-426.3" font-family="Times,serif" font-size="14.00">b</text>
</g>
<!-- a&#45;&gt;b -->
<g id="edge1" class="edge"><title>a&#45;&gt;b</title>
<path fill="none" stroke="black" d="M29.8973,-483.697C29.8973,-475.983 29.8973,-466.712 29.8973,-458.112"/>
<polygon fill="black" stroke="black" points="33.3974,-458.104 29.8973,-448.104 26.3974,-458.104 33.3974,-458.104"/>
</g>
<!-- c -->
<g id="node3" class="node"><title>c</title>
<ellipse fill="none" stroke="black" cx="29.8973" cy="-354" rx="27" ry="18"/>
<text text-anchor="middle" x="29.8973" y="-350.3" font-family="Times,serif" font-size="14.00">c</text>
</g>
<!-- b&#45;&gt;c -->
<g id="edge2" class="edge"><title>b&#45;&gt;c</title>
<path fill="none" stroke="black" d="M29.8973,-411.837C29.8973,-403.058 29.8973,-392.163 29.8973,-382.267"/>
<polygon fill="black" stroke="black" points="33.3974,-382.07 29.8973,-372.07 26.3974,-382.07 33.3974,-382.07"/>
</g>
<!-- d -->
<g id="node4" class="node"><title>d</title>
<ellipse fill="none" stroke="black" cx="29.8973" cy="-274" rx="18" ry="18"/>
<text text-anchor="middle" x="29.8973" y="-270.3" font-family="Times,serif" font-size="14.00">d</text>
</g>
<!-- c&#45;&gt;d -->
<g id="edge3" class="edge"><title>c&#45;&gt;d</title>
<path fill="none" stroke="black" d="M29.8973,-335.689C29.8973,-325.894 29.8973,-313.422 29.8973,-302.335"/>
<polygon fill="black" stroke="black" points="33.3974,-302.262 29.8973,-292.262 26.3974,-302.262 33.3974,-302.262"/>
</g>
<!-- e -->
<g id="node5" class="node"><title>e</title>
<ellipse fill="black" stroke="black" cx="29.8973" cy="-190" rx="1.8" ry="1.8"/>
</g>
<!-- d&#45;&gt;e -->
<g id="edge4" class="edge"><title>d&#45;&gt;e</title>
<path fill="none" stroke="black" d="M29.8973,-255.61C29.8973,-239.42 29.8973,-215.779 29.8973,-202.035"/>
<polygon fill="black" stroke="black" points="33.3974,-202.022 29.8973,-192.022 26.3974,-202.022 33.3974,-202.022"/>
</g>
<!-- f -->
<g id="node6" class="node"><title>f</title>
<polygon fill="none" stroke="black" points="32.5799,-87.0493 34.3559,-87.1479 36.1136,-87.2953 37.8458,-87.4913 39.5454,-87.7353 41.2056,-88.0266 42.8199,-88.3645 44.382,-88.7479 45.8859,-89.1759 47.3261,-89.6472 48.6974,-90.1606 49.995,-90.7147 51.2146,-91.308 52.3523,-91.9388 53.4047,-92.6054 54.3691,-93.3059 55.2429,-94.0385 56.0243,-94.8012 56.7119,-95.5918 57.3049,-96.4082 57.8029,-97.2481 58.2059,-98.1093 58.5145,-98.9894 58.7298,-99.886 58.8531,-100.797 58.8863,-101.719 58.8315,-102.65 58.6913,-103.587 58.4684,-104.529 58.166,-105.471 57.7873,-106.413 57.336,-107.35 56.8155,-108.281 56.2298,-109.203 55.5826,-110.114 54.878,-111.011 54.1199,-111.891 53.3121,-112.752 52.4587,-113.592 51.5632,-114.408 50.6296,-115.199 49.6613,-115.961 48.6617,-116.694 47.6342,-117.395 46.5817,-118.061 45.5072,-118.692 44.4134,-119.285 43.3027,-119.839 42.1775,-120.353 41.0397,-120.824 39.8913,-121.252 38.7339,-121.636 37.5691,-121.973 36.3982,-122.265 35.2224,-122.509 34.0428,-122.705 32.8604,-122.852 31.6759,-122.951 30.4903,-123 29.3044,-123 28.1188,-122.951 26.9343,-122.852 25.7519,-122.705 24.5723,-122.509 23.3965,-122.265 22.2256,-121.973 21.0608,-121.636 19.9034,-121.252 18.755,-120.824 17.6172,-120.353 16.492,-119.839 15.3813,-119.285 14.2875,-118.692 13.213,-118.061 12.1605,-117.395 11.133,-116.694 10.1334,-115.961 9.16509,-115.199 8.23144,-114.408 7.33603,-113.592 6.48255,-112.752 5.67481,-111.891 4.91667,-111.011 4.21206,-110.114 3.56493,-109.203 2.9792,-108.281 2.45874,-107.35 2.00735,-106.413 1.62869,-105.471 1.32627,-104.529 1.1034,-103.587 0.963165,-102.65 0.908382,-101.719 0.941562,-100.797 1.06488,-99.886 1.28016,-98.9894 1.58881,-98.1093 1.99184,-97.2481 2.4898,-96.4082 3.08279,-95.5918 3.77043,-94.8012 4.55183,-94.0385 5.42564,-93.3059 6.38996,-92.6054 7.44242,-91.9388 8.58013,-91.308 9.79971,-90.7147 11.0973,-90.1606 12.4686,-89.6472 13.9088,-89.1759 15.4127,-88.7479 16.9748,-88.3645 18.5891,-88.0266 20.2493,-87.7353 21.9489,-87.4913 23.6811,-87.2953 25.4387,-87.1479 27.2148,-87.0493 29.0019,-87 30.7928,-87 32.5799,-87.0493"/>
<text text-anchor="middle" x="29.8973" y="-101.3" font-family="Times,serif" font-size="14.00">f</text>
</g>
<!-- e&#45;&gt;f -->
<g id="edge5" class="edge"><title>e&#45;&gt;f</title>
<path fill="none" stroke="black" d="M29.8973,-188.068C29.8973,-182.68 29.8973,-155.012 29.8973,-133.271"/>
<polygon fill="black" stroke="black" points="33.3974,-133.198 29.8973,-123.198 26.3974,-133.198 33.3974,-133.198"/>
</g>
<!-- g -->
<g id="node7" class="node"><title>g</title>
<polygon fill="none" stroke="black" points="29.8973,-46 0.102302,-11.5 59.6924,-11.5 29.8973,-46"/>
<text text-anchor="middle" x="29.8973" y="-19.3" font-family="Times,serif" font-size="14.00">g</text>
</g>
<!-- f&#45;&gt;g -->
<g id="edge6" class="edge"><title>f&#45;&gt;g</title>
<path fill="none" stroke="black" d="M29.8973,-86.6412C29.8973,-77.749 29.8973,-66.631 29.8973,-56.2396"/>
<polygon fill="black" stroke="black" points="33.3974,-56.1998 29.8973,-46.1998 26.3974,-56.1998 33.3974,-56.1998"/>
</g>
<!-- h -->
<g id="node8" class="node"><title>h</title>
<text text-anchor="middle" x="104.897" y="-498.3" font-family="Times,serif" font-size="14.00">h</text>
</g>
<!-- i -->
<g id="node9" class="node"><title>i</title>
<polygon fill="none" stroke="black" points="104.897,-448 77.8973,-430 104.897,-412 131.897,-430 104.897,-448"/>
<text text-anchor="middle" x="104.897" y="-426.3" font-family="Times,serif" font-size="14.00">i</text>
</g>
<!-- h&#45;&gt;i -->
<g id="edge7" class="edge"><title>h&#45;&gt;i</title>
<path fill="none" stroke="black" d="M104.897,-483.697C104.897,-475.983 104.897,-466.712 104.897,-458.112"/>
<polygon fill="black" stroke="black" points="108.397,-458.104 104.897,-448.104 101.397,-458.104 108.397,-458.104"/>
</g>
<!-- j -->
<g id="node10" class="node"><title>j</title>
<polygon fill="none" stroke="black" points="120.666,-372 89.1289,-372 77.8973,-336 131.897,-336 120.666,-372"/>
<text text-anchor="middle" x="104.897" y="-350.3" font-family="Times,serif" font-size="14.00">j</text>
</g>
<!-- i&#45;&gt;j -->
<g id="edge8" class="edge"><title>i&#45;&gt;j</title>
<path fill="none" stroke="black" d="M104.897,-411.837C104.897,-403.058 104.897,-392.163 104.897,-382.267"/>
<polygon fill="black" stroke="black" points="108.397,-382.07 104.897,-372.07 101.397,-382.07 108.397,-382.07"/>
</g>
<!-- k -->
<g id="node11" class="node"><title>k</title>
<polygon fill="none" stroke="black" points="132.882,-292 88.3647,-292 76.9127,-256 121.43,-256 132.882,-292"/>
<text text-anchor="middle" x="104.897" y="-270.3" font-family="Times,serif" font-size="14.00">k</text>
</g>
<!-- j&#45;&gt;k -->
<g id="edge9" class="edge"><title>j&#45;&gt;k</title>
<path fill="none" stroke="black" d="M104.897,-335.689C104.897,-325.894 104.897,-313.422 104.897,-302.335"/>
<polygon fill="black" stroke="black" points="108.397,-302.262 104.897,-292.262 101.397,-302.262 108.397,-302.262"/>
</g>
<!-- l -->
<g id="node12" class="node"><title>l</title>
<polygon fill="none" stroke="black" points="131.897,-195.562 104.897,-208 77.8973,-195.562 77.9225,-175.438 131.872,-175.438 131.897,-195.562"/>
<text text-anchor="middle" x="104.897" y="-186.3" font-family="Times,serif" font-size="14.00">l</text>
</g>
<!-- k&#45;&gt;l -->
<g id="edge10" class="edge"><title>k&#45;&gt;l</title>
<path fill="none" stroke="black" d="M104.897,-255.61C104.897,-244.774 104.897,-230.601 104.897,-218.291"/>
<polygon fill="black" stroke="black" points="108.397,-218.084 104.897,-208.084 101.397,-218.084 108.397,-218.084"/>
</g>
<!-- m -->
<g id="node13" class="node"><title>m</title>
<polygon fill="none" stroke="black" points="131.897,-110.562 104.897,-123 77.8973,-110.562 88.2104,-90.4377 121.584,-90.4377 131.897,-110.562"/>
<text text-anchor="middle" x="104.897" y="-101.3" font-family="Times,serif" font-size="14.00">m</text>
</g>
<!-- l&#45;&gt;m -->
<g id="edge11" class="edge"><title>l&#45;&gt;m</title>
<path fill="none" stroke="black" d="M104.897,-175.294C104.897,-163.92 104.897,-147.391 104.897,-133.328"/>
<polygon fill="black" stroke="black" points="108.397,-133.182 104.897,-123.182 101.397,-133.182 108.397,-133.182"/>
</g>
<!-- n -->
<g id="node14" class="node"><title>n</title>
<polygon fill="none" stroke="black" points="131.897,-23 118.397,-41 91.3973,-41 77.8973,-23 91.3973,-5 118.397,-5 131.897,-23"/>
<text text-anchor="middle" x="104.897" y="-19.3" font-family="Times,serif" font-size="14.00">n</text>
</g>
<!-- m&#45;&gt;n -->
<g id="edge12" class="edge"><title>m&#45;&gt;n</title>
<path fill="none" stroke="black" d="M104.897,-90.4291C104.897,-79.7357 104.897,-64.4812 104.897,-51.2864"/>
<polygon fill="black" stroke="black" points="108.397,-51.2726 104.897,-41.2726 101.397,-51.2727 108.397,-51.2726"/>
</g>
<!-- o -->
<g id="node15" class="node"><title>o</title>
<polygon fill="none" stroke="black" points="211.897,-497.995 206.55,-513.223 184.897,-520 163.245,-513.223 157.897,-497.995 172.881,-485.783 196.913,-485.783 211.897,-497.995"/>
<text text-anchor="middle" x="184.897" y="-498.3" font-family="Times,serif" font-size="14.00">o</text>
</g>
<!-- p -->
<g id="node16" class="node"><title>p</title>
<polygon fill="none" stroke="black" points="211.897,-422.544 211.897,-437.456 196.081,-448 173.714,-448 157.897,-437.456 157.897,-422.544 173.714,-412 196.081,-412 211.897,-422.544"/>
<text text-anchor="middle" x="184.897" y="-426.3" font-family="Times,serif" font-size="14.00">p</text>
</g>
<!-- o&#45;&gt;p -->
<g id="edge13" class="edge"><title>o&#45;&gt;p</title>
<path fill="none" stroke="black" d="M184.897,-485.465C184.897,-477.59 184.897,-467.788 184.897,-458.679"/>
<polygon fill="black" stroke="black" points="188.397,-458.461 184.897,-448.461 181.397,-458.461 188.397,-458.461"/>
</g>
<!-- q -->
<g id="node17" class="node"><title>q</title>
<ellipse fill="none" stroke="black" cx="184.897" cy="-354" rx="18" ry="18"/>
<ellipse fill="none" stroke="black" cx="184.897" cy="-354" rx="22" ry="22"/>
<text text-anchor="middle" x="184.897" y="-350.3" font-family="Times,serif" font-size="14.00">q</text>
</g>
<!-- p&#45;&gt;q -->
<g id="edge14" class="edge"><title>p&#45;&gt;q</title>
<path fill="none" stroke="black" d="M184.897,-411.837C184.897,-404.165 184.897,-394.878 184.897,-386.053"/>
<polygon fill="black" stroke="black" points="188.397,-386.032 184.897,-376.032 181.397,-386.032 188.397,-386.032"/>
</g>
<!-- r -->
<g id="node18" class="node"><title>r</title>
<polygon fill="none" stroke="black" points="211.897,-266.544 211.897,-281.456 196.081,-292 173.714,-292 157.897,-281.456 157.897,-266.544 173.714,-256 196.081,-256 211.897,-266.544"/>
<polygon fill="none" stroke="black" points="215.897,-264.403 215.897,-283.597 197.292,-296 172.502,-296 153.897,-283.597 153.897,-264.403 172.502,-252 197.292,-252 215.897,-264.403"/>
<text text-anchor="middle" x="184.897" y="-270.3" font-family="Times,serif" font-size="14.00">r</text>
</g>
<!-- q&#45;&gt;r -->
<g id="edge15" class="edge"><title>q&#45;&gt;r</title>
<path fill="none" stroke="black" d="M184.897,-331.686C184.897,-323.798 184.897,-314.684 184.897,-306.103"/>
<polygon fill="black" stroke="black" points="188.397,-306.018 184.897,-296.018 181.397,-306.018 188.397,-306.018"/>
</g>
<!-- s -->
<g id="node19" class="node"><title>s</title>
<polygon fill="none" stroke="black" points="211.897,-182.544 211.897,-197.456 196.081,-208 173.714,-208 157.897,-197.456 157.897,-182.544 173.714,-172 196.081,-172 211.897,-182.544"/>
<polygon fill="none" stroke="black" points="215.897,-180.403 215.897,-199.597 197.292,-212 172.502,-212 153.897,-199.597 153.897,-180.403 172.502,-168 197.292,-168 215.897,-180.403"/>
<polygon fill="none" stroke="black" points="219.897,-178.263 219.897,-201.737 198.503,-216 171.291,-216 149.897,-201.737 149.897,-178.263 171.291,-164 198.503,-164 219.897,-178.263"/>
<text text-anchor="middle" x="184.897" y="-186.3" font-family="Times,serif" font-size="14.00">s</text>
</g>
<!-- r&#45;&gt;s -->
<g id="edge16" class="edge"><title>r&#45;&gt;s</title>
<path fill="none" stroke="black" d="M184.897,-251.883C184.897,-244.038 184.897,-234.912 184.897,-226.15"/>
<polygon fill="black" stroke="black" points="188.397,-226.13 184.897,-216.13 181.397,-226.13 188.397,-226.13"/>
</g>
<!-- t -->
<g id="node20" class="node"><title>t</title>
<polygon fill="none" stroke="black" points="184.897,-82 211.897,-116.5 157.897,-116.5 184.897,-82"/>
<text text-anchor="middle" x="184.897" y="-101.3" font-family="Times,serif" font-size="14.00">t</text>
</g>
<!-- s&#45;&gt;t -->
<g id="edge17" class="edge"><title>s&#45;&gt;t</title>
<path fill="none" stroke="black" d="M184.897,-163.646C184.897,-151.919 184.897,-138.153 184.897,-127.015"/>
<polygon fill="black" stroke="black" points="188.397,-126.925 184.897,-116.925 181.397,-126.926 188.397,-126.925"/>
</g>
<!-- u -->
<g id="node21" class="node"><title>u</title>
<polygon fill="none" stroke="black" points="169.129,-5 200.666,-5 211.897,-41 157.897,-41 169.129,-5"/>
<text text-anchor="middle" x="184.897" y="-19.3" font-family="Times,serif" font-size="14.00">u</text>
</g>
<!-- t&#45;&gt;u -->
<g id="edge18" class="edge"><title>t&#45;&gt;u</title>
<path fill="none" stroke="black" d="M184.897,-81.7155C184.897,-72.2768 184.897,-61.1887 184.897,-51.2675"/>
<polygon fill="black" stroke="black" points="188.397,-51.093 184.897,-41.093 181.397,-51.093 188.397,-51.093"/>
</g>
<!-- v -->
<g id="node22" class="node"><title>v</title>
<polygon fill="none" stroke="black" points="237.897,-496.438 264.897,-484 291.897,-496.438 291.872,-516.562 237.923,-516.562 237.897,-496.438"/>
<text text-anchor="middle" x="264.897" y="-498.3" font-family="Times,serif" font-size="14.00">v</text>
</g>
<!-- w -->
<g id="node23" class="node"><title>w</title>
<polygon fill="none" stroke="black" points="264.897,-448 237.897,-430 264.897,-412 291.897,-430 264.897,-448"/>
<polyline fill="none" stroke="black" points="246.897,-436 246.897,-424 "/>
<polyline fill="none" stroke="black" points="255.897,-418 273.897,-418 "/>
<polyline fill="none" stroke="black" points="282.897,-424 282.897,-436 "/>
<polyline fill="none" stroke="black" points="273.897,-442 255.897,-442 "/>
<text text-anchor="middle" x="264.897" y="-426.3" font-family="Times,serif" font-size="14.00">w</text>
</g>
<!-- v&#45;&gt;w -->
<g id="edge19" class="edge"><title>v&#45;&gt;w</title>
<path fill="none" stroke="black" d="M264.897,-483.697C264.897,-475.983 264.897,-466.712 264.897,-458.112"/>
<polygon fill="black" stroke="black" points="268.397,-458.104 264.897,-448.104 261.397,-458.104 268.397,-458.104"/>
</g>
<!-- x -->
<g id="node24" class="node"><title>x</title>
<polygon fill="none" stroke="black" points="282.897,-372 246.897,-372 246.897,-336 282.897,-336 282.897,-372"/>
<polyline fill="none" stroke="black" points="258.897,-372 246.897,-360 "/>
<polyline fill="none" stroke="black" points="246.897,-348 258.897,-336 "/>
<polyline fill="none" stroke="black" points="270.897,-336 282.897,-348 "/>
<polyline fill="none" stroke="black" points="282.897,-360 270.897,-372 "/>
<text text-anchor="middle" x="264.897" y="-350.3" font-family="Times,serif" font-size="14.00">x</text>
</g>
<!-- w&#45;&gt;x -->
<g id="edge20" class="edge"><title>w&#45;&gt;x</title>
<path fill="none" stroke="black" d="M264.897,-411.837C264.897,-403.058 264.897,-392.163 264.897,-382.267"/>
<polygon fill="black" stroke="black" points="268.397,-382.07 264.897,-372.07 261.397,-382.07 268.397,-382.07"/>
</g>
<!-- y -->
<g id="node25" class="node"><title>y</title>
<ellipse fill="none" stroke="black" cx="264.897" cy="-274" rx="18" ry="18"/>
<polyline fill="none" stroke="black" points="276.803,-287.5 252.992,-287.5 "/>
<polyline fill="none" stroke="black" points="276.803,-260.5 252.992,-260.5 "/>
<text text-anchor="middle" x="264.897" y="-270.3" font-family="Times,serif" font-size="14.00">y</text>
</g>
<!-- x&#45;&gt;y -->
<g id="edge21" class="edge"><title>x&#45;&gt;y</title>
<path fill="none" stroke="black" d="M264.897,-335.689C264.897,-325.894 264.897,-313.422 264.897,-302.335"/>
<polygon fill="black" stroke="black" points="268.397,-302.262 264.897,-292.262 261.397,-302.262 268.397,-302.262"/>
</g>
<!-- z -->
<g id="node26" class="node"><title>z</title>
<polygon fill="none" stroke="black" points="291.897,-208 237.897,-208 237.897,-172 291.897,-172 291.897,-208"/>
<text text-anchor="middle" x="264.897" y="-186.3" font-family="Times,serif" font-size="14.00">z</text>
</g>
<!-- y&#45;&gt;z -->
<g id="edge22" class="edge"><title>y&#45;&gt;z</title>
<path fill="none" stroke="black" d="M264.897,-255.61C264.897,-244.774 264.897,-230.601 264.897,-218.291"/>
<polygon fill="black" stroke="black" points="268.397,-218.084 264.897,-208.084 261.397,-218.084 268.397,-218.084"/>
</g>
<!-- 1 -->
<g id="node27" class="node"><title>1</title>
<polygon fill="none" stroke="black" points="291.897,-123 237.897,-123 237.897,-87 291.897,-87 291.897,-123"/>
<text text-anchor="middle" x="264.897" y="-101.3" font-family="Times,serif" font-size="14.00">1</text>
</g>
<!-- z&#45;&gt;1 -->
<g id="edge23" class="edge"><title>z&#45;&gt;1</title>
<path fill="none" stroke="black" d="M264.897,-171.802C264.897,-160.674 264.897,-145.945 264.897,-133.244"/>
<polygon fill="black" stroke="black" points="268.397,-133.176 264.897,-123.176 261.397,-133.176 268.397,-133.176"/>
</g>
<!-- 2 -->
<g id="node28" class="node"><title>2</title>
<text text-anchor="middle" x="264.897" y="-19.3" font-family="Times,serif" font-size="14.00">2</text>
</g>
<!-- 1&#45;&gt;2 -->
<g id="edge24" class="edge"><title>1&#45;&gt;2</title>
<path fill="none" stroke="black" d="M264.897,-86.6412C264.897,-76.2971 264.897,-62.941 264.897,-51.2206"/>
<polygon fill="black" stroke="black" points="268.397,-51.0501 264.897,-41.0501 261.397,-51.0501 268.397,-51.0501"/>
</g>
<!-- 3 -->
<g id="node29" class="node"><title>3</title>
<polygon fill="none" stroke="black" points="357.897,-520 309.897,-520 309.897,-484 363.897,-484 363.897,-514 357.897,-520"/>
<polyline fill="none" stroke="black" points="357.897,-520 357.897,-514 "/>
<polyline fill="none" stroke="black" points="363.897,-514 357.897,-514 "/>
<text text-anchor="middle" x="336.897" y="-498.3" font-family="Times,serif" font-size="14.00">3</text>
</g>
<!-- 4 -->
<g id="node30" class="node"><title>4</title>
<polygon fill="none" stroke="black" points="363.897,-448 321.897,-448 321.897,-452 309.897,-452 309.897,-412 363.897,-412 363.897,-448"/>
<polyline fill="none" stroke="black" points="309.897,-448 321.897,-448 "/>
<text text-anchor="middle" x="336.897" y="-426.3" font-family="Times,serif" font-size="14.00">4</text>
</g>
<!-- 3&#45;&gt;4 -->
<g id="edge25" class="edge"><title>3&#45;&gt;4</title>
<path fill="none" stroke="black" d="M336.897,-483.697C336.897,-475.983 336.897,-466.712 336.897,-458.112"/>
<polygon fill="black" stroke="black" points="340.397,-458.104 336.897,-448.104 333.397,-458.104 340.397,-458.104"/>
</g>
<!-- 5 -->
<g id="node31" class="node"><title>5</title>
<polygon fill="none" stroke="black" points="363.897,-372 313.897,-372 309.897,-368 309.897,-336 359.897,-336 363.897,-340 363.897,-372"/>
<polyline fill="none" stroke="black" points="359.897,-368 309.897,-368 "/>
<polyline fill="none" stroke="black" points="359.897,-368 359.897,-336 "/>
<polyline fill="none" stroke="black" points="359.897,-368 363.897,-372 "/>
<text text-anchor="middle" x="336.897" y="-350.3" font-family="Times,serif" font-size="14.00">5</text>
</g>
<!-- 4&#45;&gt;5 -->
<g id="edge26" class="edge"><title>4&#45;&gt;5</title>
<path fill="none" stroke="black" d="M336.897,-411.837C336.897,-403.058 336.897,-392.163 336.897,-382.267"/>
<polygon fill="black" stroke="black" points="340.397,-382.07 336.897,-372.07 333.397,-382.07 340.397,-382.07"/>
</g>
<!-- 6 -->
<g id="node32" class="node"><title>6</title>
<polygon fill="none" stroke="black" points="363.897,-292 309.897,-292 309.897,-288 305.897,-288 305.897,-284 309.897,-284 309.897,-264 305.897,-264 305.897,-260 309.897,-260 309.897,-256 363.897,-256 363.897,-292"/>
<polyline fill="none" stroke="black" points="309.897,-288 313.897,-288 313.897,-284 309.897,-284 "/>
<polyline fill="none" stroke="black" points="309.897,-264 313.897,-264 313.897,-260 309.897,-260 "/>
<text text-anchor="middle" x="336.897" y="-270.3" font-family="Times,serif" font-size="14.00">6</text>
</g>
<!-- 5&#45;&gt;6 -->
<g id="edge27" class="edge"><title>5&#45;&gt;6</title>
<path fill="none" stroke="black" d="M336.897,-335.689C336.897,-325.894 336.897,-313.422 336.897,-302.335"/>
<polygon fill="black" stroke="black" points="340.397,-302.262 336.897,-292.262 333.397,-302.262 340.397,-302.262"/>
</g>
<!-- 7 -->
<g id="node33" class="node"><title>7</title>
<polygon fill="none" stroke="black" points="363.897,-208 360.897,-212 339.897,-212 336.897,-208 309.897,-208 309.897,-172 363.897,-172 363.897,-208"/>
<text text-anchor="middle" x="336.897" y="-186.3" font-family="Times,serif" font-size="14.00">7</text>
</g>
<!-- 6&#45;&gt;7 -->
<g id="edge28" class="edge"><title>6&#45;&gt;7</title>
<path fill="none" stroke="black" d="M336.897,-255.61C336.897,-244.774 336.897,-230.601 336.897,-218.291"/>
<polygon fill="black" stroke="black" points="340.397,-218.084 336.897,-208.084 333.397,-218.084 340.397,-218.084"/>
</g>
</g>
</svg>
