<?xml version="1.0" encoding="UTF-8" standalone="no"?>
<!DOCTYPE svg PUBLIC "-//W3C//DTD SVG 1.1//EN"
 "http://www.w3.org/Graphics/SVG/1.1/DTD/svg11.dtd">
<!-- Generated by graphviz version 2.38.0 (20140413.2041)
 -->
<!-- Title: shells Pages: 1 -->
<svg width="436pt" height="576pt"
 viewBox="0.00 0.00 436.16 576.00" xmlns="http://www.w3.org/2000/svg" xmlns:xlink="http://www.w3.org/1999/xlink">
<g id="graph0" class="graph" transform="scale(0.83237 0.83237) rotate(0) translate(4 688)">
<title>shells</title>
<polygon fill="white" stroke="none" points="-4,4 -4,-688 520,-688 520,4 -4,4"/>
<!-- 1972 -->
<g id="node1" class="node"><title>1972</title>
<text text-anchor="middle" x="37" y="-659.8" font-family="Times,serif" font-size="24.00">1972</text>
</g>
<!-- 1976 -->
<g id="node2" class="node"><title>1976</title>
<text text-anchor="middle" x="37" y="-587.8" font-family="Times,serif" font-size="24.00">1976</text>
</g>
<!-- 1972&#45;&gt;1976 -->
<g id="edge1" class="edge"><title>1972&#45;&gt;1976</title>
<path fill="none" stroke="black" d="M37,-647.697C37,-639.983 37,-630.712 37,-622.112"/>
<polygon fill="black" stroke="black" points="40.5001,-622.104 37,-612.104 33.5001,-622.104 40.5001,-622.104"/>
</g>
<!-- 1978 -->
<g id="node3" class="node"><title>1978</title>
<text text-anchor="middle" x="37" y="-515.8" font-family="Times,serif" font-size="24.00">1978</text>
</g>
<!-- 1976&#45;&gt;1978 -->
<g id="edge2" class="edge"><title>1976&#45;&gt;1978</title>
<path fill="none" stroke="black" d="M37,-575.697C37,-567.983 37,-558.712 37,-550.112"/>
<polygon fill="black" stroke="black" points="40.5001,-550.104 37,-540.104 33.5001,-550.104 40.5001,-550.104"/>
</g>
<!-- 1980 -->
<g id="node4" class="node"><title>1980</title>
<text text-anchor="middle" x="37" y="-443.8" font-family="Times,serif" font-size="24.00">1980</text>
</g>
<!-- 1978&#45;&gt;1980 -->
<g id="edge3" class="edge"><title>1978&#45;&gt;1980</title>
<path fill="none" stroke="black" d="M37,-503.697C37,-495.983 37,-486.712 37,-478.112"/>
<polygon fill="black" stroke="black" points="40.5001,-478.104 37,-468.104 33.5001,-478.104 40.5001,-478.104"/>
</g>
<!-- 1982 -->
<g id="node5" class="node"><title>1982</title>
<text text-anchor="middle" x="37" y="-371.8" font-family="Times,serif" font-size="24.00">1982</text>
</g>
<!-- 1980&#45;&gt;1982 -->
<g id="edge4" class="edge"><title>1980&#45;&gt;1982</title>
<path fill="none" stroke="black" d="M37,-431.697C37,-423.983 37,-414.712 37,-406.112"/>
<polygon fill="black" stroke="black" points="40.5001,-406.104 37,-396.104 33.5001,-406.104 40.5001,-406.104"/>
</g>
<!-- 1984 -->
<g id="node6" class="node"><title>1984</title>
<text text-anchor="middle" x="37" y="-299.8" font-family="Times,serif" font-size="24.00">1984</text>
</g>
<!-- 1982&#45;&gt;1984 -->
<g id="edge5" class="edge"><title>1982&#45;&gt;1984</title>
<path fill="none" stroke="black" d="M37,-359.697C37,-351.983 37,-342.712 37,-334.112"/>
<polygon fill="black" stroke="black" points="40.5001,-334.104 37,-324.104 33.5001,-334.104 40.5001,-334.104"/>
</g>
<!-- 1986 -->
<g id="node7" class="node"><title>1986</title>
<text text-anchor="middle" x="37" y="-227.8" font-family="Times,serif" font-size="24.00">1986</text>
</g>
<!-- 1984&#45;&gt;1986 -->
<g id="edge6" class="edge"><title>1984&#45;&gt;1986</title>
<path fill="none" stroke="black" d="M37,-287.697C37,-279.983 37,-270.712 37,-262.112"/>
<polygon fill="black" stroke="black" points="40.5001,-262.104 37,-252.104 33.5001,-262.104 40.5001,-262.104"/>
</g>
<!-- v9sh -->
<g id="node19" class="node"><title>v9sh</title>
<polygon fill="none" stroke="black" points="180,-324 126,-324 126,-288 180,-288 180,-324"/>
<text text-anchor="middle" x="153" y="-301" font-family="Times,serif" font-size="20.00">v9sh</text>
</g>
<!-- 1984&#45;&gt;v9sh -->
<!-- 1988 -->
<g id="node8" class="node"><title>1988</title>
<text text-anchor="middle" x="37" y="-155.8" font-family="Times,serif" font-size="24.00">1988</text>
</g>
<!-- 1986&#45;&gt;1988 -->
<g id="edge7" class="edge"><title>1986&#45;&gt;1988</title>
<path fill="none" stroke="black" d="M37,-215.697C37,-207.983 37,-198.712 37,-190.112"/>
<polygon fill="black" stroke="black" points="40.5001,-190.104 37,-180.104 33.5001,-190.104 40.5001,-190.104"/>
</g>
<!-- 1990 -->
<g id="node9" class="node"><title>1990</title>
<text text-anchor="middle" x="37" y="-83.8" font-family="Times,serif" font-size="24.00">1990</text>
</g>
<!-- 1988&#45;&gt;1990 -->
<g id="edge8" class="edge"><title>1988&#45;&gt;1990</title>
<path fill="none" stroke="black" d="M37,-143.697C37,-135.983 37,-126.712 37,-118.112"/>
<polygon fill="black" stroke="black" points="40.5001,-118.104 37,-108.104 33.5001,-118.104 40.5001,-118.104"/>
</g>
<!-- rc -->
<g id="node24" class="node"><title>rc</title>
<polygon fill="none" stroke="black" points="180,-180 126,-180 126,-144 180,-144 180,-180"/>
<text text-anchor="middle" x="153" y="-157" font-family="Times,serif" font-size="20.00">rc</text>
</g>
<!-- 1988&#45;&gt;rc -->
<!-- future -->
<g id="node10" class="node"><title>future</title>
<text text-anchor="middle" x="37" y="-11.8" font-family="Times,serif" font-size="24.00">future</text>
</g>
<!-- 1990&#45;&gt;future -->
<g id="edge9" class="edge"><title>1990&#45;&gt;future</title>
<path fill="none" stroke="black" d="M37,-71.6966C37,-63.9827 37,-54.7125 37,-46.1124"/>
<polygon fill="black" stroke="black" points="40.5001,-46.1043 37,-36.1043 33.5001,-46.1044 40.5001,-46.1043"/>
</g>
<!-- Mashey -->
<g id="node11" class="node"><title>Mashey</title>
<polygon fill="none" stroke="black" points="236,-612 156,-612 156,-576 236,-576 236,-612"/>
<text text-anchor="middle" x="196" y="-589" font-family="Times,serif" font-size="20.00">Mashey</text>
</g>
<!-- Bourne -->
<g id="node12" class="node"><title>Bourne</title>
<polygon fill="none" stroke="black" points="329.5,-612 254.5,-612 254.5,-576 329.5,-576 329.5,-612"/>
<text text-anchor="middle" x="292" y="-589" font-family="Times,serif" font-size="20.00">Bourne</text>
</g>
<!-- Formshell -->
<g id="node13" class="node"><title>Formshell</title>
<polygon fill="none" stroke="black" points="303.5,-540 206.5,-540 206.5,-504 303.5,-504 303.5,-540"/>
<text text-anchor="middle" x="255" y="-517" font-family="Times,serif" font-size="20.00">Formshell</text>
</g>
<!-- Bourne&#45;&gt;Formshell -->
<g id="edge32" class="edge"><title>Bourne&#45;&gt;Formshell</title>
<path fill="none" stroke="black" d="M282.854,-575.697C278.597,-567.644 273.444,-557.894 268.734,-548.982"/>
<polygon fill="black" stroke="black" points="271.808,-547.31 264.041,-540.104 265.62,-550.581 271.808,-547.31"/>
</g>
<!-- esh -->
<g id="node15" class="node"><title>esh</title>
<polygon fill="none" stroke="black" points="385,-468 331,-468 331,-432 385,-432 385,-468"/>
<text text-anchor="middle" x="358" y="-445" font-family="Times,serif" font-size="20.00">esh</text>
</g>
<!-- Bourne&#45;&gt;esh -->
<g id="edge15" class="edge"><title>Bourne&#45;&gt;esh</title>
<path fill="none" stroke="black" d="M315.55,-575.952C326.634,-566.62 338.94,-554.094 346,-540 355.631,-520.773 358.368,-496.428 358.843,-478.062"/>
<polygon fill="black" stroke="black" points="362.343,-478.042 358.897,-468.023 355.343,-478.004 362.343,-478.042"/>
</g>
<!-- vsh -->
<g id="node16" class="node"><title>vsh</title>
<polygon fill="none" stroke="black" points="226,-468 172,-468 172,-432 226,-432 226,-468"/>
<text text-anchor="middle" x="199" y="-445" font-family="Times,serif" font-size="20.00">vsh</text>
</g>
<!-- Bourne&#45;&gt;vsh -->
<g id="edge16" class="edge"><title>Bourne&#45;&gt;vsh</title>
<path fill="none" stroke="black" d="M254.261,-576.762C230.689,-565.761 203.599,-551.237 197,-540 186.09,-521.42 187.656,-496.681 191.345,-478.003"/>
<polygon fill="black" stroke="black" points="194.801,-478.591 193.615,-468.063 187.976,-477.032 194.801,-478.591"/>
</g>
<!-- ksh -->
<g id="node17" class="node"><title>ksh</title>
<polygon fill="none" stroke="black" points="321,-396 267,-396 267,-360 321,-360 321,-396"/>
<text text-anchor="middle" x="294" y="-373" font-family="Times,serif" font-size="20.00">ksh</text>
</g>
<!-- Bourne&#45;&gt;ksh -->
<g id="edge14" class="edge"><title>Bourne&#45;&gt;ksh</title>
<path fill="none" stroke="black" d="M300.306,-575.788C304.741,-565.634 309.741,-552.384 312,-540 320.524,-493.265 309.964,-438.114 301.792,-405.997"/>
<polygon fill="black" stroke="black" points="305.096,-404.799 299.144,-396.033 298.331,-406.597 305.096,-404.799"/>
</g>
<!-- System&#45;V -->
<g id="node18" class="node"><title>System&#45;V</title>
<polygon fill="none" stroke="black" points="461,-396 365,-396 365,-360 461,-360 461,-396"/>
<text text-anchor="middle" x="413" y="-373" font-family="Times,serif" font-size="20.00">System&#45;V</text>
</g>
<!-- Bourne&#45;&gt;System&#45;V -->
<g id="edge17" class="edge"><title>Bourne&#45;&gt;System&#45;V</title>
<path fill="none" stroke="black" d="M324.103,-575.776C338.512,-566.72 354.76,-554.48 366,-540 396.853,-500.254 407.469,-440.81 411.11,-406.369"/>
<polygon fill="black" stroke="black" points="414.622,-406.404 412.064,-396.122 407.652,-405.755 414.622,-406.404"/>
</g>
<!-- Bourne&#45;&gt;v9sh -->
<g id="edge18" class="edge"><title>Bourne&#45;&gt;v9sh</title>
<path fill="none" stroke="black" d="M254.303,-578.095C227.533,-566.834 194.691,-551.42 185,-540 134.998,-481.082 141.438,-381.933 148.195,-334.239"/>
<polygon fill="black" stroke="black" points="151.698,-334.489 149.753,-324.074 144.778,-333.428 151.698,-334.489"/>
</g>
<!-- Bash -->
<g id="node26" class="node"><title>Bash</title>
<polygon fill="none" stroke="black" points="236,-108 180,-108 180,-72 236,-72 236,-108"/>
<text text-anchor="middle" x="208" y="-85" font-family="Times,serif" font-size="20.00">Bash</text>
</g>
<!-- Bourne&#45;&gt;Bash -->
<g id="edge20" class="edge"><title>Bourne&#45;&gt;Bash</title>
<path fill="none" stroke="black" d="M254.171,-579.078C217.982,-565.556 167.778,-546.189 160,-540 122.276,-509.986 98,-499.207 98,-451 98,-451 98,-451 98,-233 98,-192.553 93.2735,-176.757 117,-144 130.212,-125.76 151.78,-112.802 170.603,-104.266"/>
<polygon fill="black" stroke="black" points="172.034,-107.461 179.855,-100.314 169.284,-101.023 172.034,-107.461"/>
</g>
<!-- csh -->
<g id="node14" class="node"><title>csh</title>
<polygon fill="none" stroke="black" points="495,-540 441,-540 441,-504 495,-504 495,-540"/>
<text text-anchor="middle" x="468" y="-517" font-family="Times,serif" font-size="20.00">csh</text>
</g>
<!-- Formshell&#45;&gt;csh -->
<!-- Formshell&#45;&gt;ksh -->
<g id="edge25" class="edge"><title>Formshell&#45;&gt;ksh</title>
<path fill="none" stroke="black" d="M259.704,-503.871C266.38,-479.564 278.67,-434.819 286.581,-406.013"/>
<polygon fill="black" stroke="black" points="290.006,-406.759 289.279,-396.189 283.256,-404.905 290.006,-406.759"/>
</g>
<!-- csh&#45;&gt;ksh -->
<g id="edge26" class="edge"><title>csh&#45;&gt;ksh</title>
<path fill="none" stroke="black" d="M456.831,-503.881C443.601,-484.587 420.046,-453.16 394,-432 374.866,-416.455 350.466,-403.416 330.559,-394.162"/>
<polygon fill="black" stroke="black" points="331.744,-390.856 321.19,-389.928 328.861,-397.235 331.744,-390.856"/>
</g>
<!-- tcsh -->
<g id="node20" class="node"><title>tcsh</title>
<polygon fill="none" stroke="black" points="516,-324 462,-324 462,-288 516,-288 516,-324"/>
<text text-anchor="middle" x="489" y="-301" font-family="Times,serif" font-size="20.00">tcsh</text>
</g>
<!-- csh&#45;&gt;tcsh -->
<g id="edge13" class="edge"><title>csh&#45;&gt;tcsh</title>
<path fill="none" stroke="black" d="M469.683,-503.849C473.316,-466.832 481.917,-379.181 486.313,-334.386"/>
<polygon fill="black" stroke="black" points="489.816,-334.526 487.309,-324.232 482.849,-333.843 489.816,-334.526"/>
</g>
<!-- esh&#45;&gt;ksh -->
<g id="edge23" class="edge"><title>esh&#45;&gt;ksh</title>
<path fill="none" stroke="black" d="M342.18,-431.697C334.43,-423.22 324.961,-412.864 316.476,-403.583"/>
<polygon fill="black" stroke="black" points="318.969,-401.123 309.638,-396.104 313.803,-405.846 318.969,-401.123"/>
</g>
<!-- vsh&#45;&gt;ksh -->
<g id="edge24" class="edge"><title>vsh&#45;&gt;ksh</title>
<path fill="none" stroke="black" d="M222.483,-431.697C234.563,-422.796 249.454,-411.823 262.516,-402.199"/>
<polygon fill="black" stroke="black" points="264.813,-404.854 270.787,-396.104 260.66,-399.219 264.813,-404.854"/>
</g>
<!-- ksh&#45;i -->
<g id="node21" class="node"><title>ksh&#45;i</title>
<polygon fill="none" stroke="black" points="313,-252 257,-252 257,-216 313,-216 313,-252"/>
<text text-anchor="middle" x="285" y="-229" font-family="Times,serif" font-size="20.00">ksh&#45;i</text>
</g>
<!-- ksh&#45;&gt;ksh&#45;i -->
<g id="edge29" class="edge"><title>ksh&#45;&gt;ksh&#45;i</title>
<path fill="none" stroke="black" d="M292.914,-359.871C291.381,-335.67 288.563,-291.211 286.736,-262.393"/>
<polygon fill="black" stroke="black" points="290.215,-261.948 286.089,-252.189 283.229,-262.391 290.215,-261.948"/>
</g>
<!-- POSIX -->
<g id="node27" class="node"><title>POSIX</title>
<polygon fill="none" stroke="black" points="451,-36 377,-36 377,-0 451,-0 451,-36"/>
<text text-anchor="middle" x="414" y="-13" font-family="Times,serif" font-size="20.00">POSIX</text>
</g>
<!-- System&#45;V&#45;&gt;POSIX -->
<g id="edge28" class="edge"><title>System&#45;V&#45;&gt;POSIX</title>
<path fill="none" stroke="black" d="M417.25,-359.634C423.386,-332.993 434,-280.356 434,-235 434,-235 434,-235 434,-161 434,-120.822 426.052,-74.8689 420.177,-46.3889"/>
<polygon fill="black" stroke="black" points="423.551,-45.4307 418.047,-36.3777 416.704,-46.887 423.551,-45.4307"/>
</g>
<!-- v9sh&#45;&gt;tcsh -->
<!-- v9sh&#45;&gt;rc -->
<g id="edge19" class="edge"><title>v9sh&#45;&gt;rc</title>
<path fill="none" stroke="black" d="M153,-287.871C153,-263.67 153,-219.211 153,-190.393"/>
<polygon fill="black" stroke="black" points="156.5,-190.189 153,-180.189 149.5,-190.189 156.5,-190.189"/>
</g>
<!-- KornShell -->
<g id="node22" class="node"><title>KornShell</title>
<polygon fill="none" stroke="black" points="334,-180 236,-180 236,-144 334,-144 334,-180"/>
<text text-anchor="middle" x="285" y="-157" font-family="Times,serif" font-size="20.00">KornShell</text>
</g>
<!-- ksh&#45;i&#45;&gt;KornShell -->
<g id="edge30" class="edge"><title>ksh&#45;i&#45;&gt;KornShell</title>
<path fill="none" stroke="black" d="M285,-215.697C285,-207.983 285,-198.712 285,-190.112"/>
<polygon fill="black" stroke="black" points="288.5,-190.104 285,-180.104 281.5,-190.104 288.5,-190.104"/>
</g>
<!-- ksh&#45;i&#45;&gt;Bash -->
<g id="edge21" class="edge"><title>ksh&#45;i&#45;&gt;Bash</title>
<path fill="none" stroke="black" d="M259.88,-215.81C248.171,-206.526 235.071,-194.083 227,-180 216.165,-161.092 211.49,-136.723 209.482,-118.266"/>
<polygon fill="black" stroke="black" points="212.956,-117.818 208.582,-108.168 205.984,-118.44 212.956,-117.818"/>
</g>
<!-- Perl -->
<g id="node23" class="node"><title>Perl</title>
<polygon fill="none" stroke="black" points="406,-180 352,-180 352,-144 406,-144 406,-180"/>
<text text-anchor="middle" x="379" y="-157" font-family="Times,serif" font-size="20.00">Perl</text>
</g>
<!-- KornShell&#45;&gt;Perl -->
<!-- KornShell&#45;&gt;Bash -->
<g id="edge22" class="edge"><title>KornShell&#45;&gt;Bash</title>
<path fill="none" stroke="black" d="M265.966,-143.697C256.455,-135.05 244.793,-124.449 234.43,-115.027"/>
<polygon fill="black" stroke="black" points="236.569,-112.241 226.815,-108.104 231.86,-117.421 236.569,-112.241"/>
</g>
<!-- KornShell&#45;&gt;POSIX -->
<g id="edge27" class="edge"><title>KornShell&#45;&gt;POSIX</title>
<path fill="none" stroke="black" d="M300.56,-143.871C323.224,-118.924 365.444,-72.4495 391.495,-43.7729"/>
<polygon fill="black" stroke="black" points="394.251,-45.9445 398.384,-36.1893 389.07,-41.2376 394.251,-45.9445"/>
</g>
<!-- ksh&#45;POSIX -->
<g id="node28" class="node"><title>ksh&#45;POSIX</title>
<polygon fill="none" stroke="black" points="339,-36 231,-36 231,-0 339,-0 339,-36"/>
<text text-anchor="middle" x="285" y="-13" font-family="Times,serif" font-size="20.00">ksh&#45;POSIX</text>
</g>
<!-- KornShell&#45;&gt;ksh&#45;POSIX -->
<g id="edge31" class="edge"><title>KornShell&#45;&gt;ksh&#45;POSIX</title>
<path fill="none" stroke="black" d="M285,-143.871C285,-119.67 285,-75.2108 285,-46.3932"/>
<polygon fill="black" stroke="black" points="288.5,-46.1892 285,-36.1893 281.5,-46.1893 288.5,-46.1892"/>
</g>
<!-- rc&#45;&gt;KornShell -->
<!-- tcl -->
<g id="node25" class="node"><title>tcl</title>
<polygon fill="none" stroke="black" points="516,-108 462,-108 462,-72 516,-72 516,-108"/>
<text text-anchor="middle" x="489" y="-85" font-family="Times,serif" font-size="20.00">tcl</text>
</g>
<!-- Thompson -->
<g id="node29" class="node"><title>Thompson</title>
<polygon fill="none" stroke="black" points="342.5,-684 241.5,-684 241.5,-648 342.5,-648 342.5,-684"/>
<text text-anchor="middle" x="292" y="-661" font-family="Times,serif" font-size="20.00">Thompson</text>
</g>
<!-- Thompson&#45;&gt;Mashey -->
<g id="edge10" class="edge"><title>Thompson&#45;&gt;Mashey</title>
<path fill="none" stroke="black" d="M268.27,-647.697C256.063,-638.796 241.015,-627.823 227.816,-618.199"/>
<polygon fill="black" stroke="black" points="229.6,-615.168 219.457,-612.104 225.475,-620.824 229.6,-615.168"/>
</g>
<!-- Thompson&#45;&gt;Bourne -->
<g id="edge11" class="edge"><title>Thompson&#45;&gt;Bourne</title>
<path fill="none" stroke="black" d="M292,-647.697C292,-639.983 292,-630.712 292,-622.112"/>
<polygon fill="black" stroke="black" points="295.5,-622.104 292,-612.104 288.5,-622.104 295.5,-622.104"/>
</g>
<!-- Thompson&#45;&gt;csh -->
<g id="edge12" class="edge"><title>Thompson&#45;&gt;csh</title>
<path fill="none" stroke="black" d="M313.23,-647.871C344.547,-622.604 403.234,-575.254 438.652,-546.679"/>
<polygon fill="black" stroke="black" points="441.11,-549.193 446.695,-540.189 436.714,-543.745 441.11,-549.193"/>
</g>
</g>
</svg>
