<?xml version="1.0" encoding="UTF-8" standalone="no"?>
<!DOCTYPE svg PUBLIC "-//W3C//DTD SVG 1.1//EN"
 "http://www.w3.org/Graphics/SVG/1.1/DTD/svg11.dtd">
<!-- Generated by graphviz version 2.38.0 (20140413.2041)
 -->
<!-- Title: unix Pages: 1 -->
<svg width="960pt" height="836pt"
 viewBox="0.00 0.00 960.29 836.00" xmlns="http://www.w3.org/2000/svg" xmlns:xlink="http://www.w3.org/1999/xlink">
<g id="graph0" class="graph" transform="scale(1 1) rotate(0) translate(4 832)">
<title>unix</title>
<polygon fill="white" stroke="none" points="-4,4 -4,-832 956.292,-832 956.292,4 -4,4"/>
<!-- 5th Edition -->
<g id="node1" class="node"><title>5th Edition</title>
<ellipse fill="#b2dfee" stroke="#b2dfee" cx="581.897" cy="-810" rx="50.0912" ry="18"/>
<text text-anchor="middle" x="581.897" y="-806.3" font-family="Times,serif" font-size="14.00">5th Edition</text>
</g>
<!-- 6th Edition -->
<g id="node2" class="node"><title>6th Edition</title>
<ellipse fill="#b2dfee" stroke="#b2dfee" cx="426.897" cy="-738" rx="50.0912" ry="18"/>
<text text-anchor="middle" x="426.897" y="-734.3" font-family="Times,serif" font-size="14.00">6th Edition</text>
</g>
<!-- 5th Edition&#45;&gt;6th Edition -->
<g id="edge1" class="edge"><title>5th Edition&#45;&gt;6th Edition</title>
<path fill="none" stroke="black" d="M552.012,-795.503C527.645,-784.499 493.026,-768.865 466.378,-756.83"/>
<polygon fill="black" stroke="black" points="467.509,-753.501 456.955,-752.575 464.628,-759.88 467.509,-753.501"/>
</g>
<!-- PWB 1.0 -->
<g id="node3" class="node"><title>PWB 1.0</title>
<ellipse fill="#b2dfee" stroke="#b2dfee" cx="677.897" cy="-738" rx="44.393" ry="18"/>
<text text-anchor="middle" x="677.897" y="-734.3" font-family="Times,serif" font-size="14.00">PWB 1.0</text>
</g>
<!-- 5th Edition&#45;&gt;PWB 1.0 -->
<g id="edge2" class="edge"><title>5th Edition&#45;&gt;PWB 1.0</title>
<path fill="none" stroke="black" d="M603.203,-793.465C616.686,-783.633 634.29,-770.797 649.022,-760.055"/>
<polygon fill="black" stroke="black" points="651.292,-762.731 657.31,-754.011 647.168,-757.075 651.292,-762.731"/>
</g>
<!-- LSX -->
<g id="node4" class="node"><title>LSX</title>
<ellipse fill="#b2dfee" stroke="#b2dfee" cx="588.897" cy="-666" rx="27.0966" ry="18"/>
<text text-anchor="middle" x="588.897" y="-662.3" font-family="Times,serif" font-size="14.00">LSX</text>
</g>
<!-- 6th Edition&#45;&gt;LSX -->
<g id="edge3" class="edge"><title>6th Edition&#45;&gt;LSX</title>
<path fill="none" stroke="black" d="M458.345,-723.97C483.69,-713.396 520.2,-697.998 551.897,-684 553.74,-683.186 555.632,-682.343 557.537,-681.487"/>
<polygon fill="black" stroke="black" points="559.374,-684.496 567.033,-677.176 556.481,-678.122 559.374,-684.496"/>
</g>
<!-- 1 BSD -->
<g id="node5" class="node"><title>1 BSD</title>
<ellipse fill="#b2dfee" stroke="#b2dfee" cx="126.897" cy="-666" rx="34.394" ry="18"/>
<text text-anchor="middle" x="126.897" y="-662.3" font-family="Times,serif" font-size="14.00">1 BSD</text>
</g>
<!-- 6th Edition&#45;&gt;1 BSD -->
<g id="edge4" class="edge"><title>6th Edition&#45;&gt;1 BSD</title>
<path fill="none" stroke="black" d="M386.126,-727.487C328.847,-714.122 225.156,-689.927 167.804,-676.545"/>
<polygon fill="black" stroke="black" points="168.529,-673.12 157.995,-674.256 166.938,-679.937 168.529,-673.12"/>
</g>
<!-- Mini Unix -->
<g id="node6" class="node"><title>Mini Unix</title>
<ellipse fill="#b2dfee" stroke="#b2dfee" cx="366.897" cy="-666" rx="48.1917" ry="18"/>
<text text-anchor="middle" x="366.897" y="-662.3" font-family="Times,serif" font-size="14.00">Mini Unix</text>
</g>
<!-- 6th Edition&#45;&gt;Mini Unix -->
<g id="edge5" class="edge"><title>6th Edition&#45;&gt;Mini Unix</title>
<path fill="none" stroke="black" d="M412.678,-720.411C405.206,-711.693 395.908,-700.845 387.647,-691.208"/>
<polygon fill="black" stroke="black" points="390.18,-688.785 381.014,-683.47 384.865,-693.34 390.18,-688.785"/>
</g>
<!-- Wollongong -->
<g id="node7" class="node"><title>Wollongong</title>
<ellipse fill="#b2dfee" stroke="#b2dfee" cx="487.897" cy="-666" rx="55.4913" ry="18"/>
<text text-anchor="middle" x="487.897" y="-662.3" font-family="Times,serif" font-size="14.00">Wollongong</text>
</g>
<!-- 6th Edition&#45;&gt;Wollongong -->
<g id="edge6" class="edge"><title>6th Edition&#45;&gt;Wollongong</title>
<path fill="none" stroke="black" d="M441.353,-720.411C448.95,-711.693 458.403,-700.845 466.802,-691.208"/>
<polygon fill="black" stroke="black" points="469.614,-693.309 473.545,-683.47 464.336,-688.71 469.614,-693.309"/>
</g>
<!-- Interdata -->
<g id="node8" class="node"><title>Interdata</title>
<ellipse fill="#b2dfee" stroke="#b2dfee" cx="258.897" cy="-666" rx="42.4939" ry="18"/>
<text text-anchor="middle" x="258.897" y="-662.3" font-family="Times,serif" font-size="14.00">Interdata</text>
</g>
<!-- 6th Edition&#45;&gt;Interdata -->
<g id="edge7" class="edge"><title>6th Edition&#45;&gt;Interdata</title>
<path fill="none" stroke="black" d="M395.298,-723.834C367.629,-712.305 327.332,-695.515 297.71,-683.172"/>
<polygon fill="black" stroke="black" points="298.684,-679.786 288.107,-679.171 295.991,-686.248 298.684,-679.786"/>
</g>
<!-- PWB 1.2 -->
<g id="node33" class="node"><title>PWB 1.2</title>
<ellipse fill="#b2dfee" stroke="#b2dfee" cx="677.897" cy="-666" rx="44.393" ry="18"/>
<text text-anchor="middle" x="677.897" y="-662.3" font-family="Times,serif" font-size="14.00">PWB 1.2</text>
</g>
<!-- PWB 1.0&#45;&gt;PWB 1.2 -->
<g id="edge36" class="edge"><title>PWB 1.0&#45;&gt;PWB 1.2</title>
<path fill="none" stroke="black" d="M677.897,-719.697C677.897,-711.983 677.897,-702.712 677.897,-694.112"/>
<polygon fill="black" stroke="black" points="681.397,-694.104 677.897,-684.104 674.397,-694.104 681.397,-694.104"/>
</g>
<!-- USG 1.0 -->
<g id="node34" class="node"><title>USG 1.0</title>
<ellipse fill="#b2dfee" stroke="#b2dfee" cx="781.897" cy="-666" rx="42.4939" ry="18"/>
<text text-anchor="middle" x="781.897" y="-662.3" font-family="Times,serif" font-size="14.00">USG 1.0</text>
</g>
<!-- PWB 1.0&#45;&gt;USG 1.0 -->
<g id="edge37" class="edge"><title>PWB 1.0&#45;&gt;USG 1.0</title>
<path fill="none" stroke="black" d="M699.699,-722.326C714.814,-712.152 735.138,-698.472 751.795,-687.261"/>
<polygon fill="black" stroke="black" points="753.783,-690.142 760.124,-681.655 749.874,-684.335 753.783,-690.142"/>
</g>
<!-- 2 BSD -->
<g id="node20" class="node"><title>2 BSD</title>
<ellipse fill="#b2dfee" stroke="#b2dfee" cx="89.8973" cy="-306" rx="34.394" ry="18"/>
<text text-anchor="middle" x="89.8973" y="-302.3" font-family="Times,serif" font-size="14.00">2 BSD</text>
</g>
<!-- 1 BSD&#45;&gt;2 BSD -->
<g id="edge20" class="edge"><title>1 BSD&#45;&gt;2 BSD</title>
<path fill="none" stroke="black" d="M121.958,-648.12C114.672,-621.687 101.897,-568.808 101.897,-523 101.897,-523 101.897,-523 101.897,-449 101.897,-408.853 97.0759,-362.548 93.5453,-334.022"/>
<polygon fill="black" stroke="black" points="97.0055,-333.487 92.2682,-324.01 90.0617,-334.373 97.0055,-333.487"/>
</g>
<!-- Unix/TS 3.0 -->
<g id="node9" class="node"><title>Unix/TS 3.0</title>
<ellipse fill="#b2dfee" stroke="#b2dfee" cx="618.897" cy="-450" rx="54.6905" ry="18"/>
<text text-anchor="middle" x="618.897" y="-446.3" font-family="Times,serif" font-size="14.00">Unix/TS 3.0</text>
</g>
<!-- Interdata&#45;&gt;Unix/TS 3.0 -->
<g id="edge8" class="edge"><title>Interdata&#45;&gt;Unix/TS 3.0</title>
<path fill="none" stroke="black" d="M282.518,-650.959C344.472,-614.13 511.862,-514.627 584.494,-471.451"/>
<polygon fill="black" stroke="black" points="586.47,-474.348 593.278,-466.229 582.893,-468.331 586.47,-474.348"/>
</g>
<!-- PWB 2.0 -->
<g id="node10" class="node"><title>PWB 2.0</title>
<ellipse fill="#b2dfee" stroke="#b2dfee" cx="560.897" cy="-594" rx="44.393" ry="18"/>
<text text-anchor="middle" x="560.897" y="-590.3" font-family="Times,serif" font-size="14.00">PWB 2.0</text>
</g>
<!-- Interdata&#45;&gt;PWB 2.0 -->
<g id="edge9" class="edge"><title>Interdata&#45;&gt;PWB 2.0</title>
<path fill="none" stroke="black" d="M290.254,-653.797C296.702,-651.706 303.482,-649.659 309.897,-648 394.375,-626.152 418.034,-632.297 502.897,-612 507.563,-610.884 512.412,-609.625 517.23,-608.308"/>
<polygon fill="black" stroke="black" points="518.331,-611.634 527.008,-605.555 516.434,-604.897 518.331,-611.634"/>
</g>
<!-- 7th Edition -->
<g id="node11" class="node"><title>7th Edition</title>
<ellipse fill="#b2dfee" stroke="#b2dfee" cx="258.897" cy="-594" rx="50.0912" ry="18"/>
<text text-anchor="middle" x="258.897" y="-590.3" font-family="Times,serif" font-size="14.00">7th Edition</text>
</g>
<!-- Interdata&#45;&gt;7th Edition -->
<g id="edge10" class="edge"><title>Interdata&#45;&gt;7th Edition</title>
<path fill="none" stroke="black" d="M258.897,-647.697C258.897,-639.983 258.897,-630.712 258.897,-622.112"/>
<polygon fill="black" stroke="black" points="262.397,-622.104 258.897,-612.104 255.397,-622.104 262.397,-622.104"/>
</g>
<!-- TS 4.0 -->
<g id="node43" class="node"><title>TS 4.0</title>
<ellipse fill="#b2dfee" stroke="#b2dfee" cx="677.897" cy="-306" rx="34.394" ry="18"/>
<text text-anchor="middle" x="677.897" y="-302.3" font-family="Times,serif" font-size="14.00">TS 4.0</text>
</g>
<!-- Unix/TS 3.0&#45;&gt;TS 4.0 -->
<g id="edge49" class="edge"><title>Unix/TS 3.0&#45;&gt;TS 4.0</title>
<path fill="none" stroke="black" d="M626.014,-431.871C636.213,-407.325 655.071,-361.938 667.024,-333.17"/>
<polygon fill="black" stroke="black" points="670.334,-334.326 670.939,-323.748 663.869,-331.64 670.334,-334.326"/>
</g>
<!-- PWB 2.0&#45;&gt;Unix/TS 3.0 -->
<g id="edge47" class="edge"><title>PWB 2.0&#45;&gt;Unix/TS 3.0</title>
<path fill="none" stroke="black" d="M558.923,-575.762C557.536,-557.19 557.479,-527.185 567.897,-504 572.998,-492.649 581.606,-482.26 590.312,-473.745"/>
<polygon fill="black" stroke="black" points="592.908,-476.112 597.902,-466.767 588.171,-470.959 592.908,-476.112"/>
</g>
<!-- 8th Edition -->
<g id="node12" class="node"><title>8th Edition</title>
<ellipse fill="#b2dfee" stroke="#b2dfee" cx="460.897" cy="-234" rx="50.0912" ry="18"/>
<text text-anchor="middle" x="460.897" y="-230.3" font-family="Times,serif" font-size="14.00">8th Edition</text>
</g>
<!-- 7th Edition&#45;&gt;8th Edition -->
<g id="edge11" class="edge"><title>7th Edition&#45;&gt;8th Edition</title>
<path fill="none" stroke="black" d="M302.298,-584.912C347.58,-575.599 414.386,-559.104 431.897,-540 459.228,-510.184 450.897,-491.447 450.897,-451 450.897,-451 450.897,-451 450.897,-377 450.897,-336.897 454.915,-290.58 457.857,-262.04"/>
<polygon fill="black" stroke="black" points="461.346,-262.336 458.922,-252.022 454.385,-261.596 461.346,-262.336"/>
</g>
<!-- 32V -->
<g id="node13" class="node"><title>32V</title>
<ellipse fill="#b2dfee" stroke="#b2dfee" cx="395.897" cy="-522" rx="27" ry="18"/>
<text text-anchor="middle" x="395.897" y="-518.3" font-family="Times,serif" font-size="14.00">32V</text>
</g>
<!-- 7th Edition&#45;&gt;32V -->
<g id="edge12" class="edge"><title>7th Edition&#45;&gt;32V</title>
<path fill="none" stroke="black" d="M286.621,-578.834C309.574,-567.107 342.129,-550.473 365.73,-538.414"/>
<polygon fill="black" stroke="black" points="367.614,-541.382 374.927,-533.715 364.429,-535.148 367.614,-541.382"/>
</g>
<!-- V7M -->
<g id="node14" class="node"><title>V7M</title>
<ellipse fill="#b2dfee" stroke="#b2dfee" cx="29.8973" cy="-450" rx="29.795" ry="18"/>
<text text-anchor="middle" x="29.8973" y="-446.3" font-family="Times,serif" font-size="14.00">V7M</text>
</g>
<!-- 7th Edition&#45;&gt;V7M -->
<g id="edge13" class="edge"><title>7th Edition&#45;&gt;V7M</title>
<path fill="none" stroke="black" d="M224.526,-580.874C199.596,-571.391 165.545,-556.991 137.897,-540 105.96,-520.373 73.2896,-492.076 52.3708,-472.689"/>
<polygon fill="black" stroke="black" points="54.6425,-470.021 44.9549,-465.731 49.8531,-475.126 54.6425,-470.021"/>
</g>
<!-- Ultrix&#45;11 -->
<g id="node15" class="node"><title>Ultrix&#45;11</title>
<ellipse fill="#b2dfee" stroke="#b2dfee" cx="118.897" cy="-162" rx="43.5923" ry="18"/>
<text text-anchor="middle" x="118.897" y="-158.3" font-family="Times,serif" font-size="14.00">Ultrix&#45;11</text>
</g>
<!-- 7th Edition&#45;&gt;Ultrix&#45;11 -->
<g id="edge14" class="edge"><title>7th Edition&#45;&gt;Ultrix&#45;11</title>
<path fill="none" stroke="black" d="M225.276,-580.64C206.497,-572.043 184.256,-558.731 170.897,-540 147.412,-507.07 151.897,-491.447 151.897,-451 151.897,-451 151.897,-451 151.897,-305 151.897,-263.974 138.667,-217.972 128.961,-189.743"/>
<polygon fill="black" stroke="black" points="132.215,-188.446 125.575,-180.189 125.617,-190.784 132.215,-188.446"/>
</g>
<!-- Xenix -->
<g id="node16" class="node"><title>Xenix</title>
<ellipse fill="#b2dfee" stroke="#b2dfee" cx="211.897" cy="-522" rx="32.4942" ry="18"/>
<text text-anchor="middle" x="211.897" y="-518.3" font-family="Times,serif" font-size="14.00">Xenix</text>
</g>
<!-- 7th Edition&#45;&gt;Xenix -->
<g id="edge15" class="edge"><title>7th Edition&#45;&gt;Xenix</title>
<path fill="none" stroke="black" d="M247.759,-576.411C242.023,-567.868 234.913,-557.278 228.54,-547.787"/>
<polygon fill="black" stroke="black" points="231.436,-545.821 222.956,-539.47 225.624,-549.723 231.436,-545.821"/>
</g>
<!-- UniPlus+ -->
<g id="node17" class="node"><title>UniPlus+</title>
<ellipse fill="#b2dfee" stroke="#b2dfee" cx="306.897" cy="-522" rx="44.393" ry="18"/>
<text text-anchor="middle" x="306.897" y="-518.3" font-family="Times,serif" font-size="14.00">UniPlus+</text>
</g>
<!-- 7th Edition&#45;&gt;UniPlus+ -->
<g id="edge16" class="edge"><title>7th Edition&#45;&gt;UniPlus+</title>
<path fill="none" stroke="black" d="M270.273,-576.411C276.131,-567.868 283.392,-557.278 289.9,-547.787"/>
<polygon fill="black" stroke="black" points="292.835,-549.697 295.604,-539.47 287.062,-545.738 292.835,-549.697"/>
</g>
<!-- 9th Edition -->
<g id="node18" class="node"><title>9th Edition</title>
<ellipse fill="#b2dfee" stroke="#b2dfee" cx="538.897" cy="-162" rx="50.0912" ry="18"/>
<text text-anchor="middle" x="538.897" y="-158.3" font-family="Times,serif" font-size="14.00">9th Edition</text>
</g>
<!-- 8th Edition&#45;&gt;9th Edition -->
<g id="edge18" class="edge"><title>8th Edition&#45;&gt;9th Edition</title>
<path fill="none" stroke="black" d="M478.597,-217.116C488.895,-207.874 502.053,-196.066 513.448,-185.84"/>
<polygon fill="black" stroke="black" points="515.893,-188.348 520.998,-179.064 511.218,-183.138 515.893,-188.348"/>
</g>
<!-- 3 BSD -->
<g id="node23" class="node"><title>3 BSD</title>
<ellipse fill="#b2dfee" stroke="#b2dfee" cx="376.897" cy="-450" rx="34.394" ry="18"/>
<text text-anchor="middle" x="376.897" y="-446.3" font-family="Times,serif" font-size="14.00">3 BSD</text>
</g>
<!-- 32V&#45;&gt;3 BSD -->
<g id="edge24" class="edge"><title>32V&#45;&gt;3 BSD</title>
<path fill="none" stroke="black" d="M391.298,-504.055C389.182,-496.261 386.62,-486.822 384.247,-478.079"/>
<polygon fill="black" stroke="black" points="387.584,-477.009 381.586,-468.275 380.828,-478.843 387.584,-477.009"/>
</g>
<!-- V7M&#45;&gt;Ultrix&#45;11 -->
<g id="edge17" class="edge"><title>V7M&#45;&gt;Ultrix&#45;11</title>
<path fill="none" stroke="black" d="M29.4051,-431.594C29.0616,-401.528 30.582,-338.259 46.8973,-288 59.0872,-250.45 83.5661,-211.746 100.577,-187.549"/>
<polygon fill="black" stroke="black" points="103.493,-189.487 106.47,-179.319 97.8021,-185.412 103.493,-189.487"/>
</g>
<!-- 10th Edition -->
<g id="node19" class="node"><title>10th Edition</title>
<ellipse fill="#b2dfee" stroke="#b2dfee" cx="540.897" cy="-90" rx="54.6905" ry="18"/>
<text text-anchor="middle" x="540.897" y="-86.3" font-family="Times,serif" font-size="14.00">10th Edition</text>
</g>
<!-- 9th Edition&#45;&gt;10th Edition -->
<g id="edge19" class="edge"><title>9th Edition&#45;&gt;10th Edition</title>
<path fill="none" stroke="black" d="M539.392,-143.697C539.612,-135.983 539.877,-126.712 540.123,-118.112"/>
<polygon fill="black" stroke="black" points="543.622,-118.2 540.409,-108.104 536.624,-118 543.622,-118.2"/>
</g>
<!-- 2.8 BSD -->
<g id="node21" class="node"><title>2.8 BSD</title>
<ellipse fill="#b2dfee" stroke="#b2dfee" cx="221.897" cy="-234" rx="41.6928" ry="18"/>
<text text-anchor="middle" x="221.897" y="-230.3" font-family="Times,serif" font-size="14.00">2.8 BSD</text>
</g>
<!-- 2 BSD&#45;&gt;2.8 BSD -->
<g id="edge21" class="edge"><title>2 BSD&#45;&gt;2.8 BSD</title>
<path fill="none" stroke="black" d="M113.192,-292.647C133.84,-281.697 164.259,-265.566 187.672,-253.15"/>
<polygon fill="black" stroke="black" points="189.391,-256.2 196.586,-248.423 186.111,-250.016 189.391,-256.2"/>
</g>
<!-- 2.8 BSD&#45;&gt;Ultrix&#45;11 -->
<g id="edge22" class="edge"><title>2.8 BSD&#45;&gt;Ultrix&#45;11</title>
<path fill="none" stroke="black" d="M200.556,-218.496C185.603,-208.334 165.412,-194.612 148.85,-183.356"/>
<polygon fill="black" stroke="black" points="150.804,-180.452 140.566,-177.726 146.869,-186.242 150.804,-180.452"/>
</g>
<!-- 2.9 BSD -->
<g id="node22" class="node"><title>2.9 BSD</title>
<ellipse fill="#b2dfee" stroke="#b2dfee" cx="221.897" cy="-162" rx="41.6928" ry="18"/>
<text text-anchor="middle" x="221.897" y="-158.3" font-family="Times,serif" font-size="14.00">2.9 BSD</text>
</g>
<!-- 2.8 BSD&#45;&gt;2.9 BSD -->
<g id="edge23" class="edge"><title>2.8 BSD&#45;&gt;2.9 BSD</title>
<path fill="none" stroke="black" d="M221.897,-215.697C221.897,-207.983 221.897,-198.712 221.897,-190.112"/>
<polygon fill="black" stroke="black" points="225.397,-190.104 221.897,-180.104 218.397,-190.104 225.397,-190.104"/>
</g>
<!-- 4 BSD -->
<g id="node24" class="node"><title>4 BSD</title>
<ellipse fill="#b2dfee" stroke="#b2dfee" cx="372.897" cy="-378" rx="34.394" ry="18"/>
<text text-anchor="middle" x="372.897" y="-374.3" font-family="Times,serif" font-size="14.00">4 BSD</text>
</g>
<!-- 3 BSD&#45;&gt;4 BSD -->
<g id="edge25" class="edge"><title>3 BSD&#45;&gt;4 BSD</title>
<path fill="none" stroke="black" d="M375.909,-431.697C375.468,-423.983 374.938,-414.712 374.447,-406.112"/>
<polygon fill="black" stroke="black" points="377.94,-405.888 373.875,-396.104 370.951,-406.288 377.94,-405.888"/>
</g>
<!-- 4.1 BSD -->
<g id="node25" class="node"><title>4.1 BSD</title>
<ellipse fill="#b2dfee" stroke="#b2dfee" cx="370.897" cy="-306" rx="41.6928" ry="18"/>
<text text-anchor="middle" x="370.897" y="-302.3" font-family="Times,serif" font-size="14.00">4.1 BSD</text>
</g>
<!-- 4 BSD&#45;&gt;4.1 BSD -->
<g id="edge26" class="edge"><title>4 BSD&#45;&gt;4.1 BSD</title>
<path fill="none" stroke="black" d="M372.403,-359.697C372.183,-351.983 371.918,-342.712 371.672,-334.112"/>
<polygon fill="black" stroke="black" points="375.17,-334 371.386,-324.104 368.173,-334.2 375.17,-334"/>
</g>
<!-- 4.1 BSD&#45;&gt;8th Edition -->
<g id="edge29" class="edge"><title>4.1 BSD&#45;&gt;8th Edition</title>
<path fill="none" stroke="black" d="M390.426,-289.811C402.756,-280.221 418.89,-267.672 432.609,-257.002"/>
<polygon fill="black" stroke="black" points="435.039,-259.546 440.784,-250.644 430.741,-254.021 435.039,-259.546"/>
</g>
<!-- 4.1 BSD&#45;&gt;2.8 BSD -->
<g id="edge28" class="edge"><title>4.1 BSD&#45;&gt;2.8 BSD</title>
<path fill="none" stroke="black" d="M343.568,-292.161C319.625,-280.912 284.637,-264.475 258.32,-252.111"/>
<polygon fill="black" stroke="black" points="259.592,-248.842 249.053,-247.758 256.616,-255.178 259.592,-248.842"/>
</g>
<!-- 4.2 BSD -->
<g id="node26" class="node"><title>4.2 BSD</title>
<ellipse fill="#b2dfee" stroke="#b2dfee" cx="350.897" cy="-234" rx="41.6928" ry="18"/>
<text text-anchor="middle" x="350.897" y="-230.3" font-family="Times,serif" font-size="14.00">4.2 BSD</text>
</g>
<!-- 4.1 BSD&#45;&gt;4.2 BSD -->
<g id="edge27" class="edge"><title>4.1 BSD&#45;&gt;4.2 BSD</title>
<path fill="none" stroke="black" d="M366.056,-288.055C363.829,-280.261 361.132,-270.822 358.634,-262.079"/>
<polygon fill="black" stroke="black" points="361.946,-260.929 355.833,-252.275 355.215,-262.852 361.946,-260.929"/>
</g>
<!-- 4.3 BSD -->
<g id="node27" class="node"><title>4.3 BSD</title>
<ellipse fill="#b2dfee" stroke="#b2dfee" cx="427.897" cy="-162" rx="41.6928" ry="18"/>
<text text-anchor="middle" x="427.897" y="-158.3" font-family="Times,serif" font-size="14.00">4.3 BSD</text>
</g>
<!-- 4.2 BSD&#45;&gt;4.3 BSD -->
<g id="edge30" class="edge"><title>4.2 BSD&#45;&gt;4.3 BSD</title>
<path fill="none" stroke="black" d="M367.986,-217.465C378.354,-208.04 391.759,-195.853 403.259,-185.398"/>
<polygon fill="black" stroke="black" points="405.811,-187.808 410.856,-178.492 401.103,-182.629 405.811,-187.808"/>
</g>
<!-- Ultrix&#45;32 -->
<g id="node28" class="node"><title>Ultrix&#45;32</title>
<ellipse fill="#b2dfee" stroke="#b2dfee" cx="324.897" cy="-162" rx="43.5923" ry="18"/>
<text text-anchor="middle" x="324.897" y="-158.3" font-family="Times,serif" font-size="14.00">Ultrix&#45;32</text>
</g>
<!-- 4.2 BSD&#45;&gt;Ultrix&#45;32 -->
<g id="edge31" class="edge"><title>4.2 BSD&#45;&gt;Ultrix&#45;32</title>
<path fill="none" stroke="black" d="M344.603,-216.055C341.677,-208.176 338.126,-198.617 334.849,-189.794"/>
<polygon fill="black" stroke="black" points="338.077,-188.431 331.314,-180.275 331.515,-190.868 338.077,-188.431"/>
</g>
<!-- 4.4 BSD -->
<g id="node29" class="node"><title>4.4 BSD</title>
<ellipse fill="#b2dfee" stroke="#b2dfee" cx="426.897" cy="-90" rx="41.6928" ry="18"/>
<text text-anchor="middle" x="426.897" y="-86.3" font-family="Times,serif" font-size="14.00">4.4 BSD</text>
</g>
<!-- 4.3 BSD&#45;&gt;4.4 BSD -->
<g id="edge32" class="edge"><title>4.3 BSD&#45;&gt;4.4 BSD</title>
<path fill="none" stroke="black" d="M427.65,-143.697C427.54,-135.983 427.408,-126.712 427.285,-118.112"/>
<polygon fill="black" stroke="black" points="430.784,-118.053 427.142,-108.104 423.785,-118.153 430.784,-118.053"/>
</g>
<!-- FreeBSD -->
<g id="node30" class="node"><title>FreeBSD</title>
<ellipse fill="#b2dfee" stroke="#b2dfee" cx="324.897" cy="-18" rx="43.5923" ry="18"/>
<text text-anchor="middle" x="324.897" y="-14.3" font-family="Times,serif" font-size="14.00">FreeBSD</text>
</g>
<!-- 4.4 BSD&#45;&gt;FreeBSD -->
<g id="edge33" class="edge"><title>4.4 BSD&#45;&gt;FreeBSD</title>
<path fill="none" stroke="black" d="M405.763,-74.496C391.091,-64.4269 371.327,-50.8636 355.011,-39.6664"/>
<polygon fill="black" stroke="black" points="356.581,-36.499 346.356,-33.7263 352.62,-42.2706 356.581,-36.499"/>
</g>
<!-- NetBSD -->
<g id="node31" class="node"><title>NetBSD</title>
<ellipse fill="#b2dfee" stroke="#b2dfee" cx="426.897" cy="-18" rx="40.0939" ry="18"/>
<text text-anchor="middle" x="426.897" y="-14.3" font-family="Times,serif" font-size="14.00">NetBSD</text>
</g>
<!-- 4.4 BSD&#45;&gt;NetBSD -->
<g id="edge34" class="edge"><title>4.4 BSD&#45;&gt;NetBSD</title>
<path fill="none" stroke="black" d="M426.897,-71.6966C426.897,-63.9827 426.897,-54.7125 426.897,-46.1124"/>
<polygon fill="black" stroke="black" points="430.397,-46.1043 426.897,-36.1043 423.397,-46.1044 430.397,-46.1043"/>
</g>
<!-- OpenBSD -->
<g id="node32" class="node"><title>OpenBSD</title>
<ellipse fill="#b2dfee" stroke="#b2dfee" cx="531.897" cy="-18" rx="46.5926" ry="18"/>
<text text-anchor="middle" x="531.897" y="-14.3" font-family="Times,serif" font-size="14.00">OpenBSD</text>
</g>
<!-- 4.4 BSD&#45;&gt;OpenBSD -->
<g id="edge35" class="edge"><title>4.4 BSD&#45;&gt;OpenBSD</title>
<path fill="none" stroke="black" d="M448.653,-74.496C463.794,-64.4019 484.203,-50.7962 501.023,-39.5829"/>
<polygon fill="black" stroke="black" points="503.066,-42.4277 509.445,-33.9684 499.183,-36.6033 503.066,-42.4277"/>
</g>
<!-- PWB 1.2&#45;&gt;PWB 2.0 -->
<g id="edge38" class="edge"><title>PWB 1.2&#45;&gt;PWB 2.0</title>
<path fill="none" stroke="black" d="M653.938,-650.666C636.508,-640.237 612.705,-625.996 593.538,-614.529"/>
<polygon fill="black" stroke="black" points="595.203,-611.446 584.824,-609.315 591.609,-617.453 595.203,-611.446"/>
</g>
<!-- CB Unix 1 -->
<g id="node35" class="node"><title>CB Unix 1</title>
<ellipse fill="#b2dfee" stroke="#b2dfee" cx="837.897" cy="-594" rx="49.2915" ry="18"/>
<text text-anchor="middle" x="837.897" y="-590.3" font-family="Times,serif" font-size="14.00">CB Unix 1</text>
</g>
<!-- USG 1.0&#45;&gt;CB Unix 1 -->
<g id="edge39" class="edge"><title>USG 1.0&#45;&gt;CB Unix 1</title>
<path fill="none" stroke="black" d="M794.886,-648.765C801.783,-640.143 810.406,-629.365 818.116,-619.727"/>
<polygon fill="black" stroke="black" points="821.077,-621.629 824.591,-611.633 815.611,-617.256 821.077,-621.629"/>
</g>
<!-- USG 2.0 -->
<g id="node36" class="node"><title>USG 2.0</title>
<ellipse fill="#b2dfee" stroke="#b2dfee" cx="699.897" cy="-594" rx="42.4939" ry="18"/>
<text text-anchor="middle" x="699.897" y="-590.3" font-family="Times,serif" font-size="14.00">USG 2.0</text>
</g>
<!-- USG 1.0&#45;&gt;USG 2.0 -->
<g id="edge40" class="edge"><title>USG 1.0&#45;&gt;USG 2.0</title>
<path fill="none" stroke="black" d="M763.699,-649.465C752.552,-639.949 738.108,-627.619 725.782,-617.097"/>
<polygon fill="black" stroke="black" points="727.923,-614.323 718.045,-610.492 723.378,-619.646 727.923,-614.323"/>
</g>
<!-- CB Unix 2 -->
<g id="node37" class="node"><title>CB Unix 2</title>
<ellipse fill="#b2dfee" stroke="#b2dfee" cx="855.897" cy="-522" rx="49.2915" ry="18"/>
<text text-anchor="middle" x="855.897" y="-518.3" font-family="Times,serif" font-size="14.00">CB Unix 2</text>
</g>
<!-- CB Unix 1&#45;&gt;CB Unix 2 -->
<g id="edge41" class="edge"><title>CB Unix 1&#45;&gt;CB Unix 2</title>
<path fill="none" stroke="black" d="M842.255,-576.055C844.259,-568.261 846.686,-558.822 848.934,-550.079"/>
<polygon fill="black" stroke="black" points="852.354,-550.832 851.455,-540.275 845.575,-549.089 852.354,-550.832"/>
</g>
<!-- USG 3.0 -->
<g id="node41" class="node"><title>USG 3.0</title>
<ellipse fill="#b2dfee" stroke="#b2dfee" cx="618.897" cy="-522" rx="42.4939" ry="18"/>
<text text-anchor="middle" x="618.897" y="-518.3" font-family="Times,serif" font-size="14.00">USG 3.0</text>
</g>
<!-- USG 2.0&#45;&gt;USG 3.0 -->
<g id="edge45" class="edge"><title>USG 2.0&#45;&gt;USG 3.0</title>
<path fill="none" stroke="black" d="M681.921,-577.465C670.91,-567.949 656.642,-555.619 644.467,-545.097"/>
<polygon fill="black" stroke="black" points="646.678,-542.382 636.824,-538.492 642.101,-547.679 646.678,-542.382"/>
</g>
<!-- CB Unix 3 -->
<g id="node38" class="node"><title>CB Unix 3</title>
<ellipse fill="#b2dfee" stroke="#b2dfee" cx="797.897" cy="-450" rx="49.2915" ry="18"/>
<text text-anchor="middle" x="797.897" y="-446.3" font-family="Times,serif" font-size="14.00">CB Unix 3</text>
</g>
<!-- CB Unix 2&#45;&gt;CB Unix 3 -->
<g id="edge42" class="edge"><title>CB Unix 2&#45;&gt;CB Unix 3</title>
<path fill="none" stroke="black" d="M842.152,-504.411C834.929,-495.693 825.941,-484.845 817.955,-475.208"/>
<polygon fill="black" stroke="black" points="820.619,-472.937 811.544,-467.47 815.229,-477.403 820.619,-472.937"/>
</g>
<!-- Unix/TS++ -->
<g id="node39" class="node"><title>Unix/TS++</title>
<ellipse fill="#b2dfee" stroke="#b2dfee" cx="757.897" cy="-378" rx="51.9908" ry="18"/>
<text text-anchor="middle" x="757.897" y="-374.3" font-family="Times,serif" font-size="14.00">Unix/TS++</text>
</g>
<!-- CB Unix 3&#45;&gt;Unix/TS++ -->
<g id="edge43" class="edge"><title>CB Unix 3&#45;&gt;Unix/TS++</title>
<path fill="none" stroke="black" d="M788.214,-432.055C783.498,-423.801 777.727,-413.701 772.49,-404.538"/>
<polygon fill="black" stroke="black" points="775.491,-402.735 767.491,-395.789 769.414,-406.208 775.491,-402.735"/>
</g>
<!-- PDP&#45;11 Sys V -->
<g id="node40" class="node"><title>PDP&#45;11 Sys V</title>
<ellipse fill="#b2dfee" stroke="#b2dfee" cx="889.897" cy="-378" rx="62.2891" ry="18"/>
<text text-anchor="middle" x="889.897" y="-374.3" font-family="Times,serif" font-size="14.00">PDP&#45;11 Sys V</text>
</g>
<!-- CB Unix 3&#45;&gt;PDP&#45;11 Sys V -->
<g id="edge44" class="edge"><title>CB Unix 3&#45;&gt;PDP&#45;11 Sys V</title>
<path fill="none" stroke="black" d="M818.315,-433.465C830.765,-423.992 846.882,-411.729 860.669,-401.239"/>
<polygon fill="black" stroke="black" points="863.06,-403.818 868.899,-394.977 858.821,-398.247 863.06,-403.818"/>
</g>
<!-- CB Unix 3&#45;&gt;TS 4.0 -->
<g id="edge51" class="edge"><title>CB Unix 3&#45;&gt;TS 4.0</title>
<path fill="none" stroke="black" d="M760.386,-438.214C738.655,-430.062 712.575,-416.668 696.897,-396 683.506,-378.345 679.085,-353.321 677.824,-334.302"/>
<polygon fill="black" stroke="black" points="681.316,-334.017 677.408,-324.169 674.322,-334.304 681.316,-334.017"/>
</g>
<!-- Unix/TS++&#45;&gt;TS 4.0 -->
<g id="edge50" class="edge"><title>Unix/TS++&#45;&gt;TS 4.0</title>
<path fill="none" stroke="black" d="M739.744,-361.116C728.702,-351.454 714.455,-338.988 702.419,-328.456"/>
<polygon fill="black" stroke="black" points="704.715,-325.815 694.885,-321.864 700.106,-331.083 704.715,-325.815"/>
</g>
<!-- USG 3.0&#45;&gt;Unix/TS 3.0 -->
<g id="edge46" class="edge"><title>USG 3.0&#45;&gt;Unix/TS 3.0</title>
<path fill="none" stroke="black" d="M618.897,-503.697C618.897,-495.983 618.897,-486.712 618.897,-478.112"/>
<polygon fill="black" stroke="black" points="622.397,-478.104 618.897,-468.104 615.397,-478.104 622.397,-478.104"/>
</g>
<!-- Unix/TS 1.0 -->
<g id="node42" class="node"><title>Unix/TS 1.0</title>
<ellipse fill="#b2dfee" stroke="#b2dfee" cx="733.897" cy="-522" rx="54.6905" ry="18"/>
<text text-anchor="middle" x="733.897" y="-518.3" font-family="Times,serif" font-size="14.00">Unix/TS 1.0</text>
</g>
<!-- Unix/TS 1.0&#45;&gt;Unix/TS 3.0 -->
<g id="edge48" class="edge"><title>Unix/TS 1.0&#45;&gt;Unix/TS 3.0</title>
<path fill="none" stroke="black" d="M708.944,-505.811C692.518,-495.813 670.808,-482.598 652.821,-471.649"/>
<polygon fill="black" stroke="black" points="654.164,-468.369 643.802,-466.159 650.524,-474.349 654.164,-468.369"/>
</g>
<!-- System V.0 -->
<g id="node44" class="node"><title>System V.0</title>
<ellipse fill="#b2dfee" stroke="#b2dfee" cx="677.897" cy="-234" rx="52.7911" ry="18"/>
<text text-anchor="middle" x="677.897" y="-230.3" font-family="Times,serif" font-size="14.00">System V.0</text>
</g>
<!-- TS 4.0&#45;&gt;System V.0 -->
<g id="edge52" class="edge"><title>TS 4.0&#45;&gt;System V.0</title>
<path fill="none" stroke="black" d="M677.897,-287.697C677.897,-279.983 677.897,-270.712 677.897,-262.112"/>
<polygon fill="black" stroke="black" points="681.397,-262.104 677.897,-252.104 674.397,-262.104 681.397,-262.104"/>
</g>
<!-- System V.2 -->
<g id="node45" class="node"><title>System V.2</title>
<ellipse fill="#b2dfee" stroke="#b2dfee" cx="677.897" cy="-162" rx="52.7911" ry="18"/>
<text text-anchor="middle" x="677.897" y="-158.3" font-family="Times,serif" font-size="14.00">System V.2</text>
</g>
<!-- System V.0&#45;&gt;System V.2 -->
<g id="edge53" class="edge"><title>System V.0&#45;&gt;System V.2</title>
<path fill="none" stroke="black" d="M677.897,-215.697C677.897,-207.983 677.897,-198.712 677.897,-190.112"/>
<polygon fill="black" stroke="black" points="681.397,-190.104 677.897,-180.104 674.397,-190.104 681.397,-190.104"/>
</g>
<!-- System V.3 -->
<g id="node46" class="node"><title>System V.3</title>
<ellipse fill="#b2dfee" stroke="#b2dfee" cx="677.897" cy="-90" rx="52.7911" ry="18"/>
<text text-anchor="middle" x="677.897" y="-86.3" font-family="Times,serif" font-size="14.00">System V.3</text>
</g>
<!-- System V.2&#45;&gt;System V.3 -->
<g id="edge54" class="edge"><title>System V.2&#45;&gt;System V.3</title>
<path fill="none" stroke="black" d="M677.897,-143.697C677.897,-135.983 677.897,-126.712 677.897,-118.112"/>
<polygon fill="black" stroke="black" points="681.397,-118.104 677.897,-108.104 674.397,-118.104 681.397,-118.104"/>
</g>
<!-- System V.4 -->
<g id="node47" class="node"><title>System V.4</title>
<ellipse fill="#b2dfee" stroke="#b2dfee" cx="677.897" cy="-18" rx="52.7911" ry="18"/>
<text text-anchor="middle" x="677.897" y="-14.3" font-family="Times,serif" font-size="14.00">System V.4</text>
</g>
<!-- System V.3&#45;&gt;System V.4 -->
<g id="edge55" class="edge"><title>System V.3&#45;&gt;System V.4</title>
<path fill="none" stroke="black" d="M677.897,-71.6966C677.897,-63.9827 677.897,-54.7125 677.897,-46.1124"/>
<polygon fill="black" stroke="black" points="681.397,-46.1043 677.897,-36.1043 674.397,-46.1044 681.397,-46.1043"/>
</g>
</g>
</svg>
