<?xml version="1.0" encoding="UTF-8" standalone="no"?>
<!DOCTYPE svg PUBLIC "-//W3C//DTD SVG 1.1//EN"
 "http://www.w3.org/Graphics/SVG/1.1/DTD/svg11.dtd">
<!-- Generated by graphviz version 2.38.0 (20140413.2041)
 -->
<!-- Title: G Pages: 1 -->
<svg width="222pt" height="1534pt"
 viewBox="0.00 0.00 222.00 1533.75" xmlns="http://www.w3.org/2000/svg" xmlns:xlink="http://www.w3.org/1999/xlink">
<g id="graph0" class="graph" transform="scale(1 1) rotate(0) translate(4 1529.75)">
<title>G</title>
<polygon fill="white" stroke="none" points="-4,4 -4,-1529.75 218,-1529.75 218,4 -4,4"/>
<text text-anchor="middle" x="107" y="-7.8" font-family="Times,serif" font-size="14.00">SelfLeft</text>
<!-- node11 -->
<g id="node1" class="node"><title>node11</title>
<polygon fill="none" stroke="black" points="214,-1519 158,-1519 158,-1483 214,-1483 214,-1519"/>
<text text-anchor="middle" x="186" y="-1497.3" font-family="Times,serif" font-size="14.00">node11</text>
</g>
<!-- node11&#45;&gt;node11 -->
<g id="edge1" class="edge"><title>node11:nw&#45;&gt;node11:nw</title>
<path fill="none" stroke="black" d="M158,-1519C152,-1528 140,-1528 140,-1519 140,-1513.23 144.925,-1511.16 150.042,-1512.78"/>
<polygon fill="black" stroke="black" points="147.965,-1515.6 158,-1519 152.274,-1510.09 147.965,-1515.6"/>
<text text-anchor="middle" x="70" y="-1497.3" font-family="Times,serif" font-size="14.00">tailport=nw headport=nw</text>
</g>
<!-- node12 -->
<g id="node2" class="node"><title>node12</title>
<polygon fill="none" stroke="black" points="214,-1446 158,-1446 158,-1410 214,-1410 214,-1446"/>
<text text-anchor="middle" x="186" y="-1424.3" font-family="Times,serif" font-size="14.00">node12</text>
</g>
<!-- node11&#45;&gt;node12 -->
<g id="edge2" class="edge"><title>node11&#45;&gt;node12</title>
<path fill="none" stroke="black" d="M186,-1482.81C186,-1474.79 186,-1465.05 186,-1456.07"/>
<polygon fill="black" stroke="black" points="189.5,-1456.03 186,-1446.03 182.5,-1456.03 189.5,-1456.03"/>
</g>
<!-- node12&#45;&gt;node12 -->
<g id="edge3" class="edge"><title>node12:nw&#45;&gt;node12:n</title>
<path fill="none" stroke="black" d="M158,-1446C152,-1437 140,-1437 140,-1446 140,-1453.38 160.636,-1454.71 176.516,-1449.98"/>
<polygon fill="black" stroke="black" points="178.133,-1453.1 186,-1446 175.425,-1446.64 178.133,-1453.1"/>
<text text-anchor="middle" x="75" y="-1424.3" font-family="Times,serif" font-size="14.00">tailport=nw headport=n</text>
</g>
<!-- node16 -->
<g id="node3" class="node"><title>node16</title>
<polygon fill="none" stroke="black" points="214,-1373 158,-1373 158,-1337 214,-1337 214,-1373"/>
<text text-anchor="middle" x="186" y="-1351.3" font-family="Times,serif" font-size="14.00">node16</text>
</g>
<!-- node12&#45;&gt;node16 -->
<g id="edge4" class="edge"><title>node12&#45;&gt;node16</title>
<path fill="none" stroke="black" d="M186,-1409.81C186,-1401.79 186,-1392.05 186,-1383.07"/>
<polygon fill="black" stroke="black" points="189.5,-1383.03 186,-1373.03 182.5,-1383.03 189.5,-1383.03"/>
</g>
<!-- node16&#45;&gt;node16 -->
<g id="edge5" class="edge"><title>node16:nw&#45;&gt;node16:s</title>
<path fill="none" stroke="black" d="M158,-1373C152,-1382 140,-1382 140,-1355 140,-1332.85 160.636,-1328.87 176.516,-1333.12"/>
<polygon fill="black" stroke="black" points="175.419,-1336.46 186,-1337 178.067,-1329.98 175.419,-1336.46"/>
<text text-anchor="middle" x="75.5" y="-1351.3" font-family="Times,serif" font-size="14.00">tailport=nw headport=s</text>
</g>
<!-- node17 -->
<g id="node4" class="node"><title>node17</title>
<polygon fill="none" stroke="black" points="214,-1300 158,-1300 158,-1264 214,-1264 214,-1300"/>
<text text-anchor="middle" x="186" y="-1278.3" font-family="Times,serif" font-size="14.00">node17</text>
</g>
<!-- node16&#45;&gt;node17 -->
<g id="edge6" class="edge"><title>node16&#45;&gt;node17</title>
<path fill="none" stroke="black" d="M186,-1336.81C186,-1328.79 186,-1319.05 186,-1310.07"/>
<polygon fill="black" stroke="black" points="189.5,-1310.03 186,-1300.03 182.5,-1310.03 189.5,-1310.03"/>
</g>
<!-- node17&#45;&gt;node17 -->
<g id="edge7" class="edge"><title>node17:nw&#45;&gt;node17:sw</title>
<path fill="none" stroke="black" d="M158,-1300C152,-1309 140,-1309 140,-1282 140,-1265.55 144.456,-1259.12 149.295,-1258.65"/>
<polygon fill="black" stroke="black" points="147.649,-1261.74 158,-1264 151.316,-1255.78 147.649,-1261.74"/>
<text text-anchor="middle" x="70.5" y="-1278.3" font-family="Times,serif" font-size="14.00">tailport=nw headport=sw</text>
</g>
<!-- node18 -->
<g id="node5" class="node"><title>node18</title>
<polygon fill="none" stroke="black" points="214,-1227 158,-1227 158,-1191 214,-1191 214,-1227"/>
<text text-anchor="middle" x="186" y="-1205.3" font-family="Times,serif" font-size="14.00">node18</text>
</g>
<!-- node17&#45;&gt;node18 -->
<g id="edge8" class="edge"><title>node17&#45;&gt;node18</title>
<path fill="none" stroke="black" d="M186,-1263.81C186,-1255.79 186,-1246.05 186,-1237.07"/>
<polygon fill="black" stroke="black" points="189.5,-1237.03 186,-1227.03 182.5,-1237.03 189.5,-1237.03"/>
</g>
<!-- node18&#45;&gt;node18 -->
<g id="edge9" class="edge"><title>node18:nw&#45;&gt;node18:w</title>
<path fill="none" stroke="black" d="M158,-1227C152,-1236 140,-1236 140,-1218 140,-1206.75 144.688,-1202.53 149.668,-1203.15"/>
<polygon fill="black" stroke="black" points="147.805,-1206.12 158,-1209 151.829,-1200.39 147.805,-1206.12"/>
<text text-anchor="middle" x="73.5" y="-1205.3" font-family="Times,serif" font-size="14.00">tailport=nw headport=w</text>
</g>
<!-- node21 -->
<g id="node6" class="node"><title>node21</title>
<polygon fill="none" stroke="black" points="214,-1154 158,-1154 158,-1118 214,-1118 214,-1154"/>
<text text-anchor="middle" x="186" y="-1132.3" font-family="Times,serif" font-size="14.00">node21</text>
</g>
<!-- node18&#45;&gt;node21 -->
<g id="edge10" class="edge"><title>node18&#45;&gt;node21</title>
<path fill="none" stroke="black" d="M186,-1190.81C186,-1182.79 186,-1173.05 186,-1164.07"/>
<polygon fill="black" stroke="black" points="189.5,-1164.03 186,-1154.03 182.5,-1164.03 189.5,-1164.03"/>
</g>
<!-- node21&#45;&gt;node21 -->
<g id="edge11" class="edge"><title>node21:n&#45;&gt;node21:nw</title>
<path fill="none" stroke="black" d="M186,-1154C170.667,-1163 140,-1163 140,-1154 140,-1148.23 144.925,-1146.16 150.042,-1147.78"/>
<polygon fill="black" stroke="black" points="147.965,-1150.6 158,-1154 152.274,-1145.09 147.965,-1150.6"/>
<text text-anchor="middle" x="75" y="-1132.3" font-family="Times,serif" font-size="14.00">tailport=n headport=nw</text>
</g>
<!-- node27 -->
<g id="node7" class="node"><title>node27</title>
<polygon fill="none" stroke="black" points="214,-1081 158,-1081 158,-1045 214,-1045 214,-1081"/>
<text text-anchor="middle" x="186" y="-1059.3" font-family="Times,serif" font-size="14.00">node27</text>
</g>
<!-- node21&#45;&gt;node27 -->
<g id="edge12" class="edge"><title>node21&#45;&gt;node27</title>
<path fill="none" stroke="black" d="M186,-1117.81C186,-1109.79 186,-1100.05 186,-1091.07"/>
<polygon fill="black" stroke="black" points="189.5,-1091.03 186,-1081.03 182.5,-1091.03 189.5,-1091.03"/>
</g>
<!-- node27&#45;&gt;node27 -->
<g id="edge13" class="edge"><title>node27:n&#45;&gt;node27:sw</title>
<path fill="none" stroke="black" d="M186,-1081C170.667,-1090 140,-1090 140,-1063 140,-1046.55 144.456,-1040.12 149.295,-1039.65"/>
<polygon fill="black" stroke="black" points="147.649,-1042.74 158,-1045 151.316,-1036.78 147.649,-1042.74"/>
<text text-anchor="middle" x="75.5" y="-1059.3" font-family="Times,serif" font-size="14.00">tailport=n headport=sw</text>
</g>
<!-- node28 -->
<g id="node8" class="node"><title>node28</title>
<polygon fill="none" stroke="black" points="214,-1008 158,-1008 158,-972 214,-972 214,-1008"/>
<text text-anchor="middle" x="186" y="-986.3" font-family="Times,serif" font-size="14.00">node28</text>
</g>
<!-- node27&#45;&gt;node28 -->
<g id="edge14" class="edge"><title>node27&#45;&gt;node28</title>
<path fill="none" stroke="black" d="M186,-1044.81C186,-1036.79 186,-1027.05 186,-1018.07"/>
<polygon fill="black" stroke="black" points="189.5,-1018.03 186,-1008.03 182.5,-1018.03 189.5,-1018.03"/>
</g>
<!-- node28&#45;&gt;node28 -->
<g id="edge15" class="edge"><title>node28:n&#45;&gt;node28:w</title>
<path fill="none" stroke="black" d="M186,-1008C170.667,-1017 140,-1017 140,-999 140,-987.75 144.688,-983.531 149.668,-984.146"/>
<polygon fill="black" stroke="black" points="147.805,-987.115 158,-990 151.829,-981.388 147.805,-987.115"/>
<text text-anchor="middle" x="78" y="-986.3" font-family="Times,serif" font-size="14.00">tailport=n headport=w</text>
</g>
<!-- node61 -->
<g id="node9" class="node"><title>node61</title>
<polygon fill="none" stroke="black" points="214,-935 158,-935 158,-899 214,-899 214,-935"/>
<text text-anchor="middle" x="186" y="-913.3" font-family="Times,serif" font-size="14.00">node61</text>
</g>
<!-- node28&#45;&gt;node61 -->
<g id="edge16" class="edge"><title>node28&#45;&gt;node61</title>
<path fill="none" stroke="black" d="M186,-971.813C186,-963.789 186,-954.047 186,-945.069"/>
<polygon fill="black" stroke="black" points="189.5,-945.029 186,-935.029 182.5,-945.029 189.5,-945.029"/>
</g>
<!-- node61&#45;&gt;node61 -->
<g id="edge17" class="edge"><title>node61:s&#45;&gt;node61:nw</title>
<path fill="none" stroke="black" d="M186,-899C170.667,-890 140,-890 140,-917 140,-933.453 144.456,-939.88 149.295,-940.354"/>
<polygon fill="black" stroke="black" points="151.316,-943.22 158,-935 147.649,-937.258 151.316,-943.22"/>
<text text-anchor="middle" x="75.5" y="-913.3" font-family="Times,serif" font-size="14.00">tailport=s headport=nw</text>
</g>
<!-- node67 -->
<g id="node10" class="node"><title>node67</title>
<polygon fill="none" stroke="black" points="214,-862 158,-862 158,-826 214,-826 214,-862"/>
<text text-anchor="middle" x="186" y="-840.3" font-family="Times,serif" font-size="14.00">node67</text>
</g>
<!-- node61&#45;&gt;node67 -->
<g id="edge18" class="edge"><title>node61&#45;&gt;node67</title>
<path fill="none" stroke="black" d="M186,-898.813C186,-890.789 186,-881.047 186,-872.069"/>
<polygon fill="black" stroke="black" points="189.5,-872.029 186,-862.029 182.5,-872.029 189.5,-872.029"/>
</g>
<!-- node67&#45;&gt;node67 -->
<g id="edge19" class="edge"><title>node67:s&#45;&gt;node67:sw</title>
<path fill="none" stroke="black" d="M186,-826C170.667,-817 140,-817 140,-826 140,-831.766 144.925,-833.838 150.042,-832.216"/>
<polygon fill="black" stroke="black" points="152.274,-834.914 158,-826 147.965,-829.397 152.274,-834.914"/>
<text text-anchor="middle" x="76.5" y="-840.3" font-family="Times,serif" font-size="14.00">tailport=s headport=sw</text>
</g>
<!-- node68 -->
<g id="node11" class="node"><title>node68</title>
<polygon fill="none" stroke="black" points="214,-789 158,-789 158,-753 214,-753 214,-789"/>
<text text-anchor="middle" x="186" y="-767.3" font-family="Times,serif" font-size="14.00">node68</text>
</g>
<!-- node67&#45;&gt;node68 -->
<g id="edge20" class="edge"><title>node67&#45;&gt;node68</title>
<path fill="none" stroke="black" d="M186,-825.813C186,-817.789 186,-808.047 186,-799.069"/>
<polygon fill="black" stroke="black" points="189.5,-799.029 186,-789.029 182.5,-799.029 189.5,-799.029"/>
</g>
<!-- node68&#45;&gt;node68 -->
<g id="edge21" class="edge"><title>node68:s&#45;&gt;node68:w</title>
<path fill="none" stroke="black" d="M186,-753C170.667,-744 140,-744 140,-762 140,-773.25 144.688,-777.469 149.668,-776.854"/>
<polygon fill="black" stroke="black" points="151.829,-779.612 158,-771 147.805,-773.885 151.829,-779.612"/>
<text text-anchor="middle" x="79" y="-767.3" font-family="Times,serif" font-size="14.00">tailport=s headport=w</text>
</g>
<!-- node71 -->
<g id="node12" class="node"><title>node71</title>
<polygon fill="none" stroke="black" points="214,-716 158,-716 158,-680 214,-680 214,-716"/>
<text text-anchor="middle" x="186" y="-694.3" font-family="Times,serif" font-size="14.00">node71</text>
</g>
<!-- node68&#45;&gt;node71 -->
<g id="edge22" class="edge"><title>node68&#45;&gt;node71</title>
<path fill="none" stroke="black" d="M186,-752.813C186,-744.789 186,-735.047 186,-726.069"/>
<polygon fill="black" stroke="black" points="189.5,-726.029 186,-716.029 182.5,-726.029 189.5,-726.029"/>
</g>
<!-- node71&#45;&gt;node71 -->
<g id="edge23" class="edge"><title>node71:sw&#45;&gt;node71:nw</title>
<path fill="none" stroke="black" d="M158,-680C152,-671 140,-671 140,-698 140,-714.453 144.456,-720.88 149.295,-721.354"/>
<polygon fill="black" stroke="black" points="151.316,-724.22 158,-716 147.649,-718.258 151.316,-724.22"/>
<text text-anchor="middle" x="70.5" y="-694.3" font-family="Times,serif" font-size="14.00">tailport=sw headport=nw</text>
</g>
<!-- node72 -->
<g id="node13" class="node"><title>node72</title>
<polygon fill="none" stroke="black" points="214,-643 158,-643 158,-607 214,-607 214,-643"/>
<text text-anchor="middle" x="186" y="-621.3" font-family="Times,serif" font-size="14.00">node72</text>
</g>
<!-- node71&#45;&gt;node72 -->
<g id="edge24" class="edge"><title>node71&#45;&gt;node72</title>
<path fill="none" stroke="black" d="M186,-679.813C186,-671.789 186,-662.047 186,-653.069"/>
<polygon fill="black" stroke="black" points="189.5,-653.029 186,-643.029 182.5,-653.029 189.5,-653.029"/>
</g>
<!-- node72&#45;&gt;node72 -->
<g id="edge25" class="edge"><title>node72:sw&#45;&gt;node72:n</title>
<path fill="none" stroke="black" d="M158,-607C152,-598 140,-598 140,-625 140,-647.148 160.636,-651.128 176.516,-646.875"/>
<polygon fill="black" stroke="black" points="178.067,-650.023 186,-643 175.419,-643.543 178.067,-650.023"/>
<text text-anchor="middle" x="75.5" y="-621.3" font-family="Times,serif" font-size="14.00">tailport=sw headport=n</text>
</g>
<!-- node76 -->
<g id="node14" class="node"><title>node76</title>
<polygon fill="none" stroke="black" points="214,-570 158,-570 158,-534 214,-534 214,-570"/>
<text text-anchor="middle" x="186" y="-548.3" font-family="Times,serif" font-size="14.00">node76</text>
</g>
<!-- node72&#45;&gt;node76 -->
<g id="edge26" class="edge"><title>node72&#45;&gt;node76</title>
<path fill="none" stroke="black" d="M186,-606.813C186,-598.789 186,-589.047 186,-580.069"/>
<polygon fill="black" stroke="black" points="189.5,-580.029 186,-570.029 182.5,-580.029 189.5,-580.029"/>
</g>
<!-- node76&#45;&gt;node76 -->
<g id="edge27" class="edge"><title>node76:sw&#45;&gt;node76:s</title>
<path fill="none" stroke="black" d="M158,-534C152,-543 140,-543 140,-534 140,-526.617 160.636,-525.291 176.516,-530.02"/>
<polygon fill="black" stroke="black" points="175.425,-533.358 186,-534 178.133,-526.903 175.425,-533.358"/>
<text text-anchor="middle" x="76.5" y="-548.3" font-family="Times,serif" font-size="14.00">tailport=sw headport=s</text>
</g>
<!-- node77 -->
<g id="node15" class="node"><title>node77</title>
<polygon fill="none" stroke="black" points="214,-497 158,-497 158,-461 214,-461 214,-497"/>
<text text-anchor="middle" x="186" y="-475.3" font-family="Times,serif" font-size="14.00">node77</text>
</g>
<!-- node76&#45;&gt;node77 -->
<g id="edge28" class="edge"><title>node76&#45;&gt;node77</title>
<path fill="none" stroke="black" d="M186,-533.813C186,-525.789 186,-516.047 186,-507.069"/>
<polygon fill="black" stroke="black" points="189.5,-507.029 186,-497.029 182.5,-507.029 189.5,-507.029"/>
</g>
<!-- node77&#45;&gt;node77 -->
<g id="edge29" class="edge"><title>node77:sw&#45;&gt;node77:sw</title>
<path fill="none" stroke="black" d="M158,-461C152,-470 140,-470 140,-461 140,-455.234 144.925,-453.162 150.042,-454.784"/>
<polygon fill="black" stroke="black" points="147.965,-457.603 158,-461 152.274,-452.086 147.965,-457.603"/>
<text text-anchor="middle" x="71.5" y="-475.3" font-family="Times,serif" font-size="14.00">tailport=sw headport=sw</text>
</g>
<!-- node78 -->
<g id="node16" class="node"><title>node78</title>
<polygon fill="none" stroke="black" points="214,-424 158,-424 158,-388 214,-388 214,-424"/>
<text text-anchor="middle" x="186" y="-402.3" font-family="Times,serif" font-size="14.00">node78</text>
</g>
<!-- node77&#45;&gt;node78 -->
<g id="edge30" class="edge"><title>node77&#45;&gt;node78</title>
<path fill="none" stroke="black" d="M186,-460.813C186,-452.789 186,-443.047 186,-434.069"/>
<polygon fill="black" stroke="black" points="189.5,-434.029 186,-424.029 182.5,-434.029 189.5,-434.029"/>
</g>
<!-- node78&#45;&gt;node78 -->
<g id="edge31" class="edge"><title>node78:sw&#45;&gt;node78:w</title>
<path fill="none" stroke="black" d="M158,-388C152,-379 140,-379 140,-397 140,-408.25 144.688,-412.469 149.668,-411.854"/>
<polygon fill="black" stroke="black" points="151.829,-414.612 158,-406 147.805,-408.885 151.829,-414.612"/>
<text text-anchor="middle" x="74" y="-402.3" font-family="Times,serif" font-size="14.00">tailport=sw headport=w</text>
</g>
<!-- node81 -->
<g id="node17" class="node"><title>node81</title>
<polygon fill="none" stroke="black" points="214,-351 158,-351 158,-315 214,-315 214,-351"/>
<text text-anchor="middle" x="186" y="-329.3" font-family="Times,serif" font-size="14.00">node81</text>
</g>
<!-- node78&#45;&gt;node81 -->
<g id="edge32" class="edge"><title>node78&#45;&gt;node81</title>
<path fill="none" stroke="black" d="M186,-387.813C186,-379.789 186,-370.047 186,-361.069"/>
<polygon fill="black" stroke="black" points="189.5,-361.029 186,-351.029 182.5,-361.029 189.5,-361.029"/>
</g>
<!-- node81&#45;&gt;node81 -->
<g id="edge33" class="edge"><title>node81:w&#45;&gt;node81:nw</title>
<path fill="none" stroke="black" d="M158,-333C152,-324 140,-324 140,-342 140,-353.25 144.688,-357.469 149.668,-356.854"/>
<polygon fill="black" stroke="black" points="151.829,-359.612 158,-351 147.805,-353.885 151.829,-359.612"/>
<text text-anchor="middle" x="73.5" y="-329.3" font-family="Times,serif" font-size="14.00">tailport=w headport=nw</text>
</g>
<!-- node82 -->
<g id="node18" class="node"><title>node82</title>
<polygon fill="none" stroke="black" points="214,-278 158,-278 158,-242 214,-242 214,-278"/>
<text text-anchor="middle" x="186" y="-256.3" font-family="Times,serif" font-size="14.00">node82</text>
</g>
<!-- node81&#45;&gt;node82 -->
<g id="edge34" class="edge"><title>node81&#45;&gt;node82</title>
<path fill="none" stroke="black" d="M186,-314.813C186,-306.789 186,-297.047 186,-288.069"/>
<polygon fill="black" stroke="black" points="189.5,-288.029 186,-278.029 182.5,-288.029 189.5,-288.029"/>
</g>
<!-- node82&#45;&gt;node82 -->
<g id="edge35" class="edge"><title>node82:w&#45;&gt;node82:n</title>
<path fill="none" stroke="black" d="M158,-260C152,-251 140,-251 140,-269 140,-283.766 160.636,-286.419 176.516,-281.928"/>
<polygon fill="black" stroke="black" points="178.1,-285.06 186,-278 175.422,-278.593 178.1,-285.06"/>
<text text-anchor="middle" x="78" y="-256.3" font-family="Times,serif" font-size="14.00">tailport=w headport=n</text>
</g>
<!-- node86 -->
<g id="node19" class="node"><title>node86</title>
<polygon fill="none" stroke="black" points="214,-205 158,-205 158,-169 214,-169 214,-205"/>
<text text-anchor="middle" x="186" y="-183.3" font-family="Times,serif" font-size="14.00">node86</text>
</g>
<!-- node82&#45;&gt;node86 -->
<g id="edge36" class="edge"><title>node82&#45;&gt;node86</title>
<path fill="none" stroke="black" d="M186,-241.813C186,-233.789 186,-224.047 186,-215.069"/>
<polygon fill="black" stroke="black" points="189.5,-215.029 186,-205.029 182.5,-215.029 189.5,-215.029"/>
</g>
<!-- node86&#45;&gt;node86 -->
<g id="edge37" class="edge"><title>node86:w&#45;&gt;node86:s</title>
<path fill="none" stroke="black" d="M158,-187C152,-196 140,-196 140,-178 140,-163.234 160.636,-160.581 176.516,-165.072"/>
<polygon fill="black" stroke="black" points="175.422,-168.407 186,-169 178.1,-161.94 175.422,-168.407"/>
<text text-anchor="middle" x="79" y="-183.3" font-family="Times,serif" font-size="14.00">tailport=w headport=s</text>
</g>
<!-- node87 -->
<g id="node20" class="node"><title>node87</title>
<polygon fill="none" stroke="black" points="214,-132 158,-132 158,-96 214,-96 214,-132"/>
<text text-anchor="middle" x="186" y="-110.3" font-family="Times,serif" font-size="14.00">node87</text>
</g>
<!-- node86&#45;&gt;node87 -->
<g id="edge38" class="edge"><title>node86&#45;&gt;node87</title>
<path fill="none" stroke="black" d="M186,-168.813C186,-160.789 186,-151.047 186,-142.069"/>
<polygon fill="black" stroke="black" points="189.5,-142.029 186,-132.029 182.5,-142.029 189.5,-142.029"/>
</g>
<!-- node87&#45;&gt;node87 -->
<g id="edge39" class="edge"><title>node87:w&#45;&gt;node87:sw</title>
<path fill="none" stroke="black" d="M158,-114C152,-123 140,-123 140,-105 140,-93.75 144.688,-89.5312 149.668,-90.1465"/>
<polygon fill="black" stroke="black" points="147.805,-93.1153 158,-96 151.829,-87.3875 147.805,-93.1153"/>
<text text-anchor="middle" x="74" y="-110.3" font-family="Times,serif" font-size="14.00">tailport=w headport=sw</text>
</g>
<!-- node88 -->
<g id="node21" class="node"><title>node88</title>
<polygon fill="none" stroke="black" points="214,-59 158,-59 158,-23 214,-23 214,-59"/>
<text text-anchor="middle" x="186" y="-37.3" font-family="Times,serif" font-size="14.00">node88</text>
</g>
<!-- node87&#45;&gt;node88 -->
<g id="edge40" class="edge"><title>node87&#45;&gt;node88</title>
<path fill="none" stroke="black" d="M186,-95.8129C186,-87.7895 186,-78.0475 186,-69.0691"/>
<polygon fill="black" stroke="black" points="189.5,-69.0288 186,-59.0288 182.5,-69.0289 189.5,-69.0288"/>
</g>
<!-- node88&#45;&gt;node88 -->
<g id="edge41" class="edge"><title>node88:w&#45;&gt;node88:w</title>
<path fill="none" stroke="black" d="M158,-41C152,-50 140,-50 140,-41 140,-35.2344 144.925,-33.1624 150.042,-34.7839"/>
<polygon fill="black" stroke="black" points="147.965,-37.6025 158,-41 152.274,-32.0859 147.965,-37.6025"/>
<text text-anchor="middle" x="76.5" y="-37.3" font-family="Times,serif" font-size="14.00">tailport=w headport=w</text>
</g>
</g>
</svg>
