<?xml version="1.0" encoding="UTF-8" standalone="no"?>
<!DOCTYPE svg PUBLIC "-//W3C//DTD SVG 1.1//EN"
 "http://www.w3.org/Graphics/SVG/1.1/DTD/svg11.dtd">
<!-- Generated by graphviz version 2.38.0 (20140413.2041)
 -->
<!-- Title: G Pages: 1 -->
<svg width="239pt" height="2300pt"
 viewBox="0.00 0.00 238.79 2299.66" xmlns="http://www.w3.org/2000/svg" xmlns:xlink="http://www.w3.org/1999/xlink">
<g id="graph0" class="graph" transform="scale(1 1) rotate(0) translate(4 2295.66)">
<title>G</title>
<polygon fill="white" stroke="none" points="-4,4 -4,-2295.66 234.794,-2295.66 234.794,4 -4,4"/>
<text text-anchor="middle" x="115.397" y="-7.8" font-family="Times,serif" font-size="14.00">SelfLeft</text>
<!-- node11 -->
<g id="node1" class="node"><title>node11</title>
<ellipse fill="none" stroke="black" cx="194.397" cy="-2255.27" rx="36.2938" ry="36.2938"/>
<text text-anchor="middle" x="194.397" y="-2251.57" font-family="Times,serif" font-size="14.00">node11</text>
</g>
<!-- node11&#45;&gt;node11 -->
<g id="edge1" class="edge"><title>node11:nw&#45;&gt;node11:nw</title>
<path fill="none" stroke="black" d="M168.397,-2281.27C152,-2294.77 140,-2294.77 140,-2281.27 140,-2270.19 148.075,-2268.2 160.028,-2275.3"/>
<polygon fill="black" stroke="black" points="158.223,-2278.31 168.397,-2281.27 162.288,-2272.61 158.223,-2278.31"/>
<text text-anchor="middle" x="70" y="-2251.57" font-family="Times,serif" font-size="14.00">tailport=nw headport=nw</text>
</g>
<!-- node12 -->
<g id="node2" class="node"><title>node12</title>
<ellipse fill="none" stroke="black" cx="194.397" cy="-2145.47" rx="36.2938" ry="36.2938"/>
<text text-anchor="middle" x="194.397" y="-2141.77" font-family="Times,serif" font-size="14.00">node12</text>
</g>
<!-- node11&#45;&gt;node12 -->
<g id="edge2" class="edge"><title>node11&#45;&gt;node12</title>
<path fill="none" stroke="black" d="M194.397,-2218.67C194.397,-2210.21 194.397,-2201.06 194.397,-2192.22"/>
<polygon fill="black" stroke="black" points="197.897,-2192.03 194.397,-2182.03 190.897,-2192.03 197.897,-2192.03"/>
</g>
<!-- node12&#45;&gt;node12 -->
<g id="edge3" class="edge"><title>node12:nw&#45;&gt;node12:n</title>
<path fill="none" stroke="black" d="M168.397,-2171.47C152,-2157.97 140,-2157.97 140,-2176.97 140,-2193.23 166.539,-2195.58 185.563,-2187.46"/>
<polygon fill="black" stroke="black" points="187.412,-2190.44 194.397,-2182.47 183.969,-2184.35 187.412,-2190.44"/>
<text text-anchor="middle" x="75" y="-2141.77" font-family="Times,serif" font-size="14.00">tailport=nw headport=n</text>
</g>
<!-- node16 -->
<g id="node3" class="node"><title>node16</title>
<ellipse fill="none" stroke="black" cx="194.397" cy="-2035.68" rx="36.2938" ry="36.2938"/>
<text text-anchor="middle" x="194.397" y="-2031.98" font-family="Times,serif" font-size="14.00">node16</text>
</g>
<!-- node12&#45;&gt;node16 -->
<g id="edge4" class="edge"><title>node12&#45;&gt;node16</title>
<path fill="none" stroke="black" d="M194.397,-2108.88C194.397,-2100.42 194.397,-2091.27 194.397,-2082.43"/>
<polygon fill="black" stroke="black" points="197.897,-2082.24 194.397,-2072.24 190.897,-2082.24 197.897,-2082.24"/>
</g>
<!-- node16&#45;&gt;node16 -->
<g id="edge5" class="edge"><title>node16:nw&#45;&gt;node16:s</title>
<path fill="none" stroke="black" d="M168.397,-2061.68C152,-2075.18 140,-2075.18 140,-2030.18 140,-1991.68 166.539,-1986.12 185.563,-1993.77"/>
<polygon fill="black" stroke="black" points="183.956,-1996.88 194.397,-1998.68 187.358,-1990.76 183.956,-1996.88"/>
<text text-anchor="middle" x="75.5" y="-2031.98" font-family="Times,serif" font-size="14.00">tailport=nw headport=s</text>
</g>
<!-- node17 -->
<g id="node4" class="node"><title>node17</title>
<ellipse fill="none" stroke="black" cx="194.397" cy="-1925.89" rx="36.2938" ry="36.2938"/>
<text text-anchor="middle" x="194.397" y="-1922.19" font-family="Times,serif" font-size="14.00">node17</text>
</g>
<!-- node16&#45;&gt;node17 -->
<g id="edge6" class="edge"><title>node16&#45;&gt;node17</title>
<path fill="none" stroke="black" d="M194.397,-1999.09C194.397,-1990.62 194.397,-1981.48 194.397,-1972.63"/>
<polygon fill="black" stroke="black" points="197.897,-1972.44 194.397,-1962.44 190.897,-1972.44 197.897,-1972.44"/>
</g>
<!-- node17&#45;&gt;node17 -->
<g id="edge7" class="edge"><title>node17:nw&#45;&gt;node17:sw</title>
<path fill="none" stroke="black" d="M168.397,-1951.89C152,-1965.39 140,-1965.39 140,-1925.89 140,-1893.48 148.075,-1887.66 160.028,-1894.07"/>
<polygon fill="black" stroke="black" points="158.188,-1897.05 168.397,-1899.89 162.184,-1891.3 158.188,-1897.05"/>
<text text-anchor="middle" x="70.5" y="-1922.19" font-family="Times,serif" font-size="14.00">tailport=nw headport=sw</text>
</g>
<!-- node18 -->
<g id="node5" class="node"><title>node18</title>
<ellipse fill="none" stroke="black" cx="194.397" cy="-1816.09" rx="36.2938" ry="36.2938"/>
<text text-anchor="middle" x="194.397" y="-1812.39" font-family="Times,serif" font-size="14.00">node18</text>
</g>
<!-- node17&#45;&gt;node18 -->
<g id="edge8" class="edge"><title>node17&#45;&gt;node18</title>
<path fill="none" stroke="black" d="M194.397,-1889.29C194.397,-1880.83 194.397,-1871.68 194.397,-1862.84"/>
<polygon fill="black" stroke="black" points="197.897,-1862.65 194.397,-1852.65 190.897,-1862.65 197.897,-1862.65"/>
</g>
<!-- node18&#45;&gt;node18 -->
<g id="edge9" class="edge"><title>node18:nw&#45;&gt;node18:w</title>
<path fill="none" stroke="black" d="M168.397,-1842.09C152,-1855.59 140,-1855.59 140,-1829.09 140,-1810.46 145.933,-1804.93 151.331,-1807.98"/>
<polygon fill="black" stroke="black" points="148.606,-1810.18 157.397,-1816.09 154.212,-1805.99 148.606,-1810.18"/>
<text text-anchor="middle" x="73.5" y="-1812.39" font-family="Times,serif" font-size="14.00">tailport=nw headport=w</text>
</g>
<!-- node21 -->
<g id="node6" class="node"><title>node21</title>
<ellipse fill="none" stroke="black" cx="194.397" cy="-1706.3" rx="36.2938" ry="36.2938"/>
<text text-anchor="middle" x="194.397" y="-1702.6" font-family="Times,serif" font-size="14.00">node21</text>
</g>
<!-- node18&#45;&gt;node21 -->
<g id="edge10" class="edge"><title>node18&#45;&gt;node21</title>
<path fill="none" stroke="black" d="M194.397,-1779.5C194.397,-1771.04 194.397,-1761.89 194.397,-1753.04"/>
<polygon fill="black" stroke="black" points="197.897,-1752.86 194.397,-1742.86 190.897,-1752.86 197.897,-1752.86"/>
</g>
<!-- node21&#45;&gt;node21 -->
<g id="edge11" class="edge"><title>node21:n&#45;&gt;node21:nw</title>
<path fill="none" stroke="black" d="M194.397,-1743.3C176.265,-1756.8 140,-1756.8 140,-1737.8 140,-1722.21 148.075,-1719.41 160.028,-1726.36"/>
<polygon fill="black" stroke="black" points="158.216,-1729.37 168.397,-1732.3 162.266,-1723.66 158.216,-1729.37"/>
<text text-anchor="middle" x="75" y="-1702.6" font-family="Times,serif" font-size="14.00">tailport=n headport=nw</text>
</g>
<!-- node27 -->
<g id="node7" class="node"><title>node27</title>
<ellipse fill="none" stroke="black" cx="194.397" cy="-1596.51" rx="36.2938" ry="36.2938"/>
<text text-anchor="middle" x="194.397" y="-1592.81" font-family="Times,serif" font-size="14.00">node27</text>
</g>
<!-- node21&#45;&gt;node27 -->
<g id="edge12" class="edge"><title>node21&#45;&gt;node27</title>
<path fill="none" stroke="black" d="M194.397,-1669.71C194.397,-1661.24 194.397,-1652.1 194.397,-1643.25"/>
<polygon fill="black" stroke="black" points="197.897,-1643.06 194.397,-1633.06 190.897,-1643.06 197.897,-1643.06"/>
</g>
<!-- node27&#45;&gt;node27 -->
<g id="edge13" class="edge"><title>node27:n&#45;&gt;node27:sw</title>
<path fill="none" stroke="black" d="M194.397,-1633.51C176.265,-1647.01 140,-1647.01 140,-1602.01 140,-1565.09 148.075,-1558.46 160.028,-1564.72"/>
<polygon fill="black" stroke="black" points="158.181,-1567.7 168.397,-1570.51 162.162,-1561.94 158.181,-1567.7"/>
<text text-anchor="middle" x="75.5" y="-1592.81" font-family="Times,serif" font-size="14.00">tailport=n headport=sw</text>
</g>
<!-- node28 -->
<g id="node8" class="node"><title>node28</title>
<ellipse fill="none" stroke="black" cx="194.397" cy="-1486.71" rx="36.2938" ry="36.2938"/>
<text text-anchor="middle" x="194.397" y="-1483.01" font-family="Times,serif" font-size="14.00">node28</text>
</g>
<!-- node27&#45;&gt;node28 -->
<g id="edge14" class="edge"><title>node27&#45;&gt;node28</title>
<path fill="none" stroke="black" d="M194.397,-1559.91C194.397,-1551.45 194.397,-1542.3 194.397,-1533.46"/>
<polygon fill="black" stroke="black" points="197.897,-1533.27 194.397,-1523.27 190.897,-1533.27 197.897,-1533.27"/>
</g>
<!-- node28&#45;&gt;node28 -->
<g id="edge15" class="edge"><title>node28:n&#45;&gt;node28:w</title>
<path fill="none" stroke="black" d="M194.397,-1523.71C176.265,-1537.21 140,-1537.21 140,-1505.21 140,-1482.71 145.933,-1476.03 151.331,-1478.74"/>
<polygon fill="black" stroke="black" points="148.555,-1480.87 157.397,-1486.71 154.126,-1476.64 148.555,-1480.87"/>
<text text-anchor="middle" x="78" y="-1483.01" font-family="Times,serif" font-size="14.00">tailport=n headport=w</text>
</g>
<!-- node61 -->
<g id="node9" class="node"><title>node61</title>
<ellipse fill="none" stroke="black" cx="194.397" cy="-1376.92" rx="36.2938" ry="36.2938"/>
<text text-anchor="middle" x="194.397" y="-1373.22" font-family="Times,serif" font-size="14.00">node61</text>
</g>
<!-- node28&#45;&gt;node61 -->
<g id="edge16" class="edge"><title>node28&#45;&gt;node61</title>
<path fill="none" stroke="black" d="M194.397,-1450.12C194.397,-1441.66 194.397,-1432.51 194.397,-1423.66"/>
<polygon fill="black" stroke="black" points="197.897,-1423.48 194.397,-1413.48 190.897,-1423.48 197.897,-1423.48"/>
</g>
<!-- node61&#45;&gt;node61 -->
<g id="edge17" class="edge"><title>node61:s&#45;&gt;node61:nw</title>
<path fill="none" stroke="black" d="M194.397,-1339.92C176.265,-1326.42 140,-1326.42 140,-1371.42 140,-1408.33 148.075,-1414.97 160.028,-1408.71"/>
<polygon fill="black" stroke="black" points="162.162,-1411.49 168.397,-1402.92 158.181,-1405.73 162.162,-1411.49"/>
<text text-anchor="middle" x="75.5" y="-1373.22" font-family="Times,serif" font-size="14.00">tailport=s headport=nw</text>
</g>
<!-- node67 -->
<g id="node10" class="node"><title>node67</title>
<ellipse fill="none" stroke="black" cx="194.397" cy="-1267.13" rx="36.2938" ry="36.2938"/>
<text text-anchor="middle" x="194.397" y="-1263.43" font-family="Times,serif" font-size="14.00">node67</text>
</g>
<!-- node61&#45;&gt;node67 -->
<g id="edge18" class="edge"><title>node61&#45;&gt;node67</title>
<path fill="none" stroke="black" d="M194.397,-1340.32C194.397,-1331.86 194.397,-1322.72 194.397,-1313.87"/>
<polygon fill="black" stroke="black" points="197.897,-1313.68 194.397,-1303.68 190.897,-1313.68 197.897,-1313.68"/>
</g>
<!-- node67&#45;&gt;node67 -->
<g id="edge19" class="edge"><title>node67:s&#45;&gt;node67:sw</title>
<path fill="none" stroke="black" d="M194.397,-1230.13C176.265,-1216.63 140,-1216.63 140,-1235.63 140,-1251.21 148.075,-1254.01 160.028,-1247.06"/>
<polygon fill="black" stroke="black" points="162.266,-1249.77 168.397,-1241.13 158.216,-1244.06 162.266,-1249.77"/>
<text text-anchor="middle" x="76.5" y="-1263.43" font-family="Times,serif" font-size="14.00">tailport=s headport=sw</text>
</g>
<!-- node68 -->
<g id="node11" class="node"><title>node68</title>
<ellipse fill="none" stroke="black" cx="194.397" cy="-1157.33" rx="36.2938" ry="36.2938"/>
<text text-anchor="middle" x="194.397" y="-1153.63" font-family="Times,serif" font-size="14.00">node68</text>
</g>
<!-- node67&#45;&gt;node68 -->
<g id="edge20" class="edge"><title>node67&#45;&gt;node68</title>
<path fill="none" stroke="black" d="M194.397,-1230.53C194.397,-1222.07 194.397,-1212.92 194.397,-1204.08"/>
<polygon fill="black" stroke="black" points="197.897,-1203.89 194.397,-1193.89 190.897,-1203.89 197.897,-1203.89"/>
</g>
<!-- node68&#45;&gt;node68 -->
<g id="edge21" class="edge"><title>node68:s&#45;&gt;node68:w</title>
<path fill="none" stroke="black" d="M194.397,-1120.33C176.265,-1106.83 140,-1106.83 140,-1138.83 140,-1161.33 145.933,-1168.01 151.331,-1165.3"/>
<polygon fill="black" stroke="black" points="154.126,-1167.41 157.397,-1157.33 148.555,-1163.17 154.126,-1167.41"/>
<text text-anchor="middle" x="79" y="-1153.63" font-family="Times,serif" font-size="14.00">tailport=s headport=w</text>
</g>
<!-- node71 -->
<g id="node12" class="node"><title>node71</title>
<ellipse fill="none" stroke="black" cx="194.397" cy="-1047.54" rx="36.2938" ry="36.2938"/>
<text text-anchor="middle" x="194.397" y="-1043.84" font-family="Times,serif" font-size="14.00">node71</text>
</g>
<!-- node68&#45;&gt;node71 -->
<g id="edge22" class="edge"><title>node68&#45;&gt;node71</title>
<path fill="none" stroke="black" d="M194.397,-1120.74C194.397,-1112.28 194.397,-1103.13 194.397,-1094.28"/>
<polygon fill="black" stroke="black" points="197.897,-1094.1 194.397,-1084.1 190.897,-1094.1 197.897,-1094.1"/>
</g>
<!-- node71&#45;&gt;node71 -->
<g id="edge23" class="edge"><title>node71:sw&#45;&gt;node71:nw</title>
<path fill="none" stroke="black" d="M168.397,-1021.54C152,-1008.04 140,-1008.04 140,-1047.54 140,-1079.94 148.075,-1085.76 160.028,-1079.36"/>
<polygon fill="black" stroke="black" points="162.184,-1082.12 168.397,-1073.54 158.188,-1076.37 162.184,-1082.12"/>
<text text-anchor="middle" x="70.5" y="-1043.84" font-family="Times,serif" font-size="14.00">tailport=sw headport=nw</text>
</g>
<!-- node72 -->
<g id="node13" class="node"><title>node72</title>
<ellipse fill="none" stroke="black" cx="194.397" cy="-937.745" rx="36.2938" ry="36.2938"/>
<text text-anchor="middle" x="194.397" y="-934.045" font-family="Times,serif" font-size="14.00">node72</text>
</g>
<!-- node71&#45;&gt;node72 -->
<g id="edge24" class="edge"><title>node71&#45;&gt;node72</title>
<path fill="none" stroke="black" d="M194.397,-1010.94C194.397,-1002.48 194.397,-993.336 194.397,-984.49"/>
<polygon fill="black" stroke="black" points="197.897,-984.302 194.397,-974.302 190.897,-984.302 197.897,-984.302"/>
</g>
<!-- node72&#45;&gt;node72 -->
<g id="edge25" class="edge"><title>node72:sw&#45;&gt;node72:n</title>
<path fill="none" stroke="black" d="M168.397,-911.745C152,-898.245 140,-898.245 140,-943.245 140,-981.741 166.539,-987.305 185.563,-979.657"/>
<polygon fill="black" stroke="black" points="187.358,-982.664 194.397,-974.745 183.956,-976.546 187.358,-982.664"/>
<text text-anchor="middle" x="75.5" y="-934.045" font-family="Times,serif" font-size="14.00">tailport=sw headport=n</text>
</g>
<!-- node76 -->
<g id="node14" class="node"><title>node76</title>
<ellipse fill="none" stroke="black" cx="194.397" cy="-827.952" rx="36.2938" ry="36.2938"/>
<text text-anchor="middle" x="194.397" y="-824.252" font-family="Times,serif" font-size="14.00">node76</text>
</g>
<!-- node72&#45;&gt;node76 -->
<g id="edge26" class="edge"><title>node72&#45;&gt;node76</title>
<path fill="none" stroke="black" d="M194.397,-901.151C194.397,-892.688 194.397,-883.542 194.397,-874.696"/>
<polygon fill="black" stroke="black" points="197.897,-874.509 194.397,-864.509 190.897,-874.509 197.897,-874.509"/>
</g>
<!-- node76&#45;&gt;node76 -->
<g id="edge27" class="edge"><title>node76:sw&#45;&gt;node76:s</title>
<path fill="none" stroke="black" d="M168.397,-801.952C152,-815.452 140,-815.452 140,-796.452 140,-780.198 166.539,-777.848 185.563,-785.961"/>
<polygon fill="black" stroke="black" points="183.969,-789.08 194.397,-790.952 187.412,-782.985 183.969,-789.08"/>
<text text-anchor="middle" x="76.5" y="-824.252" font-family="Times,serif" font-size="14.00">tailport=sw headport=s</text>
</g>
<!-- node77 -->
<g id="node15" class="node"><title>node77</title>
<ellipse fill="none" stroke="black" cx="194.397" cy="-718.158" rx="36.2938" ry="36.2938"/>
<text text-anchor="middle" x="194.397" y="-714.458" font-family="Times,serif" font-size="14.00">node77</text>
</g>
<!-- node76&#45;&gt;node77 -->
<g id="edge28" class="edge"><title>node76&#45;&gt;node77</title>
<path fill="none" stroke="black" d="M194.397,-791.357C194.397,-782.894 194.397,-773.749 194.397,-764.903"/>
<polygon fill="black" stroke="black" points="197.897,-764.715 194.397,-754.715 190.897,-764.715 197.897,-764.715"/>
</g>
<!-- node77&#45;&gt;node77 -->
<g id="edge29" class="edge"><title>node77:sw&#45;&gt;node77:sw</title>
<path fill="none" stroke="black" d="M168.397,-692.158C152,-705.658 140,-705.658 140,-692.158 140,-681.084 148.075,-679.094 160.028,-686.188"/>
<polygon fill="black" stroke="black" points="158.223,-689.2 168.397,-692.158 162.288,-683.501 158.223,-689.2"/>
<text text-anchor="middle" x="71.5" y="-714.458" font-family="Times,serif" font-size="14.00">tailport=sw headport=sw</text>
</g>
<!-- node78 -->
<g id="node16" class="node"><title>node78</title>
<ellipse fill="none" stroke="black" cx="194.397" cy="-608.364" rx="36.2938" ry="36.2938"/>
<text text-anchor="middle" x="194.397" y="-604.664" font-family="Times,serif" font-size="14.00">node78</text>
</g>
<!-- node77&#45;&gt;node78 -->
<g id="edge30" class="edge"><title>node77&#45;&gt;node78</title>
<path fill="none" stroke="black" d="M194.397,-681.564C194.397,-673.101 194.397,-663.955 194.397,-655.109"/>
<polygon fill="black" stroke="black" points="197.897,-654.921 194.397,-644.921 190.897,-654.922 197.897,-654.921"/>
</g>
<!-- node78&#45;&gt;node78 -->
<g id="edge31" class="edge"><title>node78:sw&#45;&gt;node78:w</title>
<path fill="none" stroke="black" d="M168.397,-582.364C152,-568.864 140,-568.864 140,-595.364 140,-613.997 145.933,-619.529 151.331,-616.478"/>
<polygon fill="black" stroke="black" points="154.212,-618.469 157.397,-608.364 148.606,-614.278 154.212,-618.469"/>
<text text-anchor="middle" x="74" y="-604.664" font-family="Times,serif" font-size="14.00">tailport=sw headport=w</text>
</g>
<!-- node81 -->
<g id="node17" class="node"><title>node81</title>
<ellipse fill="none" stroke="black" cx="194.397" cy="-498.571" rx="36.2938" ry="36.2938"/>
<text text-anchor="middle" x="194.397" y="-494.871" font-family="Times,serif" font-size="14.00">node81</text>
</g>
<!-- node78&#45;&gt;node81 -->
<g id="edge32" class="edge"><title>node78&#45;&gt;node81</title>
<path fill="none" stroke="black" d="M194.397,-571.77C194.397,-563.307 194.397,-554.162 194.397,-545.316"/>
<polygon fill="black" stroke="black" points="197.897,-545.128 194.397,-535.128 190.897,-545.128 197.897,-545.128"/>
</g>
<!-- node81&#45;&gt;node81 -->
<g id="edge33" class="edge"><title>node81:w&#45;&gt;node81:nw</title>
<path fill="none" stroke="black" d="M157.397,-498.571C152,-485.071 140,-485.071 140,-511.571 140,-533.309 148.075,-537.215 160.028,-530.465"/>
<polygon fill="black" stroke="black" points="162.236,-533.191 168.397,-524.571 158.206,-527.468 162.236,-533.191"/>
<text text-anchor="middle" x="73.5" y="-494.871" font-family="Times,serif" font-size="14.00">tailport=w headport=nw</text>
</g>
<!-- node82 -->
<g id="node18" class="node"><title>node82</title>
<ellipse fill="none" stroke="black" cx="194.397" cy="-388.777" rx="36.2938" ry="36.2938"/>
<text text-anchor="middle" x="194.397" y="-385.077" font-family="Times,serif" font-size="14.00">node82</text>
</g>
<!-- node81&#45;&gt;node82 -->
<g id="edge34" class="edge"><title>node81&#45;&gt;node82</title>
<path fill="none" stroke="black" d="M194.397,-461.977C194.397,-453.514 194.397,-444.368 194.397,-435.522"/>
<polygon fill="black" stroke="black" points="197.897,-435.334 194.397,-425.334 190.897,-435.334 197.897,-435.334"/>
</g>
<!-- node82&#45;&gt;node82 -->
<g id="edge35" class="edge"><title>node82:w&#45;&gt;node82:n</title>
<path fill="none" stroke="black" d="M157.397,-388.777C152,-375.277 140,-375.277 140,-407.277 140,-434.652 166.539,-438.609 185.563,-430.729"/>
<polygon fill="black" stroke="black" points="187.385,-433.72 194.397,-425.777 183.962,-427.614 187.385,-433.72"/>
<text text-anchor="middle" x="78" y="-385.077" font-family="Times,serif" font-size="14.00">tailport=w headport=n</text>
</g>
<!-- node86 -->
<g id="node19" class="node"><title>node86</title>
<ellipse fill="none" stroke="black" cx="194.397" cy="-278.984" rx="36.2938" ry="36.2938"/>
<text text-anchor="middle" x="194.397" y="-275.284" font-family="Times,serif" font-size="14.00">node86</text>
</g>
<!-- node82&#45;&gt;node86 -->
<g id="edge36" class="edge"><title>node82&#45;&gt;node86</title>
<path fill="none" stroke="black" d="M194.397,-352.183C194.397,-343.72 194.397,-334.574 194.397,-325.729"/>
<polygon fill="black" stroke="black" points="197.897,-325.541 194.397,-315.541 190.897,-325.541 197.897,-325.541"/>
</g>
<!-- node86&#45;&gt;node86 -->
<g id="edge37" class="edge"><title>node86:w&#45;&gt;node86:s</title>
<path fill="none" stroke="black" d="M157.397,-278.984C152,-292.484 140,-292.484 140,-260.484 140,-233.109 166.539,-229.152 185.563,-237.032"/>
<polygon fill="black" stroke="black" points="183.962,-240.147 194.397,-241.984 187.385,-234.041 183.962,-240.147"/>
<text text-anchor="middle" x="79" y="-275.284" font-family="Times,serif" font-size="14.00">tailport=w headport=s</text>
</g>
<!-- node87 -->
<g id="node20" class="node"><title>node87</title>
<ellipse fill="none" stroke="black" cx="194.397" cy="-169.19" rx="36.2938" ry="36.2938"/>
<text text-anchor="middle" x="194.397" y="-165.49" font-family="Times,serif" font-size="14.00">node87</text>
</g>
<!-- node86&#45;&gt;node87 -->
<g id="edge38" class="edge"><title>node86&#45;&gt;node87</title>
<path fill="none" stroke="black" d="M194.397,-242.389C194.397,-233.927 194.397,-224.781 194.397,-215.935"/>
<polygon fill="black" stroke="black" points="197.897,-215.747 194.397,-205.747 190.897,-215.747 197.897,-215.747"/>
</g>
<!-- node87&#45;&gt;node87 -->
<g id="edge39" class="edge"><title>node87:w&#45;&gt;node87:sw</title>
<path fill="none" stroke="black" d="M157.397,-169.19C152,-182.69 140,-182.69 140,-156.19 140,-134.452 148.075,-130.546 160.028,-137.296"/>
<polygon fill="black" stroke="black" points="158.206,-140.294 168.397,-143.19 162.236,-134.571 158.206,-140.294"/>
<text text-anchor="middle" x="74" y="-165.49" font-family="Times,serif" font-size="14.00">tailport=w headport=sw</text>
</g>
<!-- node88 -->
<g id="node21" class="node"><title>node88</title>
<ellipse fill="none" stroke="black" cx="194.397" cy="-59.3968" rx="36.2938" ry="36.2938"/>
<text text-anchor="middle" x="194.397" y="-55.6968" font-family="Times,serif" font-size="14.00">node88</text>
</g>
<!-- node87&#45;&gt;node88 -->
<g id="edge40" class="edge"><title>node87&#45;&gt;node88</title>
<path fill="none" stroke="black" d="M194.397,-132.596C194.397,-124.133 194.397,-114.987 194.397,-106.141"/>
<polygon fill="black" stroke="black" points="197.897,-105.954 194.397,-95.9538 190.897,-105.954 197.897,-105.954"/>
</g>
<!-- node88&#45;&gt;node88 -->
<g id="edge41" class="edge"><title>node88:w&#45;&gt;node88:w</title>
<path fill="none" stroke="black" d="M157.397,-59.3968C152,-72.8968 140,-72.8968 140,-59.3968 140,-49.9046 145.933,-47.0866 151.331,-50.9428"/>
<polygon fill="black" stroke="black" points="148.723,-53.3121 157.397,-59.3968 154.411,-49.2314 148.723,-53.3121"/>
<text text-anchor="middle" x="76.5" y="-55.6968" font-family="Times,serif" font-size="14.00">tailport=w headport=w</text>
</g>
</g>
</svg>
