<?xml version="1.0" encoding="UTF-8" standalone="no"?>
<!DOCTYPE svg PUBLIC "-//W3C//DTD SVG 1.1//EN"
 "http://www.w3.org/Graphics/SVG/1.1/DTD/svg11.dtd">
<!-- Generated by graphviz version 2.38.0 (20140413.2041)
 -->
<!-- Title: G Pages: 1 -->
<svg width="1379pt" height="305pt"
 viewBox="0.00 0.00 1379.00 305.00" xmlns="http://www.w3.org/2000/svg" xmlns:xlink="http://www.w3.org/1999/xlink">
<g id="graph0" class="graph" transform="scale(1 1) rotate(0) translate(4 301)">
<title>G</title>
<polygon fill="white" stroke="none" points="-4,4 -4,-301 1375,-301 1375,4 -4,4"/>
<g id="clust1" class="cluster"><title>cluster_base</title>
<polygon fill="none" stroke="black" points="8,-81 8,-216 332,-216 332,-81 8,-81"/>
<text text-anchor="middle" x="170" y="-200.8" font-family="Times,serif" font-size="14.00">table border:10,cellspacing:0,cellpadding:0,cell border:1</text>
</g>
<g id="clust2" class="cluster"><title>cluster_table_border</title>
<polygon fill="none" stroke="black" points="340,-36 340,-261 671,-261 671,-36 340,-36"/>
<text text-anchor="middle" x="505.5" y="-245.8" font-family="Times,serif" font-size="14.00">table border:10,cellspacing:2,cellpadding:10,cell border:1</text>
</g>
<g id="clust3" class="cluster"><title>cluster_cellspacing</title>
<polygon fill="none" stroke="black" points="679,-20 679,-277 1017,-277 1017,-20 679,-20"/>
<text text-anchor="middle" x="848" y="-261.8" font-family="Times,serif" font-size="14.00">table border:10,cellspacing:10,cellpadding:10,cell border:0</text>
</g>
<g id="clust4" class="cluster"><title>cluster_cellpadding</title>
<polygon fill="none" stroke="black" points="1025,-8 1025,-289 1363,-289 1363,-8 1025,-8"/>
<text text-anchor="middle" x="1194" y="-273.8" font-family="Times,serif" font-size="14.00">table border:10,cellspacing:10,cellpadding:10,cell border:3</text>
</g>
<!-- tbl1100 -->
<g id="node1" class="node"><title>tbl1100</title>
<polygon fill="none" stroke="black" points="138,-154 138,-171 154,-171 154,-154 138,-154"/>
<text text-anchor="start" x="139" y="-158.8" font-family="Times,serif" font-size="14.00">00</text>
<polygon fill="none" stroke="black" points="154,-154 154,-171 170,-171 170,-154 154,-154"/>
<text text-anchor="start" x="155" y="-158.8" font-family="Times,serif" font-size="14.00">01</text>
<polygon fill="none" stroke="black" points="170,-154 170,-171 186,-171 186,-154 170,-154"/>
<text text-anchor="start" x="171" y="-158.8" font-family="Times,serif" font-size="14.00">02</text>
<polygon fill="none" stroke="black" points="186,-154 186,-171 202,-171 202,-154 186,-154"/>
<text text-anchor="start" x="187" y="-158.8" font-family="Times,serif" font-size="14.00">03</text>
<polygon fill="none" stroke="black" points="138,-137 138,-154 154,-154 154,-137 138,-137"/>
<text text-anchor="start" x="139" y="-141.8" font-family="Times,serif" font-size="14.00">10</text>
<polygon fill="none" stroke="black" points="154,-120 154,-154 170,-154 170,-120 154,-120"/>
<text text-anchor="start" x="155" y="-133.3" font-family="Times,serif" font-size="14.00">11</text>
<polygon fill="none" stroke="black" points="170,-137 170,-154 186,-154 186,-137 170,-137"/>
<text text-anchor="start" x="171" y="-141.8" font-family="Times,serif" font-size="14.00">12</text>
<polygon fill="none" stroke="black" points="186,-137 186,-154 202,-154 202,-137 186,-137"/>
<text text-anchor="start" x="187" y="-141.8" font-family="Times,serif" font-size="14.00">13</text>
<polygon fill="none" stroke="black" points="138,-120 138,-137 154,-137 154,-120 138,-120"/>
<text text-anchor="start" x="139" y="-124.8" font-family="Times,serif" font-size="14.00">20</text>
<polygon fill="none" stroke="black" points="170,-120 170,-137 202,-137 202,-120 170,-120"/>
<text text-anchor="start" x="179" y="-124.8" font-family="Times,serif" font-size="14.00">22</text>
<polygon fill="none" stroke="black" points="138,-103 138,-120 154,-120 154,-103 138,-103"/>
<text text-anchor="start" x="139" y="-107.8" font-family="Times,serif" font-size="14.00">30</text>
<polygon fill="none" stroke="black" points="154,-103 154,-120 170,-120 170,-103 154,-103"/>
<text text-anchor="start" x="155" y="-107.8" font-family="Times,serif" font-size="14.00">31</text>
<polygon fill="none" stroke="black" points="170,-103 170,-120 186,-120 186,-103 170,-103"/>
<text text-anchor="start" x="171" y="-107.8" font-family="Times,serif" font-size="14.00">32</text>
<polygon fill="none" stroke="black" points="186,-103 186,-120 202,-120 202,-103 186,-103"/>
<text text-anchor="start" x="187" y="-107.8" font-family="Times,serif" font-size="14.00">33</text>
<polygon fill="black" stroke="black" points="154,-154 154,-181 154,-181 154,-154 154,-154"/>
<polygon fill="black" stroke="black" points="128,-154 128,-154 154,-154 154,-154 128,-154"/>
<polygon fill="black" stroke="black" points="170,-154 170,-181 170,-181 170,-154 170,-154"/>
<polygon fill="black" stroke="black" points="154,-154 154,-154 170,-154 170,-154 154,-154"/>
<polygon fill="black" stroke="black" points="186,-154 186,-181 186,-181 186,-154 186,-154"/>
<polygon fill="black" stroke="black" points="170,-154 170,-154 186,-154 186,-154 170,-154"/>
<polygon fill="black" stroke="black" points="186,-154 186,-154 212,-154 212,-154 186,-154"/>
<polygon fill="black" stroke="black" points="154,-137 154,-154 154,-154 154,-137 154,-137"/>
<polygon fill="black" stroke="black" points="128,-137 128,-137 154,-137 154,-137 128,-137"/>
<polygon fill="black" stroke="black" points="170,-120 170,-154 170,-154 170,-120 170,-120"/>
<polygon fill="black" stroke="black" points="154,-120 154,-120 170,-120 170,-120 154,-120"/>
<polygon fill="black" stroke="black" points="186,-137 186,-154 186,-154 186,-137 186,-137"/>
<polygon fill="black" stroke="black" points="170,-137 170,-137 186,-137 186,-137 170,-137"/>
<polygon fill="black" stroke="black" points="186,-137 186,-137 212,-137 212,-137 186,-137"/>
<polygon fill="black" stroke="black" points="154,-120 154,-137 154,-137 154,-120 154,-120"/>
<polygon fill="black" stroke="black" points="128,-120 128,-120 154,-120 154,-120 128,-120"/>
<polygon fill="black" stroke="black" points="170,-120 170,-120 212,-120 212,-120 170,-120"/>
<polygon fill="black" stroke="black" points="154,-93 154,-120 154,-120 154,-93 154,-93"/>
<polygon fill="black" stroke="black" points="170,-93 170,-120 170,-120 170,-93 170,-93"/>
<polygon fill="black" stroke="black" points="186,-93 186,-120 186,-120 186,-93 186,-93"/>
<polygon fill="none" stroke="black" stroke-width="10" points="133,-98 133,-176 207,-176 207,-98 133,-98"/>
</g>
<!-- tbl1010 -->
<g id="node2" class="node"><title>tbl1010</title>
<polygon fill="none" stroke="black" points="430,-177 430,-214 466,-214 466,-177 430,-177"/>
<text text-anchor="start" x="441" y="-191.8" font-family="Times,serif" font-size="14.00">00</text>
<polygon fill="none" stroke="black" points="468,-177 468,-214 504,-214 504,-177 468,-177"/>
<text text-anchor="start" x="479" y="-191.8" font-family="Times,serif" font-size="14.00">01</text>
<polygon fill="none" stroke="black" points="506,-177 506,-214 542,-214 542,-177 506,-177"/>
<text text-anchor="start" x="517" y="-191.8" font-family="Times,serif" font-size="14.00">02</text>
<polygon fill="none" stroke="black" points="544,-177 544,-214 580,-214 580,-177 544,-177"/>
<text text-anchor="start" x="555" y="-191.8" font-family="Times,serif" font-size="14.00">03</text>
<polygon fill="none" stroke="black" points="430,-138 430,-175 466,-175 466,-138 430,-138"/>
<text text-anchor="start" x="441" y="-152.8" font-family="Times,serif" font-size="14.00">10</text>
<polygon fill="none" stroke="black" points="468,-99 468,-175 504,-175 504,-99 468,-99"/>
<text text-anchor="start" x="479" y="-133.3" font-family="Times,serif" font-size="14.00">11</text>
<polygon fill="none" stroke="black" points="506,-138 506,-175 542,-175 542,-138 506,-138"/>
<text text-anchor="start" x="517" y="-152.8" font-family="Times,serif" font-size="14.00">12</text>
<polygon fill="none" stroke="black" points="544,-138 544,-175 580,-175 580,-138 544,-138"/>
<text text-anchor="start" x="555" y="-152.8" font-family="Times,serif" font-size="14.00">13</text>
<polygon fill="none" stroke="black" points="430,-99 430,-136 466,-136 466,-99 430,-99"/>
<text text-anchor="start" x="441" y="-113.8" font-family="Times,serif" font-size="14.00">20</text>
<polygon fill="none" stroke="black" points="506,-99 506,-136 580,-136 580,-99 506,-99"/>
<text text-anchor="start" x="536" y="-113.8" font-family="Times,serif" font-size="14.00">22</text>
<polygon fill="none" stroke="black" points="430,-60 430,-97 466,-97 466,-60 430,-60"/>
<text text-anchor="start" x="441" y="-74.8" font-family="Times,serif" font-size="14.00">30</text>
<polygon fill="none" stroke="black" points="468,-60 468,-97 504,-97 504,-60 468,-60"/>
<text text-anchor="start" x="479" y="-74.8" font-family="Times,serif" font-size="14.00">31</text>
<polygon fill="none" stroke="black" points="506,-60 506,-97 542,-97 542,-60 506,-60"/>
<text text-anchor="start" x="517" y="-74.8" font-family="Times,serif" font-size="14.00">32</text>
<polygon fill="none" stroke="black" points="544,-60 544,-97 580,-97 580,-60 544,-60"/>
<text text-anchor="start" x="555" y="-74.8" font-family="Times,serif" font-size="14.00">33</text>
<polygon fill="black" stroke="black" points="467,-176 467,-226 467,-226 467,-176 467,-176"/>
<polygon fill="black" stroke="black" points="505,-176 505,-226 505,-226 505,-176 505,-176"/>
<polygon fill="black" stroke="black" points="543,-176 543,-226 543,-226 543,-176 543,-176"/>
<polygon fill="black" stroke="black" points="467,-137 467,-176 467,-176 467,-137 467,-137"/>
<polygon fill="black" stroke="black" points="418,-137 418,-137 467,-137 467,-137 418,-137"/>
<polygon fill="black" stroke="black" points="505,-98 505,-176 505,-176 505,-98 505,-98"/>
<polygon fill="black" stroke="black" points="543,-137 543,-176 543,-176 543,-137 543,-137"/>
<polygon fill="black" stroke="black" points="505,-137 505,-137 543,-137 543,-137 505,-137"/>
<polygon fill="black" stroke="black" points="543,-137 543,-137 592,-137 592,-137 543,-137"/>
<polygon fill="black" stroke="black" points="467,-98 467,-137 467,-137 467,-98 467,-98"/>
<polygon fill="black" stroke="black" points="467,-48 467,-98 467,-98 467,-48 467,-48"/>
<polygon fill="black" stroke="black" points="505,-48 505,-98 505,-98 505,-48 505,-48"/>
<polygon fill="black" stroke="black" points="543,-48 543,-98 543,-98 543,-48 543,-48"/>
<polygon fill="none" stroke="black" stroke-width="10" points="423,-53 423,-221 587,-221 587,-53 423,-53"/>
</g>
<!-- tbl1110 -->
<g id="node3" class="node"><title>tbl1110</title>
<text text-anchor="start" x="775" y="-200.8" font-family="Times,serif" font-size="14.00">00</text>
<text text-anchor="start" x="819" y="-200.8" font-family="Times,serif" font-size="14.00">01</text>
<text text-anchor="start" x="863" y="-200.8" font-family="Times,serif" font-size="14.00">02</text>
<text text-anchor="start" x="907" y="-200.8" font-family="Times,serif" font-size="14.00">03</text>
<text text-anchor="start" x="775" y="-155.8" font-family="Times,serif" font-size="14.00">10</text>
<text text-anchor="start" x="819" y="-133.3" font-family="Times,serif" font-size="14.00">11</text>
<text text-anchor="start" x="863" y="-155.8" font-family="Times,serif" font-size="14.00">12</text>
<text text-anchor="start" x="907" y="-155.8" font-family="Times,serif" font-size="14.00">13</text>
<text text-anchor="start" x="775" y="-110.8" font-family="Times,serif" font-size="14.00">20</text>
<text text-anchor="start" x="885" y="-110.8" font-family="Times,serif" font-size="14.00">22</text>
<text text-anchor="start" x="775" y="-65.8" font-family="Times,serif" font-size="14.00">30</text>
<text text-anchor="start" x="819" y="-65.8" font-family="Times,serif" font-size="14.00">31</text>
<text text-anchor="start" x="863" y="-65.8" font-family="Times,serif" font-size="14.00">32</text>
<text text-anchor="start" x="907" y="-65.8" font-family="Times,serif" font-size="14.00">33</text>
<polygon fill="black" stroke="black" points="804,-182 804,-242 804,-242 804,-182 804,-182"/>
<polygon fill="black" stroke="black" points="745,-182 745,-182 804,-182 804,-182 745,-182"/>
<polygon fill="black" stroke="black" points="804,-182 804,-182 848,-182 848,-182 804,-182"/>
<polygon fill="black" stroke="black" points="848,-182 848,-182 892,-182 892,-182 848,-182"/>
<polygon fill="black" stroke="black" points="892,-182 892,-182 951,-182 951,-182 892,-182"/>
<polygon fill="black" stroke="black" points="745,-137 745,-137 804,-137 804,-137 745,-137"/>
<polygon fill="black" stroke="black" points="848,-92 848,-182 848,-182 848,-92 848,-92"/>
<polygon fill="black" stroke="black" points="804,-92 804,-92 848,-92 848,-92 804,-92"/>
<polygon fill="black" stroke="black" points="848,-137 848,-137 892,-137 892,-137 848,-137"/>
<polygon fill="black" stroke="black" points="892,-137 892,-137 951,-137 951,-137 892,-137"/>
<polygon fill="black" stroke="black" points="745,-92 745,-92 804,-92 804,-92 745,-92"/>
<polygon fill="black" stroke="black" points="848,-92 848,-92 951,-92 951,-92 848,-92"/>
<polygon fill="black" stroke="black" points="892,-32 892,-92 892,-92 892,-32 892,-32"/>
<polygon fill="none" stroke="black" stroke-width="10" points="750,-37 750,-237 946,-237 946,-37 750,-37"/>
</g>
<!-- tbl1111 -->
<g id="node4" class="node"><title>tbl1111</title>
<polygon fill="none" stroke="black" stroke-width="3" points="1100.5,-194.5 1100.5,-232.5 1137.5,-232.5 1137.5,-194.5 1100.5,-194.5"/>
<text text-anchor="start" x="1112" y="-209.8" font-family="Times,serif" font-size="14.00">00</text>
<polygon fill="none" stroke="black" stroke-width="3" points="1150.5,-194.5 1150.5,-232.5 1187.5,-232.5 1187.5,-194.5 1150.5,-194.5"/>
<text text-anchor="start" x="1162" y="-209.8" font-family="Times,serif" font-size="14.00">01</text>
<polygon fill="none" stroke="black" stroke-width="3" points="1200.5,-194.5 1200.5,-232.5 1237.5,-232.5 1237.5,-194.5 1200.5,-194.5"/>
<text text-anchor="start" x="1212" y="-209.8" font-family="Times,serif" font-size="14.00">02</text>
<polygon fill="none" stroke="black" stroke-width="3" points="1250.5,-194.5 1250.5,-232.5 1287.5,-232.5 1287.5,-194.5 1250.5,-194.5"/>
<text text-anchor="start" x="1262" y="-209.8" font-family="Times,serif" font-size="14.00">03</text>
<polygon fill="none" stroke="black" stroke-width="3" points="1100.5,-143.5 1100.5,-181.5 1137.5,-181.5 1137.5,-143.5 1100.5,-143.5"/>
<text text-anchor="start" x="1112" y="-158.8" font-family="Times,serif" font-size="14.00">10</text>
<polygon fill="none" stroke="black" stroke-width="3" points="1150.5,-92.5 1150.5,-181.5 1187.5,-181.5 1187.5,-92.5 1150.5,-92.5"/>
<text text-anchor="start" x="1162" y="-133.3" font-family="Times,serif" font-size="14.00">11</text>
<polygon fill="none" stroke="black" stroke-width="3" points="1200.5,-143.5 1200.5,-181.5 1237.5,-181.5 1237.5,-143.5 1200.5,-143.5"/>
<text text-anchor="start" x="1212" y="-158.8" font-family="Times,serif" font-size="14.00">12</text>
<polygon fill="none" stroke="black" stroke-width="3" points="1250.5,-143.5 1250.5,-181.5 1287.5,-181.5 1287.5,-143.5 1250.5,-143.5"/>
<text text-anchor="start" x="1262" y="-158.8" font-family="Times,serif" font-size="14.00">13</text>
<polygon fill="none" stroke="black" stroke-width="3" points="1100.5,-92.5 1100.5,-130.5 1137.5,-130.5 1137.5,-92.5 1100.5,-92.5"/>
<text text-anchor="start" x="1112" y="-107.8" font-family="Times,serif" font-size="14.00">20</text>
<polygon fill="none" stroke="black" stroke-width="3" points="1200.5,-92.5 1200.5,-130.5 1287.5,-130.5 1287.5,-92.5 1200.5,-92.5"/>
<text text-anchor="start" x="1237" y="-107.8" font-family="Times,serif" font-size="14.00">22</text>
<polygon fill="none" stroke="black" stroke-width="3" points="1100.5,-41.5 1100.5,-79.5 1137.5,-79.5 1137.5,-41.5 1100.5,-41.5"/>
<text text-anchor="start" x="1112" y="-56.8" font-family="Times,serif" font-size="14.00">30</text>
<polygon fill="none" stroke="black" stroke-width="3" points="1150.5,-41.5 1150.5,-79.5 1187.5,-79.5 1187.5,-41.5 1150.5,-41.5"/>
<text text-anchor="start" x="1162" y="-56.8" font-family="Times,serif" font-size="14.00">31</text>
<polygon fill="none" stroke="black" stroke-width="3" points="1200.5,-41.5 1200.5,-79.5 1237.5,-79.5 1237.5,-41.5 1200.5,-41.5"/>
<text text-anchor="start" x="1212" y="-56.8" font-family="Times,serif" font-size="14.00">32</text>
<polygon fill="none" stroke="black" stroke-width="3" points="1250.5,-41.5 1250.5,-79.5 1287.5,-79.5 1287.5,-41.5 1250.5,-41.5"/>
<text text-anchor="start" x="1262" y="-56.8" font-family="Times,serif" font-size="14.00">33</text>
<polygon fill="black" stroke="black" points="1144,-188 1144,-254 1144,-254 1144,-188 1144,-188"/>
<polygon fill="black" stroke="black" points="1079,-188 1079,-188 1144,-188 1144,-188 1079,-188"/>
<polygon fill="black" stroke="black" points="1144,-188 1144,-188 1194,-188 1194,-188 1144,-188"/>
<polygon fill="black" stroke="black" points="1194,-188 1194,-188 1244,-188 1244,-188 1194,-188"/>
<polygon fill="black" stroke="black" points="1244,-188 1244,-188 1309,-188 1309,-188 1244,-188"/>
<polygon fill="black" stroke="black" points="1079,-137 1079,-137 1144,-137 1144,-137 1079,-137"/>
<polygon fill="black" stroke="black" points="1194,-86 1194,-188 1194,-188 1194,-86 1194,-86"/>
<polygon fill="black" stroke="black" points="1144,-86 1144,-86 1194,-86 1194,-86 1144,-86"/>
<polygon fill="black" stroke="black" points="1194,-137 1194,-137 1244,-137 1244,-137 1194,-137"/>
<polygon fill="black" stroke="black" points="1244,-137 1244,-137 1309,-137 1309,-137 1244,-137"/>
<polygon fill="black" stroke="black" points="1079,-86 1079,-86 1144,-86 1144,-86 1079,-86"/>
<polygon fill="black" stroke="black" points="1194,-86 1194,-86 1309,-86 1309,-86 1194,-86"/>
<polygon fill="black" stroke="black" points="1244,-20 1244,-86 1244,-86 1244,-20 1244,-20"/>
<polygon fill="none" stroke="black" stroke-width="10" points="1084,-25 1084,-249 1304,-249 1304,-25 1084,-25"/>
</g>
</g>
</svg>
