<?xml version="1.0" encoding="UTF-8" standalone="no"?>
<!DOCTYPE svg PUBLIC "-//W3C//DTD SVG 1.1//EN"
 "http://www.w3.org/Graphics/SVG/1.1/DTD/svg11.dtd">
<!-- Generated by graphviz version 2.38.0 (20140413.2041)
 -->
<!-- Title: G Pages: 1 -->
<svg width="379pt" height="2320pt"
 viewBox="0.00 0.00 378.79 2320.43" xmlns="http://www.w3.org/2000/svg" xmlns:xlink="http://www.w3.org/1999/xlink">
<g id="graph0" class="graph" transform="scale(1 1) rotate(0) translate(4 2316.43)">
<title>G</title>
<polygon fill="white" stroke="none" points="-4,4 -4,-2316.43 374.794,-2316.43 374.794,4 -4,4"/>
<text text-anchor="middle" x="185.397" y="-7.8" font-family="Times,serif" font-size="14.00">SelfRight</text>
<!-- node23 -->
<g id="node1" class="node"><title>node23</title>
<ellipse fill="none" stroke="black" cx="36.3968" cy="-2265.65" rx="36.2938" ry="36.2938"/>
<text text-anchor="middle" x="36.3968" y="-2261.95" font-family="Times,serif" font-size="14.00">node23</text>
</g>
<!-- node23&#45;&gt;node23 -->
<g id="edge1" class="edge"><title>node23:n&#45;&gt;node23:ne</title>
<path fill="none" stroke="black" d="M36.3968,-2302.65C54.529,-2309.4 90.7935,-2309.4 90.7935,-2297.15 90.7935,-2287.49 83.3221,-2285.45 72.1146,-2288.33"/>
<polygon fill="black" stroke="black" points="70.7289,-2285.11 62.3968,-2291.65 72.9913,-2291.73 70.7289,-2285.11"/>
<text text-anchor="middle" x="154.294" y="-2261.95" font-family="Times,serif" font-size="14.00">tailport=n headport=ne</text>
</g>
<!-- node23&#45;&gt;node23 -->
<g id="edge2" class="edge"><title>node23:n&#45;&gt;node23:ne</title>
<path fill="none" stroke="black" d="M36.3968,-2302.65C60.529,-2316.15 217.794,-2316.15 217.794,-2297.15 217.794,-2280.01 109.502,-2278.33 71.8958,-2288.09"/>
<polygon fill="black" stroke="black" points="70.5301,-2284.86 62.3968,-2291.65 72.989,-2291.42 70.5301,-2284.86"/>
<text text-anchor="middle" x="281.294" y="-2261.95" font-family="Times,serif" font-size="14.00">tailport=n headport=ne</text>
</g>
<!-- node24 -->
<g id="node2" class="node"><title>node24</title>
<ellipse fill="none" stroke="black" cx="36.3968" cy="-2155.86" rx="36.2938" ry="36.2938"/>
<text text-anchor="middle" x="36.3968" y="-2152.16" font-family="Times,serif" font-size="14.00">node24</text>
</g>
<!-- node23&#45;&gt;node24 -->
<g id="edge3" class="edge"><title>node23&#45;&gt;node24</title>
<path fill="none" stroke="black" d="M36.3968,-2229.06C36.3968,-2220.59 36.3968,-2211.45 36.3968,-2202.6"/>
<polygon fill="black" stroke="black" points="39.8969,-2202.42 36.3968,-2192.42 32.8969,-2202.42 39.8969,-2202.42"/>
</g>
<!-- node24&#45;&gt;node24 -->
<g id="edge4" class="edge"><title>node24:n&#45;&gt;node24:e</title>
<path fill="none" stroke="black" d="M36.3968,-2192.86C54.529,-2199.61 90.7935,-2199.61 90.7935,-2174.36 90.7935,-2160.55 87.2047,-2154.29 83.0696,-2152.56"/>
<polygon fill="black" stroke="black" points="81.7329,-2149.32 73.3968,-2155.86 83.9913,-2155.95 81.7329,-2149.32"/>
<text text-anchor="middle" x="150.794" y="-2152.16" font-family="Times,serif" font-size="14.00">tailport=n headport=e</text>
</g>
<!-- node24&#45;&gt;node24 -->
<g id="edge5" class="edge"><title>node24:n&#45;&gt;node24:e</title>
<path fill="none" stroke="black" d="M36.3968,-2192.86C60.529,-2206.36 210.794,-2206.36 210.794,-2174.36 210.794,-2146.36 114.325,-2142.86 82.5727,-2151.46"/>
<polygon fill="black" stroke="black" points="80.9046,-2148.38 73.3968,-2155.86 83.9277,-2154.7 80.9046,-2148.38"/>
<text text-anchor="middle" x="270.794" y="-2152.16" font-family="Times,serif" font-size="14.00">tailport=n headport=e</text>
</g>
<!-- node25 -->
<g id="node3" class="node"><title>node25</title>
<ellipse fill="none" stroke="black" cx="36.3968" cy="-2046.06" rx="36.2938" ry="36.2938"/>
<text text-anchor="middle" x="36.3968" y="-2042.36" font-family="Times,serif" font-size="14.00">node25</text>
</g>
<!-- node24&#45;&gt;node25 -->
<g id="edge6" class="edge"><title>node24&#45;&gt;node25</title>
<path fill="none" stroke="black" d="M36.3968,-2119.26C36.3968,-2110.8 36.3968,-2101.66 36.3968,-2092.81"/>
<polygon fill="black" stroke="black" points="39.8969,-2092.62 36.3968,-2082.62 32.8969,-2092.62 39.8969,-2092.62"/>
</g>
<!-- node25&#45;&gt;node25 -->
<g id="edge7" class="edge"><title>node25:n&#45;&gt;node25:se</title>
<path fill="none" stroke="black" d="M36.3968,-2083.06C54.529,-2089.81 90.7935,-2089.81 90.7935,-2051.56 90.7935,-2021.38 83.3221,-2015.02 72.1146,-2016.99"/>
<polygon fill="black" stroke="black" points="70.875,-2013.71 62.3968,-2020.06 72.9868,-2020.39 70.875,-2013.71"/>
<text text-anchor="middle" x="153.294" y="-2042.36" font-family="Times,serif" font-size="14.00">tailport=n headport=se</text>
</g>
<!-- node25&#45;&gt;node25 -->
<g id="edge8" class="edge"><title>node25:n&#45;&gt;node25:se</title>
<path fill="none" stroke="black" d="M36.3968,-2083.06C60.529,-2096.56 215.794,-2096.56 215.794,-2051.56 215.794,-2010.96 109.13,-2006.99 71.8423,-2016.53"/>
<polygon fill="black" stroke="black" points="70.5327,-2013.28 62.3968,-2020.06 72.9891,-2019.83 70.5327,-2013.28"/>
<text text-anchor="middle" x="278.294" y="-2042.36" font-family="Times,serif" font-size="14.00">tailport=n headport=se</text>
</g>
<!-- node26 -->
<g id="node4" class="node"><title>node26</title>
<ellipse fill="none" stroke="black" cx="36.3968" cy="-1936.27" rx="36.2938" ry="36.2938"/>
<text text-anchor="middle" x="36.3968" y="-1932.57" font-family="Times,serif" font-size="14.00">node26</text>
</g>
<!-- node25&#45;&gt;node26 -->
<g id="edge9" class="edge"><title>node25&#45;&gt;node26</title>
<path fill="none" stroke="black" d="M36.3968,-2009.47C36.3968,-2001.01 36.3968,-1991.86 36.3968,-1983.02"/>
<polygon fill="black" stroke="black" points="39.8969,-1982.83 36.3968,-1972.83 32.8969,-1982.83 39.8969,-1982.83"/>
</g>
<!-- node26&#45;&gt;node26 -->
<g id="edge10" class="edge"><title>node26:n&#45;&gt;node26:s</title>
<path fill="none" stroke="black" d="M36.3968,-1973.27C54.529,-1980.02 90.7935,-1980.02 90.7935,-1936.27 90.7935,-1899.53 65.2148,-1893.64 46.2806,-1896.7"/>
<polygon fill="black" stroke="black" points="45.1932,-1893.37 36.3968,-1899.27 46.9559,-1900.14 45.1932,-1893.37"/>
<text text-anchor="middle" x="150.294" y="-1932.57" font-family="Times,serif" font-size="14.00">tailport=n headport=s</text>
</g>
<!-- node26&#45;&gt;node26 -->
<g id="edge11" class="edge"><title>node26:n&#45;&gt;node26:s</title>
<path fill="none" stroke="black" d="M36.3968,-1973.27C60.529,-1986.77 209.794,-1986.77 209.794,-1936.27 209.794,-1890.41 86.6753,-1886.2 45.9937,-1895.92"/>
<polygon fill="black" stroke="black" points="44.6859,-1892.67 36.3968,-1899.27 46.9916,-1899.28 44.6859,-1892.67"/>
<text text-anchor="middle" x="269.294" y="-1932.57" font-family="Times,serif" font-size="14.00">tailport=n headport=s</text>
</g>
<!-- node32 -->
<g id="node5" class="node"><title>node32</title>
<ellipse fill="none" stroke="black" cx="36.3968" cy="-1826.48" rx="36.2938" ry="36.2938"/>
<text text-anchor="middle" x="36.3968" y="-1822.78" font-family="Times,serif" font-size="14.00">node32</text>
</g>
<!-- node26&#45;&gt;node32 -->
<g id="edge12" class="edge"><title>node26&#45;&gt;node32</title>
<path fill="none" stroke="black" d="M36.3968,-1899.68C36.3968,-1891.21 36.3968,-1882.07 36.3968,-1873.22"/>
<polygon fill="black" stroke="black" points="39.8969,-1873.03 36.3968,-1863.03 32.8969,-1873.03 39.8969,-1873.03"/>
</g>
<!-- node32&#45;&gt;node32 -->
<g id="edge13" class="edge"><title>node32:ne&#45;&gt;node32:n</title>
<path fill="none" stroke="black" d="M62.3968,-1852.48C78.7935,-1845.73 90.7935,-1845.73 90.7935,-1857.98 90.7935,-1868.27 65.2148,-1869.91 46.2806,-1866.18"/>
<polygon fill="black" stroke="black" points="46.9657,-1862.74 36.3968,-1863.48 45.1203,-1869.49 46.9657,-1862.74"/>
<text text-anchor="middle" x="154.294" y="-1822.78" font-family="Times,serif" font-size="14.00">tailport=ne headport=n</text>
</g>
<!-- node32&#45;&gt;node32 -->
<g id="edge14" class="edge"><title>node32:ne&#45;&gt;node32:n</title>
<path fill="none" stroke="black" d="M62.3968,-1852.48C84.7935,-1838.98 217.794,-1838.98 217.794,-1857.98 217.794,-1875.27 87.5181,-1876.82 45.9145,-1866.79"/>
<polygon fill="black" stroke="black" points="46.9916,-1863.45 36.3968,-1863.48 44.6936,-1870.07 46.9916,-1863.45"/>
<text text-anchor="middle" x="281.294" y="-1822.78" font-family="Times,serif" font-size="14.00">tailport=ne headport=n</text>
</g>
<!-- node34 -->
<g id="node6" class="node"><title>node34</title>
<ellipse fill="none" stroke="black" cx="36.3968" cy="-1716.68" rx="36.2938" ry="36.2938"/>
<text text-anchor="middle" x="36.3968" y="-1712.98" font-family="Times,serif" font-size="14.00">node34</text>
</g>
<!-- node32&#45;&gt;node34 -->
<g id="edge15" class="edge"><title>node32&#45;&gt;node34</title>
<path fill="none" stroke="black" d="M36.3968,-1789.88C36.3968,-1781.42 36.3968,-1772.27 36.3968,-1763.43"/>
<polygon fill="black" stroke="black" points="39.8969,-1763.24 36.3968,-1753.24 32.8969,-1763.24 39.8969,-1763.24"/>
</g>
<!-- node34&#45;&gt;node34 -->
<g id="edge16" class="edge"><title>node34:ne&#45;&gt;node34:e</title>
<path fill="none" stroke="black" d="M62.3968,-1742.68C78.7935,-1749.43 90.7935,-1749.43 90.7935,-1729.68 90.7935,-1718.57 86.9967,-1713.71 82.7139,-1712.79"/>
<polygon fill="black" stroke="black" points="81.2732,-1709.6 73.3968,-1716.68 83.973,-1716.06 81.2732,-1709.6"/>
<text text-anchor="middle" x="153.794" y="-1712.98" font-family="Times,serif" font-size="14.00">tailport=ne headport=e</text>
</g>
<!-- node34&#45;&gt;node34 -->
<g id="edge17" class="edge"><title>node34:ne&#45;&gt;node34:e</title>
<path fill="none" stroke="black" d="M62.3968,-1742.68C84.7935,-1756.18 216.794,-1756.18 216.794,-1729.68 216.794,-1706.5 115.731,-1703.6 82.8305,-1712.28"/>
<polygon fill="black" stroke="black" points="80.9773,-1709.28 73.3968,-1716.68 83.9386,-1715.63 80.9773,-1709.28"/>
<text text-anchor="middle" x="279.794" y="-1712.98" font-family="Times,serif" font-size="14.00">tailport=ne headport=e</text>
</g>
<!-- node35 -->
<g id="node7" class="node"><title>node35</title>
<ellipse fill="none" stroke="black" cx="36.3968" cy="-1606.89" rx="36.2938" ry="36.2938"/>
<text text-anchor="middle" x="36.3968" y="-1603.19" font-family="Times,serif" font-size="14.00">node35</text>
</g>
<!-- node34&#45;&gt;node35 -->
<g id="edge18" class="edge"><title>node34&#45;&gt;node35</title>
<path fill="none" stroke="black" d="M36.3968,-1680.09C36.3968,-1671.63 36.3968,-1662.48 36.3968,-1653.64"/>
<polygon fill="black" stroke="black" points="39.8969,-1653.45 36.3968,-1643.45 32.8969,-1653.45 39.8969,-1653.45"/>
</g>
<!-- node35&#45;&gt;node35 -->
<g id="edge19" class="edge"><title>node35:ne&#45;&gt;node35:se</title>
<path fill="none" stroke="black" d="M62.3968,-1632.89C78.7935,-1639.64 90.7935,-1639.64 90.7935,-1606.89 90.7935,-1581.05 83.3221,-1575.6 72.1146,-1577.76"/>
<polygon fill="black" stroke="black" points="70.8443,-1574.5 62.3968,-1580.89 72.9882,-1581.16 70.8443,-1574.5"/>
<text text-anchor="middle" x="156.294" y="-1603.19" font-family="Times,serif" font-size="14.00">tailport=ne headport=se</text>
</g>
<!-- node35&#45;&gt;node35 -->
<g id="edge20" class="edge"><title>node35:ne&#45;&gt;node35:se</title>
<path fill="none" stroke="black" d="M62.3968,-1632.89C84.7935,-1646.39 221.794,-1646.39 221.794,-1606.89 221.794,-1571.25 110.245,-1567.77 72.0028,-1577.35"/>
<polygon fill="black" stroke="black" points="70.5668,-1574.15 62.3968,-1580.89 72.9901,-1580.71 70.5668,-1574.15"/>
<text text-anchor="middle" x="287.294" y="-1603.19" font-family="Times,serif" font-size="14.00">tailport=ne headport=se</text>
</g>
<!-- node36 -->
<g id="node8" class="node"><title>node36</title>
<ellipse fill="none" stroke="black" cx="36.3968" cy="-1497.1" rx="36.2938" ry="36.2938"/>
<text text-anchor="middle" x="36.3968" y="-1493.4" font-family="Times,serif" font-size="14.00">node36</text>
</g>
<!-- node35&#45;&gt;node36 -->
<g id="edge21" class="edge"><title>node35&#45;&gt;node36</title>
<path fill="none" stroke="black" d="M36.3968,-1570.3C36.3968,-1561.83 36.3968,-1552.69 36.3968,-1543.84"/>
<polygon fill="black" stroke="black" points="39.8969,-1543.65 36.3968,-1533.65 32.8969,-1543.65 39.8969,-1543.65"/>
</g>
<!-- node36&#45;&gt;node36 -->
<g id="edge22" class="edge"><title>node36:ne&#45;&gt;node36:s</title>
<path fill="none" stroke="black" d="M62.3968,-1523.1C78.7935,-1529.85 90.7935,-1529.85 90.7935,-1491.6 90.7935,-1459.47 65.2148,-1454.33 46.2806,-1457.5"/>
<polygon fill="black" stroke="black" points="45.1805,-1454.17 36.3968,-1460.1 46.9577,-1460.94 45.1805,-1454.17"/>
<text text-anchor="middle" x="153.294" y="-1493.4" font-family="Times,serif" font-size="14.00">tailport=ne headport=s</text>
</g>
<!-- node36&#45;&gt;node36 -->
<g id="edge23" class="edge"><title>node36:ne&#45;&gt;node36:s</title>
<path fill="none" stroke="black" d="M62.3968,-1523.1C84.7935,-1536.6 215.794,-1536.6 215.794,-1491.6 215.794,-1450.64 87.1748,-1446.96 45.8689,-1456.81"/>
<polygon fill="black" stroke="black" points="44.6955,-1453.51 36.3968,-1460.1 46.9916,-1460.12 44.6955,-1453.51"/>
<text text-anchor="middle" x="278.294" y="-1493.4" font-family="Times,serif" font-size="14.00">tailport=ne headport=s</text>
</g>
<!-- node42 -->
<g id="node9" class="node"><title>node42</title>
<ellipse fill="none" stroke="black" cx="36.3968" cy="-1387.3" rx="36.2938" ry="36.2938"/>
<text text-anchor="middle" x="36.3968" y="-1383.6" font-family="Times,serif" font-size="14.00">node42</text>
</g>
<!-- node36&#45;&gt;node42 -->
<g id="edge24" class="edge"><title>node36&#45;&gt;node42</title>
<path fill="none" stroke="black" d="M36.3968,-1460.5C36.3968,-1452.04 36.3968,-1442.89 36.3968,-1434.05"/>
<polygon fill="black" stroke="black" points="39.8969,-1433.86 36.3968,-1423.86 32.8969,-1433.86 39.8969,-1433.86"/>
</g>
<!-- node42&#45;&gt;node42 -->
<g id="edge25" class="edge"><title>node42:e&#45;&gt;node42:n</title>
<path fill="none" stroke="black" d="M73.3968,-1387.3C78.7935,-1380.55 90.7935,-1380.55 90.7935,-1405.8 90.7935,-1427.01 65.2148,-1430.41 46.2806,-1426.95"/>
<polygon fill="black" stroke="black" points="46.9619,-1423.51 36.3968,-1424.3 45.1505,-1430.27 46.9619,-1423.51"/>
<text text-anchor="middle" x="150.794" y="-1383.6" font-family="Times,serif" font-size="14.00">tailport=e headport=n</text>
</g>
<!-- node42&#45;&gt;node42 -->
<g id="edge26" class="edge"><title>node42:e&#45;&gt;node42:n</title>
<path fill="none" stroke="black" d="M73.3968,-1387.3C84.7935,-1373.8 210.794,-1373.8 210.794,-1405.8 210.794,-1434.87 86.8504,-1437.53 46.0174,-1427.67"/>
<polygon fill="black" stroke="black" points="46.9916,-1424.3 36.3968,-1424.3 44.6822,-1430.91 46.9916,-1424.3"/>
<text text-anchor="middle" x="270.794" y="-1383.6" font-family="Times,serif" font-size="14.00">tailport=e headport=n</text>
</g>
<!-- node43 -->
<g id="node10" class="node"><title>node43</title>
<ellipse fill="none" stroke="black" cx="36.3968" cy="-1277.51" rx="36.2938" ry="36.2938"/>
<text text-anchor="middle" x="36.3968" y="-1273.81" font-family="Times,serif" font-size="14.00">node43</text>
</g>
<!-- node42&#45;&gt;node43 -->
<g id="edge27" class="edge"><title>node42&#45;&gt;node43</title>
<path fill="none" stroke="black" d="M36.3968,-1350.71C36.3968,-1342.25 36.3968,-1333.1 36.3968,-1324.25"/>
<polygon fill="black" stroke="black" points="39.8969,-1324.07 36.3968,-1314.07 32.8969,-1324.07 39.8969,-1324.07"/>
</g>
<!-- node43&#45;&gt;node43 -->
<g id="edge28" class="edge"><title>node43:e&#45;&gt;node43:ne</title>
<path fill="none" stroke="black" d="M73.3968,-1277.51C78.7935,-1270.76 90.7935,-1270.76 90.7935,-1290.51 90.7935,-1306.09 83.3221,-1309.38 72.1146,-1306.76"/>
<polygon fill="black" stroke="black" points="72.9906,-1303.36 62.3968,-1303.51 70.7713,-1310 72.9906,-1303.36"/>
<text text-anchor="middle" x="153.794" y="-1273.81" font-family="Times,serif" font-size="14.00">tailport=e headport=ne</text>
</g>
<!-- node43&#45;&gt;node43 -->
<g id="edge29" class="edge"><title>node43:e&#45;&gt;node43:ne</title>
<path fill="none" stroke="black" d="M73.3968,-1277.51C84.7935,-1264.01 216.794,-1264.01 216.794,-1290.51 216.794,-1314.42 109.316,-1316.76 71.8691,-1307.07"/>
<polygon fill="black" stroke="black" points="72.9889,-1303.75 62.3968,-1303.51 70.5282,-1310.3 72.9889,-1303.75"/>
<text text-anchor="middle" x="279.794" y="-1273.81" font-family="Times,serif" font-size="14.00">tailport=e headport=ne</text>
</g>
<!-- node44 -->
<g id="node11" class="node"><title>node44</title>
<ellipse fill="none" stroke="black" cx="36.3968" cy="-1167.72" rx="36.2938" ry="36.2938"/>
<text text-anchor="middle" x="36.3968" y="-1164.02" font-family="Times,serif" font-size="14.00">node44</text>
</g>
<!-- node43&#45;&gt;node44 -->
<g id="edge30" class="edge"><title>node43&#45;&gt;node44</title>
<path fill="none" stroke="black" d="M36.3968,-1240.92C36.3968,-1232.45 36.3968,-1223.31 36.3968,-1214.46"/>
<polygon fill="black" stroke="black" points="39.8969,-1214.27 36.3968,-1204.27 32.8969,-1214.27 39.8969,-1214.27"/>
</g>
<!-- node44&#45;&gt;node44 -->
<g id="edge31" class="edge"><title>node44:e&#45;&gt;node44:e</title>
<path fill="none" stroke="black" d="M73.3968,-1167.72C78.7935,-1174.47 90.7935,-1174.47 90.7935,-1167.72 90.7935,-1163.81 86.7828,-1162.17 82.3559,-1162.78"/>
<polygon fill="black" stroke="black" points="80.4645,-1159.82 73.3968,-1167.72 83.844,-1165.95 80.4645,-1159.82"/>
<text text-anchor="middle" x="150.294" y="-1164.02" font-family="Times,serif" font-size="14.00">tailport=e headport=e</text>
</g>
<!-- node44&#45;&gt;node44 -->
<g id="edge32" class="edge"><title>node44:e&#45;&gt;node44:e</title>
<path fill="none" stroke="black" d="M73.3968,-1167.72C84.7935,-1181.22 209.794,-1181.22 209.794,-1167.72 209.794,-1155.9 114.09,-1154.43 82.5297,-1163.29"/>
<polygon fill="black" stroke="black" points="80.8669,-1160.2 73.3968,-1167.72 83.9217,-1166.5 80.8669,-1160.2"/>
<text text-anchor="middle" x="269.294" y="-1164.02" font-family="Times,serif" font-size="14.00">tailport=e headport=e</text>
</g>
<!-- node45 -->
<g id="node12" class="node"><title>node45</title>
<ellipse fill="none" stroke="black" cx="36.3968" cy="-1057.92" rx="36.2938" ry="36.2938"/>
<text text-anchor="middle" x="36.3968" y="-1054.22" font-family="Times,serif" font-size="14.00">node45</text>
</g>
<!-- node44&#45;&gt;node45 -->
<g id="edge33" class="edge"><title>node44&#45;&gt;node45</title>
<path fill="none" stroke="black" d="M36.3968,-1131.12C36.3968,-1122.66 36.3968,-1113.51 36.3968,-1104.67"/>
<polygon fill="black" stroke="black" points="39.8969,-1104.48 36.3968,-1094.48 32.8969,-1104.48 39.8969,-1104.48"/>
</g>
<!-- node45&#45;&gt;node45 -->
<g id="edge34" class="edge"><title>node45:e&#45;&gt;node45:se</title>
<path fill="none" stroke="black" d="M73.3968,-1057.92C78.7935,-1064.67 90.7935,-1064.67 90.7935,-1044.92 90.7935,-1029.34 83.3221,-1026.05 72.1146,-1028.67"/>
<polygon fill="black" stroke="black" points="70.7713,-1025.43 62.3968,-1031.92 72.9906,-1032.07 70.7713,-1025.43"/>
<text text-anchor="middle" x="152.794" y="-1054.22" font-family="Times,serif" font-size="14.00">tailport=e headport=se</text>
</g>
<!-- node45&#45;&gt;node45 -->
<g id="edge35" class="edge"><title>node45:e&#45;&gt;node45:se</title>
<path fill="none" stroke="black" d="M73.3968,-1057.92C84.7935,-1071.42 214.794,-1071.42 214.794,-1044.92 214.794,-1021.01 108.944,-1018.68 71.8156,-1028.37"/>
<polygon fill="black" stroke="black" points="70.5155,-1025.12 62.3968,-1031.92 72.9885,-1031.66 70.5155,-1025.12"/>
<text text-anchor="middle" x="276.794" y="-1054.22" font-family="Times,serif" font-size="14.00">tailport=e headport=se</text>
</g>
<!-- node46 -->
<g id="node13" class="node"><title>node46</title>
<ellipse fill="none" stroke="black" cx="36.3968" cy="-948.13" rx="36.2938" ry="36.2938"/>
<text text-anchor="middle" x="36.3968" y="-944.43" font-family="Times,serif" font-size="14.00">node46</text>
</g>
<!-- node45&#45;&gt;node46 -->
<g id="edge36" class="edge"><title>node45&#45;&gt;node46</title>
<path fill="none" stroke="black" d="M36.3968,-1021.33C36.3968,-1012.87 36.3968,-1003.72 36.3968,-994.874"/>
<polygon fill="black" stroke="black" points="39.8969,-994.687 36.3968,-984.687 32.8969,-994.687 39.8969,-994.687"/>
</g>
<!-- node46&#45;&gt;node46 -->
<g id="edge37" class="edge"><title>node46:e&#45;&gt;node46:s</title>
<path fill="none" stroke="black" d="M73.3968,-948.13C78.7935,-954.88 90.7935,-954.88 90.7935,-929.63 90.7935,-908.424 65.2148,-905.027 46.2806,-908.482"/>
<polygon fill="black" stroke="black" points="45.1505,-905.161 36.3968,-911.13 46.9619,-911.923 45.1505,-905.161"/>
<text text-anchor="middle" x="149.794" y="-944.43" font-family="Times,serif" font-size="14.00">tailport=e headport=s</text>
</g>
<!-- node46&#45;&gt;node46 -->
<g id="edge38" class="edge"><title>node46:e&#45;&gt;node46:s</title>
<path fill="none" stroke="black" d="M73.3968,-948.13C84.7935,-961.63 208.794,-961.63 208.794,-929.63 208.794,-900.567 86.5001,-897.899 45.9699,-907.767"/>
<polygon fill="black" stroke="black" points="44.672,-904.514 36.3968,-911.13 46.9916,-911.118 44.672,-904.514"/>
<text text-anchor="middle" x="267.794" y="-944.43" font-family="Times,serif" font-size="14.00">tailport=e headport=s</text>
</g>
<!-- node52 -->
<g id="node14" class="node"><title>node52</title>
<ellipse fill="none" stroke="black" cx="36.3968" cy="-838.336" rx="36.2938" ry="36.2938"/>
<text text-anchor="middle" x="36.3968" y="-834.636" font-family="Times,serif" font-size="14.00">node52</text>
</g>
<!-- node46&#45;&gt;node52 -->
<g id="edge39" class="edge"><title>node46&#45;&gt;node52</title>
<path fill="none" stroke="black" d="M36.3968,-911.535C36.3968,-903.072 36.3968,-893.927 36.3968,-885.081"/>
<polygon fill="black" stroke="black" points="39.8969,-884.893 36.3968,-874.893 32.8969,-884.893 39.8969,-884.893"/>
</g>
<!-- node52&#45;&gt;node52 -->
<g id="edge40" class="edge"><title>node52:se&#45;&gt;node52:n</title>
<path fill="none" stroke="black" d="M62.3968,-812.336C78.7935,-805.586 90.7935,-805.586 90.7935,-843.836 90.7935,-875.96 65.2148,-881.105 46.2806,-877.93"/>
<polygon fill="black" stroke="black" points="46.9577,-874.49 36.3968,-875.336 45.1805,-881.26 46.9577,-874.49"/>
<text text-anchor="middle" x="153.294" y="-834.636" font-family="Times,serif" font-size="14.00">tailport=se headport=n</text>
</g>
<!-- node52&#45;&gt;node52 -->
<g id="edge41" class="edge"><title>node52:se&#45;&gt;node52:n</title>
<path fill="none" stroke="black" d="M62.3968,-812.336C84.7935,-798.836 215.794,-798.836 215.794,-843.836 215.794,-884.793 87.1748,-888.473 45.8689,-878.625"/>
<polygon fill="black" stroke="black" points="46.9916,-875.31 36.3968,-875.336 44.6955,-881.923 46.9916,-875.31"/>
<text text-anchor="middle" x="278.294" y="-834.636" font-family="Times,serif" font-size="14.00">tailport=se headport=n</text>
</g>
<!-- node53 -->
<g id="node15" class="node"><title>node53</title>
<ellipse fill="none" stroke="black" cx="36.3968" cy="-728.542" rx="36.2938" ry="36.2938"/>
<text text-anchor="middle" x="36.3968" y="-724.842" font-family="Times,serif" font-size="14.00">node53</text>
</g>
<!-- node52&#45;&gt;node53 -->
<g id="edge42" class="edge"><title>node52&#45;&gt;node53</title>
<path fill="none" stroke="black" d="M36.3968,-801.742C36.3968,-793.279 36.3968,-784.133 36.3968,-775.287"/>
<polygon fill="black" stroke="black" points="39.8969,-775.099 36.3968,-765.1 32.8969,-775.1 39.8969,-775.099"/>
</g>
<!-- node53&#45;&gt;node53 -->
<g id="edge43" class="edge"><title>node53:se&#45;&gt;node53:ne</title>
<path fill="none" stroke="black" d="M62.3968,-702.542C78.7935,-695.792 90.7935,-695.792 90.7935,-728.542 90.7935,-754.384 83.3221,-759.835 72.1146,-757.669"/>
<polygon fill="black" stroke="black" points="72.9882,-754.273 62.3968,-754.542 70.8443,-760.937 72.9882,-754.273"/>
<text text-anchor="middle" x="156.294" y="-724.842" font-family="Times,serif" font-size="14.00">tailport=se headport=ne</text>
</g>
<!-- node53&#45;&gt;node53 -->
<g id="edge44" class="edge"><title>node53:se&#45;&gt;node53:ne</title>
<path fill="none" stroke="black" d="M62.3968,-702.542C84.7935,-689.042 221.794,-689.042 221.794,-728.542 221.794,-764.185 110.245,-767.666 72.0028,-758.087"/>
<polygon fill="black" stroke="black" points="72.9901,-754.721 62.3968,-754.542 70.5668,-761.288 72.9901,-754.721"/>
<text text-anchor="middle" x="287.294" y="-724.842" font-family="Times,serif" font-size="14.00">tailport=se headport=ne</text>
</g>
<!-- node54 -->
<g id="node16" class="node"><title>node54</title>
<ellipse fill="none" stroke="black" cx="36.3968" cy="-618.749" rx="36.2938" ry="36.2938"/>
<text text-anchor="middle" x="36.3968" y="-615.049" font-family="Times,serif" font-size="14.00">node54</text>
</g>
<!-- node53&#45;&gt;node54 -->
<g id="edge45" class="edge"><title>node53&#45;&gt;node54</title>
<path fill="none" stroke="black" d="M36.3968,-691.948C36.3968,-683.485 36.3968,-674.34 36.3968,-665.494"/>
<polygon fill="black" stroke="black" points="39.8969,-665.306 36.3968,-655.306 32.8969,-665.306 39.8969,-665.306"/>
</g>
<!-- node54&#45;&gt;node54 -->
<g id="edge46" class="edge"><title>node54:se&#45;&gt;node54:e</title>
<path fill="none" stroke="black" d="M62.3968,-592.749C78.7935,-585.999 90.7935,-585.999 90.7935,-605.749 90.7935,-616.858 86.9967,-621.719 82.7139,-622.644"/>
<polygon fill="black" stroke="black" points="83.973,-619.377 73.3968,-618.749 81.2732,-625.835 83.973,-619.377"/>
<text text-anchor="middle" x="152.794" y="-615.049" font-family="Times,serif" font-size="14.00">tailport=se headport=e</text>
</g>
<!-- node54&#45;&gt;node54 -->
<g id="edge47" class="edge"><title>node54:se&#45;&gt;node54:e</title>
<path fill="none" stroke="black" d="M62.3968,-592.749C84.7935,-579.249 214.794,-579.249 214.794,-605.749 214.794,-628.936 115.262,-631.835 82.7445,-623.153"/>
<polygon fill="black" stroke="black" points="83.9348,-619.845 73.3968,-618.749 80.9512,-626.177 83.9348,-619.845"/>
<text text-anchor="middle" x="276.794" y="-615.049" font-family="Times,serif" font-size="14.00">tailport=se headport=e</text>
</g>
<!-- node56 -->
<g id="node17" class="node"><title>node56</title>
<ellipse fill="none" stroke="black" cx="36.3968" cy="-508.955" rx="36.2938" ry="36.2938"/>
<text text-anchor="middle" x="36.3968" y="-505.255" font-family="Times,serif" font-size="14.00">node56</text>
</g>
<!-- node54&#45;&gt;node56 -->
<g id="edge48" class="edge"><title>node54&#45;&gt;node56</title>
<path fill="none" stroke="black" d="M36.3968,-582.155C36.3968,-573.692 36.3968,-564.546 36.3968,-555.7"/>
<polygon fill="black" stroke="black" points="39.8969,-555.512 36.3968,-545.512 32.8969,-555.512 39.8969,-555.512"/>
</g>
<!-- node56&#45;&gt;node56 -->
<g id="edge49" class="edge"><title>node56:se&#45;&gt;node56:s</title>
<path fill="none" stroke="black" d="M62.3968,-482.955C78.7935,-489.705 90.7935,-489.705 90.7935,-477.455 90.7935,-467.167 65.2148,-465.52 46.2806,-469.254"/>
<polygon fill="black" stroke="black" points="45.1203,-465.943 36.3968,-471.955 46.9657,-472.695 45.1203,-465.943"/>
<text text-anchor="middle" x="152.794" y="-505.255" font-family="Times,serif" font-size="14.00">tailport=se headport=s</text>
</g>
<!-- node56&#45;&gt;node56 -->
<g id="edge50" class="edge"><title>node56:se&#45;&gt;node56:s</title>
<path fill="none" stroke="black" d="M62.3968,-482.955C84.7935,-496.455 214.794,-496.455 214.794,-477.455 214.794,-460.162 87.0032,-458.609 45.8462,-468.648"/>
<polygon fill="black" stroke="black" points="44.6788,-465.348 36.3968,-471.955 46.9916,-471.955 44.6788,-465.348"/>
<text text-anchor="middle" x="276.794" y="-505.255" font-family="Times,serif" font-size="14.00">tailport=se headport=s</text>
</g>
<!-- node62 -->
<g id="node18" class="node"><title>node62</title>
<ellipse fill="none" stroke="black" cx="36.3968" cy="-399.162" rx="36.2938" ry="36.2938"/>
<text text-anchor="middle" x="36.3968" y="-395.462" font-family="Times,serif" font-size="14.00">node62</text>
</g>
<!-- node56&#45;&gt;node62 -->
<g id="edge51" class="edge"><title>node56&#45;&gt;node62</title>
<path fill="none" stroke="black" d="M36.3968,-472.361C36.3968,-463.898 36.3968,-454.752 36.3968,-445.907"/>
<polygon fill="black" stroke="black" points="39.8969,-445.719 36.3968,-435.719 32.8969,-445.719 39.8969,-445.719"/>
</g>
<!-- node62&#45;&gt;node62 -->
<g id="edge52" class="edge"><title>node62:s&#45;&gt;node62:n</title>
<path fill="none" stroke="black" d="M36.3968,-362.162C54.529,-355.412 90.7935,-355.412 90.7935,-399.162 90.7935,-435.905 65.2148,-441.79 46.2806,-438.734"/>
<polygon fill="black" stroke="black" points="46.9559,-435.293 36.3968,-436.162 45.1932,-442.067 46.9559,-435.293"/>
<text text-anchor="middle" x="150.294" y="-395.462" font-family="Times,serif" font-size="14.00">tailport=s headport=n</text>
</g>
<!-- node62&#45;&gt;node62 -->
<g id="edge53" class="edge"><title>node62:s&#45;&gt;node62:n</title>
<path fill="none" stroke="black" d="M36.3968,-362.162C60.529,-348.662 209.794,-348.662 209.794,-399.162 209.794,-445.026 86.6753,-449.236 45.9937,-439.51"/>
<polygon fill="black" stroke="black" points="46.9916,-436.151 36.3968,-436.162 44.6859,-442.76 46.9916,-436.151"/>
<text text-anchor="middle" x="269.294" y="-395.462" font-family="Times,serif" font-size="14.00">tailport=s headport=n</text>
</g>
<!-- node63 -->
<g id="node19" class="node"><title>node63</title>
<ellipse fill="none" stroke="black" cx="36.3968" cy="-289.368" rx="36.2938" ry="36.2938"/>
<text text-anchor="middle" x="36.3968" y="-285.668" font-family="Times,serif" font-size="14.00">node63</text>
</g>
<!-- node62&#45;&gt;node63 -->
<g id="edge54" class="edge"><title>node62&#45;&gt;node63</title>
<path fill="none" stroke="black" d="M36.3968,-362.567C36.3968,-354.105 36.3968,-344.959 36.3968,-336.113"/>
<polygon fill="black" stroke="black" points="39.8969,-335.925 36.3968,-325.925 32.8969,-335.925 39.8969,-335.925"/>
</g>
<!-- node63&#45;&gt;node63 -->
<g id="edge55" class="edge"><title>node63:s&#45;&gt;node63:ne</title>
<path fill="none" stroke="black" d="M36.3968,-252.368C54.529,-245.618 90.7935,-245.618 90.7935,-283.868 90.7935,-314.05 83.3221,-320.416 72.1146,-318.443"/>
<polygon fill="black" stroke="black" points="72.9868,-315.048 62.3968,-315.368 70.875,-321.722 72.9868,-315.048"/>
<text text-anchor="middle" x="153.294" y="-285.668" font-family="Times,serif" font-size="14.00">tailport=s headport=ne</text>
</g>
<!-- node63&#45;&gt;node63 -->
<g id="edge56" class="edge"><title>node63:s&#45;&gt;node63:ne</title>
<path fill="none" stroke="black" d="M36.3968,-252.368C60.529,-238.868 215.794,-238.868 215.794,-283.868 215.794,-324.474 109.13,-328.439 71.8423,-318.908"/>
<polygon fill="black" stroke="black" points="72.9891,-315.6 62.3968,-315.368 70.5327,-322.155 72.9891,-315.6"/>
<text text-anchor="middle" x="278.294" y="-285.668" font-family="Times,serif" font-size="14.00">tailport=s headport=ne</text>
</g>
<!-- node64 -->
<g id="node20" class="node"><title>node64</title>
<ellipse fill="none" stroke="black" cx="36.3968" cy="-179.575" rx="36.2938" ry="36.2938"/>
<text text-anchor="middle" x="36.3968" y="-175.875" font-family="Times,serif" font-size="14.00">node64</text>
</g>
<!-- node63&#45;&gt;node64 -->
<g id="edge57" class="edge"><title>node63&#45;&gt;node64</title>
<path fill="none" stroke="black" d="M36.3968,-252.774C36.3968,-244.311 36.3968,-235.165 36.3968,-226.319"/>
<polygon fill="black" stroke="black" points="39.8969,-226.132 36.3968,-216.132 32.8969,-226.132 39.8969,-226.132"/>
</g>
<!-- node64&#45;&gt;node64 -->
<g id="edge58" class="edge"><title>node64:s&#45;&gt;node64:e</title>
<path fill="none" stroke="black" d="M36.3968,-142.575C54.529,-135.825 90.7935,-135.825 90.7935,-161.075 90.7935,-174.883 87.2047,-181.14 83.0696,-182.872"/>
<polygon fill="black" stroke="black" points="83.9913,-179.488 73.3968,-179.575 81.7329,-186.114 83.9913,-179.488"/>
<text text-anchor="middle" x="149.794" y="-175.875" font-family="Times,serif" font-size="14.00">tailport=s headport=e</text>
</g>
<!-- node64&#45;&gt;node64 -->
<g id="edge59" class="edge"><title>node64:s&#45;&gt;node64:e</title>
<path fill="none" stroke="black" d="M36.3968,-142.575C60.529,-129.075 208.794,-129.075 208.794,-161.075 208.794,-189.075 113.856,-192.575 82.4867,-183.968"/>
<polygon fill="black" stroke="black" points="83.9234,-180.775 73.3968,-179.575 80.8771,-187.078 83.9234,-180.775"/>
<text text-anchor="middle" x="267.794" y="-175.875" font-family="Times,serif" font-size="14.00">tailport=s headport=e</text>
</g>
<!-- node65 -->
<g id="node21" class="node"><title>node65</title>
<ellipse fill="none" stroke="black" cx="36.3968" cy="-69.7812" rx="36.2938" ry="36.2938"/>
<text text-anchor="middle" x="36.3968" y="-66.0812" font-family="Times,serif" font-size="14.00">node65</text>
</g>
<!-- node64&#45;&gt;node65 -->
<g id="edge60" class="edge"><title>node64&#45;&gt;node65</title>
<path fill="none" stroke="black" d="M36.3968,-142.98C36.3968,-134.518 36.3968,-125.372 36.3968,-116.526"/>
<polygon fill="black" stroke="black" points="39.8969,-116.338 36.3968,-106.338 32.8969,-116.338 39.8969,-116.338"/>
</g>
<!-- node65&#45;&gt;node65 -->
<g id="edge61" class="edge"><title>node65:s&#45;&gt;node65:se</title>
<path fill="none" stroke="black" d="M36.3968,-32.7812C54.529,-26.0312 90.7935,-26.0312 90.7935,-38.2812 90.7935,-47.9473 83.3221,-49.9862 72.1146,-47.1001"/>
<polygon fill="black" stroke="black" points="72.9913,-43.7011 62.3968,-43.7812 70.7289,-50.3254 72.9913,-43.7011"/>
<text text-anchor="middle" x="152.794" y="-66.0812" font-family="Times,serif" font-size="14.00">tailport=s headport=se</text>
</g>
<!-- node65&#45;&gt;node65 -->
<g id="edge62" class="edge"><title>node65:s&#45;&gt;node65:se</title>
<path fill="none" stroke="black" d="M36.3968,-32.7812C60.529,-19.2812 214.794,-19.2812 214.794,-38.2812 214.794,-55.4258 108.944,-57.1001 71.8156,-47.345"/>
<polygon fill="black" stroke="black" points="72.9883,-44.0466 62.3968,-43.7812 70.5111,-50.5936 72.9883,-44.0466"/>
<text text-anchor="middle" x="276.794" y="-66.0812" font-family="Times,serif" font-size="14.00">tailport=s headport=se</text>
</g>
</g>
</svg>
