<?xml version="1.0" encoding="UTF-8" standalone="no"?>
<!DOCTYPE svg PUBLIC "-//W3C//DTD SVG 1.1//EN"
 "http://www.w3.org/Graphics/SVG/1.1/DTD/svg11.dtd">
<!-- Generated by graphviz version 2.38.0 (20140413.2041)
 -->
<!-- Title: G Pages: 1 -->
<svg width="144pt" height="1505pt"
 viewBox="0.00 0.00 144.00 1505.00" xmlns="http://www.w3.org/2000/svg" xmlns:xlink="http://www.w3.org/1999/xlink">
<g id="graph0" class="graph" transform="scale(1 1) rotate(0) translate(4 1501)">
<title>G</title>
<polygon fill="white" stroke="none" points="-4,4 -4,-1501 140,-1501 140,4 -4,4"/>
<text text-anchor="middle" x="68" y="-7.8" font-family="Times,serif" font-size="14.00">SelfTop</text>
<!-- node13 -->
<g id="node1" class="node"><title>node13</title>
<polygon fill="none" stroke="black" points="96,-1446 40,-1446 40,-1410 96,-1410 96,-1446"/>
<text text-anchor="middle" x="68" y="-1424.3" font-family="Times,serif" font-size="14.00">node13</text>
</g>
<!-- node13&#45;&gt;node13 -->
<g id="edge1" class="edge"><title>node13:nw&#45;&gt;node13:ne</title>
<path fill="none" stroke="black" d="M40,-1446C35.5,-1452 35.5,-1464 68,-1464 85.7734,-1464 93.827,-1460.41 96.7403,-1456.18"/>
<polygon fill="black" stroke="black" points="100.216,-1455.72 96,-1446 93.2348,-1456.23 100.216,-1455.72"/>
<text text-anchor="middle" x="68" y="-1467.8" font-family="Times,serif" font-size="14.00">tailport=nw headport=ne</text>
</g>
<!-- node13&#45;&gt;node13 -->
<g id="edge2" class="edge"><title>node13:nw&#45;&gt;node13:ne</title>
<path fill="none" stroke="black" d="M40,-1446C31,-1458 31,-1482 68,-1482 96.9062,-1482 103.229,-1467.35 100.321,-1455.22"/>
<polygon fill="black" stroke="black" points="103.413,-1453.57 96,-1446 97.0743,-1456.54 103.413,-1453.57"/>
<text text-anchor="middle" x="68" y="-1485.8" font-family="Times,serif" font-size="14.00">tailport=nw headport=ne</text>
</g>
<!-- node14 -->
<g id="node2" class="node"><title>node14</title>
<polygon fill="none" stroke="black" points="96,-1373 40,-1373 40,-1337 96,-1337 96,-1373"/>
<text text-anchor="middle" x="68" y="-1351.3" font-family="Times,serif" font-size="14.00">node14</text>
</g>
<!-- node13&#45;&gt;node14 -->
<g id="edge3" class="edge"><title>node13&#45;&gt;node14</title>
<path fill="none" stroke="black" d="M68,-1409.81C68,-1401.79 68,-1392.05 68,-1383.07"/>
<polygon fill="black" stroke="black" points="71.5001,-1383.03 68,-1373.03 64.5001,-1383.03 71.5001,-1383.03"/>
</g>
<!-- node14&#45;&gt;node14 -->
<g id="edge4" class="edge"><title>node14:nw&#45;&gt;node14:e</title>
<path fill="none" stroke="black" d="M40,-1373C35.5,-1379 35.5,-1391 68,-1391 92.8828,-1391 98.7147,-1376.93 98.062,-1364.95"/>
<polygon fill="black" stroke="black" points="101.456,-1364.08 96,-1355 94.6018,-1365.5 101.456,-1364.08"/>
<text text-anchor="middle" x="68" y="-1394.8" font-family="Times,serif" font-size="14.00">tailport=nw headport=e</text>
</g>
<!-- node14&#45;&gt;node14 -->
<g id="edge5" class="edge"><title>node14:nw&#45;&gt;node14:e</title>
<path fill="none" stroke="black" d="M40,-1373C31,-1385 31,-1409 68,-1409 99.2188,-1409 104.097,-1383.37 99.4528,-1364.55"/>
<polygon fill="black" stroke="black" points="102.692,-1363.21 96,-1355 96.1087,-1365.59 102.692,-1363.21"/>
<text text-anchor="middle" x="68" y="-1412.8" font-family="Times,serif" font-size="14.00">tailport=nw headport=e</text>
</g>
<!-- node15 -->
<g id="node3" class="node"><title>node15</title>
<polygon fill="none" stroke="black" points="96,-1300 40,-1300 40,-1264 96,-1264 96,-1300"/>
<text text-anchor="middle" x="68" y="-1278.3" font-family="Times,serif" font-size="14.00">node15</text>
</g>
<!-- node14&#45;&gt;node15 -->
<g id="edge6" class="edge"><title>node14&#45;&gt;node15</title>
<path fill="none" stroke="black" d="M68,-1336.81C68,-1328.79 68,-1319.05 68,-1310.07"/>
<polygon fill="black" stroke="black" points="71.5001,-1310.03 68,-1300.03 64.5001,-1310.03 71.5001,-1310.03"/>
</g>
<!-- node15&#45;&gt;node15 -->
<g id="edge7" class="edge"><title>node15:nw&#45;&gt;node15:se</title>
<path fill="none" stroke="black" d="M40,-1300C31,-1306 31,-1318 68,-1318 98.0625,-1318 103.699,-1290.27 99.9287,-1273.44"/>
<polygon fill="black" stroke="black" points="103.074,-1271.89 96,-1264 96.6112,-1274.58 103.074,-1271.89"/>
<text text-anchor="middle" x="68" y="-1321.8" font-family="Times,serif" font-size="14.00">tailport=nw headport=se</text>
</g>
<!-- node15&#45;&gt;node15 -->
<g id="edge8" class="edge"><title>node15:nw&#45;&gt;node15:se</title>
<path fill="none" stroke="black" d="M40,-1300C26.5,-1312 26.5,-1336 68,-1336 103.826,-1336 108.724,-1295.76 100.709,-1273.17"/>
<polygon fill="black" stroke="black" points="103.681,-1271.3 96,-1264 97.4535,-1274.49 103.681,-1271.3"/>
<text text-anchor="middle" x="68" y="-1339.8" font-family="Times,serif" font-size="14.00">tailport=nw headport=se</text>
</g>
<!-- node22 -->
<g id="node4" class="node"><title>node22</title>
<polygon fill="none" stroke="black" points="96,-1227 40,-1227 40,-1191 96,-1191 96,-1227"/>
<text text-anchor="middle" x="68" y="-1205.3" font-family="Times,serif" font-size="14.00">node22</text>
</g>
<!-- node15&#45;&gt;node22 -->
<g id="edge9" class="edge"><title>node15&#45;&gt;node22</title>
<path fill="none" stroke="black" d="M68,-1263.81C68,-1255.79 68,-1246.05 68,-1237.07"/>
<polygon fill="black" stroke="black" points="71.5001,-1237.03 68,-1227.03 64.5001,-1237.03 71.5001,-1237.03"/>
</g>
<!-- node22&#45;&gt;node22 -->
<g id="edge10" class="edge"><title>node22:n&#45;&gt;node22:n</title>
<path fill="none" stroke="black" d="M68,-1227C72.5,-1233 72.5,-1245 68,-1245 65.3984,-1245 64.3009,-1240.99 64.7074,-1236.45"/>
<polygon fill="black" stroke="black" points="68.0134,-1237.59 68,-1227 61.4034,-1235.29 68.0134,-1237.59"/>
<text text-anchor="middle" x="68" y="-1248.8" font-family="Times,serif" font-size="14.00">tailport=n headport=n</text>
</g>
<!-- node22&#45;&gt;node22 -->
<g id="edge11" class="edge"><title>node22:n&#45;&gt;node22:n</title>
<path fill="none" stroke="black" d="M68,-1227C77,-1239 77,-1263 68,-1263 60.9688,-1263 59.4307,-1248.35 63.3857,-1236.22"/>
<polygon fill="black" stroke="black" points="66.6548,-1237.51 68,-1227 60.3949,-1234.38 66.6548,-1237.51"/>
<text text-anchor="middle" x="68" y="-1266.8" font-family="Times,serif" font-size="14.00">tailport=n headport=n</text>
</g>
<!-- node31 -->
<g id="node5" class="node"><title>node31</title>
<polygon fill="none" stroke="black" points="96,-1154 40,-1154 40,-1118 96,-1118 96,-1154"/>
<text text-anchor="middle" x="68" y="-1132.3" font-family="Times,serif" font-size="14.00">node31</text>
</g>
<!-- node22&#45;&gt;node31 -->
<g id="edge12" class="edge"><title>node22&#45;&gt;node31</title>
<path fill="none" stroke="black" d="M68,-1190.81C68,-1182.79 68,-1173.05 68,-1164.07"/>
<polygon fill="black" stroke="black" points="71.5001,-1164.03 68,-1154.03 64.5001,-1164.03 71.5001,-1164.03"/>
</g>
<!-- node31&#45;&gt;node31 -->
<g id="edge13" class="edge"><title>node31:ne&#45;&gt;node31:nw</title>
<path fill="none" stroke="black" d="M96,-1154C100.5,-1160 100.5,-1172 68,-1172 50.2266,-1172 42.173,-1168.41 39.2597,-1164.18"/>
<polygon fill="black" stroke="black" points="42.7652,-1164.23 40,-1154 35.7836,-1163.72 42.7652,-1164.23"/>
<text text-anchor="middle" x="68" y="-1175.8" font-family="Times,serif" font-size="14.00">tailport=ne headport=nw</text>
</g>
<!-- node31&#45;&gt;node31 -->
<g id="edge14" class="edge"><title>node31:ne&#45;&gt;node31:nw</title>
<path fill="none" stroke="black" d="M96,-1154C105,-1166 105,-1190 68,-1190 39.0938,-1190 32.7705,-1175.35 35.6788,-1163.22"/>
<polygon fill="black" stroke="black" points="38.9257,-1164.54 40,-1154 32.5872,-1161.57 38.9257,-1164.54"/>
<text text-anchor="middle" x="68" y="-1193.8" font-family="Times,serif" font-size="14.00">tailport=ne headport=nw</text>
</g>
<!-- node33 -->
<g id="node6" class="node"><title>node33</title>
<polygon fill="none" stroke="black" points="96,-1081 40,-1081 40,-1045 96,-1045 96,-1081"/>
<text text-anchor="middle" x="68" y="-1059.3" font-family="Times,serif" font-size="14.00">node33</text>
</g>
<!-- node31&#45;&gt;node33 -->
<g id="edge15" class="edge"><title>node31&#45;&gt;node33</title>
<path fill="none" stroke="black" d="M68,-1117.81C68,-1109.79 68,-1100.05 68,-1091.07"/>
<polygon fill="black" stroke="black" points="71.5001,-1091.03 68,-1081.03 64.5001,-1091.03 71.5001,-1091.03"/>
</g>
<!-- node33&#45;&gt;node33 -->
<g id="edge16" class="edge"><title>node33:ne&#45;&gt;node33:ne</title>
<path fill="none" stroke="black" d="M96,-1081C100.5,-1087 100.5,-1099 96,-1099 93.3984,-1099 92.3009,-1094.99 92.7074,-1090.45"/>
<polygon fill="black" stroke="black" points="96.0134,-1091.59 96,-1081 89.4034,-1089.29 96.0134,-1091.59"/>
<text text-anchor="middle" x="68" y="-1102.8" font-family="Times,serif" font-size="14.00">tailport=ne headport=ne</text>
</g>
<!-- node33&#45;&gt;node33 -->
<g id="edge17" class="edge"><title>node33:ne&#45;&gt;node33:ne</title>
<path fill="none" stroke="black" d="M96,-1081C105,-1093 105,-1117 96,-1117 88.9688,-1117 87.4307,-1102.35 91.3857,-1090.22"/>
<polygon fill="black" stroke="black" points="94.6548,-1091.51 96,-1081 88.3949,-1088.38 94.6548,-1091.51"/>
<text text-anchor="middle" x="68" y="-1120.8" font-family="Times,serif" font-size="14.00">tailport=ne headport=ne</text>
</g>
<!-- node37 -->
<g id="node7" class="node"><title>node37</title>
<polygon fill="none" stroke="black" points="96,-1008 40,-1008 40,-972 96,-972 96,-1008"/>
<text text-anchor="middle" x="68" y="-986.3" font-family="Times,serif" font-size="14.00">node37</text>
</g>
<!-- node33&#45;&gt;node37 -->
<g id="edge18" class="edge"><title>node33&#45;&gt;node37</title>
<path fill="none" stroke="black" d="M68,-1044.81C68,-1036.79 68,-1027.05 68,-1018.07"/>
<polygon fill="black" stroke="black" points="71.5001,-1018.03 68,-1008.03 64.5001,-1018.03 71.5001,-1018.03"/>
</g>
<!-- node37&#45;&gt;node37 -->
<g id="edge19" class="edge"><title>node37:ne&#45;&gt;node37:sw</title>
<path fill="none" stroke="black" d="M96,-1008C137.833,-1014 137.833,-1026 68,-1026 3.89518,-1026 -1.36342,-990.608 30.565,-975.519"/>
<polygon fill="black" stroke="black" points="31.8536,-978.774 40,-972 29.4073,-972.215 31.8536,-978.774"/>
<text text-anchor="middle" x="68" y="-1029.8" font-family="Times,serif" font-size="14.00">tailport=ne headport=sw</text>
</g>
<!-- node37&#45;&gt;node37 -->
<g id="edge20" class="edge"><title>node37:ne&#45;&gt;node37:sw</title>
<path fill="none" stroke="black" d="M96,-1008C142.333,-1020 142.333,-1044 68,-1044 -1.10677,-1044 -5.96584,-997.327 30.9235,-976.3"/>
<polygon fill="black" stroke="black" points="32.461,-979.444 40,-972 29.4643,-973.118 32.461,-979.444"/>
<text text-anchor="middle" x="68" y="-1047.8" font-family="Times,serif" font-size="14.00">tailport=ne headport=sw</text>
</g>
<!-- node38 -->
<g id="node8" class="node"><title>node38</title>
<polygon fill="none" stroke="black" points="96,-935 40,-935 40,-899 96,-899 96,-935"/>
<text text-anchor="middle" x="68" y="-913.3" font-family="Times,serif" font-size="14.00">node38</text>
</g>
<!-- node37&#45;&gt;node38 -->
<g id="edge21" class="edge"><title>node37&#45;&gt;node38</title>
<path fill="none" stroke="black" d="M68,-971.813C68,-963.789 68,-954.047 68,-945.069"/>
<polygon fill="black" stroke="black" points="71.5001,-945.029 68,-935.029 64.5001,-945.029 71.5001,-945.029"/>
</g>
<!-- node38&#45;&gt;node38 -->
<g id="edge22" class="edge"><title>node38:ne&#45;&gt;node38:w</title>
<path fill="none" stroke="black" d="M96,-935C105,-941 105,-953 68,-953 39.0938,-953 32.7705,-938.352 35.6788,-926.221"/>
<polygon fill="black" stroke="black" points="38.9257,-927.54 40,-917 32.5872,-924.57 38.9257,-927.54"/>
<text text-anchor="middle" x="68" y="-956.8" font-family="Times,serif" font-size="14.00">tailport=ne headport=w</text>
</g>
<!-- node38&#45;&gt;node38 -->
<g id="edge23" class="edge"><title>node38:ne&#45;&gt;node38:w</title>
<path fill="none" stroke="black" d="M96,-935C109.5,-947 109.5,-971 68,-971 32.498,-971 27.3669,-944.654 35.077,-925.77"/>
<polygon fill="black" stroke="black" points="38.1569,-927.433 40,-917 32.0529,-924.007 38.1569,-927.433"/>
<text text-anchor="middle" x="68" y="-974.8" font-family="Times,serif" font-size="14.00">tailport=ne headport=w</text>
</g>
<!-- node41 -->
<g id="node9" class="node"><title>node41</title>
<polygon fill="none" stroke="black" points="96,-862 40,-862 40,-826 96,-826 96,-862"/>
<text text-anchor="middle" x="68" y="-840.3" font-family="Times,serif" font-size="14.00">node41</text>
</g>
<!-- node38&#45;&gt;node41 -->
<g id="edge24" class="edge"><title>node38&#45;&gt;node41</title>
<path fill="none" stroke="black" d="M68,-898.813C68,-890.789 68,-881.047 68,-872.069"/>
<polygon fill="black" stroke="black" points="71.5001,-872.029 68,-862.029 64.5001,-872.029 71.5001,-872.029"/>
</g>
<!-- node41&#45;&gt;node41 -->
<g id="edge25" class="edge"><title>node41:e&#45;&gt;node41:nw</title>
<path fill="none" stroke="black" d="M96,-844C105,-856 105,-880 68,-880 46.0312,-880 37.1064,-875.77 35.3646,-871.076"/>
<polygon fill="black" stroke="black" points="38.5687,-872.498 40,-862 32.3346,-869.314 38.5687,-872.498"/>
<text text-anchor="middle" x="68" y="-883.8" font-family="Times,serif" font-size="14.00">tailport=e headport=nw</text>
</g>
<!-- node41&#45;&gt;node41 -->
<g id="edge26" class="edge"><title>node41:e&#45;&gt;node41:nw</title>
<path fill="none" stroke="black" d="M96,-844C109.5,-862 109.5,-898 68,-898 34.6055,-898 28.0831,-882.459 33.8434,-870.136"/>
<polygon fill="black" stroke="black" points="36.757,-872.086 40,-862 31.1749,-867.862 36.757,-872.086"/>
<text text-anchor="middle" x="68" y="-901.8" font-family="Times,serif" font-size="14.00">tailport=e headport=nw</text>
</g>
<!-- node47 -->
<g id="node10" class="node"><title>node47</title>
<polygon fill="none" stroke="black" points="96,-789 40,-789 40,-753 96,-753 96,-789"/>
<text text-anchor="middle" x="68" y="-767.3" font-family="Times,serif" font-size="14.00">node47</text>
</g>
<!-- node41&#45;&gt;node47 -->
<g id="edge27" class="edge"><title>node41&#45;&gt;node47</title>
<path fill="none" stroke="black" d="M68,-825.813C68,-817.789 68,-808.047 68,-799.069"/>
<polygon fill="black" stroke="black" points="71.5001,-799.029 68,-789.029 64.5001,-799.029 71.5001,-799.029"/>
</g>
<!-- node47&#45;&gt;node47 -->
<g id="edge28" class="edge"><title>node47:e&#45;&gt;node47:sw</title>
<path fill="none" stroke="black" d="M96,-771C137.833,-783 137.833,-807 68,-807 3.89518,-807 -1.36342,-771.608 30.565,-756.519"/>
<polygon fill="black" stroke="black" points="31.8536,-759.774 40,-753 29.4073,-753.215 31.8536,-759.774"/>
<text text-anchor="middle" x="68" y="-810.8" font-family="Times,serif" font-size="14.00">tailport=e headport=sw</text>
</g>
<!-- node47&#45;&gt;node47 -->
<g id="edge29" class="edge"><title>node47:e&#45;&gt;node47:sw</title>
<path fill="none" stroke="black" d="M96,-771C142.333,-789 142.333,-825 68,-825 -1.10677,-825 -5.96584,-778.327 30.9235,-757.3"/>
<polygon fill="black" stroke="black" points="32.461,-760.444 40,-753 29.4643,-754.118 32.461,-760.444"/>
<text text-anchor="middle" x="68" y="-828.8" font-family="Times,serif" font-size="14.00">tailport=e headport=sw</text>
</g>
<!-- node48 -->
<g id="node11" class="node"><title>node48</title>
<polygon fill="none" stroke="black" points="96,-716 40,-716 40,-680 96,-680 96,-716"/>
<text text-anchor="middle" x="68" y="-694.3" font-family="Times,serif" font-size="14.00">node48</text>
</g>
<!-- node47&#45;&gt;node48 -->
<g id="edge30" class="edge"><title>node47&#45;&gt;node48</title>
<path fill="none" stroke="black" d="M68,-752.813C68,-744.789 68,-735.047 68,-726.069"/>
<polygon fill="black" stroke="black" points="71.5001,-726.029 68,-716.029 64.5001,-726.029 71.5001,-726.029"/>
</g>
<!-- node48&#45;&gt;node48 -->
<g id="edge31" class="edge"><title>node48:e&#45;&gt;node48:w</title>
<path fill="none" stroke="black" d="M96,-698C105,-710 105,-734 68,-734 39.0938,-734 32.7705,-719.352 35.6788,-707.221"/>
<polygon fill="black" stroke="black" points="38.9257,-708.54 40,-698 32.5872,-705.57 38.9257,-708.54"/>
<text text-anchor="middle" x="68" y="-737.8" font-family="Times,serif" font-size="14.00">tailport=e headport=w</text>
</g>
<!-- node48&#45;&gt;node48 -->
<g id="edge32" class="edge"><title>node48:e&#45;&gt;node48:w</title>
<path fill="none" stroke="black" d="M96,-698C109.5,-716 109.5,-752 68,-752 32.498,-752 27.3669,-725.654 35.077,-706.77"/>
<polygon fill="black" stroke="black" points="38.1569,-708.433 40,-698 32.0529,-705.007 38.1569,-708.433"/>
<text text-anchor="middle" x="68" y="-755.8" font-family="Times,serif" font-size="14.00">tailport=e headport=w</text>
</g>
<!-- node51 -->
<g id="node12" class="node"><title>node51</title>
<polygon fill="none" stroke="black" points="96,-643 40,-643 40,-607 96,-607 96,-643"/>
<text text-anchor="middle" x="68" y="-621.3" font-family="Times,serif" font-size="14.00">node51</text>
</g>
<!-- node48&#45;&gt;node51 -->
<g id="edge33" class="edge"><title>node48&#45;&gt;node51</title>
<path fill="none" stroke="black" d="M68,-679.813C68,-671.789 68,-662.047 68,-653.069"/>
<polygon fill="black" stroke="black" points="71.5001,-653.029 68,-643.029 64.5001,-653.029 71.5001,-653.029"/>
</g>
<!-- node51&#45;&gt;node51 -->
<g id="edge34" class="edge"><title>node51:se&#45;&gt;node51:nw</title>
<path fill="none" stroke="black" d="M96,-607C137.833,-619 137.833,-661 68,-661 4.44076,-661 -1.26965,-651.059 29.7579,-644.749"/>
<polygon fill="black" stroke="black" points="30.7321,-648.134 40,-643 29.5534,-641.234 30.7321,-648.134"/>
<text text-anchor="middle" x="68" y="-664.8" font-family="Times,serif" font-size="14.00">tailport=se headport=nw</text>
</g>
<!-- node51&#45;&gt;node51 -->
<g id="edge35" class="edge"><title>node51:se&#45;&gt;node51:nw</title>
<path fill="none" stroke="black" d="M96,-607C142.333,-625 142.333,-679 68,-679 -0.526042,-679 -5.87964,-658.604 30.0024,-646.015"/>
<polygon fill="black" stroke="black" points="31.4365,-649.238 40,-643 29.4153,-642.536 31.4365,-649.238"/>
<text text-anchor="middle" x="68" y="-682.8" font-family="Times,serif" font-size="14.00">tailport=se headport=nw</text>
</g>
<!-- node57 -->
<g id="node13" class="node"><title>node57</title>
<polygon fill="none" stroke="black" points="96,-570 40,-570 40,-534 96,-534 96,-570"/>
<text text-anchor="middle" x="68" y="-548.3" font-family="Times,serif" font-size="14.00">node57</text>
</g>
<!-- node51&#45;&gt;node57 -->
<g id="edge36" class="edge"><title>node51&#45;&gt;node57</title>
<path fill="none" stroke="black" d="M68,-606.813C68,-598.789 68,-589.047 68,-580.069"/>
<polygon fill="black" stroke="black" points="71.5001,-580.029 68,-570.029 64.5001,-580.029 71.5001,-580.029"/>
</g>
<!-- node57&#45;&gt;node57 -->
<g id="edge37" class="edge"><title>node57:se&#45;&gt;node57:sw</title>
<path fill="none" stroke="black" d="M96,-534C137.833,-546 137.833,-588 68,-588 3.89518,-588 -1.36342,-552.608 30.565,-537.519"/>
<polygon fill="black" stroke="black" points="31.8536,-540.774 40,-534 29.4073,-534.215 31.8536,-540.774"/>
<text text-anchor="middle" x="68" y="-591.8" font-family="Times,serif" font-size="14.00">tailport=se headport=sw</text>
</g>
<!-- node57&#45;&gt;node57 -->
<g id="edge38" class="edge"><title>node57:se&#45;&gt;node57:sw</title>
<path fill="none" stroke="black" d="M96,-534C142.333,-552 142.333,-606 68,-606 -1.10677,-606 -5.96584,-559.327 30.9235,-538.3"/>
<polygon fill="black" stroke="black" points="32.461,-541.444 40,-534 29.4643,-535.118 32.461,-541.444"/>
<text text-anchor="middle" x="68" y="-609.8" font-family="Times,serif" font-size="14.00">tailport=se headport=sw</text>
</g>
<!-- node58 -->
<g id="node14" class="node"><title>node58</title>
<polygon fill="none" stroke="black" points="96,-497 40,-497 40,-461 96,-461 96,-497"/>
<text text-anchor="middle" x="68" y="-475.3" font-family="Times,serif" font-size="14.00">node58</text>
</g>
<!-- node57&#45;&gt;node58 -->
<g id="edge39" class="edge"><title>node57&#45;&gt;node58</title>
<path fill="none" stroke="black" d="M68,-533.813C68,-525.789 68,-516.047 68,-507.069"/>
<polygon fill="black" stroke="black" points="71.5001,-507.029 68,-497.029 64.5001,-507.029 71.5001,-507.029"/>
</g>
<!-- node58&#45;&gt;node58 -->
<g id="edge40" class="edge"><title>node58:se&#45;&gt;node58:w</title>
<path fill="none" stroke="black" d="M96,-461C137.833,-473 137.833,-515 68,-515 4.16797,-515 -1.3176,-494.948 30.1595,-482.337"/>
<polygon fill="black" stroke="black" points="31.6536,-485.526 40,-479 29.4057,-478.897 31.6536,-485.526"/>
<text text-anchor="middle" x="68" y="-518.8" font-family="Times,serif" font-size="14.00">tailport=se headport=w</text>
</g>
<!-- node58&#45;&gt;node58 -->
<g id="edge41" class="edge"><title>node58:se&#45;&gt;node58:w</title>
<path fill="none" stroke="black" d="M96,-461C142.333,-479 142.333,-533 68,-533 -0.816406,-533 -5.92387,-502.145 30.4607,-483.283"/>
<polygon fill="black" stroke="black" points="32.311,-486.289 40,-479 29.4437,-479.903 32.311,-486.289"/>
<text text-anchor="middle" x="68" y="-536.8" font-family="Times,serif" font-size="14.00">tailport=se headport=w</text>
</g>
<!-- node73 -->
<g id="node15" class="node"><title>node73</title>
<polygon fill="none" stroke="black" points="96,-424 40,-424 40,-388 96,-388 96,-424"/>
<text text-anchor="middle" x="68" y="-402.3" font-family="Times,serif" font-size="14.00">node73</text>
</g>
<!-- node58&#45;&gt;node73 -->
<g id="edge42" class="edge"><title>node58&#45;&gt;node73</title>
<path fill="none" stroke="black" d="M68,-460.813C68,-452.789 68,-443.047 68,-434.069"/>
<polygon fill="black" stroke="black" points="71.5001,-434.029 68,-424.029 64.5001,-434.029 71.5001,-434.029"/>
</g>
<!-- node73&#45;&gt;node73 -->
<g id="edge43" class="edge"><title>node73:sw&#45;&gt;node73:ne</title>
<path fill="none" stroke="black" d="M40,-388C31,-400 31,-442 68,-442 89.9688,-442 98.8936,-437.77 100.635,-433.076"/>
<polygon fill="black" stroke="black" points="103.665,-431.314 96,-424 97.4313,-434.498 103.665,-431.314"/>
<text text-anchor="middle" x="68" y="-445.8" font-family="Times,serif" font-size="14.00">tailport=sw headport=ne</text>
</g>
<!-- node73&#45;&gt;node73 -->
<g id="edge44" class="edge"><title>node73:sw&#45;&gt;node73:ne</title>
<path fill="none" stroke="black" d="M40,-388C26.5,-406 26.5,-460 68,-460 101.395,-460 107.917,-444.459 102.157,-432.136"/>
<polygon fill="black" stroke="black" points="104.825,-429.862 96,-424 99.243,-434.086 104.825,-429.862"/>
<text text-anchor="middle" x="68" y="-463.8" font-family="Times,serif" font-size="14.00">tailport=sw headport=ne</text>
</g>
<!-- node74 -->
<g id="node16" class="node"><title>node74</title>
<polygon fill="none" stroke="black" points="96,-351 40,-351 40,-315 96,-315 96,-351"/>
<text text-anchor="middle" x="68" y="-329.3" font-family="Times,serif" font-size="14.00">node74</text>
</g>
<!-- node73&#45;&gt;node74 -->
<g id="edge45" class="edge"><title>node73&#45;&gt;node74</title>
<path fill="none" stroke="black" d="M68,-387.813C68,-379.789 68,-370.047 68,-361.069"/>
<polygon fill="black" stroke="black" points="71.5001,-361.029 68,-351.029 64.5001,-361.029 71.5001,-361.029"/>
</g>
<!-- node74&#45;&gt;node74 -->
<g id="edge46" class="edge"><title>node74:sw&#45;&gt;node74:e</title>
<path fill="none" stroke="black" d="M40,-315C26.5,-327 26.5,-369 68,-369 101.395,-369 107.917,-353.459 102.157,-341.136"/>
<polygon fill="black" stroke="black" points="104.825,-338.862 96,-333 99.243,-343.086 104.825,-338.862"/>
<text text-anchor="middle" x="68" y="-372.8" font-family="Times,serif" font-size="14.00">tailport=sw headport=e</text>
</g>
<!-- node74&#45;&gt;node74 -->
<g id="edge47" class="edge"><title>node74:sw&#45;&gt;node74:e</title>
<path fill="none" stroke="black" d="M40,-315C22,-333 22,-387 68,-387 107.891,-387 113.189,-359.927 102.154,-340.998"/>
<polygon fill="black" stroke="black" points="104.872,-338.791 96,-333 99.3242,-343.06 104.872,-338.791"/>
<text text-anchor="middle" x="68" y="-390.8" font-family="Times,serif" font-size="14.00">tailport=sw headport=e</text>
</g>
<!-- node75 -->
<g id="node17" class="node"><title>node75</title>
<polygon fill="none" stroke="black" points="96,-278 40,-278 40,-242 96,-242 96,-278"/>
<text text-anchor="middle" x="68" y="-256.3" font-family="Times,serif" font-size="14.00">node75</text>
</g>
<!-- node74&#45;&gt;node75 -->
<g id="edge48" class="edge"><title>node74&#45;&gt;node75</title>
<path fill="none" stroke="black" d="M68,-314.813C68,-306.789 68,-297.047 68,-288.069"/>
<polygon fill="black" stroke="black" points="71.5001,-288.029 68,-278.029 64.5001,-288.029 71.5001,-288.029"/>
</g>
<!-- node75&#45;&gt;node75 -->
<g id="edge49" class="edge"><title>node75:sw&#45;&gt;node75:se</title>
<path fill="none" stroke="black" d="M40,-242C26.5,-254 26.5,-296 68,-296 102.367,-296 108.274,-267.197 101.622,-250.481"/>
<polygon fill="black" stroke="black" points="104.443,-248.401 96,-242 98.6085,-252.269 104.443,-248.401"/>
<text text-anchor="middle" x="68" y="-299.8" font-family="Times,serif" font-size="14.00">tailport=sw headport=se</text>
</g>
<!-- node75&#45;&gt;node75 -->
<g id="edge50" class="edge"><title>node75:sw&#45;&gt;node75:se</title>
<path fill="none" stroke="black" d="M40,-242C22,-260 22,-314 68,-314 108.25,-314 113.281,-272.656 101.852,-250.262"/>
<polygon fill="black" stroke="black" points="104.636,-248.138 96,-242 98.9237,-252.183 104.636,-248.138"/>
<text text-anchor="middle" x="68" y="-317.8" font-family="Times,serif" font-size="14.00">tailport=sw headport=se</text>
</g>
<!-- node83 -->
<g id="node18" class="node"><title>node83</title>
<polygon fill="none" stroke="black" points="96,-205 40,-205 40,-169 96,-169 96,-205"/>
<text text-anchor="middle" x="68" y="-183.3" font-family="Times,serif" font-size="14.00">node83</text>
</g>
<!-- node75&#45;&gt;node83 -->
<g id="edge51" class="edge"><title>node75&#45;&gt;node83</title>
<path fill="none" stroke="black" d="M68,-241.813C68,-233.789 68,-224.047 68,-215.069"/>
<polygon fill="black" stroke="black" points="71.5001,-215.029 68,-205.029 64.5001,-215.029 71.5001,-215.029"/>
</g>
<!-- node83&#45;&gt;node83 -->
<g id="edge52" class="edge"><title>node83:w&#45;&gt;node83:ne</title>
<path fill="none" stroke="black" d="M40,-187C35.5,-199 35.5,-223 68,-223 85.7734,-223 93.827,-219.411 96.7403,-215.177"/>
<polygon fill="black" stroke="black" points="100.216,-214.72 96,-205 93.2348,-215.228 100.216,-214.72"/>
<text text-anchor="middle" x="68" y="-226.8" font-family="Times,serif" font-size="14.00">tailport=w headport=ne</text>
</g>
<!-- node83&#45;&gt;node83 -->
<g id="edge53" class="edge"><title>node83:w&#45;&gt;node83:ne</title>
<path fill="none" stroke="black" d="M40,-187C31,-205 31,-241 68,-241 96.9062,-241 103.229,-226.352 100.321,-214.221"/>
<polygon fill="black" stroke="black" points="103.413,-212.57 96,-205 97.0743,-215.54 103.413,-212.57"/>
<text text-anchor="middle" x="68" y="-244.8" font-family="Times,serif" font-size="14.00">tailport=w headport=ne</text>
</g>
<!-- node84 -->
<g id="node19" class="node"><title>node84</title>
<polygon fill="none" stroke="black" points="96,-132 40,-132 40,-96 96,-96 96,-132"/>
<text text-anchor="middle" x="68" y="-110.3" font-family="Times,serif" font-size="14.00">node84</text>
</g>
<!-- node83&#45;&gt;node84 -->
<g id="edge54" class="edge"><title>node83&#45;&gt;node84</title>
<path fill="none" stroke="black" d="M68,-168.813C68,-160.789 68,-151.047 68,-142.069"/>
<polygon fill="black" stroke="black" points="71.5001,-142.029 68,-132.029 64.5001,-142.029 71.5001,-142.029"/>
</g>
<!-- node84&#45;&gt;node84 -->
<g id="edge55" class="edge"><title>node84:w&#45;&gt;node84:e</title>
<path fill="none" stroke="black" d="M40,-114C31,-126 31,-150 68,-150 96.9062,-150 103.229,-135.352 100.321,-123.221"/>
<polygon fill="black" stroke="black" points="103.413,-121.57 96,-114 97.0743,-124.54 103.413,-121.57"/>
<text text-anchor="middle" x="68" y="-153.8" font-family="Times,serif" font-size="14.00">tailport=w headport=e</text>
</g>
<!-- node84&#45;&gt;node84 -->
<g id="edge56" class="edge"><title>node84:w&#45;&gt;node84:e</title>
<path fill="none" stroke="black" d="M40,-114C26.5,-132 26.5,-168 68,-168 103.502,-168 108.633,-141.654 100.923,-122.77"/>
<polygon fill="black" stroke="black" points="103.947,-121.007 96,-114 97.8431,-124.433 103.947,-121.007"/>
<text text-anchor="middle" x="68" y="-171.8" font-family="Times,serif" font-size="14.00">tailport=w headport=e</text>
</g>
<!-- node85 -->
<g id="node20" class="node"><title>node85</title>
<polygon fill="none" stroke="black" points="96,-59 40,-59 40,-23 96,-23 96,-59"/>
<text text-anchor="middle" x="68" y="-37.3" font-family="Times,serif" font-size="14.00">node85</text>
</g>
<!-- node84&#45;&gt;node85 -->
<g id="edge57" class="edge"><title>node84&#45;&gt;node85</title>
<path fill="none" stroke="black" d="M68,-95.8129C68,-87.7895 68,-78.0475 68,-69.0691"/>
<polygon fill="black" stroke="black" points="71.5001,-69.0288 68,-59.0288 64.5001,-69.0289 71.5001,-69.0288"/>
</g>
<!-- node85&#45;&gt;node85 -->
<g id="edge58" class="edge"><title>node85:w&#45;&gt;node85:se</title>
<path fill="none" stroke="black" d="M40,-41C26.5,-53 26.5,-77 68,-77 102.367,-77 108.274,-48.1968 101.622,-31.4806"/>
<polygon fill="black" stroke="black" points="104.443,-29.4007 96,-23 98.6085,-33.2687 104.443,-29.4007"/>
<text text-anchor="middle" x="68" y="-80.8" font-family="Times,serif" font-size="14.00">tailport=w headport=se</text>
</g>
<!-- node85&#45;&gt;node85 -->
<g id="edge59" class="edge"><title>node85:w&#45;&gt;node85:se</title>
<path fill="none" stroke="black" d="M40,-41C22,-59 22,-95 68,-95 108.25,-95 113.281,-53.6562 101.852,-31.2617"/>
<polygon fill="black" stroke="black" points="104.636,-29.1375 96,-23 98.9237,-33.1835 104.636,-29.1375"/>
<text text-anchor="middle" x="68" y="-98.8" font-family="Times,serif" font-size="14.00">tailport=w headport=se</text>
</g>
</g>
</svg>
