<?xml version="1.0" encoding="UTF-8" standalone="no"?>
<!DOCTYPE svg PUBLIC "-//W3C//DTD SVG 1.1//EN"
 "http://www.w3.org/Graphics/SVG/1.1/DTD/svg11.dtd">
<!-- Generated by graphviz version 2.38.0 (20140413.2041)
 -->
<!-- Title: G Pages: 1 -->
<svg width="144pt" height="1487pt"
 viewBox="0.00 0.00 144.00 1487.00" xmlns="http://www.w3.org/2000/svg" xmlns:xlink="http://www.w3.org/1999/xlink">
<g id="graph0" class="graph" transform="scale(1 1) rotate(0) translate(4 1483)">
<title>G</title>
<polygon fill="white" stroke="none" points="-4,4 -4,-1483 140,-1483 140,4 -4,4"/>
<text text-anchor="middle" x="68" y="-7.8" font-family="Times,serif" font-size="14.00">SelfTop</text>
<!-- node13 -->
<g id="node1" class="node"><title>node13</title>
<polygon fill="none" stroke="black" points="96,-1446 40,-1446 40,-1410 96,-1410 96,-1446"/>
<text text-anchor="middle" x="68" y="-1424.3" font-family="Times,serif" font-size="14.00">node13</text>
</g>
<!-- node13&#45;&gt;node13 -->
<g id="edge1" class="edge"><title>node13:nw&#45;&gt;node13:ne</title>
<path fill="none" stroke="black" d="M40,-1446C31,-1452 31,-1464 68,-1464 89.9688,-1464 98.8936,-1459.77 100.635,-1455.08"/>
<polygon fill="black" stroke="black" points="103.665,-1453.31 96,-1446 97.4313,-1456.5 103.665,-1453.31"/>
<text text-anchor="middle" x="68" y="-1467.8" font-family="Times,serif" font-size="14.00">tailport=nw headport=ne</text>
</g>
<!-- node14 -->
<g id="node2" class="node"><title>node14</title>
<polygon fill="none" stroke="black" points="96,-1373 40,-1373 40,-1337 96,-1337 96,-1373"/>
<text text-anchor="middle" x="68" y="-1351.3" font-family="Times,serif" font-size="14.00">node14</text>
</g>
<!-- node13&#45;&gt;node14 -->
<g id="edge2" class="edge"><title>node13&#45;&gt;node14</title>
<path fill="none" stroke="black" d="M68,-1409.81C68,-1401.79 68,-1392.05 68,-1383.07"/>
<polygon fill="black" stroke="black" points="71.5001,-1383.03 68,-1373.03 64.5001,-1383.03 71.5001,-1383.03"/>
</g>
<!-- node14&#45;&gt;node14 -->
<g id="edge3" class="edge"><title>node14:nw&#45;&gt;node14:e</title>
<path fill="none" stroke="black" d="M40,-1373C31,-1379 31,-1391 68,-1391 96.9062,-1391 103.229,-1376.35 100.321,-1364.22"/>
<polygon fill="black" stroke="black" points="103.413,-1362.57 96,-1355 97.0743,-1365.54 103.413,-1362.57"/>
<text text-anchor="middle" x="68" y="-1394.8" font-family="Times,serif" font-size="14.00">tailport=nw headport=e</text>
</g>
<!-- node15 -->
<g id="node3" class="node"><title>node15</title>
<polygon fill="none" stroke="black" points="96,-1300 40,-1300 40,-1264 96,-1264 96,-1300"/>
<text text-anchor="middle" x="68" y="-1278.3" font-family="Times,serif" font-size="14.00">node15</text>
</g>
<!-- node14&#45;&gt;node15 -->
<g id="edge4" class="edge"><title>node14&#45;&gt;node15</title>
<path fill="none" stroke="black" d="M68,-1336.81C68,-1328.79 68,-1319.05 68,-1310.07"/>
<polygon fill="black" stroke="black" points="71.5001,-1310.03 68,-1300.03 64.5001,-1310.03 71.5001,-1310.03"/>
</g>
<!-- node15&#45;&gt;node15 -->
<g id="edge5" class="edge"><title>node15:nw&#45;&gt;node15:se</title>
<path fill="none" stroke="black" d="M40,-1300C22,-1306 22,-1318 68,-1318 106.812,-1318 112.877,-1288.1 103.012,-1271.55"/>
<polygon fill="black" stroke="black" points="105.371,-1268.94 96,-1264 100.242,-1273.71 105.371,-1268.94"/>
<text text-anchor="middle" x="68" y="-1321.8" font-family="Times,serif" font-size="14.00">tailport=nw headport=se</text>
</g>
<!-- node22 -->
<g id="node4" class="node"><title>node22</title>
<polygon fill="none" stroke="black" points="96,-1227 40,-1227 40,-1191 96,-1191 96,-1227"/>
<text text-anchor="middle" x="68" y="-1205.3" font-family="Times,serif" font-size="14.00">node22</text>
</g>
<!-- node15&#45;&gt;node22 -->
<g id="edge6" class="edge"><title>node15&#45;&gt;node22</title>
<path fill="none" stroke="black" d="M68,-1263.81C68,-1255.79 68,-1246.05 68,-1237.07"/>
<polygon fill="black" stroke="black" points="71.5001,-1237.03 68,-1227.03 64.5001,-1237.03 71.5001,-1237.03"/>
</g>
<!-- node22&#45;&gt;node22 -->
<g id="edge7" class="edge"><title>node22:n&#45;&gt;node22:n</title>
<path fill="none" stroke="black" d="M68,-1227C77,-1233 77,-1245 68,-1245 62.2344,-1245 60.1624,-1240.08 61.7839,-1234.96"/>
<polygon fill="black" stroke="black" points="64.6025,-1237.04 68,-1227 59.0859,-1232.73 64.6025,-1237.04"/>
<text text-anchor="middle" x="68" y="-1248.8" font-family="Times,serif" font-size="14.00">tailport=n headport=n</text>
</g>
<!-- node31 -->
<g id="node5" class="node"><title>node31</title>
<polygon fill="none" stroke="black" points="96,-1154 40,-1154 40,-1118 96,-1118 96,-1154"/>
<text text-anchor="middle" x="68" y="-1132.3" font-family="Times,serif" font-size="14.00">node31</text>
</g>
<!-- node22&#45;&gt;node31 -->
<g id="edge8" class="edge"><title>node22&#45;&gt;node31</title>
<path fill="none" stroke="black" d="M68,-1190.81C68,-1182.79 68,-1173.05 68,-1164.07"/>
<polygon fill="black" stroke="black" points="71.5001,-1164.03 68,-1154.03 64.5001,-1164.03 71.5001,-1164.03"/>
</g>
<!-- node31&#45;&gt;node31 -->
<g id="edge9" class="edge"><title>node31:ne&#45;&gt;node31:nw</title>
<path fill="none" stroke="black" d="M96,-1154C105,-1160 105,-1172 68,-1172 46.0312,-1172 37.1064,-1167.77 35.3646,-1163.08"/>
<polygon fill="black" stroke="black" points="38.5687,-1164.5 40,-1154 32.3346,-1161.31 38.5687,-1164.5"/>
<text text-anchor="middle" x="68" y="-1175.8" font-family="Times,serif" font-size="14.00">tailport=ne headport=nw</text>
</g>
<!-- node33 -->
<g id="node6" class="node"><title>node33</title>
<polygon fill="none" stroke="black" points="96,-1081 40,-1081 40,-1045 96,-1045 96,-1081"/>
<text text-anchor="middle" x="68" y="-1059.3" font-family="Times,serif" font-size="14.00">node33</text>
</g>
<!-- node31&#45;&gt;node33 -->
<g id="edge10" class="edge"><title>node31&#45;&gt;node33</title>
<path fill="none" stroke="black" d="M68,-1117.81C68,-1109.79 68,-1100.05 68,-1091.07"/>
<polygon fill="black" stroke="black" points="71.5001,-1091.03 68,-1081.03 64.5001,-1091.03 71.5001,-1091.03"/>
</g>
<!-- node33&#45;&gt;node33 -->
<g id="edge11" class="edge"><title>node33:ne&#45;&gt;node33:ne</title>
<path fill="none" stroke="black" d="M96,-1081C105,-1087 105,-1099 96,-1099 90.2344,-1099 88.1624,-1094.08 89.7839,-1088.96"/>
<polygon fill="black" stroke="black" points="92.6025,-1091.04 96,-1081 87.0859,-1086.73 92.6025,-1091.04"/>
<text text-anchor="middle" x="68" y="-1102.8" font-family="Times,serif" font-size="14.00">tailport=ne headport=ne</text>
</g>
<!-- node37 -->
<g id="node7" class="node"><title>node37</title>
<polygon fill="none" stroke="black" points="96,-1008 40,-1008 40,-972 96,-972 96,-1008"/>
<text text-anchor="middle" x="68" y="-986.3" font-family="Times,serif" font-size="14.00">node37</text>
</g>
<!-- node33&#45;&gt;node37 -->
<g id="edge12" class="edge"><title>node33&#45;&gt;node37</title>
<path fill="none" stroke="black" d="M68,-1044.81C68,-1036.79 68,-1027.05 68,-1018.07"/>
<polygon fill="black" stroke="black" points="71.5001,-1018.03 68,-1008.03 64.5001,-1018.03 71.5001,-1018.03"/>
</g>
<!-- node37&#45;&gt;node37 -->
<g id="edge13" class="edge"><title>node37:ne&#45;&gt;node37:sw</title>
<path fill="none" stroke="black" d="M96,-1008C142.333,-1014 142.333,-1026 68,-1026 -0.816406,-1026 -5.92387,-990.003 30.4607,-975.138"/>
<polygon fill="black" stroke="black" points="31.5946,-978.45 40,-972 29.407,-971.8 31.5946,-978.45"/>
<text text-anchor="middle" x="68" y="-1029.8" font-family="Times,serif" font-size="14.00">tailport=ne headport=sw</text>
</g>
<!-- node38 -->
<g id="node8" class="node"><title>node38</title>
<polygon fill="none" stroke="black" points="96,-935 40,-935 40,-899 96,-899 96,-935"/>
<text text-anchor="middle" x="68" y="-913.3" font-family="Times,serif" font-size="14.00">node38</text>
</g>
<!-- node37&#45;&gt;node38 -->
<g id="edge14" class="edge"><title>node37&#45;&gt;node38</title>
<path fill="none" stroke="black" d="M68,-971.813C68,-963.789 68,-954.047 68,-945.069"/>
<polygon fill="black" stroke="black" points="71.5001,-945.029 68,-935.029 64.5001,-945.029 71.5001,-945.029"/>
</g>
<!-- node38&#45;&gt;node38 -->
<g id="edge15" class="edge"><title>node38:ne&#45;&gt;node38:w</title>
<path fill="none" stroke="black" d="M96,-935C114,-941 114,-953 68,-953 29.9062,-953 23.3589,-936.541 32.4561,-924.068"/>
<polygon fill="black" stroke="black" points="35.0956,-926.391 40,-917 30.3095,-921.283 35.0956,-926.391"/>
<text text-anchor="middle" x="68" y="-956.8" font-family="Times,serif" font-size="14.00">tailport=ne headport=w</text>
</g>
<!-- node41 -->
<g id="node9" class="node"><title>node41</title>
<polygon fill="none" stroke="black" points="96,-862 40,-862 40,-826 96,-826 96,-862"/>
<text text-anchor="middle" x="68" y="-840.3" font-family="Times,serif" font-size="14.00">node41</text>
</g>
<!-- node38&#45;&gt;node41 -->
<g id="edge16" class="edge"><title>node38&#45;&gt;node41</title>
<path fill="none" stroke="black" d="M68,-898.813C68,-890.789 68,-881.047 68,-872.069"/>
<polygon fill="black" stroke="black" points="71.5001,-872.029 68,-862.029 64.5001,-872.029 71.5001,-872.029"/>
</g>
<!-- node41&#45;&gt;node41 -->
<g id="edge17" class="edge"><title>node41:e&#45;&gt;node41:nw</title>
<path fill="none" stroke="black" d="M96,-844C114,-856 114,-880 68,-880 32.0625,-880 24.2012,-872.676 31.0646,-866.61"/>
<polygon fill="black" stroke="black" points="32.7181,-869.696 40,-862 29.5083,-863.475 32.7181,-869.696"/>
<text text-anchor="middle" x="68" y="-883.8" font-family="Times,serif" font-size="14.00">tailport=e headport=nw</text>
</g>
<!-- node47 -->
<g id="node10" class="node"><title>node47</title>
<polygon fill="none" stroke="black" points="96,-789 40,-789 40,-753 96,-753 96,-789"/>
<text text-anchor="middle" x="68" y="-767.3" font-family="Times,serif" font-size="14.00">node47</text>
</g>
<!-- node41&#45;&gt;node47 -->
<g id="edge18" class="edge"><title>node41&#45;&gt;node47</title>
<path fill="none" stroke="black" d="M68,-825.813C68,-817.789 68,-808.047 68,-799.069"/>
<polygon fill="black" stroke="black" points="71.5001,-799.029 68,-789.029 64.5001,-799.029 71.5001,-799.029"/>
</g>
<!-- node47&#45;&gt;node47 -->
<g id="edge19" class="edge"><title>node47:e&#45;&gt;node47:sw</title>
<path fill="none" stroke="black" d="M96,-771C142.333,-783 142.333,-807 68,-807 -0.816406,-807 -5.92387,-771.003 30.4607,-756.138"/>
<polygon fill="black" stroke="black" points="31.5946,-759.45 40,-753 29.407,-752.8 31.5946,-759.45"/>
<text text-anchor="middle" x="68" y="-810.8" font-family="Times,serif" font-size="14.00">tailport=e headport=sw</text>
</g>
<!-- node48 -->
<g id="node11" class="node"><title>node48</title>
<polygon fill="none" stroke="black" points="96,-716 40,-716 40,-680 96,-680 96,-716"/>
<text text-anchor="middle" x="68" y="-694.3" font-family="Times,serif" font-size="14.00">node48</text>
</g>
<!-- node47&#45;&gt;node48 -->
<g id="edge20" class="edge"><title>node47&#45;&gt;node48</title>
<path fill="none" stroke="black" d="M68,-752.813C68,-744.789 68,-735.047 68,-726.069"/>
<polygon fill="black" stroke="black" points="71.5001,-726.029 68,-716.029 64.5001,-726.029 71.5001,-726.029"/>
</g>
<!-- node48&#45;&gt;node48 -->
<g id="edge21" class="edge"><title>node48:e&#45;&gt;node48:w</title>
<path fill="none" stroke="black" d="M96,-698C114,-710 114,-734 68,-734 29.9062,-734 23.3589,-717.541 32.4561,-705.068"/>
<polygon fill="black" stroke="black" points="35.0956,-707.391 40,-698 30.3095,-702.283 35.0956,-707.391"/>
<text text-anchor="middle" x="68" y="-737.8" font-family="Times,serif" font-size="14.00">tailport=e headport=w</text>
</g>
<!-- node51 -->
<g id="node12" class="node"><title>node51</title>
<polygon fill="none" stroke="black" points="96,-643 40,-643 40,-607 96,-607 96,-643"/>
<text text-anchor="middle" x="68" y="-621.3" font-family="Times,serif" font-size="14.00">node51</text>
</g>
<!-- node48&#45;&gt;node51 -->
<g id="edge22" class="edge"><title>node48&#45;&gt;node51</title>
<path fill="none" stroke="black" d="M68,-679.813C68,-671.789 68,-662.047 68,-653.069"/>
<polygon fill="black" stroke="black" points="71.5001,-653.029 68,-643.029 64.5001,-653.029 71.5001,-653.029"/>
</g>
<!-- node51&#45;&gt;node51 -->
<g id="edge23" class="edge"><title>node51:se&#45;&gt;node51:nw</title>
<path fill="none" stroke="black" d="M96,-607C142.333,-619 142.333,-661 68,-661 -0.526042,-661 -5.87964,-650.802 30.0024,-644.508"/>
<polygon fill="black" stroke="black" points="30.6337,-647.952 40,-643 29.5899,-641.03 30.6337,-647.952"/>
<text text-anchor="middle" x="68" y="-664.8" font-family="Times,serif" font-size="14.00">tailport=se headport=nw</text>
</g>
<!-- node57 -->
<g id="node13" class="node"><title>node57</title>
<polygon fill="none" stroke="black" points="96,-570 40,-570 40,-534 96,-534 96,-570"/>
<text text-anchor="middle" x="68" y="-548.3" font-family="Times,serif" font-size="14.00">node57</text>
</g>
<!-- node51&#45;&gt;node57 -->
<g id="edge24" class="edge"><title>node51&#45;&gt;node57</title>
<path fill="none" stroke="black" d="M68,-606.813C68,-598.789 68,-589.047 68,-580.069"/>
<polygon fill="black" stroke="black" points="71.5001,-580.029 68,-570.029 64.5001,-580.029 71.5001,-580.029"/>
</g>
<!-- node57&#45;&gt;node57 -->
<g id="edge25" class="edge"><title>node57:se&#45;&gt;node57:sw</title>
<path fill="none" stroke="black" d="M96,-534C142.333,-546 142.333,-588 68,-588 -0.816406,-588 -5.92387,-552.003 30.4607,-537.138"/>
<polygon fill="black" stroke="black" points="31.5946,-540.45 40,-534 29.407,-533.8 31.5946,-540.45"/>
<text text-anchor="middle" x="68" y="-591.8" font-family="Times,serif" font-size="14.00">tailport=se headport=sw</text>
</g>
<!-- node58 -->
<g id="node14" class="node"><title>node58</title>
<polygon fill="none" stroke="black" points="96,-497 40,-497 40,-461 96,-461 96,-497"/>
<text text-anchor="middle" x="68" y="-475.3" font-family="Times,serif" font-size="14.00">node58</text>
</g>
<!-- node57&#45;&gt;node58 -->
<g id="edge26" class="edge"><title>node57&#45;&gt;node58</title>
<path fill="none" stroke="black" d="M68,-533.813C68,-525.789 68,-516.047 68,-507.069"/>
<polygon fill="black" stroke="black" points="71.5001,-507.029 68,-497.029 64.5001,-507.029 71.5001,-507.029"/>
</g>
<!-- node58&#45;&gt;node58 -->
<g id="edge27" class="edge"><title>node58:se&#45;&gt;node58:w</title>
<path fill="none" stroke="black" d="M96,-461C142.333,-473 142.333,-515 68,-515 -0.526042,-515 -5.87964,-494.604 30.0024,-482.015"/>
<polygon fill="black" stroke="black" points="31.4365,-485.238 40,-479 29.4153,-478.536 31.4365,-485.238"/>
<text text-anchor="middle" x="68" y="-518.8" font-family="Times,serif" font-size="14.00">tailport=se headport=w</text>
</g>
<!-- node73 -->
<g id="node15" class="node"><title>node73</title>
<polygon fill="none" stroke="black" points="96,-424 40,-424 40,-388 96,-388 96,-424"/>
<text text-anchor="middle" x="68" y="-402.3" font-family="Times,serif" font-size="14.00">node73</text>
</g>
<!-- node58&#45;&gt;node73 -->
<g id="edge28" class="edge"><title>node58&#45;&gt;node73</title>
<path fill="none" stroke="black" d="M68,-460.813C68,-452.789 68,-443.047 68,-434.069"/>
<polygon fill="black" stroke="black" points="71.5001,-434.029 68,-424.029 64.5001,-434.029 71.5001,-434.029"/>
</g>
<!-- node73&#45;&gt;node73 -->
<g id="edge29" class="edge"><title>node73:sw&#45;&gt;node73:ne</title>
<path fill="none" stroke="black" d="M40,-388C22,-400 22,-442 68,-442 103.938,-442 111.799,-434.676 104.935,-428.61"/>
<polygon fill="black" stroke="black" points="106.492,-425.475 96,-424 103.282,-431.696 106.492,-425.475"/>
<text text-anchor="middle" x="68" y="-445.8" font-family="Times,serif" font-size="14.00">tailport=sw headport=ne</text>
</g>
<!-- node74 -->
<g id="node16" class="node"><title>node74</title>
<polygon fill="none" stroke="black" points="96,-351 40,-351 40,-315 96,-315 96,-351"/>
<text text-anchor="middle" x="68" y="-329.3" font-family="Times,serif" font-size="14.00">node74</text>
</g>
<!-- node73&#45;&gt;node74 -->
<g id="edge30" class="edge"><title>node73&#45;&gt;node74</title>
<path fill="none" stroke="black" d="M68,-387.813C68,-379.789 68,-370.047 68,-361.069"/>
<polygon fill="black" stroke="black" points="71.5001,-361.029 68,-351.029 64.5001,-361.029 71.5001,-361.029"/>
</g>
<!-- node74&#45;&gt;node74 -->
<g id="edge31" class="edge"><title>node74:sw&#45;&gt;node74:e</title>
<path fill="none" stroke="black" d="M40,-315C13,-327 13,-369 68,-369 116.125,-369 122.141,-350.625 104.805,-337.992"/>
<polygon fill="black" stroke="black" points="106.425,-334.888 96,-333 102.973,-340.977 106.425,-334.888"/>
<text text-anchor="middle" x="68" y="-372.8" font-family="Times,serif" font-size="14.00">tailport=sw headport=e</text>
</g>
<!-- node75 -->
<g id="node17" class="node"><title>node75</title>
<polygon fill="none" stroke="black" points="96,-278 40,-278 40,-242 96,-242 96,-278"/>
<text text-anchor="middle" x="68" y="-256.3" font-family="Times,serif" font-size="14.00">node75</text>
</g>
<!-- node74&#45;&gt;node75 -->
<g id="edge32" class="edge"><title>node74&#45;&gt;node75</title>
<path fill="none" stroke="black" d="M68,-314.813C68,-306.789 68,-297.047 68,-288.069"/>
<polygon fill="black" stroke="black" points="71.5001,-288.029 68,-278.029 64.5001,-288.029 71.5001,-288.029"/>
</g>
<!-- node75&#45;&gt;node75 -->
<g id="edge33" class="edge"><title>node75:sw&#45;&gt;node75:se</title>
<path fill="none" stroke="black" d="M40,-242C13,-254 13,-296 68,-296 116.125,-296 122.141,-263.844 104.805,-247.766"/>
<polygon fill="black" stroke="black" points="106.283,-244.55 96,-242 102.448,-250.406 106.283,-244.55"/>
<text text-anchor="middle" x="68" y="-299.8" font-family="Times,serif" font-size="14.00">tailport=sw headport=se</text>
</g>
<!-- node83 -->
<g id="node18" class="node"><title>node83</title>
<polygon fill="none" stroke="black" points="96,-205 40,-205 40,-169 96,-169 96,-205"/>
<text text-anchor="middle" x="68" y="-183.3" font-family="Times,serif" font-size="14.00">node83</text>
</g>
<!-- node75&#45;&gt;node83 -->
<g id="edge34" class="edge"><title>node75&#45;&gt;node83</title>
<path fill="none" stroke="black" d="M68,-241.813C68,-233.789 68,-224.047 68,-215.069"/>
<polygon fill="black" stroke="black" points="71.5001,-215.029 68,-205.029 64.5001,-215.029 71.5001,-215.029"/>
</g>
<!-- node83&#45;&gt;node83 -->
<g id="edge35" class="edge"><title>node83:w&#45;&gt;node83:ne</title>
<path fill="none" stroke="black" d="M40,-187C31,-199 31,-223 68,-223 89.9688,-223 98.8936,-218.77 100.635,-214.076"/>
<polygon fill="black" stroke="black" points="103.665,-212.314 96,-205 97.4313,-215.498 103.665,-212.314"/>
<text text-anchor="middle" x="68" y="-226.8" font-family="Times,serif" font-size="14.00">tailport=w headport=ne</text>
</g>
<!-- node84 -->
<g id="node19" class="node"><title>node84</title>
<polygon fill="none" stroke="black" points="96,-132 40,-132 40,-96 96,-96 96,-132"/>
<text text-anchor="middle" x="68" y="-110.3" font-family="Times,serif" font-size="14.00">node84</text>
</g>
<!-- node83&#45;&gt;node84 -->
<g id="edge36" class="edge"><title>node83&#45;&gt;node84</title>
<path fill="none" stroke="black" d="M68,-168.813C68,-160.789 68,-151.047 68,-142.069"/>
<polygon fill="black" stroke="black" points="71.5001,-142.029 68,-132.029 64.5001,-142.029 71.5001,-142.029"/>
</g>
<!-- node84&#45;&gt;node84 -->
<g id="edge37" class="edge"><title>node84:w&#45;&gt;node84:e</title>
<path fill="none" stroke="black" d="M40,-114C22,-126 22,-150 68,-150 106.094,-150 112.641,-133.541 103.544,-121.068"/>
<polygon fill="black" stroke="black" points="105.69,-118.283 96,-114 100.904,-123.391 105.69,-118.283"/>
<text text-anchor="middle" x="68" y="-153.8" font-family="Times,serif" font-size="14.00">tailport=w headport=e</text>
</g>
<!-- node85 -->
<g id="node20" class="node"><title>node85</title>
<polygon fill="none" stroke="black" points="96,-59 40,-59 40,-23 96,-23 96,-59"/>
<text text-anchor="middle" x="68" y="-37.3" font-family="Times,serif" font-size="14.00">node85</text>
</g>
<!-- node84&#45;&gt;node85 -->
<g id="edge38" class="edge"><title>node84&#45;&gt;node85</title>
<path fill="none" stroke="black" d="M68,-95.8129C68,-87.7895 68,-78.0475 68,-69.0691"/>
<polygon fill="black" stroke="black" points="71.5001,-69.0288 68,-59.0288 64.5001,-69.0289 71.5001,-69.0288"/>
</g>
<!-- node85&#45;&gt;node85 -->
<g id="edge39" class="edge"><title>node85:w&#45;&gt;node85:se</title>
<path fill="none" stroke="black" d="M40,-41C13,-53 13,-77 68,-77 116.125,-77 122.141,-44.8438 104.805,-28.7656"/>
<polygon fill="black" stroke="black" points="106.283,-25.5503 96,-23 102.448,-31.4064 106.283,-25.5503"/>
<text text-anchor="middle" x="68" y="-80.8" font-family="Times,serif" font-size="14.00">tailport=w headport=se</text>
</g>
</g>
</svg>
