<?xml version="1.0" encoding="UTF-8" standalone="no"?>
<!DOCTYPE svg PUBLIC "-//W3C//DTD SVG 1.1//EN"
 "http://www.w3.org/Graphics/SVG/1.1/DTD/svg11.dtd">
<!-- Generated by graphviz version 2.38.0 (20140413.2041)
 -->
<!-- Title: states Pages: 1 -->
<svg width="216pt" height="53pt"
 viewBox="0.00 0.00 216.00 53.08" xmlns="http://www.w3.org/2000/svg" xmlns:xlink="http://www.w3.org/1999/xlink">
<g id="graph0" class="graph" transform="scale(0.435062 0.435062) rotate(0) translate(4 118)">
<title>states</title>
<polygon fill="white" stroke="none" points="-4,4 -4,-118 492.481,-118 492.481,4 -4,4"/>
<!-- empty -->
<g id="node1" class="node"><title>empty</title>
<ellipse fill="none" stroke="black" cx="34.4469" cy="-18" rx="34.394" ry="18"/>
<text text-anchor="middle" x="34.4469" y="-14.3" font-family="Times,serif" font-size="14.00">Empty</text>
</g>
<!-- stolen -->
<g id="node2" class="node"><title>stolen</title>
<ellipse fill="none" stroke="black" cx="184.041" cy="-45" rx="33.2948" ry="18"/>
<text text-anchor="middle" x="184.041" y="-41.3" font-family="Times,serif" font-size="14.00">Stolen</text>
</g>
<!-- empty&#45;&gt;stolen -->
<g id="edge2" class="edge"><title>empty&#45;&gt;stolen</title>
<path fill="none" stroke="black" d="M67.1096,-23.7922C89.0973,-27.8145 118.59,-33.2097 142.325,-37.5517"/>
<polygon fill="black" stroke="black" points="141.975,-41.0456 152.441,-39.4023 143.234,-34.1598 141.975,-41.0456"/>
<text text-anchor="middle" x="109.894" y="-38.8" font-family="Times,serif" font-size="14.00">dispatch</text>
</g>
<!-- full -->
<g id="node4" class="node"><title>full</title>
<ellipse fill="none" stroke="black" cx="461.481" cy="-45" rx="27" ry="18"/>
<text text-anchor="middle" x="461.481" y="-41.3" font-family="Times,serif" font-size="14.00">Full</text>
</g>
<!-- empty&#45;&gt;full -->
<g id="edge1" class="edge"><title>empty&#45;&gt;full</title>
<path fill="none" stroke="black" d="M68.9739,-16.8926C105.466,-15.9457 165.521,-15.1419 217.188,-18 291.353,-22.1027 377.654,-33.1888 424.949,-39.8103"/>
<polygon fill="black" stroke="black" points="424.596,-43.2952 434.988,-41.2311 425.577,-36.3643 424.596,-43.2952"/>
<text text-anchor="middle" x="251.688" y="-24.8" font-family="Times,serif" font-size="14.00">return</text>
</g>
<!-- waiting -->
<g id="node3" class="node"><title>waiting</title>
<ellipse fill="none" stroke="black" cx="325.834" cy="-96" rx="39.7935" ry="18"/>
<text text-anchor="middle" x="325.834" y="-92.3" font-family="Times,serif" font-size="14.00">Waiting</text>
</g>
<!-- stolen&#45;&gt;waiting -->
<g id="edge4" class="edge"><title>stolen&#45;&gt;waiting</title>
<path fill="none" stroke="black" d="M211.995,-54.8333C232.544,-62.3302 261.178,-72.7766 284.459,-81.2701"/>
<polygon fill="black" stroke="black" points="283.476,-84.637 294.07,-84.7763 285.875,-78.0609 283.476,-84.637"/>
<text text-anchor="middle" x="251.688" y="-78.8" font-family="Times,serif" font-size="14.00">touch</text>
</g>
<!-- stolen&#45;&gt;full -->
<g id="edge3" class="edge"><title>stolen&#45;&gt;full</title>
<path fill="none" stroke="black" d="M217.447,-45C269.175,-45 370.071,-45 424.164,-45"/>
<polygon fill="black" stroke="black" points="424.33,-48.5001 434.33,-45 424.33,-41.5001 424.33,-48.5001"/>
<text text-anchor="middle" x="325.834" y="-48.8" font-family="Times,serif" font-size="14.00">return</text>
</g>
<!-- waiting&#45;&gt;full -->
<g id="edge5" class="edge"><title>waiting&#45;&gt;full</title>
<path fill="none" stroke="black" d="M356.827,-84.5546C378.05,-76.4559 406.481,-65.6066 428.199,-57.3191"/>
<polygon fill="black" stroke="black" points="429.56,-60.546 437.655,-53.7106 427.064,-54.006 429.56,-60.546"/>
<text text-anchor="middle" x="399.981" y="-76.8" font-family="Times,serif" font-size="14.00">return</text>
</g>
</g>
</svg>
