<?xml version="1.0" encoding="UTF-8" standalone="no"?>
<!DOCTYPE svg PUBLIC "-//W3C//DTD SVG 1.1//EN"
 "http://www.w3.org/Graphics/SVG/1.1/DTD/svg11.dtd">
<!-- Generated by graphviz version 2.38.0 (20140413.2041)
 -->
<!-- Title: structs Pages: 1 -->
<svg width="262pt" height="151pt"
 viewBox="0.00 0.00 262.00 151.00" xmlns="http://www.w3.org/2000/svg" xmlns:xlink="http://www.w3.org/1999/xlink">
<g id="graph0" class="graph" transform="scale(1 1) rotate(0) translate(4 147)">
<title>structs</title>
<polygon fill="white" stroke="none" points="-4,4 -4,-147 258,-147 258,4 -4,4"/>
<!-- struct1 -->
<g id="node1" class="node"><title>struct1</title>
<polygon fill="none" stroke="black" points="8.5,-106.5 8.5,-142.5 140.5,-142.5 140.5,-106.5 8.5,-106.5"/>
<text text-anchor="middle" x="26" y="-120.8" font-family="Times,serif" font-size="14.00">left</text>
<polyline fill="none" stroke="black" points="43.5,-106.5 43.5,-142.5 "/>
<text text-anchor="middle" x="71" y="-120.8" font-family="Times,serif" font-size="14.00">middle</text>
<polyline fill="none" stroke="black" points="98.5,-106.5 98.5,-142.5 "/>
<text text-anchor="middle" x="119.5" y="-120.8" font-family="Times,serif" font-size="14.00">right</text>
</g>
<!-- struct2 -->
<g id="node2" class="node"><title>struct2</title>
<polygon fill="none" stroke="black" points="0,-17 0,-53 73,-53 73,-17 0,-17"/>
<text text-anchor="middle" x="18" y="-31.3" font-family="Times,serif" font-size="14.00">one</text>
<polyline fill="none" stroke="black" points="36,-17 36,-53 "/>
<text text-anchor="middle" x="54.5" y="-31.3" font-family="Times,serif" font-size="14.00">two</text>
</g>
<!-- struct1&#45;&gt;struct2 -->
<g id="edge1" class="edge"><title>struct1:f1&#45;&gt;struct2:f0</title>
<path fill="none" stroke="black" d="M70.5,-106C70.5,-76.8674 29.194,-84.3641 19.5129,-63.8165"/>
<polygon fill="black" stroke="black" points="22.9375,-63.0931 17.5,-54 16.0802,-64.4993 22.9375,-63.0931"/>
</g>
<!-- struct3 -->
<g id="node3" class="node"><title>struct3</title>
<polygon fill="none" stroke="black" points="91,-0.5 91,-69.5 254,-69.5 254,-0.5 91,-0.5"/>
<text text-anchor="middle" x="115" y="-38.8" font-family="Times,serif" font-size="14.00">hello</text>
<text text-anchor="middle" x="115" y="-23.8" font-family="Times,serif" font-size="14.00">world</text>
<polyline fill="none" stroke="black" points="139,-0.5 139,-69.5 "/>
<text text-anchor="middle" x="173.5" y="-54.3" font-family="Times,serif" font-size="14.00">b</text>
<polyline fill="none" stroke="black" points="139,-46.5 208,-46.5 "/>
<text text-anchor="middle" x="150.5" y="-31.3" font-family="Times,serif" font-size="14.00">c</text>
<polyline fill="none" stroke="black" points="162,-23.5 162,-46.5 "/>
<text text-anchor="middle" x="173.5" y="-31.3" font-family="Times,serif" font-size="14.00">d</text>
<polyline fill="none" stroke="black" points="185,-23.5 185,-46.5 "/>
<text text-anchor="middle" x="196.5" y="-31.3" font-family="Times,serif" font-size="14.00">e</text>
<polyline fill="none" stroke="black" points="139,-23.5 208,-23.5 "/>
<text text-anchor="middle" x="173.5" y="-8.3" font-family="Times,serif" font-size="14.00">f</text>
<polyline fill="none" stroke="black" points="208,-0.5 208,-69.5 "/>
<text text-anchor="middle" x="219.5" y="-31.3" font-family="Times,serif" font-size="14.00">g</text>
<polyline fill="none" stroke="black" points="231,-0.5 231,-69.5 "/>
<text text-anchor="middle" x="242.5" y="-31.3" font-family="Times,serif" font-size="14.00">h</text>
</g>
<!-- struct1&#45;&gt;struct3 -->
<g id="edge2" class="edge"><title>struct1:f2&#45;&gt;struct3:here</title>
<path fill="none" stroke="black" d="M119.5,-106C119.5,-94.0887 138.998,-70.8562 154.561,-54.209"/>
<polygon fill="black" stroke="black" points="157.409,-56.2942 161.783,-46.6441 152.346,-51.4607 157.409,-56.2942"/>
</g>
</g>
</svg>
