<?xml version="1.0" encoding="UTF-8" standalone="no"?>
<!DOCTYPE svg PUBLIC "-//W3C//DTD SVG 1.1//EN"
 "http://www.w3.org/Graphics/SVG/1.1/DTD/svg11.dtd">
<!-- Generated by graphviz version 2.38.0 (20140413.2041)
 -->
<!-- Title: G Pages: 1 -->
<svg width="882pt" height="204pt"
 viewBox="0.00 0.00 882.00 204.00" xmlns="http://www.w3.org/2000/svg" xmlns:xlink="http://www.w3.org/1999/xlink">
<g id="graph0" class="graph" transform="scale(1 1) rotate(0) translate(4 200)">
<title>G</title>
<polygon fill="white" stroke="none" points="-4,4 -4,-200 878,-200 878,4 -4,4"/>
<g id="clust1" class="cluster"><title>clusterA</title>
<path fill="none" stroke="black" d="M736,-64C736,-64 854,-64 854,-64 860,-64 866,-70 866,-76 866,-76 866,-176 866,-176 866,-182 860,-188 854,-188 854,-188 736,-188 736,-188 730,-188 724,-182 724,-176 724,-176 724,-76 724,-76 724,-70 730,-64 736,-64"/>
</g>
<!-- b -->
<g id="node1" class="node"><title>b</title>
<ellipse fill="none" stroke="black" stroke-width="2" cx="27" cy="-90" rx="27" ry="18"/>
<text text-anchor="middle" x="27" y="-86.3" font-family="Times,serif" font-size="14.00">b</text>
</g>
<!-- c -->
<g id="node2" class="node"><title>c</title>
<ellipse fill="none" stroke="black" stroke-dasharray="5,2" cx="99" cy="-90" rx="27" ry="18"/>
<text text-anchor="middle" x="99" y="-86.3" font-family="Times,serif" font-size="14.00">c</text>
</g>
<!-- d -->
<g id="node3" class="node"><title>d</title>
<ellipse fill="none" stroke="black" stroke-dasharray="1,5" cx="171" cy="-90" rx="27" ry="18"/>
<text text-anchor="middle" x="171" y="-86.3" font-family="Times,serif" font-size="14.00">d</text>
</g>
<!-- e -->
<g id="node4" class="node"><title>e</title>
<ellipse fill="none" stroke="black" stroke-width="3" cx="243" cy="-90" rx="27" ry="18"/>
<text text-anchor="middle" x="243" y="-86.3" font-family="Times,serif" font-size="14.00">e</text>
</g>
<!-- f -->
<!-- g -->
<g id="node6" class="node"><title>g</title>
<ellipse fill="none" stroke="black" cx="387" cy="-90" rx="27" ry="18"/>
<text text-anchor="middle" x="387" y="-86.3" font-family="Times,serif" font-size="14.00">g</text>
</g>
<!-- a -->
<g id="node7" class="node"><title>a</title>
<ellipse fill="none" stroke="black" cx="207" cy="-162" rx="27" ry="18"/>
<text text-anchor="middle" x="207" y="-158.3" font-family="Times,serif" font-size="14.00">a</text>
</g>
<!-- a&#45;&gt;b -->
<g id="edge1" class="edge"><title>a&#45;&gt;b</title>
<path fill="none" stroke="black" stroke-width="2" d="M183.306,-153.002C154.563,-143.135 104.766,-125.507 63,-108 61.1833,-107.238 59.3249,-106.436 57.4566,-105.611"/>
<polygon fill="black" stroke="black" stroke-width="2" points="58.7311,-102.345 48.1801,-101.383 55.8281,-108.715 58.7311,-102.345"/>
</g>
<!-- a&#45;&gt;c -->
<g id="edge2" class="edge"><title>a&#45;&gt;c</title>
<path fill="none" stroke="black" stroke-dasharray="5,2" d="M188.188,-148.807C170.998,-137.665 145.382,-121.062 126.007,-108.504"/>
<polygon fill="black" stroke="black" points="127.892,-105.555 117.597,-103.053 124.084,-111.429 127.892,-105.555"/>
</g>
<!-- a&#45;&gt;d -->
<g id="edge3" class="edge"><title>a&#45;&gt;d</title>
<path fill="none" stroke="black" stroke-dasharray="1,5" d="M198.65,-144.765C194.288,-136.283 188.853,-125.714 183.959,-116.197"/>
<polygon fill="black" stroke="black" points="186.99,-114.439 179.304,-107.147 180.765,-117.641 186.99,-114.439"/>
</g>
<!-- a&#45;&gt;e -->
<g id="edge4" class="edge"><title>a&#45;&gt;e</title>
<path fill="none" stroke="black" stroke-width="3" d="M215.35,-144.765C219.712,-136.283 225.147,-125.714 230.041,-116.197"/>
<polygon fill="black" stroke="black" stroke-width="3" points="233.235,-117.641 234.696,-107.147 227.01,-114.439 233.235,-117.641"/>
</g>
<!-- a&#45;&gt;f -->
<!-- a&#45;&gt;g -->
<g id="edge6" class="edge"><title>a&#45;&gt;g</title>
<path fill="none" stroke="black" d="M230.694,-153.002C259.437,-143.135 309.234,-125.507 351,-108 352.817,-107.238 354.675,-106.436 356.543,-105.611"/>
<polygon fill="black" stroke="black" points="358.172,-108.715 365.82,-101.383 355.269,-102.345 358.172,-108.715"/>
</g>
<!-- B -->
<g id="node8" class="node"><title>B</title>
<path fill="none" stroke="black" stroke-width="2" d="M474,-180C474,-180 444,-180 444,-180 438,-180 432,-174 432,-168 432,-168 432,-156 432,-156 432,-150 438,-144 444,-144 444,-144 474,-144 474,-144 480,-144 486,-150 486,-156 486,-156 486,-168 486,-168 486,-174 480,-180 474,-180"/>
<text text-anchor="middle" x="459" y="-158.3" font-family="Times,serif" font-size="14.00">B</text>
</g>
<!-- BD -->
<g id="node12" class="node"><title>BD</title>
<ellipse fill="none" stroke="black" stroke-width="2" cx="459" cy="-90" rx="27" ry="18"/>
<polyline fill="none" stroke="black" stroke-width="2" points="476.858,-103.5 441.142,-103.5 "/>
<polyline fill="none" stroke="black" stroke-width="2" points="476.858,-76.5 441.142,-76.5 "/>
<text text-anchor="middle" x="459" y="-86.3" font-family="Times,serif" font-size="14.00">BD</text>
</g>
<!-- B&#45;&gt;BD -->
<g id="edge7" class="edge"><title>B&#45;&gt;BD</title>
<path fill="none" stroke="black" d="M459,-143.697C459,-135.983 459,-126.712 459,-118.112"/>
<polygon fill="black" stroke="black" points="462.5,-118.104 459,-108.104 455.5,-118.104 462.5,-118.104"/>
</g>
<!-- C -->
<g id="node9" class="node"><title>C</title>
<path fill="none" stroke="black" stroke-dasharray="5,2" d="M527,-174C527,-174 518,-168 518,-168 513.5,-165 513.5,-159 518,-156 518,-156 527,-150 527,-150 531.5,-147 540.5,-147 545,-150 545,-150 554,-156 554,-156 558.5,-159 558.5,-165 554,-168 554,-168 545,-174 545,-174 540.5,-177 531.5,-177 527,-174"/>
<text text-anchor="middle" x="536" y="-158.3" font-family="Times,serif" font-size="14.00">C</text>
</g>
<!-- CD -->
<g id="node13" class="node"><title>CD</title>
<polygon fill="none" stroke="black" stroke-dasharray="5,2" points="536,-108 503.658,-90 536,-72 568.342,-90 536,-108"/>
<polyline fill="none" stroke="black" stroke-dasharray="5,2" points="514.144,-95.8357 514.144,-84.1643 "/>
<polyline fill="none" stroke="black" stroke-dasharray="5,2" points="525.515,-77.8357 546.485,-77.8357 "/>
<polyline fill="none" stroke="black" stroke-dasharray="5,2" points="557.856,-84.1643 557.856,-95.8357 "/>
<polyline fill="none" stroke="black" stroke-dasharray="5,2" points="546.485,-102.164 525.515,-102.164 "/>
<text text-anchor="middle" x="536" y="-86.3" font-family="Times,serif" font-size="14.00">CD</text>
</g>
<!-- C&#45;&gt;CD -->
<g id="edge9" class="edge"><title>C&#45;&gt;CD</title>
<path fill="none" stroke="black" d="M536,-143.697C536,-135.983 536,-126.712 536,-118.112"/>
<polygon fill="black" stroke="black" points="539.5,-118.104 536,-108.104 532.5,-118.104 539.5,-118.104"/>
</g>
<!-- D -->
<g id="node10" class="node"><title>D</title>
<ellipse fill="none" stroke="black" stroke-dasharray="1,5" cx="613" cy="-162" rx="27" ry="18"/>
<text text-anchor="middle" x="613" y="-158.3" font-family="Times,serif" font-size="14.00">D</text>
</g>
<!-- DD -->
<g id="node14" class="node"><title>DD</title>
<ellipse fill="none" stroke="black" stroke-dasharray="1,5" cx="613" cy="-90" rx="27" ry="18"/>
<polyline fill="none" stroke="black" stroke-dasharray="1,5" points="630.858,-103.5 595.142,-103.5 "/>
<polyline fill="none" stroke="black" stroke-dasharray="1,5" points="630.858,-76.5 595.142,-76.5 "/>
<text text-anchor="middle" x="613" y="-86.3" font-family="Times,serif" font-size="14.00">DD</text>
</g>
<!-- D&#45;&gt;DD -->
<g id="edge11" class="edge"><title>D&#45;&gt;DD</title>
<path fill="none" stroke="black" d="M613,-143.697C613,-135.983 613,-126.712 613,-118.112"/>
<polygon fill="black" stroke="black" points="616.5,-118.104 613,-108.104 609.5,-118.104 616.5,-118.104"/>
</g>
<!-- E -->
<g id="node11" class="node"><title>E</title>
<ellipse fill="none" stroke="black" stroke-width="3" cx="687" cy="-162" rx="27" ry="18"/>
<text text-anchor="middle" x="687" y="-158.3" font-family="Times,serif" font-size="14.00">E</text>
</g>
<!-- ED -->
<g id="node15" class="node"><title>ED</title>
<ellipse fill="none" stroke="black" stroke-width="3" cx="687" cy="-90" rx="27" ry="18"/>
<polyline fill="none" stroke="black" stroke-width="3" points="704.858,-103.5 669.142,-103.5 "/>
<polyline fill="none" stroke="black" stroke-width="3" points="704.858,-76.5 669.142,-76.5 "/>
<text text-anchor="middle" x="687" y="-86.3" font-family="Times,serif" font-size="14.00">ED</text>
</g>
<!-- E&#45;&gt;ED -->
<g id="edge13" class="edge"><title>E&#45;&gt;ED</title>
<path fill="none" stroke="black" d="M687,-143.697C687,-135.983 687,-126.712 687,-118.112"/>
<polygon fill="black" stroke="black" points="690.5,-118.104 687,-108.104 683.5,-118.104 690.5,-118.104"/>
</g>
<!-- BFD -->
<g id="node16" class="node"><title>BFD</title>
<ellipse fill="lightgrey" stroke="black" stroke-width="2" cx="459" cy="-18" rx="27.8951" ry="18"/>
<polyline fill="none" stroke="black" stroke-width="2" points="477.484,-31.5 440.516,-31.5 "/>
<polyline fill="none" stroke="black" stroke-width="2" points="477.484,-4.5 440.516,-4.5 "/>
<text text-anchor="middle" x="459" y="-14.3" font-family="Times,serif" font-size="14.00">BFD</text>
</g>
<!-- BD&#45;&gt;BFD -->
<g id="edge8" class="edge"><title>BD&#45;&gt;BFD</title>
<path fill="none" stroke="black" d="M459,-71.6966C459,-63.9827 459,-54.7125 459,-46.1124"/>
<polygon fill="black" stroke="black" points="462.5,-46.1043 459,-36.1043 455.5,-46.1044 462.5,-46.1043"/>
</g>
<!-- CFD -->
<g id="node17" class="node"><title>CFD</title>
<ellipse fill="lightgrey" stroke="black" stroke-dasharray="5,2" cx="536" cy="-18" rx="27.8951" ry="18"/>
<polyline fill="none" stroke="black" stroke-dasharray="5,2" points="554.484,-31.5 517.516,-31.5 "/>
<polyline fill="none" stroke="black" stroke-dasharray="5,2" points="554.484,-4.5 517.516,-4.5 "/>
<text text-anchor="middle" x="536" y="-14.3" font-family="Times,serif" font-size="14.00">CFD</text>
</g>
<!-- CD&#45;&gt;CFD -->
<g id="edge10" class="edge"><title>CD&#45;&gt;CFD</title>
<path fill="none" stroke="black" d="M536,-71.6966C536,-63.9827 536,-54.7125 536,-46.1124"/>
<polygon fill="black" stroke="black" points="539.5,-46.1043 536,-36.1043 532.5,-46.1044 539.5,-46.1043"/>
</g>
<!-- DFD -->
<g id="node18" class="node"><title>DFD</title>
<ellipse fill="lightgrey" stroke="black" stroke-dasharray="1,5" cx="613" cy="-18" rx="28.6953" ry="18"/>
<polyline fill="none" stroke="black" stroke-dasharray="1,5" points="631.914,-31.5 594.086,-31.5 "/>
<polyline fill="none" stroke="black" stroke-dasharray="1,5" points="631.914,-4.5 594.086,-4.5 "/>
<text text-anchor="middle" x="613" y="-14.3" font-family="Times,serif" font-size="14.00">DFD</text>
</g>
<!-- DD&#45;&gt;DFD -->
<g id="edge12" class="edge"><title>DD&#45;&gt;DFD</title>
<path fill="none" stroke="black" d="M613,-71.6966C613,-63.9827 613,-54.7125 613,-46.1124"/>
<polygon fill="black" stroke="black" points="616.5,-46.1043 613,-36.1043 609.5,-46.1044 616.5,-46.1043"/>
</g>
<!-- EFD -->
<g id="node19" class="node"><title>EFD</title>
<ellipse fill="lightgrey" stroke="black" stroke-width="3" cx="687" cy="-18" rx="27.0966" ry="18"/>
<polyline fill="none" stroke="black" stroke-width="3" points="705.055,-31.5 668.945,-31.5 "/>
<polyline fill="none" stroke="black" stroke-width="3" points="705.055,-4.5 668.945,-4.5 "/>
<text text-anchor="middle" x="687" y="-14.3" font-family="Times,serif" font-size="14.00">EFD</text>
</g>
<!-- ED&#45;&gt;EFD -->
<g id="edge14" class="edge"><title>ED&#45;&gt;EFD</title>
<path fill="none" stroke="black" d="M687,-71.6966C687,-63.9827 687,-54.7125 687,-46.1124"/>
<polygon fill="black" stroke="black" points="690.5,-46.1043 687,-36.1043 683.5,-46.1044 690.5,-46.1043"/>
</g>
<!-- 1 -->
<g id="node20" class="node"><title>1</title>
<ellipse fill="none" stroke="black" cx="759" cy="-162" rx="27" ry="18"/>
<text text-anchor="middle" x="759" y="-158.3" font-family="Times,serif" font-size="14.00">1</text>
</g>
<!-- 2 -->
<g id="node21" class="node"><title>2</title>
<ellipse fill="none" stroke="black" cx="759" cy="-90" rx="27" ry="18"/>
<text text-anchor="middle" x="759" y="-86.3" font-family="Times,serif" font-size="14.00">2</text>
</g>
<!-- 1&#45;&gt;2 -->
<g id="edge15" class="edge"><title>1&#45;&gt;2</title>
<path fill="none" stroke="black" d="M759,-143.697C759,-135.983 759,-126.712 759,-118.112"/>
<polygon fill="black" stroke="black" points="762.5,-118.104 759,-108.104 755.5,-118.104 762.5,-118.104"/>
</g>
<!-- 3 -->
<g id="node22" class="node"><title>3</title>
<ellipse fill="none" stroke="black" cx="831" cy="-90" rx="27" ry="18"/>
<text text-anchor="middle" x="831" y="-86.3" font-family="Times,serif" font-size="14.00">3</text>
</g>
<!-- 1&#45;&gt;3 -->
<g id="edge16" class="edge"><title>1&#45;&gt;3</title>
<path fill="none" stroke="black" d="M773.57,-146.834C783.75,-136.938 797.524,-123.546 809.031,-112.359"/>
<polygon fill="black" stroke="black" points="811.474,-114.865 816.204,-105.385 806.595,-109.846 811.474,-114.865"/>
</g>
</g>
</svg>
