<?xml version="1.0" encoding="UTF-8" standalone="no"?>
<!DOCTYPE svg PUBLIC "-//W3C//DTD SVG 1.1//EN"
 "http://www.w3.org/Graphics/SVG/1.1/DTD/svg11.dtd">
<!-- Generated by graphviz version 2.38.0 (20140413.2041)
 -->
<!-- Title: G Pages: 1 -->
<svg width="436pt" height="310pt"
 viewBox="0.00 0.00 436.00 310.00" xmlns="http://www.w3.org/2000/svg" xmlns:xlink="http://www.w3.org/1999/xlink">
<g id="graph0" class="graph" transform="scale(1 1) rotate(0) translate(4 306)">
<title>G</title>
<polygon fill="#808080" stroke="none" points="-4,4 -4,-306 432,-306 432,4 -4,4"/>
<!-- 1 -->
<!-- a -->
<g id="node17" class="node"><title>a</title>
<ellipse fill="none" stroke="black" cx="69" cy="-291" rx="11" ry="11"/>
</g>
<!-- 1&#45;&gt;a -->
<g id="edge1" class="edge"><title>1&#45;&gt;a</title>
<path fill="none" stroke="#0000ff" d="M22.0117,-291C32.0789,-291 47.5263,-291 57.6961,-291"/>
</g>
<!-- 2 -->
<!-- b -->
<g id="node18" class="node"><title>b</title>
<ellipse fill="none" stroke="black" cx="69" cy="-251" rx="11" ry="11"/>
</g>
<!-- 2&#45;&gt;b -->
<g id="edge4" class="edge"><title>2&#45;&gt;b</title>
<path fill="none" stroke="#ff0000" d="M22.0117,-251C32.0789,-251 47.5263,-251 57.6961,-251"/>
</g>
<!-- 3 -->
<!-- c -->
<g id="node19" class="node"><title>c</title>
<ellipse fill="none" stroke="black" cx="69" cy="-211" rx="11" ry="11"/>
</g>
<!-- 3&#45;&gt;c -->
<g id="edge7" class="edge"><title>3&#45;&gt;c</title>
<path fill="none" stroke="#ffff00" d="M22.0117,-211C32.0789,-211 47.5263,-211 57.6961,-211"/>
</g>
<!-- 4 -->
<!-- d -->
<g id="node20" class="node"><title>d</title>
<ellipse fill="none" stroke="black" cx="69" cy="-171" rx="11" ry="11"/>
</g>
<!-- 4&#45;&gt;d -->
<g id="edge10" class="edge"><title>4&#45;&gt;d</title>
<path fill="none" stroke="#00ff00" d="M22.0117,-171C32.0789,-171 47.5263,-171 57.6961,-171"/>
</g>
<!-- 5 -->
<!-- e -->
<g id="node21" class="node"><title>e</title>
<ellipse fill="none" stroke="black" cx="69" cy="-131" rx="11" ry="11"/>
</g>
<!-- 5&#45;&gt;e -->
<g id="edge13" class="edge"><title>5&#45;&gt;e</title>
<path fill="none" stroke="#000000" d="M22.0117,-131C32.0789,-131 47.5263,-131 57.6961,-131"/>
</g>
<!-- 6 -->
<!-- f -->
<g id="node22" class="node"><title>f</title>
<ellipse fill="none" stroke="black" cx="69" cy="-91" rx="11" ry="11"/>
</g>
<!-- 6&#45;&gt;f -->
<g id="edge16" class="edge"><title>6&#45;&gt;f</title>
<path fill="none" stroke="#00ffff" d="M22.0117,-91C32.0789,-91 47.5263,-91 57.6961,-91"/>
</g>
<!-- 7 -->
<!-- g -->
<g id="node23" class="node"><title>g</title>
<ellipse fill="none" stroke="black" cx="69" cy="-51" rx="11" ry="11"/>
</g>
<!-- 7&#45;&gt;g -->
<g id="edge19" class="edge"><title>7&#45;&gt;g</title>
<path fill="none" stroke="#ffffff" d="M22.0117,-51C32.0789,-51 47.5263,-51 57.6961,-51"/>
</g>
<!-- 8 -->
<!-- h -->
<g id="node24" class="node"><title>h</title>
<ellipse fill="none" stroke="black" cx="69" cy="-11" rx="11" ry="11"/>
</g>
<!-- 8&#45;&gt;h -->
<g id="edge22" class="edge"><title>8&#45;&gt;h</title>
<path fill="none" stroke="#ff00ff" d="M22.0117,-11C32.0789,-11 47.5263,-11 57.6961,-11"/>
</g>
<!-- 10 -->
<!-- 20 -->
<!-- 30 -->
<!-- 40 -->
<!-- 50 -->
<!-- 60 -->
<!-- 70 -->
<!-- 80 -->
<!-- A -->
<g id="node41" class="node"><title>A</title>
<polygon fill="none" stroke="black" points="127,-302 116,-291 127,-280 138,-291 127,-302"/>
</g>
<!-- a&#45;&gt;A -->
<g id="edge2" class="edge"><title>a&#45;&gt;A</title>
<path fill="none" stroke="#0000ff" d="M80.0117,-291C90.0789,-291 105.526,-291 115.696,-291"/>
</g>
<!-- B -->
<g id="node42" class="node"><title>B</title>
<polygon fill="none" stroke="black" points="127,-262 116,-251 127,-240 138,-251 127,-262"/>
</g>
<!-- a&#45;&gt;B -->
<g id="edge3" class="edge"><title>a&#45;&gt;B</title>
<path fill="none" stroke="#0000ff" d="M78.75,-284.75C90.1934,-276.576 109.951,-262.464 119.9,-255.357"/>
</g>
<!-- b&#45;&gt;A -->
<g id="edge5" class="edge"><title>b&#45;&gt;A</title>
<path fill="none" stroke="#ff0000" d="M78.75,-257.25C90.1934,-265.424 109.951,-279.536 119.9,-286.643"/>
</g>
<!-- b&#45;&gt;B -->
<g id="edge6" class="edge"><title>b&#45;&gt;B</title>
<path fill="none" stroke="#ff0000" d="M80.0117,-251C90.0789,-251 105.526,-251 115.696,-251"/>
</g>
<!-- C -->
<g id="node43" class="node"><title>C</title>
<polygon fill="none" stroke="black" points="127,-222 116,-211 127,-200 138,-211 127,-222"/>
</g>
<!-- c&#45;&gt;C -->
<g id="edge8" class="edge"><title>c&#45;&gt;C</title>
<path fill="none" stroke="#ffff00" d="M80.0117,-211C90.0789,-211 105.526,-211 115.696,-211"/>
</g>
<!-- D -->
<g id="node44" class="node"><title>D</title>
<polygon fill="none" stroke="black" points="127,-182 116,-171 127,-160 138,-171 127,-182"/>
</g>
<!-- c&#45;&gt;D -->
<g id="edge9" class="edge"><title>c&#45;&gt;D</title>
<path fill="none" stroke="#ffff00" d="M78.75,-204.75C90.1934,-196.576 109.951,-182.464 119.9,-175.357"/>
</g>
<!-- d&#45;&gt;C -->
<g id="edge11" class="edge"><title>d&#45;&gt;C</title>
<path fill="none" stroke="#00ff00" d="M78.75,-177.25C90.1934,-185.424 109.951,-199.536 119.9,-206.643"/>
</g>
<!-- d&#45;&gt;D -->
<g id="edge12" class="edge"><title>d&#45;&gt;D</title>
<path fill="none" stroke="#00ff00" d="M80.0117,-171C90.0789,-171 105.526,-171 115.696,-171"/>
</g>
<!-- E -->
<g id="node45" class="node"><title>E</title>
<polygon fill="none" stroke="black" points="127,-142 116,-131 127,-120 138,-131 127,-142"/>
</g>
<!-- e&#45;&gt;E -->
<g id="edge14" class="edge"><title>e&#45;&gt;E</title>
<path fill="none" stroke="#000000" d="M80.0117,-131C90.0789,-131 105.526,-131 115.696,-131"/>
</g>
<!-- F -->
<g id="node46" class="node"><title>F</title>
<polygon fill="none" stroke="black" points="127,-102 116,-91 127,-80 138,-91 127,-102"/>
</g>
<!-- e&#45;&gt;F -->
<g id="edge15" class="edge"><title>e&#45;&gt;F</title>
<path fill="none" stroke="#000000" d="M78.75,-124.75C90.1934,-116.576 109.951,-102.464 119.9,-95.3568"/>
</g>
<!-- f&#45;&gt;E -->
<g id="edge17" class="edge"><title>f&#45;&gt;E</title>
<path fill="none" stroke="#00ffff" d="M78.75,-97.25C90.1934,-105.424 109.951,-119.536 119.9,-126.643"/>
</g>
<!-- f&#45;&gt;F -->
<g id="edge18" class="edge"><title>f&#45;&gt;F</title>
<path fill="none" stroke="#00ffff" d="M80.0117,-91C90.0789,-91 105.526,-91 115.696,-91"/>
</g>
<!-- G -->
<g id="node47" class="node"><title>G</title>
<polygon fill="none" stroke="black" points="127,-62 116,-51 127,-40 138,-51 127,-62"/>
</g>
<!-- g&#45;&gt;G -->
<g id="edge20" class="edge"><title>g&#45;&gt;G</title>
<path fill="none" stroke="#ffffff" d="M80.0117,-51C90.0789,-51 105.526,-51 115.696,-51"/>
</g>
<!-- H -->
<g id="node48" class="node"><title>H</title>
<polygon fill="none" stroke="black" points="127,-22 116,-11 127,-1.77636e-15 138,-11 127,-22"/>
</g>
<!-- g&#45;&gt;H -->
<g id="edge21" class="edge"><title>g&#45;&gt;H</title>
<path fill="none" stroke="#ffffff" d="M78.75,-44.75C90.1934,-36.5762 109.951,-22.4635 119.9,-15.3568"/>
</g>
<!-- h&#45;&gt;G -->
<g id="edge23" class="edge"><title>h&#45;&gt;G</title>
<path fill="none" stroke="#ff00ff" d="M78.75,-17.25C90.1934,-25.4238 109.951,-39.5365 119.9,-46.6432"/>
</g>
<!-- h&#45;&gt;H -->
<g id="edge24" class="edge"><title>h&#45;&gt;H</title>
<path fill="none" stroke="#ff00ff" d="M80.0117,-11C90.0789,-11 105.526,-11 115.696,-11"/>
</g>
<!-- i -->
<g id="node25" class="node"><title>i</title>
<ellipse fill="none" stroke="black" cx="185" cy="-291" rx="11" ry="11"/>
</g>
<!-- I -->
<g id="node49" class="node"><title>I</title>
<polygon fill="none" stroke="black" points="243,-302 232,-291 243,-280 254,-291 243,-302"/>
</g>
<!-- i&#45;&gt;I -->
<g id="edge26" class="edge"><title>i&#45;&gt;I</title>
<path fill="none" stroke="#ff0000" d="M196.012,-290C206.079,-290 221.526,-290 231.696,-290"/>
<path fill="none" stroke="#0000ff" d="M196.012,-292C206.079,-292 221.526,-292 231.696,-292"/>
</g>
<!-- K -->
<g id="node51" class="node"><title>K</title>
<polygon fill="none" stroke="black" points="243,-262 232,-251 243,-240 254,-251 243,-262"/>
</g>
<!-- i&#45;&gt;K -->
<g id="edge27" class="edge"><title>i&#45;&gt;K</title>
<path fill="none" stroke="#ff0000" d="M194.169,-283.936C205.612,-275.762 225.37,-261.65 235.319,-254.543"/>
<path fill="none" stroke="#0000ff" d="M195.331,-285.564C206.775,-277.39 226.532,-263.277 236.482,-256.171"/>
</g>
<!-- j -->
<g id="node26" class="node"><title>j</title>
<ellipse fill="none" stroke="black" cx="185" cy="-131" rx="11" ry="11"/>
</g>
<!-- J -->
<g id="node50" class="node"><title>J</title>
<polygon fill="none" stroke="black" points="243,-142 232,-131 243,-120 254,-131 243,-142"/>
</g>
<!-- j&#45;&gt;J -->
<g id="edge29" class="edge"><title>j&#45;&gt;J</title>
<path fill="none" stroke="#ff0000" d="M196.012,-130C206.079,-130 221.526,-130 231.696,-130"/>
<path fill="none" stroke="#0000ff" d="M196.012,-132C206.079,-132 221.526,-132 231.696,-132"/>
</g>
<!-- L -->
<g id="node52" class="node"><title>L</title>
<polygon fill="none" stroke="black" points="243,-102 232,-91 243,-80 254,-91 243,-102"/>
</g>
<!-- j&#45;&gt;L -->
<g id="edge30" class="edge"><title>j&#45;&gt;L</title>
<path fill="none" stroke="#ff0000" d="M194.169,-123.936C205.612,-115.762 225.37,-101.65 235.319,-94.5431"/>
<path fill="none" stroke="#0000ff" d="M195.331,-125.564C206.775,-117.39 226.532,-103.277 236.482,-96.1706"/>
</g>
<!-- k -->
<g id="node27" class="node"><title>k</title>
<ellipse fill="none" stroke="black" cx="185" cy="-251" rx="11" ry="11"/>
</g>
<!-- k&#45;&gt;I -->
<g id="edge32" class="edge"><title>k&#45;&gt;I</title>
<path fill="none" stroke="#00ff00" d="M195.331,-256.436C206.775,-264.61 226.532,-278.723 236.482,-285.829"/>
<path fill="none" stroke="#ffff00" d="M194.169,-258.064C205.612,-266.238 225.37,-280.35 235.319,-287.457"/>
</g>
<!-- k&#45;&gt;K -->
<g id="edge33" class="edge"><title>k&#45;&gt;K</title>
<path fill="none" stroke="#00ff00" d="M196.012,-250C206.079,-250 221.526,-250 231.696,-250"/>
<path fill="none" stroke="#ffff00" d="M196.012,-252C206.079,-252 221.526,-252 231.696,-252"/>
</g>
<!-- l -->
<g id="node28" class="node"><title>l</title>
<ellipse fill="none" stroke="black" cx="185" cy="-91" rx="11" ry="11"/>
</g>
<!-- l&#45;&gt;J -->
<g id="edge35" class="edge"><title>l&#45;&gt;J</title>
<path fill="none" stroke="#00ff00" d="M195.331,-96.4363C206.775,-104.61 226.532,-118.723 236.482,-125.829"/>
<path fill="none" stroke="#ffff00" d="M194.169,-98.0637C205.612,-106.238 225.37,-120.35 235.319,-127.457"/>
</g>
<!-- l&#45;&gt;L -->
<g id="edge36" class="edge"><title>l&#45;&gt;L</title>
<path fill="none" stroke="#00ff00" d="M196.012,-90C206.079,-90 221.526,-90 231.696,-90"/>
<path fill="none" stroke="#ffff00" d="M196.012,-92C206.079,-92 221.526,-92 231.696,-92"/>
</g>
<!-- m -->
<g id="node29" class="node"><title>m</title>
<ellipse fill="none" stroke="black" cx="185" cy="-211" rx="11" ry="11"/>
</g>
<!-- M -->
<g id="node53" class="node"><title>M</title>
<polygon fill="none" stroke="black" points="243,-222 232,-211 243,-200 254,-211 243,-222"/>
</g>
<!-- m&#45;&gt;M -->
<g id="edge38" class="edge"><title>m&#45;&gt;M</title>
<path fill="none" stroke="#00ffff" d="M196.012,-210C206.079,-210 221.526,-210 231.696,-210"/>
<path fill="none" stroke="#000000" d="M196.012,-212C206.079,-212 221.526,-212 231.696,-212"/>
</g>
<!-- O -->
<g id="node55" class="node"><title>O</title>
<polygon fill="none" stroke="black" points="243,-182 232,-171 243,-160 254,-171 243,-182"/>
</g>
<!-- m&#45;&gt;O -->
<g id="edge39" class="edge"><title>m&#45;&gt;O</title>
<path fill="none" stroke="#00ffff" d="M194.169,-203.936C205.612,-195.762 225.37,-181.65 235.319,-174.543"/>
<path fill="none" stroke="#000000" d="M195.331,-205.564C206.775,-197.39 226.532,-183.277 236.482,-176.171"/>
</g>
<!-- n -->
<g id="node30" class="node"><title>n</title>
<ellipse fill="none" stroke="black" cx="185" cy="-51" rx="11" ry="11"/>
</g>
<!-- N -->
<g id="node54" class="node"><title>N</title>
<polygon fill="none" stroke="black" points="243,-62 232,-51 243,-40 254,-51 243,-62"/>
</g>
<!-- n&#45;&gt;N -->
<g id="edge41" class="edge"><title>n&#45;&gt;N</title>
<path fill="none" stroke="#00ffff" d="M196.012,-50C206.079,-50 221.526,-50 231.696,-50"/>
<path fill="none" stroke="#000000" d="M196.012,-52C206.079,-52 221.526,-52 231.696,-52"/>
</g>
<!-- P -->
<g id="node56" class="node"><title>P</title>
<polygon fill="none" stroke="black" points="243,-22 232,-11 243,-1.77636e-15 254,-11 243,-22"/>
</g>
<!-- n&#45;&gt;P -->
<g id="edge42" class="edge"><title>n&#45;&gt;P</title>
<path fill="none" stroke="#00ffff" d="M194.169,-43.9363C205.612,-35.7624 225.37,-21.6498 235.319,-14.5431"/>
<path fill="none" stroke="#000000" d="M195.331,-45.5637C206.775,-37.3899 226.532,-23.2773 236.482,-16.1706"/>
</g>
<!-- o -->
<g id="node31" class="node"><title>o</title>
<ellipse fill="none" stroke="black" cx="185" cy="-171" rx="11" ry="11"/>
</g>
<!-- o&#45;&gt;M -->
<g id="edge44" class="edge"><title>o&#45;&gt;M</title>
<path fill="none" stroke="#ff00ff" d="M195.331,-176.436C206.775,-184.61 226.532,-198.723 236.482,-205.829"/>
<path fill="none" stroke="#ffffff" d="M194.169,-178.064C205.612,-186.238 225.37,-200.35 235.319,-207.457"/>
</g>
<!-- o&#45;&gt;O -->
<g id="edge45" class="edge"><title>o&#45;&gt;O</title>
<path fill="none" stroke="#ff00ff" d="M196.012,-170C206.079,-170 221.526,-170 231.696,-170"/>
<path fill="none" stroke="#ffffff" d="M196.012,-172C206.079,-172 221.526,-172 231.696,-172"/>
</g>
<!-- p -->
<g id="node32" class="node"><title>p</title>
<ellipse fill="none" stroke="black" cx="185" cy="-11" rx="11" ry="11"/>
</g>
<!-- p&#45;&gt;N -->
<g id="edge47" class="edge"><title>p&#45;&gt;N</title>
<path fill="none" stroke="#ff00ff" d="M195.331,-16.4363C206.775,-24.6101 226.532,-38.7227 236.482,-45.8294"/>
<path fill="none" stroke="#ffffff" d="M194.169,-18.0637C205.612,-26.2376 225.37,-40.3502 235.319,-47.4569"/>
</g>
<!-- p&#45;&gt;P -->
<g id="edge48" class="edge"><title>p&#45;&gt;P</title>
<path fill="none" stroke="#ff00ff" d="M196.012,-10C206.079,-10 221.526,-10 231.696,-10"/>
<path fill="none" stroke="#ffffff" d="M196.012,-12C206.079,-12 221.526,-12 231.696,-12"/>
</g>
<!-- q -->
<g id="node33" class="node"><title>q</title>
<ellipse fill="none" stroke="black" cx="301" cy="-291" rx="11" ry="11"/>
</g>
<!-- Q -->
<g id="node57" class="node"><title>Q</title>
<polygon fill="none" stroke="black" points="359,-302 348,-291 359,-280 370,-291 359,-302"/>
</g>
<!-- q&#45;&gt;Q -->
<g id="edge50" class="edge"><title>q&#45;&gt;Q</title>
<path fill="none" stroke="#00ff00" d="M312.012,-288C322.079,-288 337.526,-288 347.696,-288"/>
<path fill="none" stroke="#ffff00" d="M312.012,-290C322.079,-290 337.526,-290 347.696,-290"/>
<path fill="none" stroke="#ff0000" d="M312.012,-292C322.079,-292 337.526,-292 347.696,-292"/>
<path fill="none" stroke="#0000ff" d="M312.012,-294C322.079,-294 337.526,-294 347.696,-294"/>
</g>
<!-- U -->
<g id="node61" class="node"><title>U</title>
<polygon fill="none" stroke="black" points="359,-262 348,-251 359,-240 370,-251 359,-262"/>
</g>
<!-- q&#45;&gt;U -->
<g id="edge51" class="edge"><title>q&#45;&gt;U</title>
<path fill="none" stroke="#00ff00" d="M309.006,-282.309C320.45,-274.135 340.207,-260.022 350.157,-252.916"/>
<path fill="none" stroke="#ffff00" d="M310.169,-283.936C321.612,-275.762 341.37,-261.65 351.319,-254.543"/>
<path fill="none" stroke="#ff0000" d="M311.331,-285.564C322.775,-277.39 342.532,-263.277 352.482,-256.171"/>
<path fill="none" stroke="#0000ff" d="M312.494,-287.191C323.937,-279.017 343.695,-264.905 353.644,-257.798"/>
</g>
<!-- r -->
<g id="node34" class="node"><title>r</title>
<ellipse fill="none" stroke="black" cx="301" cy="-131" rx="11" ry="11"/>
</g>
<!-- R -->
<g id="node58" class="node"><title>R</title>
<polygon fill="none" stroke="black" points="359,-142 348,-131 359,-120 370,-131 359,-142"/>
</g>
<!-- r&#45;&gt;R -->
<g id="edge53" class="edge"><title>r&#45;&gt;R</title>
<path fill="none" stroke="#00ff00" d="M312.012,-128C322.079,-128 337.526,-128 347.696,-128"/>
<path fill="none" stroke="#ffff00" d="M312.012,-130C322.079,-130 337.526,-130 347.696,-130"/>
<path fill="none" stroke="#ff0000" d="M312.012,-132C322.079,-132 337.526,-132 347.696,-132"/>
<path fill="none" stroke="#0000ff" d="M312.012,-134C322.079,-134 337.526,-134 347.696,-134"/>
</g>
<!-- V -->
<g id="node62" class="node"><title>V</title>
<polygon fill="none" stroke="black" points="359,-102 348,-91 359,-80 370,-91 359,-102"/>
</g>
<!-- r&#45;&gt;V -->
<g id="edge54" class="edge"><title>r&#45;&gt;V</title>
<path fill="none" stroke="#00ff00" d="M309.006,-122.309C320.45,-114.135 340.207,-100.022 350.157,-92.9156"/>
<path fill="none" stroke="#ffff00" d="M310.169,-123.936C321.612,-115.762 341.37,-101.65 351.319,-94.5431"/>
<path fill="none" stroke="#ff0000" d="M311.331,-125.564C322.775,-117.39 342.532,-103.277 352.482,-96.1706"/>
<path fill="none" stroke="#0000ff" d="M312.494,-127.191C323.937,-119.017 343.695,-104.905 353.644,-97.798"/>
</g>
<!-- s -->
<g id="node35" class="node"><title>s</title>
<ellipse fill="none" stroke="black" cx="301" cy="-211" rx="11" ry="11"/>
</g>
<!-- S -->
<g id="node59" class="node"><title>S</title>
<polygon fill="none" stroke="black" points="359,-222 348,-211 359,-200 370,-211 359,-222"/>
</g>
<!-- s&#45;&gt;S -->
<g id="edge56" class="edge"><title>s&#45;&gt;S</title>
<path fill="none" stroke="#00ff00" d="M312.012,-208C322.079,-208 337.526,-208 347.696,-208"/>
<path fill="none" stroke="#ffff00" d="M312.012,-210C322.079,-210 337.526,-210 347.696,-210"/>
<path fill="none" stroke="#ff0000" d="M312.012,-212C322.079,-212 337.526,-212 347.696,-212"/>
<path fill="none" stroke="#0000ff" d="M312.012,-214C322.079,-214 337.526,-214 347.696,-214"/>
</g>
<!-- W -->
<g id="node63" class="node"><title>W</title>
<polygon fill="none" stroke="black" points="359,-182 348,-171 359,-160 370,-171 359,-182"/>
</g>
<!-- s&#45;&gt;W -->
<g id="edge57" class="edge"><title>s&#45;&gt;W</title>
<path fill="none" stroke="#00ff00" d="M309.006,-202.309C320.45,-194.135 340.207,-180.022 350.157,-172.916"/>
<path fill="none" stroke="#ffff00" d="M310.169,-203.936C321.612,-195.762 341.37,-181.65 351.319,-174.543"/>
<path fill="none" stroke="#ff0000" d="M311.331,-205.564C322.775,-197.39 342.532,-183.277 352.482,-176.171"/>
<path fill="none" stroke="#0000ff" d="M312.494,-207.191C323.937,-199.017 343.695,-184.905 353.644,-177.798"/>
</g>
<!-- t -->
<g id="node36" class="node"><title>t</title>
<ellipse fill="none" stroke="black" cx="301" cy="-51" rx="11" ry="11"/>
</g>
<!-- T -->
<g id="node60" class="node"><title>T</title>
<polygon fill="none" stroke="black" points="359,-62 348,-51 359,-40 370,-51 359,-62"/>
</g>
<!-- t&#45;&gt;T -->
<g id="edge59" class="edge"><title>t&#45;&gt;T</title>
<path fill="none" stroke="#00ff00" d="M312.012,-48C322.079,-48 337.526,-48 347.696,-48"/>
<path fill="none" stroke="#ffff00" d="M312.012,-50C322.079,-50 337.526,-50 347.696,-50"/>
<path fill="none" stroke="#ff0000" d="M312.012,-52C322.079,-52 337.526,-52 347.696,-52"/>
<path fill="none" stroke="#0000ff" d="M312.012,-54C322.079,-54 337.526,-54 347.696,-54"/>
</g>
<!-- X -->
<g id="node64" class="node"><title>X</title>
<polygon fill="none" stroke="black" points="359,-22 348,-11 359,-1.77636e-15 370,-11 359,-22"/>
</g>
<!-- t&#45;&gt;X -->
<g id="edge60" class="edge"><title>t&#45;&gt;X</title>
<path fill="none" stroke="#00ff00" d="M309.006,-42.3088C320.45,-34.135 340.207,-20.0223 350.157,-12.9156"/>
<path fill="none" stroke="#ffff00" d="M310.169,-43.9363C321.612,-35.7624 341.37,-21.6498 351.319,-14.5431"/>
<path fill="none" stroke="#ff0000" d="M311.331,-45.5637C322.775,-37.3899 342.532,-23.2773 352.482,-16.1706"/>
<path fill="none" stroke="#0000ff" d="M312.494,-47.1912C323.937,-39.0174 343.695,-24.9047 353.644,-17.798"/>
</g>
<!-- u -->
<g id="node37" class="node"><title>u</title>
<ellipse fill="none" stroke="black" cx="301" cy="-251" rx="11" ry="11"/>
</g>
<!-- u&#45;&gt;Q -->
<g id="edge62" class="edge"><title>u&#45;&gt;Q</title>
<path fill="none" stroke="#ff00ff" d="M312.494,-254.809C323.937,-262.983 343.695,-277.095 353.644,-284.202"/>
<path fill="none" stroke="#ffffff" d="M311.331,-256.436C322.775,-264.61 342.532,-278.723 352.482,-285.829"/>
<path fill="none" stroke="#00ffff" d="M310.169,-258.064C321.612,-266.238 341.37,-280.35 351.319,-287.457"/>
<path fill="none" stroke="#000000" d="M309.006,-259.691C320.45,-267.865 340.207,-281.978 350.157,-289.084"/>
</g>
<!-- u&#45;&gt;U -->
<g id="edge63" class="edge"><title>u&#45;&gt;U</title>
<path fill="none" stroke="#ff00ff" d="M312.012,-248C322.079,-248 337.526,-248 347.696,-248"/>
<path fill="none" stroke="#ffffff" d="M312.012,-250C322.079,-250 337.526,-250 347.696,-250"/>
<path fill="none" stroke="#00ffff" d="M312.012,-252C322.079,-252 337.526,-252 347.696,-252"/>
<path fill="none" stroke="#000000" d="M312.012,-254C322.079,-254 337.526,-254 347.696,-254"/>
</g>
<!-- v -->
<g id="node38" class="node"><title>v</title>
<ellipse fill="none" stroke="black" cx="301" cy="-91" rx="11" ry="11"/>
</g>
<!-- v&#45;&gt;R -->
<g id="edge65" class="edge"><title>v&#45;&gt;R</title>
<path fill="none" stroke="#ff00ff" d="M312.494,-94.8088C323.937,-102.983 343.695,-117.095 353.644,-124.202"/>
<path fill="none" stroke="#ffffff" d="M311.331,-96.4363C322.775,-104.61 342.532,-118.723 352.482,-125.829"/>
<path fill="none" stroke="#00ffff" d="M310.169,-98.0637C321.612,-106.238 341.37,-120.35 351.319,-127.457"/>
<path fill="none" stroke="#000000" d="M309.006,-99.6912C320.45,-107.865 340.207,-121.978 350.157,-129.084"/>
</g>
<!-- v&#45;&gt;V -->
<g id="edge66" class="edge"><title>v&#45;&gt;V</title>
<path fill="none" stroke="#ff00ff" d="M312.012,-88C322.079,-88 337.526,-88 347.696,-88"/>
<path fill="none" stroke="#ffffff" d="M312.012,-90C322.079,-90 337.526,-90 347.696,-90"/>
<path fill="none" stroke="#00ffff" d="M312.012,-92C322.079,-92 337.526,-92 347.696,-92"/>
<path fill="none" stroke="#000000" d="M312.012,-94C322.079,-94 337.526,-94 347.696,-94"/>
</g>
<!-- w -->
<g id="node39" class="node"><title>w</title>
<ellipse fill="none" stroke="black" cx="301" cy="-171" rx="11" ry="11"/>
</g>
<!-- w&#45;&gt;S -->
<g id="edge68" class="edge"><title>w&#45;&gt;S</title>
<path fill="none" stroke="#ff00ff" d="M312.494,-174.809C323.937,-182.983 343.695,-197.095 353.644,-204.202"/>
<path fill="none" stroke="#ffffff" d="M311.331,-176.436C322.775,-184.61 342.532,-198.723 352.482,-205.829"/>
<path fill="none" stroke="#00ffff" d="M310.169,-178.064C321.612,-186.238 341.37,-200.35 351.319,-207.457"/>
<path fill="none" stroke="#000000" d="M309.006,-179.691C320.45,-187.865 340.207,-201.978 350.157,-209.084"/>
</g>
<!-- w&#45;&gt;W -->
<g id="edge69" class="edge"><title>w&#45;&gt;W</title>
<path fill="none" stroke="#ff00ff" d="M312.012,-168C322.079,-168 337.526,-168 347.696,-168"/>
<path fill="none" stroke="#ffffff" d="M312.012,-170C322.079,-170 337.526,-170 347.696,-170"/>
<path fill="none" stroke="#00ffff" d="M312.012,-172C322.079,-172 337.526,-172 347.696,-172"/>
<path fill="none" stroke="#000000" d="M312.012,-174C322.079,-174 337.526,-174 347.696,-174"/>
</g>
<!-- x -->
<g id="node40" class="node"><title>x</title>
<ellipse fill="none" stroke="black" cx="301" cy="-11" rx="11" ry="11"/>
</g>
<!-- x&#45;&gt;T -->
<g id="edge71" class="edge"><title>x&#45;&gt;T</title>
<path fill="none" stroke="#ff00ff" d="M312.494,-14.8088C323.937,-22.9826 343.695,-37.0953 353.644,-44.202"/>
<path fill="none" stroke="#ffffff" d="M311.331,-16.4363C322.775,-24.6101 342.532,-38.7227 352.482,-45.8294"/>
<path fill="none" stroke="#00ffff" d="M310.169,-18.0637C321.612,-26.2376 341.37,-40.3502 351.319,-47.4569"/>
<path fill="none" stroke="#000000" d="M309.006,-19.6912C320.45,-27.865 340.207,-41.9777 350.157,-49.0844"/>
</g>
<!-- x&#45;&gt;X -->
<g id="edge72" class="edge"><title>x&#45;&gt;X</title>
<path fill="none" stroke="#ff00ff" d="M312.012,-8C322.079,-8 337.526,-8 347.696,-8"/>
<path fill="none" stroke="#ffffff" d="M312.012,-10C322.079,-10 337.526,-10 347.696,-10"/>
<path fill="none" stroke="#00ffff" d="M312.012,-12C322.079,-12 337.526,-12 347.696,-12"/>
<path fill="none" stroke="#000000" d="M312.012,-14C322.079,-14 337.526,-14 347.696,-14"/>
</g>
<!-- A&#45;&gt;i -->
<g id="edge25" class="edge"><title>A&#45;&gt;i</title>
<path fill="none" stroke="#ff0000" d="M138.012,-290C148.079,-290 163.526,-290 173.696,-290"/>
<path fill="none" stroke="#0000ff" d="M138.012,-292C148.079,-292 163.526,-292 173.696,-292"/>
</g>
<!-- B&#45;&gt;j -->
<g id="edge28" class="edge"><title>B&#45;&gt;j</title>
<path fill="none" stroke="#ff0000" d="M130.51,-243.914C132.474,-240.042 134.974,-235.042 137.097,-230.571 153.756,-195.52 156.312,-185.963 173.097,-150.571 174.702,-147.19 176.508,-143.536 178.143,-140.278"/>
<path fill="none" stroke="#0000ff" d="M132.293,-244.819C134.263,-240.936 136.763,-235.936 138.903,-231.429 155.688,-196.037 158.244,-186.48 174.903,-151.429 176.495,-148.076 178.301,-144.422 179.931,-141.175"/>
</g>
<!-- C&#45;&gt;k -->
<g id="edge31" class="edge"><title>C&#45;&gt;k</title>
<path fill="none" stroke="#00ff00" d="M134.574,-214.467C144.619,-221.642 164.872,-236.108 176.281,-244.257"/>
<path fill="none" stroke="#ffff00" d="M133.412,-216.094C143.457,-223.269 163.709,-237.735 175.118,-245.885"/>
</g>
<!-- D&#45;&gt;l -->
<g id="edge34" class="edge"><title>D&#45;&gt;l</title>
<path fill="none" stroke="#00ff00" d="M131.39,-164.414C141.157,-150.46 165.406,-115.819 176.92,-99.3707"/>
<path fill="none" stroke="#ffff00" d="M133.028,-165.56C142.796,-151.607 167.045,-116.966 178.558,-100.518"/>
</g>
<!-- E&#45;&gt;m -->
<g id="edge37" class="edge"><title>E&#45;&gt;m</title>
<path fill="none" stroke="#00ffff" d="M133.028,-136.44C142.796,-150.393 167.045,-185.034 178.558,-201.482"/>
<path fill="none" stroke="#000000" d="M131.39,-137.586C141.157,-151.54 165.406,-186.181 176.92,-202.629"/>
</g>
<!-- F&#45;&gt;n -->
<g id="edge40" class="edge"><title>F&#45;&gt;n</title>
<path fill="none" stroke="#00ffff" d="M133.412,-85.9056C143.457,-78.7307 163.709,-64.2645 175.118,-56.1153"/>
<path fill="none" stroke="#000000" d="M134.574,-87.533C144.619,-80.3582 164.872,-65.892 176.281,-57.7428"/>
</g>
<!-- G&#45;&gt;o -->
<g id="edge43" class="edge"><title>G&#45;&gt;o</title>
<path fill="none" stroke="#ff00ff" d="M132.293,-57.181C134.263,-61.0639 136.763,-66.0639 138.903,-70.5711 155.688,-105.963 158.244,-115.52 174.903,-150.571 176.495,-153.924 178.301,-157.578 179.931,-160.825"/>
<path fill="none" stroke="#ffffff" d="M130.51,-58.0858C132.474,-61.9584 134.974,-66.9584 137.097,-71.4289 153.756,-106.48 156.312,-116.037 173.097,-151.429 174.702,-154.81 176.508,-158.464 178.143,-161.722"/>
</g>
<!-- H&#45;&gt;p -->
<g id="edge46" class="edge"><title>H&#45;&gt;p</title>
<path fill="none" stroke="#ff00ff" d="M138.012,-10C148.079,-10 163.526,-10 173.696,-10"/>
<path fill="none" stroke="#ffffff" d="M138.012,-12C148.079,-12 163.526,-12 173.696,-12"/>
</g>
<!-- I&#45;&gt;q -->
<g id="edge49" class="edge"><title>I&#45;&gt;q</title>
<path fill="none" stroke="#00ff00" d="M254.012,-288C264.079,-288 279.526,-288 289.696,-288"/>
<path fill="none" stroke="#ffff00" d="M254.012,-290C264.079,-290 279.526,-290 289.696,-290"/>
<path fill="none" stroke="#ff0000" d="M254.012,-292C264.079,-292 279.526,-292 289.696,-292"/>
<path fill="none" stroke="#0000ff" d="M254.012,-294C264.079,-294 279.526,-294 289.696,-294"/>
</g>
<!-- J&#45;&gt;r -->
<g id="edge52" class="edge"><title>J&#45;&gt;r</title>
<path fill="none" stroke="#00ff00" d="M254.012,-128C264.079,-128 279.526,-128 289.696,-128"/>
<path fill="none" stroke="#ffff00" d="M254.012,-130C264.079,-130 279.526,-130 289.696,-130"/>
<path fill="none" stroke="#ff0000" d="M254.012,-132C264.079,-132 279.526,-132 289.696,-132"/>
<path fill="none" stroke="#0000ff" d="M254.012,-134C264.079,-134 279.526,-134 289.696,-134"/>
</g>
<!-- K&#45;&gt;s -->
<g id="edge55" class="edge"><title>K&#45;&gt;s</title>
<path fill="none" stroke="#00ff00" d="M248.249,-244.278C258.294,-237.103 278.547,-222.637 289.956,-214.488"/>
<path fill="none" stroke="#ffff00" d="M249.412,-245.906C259.457,-238.731 279.709,-224.265 291.118,-216.115"/>
<path fill="none" stroke="#ff0000" d="M250.574,-247.533C260.619,-240.358 280.872,-225.892 292.281,-217.743"/>
<path fill="none" stroke="#0000ff" d="M251.737,-249.16C261.782,-241.986 282.034,-227.519 293.443,-219.37"/>
</g>
<!-- L&#45;&gt;t -->
<g id="edge58" class="edge"><title>L&#45;&gt;t</title>
<path fill="none" stroke="#00ff00" d="M248.249,-84.2781C258.294,-77.1032 278.547,-62.6371 289.956,-54.4878"/>
<path fill="none" stroke="#ffff00" d="M249.412,-85.9056C259.457,-78.7307 279.709,-64.2645 291.118,-56.1153"/>
<path fill="none" stroke="#ff0000" d="M250.574,-87.533C260.619,-80.3582 280.872,-65.892 292.281,-57.7428"/>
<path fill="none" stroke="#0000ff" d="M251.737,-89.1605C261.782,-81.9856 282.034,-67.5195 293.443,-59.3702"/>
</g>
<!-- M&#45;&gt;u -->
<g id="edge61" class="edge"><title>M&#45;&gt;u</title>
<path fill="none" stroke="#ff00ff" d="M251.737,-212.84C261.782,-220.014 282.034,-234.481 293.443,-242.63"/>
<path fill="none" stroke="#ffffff" d="M250.574,-214.467C260.619,-221.642 280.872,-236.108 292.281,-244.257"/>
<path fill="none" stroke="#00ffff" d="M249.412,-216.094C259.457,-223.269 279.709,-237.735 291.118,-245.885"/>
<path fill="none" stroke="#000000" d="M248.249,-217.722C258.294,-224.897 278.547,-239.363 289.956,-247.512"/>
</g>
<!-- N&#45;&gt;v -->
<g id="edge64" class="edge"><title>N&#45;&gt;v</title>
<path fill="none" stroke="#ff00ff" d="M251.737,-52.8395C261.782,-60.0144 282.034,-74.4805 293.443,-82.6298"/>
<path fill="none" stroke="#ffffff" d="M250.574,-54.467C260.619,-61.6418 280.872,-76.108 292.281,-84.2572"/>
<path fill="none" stroke="#00ffff" d="M249.412,-56.0944C259.457,-63.2693 279.709,-77.7355 291.118,-85.8847"/>
<path fill="none" stroke="#000000" d="M248.249,-57.7219C258.294,-64.8968 278.547,-79.3629 289.956,-87.5122"/>
</g>
<!-- O&#45;&gt;w -->
<g id="edge67" class="edge"><title>O&#45;&gt;w</title>
<path fill="none" stroke="#ff00ff" d="M254.012,-168C264.079,-168 279.526,-168 289.696,-168"/>
<path fill="none" stroke="#ffffff" d="M254.012,-170C264.079,-170 279.526,-170 289.696,-170"/>
<path fill="none" stroke="#00ffff" d="M254.012,-172C264.079,-172 279.526,-172 289.696,-172"/>
<path fill="none" stroke="#000000" d="M254.012,-174C264.079,-174 279.526,-174 289.696,-174"/>
</g>
<!-- P&#45;&gt;x -->
<g id="edge70" class="edge"><title>P&#45;&gt;x</title>
<path fill="none" stroke="#ff00ff" d="M254.012,-8C264.079,-8 279.526,-8 289.696,-8"/>
<path fill="none" stroke="#ffffff" d="M254.012,-10C264.079,-10 279.526,-10 289.696,-10"/>
<path fill="none" stroke="#00ffff" d="M254.012,-12C264.079,-12 279.526,-12 289.696,-12"/>
<path fill="none" stroke="#000000" d="M254.012,-14C264.079,-14 279.526,-14 289.696,-14"/>
</g>
<!-- Q&#45;&gt;10 -->
<g id="edge73" class="edge"><title>Q&#45;&gt;10</title>
<path fill="none" stroke="#ff00ff" d="M370.012,-284C380.079,-284 395.526,-284 405.696,-284"/>
<path fill="none" stroke="#ffffff" d="M370.012,-286C380.079,-286 395.526,-286 405.696,-286"/>
<path fill="none" stroke="#00ffff" d="M370.012,-288C380.079,-288 395.526,-288 405.696,-288"/>
<path fill="none" stroke="#000000" d="M370.012,-290C380.079,-290 395.526,-290 405.696,-290"/>
<path fill="none" stroke="#00ff00" d="M370.012,-292C380.079,-292 395.526,-292 405.696,-292"/>
<path fill="none" stroke="#ffff00" d="M370.012,-294C380.079,-294 395.526,-294 405.696,-294"/>
<path fill="none" stroke="#ff0000" d="M370.012,-296C380.079,-296 395.526,-296 405.696,-296"/>
<path fill="none" stroke="#0000ff" d="M370.012,-298C380.079,-298 395.526,-298 405.696,-298"/>
</g>
<!-- R&#45;&gt;20 -->
<g id="edge74" class="edge"><title>R&#45;&gt;20</title>
<path fill="none" stroke="#ff00ff" d="M370.012,-124C380.079,-124 395.526,-124 405.696,-124"/>
<path fill="none" stroke="#ffffff" d="M370.012,-126C380.079,-126 395.526,-126 405.696,-126"/>
<path fill="none" stroke="#00ffff" d="M370.012,-128C380.079,-128 395.526,-128 405.696,-128"/>
<path fill="none" stroke="#000000" d="M370.012,-130C380.079,-130 395.526,-130 405.696,-130"/>
<path fill="none" stroke="#00ff00" d="M370.012,-132C380.079,-132 395.526,-132 405.696,-132"/>
<path fill="none" stroke="#ffff00" d="M370.012,-134C380.079,-134 395.526,-134 405.696,-134"/>
<path fill="none" stroke="#ff0000" d="M370.012,-136C380.079,-136 395.526,-136 405.696,-136"/>
<path fill="none" stroke="#0000ff" d="M370.012,-138C380.079,-138 395.526,-138 405.696,-138"/>
</g>
<!-- S&#45;&gt;30 -->
<g id="edge75" class="edge"><title>S&#45;&gt;30</title>
<path fill="none" stroke="#ff00ff" d="M370.012,-204C380.079,-204 395.526,-204 405.696,-204"/>
<path fill="none" stroke="#ffffff" d="M370.012,-206C380.079,-206 395.526,-206 405.696,-206"/>
<path fill="none" stroke="#00ffff" d="M370.012,-208C380.079,-208 395.526,-208 405.696,-208"/>
<path fill="none" stroke="#000000" d="M370.012,-210C380.079,-210 395.526,-210 405.696,-210"/>
<path fill="none" stroke="#00ff00" d="M370.012,-212C380.079,-212 395.526,-212 405.696,-212"/>
<path fill="none" stroke="#ffff00" d="M370.012,-214C380.079,-214 395.526,-214 405.696,-214"/>
<path fill="none" stroke="#ff0000" d="M370.012,-216C380.079,-216 395.526,-216 405.696,-216"/>
<path fill="none" stroke="#0000ff" d="M370.012,-218C380.079,-218 395.526,-218 405.696,-218"/>
</g>
<!-- T&#45;&gt;40 -->
<g id="edge76" class="edge"><title>T&#45;&gt;40</title>
<path fill="none" stroke="#ff00ff" d="M370.012,-44C380.079,-44 395.526,-44 405.696,-44"/>
<path fill="none" stroke="#ffffff" d="M370.012,-46C380.079,-46 395.526,-46 405.696,-46"/>
<path fill="none" stroke="#00ffff" d="M370.012,-48C380.079,-48 395.526,-48 405.696,-48"/>
<path fill="none" stroke="#000000" d="M370.012,-50C380.079,-50 395.526,-50 405.696,-50"/>
<path fill="none" stroke="#00ff00" d="M370.012,-52C380.079,-52 395.526,-52 405.696,-52"/>
<path fill="none" stroke="#ffff00" d="M370.012,-54C380.079,-54 395.526,-54 405.696,-54"/>
<path fill="none" stroke="#ff0000" d="M370.012,-56C380.079,-56 395.526,-56 405.696,-56"/>
<path fill="none" stroke="#0000ff" d="M370.012,-58C380.079,-58 395.526,-58 405.696,-58"/>
</g>
<!-- U&#45;&gt;50 -->
<g id="edge77" class="edge"><title>U&#45;&gt;50</title>
<path fill="none" stroke="#ff00ff" d="M370.012,-244C380.079,-244 395.526,-244 405.696,-244"/>
<path fill="none" stroke="#ffffff" d="M370.012,-246C380.079,-246 395.526,-246 405.696,-246"/>
<path fill="none" stroke="#00ffff" d="M370.012,-248C380.079,-248 395.526,-248 405.696,-248"/>
<path fill="none" stroke="#000000" d="M370.012,-250C380.079,-250 395.526,-250 405.696,-250"/>
<path fill="none" stroke="#00ff00" d="M370.012,-252C380.079,-252 395.526,-252 405.696,-252"/>
<path fill="none" stroke="#ffff00" d="M370.012,-254C380.079,-254 395.526,-254 405.696,-254"/>
<path fill="none" stroke="#ff0000" d="M370.012,-256C380.079,-256 395.526,-256 405.696,-256"/>
<path fill="none" stroke="#0000ff" d="M370.012,-258C380.079,-258 395.526,-258 405.696,-258"/>
</g>
<!-- V&#45;&gt;60 -->
<g id="edge78" class="edge"><title>V&#45;&gt;60</title>
<path fill="none" stroke="#ff00ff" d="M370.012,-84C380.079,-84 395.526,-84 405.696,-84"/>
<path fill="none" stroke="#ffffff" d="M370.012,-86C380.079,-86 395.526,-86 405.696,-86"/>
<path fill="none" stroke="#00ffff" d="M370.012,-88C380.079,-88 395.526,-88 405.696,-88"/>
<path fill="none" stroke="#000000" d="M370.012,-90C380.079,-90 395.526,-90 405.696,-90"/>
<path fill="none" stroke="#00ff00" d="M370.012,-92C380.079,-92 395.526,-92 405.696,-92"/>
<path fill="none" stroke="#ffff00" d="M370.012,-94C380.079,-94 395.526,-94 405.696,-94"/>
<path fill="none" stroke="#ff0000" d="M370.012,-96C380.079,-96 395.526,-96 405.696,-96"/>
<path fill="none" stroke="#0000ff" d="M370.012,-98C380.079,-98 395.526,-98 405.696,-98"/>
</g>
<!-- W&#45;&gt;70 -->
<g id="edge79" class="edge"><title>W&#45;&gt;70</title>
<path fill="none" stroke="#ff00ff" d="M370.012,-164C380.079,-164 395.526,-164 405.696,-164"/>
<path fill="none" stroke="#ffffff" d="M370.012,-166C380.079,-166 395.526,-166 405.696,-166"/>
<path fill="none" stroke="#00ffff" d="M370.012,-168C380.079,-168 395.526,-168 405.696,-168"/>
<path fill="none" stroke="#000000" d="M370.012,-170C380.079,-170 395.526,-170 405.696,-170"/>
<path fill="none" stroke="#00ff00" d="M370.012,-172C380.079,-172 395.526,-172 405.696,-172"/>
<path fill="none" stroke="#ffff00" d="M370.012,-174C380.079,-174 395.526,-174 405.696,-174"/>
<path fill="none" stroke="#ff0000" d="M370.012,-176C380.079,-176 395.526,-176 405.696,-176"/>
<path fill="none" stroke="#0000ff" d="M370.012,-178C380.079,-178 395.526,-178 405.696,-178"/>
</g>
<!-- X&#45;&gt;80 -->
<g id="edge80" class="edge"><title>X&#45;&gt;80</title>
<path fill="none" stroke="#ff00ff" d="M370.012,-4C380.079,-4 395.526,-4 405.696,-4"/>
<path fill="none" stroke="#ffffff" d="M370.012,-6C380.079,-6 395.526,-6 405.696,-6"/>
<path fill="none" stroke="#00ffff" d="M370.012,-8C380.079,-8 395.526,-8 405.696,-8"/>
<path fill="none" stroke="#000000" d="M370.012,-10C380.079,-10 395.526,-10 405.696,-10"/>
<path fill="none" stroke="#00ff00" d="M370.012,-12C380.079,-12 395.526,-12 405.696,-12"/>
<path fill="none" stroke="#ffff00" d="M370.012,-14C380.079,-14 395.526,-14 405.696,-14"/>
<path fill="none" stroke="#ff0000" d="M370.012,-16C380.079,-16 395.526,-16 405.696,-16"/>
<path fill="none" stroke="#0000ff" d="M370.012,-18C380.079,-18 395.526,-18 405.696,-18"/>
</g>
</g>
</svg>
