<?xml version="1.0" encoding="UTF-8" standalone="no"?>
<!DOCTYPE svg PUBLIC "-//W3C//DTD SVG 1.1//EN"
 "http://www.w3.org/Graphics/SVG/1.1/DTD/svg11.dtd">
<!-- Generated by graphviz version 2.38.0 (20140413.2041)
 -->
<!-- Title: structs Pages: 1 -->
<svg width="428pt" height="245pt"
 viewBox="0.00 0.00 427.50 245.00" xmlns="http://www.w3.org/2000/svg" xmlns:xlink="http://www.w3.org/1999/xlink">
<g id="graph0" class="graph" transform="scale(1 1) rotate(0) translate(4 241)">
<title>structs</title>
<polygon fill="white" stroke="none" points="-4,4 -4,-241 423.5,-241 423.5,4 -4,4"/>
<!-- struct1 -->
<g id="node1" class="node"><title>struct1</title>
<text text-anchor="start" x="150.5" y="-209.3" font-family="Times,serif" font-size="14.00">a</text>
<text text-anchor="start" x="211" y="-209.3" font-family="Times,serif" font-size="14.00">b</text>
<text text-anchor="start" x="240" y="-209.3" font-family="Times,serif" font-size="14.00">c</text>
</g>
<!-- struct2 -->
<g id="node2" class="node"><title>struct2</title>
<polygon fill="none" stroke="black" points="11,-108 11,-129 108,-129 108,-108 11,-108"/>
<text text-anchor="start" x="36" y="-114.8" font-family="Times,serif" font-size="14.00">elefantel</text>
<polygon fill="none" stroke="black" points="110,-67 110,-129 137,-129 137,-67 110,-67"/>
<text text-anchor="start" x="113" y="-73.8" font-family="Times,serif" font-size="14.00">two</text>
<polygon fill="none" stroke="black" points="11,-25 11,-106 57,-106 57,-25 11,-25"/>
<polygon fill="grey" stroke="none" points="14,-28 14,-103 54,-103 54,-28 14,-28"/>
<polygon fill="none" stroke="black" points="17,-78 17,-100 51,-100 51,-78 17,-78"/>
<text text-anchor="start" x="21" y="-85.3" font-family="Times,serif" font-size="14.00">buca</text>
<polygon fill="yellow" stroke="none" points="17,-54 17,-76 51,-76 51,-54 17,-54"/>
<polygon fill="none" stroke="black" points="17,-54 17,-76 51,-76 51,-54 17,-54"/>
<text text-anchor="start" x="30.5" y="-61.3" font-family="Times,serif" font-size="14.00">c</text>
<polygon fill="none" stroke="black" points="17,-31 17,-52 51,-52 51,-31 17,-31"/>
<text text-anchor="start" x="31.5" y="-37.8" font-family="Times,serif" font-size="14.00">f</text>
<polygon fill="none" stroke="black" points="14,-28 14,-103 54,-103 54,-28 14,-28"/>
<polygon fill="none" stroke="black" points="59,-67 59,-106 108,-106 108,-67 59,-67"/>
<text text-anchor="start" x="62" y="-82.8" font-family="Times,serif" font-size="14.00">patratos</text>
<polygon fill="none" stroke="black" points="59,-25 59,-65 137,-65 137,-25 59,-25"/>
<text text-anchor="start" x="127" y="-41.3" font-family="Times,serif" font-size="14.00">4</text>
<polygon fill="none" stroke="black" points="8,-22 8,-132 140,-132 140,-22 8,-22"/>
</g>
<!-- struct1&#45;&gt;struct2 -->
<g id="edge2" class="edge"><title>struct1&#45;&gt;struct2</title>
<path fill="none" stroke="black" d="M164.756,-189.988C154.496,-177.327 141.098,-160.795 127.759,-144.336"/>
<polygon fill="black" stroke="black" points="130.245,-141.845 121.23,-136.279 124.807,-146.252 130.245,-141.845"/>
</g>
<!-- struct3 -->
<g id="node3" class="node"><title>struct3</title>
<polygon fill="none" stroke="black" points="178,-7 178,-147 221,-147 221,-7 178,-7"/>
<text text-anchor="start" x="184" y="-73.3" font-family="Times,serif" font-size="14.00">Hello</text>
<polygon fill="none" stroke="black" points="223,-36 223,-147 330,-147 330,-36 223,-36"/>
<polygon fill="none" stroke="black" stroke-width="4" points="237,-109 237,-133 316,-133 316,-109 237,-109"/>
<text text-anchor="start" x="273" y="-117.3" font-family="Times,serif" font-size="14.00">b</text>
<polygon fill="none" stroke="black" stroke-width="4" points="237,-79 237,-103 254,-103 254,-79 237,-79"/>
<text text-anchor="start" x="242" y="-87.3" font-family="Times,serif" font-size="14.00">a</text>
<polygon fill="none" stroke="black" stroke-width="4" points="260,-79 260,-103 294,-103 294,-79 260,-79"/>
<text text-anchor="start" x="264.5" y="-87.3" font-family="Times,serif" font-size="14.00">dino</text>
<polygon fill="none" stroke="black" stroke-width="4" points="300,-79 300,-103 316,-103 316,-79 300,-79"/>
<text text-anchor="start" x="304.5" y="-87.3" font-family="Times,serif" font-size="14.00">y</text>
<polygon fill="none" stroke="black" stroke-width="4" points="237,-50 237,-73 316,-73 316,-50 237,-50"/>
<text text-anchor="start" x="262" y="-57.8" font-family="Times,serif" font-size="14.00">rhino</text>
<polygon fill="none" stroke="black" stroke-width="4" points="231,-44 231,-139 322,-139 322,-44 231,-44"/>
<polygon fill="none" stroke="black" points="332,-36 332,-104 378,-104 378,-36 332,-36"/>
<text text-anchor="start" x="339" y="-66.3" font-family="Times,serif" font-size="14.00">climb</text>
<polygon fill="none" stroke="black" points="380,-7 380,-104 409,-104 409,-7 380,-7"/>
<text text-anchor="start" x="386" y="-51.8" font-family="Times,serif" font-size="14.00">Up</text>
<polygon fill="none" stroke="black" points="223,-7 223,-34 330,-34 330,-7 223,-7"/>
<text text-anchor="start" x="266" y="-16.8" font-family="Times,serif" font-size="14.00">low</text>
<polygon fill="none" stroke="black" points="174.5,-4 174.5,-150 411.5,-150 411.5,-4 174.5,-4"/>
</g>
<!-- struct1&#45;&gt;struct3 -->
<g id="edge1" class="edge"><title>struct1&#45;&gt;struct3</title>
<path fill="none" stroke="black" d="M201.412,-189.988C208.04,-181.883 215.966,-172.192 224.343,-161.949"/>
<polygon fill="black" stroke="black" points="227.201,-163.983 230.823,-154.026 221.783,-159.551 227.201,-163.983"/>
</g>
</g>
</svg>
