<?xml version="1.0" encoding="UTF-8" standalone="no"?>
<!DOCTYPE svg PUBLIC "-//W3C//DTD SVG 1.1//EN"
 "http://www.w3.org/Graphics/SVG/1.1/DTD/svg11.dtd">
<!-- Generated by graphviz version 2.38.0 (20140413.2041)
 -->
<!-- Title: %3 Pages: 1 -->
<svg width="447pt" height="452pt"
 viewBox="0.00 0.00 447.00 452.00" xmlns="http://www.w3.org/2000/svg" xmlns:xlink="http://www.w3.org/1999/xlink">
<g id="graph0" class="graph" transform="scale(1 1) rotate(0) translate(4 448)">
<title>%3</title>
<polygon fill="white" stroke="none" points="-4,4 -4,-448 443,-448 443,4 -4,4"/>
<!-- 30 -->
<g id="node1" class="node"><title>30</title>
<polygon fill="none" stroke="black" points="439,-444 2.84217e-14,-444 2.84217e-14,-360 439,-360 439,-444"/>
<polygon fill="none" stroke="black" points="0.5,-423 0.5,-444 439.5,-444 439.5,-423 0.5,-423"/>
<text text-anchor="start" x="181" y="-429.8" font-family="Times,serif" font-weight="bold" font-size="14.00">&quot;Times&#45;Bold&quot;</text>
<polygon fill="none" stroke="black" points="0.5,-402 0.5,-423 439.5,-423 439.5,-402 0.5,-402"/>
<text text-anchor="start" x="92" y="-408.8" font-family="Times,serif" font-weight="bold" font-size="14.00">&quot;ABCDEFGHIJLKLMNOPQRSTUVWXYZ&quot;</text>
<polygon fill="none" stroke="black" points="0.5,-381 0.5,-402 439.5,-402 439.5,-381 0.5,-381"/>
<text text-anchor="start" x="131" y="-387.8" font-family="Times,serif" font-weight="bold" font-size="14.00">&quot;abcdefghijlklmnopqrstuvwxyz&quot;</text>
<polygon fill="none" stroke="black" points="0.5,-360 0.5,-381 439.5,-381 439.5,-360 0.5,-360"/>
<text text-anchor="start" x="3.5" y="-366.8" font-family="Times,serif" font-weight="bold" font-size="14.00">&quot;ABCDEFGHIJLKLMNOPQRSTUVWXYZ\nabcdefghijlklmnopqrstuvwxyz&quot;</text>
</g>
<!-- 31 -->
<g id="node2" class="node"><title>31</title>
<polygon fill="none" stroke="black" points="429.5,-324 9.5,-324 9.5,-240 429.5,-240 429.5,-324"/>
<polygon fill="none" stroke="black" points="9.5,-303 9.5,-324 429.5,-324 429.5,-303 9.5,-303"/>
<text text-anchor="start" x="168" y="-309.8" font-family="Times,serif" font-weight="bold" font-style="italic" font-size="14.00">&quot;Times&#45;BoldItalic&quot;</text>
<polygon fill="none" stroke="black" points="9.5,-282 9.5,-303 429.5,-303 429.5,-282 9.5,-282"/>
<text text-anchor="start" x="98" y="-288.8" font-family="Times,serif" font-weight="bold" font-style="italic" font-size="14.00">&quot;ABCDEFGHIJLKLMNOPQRSTUVWXYZ&quot;</text>
<polygon fill="none" stroke="black" points="9.5,-261 9.5,-282 429.5,-282 429.5,-261 9.5,-261"/>
<text text-anchor="start" x="133" y="-267.8" font-family="Times,serif" font-weight="bold" font-style="italic" font-size="14.00">&quot;abcdefghijlklmnopqrstuvwxyz&quot;</text>
<polygon fill="none" stroke="black" points="9.5,-240 9.5,-261 429.5,-261 429.5,-240 9.5,-240"/>
<text text-anchor="start" x="12.5" y="-246.8" font-family="Times,serif" font-weight="bold" font-style="italic" font-size="14.00">&quot;ABCDEFGHIJLKLMNOPQRSTUVWXYZ\nabcdefghijlklmnopqrstuvwxyz&quot;</text>
</g>
<!-- 30&#45;&gt;31 -->
<g id="edge1" class="edge"><title>30&#45;&gt;31</title>
<path fill="none" stroke="black" d="M219.5,-359.729C219.5,-351.508 219.5,-342.78 219.5,-334.271"/>
<polygon fill="black" stroke="black" points="223,-334.048 219.5,-324.048 216,-334.048 223,-334.048"/>
</g>
<!-- 32 -->
<g id="node3" class="node"><title>32</title>
<polygon fill="none" stroke="black" points="429.5,-204 9.5,-204 9.5,-120 429.5,-120 429.5,-204"/>
<polygon fill="none" stroke="black" points="9.5,-183 9.5,-204 429.5,-204 429.5,-183 9.5,-183"/>
<text text-anchor="start" x="180.5" y="-189.8" font-family="Times,serif" font-style="italic" font-size="14.00">&quot;Times&#45;Italic&quot;</text>
<polygon fill="none" stroke="black" points="9.5,-162 9.5,-183 429.5,-183 429.5,-162 9.5,-162"/>
<text text-anchor="start" x="98" y="-168.8" font-family="Times,serif" font-style="italic" font-size="14.00">&quot;ABCDEFGHIJLKLMNOPQRSTUVWXYZ&quot;</text>
<polygon fill="none" stroke="black" points="9.5,-141 9.5,-162 429.5,-162 429.5,-141 9.5,-141"/>
<text text-anchor="start" x="133" y="-147.8" font-family="Times,serif" font-style="italic" font-size="14.00">&quot;abcdefghijlklmnopqrstuvwxyz&quot;</text>
<polygon fill="none" stroke="black" points="9.5,-120 9.5,-141 429.5,-141 429.5,-120 9.5,-120"/>
<text text-anchor="start" x="12.5" y="-126.8" font-family="Times,serif" font-style="italic" font-size="14.00">&quot;ABCDEFGHIJLKLMNOPQRSTUVWXYZ\nabcdefghijlklmnopqrstuvwxyz&quot;</text>
</g>
<!-- 31&#45;&gt;32 -->
<g id="edge2" class="edge"><title>31&#45;&gt;32</title>
<path fill="none" stroke="black" d="M219.5,-239.729C219.5,-231.508 219.5,-222.78 219.5,-214.271"/>
<polygon fill="black" stroke="black" points="223,-214.048 219.5,-204.048 216,-214.048 223,-214.048"/>
</g>
<!-- 33 -->
<g id="node4" class="node"><title>33</title>
<polygon fill="none" stroke="black" points="439,-84 2.84217e-14,-84 2.84217e-14,-0 439,-0 439,-84"/>
<polygon fill="none" stroke="black" points="0.5,-63 0.5,-84 439.5,-84 439.5,-63 0.5,-63"/>
<text text-anchor="start" x="174.5" y="-69.8" font-family="Times,serif" font-size="14.00">&quot;Times&#45;Roman&quot;</text>
<polygon fill="none" stroke="black" points="0.5,-42 0.5,-63 439.5,-63 439.5,-42 0.5,-42"/>
<text text-anchor="start" x="92" y="-48.8" font-family="Times,serif" font-size="14.00">&quot;ABCDEFGHIJLKLMNOPQRSTUVWXYZ&quot;</text>
<polygon fill="none" stroke="black" points="0.5,-21 0.5,-42 439.5,-42 439.5,-21 0.5,-21"/>
<text text-anchor="start" x="131" y="-27.8" font-family="Times,serif" font-size="14.00">&quot;abcdefghijlklmnopqrstuvwxyz&quot;</text>
<polygon fill="none" stroke="black" points="0.5,7.10543e-15 0.5,-21 439.5,-21 439.5,7.10543e-15 0.5,7.10543e-15"/>
<text text-anchor="start" x="3.5" y="-6.8" font-family="Times,serif" font-size="14.00">&quot;ABCDEFGHIJLKLMNOPQRSTUVWXYZ\nabcdefghijlklmnopqrstuvwxyz&quot;</text>
</g>
<!-- 32&#45;&gt;33 -->
<g id="edge3" class="edge"><title>32&#45;&gt;33</title>
<path fill="none" stroke="black" d="M219.5,-119.729C219.5,-111.508 219.5,-102.78 219.5,-94.2708"/>
<polygon fill="black" stroke="black" points="223,-94.0481 219.5,-84.0481 216,-94.0481 223,-94.0481"/>
</g>
</g>
</svg>
