<?xml version="1.0" encoding="UTF-8" standalone="no"?>
<!DOCTYPE svg PUBLIC "-//W3C//DTD SVG 1.1//EN"
 "http://www.w3.org/Graphics/SVG/1.1/DTD/svg11.dtd">
<!-- Generated by graphviz version 2.38.0 (20140413.2041)
 -->
<!-- Title: G Pages: 1 -->
<svg width="432pt" height="280pt"
 viewBox="0.00 0.00 432.00 280.06" xmlns="http://www.w3.org/2000/svg" xmlns:xlink="http://www.w3.org/1999/xlink">
<g id="graph0" class="graph" transform="scale(0.821293 0.821293) rotate(0) translate(4 337)">
<title>G</title>
<polygon fill="white" stroke="none" points="-4,4 -4,-337 522,-337 522,4 -4,4"/>
<!-- st9 -->
<g id="node1" class="node"><title>st9</title>
<ellipse fill="none" stroke="black" cx="18" cy="-44" rx="18" ry="18"/>
<text text-anchor="middle" x="18" y="-42.1" font-family="Times,serif" font-size="8.00">st9</text>
</g>
<!-- st9&#45;&gt;st9 -->
<g id="edge1" class="edge"><title>st9&#45;&gt;st9</title>
<path fill="none" stroke="black" d="M9.63501,-60.2903C7.61792,-70.3892 10.4062,-80 18,-80 22.8647,-80 25.7573,-76.0557 26.6778,-70.5656"/>
<polygon fill="black" stroke="black" points="30.1677,-70.1791 26.365,-60.2903 23.171,-70.3922 30.1677,-70.1791"/>
<text text-anchor="middle" x="18" y="-83.8" font-family="Times,serif" font-size="14.00">11/1</text>
</g>
<!-- st10 -->
<g id="node2" class="node"><title>st10</title>
<ellipse fill="none" stroke="black" cx="115" cy="-80" rx="18" ry="18"/>
<text text-anchor="middle" x="115" y="-78.1" font-family="Times,serif" font-size="8.00">st10</text>
</g>
<!-- st9&#45;&gt;st10 -->
<g id="edge2" class="edge"><title>st9&#45;&gt;st10</title>
<path fill="none" stroke="black" d="M35.1155,-50.1069C49.5822,-55.5891 71.0792,-63.7353 87.9801,-70.1398"/>
<polygon fill="black" stroke="black" points="87.2141,-73.5924 97.8055,-73.8631 89.6947,-67.0466 87.2141,-73.5924"/>
<text text-anchor="middle" x="66.5" y="-69.8" font-family="Times,serif" font-size="14.00">10/1</text>
</g>
<!-- st10&#45;&gt;st10 -->
<g id="edge18" class="edge"><title>st10&#45;&gt;st10</title>
<path fill="none" stroke="black" d="M106.635,-96.2903C104.618,-106.389 107.406,-116 115,-116 119.865,-116 122.757,-112.056 123.678,-106.566"/>
<polygon fill="black" stroke="black" points="127.168,-106.179 123.365,-96.2903 120.171,-106.392 127.168,-106.179"/>
<text text-anchor="middle" x="115" y="-119.8" font-family="Times,serif" font-size="14.00">10/1</text>
</g>
<!-- st0 -->
<g id="node4" class="node"><title>st0</title>
<ellipse fill="none" stroke="black" cx="212" cy="-116" rx="18" ry="18"/>
<text text-anchor="middle" x="212" y="-114.1" font-family="Times,serif" font-size="8.00">st0</text>
</g>
<!-- st10&#45;&gt;st0 -->
<g id="edge19" class="edge"><title>st10&#45;&gt;st0</title>
<path fill="none" stroke="black" d="M132.115,-86.1069C146.582,-91.5891 168.079,-99.7353 184.98,-106.14"/>
<polygon fill="black" stroke="black" points="184.214,-109.592 194.805,-109.863 186.695,-103.047 184.214,-109.592"/>
<text text-anchor="middle" x="163.5" y="-105.8" font-family="Times,serif" font-size="14.00">00/&#45;</text>
</g>
<!-- st8 -->
<g id="node3" class="node"><title>st8</title>
<ellipse fill="none" stroke="black" cx="500" cy="-56" rx="18" ry="18"/>
<text text-anchor="middle" x="500" y="-54.1" font-family="Times,serif" font-size="8.00">st8</text>
</g>
<!-- st8&#45;&gt;st8 -->
<g id="edge3" class="edge"><title>st8&#45;&gt;st8</title>
<path fill="none" stroke="black" d="M491.635,-72.2903C489.618,-82.3892 492.406,-92 500,-92 504.865,-92 507.757,-88.0557 508.678,-82.5656"/>
<polygon fill="black" stroke="black" points="512.168,-82.1791 508.365,-72.2903 505.171,-82.3922 512.168,-82.1791"/>
<text text-anchor="middle" x="500" y="-95.8" font-family="Times,serif" font-size="14.00">10/1</text>
</g>
<!-- st8&#45;&gt;st0 -->
<g id="edge4" class="edge"><title>st8&#45;&gt;st0</title>
<path fill="none" stroke="black" d="M482.682,-61.0874C466.981,-65.867 442.519,-73.0112 421,-78 356.469,-92.9603 279.561,-105.711 239.79,-111.934"/>
<polygon fill="black" stroke="black" points="239.172,-108.488 229.826,-113.478 240.244,-115.405 239.172,-108.488"/>
<text text-anchor="middle" x="354.5" y="-97.8" font-family="Times,serif" font-size="14.00">00/&#45;</text>
</g>
<!-- st0&#45;&gt;st0 -->
<g id="edge25" class="edge"><title>st0&#45;&gt;st0</title>
<path fill="none" stroke="black" d="M203.984,-132.29C202.051,-142.389 204.723,-152 212,-152 216.662,-152 219.434,-148.056 220.316,-142.566"/>
<polygon fill="black" stroke="black" points="223.807,-142.184 220.016,-132.29 216.81,-142.388 223.807,-142.184"/>
<text text-anchor="middle" x="212" y="-155.8" font-family="Times,serif" font-size="14.00">00/0</text>
</g>
<!-- st2 -->
<g id="node10" class="node"><title>st2</title>
<ellipse fill="none" stroke="black" cx="306" cy="-18" rx="18" ry="18"/>
<text text-anchor="middle" x="306" y="-16.1" font-family="Times,serif" font-size="8.00">st2</text>
</g>
<!-- st0&#45;&gt;st2 -->
<g id="edge23" class="edge"><title>st0&#45;&gt;st2</title>
<path fill="none" stroke="black" d="M222.625,-101.072C229.252,-91.2541 238.538,-78.3544 248,-68 258.756,-56.2297 272.094,-44.4042 283.163,-35.2107"/>
<polygon fill="black" stroke="black" points="285.564,-37.7687 291.104,-28.738 281.142,-32.3426 285.564,-37.7687"/>
<text text-anchor="middle" x="259" y="-71.8" font-family="Times,serif" font-size="14.00">01/&#45;</text>
</g>
<!-- st1 -->
<g id="node11" class="node"><title>st1</title>
<ellipse fill="none" stroke="black" cx="306" cy="-181" rx="18" ry="18"/>
<text text-anchor="middle" x="306" y="-179.1" font-family="Times,serif" font-size="8.00">st1</text>
</g>
<!-- st0&#45;&gt;st1 -->
<g id="edge24" class="edge"><title>st0&#45;&gt;st1</title>
<path fill="none" stroke="black" d="M224.981,-128.7C231.456,-135.189 239.79,-142.966 248,-149 258.082,-156.409 270.052,-163.372 280.414,-168.898"/>
<polygon fill="black" stroke="black" points="278.888,-172.05 289.377,-173.541 282.108,-165.834 278.888,-172.05"/>
<text text-anchor="middle" x="259" y="-165.8" font-family="Times,serif" font-size="14.00">10/&#45;</text>
</g>
<!-- st7 -->
<g id="node5" class="node"><title>st7</title>
<ellipse fill="none" stroke="black" cx="403" cy="-18" rx="18" ry="18"/>
<text text-anchor="middle" x="403" y="-16.1" font-family="Times,serif" font-size="8.00">st7</text>
</g>
<!-- st7&#45;&gt;st8 -->
<g id="edge5" class="edge"><title>st7&#45;&gt;st8</title>
<path fill="none" stroke="black" d="M420.115,-24.4462C434.807,-30.3229 456.75,-39.0998 473.765,-45.9061"/>
<polygon fill="black" stroke="black" points="472.538,-49.1847 483.123,-49.649 475.138,-42.6854 472.538,-49.1847"/>
<text text-anchor="middle" x="451.5" y="-45.8" font-family="Times,serif" font-size="14.00">10/1</text>
</g>
<!-- st7&#45;&gt;st7 -->
<g id="edge6" class="edge"><title>st7&#45;&gt;st7</title>
<path fill="none" stroke="black" d="M394.635,-34.2903C392.618,-44.3892 395.406,-54 403,-54 407.865,-54 410.757,-50.0557 411.678,-44.5656"/>
<polygon fill="black" stroke="black" points="415.168,-44.1791 411.365,-34.2903 408.171,-44.3922 415.168,-44.1791"/>
<text text-anchor="middle" x="403" y="-57.8" font-family="Times,serif" font-size="14.00">00/1</text>
</g>
<!-- st6 -->
<g id="node6" class="node"><title>st6</title>
<ellipse fill="none" stroke="black" cx="500" cy="-268" rx="18" ry="18"/>
<text text-anchor="middle" x="500" y="-266.1" font-family="Times,serif" font-size="8.00">st6</text>
</g>
<!-- st6&#45;&gt;st0 -->
<g id="edge8" class="edge"><title>st6&#45;&gt;st0</title>
<path fill="none" stroke="black" d="M487.774,-281.283C467.801,-303.206 424.478,-343.11 385,-328 299.279,-295.19 244.822,-190.701 223.382,-141.756"/>
<polygon fill="black" stroke="black" points="226.565,-140.297 219.422,-132.473 220.126,-143.044 226.565,-140.297"/>
<text text-anchor="middle" x="354.5" y="-321.8" font-family="Times,serif" font-size="14.00">00/&#45;</text>
</g>
<!-- st6&#45;&gt;st6 -->
<g id="edge7" class="edge"><title>st6&#45;&gt;st6</title>
<path fill="none" stroke="black" d="M491.635,-284.29C489.618,-294.389 492.406,-304 500,-304 504.865,-304 507.757,-300.056 508.678,-294.566"/>
<polygon fill="black" stroke="black" points="512.168,-294.179 508.365,-284.29 505.171,-294.392 512.168,-294.179"/>
<text text-anchor="middle" x="500" y="-307.8" font-family="Times,serif" font-size="14.00">01/1</text>
</g>
<!-- st5 -->
<g id="node7" class="node"><title>st5</title>
<ellipse fill="none" stroke="black" cx="403" cy="-268" rx="18" ry="18"/>
<text text-anchor="middle" x="403" y="-266.1" font-family="Times,serif" font-size="8.00">st5</text>
</g>
<!-- st5&#45;&gt;st6 -->
<g id="edge9" class="edge"><title>st5&#45;&gt;st6</title>
<path fill="none" stroke="black" d="M421.424,-268C435.352,-268 455.139,-268 471.243,-268"/>
<polygon fill="black" stroke="black" points="471.686,-271.5 481.686,-268 471.686,-264.5 471.686,-271.5"/>
<text text-anchor="middle" x="451.5" y="-271.8" font-family="Times,serif" font-size="14.00">01/1</text>
</g>
<!-- st5&#45;&gt;st5 -->
<g id="edge10" class="edge"><title>st5&#45;&gt;st5</title>
<path fill="none" stroke="black" d="M394.635,-284.29C392.618,-294.389 395.406,-304 403,-304 407.865,-304 410.757,-300.056 411.678,-294.566"/>
<polygon fill="black" stroke="black" points="415.168,-294.179 411.365,-284.29 408.171,-294.392 415.168,-294.179"/>
<text text-anchor="middle" x="403" y="-307.8" font-family="Times,serif" font-size="14.00">11/1</text>
</g>
<!-- st4 -->
<g id="node8" class="node"><title>st4</title>
<ellipse fill="none" stroke="black" cx="500" cy="-168" rx="18" ry="18"/>
<text text-anchor="middle" x="500" y="-166.1" font-family="Times,serif" font-size="8.00">st4</text>
</g>
<!-- st4&#45;&gt;st0 -->
<g id="edge12" class="edge"><title>st4&#45;&gt;st0</title>
<path fill="none" stroke="black" d="M482.055,-164.919C434.278,-156.232 298.185,-131.488 239.961,-120.902"/>
<polygon fill="black" stroke="black" points="240.499,-117.443 230.034,-119.097 239.247,-124.33 240.499,-117.443"/>
<text text-anchor="middle" x="354.5" y="-146.8" font-family="Times,serif" font-size="14.00">00/&#45;</text>
</g>
<!-- st4&#45;&gt;st4 -->
<g id="edge11" class="edge"><title>st4&#45;&gt;st4</title>
<path fill="none" stroke="black" d="M491.635,-184.29C489.618,-194.389 492.406,-204 500,-204 504.865,-204 507.757,-200.056 508.678,-194.566"/>
<polygon fill="black" stroke="black" points="512.168,-194.179 508.365,-184.29 505.171,-194.392 512.168,-194.179"/>
<text text-anchor="middle" x="500" y="-207.8" font-family="Times,serif" font-size="14.00">01/1</text>
</g>
<!-- st3 -->
<g id="node9" class="node"><title>st3</title>
<ellipse fill="none" stroke="black" cx="403" cy="-181" rx="18" ry="18"/>
<text text-anchor="middle" x="403" y="-179.1" font-family="Times,serif" font-size="8.00">st3</text>
</g>
<!-- st3&#45;&gt;st4 -->
<g id="edge13" class="edge"><title>st3&#45;&gt;st4</title>
<path fill="none" stroke="black" d="M420.984,-178.676C435.081,-176.747 455.397,-173.967 471.763,-171.727"/>
<polygon fill="black" stroke="black" points="472.41,-175.171 481.843,-170.348 471.46,-168.236 472.41,-175.171"/>
<text text-anchor="middle" x="451.5" y="-179.8" font-family="Times,serif" font-size="14.00">01/1</text>
</g>
<!-- st3&#45;&gt;st3 -->
<g id="edge14" class="edge"><title>st3&#45;&gt;st3</title>
<path fill="none" stroke="black" d="M394.635,-197.29C392.618,-207.389 395.406,-217 403,-217 407.865,-217 410.757,-213.056 411.678,-207.566"/>
<polygon fill="black" stroke="black" points="415.168,-207.179 411.365,-197.29 408.171,-207.392 415.168,-207.179"/>
<text text-anchor="middle" x="403" y="-220.8" font-family="Times,serif" font-size="14.00">00/1</text>
</g>
<!-- st2&#45;&gt;st9 -->
<g id="edge15" class="edge"><title>st2&#45;&gt;st9</title>
<path fill="none" stroke="black" d="M288.055,-19.5404C240.377,-23.8748 104.749,-36.2046 46.3242,-41.516"/>
<polygon fill="black" stroke="black" points="45.6761,-38.0604 36.0341,-42.4514 46.3099,-45.0316 45.6761,-38.0604"/>
<text text-anchor="middle" x="163.5" y="-35.8" font-family="Times,serif" font-size="14.00">11/1</text>
</g>
<!-- st2&#45;&gt;st7 -->
<g id="edge16" class="edge"><title>st2&#45;&gt;st7</title>
<path fill="none" stroke="black" d="M324.424,-18C338.352,-18 358.139,-18 374.243,-18"/>
<polygon fill="black" stroke="black" points="374.686,-21.5001 384.686,-18 374.686,-14.5001 374.686,-21.5001"/>
<text text-anchor="middle" x="354.5" y="-21.8" font-family="Times,serif" font-size="14.00">00/1</text>
</g>
<!-- st2&#45;&gt;st2 -->
<g id="edge17" class="edge"><title>st2&#45;&gt;st2</title>
<path fill="none" stroke="black" d="M297.984,-34.2903C296.051,-44.3892 298.723,-54 306,-54 310.662,-54 313.434,-50.0557 314.316,-44.5656"/>
<polygon fill="black" stroke="black" points="317.807,-44.1839 314.016,-34.2903 310.81,-44.3881 317.807,-44.1839"/>
<text text-anchor="middle" x="306" y="-57.8" font-family="Times,serif" font-size="14.00">01/1</text>
</g>
<!-- st1&#45;&gt;st5 -->
<g id="edge20" class="edge"><title>st1&#45;&gt;st5</title>
<path fill="none" stroke="black" d="M319.812,-192.733C335.677,-207.262 362.894,-232.187 381.633,-249.348"/>
<polygon fill="black" stroke="black" points="379.349,-252.002 389.087,-256.175 384.076,-246.84 379.349,-252.002"/>
<text text-anchor="middle" x="354.5" y="-237.8" font-family="Times,serif" font-size="14.00">11/1</text>
</g>
<!-- st1&#45;&gt;st3 -->
<g id="edge21" class="edge"><title>st1&#45;&gt;st3</title>
<path fill="none" stroke="black" d="M324.424,-181C338.352,-181 358.139,-181 374.243,-181"/>
<polygon fill="black" stroke="black" points="374.686,-184.5 384.686,-181 374.686,-177.5 374.686,-184.5"/>
<text text-anchor="middle" x="354.5" y="-184.8" font-family="Times,serif" font-size="14.00">00/1</text>
</g>
<!-- st1&#45;&gt;st1 -->
<g id="edge22" class="edge"><title>st1&#45;&gt;st1</title>
<path fill="none" stroke="black" d="M297.984,-197.29C296.051,-207.389 298.723,-217 306,-217 310.662,-217 313.434,-213.056 314.316,-207.566"/>
<polygon fill="black" stroke="black" points="317.807,-207.184 314.016,-197.29 310.81,-207.388 317.807,-207.184"/>
<text text-anchor="middle" x="306" y="-220.8" font-family="Times,serif" font-size="14.00">10/1</text>
</g>
</g>
</svg>
