<?xml version="1.0" encoding="UTF-8" standalone="no"?>
<!DOCTYPE svg PUBLIC "-//W3C//DTD SVG 1.1//EN"
 "http://www.w3.org/Graphics/SVG/1.1/DTD/svg11.dtd">
<!-- Generated by graphviz version 2.38.0 (20140413.2041)
 -->
<!-- Title: test Pages: 1 -->
<svg width="504pt" height="681pt"
 viewBox="0.00 0.00 504.00 681.13" xmlns="http://www.w3.org/2000/svg" xmlns:xlink="http://www.w3.org/1999/xlink">
<g id="graph0" class="graph" transform="scale(0.488619 0.488619) rotate(0) translate(4 1390)">
<title>test</title>
<polygon fill="white" stroke="none" points="-4,4 -4,-1390 1027.48,-1390 1027.48,4 -4,4"/>
<!-- A -->
<g id="node1" class="node"><title>A</title>
<polygon fill="none" stroke="black" points="964.479,-1373.56 937.479,-1386 910.479,-1373.56 910.505,-1353.44 964.454,-1353.44 964.479,-1373.56"/>
<text text-anchor="middle" x="937.479" y="-1364.3" font-family="Times,serif" font-size="14.00">A</text>
</g>
<!-- C -->
<g id="node2" class="node"><title>C</title>
<polygon fill="none" stroke="black" points="964.479,-1319.56 937.479,-1332 910.479,-1319.56 910.505,-1299.44 964.454,-1299.44 964.479,-1319.56"/>
<text text-anchor="middle" x="937.479" y="-1310.3" font-family="Times,serif" font-size="14.00">C</text>
</g>
<!-- E -->
<g id="node3" class="node"><title>E</title>
<polygon fill="none" stroke="black" points="964.479,-1265.56 937.479,-1278 910.479,-1265.56 910.505,-1245.44 964.454,-1245.44 964.479,-1265.56"/>
<text text-anchor="middle" x="937.479" y="-1256.3" font-family="Times,serif" font-size="14.00">E</text>
</g>
<!-- G -->
<g id="node4" class="node"><title>G</title>
<polygon fill="none" stroke="black" points="964.479,-1211.56 937.479,-1224 910.479,-1211.56 910.505,-1191.44 964.454,-1191.44 964.479,-1211.56"/>
<text text-anchor="middle" x="937.479" y="-1202.3" font-family="Times,serif" font-size="14.00">G</text>
</g>
<!-- I -->
<g id="node5" class="node"><title>I</title>
<polygon fill="none" stroke="black" points="964.479,-1157.56 937.479,-1170 910.479,-1157.56 910.505,-1137.44 964.454,-1137.44 964.479,-1157.56"/>
<text text-anchor="middle" x="937.479" y="-1148.3" font-family="Times,serif" font-size="14.00">I</text>
</g>
<!-- K -->
<g id="node6" class="node"><title>K</title>
<polygon fill="none" stroke="black" points="964.479,-1103.56 937.479,-1116 910.479,-1103.56 910.505,-1083.44 964.454,-1083.44 964.479,-1103.56"/>
<text text-anchor="middle" x="937.479" y="-1094.3" font-family="Times,serif" font-size="14.00">K</text>
</g>
<!-- M -->
<g id="node7" class="node"><title>M</title>
<polygon fill="none" stroke="black" points="964.479,-1049.56 937.479,-1062 910.479,-1049.56 910.505,-1029.44 964.454,-1029.44 964.479,-1049.56"/>
<text text-anchor="middle" x="937.479" y="-1040.3" font-family="Times,serif" font-size="14.00">M</text>
</g>
<!-- O -->
<g id="node8" class="node"><title>O</title>
<polygon fill="none" stroke="black" points="964.479,-995.562 937.479,-1008 910.479,-995.562 910.505,-975.438 964.454,-975.438 964.479,-995.562"/>
<text text-anchor="middle" x="937.479" y="-986.3" font-family="Times,serif" font-size="14.00">O</text>
</g>
<!-- Q -->
<g id="node9" class="node"><title>Q</title>
<polygon fill="none" stroke="black" points="964.479,-941.562 937.479,-954 910.479,-941.562 910.505,-921.438 964.454,-921.438 964.479,-941.562"/>
<text text-anchor="middle" x="937.479" y="-932.3" font-family="Times,serif" font-size="14.00">Q</text>
</g>
<!-- S -->
<g id="node10" class="node"><title>S</title>
<polygon fill="none" stroke="black" points="964.479,-887.562 937.479,-900 910.479,-887.562 910.505,-867.438 964.454,-867.438 964.479,-887.562"/>
<text text-anchor="middle" x="937.479" y="-878.3" font-family="Times,serif" font-size="14.00">S</text>
</g>
<!-- U -->
<g id="node11" class="node"><title>U</title>
<polygon fill="none" stroke="black" points="964.479,-833.562 937.479,-846 910.479,-833.562 910.505,-813.438 964.454,-813.438 964.479,-833.562"/>
<text text-anchor="middle" x="937.479" y="-824.3" font-family="Times,serif" font-size="14.00">U</text>
</g>
<!-- W -->
<g id="node12" class="node"><title>W</title>
<polygon fill="none" stroke="black" points="964.479,-779.562 937.479,-792 910.479,-779.562 910.505,-759.438 964.454,-759.438 964.479,-779.562"/>
<text text-anchor="middle" x="937.479" y="-770.3" font-family="Times,serif" font-size="14.00">W</text>
</g>
<!-- Y -->
<g id="node13" class="node"><title>Y</title>
<polygon fill="none" stroke="black" points="964.479,-725.562 937.479,-738 910.479,-725.562 910.505,-705.438 964.454,-705.438 964.479,-725.562"/>
<text text-anchor="middle" x="937.479" y="-716.3" font-family="Times,serif" font-size="14.00">Y</text>
</g>
<!-- B -->
<g id="node14" class="node"><title>B</title>
<polygon fill="none" stroke="black" points="910.479,-660.438 937.479,-648 964.479,-660.438 964.454,-680.562 910.505,-680.562 910.479,-660.438"/>
<text text-anchor="middle" x="937.479" y="-662.3" font-family="Times,serif" font-size="14.00">B</text>
</g>
<!-- D -->
<g id="node15" class="node"><title>D</title>
<polygon fill="none" stroke="black" points="910.479,-606.438 937.479,-594 964.479,-606.438 964.454,-626.562 910.505,-626.562 910.479,-606.438"/>
<text text-anchor="middle" x="937.479" y="-608.3" font-family="Times,serif" font-size="14.00">D</text>
</g>
<!-- F -->
<g id="node16" class="node"><title>F</title>
<polygon fill="none" stroke="black" points="910.479,-552.438 937.479,-540 964.479,-552.438 964.454,-572.562 910.505,-572.562 910.479,-552.438"/>
<text text-anchor="middle" x="937.479" y="-554.3" font-family="Times,serif" font-size="14.00">F</text>
</g>
<!-- H -->
<g id="node17" class="node"><title>H</title>
<polygon fill="none" stroke="black" points="910.479,-498.438 937.479,-486 964.479,-498.438 964.454,-518.562 910.505,-518.562 910.479,-498.438"/>
<text text-anchor="middle" x="937.479" y="-500.3" font-family="Times,serif" font-size="14.00">H</text>
</g>
<!-- J -->
<g id="node18" class="node"><title>J</title>
<polygon fill="none" stroke="black" points="910.479,-444.438 937.479,-432 964.479,-444.438 964.454,-464.562 910.505,-464.562 910.479,-444.438"/>
<text text-anchor="middle" x="937.479" y="-446.3" font-family="Times,serif" font-size="14.00">J</text>
</g>
<!-- L -->
<g id="node19" class="node"><title>L</title>
<polygon fill="none" stroke="black" points="910.479,-390.438 937.479,-378 964.479,-390.438 964.454,-410.562 910.505,-410.562 910.479,-390.438"/>
<text text-anchor="middle" x="937.479" y="-392.3" font-family="Times,serif" font-size="14.00">L</text>
</g>
<!-- N -->
<g id="node20" class="node"><title>N</title>
<polygon fill="none" stroke="black" points="910.479,-336.438 937.479,-324 964.479,-336.438 964.454,-356.562 910.505,-356.562 910.479,-336.438"/>
<text text-anchor="middle" x="937.479" y="-338.3" font-family="Times,serif" font-size="14.00">N</text>
</g>
<!-- P -->
<g id="node21" class="node"><title>P</title>
<polygon fill="none" stroke="black" points="910.479,-282.438 937.479,-270 964.479,-282.438 964.454,-302.562 910.505,-302.562 910.479,-282.438"/>
<text text-anchor="middle" x="937.479" y="-284.3" font-family="Times,serif" font-size="14.00">P</text>
</g>
<!-- R -->
<g id="node22" class="node"><title>R</title>
<polygon fill="none" stroke="black" points="910.479,-228.438 937.479,-216 964.479,-228.438 964.454,-248.562 910.505,-248.562 910.479,-228.438"/>
<text text-anchor="middle" x="937.479" y="-230.3" font-family="Times,serif" font-size="14.00">R</text>
</g>
<!-- T -->
<g id="node23" class="node"><title>T</title>
<polygon fill="none" stroke="black" points="910.479,-174.438 937.479,-162 964.479,-174.438 964.454,-194.562 910.505,-194.562 910.479,-174.438"/>
<text text-anchor="middle" x="937.479" y="-176.3" font-family="Times,serif" font-size="14.00">T</text>
</g>
<!-- V -->
<g id="node24" class="node"><title>V</title>
<polygon fill="none" stroke="black" points="910.479,-120.438 937.479,-108 964.479,-120.438 964.454,-140.562 910.505,-140.562 910.479,-120.438"/>
<text text-anchor="middle" x="937.479" y="-122.3" font-family="Times,serif" font-size="14.00">V</text>
</g>
<!-- X -->
<g id="node25" class="node"><title>X</title>
<polygon fill="none" stroke="black" points="910.479,-66.4377 937.479,-54 964.479,-66.4377 964.454,-86.5623 910.505,-86.5623 910.479,-66.4377"/>
<text text-anchor="middle" x="937.479" y="-68.3" font-family="Times,serif" font-size="14.00">X</text>
</g>
<!-- Z -->
<g id="node26" class="node"><title>Z</title>
<polygon fill="none" stroke="black" points="910.479,-12.4377 937.479,3.55271e-15 964.479,-12.4377 964.454,-32.5623 910.505,-32.5623 910.479,-12.4377"/>
<text text-anchor="middle" x="937.479" y="-14.3" font-family="Times,serif" font-size="14.00">Z</text>
</g>
<!-- Trapezium -->
<g id="node27" class="node"><title>Trapezium</title>
<polygon fill="none" stroke="black" points="555.192,-711 473.766,-711 444.767,-675 584.192,-675 555.192,-711"/>
<text text-anchor="middle" x="514.479" y="-689.3" font-family="Times,serif" font-size="14.00">Trapezium</text>
</g>
<!-- Trapezium&#45;&gt;A -->
<g id="edge1" class="edge"><title>Trapezium&#45;&gt;A</title>
<path fill="none" stroke="black" d="M524.668,-711.194C564.864,-790.03 731.243,-1108.61 910.479,-1341 911.701,-1342.58 913.005,-1344.18 914.353,-1345.76"/>
<polygon fill="black" stroke="black" points="911.975,-1348.34 921.29,-1353.39 917.157,-1343.64 911.975,-1348.34"/>
</g>
<!-- Trapezium&#45;&gt;C -->
<g id="edge3" class="edge"><title>Trapezium&#45;&gt;C</title>
<path fill="none" stroke="black" d="M525.853,-711.055C568.855,-785.32 738.894,-1073.37 910.479,-1287 911.732,-1288.56 913.06,-1290.14 914.425,-1291.7"/>
<polygon fill="black" stroke="black" points="912.064,-1294.3 921.404,-1299.3 917.22,-1289.57 912.064,-1294.3"/>
</g>
<!-- Trapezium&#45;&gt;E -->
<g id="edge5" class="edge"><title>Trapezium&#45;&gt;E</title>
<path fill="none" stroke="black" d="M527.59,-711.378C574.092,-781.528 746.792,-1038.28 910.479,-1233 911.767,-1234.53 913.12,-1236.09 914.505,-1237.63"/>
<polygon fill="black" stroke="black" points="912.162,-1240.25 921.532,-1245.2 917.29,-1235.49 912.162,-1240.25"/>
</g>
<!-- Trapezium&#45;&gt;G -->
<g id="edge7" class="edge"><title>Trapezium&#45;&gt;G</title>
<path fill="none" stroke="black" d="M529.301,-711.1C579.019,-775.967 754.107,-1002.32 910.479,-1179 911.951,-1180.66 913.493,-1182.36 915.059,-1184.06"/>
<polygon fill="black" stroke="black" points="912.537,-1186.49 921.946,-1191.36 917.628,-1181.68 912.537,-1186.49"/>
</g>
<!-- Trapezium&#45;&gt;I -->
<g id="edge9" class="edge"><title>Trapezium&#45;&gt;I</title>
<path fill="none" stroke="black" d="M531.87,-711.262C585.627,-771.085 761.664,-966.41 910.479,-1125 911.999,-1126.62 913.575,-1128.29 915.166,-1129.96"/>
<polygon fill="black" stroke="black" points="912.663,-1132.41 922.106,-1137.21 917.72,-1127.57 912.663,-1132.41"/>
</g>
<!-- Trapezium&#45;&gt;K -->
<g id="edge11" class="edge"><title>Trapezium&#45;&gt;K</title>
<path fill="none" stroke="black" d="M534.387,-711.189C603.083,-777.274 839.325,-1004.54 913.802,-1076.18"/>
<polygon fill="black" stroke="black" points="911.649,-1078.97 921.283,-1083.38 916.502,-1073.93 911.649,-1078.97"/>
</g>
<!-- Trapezium&#45;&gt;M -->
<g id="edge13" class="edge"><title>Trapezium&#45;&gt;M</title>
<path fill="none" stroke="black" d="M537.228,-711.132C608.546,-770.593 835.108,-959.484 911.244,-1022.96"/>
<polygon fill="black" stroke="black" points="909.031,-1025.67 918.953,-1029.39 913.514,-1020.3 909.031,-1025.67"/>
</g>
<!-- Trapezium&#45;&gt;O -->
<g id="edge15" class="edge"><title>Trapezium&#45;&gt;O</title>
<path fill="none" stroke="black" d="M541.181,-711.132C615.27,-763.399 828.965,-914.153 907.272,-969.395"/>
<polygon fill="black" stroke="black" points="905.517,-972.441 915.706,-975.345 909.553,-966.721 905.517,-972.441"/>
</g>
<!-- Trapezium&#45;&gt;Q -->
<g id="edge17" class="edge"><title>Trapezium&#45;&gt;Q</title>
<path fill="none" stroke="black" d="M546.779,-711.066C623.845,-755.548 822.299,-870.096 902.298,-916.271"/>
<polygon fill="black" stroke="black" points="900.596,-919.329 911.006,-921.297 904.095,-913.267 900.596,-919.329"/>
</g>
<!-- Trapezium&#45;&gt;S -->
<g id="edge19" class="edge"><title>Trapezium&#45;&gt;S</title>
<path fill="none" stroke="black" d="M555.466,-710.951C637.348,-747.711 822.948,-831.032 900.925,-866.038"/>
<polygon fill="black" stroke="black" points="899.766,-869.355 910.323,-870.258 902.633,-862.969 899.766,-869.355"/>
</g>
<!-- Trapezium&#45;&gt;U -->
<g id="edge21" class="edge"><title>Trapezium&#45;&gt;U</title>
<path fill="none" stroke="black" d="M558.948,-706.939C642.388,-733.695 823.552,-791.788 900.618,-816.5"/>
<polygon fill="black" stroke="black" points="899.759,-819.901 910.35,-819.621 901.896,-813.235 899.759,-819.901"/>
</g>
<!-- Trapezium&#45;&gt;W -->
<g id="edge23" class="edge"><title>Trapezium&#45;&gt;W</title>
<path fill="none" stroke="black" d="M562.548,-702.056C647.388,-718.379 824.202,-752.398 900.334,-767.046"/>
<polygon fill="black" stroke="black" points="899.907,-770.528 910.389,-768.98 901.23,-763.654 899.907,-770.528"/>
</g>
<!-- Trapezium&#45;&gt;Y -->
<g id="edge25" class="edge"><title>Trapezium&#45;&gt;Y</title>
<path fill="none" stroke="black" d="M567.102,-696.311C653.324,-701.84 824.569,-712.823 899.699,-717.641"/>
<polygon fill="black" stroke="black" points="899.861,-721.159 910.064,-718.306 900.309,-714.173 899.861,-721.159"/>
</g>
<!-- Trapezium&#45;&gt;B -->
<g id="edge2" class="edge"><title>Trapezium&#45;&gt;B</title>
<path fill="none" stroke="black" d="M572.695,-689.331C660.766,-683.682 827.025,-673.02 900.271,-668.322"/>
<polygon fill="black" stroke="black" points="900.627,-671.807 910.383,-667.674 900.179,-664.821 900.627,-671.807"/>
</g>
<!-- Trapezium&#45;&gt;D -->
<g id="edge4" class="edge"><title>Trapezium&#45;&gt;D</title>
<path fill="none" stroke="black" d="M579.878,-680.61C669.672,-663.333 829.454,-632.592 900.595,-618.904"/>
<polygon fill="black" stroke="black" points="901.27,-622.338 910.429,-617.012 899.948,-615.465 901.27,-622.338"/>
</g>
<!-- Trapezium&#45;&gt;F -->
<g id="edge6" class="edge"><title>Trapezium&#45;&gt;F</title>
<path fill="none" stroke="black" d="M571.82,-674.933C659.772,-646.73 827.206,-593.04 900.551,-569.521"/>
<polygon fill="black" stroke="black" points="901.804,-572.795 910.258,-566.408 899.666,-566.129 901.804,-572.795"/>
</g>
<!-- Trapezium&#45;&gt;H -->
<g id="edge8" class="edge"><title>Trapezium&#45;&gt;H</title>
<path fill="none" stroke="black" d="M555.847,-674.878C637.95,-638.019 823.195,-554.857 901.005,-519.926"/>
<polygon fill="black" stroke="black" points="902.693,-523.004 910.382,-515.716 899.826,-516.618 902.693,-523.004"/>
</g>
<!-- Trapezium&#45;&gt;J -->
<g id="edge10" class="edge"><title>Trapezium&#45;&gt;J</title>
<path fill="none" stroke="black" d="M546.779,-674.934C623.845,-630.452 822.299,-515.904 902.298,-469.729"/>
<polygon fill="black" stroke="black" points="904.095,-472.733 911.006,-464.703 900.596,-466.671 904.095,-472.733"/>
</g>
<!-- Trapezium&#45;&gt;L -->
<g id="edge12" class="edge"><title>Trapezium&#45;&gt;L</title>
<path fill="none" stroke="black" d="M541.181,-674.868C615.27,-622.601 828.965,-471.847 907.272,-416.605"/>
<polygon fill="black" stroke="black" points="909.553,-419.279 915.706,-410.655 905.517,-413.559 909.553,-419.279"/>
</g>
<!-- Trapezium&#45;&gt;N -->
<g id="edge14" class="edge"><title>Trapezium&#45;&gt;N</title>
<path fill="none" stroke="black" d="M537.228,-674.868C608.546,-615.407 835.108,-426.516 911.244,-363.039"/>
<polygon fill="black" stroke="black" points="913.514,-365.704 918.953,-356.612 909.031,-360.328 913.514,-365.704"/>
</g>
<!-- Trapezium&#45;&gt;P -->
<g id="edge16" class="edge"><title>Trapezium&#45;&gt;P</title>
<path fill="none" stroke="black" d="M534.387,-674.811C603.083,-608.726 839.325,-381.462 913.802,-309.816"/>
<polygon fill="black" stroke="black" points="916.502,-312.074 921.283,-302.619 911.649,-307.03 916.502,-312.074"/>
</g>
<!-- Trapezium&#45;&gt;R -->
<g id="edge18" class="edge"><title>Trapezium&#45;&gt;R</title>
<path fill="none" stroke="black" d="M531.87,-674.738C585.627,-614.915 761.664,-419.59 910.479,-261 911.999,-259.381 913.575,-257.713 915.166,-256.039"/>
<polygon fill="black" stroke="black" points="917.72,-258.433 922.106,-248.789 912.663,-253.593 917.72,-258.433"/>
</g>
<!-- Trapezium&#45;&gt;T -->
<g id="edge20" class="edge"><title>Trapezium&#45;&gt;T</title>
<path fill="none" stroke="black" d="M529.301,-674.9C579.019,-610.033 754.107,-383.679 910.479,-207 911.951,-205.337 913.493,-203.638 915.059,-201.941"/>
<polygon fill="black" stroke="black" points="917.628,-204.318 921.946,-194.643 912.537,-199.514 917.628,-204.318"/>
</g>
<!-- Trapezium&#45;&gt;V -->
<g id="edge22" class="edge"><title>Trapezium&#45;&gt;V</title>
<path fill="none" stroke="black" d="M527.59,-674.622C574.092,-604.472 746.792,-347.716 910.479,-153 911.767,-151.468 913.12,-149.915 914.505,-148.367"/>
<polygon fill="black" stroke="black" points="917.29,-150.512 921.532,-140.803 912.162,-145.748 917.29,-150.512"/>
</g>
<!-- Trapezium&#45;&gt;X -->
<g id="edge24" class="edge"><title>Trapezium&#45;&gt;X</title>
<path fill="none" stroke="black" d="M525.853,-674.945C568.855,-600.68 738.894,-312.63 910.479,-99 911.732,-97.4399 913.06,-95.865 914.425,-94.3014"/>
<polygon fill="black" stroke="black" points="917.22,-96.4318 921.404,-86.6981 912.064,-91.6981 917.22,-96.4318"/>
</g>
<!-- Trapezium&#45;&gt;Z -->
<g id="edge26" class="edge"><title>Trapezium&#45;&gt;Z</title>
<path fill="none" stroke="black" d="M524.668,-674.806C564.864,-595.97 731.243,-277.39 910.479,-45 911.701,-43.4155 913.005,-41.822 914.353,-40.2447"/>
<polygon fill="black" stroke="black" points="917.157,-42.3634 921.29,-32.608 911.975,-37.6568 917.157,-42.3634"/>
</g>
<!-- a -->
<g id="node28" class="node"><title>a</title>
<polygon fill="none" stroke="black" points="117.464,-1386 72.9466,-1386 61.4946,-1350 106.012,-1350 117.464,-1386"/>
<text text-anchor="middle" x="89.4793" y="-1364.3" font-family="Times,serif" font-size="14.00">a</text>
</g>
<!-- a&#45;&gt;Trapezium -->
<g id="edge27" class="edge"><title>a&#45;&gt;Trapezium</title>
<path fill="none" stroke="black" d="M107.126,-1352.6C110.711,-1348.95 114.356,-1344.96 117.472,-1341 292.943,-1118.1 453.193,-812.143 499.857,-720.195"/>
<polygon fill="black" stroke="black" points="503.112,-721.514 504.501,-711.011 496.865,-718.356 503.112,-721.514"/>
</g>
<!-- b -->
<g id="node29" class="node"><title>b</title>
<polygon fill="none" stroke="black" points="117.464,-1332 72.9466,-1332 61.4946,-1296 106.012,-1296 117.464,-1332"/>
<text text-anchor="middle" x="89.4793" y="-1310.3" font-family="Times,serif" font-size="14.00">b</text>
</g>
<!-- b&#45;&gt;Trapezium -->
<g id="edge28" class="edge"><title>b&#45;&gt;Trapezium</title>
<path fill="none" stroke="black" d="M107.011,-1298.5C110.602,-1294.86 114.278,-1290.9 117.472,-1287 285.029,-1082.58 448.231,-806.538 498.059,-720.054"/>
<polygon fill="black" stroke="black" points="501.233,-721.555 503.179,-711.14 495.163,-718.068 501.233,-721.555"/>
</g>
<!-- c -->
<g id="node30" class="node"><title>c</title>
<polygon fill="none" stroke="black" points="117.464,-1278 72.9466,-1278 61.4946,-1242 106.012,-1242 117.464,-1278"/>
<text text-anchor="middle" x="89.4793" y="-1256.3" font-family="Times,serif" font-size="14.00">c</text>
</g>
<!-- c&#45;&gt;Trapezium -->
<g id="edge29" class="edge"><title>c&#45;&gt;Trapezium</title>
<path fill="none" stroke="black" d="M106.883,-1244.4C110.481,-1240.76 114.192,-1236.82 117.472,-1233 277.088,-1046.92 442.444,-800.998 495.781,-720.077"/>
<polygon fill="black" stroke="black" points="498.871,-721.748 501.442,-711.47 493.023,-717.902 498.871,-721.748"/>
</g>
<!-- d -->
<g id="node31" class="node"><title>d</title>
<polygon fill="none" stroke="black" points="117.464,-1224 72.9466,-1224 61.4946,-1188 106.012,-1188 117.464,-1224"/>
<text text-anchor="middle" x="89.4793" y="-1202.3" font-family="Times,serif" font-size="14.00">d</text>
</g>
<!-- d&#45;&gt;Trapezium -->
<g id="edge30" class="edge"><title>d&#45;&gt;Trapezium</title>
<path fill="none" stroke="black" d="M106.74,-1190.27C110.345,-1186.64 114.096,-1182.74 117.472,-1179 269.578,-1010.56 436.634,-794.071 493.365,-719.566"/>
<polygon fill="black" stroke="black" points="496.462,-721.276 499.728,-711.197 490.89,-717.039 496.462,-721.276"/>
</g>
<!-- e -->
<g id="node32" class="node"><title>e</title>
<polygon fill="none" stroke="black" points="117.464,-1170 72.9466,-1170 61.4946,-1134 106.012,-1134 117.464,-1170"/>
<text text-anchor="middle" x="89.4793" y="-1148.3" font-family="Times,serif" font-size="14.00">e</text>
</g>
<!-- e&#45;&gt;Trapezium -->
<g id="edge31" class="edge"><title>e&#45;&gt;Trapezium</title>
<path fill="none" stroke="black" d="M106.866,-1135.84C110.393,-1132.29 114.08,-1128.54 117.472,-1125 262.158,-973.866 429.926,-786.785 490.332,-719.029"/>
<polygon fill="black" stroke="black" points="493.119,-721.163 497.158,-711.368 487.892,-716.506 493.119,-721.163"/>
</g>
<!-- f -->
<g id="node33" class="node"><title>f</title>
<polygon fill="none" stroke="black" points="117.464,-1116 72.9466,-1116 61.4946,-1080 106.012,-1080 117.464,-1116"/>
<text text-anchor="middle" x="89.4793" y="-1094.3" font-family="Times,serif" font-size="14.00">f</text>
</g>
<!-- f&#45;&gt;Trapezium -->
<g id="edge32" class="edge"><title>f&#45;&gt;Trapezium</title>
<path fill="none" stroke="black" d="M106.802,-1082.37C171.096,-1020.81 407.221,-794.736 486.967,-718.384"/>
<polygon fill="black" stroke="black" points="489.814,-720.504 494.617,-711.06 484.973,-715.447 489.814,-720.504"/>
</g>
<!-- g -->
<g id="node34" class="node"><title>g</title>
<polygon fill="none" stroke="black" points="117.464,-1062 72.9466,-1062 61.4946,-1026 106.012,-1026 117.464,-1062"/>
<text text-anchor="middle" x="89.4793" y="-1040.3" font-family="Times,serif" font-size="14.00">g</text>
</g>
<!-- g&#45;&gt;Trapezium -->
<g id="edge33" class="edge"><title>g&#45;&gt;Trapezium</title>
<path fill="none" stroke="black" d="M107.322,-1030.02C171.564,-976.717 401.704,-785.75 483.977,-717.481"/>
<polygon fill="black" stroke="black" points="486.231,-720.158 491.692,-711.079 481.761,-714.771 486.231,-720.158"/>
</g>
<!-- h -->
<g id="node35" class="node"><title>h</title>
<polygon fill="none" stroke="black" points="117.464,-1008 72.9466,-1008 61.4946,-972 106.012,-972 117.464,-1008"/>
<text text-anchor="middle" x="89.4793" y="-986.3" font-family="Times,serif" font-size="14.00">h</text>
</g>
<!-- h&#45;&gt;Trapezium -->
<g id="edge34" class="edge"><title>h&#45;&gt;Trapezium</title>
<path fill="none" stroke="black" d="M108.117,-977.616C172.287,-932.56 394.036,-776.864 479.512,-716.85"/>
<polygon fill="black" stroke="black" points="481.651,-719.624 487.824,-711.013 477.629,-713.895 481.651,-719.624"/>
</g>
<!-- i -->
<g id="node36" class="node"><title>i</title>
<polygon fill="none" stroke="black" points="117.464,-954 72.9466,-954 61.4946,-918 106.012,-918 117.464,-954"/>
<text text-anchor="middle" x="89.4793" y="-932.3" font-family="Times,serif" font-size="14.00">i</text>
</g>
<!-- i&#45;&gt;Trapezium -->
<g id="edge35" class="edge"><title>i&#45;&gt;Trapezium</title>
<path fill="none" stroke="black" d="M108.655,-925.559C171.949,-889.198 383.682,-767.564 473.091,-716.202"/>
<polygon fill="black" stroke="black" points="474.931,-719.181 481.859,-711.165 471.444,-713.112 474.931,-719.181"/>
</g>
<!-- j -->
<g id="node37" class="node"><title>j</title>
<polygon fill="none" stroke="black" points="117.464,-900 72.9466,-900 61.4946,-864 106.012,-864 117.464,-900"/>
<text text-anchor="middle" x="89.4793" y="-878.3" font-family="Times,serif" font-size="14.00">j</text>
</g>
<!-- j&#45;&gt;Trapezium -->
<g id="edge36" class="edge"><title>j&#45;&gt;Trapezium</title>
<path fill="none" stroke="black" d="M109.201,-873.635C171.11,-845.973 370.596,-756.841 464.166,-715.034"/>
<polygon fill="black" stroke="black" points="465.719,-718.173 473.422,-710.898 462.864,-711.782 465.719,-718.173"/>
</g>
<!-- k -->
<g id="node38" class="node"><title>k</title>
<polygon fill="none" stroke="black" points="117.464,-846 72.9466,-846 61.4946,-810 106.012,-810 117.464,-846"/>
<text text-anchor="middle" x="89.4793" y="-824.3" font-family="Times,serif" font-size="14.00">k</text>
</g>
<!-- k&#45;&gt;Trapezium -->
<g id="edge37" class="edge"><title>k&#45;&gt;Trapezium</title>
<path fill="none" stroke="black" d="M110.033,-821.759C172.099,-801.951 366.115,-740.031 460.65,-709.861"/>
<polygon fill="black" stroke="black" points="461.84,-713.155 470.302,-706.78 459.711,-706.486 461.84,-713.155"/>
</g>
<!-- l -->
<g id="node39" class="node"><title>l</title>
<polygon fill="none" stroke="black" points="117.464,-792 72.9466,-792 61.4946,-756 106.012,-756 117.464,-792"/>
<text text-anchor="middle" x="89.4793" y="-770.3" font-family="Times,serif" font-size="14.00">l</text>
</g>
<!-- l&#45;&gt;Trapezium -->
<g id="edge38" class="edge"><title>l&#45;&gt;Trapezium</title>
<path fill="none" stroke="black" d="M110.597,-770.148C172.299,-758.332 360.477,-722.298 456.222,-703.964"/>
<polygon fill="black" stroke="black" points="457.146,-707.351 466.309,-702.033 455.83,-700.476 457.146,-707.351"/>
</g>
<!-- m -->
<g id="node40" class="node"><title>m</title>
<polygon fill="none" stroke="black" points="117.464,-738 72.9466,-738 61.4946,-702 106.012,-702 117.464,-738"/>
<text text-anchor="middle" x="89.4793" y="-716.3" font-family="Times,serif" font-size="14.00">m</text>
</g>
<!-- m&#45;&gt;Trapezium -->
<g id="edge39" class="edge"><title>m&#45;&gt;Trapezium</title>
<path fill="none" stroke="black" d="M111.456,-718.661C172.979,-714.734 354.685,-703.136 451.352,-696.966"/>
<polygon fill="black" stroke="black" points="451.814,-700.443 461.571,-696.313 451.368,-693.458 451.814,-700.443"/>
</g>
<!-- n -->
<g id="node41" class="node"><title>n</title>
<polygon fill="none" stroke="black" points="117.464,-684 72.9466,-684 61.4946,-648 106.012,-648 117.464,-684"/>
<text text-anchor="middle" x="89.4793" y="-662.3" font-family="Times,serif" font-size="14.00">n</text>
</g>
<!-- n&#45;&gt;Trapezium -->
<g id="edge40" class="edge"><title>n&#45;&gt;Trapezium</title>
<path fill="none" stroke="black" d="M112.331,-667.395C173.604,-671.306 348.923,-682.496 446.278,-688.711"/>
<polygon fill="black" stroke="black" points="446.11,-692.207 456.312,-689.351 446.556,-685.221 446.11,-692.207"/>
</g>
<!-- o -->
<g id="node42" class="node"><title>o</title>
<polygon fill="none" stroke="black" points="117.464,-630 72.9466,-630 61.4946,-594 106.012,-594 117.464,-630"/>
<text text-anchor="middle" x="89.4793" y="-608.3" font-family="Times,serif" font-size="14.00">o</text>
</g>
<!-- o&#45;&gt;Trapezium -->
<g id="edge41" class="edge"><title>o&#45;&gt;Trapezium</title>
<path fill="none" stroke="black" d="M113.222,-616.355C173.86,-627.967 341.451,-660.058 439.481,-678.83"/>
<polygon fill="black" stroke="black" points="438.848,-682.272 449.328,-680.716 440.165,-675.397 438.848,-682.272"/>
</g>
<!-- p -->
<g id="node43" class="node"><title>p</title>
<polygon fill="none" stroke="black" points="117.464,-576 72.9466,-576 61.4946,-540 106.012,-540 117.464,-576"/>
<text text-anchor="middle" x="89.4793" y="-554.3" font-family="Times,serif" font-size="14.00">p</text>
</g>
<!-- p&#45;&gt;Trapezium -->
<g id="edge42" class="edge"><title>p&#45;&gt;Trapezium</title>
<path fill="none" stroke="black" d="M114.434,-565.645C177.712,-585.84 351.047,-641.16 447.14,-671.828"/>
<polygon fill="black" stroke="black" points="446.168,-675.192 456.759,-674.898 448.297,-668.523 446.168,-675.192"/>
</g>
<!-- q -->
<g id="node44" class="node"><title>q</title>
<polygon fill="none" stroke="black" points="117.464,-522 72.9466,-522 61.4946,-486 106.012,-486 117.464,-522"/>
<text text-anchor="middle" x="89.4793" y="-500.3" font-family="Times,serif" font-size="14.00">q</text>
</g>
<!-- q&#45;&gt;Trapezium -->
<g id="edge43" class="edge"><title>q&#45;&gt;Trapezium</title>
<path fill="none" stroke="black" d="M115.361,-515.117C183.264,-545.457 372.742,-630.117 463.62,-670.722"/>
<polygon fill="black" stroke="black" points="462.33,-673.98 472.888,-674.863 465.186,-667.588 462.33,-673.98"/>
</g>
<!-- r -->
<g id="node45" class="node"><title>r</title>
<polygon fill="none" stroke="black" points="117.464,-468 72.9466,-468 61.4946,-432 106.012,-432 117.464,-468"/>
<text text-anchor="middle" x="89.4793" y="-446.3" font-family="Times,serif" font-size="14.00">r</text>
</g>
<!-- r&#45;&gt;Trapezium -->
<g id="edge44" class="edge"><title>r&#45;&gt;Trapezium</title>
<path fill="none" stroke="black" d="M116.621,-465.017C188.121,-506.092 387.3,-620.514 473.201,-669.861"/>
<polygon fill="black" stroke="black" points="471.47,-672.904 481.885,-674.85 474.957,-666.834 471.47,-672.904"/>
</g>
<!-- s -->
<g id="node46" class="node"><title>s</title>
<polygon fill="none" stroke="black" points="117.464,-414 72.9466,-414 61.4946,-378 106.012,-378 117.464,-414"/>
<text text-anchor="middle" x="89.4793" y="-392.3" font-family="Times,serif" font-size="14.00">s</text>
</g>
<!-- s&#45;&gt;Trapezium -->
<g id="edge45" class="edge"><title>s&#45;&gt;Trapezium</title>
<path fill="none" stroke="black" d="M116.303,-414.132C189.251,-465.351 396.897,-611.145 479.236,-668.957"/>
<polygon fill="black" stroke="black" points="477.53,-672.036 487.725,-674.917 481.552,-666.307 477.53,-672.036"/>
</g>
<!-- t -->
<g id="node47" class="node"><title>t</title>
<polygon fill="none" stroke="black" points="117.464,-360 72.9466,-360 61.4946,-324 106.012,-324 117.464,-360"/>
<text text-anchor="middle" x="89.4793" y="-338.3" font-family="Times,serif" font-size="14.00">t</text>
</g>
<!-- t&#45;&gt;Trapezium -->
<g id="edge46" class="edge"><title>t&#45;&gt;Trapezium</title>
<path fill="none" stroke="black" d="M112.331,-360.132C182.743,-418.56 403.762,-601.958 484.001,-668.539"/>
<polygon fill="black" stroke="black" points="481.828,-671.284 491.758,-674.976 486.298,-665.897 481.828,-671.284"/>
</g>
<!-- u -->
<g id="node48" class="node"><title>u</title>
<polygon fill="none" stroke="black" points="117.464,-306 72.9466,-306 61.4946,-270 106.012,-270 117.464,-306"/>
<text text-anchor="middle" x="89.4793" y="-284.3" font-family="Times,serif" font-size="14.00">u</text>
</g>
<!-- u&#45;&gt;Trapezium -->
<g id="edge47" class="edge"><title>u&#45;&gt;Trapezium</title>
<path fill="none" stroke="black" d="M109.477,-306.189C177.396,-371.218 408.316,-592.312 486.981,-667.629"/>
<polygon fill="black" stroke="black" points="484.891,-670.474 494.534,-674.861 489.732,-665.417 484.891,-670.474"/>
</g>
<!-- v -->
<g id="node49" class="node"><title>v</title>
<polygon fill="none" stroke="black" points="117.464,-252 72.9466,-252 61.4946,-216 106.012,-216 117.464,-252"/>
<text text-anchor="middle" x="89.4793" y="-230.3" font-family="Times,serif" font-size="14.00">v</text>
</g>
<!-- v&#45;&gt;Trapezium -->
<g id="edge48" class="edge"><title>v&#45;&gt;Trapezium</title>
<path fill="none" stroke="black" d="M108.882,-252.194C111.778,-255.118 114.721,-258.127 117.472,-261 262.158,-412.134 429.926,-599.215 490.332,-666.971"/>
<polygon fill="black" stroke="black" points="487.892,-669.494 497.158,-674.632 493.119,-664.837 487.892,-669.494"/>
</g>
<!-- w -->
<g id="node50" class="node"><title>w</title>
<polygon fill="none" stroke="black" points="117.464,-198 72.9466,-198 61.4946,-162 106.012,-162 117.464,-198"/>
<text text-anchor="middle" x="89.4793" y="-176.3" font-family="Times,serif" font-size="14.00">w</text>
</g>
<!-- w&#45;&gt;Trapezium -->
<g id="edge49" class="edge"><title>w&#45;&gt;Trapezium</title>
<path fill="none" stroke="black" d="M109.031,-198.055C111.908,-200.997 114.806,-204.048 117.472,-207 269.578,-375.44 436.634,-591.929 493.365,-666.434"/>
<polygon fill="black" stroke="black" points="490.89,-668.961 499.728,-674.803 496.462,-664.724 490.89,-668.961"/>
</g>
<!-- x -->
<g id="node51" class="node"><title>x</title>
<polygon fill="none" stroke="black" points="117.464,-144 72.9466,-144 61.4946,-108 106.012,-108 117.464,-144"/>
<text text-anchor="middle" x="89.4793" y="-122.3" font-family="Times,serif" font-size="14.00">x</text>
</g>
<!-- x&#45;&gt;Trapezium -->
<g id="edge50" class="edge"><title>x&#45;&gt;Trapezium</title>
<path fill="none" stroke="black" d="M109.451,-144.234C112.214,-147.1 114.969,-150.082 117.472,-153 277.088,-339.075 442.444,-585.002 495.781,-665.923"/>
<polygon fill="black" stroke="black" points="493.023,-668.098 501.442,-674.53 498.871,-664.252 493.023,-668.098"/>
</g>
<!-- y -->
<g id="node52" class="node"><title>y</title>
<polygon fill="none" stroke="black" points="117.464,-90 72.9466,-90 61.4946,-54 106.012,-54 117.464,-90"/>
<text text-anchor="middle" x="89.4793" y="-68.3" font-family="Times,serif" font-size="14.00">y</text>
</g>
<!-- y&#45;&gt;Trapezium -->
<g id="edge51" class="edge"><title>y&#45;&gt;Trapezium</title>
<path fill="none" stroke="black" d="M109.569,-90.1345C112.316,-93.015 115.035,-96.0268 117.472,-99 285.029,-303.415 448.231,-579.462 498.059,-665.946"/>
<polygon fill="black" stroke="black" points="495.163,-667.932 503.179,-674.86 501.233,-664.445 495.163,-667.932"/>
</g>
<!-- z -->
<g id="node53" class="node"><title>z</title>
<polygon fill="none" stroke="black" points="117.464,-36 72.9466,-36 61.4946,-1.77636e-14 106.012,-7.10543e-15 117.464,-36"/>
<text text-anchor="middle" x="89.4793" y="-14.3" font-family="Times,serif" font-size="14.00">z</text>
</g>
<!-- z&#45;&gt;Trapezium -->
<g id="edge52" class="edge"><title>z&#45;&gt;Trapezium</title>
<path fill="none" stroke="black" d="M109.675,-36.0493C112.408,-38.9415 115.094,-41.9793 117.472,-45 292.943,-267.896 453.193,-573.857 499.857,-665.805"/>
<polygon fill="black" stroke="black" points="496.865,-667.644 504.501,-674.989 503.112,-664.486 496.865,-667.644"/>
</g>
</g>
</svg>
