<?xml version="1.0" encoding="UTF-8" standalone="no"?>
<!DOCTYPE svg PUBLIC "-//W3C//DTD SVG 1.1//EN"
 "http://www.w3.org/Graphics/SVG/1.1/DTD/svg11.dtd">
<!-- Generated by graphviz version 2.38.0 (20140413.2041)
 -->
<!-- Title: g Pages: 1 -->
<svg width="366pt" height="212pt"
 viewBox="0.00 0.00 366.00 212.00" xmlns="http://www.w3.org/2000/svg" xmlns:xlink="http://www.w3.org/1999/xlink">
<g id="graph0" class="graph" transform="scale(1 1) rotate(0) translate(4 208)">
<title>g</title>
<polygon fill="white" stroke="none" points="-4,4 -4,-208 362,-208 362,4 -4,4"/>
<!-- node0 -->
<g id="node1" class="node"><title>node0</title>
<polygon fill="none" stroke="black" points="166,-180.5 166,-203.5 232,-203.5 232,-180.5 166,-180.5"/>
<text text-anchor="middle" x="176" y="-188.3" font-family="Times,serif" font-size="14.00"> </text>
<polyline fill="none" stroke="black" points="186,-180.5 186,-203.5 "/>
<text text-anchor="middle" x="199" y="-188.3" font-family="Times,serif" font-size="14.00">G</text>
<polyline fill="none" stroke="black" points="212,-180.5 212,-203.5 "/>
<text text-anchor="middle" x="222" y="-188.3" font-family="Times,serif" font-size="14.00"> </text>
</g>
<!-- node1 -->
<g id="node2" class="node"><title>node1</title>
<polygon fill="none" stroke="black" points="102.5,-120.5 102.5,-143.5 167.5,-143.5 167.5,-120.5 102.5,-120.5"/>
<text text-anchor="middle" x="112.5" y="-128.3" font-family="Times,serif" font-size="14.00"> </text>
<polyline fill="none" stroke="black" points="122.5,-120.5 122.5,-143.5 "/>
<text text-anchor="middle" x="135" y="-128.3" font-family="Times,serif" font-size="14.00">E</text>
<polyline fill="none" stroke="black" points="147.5,-120.5 147.5,-143.5 "/>
<text text-anchor="middle" x="157.5" y="-128.3" font-family="Times,serif" font-size="14.00"> </text>
</g>
<!-- node0&#45;&gt;node1 -->
<g id="edge2" class="edge"><title>node0:f0&#45;&gt;node1:f1</title>
<path fill="none" stroke="black" d="M176,-180C176,-159.918 147.883,-165.039 138.217,-153.62"/>
<polygon fill="black" stroke="black" points="141.491,-152.374 135,-144 134.852,-154.594 141.491,-152.374"/>
</g>
<!-- node4 -->
<g id="node5" class="node"><title>node4</title>
<polygon fill="none" stroke="black" points="231,-120.5 231,-143.5 297,-143.5 297,-120.5 231,-120.5"/>
<text text-anchor="middle" x="241" y="-128.3" font-family="Times,serif" font-size="14.00"> </text>
<polyline fill="none" stroke="black" points="251,-120.5 251,-143.5 "/>
<text text-anchor="middle" x="264" y="-128.3" font-family="Times,serif" font-size="14.00">R</text>
<polyline fill="none" stroke="black" points="277,-120.5 277,-143.5 "/>
<text text-anchor="middle" x="287" y="-128.3" font-family="Times,serif" font-size="14.00"> </text>
</g>
<!-- node0&#45;&gt;node4 -->
<g id="edge1" class="edge"><title>node0:f2&#45;&gt;node4:f1</title>
<path fill="none" stroke="black" d="M222,-180C222,-159.64 250.803,-165.173 260.704,-153.714"/>
<polygon fill="black" stroke="black" points="264.102,-154.594 264,-144 257.473,-152.345 264.102,-154.594"/>
</g>
<!-- node2 -->
<g id="node3" class="node"><title>node2</title>
<polygon fill="none" stroke="black" points="42,-60.5 42,-83.5 108,-83.5 108,-60.5 42,-60.5"/>
<text text-anchor="middle" x="52" y="-68.3" font-family="Times,serif" font-size="14.00"> </text>
<polyline fill="none" stroke="black" points="62,-60.5 62,-83.5 "/>
<text text-anchor="middle" x="75" y="-68.3" font-family="Times,serif" font-size="14.00">B</text>
<polyline fill="none" stroke="black" points="88,-60.5 88,-83.5 "/>
<text text-anchor="middle" x="98" y="-68.3" font-family="Times,serif" font-size="14.00"> </text>
</g>
<!-- node1&#45;&gt;node2 -->
<g id="edge3" class="edge"><title>node1:f0&#45;&gt;node2:f1</title>
<path fill="none" stroke="black" d="M112,-120C112,-101.179 87.1022,-104.451 78.1546,-93.569"/>
<polygon fill="black" stroke="black" points="81.455,-92.4014 75,-84 74.807,-94.5931 81.455,-92.4014"/>
</g>
<!-- node3 -->
<g id="node4" class="node"><title>node3</title>
<polygon fill="none" stroke="black" points="126,-60.5 126,-83.5 190,-83.5 190,-60.5 126,-60.5"/>
<text text-anchor="middle" x="136" y="-68.3" font-family="Times,serif" font-size="14.00"> </text>
<polyline fill="none" stroke="black" points="146,-60.5 146,-83.5 "/>
<text text-anchor="middle" x="158" y="-68.3" font-family="Times,serif" font-size="14.00">F</text>
<polyline fill="none" stroke="black" points="170,-60.5 170,-83.5 "/>
<text text-anchor="middle" x="180" y="-68.3" font-family="Times,serif" font-size="14.00"> </text>
</g>
<!-- node1&#45;&gt;node3 -->
<g id="edge4" class="edge"><title>node1:f2&#45;&gt;node3:f1</title>
<path fill="none" stroke="black" d="M158,-120C158,-108 158,-102.75 158,-94.125"/>
<polygon fill="black" stroke="black" points="161.5,-94 158,-84 154.5,-94 161.5,-94"/>
</g>
<!-- node7 -->
<g id="node8" class="node"><title>node7</title>
<polygon fill="none" stroke="black" points="0,-0.5 0,-23.5 66,-23.5 66,-0.5 0,-0.5"/>
<text text-anchor="middle" x="10" y="-8.3" font-family="Times,serif" font-size="14.00"> </text>
<polyline fill="none" stroke="black" points="20,-0.5 20,-23.5 "/>
<text text-anchor="middle" x="33" y="-8.3" font-family="Times,serif" font-size="14.00">A</text>
<polyline fill="none" stroke="black" points="46,-0.5 46,-23.5 "/>
<text text-anchor="middle" x="56" y="-8.3" font-family="Times,serif" font-size="14.00"> </text>
</g>
<!-- node2&#45;&gt;node7 -->
<g id="edge6" class="edge"><title>node2:f0&#45;&gt;node7:f1</title>
<path fill="none" stroke="black" d="M52,-60C52,-46.0072 40.6341,-42.9467 35.4839,-33.9075"/>
<polygon fill="black" stroke="black" points="38.8268,-32.8486 33,-24 32.037,-34.551 38.8268,-32.8486"/>
</g>
<!-- node8 -->
<g id="node9" class="node"><title>node8</title>
<polygon fill="none" stroke="black" points="84,-0.5 84,-23.5 150,-23.5 150,-0.5 84,-0.5"/>
<text text-anchor="middle" x="94" y="-8.3" font-family="Times,serif" font-size="14.00"> </text>
<polyline fill="none" stroke="black" points="104,-0.5 104,-23.5 "/>
<text text-anchor="middle" x="117" y="-8.3" font-family="Times,serif" font-size="14.00">C</text>
<polyline fill="none" stroke="black" points="130,-0.5 130,-23.5 "/>
<text text-anchor="middle" x="140" y="-8.3" font-family="Times,serif" font-size="14.00"> </text>
</g>
<!-- node2&#45;&gt;node8 -->
<g id="edge5" class="edge"><title>node2:f2&#45;&gt;node8:f1</title>
<path fill="none" stroke="black" d="M98,-60C98,-46.0072 109.366,-42.9467 114.516,-33.9075"/>
<polygon fill="black" stroke="black" points="117.963,-34.551 117,-24 111.173,-32.8486 117.963,-34.551"/>
</g>
<!-- node5 -->
<g id="node6" class="node"><title>node5</title>
<polygon fill="none" stroke="black" points="208,-60.5 208,-83.5 274,-83.5 274,-60.5 208,-60.5"/>
<text text-anchor="middle" x="218" y="-68.3" font-family="Times,serif" font-size="14.00"> </text>
<polyline fill="none" stroke="black" points="228,-60.5 228,-83.5 "/>
<text text-anchor="middle" x="241" y="-68.3" font-family="Times,serif" font-size="14.00">H</text>
<polyline fill="none" stroke="black" points="254,-60.5 254,-83.5 "/>
<text text-anchor="middle" x="264" y="-68.3" font-family="Times,serif" font-size="14.00"> </text>
</g>
<!-- node4&#45;&gt;node5 -->
<g id="edge8" class="edge"><title>node4:f0&#45;&gt;node5:f1</title>
<path fill="none" stroke="black" d="M241,-120C241,-108 241,-102.75 241,-94.125"/>
<polygon fill="black" stroke="black" points="244.5,-94 241,-84 237.5,-94 244.5,-94"/>
</g>
<!-- node6 -->
<g id="node7" class="node"><title>node6</title>
<polygon fill="none" stroke="black" points="292,-60.5 292,-83.5 358,-83.5 358,-60.5 292,-60.5"/>
<text text-anchor="middle" x="302" y="-68.3" font-family="Times,serif" font-size="14.00"> </text>
<polyline fill="none" stroke="black" points="312,-60.5 312,-83.5 "/>
<text text-anchor="middle" x="325" y="-68.3" font-family="Times,serif" font-size="14.00">Y</text>
<polyline fill="none" stroke="black" points="338,-60.5 338,-83.5 "/>
<text text-anchor="middle" x="348" y="-68.3" font-family="Times,serif" font-size="14.00"> </text>
</g>
<!-- node4&#45;&gt;node6 -->
<g id="edge7" class="edge"><title>node4:f2&#45;&gt;node6:f1</title>
<path fill="none" stroke="black" d="M287,-120C287,-100.916 312.571,-104.572 321.76,-93.6598"/>
<polygon fill="black" stroke="black" points="325.138,-94.5939 325,-84 318.502,-92.368 325.138,-94.5939"/>
</g>
</g>
</svg>
