<?xml version="1.0" encoding="UTF-8" standalone="no"?>
<!DOCTYPE svg PUBLIC "-//W3C//DTD SVG 1.1//EN"
 "http://www.w3.org/Graphics/SVG/1.1/DTD/svg11.dtd">
<!-- Generated by graphviz version 2.38.0 (20140413.2041)
 -->
<!-- Title: G Pages: 1 -->
<svg width="126pt" height="542pt"
 viewBox="0.00 0.00 126.00 542.00" xmlns="http://www.w3.org/2000/svg" xmlns:xlink="http://www.w3.org/1999/xlink">
<g id="graph0" class="graph" transform="scale(1 1) rotate(0) translate(4 538)">
<title>G</title>
<polygon fill="white" stroke="none" points="-4,4 -4,-538 122,-538 122,4 -4,4"/>
<g id="clust1" class="cluster"><title>cluster_small</title>
<polygon fill="none" stroke="black" points="28,-8 28,-155 98,-155 98,-8 28,-8"/>
<text text-anchor="middle" x="63" y="-139.8" font-family="Times,serif" font-size="14.00">small</text>
</g>
<g id="clust2" class="cluster"><title>cluster_big</title>
<polygon fill="none" stroke="black" points="8,-163 8,-526 98,-526 98,-163 8,-163"/>
<text text-anchor="middle" x="53" y="-510.8" font-family="Times,serif" font-size="14.00">big</text>
</g>
<!-- a -->
<g id="node1" class="node"><title>a</title>
<ellipse fill="none" stroke="black" cx="63" cy="-106" rx="27" ry="18"/>
<text text-anchor="middle" x="63" y="-102.3" font-family="Times,serif" font-size="14.00">a</text>
</g>
<!-- b -->
<g id="node2" class="node"><title>b</title>
<ellipse fill="none" stroke="black" cx="63" cy="-34" rx="27" ry="18"/>
<text text-anchor="middle" x="63" y="-30.3" font-family="Times,serif" font-size="14.00">b</text>
</g>
<!-- a&#45;&gt;b -->
<g id="edge1" class="edge"><title>a&#45;&gt;b</title>
<path fill="none" stroke="black" d="M63,-87.6966C63,-79.9827 63,-70.7125 63,-62.1124"/>
<polygon fill="black" stroke="black" points="66.5001,-62.1043 63,-52.1043 59.5001,-62.1044 66.5001,-62.1043"/>
</g>
<!-- q -->
<g id="node4" class="node"><title>q</title>
<ellipse fill="none" stroke="black" cx="63" cy="-405" rx="27" ry="18"/>
<text text-anchor="middle" x="63" y="-401.3" font-family="Times,serif" font-size="14.00">q</text>
</g>
<!-- b&#45;&gt;q -->
<g id="edge8" class="edge"><title>b&#45;&gt;q</title>
<path fill="none" stroke="black" d="M75.8536,-50.2538C83.7063,-60.3509 93.3027,-74.2266 99,-88 116.292,-129.804 118,-142.76 118,-188 118,-262 118,-262 118,-262 118,-302.447 114.881,-313.801 99,-351 94.6108,-361.281 88.1196,-371.658 81.8532,-380.471"/>
<polygon fill="black" stroke="black" points="78.8947,-378.585 75.7479,-388.702 84.5167,-382.756 78.8947,-378.585"/>
</g>
<!-- p -->
<g id="node3" class="node"><title>p</title>
<ellipse fill="none" stroke="black" cx="53" cy="-477" rx="27" ry="18"/>
<text text-anchor="middle" x="53" y="-473.3" font-family="Times,serif" font-size="14.00">p</text>
</g>
<!-- p&#45;&gt;q -->
<g id="edge2" class="edge"><title>p&#45;&gt;q</title>
<path fill="none" stroke="black" d="M55.4207,-459.055C56.5221,-451.346 57.8533,-442.027 59.0908,-433.364"/>
<polygon fill="black" stroke="black" points="62.5826,-433.67 60.5321,-423.275 55.653,-432.68 62.5826,-433.67"/>
</g>
<!-- r -->
<g id="node5" class="node"><title>r</title>
<ellipse fill="none" stroke="black" cx="63" cy="-333" rx="27" ry="18"/>
<text text-anchor="middle" x="63" y="-329.3" font-family="Times,serif" font-size="14.00">r</text>
</g>
<!-- q&#45;&gt;r -->
<g id="edge3" class="edge"><title>q&#45;&gt;r</title>
<path fill="none" stroke="black" d="M63,-386.697C63,-378.983 63,-369.712 63,-361.112"/>
<polygon fill="black" stroke="black" points="66.5001,-361.104 63,-351.104 59.5001,-361.104 66.5001,-361.104"/>
</g>
<!-- s -->
<g id="node6" class="node"><title>s</title>
<ellipse fill="none" stroke="black" cx="63" cy="-261" rx="27" ry="18"/>
<text text-anchor="middle" x="63" y="-257.3" font-family="Times,serif" font-size="14.00">s</text>
</g>
<!-- r&#45;&gt;s -->
<g id="edge4" class="edge"><title>r&#45;&gt;s</title>
<path fill="none" stroke="black" d="M63,-314.697C63,-306.983 63,-297.712 63,-289.112"/>
<polygon fill="black" stroke="black" points="66.5001,-289.104 63,-279.104 59.5001,-289.104 66.5001,-289.104"/>
</g>
<!-- t -->
<g id="node7" class="node"><title>t</title>
<ellipse fill="none" stroke="black" cx="63" cy="-189" rx="27" ry="18"/>
<text text-anchor="middle" x="63" y="-185.3" font-family="Times,serif" font-size="14.00">t</text>
</g>
<!-- s&#45;&gt;t -->
<g id="edge5" class="edge"><title>s&#45;&gt;t</title>
<path fill="none" stroke="black" d="M63,-242.697C63,-234.983 63,-225.712 63,-217.112"/>
<polygon fill="black" stroke="black" points="66.5001,-217.104 63,-207.104 59.5001,-217.104 66.5001,-217.104"/>
</g>
<!-- t&#45;&gt;a -->
<g id="edge7" class="edge"><title>t&#45;&gt;a</title>
<path fill="none" stroke="black" d="M63,-170.822C63,-160.19 63,-146.306 63,-134.204"/>
<polygon fill="black" stroke="black" points="66.5001,-134.153 63,-124.153 59.5001,-134.153 66.5001,-134.153"/>
</g>
<!-- t&#45;&gt;p -->
<g id="edge6" class="edge"><title>t&#45;&gt;p</title>
<path fill="none" stroke="black" d="M49.2496,-204.931C41.0392,-214.9 31.381,-228.753 27,-243 3.48603,-319.466 8.91482,-345.071 27,-423 29.2221,-432.575 33.4283,-442.414 37.8202,-450.976"/>
<polygon fill="black" stroke="black" points="34.8946,-452.921 42.7618,-460.017 41.0371,-449.564 34.8946,-452.921"/>
</g>
</g>
</svg>
