<?xml version="1.0" encoding="UTF-8" standalone="no"?>
<!DOCTYPE svg PUBLIC "-//W3C//DTD SVG 1.1//EN"
 "http://www.w3.org/Graphics/SVG/1.1/DTD/svg11.dtd">
<!-- Generated by graphviz version 2.38.0 (20140413.2041)
 -->
<!-- Title: G Pages: 1 -->
<svg width="501pt" height="191pt"
 viewBox="0.00 0.00 500.84 191.00" xmlns="http://www.w3.org/2000/svg" xmlns:xlink="http://www.w3.org/1999/xlink">
<g id="graph0" class="graph" transform="scale(1 1) rotate(0) translate(4 187)">
<title>G</title>
<g id="a_graph0"><a xlink:href="http://www.graphviz.org/doc/info/output.html" xlink:title="output">
<polygon fill="white" stroke="none" points="-4,4 -4,-187 496.841,-187 496.841,4 -4,4"/>
<text text-anchor="middle" x="246.42" y="-7.8" font-family="Times,serif" font-size="14.00">output</text>
</a>
</g>
<g id="clust1" class="cluster"><title>cluster0</title>
<g id="a_clust1"><a xlink:href="http://www.graphviz.org/doc/info/arrows.html" xlink:title="arrows">
<polygon fill="yellow" stroke="black" points="96.8406,-31 96.8406,-106 284.841,-106 284.841,-31 96.8406,-31"/>
<text text-anchor="middle" x="190.841" y="-90.8" font-family="Times,serif" font-size="14.00">arrows</text>
</a>
</g>
</g>
<!-- lang -->
<g id="node1" class="node"><title>lang</title>
<g id="a_node1"><a xlink:href="http://www.graphviz.org/doc/info/lang.html" xlink:title="lang">
<ellipse fill="none" stroke="black" cx="230.841" cy="-165" rx="27" ry="18"/>
<text text-anchor="middle" x="230.841" y="-161.3" font-family="Times,serif" font-size="14.00">lang</text>
</a>
</g>
</g>
<!-- colors -->
<g id="node2" class="node"><title>colors</title>
<g id="a_node2"><a xlink:href="http://www.graphviz.org/doc/info/output.html" xlink:title="&lt;TABLE&gt;">
<ellipse fill="lightblue" stroke="black" cx="43.8406" cy="-57" rx="43.6818" ry="25"/>
</a>
</g>
<g id="a_node2_0"><a xlink:href="http://www.graphviz.org/doc/info/colors.html" xlink:title="&lt;TABLE&gt;">
<polygon fill="green" stroke="none" points="23.8406,-46 23.8406,-67 63.8406,-67 63.8406,-46 23.8406,-46"/>
<polygon fill="none" stroke="black" points="23.8406,-46 23.8406,-67 63.8406,-67 63.8406,-46 23.8406,-46"/>
<text text-anchor="start" x="26.8406" y="-52.8" font-family="Times,serif" font-size="14.00">colors</text>
<polygon fill="none" stroke="black" points="20.8406,-43.5 20.8406,-70.5 66.8406,-70.5 66.8406,-43.5 20.8406,-43.5"/>
</a>
</g>
<g><a xlink:href="http://www.graphviz.org/doc/info/output.html" xlink:title="&lt;TABLE&gt;">
</a>
</g>
</g>
<!-- lang&#45;&gt;colors -->
<g id="edge2" class="edge"><title>lang&#45;&gt;colors</title>
<g id="a_edge2"><a xlink:href="lang->colors" xlink:title="self">
<path fill="none" stroke="black" d="M206.534,-156.879C177.845,-147.798 129.422,-130.307 92.8406,-106 84.6826,-100.579 76.7087,-93.6869 69.6427,-86.8281"/>
<polygon fill="black" stroke="black" points="71.8861,-84.1191 62.3658,-79.47 66.9089,-89.0413 71.8861,-84.1191"/>
</a>
</g>
</g>
<!-- command -->
<g id="node3" class="node"><title>command</title>
<g id="a_node3"><a xlink:href="http://www.graphviz.org/doc/info/command.html" xlink:title="command">
<ellipse fill="grey" stroke="black" cx="230.841" cy="-57" rx="46.2923" ry="18"/>
<text text-anchor="middle" x="230.841" y="-53.3" font-family="Times,serif" font-size="14.00">command</text>
</a>
</g>
</g>
<!-- lang&#45;&gt;command -->
<g id="edge1" class="edge"><title>lang&#45;&gt;command</title>
<g id="a_edge1"><a xlink:href="http://www.graphviz.org/doc/info/shapes.html">
<path fill="none" stroke="black" d="M230.841,-146.969C230.841,-130.378 230.841,-104.883 230.841,-85.4306"/>
<polygon fill="black" stroke="black" points="234.341,-85.3406 230.841,-75.3406 227.341,-85.3406 234.341,-85.3406"/>
</a>
</g>
</g>
<!-- size -->
<g id="node5" class="node"><title>size</title>
<ellipse fill="none" stroke="black" cx="321.841" cy="-57" rx="27" ry="18"/>
<text text-anchor="middle" x="321.841" y="-53.3" font-family="Times,serif" font-size="14.00">size</text>
</g>
<!-- lang&#45;&gt;size -->
<g id="edge3" class="edge"><title>lang&#45;&gt;size</title>
<g id="a_edge3"><a xlink:href="headurl" xlink:title="headurl">
<path fill="none" stroke="black" d="M246.399,-149.93C258.55,-138.601 275.545,-121.984 288.841,-106 294.949,-98.6566 301.042,-90.1978 306.3,-82.4463"/>
<polygon fill="black" stroke="black" points="309.23,-84.3613 311.837,-74.0923 303.395,-80.4938 309.23,-84.3613"/>
</a>
</g>
<g id="a_edge3&#45;headlabel"><a xlink:href="headsize" xlink:title="size">
<text text-anchor="middle" x="300.837" y="-77.8923" font-family="Times,serif" font-size="14.00">size</text>
</a>
</g>
</g>
<!-- name -->
<g id="node4" class="node"><title>name</title>
<g id="a_node4"><a xlink:href="G name" xlink:title="name">
<ellipse fill="none" stroke="black" cx="135.841" cy="-57" rx="30.5947" ry="18"/>
<text text-anchor="middle" x="135.841" y="-53.3" font-family="Times,serif" font-size="14.00">name</text>
</a>
</g>
</g>
<!-- word -->
<g id="node6" class="node"><title>word</title>
<ellipse fill="none" stroke="black" cx="372.841" cy="-165" rx="28.6953" ry="18"/>
<text text-anchor="middle" x="372.841" y="-161.3" font-family="Times,serif" font-size="14.00">word</text>
</g>
<!-- word&#45;&gt;size -->
<g id="edge4" class="edge"><title>word&#45;&gt;size</title>
<g id="a_edge4"><a xlink:href="tailurl">
<path fill="none" stroke="black" d="M364.872,-147.438C356.638,-130.324 343.678,-103.387 334.13,-83.5435"/>
<polygon fill="black" stroke="black" points="337.243,-81.94 329.753,-74.4462 330.935,-84.9749 337.243,-81.94"/>
</a>
</g>
<g id="a_edge4&#45;taillabel"><a xlink:href="tailsize" xlink:title="size">
<text text-anchor="middle" x="353.872" y="-136.238" font-family="Times,serif" font-size="14.00">size</text>
</a>
</g>
</g>
<!-- garf -->
<g id="node7" class="node"><title>garf</title>
<ellipse fill="none" stroke="black" cx="393.841" cy="-57" rx="27" ry="18"/>
<text text-anchor="middle" x="393.841" y="-53.3" font-family="Times,serif" font-size="14.00">garf</text>
</g>
<!-- word&#45;&gt;garf -->
<g id="edge5" class="edge"><title>word&#45;&gt;garf</title>
<g id="a_edge5"><a xlink:href="labelurl" xlink:title="garf">
<path fill="none" stroke="black" d="M376.215,-146.969C379.536,-130.202 384.66,-104.341 388.528,-84.8136"/>
<polygon fill="black" stroke="black" points="391.965,-85.478 390.475,-74.9885 385.098,-84.1176 391.965,-85.478"/>
</a>
</g>
<g id="a_edge5&#45;label"><a xlink:href="garf" xlink:title="garf">
<text text-anchor="middle" x="392.841" y="-117.8" font-family="Times,serif" font-size="14.00">garf</text>
</a>
</g>
</g>
<!-- line -->
<g id="node8" class="node"><title>line</title>
<ellipse fill="none" stroke="black" cx="465.841" cy="-165" rx="27" ry="18"/>
<text text-anchor="middle" x="465.841" y="-161.3" font-family="Times,serif" font-size="14.00">line</text>
</g>
<!-- all -->
<g id="node9" class="node"><title>all</title>
<ellipse fill="none" stroke="black" cx="465.841" cy="-57" rx="27" ry="18"/>
<text text-anchor="middle" x="465.841" y="-53.3" font-family="Times,serif" font-size="14.00">all</text>
</g>
<!-- line&#45;&gt;all -->
<g id="edge6" class="edge"><title>line&#45;&gt;all</title>
<g id="a_edge6"><a xlink:href="labelurl" xlink:title="edgetooltip">
<path fill="none" stroke="black" d="M465.841,-146.969C465.841,-130.378 465.841,-104.883 465.841,-85.4306"/>
<polygon fill="black" stroke="black" points="469.341,-85.3406 465.841,-75.3406 462.341,-85.3406 469.341,-85.3406"/>
</a>
</g>
<g id="a_edge6&#45;label"><a xlink:href="garf" xlink:title="garf">
<text text-anchor="middle" x="476.841" y="-117.8" font-family="Times,serif" font-size="14.00">garf</text>
</a>
</g>
<g id="a_edge6&#45;headlabel"><a xlink:href="headURL" xlink:title="headtooltip">
<text text-anchor="middle" x="439.841" y="-79.1406" font-family="Times,serif" font-size="14.00">headlabel</text>
</a>
</g>
<g id="a_edge6&#45;taillabel"><a xlink:href="tailURL" xlink:title="tailtooltip">
<text text-anchor="middle" x="443.841" y="-135.769" font-family="Times,serif" font-size="14.00">taillabel</text>
</a>
</g>
</g>
</g>
</svg>
