<?xml version="1.0" encoding="UTF-8" standalone="no"?>
<!DOCTYPE svg PUBLIC "-//W3C//DTD SVG 1.1//EN"
 "http://www.w3.org/Graphics/SVG/1.1/DTD/svg11.dtd">
<!-- Generated by graphviz version 2.38.0 (20140413.2041)
 -->
<!-- Title: utf8_03 Pages: 1 -->
<svg width="495pt" height="188pt"
 viewBox="0.00 0.00 495.14 188.00" xmlns="http://www.w3.org/2000/svg" xmlns:xlink="http://www.w3.org/1999/xlink">
<g id="graph0" class="graph" transform="scale(1 1) rotate(0) translate(4 184)">
<title>utf8_03</title>
<polygon fill="white" stroke="none" points="-4,4 -4,-184 491.137,-184 491.137,4 -4,4"/>
<!-- Reichwaldstraße -->
<g id="node1" class="node"><title>Reichwaldstraße</title>
<ellipse fill="none" stroke="black" cx="69.5438" cy="-162" rx="69.5877" ry="18"/>
<text text-anchor="middle" x="69.5438" y="-158.3" font-family="Times,serif" font-size="14.00">Reichwaldstraße</text>
</g>
<!-- Böhme -->
<g id="node2" class="node"><title>Böhme</title>
<ellipse fill="none" stroke="black" cx="69.5438" cy="-90" rx="36.2938" ry="18"/>
<text text-anchor="middle" x="69.5438" y="-86.3" font-family="Times,serif" font-size="14.00">Böhme</text>
</g>
<!-- Reichwaldstraße&#45;&#45;Böhme -->
<g id="edge1" class="edge"><title>Reichwaldstraße&#45;&#45;Böhme</title>
<path fill="none" stroke="blue" stroke-width="2" d="M69.5438,-143.697C69.5438,-132.846 69.5438,-118.917 69.5438,-108.104"/>
</g>
<!-- Three -->
<g id="node3" class="node"><title>Three</title>
<ellipse fill="none" stroke="black" cx="232.544" cy="-162" rx="75.2868" ry="18"/>
<text text-anchor="middle" x="232.544" y="-158.3" font-family="Times,serif" font-size="14.00">ʎ ʏ ʐ ʑ ʒ ʓ ʙ ʚ</text>
</g>
<!-- Four -->
<g id="node4" class="node"><title>Four</title>
<ellipse fill="none" stroke="black" cx="232.544" cy="-90" rx="87.9851" ry="18"/>
<text text-anchor="middle" x="232.544" y="-86.3" font-family="Times,serif" font-size="14.00">Πηληϊάδεω Ἀχιλῆος</text>
</g>
<!-- Three&#45;&#45;Four -->
<g id="edge2" class="edge"><title>Three&#45;&#45;Four</title>
<path fill="none" stroke="green" stroke-width="4" d="M232.544,-143.697C232.544,-132.846 232.544,-118.917 232.544,-108.104"/>
</g>
<!-- ΔΔΔΔΔΔΔΔΔΔΔΔΔ -->
<g id="node5" class="node"><title>ΔΔΔΔΔΔΔΔΔΔΔΔΔ</title>
<ellipse fill="none" stroke="black" cx="406.544" cy="-162" rx="80.6858" ry="18"/>
<text text-anchor="middle" x="406.544" y="-158.3" font-family="Times,serif" font-size="14.00">ΔΔΔΔΔΔΔΔΔΔΔΔΔ</text>
</g>
<!-- Snowman -->
<g id="node6" class="node"><title>Snowman</title>
<ellipse fill="none" stroke="black" cx="406.544" cy="-90" rx="61.99" ry="18"/>
<text text-anchor="middle" x="406.544" y="-86.3" font-family="Times,serif" font-size="14.00">Label has a ☃</text>
</g>
<!-- ΔΔΔΔΔΔΔΔΔΔΔΔΔ&#45;&#45;Snowman -->
<g id="edge3" class="edge"><title>ΔΔΔΔΔΔΔΔΔΔΔΔΔ&#45;&#45;Snowman</title>
<path fill="none" stroke="red" stroke-width="2" d="M400.628,-143.697C399.509,-132.846 399.516,-118.917 400.649,-108.104"/>
</g>
<!-- Snowman&#45;&#45;ΔΔΔΔΔΔΔΔΔΔΔΔΔ -->
<g id="edge6" class="edge"><title>Snowman&#45;&#45;ΔΔΔΔΔΔΔΔΔΔΔΔΔ</title>
<path fill="none" stroke="gold" stroke-width="2" d="M412.439,-108.104C413.572,-118.917 413.579,-132.846 412.46,-143.697"/>
</g>
<!-- Tick -->
<g id="node7" class="node"><title>Tick</title>
<ellipse fill="none" stroke="black" cx="406.544" cy="-18" rx="59.5901" ry="18"/>
<text text-anchor="middle" x="406.544" y="-14.3" font-family="Times,serif" font-size="14.00">Label has a ✔</text>
</g>
<!-- Snowman&#45;&#45;Tick -->
<g id="edge4" class="edge"><title>Snowman&#45;&#45;Tick</title>
<path fill="none" stroke="red" stroke-width="2" d="M400.666,-72.055C399.515,-61.2111 399.503,-47.183 400.631,-36.2753"/>
</g>
<!-- Tick&#45;&#45;Snowman -->
<g id="edge5" class="edge"><title>Tick&#45;&#45;Snowman</title>
<path fill="none" stroke="gold" stroke-width="2" d="M412.457,-36.2753C413.584,-47.183 413.573,-61.2111 412.422,-72.055"/>
</g>
</g>
</svg>
