<?xml version="1.0" encoding="UTF-8" standalone="no"?>
<!DOCTYPE svg PUBLIC "-//W3C//DTD SVG 1.1//EN"
 "http://www.w3.org/Graphics/SVG/1.1/DTD/svg11.dtd">
<!-- Generated by graphviz version 2.38.0 (20140413.2041)
 -->
<!-- Title: utf8_02 Pages: 1 -->
<svg width="1070pt" height="44pt"
 viewBox="0.00 0.00 1070.07 44.00" xmlns="http://www.w3.org/2000/svg" xmlns:xlink="http://www.w3.org/1999/xlink">
<g id="graph0" class="graph" transform="scale(1 1) rotate(0) translate(4 40)">
<title>utf8_02</title>
<polygon fill="white" stroke="none" points="-4,4 -4,-40 1066.07,-40 1066.07,4 -4,4"/>
<!-- Reichwaldstraße -->
<g id="node1" class="node"><title>Reichwaldstraße</title>
<polygon fill="none" stroke="black" points="150.322,-10.5442 150.322,-25.4558 106.36,-36 44.1878,-36 0.225623,-25.4558 0.225623,-10.5442 44.1878,-3.55271e-15 106.36,-0 150.322,-10.5442"/>
<text text-anchor="middle" x="75.2737" y="-14.3" font-family="Times,serif" font-size="14.00">Reichwaldstraße</text>
</g>
<!-- Böhme -->
<g id="node2" class="node"><title>Böhme</title>
<ellipse fill="none" stroke="black" cx="205.274" cy="-18" rx="36.2938" ry="18"/>
<text text-anchor="middle" x="205.274" y="-14.3" font-family="Times,serif" font-size="14.00">Böhme</text>
</g>
<!-- Three -->
<g id="node3" class="node"><title>Three</title>
<ellipse fill="none" stroke="black" cx="335.274" cy="-18" rx="75.2868" ry="18"/>
<text text-anchor="middle" x="335.274" y="-14.3" font-family="Times,serif" font-size="14.00">ʎ ʏ ʐ ʑ ʒ ʓ ʙ ʚ</text>
</g>
<!-- Four -->
<g id="node4" class="node"><title>Four</title>
<ellipse fill="none" stroke="black" cx="516.274" cy="-18" rx="87.9851" ry="18"/>
<text text-anchor="middle" x="516.274" y="-14.3" font-family="Times,serif" font-size="14.00">Πηληϊάδεω Ἀχιλῆος</text>
</g>
<!-- ΔΔΔΔΔΔΔΔΔΔΔΔΔ -->
<g id="node5" class="node"><title>ΔΔΔΔΔΔΔΔΔΔΔΔΔ</title>
<ellipse fill="none" stroke="black" cx="702.274" cy="-18" rx="80.6858" ry="18"/>
<text text-anchor="middle" x="702.274" y="-14.3" font-family="Times,serif" font-size="14.00">ΔΔΔΔΔΔΔΔΔΔΔΔΔ</text>
</g>
<!-- Snowman -->
<g id="node6" class="node"><title>Snowman</title>
<ellipse fill="none" stroke="black" cx="862.274" cy="-18" rx="61.99" ry="18"/>
<text text-anchor="middle" x="862.274" y="-14.3" font-family="Times,serif" font-size="14.00">Label has a ☃</text>
</g>
<!-- Tick -->
<g id="node7" class="node"><title>Tick</title>
<ellipse fill="none" stroke="black" cx="1002.27" cy="-18" rx="59.5901" ry="18"/>
<text text-anchor="middle" x="1002.27" y="-14.3" font-family="Times,serif" font-size="14.00">Label has a ✔</text>
</g>
</g>
</svg>
