<?xml version="1.0" encoding="UTF-8" standalone="no"?>
<!DOCTYPE svg PUBLIC "-//W3C//DTD SVG 1.1//EN"
 "http://www.w3.org/Graphics/SVG/1.1/DTD/svg11.dtd">
<!-- Generated by graphviz version 2.38.0 (20140413.2041)
 -->
<!-- Title: Viewfile Pages: 1 -->
<svg width="799pt" height="404pt"
 viewBox="0.00 0.00 799.36 404.00" xmlns="http://www.w3.org/2000/svg" xmlns:xlink="http://www.w3.org/1999/xlink">
<g id="graph0" class="graph" transform="scale(1 1) rotate(0) translate(4 400)">
<title>Viewfile</title>
<polygon fill="white" stroke="none" points="-4,4 -4,-400 795.362,-400 795.362,4 -4,4"/>
<!-- atoi -->
<g id="node1" class="node"><title>atoi</title>
<ellipse fill="green" stroke="green" cx="190.362" cy="-234" rx="27" ry="18"/>
<text text-anchor="middle" x="190.362" y="-230.3" font-family="Times,serif" font-size="14.00">atoi</text>
</g>
<!-- chkmalloc -->
<g id="node2" class="node"><title>chkmalloc</title>
<ellipse fill="green" stroke="green" cx="74.3616" cy="-162" rx="48.1917" ry="18"/>
<text text-anchor="middle" x="74.3616" y="-158.3" font-family="Times,serif" font-size="14.00">chkmalloc</text>
</g>
<!-- error -->
<g id="node4" class="node"><title>error</title>
<ellipse fill="blue" stroke="blue" cx="353.362" cy="-90" rx="27.8951" ry="18"/>
<text text-anchor="middle" x="353.362" y="-86.3" font-family="Times,serif" font-size="14.00">error</text>
</g>
<!-- chkmalloc&#45;&gt;error -->
<g id="edge24" class="edge"><title>chkmalloc&#45;&gt;error</title>
<path fill="none" stroke="blue" d="M113.155,-151.267C167.479,-137.637 265.43,-113.062 317.901,-99.897"/>
<polygon fill="blue" stroke="blue" points="318.914,-103.251 327.762,-97.4229 317.211,-96.4617 318.914,-103.251"/>
</g>
<!-- malloc -->
<g id="node19" class="node"><title>malloc</title>
<ellipse fill="green" stroke="green" cx="74.3616" cy="-90" rx="35.194" ry="18"/>
<text text-anchor="middle" x="74.3616" y="-86.3" font-family="Times,serif" font-size="14.00">malloc</text>
</g>
<!-- chkmalloc&#45;&gt;malloc -->
<g id="edge23" class="edge"><title>chkmalloc&#45;&gt;malloc</title>
<path fill="none" stroke="green" d="M74.3616,-143.697C74.3616,-135.983 74.3616,-126.712 74.3616,-118.112"/>
<polygon fill="green" stroke="green" points="77.8617,-118.104 74.3616,-108.104 70.8617,-118.104 77.8617,-118.104"/>
</g>
<!-- close -->
<g id="node3" class="node"><title>close</title>
<ellipse fill="green" stroke="green" cx="413.362" cy="-162" rx="28.6953" ry="18"/>
<text text-anchor="middle" x="413.362" y="-158.3" font-family="Times,serif" font-size="14.00">close</text>
</g>
<!-- error&#45;&gt;error -->
<g id="edge27" class="edge"><title>error&#45;&gt;error</title>
<path fill="none" stroke="blue" d="M373.676,-102.432C386.738,-105.675 399.309,-101.531 399.309,-90 399.309,-81.5317 392.529,-77.0474 383.754,-76.5471"/>
<polygon fill="blue" stroke="blue" points="383.272,-73.078 373.676,-77.5679 383.977,-80.0423 383.272,-73.078"/>
</g>
<!-- exit -->
<g id="node5" class="node"><title>exit</title>
<ellipse fill="blue" stroke="blue" cx="392.362" cy="-18" rx="27" ry="18"/>
<text text-anchor="middle" x="392.362" y="-14.3" font-family="Times,serif" font-size="14.00">exit</text>
</g>
<!-- error&#45;&gt;exit -->
<g id="edge25" class="edge"><title>error&#45;&gt;exit</title>
<path fill="none" stroke="blue" d="M362.407,-72.7646C367.182,-64.1948 373.144,-53.494 378.489,-43.9004"/>
<polygon fill="blue" stroke="blue" points="381.556,-45.5865 383.365,-35.1473 375.441,-42.1795 381.556,-45.5865"/>
</g>
<!-- fprintf -->
<g id="node9" class="node"><title>fprintf</title>
<ellipse fill="blue" stroke="blue" cx="314.362" cy="-18" rx="33.2948" ry="18"/>
<text text-anchor="middle" x="314.362" y="-14.3" font-family="Times,serif" font-size="14.00">fprintf</text>
</g>
<!-- error&#45;&gt;fprintf -->
<g id="edge26" class="edge"><title>error&#45;&gt;fprintf</title>
<path fill="none" stroke="blue" d="M344.316,-72.7646C339.658,-64.4043 333.87,-54.0159 328.628,-44.6059"/>
<polygon fill="blue" stroke="blue" points="331.553,-42.6656 323.629,-35.6334 325.438,-46.0726 331.553,-42.6656"/>
</g>
<!-- fclose -->
<g id="node6" class="node"><title>fclose</title>
<ellipse fill="green" stroke="green" cx="413.362" cy="-234" rx="31.6951" ry="18"/>
<text text-anchor="middle" x="413.362" y="-230.3" font-family="Times,serif" font-size="14.00">fclose</text>
</g>
<!-- fclose&#45;&gt;close -->
<g id="edge1" class="edge"><title>fclose&#45;&gt;close</title>
<path fill="none" stroke="green" d="M413.362,-215.697C413.362,-207.983 413.362,-198.712 413.362,-190.112"/>
<polygon fill="green" stroke="green" points="416.862,-190.104 413.362,-180.104 409.862,-190.104 416.862,-190.104"/>
</g>
<!-- fgets -->
<g id="node7" class="node"><title>fgets</title>
<ellipse fill="red" stroke="red" cx="693.362" cy="-90" rx="27.8951" ry="18"/>
<text text-anchor="middle" x="693.362" y="-86.3" font-family="Times,serif" font-size="14.00">fgets</text>
</g>
<!-- fstat -->
<g id="node12" class="node"><title>fstat</title>
<ellipse fill="green" stroke="green" cx="764.362" cy="-18" rx="27" ry="18"/>
<text text-anchor="middle" x="764.362" y="-14.3" font-family="Times,serif" font-size="14.00">fstat</text>
</g>
<!-- fgets&#45;&gt;fstat -->
<g id="edge2" class="edge"><title>fgets&#45;&gt;fstat</title>
<path fill="none" stroke="green" d="M708.073,-74.496C717.973,-64.7348 731.205,-51.6897 742.352,-40.6999"/>
<polygon fill="green" stroke="green" points="745.005,-42.9986 749.669,-33.4855 740.091,-38.0139 745.005,-42.9986"/>
</g>
<!-- read -->
<g id="node22" class="node"><title>read</title>
<ellipse fill="green" stroke="green" cx="692.362" cy="-18" rx="27" ry="18"/>
<text text-anchor="middle" x="692.362" y="-14.3" font-family="Times,serif" font-size="14.00">read</text>
</g>
<!-- fgets&#45;&gt;read -->
<g id="edge3" class="edge"><title>fgets&#45;&gt;read</title>
<path fill="none" stroke="green" d="M693.114,-71.6966C693.004,-63.9827 692.872,-54.7125 692.749,-46.1124"/>
<polygon fill="green" stroke="green" points="696.249,-46.0533 692.606,-36.1043 689.249,-46.1533 696.249,-46.0533"/>
</g>
<!-- fopen -->
<g id="node8" class="node"><title>fopen</title>
<ellipse fill="green" stroke="green" cx="493.362" cy="-234" rx="30.5947" ry="18"/>
<text text-anchor="middle" x="493.362" y="-230.3" font-family="Times,serif" font-size="14.00">fopen</text>
</g>
<!-- open -->
<g id="node20" class="node"><title>open</title>
<ellipse fill="green" stroke="green" cx="493.362" cy="-162" rx="27.8951" ry="18"/>
<text text-anchor="middle" x="493.362" y="-158.3" font-family="Times,serif" font-size="14.00">open</text>
</g>
<!-- fopen&#45;&gt;open -->
<g id="edge4" class="edge"><title>fopen&#45;&gt;open</title>
<path fill="none" stroke="green" d="M493.362,-215.697C493.362,-207.983 493.362,-198.712 493.362,-190.112"/>
<polygon fill="green" stroke="green" points="496.862,-190.104 493.362,-180.104 489.862,-190.104 496.862,-190.104"/>
</g>
<!-- free -->
<g id="node10" class="node"><title>free</title>
<ellipse fill="blue" stroke="blue" cx="748.362" cy="-306" rx="27" ry="18"/>
<text text-anchor="middle" x="748.362" y="-302.3" font-family="Times,serif" font-size="14.00">free</text>
</g>
<!-- free_list -->
<g id="node11" class="node"><title>free_list</title>
<ellipse fill="blue" stroke="blue" cx="748.362" cy="-378" rx="39.7935" ry="18"/>
<text text-anchor="middle" x="748.362" y="-374.3" font-family="Times,serif" font-size="14.00">free_list</text>
</g>
<!-- free_list&#45;&gt;free -->
<g id="edge18" class="edge"><title>free_list&#45;&gt;free</title>
<path fill="none" stroke="blue" d="M748.362,-359.697C748.362,-351.983 748.362,-342.712 748.362,-334.112"/>
<polygon fill="blue" stroke="blue" points="751.862,-334.104 748.362,-324.104 744.862,-334.104 751.862,-334.104"/>
</g>
<!-- getopt -->
<g id="node13" class="node"><title>getopt</title>
<ellipse fill="green" stroke="green" cx="291.362" cy="-306" rx="32.4942" ry="18"/>
<text text-anchor="middle" x="291.362" y="-302.3" font-family="Times,serif" font-size="14.00">getopt</text>
</g>
<!-- init_list -->
<g id="node14" class="node"><title>init_list</title>
<ellipse fill="green" stroke="green" cx="107.362" cy="-234" rx="37.8943" ry="18"/>
<text text-anchor="middle" x="107.362" y="-230.3" font-family="Times,serif" font-size="14.00">init_list</text>
</g>
<!-- init_list&#45;&gt;chkmalloc -->
<g id="edge19" class="edge"><title>init_list&#45;&gt;chkmalloc</title>
<path fill="none" stroke="green" d="M99.3732,-216.055C95.563,-207.973 90.9188,-198.121 86.6714,-189.112"/>
<polygon fill="green" stroke="green" points="89.7065,-187.342 82.2764,-179.789 83.3748,-190.327 89.7065,-187.342"/>
</g>
<!-- insert_list -->
<g id="node15" class="node"><title>insert_list</title>
<ellipse fill="green" stroke="green" cx="280.362" cy="-234" rx="45.4919" ry="18"/>
<text text-anchor="middle" x="280.362" y="-230.3" font-family="Times,serif" font-size="14.00">insert_list</text>
</g>
<!-- insert_list&#45;&gt;chkmalloc -->
<g id="edge20" class="edge"><title>insert_list&#45;&gt;chkmalloc</title>
<path fill="none" stroke="green" d="M246.806,-221.597C211.955,-209.755 157.25,-191.166 118.821,-178.108"/>
<polygon fill="green" stroke="green" points="119.529,-174.652 108.935,-174.748 117.277,-181.28 119.529,-174.652"/>
</g>
<!-- main -->
<g id="node16" class="node"><title>main</title>
<ellipse fill="green" stroke="green" cx="291.362" cy="-378" rx="28.6953" ry="18"/>
<text text-anchor="middle" x="291.362" y="-374.3" font-family="Times,serif" font-size="14.00">main</text>
</g>
<!-- main&#45;&gt;chkmalloc -->
<g id="edge10" class="edge"><title>main&#45;&gt;chkmalloc</title>
<path fill="none" stroke="green" d="M262.907,-376.155C197.19,-373.542 37.9754,-363.213 5.36159,-324 -10.094,-305.417 12.0501,-231.212 20.3616,-216 26.6602,-204.472 36.2777,-193.864 45.6602,-185.215"/>
<polygon fill="green" stroke="green" points="48.1884,-187.653 53.4082,-178.434 43.5781,-182.386 48.1884,-187.653"/>
</g>
<!-- main&#45;&gt;error -->
<g id="edge11" class="edge"><title>main&#45;&gt;error</title>
<path fill="none" stroke="blue" d="M306.539,-362.248C315.698,-352.351 326.664,-338.51 332.362,-324 359.926,-253.799 358.552,-162.85 355.717,-118.187"/>
<polygon fill="blue" stroke="blue" points="359.202,-117.847 355.002,-108.121 352.22,-118.344 359.202,-117.847"/>
</g>
<!-- main&#45;&gt;fgets -->
<g id="edge6" class="edge"><title>main&#45;&gt;fgets</title>
<path fill="none" stroke="blue" d="M320.04,-377.421C391.295,-376.709 576.252,-363.704 654.362,-252 682.766,-211.379 690.601,-152.481 692.689,-118.326"/>
<polygon fill="blue" stroke="blue" points="696.193,-118.319 693.184,-108.161 689.202,-117.979 696.193,-118.319"/>
</g>
<!-- main&#45;&gt;getopt -->
<g id="edge7" class="edge"><title>main&#45;&gt;getopt</title>
<path fill="none" stroke="green" d="M291.362,-359.697C291.362,-351.983 291.362,-342.712 291.362,-334.112"/>
<polygon fill="green" stroke="green" points="294.862,-334.104 291.362,-324.104 287.862,-334.104 294.862,-334.104"/>
</g>
<!-- makeargs -->
<g id="node17" class="node"><title>makeargs</title>
<ellipse fill="blue" stroke="blue" cx="59.3616" cy="-306" rx="44.6926" ry="18"/>
<text text-anchor="middle" x="59.3616" y="-302.3" font-family="Times,serif" font-size="14.00">makeargs</text>
</g>
<!-- main&#45;&gt;makeargs -->
<g id="edge8" class="edge"><title>main&#45;&gt;makeargs</title>
<path fill="none" stroke="blue" d="M266.092,-369.376C227.169,-357.632 152.013,-334.955 103.842,-320.421"/>
<polygon fill="blue" stroke="blue" points="104.58,-316.988 93.9954,-317.45 102.558,-323.689 104.58,-316.988"/>
</g>
<!-- makepairs -->
<g id="node18" class="node"><title>makepairs</title>
<ellipse fill="green" stroke="green" cx="190.362" cy="-306" rx="47.3916" ry="18"/>
<text text-anchor="middle" x="190.362" y="-302.3" font-family="Times,serif" font-size="14.00">makepairs</text>
</g>
<!-- main&#45;&gt;makepairs -->
<g id="edge9" class="edge"><title>main&#45;&gt;makepairs</title>
<path fill="none" stroke="green" d="M272.837,-364.161C258.288,-354.078 237.724,-339.826 220.771,-328.076"/>
<polygon fill="green" stroke="green" points="222.498,-325.014 212.285,-322.194 218.51,-330.767 222.498,-325.014"/>
</g>
<!-- viewlines -->
<g id="node25" class="node"><title>viewlines</title>
<ellipse fill="green" stroke="green" cx="493.362" cy="-306" rx="44.393" ry="18"/>
<text text-anchor="middle" x="493.362" y="-302.3" font-family="Times,serif" font-size="14.00">viewlines</text>
</g>
<!-- main&#45;&gt;viewlines -->
<g id="edge12" class="edge"><title>main&#45;&gt;viewlines</title>
<path fill="none" stroke="green" d="M315.728,-368.556C349.34,-356.909 410.422,-335.741 451.446,-321.525"/>
<polygon fill="green" stroke="green" points="452.599,-324.83 460.902,-318.249 450.307,-318.216 452.599,-324.83"/>
</g>
<!-- makeargs&#45;&gt;chkmalloc -->
<g id="edge13" class="edge"><title>makeargs&#45;&gt;chkmalloc</title>
<path fill="none" stroke="blue" d="M46.1297,-288.44C39.0524,-278.504 31.0524,-265.254 27.3616,-252 23.0693,-236.586 21.6843,-230.959 27.3616,-216 31.5713,-204.908 39.2824,-194.65 47.2582,-186.172"/>
<polygon fill="blue" stroke="blue" points="49.9369,-188.444 54.5645,-178.913 45.0034,-183.478 49.9369,-188.444"/>
</g>
<!-- makepairs&#45;&gt;atoi -->
<g id="edge14" class="edge"><title>makepairs&#45;&gt;atoi</title>
<path fill="none" stroke="green" d="M190.362,-287.697C190.362,-279.983 190.362,-270.712 190.362,-262.112"/>
<polygon fill="green" stroke="green" points="193.862,-262.104 190.362,-252.104 186.862,-262.104 193.862,-262.104"/>
</g>
<!-- makepairs&#45;&gt;chkmalloc -->
<g id="edge17" class="edge"><title>makepairs&#45;&gt;chkmalloc</title>
<path fill="none" stroke="green" d="M152.844,-294.768C118.403,-284.527 71.1375,-268.03 60.3616,-252 47.9521,-233.54 53.6501,-208.124 61.1673,-189.178"/>
<polygon fill="green" stroke="green" points="64.4098,-190.498 65.1778,-179.931 57.9878,-187.713 64.4098,-190.498"/>
</g>
<!-- makepairs&#45;&gt;init_list -->
<g id="edge15" class="edge"><title>makepairs&#45;&gt;init_list</title>
<path fill="none" stroke="green" d="M171.528,-289.116C160.15,-279.52 145.492,-267.159 133.06,-256.673"/>
<polygon fill="green" stroke="green" points="135.168,-253.873 125.268,-250.101 130.655,-259.224 135.168,-253.873"/>
</g>
<!-- makepairs&#45;&gt;insert_list -->
<g id="edge16" class="edge"><title>makepairs&#45;&gt;insert_list</title>
<path fill="none" stroke="green" d="M210.336,-289.465C222.772,-279.792 238.949,-267.21 252.62,-256.577"/>
<polygon fill="green" stroke="green" points="255.008,-259.153 260.753,-250.251 250.711,-253.628 255.008,-259.153"/>
</g>
<!-- printf -->
<g id="node21" class="node"><title>printf</title>
<ellipse fill="red" stroke="red" cx="617.362" cy="-90" rx="30.5947" ry="18"/>
<text text-anchor="middle" x="617.362" y="-86.3" font-family="Times,serif" font-size="14.00">printf</text>
</g>
<!-- write -->
<g id="node27" class="node"><title>write</title>
<ellipse fill="green" stroke="green" cx="617.362" cy="-18" rx="28.6953" ry="18"/>
<text text-anchor="middle" x="617.362" y="-14.3" font-family="Times,serif" font-size="14.00">write</text>
</g>
<!-- printf&#45;&gt;write -->
<g id="edge5" class="edge"><title>printf&#45;&gt;write</title>
<path fill="none" stroke="green" d="M617.362,-71.6966C617.362,-63.9827 617.362,-54.7125 617.362,-46.1124"/>
<polygon fill="green" stroke="green" points="620.862,-46.1043 617.362,-36.1043 613.862,-46.1044 620.862,-46.1043"/>
</g>
<!-- rewind -->
<g id="node23" class="node"><title>rewind</title>
<ellipse fill="green" stroke="green" cx="533.362" cy="-90" rx="35.194" ry="18"/>
<text text-anchor="middle" x="533.362" y="-86.3" font-family="Times,serif" font-size="14.00">rewind</text>
</g>
<!-- viewline -->
<g id="node24" class="node"><title>viewline</title>
<ellipse fill="green" stroke="green" cx="618.362" cy="-162" rx="40.8928" ry="18"/>
<text text-anchor="middle" x="618.362" y="-158.3" font-family="Times,serif" font-size="14.00">viewline</text>
</g>
<!-- viewline&#45;&gt;fgets -->
<g id="edge28" class="edge"><title>viewline&#45;&gt;fgets</title>
<path fill="none" stroke="red" d="M635.007,-145.465C645.456,-135.712 659.072,-123.004 670.524,-112.315"/>
<polygon fill="red" stroke="red" points="673.118,-114.682 678.04,-105.3 668.341,-109.565 673.118,-114.682"/>
</g>
<!-- viewline&#45;&gt;printf -->
<g id="edge29" class="edge"><title>viewline&#45;&gt;printf</title>
<path fill="none" stroke="red" d="M618.114,-143.697C618.004,-135.983 617.872,-126.712 617.749,-118.112"/>
<polygon fill="red" stroke="red" points="621.249,-118.053 617.606,-108.104 614.249,-118.153 621.249,-118.053"/>
</g>
<!-- viewline&#45;&gt;rewind -->
<g id="edge30" class="edge"><title>viewline&#45;&gt;rewind</title>
<path fill="none" stroke="green" d="M599.918,-145.811C587.949,-135.955 572.185,-122.973 559.004,-112.117"/>
<polygon fill="green" stroke="green" points="561.131,-109.335 551.187,-105.68 556.681,-114.738 561.131,-109.335"/>
</g>
<!-- viewlines&#45;&gt;fclose -->
<g id="edge31" class="edge"><title>viewlines&#45;&gt;fclose</title>
<path fill="none" stroke="green" d="M475.607,-289.465C464.43,-279.685 449.855,-266.931 437.618,-256.225"/>
<polygon fill="green" stroke="green" points="439.805,-253.487 429.974,-249.536 435.195,-258.755 439.805,-253.487"/>
</g>
<!-- viewlines&#45;&gt;fopen -->
<g id="edge32" class="edge"><title>viewlines&#45;&gt;fopen</title>
<path fill="none" stroke="green" d="M493.362,-287.697C493.362,-279.983 493.362,-270.712 493.362,-262.112"/>
<polygon fill="green" stroke="green" points="496.862,-262.104 493.362,-252.104 489.862,-262.104 496.862,-262.104"/>
</g>
<!-- viewlines&#45;&gt;viewline -->
<g id="edge34" class="edge"><title>viewlines&#45;&gt;viewline</title>
<path fill="none" stroke="blue" d="M536.629,-301.784C569.981,-296.767 614.056,-284.056 636.362,-252 649.302,-233.403 642.04,-207.637 633.18,-188.612"/>
<polygon fill="blue" stroke="blue" points="636.27,-186.966 628.643,-179.613 630.02,-190.118 636.27,-186.966"/>
</g>
<!-- walk_list -->
<g id="node26" class="node"><title>walk_list</title>
<ellipse fill="green" stroke="green" cx="584.362" cy="-234" rx="42.7926" ry="18"/>
<text text-anchor="middle" x="584.362" y="-230.3" font-family="Times,serif" font-size="14.00">walk_list</text>
</g>
<!-- viewlines&#45;&gt;walk_list -->
<g id="edge33" class="edge"><title>viewlines&#45;&gt;walk_list</title>
<path fill="none" stroke="green" d="M513.107,-289.811C525.748,-280.088 542.342,-267.323 556.336,-256.558"/>
<polygon fill="green" stroke="green" points="558.862,-259.031 564.654,-250.159 554.594,-253.482 558.862,-259.031"/>
</g>
<!-- walk_list&#45;&gt;error -->
<g id="edge21" class="edge"><title>walk_list&#45;&gt;error</title>
<path fill="none" stroke="blue" d="M578.403,-215.979C570.505,-195.874 554.668,-162.793 530.362,-144 489.421,-112.345 429.786,-99.5388 391.278,-94.3963"/>
<polygon fill="blue" stroke="blue" points="391.362,-90.8805 381.011,-93.1398 390.511,-97.8287 391.362,-90.8805"/>
</g>
<!-- walk_list&#45;&gt;viewline -->
<g id="edge22" class="edge"><title>walk_list&#45;&gt;viewline</title>
<path fill="none" stroke="green" d="M592.592,-216.055C596.56,-207.887 601.405,-197.912 605.818,-188.824"/>
<polygon fill="green" stroke="green" points="608.986,-190.313 610.207,-179.789 602.69,-187.255 608.986,-190.313"/>
</g>
</g>
</svg>
