<?xml version="1.0" encoding="UTF-8" standalone="no"?>
<!DOCTYPE svg PUBLIC "-//W3C//DTD SVG 1.1//EN"
 "http://www.w3.org/Graphics/SVG/1.1/DTD/svg11.dtd">
<!-- Generated by graphviz version 2.38.0 (20140413.2041)
 -->
<!-- Title: unix Pages: 1 -->
<svg width="1085pt" height="836pt"
 viewBox="0.00 0.00 1085.29 836.00" xmlns="http://www.w3.org/2000/svg" xmlns:xlink="http://www.w3.org/1999/xlink">
<g id="graph0" class="graph" transform="scale(1 1) rotate(0) translate(4 832)">
<title>unix</title>
<polygon fill="white" stroke="none" points="-4,4 -4,-832 1081.29,-832 1081.29,4 -4,4"/>
<!-- 5th Edition -->
<g id="node1" class="node"><title>5th Edition</title>
<ellipse fill="#b2dfee" stroke="#b2dfee" cx="756.897" cy="-810" rx="50.0912" ry="18"/>
<text text-anchor="middle" x="756.897" y="-806.3" font-family="Times,serif" font-size="14.00">5th Edition</text>
</g>
<!-- 6th Edition -->
<g id="node2" class="node"><title>6th Edition</title>
<ellipse fill="#b2dfee" stroke="#b2dfee" cx="601.897" cy="-738" rx="50.0912" ry="18"/>
<text text-anchor="middle" x="601.897" y="-734.3" font-family="Times,serif" font-size="14.00">6th Edition</text>
</g>
<!-- 5th Edition&#45;&gt;6th Edition -->
<g id="edge1" class="edge"><title>5th Edition&#45;&gt;6th Edition</title>
<path fill="none" stroke="black" d="M727.012,-795.503C702.645,-784.499 668.026,-768.865 641.378,-756.83"/>
<polygon fill="black" stroke="black" points="642.509,-753.501 631.955,-752.575 639.628,-759.88 642.509,-753.501"/>
</g>
<!-- PWB 1.0 -->
<g id="node3" class="node"><title>PWB 1.0</title>
<ellipse fill="#b2dfee" stroke="#b2dfee" cx="852.897" cy="-738" rx="44.393" ry="18"/>
<text text-anchor="middle" x="852.897" y="-734.3" font-family="Times,serif" font-size="14.00">PWB 1.0</text>
</g>
<!-- 5th Edition&#45;&gt;PWB 1.0 -->
<g id="edge2" class="edge"><title>5th Edition&#45;&gt;PWB 1.0</title>
<path fill="none" stroke="black" d="M778.203,-793.465C791.686,-783.633 809.29,-770.797 824.022,-760.055"/>
<polygon fill="black" stroke="black" points="826.292,-762.731 832.31,-754.011 822.168,-757.075 826.292,-762.731"/>
</g>
<!-- LSX -->
<g id="node4" class="node"><title>LSX</title>
<ellipse fill="#b2dfee" stroke="#b2dfee" cx="763.897" cy="-666" rx="27.0966" ry="18"/>
<text text-anchor="middle" x="763.897" y="-662.3" font-family="Times,serif" font-size="14.00">LSX</text>
</g>
<!-- 6th Edition&#45;&gt;LSX -->
<g id="edge3" class="edge"><title>6th Edition&#45;&gt;LSX</title>
<path fill="none" stroke="black" d="M633.345,-723.97C658.69,-713.396 695.2,-697.998 726.897,-684 728.74,-683.186 730.632,-682.343 732.537,-681.487"/>
<polygon fill="black" stroke="black" points="734.374,-684.496 742.033,-677.176 731.481,-678.122 734.374,-684.496"/>
</g>
<!-- 1 BSD -->
<g id="node5" class="node"><title>1 BSD</title>
<ellipse fill="#b2dfee" stroke="#b2dfee" cx="214.897" cy="-666" rx="34.394" ry="18"/>
<text text-anchor="middle" x="214.897" y="-662.3" font-family="Times,serif" font-size="14.00">1 BSD</text>
</g>
<!-- 6th Edition&#45;&gt;1 BSD -->
<g id="edge4" class="edge"><title>6th Edition&#45;&gt;1 BSD</title>
<path fill="none" stroke="black" d="M558.256,-729.106C483.209,-715.532 330.674,-687.941 256.825,-674.584"/>
<polygon fill="black" stroke="black" points="257.407,-671.132 246.943,-672.796 256.161,-678.021 257.407,-671.132"/>
</g>
<!-- Mini Unix -->
<g id="node6" class="node"><title>Mini Unix</title>
<ellipse fill="#b2dfee" stroke="#b2dfee" cx="541.897" cy="-666" rx="48.1917" ry="18"/>
<text text-anchor="middle" x="541.897" y="-662.3" font-family="Times,serif" font-size="14.00">Mini Unix</text>
</g>
<!-- 6th Edition&#45;&gt;Mini Unix -->
<g id="edge5" class="edge"><title>6th Edition&#45;&gt;Mini Unix</title>
<path fill="none" stroke="black" d="M587.678,-720.411C580.206,-711.693 570.908,-700.845 562.647,-691.208"/>
<polygon fill="black" stroke="black" points="565.18,-688.785 556.014,-683.47 559.865,-693.34 565.18,-688.785"/>
</g>
<!-- Wollongong -->
<g id="node7" class="node"><title>Wollongong</title>
<ellipse fill="#b2dfee" stroke="#b2dfee" cx="662.897" cy="-666" rx="55.4913" ry="18"/>
<text text-anchor="middle" x="662.897" y="-662.3" font-family="Times,serif" font-size="14.00">Wollongong</text>
</g>
<!-- 6th Edition&#45;&gt;Wollongong -->
<g id="edge6" class="edge"><title>6th Edition&#45;&gt;Wollongong</title>
<path fill="none" stroke="black" d="M616.353,-720.411C623.95,-711.693 633.403,-700.845 641.802,-691.208"/>
<polygon fill="black" stroke="black" points="644.614,-693.309 648.545,-683.47 639.336,-688.71 644.614,-693.309"/>
</g>
<!-- Interdata -->
<g id="node8" class="node"><title>Interdata</title>
<ellipse fill="#b2dfee" stroke="#b2dfee" cx="433.897" cy="-666" rx="42.4939" ry="18"/>
<text text-anchor="middle" x="433.897" y="-662.3" font-family="Times,serif" font-size="14.00">Interdata</text>
</g>
<!-- 6th Edition&#45;&gt;Interdata -->
<g id="edge7" class="edge"><title>6th Edition&#45;&gt;Interdata</title>
<path fill="none" stroke="black" d="M570.298,-723.834C542.629,-712.305 502.332,-695.515 472.71,-683.172"/>
<polygon fill="black" stroke="black" points="473.684,-679.786 463.107,-679.171 470.991,-686.248 473.684,-679.786"/>
</g>
<!-- PWB 1.2 -->
<g id="node33" class="node"><title>PWB 1.2</title>
<ellipse fill="#b2dfee" stroke="#b2dfee" cx="852.897" cy="-666" rx="44.393" ry="18"/>
<text text-anchor="middle" x="852.897" y="-662.3" font-family="Times,serif" font-size="14.00">PWB 1.2</text>
</g>
<!-- PWB 1.0&#45;&gt;PWB 1.2 -->
<g id="edge36" class="edge"><title>PWB 1.0&#45;&gt;PWB 1.2</title>
<path fill="none" stroke="black" d="M852.897,-719.697C852.897,-711.983 852.897,-702.712 852.897,-694.112"/>
<polygon fill="black" stroke="black" points="856.397,-694.104 852.897,-684.104 849.397,-694.104 856.397,-694.104"/>
</g>
<!-- USG 1.0 -->
<g id="node34" class="node"><title>USG 1.0</title>
<ellipse fill="#b2dfee" stroke="#b2dfee" cx="956.897" cy="-666" rx="42.4939" ry="18"/>
<text text-anchor="middle" x="956.897" y="-662.3" font-family="Times,serif" font-size="14.00">USG 1.0</text>
</g>
<!-- PWB 1.0&#45;&gt;USG 1.0 -->
<g id="edge37" class="edge"><title>PWB 1.0&#45;&gt;USG 1.0</title>
<path fill="none" stroke="black" d="M874.699,-722.326C889.814,-712.152 910.138,-698.472 926.795,-687.261"/>
<polygon fill="black" stroke="black" points="928.783,-690.142 935.124,-681.655 924.874,-684.335 928.783,-690.142"/>
</g>
<!-- 2 BSD -->
<g id="node20" class="node"><title>2 BSD</title>
<ellipse fill="#b2dfee" stroke="#b2dfee" cx="89.8973" cy="-306" rx="34.394" ry="18"/>
<text text-anchor="middle" x="89.8973" y="-302.3" font-family="Times,serif" font-size="14.00">2 BSD</text>
</g>
<!-- 1 BSD&#45;&gt;2 BSD -->
<g id="edge20" class="edge"><title>1 BSD&#45;&gt;2 BSD</title>
<path fill="none" stroke="black" d="M193.643,-651.741C160.91,-629.488 101.897,-581.286 101.897,-523 101.897,-523 101.897,-523 101.897,-449 101.897,-408.853 97.0759,-362.548 93.5453,-334.022"/>
<polygon fill="black" stroke="black" points="97.0055,-333.487 92.2682,-324.01 90.0617,-334.373 97.0055,-333.487"/>
</g>
<!-- Unix/TS 3.0 -->
<g id="node9" class="node"><title>Unix/TS 3.0</title>
<ellipse fill="#b2dfee" stroke="#b2dfee" cx="719.897" cy="-450" rx="54.6905" ry="18"/>
<text text-anchor="middle" x="719.897" y="-446.3" font-family="Times,serif" font-size="14.00">Unix/TS 3.0</text>
</g>
<!-- Interdata&#45;&gt;Unix/TS 3.0 -->
<g id="edge8" class="edge"><title>Interdata&#45;&gt;Unix/TS 3.0</title>
<path fill="none" stroke="black" d="M455.373,-650.405C470.695,-639.9 491.72,-625.295 509.897,-612 576.016,-563.637 651.913,-504.535 691.886,-473.118"/>
<polygon fill="black" stroke="black" points="694.16,-475.783 699.855,-466.849 689.831,-470.282 694.16,-475.783"/>
</g>
<!-- PWB 2.0 -->
<g id="node10" class="node"><title>PWB 2.0</title>
<ellipse fill="#b2dfee" stroke="#b2dfee" cx="649.897" cy="-594" rx="44.393" ry="18"/>
<text text-anchor="middle" x="649.897" y="-590.3" font-family="Times,serif" font-size="14.00">PWB 2.0</text>
</g>
<!-- Interdata&#45;&gt;PWB 2.0 -->
<g id="edge9" class="edge"><title>Interdata&#45;&gt;PWB 2.0</title>
<path fill="none" stroke="black" d="M465.982,-654.246C472.251,-652.161 478.777,-650.003 484.897,-648 525.971,-634.558 572.899,-619.515 606.181,-608.899"/>
<polygon fill="black" stroke="black" points="607.585,-612.125 616.049,-605.753 605.459,-605.455 607.585,-612.125"/>
</g>
<!-- 7th Edition -->
<g id="node11" class="node"><title>7th Edition</title>
<ellipse fill="#b2dfee" stroke="#b2dfee" cx="450.897" cy="-594" rx="50.0912" ry="18"/>
<text text-anchor="middle" x="450.897" y="-590.3" font-family="Times,serif" font-size="14.00">7th Edition</text>
</g>
<!-- Interdata&#45;&gt;7th Edition -->
<g id="edge10" class="edge"><title>Interdata&#45;&gt;7th Edition</title>
<path fill="none" stroke="black" d="M438.013,-648.055C439.905,-640.261 442.198,-630.822 444.321,-622.079"/>
<polygon fill="black" stroke="black" points="447.743,-622.819 446.702,-612.275 440.941,-621.167 447.743,-622.819"/>
</g>
<!-- TS 4.0 -->
<g id="node43" class="node"><title>TS 4.0</title>
<ellipse fill="#b2dfee" stroke="#b2dfee" cx="802.897" cy="-306" rx="34.394" ry="18"/>
<text text-anchor="middle" x="802.897" y="-302.3" font-family="Times,serif" font-size="14.00">TS 4.0</text>
</g>
<!-- Unix/TS 3.0&#45;&gt;TS 4.0 -->
<g id="edge49" class="edge"><title>Unix/TS 3.0&#45;&gt;TS 4.0</title>
<path fill="none" stroke="black" d="M729.744,-432.153C744.236,-407.36 771.406,-360.877 788.244,-332.069"/>
<polygon fill="black" stroke="black" points="791.295,-333.786 793.319,-323.387 785.251,-330.254 791.295,-333.786"/>
</g>
<!-- PWB 2.0&#45;&gt;Unix/TS 3.0 -->
<g id="edge47" class="edge"><title>PWB 2.0&#45;&gt;Unix/TS 3.0</title>
<path fill="none" stroke="black" d="M650.757,-575.985C652.311,-557.341 656.669,-527.023 668.897,-504 674.781,-492.922 683.658,-482.543 692.365,-473.957"/>
<polygon fill="black" stroke="black" points="694.991,-476.293 699.893,-466.9 690.204,-471.185 694.991,-476.293"/>
</g>
<!-- 8th Edition -->
<g id="node12" class="node"><title>8th Edition</title>
<ellipse fill="#b2dfee" stroke="#b2dfee" cx="450.897" cy="-234" rx="50.0912" ry="18"/>
<text text-anchor="middle" x="450.897" y="-230.3" font-family="Times,serif" font-size="14.00">8th Edition</text>
</g>
<!-- 7th Edition&#45;&gt;8th Edition -->
<g id="edge11" class="edge"><title>7th Edition&#45;&gt;8th Edition</title>
<path fill="none" stroke="black" d="M450.897,-575.951C450.897,-549.292 450.897,-496.115 450.897,-451 450.897,-451 450.897,-451 450.897,-377 450.897,-336.996 450.897,-290.653 450.897,-262.08"/>
<polygon fill="black" stroke="black" points="454.397,-262.049 450.897,-252.049 447.397,-262.049 454.397,-262.049"/>
</g>
<!-- 32V -->
<g id="node13" class="node"><title>32V</title>
<ellipse fill="#b2dfee" stroke="#b2dfee" cx="395.897" cy="-522" rx="27" ry="18"/>
<text text-anchor="middle" x="395.897" y="-518.3" font-family="Times,serif" font-size="14.00">32V</text>
</g>
<!-- 7th Edition&#45;&gt;32V -->
<g id="edge12" class="edge"><title>7th Edition&#45;&gt;32V</title>
<path fill="none" stroke="black" d="M437.863,-576.411C430.885,-567.53 422.171,-556.439 414.494,-546.668"/>
<polygon fill="black" stroke="black" points="417.015,-544.212 408.084,-538.511 411.511,-548.536 417.015,-544.212"/>
</g>
<!-- V7M -->
<g id="node14" class="node"><title>V7M</title>
<ellipse fill="#b2dfee" stroke="#b2dfee" cx="29.8973" cy="-450" rx="29.795" ry="18"/>
<text text-anchor="middle" x="29.8973" y="-446.3" font-family="Times,serif" font-size="14.00">V7M</text>
</g>
<!-- 7th Edition&#45;&gt;V7M -->
<g id="edge13" class="edge"><title>7th Edition&#45;&gt;V7M</title>
<path fill="none" stroke="black" d="M400.876,-592.392C337.075,-589.893 224.624,-579.617 137.897,-540 103.408,-524.245 70.8328,-494.624 50.6553,-473.897"/>
<polygon fill="black" stroke="black" points="52.9817,-471.265 43.551,-466.437 47.9124,-476.092 52.9817,-471.265"/>
</g>
<!-- Ultrix&#45;11 -->
<g id="node15" class="node"><title>Ultrix&#45;11</title>
<ellipse fill="#b2dfee" stroke="#b2dfee" cx="118.897" cy="-162" rx="43.5923" ry="18"/>
<text text-anchor="middle" x="118.897" y="-158.3" font-family="Times,serif" font-size="14.00">Ultrix&#45;11</text>
</g>
<!-- 7th Edition&#45;&gt;Ultrix&#45;11 -->
<g id="edge14" class="edge"><title>7th Edition&#45;&gt;Ultrix&#45;11</title>
<path fill="none" stroke="black" d="M402.014,-590.14C330.684,-584.94 203.056,-571.42 170.897,-540 141.966,-511.734 151.897,-491.447 151.897,-451 151.897,-451 151.897,-451 151.897,-305 151.897,-263.974 138.667,-217.972 128.961,-189.743"/>
<polygon fill="black" stroke="black" points="132.215,-188.446 125.575,-180.189 125.617,-190.784 132.215,-188.446"/>
</g>
<!-- Xenix -->
<g id="node16" class="node"><title>Xenix</title>
<ellipse fill="#b2dfee" stroke="#b2dfee" cx="211.897" cy="-522" rx="32.4942" ry="18"/>
<text text-anchor="middle" x="211.897" y="-518.3" font-family="Times,serif" font-size="14.00">Xenix</text>
</g>
<!-- 7th Edition&#45;&gt;Xenix -->
<g id="edge15" class="edge"><title>7th Edition&#45;&gt;Xenix</title>
<path fill="none" stroke="black" d="M410.097,-583.563C369.954,-573.918 307.118,-557.856 253.897,-540 251.483,-539.19 249.007,-538.313 246.525,-537.399"/>
<polygon fill="black" stroke="black" points="247.62,-534.07 237.03,-533.752 245.11,-540.605 247.62,-534.07"/>
</g>
<!-- UniPlus+ -->
<g id="node17" class="node"><title>UniPlus+</title>
<ellipse fill="#b2dfee" stroke="#b2dfee" cx="306.897" cy="-522" rx="44.393" ry="18"/>
<text text-anchor="middle" x="306.897" y="-518.3" font-family="Times,serif" font-size="14.00">UniPlus+</text>
</g>
<!-- 7th Edition&#45;&gt;UniPlus+ -->
<g id="edge16" class="edge"><title>7th Edition&#45;&gt;UniPlus+</title>
<path fill="none" stroke="black" d="M422.448,-579.17C399.771,-568.147 367.864,-552.636 343.322,-540.706"/>
<polygon fill="black" stroke="black" points="344.835,-537.55 334.311,-536.326 341.774,-543.846 344.835,-537.55"/>
</g>
<!-- 9th Edition -->
<g id="node18" class="node"><title>9th Edition</title>
<ellipse fill="#b2dfee" stroke="#b2dfee" cx="538.897" cy="-162" rx="50.0912" ry="18"/>
<text text-anchor="middle" x="538.897" y="-158.3" font-family="Times,serif" font-size="14.00">9th Edition</text>
</g>
<!-- 8th Edition&#45;&gt;9th Edition -->
<g id="edge18" class="edge"><title>8th Edition&#45;&gt;9th Edition</title>
<path fill="none" stroke="black" d="M470.866,-217.116C482.876,-207.562 498.333,-195.267 511.477,-184.812"/>
<polygon fill="black" stroke="black" points="513.664,-187.544 519.311,-178.58 509.306,-182.066 513.664,-187.544"/>
</g>
<!-- 3 BSD -->
<g id="node23" class="node"><title>3 BSD</title>
<ellipse fill="#b2dfee" stroke="#b2dfee" cx="382.897" cy="-450" rx="34.394" ry="18"/>
<text text-anchor="middle" x="382.897" y="-446.3" font-family="Times,serif" font-size="14.00">3 BSD</text>
</g>
<!-- 32V&#45;&gt;3 BSD -->
<g id="edge24" class="edge"><title>32V&#45;&gt;3 BSD</title>
<path fill="none" stroke="black" d="M392.75,-504.055C391.319,-496.346 389.588,-487.027 387.979,-478.364"/>
<polygon fill="black" stroke="black" points="391.373,-477.468 386.106,-468.275 384.49,-478.746 391.373,-477.468"/>
</g>
<!-- V7M&#45;&gt;Ultrix&#45;11 -->
<g id="edge17" class="edge"><title>V7M&#45;&gt;Ultrix&#45;11</title>
<path fill="none" stroke="black" d="M29.4051,-431.594C29.0616,-401.528 30.582,-338.259 46.8973,-288 59.0872,-250.45 83.5661,-211.746 100.577,-187.549"/>
<polygon fill="black" stroke="black" points="103.493,-189.487 106.47,-179.319 97.8021,-185.412 103.493,-189.487"/>
</g>
<!-- 10th Edition -->
<g id="node19" class="node"><title>10th Edition</title>
<ellipse fill="#b2dfee" stroke="#b2dfee" cx="540.897" cy="-90" rx="54.6905" ry="18"/>
<text text-anchor="middle" x="540.897" y="-86.3" font-family="Times,serif" font-size="14.00">10th Edition</text>
</g>
<!-- 9th Edition&#45;&gt;10th Edition -->
<g id="edge19" class="edge"><title>9th Edition&#45;&gt;10th Edition</title>
<path fill="none" stroke="black" d="M539.392,-143.697C539.612,-135.983 539.877,-126.712 540.123,-118.112"/>
<polygon fill="black" stroke="black" points="543.622,-118.2 540.409,-108.104 536.624,-118 543.622,-118.2"/>
</g>
<!-- 2.8 BSD -->
<g id="node21" class="node"><title>2.8 BSD</title>
<ellipse fill="#b2dfee" stroke="#b2dfee" cx="221.897" cy="-234" rx="41.6928" ry="18"/>
<text text-anchor="middle" x="221.897" y="-230.3" font-family="Times,serif" font-size="14.00">2.8 BSD</text>
</g>
<!-- 2 BSD&#45;&gt;2.8 BSD -->
<g id="edge21" class="edge"><title>2 BSD&#45;&gt;2.8 BSD</title>
<path fill="none" stroke="black" d="M113.192,-292.647C133.84,-281.697 164.259,-265.566 187.672,-253.15"/>
<polygon fill="black" stroke="black" points="189.391,-256.2 196.586,-248.423 186.111,-250.016 189.391,-256.2"/>
</g>
<!-- 2.8 BSD&#45;&gt;Ultrix&#45;11 -->
<g id="edge22" class="edge"><title>2.8 BSD&#45;&gt;Ultrix&#45;11</title>
<path fill="none" stroke="black" d="M200.556,-218.496C185.603,-208.334 165.412,-194.612 148.85,-183.356"/>
<polygon fill="black" stroke="black" points="150.804,-180.452 140.566,-177.726 146.869,-186.242 150.804,-180.452"/>
</g>
<!-- 2.9 BSD -->
<g id="node22" class="node"><title>2.9 BSD</title>
<ellipse fill="#b2dfee" stroke="#b2dfee" cx="221.897" cy="-162" rx="41.6928" ry="18"/>
<text text-anchor="middle" x="221.897" y="-158.3" font-family="Times,serif" font-size="14.00">2.9 BSD</text>
</g>
<!-- 2.8 BSD&#45;&gt;2.9 BSD -->
<g id="edge23" class="edge"><title>2.8 BSD&#45;&gt;2.9 BSD</title>
<path fill="none" stroke="black" d="M221.897,-215.697C221.897,-207.983 221.897,-198.712 221.897,-190.112"/>
<polygon fill="black" stroke="black" points="225.397,-190.104 221.897,-180.104 218.397,-190.104 225.397,-190.104"/>
</g>
<!-- 4 BSD -->
<g id="node24" class="node"><title>4 BSD</title>
<ellipse fill="#b2dfee" stroke="#b2dfee" cx="358.897" cy="-378" rx="34.394" ry="18"/>
<text text-anchor="middle" x="358.897" y="-374.3" font-family="Times,serif" font-size="14.00">4 BSD</text>
</g>
<!-- 3 BSD&#45;&gt;4 BSD -->
<g id="edge25" class="edge"><title>3 BSD&#45;&gt;4 BSD</title>
<path fill="none" stroke="black" d="M377.088,-432.055C374.346,-424.059 371.011,-414.331 367.949,-405.4"/>
<polygon fill="black" stroke="black" points="371.208,-404.113 364.654,-395.789 364.586,-406.384 371.208,-404.113"/>
</g>
<!-- 4.1 BSD -->
<g id="node25" class="node"><title>4.1 BSD</title>
<ellipse fill="#b2dfee" stroke="#b2dfee" cx="346.897" cy="-306" rx="41.6928" ry="18"/>
<text text-anchor="middle" x="346.897" y="-302.3" font-family="Times,serif" font-size="14.00">4.1 BSD</text>
</g>
<!-- 4 BSD&#45;&gt;4.1 BSD -->
<g id="edge26" class="edge"><title>4 BSD&#45;&gt;4.1 BSD</title>
<path fill="none" stroke="black" d="M355.992,-360.055C354.671,-352.346 353.073,-343.027 351.588,-334.364"/>
<polygon fill="black" stroke="black" points="354.998,-333.54 349.859,-324.275 348.099,-334.723 354.998,-333.54"/>
</g>
<!-- 4.1 BSD&#45;&gt;8th Edition -->
<g id="edge29" class="edge"><title>4.1 BSD&#45;&gt;8th Edition</title>
<path fill="none" stroke="black" d="M368.446,-290.496C383.342,-280.47 403.384,-266.98 419.979,-255.811"/>
<polygon fill="black" stroke="black" points="421.955,-258.699 428.297,-250.212 418.047,-252.892 421.955,-258.699"/>
</g>
<!-- 4.1 BSD&#45;&gt;2.8 BSD -->
<g id="edge28" class="edge"><title>4.1 BSD&#45;&gt;2.8 BSD</title>
<path fill="none" stroke="black" d="M322.499,-291.337C303.313,-280.593 276.381,-265.511 255.21,-253.655"/>
<polygon fill="black" stroke="black" points="256.669,-250.461 246.234,-248.628 253.249,-256.568 256.669,-250.461"/>
</g>
<!-- 4.2 BSD -->
<g id="node26" class="node"><title>4.2 BSD</title>
<ellipse fill="#b2dfee" stroke="#b2dfee" cx="340.897" cy="-234" rx="41.6928" ry="18"/>
<text text-anchor="middle" x="340.897" y="-230.3" font-family="Times,serif" font-size="14.00">4.2 BSD</text>
</g>
<!-- 4.1 BSD&#45;&gt;4.2 BSD -->
<g id="edge27" class="edge"><title>4.1 BSD&#45;&gt;4.2 BSD</title>
<path fill="none" stroke="black" d="M345.414,-287.697C344.753,-279.983 343.958,-270.712 343.221,-262.112"/>
<polygon fill="black" stroke="black" points="346.705,-261.769 342.363,-252.104 339.73,-262.367 346.705,-261.769"/>
</g>
<!-- 4.3 BSD -->
<g id="node27" class="node"><title>4.3 BSD</title>
<ellipse fill="#b2dfee" stroke="#b2dfee" cx="427.897" cy="-162" rx="41.6928" ry="18"/>
<text text-anchor="middle" x="427.897" y="-158.3" font-family="Times,serif" font-size="14.00">4.3 BSD</text>
</g>
<!-- 4.2 BSD&#45;&gt;4.3 BSD -->
<g id="edge30" class="edge"><title>4.2 BSD&#45;&gt;4.3 BSD</title>
<path fill="none" stroke="black" d="M359.775,-217.811C371.86,-208.088 387.725,-195.323 401.104,-184.558"/>
<polygon fill="black" stroke="black" points="403.459,-187.155 409.056,-178.159 399.071,-181.701 403.459,-187.155"/>
</g>
<!-- Ultrix&#45;32 -->
<g id="node28" class="node"><title>Ultrix&#45;32</title>
<ellipse fill="#b2dfee" stroke="#b2dfee" cx="324.897" cy="-162" rx="43.5923" ry="18"/>
<text text-anchor="middle" x="324.897" y="-158.3" font-family="Times,serif" font-size="14.00">Ultrix&#45;32</text>
</g>
<!-- 4.2 BSD&#45;&gt;Ultrix&#45;32 -->
<g id="edge31" class="edge"><title>4.2 BSD&#45;&gt;Ultrix&#45;32</title>
<path fill="none" stroke="black" d="M337.024,-216.055C335.243,-208.261 333.085,-198.822 331.087,-190.079"/>
<polygon fill="black" stroke="black" points="334.486,-189.244 328.846,-180.275 327.662,-190.804 334.486,-189.244"/>
</g>
<!-- 4.4 BSD -->
<g id="node29" class="node"><title>4.4 BSD</title>
<ellipse fill="#b2dfee" stroke="#b2dfee" cx="426.897" cy="-90" rx="41.6928" ry="18"/>
<text text-anchor="middle" x="426.897" y="-86.3" font-family="Times,serif" font-size="14.00">4.4 BSD</text>
</g>
<!-- 4.3 BSD&#45;&gt;4.4 BSD -->
<g id="edge32" class="edge"><title>4.3 BSD&#45;&gt;4.4 BSD</title>
<path fill="none" stroke="black" d="M427.65,-143.697C427.54,-135.983 427.408,-126.712 427.285,-118.112"/>
<polygon fill="black" stroke="black" points="430.784,-118.053 427.142,-108.104 423.785,-118.153 430.784,-118.053"/>
</g>
<!-- FreeBSD -->
<g id="node30" class="node"><title>FreeBSD</title>
<ellipse fill="#b2dfee" stroke="#b2dfee" cx="324.897" cy="-18" rx="43.5923" ry="18"/>
<text text-anchor="middle" x="324.897" y="-14.3" font-family="Times,serif" font-size="14.00">FreeBSD</text>
</g>
<!-- 4.4 BSD&#45;&gt;FreeBSD -->
<g id="edge33" class="edge"><title>4.4 BSD&#45;&gt;FreeBSD</title>
<path fill="none" stroke="black" d="M405.763,-74.496C391.091,-64.4269 371.327,-50.8636 355.011,-39.6664"/>
<polygon fill="black" stroke="black" points="356.581,-36.499 346.356,-33.7263 352.62,-42.2706 356.581,-36.499"/>
</g>
<!-- NetBSD -->
<g id="node31" class="node"><title>NetBSD</title>
<ellipse fill="#b2dfee" stroke="#b2dfee" cx="426.897" cy="-18" rx="40.0939" ry="18"/>
<text text-anchor="middle" x="426.897" y="-14.3" font-family="Times,serif" font-size="14.00">NetBSD</text>
</g>
<!-- 4.4 BSD&#45;&gt;NetBSD -->
<g id="edge34" class="edge"><title>4.4 BSD&#45;&gt;NetBSD</title>
<path fill="none" stroke="black" d="M426.897,-71.6966C426.897,-63.9827 426.897,-54.7125 426.897,-46.1124"/>
<polygon fill="black" stroke="black" points="430.397,-46.1043 426.897,-36.1043 423.397,-46.1044 430.397,-46.1043"/>
</g>
<!-- OpenBSD -->
<g id="node32" class="node"><title>OpenBSD</title>
<ellipse fill="#b2dfee" stroke="#b2dfee" cx="531.897" cy="-18" rx="46.5926" ry="18"/>
<text text-anchor="middle" x="531.897" y="-14.3" font-family="Times,serif" font-size="14.00">OpenBSD</text>
</g>
<!-- 4.4 BSD&#45;&gt;OpenBSD -->
<g id="edge35" class="edge"><title>4.4 BSD&#45;&gt;OpenBSD</title>
<path fill="none" stroke="black" d="M448.653,-74.496C463.794,-64.4019 484.203,-50.7962 501.023,-39.5829"/>
<polygon fill="black" stroke="black" points="503.066,-42.4277 509.445,-33.9684 499.183,-36.6033 503.066,-42.4277"/>
</g>
<!-- PWB 1.2&#45;&gt;PWB 2.0 -->
<g id="edge38" class="edge"><title>PWB 1.2&#45;&gt;PWB 2.0</title>
<path fill="none" stroke="black" d="M820.282,-653.753C785.507,-641.762 730.308,-622.728 692.209,-609.59"/>
<polygon fill="black" stroke="black" points="693.027,-606.17 682.432,-606.219 690.745,-612.788 693.027,-606.17"/>
</g>
<!-- CB Unix 1 -->
<g id="node35" class="node"><title>CB Unix 1</title>
<ellipse fill="#b2dfee" stroke="#b2dfee" cx="956.897" cy="-594" rx="49.2915" ry="18"/>
<text text-anchor="middle" x="956.897" y="-590.3" font-family="Times,serif" font-size="14.00">CB Unix 1</text>
</g>
<!-- USG 1.0&#45;&gt;CB Unix 1 -->
<g id="edge39" class="edge"><title>USG 1.0&#45;&gt;CB Unix 1</title>
<path fill="none" stroke="black" d="M956.897,-647.697C956.897,-639.983 956.897,-630.712 956.897,-622.112"/>
<polygon fill="black" stroke="black" points="960.397,-622.104 956.897,-612.104 953.397,-622.104 960.397,-622.104"/>
</g>
<!-- USG 2.0 -->
<g id="node36" class="node"><title>USG 2.0</title>
<ellipse fill="#b2dfee" stroke="#b2dfee" cx="800.897" cy="-594" rx="42.4939" ry="18"/>
<text text-anchor="middle" x="800.897" y="-590.3" font-family="Times,serif" font-size="14.00">USG 2.0</text>
</g>
<!-- USG 1.0&#45;&gt;USG 2.0 -->
<g id="edge40" class="edge"><title>USG 1.0&#45;&gt;USG 2.0</title>
<path fill="none" stroke="black" d="M928.647,-652.324C903.356,-640.975 866.09,-624.253 838.326,-611.795"/>
<polygon fill="black" stroke="black" points="839.494,-608.483 828.938,-607.582 836.628,-614.869 839.494,-608.483"/>
</g>
<!-- CB Unix 2 -->
<g id="node37" class="node"><title>CB Unix 2</title>
<ellipse fill="#b2dfee" stroke="#b2dfee" cx="956.897" cy="-522" rx="49.2915" ry="18"/>
<text text-anchor="middle" x="956.897" y="-518.3" font-family="Times,serif" font-size="14.00">CB Unix 2</text>
</g>
<!-- CB Unix 1&#45;&gt;CB Unix 2 -->
<g id="edge41" class="edge"><title>CB Unix 1&#45;&gt;CB Unix 2</title>
<path fill="none" stroke="black" d="M956.897,-575.697C956.897,-567.983 956.897,-558.712 956.897,-550.112"/>
<polygon fill="black" stroke="black" points="960.397,-550.104 956.897,-540.104 953.397,-550.104 960.397,-550.104"/>
</g>
<!-- USG 3.0 -->
<g id="node41" class="node"><title>USG 3.0</title>
<ellipse fill="#b2dfee" stroke="#b2dfee" cx="719.897" cy="-522" rx="42.4939" ry="18"/>
<text text-anchor="middle" x="719.897" y="-518.3" font-family="Times,serif" font-size="14.00">USG 3.0</text>
</g>
<!-- USG 2.0&#45;&gt;USG 3.0 -->
<g id="edge45" class="edge"><title>USG 2.0&#45;&gt;USG 3.0</title>
<path fill="none" stroke="black" d="M782.921,-577.465C771.91,-567.949 757.642,-555.619 745.467,-545.097"/>
<polygon fill="black" stroke="black" points="747.678,-542.382 737.824,-538.492 743.101,-547.679 747.678,-542.382"/>
</g>
<!-- CB Unix 3 -->
<g id="node38" class="node"><title>CB Unix 3</title>
<ellipse fill="#b2dfee" stroke="#b2dfee" cx="898.897" cy="-450" rx="49.2915" ry="18"/>
<text text-anchor="middle" x="898.897" y="-446.3" font-family="Times,serif" font-size="14.00">CB Unix 3</text>
</g>
<!-- CB Unix 2&#45;&gt;CB Unix 3 -->
<g id="edge42" class="edge"><title>CB Unix 2&#45;&gt;CB Unix 3</title>
<path fill="none" stroke="black" d="M943.152,-504.411C935.929,-495.693 926.941,-484.845 918.955,-475.208"/>
<polygon fill="black" stroke="black" points="921.619,-472.937 912.544,-467.47 916.229,-477.403 921.619,-472.937"/>
</g>
<!-- Unix/TS++ -->
<g id="node39" class="node"><title>Unix/TS++</title>
<ellipse fill="#b2dfee" stroke="#b2dfee" cx="882.897" cy="-378" rx="51.9908" ry="18"/>
<text text-anchor="middle" x="882.897" y="-374.3" font-family="Times,serif" font-size="14.00">Unix/TS++</text>
</g>
<!-- CB Unix 3&#45;&gt;Unix/TS++ -->
<g id="edge43" class="edge"><title>CB Unix 3&#45;&gt;Unix/TS++</title>
<path fill="none" stroke="black" d="M895.024,-432.055C893.243,-424.261 891.085,-414.822 889.087,-406.079"/>
<polygon fill="black" stroke="black" points="892.486,-405.244 886.846,-396.275 885.662,-406.804 892.486,-405.244"/>
</g>
<!-- PDP&#45;11 Sys V -->
<g id="node40" class="node"><title>PDP&#45;11 Sys V</title>
<ellipse fill="#b2dfee" stroke="#b2dfee" cx="1014.9" cy="-378" rx="62.2891" ry="18"/>
<text text-anchor="middle" x="1014.9" y="-374.3" font-family="Times,serif" font-size="14.00">PDP&#45;11 Sys V</text>
</g>
<!-- CB Unix 3&#45;&gt;PDP&#45;11 Sys V -->
<g id="edge44" class="edge"><title>CB Unix 3&#45;&gt;PDP&#45;11 Sys V</title>
<path fill="none" stroke="black" d="M923.215,-434.326C939.772,-424.334 961.933,-410.961 980.319,-399.866"/>
<polygon fill="black" stroke="black" points="982.248,-402.79 989.001,-394.627 978.631,-396.797 982.248,-402.79"/>
</g>
<!-- CB Unix 3&#45;&gt;TS 4.0 -->
<g id="edge51" class="edge"><title>CB Unix 3&#45;&gt;TS 4.0</title>
<path fill="none" stroke="black" d="M869.054,-435.453C852.69,-426.521 833.44,-413.271 821.897,-396 809.658,-377.687 805.115,-352.924 803.515,-334.169"/>
<polygon fill="black" stroke="black" points="807.007,-333.941 802.888,-324.18 800.021,-334.38 807.007,-333.941"/>
</g>
<!-- Unix/TS++&#45;&gt;TS 4.0 -->
<g id="edge50" class="edge"><title>Unix/TS++&#45;&gt;TS 4.0</title>
<path fill="none" stroke="black" d="M864.744,-361.116C853.702,-351.454 839.455,-338.988 827.419,-328.456"/>
<polygon fill="black" stroke="black" points="829.715,-325.815 819.885,-321.864 825.106,-331.083 829.715,-325.815"/>
</g>
<!-- USG 3.0&#45;&gt;Unix/TS 3.0 -->
<g id="edge46" class="edge"><title>USG 3.0&#45;&gt;Unix/TS 3.0</title>
<path fill="none" stroke="black" d="M719.897,-503.697C719.897,-495.983 719.897,-486.712 719.897,-478.112"/>
<polygon fill="black" stroke="black" points="723.397,-478.104 719.897,-468.104 716.397,-478.104 723.397,-478.104"/>
</g>
<!-- Unix/TS 1.0 -->
<g id="node42" class="node"><title>Unix/TS 1.0</title>
<ellipse fill="#b2dfee" stroke="#b2dfee" cx="834.897" cy="-522" rx="54.6905" ry="18"/>
<text text-anchor="middle" x="834.897" y="-518.3" font-family="Times,serif" font-size="14.00">Unix/TS 1.0</text>
</g>
<!-- Unix/TS 1.0&#45;&gt;Unix/TS 3.0 -->
<g id="edge48" class="edge"><title>Unix/TS 1.0&#45;&gt;Unix/TS 3.0</title>
<path fill="none" stroke="black" d="M809.944,-505.811C793.518,-495.813 771.808,-482.598 753.821,-471.649"/>
<polygon fill="black" stroke="black" points="755.164,-468.369 744.802,-466.159 751.524,-474.349 755.164,-468.369"/>
</g>
<!-- System V.0 -->
<g id="node44" class="node"><title>System V.0</title>
<ellipse fill="#b2dfee" stroke="#b2dfee" cx="802.897" cy="-234" rx="52.7911" ry="18"/>
<text text-anchor="middle" x="802.897" y="-230.3" font-family="Times,serif" font-size="14.00">System V.0</text>
</g>
<!-- TS 4.0&#45;&gt;System V.0 -->
<g id="edge52" class="edge"><title>TS 4.0&#45;&gt;System V.0</title>
<path fill="none" stroke="black" d="M802.897,-287.697C802.897,-279.983 802.897,-270.712 802.897,-262.112"/>
<polygon fill="black" stroke="black" points="806.397,-262.104 802.897,-252.104 799.397,-262.104 806.397,-262.104"/>
</g>
<!-- System V.2 -->
<g id="node45" class="node"><title>System V.2</title>
<ellipse fill="#b2dfee" stroke="#b2dfee" cx="802.897" cy="-162" rx="52.7911" ry="18"/>
<text text-anchor="middle" x="802.897" y="-158.3" font-family="Times,serif" font-size="14.00">System V.2</text>
</g>
<!-- System V.0&#45;&gt;System V.2 -->
<g id="edge53" class="edge"><title>System V.0&#45;&gt;System V.2</title>
<path fill="none" stroke="black" d="M802.897,-215.697C802.897,-207.983 802.897,-198.712 802.897,-190.112"/>
<polygon fill="black" stroke="black" points="806.397,-190.104 802.897,-180.104 799.397,-190.104 806.397,-190.104"/>
</g>
<!-- System V.3 -->
<g id="node46" class="node"><title>System V.3</title>
<ellipse fill="#b2dfee" stroke="#b2dfee" cx="802.897" cy="-90" rx="52.7911" ry="18"/>
<text text-anchor="middle" x="802.897" y="-86.3" font-family="Times,serif" font-size="14.00">System V.3</text>
</g>
<!-- System V.2&#45;&gt;System V.3 -->
<g id="edge54" class="edge"><title>System V.2&#45;&gt;System V.3</title>
<path fill="none" stroke="black" d="M802.897,-143.697C802.897,-135.983 802.897,-126.712 802.897,-118.112"/>
<polygon fill="black" stroke="black" points="806.397,-118.104 802.897,-108.104 799.397,-118.104 806.397,-118.104"/>
</g>
<!-- System V.4 -->
<g id="node47" class="node"><title>System V.4</title>
<ellipse fill="#b2dfee" stroke="#b2dfee" cx="802.897" cy="-18" rx="52.7911" ry="18"/>
<text text-anchor="middle" x="802.897" y="-14.3" font-family="Times,serif" font-size="14.00">System V.4</text>
</g>
<!-- System V.3&#45;&gt;System V.4 -->
<g id="edge55" class="edge"><title>System V.3&#45;&gt;System V.4</title>
<path fill="none" stroke="black" d="M802.897,-71.6966C802.897,-63.9827 802.897,-54.7125 802.897,-46.1124"/>
<polygon fill="black" stroke="black" points="806.397,-46.1043 802.897,-36.1043 799.397,-46.1044 806.397,-46.1043"/>
</g>
</g>
</svg>
