<?xml version="1.0" encoding="UTF-8" standalone="no"?>
<!DOCTYPE svg PUBLIC "-//W3C//DTD SVG 1.1//EN"
 "http://www.w3.org/Graphics/SVG/1.1/DTD/svg11.dtd">
<!-- Generated by graphviz version 2.38.0 (20140413.2041)
 -->
<!-- Title: unix Pages: 1 -->
<svg width="1097pt" height="836pt"
 viewBox="0.00 0.00 1097.40 836.00" xmlns="http://www.w3.org/2000/svg" xmlns:xlink="http://www.w3.org/1999/xlink">
<g id="graph0" class="graph" transform="scale(1 1) rotate(0) translate(4 832)">
<title>unix</title>
<polygon fill="white" stroke="none" points="-4,4 -4,-832 1093.4,-832 1093.4,4 -4,4"/>
<!-- 5th Edition -->
<g id="node1" class="node"><title>5th Edition</title>
<ellipse fill="#b2dfee" stroke="#b2dfee" cx="764.897" cy="-810" rx="51" ry="18"/>
<text text-anchor="middle" x="764.897" y="-806.3" font-family="Times,serif" font-size="14.00">5th Edition</text>
</g>
<!-- 6th Edition -->
<g id="node2" class="node"><title>6th Edition</title>
<ellipse fill="#b2dfee" stroke="#b2dfee" cx="608.897" cy="-738" rx="51" ry="18"/>
<text text-anchor="middle" x="608.897" y="-734.3" font-family="Times,serif" font-size="14.00">6th Edition</text>
</g>
<!-- 5th Edition&#45;&gt;6th Edition -->
<g id="edge1" class="edge"><title>5th Edition&#45;&gt;6th Edition</title>
<path fill="none" stroke="black" d="M734.449,-795.337C709.968,-784.352 675.381,-768.832 648.706,-756.863"/>
<polygon fill="black" stroke="black" points="649.826,-753.529 639.269,-752.628 646.96,-759.916 649.826,-753.529"/>
</g>
<!-- PWB 1.0 -->
<g id="node3" class="node"><title>PWB 1.0</title>
<ellipse fill="#b2dfee" stroke="#b2dfee" cx="860.897" cy="-738" rx="44.393" ry="18"/>
<text text-anchor="middle" x="860.897" y="-734.3" font-family="Times,serif" font-size="14.00">PWB 1.0</text>
</g>
<!-- 5th Edition&#45;&gt;PWB 1.0 -->
<g id="edge2" class="edge"><title>5th Edition&#45;&gt;PWB 1.0</title>
<path fill="none" stroke="black" d="M786.203,-793.465C799.686,-783.633 817.29,-770.797 832.022,-760.055"/>
<polygon fill="black" stroke="black" points="834.292,-762.731 840.31,-754.011 830.168,-757.075 834.292,-762.731"/>
</g>
<!-- LSX -->
<g id="node4" class="node"><title>LSX</title>
<ellipse fill="#b2dfee" stroke="#b2dfee" cx="770.897" cy="-666" rx="27.5" ry="18"/>
<text text-anchor="middle" x="770.897" y="-662.3" font-family="Times,serif" font-size="14.00">LSX</text>
</g>
<!-- 6th Edition&#45;&gt;LSX -->
<g id="edge3" class="edge"><title>6th Edition&#45;&gt;LSX</title>
<path fill="none" stroke="black" d="M640.604,-723.862C665.938,-713.291 702.308,-697.95 733.897,-684 735.74,-683.186 737.632,-682.343 739.537,-681.487"/>
<polygon fill="black" stroke="black" points="741.374,-684.496 749.033,-677.176 738.481,-678.122 741.374,-684.496"/>
</g>
<!-- 1 BSD -->
<g id="node5" class="node"><title>1 BSD</title>
<ellipse fill="#b2dfee" stroke="#b2dfee" cx="216.897" cy="-666" rx="35" ry="18"/>
<text text-anchor="middle" x="216.897" y="-662.3" font-family="Times,serif" font-size="14.00">1 BSD</text>
</g>
<!-- 6th Edition&#45;&gt;1 BSD -->
<g id="edge4" class="edge"><title>6th Edition&#45;&gt;1 BSD</title>
<path fill="none" stroke="black" d="M564.312,-729.038C488.224,-715.451 334.3,-687.965 259.553,-674.617"/>
<polygon fill="black" stroke="black" points="260.007,-671.143 249.547,-672.83 258.776,-678.034 260.007,-671.143"/>
</g>
<!-- Mini Unix -->
<g id="node6" class="node"><title>Mini Unix</title>
<ellipse fill="#b2dfee" stroke="#b2dfee" cx="547.897" cy="-666" rx="48.5" ry="18"/>
<text text-anchor="middle" x="547.897" y="-662.3" font-family="Times,serif" font-size="14.00">Mini Unix</text>
</g>
<!-- 6th Edition&#45;&gt;Mini Unix -->
<g id="edge5" class="edge"><title>6th Edition&#45;&gt;Mini Unix</title>
<path fill="none" stroke="black" d="M594.441,-720.411C586.844,-711.693 577.391,-700.845 568.993,-691.208"/>
<polygon fill="black" stroke="black" points="571.458,-688.71 562.25,-683.47 566.181,-693.309 571.458,-688.71"/>
</g>
<!-- Wollongong -->
<g id="node7" class="node"><title>Wollongong</title>
<ellipse fill="#b2dfee" stroke="#b2dfee" cx="669.897" cy="-666" rx="55.5" ry="18"/>
<text text-anchor="middle" x="669.897" y="-662.3" font-family="Times,serif" font-size="14.00">Wollongong</text>
</g>
<!-- 6th Edition&#45;&gt;Wollongong -->
<g id="edge6" class="edge"><title>6th Edition&#45;&gt;Wollongong</title>
<path fill="none" stroke="black" d="M623.353,-720.411C630.95,-711.693 640.403,-700.845 648.802,-691.208"/>
<polygon fill="black" stroke="black" points="651.614,-693.309 655.545,-683.47 646.336,-688.71 651.614,-693.309"/>
</g>
<!-- Interdata -->
<g id="node8" class="node"><title>Interdata</title>
<ellipse fill="#b2dfee" stroke="#b2dfee" cx="438.897" cy="-666" rx="42.5" ry="18"/>
<text text-anchor="middle" x="438.897" y="-662.3" font-family="Times,serif" font-size="14.00">Interdata</text>
</g>
<!-- 6th Edition&#45;&gt;Interdata -->
<g id="edge7" class="edge"><title>6th Edition&#45;&gt;Interdata</title>
<path fill="none" stroke="black" d="M576.922,-723.834C548.715,-712.219 507.539,-695.264 477.504,-682.897"/>
<polygon fill="black" stroke="black" points="478.754,-679.626 468.174,-679.055 476.088,-686.099 478.754,-679.626"/>
</g>
<!-- PWB 1.2 -->
<g id="node33" class="node"><title>PWB 1.2</title>
<ellipse fill="#b2dfee" stroke="#b2dfee" cx="860.897" cy="-666" rx="44.393" ry="18"/>
<text text-anchor="middle" x="860.897" y="-662.3" font-family="Times,serif" font-size="14.00">PWB 1.2</text>
</g>
<!-- PWB 1.0&#45;&gt;PWB 1.2 -->
<g id="edge36" class="edge"><title>PWB 1.0&#45;&gt;PWB 1.2</title>
<path fill="none" stroke="black" d="M860.897,-719.697C860.897,-711.983 860.897,-702.712 860.897,-694.112"/>
<polygon fill="black" stroke="black" points="864.397,-694.104 860.897,-684.104 857.397,-694.104 864.397,-694.104"/>
</g>
<!-- USG 1.0 -->
<g id="node34" class="node"><title>USG 1.0</title>
<ellipse fill="#b2dfee" stroke="#b2dfee" cx="965.897" cy="-666" rx="42.5" ry="18"/>
<text text-anchor="middle" x="965.897" y="-662.3" font-family="Times,serif" font-size="14.00">USG 1.0</text>
</g>
<!-- PWB 1.0&#45;&gt;USG 1.0 -->
<g id="edge37" class="edge"><title>PWB 1.0&#45;&gt;USG 1.0</title>
<path fill="none" stroke="black" d="M882.909,-722.326C898.169,-712.152 918.689,-698.472 935.506,-687.261"/>
<polygon fill="black" stroke="black" points="937.536,-690.114 943.915,-681.655 933.653,-684.29 937.536,-690.114"/>
</g>
<!-- 2 BSD -->
<g id="node20" class="node"><title>2 BSD</title>
<ellipse fill="#b2dfee" stroke="#b2dfee" cx="90.8973" cy="-306" rx="35" ry="18"/>
<text text-anchor="middle" x="90.8973" y="-302.3" font-family="Times,serif" font-size="14.00">2 BSD</text>
</g>
<!-- 1 BSD&#45;&gt;2 BSD -->
<g id="edge20" class="edge"><title>1 BSD&#45;&gt;2 BSD</title>
<path fill="none" stroke="black" d="M195.186,-651.607C162.11,-629.339 102.897,-581.329 102.897,-523 102.897,-523 102.897,-523 102.897,-449 102.897,-408.853 98.0759,-362.548 94.5453,-334.022"/>
<polygon fill="black" stroke="black" points="98.0055,-333.487 93.2682,-324.01 91.0617,-334.373 98.0055,-333.487"/>
</g>
<!-- Unix/TS 3.0 -->
<g id="node9" class="node"><title>Unix/TS 3.0</title>
<ellipse fill="#b2dfee" stroke="#b2dfee" cx="725.897" cy="-450" rx="55.5" ry="18"/>
<text text-anchor="middle" x="725.897" y="-446.3" font-family="Times,serif" font-size="14.00">Unix/TS 3.0</text>
</g>
<!-- Interdata&#45;&gt;Unix/TS 3.0 -->
<g id="edge8" class="edge"><title>Interdata&#45;&gt;Unix/TS 3.0</title>
<path fill="none" stroke="black" d="M460.678,-650.443C476.213,-639.956 497.518,-625.357 515.897,-612 551.027,-586.469 648.807,-510.836 697.539,-473.029"/>
<polygon fill="black" stroke="black" points="699.728,-475.761 705.482,-466.865 695.436,-470.231 699.728,-475.761"/>
</g>
<!-- PWB 2.0 -->
<g id="node10" class="node"><title>PWB 2.0</title>
<ellipse fill="#b2dfee" stroke="#b2dfee" cx="654.897" cy="-594" rx="44.393" ry="18"/>
<text text-anchor="middle" x="654.897" y="-590.3" font-family="Times,serif" font-size="14.00">PWB 2.0</text>
</g>
<!-- Interdata&#45;&gt;PWB 2.0 -->
<g id="edge9" class="edge"><title>Interdata&#45;&gt;PWB 2.0</title>
<path fill="none" stroke="black" d="M471.255,-654.155C477.44,-652.099 483.866,-649.974 489.897,-648 530.971,-634.558 577.899,-619.515 611.181,-608.899"/>
<polygon fill="black" stroke="black" points="612.585,-612.125 621.049,-605.753 610.459,-605.455 612.585,-612.125"/>
</g>
<!-- 7th Edition -->
<g id="node11" class="node"><title>7th Edition</title>
<ellipse fill="#b2dfee" stroke="#b2dfee" cx="455.897" cy="-594" rx="51" ry="18"/>
<text text-anchor="middle" x="455.897" y="-590.3" font-family="Times,serif" font-size="14.00">7th Edition</text>
</g>
<!-- Interdata&#45;&gt;7th Edition -->
<g id="edge10" class="edge"><title>Interdata&#45;&gt;7th Edition</title>
<path fill="none" stroke="black" d="M443.013,-648.055C444.905,-640.261 447.198,-630.822 449.321,-622.079"/>
<polygon fill="black" stroke="black" points="452.743,-622.819 451.702,-612.275 445.941,-621.167 452.743,-622.819"/>
</g>
<!-- TS 4.0 -->
<g id="node43" class="node"><title>TS 4.0</title>
<ellipse fill="#b2dfee" stroke="#b2dfee" cx="810.897" cy="-306" rx="35" ry="18"/>
<text text-anchor="middle" x="810.897" y="-302.3" font-family="Times,serif" font-size="14.00">TS 4.0</text>
</g>
<!-- Unix/TS 3.0&#45;&gt;TS 4.0 -->
<g id="edge49" class="edge"><title>Unix/TS 3.0&#45;&gt;TS 4.0</title>
<path fill="none" stroke="black" d="M735.982,-432.153C750.823,-407.36 778.647,-360.877 795.891,-332.069"/>
<polygon fill="black" stroke="black" points="798.955,-333.765 801.088,-323.387 792.949,-330.169 798.955,-333.765"/>
</g>
<!-- PWB 2.0&#45;&gt;Unix/TS 3.0 -->
<g id="edge47" class="edge"><title>PWB 2.0&#45;&gt;Unix/TS 3.0</title>
<path fill="none" stroke="black" d="M655.715,-575.962C657.231,-557.298 661.557,-526.964 673.897,-504 679.952,-492.734 689.124,-482.239 698.088,-473.611"/>
<polygon fill="black" stroke="black" points="700.486,-476.161 705.496,-466.825 695.758,-470.999 700.486,-476.161"/>
</g>
<!-- 8th Edition -->
<g id="node12" class="node"><title>8th Edition</title>
<ellipse fill="#b2dfee" stroke="#b2dfee" cx="455.897" cy="-234" rx="51" ry="18"/>
<text text-anchor="middle" x="455.897" y="-230.3" font-family="Times,serif" font-size="14.00">8th Edition</text>
</g>
<!-- 7th Edition&#45;&gt;8th Edition -->
<g id="edge11" class="edge"><title>7th Edition&#45;&gt;8th Edition</title>
<path fill="none" stroke="black" d="M455.897,-575.951C455.897,-549.292 455.897,-496.115 455.897,-451 455.897,-451 455.897,-451 455.897,-377 455.897,-336.996 455.897,-290.653 455.897,-262.08"/>
<polygon fill="black" stroke="black" points="459.397,-262.049 455.897,-252.049 452.397,-262.049 459.397,-262.049"/>
</g>
<!-- 32V -->
<g id="node13" class="node"><title>32V</title>
<ellipse fill="#b2dfee" stroke="#b2dfee" cx="400.897" cy="-522" rx="27" ry="18"/>
<text text-anchor="middle" x="400.897" y="-518.3" font-family="Times,serif" font-size="14.00">32V</text>
</g>
<!-- 7th Edition&#45;&gt;32V -->
<g id="edge12" class="edge"><title>7th Edition&#45;&gt;32V</title>
<path fill="none" stroke="black" d="M442.863,-576.411C435.885,-567.53 427.171,-556.439 419.494,-546.668"/>
<polygon fill="black" stroke="black" points="422.015,-544.212 413.084,-538.511 416.511,-548.536 422.015,-544.212"/>
</g>
<!-- V7M -->
<g id="node14" class="node"><title>V7M</title>
<ellipse fill="#b2dfee" stroke="#b2dfee" cx="29.8973" cy="-450" rx="29.795" ry="18"/>
<text text-anchor="middle" x="29.8973" y="-446.3" font-family="Times,serif" font-size="14.00">V7M</text>
</g>
<!-- 7th Edition&#45;&gt;V7M -->
<g id="edge13" class="edge"><title>7th Edition&#45;&gt;V7M</title>
<path fill="none" stroke="black" d="M404.896,-592.341C340.45,-589.773 227.389,-579.409 139.897,-540 104.589,-524.096 71.0546,-494.031 50.4977,-473.276"/>
<polygon fill="black" stroke="black" points="53.0067,-470.835 43.5321,-466.094 47.9818,-475.709 53.0067,-470.835"/>
</g>
<!-- Ultrix&#45;11 -->
<g id="node15" class="node"><title>Ultrix&#45;11</title>
<ellipse fill="#b2dfee" stroke="#b2dfee" cx="119.897" cy="-162" rx="44.5" ry="18"/>
<text text-anchor="middle" x="119.897" y="-158.3" font-family="Times,serif" font-size="14.00">Ultrix&#45;11</text>
</g>
<!-- 7th Edition&#45;&gt;Ultrix&#45;11 -->
<g id="edge14" class="edge"><title>7th Edition&#45;&gt;Ultrix&#45;11</title>
<path fill="none" stroke="black" d="M405.898,-590.172C333.698,-585.037 205.33,-571.626 172.897,-540 143.939,-511.762 153.897,-491.447 153.897,-451 153.897,-451 153.897,-451 153.897,-305 153.897,-263.91 140.266,-217.925 130.266,-189.717"/>
<polygon fill="black" stroke="black" points="133.497,-188.362 126.778,-180.171 126.922,-190.765 133.497,-188.362"/>
</g>
<!-- Xenix -->
<g id="node16" class="node"><title>Xenix</title>
<ellipse fill="#b2dfee" stroke="#b2dfee" cx="214.897" cy="-522" rx="33" ry="18"/>
<text text-anchor="middle" x="214.897" y="-518.3" font-family="Times,serif" font-size="14.00">Xenix</text>
</g>
<!-- 7th Edition&#45;&gt;Xenix -->
<g id="edge15" class="edge"><title>7th Edition&#45;&gt;Xenix</title>
<path fill="none" stroke="black" d="M414.292,-583.516C373.721,-573.894 310.476,-557.901 256.897,-540 254.482,-539.193 252.006,-538.318 249.523,-537.406"/>
<polygon fill="black" stroke="black" points="250.617,-534.077 240.026,-533.763 248.109,-540.612 250.617,-534.077"/>
</g>
<!-- UniPlus+ -->
<g id="node17" class="node"><title>UniPlus+</title>
<ellipse fill="#b2dfee" stroke="#b2dfee" cx="310.897" cy="-522" rx="45" ry="18"/>
<text text-anchor="middle" x="310.897" y="-518.3" font-family="Times,serif" font-size="14.00">UniPlus+</text>
</g>
<!-- 7th Edition&#45;&gt;UniPlus+ -->
<g id="edge16" class="edge"><title>7th Edition&#45;&gt;UniPlus+</title>
<path fill="none" stroke="black" d="M426.903,-579.003C404.038,-567.965 372.013,-552.504 347.402,-540.623"/>
<polygon fill="black" stroke="black" points="348.895,-537.457 338.368,-536.262 345.852,-543.761 348.895,-537.457"/>
</g>
<!-- 9th Edition -->
<g id="node18" class="node"><title>9th Edition</title>
<ellipse fill="#b2dfee" stroke="#b2dfee" cx="543.897" cy="-162" rx="51" ry="18"/>
<text text-anchor="middle" x="543.897" y="-158.3" font-family="Times,serif" font-size="14.00">9th Edition</text>
</g>
<!-- 8th Edition&#45;&gt;9th Edition -->
<g id="edge18" class="edge"><title>8th Edition&#45;&gt;9th Edition</title>
<path fill="none" stroke="black" d="M475.866,-217.116C487.68,-207.718 502.828,-195.669 515.83,-185.326"/>
<polygon fill="black" stroke="black" points="518.361,-187.786 524.008,-178.821 514.003,-182.307 518.361,-187.786"/>
</g>
<!-- 3 BSD -->
<g id="node23" class="node"><title>3 BSD</title>
<ellipse fill="#b2dfee" stroke="#b2dfee" cx="386.897" cy="-450" rx="35" ry="18"/>
<text text-anchor="middle" x="386.897" y="-446.3" font-family="Times,serif" font-size="14.00">3 BSD</text>
</g>
<!-- 32V&#45;&gt;3 BSD -->
<g id="edge24" class="edge"><title>32V&#45;&gt;3 BSD</title>
<path fill="none" stroke="black" d="M397.508,-504.055C395.966,-496.346 394.103,-487.027 392.37,-478.364"/>
<polygon fill="black" stroke="black" points="395.746,-477.395 390.352,-468.275 388.882,-478.768 395.746,-477.395"/>
</g>
<!-- V7M&#45;&gt;Ultrix&#45;11 -->
<g id="edge17" class="edge"><title>V7M&#45;&gt;Ultrix&#45;11</title>
<path fill="none" stroke="black" d="M29.3732,-431.584C28.9818,-401.502 30.4317,-338.21 46.8973,-288 59.2423,-250.356 84.0644,-211.674 101.316,-187.507"/>
<polygon fill="black" stroke="black" points="104.242,-189.435 107.292,-179.289 98.5804,-185.318 104.242,-189.435"/>
</g>
<!-- 10th Edition -->
<g id="node19" class="node"><title>10th Edition</title>
<ellipse fill="#b2dfee" stroke="#b2dfee" cx="545.897" cy="-90" rx="55.5" ry="18"/>
<text text-anchor="middle" x="545.897" y="-86.3" font-family="Times,serif" font-size="14.00">10th Edition</text>
</g>
<!-- 9th Edition&#45;&gt;10th Edition -->
<g id="edge19" class="edge"><title>9th Edition&#45;&gt;10th Edition</title>
<path fill="none" stroke="black" d="M544.392,-143.697C544.612,-135.983 544.877,-126.712 545.123,-118.112"/>
<polygon fill="black" stroke="black" points="548.622,-118.2 545.409,-108.104 541.624,-118 548.622,-118.2"/>
</g>
<!-- 2.8 BSD -->
<g id="node21" class="node"><title>2.8 BSD</title>
<ellipse fill="#b2dfee" stroke="#b2dfee" cx="223.897" cy="-234" rx="42" ry="18"/>
<text text-anchor="middle" x="223.897" y="-230.3" font-family="Times,serif" font-size="14.00">2.8 BSD</text>
</g>
<!-- 2 BSD&#45;&gt;2.8 BSD -->
<g id="edge21" class="edge"><title>2 BSD&#45;&gt;2.8 BSD</title>
<path fill="none" stroke="black" d="M114.369,-292.647C135.173,-281.697 165.822,-265.566 189.412,-253.15"/>
<polygon fill="black" stroke="black" points="191.175,-256.178 198.394,-248.423 187.914,-249.983 191.175,-256.178"/>
</g>
<!-- 2.8 BSD&#45;&gt;Ultrix&#45;11 -->
<g id="edge22" class="edge"><title>2.8 BSD&#45;&gt;Ultrix&#45;11</title>
<path fill="none" stroke="black" d="M202.348,-218.496C187.25,-208.334 166.864,-194.612 150.14,-183.356"/>
<polygon fill="black" stroke="black" points="152.027,-180.407 141.776,-177.726 148.118,-186.214 152.027,-180.407"/>
</g>
<!-- 2.9 BSD -->
<g id="node22" class="node"><title>2.9 BSD</title>
<ellipse fill="#b2dfee" stroke="#b2dfee" cx="223.897" cy="-162" rx="42" ry="18"/>
<text text-anchor="middle" x="223.897" y="-158.3" font-family="Times,serif" font-size="14.00">2.9 BSD</text>
</g>
<!-- 2.8 BSD&#45;&gt;2.9 BSD -->
<g id="edge23" class="edge"><title>2.8 BSD&#45;&gt;2.9 BSD</title>
<path fill="none" stroke="black" d="M223.897,-215.697C223.897,-207.983 223.897,-198.712 223.897,-190.112"/>
<polygon fill="black" stroke="black" points="227.397,-190.104 223.897,-180.104 220.397,-190.104 227.397,-190.104"/>
</g>
<!-- 4 BSD -->
<g id="node24" class="node"><title>4 BSD</title>
<ellipse fill="#b2dfee" stroke="#b2dfee" cx="362.897" cy="-378" rx="35" ry="18"/>
<text text-anchor="middle" x="362.897" y="-374.3" font-family="Times,serif" font-size="14.00">4 BSD</text>
</g>
<!-- 3 BSD&#45;&gt;4 BSD -->
<g id="edge25" class="edge"><title>3 BSD&#45;&gt;4 BSD</title>
<path fill="none" stroke="black" d="M381.088,-432.055C378.346,-424.059 375.011,-414.331 371.949,-405.4"/>
<polygon fill="black" stroke="black" points="375.208,-404.113 368.654,-395.789 368.586,-406.384 375.208,-404.113"/>
</g>
<!-- 4.1 BSD -->
<g id="node25" class="node"><title>4.1 BSD</title>
<ellipse fill="#b2dfee" stroke="#b2dfee" cx="350.897" cy="-306" rx="42" ry="18"/>
<text text-anchor="middle" x="350.897" y="-302.3" font-family="Times,serif" font-size="14.00">4.1 BSD</text>
</g>
<!-- 4 BSD&#45;&gt;4.1 BSD -->
<g id="edge26" class="edge"><title>4 BSD&#45;&gt;4.1 BSD</title>
<path fill="none" stroke="black" d="M359.992,-360.055C358.671,-352.346 357.073,-343.027 355.588,-334.364"/>
<polygon fill="black" stroke="black" points="358.998,-333.54 353.859,-324.275 352.099,-334.723 358.998,-333.54"/>
</g>
<!-- 4.1 BSD&#45;&gt;8th Edition -->
<g id="edge29" class="edge"><title>4.1 BSD&#45;&gt;8th Edition</title>
<path fill="none" stroke="black" d="M372.653,-290.496C387.692,-280.47 407.928,-266.98 424.682,-255.811"/>
<polygon fill="black" stroke="black" points="426.7,-258.671 433.08,-250.212 422.818,-252.847 426.7,-258.671"/>
</g>
<!-- 4.1 BSD&#45;&gt;2.8 BSD -->
<g id="edge28" class="edge"><title>4.1 BSD&#45;&gt;2.8 BSD</title>
<path fill="none" stroke="black" d="M326.109,-291.337C306.528,-280.545 279.007,-265.375 257.454,-253.496"/>
<polygon fill="black" stroke="black" points="259.071,-250.39 248.623,-248.628 255.691,-256.521 259.071,-250.39"/>
</g>
<!-- 4.2 BSD -->
<g id="node26" class="node"><title>4.2 BSD</title>
<ellipse fill="#b2dfee" stroke="#b2dfee" cx="344.897" cy="-234" rx="42" ry="18"/>
<text text-anchor="middle" x="344.897" y="-230.3" font-family="Times,serif" font-size="14.00">4.2 BSD</text>
</g>
<!-- 4.1 BSD&#45;&gt;4.2 BSD -->
<g id="edge27" class="edge"><title>4.1 BSD&#45;&gt;4.2 BSD</title>
<path fill="none" stroke="black" d="M349.414,-287.697C348.753,-279.983 347.958,-270.712 347.221,-262.112"/>
<polygon fill="black" stroke="black" points="350.705,-261.769 346.363,-252.104 343.73,-262.367 350.705,-261.769"/>
</g>
<!-- 4.3 BSD -->
<g id="node27" class="node"><title>4.3 BSD</title>
<ellipse fill="#b2dfee" stroke="#b2dfee" cx="431.897" cy="-162" rx="42" ry="18"/>
<text text-anchor="middle" x="431.897" y="-158.3" font-family="Times,serif" font-size="14.00">4.3 BSD</text>
</g>
<!-- 4.2 BSD&#45;&gt;4.3 BSD -->
<g id="edge30" class="edge"><title>4.2 BSD&#45;&gt;4.3 BSD</title>
<path fill="none" stroke="black" d="M363.775,-217.811C375.86,-208.088 391.725,-195.323 405.104,-184.558"/>
<polygon fill="black" stroke="black" points="407.459,-187.155 413.056,-178.159 403.071,-181.701 407.459,-187.155"/>
</g>
<!-- Ultrix&#45;32 -->
<g id="node28" class="node"><title>Ultrix&#45;32</title>
<ellipse fill="#b2dfee" stroke="#b2dfee" cx="327.897" cy="-162" rx="44.5" ry="18"/>
<text text-anchor="middle" x="327.897" y="-158.3" font-family="Times,serif" font-size="14.00">Ultrix&#45;32</text>
</g>
<!-- 4.2 BSD&#45;&gt;Ultrix&#45;32 -->
<g id="edge31" class="edge"><title>4.2 BSD&#45;&gt;Ultrix&#45;32</title>
<path fill="none" stroke="black" d="M340.782,-216.055C338.889,-208.261 336.597,-198.822 334.474,-190.079"/>
<polygon fill="black" stroke="black" points="337.854,-189.167 332.093,-180.275 331.052,-190.819 337.854,-189.167"/>
</g>
<!-- 4.4 BSD -->
<g id="node29" class="node"><title>4.4 BSD</title>
<ellipse fill="#b2dfee" stroke="#b2dfee" cx="430.897" cy="-90" rx="42" ry="18"/>
<text text-anchor="middle" x="430.897" y="-86.3" font-family="Times,serif" font-size="14.00">4.4 BSD</text>
</g>
<!-- 4.3 BSD&#45;&gt;4.4 BSD -->
<g id="edge32" class="edge"><title>4.3 BSD&#45;&gt;4.4 BSD</title>
<path fill="none" stroke="black" d="M431.65,-143.697C431.54,-135.983 431.408,-126.712 431.285,-118.112"/>
<polygon fill="black" stroke="black" points="434.784,-118.053 431.142,-108.104 427.785,-118.153 434.784,-118.053"/>
</g>
<!-- FreeBSD -->
<g id="node30" class="node"><title>FreeBSD</title>
<ellipse fill="#b2dfee" stroke="#b2dfee" cx="326.897" cy="-18" rx="44.5" ry="18"/>
<text text-anchor="middle" x="326.897" y="-14.3" font-family="Times,serif" font-size="14.00">FreeBSD</text>
</g>
<!-- 4.4 BSD&#45;&gt;FreeBSD -->
<g id="edge33" class="edge"><title>4.4 BSD&#45;&gt;FreeBSD</title>
<path fill="none" stroke="black" d="M409.348,-74.496C394.25,-64.3337 373.864,-50.6122 357.14,-39.3559"/>
<polygon fill="black" stroke="black" points="359.027,-36.4065 348.776,-33.7263 355.118,-42.2137 359.027,-36.4065"/>
</g>
<!-- NetBSD -->
<g id="node31" class="node"><title>NetBSD</title>
<ellipse fill="#b2dfee" stroke="#b2dfee" cx="430.897" cy="-18" rx="41.5" ry="18"/>
<text text-anchor="middle" x="430.897" y="-14.3" font-family="Times,serif" font-size="14.00">NetBSD</text>
</g>
<!-- 4.4 BSD&#45;&gt;NetBSD -->
<g id="edge34" class="edge"><title>4.4 BSD&#45;&gt;NetBSD</title>
<path fill="none" stroke="black" d="M430.897,-71.6966C430.897,-63.9827 430.897,-54.7125 430.897,-46.1124"/>
<polygon fill="black" stroke="black" points="434.397,-46.1043 430.897,-36.1043 427.397,-46.1044 434.397,-46.1043"/>
</g>
<!-- OpenBSD -->
<g id="node32" class="node"><title>OpenBSD</title>
<ellipse fill="#b2dfee" stroke="#b2dfee" cx="538.897" cy="-18" rx="48" ry="18"/>
<text text-anchor="middle" x="538.897" y="-14.3" font-family="Times,serif" font-size="14.00">OpenBSD</text>
</g>
<!-- 4.4 BSD&#45;&gt;OpenBSD -->
<g id="edge35" class="edge"><title>4.4 BSD&#45;&gt;OpenBSD</title>
<path fill="none" stroke="black" d="M453.013,-74.6655C468.569,-64.5833 489.624,-50.9367 506.993,-39.6788"/>
<polygon fill="black" stroke="black" points="509.203,-42.417 515.691,-34.0409 505.396,-36.5429 509.203,-42.417"/>
</g>
<!-- PWB 1.2&#45;&gt;PWB 2.0 -->
<g id="edge38" class="edge"><title>PWB 1.2&#45;&gt;PWB 2.0</title>
<path fill="none" stroke="black" d="M827.8,-653.753C792.511,-641.762 736.496,-622.728 697.834,-609.59"/>
<polygon fill="black" stroke="black" points="698.507,-606.122 687.913,-606.219 696.255,-612.75 698.507,-606.122"/>
</g>
<!-- CB Unix 1 -->
<g id="node35" class="node"><title>CB Unix 1</title>
<ellipse fill="#b2dfee" stroke="#b2dfee" cx="965.897" cy="-594" rx="50" ry="18"/>
<text text-anchor="middle" x="965.897" y="-590.3" font-family="Times,serif" font-size="14.00">CB Unix 1</text>
</g>
<!-- USG 1.0&#45;&gt;CB Unix 1 -->
<g id="edge39" class="edge"><title>USG 1.0&#45;&gt;CB Unix 1</title>
<path fill="none" stroke="black" d="M965.897,-647.697C965.897,-639.983 965.897,-630.712 965.897,-622.112"/>
<polygon fill="black" stroke="black" points="969.397,-622.104 965.897,-612.104 962.397,-622.104 969.397,-622.104"/>
</g>
<!-- USG 2.0 -->
<g id="node36" class="node"><title>USG 2.0</title>
<ellipse fill="#b2dfee" stroke="#b2dfee" cx="807.897" cy="-594" rx="42.5" ry="18"/>
<text text-anchor="middle" x="807.897" y="-590.3" font-family="Times,serif" font-size="14.00">USG 2.0</text>
</g>
<!-- USG 1.0&#45;&gt;USG 2.0 -->
<g id="edge40" class="edge"><title>USG 1.0&#45;&gt;USG 2.0</title>
<path fill="none" stroke="black" d="M937.65,-652.485C911.892,-641.073 873.649,-624.131 845.35,-611.593"/>
<polygon fill="black" stroke="black" points="846.727,-608.375 836.166,-607.524 843.891,-614.775 846.727,-608.375"/>
</g>
<!-- CB Unix 2 -->
<g id="node37" class="node"><title>CB Unix 2</title>
<ellipse fill="#b2dfee" stroke="#b2dfee" cx="965.897" cy="-522" rx="50" ry="18"/>
<text text-anchor="middle" x="965.897" y="-518.3" font-family="Times,serif" font-size="14.00">CB Unix 2</text>
</g>
<!-- CB Unix 1&#45;&gt;CB Unix 2 -->
<g id="edge41" class="edge"><title>CB Unix 1&#45;&gt;CB Unix 2</title>
<path fill="none" stroke="black" d="M965.897,-575.697C965.897,-567.983 965.897,-558.712 965.897,-550.112"/>
<polygon fill="black" stroke="black" points="969.397,-550.104 965.897,-540.104 962.397,-550.104 969.397,-550.104"/>
</g>
<!-- USG 3.0 -->
<g id="node41" class="node"><title>USG 3.0</title>
<ellipse fill="#b2dfee" stroke="#b2dfee" cx="725.897" cy="-522" rx="42.5" ry="18"/>
<text text-anchor="middle" x="725.897" y="-518.3" font-family="Times,serif" font-size="14.00">USG 3.0</text>
</g>
<!-- USG 2.0&#45;&gt;USG 3.0 -->
<g id="edge45" class="edge"><title>USG 2.0&#45;&gt;USG 3.0</title>
<path fill="none" stroke="black" d="M789.699,-577.465C778.552,-567.949 764.108,-555.619 751.782,-545.097"/>
<polygon fill="black" stroke="black" points="753.923,-542.323 744.045,-538.492 749.378,-547.646 753.923,-542.323"/>
</g>
<!-- CB Unix 3 -->
<g id="node38" class="node"><title>CB Unix 3</title>
<ellipse fill="#b2dfee" stroke="#b2dfee" cx="907.897" cy="-450" rx="50" ry="18"/>
<text text-anchor="middle" x="907.897" y="-446.3" font-family="Times,serif" font-size="14.00">CB Unix 3</text>
</g>
<!-- CB Unix 2&#45;&gt;CB Unix 3 -->
<g id="edge42" class="edge"><title>CB Unix 2&#45;&gt;CB Unix 3</title>
<path fill="none" stroke="black" d="M952.152,-504.411C944.929,-495.693 935.941,-484.845 927.955,-475.208"/>
<polygon fill="black" stroke="black" points="930.619,-472.937 921.544,-467.47 925.229,-477.403 930.619,-472.937"/>
</g>
<!-- Unix/TS++ -->
<g id="node39" class="node"><title>Unix/TS++</title>
<ellipse fill="#b2dfee" stroke="#b2dfee" cx="891.897" cy="-378" rx="52.5" ry="18"/>
<text text-anchor="middle" x="891.897" y="-374.3" font-family="Times,serif" font-size="14.00">Unix/TS++</text>
</g>
<!-- CB Unix 3&#45;&gt;Unix/TS++ -->
<g id="edge43" class="edge"><title>CB Unix 3&#45;&gt;Unix/TS++</title>
<path fill="none" stroke="black" d="M903.942,-431.697C902.179,-423.983 900.06,-414.712 898.094,-406.112"/>
<polygon fill="black" stroke="black" points="901.447,-405.073 895.807,-396.104 894.623,-406.633 901.447,-405.073"/>
</g>
<!-- PDP&#45;11 Sys V -->
<g id="node40" class="node"><title>PDP&#45;11 Sys V</title>
<ellipse fill="#b2dfee" stroke="#b2dfee" cx="1025.9" cy="-378" rx="63.5" ry="18"/>
<text text-anchor="middle" x="1025.9" y="-374.3" font-family="Times,serif" font-size="14.00">PDP&#45;11 Sys V</text>
</g>
<!-- CB Unix 3&#45;&gt;PDP&#45;11 Sys V -->
<g id="edge44" class="edge"><title>CB Unix 3&#45;&gt;PDP&#45;11 Sys V</title>
<path fill="none" stroke="black" d="M932.634,-434.326C949.476,-424.334 972.02,-410.961 990.723,-399.866"/>
<polygon fill="black" stroke="black" points="992.74,-402.739 999.555,-394.627 989.168,-396.719 992.74,-402.739"/>
</g>
<!-- CB Unix 3&#45;&gt;TS 4.0 -->
<g id="edge51" class="edge"><title>CB Unix 3&#45;&gt;TS 4.0</title>
<path fill="none" stroke="black" d="M877.67,-435.541C861.094,-426.638 841.594,-413.388 829.897,-396 817.603,-377.723 813.065,-352.958 811.481,-334.192"/>
<polygon fill="black" stroke="black" points="814.973,-333.962 810.863,-324.197 807.986,-334.393 814.973,-333.962"/>
</g>
<!-- Unix/TS++&#45;&gt;TS 4.0 -->
<g id="edge50" class="edge"><title>Unix/TS++&#45;&gt;TS 4.0</title>
<path fill="none" stroke="black" d="M873.517,-361.116C862.337,-351.454 847.912,-338.988 835.725,-328.456"/>
<polygon fill="black" stroke="black" points="837.952,-325.754 828.097,-321.864 833.375,-331.051 837.952,-325.754"/>
</g>
<!-- USG 3.0&#45;&gt;Unix/TS 3.0 -->
<g id="edge46" class="edge"><title>USG 3.0&#45;&gt;Unix/TS 3.0</title>
<path fill="none" stroke="black" d="M725.897,-503.697C725.897,-495.983 725.897,-486.712 725.897,-478.112"/>
<polygon fill="black" stroke="black" points="729.397,-478.104 725.897,-468.104 722.397,-478.104 729.397,-478.104"/>
</g>
<!-- Unix/TS 1.0 -->
<g id="node42" class="node"><title>Unix/TS 1.0</title>
<ellipse fill="#b2dfee" stroke="#b2dfee" cx="841.897" cy="-522" rx="55.5" ry="18"/>
<text text-anchor="middle" x="841.897" y="-518.3" font-family="Times,serif" font-size="14.00">Unix/TS 1.0</text>
</g>
<!-- Unix/TS 1.0&#45;&gt;Unix/TS 3.0 -->
<g id="edge48" class="edge"><title>Unix/TS 1.0&#45;&gt;Unix/TS 3.0</title>
<path fill="none" stroke="black" d="M816.727,-505.811C800.006,-495.721 777.857,-482.355 759.618,-471.348"/>
<polygon fill="black" stroke="black" points="761.389,-468.329 751.018,-466.159 757.772,-474.323 761.389,-468.329"/>
</g>
<!-- System V.0 -->
<g id="node44" class="node"><title>System V.0</title>
<ellipse fill="#b2dfee" stroke="#b2dfee" cx="810.897" cy="-234" rx="53" ry="18"/>
<text text-anchor="middle" x="810.897" y="-230.3" font-family="Times,serif" font-size="14.00">System V.0</text>
</g>
<!-- TS 4.0&#45;&gt;System V.0 -->
<g id="edge52" class="edge"><title>TS 4.0&#45;&gt;System V.0</title>
<path fill="none" stroke="black" d="M810.897,-287.697C810.897,-279.983 810.897,-270.712 810.897,-262.112"/>
<polygon fill="black" stroke="black" points="814.397,-262.104 810.897,-252.104 807.397,-262.104 814.397,-262.104"/>
</g>
<!-- System V.2 -->
<g id="node45" class="node"><title>System V.2</title>
<ellipse fill="#b2dfee" stroke="#b2dfee" cx="810.897" cy="-162" rx="53" ry="18"/>
<text text-anchor="middle" x="810.897" y="-158.3" font-family="Times,serif" font-size="14.00">System V.2</text>
</g>
<!-- System V.0&#45;&gt;System V.2 -->
<g id="edge53" class="edge"><title>System V.0&#45;&gt;System V.2</title>
<path fill="none" stroke="black" d="M810.897,-215.697C810.897,-207.983 810.897,-198.712 810.897,-190.112"/>
<polygon fill="black" stroke="black" points="814.397,-190.104 810.897,-180.104 807.397,-190.104 814.397,-190.104"/>
</g>
<!-- System V.3 -->
<g id="node46" class="node"><title>System V.3</title>
<ellipse fill="#b2dfee" stroke="#b2dfee" cx="810.897" cy="-90" rx="53" ry="18"/>
<text text-anchor="middle" x="810.897" y="-86.3" font-family="Times,serif" font-size="14.00">System V.3</text>
</g>
<!-- System V.2&#45;&gt;System V.3 -->
<g id="edge54" class="edge"><title>System V.2&#45;&gt;System V.3</title>
<path fill="none" stroke="black" d="M810.897,-143.697C810.897,-135.983 810.897,-126.712 810.897,-118.112"/>
<polygon fill="black" stroke="black" points="814.397,-118.104 810.897,-108.104 807.397,-118.104 814.397,-118.104"/>
</g>
<!-- System V.4 -->
<g id="node47" class="node"><title>System V.4</title>
<ellipse fill="#b2dfee" stroke="#b2dfee" cx="810.897" cy="-18" rx="53" ry="18"/>
<text text-anchor="middle" x="810.897" y="-14.3" font-family="Times,serif" font-size="14.00">System V.4</text>
</g>
<!-- System V.3&#45;&gt;System V.4 -->
<g id="edge55" class="edge"><title>System V.3&#45;&gt;System V.4</title>
<path fill="none" stroke="black" d="M810.897,-71.6966C810.897,-63.9827 810.897,-54.7125 810.897,-46.1124"/>
<polygon fill="black" stroke="black" points="814.397,-46.1043 810.897,-36.1043 807.397,-46.1044 814.397,-46.1043"/>
</g>
</g>
</svg>
