<?xml version="1.0" encoding="UTF-8" standalone="no"?>
<!DOCTYPE svg PUBLIC "-//W3C//DTD SVG 1.1//EN"
 "http://www.w3.org/Graphics/SVG/1.1/DTD/svg11.dtd">
<!-- Generated by graphviz version 2.38.0 (20140413.2041)
 -->
<!-- Title: world Pages: 1 -->
<svg width="504pt" height="281pt"
 viewBox="0.00 0.00 504.00 281.26" xmlns="http://www.w3.org/2000/svg" xmlns:xlink="http://www.w3.org/1999/xlink">
<g id="graph0" class="graph" transform="scale(0.453645 0.453645) rotate(0) translate(4 616)">
<title>world</title>
<polygon fill="white" stroke="none" points="-4,4 -4,-616 1107,-616 1107,4 -4,4"/>
<!-- S8 -->
<g id="node1" class="node"><title>S8</title>
<ellipse fill="none" stroke="black" cx="192" cy="-594" rx="27" ry="18"/>
<text text-anchor="middle" x="192" y="-590.3" font-family="Times,serif" font-size="14.00">S8</text>
</g>
<!-- 9 -->
<g id="node17" class="node"><title>9</title>
<ellipse fill="none" stroke="black" cx="192" cy="-450" rx="27" ry="18"/>
<text text-anchor="middle" x="192" y="-446.3" font-family="Times,serif" font-size="14.00">9</text>
</g>
<!-- S8&#45;&gt;9 -->
<g id="edge1" class="edge"><title>S8&#45;&gt;9</title>
<path fill="none" stroke="black" d="M192,-575.871C192,-551.67 192,-507.211 192,-478.393"/>
<polygon fill="black" stroke="black" points="195.5,-478.189 192,-468.189 188.5,-478.189 195.5,-478.189"/>
</g>
<!-- S24 -->
<g id="node2" class="node"><title>S24</title>
<ellipse fill="none" stroke="black" cx="50" cy="-594" rx="27" ry="18"/>
<text text-anchor="middle" x="50" y="-590.3" font-family="Times,serif" font-size="14.00">S24</text>
</g>
<!-- 25 -->
<g id="node16" class="node"><title>25</title>
<ellipse fill="none" stroke="black" cx="82" cy="-450" rx="27" ry="18"/>
<text text-anchor="middle" x="82" y="-446.3" font-family="Times,serif" font-size="14.00">25</text>
</g>
<!-- S24&#45;&gt;25 -->
<g id="edge2" class="edge"><title>S24&#45;&gt;25</title>
<path fill="none" stroke="black" d="M53.7965,-576.153C59.2816,-551.813 69.4776,-506.568 75.991,-477.665"/>
<polygon fill="black" stroke="black" points="79.4244,-478.35 78.2085,-467.825 72.5956,-476.811 79.4244,-478.35"/>
</g>
<!-- 27 -->
<g id="node40" class="node"><title>27</title>
<ellipse fill="none" stroke="black" cx="27" cy="-234" rx="27" ry="18"/>
<text text-anchor="middle" x="27" y="-230.3" font-family="Times,serif" font-size="14.00">27</text>
</g>
<!-- S24&#45;&gt;27 -->
<g id="edge3" class="edge"><title>S24&#45;&gt;27</title>
<path fill="none" stroke="black" d="M45.4559,-576.094C38.753,-549.627 27,-496.703 27,-451 27,-451 27,-451 27,-377 27,-336.996 27,-290.653 27,-262.08"/>
<polygon fill="black" stroke="black" points="30.5001,-262.049 27,-252.049 23.5001,-262.049 30.5001,-262.049"/>
</g>
<!-- S1 -->
<g id="node3" class="node"><title>S1</title>
<ellipse fill="none" stroke="black" cx="769" cy="-594" rx="27" ry="18"/>
<text text-anchor="middle" x="769" y="-590.3" font-family="Times,serif" font-size="14.00">S1</text>
</g>
<!-- 10 -->
<g id="node14" class="node"><title>10</title>
<ellipse fill="none" stroke="black" cx="879" cy="-522" rx="27" ry="18"/>
<text text-anchor="middle" x="879" y="-518.3" font-family="Times,serif" font-size="14.00">10</text>
</g>
<!-- S1&#45;&gt;10 -->
<g id="edge5" class="edge"><title>S1&#45;&gt;10</title>
<path fill="none" stroke="black" d="M788.161,-580.807C805.669,-569.665 831.759,-553.062 851.493,-540.504"/>
<polygon fill="black" stroke="black" points="853.501,-543.375 860.059,-535.053 849.743,-537.469 853.501,-543.375"/>
</g>
<!-- 2 -->
<g id="node15" class="node"><title>2</title>
<ellipse fill="none" stroke="black" cx="660" cy="-522" rx="27" ry="18"/>
<text text-anchor="middle" x="660" y="-518.3" font-family="Times,serif" font-size="14.00">2</text>
</g>
<!-- S1&#45;&gt;2 -->
<g id="edge4" class="edge"><title>S1&#45;&gt;2</title>
<path fill="none" stroke="black" d="M750.014,-580.807C732.665,-569.665 706.811,-553.062 687.257,-540.504"/>
<polygon fill="black" stroke="black" points="689.074,-537.512 678.769,-535.053 685.292,-543.402 689.074,-537.512"/>
</g>
<!-- S35 -->
<g id="node4" class="node"><title>S35</title>
<ellipse fill="none" stroke="black" cx="291" cy="-594" rx="27" ry="18"/>
<text text-anchor="middle" x="291" y="-590.3" font-family="Times,serif" font-size="14.00">S35</text>
</g>
<!-- 43 -->
<g id="node11" class="node"><title>43</title>
<ellipse fill="none" stroke="black" cx="319" cy="-522" rx="27" ry="18"/>
<text text-anchor="middle" x="319" y="-518.3" font-family="Times,serif" font-size="14.00">43</text>
</g>
<!-- S35&#45;&gt;43 -->
<g id="edge6" class="edge"><title>S35&#45;&gt;43</title>
<path fill="none" stroke="black" d="M297.636,-576.411C300.913,-568.216 304.944,-558.14 308.618,-548.955"/>
<polygon fill="black" stroke="black" points="311.948,-550.055 312.412,-539.47 305.448,-547.455 311.948,-550.055"/>
</g>
<!-- 36 -->
<g id="node13" class="node"><title>36</title>
<ellipse fill="none" stroke="black" cx="247" cy="-522" rx="27" ry="18"/>
<text text-anchor="middle" x="247" y="-518.3" font-family="Times,serif" font-size="14.00">36</text>
</g>
<!-- S35&#45;&gt;36 -->
<g id="edge7" class="edge"><title>S35&#45;&gt;36</title>
<path fill="none" stroke="black" d="M281.016,-577.116C275.503,-568.345 268.537,-557.264 262.347,-547.416"/>
<polygon fill="black" stroke="black" points="265.23,-545.425 256.945,-538.821 259.303,-549.15 265.23,-545.425"/>
</g>
<!-- S30 -->
<g id="node5" class="node"><title>S30</title>
<ellipse fill="none" stroke="black" cx="1044" cy="-594" rx="27" ry="18"/>
<text text-anchor="middle" x="1044" y="-590.3" font-family="Times,serif" font-size="14.00">S30</text>
</g>
<!-- 33 -->
<g id="node28" class="node"><title>33</title>
<ellipse fill="none" stroke="black" cx="1076" cy="-378" rx="27" ry="18"/>
<text text-anchor="middle" x="1076" y="-374.3" font-family="Times,serif" font-size="14.00">33</text>
</g>
<!-- S30&#45;&gt;33 -->
<g id="edge9" class="edge"><title>S30&#45;&gt;33</title>
<path fill="none" stroke="black" d="M1046.56,-575.849C1052.11,-538.74 1065.27,-450.747 1071.95,-406.054"/>
<polygon fill="black" stroke="black" points="1075.45,-406.343 1073.47,-395.935 1068.53,-405.308 1075.45,-406.343"/>
</g>
<!-- 31 -->
<g id="node34" class="node"><title>31</title>
<ellipse fill="none" stroke="black" cx="1021" cy="-306" rx="27" ry="18"/>
<text text-anchor="middle" x="1021" y="-302.3" font-family="Times,serif" font-size="14.00">31</text>
</g>
<!-- S30&#45;&gt;31 -->
<g id="edge8" class="edge"><title>S30&#45;&gt;31</title>
<path fill="none" stroke="black" d="M1042.63,-575.966C1038.8,-528.291 1027.93,-393.185 1023.22,-334.63"/>
<polygon fill="black" stroke="black" points="1026.68,-333.994 1022.39,-324.306 1019.7,-334.555 1026.68,-333.994"/>
</g>
<!-- T8 -->
<g id="node6" class="node"><title>T8</title>
<ellipse fill="none" stroke="black" cx="293" cy="-18" rx="27" ry="18"/>
<text text-anchor="middle" x="293" y="-14.3" font-family="Times,serif" font-size="14.00">T8</text>
</g>
<!-- T24 -->
<g id="node7" class="node"><title>T24</title>
<ellipse fill="none" stroke="black" cx="122" cy="-18" rx="27" ry="18"/>
<text text-anchor="middle" x="122" y="-14.3" font-family="Times,serif" font-size="14.00">T24</text>
</g>
<!-- T1 -->
<g id="node8" class="node"><title>T1</title>
<ellipse fill="none" stroke="black" cx="557" cy="-18" rx="27" ry="18"/>
<text text-anchor="middle" x="557" y="-14.3" font-family="Times,serif" font-size="14.00">T1</text>
</g>
<!-- T35 -->
<g id="node9" class="node"><title>T35</title>
<ellipse fill="none" stroke="black" cx="365" cy="-18" rx="27" ry="18"/>
<text text-anchor="middle" x="365" y="-14.3" font-family="Times,serif" font-size="14.00">T35</text>
</g>
<!-- T30 -->
<g id="node10" class="node"><title>T30</title>
<ellipse fill="none" stroke="black" cx="907" cy="-18" rx="27" ry="18"/>
<text text-anchor="middle" x="907" y="-14.3" font-family="Times,serif" font-size="14.00">T30</text>
</g>
<!-- 38 -->
<g id="node18" class="node"><title>38</title>
<ellipse fill="none" stroke="black" cx="302" cy="-450" rx="27" ry="18"/>
<text text-anchor="middle" x="302" y="-446.3" font-family="Times,serif" font-size="14.00">38</text>
</g>
<!-- 43&#45;&gt;38 -->
<g id="edge43" class="edge"><title>43&#45;&gt;38</title>
<path fill="none" stroke="black" d="M314.885,-504.055C312.992,-496.261 310.7,-486.822 308.576,-478.079"/>
<polygon fill="black" stroke="black" points="311.957,-477.167 306.195,-468.275 305.154,-478.819 311.957,-477.167"/>
</g>
<!-- 40 -->
<g id="node19" class="node"><title>40</title>
<ellipse fill="none" stroke="black" cx="374" cy="-450" rx="27" ry="18"/>
<text text-anchor="middle" x="374" y="-446.3" font-family="Times,serif" font-size="14.00">40</text>
</g>
<!-- 43&#45;&gt;40 -->
<g id="edge44" class="edge"><title>43&#45;&gt;40</title>
<path fill="none" stroke="black" d="M330.934,-505.811C338.214,-496.546 347.663,-484.52 355.854,-474.094"/>
<polygon fill="black" stroke="black" points="358.663,-476.185 362.089,-466.159 353.159,-471.86 358.663,-476.185"/>
</g>
<!-- 37 -->
<g id="node12" class="node"><title>37</title>
<ellipse fill="none" stroke="black" cx="410" cy="-522" rx="27" ry="18"/>
<text text-anchor="middle" x="410" y="-518.3" font-family="Times,serif" font-size="14.00">37</text>
</g>
<!-- 37&#45;&gt;38 -->
<g id="edge37" class="edge"><title>37&#45;&gt;38</title>
<path fill="none" stroke="black" d="M391.188,-508.807C373.998,-497.665 348.382,-481.062 329.007,-468.504"/>
<polygon fill="black" stroke="black" points="330.892,-465.555 320.597,-463.053 327.084,-471.429 330.892,-465.555"/>
</g>
<!-- 37&#45;&gt;40 -->
<g id="edge38" class="edge"><title>37&#45;&gt;40</title>
<path fill="none" stroke="black" d="M401.65,-504.765C397.288,-496.283 391.853,-485.714 386.959,-476.197"/>
<polygon fill="black" stroke="black" points="389.99,-474.439 382.304,-467.147 383.765,-477.641 389.99,-474.439"/>
</g>
<!-- 39 -->
<g id="node30" class="node"><title>39</title>
<ellipse fill="none" stroke="black" cx="357" cy="-378" rx="27" ry="18"/>
<text text-anchor="middle" x="357" y="-374.3" font-family="Times,serif" font-size="14.00">39</text>
</g>
<!-- 37&#45;&gt;39 -->
<g id="edge39" class="edge"><title>37&#45;&gt;39</title>
<path fill="none" stroke="black" d="M413.757,-503.849C416.97,-485.353 419.697,-455.411 410,-432 404.444,-418.588 393.666,-406.8 383.271,-397.768"/>
<polygon fill="black" stroke="black" points="385.45,-395.029 375.49,-391.417 381.024,-400.452 385.45,-395.029"/>
</g>
<!-- 41 -->
<g id="node37" class="node"><title>41</title>
<ellipse fill="none" stroke="black" cx="602" cy="-306" rx="27" ry="18"/>
<text text-anchor="middle" x="602" y="-302.3" font-family="Times,serif" font-size="14.00">41</text>
</g>
<!-- 37&#45;&gt;41 -->
<g id="edge40" class="edge"><title>37&#45;&gt;41</title>
<path fill="none" stroke="black" d="M418.473,-504.894C435.213,-474.118 475.008,-405.938 522,-360 536.938,-345.397 556.436,-332.384 572.442,-322.907"/>
<polygon fill="black" stroke="black" points="574.481,-325.772 581.402,-317.75 570.989,-319.705 574.481,-325.772"/>
</g>
<!-- 19 -->
<g id="node29" class="node"><title>19</title>
<ellipse fill="none" stroke="black" cx="429" cy="-378" rx="27" ry="18"/>
<text text-anchor="middle" x="429" y="-374.3" font-family="Times,serif" font-size="14.00">19</text>
</g>
<!-- 36&#45;&gt;19 -->
<g id="edge45" class="edge"><title>36&#45;&gt;19</title>
<path fill="none" stroke="black" d="M245.769,-503.903C245.316,-484.035 247.752,-451.492 266,-432 306.096,-389.171 338.066,-416.596 393,-396 394.844,-395.308 396.724,-394.56 398.609,-393.776"/>
<polygon fill="black" stroke="black" points="400.196,-396.902 407.93,-389.66 397.368,-390.498 400.196,-396.902"/>
</g>
<!-- 10&#45;&gt;T1 -->
<g id="edge20" class="edge"><title>10&#45;&gt;T1</title>
<path fill="none" stroke="black" d="M893.219,-506.437C913.31,-484.625 948.809,-441.181 960,-396 963.847,-380.469 967.083,-374.347 960,-360 948.352,-336.406 927.06,-346.241 913,-324 891.387,-289.812 894,-275.447 894,-235 894,-235 894,-235 894,-161 894,-31.9665 681.597,-18.313 594.044,-18.166"/>
<polygon fill="black" stroke="black" points="593.994,-14.6661 584.008,-18.2082 594.023,-21.6661 593.994,-14.6661"/>
</g>
<!-- 13 -->
<g id="node20" class="node"><title>13</title>
<ellipse fill="none" stroke="black" cx="780" cy="-450" rx="27" ry="18"/>
<text text-anchor="middle" x="780" y="-446.3" font-family="Times,serif" font-size="14.00">13</text>
</g>
<!-- 10&#45;&gt;13 -->
<g id="edge21" class="edge"><title>10&#45;&gt;13</title>
<path fill="none" stroke="black" d="M860.842,-508.161C845.631,-497.405 823.711,-481.907 806.533,-469.761"/>
<polygon fill="black" stroke="black" points="808.229,-466.673 798.043,-463.758 804.187,-472.389 808.229,-466.673"/>
</g>
<!-- 12 -->
<g id="node22" class="node"><title>12</title>
<ellipse fill="none" stroke="black" cx="852" cy="-450" rx="27" ry="18"/>
<text text-anchor="middle" x="852" y="-446.3" font-family="Times,serif" font-size="14.00">12</text>
</g>
<!-- 10&#45;&gt;12 -->
<g id="edge22" class="edge"><title>10&#45;&gt;12</title>
<path fill="none" stroke="black" d="M872.601,-504.411C869.486,-496.335 865.666,-486.431 862.165,-477.355"/>
<polygon fill="black" stroke="black" points="865.405,-476.027 858.54,-467.956 858.874,-478.546 865.405,-476.027"/>
</g>
<!-- 11 -->
<g id="node26" class="node"><title>11</title>
<ellipse fill="none" stroke="black" cx="847" cy="-378" rx="27" ry="18"/>
<text text-anchor="middle" x="847" y="-374.3" font-family="Times,serif" font-size="14.00">11</text>
</g>
<!-- 10&#45;&gt;11 -->
<g id="edge23" class="edge"><title>10&#45;&gt;11</title>
<path fill="none" stroke="black" d="M884.842,-504.117C890.225,-485.849 896.234,-456.102 888,-432 884.084,-420.537 876.571,-409.631 869.034,-400.725"/>
<polygon fill="black" stroke="black" points="871.503,-398.236 862.209,-393.15 866.302,-402.922 871.503,-398.236"/>
</g>
<!-- 14 -->
<g id="node31" class="node"><title>14</title>
<ellipse fill="none" stroke="black" cx="924" cy="-378" rx="27" ry="18"/>
<text text-anchor="middle" x="924" y="-374.3" font-family="Times,serif" font-size="14.00">14</text>
</g>
<!-- 10&#45;&gt;14 -->
<g id="edge24" class="edge"><title>10&#45;&gt;14</title>
<path fill="none" stroke="black" d="M887.843,-504.681C893.127,-494.395 899.637,-480.701 904,-468 910.978,-447.687 916.176,-423.918 919.521,-406.056"/>
<polygon fill="black" stroke="black" points="922.997,-406.498 921.32,-396.037 916.108,-405.261 922.997,-406.498"/>
</g>
<!-- 2&#45;&gt;T1 -->
<g id="edge15" class="edge"><title>2&#45;&gt;T1</title>
<path fill="none" stroke="black" d="M670.552,-505.414C692.699,-471.141 742,-385.977 742,-307 742,-307 742,-307 742,-161 742,-86.0668 645.312,-45.2629 591.734,-28.4046"/>
<polygon fill="black" stroke="black" points="592.535,-24.9902 581.95,-25.4408 590.506,-31.6896 592.535,-24.9902"/>
</g>
<!-- 17 -->
<g id="node21" class="node"><title>17</title>
<ellipse fill="none" stroke="black" cx="522" cy="-450" rx="27" ry="18"/>
<text text-anchor="middle" x="522" y="-446.3" font-family="Times,serif" font-size="14.00">17</text>
</g>
<!-- 2&#45;&gt;17 -->
<g id="edge16" class="edge"><title>2&#45;&gt;17</title>
<path fill="none" stroke="black" d="M639.041,-510.369C615.94,-498.651 578.577,-479.698 552.292,-466.366"/>
<polygon fill="black" stroke="black" points="553.658,-463.134 543.156,-461.732 550.491,-469.377 553.658,-463.134"/>
</g>
<!-- 18 -->
<g id="node23" class="node"><title>18</title>
<ellipse fill="none" stroke="black" cx="632" cy="-450" rx="27" ry="18"/>
<text text-anchor="middle" x="632" y="-446.3" font-family="Times,serif" font-size="14.00">18</text>
</g>
<!-- 2&#45;&gt;18 -->
<g id="edge17" class="edge"><title>2&#45;&gt;18</title>
<path fill="none" stroke="black" d="M653.364,-504.411C650.087,-496.216 646.056,-486.14 642.382,-476.955"/>
<polygon fill="black" stroke="black" points="645.552,-475.455 638.588,-467.47 639.052,-478.055 645.552,-475.455"/>
</g>
<!-- 3 -->
<g id="node27" class="node"><title>3</title>
<ellipse fill="none" stroke="black" cx="558" cy="-378" rx="27" ry="18"/>
<text text-anchor="middle" x="558" y="-374.3" font-family="Times,serif" font-size="14.00">3</text>
</g>
<!-- 2&#45;&gt;3 -->
<g id="edge18" class="edge"><title>2&#45;&gt;3</title>
<path fill="none" stroke="black" d="M641.105,-509.001C627.125,-499.335 608.428,-484.646 596,-468 581.922,-449.144 571.874,-424.28 565.66,-405.626"/>
<polygon fill="black" stroke="black" points="568.96,-404.454 562.601,-395.979 562.287,-406.57 568.96,-404.454"/>
</g>
<!-- 16 -->
<g id="node32" class="node"><title>16</title>
<ellipse fill="none" stroke="black" cx="687" cy="-378" rx="27" ry="18"/>
<text text-anchor="middle" x="687" y="-374.3" font-family="Times,serif" font-size="14.00">16</text>
</g>
<!-- 2&#45;&gt;16 -->
<g id="edge19" class="edge"><title>2&#45;&gt;16</title>
<path fill="none" stroke="black" d="M663.257,-503.871C667.858,-479.67 676.312,-435.211 681.791,-406.393"/>
<polygon fill="black" stroke="black" points="685.302,-406.667 683.732,-396.189 678.425,-405.359 685.302,-406.667"/>
</g>
<!-- 25&#45;&gt;T1 -->
<g id="edge12" class="edge"><title>25&#45;&gt;T1</title>
<path fill="none" stroke="black" d="M82,-431.951C82,-405.292 82,-352.115 82,-307 82,-307 82,-307 82,-161 82,-92.0753 145.023,-97.6421 209,-72 237.628,-60.5259 437.492,-34.1922 520.739,-23.5683"/>
<polygon fill="black" stroke="black" points="521.279,-27.0278 530.757,-22.2937 520.396,-20.0838 521.279,-27.0278"/>
</g>
<!-- 26 -->
<g id="node24" class="node"><title>26</title>
<ellipse fill="none" stroke="black" cx="137" cy="-378" rx="27" ry="18"/>
<text text-anchor="middle" x="137" y="-374.3" font-family="Times,serif" font-size="14.00">26</text>
</g>
<!-- 25&#45;&gt;26 -->
<g id="edge13" class="edge"><title>25&#45;&gt;26</title>
<path fill="none" stroke="black" d="M93.9342,-433.811C101.214,-424.546 110.663,-412.52 118.854,-402.094"/>
<polygon fill="black" stroke="black" points="121.663,-404.185 125.089,-394.159 116.159,-399.86 121.663,-404.185"/>
</g>
<!-- 9&#45;&gt;T1 -->
<g id="edge11" class="edge"><title>9&#45;&gt;T1</title>
<path fill="none" stroke="black" d="M192,-431.951C192,-405.292 192,-352.115 192,-307 192,-307 192,-307 192,-161 192,-109.558 221.58,-97.9464 266,-72 308.616,-47.1072 451.293,-29.7159 519.745,-22.595"/>
<polygon fill="black" stroke="black" points="520.474,-26.0388 530.067,-21.5407 519.763,-19.075 520.474,-26.0388"/>
</g>
<!-- 42 -->
<g id="node25" class="node"><title>42</title>
<ellipse fill="none" stroke="black" cx="247" cy="-378" rx="27" ry="18"/>
<text text-anchor="middle" x="247" y="-374.3" font-family="Times,serif" font-size="14.00">42</text>
</g>
<!-- 9&#45;&gt;42 -->
<g id="edge10" class="edge"><title>9&#45;&gt;42</title>
<path fill="none" stroke="black" d="M203.934,-433.811C211.214,-424.546 220.663,-412.52 228.854,-402.094"/>
<polygon fill="black" stroke="black" points="231.663,-404.185 235.089,-394.159 226.159,-399.86 231.663,-404.185"/>
</g>
<!-- 4 -->
<g id="node33" class="node"><title>4</title>
<ellipse fill="none" stroke="black" cx="276" cy="-306" rx="27" ry="18"/>
<text text-anchor="middle" x="276" y="-302.3" font-family="Times,serif" font-size="14.00">4</text>
</g>
<!-- 38&#45;&gt;4 -->
<g id="edge50" class="edge"><title>38&#45;&gt;4</title>
<path fill="none" stroke="black" d="M298.864,-431.871C294.433,-407.67 286.292,-363.211 281.016,-334.393"/>
<polygon fill="black" stroke="black" points="284.391,-333.395 279.147,-324.189 277.506,-334.656 284.391,-333.395"/>
</g>
<!-- 40&#45;&gt;19 -->
<g id="edge51" class="edge"><title>40&#45;&gt;19</title>
<path fill="none" stroke="black" d="M385.934,-433.811C393.214,-424.546 402.663,-412.52 410.854,-402.094"/>
<polygon fill="black" stroke="black" points="413.663,-404.185 417.089,-394.159 408.159,-399.86 413.663,-404.185"/>
</g>
<!-- 13&#45;&gt;19 -->
<g id="edge41" class="edge"><title>13&#45;&gt;19</title>
<path fill="none" stroke="black" d="M754.474,-443.909C692.802,-431.61 535.56,-400.251 464.644,-386.109"/>
<polygon fill="black" stroke="black" points="464.922,-382.595 454.43,-384.072 463.552,-389.46 464.922,-382.595"/>
</g>
<!-- 17&#45;&gt;19 -->
<g id="edge33" class="edge"><title>17&#45;&gt;19</title>
<path fill="none" stroke="black" d="M504.507,-435.834C490.478,-425.274 470.584,-410.3 454.738,-398.373"/>
<polygon fill="black" stroke="black" points="456.509,-395.325 446.414,-392.107 452.299,-400.918 456.509,-395.325"/>
</g>
<!-- 29 -->
<g id="node44" class="node"><title>29</title>
<ellipse fill="none" stroke="black" cx="676" cy="-234" rx="27" ry="18"/>
<text text-anchor="middle" x="676" y="-230.3" font-family="Times,serif" font-size="14.00">29</text>
</g>
<!-- 12&#45;&gt;29 -->
<g id="edge42" class="edge"><title>12&#45;&gt;29</title>
<path fill="none" stroke="black" d="M839.624,-433.952C809.265,-397.039 730.955,-301.821 694.803,-257.863"/>
<polygon fill="black" stroke="black" points="697.418,-255.532 688.362,-250.031 692.011,-259.978 697.418,-255.532"/>
</g>
<!-- 18&#45;&gt;29 -->
<g id="edge34" class="edge"><title>18&#45;&gt;29</title>
<path fill="none" stroke="black" d="M635.526,-431.849C643.172,-394.662 661.325,-306.374 670.496,-261.772"/>
<polygon fill="black" stroke="black" points="673.932,-262.435 672.518,-251.935 667.076,-261.026 673.932,-262.435"/>
</g>
<!-- 26&#45;&gt;4 -->
<g id="edge30" class="edge"><title>26&#45;&gt;4</title>
<path fill="none" stroke="black" d="M157.81,-366.52C181.148,-354.767 219.207,-335.601 245.813,-322.202"/>
<polygon fill="black" stroke="black" points="247.691,-325.175 255.048,-317.551 244.542,-318.923 247.691,-325.175"/>
</g>
<!-- 42&#45;&gt;4 -->
<g id="edge29" class="edge"><title>42&#45;&gt;4</title>
<path fill="none" stroke="black" d="M253.873,-360.411C257.267,-352.216 261.442,-342.14 265.247,-332.955"/>
<polygon fill="black" stroke="black" points="268.583,-334.048 269.177,-323.47 262.116,-331.369 268.583,-334.048"/>
</g>
<!-- 11&#45;&gt;4 -->
<g id="edge35" class="edge"><title>11&#45;&gt;4</title>
<path fill="none" stroke="black" d="M820.912,-373.114C795.846,-369.454 756.885,-363.956 723,-360 557.576,-340.685 514.394,-350.701 350,-324 337.09,-321.903 323.072,-318.878 310.743,-315.959"/>
<polygon fill="black" stroke="black" points="311.389,-312.515 300.846,-313.555 309.737,-319.317 311.389,-312.515"/>
</g>
<!-- 3&#45;&gt;4 -->
<g id="edge31" class="edge"><title>3&#45;&gt;4</title>
<path fill="none" stroke="black" d="M532.974,-370.788C482.491,-358.257 368.368,-329.928 310.717,-315.618"/>
<polygon fill="black" stroke="black" points="311.518,-312.21 300.97,-313.198 309.832,-319.004 311.518,-312.21"/>
</g>
<!-- 33&#45;&gt;T30 -->
<g id="edge27" class="edge"><title>33&#45;&gt;T30</title>
<path fill="none" stroke="black" d="M1076,-359.951C1076,-333.292 1076,-280.115 1076,-235 1076,-235 1076,-235 1076,-161 1076,-90.9084 989.736,-48.4883 940.47,-29.9775"/>
<polygon fill="black" stroke="black" points="941.449,-26.6095 930.855,-26.4908 939.063,-33.1902 941.449,-26.6095"/>
</g>
<!-- 34 -->
<g id="node35" class="node"><title>34</title>
<ellipse fill="none" stroke="black" cx="949" cy="-306" rx="27" ry="18"/>
<text text-anchor="middle" x="949" y="-302.3" font-family="Times,serif" font-size="14.00">34</text>
</g>
<!-- 33&#45;&gt;34 -->
<g id="edge28" class="edge"><title>33&#45;&gt;34</title>
<path fill="none" stroke="black" d="M1055.88,-365.908C1035.01,-354.405 1002.16,-336.302 978.388,-323.198"/>
<polygon fill="black" stroke="black" points="979.897,-320.034 969.45,-318.272 976.518,-326.164 979.897,-320.034"/>
</g>
<!-- 21 -->
<g id="node36" class="node"><title>21</title>
<ellipse fill="none" stroke="black" cx="386" cy="-306" rx="27" ry="18"/>
<text text-anchor="middle" x="386" y="-302.3" font-family="Times,serif" font-size="14.00">21</text>
</g>
<!-- 19&#45;&gt;21 -->
<g id="edge53" class="edge"><title>19&#45;&gt;21</title>
<path fill="none" stroke="black" d="M419.243,-361.116C413.855,-352.345 407.048,-341.264 400.999,-331.416"/>
<polygon fill="black" stroke="black" points="403.935,-329.51 395.719,-322.821 397.971,-333.174 403.935,-329.51"/>
</g>
<!-- 28 -->
<g id="node38" class="node"><title>28</title>
<ellipse fill="none" stroke="black" cx="530" cy="-306" rx="27" ry="18"/>
<text text-anchor="middle" x="530" y="-302.3" font-family="Times,serif" font-size="14.00">28</text>
</g>
<!-- 19&#45;&gt;28 -->
<g id="edge54" class="edge"><title>19&#45;&gt;28</title>
<path fill="none" stroke="black" d="M447.057,-364.485C462.758,-353.603 485.715,-337.692 503.499,-325.367"/>
<polygon fill="black" stroke="black" points="505.534,-328.215 511.759,-319.642 501.546,-322.462 505.534,-328.215"/>
</g>
<!-- 20 -->
<g id="node39" class="node"><title>20</title>
<ellipse fill="none" stroke="black" cx="458" cy="-306" rx="27" ry="18"/>
<text text-anchor="middle" x="458" y="-302.3" font-family="Times,serif" font-size="14.00">20</text>
</g>
<!-- 19&#45;&gt;20 -->
<g id="edge55" class="edge"><title>19&#45;&gt;20</title>
<path fill="none" stroke="black" d="M435.873,-360.411C439.267,-352.216 443.442,-342.14 447.247,-332.955"/>
<polygon fill="black" stroke="black" points="450.583,-334.048 451.177,-323.47 444.116,-331.369 450.583,-334.048"/>
</g>
<!-- 15 -->
<g id="node45" class="node"><title>15</title>
<ellipse fill="none" stroke="black" cx="557" cy="-234" rx="27" ry="18"/>
<text text-anchor="middle" x="557" y="-230.3" font-family="Times,serif" font-size="14.00">15</text>
</g>
<!-- 39&#45;&gt;15 -->
<g id="edge48" class="edge"><title>39&#45;&gt;15</title>
<path fill="none" stroke="black" d="M349.691,-360.663C342.232,-341.232 333.844,-308.814 350,-288 370.685,-261.351 466.46,-245.817 520.189,-239.055"/>
<polygon fill="black" stroke="black" points="520.835,-242.502 530.339,-237.818 519.989,-235.553 520.835,-242.502"/>
</g>
<!-- 14&#45;&gt;15 -->
<g id="edge36" class="edge"><title>14&#45;&gt;15</title>
<path fill="none" stroke="black" d="M901.488,-367.538C895.493,-365.053 889.012,-362.398 883,-360 776.025,-317.322 648.258,-269.136 589.495,-247.129"/>
<polygon fill="black" stroke="black" points="590.599,-243.805 580.007,-243.578 588.146,-250.361 590.599,-243.805"/>
</g>
<!-- 16&#45;&gt;15 -->
<g id="edge32" class="edge"><title>16&#45;&gt;15</title>
<path fill="none" stroke="black" d="M680.75,-360.385C672.949,-341.272 658.141,-309.736 638,-288 623.677,-272.543 603.953,-259.513 587.554,-250.24"/>
<polygon fill="black" stroke="black" points="588.805,-246.936 578.349,-245.225 585.456,-253.083 588.805,-246.936"/>
</g>
<!-- 5 -->
<g id="node41" class="node"><title>5</title>
<ellipse fill="none" stroke="black" cx="298" cy="-234" rx="27" ry="18"/>
<text text-anchor="middle" x="298" y="-230.3" font-family="Times,serif" font-size="14.00">5</text>
</g>
<!-- 4&#45;&gt;5 -->
<g id="edge52" class="edge"><title>4&#45;&gt;5</title>
<path fill="none" stroke="black" d="M281.326,-288.055C283.839,-280.059 286.896,-270.331 289.703,-261.4"/>
<polygon fill="black" stroke="black" points="293.064,-262.378 292.723,-251.789 286.386,-260.28 293.064,-262.378"/>
</g>
<!-- 31&#45;&gt;T1 -->
<g id="edge25" class="edge"><title>31&#45;&gt;T1</title>
<path fill="none" stroke="black" d="M1018.59,-288.06C1011.28,-243.691 984.95,-123.937 908,-72 857.219,-37.7255 673.597,-24.7207 594.107,-20.6213"/>
<polygon fill="black" stroke="black" points="594.213,-17.1223 584.051,-20.1219 593.865,-24.1137 594.213,-17.1223"/>
</g>
<!-- 32 -->
<g id="node43" class="node"><title>32</title>
<ellipse fill="none" stroke="black" cx="957" cy="-234" rx="27" ry="18"/>
<text text-anchor="middle" x="957" y="-230.3" font-family="Times,serif" font-size="14.00">32</text>
</g>
<!-- 31&#45;&gt;32 -->
<g id="edge26" class="edge"><title>31&#45;&gt;32</title>
<path fill="none" stroke="black" d="M1007.43,-290.155C998.688,-280.596 987.166,-267.994 977.342,-257.249"/>
<polygon fill="black" stroke="black" points="979.884,-254.842 970.553,-249.824 974.718,-259.566 979.884,-254.842"/>
</g>
<!-- 34&#45;&gt;29 -->
<g id="edge47" class="edge"><title>34&#45;&gt;29</title>
<path fill="none" stroke="black" d="M924.292,-298.665C875.485,-286.15 766.603,-258.232 710.654,-243.886"/>
<polygon fill="black" stroke="black" points="711.405,-240.465 700.849,-241.372 709.667,-247.246 711.405,-240.465"/>
</g>
<!-- 22 -->
<g id="node42" class="node"><title>22</title>
<ellipse fill="none" stroke="black" cx="386" cy="-234" rx="27" ry="18"/>
<text text-anchor="middle" x="386" y="-230.3" font-family="Times,serif" font-size="14.00">22</text>
</g>
<!-- 21&#45;&gt;22 -->
<g id="edge59" class="edge"><title>21&#45;&gt;22</title>
<path fill="none" stroke="black" d="M386,-287.697C386,-279.983 386,-270.712 386,-262.112"/>
<polygon fill="black" stroke="black" points="389.5,-262.104 386,-252.104 382.5,-262.104 389.5,-262.104"/>
</g>
<!-- 41&#45;&gt;29 -->
<g id="edge49" class="edge"><title>41&#45;&gt;29</title>
<path fill="none" stroke="black" d="M616.975,-290.834C627.507,-280.872 641.782,-267.369 653.655,-256.137"/>
<polygon fill="black" stroke="black" points="656.188,-258.559 661.047,-249.144 651.377,-253.474 656.188,-258.559"/>
</g>
<!-- 28&#45;&gt;29 -->
<g id="edge61" class="edge"><title>28&#45;&gt;29</title>
<path fill="none" stroke="black" d="M551.23,-294.821C576.099,-282.898 617.484,-263.056 645.717,-249.519"/>
<polygon fill="black" stroke="black" points="647.241,-252.67 654.745,-245.191 644.214,-246.358 647.241,-252.67"/>
</g>
<!-- 20&#45;&gt;15 -->
<g id="edge60" class="edge"><title>20&#45;&gt;15</title>
<path fill="none" stroke="black" d="M476.158,-292.161C491.369,-281.405 513.289,-265.907 530.467,-253.761"/>
<polygon fill="black" stroke="black" points="532.813,-256.389 538.957,-247.758 528.771,-250.673 532.813,-256.389"/>
</g>
<!-- 27&#45;&gt;T24 -->
<g id="edge14" class="edge"><title>27&#45;&gt;T24</title>
<path fill="none" stroke="black" d="M28.3211,-215.886C31.3246,-185.179 40.6722,-119.503 68,-72 75.3078,-59.2971 86.5016,-47.6004 96.8066,-38.4454"/>
<polygon fill="black" stroke="black" points="99.0793,-41.1071 104.435,-31.9653 94.5473,-35.7723 99.0793,-41.1071"/>
</g>
<!-- 5&#45;&gt;T35 -->
<g id="edge56" class="edge"><title>5&#45;&gt;T35</title>
<path fill="none" stroke="black" d="M285.757,-217.815C278.45,-207.746 269.864,-193.875 266,-180 253.123,-133.759 241.337,-113.179 266,-72 269.943,-65.4171 306.479,-46.8857 334.028,-33.592"/>
<polygon fill="black" stroke="black" points="335.823,-36.6132 343.33,-29.1365 332.799,-30.3001 335.823,-36.6132"/>
</g>
<!-- 6 -->
<g id="node46" class="node"><title>6</title>
<ellipse fill="none" stroke="black" cx="302" cy="-162" rx="27" ry="18"/>
<text text-anchor="middle" x="302" y="-158.3" font-family="Times,serif" font-size="14.00">6</text>
</g>
<!-- 5&#45;&gt;6 -->
<g id="edge57" class="edge"><title>5&#45;&gt;6</title>
<path fill="none" stroke="black" d="M298.989,-215.697C299.43,-207.983 299.959,-198.712 300.451,-190.112"/>
<polygon fill="black" stroke="black" points="303.946,-190.288 301.023,-180.104 296.958,-189.888 303.946,-190.288"/>
</g>
<!-- 23 -->
<g id="node47" class="node"><title>23</title>
<ellipse fill="none" stroke="black" cx="420" cy="-162" rx="27" ry="18"/>
<text text-anchor="middle" x="420" y="-158.3" font-family="Times,serif" font-size="14.00">23</text>
</g>
<!-- 5&#45;&gt;23 -->
<g id="edge58" class="edge"><title>5&#45;&gt;23</title>
<path fill="none" stroke="black" d="M317.873,-221.597C337.812,-210.157 368.726,-192.42 391.321,-179.455"/>
<polygon fill="black" stroke="black" points="393.204,-182.41 400.136,-174.398 389.72,-176.339 393.204,-182.41"/>
</g>
<!-- 22&#45;&gt;T35 -->
<g id="edge64" class="edge"><title>22&#45;&gt;T35</title>
<path fill="none" stroke="black" d="M384.317,-215.849C380.684,-178.832 372.083,-91.1809 367.687,-46.3863"/>
<polygon fill="black" stroke="black" points="371.151,-45.8428 366.691,-36.2325 364.184,-46.5265 371.151,-45.8428"/>
</g>
<!-- 22&#45;&gt;23 -->
<g id="edge65" class="edge"><title>22&#45;&gt;23</title>
<path fill="none" stroke="black" d="M393.886,-216.765C397.904,-208.491 402.887,-198.232 407.42,-188.9"/>
<polygon fill="black" stroke="black" points="410.7,-190.158 411.921,-179.633 404.404,-187.099 410.7,-190.158"/>
</g>
<!-- 32&#45;&gt;23 -->
<g id="edge46" class="edge"><title>32&#45;&gt;23</title>
<path fill="none" stroke="black" d="M930.736,-229.576C842.674,-218.097 557.728,-180.953 456.278,-167.729"/>
<polygon fill="black" stroke="black" points="456.582,-164.239 446.214,-166.417 455.677,-171.18 456.582,-164.239"/>
</g>
<!-- 29&#45;&gt;T30 -->
<g id="edge66" class="edge"><title>29&#45;&gt;T30</title>
<path fill="none" stroke="black" d="M691.157,-218.959C730.723,-182.304 837.309,-83.5624 884.262,-40.0647"/>
<polygon fill="black" stroke="black" points="886.83,-42.4564 891.788,-33.0928 882.073,-37.3213 886.83,-42.4564"/>
</g>
<!-- 15&#45;&gt;T1 -->
<g id="edge63" class="edge"><title>15&#45;&gt;T1</title>
<path fill="none" stroke="black" d="M557,-215.849C557,-178.832 557,-91.1809 557,-46.3863"/>
<polygon fill="black" stroke="black" points="560.5,-46.2324 557,-36.2325 553.5,-46.2325 560.5,-46.2324"/>
</g>
<!-- 7 -->
<g id="node48" class="node"><title>7</title>
<ellipse fill="none" stroke="black" cx="302" cy="-90" rx="27" ry="18"/>
<text text-anchor="middle" x="302" y="-86.3" font-family="Times,serif" font-size="14.00">7</text>
</g>
<!-- 6&#45;&gt;7 -->
<g id="edge62" class="edge"><title>6&#45;&gt;7</title>
<path fill="none" stroke="black" d="M302,-143.697C302,-135.983 302,-126.712 302,-118.112"/>
<polygon fill="black" stroke="black" points="305.5,-118.104 302,-108.104 298.5,-118.104 305.5,-118.104"/>
</g>
<!-- 23&#45;&gt;T24 -->
<g id="edge68" class="edge"><title>23&#45;&gt;T24</title>
<path fill="none" stroke="black" d="M409.839,-145.178C396.047,-125.025 369.478,-90.59 338,-72 281.212,-38.4619 204.046,-26.0837 158.975,-21.5594"/>
<polygon fill="black" stroke="black" points="159.061,-18.0525 148.781,-20.6158 158.416,-25.0227 159.061,-18.0525"/>
</g>
<!-- 23&#45;&gt;T1 -->
<g id="edge69" class="edge"><title>23&#45;&gt;T1</title>
<path fill="none" stroke="black" d="M434.145,-146.338C458.244,-121.36 507.393,-70.4172 535.677,-41.1016"/>
<polygon fill="black" stroke="black" points="538.302,-43.4214 542.726,-33.7946 533.264,-38.5612 538.302,-43.4214"/>
</g>
<!-- 7&#45;&gt;T8 -->
<g id="edge67" class="edge"><title>7&#45;&gt;T8</title>
<path fill="none" stroke="black" d="M299.821,-72.055C298.83,-64.3456 297.632,-55.0269 296.518,-46.3642"/>
<polygon fill="black" stroke="black" points="299.968,-45.7473 295.221,-36.2753 293.025,-46.64 299.968,-45.7473"/>
</g>
</g>
</svg>
