<?xml version="1.0" encoding="UTF-8" standalone="no"?>
<!DOCTYPE svg PUBLIC "-//W3C//DTD SVG 1.1//EN"
 "http://www.w3.org/Graphics/SVG/1.1/DTD/svg11.dtd">
<!-- Generated by graphviz version 2.38.0 (20140413.2041)
 -->
<!-- Title: weight_tree Pages: 1 -->
<svg width="300pt" height="233pt"
 viewBox="0.00 0.00 300.00 233.00" xmlns="http://www.w3.org/2000/svg" xmlns:xlink="http://www.w3.org/1999/xlink">
<g id="graph0" class="graph" transform="scale(1 1) rotate(0) translate(4 229)">
<title>weight_tree</title>
<polygon fill="white" stroke="none" points="-4,4 -4,-229 296,-229 296,4 -4,4"/>
<!-- all -->
<g id="node1" class="node"><title>all</title>
<polygon fill="lightblue" stroke="lightblue" points="190,-210 122,-210 122,-174 190,-174 190,-210"/>
<text text-anchor="middle" x="156" y="-188.3" font-family="Times,serif" font-size="14.00">All items</text>
<text text-anchor="middle" x="111.5" y="-213.8" font-family="Times,serif" font-size="14.00">100</text>
</g>
<!-- t1 -->
<g id="node2" class="node"><title>t1</title>
<polygon fill="lightblue" stroke="lightblue" points="143,-123 89,-123 89,-87 143,-87 143,-123"/>
<text text-anchor="middle" x="116" y="-101.3" font-family="Times,serif" font-size="14.00">Part 1</text>
<text text-anchor="middle" x="82" y="-126.8" font-family="Times,serif" font-size="14.00">75</text>
</g>
<!-- all&#45;&gt;t1 -->
<g id="edge1" class="edge"><title>all&#45;&gt;t1</title>
<path fill="none" stroke="black" d="M147.905,-173.799C142.321,-161.932 134.79,-145.928 128.446,-132.449"/>
<polygon fill="black" stroke="black" points="131.507,-130.733 124.083,-123.175 125.174,-133.714 131.507,-130.733"/>
<text text-anchor="middle" x="152" y="-144.8" font-family="Times,serif" font-size="14.00">75%</text>
</g>
<!-- t2 -->
<g id="node3" class="node"><title>t2</title>
<polygon fill="lightblue" stroke="lightblue" points="217,-123 163,-123 163,-87 217,-87 217,-123"/>
<text text-anchor="middle" x="190" y="-101.3" font-family="Times,serif" font-size="14.00">Part 2</text>
<text text-anchor="middle" x="156" y="-126.8" font-family="Times,serif" font-size="14.00">25</text>
</g>
<!-- all&#45;&gt;t2 -->
<g id="edge2" class="edge"><title>all&#45;&gt;t2</title>
<path fill="none" stroke="black" d="M162.88,-173.799C167.581,-162.047 173.905,-146.238 179.263,-132.842"/>
<polygon fill="black" stroke="black" points="182.666,-133.76 183.13,-123.175 176.166,-131.16 182.666,-133.76"/>
</g>
<!-- p1 -->
<g id="node4" class="node"><title>p1</title>
<polygon fill="lightblue" stroke="lightblue" points="70,-36 14,-36 14,-0 70,-0 70,-36"/>
<text text-anchor="middle" x="42" y="-14.3" font-family="Times,serif" font-size="14.00">pPart 1</text>
<text text-anchor="middle" x="7" y="-39.8" font-family="Times,serif" font-size="14.00">50</text>
</g>
<!-- t1&#45;&gt;p1 -->
<g id="edge3" class="edge"><title>t1&#45;&gt;p1</title>
<path fill="none" stroke="black" d="M101.025,-86.799C90.2927,-74.4713 75.6732,-57.6787 63.6691,-43.8902"/>
<polygon fill="black" stroke="black" points="66.1587,-41.4195 56.9527,-36.1754 60.8792,-46.0159 66.1587,-41.4195"/>
<text text-anchor="middle" x="97" y="-57.8" font-family="Times,serif" font-size="14.00">20%</text>
</g>
<!-- p2 -->
<g id="node5" class="node"><title>p2</title>
<polygon fill="lightblue" stroke="lightblue" points="144,-36 88,-36 88,-0 144,-0 144,-36"/>
<text text-anchor="middle" x="116" y="-14.3" font-family="Times,serif" font-size="14.00">pPart 2</text>
<text text-anchor="middle" x="81" y="-39.8" font-family="Times,serif" font-size="14.00">50</text>
</g>
<!-- t1&#45;&gt;p2 -->
<g id="edge4" class="edge"><title>t1&#45;&gt;p2</title>
<path fill="none" stroke="black" d="M116,-86.799C116,-75.1626 116,-59.5479 116,-46.2368"/>
<polygon fill="black" stroke="black" points="119.5,-46.1754 116,-36.1754 112.5,-46.1755 119.5,-46.1754"/>
</g>
<!-- p3 -->
<g id="node6" class="node"><title>p3</title>
<polygon fill="lightblue" stroke="lightblue" points="218,-36 162,-36 162,-0 218,-0 218,-36"/>
<text text-anchor="middle" x="190" y="-14.3" font-family="Times,serif" font-size="14.00">pPart 3</text>
<text text-anchor="middle" x="155" y="-39.8" font-family="Times,serif" font-size="14.00">50</text>
</g>
<!-- t2&#45;&gt;p3 -->
<g id="edge5" class="edge"><title>t2&#45;&gt;p3</title>
<path fill="none" stroke="black" d="M190,-86.799C190,-75.1626 190,-59.5479 190,-46.2368"/>
<polygon fill="black" stroke="black" points="193.5,-46.1754 190,-36.1754 186.5,-46.1755 193.5,-46.1754"/>
</g>
<!-- p4 -->
<g id="node7" class="node"><title>p4</title>
<polygon fill="lightblue" stroke="lightblue" points="292,-36 236,-36 236,-0 292,-0 292,-36"/>
<text text-anchor="middle" x="264" y="-14.3" font-family="Times,serif" font-size="14.00">pPart 4</text>
<text text-anchor="middle" x="229" y="-39.8" font-family="Times,serif" font-size="14.00">50</text>
</g>
<!-- t2&#45;&gt;p4 -->
<g id="edge6" class="edge"><title>t2&#45;&gt;p4</title>
<path fill="none" stroke="black" d="M204.975,-86.799C215.707,-74.4713 230.327,-57.6787 242.331,-43.8902"/>
<polygon fill="black" stroke="black" points="245.121,-46.0159 249.047,-36.1754 239.841,-41.4195 245.121,-46.0159"/>
</g>
</g>
</svg>
