<?xml version="1.0" encoding="UTF-8" standalone="no"?>
<!DOCTYPE svg PUBLIC "-//W3C//DTD SVG 1.1//EN"
 "http://www.w3.org/Graphics/SVG/1.1/DTD/svg11.dtd">
<!-- Generated by graphviz version 2.36.0 (20140111.2315)
 -->
<!-- Title: G Pages: 1 -->
<svg width="156pt" height="134pt"
 viewBox="0.00 0.00 155.71 134.19" xmlns="http://www.w3.org/2000/svg" xmlns:xlink="http://www.w3.org/1999/xlink">
<g id="graph0" class="graph" transform="scale(1 1) rotate(0) translate(4 130.193)">
<title>G</title>
<polygon fill="white" stroke="none" points="-4,4 -4,-130.193 151.708,-130.193 151.708,4 -4,4"/>
<!-- n0 -->
<g id="node1" class="node"><title>n0</title>
<ellipse fill="none" stroke="black" cx="27" cy="-55.0385" rx="27" ry="18"/>
<text text-anchor="middle" x="27" y="-50.8385" font-family="Times,serif" font-size="14.00">n0</text>
</g>
<!-- n1 -->
<g id="node2" class="node"><title>n1</title>
<ellipse fill="none" stroke="black" cx="120.708" cy="-57.2627" rx="27" ry="18"/>
<text text-anchor="middle" x="120.708" y="-53.0627" font-family="Times,serif" font-size="14.00">n1</text>
</g>
<!-- n0&#45;&#45;n1 -->
<g id="edge1" class="edge"><title>n0&#45;&#45;n1</title>
<path fill="none" stroke="black" d="M54.1043,-55.6818C66.5367,-55.9769 81.2399,-56.3259 93.6649,-56.6208"/>
</g>
<!-- n2 -->
<g id="node3" class="node"><title>n2</title>
<ellipse fill="none" stroke="black" cx="77.4145" cy="-18" rx="27" ry="18"/>
<text text-anchor="middle" x="77.4145" y="-13.8" font-family="Times,serif" font-size="14.00">n2</text>
</g>
<!-- n1&#45;&#45;n2 -->
<g id="edge2" class="edge"><title>n1&#45;&#45;n2</title>
<path fill="none" stroke="black" d="M104.587,-42.6427C101.029,-39.4159 97.2577,-35.9955 93.6934,-32.7631"/>
</g>
<!-- n3 -->
<g id="node4" class="node"><title>n3</title>
<ellipse fill="none" stroke="black" cx="50.7384" cy="-108.193" rx="27" ry="18"/>
<text text-anchor="middle" x="50.7384" y="-103.993" font-family="Times,serif" font-size="14.00">n3</text>
</g>
<!-- n2&#45;&#45;n3 -->
<g id="edge3" class="edge"><title>n2&#45;&#45;n3</title>
<path fill="none" stroke="black" d="M72.1442,-35.8193C67.4675,-51.6315 60.6712,-74.6102 55.9978,-90.4112"/>
</g>
<!-- n3&#45;&#45;n0 -->
<g id="edge4" class="edge"><title>n3&#45;&#45;n0</title>
<path fill="none" stroke="black" d="M42.9656,-90.7885C40.3153,-84.8541 37.3545,-78.2242 34.7092,-72.301"/>
</g>
</g>
</svg>
