<?xml version="1.0" encoding="UTF-8" standalone="yes"?>
<!DOCTYPE svg PUBLIC "-//W3C//DTD SVG 1.0//EN" "http://www.w3.org/TR/2001/REC-SVG-20010904/DTD/svg10.dtd">
<svg height="1725" width="3450" xmlns="http://www.w3.org/2000/svg" xmlns:svg="http://www.w3.org/2000/svg" xmlns:xlink="http://www.w3.org/1999/xlink">
	<line fill="none" id="mainline" stroke="black" stroke-width="2" x1="15" x2="3435" y1="862.5" y2="862.5" />
	<circle cx="15" cy="862.5" id="circle_0" r="2" />
	<circle cx="30" cy="862.5" id="circle_1" r="2" />
	<circle cx="45" cy="862.5" id="circle_2" r="2" />
	<circle cx="60" cy="862.5" id="circle_3" r="2" />
	<circle cx="75" cy="862.5" id="circle_4" r="2" />
	<circle cx="90" cy="862.5" id="circle_5" r="2" />
	<circle cx="105" cy="862.5" id="circle_6" r="2" />
	<circle cx="120" cy="862.5" id="circle_7" r="2" />
	<circle cx="135" cy="862.5" id="circle_8" r="2" />
	<circle cx="150" cy="862.5" id="circle_9" r="2" />
	<circle cx="165" cy="862.5" id="circle_10" r="2" />
	<circle cx="180" cy="862.5" id="circle_11" r="2" />
	<circle cx="195" cy="862.5" id="circle_12" r="2" />
	<circle cx="210" cy="862.5" id="circle_13" r="2" />
	<circle cx="225" cy="862.5" id="circle_14" r="2" />
	<circle cx="240" cy="862.5" id="circle_15" r="2" />
	<circle cx="255" cy="862.5" id="circle_16" r="2" />
	<circle cx="270" cy="862.5" id="circle_17" r="2" />
	<circle cx="285" cy="862.5" id="circle_18" r="2" />
	<circle cx="300" cy="862.5" id="circle_19" r="2" />
	<circle cx="315" cy="862.5" id="circle_20" r="2" />
	<circle cx="330" cy="862.5" id="circle_21" r="2" />
	<circle cx="345" cy="862.5" id="circle_22" r="2" />
	<circle cx="360" cy="862.5" id="circle_23" r="2" />
	<circle cx="375" cy="862.5" id="circle_24" r="2" />
	<circle cx="390" cy="862.5" id="circle_25" r="2" />
	<circle cx="405" cy="862.5" id="circle_26" r="2" />
	<circle cx="420" cy="862.5" id="circle_27" r="2" />
	<circle cx="435" cy="862.5" id="circle_28" r="2" />
	<circle cx="450" cy="862.5" id="circle_29" r="2" />
	<circle cx="465" cy="862.5" id="circle_30" r="2" />
	<circle cx="480" cy="862.5" id="circle_31" r="2" />
	<circle cx="495" cy="862.5" id="circle_32" r="2" />
	<circle cx="510" cy="862.5" id="circle_33" r="2" />
	<circle cx="525" cy="862.5" id="circle_34" r="2" />
	<circle cx="540" cy="862.5" id="circle_35" r="2" />
	<circle cx="555" cy="862.5" id="circle_36" r="2" />
	<circle cx="570" cy="862.5" id="circle_37" r="2" />
	<circle cx="585" cy="862.5" id="circle_38" r="2" />
	<circle cx="600" cy="862.5" id="circle_39" r="2" />
	<circle cx="615" cy="862.5" id="circle_40" r="2" />
	<circle cx="630" cy="862.5" id="circle_41" r="2" />
	<circle cx="645" cy="862.5" id="circle_42" r="2" />
	<circle cx="660" cy="862.5" id="circle_43" r="2" />
	<circle cx="675" cy="862.5" id="circle_44" r="2" />
	<circle cx="690" cy="862.5" id="circle_45" r="2" />
	<circle cx="705" cy="862.5" id="circle_46" r="2" />
	<circle cx="720" cy="862.5" id="circle_47" r="2" />
	<circle cx="735" cy="862.5" id="circle_48" r="2" />
	<circle cx="750" cy="862.5" id="circle_49" r="2" />
	<circle cx="765" cy="862.5" id="circle_50" r="2" />
	<circle cx="780" cy="862.5" id="circle_51" r="2" />
	<circle cx="795" cy="862.5" id="circle_52" r="2" />
	<circle cx="810" cy="862.5" id="circle_53" r="2" />
	<circle cx="825" cy="862.5" id="circle_54" r="2" />
	<circle cx="840" cy="862.5" id="circle_55" r="2" />
	<circle cx="855" cy="862.5" id="circle_56" r="2" />
	<circle cx="870" cy="862.5" id="circle_57" r="2" />
	<circle cx="885" cy="862.5" id="circle_58" r="2" />
	<circle cx="900" cy="862.5" id="circle_59" r="2" />
	<circle cx="915" cy="862.5" id="circle_60" r="2" />
	<circle cx="930" cy="862.5" id="circle_61" r="2" />
	<circle cx="945" cy="862.5" id="circle_62" r="2" />
	<circle cx="960" cy="862.5" id="circle_63" r="2" />
	<circle cx="975" cy="862.5" id="circle_64" r="2" />
	<circle cx="990" cy="862.5" id="circle_65" r="2" />
	<circle cx="1005" cy="862.5" id="circle_66" r="2" />
	<circle cx="1020" cy="862.5" id="circle_67" r="2" />
	<circle cx="1035" cy="862.5" id="circle_68" r="2" />
	<circle cx="1050" cy="862.5" id="circle_69" r="2" />
	<circle cx="1065" cy="862.5" id="circle_70" r="2" />
	<circle cx="1080" cy="862.5" id="circle_71" r="2" />
	<circle cx="1095" cy="862.5" id="circle_72" r="2" />
	<circle cx="1110" cy="862.5" id="circle_73" r="2" />
	<circle cx="1125" cy="862.5" id="circle_74" r="2" />
	<circle cx="1140" cy="862.5" id="circle_75" r="2" />
	<circle cx="1155" cy="862.5" id="circle_76" r="2" />
	<circle cx="1170" cy="862.5" id="circle_77" r="2" />
	<circle cx="1185" cy="862.5" id="circle_78" r="2" />
	<circle cx="1200" cy="862.5" id="circle_79" r="2" />
	<circle cx="1215" cy="862.5" id="circle_80" r="2" />
	<circle cx="1230" cy="862.5" id="circle_81" r="2" />
	<circle cx="1245" cy="862.5" id="circle_82" r="2" />
	<circle cx="1260" cy="862.5" id="circle_83" r="2" />
	<circle cx="1275" cy="862.5" id="circle_84" r="2" />
	<circle cx="1290" cy="862.5" id="circle_85" r="2" />
	<circle cx="1305" cy="862.5" id="circle_86" r="2" />
	<circle cx="1320" cy="862.5" id="circle_87" r="2" />
	<circle cx="1335" cy="862.5" id="circle_88" r="2" />
	<circle cx="1350" cy="862.5" id="circle_89" r="2" />
	<circle cx="1365" cy="862.5" id="circle_90" r="2" />
	<circle cx="1380" cy="862.5" id="circle_91" r="2" />
	<circle cx="1395" cy="862.5" id="circle_92" r="2" />
	<circle cx="1410" cy="862.5" id="circle_93" r="2" />
	<circle cx="1425" cy="862.5" id="circle_94" r="2" />
	<circle cx="1440" cy="862.5" id="circle_95" r="2" />
	<circle cx="1455" cy="862.5" id="circle_96" r="2" />
	<circle cx="1470" cy="862.5" id="circle_97" r="2" />
	<circle cx="1485" cy="862.5" id="circle_98" r="2" />
	<circle cx="1500" cy="862.5" id="circle_99" r="2" />
	<circle cx="1515" cy="862.5" id="circle_100" r="2" />
	<circle cx="1530" cy="862.5" id="circle_101" r="2" />
	<circle cx="1545" cy="862.5" id="circle_102" r="2" />
	<circle cx="1560" cy="862.5" id="circle_103" r="2" />
	<circle cx="1575" cy="862.5" id="circle_104" r="2" />
	<circle cx="1590" cy="862.5" id="circle_105" r="2" />
	<circle cx="1605" cy="862.5" id="circle_106" r="2" />
	<circle cx="1620" cy="862.5" id="circle_107" r="2" />
	<circle cx="1635" cy="862.5" id="circle_108" r="2" />
	<circle cx="1650" cy="862.5" id="circle_109" r="2" />
	<circle cx="1665" cy="862.5" id="circle_110" r="2" />
	<circle cx="1680" cy="862.5" id="circle_111" r="2" />
	<circle cx="1695" cy="862.5" id="circle_112" r="2" />
	<circle cx="1710" cy="862.5" id="circle_113" r="2" />
	<circle cx="1725" cy="862.5" id="circle_114" r="2" />
	<circle cx="1740" cy="862.5" id="circle_115" r="2" />
	<circle cx="1755" cy="862.5" id="circle_116" r="2" />
	<circle cx="1770" cy="862.5" id="circle_117" r="2" />
	<circle cx="1785" cy="862.5" id="circle_118" r="2" />
	<circle cx="1800" cy="862.5" id="circle_119" r="2" />
	<circle cx="1815" cy="862.5" id="circle_120" r="2" />
	<circle cx="1830" cy="862.5" id="circle_121" r="2" />
	<circle cx="1845" cy="862.5" id="circle_122" r="2" />
	<circle cx="1860" cy="862.5" id="circle_123" r="2" />
	<circle cx="1875" cy="862.5" id="circle_124" r="2" />
	<circle cx="1890" cy="862.5" id="circle_125" r="2" />
	<circle cx="1905" cy="862.5" id="circle_126" r="2" />
	<circle cx="1920" cy="862.5" id="circle_127" r="2" />
	<circle cx="1935" cy="862.5" id="circle_128" r="2" />
	<circle cx="1950" cy="862.5" id="circle_129" r="2" />
	<circle cx="1965" cy="862.5" id="circle_130" r="2" />
	<circle cx="1980" cy="862.5" id="circle_131" r="2" />
	<circle cx="1995" cy="862.5" id="circle_132" r="2" />
	<circle cx="2010" cy="862.5" id="circle_133" r="2" />
	<circle cx="2025" cy="862.5" id="circle_134" r="2" />
	<circle cx="2040" cy="862.5" id="circle_135" r="2" />
	<circle cx="2055" cy="862.5" id="circle_136" r="2" />
	<circle cx="2070" cy="862.5" id="circle_137" r="2" />
	<circle cx="2085" cy="862.5" id="circle_138" r="2" />
	<circle cx="2100" cy="862.5" id="circle_139" r="2" />
	<circle cx="2115" cy="862.5" id="circle_140" r="2" />
	<circle cx="2130" cy="862.5" id="circle_141" r="2" />
	<circle cx="2145" cy="862.5" id="circle_142" r="2" />
	<circle cx="2160" cy="862.5" id="circle_143" r="2" />
	<circle cx="2175" cy="862.5" id="circle_144" r="2" />
	<circle cx="2190" cy="862.5" id="circle_145" r="2" />
	<circle cx="2205" cy="862.5" id="circle_146" r="2" />
	<circle cx="2220" cy="862.5" id="circle_147" r="2" />
	<circle cx="2235" cy="862.5" id="circle_148" r="2" />
	<circle cx="2250" cy="862.5" id="circle_149" r="2" />
	<circle cx="2265" cy="862.5" id="circle_150" r="2" />
	<circle cx="2280" cy="862.5" id="circle_151" r="2" />
	<circle cx="2295" cy="862.5" id="circle_152" r="2" />
	<circle cx="2310" cy="862.5" id="circle_153" r="2" />
	<circle cx="2325" cy="862.5" id="circle_154" r="2" />
	<circle cx="2340" cy="862.5" id="circle_155" r="2" />
	<circle cx="2355" cy="862.5" id="circle_156" r="2" />
	<circle cx="2370" cy="862.5" id="circle_157" r="2" />
	<circle cx="2385" cy="862.5" id="circle_158" r="2" />
	<circle cx="2400" cy="862.5" id="circle_159" r="2" />
	<circle cx="2415" cy="862.5" id="circle_160" r="2" />
	<circle cx="2430" cy="862.5" id="circle_161" r="2" />
	<circle cx="2445" cy="862.5" id="circle_162" r="2" />
	<circle cx="2460" cy="862.5" id="circle_163" r="2" />
	<circle cx="2475" cy="862.5" id="circle_164" r="2" />
	<circle cx="2490" cy="862.5" id="circle_165" r="2" />
	<circle cx="2505" cy="862.5" id="circle_166" r="2" />
	<circle cx="2520" cy="862.5" id="circle_167" r="2" />
	<circle cx="2535" cy="862.5" id="circle_168" r="2" />
	<circle cx="2550" cy="862.5" id="circle_169" r="2" />
	<circle cx="2565" cy="862.5" id="circle_170" r="2" />
	<circle cx="2580" cy="862.5" id="circle_171" r="2" />
	<circle cx="2595" cy="862.5" id="circle_172" r="2" />
	<circle cx="2610" cy="862.5" id="circle_173" r="2" />
	<circle cx="2625" cy="862.5" id="circle_174" r="2" />
	<circle cx="2640" cy="862.5" id="circle_175" r="2" />
	<circle cx="2655" cy="862.5" id="circle_176" r="2" />
	<circle cx="2670" cy="862.5" id="circle_177" r="2" />
	<circle cx="2685" cy="862.5" id="circle_178" r="2" />
	<circle cx="2700" cy="862.5" id="circle_179" r="2" />
	<circle cx="2715" cy="862.5" id="circle_180" r="2" />
	<circle cx="2730" cy="862.5" id="circle_181" r="2" />
	<circle cx="2745" cy="862.5" id="circle_182" r="2" />
	<circle cx="2760" cy="862.5" id="circle_183" r="2" />
	<circle cx="2775" cy="862.5" id="circle_184" r="2" />
	<circle cx="2790" cy="862.5" id="circle_185" r="2" />
	<circle cx="2805" cy="862.5" id="circle_186" r="2" />
	<circle cx="2820" cy="862.5" id="circle_187" r="2" />
	<circle cx="2835" cy="862.5" id="circle_188" r="2" />
	<circle cx="2850" cy="862.5" id="circle_189" r="2" />
	<circle cx="2865" cy="862.5" id="circle_190" r="2" />
	<circle cx="2880" cy="862.5" id="circle_191" r="2" />
	<circle cx="2895" cy="862.5" id="circle_192" r="2" />
	<circle cx="2910" cy="862.5" id="circle_193" r="2" />
	<circle cx="2925" cy="862.5" id="circle_194" r="2" />
	<circle cx="2940" cy="862.5" id="circle_195" r="2" />
	<circle cx="2955" cy="862.5" id="circle_196" r="2" />
	<circle cx="2970" cy="862.5" id="circle_197" r="2" />
	<circle cx="2985" cy="862.5" id="circle_198" r="2" />
	<circle cx="3000" cy="862.5" id="circle_199" r="2" />
	<circle cx="3015" cy="862.5" id="circle_200" r="2" />
	<circle cx="3030" cy="862.5" id="circle_201" r="2" />
	<circle cx="3045" cy="862.5" id="circle_202" r="2" />
	<circle cx="3060" cy="862.5" id="circle_203" r="2" />
	<circle cx="3075" cy="862.5" id="circle_204" r="2" />
	<circle cx="3090" cy="862.5" id="circle_205" r="2" />
	<circle cx="3105" cy="862.5" id="circle_206" r="2" />
	<circle cx="3120" cy="862.5" id="circle_207" r="2" />
	<circle cx="3135" cy="862.5" id="circle_208" r="2" />
	<circle cx="3150" cy="862.5" id="circle_209" r="2" />
	<circle cx="3165" cy="862.5" id="circle_210" r="2" />
	<circle cx="3180" cy="862.5" id="circle_211" r="2" />
	<circle cx="3195" cy="862.5" id="circle_212" r="2" />
	<circle cx="3210" cy="862.5" id="circle_213" r="2" />
	<circle cx="3225" cy="862.5" id="circle_214" r="2" />
	<circle cx="3240" cy="862.5" id="circle_215" r="2" />
	<circle cx="3255" cy="862.5" id="circle_216" r="2" />
	<circle cx="3270" cy="862.5" id="circle_217" r="2" />
	<circle cx="3285" cy="862.5" id="circle_218" r="2" />
	<circle cx="3300" cy="862.5" id="circle_219" r="2" />
	<circle cx="3315" cy="862.5" id="circle_220" r="2" />
	<circle cx="3330" cy="862.5" id="circle_221" r="2" />
	<circle cx="3345" cy="862.5" id="circle_222" r="2" />
	<circle cx="3360" cy="862.5" id="circle_223" r="2" />
	<circle cx="3375" cy="862.5" id="circle_224" r="2" />
	<circle cx="3390" cy="862.5" id="circle_225" r="2" />
	<circle cx="3405" cy="862.5" id="circle_226" r="2" />
	<circle cx="3420" cy="862.5" id="circle_227" r="2" />
	<circle cx="3435" cy="862.5" id="circle_228" r="2" />
	<path d="M 15,862.5 C 15 862.5, 15 862.5, 15 862.5" fill="none" id="arc_1" stroke="blue" />
	<path d="M 15,862.5 C 15 862.5, 22.5 855, 30 862.5" fill="none" id="arc_2" stroke="blue" />
	<path d="M 30,862.5 C 30 862.5, 45 847.5, 60 862.5" fill="none" id="arc_3" stroke="blue" />
	<path d="M 60,862.5 C 60 862.5, 82.5 840, 105 862.5" fill="none" id="arc_4" stroke="blue" />
	<path d="M 45,862.5 C 45 862.5, 75 892.5, 105 862.5" fill="none" id="arc_5" stroke="black" />
	<path d="M 45,862.5 C 45 862.5, 82.5 825, 120 862.5" fill="none" id="arc_6" stroke="blue" />
	<path d="M 120,862.5 C 120 862.5, 165 817.5, 210 862.5" fill="none" id="arc_7" stroke="blue" />
	<path d="M 210,862.5 C 210 862.5, 262.5 810, 315 862.5" fill="none" id="arc_8" stroke="blue" />
	<path d="M 195,862.5 C 195 862.5, 255 922.5, 315 862.5" fill="none" id="arc_9" stroke="black" />
	<path d="M 195,862.5 C 195 862.5, 262.5 795, 330 862.5" fill="none" id="arc_10" stroke="blue" />
	<path d="M 180,862.5 C 180 862.5, 255 937.5, 330 862.5" fill="none" id="arc_11" stroke="black" />
	<path d="M 180,862.5 C 180 862.5, 262.5 780, 345 862.5" fill="none" id="arc_12" stroke="blue" />
	<path d="M 165,862.5 C 165 862.5, 255 952.5, 345 862.5" fill="none" id="arc_13" stroke="black" />
	<path d="M 165,862.5 C 165 862.5, 262.5 765, 360 862.5" fill="none" id="arc_14" stroke="blue" />
	<path d="M 150,862.5 C 150 862.5, 255 967.5, 360 862.5" fill="none" id="arc_15" stroke="black" />
	<path d="M 150,862.5 C 150 862.5, 262.5 750, 375 862.5" fill="none" id="arc_16" stroke="blue" />
	<path d="M 135,862.5 C 135 862.5, 255 982.5, 375 862.5" fill="none" id="arc_17" stroke="black" />
	<path d="M 135,862.5 C 135 862.5, 262.5 735, 390 862.5" fill="none" id="arc_18" stroke="blue" />
	<path d="M 390,862.5 C 390 862.5, 525 727.5, 660 862.5" fill="none" id="arc_19" stroke="blue" />
	<path d="M 660,862.5 C 660 862.5, 802.5 720, 945 862.5" fill="none" id="arc_20" stroke="blue" />
	<path d="M 645,862.5 C 645 862.5, 795 1012.5, 945 862.5" fill="none" id="arc_21" stroke="black" />
	<path d="M 645,862.5 C 645 862.5, 802.5 705, 960 862.5" fill="none" id="arc_22" stroke="blue" />
	<path d="M 630,862.5 C 630 862.5, 795 1027.5, 960 862.5" fill="none" id="arc_23" stroke="black" />
	<path d="M 285,862.5 C 285 862.5, 457.5 1035, 630 862.5" fill="none" id="arc_24" stroke="black" />
	<path d="M 285,862.5 C 285 862.5, 465 1042.5, 645 862.5" fill="none" id="arc_25" stroke="blue" />
	<path d="M 270,862.5 C 270 862.5, 457.5 1050, 645 862.5" fill="none" id="arc_26" stroke="black" />
	<path d="M 270,862.5 C 270 862.5, 465 1057.5, 660 862.5" fill="none" id="arc_27" stroke="blue" />
	<path d="M 255,862.5 C 255 862.5, 457.5 1065, 660 862.5" fill="none" id="arc_28" stroke="black" />
	<path d="M 255,862.5 C 255 862.5, 465 1072.5, 675 862.5" fill="none" id="arc_29" stroke="blue" />
	<path d="M 240,862.5 C 240 862.5, 457.5 1080, 675 862.5" fill="none" id="arc_30" stroke="black" />
	<path d="M 240,862.5 C 240 862.5, 465 1087.5, 690 862.5" fill="none" id="arc_31" stroke="blue" />
	<path d="M 225,862.5 C 225 862.5, 457.5 1095, 690 862.5" fill="none" id="arc_32" stroke="black" />
	<path d="M 225,862.5 C 225 862.5, 465 1102.5, 705 862.5" fill="none" id="arc_33" stroke="blue" />
	<path d="M 705,862.5 C 705 862.5, 952.5 615, 1200 862.5" fill="none" id="arc_34" stroke="blue" />
	<path d="M 1200,862.5 C 1200 862.5, 1455 607.5, 1710 862.5" fill="none" id="arc_35" stroke="blue" />
	<path d="M 1185,862.5 C 1185 862.5, 1447.5 1125, 1710 862.5" fill="none" id="arc_36" stroke="black" />
	<path d="M 1185,862.5 C 1185 862.5, 1455 592.5, 1725 862.5" fill="none" id="arc_37" stroke="blue" />
	<path d="M 1170,862.5 C 1170 862.5, 1447.5 1140, 1725 862.5" fill="none" id="arc_38" stroke="black" />
	<path d="M 600,862.5 C 600 862.5, 885 1147.5, 1170 862.5" fill="none" id="arc_39" stroke="black" />
	<path d="M 600,862.5 C 600 862.5, 892.5 1155, 1185 862.5" fill="none" id="arc_40" stroke="blue" />
	<path d="M 585,862.5 C 585 862.5, 885 1162.5, 1185 862.5" fill="none" id="arc_41" stroke="black" />
	<path d="M 585,862.5 C 585 862.5, 892.5 1170, 1200 862.5" fill="none" id="arc_42" stroke="blue" />
	<path d="M 570,862.5 C 570 862.5, 885 1177.5, 1200 862.5" fill="none" id="arc_43" stroke="black" />
	<path d="M 570,862.5 C 570 862.5, 892.5 1185, 1215 862.5" fill="none" id="arc_44" stroke="blue" />
	<path d="M 555,862.5 C 555 862.5, 885 1192.5, 1215 862.5" fill="none" id="arc_45" stroke="black" />
	<path d="M 555,862.5 C 555 862.5, 892.5 1200, 1230 862.5" fill="none" id="arc_46" stroke="blue" />
	<path d="M 540,862.5 C 540 862.5, 885 1207.5, 1230 862.5" fill="none" id="arc_47" stroke="black" />
	<path d="M 540,862.5 C 540 862.5, 892.5 1215, 1245 862.5" fill="none" id="arc_48" stroke="blue" />
	<path d="M 525,862.5 C 525 862.5, 885 1222.5, 1245 862.5" fill="none" id="arc_49" stroke="black" />
	<path d="M 525,862.5 C 525 862.5, 892.5 1230, 1260 862.5" fill="none" id="arc_50" stroke="blue" />
	<path d="M 510,862.5 C 510 862.5, 885 1237.5, 1260 862.5" fill="none" id="arc_51" stroke="black" />
	<path d="M 510,862.5 C 510 862.5, 892.5 1245, 1275 862.5" fill="none" id="arc_52" stroke="blue" />
	<path d="M 495,862.5 C 495 862.5, 885 1252.5, 1275 862.5" fill="none" id="arc_53" stroke="black" />
	<path d="M 495,862.5 C 495 862.5, 892.5 1260, 1290 862.5" fill="none" id="arc_54" stroke="blue" />
	<path d="M 480,862.5 C 480 862.5, 885 1267.5, 1290 862.5" fill="none" id="arc_55" stroke="black" />
	<path d="M 480,862.5 C 480 862.5, 892.5 1275, 1305 862.5" fill="none" id="arc_56" stroke="blue" />
	<path d="M 465,862.5 C 465 862.5, 885 1282.5, 1305 862.5" fill="none" id="arc_57" stroke="black" />
	<path d="M 465,862.5 C 465 862.5, 892.5 1290, 1320 862.5" fill="none" id="arc_58" stroke="blue" />
	<path d="M 450,862.5 C 450 862.5, 885 1297.5, 1320 862.5" fill="none" id="arc_59" stroke="black" />
	<path d="M 450,862.5 C 450 862.5, 892.5 1305, 1335 862.5" fill="none" id="arc_60" stroke="blue" />
	<path d="M 435,862.5 C 435 862.5, 885 1312.5, 1335 862.5" fill="none" id="arc_61" stroke="black" />
	<path d="M 435,862.5 C 435 862.5, 892.5 1320, 1350 862.5" fill="none" id="arc_62" stroke="blue" />
	<path d="M 420,862.5 C 420 862.5, 885 1327.5, 1350 862.5" fill="none" id="arc_63" stroke="black" />
	<path d="M 420,862.5 C 420 862.5, 892.5 1335, 1365 862.5" fill="none" id="arc_64" stroke="blue" />
	<path d="M 405,862.5 C 405 862.5, 885 1342.5, 1365 862.5" fill="none" id="arc_65" stroke="black" />
	<path d="M 405,862.5 C 405 862.5, 892.5 1350, 1380 862.5" fill="none" id="arc_66" stroke="blue" />
	<path d="M 1380,862.5 C 1380 862.5, 1875 367.5, 2370 862.5" fill="none" id="arc_67" stroke="blue" />
	<path d="M 2370,862.5 C 2370 862.5, 2872.5 360, 3375 862.5" fill="none" id="arc_68" stroke="blue" />
	<path d="M 2355,862.5 C 2355 862.5, 2865 1372.5, 3375 862.5" fill="none" id="arc_69" stroke="black" />
	<path d="M 2355,862.5 C 2355 862.5, 2872.5 345, 3390 862.5" fill="none" id="arc_70" stroke="blue" />
	<path d="M 2340,862.5 C 2340 862.5, 2865 1387.5, 3390 862.5" fill="none" id="arc_71" stroke="black" />
	<path d="M 2340,862.5 C 2340 862.5, 2872.5 330, 3405 862.5" fill="none" id="arc_72" stroke="blue" />
	<path d="M 2325,862.5 C 2325 862.5, 2865 1402.5, 3405 862.5" fill="none" id="arc_73" stroke="black" />
	<path d="M 2325,862.5 C 2325 862.5, 2872.5 315, 3420 862.5" fill="none" id="arc_74" stroke="blue" />
	<path d="M 2310,862.5 C 2310 862.5, 2865 1417.5, 3420 862.5" fill="none" id="arc_75" stroke="black" />
	<path d="M 2310,862.5 C 2310 862.5, 2872.5 300, 3435 862.5" fill="none" id="arc_76" stroke="blue" />
	<path d="M 2295,862.5 C 2295 862.5, 2865 1432.5, 3435 862.5" fill="none" id="arc_77" stroke="black" />
	<path d="M 1140,862.5 C 1140 862.5, 1717.5 1440, 2295 862.5" fill="none" id="arc_78" stroke="black" />
	<path d="M 1140,862.5 C 1140 862.5, 1725 1447.5, 2310 862.5" fill="none" id="arc_79" stroke="blue" />
	<path d="M 1125,862.5 C 1125 862.5, 1717.5 1455, 2310 862.5" fill="none" id="arc_80" stroke="black" />
	<path d="M 1125,862.5 C 1125 862.5, 1725 1462.5, 2325 862.5" fill="none" id="arc_81" stroke="blue" />
	<path d="M 1110,862.5 C 1110 862.5, 1717.5 1470, 2325 862.5" fill="none" id="arc_82" stroke="black" />
	<path d="M 1110,862.5 C 1110 862.5, 1725 1477.5, 2340 862.5" fill="none" id="arc_83" stroke="blue" />
	<path d="M 1095,862.5 C 1095 862.5, 1717.5 1485, 2340 862.5" fill="none" id="arc_84" stroke="black" />
	<path d="M 1095,862.5 C 1095 862.5, 1725 1492.5, 2355 862.5" fill="none" id="arc_85" stroke="blue" />
	<path d="M 1080,862.5 C 1080 862.5, 1717.5 1500, 2355 862.5" fill="none" id="arc_86" stroke="black" />
	<path d="M 1080,862.5 C 1080 862.5, 1725 1507.5, 2370 862.5" fill="none" id="arc_87" stroke="blue" />
	<path d="M 1065,862.5 C 1065 862.5, 1717.5 1515, 2370 862.5" fill="none" id="arc_88" stroke="black" />
	<path d="M 1065,862.5 C 1065 862.5, 1725 1522.5, 2385 862.5" fill="none" id="arc_89" stroke="blue" />
	<path d="M 1050,862.5 C 1050 862.5, 1717.5 1530, 2385 862.5" fill="none" id="arc_90" stroke="black" />
	<path d="M 1050,862.5 C 1050 862.5, 1725 1537.5, 2400 862.5" fill="none" id="arc_91" stroke="blue" />
	<path d="M 1035,862.5 C 1035 862.5, 1717.5 1545, 2400 862.5" fill="none" id="arc_92" stroke="black" />
	<path d="M 1035,862.5 C 1035 862.5, 1725 1552.5, 2415 862.5" fill="none" id="arc_93" stroke="blue" />
	<path d="M 1020,862.5 C 1020 862.5, 1717.5 1560, 2415 862.5" fill="none" id="arc_94" stroke="black" />
	<path d="M 1020,862.5 C 1020 862.5, 1725 1567.5, 2430 862.5" fill="none" id="arc_95" stroke="blue" />
	<path d="M 1005,862.5 C 1005 862.5, 1717.5 1575, 2430 862.5" fill="none" id="arc_96" stroke="black" />
	<path d="M 1005,862.5 C 1005 862.5, 1725 1582.5, 2445 862.5" fill="none" id="arc_97" stroke="blue" />
	<path d="M 990,862.5 C 990 862.5, 1717.5 1590, 2445 862.5" fill="none" id="arc_98" stroke="black" />
	<path d="M 990,862.5 C 990 862.5, 1725 1597.5, 2460 862.5" fill="none" id="arc_99" stroke="blue" />
	<path d="M 975,862.5 C 975 862.5, 1717.5 1605, 2460 862.5" fill="none" id="arc_100" stroke="black" />
	<!--
	Generated using the Perl SVG Module V2.87
	by Ronan Oger

	-->
</svg>