<?xml version="1.0" encoding="utf-8"?>
<!-- Generator: Adobe Illustrator 16.0.4, SVG Export Plug-In . SVG Version: 6.00 Build 0)  -->
<!DOCTYPE svg PUBLIC "-//W3C//DTD SVG 1.1//EN" "http://www.w3.org/Graphics/SVG/1.1/DTD/svg11.dtd">
<svg version="1.1" id="Layer_1" xmlns="http://www.w3.org/2000/svg" xmlns:xlink="http://www.w3.org/1999/xlink" x="0px" y="0px"
	 width="594px" height="756px" viewBox="0 0 594 756" enable-background="new 0 0 594 756" xml:space="preserve">
<rect x="54.521" y="37.862" transform="matrix(0.8674 -0.4977 0.4977 0.8674 -55.8116 82.3157)" fill="none" stroke="#ED1F24" stroke-width="0.001" stroke-miterlimit="10" width="144" height="216"/>
<rect x="74.178" y="43.186" transform="matrix(0.8674 -0.4977 0.4977 0.8674 -55.8536 92.805)" fill="none" stroke="#ED1F24" stroke-width="0.001" stroke-miterlimit="10" width="144" height="215.999"/>
<rect x="93.836" y="48.509" transform="matrix(0.8674 -0.4977 0.4977 0.8674 -55.8958 103.2945)" fill="none" stroke="#ED1F24" stroke-width="0.001" stroke-miterlimit="10" width="144" height="216"/>
<rect x="113.493" y="53.833" transform="matrix(0.8674 -0.4977 0.4977 0.8674 -55.9377 113.7838)" fill="none" stroke="#ED1F24" stroke-width="0.001" stroke-miterlimit="10" width="144" height="216"/>
<rect x="133.15" y="59.156" transform="matrix(0.8674 -0.4977 0.4977 0.8674 -55.9795 124.2726)" fill="none" stroke="#ED1F24" stroke-width="0.001" stroke-miterlimit="10" width="144" height="215.999"/>
<rect x="152.807" y="64.48" transform="matrix(0.8674 -0.4977 0.4977 0.8674 -56.0217 134.7619)" fill="none" stroke="#ED1F24" stroke-width="0.001" stroke-miterlimit="10" width="144" height="215.999"/>
<rect x="172.464" y="69.803" transform="matrix(0.8674 -0.4977 0.4977 0.8674 -56.0635 145.2511)" fill="none" stroke="#ED1F24" stroke-width="0.001" stroke-miterlimit="10" width="144" height="215.999"/>
<rect x="192.122" y="75.126" transform="matrix(0.8674 -0.4977 0.4977 0.8674 -56.1055 155.7404)" fill="none" stroke="#ED1F24" stroke-width="0.001" stroke-miterlimit="10" width="144" height="215.999"/>
<rect x="211.779" y="80.45" transform="matrix(0.8674 -0.4977 0.4977 0.8674 -56.1475 166.2295)" fill="none" stroke="#ED1F24" stroke-width="0.001" stroke-miterlimit="10" width="144" height="215.999"/>
<rect x="231.436" y="85.773" transform="matrix(0.8674 -0.4977 0.4977 0.8674 -56.1896 176.7188)" fill="none" stroke="#ED1F24" stroke-width="0.001" stroke-miterlimit="10" width="144" height="216"/>
</svg>
