<?xml version="1.0" encoding="utf-8"?>
<!-- Generator: Adobe Illustrator 16.0.4, SVG Export Plug-In . SVG Version: 6.00 Build 0)  -->
<!DOCTYPE svg PUBLIC "-//W3C//DTD SVG 1.1//EN" "http://www.w3.org/Graphics/SVG/1.1/DTD/svg11.dtd">
<svg version="1.1" id="Layer_1" xmlns="http://www.w3.org/2000/svg" xmlns:xlink="http://www.w3.org/1999/xlink" x="0px" y="0px"
	 width="594px" height="756px" viewBox="0 0 594 756" enable-background="new 0 0 594 756" xml:space="preserve">
<path fill="#FFFFFF" stroke="#ED1F24" stroke-width="0.001" stroke-miterlimit="10" d="M34.208,16.625
	c75-4.167,166.666,5.208,170.833,43.75s15.625,48.958,54.167,34.375s28.125-105.208,81.25-30.208s140.626,133.333,45.834,137.5
	S235.25,242.667,285.25,234.333s69.792-34.375,97.917-5.208s52.084,107.292,78.125,68.75s56.25-55.208,46.875-8.333
	s-55.209,60.417-52.084,95.833s62.501,75.001,2.084,72.917s-85.416-9.376-71.875,22.916s22.916,68.75,52.083,44.792
	s63.542-72.917,62.5-32.292s-41.666,20.834-14.583,48.959s64.584-32.292,62.5,5.208s-128.126,31.249-114.584,67.708
	s6.25,60.416,32.292,65.625s71.876,65.626,72.917,55.209s-21.876-26.041-5.209-25s30.209-11.459,26.042,4.166
	s3.126,23.958-14.583,25s-54.166,6.25-62.5-6.25s8.332-41.666-27.084-41.666s-64.584-1.043-59.375-27.084
	s-14.582-81.249,8.334-79.166s39.582-2.083,41.666-12.5s44.793-35.417,14.584-32.292s-43.75,21.874-66.667,11.458
	s-53.126-48.958-44.792-58.333s-22.917-59.375,6.25-59.375s41.666-46.876,56.25-47.917s32.293-50,14.584-50
	s-55.209-14.584-54.167-38.542s-1.042-31.25-31.25-31.25s-65.625,4.167-69.792-5.208s-47.917-9.375-43.75-23.958
	s-1.042-30.208,36.458-34.375s67.707-14.583,72.916-17.708S335.25,149.958,357.125,151s1.042-19.792-12.5-39.583
	s-31.25-5.208-50-3.125s-41.667,31.25-57.292,26.042s-45.834-13.542-44.792-26.042s-6.25-25-23.958-23.958s-44.792-1.042-58.333,0
	s-38.542-7.292-48.958,0s-35.417-12.5-34.375,10.417s-18.75,41.667,17.708,35.417s77.083-30.208,91.667-11.458
	s55.209,9.375,63.542,37.5s-15.625,22.917-11.458,46.875s-27.083,84.375,8.333,87.5s55.208,28.125,88.542,48.958
	s69.792,29.167,51.042,47.917s-52.083,71.875-39.583,85.417s-11.458,71.874,16.667,77.083s39.583,5.208,37.5,25
	s-28.126,58.334-4.167,77.084s70.834,42.709,44.792,53.125s-77.083,29.166-98.958,19.791s-53.125-8.333-78.125-5.208
	s-52.083,14.583-62.5,2.083s-43.75-4.166-62.5-7.291s-56.25-23.958-28.125-31.25s44.792-29.167,80.208-10.417
	s84.375,28.124,91.667,14.583s40.625-1.041,63.542-11.458s23.958-42.709-6.25-57.292s-32.292,29.168-67.708,17.709
	s-80.208-43.751-106.25-30.209s-75,13.542-56.25-20.833s69.792-63.542,92.708-34.375s107.292,62.5,108.333,31.25
	s39.583-101.042,3.125-101.042c-36.458,0-120.833,6.251-127.083-7.291s-73.958,14.584-75-6.25s-45.833-58.333-15.625-56.25
	s60.416,6.25,86.458,18.75s50,17.708,76.042,8.333s68.75-11.458,62.5-31.25s4.167-36.458-34.375-35.417s-65.625,19.792-87.5,8.333
	c-21.875-11.458-15.625-39.583,17.708-39.583S254,327.042,185.25,322.875S62.333,271.833,61.292,307.25
	s-36.458,28.125-34.375,15.625s-25-59.375,6.25-68.75s59.375,25,77.083,25s34.375-20.833,31.25-45.833"/>
</svg>
