<?xml version="1.0" encoding="utf-8"?>
<!-- Generator: Adobe Illustrator 16.0.4, SVG Export Plug-In . SVG Version: 6.00 Build 0)  -->
<!DOCTYPE svg PUBLIC "-//W3C//DTD SVG 1.1//EN" "http://www.w3.org/Graphics/SVG/1.1/DTD/svg11.dtd">
<svg version="1.1" id="Layer_1" xmlns="http://www.w3.org/2000/svg" xmlns:xlink="http://www.w3.org/1999/xlink" x="0px" y="0px"
	 width="594px" height="756px" viewBox="0 0 594 756" enable-background="new 0 0 594 756" xml:space="preserve">
<line fill="none" stroke="#ED1F24" stroke-width="0.001" stroke-miterlimit="10" x1="585.979" y1="9.988" x2="9.979" y2="9.988"/>
<line fill="none" stroke="#ED1F24" stroke-width="0.001" stroke-miterlimit="10" x1="10.618" y1="8" x2="10.618" y2="728"/>
<line fill="none" stroke="#ED1F24" stroke-width="0.001" stroke-miterlimit="10" x1="10.793" y1="728.084" x2="586.793" y2="728.084"/>
<line fill="none" stroke="#ED1F24" stroke-width="0.001" stroke-miterlimit="10" x1="584.823" y1="727.042" x2="584.823" y2="79.042"/>
<line fill="none" stroke="#ED1F24" stroke-width="0.001" stroke-miterlimit="10" x1="585.812" y1="82.488" x2="81.812" y2="82.488"/>
<line fill="none" stroke="#ED1F24" stroke-width="0.001" stroke-miterlimit="10" x1="81.113" y1="82.333" x2="81.113" y2="658.334"/>
<line fill="none" stroke="#ED1F24" stroke-width="0.001" stroke-miterlimit="10" x1="80.834" y1="658.542" x2="512.834" y2="658.542"/>
<line fill="none" stroke="#ED1F24" stroke-width="0.001" stroke-miterlimit="10" x1="512.486" y1="659.459" x2="512.486" y2="155.458"/>
<line fill="none" stroke="#ED1F24" stroke-width="0.001" stroke-miterlimit="10" x1="512.273" y1="157.905" x2="152.273" y2="157.905"/>
<line fill="none" stroke="#ED1F24" stroke-width="0.001" stroke-miterlimit="10" x1="152.362" y1="157.375" x2="152.362" y2="589.375"/>
<line fill="none" stroke="#ED1F24" stroke-width="0.001" stroke-miterlimit="10" x1="151.836" y1="590.25" x2="439.836" y2="590.25"/>
<line fill="none" stroke="#ED1F24" stroke-width="0.001" stroke-miterlimit="10" x1="439.236" y1="589.96" x2="439.236" y2="229.96"/>
<line fill="none" stroke="#ED1F24" stroke-width="0.001" stroke-miterlimit="10" x1="440.772" y1="231.28" x2="224.772" y2="231.28"/>
<line fill="none" stroke="#ED1F24" stroke-width="0.001" stroke-miterlimit="10" x1="224.529" y1="231.5" x2="224.529" y2="519.5"/>
<line fill="none" stroke="#ED1F24" stroke-width="0.001" stroke-miterlimit="10" x1="224.085" y1="520.458" x2="368.085" y2="520.458"/>
<line fill="none" stroke="#ED1F24" stroke-width="0.001" stroke-miterlimit="10" x1="369.445" y1="521.918" x2="369.445" y2="305.918"/>
<line fill="none" stroke="#ED1F24" stroke-width="0.001" stroke-miterlimit="10" x1="370.314" y1="307.536" x2="10.315" y2="307.536"/>
</svg>
