<?xml version="1.0" encoding="utf-8"?>
<!-- Generator: Adobe Illustrator 16.0.4, SVG Export Plug-In . SVG Version: 6.00 Build 0)  -->
<!DOCTYPE svg PUBLIC "-//W3C//DTD SVG 1.1//EN" "http://www.w3.org/Graphics/SVG/1.1/DTD/svg11.dtd">
<svg version="1.1" id="Layer_1" xmlns="http://www.w3.org/2000/svg" xmlns:xlink="http://www.w3.org/1999/xlink" x="0px" y="0px"
	 width="594px" height="756px" viewBox="0 0 594 756" enable-background="new 0 0 594 756" xml:space="preserve">
<polygon fill="none" stroke="#ED1F24" stroke-width="0.001" stroke-miterlimit="10" points="73.917,28.875 116.237,6.626 
	108.154,53.75 142.393,87.124 95.077,94 73.917,136.875 52.756,94 5.44,87.124 39.679,53.75 31.596,6.626 "/>
<polygon fill="none" stroke="#ED1F24" stroke-width="0.001" stroke-miterlimit="10" points="88.317,50.476 130.637,28.227 
	122.555,75.351 156.793,108.725 109.477,115.6 88.317,158.476 67.157,115.6 19.841,108.725 54.079,75.351 45.997,28.227 "/>
<polygon fill="none" stroke="#ED1F24" stroke-width="0.001" stroke-miterlimit="10" points="102.717,72.076 145.038,49.827 
	136.955,96.952 171.193,130.325 123.877,137.201 102.717,180.076 81.557,137.201 34.241,130.325 68.479,96.952 60.397,49.827 "/>
<polygon fill="none" stroke="#ED1F24" stroke-width="0.001" stroke-miterlimit="10" points="117.118,93.677 159.438,71.428 
	151.355,118.552 185.594,151.926 138.278,158.801 117.118,201.677 95.958,158.801 48.642,151.926 82.88,118.552 74.797,71.428 "/>
<polygon fill="none" stroke="#ED1F24" stroke-width="0.001" stroke-miterlimit="10" points="133.115,111.876 175.435,89.627 
	167.353,136.751 201.591,170.125 154.275,177 133.115,219.876 111.955,177 64.639,170.125 98.877,136.751 90.794,89.627 "/>
<polygon fill="none" stroke="#ED1F24" stroke-width="0.001" stroke-miterlimit="10" points="147.515,133.477 189.835,111.228 
	181.753,158.352 215.991,191.726 168.675,198.601 147.515,241.477 126.355,198.601 79.039,191.726 113.277,158.352 105.195,111.228 
	"/>
<polygon fill="none" stroke="#ED1F24" stroke-width="0.001" stroke-miterlimit="10" points="161.916,155.077 204.236,132.828 
	196.153,179.953 230.392,213.326 183.076,220.202 161.916,263.077 140.755,220.202 93.439,213.326 127.678,179.953 119.595,132.828 
	"/>
<polygon fill="none" stroke="#ED1F24" stroke-width="0.001" stroke-miterlimit="10" points="176.316,176.678 218.636,154.429 
	210.554,201.553 244.792,234.927 197.476,241.802 176.316,284.678 155.156,241.802 107.84,234.927 142.078,201.553 133.996,154.429 
	"/>
<polygon fill="none" stroke="#ED1F24" stroke-width="0.001" stroke-miterlimit="10" points="190.118,196.28 232.438,174.031 
	224.355,221.156 258.594,254.529 211.278,261.405 190.118,304.28 168.958,261.405 121.642,254.529 155.88,221.156 147.797,174.031 
	"/>
<polygon fill="none" stroke="#ED1F24" stroke-width="0.001" stroke-miterlimit="10" points="206.115,214.479 248.435,192.23 
	240.353,239.355 274.591,272.729 227.275,279.604 206.115,322.479 184.955,279.604 137.639,272.729 171.877,239.355 163.794,192.23 
	"/>
<polygon fill="none" stroke="#ED1F24" stroke-width="0.001" stroke-miterlimit="10" points="220.515,236.08 262.835,213.831 
	254.753,260.956 288.991,294.329 241.675,301.205 220.515,344.08 199.355,301.205 152.039,294.329 186.277,260.956 178.195,213.831 
	"/>
<polygon fill="none" stroke="#ED1F24" stroke-width="0.001" stroke-miterlimit="10" points="234.916,257.681 277.236,235.432 
	269.153,282.556 303.392,315.93 256.076,322.805 234.916,365.681 213.755,322.805 166.439,315.93 200.678,282.556 192.595,235.432 
	"/>
<polygon fill="none" stroke="#ED1F24" stroke-width="0.001" stroke-miterlimit="10" points="249.316,279.281 291.636,257.032 
	283.554,304.157 317.792,337.53 270.476,344.406 249.316,387.281 228.156,344.406 180.84,337.53 215.078,304.157 206.996,257.032 
	"/>
<polygon fill="none" stroke="#ED1F24" stroke-width="0.001" stroke-miterlimit="10" points="261.316,295.614 303.637,273.365 
	295.554,320.49 329.792,353.863 282.476,360.739 261.316,403.614 240.156,360.739 192.84,353.863 227.078,320.49 218.996,273.365 
	"/>
</svg>
