/* XPM */
static char *Filecabinet[] = {
/* columns rows colors chars-per-pixel */
"16 16 63 1 ",
"  c #B2C0DC",
". c #180808",
"X c #180810",
"o c #180C10",
"O c #181010",
"+ c #201018",
"@ c #201418",
"# c #201818",
"$ c #201C18",
"% c #201C20",
"& c #202020",
"* c #282020",
"= c #282420",
"- c #302420",
"; c #283030",
": c #495151",
"> c #717D86",
", c #9EAEB6",
"< c #9EAAB6",
"1 c #9EA6AE",
"2 c #96A6AE",
"3 c #717D79",
"4 c #414D51",
"5 c #868E96",
"6 c #96A2AE",
"7 c #79868E",
"8 c #697979",
"9 c #9EAAAE",
"0 c #96A2A6",
"q c #71828E",
"w c #697579",
"e c #201010",
"r c #969EA6",
"t c #8E9EA6",
"y c #282428",
"u c #282C28",
"i c #180008",
"p c #495551",
"a c #617179",
"s c #617171",
"d c #616D71",
"f c #616971",
"g c #616969",
"h c #495559",
"j c #697171",
"k c #596969",
"l c #302828",
"z c #100C08",
"x c #FFF3F7",
"c c #495959",
"v c #596569",
"b c #515959",
"n c #515D59",
"m c #515D61",
"M c #414D49",
"N c #AEA2A6",
"B c #596169",
"V c #596161",
"C c #516161",
"Z c #181418",
"A c #515961",
"S c #282C30",
"D c #000400",
/* pixels */
"                ",
"   t7557556     ",
"   Bf6<<665a6   ",
"   B:MwwwwwwBw  ",
"   B:;>aVbbggf  ",
"   ghM3a>xx8gB  ",
"   fhMwajw3dgf  ",
"   gbM>g35rgBf  ",
"   fmMwgghM:Bf  ",
"   amMfbBVVBBf  ",
"   aBMwgB3>gmB  ",
"   wgM8B3 xjmB  ",
"   wB4wBVVbbmB  ",
"    B:8mw33:bB  ",
"     b:MM;M;Mb  ",
"                "
};
