<?xml version="1.0" encoding="UTF-8" standalone="no"?>
<!DOCTYPE svg PUBLIC "-//W3C//DTD SVG 1.1//EN"
 "http://www.w3.org/Graphics/SVG/1.1/DTD/svg11.dtd">
<!-- Generated by graphviz version 2.38.0 (20140413.2041)
 -->
<!-- Title: Perl Pages: 1 -->
<svg width="477pt" height="131pt"
 viewBox="0.00 0.00 477.00 131.00" xmlns="http://www.w3.org/2000/svg" xmlns:xlink="http://www.w3.org/1999/xlink">
<g id="graph0" class="graph" transform="scale(1 1) rotate(0) translate(4 127)">
<title>Perl</title>
<polygon fill="white" stroke="none" points="-4,4 -4,-127 472.997,-127 472.997,4 -4,4"/>
<!-- node.1 -->
<g id="node1" class="node"><title>node.1</title>
<ellipse fill="none" stroke="black" cx="38.9965" cy="-105" rx="38.9931" ry="18"/>
<text text-anchor="middle" x="38.9965" y="-101.3" font-family="Times,serif" font-size="14.00">Node &#160;1</text>
</g>
<!-- node.2 -->
<g id="node2" class="node"><title>node.2</title>
<ellipse fill="none" stroke="blue" cx="38.9965" cy="-18" rx="34.394" ry="18"/>
<text text-anchor="middle" x="38.9965" y="-14.3" font-family="Times,serif" font-size="14.00">node.2</text>
</g>
<!-- node.1&#45;&gt;node.2 -->
<g id="edge1" class="edge"><title>node.1&#45;&gt;node.2</title>
<path fill="none" stroke="grey" d="M38.9965,-86.799C38.9965,-75.1626 38.9965,-59.5479 38.9965,-46.2368"/>
<polygon fill="grey" stroke="grey" points="34.9965,-36.1755 42.9965,-36.1754 42.9966,-44.1754 34.9966,-44.1755 34.9965,-36.1755"/>
<polyline fill="none" stroke="grey" points="38.9966,-44.1754 38.9966,-46.1754 "/>
<text text-anchor="middle" x="55.9965" y="-57.8" font-family="Times,serif" font-size="14.00">A box</text>
</g>
<!-- node.3 -->
<g id="node3" class="node"><title>node.3</title>
<ellipse fill="none" stroke="black" cx="134.997" cy="-105" rx="38.9931" ry="18"/>
<text text-anchor="middle" x="134.997" y="-101.3" font-family="Times,serif" font-size="14.00">Node &#160;3</text>
</g>
<!-- node.4 -->
<g id="node4" class="node"><title>node.4</title>
<ellipse fill="none" stroke="blue" cx="134.997" cy="-18" rx="34.394" ry="18"/>
<text text-anchor="middle" x="134.997" y="-14.3" font-family="Times,serif" font-size="14.00">node.4</text>
</g>
<!-- node.3&#45;&gt;node.4 -->
<g id="edge2" class="edge"><title>node.3&#45;&gt;node.4</title>
<path fill="none" stroke="grey" d="M134.997,-86.799C134.997,-75.1626 134.997,-59.5479 134.997,-46.2368"/>
<polygon fill="grey" stroke="grey" points="134.997,-46.1754 139.497,-36.1754 134.997,-41.1754 134.997,-36.1754 134.997,-36.1754 134.997,-36.1754 134.997,-41.1754 130.497,-36.1755 134.997,-46.1754 134.997,-46.1754"/>
<text text-anchor="middle" x="155.497" y="-57.8" font-family="Times,serif" font-size="14.00">A crow</text>
</g>
<!-- node.5 -->
<g id="node5" class="node"><title>node.5</title>
<ellipse fill="none" stroke="black" cx="230.997" cy="-105" rx="38.9931" ry="18"/>
<text text-anchor="middle" x="230.997" y="-101.3" font-family="Times,serif" font-size="14.00">Node &#160;5</text>
</g>
<!-- node.6 -->
<g id="node6" class="node"><title>node.6</title>
<ellipse fill="none" stroke="blue" cx="230.997" cy="-18" rx="34.394" ry="18"/>
<text text-anchor="middle" x="230.997" y="-14.3" font-family="Times,serif" font-size="14.00">node.6</text>
</g>
<!-- node.5&#45;&gt;node.6 -->
<g id="edge3" class="edge"><title>node.5&#45;&gt;node.6</title>
<path fill="none" stroke="grey" d="M230.997,-86.799C230.997,-75.7386 230.997,-61.0842 230.997,-48.2299"/>
<polygon fill="grey" stroke="grey" points="230.997,-48.1754 226.997,-42.1755 230.997,-36.1754 234.997,-42.1754 230.997,-48.1754"/>
<text text-anchor="middle" x="261.997" y="-57.8" font-family="Times,serif" font-size="14.00">A diamond</text>
</g>
<!-- node.7 -->
<g id="node7" class="node"><title>node.7</title>
<ellipse fill="none" stroke="black" cx="326.997" cy="-105" rx="38.9931" ry="18"/>
<text text-anchor="start" x="304.997" y="-101.3" font-family="Times,serif" font-size="14.00">Node &#160;7</text>
</g>
<!-- node.8 -->
<g id="node8" class="node"><title>node.8</title>
<ellipse fill="none" stroke="blue" cx="326.997" cy="-18" rx="34.394" ry="18"/>
<text text-anchor="middle" x="326.997" y="-14.3" font-family="Times,serif" font-size="14.00">node.8</text>
</g>
<!-- node.7&#45;&gt;node.8 -->
<g id="edge4" class="edge"><title>node.7&#45;&gt;node.8</title>
<path fill="none" stroke="grey" d="M326.997,-86.799C326.997,-78.0429 326.997,-67.0342 326.997,-56.4494"/>
<polygon fill="grey" stroke="grey" points="326.997,-36.1754 331.497,-46.1754 326.997,-41.1754 326.997,-46.1754 326.997,-46.1754 326.997,-46.1754 326.997,-41.1754 322.497,-46.1755 326.997,-36.1754 326.997,-36.1754"/>
<polygon fill="grey" stroke="grey" points="326.997,-46.1754 331.497,-56.1754 326.997,-51.1754 326.997,-56.1754 326.997,-56.1754 326.997,-56.1754 326.997,-51.1754 322.497,-56.1755 326.997,-46.1754 326.997,-46.1754"/>
<text text-anchor="middle" x="352.997" y="-57.8" font-family="Times,serif" font-size="14.00">A veevee</text>
</g>
<!-- node.9 -->
<g id="node9" class="node"><title>node.9</title>
<ellipse fill="none" stroke="black" cx="422.997" cy="-105" rx="38.9931" ry="18"/>
<text text-anchor="middle" x="422.997" y="-101.3" font-family="Times,serif" font-size="14.00">Node &#160;9</text>
</g>
<!-- node.10 -->
<g id="node10" class="node"><title>node.10</title>
<ellipse fill="none" stroke="blue" cx="422.997" cy="-18" rx="38.9931" ry="18"/>
<text text-anchor="middle" x="422.997" y="-14.3" font-family="Times,serif" font-size="14.00">node.10</text>
</g>
<!-- node.9&#45;&gt;node.10 -->
<g id="edge5" class="edge"><title>node.9&#45;&gt;node.10</title>
<path fill="none" stroke="grey" d="M422.997,-86.799C422.997,-75.1626 422.997,-59.5479 422.997,-46.2368"/>
<polygon fill="grey" stroke="grey" points="417.997,-37.1755 427.997,-37.1754 427.997,-39.1754 417.997,-39.1755 417.997,-37.1755"/>
<polyline fill="none" stroke="grey" points="422.997,-36.1754 422.997,-41.1754 "/>
<polygon fill="grey" stroke="grey" points="417.997,-42.1755 427.997,-42.1754 427.997,-44.1754 417.997,-44.1755 417.997,-42.1755"/>
<polyline fill="none" stroke="grey" points="422.997,-41.1754 422.997,-46.1754 "/>
<text text-anchor="middle" x="445.997" y="-57.8" font-family="Times,serif" font-size="14.00">A teetee</text>
</g>
</g>
</svg>
