<?xml version="1.0" encoding="UTF-8" standalone="no"?>
<!DOCTYPE svg PUBLIC "-//W3C//DTD SVG 1.1//EN"
 "http://www.w3.org/Graphics/SVG/1.1/DTD/svg11.dtd">
<!-- Generated by graphviz version 2.38.0 (20140413.2041)
 -->
<!-- Title: Perl Pages: 1 -->
<svg width="123pt" height="320pt"
 viewBox="0.00 0.00 123.00 320.00" xmlns="http://www.w3.org/2000/svg" xmlns:xlink="http://www.w3.org/1999/xlink">
<g id="graph0" class="graph" transform="scale(1 1) rotate(0) translate(4 316)">
<title>Perl</title>
<polygon fill="white" stroke="none" points="-4,4 -4,-316 119,-316 119,4 -4,4"/>
<!-- node.1 -->
<g id="node1" class="node"><title>node.1</title>
<ellipse fill="none" stroke="black" cx="72" cy="-294" rx="27" ry="18"/>
<text text-anchor="middle" x="72" y="-290.3" font-family="Times,serif" font-size="14.00">n 1</text>
</g>
<!-- 50 -->
<g id="node2" class="node"><title>50</title>
<ellipse fill="none" stroke="none" cx="72" cy="-225" rx="0" ry="0"/>
</g>
<!-- node.1&#45;&gt;50 -->
<g id="edge1" class="edge"><title>node.1&#45;&gt;50</title>
<path fill="none" stroke="grey" d="M72,-275.746C72,-263.276 72,-246.842 72,-236.346"/>
<polygon fill="grey" stroke="grey" points="75.5001,-236.086 72,-226.086 68.5001,-236.086 75.5001,-236.086"/>
<text text-anchor="middle" x="80.5" y="-246.8" font-family="Times,serif" font-size="14.00">e 1</text>
</g>
<g id="node3" class="node"><title></title>
<ellipse fill="none" stroke="black" cx="72" cy="-156" rx="27" ry="18"/>
<text text-anchor="middle" x="72" y="-152.3" font-family="Times,serif" font-size="14.00">n 2</text>
</g>
<!-- 50&#45;&gt; -->
<g id="edge2" class="edge"><title>50&#45;&gt;</title>
<path fill="none" stroke="grey" d="M72,-223.951C72,-222.825 72,-202.318 72,-184.294"/>
<polygon fill="grey" stroke="grey" points="75.5001,-184.135 72,-174.135 68.5001,-184.135 75.5001,-184.135"/>
<text text-anchor="middle" x="80.5" y="-195.8" font-family="Times,serif" font-size="14.00">e 2</text>
</g>
<!-- node.3 -->
<g id="node4" class="node"><title>node.3</title>
<ellipse fill="none" stroke="black" cx="27" cy="-69" rx="27" ry="18"/>
<text text-anchor="middle" x="27" y="-65.3" font-family="Times,serif" font-size="14.00">n 3</text>
</g>
<!-- &#45;&gt;node.3 -->
<g id="edge3" class="edge"><title>&#45;&gt;node.3</title>
<path fill="none" stroke="grey" d="M62.0652,-139.15C58.4569,-133.213 54.427,-126.364 51,-120 46.7807,-112.165 42.4799,-103.47 38.7062,-95.5576"/>
<polygon fill="grey" stroke="grey" points="41.826,-93.967 34.4057,-86.4046 35.4905,-96.9438 41.826,-93.967"/>
<text text-anchor="middle" x="59.5" y="-108.8" font-family="Times,serif" font-size="14.00">e 3</text>
</g>
<!-- 43 -->
<g id="node6" class="node"><title>43</title>
<ellipse fill="none" stroke="none" cx="72" cy="-69" rx="0" ry="0"/>
</g>
<!-- &#45;&gt;43 -->
<g id="edge6" class="edge"><title>&#45;&gt;43</title>
<path fill="none" stroke="grey" d="M72,-137.799C72,-120.505 72,-94.4241 72,-80.1771"/>
<polygon fill="grey" stroke="grey" points="75.5001,-80.124 72,-70.124 68.5001,-80.124 75.5001,-80.124"/>
<text text-anchor="middle" x="80.5" y="-108.8" font-family="Times,serif" font-size="14.00">e 6</text>
</g>
<!-- 57 -->
<g id="node5" class="node"><title>57</title>
<ellipse fill="none" stroke="none" cx="80" cy="-0" rx="0" ry="0"/>
</g>
<!-- node.3&#45;&gt;57 -->
<g id="edge4" class="edge"><title>node.3&#45;&gt;57</title>
<path fill="none" stroke="grey" d="M39.0265,-52.7967C49.7962,-39.1822 65.1665,-19.7518 73.6919,-8.97445"/>
<polygon fill="grey" stroke="grey" points="76.4678,-11.1068 79.9268,-1.09248 70.9778,-6.76391 76.4678,-11.1068"/>
<text text-anchor="middle" x="73.5" y="-21.8" font-family="Times,serif" font-size="14.00">e 4</text>
</g>
<!-- 57&#45;&gt; -->
<g id="edge5" class="edge"><title>57&#45;&gt;</title>
<path fill="none" stroke="grey" d="M80.0491,-1.10482C80.531,-2.14023 84.4357,-10.6531 86,-18 108.129,-121.929 98.4989,-100.147 93,-120 91.9951,-123.628 90.5029,-127.257 88.769,-130.732"/>
<polygon fill="grey" stroke="grey" points="85.7056,-129.038 83.7831,-139.457 91.7833,-132.511 85.7056,-129.038"/>
<text text-anchor="middle" x="106.5" y="-65.3" font-family="Times,serif" font-size="14.00">e 5</text>
</g>
</g>
</svg>
