<?xml version="1.0" encoding="UTF-8" standalone="no"?>
<!DOCTYPE svg PUBLIC "-//W3C//DTD SVG 1.1//EN"
 "http://www.w3.org/Graphics/SVG/1.1/DTD/svg11.dtd">
<!-- Generated by graphviz version 2.38.0 (20140413.2041)
 -->
<!-- Title: Perl Pages: 1 -->
<svg width="62pt" height="233pt"
 viewBox="0.00 0.00 62.00 233.00" xmlns="http://www.w3.org/2000/svg" xmlns:xlink="http://www.w3.org/1999/xlink">
<g id="graph0" class="graph" transform="scale(1 1) rotate(0) translate(4 229)">
<title>Perl</title>
<polygon fill="white" stroke="none" points="-4,4 -4,-229 58,-229 58,4 -4,4"/>
<!-- node -->
<g id="node1" class="node"><title>node</title>
<ellipse fill="none" stroke="black" cx="27" cy="-207" rx="27" ry="18"/>
<text text-anchor="middle" x="27" y="-203.3" font-family="Times,serif" font-size="14.00">n 1</text>
</g>
<!-- 30 -->
<g id="node2" class="node"><title>30</title>
<ellipse fill="none" stroke="none" cx="27" cy="-138" rx="0" ry="0"/>
</g>
<!-- node&#45;&gt;30 -->
<g id="edge1" class="edge"><title>node&#45;&gt;30</title>
<path fill="none" stroke="grey" d="M27,-188.746C27,-176.276 27,-159.842 27,-149.346"/>
<polygon fill="grey" stroke="grey" points="30.5001,-149.086 27,-139.086 23.5001,-149.086 30.5001,-149.086"/>
<text text-anchor="middle" x="35.5" y="-159.8" font-family="Times,serif" font-size="14.00">e 1</text>
</g>
<g id="node3" class="node"><title></title>
<ellipse fill="none" stroke="black" cx="27" cy="-69" rx="27" ry="18"/>
<text text-anchor="middle" x="27" y="-65.3" font-family="Times,serif" font-size="14.00">n 2</text>
</g>
<!-- 30&#45;&gt; -->
<g id="edge2" class="edge"><title>30&#45;&gt;</title>
<path fill="none" stroke="grey" d="M27,-136.951C27,-135.825 27,-115.318 27,-97.2944"/>
<polygon fill="grey" stroke="grey" points="30.5001,-97.1345 27,-87.1346 23.5001,-97.1346 30.5001,-97.1345"/>
<text text-anchor="middle" x="35.5" y="-108.8" font-family="Times,serif" font-size="14.00">e 2</text>
</g>
<!-- 23 -->
<g id="node4" class="node"><title>23</title>
<ellipse fill="none" stroke="none" cx="27" cy="-0" rx="0" ry="0"/>
</g>
<!-- &#45;&gt;23 -->
<g id="edge3" class="edge"><title>&#45;&gt;23</title>
<path fill="none" stroke="grey" d="M27,-50.7458C27,-38.2756 27,-21.8425 27,-11.346"/>
<polygon fill="grey" stroke="grey" points="30.5001,-11.0863 27,-1.08636 23.5001,-11.0864 30.5001,-11.0863"/>
<text text-anchor="middle" x="35.5" y="-21.8" font-family="Times,serif" font-size="14.00">e 3</text>
</g>
</g>
</svg>
