<?xml version="1.0" encoding="UTF-8" standalone="no"?>
<!DOCTYPE svg PUBLIC "-//W3C//DTD SVG 1.1//EN"
 "http://www.w3.org/Graphics/SVG/1.1/DTD/svg11.dtd">
<!-- Generated by graphviz version 2.38.0 (20140413.2041)
 -->
<!-- Title: Perl Pages: 1 -->
<svg width="100pt" height="219pt"
 viewBox="0.00 0.00 100.35 219.00" xmlns="http://www.w3.org/2000/svg" xmlns:xlink="http://www.w3.org/1999/xlink">
<g id="graph0" class="graph" transform="scale(1 1) rotate(0) translate(4 215)">
<title>Perl</title>
<polygon fill="white" stroke="none" points="-4,4 -4,-215 96.3466,-215 96.3466,4 -4,4"/>
<!-- node.1 -->
<g id="node1" class="node"><title>node.1</title>
<ellipse fill="none" stroke="red" cx="38.3466" cy="-193" rx="38.1938" ry="18"/>
<text text-anchor="middle" x="38.3466" y="-189.3" font-family="Times,serif" font-size="14.00">Node A</text>
</g>
<!-- 27 -->
<g id="node2" class="node"><title>27</title>
<ellipse fill="none" stroke="none" cx="38.3466" cy="-124" rx="0" ry="0"/>
</g>
<!-- node.1&#45;&gt;27 -->
<g id="edge1" class="edge"><title>node.1&#45;&gt;27</title>
<path fill="none" stroke="green" d="M38.3466,-174.746C38.3466,-162.276 38.3466,-145.842 38.3466,-135.346"/>
<polygon fill="green" stroke="green" points="41.8467,-135.086 38.3466,-125.086 34.8467,-135.086 41.8467,-135.086"/>
<text text-anchor="middle" x="58.8466" y="-145.8" font-family="Times,serif" font-size="14.00">Edge B</text>
</g>
<!-- node.2 -->
<g id="node3" class="node"><title>node.2</title>
<ellipse fill="none" stroke="black" cx="38.3466" cy="-55" rx="34.394" ry="18"/>
<text text-anchor="middle" x="38.3466" y="-51.3" font-family="Times,serif" font-size="14.00">node.2</text>
</g>
<!-- 27&#45;&gt;node.2 -->
<g id="edge2" class="edge"><title>27&#45;&gt;node.2</title>
<path fill="none" stroke="red" d="M38.3466,-122.951C38.3466,-121.825 38.3466,-101.318 38.3466,-83.2944"/>
<polygon fill="red" stroke="red" points="41.8467,-83.1345 38.3466,-73.1346 34.8467,-83.1346 41.8467,-83.1345"/>
<text text-anchor="middle" x="65.3466" y="-94.8" font-family="Times,serif" font-size="14.00">Edge C C</text>
</g>
<!-- 20 -->
<g id="node4" class="node"><title>20</title>
<ellipse fill="none" stroke="none" cx="38.3466" cy="-0" rx="0" ry="0"/>
</g>
<!-- node.2&#45;&gt;20 -->
<g id="edge3" class="edge"><title>node.2&#45;&gt;20</title>
<path fill="none" stroke="grey" d="M38.3466,-36.9387C38.3466,-28.4959 38.3466,-18.5828 38.3466,-11.3088"/>
<polygon fill="grey" stroke="grey" points="41.8467,-11.0591 38.3466,-1.05912 34.8467,-11.0592 41.8467,-11.0591"/>
</g>
</g>
</svg>
