<?xml version="1.0" encoding="UTF-8" standalone="no"?>
<!DOCTYPE svg PUBLIC "-//W3C//DTD SVG 1.1//EN"
 "http://www.w3.org/Graphics/SVG/1.1/DTD/svg11.dtd">
<!-- Generated by graphviz version 2.38.0 (20140413.2041)
 -->
<!-- Title: Perl Pages: 1 -->
<svg width="109pt" height="306pt"
 viewBox="0.00 0.00 109.39 306.00" xmlns="http://www.w3.org/2000/svg" xmlns:xlink="http://www.w3.org/1999/xlink">
<g id="graph0" class="graph" transform="scale(1 1) rotate(0) translate(4 302)">
<title>Perl</title>
<polygon fill="white" stroke="none" points="-4,4 -4,-302 105.391,-302 105.391,4 -4,4"/>
<!-- node.1 -->
<g id="node1" class="node"><title>node.1</title>
<ellipse fill="none" stroke="black" cx="50.6955" cy="-280" rx="34.394" ry="18"/>
<text text-anchor="middle" x="50.6955" y="-276.3" font-family="Times,serif" font-size="14.00">node.1</text>
</g>
<!-- 34 -->
<g id="node2" class="node"><title>34</title>
<ellipse fill="none" stroke="none" cx="50.6955" cy="-211" rx="0" ry="0"/>
</g>
<!-- node.1&#45;&gt;34 -->
<g id="edge1" class="edge"><title>node.1&#45;&gt;34</title>
<path fill="none" stroke="green" d="M50.6955,-249.669C50.6955,-238.978 50.6955,-227.711 50.6955,-220.316"/>
<polygon fill="none" stroke="green" points="50.6956,-249.746 54.6956,-255.746 50.6955,-261.746 46.6956,-255.746 50.6956,-249.746"/>
<ellipse fill="none" stroke="green" cx="50.6956" cy="-216.086" rx="4" ry="4"/>
<text text-anchor="middle" x="61.1955" y="-232.8" font-family="Times,serif" font-size="14.00">A 1</text>
</g>
<!-- 41 -->
<g id="node3" class="node"><title>41</title>
<ellipse fill="none" stroke="none" cx="50.6955" cy="-160" rx="0" ry="0"/>
</g>
<!-- 34&#45;&gt;41 -->
<g id="edge2" class="edge"><title>34&#45;&gt;41</title>
<path fill="none" stroke="blue" stroke-width="3" d="M50.6955,-209.859C50.6955,-207.858 50.6955,-184.956 50.6955,-171.229"/>
<polygon fill="blue" stroke="blue" stroke-width="3" points="54.1956,-171.132 50.6955,-161.132 47.1956,-171.132 54.1956,-171.132"/>
<text text-anchor="middle" x="60.6955" y="-181.8" font-family="Times,serif" font-size="14.00">B 2</text>
</g>
<g id="node4" class="node"><title></title>
<ellipse fill="none" stroke="black" cx="50.6955" cy="-91" rx="50.8918" ry="18"/>
<text text-anchor="middle" x="50.6955" y="-87.3" font-family="Times,serif" font-size="14.00">Some node</text>
</g>
<!-- 41&#45;&gt; -->
<g id="edge3" class="edge"><title>41&#45;&gt;</title>
<path fill="none" stroke="maroon" stroke-width="5" d="M50.6955,-140.808C50.6955,-134.182 50.6955,-126.538 50.6955,-119.294"/>
<polygon fill="maroon" stroke="maroon" stroke-width="5" points="46.3205,-158.951 50.6956,-148.951 55.0705,-158.951 46.3205,-158.951"/>
<ellipse fill="maroon" stroke="maroon" stroke-width="5" cx="50.6956" cy="-144.951" rx="4" ry="4"/>
<polygon fill="maroon" stroke="maroon" stroke-width="5" points="46.6955,-109.135 54.6955,-109.135 54.6956,-117.135 46.6956,-117.135 46.6955,-109.135"/>
<polyline fill="none" stroke="maroon" stroke-width="5" points="50.6956,-117.135 50.6956,-119.135 "/>
<text text-anchor="middle" x="60.6955" y="-130.8" font-family="Times,serif" font-size="14.00">C 3</text>
</g>
<!-- node.2 -->
<g id="node5" class="node"><title>node.2</title>
<ellipse fill="none" stroke="black" cx="50.6955" cy="-18" rx="34.394" ry="18"/>
<text text-anchor="middle" x="50.6955" y="-14.3" font-family="Times,serif" font-size="14.00">node.2</text>
</g>
<!-- &#45;&gt;node.2 -->
<g id="edge4" class="edge"><title>&#45;&gt;node.2</title>
<path fill="none" stroke="grey" d="M50.6955,-72.8129C50.6955,-64.7895 50.6955,-55.0475 50.6955,-46.0691"/>
<polygon fill="grey" stroke="grey" points="54.1956,-46.0288 50.6955,-36.0288 47.1956,-46.0289 54.1956,-46.0288"/>
</g>
</g>
</svg>
