<?xml version="1.0" encoding="UTF-8" standalone="no"?>
<!DOCTYPE svg PUBLIC "-//W3C//DTD SVG 1.1//EN"
 "http://www.w3.org/Graphics/SVG/1.1/DTD/svg11.dtd">
<!-- Generated by graphviz version 2.38.0 (20140413.2041)
 -->
<!-- Title: Perl Pages: 1 -->
<svg width="382pt" height="71pt"
 viewBox="0.00 0.00 382.19 71.45" xmlns="http://www.w3.org/2000/svg" xmlns:xlink="http://www.w3.org/1999/xlink">
<g id="graph0" class="graph" transform="scale(1 1) rotate(0) translate(4 67.4527)">
<title>Perl</title>
<polygon fill="white" stroke="none" points="-4,4 -4,-67.4527 378.192,-67.4527 378.192,4 -4,4"/>
<!-- node.1 -->
<g id="node1" class="node"><title>node.1</title>
<polygon fill="none" stroke="red" points="366.283,-21.828 366.283,-41.6248 261.318,-55.6233 112.874,-55.6233 7.9082,-41.6248 7.9082,-21.828 112.874,-7.82949 261.318,-7.82949 366.283,-21.828"/>
<polygon fill="none" stroke="red" points="370.286,-18.2977 370.286,-45.155 261.582,-59.652 112.61,-59.652 3.90615,-45.155 3.90615,-18.2977 112.61,-3.80075 261.582,-3.80075 370.286,-18.2977"/>
<polygon fill="none" stroke="red" points="374.288,-14.7675 374.288,-48.6852 261.846,-63.6807 112.346,-63.6807 -0.0958955,-48.6852 -0.0958955,-14.7675 112.346,0.228 261.846,0.228 374.288,-14.7675"/>
<text text-anchor="start" x="82.0958" y="-27.5264" font-family="Times,serif" font-size="14.00">HTML&#45;style label but without borders</text>
</g>
</g>
</svg>
