#define 1_width 32
#define 1_height 20
static unsigned char 1_bits[] = {
   0x00, 0x00, 0x00, 0x00, 0xfe, 0xff, 0xff, 0x7f, 0x02, 0x00, 0x00, 0x40,
   0x02, 0x00, 0x00, 0x40, 0x02, 0x00, 0x00, 0x40, 0x02, 0x00, 0x00, 0x40,
   0x02, 0x00, 0x01, 0x40, 0x02, 0x80, 0x01, 0x40, 0x02, 0x40, 0x01, 0x40,
   0x02, 0x00, 0x01, 0x40, 0x02, 0x00, 0x01, 0x40, 0x02, 0x00, 0x01, 0x40,
   0x02, 0x00, 0x01, 0x40, 0x02, 0x00, 0x01, 0x40, 0x02, 0x00, 0x01, 0x40,
   0x02, 0xc0, 0x07, 0x40, 0x02, 0x00, 0x00, 0x40, 0x02, 0x00, 0x00, 0x40,
   0xfe, 0xff, 0xff, 0x7f, 0x00, 0x00, 0x00, 0x00};
