/* XPM */
static char * Icon_xpm[] = {
"32 32 4 1",
" 	c #FFFFFFFFFFFF",
".	c #000000000000",
"X	c #FFFFBDBD0000",
"o	c #0000FFFF0000",
"                                ",
"       ..                ..     ",
"      ...               ...     ",
"      .X..             .....    ",
"     ..XX..            ......   ",
"     .X..X.           ...X...   ",
"    ..X.X.X. .......  .......   ",
"    .X.XXX....XXXXX...........  ",
"   ..X.X..XXXXXXXXXXXX........  ",
"   .XX...XXXXXXXXXXXXXXX......  ",
"   .X..XXXXXXXXXXXXXXXXXX.....  ",
"   ...XXXXXXXXXXXXXXXXXXXX....  ",
"   .XXXXXXXXXXXXXXXXXXXXXXX...  ",
"   .XXXXXXXXXXXXXXXXXXXXXXXXX.  ",
"  ..XXX.....XXXXXXX.....XXXXX.  ",
"  .XXX.ooooo.XXXXX.ooooo.XXXX.  ",
"  .XX.ooooo.o.XXX.o.ooooo.XXX.  ",
" ..XX.ooooooo.XXX.ooooooo.XXX.  ",
" .XXXX.ooooo.XXXXX.ooooo.XXXXX. ",
" .XXXXX.....XXXXXXX.....XXXXXX. ",
" .XXXXXXXXXXXXXXXXXXXXXXXXXXXX. ",
" .XXXXXXXXXXXXX.XXXXXXXXXXXXXX. ",
" .XXXXXXXXXXXXXXXXXXXXXXXXXXXX. ",
"..XXX..XXXXXXXXXXXXXXXXXXXXXXXX.",
".XXX.XX.XXXXXXXXXXXXXXXX...XXX..",
".XX.XX.XXXXXXXXXXXXXXXX..XX.XX..",
".XX.X.X.XXXXX.XXX.XXXXX.X.XXX...",
".XXXX.X.XXXXXX...XXXXXXX.X.XX.X.",
"..XXX.X.XXXXXXXXXXXXXXXX.X.XX.X.",
".X.XXXXXXXXXXXXXXXXXXXXX.XXX.XX.",
".XXXXXXXXXXXXXXXXXXXXXXXXXXXXXX.",
".XXXXXXXXXXXXXXXXXXXXXXXXXXXXXX."};
