<?xml version="1.0" encoding="iso-8859-1"?>
<!-- Generator: Adobe Illustrator 9.0, SVG Export Plug-In  -->
<!DOCTYPE svg PUBLIC "-//W3C//DTD SVG 20000303 Stylable//EN"   "http://www.w3.org/TR/2000/03/WD-SVG-20000303/DTD/svg-20000303-stylable.dtd" [
	<!ENTITY st0 "fill:url(#aigrd1);stroke:none;">
	<!ENTITY st1 "fill:url(#aigrd9);stroke:none;">
	<!ENTITY st2 "fill:url(#aigrd6);stroke:none;">
	<!ENTITY st3 "fill:url(#aigrd3);stroke:none;">
	<!ENTITY st4 "fill:#FFFDED;stroke:none;">
	<!ENTITY st5 "fill:url(#aigrd10);stroke:none;">
	<!ENTITY st6 "fill:url(#aigrd8);stroke:none;">
	<!ENTITY st7 "fill:url(#aigrd5);stroke:none;">
	<!ENTITY st8 "fill:url(#aigrd2);stroke:none;">
	<!ENTITY st9 "opacity:0.6;fill:url(#aigrd11);stroke:none;">
	<!ENTITY st10 "fill:none;stroke:none;">
	<!ENTITY st11 "fill:url(#aigrd12);stroke:none;">
	<!ENTITY st12 "fill-rule:nonzero;clip-rule:nonzero;stroke:#000000;stroke-miterlimit:4;">
	<!ENTITY st13 "fill:url(#aigrd7);stroke:none;">
	<!ENTITY st14 "opacity:0.1;stroke:none;">
	<!ENTITY st15 "fill:url(#aigrd4);stroke:none;">
]>
<svg  width="144pt" height="144pt" viewBox="0 0 144 144" xml:space="preserve">
	<g id="Layer_x0020_2" style="&st12;">
		<path style="&st10;" d="M144,144H0V0h144v144z"/>
		<g>
			<path style="&st4;" d="M131.764,103.236v-0.656l-0.446,0.232l-5.262-4.988l5.708-2.977v-22.34l-0.178,0.092l-5.221-4.949l5.398-2.814V41.88l-0.153,0.081L91.36,3.802L64.646,18.146l-0.341-0.326v0.503l-0.311,0.163l0.311,0.294v30.206l-0.311,0.161l0.311,0.296
				v30.33l-0.092,0.049l0.092,0.088v21.451l40.094,38.244v0.615l27.365-14.686v-22.107l0.131-0.068l-0.131-0.123z"/>
		</g>
		<linearGradient id="aigrd1" gradientUnits="userSpaceOnUse" x1="69.8691" y1="76.9648" x2="120.9993" y2="109.0887">
			<stop  offset="0" style="stop-color:#BD4700"/>
			<stop  offset="0.0819" style="stop-color:#C04D04"/>
			<stop  offset="0.1963" style="stop-color:#C9600E"/>
			<stop  offset="0.3299" style="stop-color:#D77D20"/>
			<stop  offset="0.4767" style="stop-color:#EAA637"/>
			<stop  offset="0.6067" style="stop-color:#FED150"/>
			<stop  offset="1" style="stop-color:#FE7400"/>
		</linearGradient>
		<path style="&st0;" d="M125.431,96.006l-20.95,11.703L80.782,84.908l-0.008,6.553l25.469,24.223l25.466-13.646l-6.278-6.031z"/>
		<linearGradient id="aigrd2" gradientUnits="userSpaceOnUse" x1="83.2266" y1="55.6982" x2="134.3549" y2="87.821">
			<stop  offset="0" style="stop-color:#BD4700"/>
			<stop  offset="0.0819" style="stop-color:#C04D04"/>
			<stop  offset="0.1963" style="stop-color:#C9600E"/>
			<stop  offset="0.3299" style="stop-color:#D77D20"/>
			<stop  offset="0.4767" style="stop-color:#EAA637"/>
			<stop  offset="0.6067" style="stop-color:#FED150"/>
			<stop  offset="1" style="stop-color:#FE7400"/>
		</linearGradient>
		<path style="&st8;" d="M125.431,66.047L104.48,77.75L80.782,54.948l-0.753,7.149l25.021,23.479l26.212-14.245l-5.831-5.284z"/>
		<linearGradient id="aigrd3" gradientUnits="userSpaceOnUse" x1="101.9756" y1="113.9141" x2="132.4543" y2="127.9975">
			<stop  offset="0" style="stop-color:#FEFFB1"/>
			<stop  offset="0.3146" style="stop-color:#FED150"/>
			<stop  offset="1" style="stop-color:#FE7400"/>
		</linearGradient>
		<path style="&st3;" d="M105.498,119.203l-0.012,18.553l24.53-13.072l0.015-20.025l-23.689,12.352c0,0-0.538,0.381-0.697,1.031c-0.157,0.652-0.146,1.162-0.146,1.162z"/>
		<linearGradient id="aigrd4" gradientUnits="userSpaceOnUse" x1="106.8555" y1="85.7178" x2="130.2672" y2="96.3204">
			<stop  offset="0" style="stop-color:#FEFFB1"/>
			<stop  offset="0.3146" style="stop-color:#FED150"/>
			<stop  offset="1" style="stop-color:#FE7400"/>
		</linearGradient>
		<path style="&st15;" d="M105.498,88.65l-0.012,18.553l24.53-13.07l0.015-20.025l-23.689,12.35c0,0-0.538,0.383-0.697,1.033c-0.157,0.648-0.146,1.16-0.146,1.16z"/>
		<linearGradient id="aigrd5" gradientUnits="userSpaceOnUse" x1="104.0146" y1="53.3643" x2="131.9882" y2="67.8334">
			<stop  offset="0" style="stop-color:#FEFFB1"/>
			<stop  offset="0.3146" style="stop-color:#FED150"/>
			<stop  offset="1" style="stop-color:#FE7400"/>
		</linearGradient>
		<path style="&st7;" d="M105.498,58.098l-0.012,19.297l24.53-13.07l0.015-20.771l-23.689,12.352c0,0-0.538,0.381-0.697,1.031c-0.157,0.651-0.146,1.162-0.146,1.162z"/>
		<linearGradient id="aigrd6" gradientUnits="userSpaceOnUse" x1="77.4316" y1="64.542" x2="119.5532" y2="160.0565">
			<stop  offset="0.0056" style="stop-color:#FED150"/>
			<stop  offset="1" style="stop-color:#FE7400"/>
		</linearGradient>
		<path style="&st2;" d="M103.691,77.389V56.822L63.415,18.266v81.76l40.276,38.418v-22.551L80.893,94.068v-8.775l22.799,21.746V87.432L80.893,65.605v-9.965l22.799,21.748z"/>
		<linearGradient id="aigrd7" gradientUnits="userSpaceOnUse" x1="81.54" y1="21.2285" x2="127.1442" y2="43.5746">
			<stop  offset="0" style="stop-color:#FEFFB1"/>
			<stop  offset="0.3146" style="stop-color:#FED150"/>
			<stop  offset="1" style="stop-color:#FE7400"/>
		</linearGradient>
		<path style="&st13;" d="M92.573,4.247L66.219,18.403l38.656,36.648l26.355-14.155L92.573,4.247z"/>
		<g>
			<linearGradient id="aigrd8" gradientUnits="userSpaceOnUse" x1="52.7529" y1="7.3511" x2="143.1738" y2="135.8905">
				<stop  offset="0" style="stop-color:#FE9B00"/>
				<stop  offset="1" style="stop-color:#E04800"/>
			</linearGradient>
			<path style="&st6;" d="M90.537,2.224c0,0-24.229,13.048-25.845,13.891c-1.149,0.575-2.169,1.68-2.167,3.313c0,1.204,0,59.222,0,59.96c-0.018,0.068-0.065,0.119-0.075,0.189c-0.013,0.082-0.018,0.166-0.018,0.246c0,0.156,0.054,0.299,0.093,0.447
				c0,0.699,0,21.092,0,21.092c0,0.486,0.199,0.951,0.551,1.287c0,0,38.618,36.836,39.594,37.768c0.063,0.541,0.333,1.041,0.806,1.326c0.531,0.322,1.193,0.344,1.745,0.057l27.366-14.686c0.588-0.305,0.957-0.914,0.957-1.578l0.001-22.652
				c0-0.621-1.502-1.863-1.757-2.076c-0.661-0.627-1.479-1.402-2.697-2.557c1.66-0.865,3.496-1.824,3.496-1.824c0.588-0.305,0.957-0.914,0.957-1.578v-22.34c0-0.623-0.325-1.199-0.858-1.523c-0.094-0.057-0.206-0.047-0.308-0.084
				c-0.451-0.43-1.628-1.546-2.978-2.824c1.541-0.804,3.187-1.662,3.187-1.662c0.587-0.307,0.957-0.914,0.957-1.578V41.88c0-0.623-0.326-1.2-0.859-1.523c-0.079-0.047-0.172-0.036-0.254-0.07C131.638,39.535,92.585,2.51,92.585,2.51
				c-0.552-0.523-1.374-0.638-2.048-0.287z M65.666,80.848c-0.006,0.01-0.019,0.016-0.025,0.025c0.008-0.01,0.02-0.016,0.025-0.025z M91.057,5.966c1.742,1.651,38.158,36.176,38.928,36.905c0,1.727,0,19.014,0,20.886c-1.296,0.675-4.441,2.314-4.441,2.314
				c-0.511,0.267-0.86,0.761-0.939,1.331c-0.012,0.084-0.018,0.166-0.018,0.248c0,0.484,0.198,0.953,0.555,1.291c0,0,4.194,3.979,4.844,4.594c0,1.773,0,18.375,0,20.234c-1.326,0.691-4.751,2.477-4.751,2.477c-0.511,0.266-0.859,0.764-0.939,1.332
				c-0.012,0.082-0.018,0.164-0.018,0.246c0,0.484,0.198,0.953,0.556,1.291c0,0,4.943,4.689,5.152,4.887c0,1.035,0,18.555,0,20.455c-1.653,0.861-22.259,12.021-24.862,13.379c-0.97-0.926-37.978-36.227-39.038-37.236c0-1.418,0-20.689,0-20.689
				c0-0.027-0.014-0.051-0.016-0.078c0-0.021,0.016-0.037,0.016-0.059v-30.33c0-0.092-0.039-0.174-0.053-0.264c0.008-0.068,0.053-0.124,0.053-0.193c0,0,0-28.39,0-29.584c1.115-0.58,22.983-12.398,24.973-13.436z"/>
		</g>
		<path style="&st14;" d="M45.479,141.457l40.855-18.326L74.766,78.934l-29.287,62.523z"/>
		<linearGradient id="aigrd9" gradientUnits="userSpaceOnUse" x1="48.627" y1="56.3594" x2="53.9663" y2="143.5695">
			<stop  offset="0" style="stop-color:#FFFFFF"/>
			<stop  offset="0.1859" style="stop-color:#FBFBFC"/>
			<stop  offset="0.3728" style="stop-color:#EFEFF2"/>
			<stop  offset="0.5603" style="stop-color:#DBDBE2"/>
			<stop  offset="0.7481" style="stop-color:#BEBECC"/>
			<stop  offset="0.9347" style="stop-color:#9A9AAF"/>
			<stop  offset="1" style="stop-color:#8C8CA4"/>
		</linearGradient>
		<path style="&st1;" d="M47.725,140.227L9.804,95.969l37.173-81.107L89.306,47.04l-41.581,93.187z"/>
		<linearGradient id="aigrd10" gradientUnits="userSpaceOnUse" x1="-35.1704" y1="13.3369" x2="88.5276" y2="109.1031">
			<stop  offset="0" style="stop-color:#FFFFFF"/>
			<stop  offset="1" style="stop-color:#545477"/>
		</linearGradient>
		<path style="&st5;" d="M46.545,13.135c-0.524,0.131-0.961,0.493-1.186,0.984L8.186,95.227C7.896,95.857,8,96.6,8.452,97.125l37.921,44.26c0.397,0.465,1.004,0.691,1.607,0.605c0.604-0.09,1.121-0.48,1.369-1.037l41.581-93.188c0.337-0.755,0.11-1.643-0.548-2.143
			L48.054,13.444c-0.431-0.327-0.985-0.441-1.509-0.31z M47.669,17.623c3.159,2.4,37.399,28.432,39.437,29.98c-1.086,2.436-37.723,84.541-39.859,89.33c-3.249-3.791-33.996-39.678-35.35-41.26c0.9-1.965,34.035-74.26,35.772-78.051z"/>
		<linearGradient id="aigrd11" gradientUnits="userSpaceOnUse" x1="64.6162" y1="38.1875" x2="65.3035" y2="140.8499">
			<stop  offset="0" style="stop-color:#FFFFFF"/>
			<stop  offset="1" style="stop-color:#545477"/>
		</linearGradient>
		<path style="&st9;" d="M47.186,129.871l-1.309-54.934l37.787-27.596l-33.06,29.959l-3.419,52.57z"/>
		<linearGradient id="aigrd12" gradientUnits="userSpaceOnUse" x1="32.5313" y1="38.4004" x2="33.2186" y2="141.0599">
			<stop  offset="0" style="stop-color:#FFFFFF"/>
			<stop  offset="0.7606" style="stop-color:#545477"/>
		</linearGradient>
		<path style="&st11;" d="M47.669,17.623l6.245,62.041l-42.1,17.117l34.063-21.844l1.792-57.314z"/>
	</g>
</svg>
