<?xml version="1.0" encoding="iso-8859-1"?>
<!-- Generator: Adobe Illustrator 9.0, SVG Export Plug-In  -->
<!DOCTYPE svg PUBLIC "-//W3C//DTD SVG 20000303 Stylable//EN"   "http://www.w3.org/TR/2000/03/WD-SVG-20000303/DTD/svg-20000303-stylable.dtd" [
	<!ENTITY st0 "fill:url(#aigrd14);stroke:none;">
	<!ENTITY st1 "fill:url(#aigrd1);stroke:none;">
	<!ENTITY st2 "fill:url(#aigrd24);stroke:none;">
	<!ENTITY st3 "fill:url(#aigrd11);stroke:none;">
	<!ENTITY st4 "fill:url(#aigrd9);stroke:none;">
	<!ENTITY st5 "fill-rule:nonzero;clip-rule:nonzero;stroke:#FFFFFF;stroke-width:0;stroke-miterlimit:4;">
	<!ENTITY st6 "fill:url(#aigrd21);stroke:none;">
	<!ENTITY st7 "opacity:0.2;stroke:none;">
	<!ENTITY st8 "fill:url(#aigrd19);stroke:none;">
	<!ENTITY st9 "fill:url(#aigrd6);stroke:none;">
	<!ENTITY st10 "opacity:0.2;fill:url(#aigrd17);stroke:none;">
	<!ENTITY st11 "fill:url(#aigrd16);stroke:none;">
	<!ENTITY st12 "fill:url(#aigrd3);stroke:none;">
	<!ENTITY st13 "fill:url(#aigrd26);stroke:none;">
	<!ENTITY st14 "fill:url(#aigrd13);stroke:none;">
	<!ENTITY st15 "opacity:0.75;fill:url(#aigrd29);stroke:none;">
	<!ENTITY st16 "fill:url(#aigrd23);stroke:none;">
	<!ENTITY st17 "fill:url(#aigrd10);stroke:none;">
	<!ENTITY st18 "opacity:0.21;fill:url(#aigrd25);stroke:none;">
	<!ENTITY st19 "fill:url(#aigrd8);stroke:none;">
	<!ENTITY st20 "fill:url(#aigrd20);stroke:none;">
	<!ENTITY st21 "fill:#FFFFFF;stroke:none;">
	<!ENTITY st22 "fill:url(#aigrd18);stroke:none;">
	<!ENTITY st23 "fill:url(#aigrd5);stroke:none;">
	<!ENTITY st24 "fill:url(#aigrd28);stroke:none;">
	<!ENTITY st25 "fill:url(#aigrd15);stroke:none;">
	<!ENTITY st26 "fill:url(#aigrd2);stroke:none;">
	<!ENTITY st27 "fill:none;stroke:none;">
	<!ENTITY st28 "fill:url(#aigrd12);stroke:none;">
	<!ENTITY st29 "fill:url(#aigrd22);stroke:none;">
	<!ENTITY st30 "fill:url(#aigrd7);stroke:none;">
	<!ENTITY st31 "fill:url(#aigrd4);stroke:none;">
	<!ENTITY st32 "fill:url(#aigrd27);stroke:none;">
]>
<svg  width="144pt" height="144pt" viewBox="0 0 144 144" xml:space="preserve">
	<g id="Layer_x0020_2" style="&st5;">
		<path style="&st27;" d="M144,144H0V0h144v144z"/>
		<path style="&st7;" d="M85.635,53.172c6.499,0,12.956,1.79,18.67,5.178c1.171,0.693,1.875,1.918,1.875,3.244c0,0.186-0.013,0.371-0.041,0.559c0,0-1.611,10.814-2.322,15.586c7.142,1.451,14.03,3.498,20.997,5.691c1.051,0.33,1.906,1.096,2.349,2.104
			c0.215,0.49,0.322,1.012,0.322,1.533c0,0.555-0.121,1.105-0.36,1.619c-0.136,0.289-2.946,6.266-7.188,14.168c6.218,2.145,12.359,5.07,18.639,8.961c1.077,0.666,1.752,1.826,1.803,3.092c0.002,0.051,0.003,0.1,0.003,0.15c0,1.211-0.575,2.354-1.557,3.074
			c-0.396,0.291-9.353,6.844-20.62,13.146c0,2.695,0,7.703,0,7.703c0,2.105-1.708,3.814-3.814,3.814H56.878c-2.106,0-3.814-1.709-3.814-3.814c0,0,0-5.008,0-7.703c-11.267-6.305-20.222-12.855-20.619-13.146c-0.981-0.721-1.557-1.863-1.557-3.074
			c0-0.066,0.002-0.135,0.005-0.201c0.068-1.283,0.777-2.445,1.888-3.094c6.456-3.768,12.597-6.619,18.649-8.727c-4.295-7.99-7.147-14.055-7.285-14.35c-0.24-0.514-0.36-1.064-0.36-1.619c0-0.521,0.107-1.043,0.322-1.533c0.442-1.008,1.298-1.773,2.347-2.104
			c6.973-2.195,13.863-4.24,21-5.691c-0.711-4.773-2.322-15.586-2.322-15.586c-0.027-0.188-0.041-0.373-0.041-0.559c0-1.326,0.703-2.551,1.874-3.244c5.713-3.388,12.169-5.178,18.671-5.178z"/>
		<path style="&st7;" d="M17.454,8.029c-2.017,0-3.686,1.57-3.808,3.584l-5.722,94.722c-0.063,1.051,0.31,2.08,1.03,2.846s1.726,1.199,2.777,1.199h118.879c1.057,0,2.064-0.438,2.787-1.209c0.72-0.771,1.09-1.807,1.02-2.859l-6.357-94.725
			c-0.135-2.002-1.799-3.559-3.807-3.559h-106.8z"/>
		<linearGradient id="aigrd1" gradientUnits="userSpaceOnUse" x1="-30.5791" y1="-4.2788" x2="61.9182" y2="52.9359">
			<stop  offset="0" style="stop-color:#FFFFFF"/>
			<stop  offset="1" style="stop-color:#5454A2"/>
		</linearGradient>
		<path style="&st1;" d="M10.954,1.529c-2.017,0-3.686,1.57-3.808,3.584L1.425,99.836c-0.063,1.051,0.31,2.08,1.03,2.846s1.726,1.199,2.777,1.199h118.879c1.057,0,2.064-0.438,2.787-1.209c0.72-0.771,1.09-1.807,1.02-2.859l-6.357-94.725
			c-0.135-2.002-1.799-3.559-3.807-3.559h-106.8z"/>
		<linearGradient id="aigrd2" gradientUnits="userSpaceOnUse" x1="29.6172" y1="28.7305" x2="103.9923" y2="84.6706">
			<stop  offset="0" style="stop-color:#FFFFFF"/>
			<stop  offset="1" style="stop-color:#C2CDFF"/>
		</linearGradient>
		<path style="&st26;" d="M124.111,100.066H5.232l5.722-94.723h106.8l6.357,94.723z"/>
		<linearGradient id="aigrd3" gradientUnits="userSpaceOnUse" x1="70.3018" y1="60.7305" x2="-14.6953" y2="-27.2665">
			<stop  offset="0" style="stop-color:#FFFFFF"/>
			<stop  offset="1" style="stop-color:#5454A2"/>
		</linearGradient>
		<path style="&st12;" d="M27.047,15.39c-3.523,0-6.45,2.755-6.662,6.272l-3.702,61.281c-0.11,1.828,0.546,3.643,1.802,4.977c1.258,1.334,3.029,2.102,4.861,2.102h82.544c1.841,0,3.616-0.773,4.875-2.115c1.259-1.35,1.908-3.172,1.785-5.008l-4.113-61.279
			c-0.235-3.494-3.16-6.229-6.66-6.229H27.047z"/>
		<linearGradient id="aigrd4" gradientUnits="userSpaceOnUse" x1="103.1367" y1="80.5732" x2="26.8494" y2="28.1257">
			<stop  offset="0" style="stop-color:#0032A4"/>
			<stop  offset="1" style="stop-color:#3995E5"/>
		</linearGradient>
		<path style="&st31;" d="M27.047,18.25c-2.016,0-3.686,1.57-3.807,3.584l-3.701,61.281c-0.064,1.049,0.309,2.078,1.029,2.844c0.721,0.768,1.727,1.201,2.777,1.201h82.544c1.057,0,2.065-0.438,2.786-1.209c0.722-0.771,1.09-1.807,1.02-2.861l-4.112-61.28
			c-0.136-2.003-1.799-3.56-3.807-3.56H27.047z"/>
		<linearGradient id="aigrd5" gradientUnits="userSpaceOnUse" x1="103.1074" y1="84.2217" x2="51.6108" y2="44.1688">
			<stop  offset="0" style="stop-color:#0032A4"/>
			<stop  offset="1" style="stop-color:#3995E5"/>
		</linearGradient>
		<path style="&st23;" d="M27.047,18.25c-2.016,0-3.686,1.57-3.807,3.584l-3.701,61.281c-0.064,1.049,0.309,2.078,1.029,2.844c0.721,0.768,1.727,1.201,2.777,1.201h82.544c1.057,0,2.065-0.438,2.786-1.209c0.722-0.771,1.09-1.807,1.02-2.861l-4.112-61.28
			c-0.136-2.003-1.799-3.56-3.807-3.56H27.047z"/>
		<linearGradient id="aigrd6" gradientUnits="userSpaceOnUse" x1="31.458" y1="19.4248" x2="83.1845" y2="61.2279">
			<stop  offset="0" style="stop-color:#FFFFFF"/>
			<stop  offset="0.2022" style="stop-color:#CDF8FF"/>
			<stop  offset="1" style="stop-color:#0074FF"/>
		</linearGradient>
		<path style="&st9;" d="M27.049,22.064c0.017,0,0.023,0.002,0.023,0.003s-0.014,0.003-0.025,0.005c-0.001,0.015-2.479,39.266-2.883,45.646c3.699-4.679,13.452-13.052,37.666-17.159c29.992-5.09,39.39-13.525,40.852-15.02c-0.053-0.777-0.904-13.469-0.905-13.472
			c0-0.001-0.001-0.001-0.001-0.003c-0.005,0-74.726,0-74.727,0z"/>
		<linearGradient id="aigrd7" gradientUnits="userSpaceOnUse" x1="50.376" y1="123.0479" x2="107.8867" y2="123.0479">
			<stop  offset="0" style="stop-color:#FFAE00"/>
			<stop  offset="1" style="stop-color:#4C1C00"/>
		</linearGradient>
		<path style="&st30;" d="M50.378,110.756c-1.58,0-2.86,1.281-2.86,2.861v18.863c0,1.58,1.28,2.859,2.86,2.859h57.512c1.58,0,2.861-1.279,2.861-2.859v-18.863c0-1.58-1.281-2.861-2.861-2.861H50.378z"/>
		<linearGradient id="aigrd8" gradientUnits="userSpaceOnUse" x1="50.3779" y1="123.0488" x2="107.8896" y2="123.0488">
			<stop  offset="0" style="stop-color:#FFB800"/>
			<stop  offset="0.5" style="stop-color:#FFFFE1"/>
			<stop  offset="1" style="stop-color:#FFB800"/>
		</linearGradient>
		<path style="&st19;" d="M107.89,132.48H50.378v-18.863h57.512v18.863z"/>
		<linearGradient id="aigrd9" gradientUnits="userSpaceOnUse" x1="28.207" y1="113.8887" x2="130.0737" y2="113.8887">
			<stop  offset="0" style="stop-color:#FFAE00"/>
			<stop  offset="1" style="stop-color:#4C1C00"/>
		</linearGradient>
		<path style="&st4;" d="M26.761,106.086c-0.833,0.486-1.364,1.357-1.415,2.32c-0.051,0.961,0.387,1.885,1.162,2.455c1.36,1,33.529,24.479,52.627,24.479c19.099,0,51.266-23.479,52.625-24.479c0.767-0.563,1.203-1.469,1.165-2.418s-0.544-1.818-1.353-2.318
			c-18.401-11.398-33.707-13.688-52.438-13.688c-17.89,0-32.891,2.283-52.374,13.648z"/>
		<linearGradient id="aigrd10" gradientUnits="userSpaceOnUse" x1="28.2021" y1="115.3223" x2="130.0652" y2="115.3223">
			<stop  offset="0.1011" style="stop-color:#FFB800"/>
			<stop  offset="0.1159" style="stop-color:#FFBD10"/>
			<stop  offset="0.1728" style="stop-color:#FFCE46"/>
			<stop  offset="0.2303" style="stop-color:#FFDD76"/>
			<stop  offset="0.287" style="stop-color:#FFE99C"/>
			<stop  offset="0.3428" style="stop-color:#FFF3BA"/>
			<stop  offset="0.3974" style="stop-color:#FFFAD0"/>
			<stop  offset="0.4505" style="stop-color:#FFFEDD"/>
			<stop  offset="0.5" style="stop-color:#FFFFE1"/>
			<stop  offset="0.5531" style="stop-color:#FFFEDD"/>
			<stop  offset="0.6064" style="stop-color:#FFFAD1"/>
			<stop  offset="0.6598" style="stop-color:#FFF4BD"/>
			<stop  offset="0.7133" style="stop-color:#FFEBA1"/>
			<stop  offset="0.7669" style="stop-color:#FFDF7C"/>
			<stop  offset="0.8207" style="stop-color:#FFD150"/>
			<stop  offset="0.8735" style="stop-color:#FFC11C"/>
			<stop  offset="0.8989" style="stop-color:#FFB800"/>
		</linearGradient>
		<path style="&st17;" d="M47.602,99.617c-6.146,2.014-12.459,4.891-19.399,8.939c0,0,23.543,17.295,41.89,22.471c-7.87-6.715-16.24-20.074-22.49-31.41z"/>
		<linearGradient id="aigrd11" gradientUnits="userSpaceOnUse" x1="28.2021" y1="113.5918" x2="130.0672" y2="113.5918">
			<stop  offset="0.1011" style="stop-color:#FFFFF5"/>
			<stop  offset="1" style="stop-color:#FFB800"/>
		</linearGradient>
		<path style="&st3;" d="M33.59,108.84c5.337,3.648,15.729,10.385,26.219,15.215c-4.215-5.43-8.732-12.439-13.506-20.926c-4.135,1.488-8.338,3.367-12.713,5.711z"/>
		<linearGradient id="aigrd12" gradientUnits="userSpaceOnUse" x1="41.0977" y1="133.1836" x2="117.1702" y2="133.1836">
			<stop  offset="0" style="stop-color:#FFAE00"/>
			<stop  offset="1" style="stop-color:#4C1C00"/>
		</linearGradient>
		<path style="&st28;" d="M88.177,131.027c-3.226,0.908-6.294,1.453-9.042,1.453s-5.816-0.545-9.043-1.453c3.151,2.688,6.222,4.313,9.043,4.313c2.82,0,5.891-1.625,9.042-4.313z"/>
		<linearGradient id="aigrd13" gradientUnits="userSpaceOnUse" x1="28.2041" y1="113.8896" x2="130.0656" y2="113.8896">
			<stop  offset="0.1011" style="stop-color:#FFB800"/>
			<stop  offset="0.1159" style="stop-color:#FFBD10"/>
			<stop  offset="0.1728" style="stop-color:#FFCE46"/>
			<stop  offset="0.2303" style="stop-color:#FFDD76"/>
			<stop  offset="0.287" style="stop-color:#FFE99C"/>
			<stop  offset="0.3428" style="stop-color:#FFF3BA"/>
			<stop  offset="0.3974" style="stop-color:#FFFAD0"/>
			<stop  offset="0.4505" style="stop-color:#FFFEDD"/>
			<stop  offset="0.5" style="stop-color:#FFFFE1"/>
			<stop  offset="0.5531" style="stop-color:#FFFEDD"/>
			<stop  offset="0.6064" style="stop-color:#FFFAD1"/>
			<stop  offset="0.6598" style="stop-color:#FFF4BD"/>
			<stop  offset="0.7133" style="stop-color:#FFEBA1"/>
			<stop  offset="0.7669" style="stop-color:#FFDF7C"/>
			<stop  offset="0.8207" style="stop-color:#FFD150"/>
			<stop  offset="0.8735" style="stop-color:#FFC11C"/>
			<stop  offset="0.8989" style="stop-color:#FFB800"/>
		</linearGradient>
		<path style="&st14;" d="M88.177,131.027c7.911-6.75,16.328-20.213,22.587-31.586c-10.217-3.295-20.209-4.143-31.629-4.143c-11.488,0-21.283,0.961-31.533,4.318c6.25,11.336,14.62,24.695,22.49,31.41c3.227,0.908,6.295,1.453,9.043,1.453s5.816-0.545,9.042-1.453z"
			/>
		<linearGradient id="aigrd14" gradientUnits="userSpaceOnUse" x1="30.1055" y1="101.334" x2="128.0323" y2="101.334">
			<stop  offset="0" style="stop-color:#FFAE00"/>
			<stop  offset="1" style="stop-color:#4C1C00"/>
		</linearGradient>
		<path style="&st0;" d="M119.788,79.418c-0.332-0.756-0.973-1.332-1.76-1.578c-10.834-3.412-24.318-7.653-38.894-7.653c-14.576,0-28.061,4.241-38.895,7.653c-0.787,0.246-1.429,0.822-1.76,1.578c-0.332,0.754-0.322,1.617,0.027,2.363
			c1.395,2.979,4.727,9.912,9.094,17.836c6.25,11.336,14.62,24.695,22.49,31.41c3.227,0.908,6.295,1.453,9.043,1.453s5.816-0.545,9.042-1.453c7.911-6.75,16.328-20.213,22.587-31.586c4.32-7.852,7.612-14.705,8.996-17.66c0.352-0.746,0.36-1.609,0.028-2.363z"/>
		<linearGradient id="aigrd15" gradientUnits="userSpaceOnUse" x1="28.2012" y1="115.8232" x2="130.066" y2="115.8232">
			<stop  offset="0.1011" style="stop-color:#FFB800"/>
			<stop  offset="0.1159" style="stop-color:#FFBD10"/>
			<stop  offset="0.1728" style="stop-color:#FFCE46"/>
			<stop  offset="0.2303" style="stop-color:#FFDD76"/>
			<stop  offset="0.287" style="stop-color:#FFE99C"/>
			<stop  offset="0.3428" style="stop-color:#FFF3BA"/>
			<stop  offset="0.3974" style="stop-color:#FFFAD0"/>
			<stop  offset="0.4505" style="stop-color:#FFFEDD"/>
			<stop  offset="0.5" style="stop-color:#FFFFE1"/>
			<stop  offset="0.5531" style="stop-color:#FFFEDD"/>
			<stop  offset="0.6064" style="stop-color:#FFFAD1"/>
			<stop  offset="0.6598" style="stop-color:#FFF4BD"/>
			<stop  offset="0.7133" style="stop-color:#FFEBA1"/>
			<stop  offset="0.7669" style="stop-color:#FFDF7C"/>
			<stop  offset="0.8207" style="stop-color:#FFD150"/>
			<stop  offset="0.8735" style="stop-color:#FFC11C"/>
			<stop  offset="0.8989" style="stop-color:#FFB800"/>
		</linearGradient>
		<path style="&st25;" d="M91.553,129.961c17.729-6.137,38.514-21.404,38.514-21.404c-4.592-2.844-8.969-5.088-13.254-6.871c-0.583,0.797-1.181,1.607-1.796,2.432c-6.821,9.135-15.512,19.633-23.464,25.844z"/>
		<linearGradient id="aigrd16" gradientUnits="userSpaceOnUse" x1="28.2021" y1="115.2344" x2="130.0681" y2="115.2344">
			<stop  offset="0.1011" style="stop-color:#FFB800"/>
			<stop  offset="0.1159" style="stop-color:#FFBD10"/>
			<stop  offset="0.1728" style="stop-color:#FFCE46"/>
			<stop  offset="0.2303" style="stop-color:#FFDD76"/>
			<stop  offset="0.287" style="stop-color:#FFE99C"/>
			<stop  offset="0.3428" style="stop-color:#FFF3BA"/>
			<stop  offset="0.3974" style="stop-color:#FFFAD0"/>
			<stop  offset="0.4505" style="stop-color:#FFFEDD"/>
			<stop  offset="0.5" style="stop-color:#FFFFE1"/>
			<stop  offset="0.5531" style="stop-color:#FFFEDD"/>
			<stop  offset="0.6064" style="stop-color:#FFFAD1"/>
			<stop  offset="0.6598" style="stop-color:#FFF4BD"/>
			<stop  offset="0.7133" style="stop-color:#FFEBA1"/>
			<stop  offset="0.7669" style="stop-color:#FFDF7C"/>
			<stop  offset="0.8207" style="stop-color:#FFD150"/>
			<stop  offset="0.8735" style="stop-color:#FFC11C"/>
			<stop  offset="0.8989" style="stop-color:#FFB800"/>
		</linearGradient>
		<path style="&st11;" d="M88.177,131.027c1.108-0.314,2.235-0.672,3.376-1.066c7.952-6.211,16.643-16.709,23.464-25.844c0.615-0.824,1.213-1.635,1.796-2.432c-2.032-0.846-4.047-1.598-6.049-2.244c-6.259,11.373-14.676,24.836-22.587,31.586z"/>
		<linearGradient id="aigrd17" gradientUnits="userSpaceOnUse" x1="30.1064" y1="115.2344" x2="128.035" y2="115.2344">
			<stop  offset="0" style="stop-color:#FFAE00"/>
			<stop  offset="1" style="stop-color:#4C1C00"/>
		</linearGradient>
		<path style="&st10;" d="M88.177,131.027c1.108-0.314,2.235-0.672,3.376-1.066c7.952-6.211,16.643-16.709,23.464-25.844c0.615-0.824,1.213-1.635,1.796-2.432c-2.032-0.846-4.047-1.598-6.049-2.244c-6.259,11.373-14.676,24.836-22.587,31.586z"/>
		<linearGradient id="aigrd18" gradientUnits="userSpaceOnUse" x1="41.0986" y1="102.7432" x2="117.1691" y2="102.7432">
			<stop  offset="0.1011" style="stop-color:#FFB800"/>
			<stop  offset="0.1159" style="stop-color:#FFBD10"/>
			<stop  offset="0.1728" style="stop-color:#FFCE46"/>
			<stop  offset="0.2303" style="stop-color:#FFDD76"/>
			<stop  offset="0.287" style="stop-color:#FFE99C"/>
			<stop  offset="0.3428" style="stop-color:#FFF3BA"/>
			<stop  offset="0.3974" style="stop-color:#FFFAD0"/>
			<stop  offset="0.4505" style="stop-color:#FFFEDD"/>
			<stop  offset="0.5" style="stop-color:#FFFFE1"/>
			<stop  offset="0.5495" style="stop-color:#FFFEDD"/>
			<stop  offset="0.6026" style="stop-color:#FFFAD0"/>
			<stop  offset="0.6572" style="stop-color:#FFF3BA"/>
			<stop  offset="0.713" style="stop-color:#FFE99C"/>
			<stop  offset="0.7697" style="stop-color:#FFDD76"/>
			<stop  offset="0.8272" style="stop-color:#FFCE46"/>
			<stop  offset="0.8841" style="stop-color:#FFBD10"/>
			<stop  offset="0.8989" style="stop-color:#FFB800"/>
		</linearGradient>
		<path style="&st22;" d="M65.692,94.305c-1.198-6.762-2.308-13.553-3.245-19.521c-7.463,1.465-14.576,3.654-21.349,5.783c0,0,19.218,41.035,33.126,50.137c-0.967-2.213-1.93-5.322-3.021-9.602c-1.654-6.484-3.508-15.5-5.511-26.797z"/>
		<linearGradient id="aigrd19" gradientUnits="userSpaceOnUse" x1="41.0977" y1="99.5117" x2="117.1706" y2="99.5117">
			<stop  offset="0.1064" style="stop-color:#FFFFF5"/>
			<stop  offset="1" style="stop-color:#FFB800"/>
		</linearGradient>
		<path style="&st8;" d="M45.113,82.318c4.818,9.861,14.363,27.691,23.076,38.479c-1.611-6.469-3.394-15.158-5.314-25.994c0,0-1.844-11.094-2.756-16.576c-5.048,1.125-10.014,2.549-15.006,4.092z"/>
		<linearGradient id="aigrd20" gradientUnits="userSpaceOnUse" x1="62.4102" y1="133.0215" x2="95.8601" y2="133.0215">
			<stop  offset="0" style="stop-color:#FFAE00"/>
			<stop  offset="1" style="stop-color:#4C1C00"/>
		</linearGradient>
		<path style="&st20;" d="M74.225,130.703c1.469,3.363,2.947,4.637,4.91,4.637c1.962,0,3.44-1.273,4.91-4.637c-1.735,1.137-3.388,1.777-4.91,1.777s-3.176-0.641-4.91-1.777z"/>
		<linearGradient id="aigrd21" gradientUnits="userSpaceOnUse" x1="41.1006" y1="102.7637" x2="117.1722" y2="102.7637">
			<stop  offset="0.1011" style="stop-color:#FFB800"/>
			<stop  offset="0.1159" style="stop-color:#FFBD10"/>
			<stop  offset="0.1728" style="stop-color:#FFCE46"/>
			<stop  offset="0.2303" style="stop-color:#FFDD76"/>
			<stop  offset="0.287" style="stop-color:#FFE99C"/>
			<stop  offset="0.3428" style="stop-color:#FFF3BA"/>
			<stop  offset="0.3974" style="stop-color:#FFFAD0"/>
			<stop  offset="0.4505" style="stop-color:#FFFEDD"/>
			<stop  offset="0.5" style="stop-color:#FFFFE1"/>
			<stop  offset="0.5495" style="stop-color:#FFFEDD"/>
			<stop  offset="0.6026" style="stop-color:#FFFAD0"/>
			<stop  offset="0.6572" style="stop-color:#FFF3BA"/>
			<stop  offset="0.713" style="stop-color:#FFE99C"/>
			<stop  offset="0.7697" style="stop-color:#FFDD76"/>
			<stop  offset="0.8272" style="stop-color:#FFCE46"/>
			<stop  offset="0.8841" style="stop-color:#FFBD10"/>
			<stop  offset="0.8989" style="stop-color:#FFB800"/>
		</linearGradient>
		<path style="&st6;" d="M92.577,94.305c1.198-6.762,2.309-13.553,3.245-19.521c-5.379-1.055-10.938-1.736-16.688-1.736c-5.749,0-11.309,0.682-16.688,1.736c0.938,5.969,2.047,12.76,3.245,19.521c2.003,11.297,3.856,20.313,5.511,26.797
			c1.092,4.279,2.055,7.389,3.021,9.602c1.734,1.137,3.388,1.777,4.91,1.777s3.175-0.641,4.91-1.777c0.967-2.213,1.929-5.324,3.021-9.602c1.654-6.484,3.509-15.5,5.511-26.797z"/>
		<linearGradient id="aigrd22" gradientUnits="userSpaceOnUse" x1="62.4082" y1="90.0527" x2="95.8581" y2="90.0527">
			<stop  offset="0" style="stop-color:#FFAE00"/>
			<stop  offset="1" style="stop-color:#4C1C00"/>
		</linearGradient>
		<path style="&st29;" d="M79.135,73.047c-5.749,0-11.309,0.682-16.688,1.736c-1.719-10.952-2.854-19.136-2.871-19.262c-0.158-1.141,0.383-2.264,1.374-2.852c5.565-3.301,11.854-5.045,18.185-5.045c6.329,0,12.617,1.744,18.184,5.045
			c0.991,0.587,1.533,1.711,1.376,2.852c-0.018,0.126-1.152,8.31-2.872,19.262c-5.379-1.055-10.938-1.736-16.688-1.736z M92.577,94.305c1.198-6.762,2.309-13.553,3.245-19.521c-5.379-1.055-10.938-1.736-16.688-1.736c-5.749,0-11.309,0.682-16.688,1.736
			c0.938,5.969,2.047,12.76,3.245,19.521c2.003,11.297,3.856,20.313,5.511,26.797c1.092,4.279,2.055,7.389,3.021,9.602c1.734,1.137,3.388,1.777,4.91,1.777s3.175-0.641,4.91-1.777c0.967-2.213,1.929-5.324,3.021-9.602c1.654-6.484,3.509-15.5,5.511-26.797z"/>
		<linearGradient id="aigrd23" gradientUnits="userSpaceOnUse" x1="41.0977" y1="103.2041" x2="117.1697" y2="103.2041">
			<stop  offset="0.1011" style="stop-color:#FFB800"/>
			<stop  offset="0.1159" style="stop-color:#FFBD10"/>
			<stop  offset="0.1728" style="stop-color:#FFCE46"/>
			<stop  offset="0.2303" style="stop-color:#FFDD76"/>
			<stop  offset="0.287" style="stop-color:#FFE99C"/>
			<stop  offset="0.3428" style="stop-color:#FFF3BA"/>
			<stop  offset="0.3974" style="stop-color:#FFFAD0"/>
			<stop  offset="0.4505" style="stop-color:#FFFEDD"/>
			<stop  offset="0.5" style="stop-color:#FFFFE1"/>
			<stop  offset="0.5495" style="stop-color:#FFFEDD"/>
			<stop  offset="0.6026" style="stop-color:#FFFAD0"/>
			<stop  offset="0.6572" style="stop-color:#FFF3BA"/>
			<stop  offset="0.713" style="stop-color:#FFE99C"/>
			<stop  offset="0.7697" style="stop-color:#FFDD76"/>
			<stop  offset="0.8272" style="stop-color:#FFCE46"/>
			<stop  offset="0.8841" style="stop-color:#FFBD10"/>
			<stop  offset="0.8989" style="stop-color:#FFB800"/>
		</linearGradient>
		<path style="&st16;" d="M102.163,76.211c-0.065,0.24-0.127,0.475-0.194,0.717c-1.576,5.834-3.415,12.465-5.339,19.055c-3.212,11.016-6.032,19.777-8.378,26.045c-1.31,3.494-2.436,6.16-3.477,8.17c13.84-10.014,32.395-49.631,32.395-49.631
			c-4.826-1.518-9.83-3.061-15.007-4.355z"/>
		<linearGradient id="aigrd24" gradientUnits="userSpaceOnUse" x1="41.0977" y1="102.7432" x2="117.1704" y2="102.7432">
			<stop  offset="0.1011" style="stop-color:#FFB800"/>
			<stop  offset="0.1159" style="stop-color:#FFBD10"/>
			<stop  offset="0.1728" style="stop-color:#FFCE46"/>
			<stop  offset="0.2303" style="stop-color:#FFDD76"/>
			<stop  offset="0.287" style="stop-color:#FFE99C"/>
			<stop  offset="0.3428" style="stop-color:#FFF3BA"/>
			<stop  offset="0.3974" style="stop-color:#FFFAD0"/>
			<stop  offset="0.4505" style="stop-color:#FFFEDD"/>
			<stop  offset="0.5" style="stop-color:#FFFFE1"/>
			<stop  offset="0.5495" style="stop-color:#FFFEDD"/>
			<stop  offset="0.6026" style="stop-color:#FFFAD0"/>
			<stop  offset="0.6572" style="stop-color:#FFF3BA"/>
			<stop  offset="0.713" style="stop-color:#FFE99C"/>
			<stop  offset="0.7697" style="stop-color:#FFDD76"/>
			<stop  offset="0.8272" style="stop-color:#FFCE46"/>
			<stop  offset="0.8841" style="stop-color:#FFBD10"/>
			<stop  offset="0.8989" style="stop-color:#FFB800"/>
		</linearGradient>
		<path style="&st2;" d="M96.63,95.982c1.924-6.59,3.763-13.221,5.339-19.055c0.067-0.242,0.129-0.477,0.194-0.717c-2.086-0.521-4.197-1.006-6.341-1.428c-0.937,5.969-2.047,12.76-3.245,19.521c-2.002,11.297-3.856,20.313-5.511,26.797
			c-1.093,4.277-2.055,7.389-3.021,9.602c0.241-0.158,0.485-0.328,0.73-0.506c1.041-2.01,2.167-4.676,3.477-8.17c2.346-6.268,5.166-15.029,8.378-26.045z"/>
		<linearGradient id="aigrd25" gradientUnits="userSpaceOnUse" x1="62.4102" y1="102.7432" x2="95.8617" y2="102.7432">
			<stop  offset="0" style="stop-color:#FFAE00"/>
			<stop  offset="1" style="stop-color:#4C1C00"/>
		</linearGradient>
		<path style="&st18;" d="M96.63,95.982c1.924-6.59,3.763-13.221,5.339-19.055c0.067-0.242,0.129-0.477,0.194-0.717c-2.086-0.521-4.197-1.006-6.341-1.428c-0.937,5.969-2.047,12.76-3.245,19.521c-2.002,11.297-3.856,20.313-5.511,26.797
			c-1.093,4.277-2.055,7.389-3.021,9.602c0.241-0.158,0.485-0.328,0.73-0.506c1.041-2.01,2.167-4.676,3.477-8.17c2.346-6.268,5.166-15.029,8.378-26.045z"/>
		<linearGradient id="aigrd26" gradientUnits="userSpaceOnUse" x1="62.4102" y1="91.4834" x2="95.8604" y2="91.4834">
			<stop  offset="0.1011" style="stop-color:#FFB800"/>
			<stop  offset="0.5" style="stop-color:#FFFFE1"/>
			<stop  offset="0.9096" style="stop-color:#FFB800"/>
		</linearGradient>
		<path style="&st13;" d="M79.135,50.486c-6.034,0-11.725,1.68-16.725,4.644c0,0,10.69,77.351,16.725,77.351S95.86,55.13,95.86,55.13c-5.003-2.964-10.691-4.644-16.726-4.644z"/>
		<linearGradient id="aigrd27" gradientUnits="userSpaceOnUse" x1="37.6084" y1="80.4834" x2="120.6627" y2="80.4825">
			<stop  offset="0" style="stop-color:#FFB800"/>
			<stop  offset="0.5" style="stop-color:#FFFFF5"/>
			<stop  offset="1" style="stop-color:#FFB800"/>
		</linearGradient>
		<path style="&st32;" d="M65.527,56.746c2.533,18.066,5.646,36.826,8.51,50.873c0.171-17.885,6.817-22.834,6.817-22.834s8.447-4.994,9.966-14.931c0.667-4.359,1.312-8.755,1.922-13.108c-4.285-2.213-8.843-3.398-13.607-3.398c-4.767,0-9.324,1.186-13.607,3.398z"/>
		<linearGradient id="aigrd28" gradientUnits="userSpaceOnUse" x1="28.1982" y1="91.4834" x2="130.0597" y2="91.4834">
			<stop  offset="0" style="stop-color:#FFAE00"/>
			<stop  offset="1" style="stop-color:#4C1C00"/>
		</linearGradient>
		<path style="&st24;" d="M79.135,46.672c6.499,0,12.956,1.79,18.67,5.178c1.171,0.693,1.875,1.918,1.875,3.244c0,0.186-0.013,0.371-0.041,0.559c0,0-1.611,10.813-2.322,15.586c7.142,1.451,14.03,3.498,20.997,5.691c1.051,0.33,1.906,1.096,2.349,2.104
			c0.215,0.49,0.322,1.012,0.322,1.533c0,0.555-0.121,1.105-0.36,1.619c-0.136,0.289-2.946,6.266-7.188,14.168c6.218,2.145,12.359,5.07,18.639,8.961c1.077,0.666,1.752,1.826,1.803,3.092c0.002,0.051,0.003,0.1,0.003,0.15c0,1.211-0.575,2.354-1.557,3.074
			c-0.396,0.291-9.353,6.844-20.62,13.146c0,2.695,0,7.703,0,7.703c0,2.105-1.708,3.814-3.814,3.814H50.378c-2.106,0-3.814-1.709-3.814-3.814c0,0,0-5.008,0-7.703c-11.267-6.305-20.222-12.855-20.619-13.146c-0.981-0.721-1.557-1.863-1.557-3.074
			c0-0.066,0.002-0.135,0.005-0.201c0.068-1.283,0.777-2.445,1.888-3.094c6.456-3.768,12.597-6.619,18.649-8.727c-4.295-7.99-7.147-14.055-7.285-14.35c-0.24-0.514-0.36-1.064-0.36-1.619c0-0.521,0.107-1.043,0.322-1.533c0.442-1.008,1.298-1.773,2.347-2.104
			c6.973-2.195,13.863-4.24,21-5.691c-0.711-4.773-2.322-15.586-2.322-15.586c-0.027-0.188-0.041-0.373-0.041-0.559c0-1.326,0.703-2.551,1.874-3.244c5.713-3.388,12.169-5.178,18.671-5.178z M130.066,108.557c-7.813-4.84-15.016-7.98-22.185-9.984
			c5.468-9.848,9.288-18.006,9.288-18.006c-7.618-2.396-15.668-4.865-24.162-6.293c1.727-11,2.853-19.144,2.853-19.144c-5.003-2.964-10.691-4.644-16.726-4.644S67.41,52.166,62.41,55.13c0,0,1.125,8.144,2.852,19.144c-8.494,1.426-16.545,3.896-24.163,6.293
			c0,0,3.864,8.25,9.38,18.172c-7.064,2.025-14.25,5.137-22.276,9.818c0,0,10.075,7.4,22.176,13.969v9.955h57.512v-9.953c12.102-6.57,22.177-13.971,22.177-13.971z"/>
		<linearGradient id="aigrd29" gradientUnits="userSpaceOnUse" x1="32.2666" y1="36.8398" x2="43.7871" y2="36.8398">
			<stop  offset="0" style="stop-color:#0032A4"/>
			<stop  offset="1" style="stop-color:#3995E5"/>
		</linearGradient>
		<path style="&st15;" d="M43.787,35.898L34.54,26.65c-0.381-0.381-0.954-0.494-1.452-0.289c-0.497,0.207-0.821,0.692-0.821,1.231v18.495c0,0.539,0.324,1.023,0.821,1.23c0.498,0.205,1.071,0.092,1.452-0.289l9.247-9.248c0.521-0.52,0.521-1.363,0-1.883z"/>
		<path style="&st21;" d="M41.689,33.8l-9.247-9.247c-0.382-0.381-0.954-0.496-1.452-0.289c-0.498,0.205-0.822,0.691-0.822,1.23v18.495c0,0.538,0.324,1.024,0.822,1.23s1.07,0.092,1.452-0.29l9.247-9.246c0.521-0.521,0.521-1.364,0-1.884z"/>
	</g>
</svg>
