/* XPM */
static char * lightning_xpm[] = {
"30 42 3 1",
" 	g None",
".	g #FFFFFF",
"+	g #000000",
"..............................",
"..............................",
"..............................",
"..............................",
"..............................",
"..............................",
"..............................",
"..............................",
"..............................",
"..............................",
"..............................",
"..............................",
"..............................",
"....................+.........",
".....................+........",
"...................+..........",
"............+++.....+.........",
".............++...+.+.........",
"............++++...+..........",
"............+++++.++..........",
"...........+++++++++..........",
"...........+++++++++..........",
"...........++++++++...........",
"...........+.+.++++...........",
"..........++...++++...........",
"..........++....++............",
"...........+.....+............",
"..........+...................",
"..............................",
"..........+...................",
".........+....................",
"..............................",
"..............................",
"..............................",
"..............................",
"..............................",
"..............................",
"..............................",
"..............................",
"..............................",
"..............................",
".............................."};
