<?xml version="1.0" encoding="UTF-8" standalone="no"?>
<!DOCTYPE svg PUBLIC "-//W3C//DTD SVG 1.1//EN"
 "http://www.w3.org/Graphics/SVG/1.1/DTD/svg11.dtd">
<!-- Generated by graphviz version 2.38.0 (20140413.2041)
 -->
<!-- Title: graph_06 Pages: 1 -->
<svg width="332pt" height="67pt"
 viewBox="0.00 0.00 332.00 67.00" xmlns="http://www.w3.org/2000/svg" xmlns:xlink="http://www.w3.org/1999/xlink">
<g id="graph0" class="graph" transform="scale(1 1) rotate(0) translate(4 63)">
<title>graph_06</title>
<polygon fill="white" stroke="none" points="-4,4 -4,-63 328,-63 328,4 -4,4"/>
<text text-anchor="middle" x="162" y="-7.8" font-family="Times,serif" font-size="14.00">Complex Syntax Test</text>
<!-- A -->
<g id="node1" class="node"><title>A</title>
<ellipse fill="none" stroke="blue" cx="27" cy="-41" rx="27" ry="18"/>
<text text-anchor="middle" x="27" y="-37.3" font-family="Times,serif" font-size="14.00">A</text>
</g>
<!-- B -->
<g id="node3" class="node"><title>B</title>
<polygon fill="goldenrod" stroke="mediumseagreen" points="108,-59 72,-59 72,-23 108,-23 108,-59"/>
<text text-anchor="middle" x="90" y="-37.3" font-family="Times,serif" font-size="14.00">B</text>
</g>
<!-- A&#45;&gt;B -->
<g id="edge1" class="edge"><title>A&#45;&gt;B</title>
<path fill="none" stroke="purple" d="M54.0703,-41C56.5571,-41 59.044,-41 61.5308,-41"/>
<polygon fill="purple" stroke="purple" points="61.7545,-44.5001 71.7545,-41 61.7544,-37.5001 61.7545,-44.5001"/>
</g>
<!-- C -->
<g id="node2" class="node"><title>C</title>
<polygon fill="none" stroke="#ff3030" points="180,-46.5623 153,-59 126,-46.5623 126.025,-26.4377 179.975,-26.4377 180,-46.5623"/>
<text text-anchor="middle" x="153" y="-37.3" font-family="Times,serif" font-size="14.00">C</text>
</g>
<!-- D -->
<g id="node4" class="node"><title>D</title>
<ellipse fill="#00868b" stroke="black" cx="234" cy="-41" rx="18" ry="18"/>
<text text-anchor="middle" x="234" y="-37.3" font-family="Times,serif" font-size="14.00">D</text>
</g>
<!-- C&#45;&gt;D -->
<g id="edge3" class="edge"><title>C&#45;&gt;D</title>
<path fill="none" stroke="purple" d="M190.257,-41C195.472,-41 200.687,-41 205.902,-41"/>
<polygon fill="none" stroke="purple" points="180.211,-45 180.211,-37 188.211,-37.0001 188.211,-45.0001 180.211,-45"/>
<polyline fill="none" stroke="purple" points="188.211,-41.0001 190.211,-41.0001 "/>
<polygon fill="purple" stroke="purple" points="205.93,-41.0001 215.93,-45.5 210.93,-41 215.93,-41 215.93,-41 215.93,-41 210.93,-41 215.93,-36.5 205.93,-41.0001 205.93,-41.0001"/>
</g>
<!-- B&#45;&gt;C -->
<g id="edge2" class="edge"><title>B&#45;&gt;C</title>
<path fill="none" stroke="orange" stroke-width="5" d="M108.211,-41C110.671,-41 113.132,-41 115.592,-41"/>
<polygon fill="orange" stroke="orange" stroke-width="5" points="115.707,-45.3751 125.707,-41 115.707,-36.6251 115.707,-45.3751"/>
</g>
<!-- E -->
<g id="node5" class="node"><title>E</title>
<ellipse fill="#00868b" stroke="black" cx="306" cy="-41" rx="18" ry="18"/>
<text text-anchor="middle" x="306" y="-37.3" font-family="Times,serif" font-size="14.00">E</text>
</g>
<!-- D&#45;&gt;E -->
<g id="edge4" class="edge"><title>D&#45;&gt;E</title>
<path fill="none" stroke="purple" stroke-width="5" d="M260.124,-41C266.625,-41 273.125,-41 279.626,-41"/>
<ellipse fill="none" stroke="purple" stroke-width="5" cx="256" cy="-41" rx="4" ry="4"/>
<ellipse fill="purple" stroke="purple" stroke-width="5" cx="283.859" cy="-41" rx="4" ry="4"/>
</g>
</g>
</svg>
