<?xml version="1.0" encoding="UTF-8" standalone="no"?>
<!DOCTYPE svg PUBLIC "-//W3C//DTD SVG 1.1//EN"
 "http://www.w3.org/Graphics/SVG/1.1/DTD/svg11.dtd">
<!-- Generated by graphviz version 2.38.0 (20140413.2041)
 -->
<!-- Title: graph_07 Pages: 1 -->
<svg width="512pt" height="328pt"
 viewBox="0.00 0.00 512.00 328.00" xmlns="http://www.w3.org/2000/svg" xmlns:xlink="http://www.w3.org/1999/xlink">
<g id="graph0" class="graph" transform="scale(1 1) rotate(0) translate(4 324)">
<title>graph_07</title>
<polygon fill="white" stroke="none" points="-4,4 -4,-324 508,-324 508,4 -4,4"/>
<!-- H -->
<g id="node1" class="node"><title>H</title>
<ellipse fill="aquamarine" stroke="aquamarine" cx="27" cy="-86" rx="27" ry="18"/>
<text text-anchor="middle" x="27" y="-82.3" font-family="Times,serif" font-size="14.00">H</text>
</g>
<!-- J -->
<g id="node7" class="node"><title>J</title>
<ellipse fill="lightgrey" stroke="black" cx="117" cy="-45" rx="27" ry="18"/>
<text text-anchor="middle" x="117" y="-41.3" font-family="Times,serif" font-size="14.00">J</text>
</g>
<!-- H&#45;&gt;J -->
<g id="edge2" class="edge"><title>H&#45;&gt;J</title>
<path fill="none" stroke="slateblue" d="M47.6172,-74.293C65.7812,-63.4531 90,-49 90,-49"/>
</g>
<!-- L -->
<g id="node2" class="node"><title>L</title>
<ellipse fill="plum" stroke="plum" cx="207" cy="-72" rx="27" ry="18"/>
<text text-anchor="middle" x="207" y="-68.3" font-family="Times,serif" font-size="14.00">L</text>
</g>
<!-- M -->
<g id="node3" class="node"><title>M</title>
<ellipse fill="pink" stroke="pink" cx="297" cy="-72" rx="27" ry="18"/>
<text text-anchor="middle" x="297" y="-68.3" font-family="Times,serif" font-size="14.00">M</text>
</g>
<!-- L&#45;&gt;M -->
<g id="edge5" class="edge"><title>L&#45;&gt;M</title>
<path fill="none" stroke="slateblue" d="M234.403,-72C243.008,-72 252.688,-72 261.781,-72"/>
<ellipse fill="none" stroke="slateblue" cx="265.919" cy="-72" rx="4" ry="4"/>
</g>
<!-- N -->
<g id="node8" class="node"><title>N</title>
<ellipse fill="lightgrey" stroke="black" cx="387" cy="-72" rx="27" ry="18"/>
<text text-anchor="middle" x="387" y="-68.3" font-family="Times,serif" font-size="14.00">N</text>
</g>
<!-- M&#45;&gt;N -->
<g id="edge6" class="edge"><title>M&#45;&gt;N</title>
<path fill="none" stroke="slateblue" d="M324.403,-72C331.779,-72 339.944,-72 347.853,-72"/>
<polygon fill="slateblue" stroke="slateblue" points="347.919,-72.0001 353.919,-68 359.919,-72 353.919,-76 347.919,-72.0001"/>
</g>
<!-- O -->
<g id="node4" class="node"><title>O</title>
<ellipse fill="red" stroke="red" cx="477" cy="-72" rx="27" ry="18"/>
<text text-anchor="middle" x="477" y="-68.3" font-family="Times,serif" font-size="14.00">O</text>
</g>
<!-- I -->
<g id="node5" class="node"><title>I</title>
<ellipse fill="bisque" stroke="bisque" cx="27" cy="-32" rx="27" ry="18"/>
<text text-anchor="middle" x="27" y="-28.3" font-family="Times,serif" font-size="14.00">I</text>
</g>
<!-- I&#45;&gt;J -->
<g id="edge1" class="edge"><title>I&#45;&gt;J</title>
<path fill="none" stroke="slateblue" d="M52.1484,-38.6213C69.5569,-43.3946 90,-49 90,-49"/>
</g>
<!-- K -->
<g id="node6" class="node"><title>K</title>
<ellipse fill="gold" stroke="gold" cx="207" cy="-18" rx="27" ry="18"/>
<text text-anchor="middle" x="207" y="-14.3" font-family="Times,serif" font-size="14.00">K</text>
</g>
<!-- J&#45;&gt;L -->
<g id="edge3" class="edge"><title>J&#45;&gt;L</title>
<path fill="none" stroke="slateblue" d="M145,-45C145,-45 159.748,-51.5277 174.741,-58.1638"/>
<polygon fill="slateblue" stroke="slateblue" points="173.417,-61.4054 183.978,-62.2524 176.25,-55.0043 173.417,-61.4054"/>
</g>
<!-- J&#45;&gt;K -->
<g id="edge4" class="edge"><title>J&#45;&gt;K</title>
<path fill="none" stroke="slateblue" d="M145,-45C145,-45 159.748,-38.4723 174.741,-31.8362"/>
<polygon fill="slateblue" stroke="slateblue" points="176.25,-34.9957 183.978,-27.7476 173.417,-28.5946 176.25,-34.9957"/>
</g>
<!-- N&#45;&gt;O -->
<g id="edge7" class="edge"><title>N&#45;&gt;O</title>
<path fill="none" stroke="slateblue" d="M414.403,-72C423.008,-72 432.688,-72 441.781,-72"/>
<ellipse fill="none" stroke="slateblue" cx="445.919" cy="-72" rx="4" ry="4"/>
</g>
<!-- D -->
<g id="node9" class="node"><title>D</title>
<ellipse fill="lawngreen" stroke="lawngreen" cx="27" cy="-194" rx="27" ry="18"/>
<text text-anchor="middle" x="27" y="-190.3" font-family="Times,serif" font-size="14.00">D</text>
</g>
<!-- F -->
<g id="node12" class="node"><title>F</title>
<ellipse fill="turquoise" stroke="turquoise" cx="117" cy="-167" rx="27" ry="18"/>
<text text-anchor="middle" x="117" y="-163.3" font-family="Times,serif" font-size="14.00">F</text>
</g>
<!-- D&#45;&gt;F -->
<g id="edge8" class="edge"><title>D&#45;&gt;F</title>
<path fill="none" stroke="slateblue" d="M50.0224,-184.252C67.4951,-176.519 89,-167 89,-167"/>
</g>
<!-- E -->
<g id="node10" class="node"><title>E</title>
<ellipse fill="coral" stroke="coral" cx="27" cy="-140" rx="27" ry="18"/>
<text text-anchor="middle" x="27" y="-136.3" font-family="Times,serif" font-size="14.00">E</text>
</g>
<!-- E&#45;&gt;F -->
<g id="edge9" class="edge"><title>E&#45;&gt;F</title>
<path fill="none" stroke="slateblue" d="M50.0224,-149.748C67.4951,-157.481 89,-167 89,-167"/>
</g>
<!-- G -->
<g id="node11" class="node"><title>G</title>
<ellipse fill="crimson" stroke="crimson" cx="207" cy="-167" rx="27" ry="18"/>
<text text-anchor="middle" x="207" y="-163.3" font-family="Times,serif" font-size="14.00">G</text>
</g>
<!-- F&#45;&gt;G -->
<g id="edge10" class="edge"><title>F&#45;&gt;G</title>
<path fill="none" stroke="slateblue" d="M144.403,-167C152.393,-167 161.311,-167 169.824,-167"/>
<polygon fill="none" stroke="slateblue" points="179.919,-170.5 169.919,-167 179.919,-163.5 179.919,-170.5"/>
</g>
<!-- B -->
<g id="node13" class="node"><title>B</title>
<ellipse fill="aquamarine" stroke="aquamarine" cx="27" cy="-248" rx="27" ry="18"/>
<text text-anchor="middle" x="27" y="-244.3" font-family="Times,serif" font-size="14.00">B</text>
</g>
<!-- C -->
<g id="node15" class="node"><title>C</title>
<ellipse fill="lightgrey" stroke="black" cx="117" cy="-248" rx="27" ry="18"/>
<text text-anchor="middle" x="117" y="-244.3" font-family="Times,serif" font-size="14.00">C</text>
</g>
<!-- B&#45;&gt;C -->
<g id="edge11" class="edge"><title>B&#45;&gt;C</title>
<path fill="none" stroke="slateblue" d="M54.4029,-248C65.6421,-248 78.7152,-248 89.919,-248"/>
</g>
<!-- A -->
<g id="node14" class="node"><title>A</title>
<ellipse fill="bisque" stroke="bisque" cx="27" cy="-302" rx="27" ry="18"/>
<text text-anchor="middle" x="27" y="-298.3" font-family="Times,serif" font-size="14.00">A</text>
</g>
</g>
</svg>
