<?xml version="1.0" encoding="UTF-8" standalone="no"?>
<!DOCTYPE svg PUBLIC "-//W3C//DTD SVG 1.1//EN"
 "http://www.w3.org/Graphics/SVG/1.1/DTD/svg11.dtd">
<!-- Generated by graphviz version 2.38.0 (20140413.2041)
 -->
<!-- Title: graph_08 Pages: 1 -->
<svg width="148pt" height="38pt"
 viewBox="0.00 0.00 147.80 37.80" xmlns="http://www.w3.org/2000/svg" xmlns:xlink="http://www.w3.org/1999/xlink">
<g id="graph0" class="graph" transform="scale(1 1) rotate(0) translate(4 33.8)">
<title>graph_08</title>
<polygon fill="white" stroke="none" points="-4,4 -4,-33.8 143.8,-33.8 143.8,4 -4,4"/>
<!-- _dot -->
<g id="node1" class="node"><title>_dot</title>
<ellipse fill="black" stroke="black" cx="1.8" cy="-9.8" rx="1.8" ry="1.8"/>
</g>
<!-- dot -->
<g id="node2" class="node"><title>dot</title>
<ellipse fill="black" stroke="black" cx="60.4" cy="-18.8" rx="1.8" ry="1.8"/>
</g>
<!-- _dot&#45;&gt;dot -->
<g id="edge1" class="edge"><title>_dot&#45;&gt;dot</title>
<path fill="none" stroke="black" d="M3.81354,-10.0449C6.62402,-10.7175 14.7599,-12.6218 21.6,-13.8 31.418,-15.4911 42.7564,-16.922 50.4344,-17.814"/>
<ellipse fill="black" stroke="black" cx="54.4851" cy="-18.2627" rx="4.00001" ry="4.00001"/>
<text text-anchor="middle" x="31.1" y="-18.8" font-family="Times,serif" font-size="10.00">dot</text>
</g>
<!-- odot -->
<g id="node4" class="node"><title>odot</title>
<ellipse fill="black" stroke="black" cx="60.4" cy="-1.8" rx="1.8" ry="1.8"/>
</g>
<!-- _dot&#45;&gt;odot -->
<g id="edge3" class="edge"><title>_dot&#45;&gt;odot</title>
<path fill="none" stroke="black" d="M3.81748,-9.62782C6.63803,-9.15266 14.7972,-7.79251 21.6,-6.8 31.4582,-5.3617 42.7896,-3.88645 50.4549,-2.91479"/>
<ellipse fill="none" stroke="black" cx="54.4944" cy="-2.41029" rx="4.00001" ry="4.00001"/>
<text text-anchor="middle" x="31.1" y="-9.8" font-family="Times,serif" font-size="10.00">odot</text>
</g>
<!-- dotdot -->
<g id="node3" class="node"><title>dotdot</title>
<ellipse fill="black" stroke="black" cx="138" cy="-18.8" rx="1.8" ry="1.8"/>
</g>
<!-- dot&#45;&gt;dotdot -->
<g id="edge2" class="edge"><title>dot&#45;&gt;dotdot</title>
<path fill="none" stroke="black" d="M62.249,-18.8C67.8122,-18.8 99.4586,-18.8 119.751,-18.8"/>
<ellipse fill="black" stroke="black" cx="131.843" cy="-18.8" rx="4" ry="4"/>
<ellipse fill="black" stroke="black" cx="123.843" cy="-18.8001" rx="4" ry="4"/>
<text text-anchor="middle" x="99.2" y="-21.8" font-family="Times,serif" font-size="10.00">dotdot</text>
</g>
<!-- odotodot -->
<g id="node5" class="node"><title>odotodot</title>
<ellipse fill="black" stroke="black" cx="138" cy="-1.8" rx="1.8" ry="1.8"/>
</g>
<!-- odot&#45;&gt;odotodot -->
<g id="edge4" class="edge"><title>odot&#45;&gt;odotodot</title>
<path fill="none" stroke="black" d="M62.249,-1.8C67.8122,-1.8 99.4586,-1.8 119.751,-1.8"/>
<ellipse fill="none" stroke="black" cx="131.843" cy="-1.80002" rx="4" ry="4"/>
<ellipse fill="none" stroke="black" cx="123.843" cy="-1.80007" rx="4" ry="4"/>
<text text-anchor="middle" x="99.2" y="-4.8" font-family="Times,serif" font-size="10.00">odotodot</text>
</g>
</g>
</svg>
