<?xml version="1.0" encoding="UTF-8" standalone="no"?>
<!DOCTYPE svg PUBLIC "-//W3C//DTD SVG 1.1//EN"
 "http://www.w3.org/Graphics/SVG/1.1/DTD/svg11.dtd">
<!-- Generated by graphviz version 2.38.0 (20140413.2041)
 -->
<!-- Title: graph_08 Pages: 1 -->
<svg width="202pt" height="109pt"
 viewBox="0.00 0.00 201.80 108.65" xmlns="http://www.w3.org/2000/svg" xmlns:xlink="http://www.w3.org/1999/xlink">
<g id="graph0" class="graph" transform="scale(1 1) rotate(0) translate(4 104.653)">
<title>graph_08</title>
<polygon fill="white" stroke="none" points="-4,4 -4,-104.653 197.8,-104.653 197.8,4 -4,4"/>
<!-- _normal -->
<g id="node1" class="node"><title>_normal</title>
<ellipse fill="black" stroke="black" cx="1.8" cy="-44.6527" rx="1.8" ry="1.8"/>
</g>
<!-- normal -->
<g id="node2" class="node"><title>normal</title>
<ellipse fill="black" stroke="black" cx="78.4" cy="-87.6527" rx="1.8" ry="1.8"/>
</g>
<!-- _normal&#45;&gt;normal -->
<g id="edge1" class="edge"><title>_normal&#45;&gt;normal</title>
<path fill="none" stroke="black" d="M3.03669,-46.108C4.04601,-51.7956 8.55214,-72.6513 21.6,-81.6527 34.828,-90.7784 54.1737,-90.6356 66.2629,-89.3793"/>
<polygon fill="black" stroke="black" points="67.1407,-92.7869 76.5113,-87.8429 66.1028,-85.8643 67.1407,-92.7869"/>
<text text-anchor="middle" x="40.1" y="-92.6527" font-family="Times,serif" font-size="10.00">normal</text>
</g>
<!-- lnormal -->
<g id="node4" class="node"><title>lnormal</title>
<ellipse fill="black" stroke="black" cx="78.4" cy="-70.6527" rx="1.8" ry="1.8"/>
</g>
<!-- _normal&#45;&gt;lnormal -->
<g id="edge3" class="edge"><title>_normal&#45;&gt;lnormal</title>
<path fill="none" stroke="black" d="M3.39076,-45.5209C5.47358,-48.5033 12.8242,-58.3807 21.6,-62.6527 35.9539,-69.6402 54.6716,-70.971 66.3637,-71.0169"/>
<polygon fill="black" stroke="black" points="66.5633,-71.0112 66.6662,-74.5096 76.5589,-70.717 66.5633,-71.0112"/>
<text text-anchor="middle" x="40.1" y="-73.6527" font-family="Times,serif" font-size="10.00">lnormal</text>
</g>
<!-- rnormal -->
<g id="node6" class="node"><title>rnormal</title>
<ellipse fill="black" stroke="black" cx="78.4" cy="-53.6527" rx="1.8" ry="1.8"/>
</g>
<!-- _normal&#45;&gt;rnormal -->
<g id="edge5" class="edge"><title>_normal&#45;&gt;rnormal</title>
<path fill="none" stroke="black" d="M3.81108,-44.9128C6.61528,-45.6244 14.7366,-47.6189 21.6,-48.6527 36.7481,-50.9344 54.378,-52.3012 65.7021,-53.0151"/>
<polygon fill="black" stroke="black" points="76.0122,-53.59 66.2226,-49.5386 66.0277,-53.0331 76.0122,-53.59"/>
<text text-anchor="middle" x="40.1" y="-54.6527" font-family="Times,serif" font-size="10.00">rnormal</text>
</g>
<!-- olnormal -->
<g id="node8" class="node"><title>olnormal</title>
<ellipse fill="black" stroke="black" cx="78.4" cy="-36.6527" rx="1.8" ry="1.8"/>
</g>
<!-- _normal&#45;&gt;olnormal -->
<g id="edge7" class="edge"><title>_normal&#45;&gt;olnormal</title>
<path fill="none" stroke="black" d="M3.81544,-44.4654C6.63075,-43.9516 14.7778,-42.5017 21.6,-41.6527 36.8017,-39.761 54.4192,-38.3044 65.7259,-37.4636"/>
<polygon fill="none" stroke="black" points="66.0403,-37.4416 66.2854,-40.933 76.0158,-36.7415 66.0403,-37.4416"/>
<text text-anchor="middle" x="40.1" y="-44.6527" font-family="Times,serif" font-size="10.00">olnormal</text>
</g>
<!-- ornormal -->
<g id="node10" class="node"><title>ornormal</title>
<ellipse fill="black" stroke="black" cx="78.4" cy="-19.6527" rx="1.8" ry="1.8"/>
</g>
<!-- _normal&#45;&gt;ornormal -->
<g id="edge9" class="edge"><title>_normal&#45;&gt;ornormal</title>
<path fill="none" stroke="black" d="M3.38803,-43.7789C5.46194,-40.778 12.7869,-30.8474 21.6,-26.6527 35.9808,-19.8081 54.6911,-18.8441 66.3743,-19.0456"/>
<polygon fill="none" stroke="black" points="76.5599,-19.5691 66.7528,-15.5603 66.5731,-19.0557 76.5599,-19.5691"/>
<text text-anchor="middle" x="40.1" y="-29.6527" font-family="Times,serif" font-size="10.00">ornormal</text>
</g>
<!-- onormal -->
<g id="node12" class="node"><title>onormal</title>
<ellipse fill="black" stroke="black" cx="78.4" cy="-2.65273" rx="1.8" ry="1.8"/>
</g>
<!-- _normal&#45;&gt;onormal -->
<g id="edge11" class="edge"><title>_normal&#45;&gt;onormal</title>
<path fill="none" stroke="black" d="M3.05037,-43.2356C4.11086,-37.697 8.7827,-17.39 21.6,-8.65273 34.8787,0.399046 54.2097,0.277571 66.2821,-0.954187"/>
<polygon fill="none" stroke="black" points="66.109,-4.46652 76.5131,-2.46534 67.1319,2.45836 66.109,-4.46652"/>
<text text-anchor="middle" x="40.1" y="-11.6527" font-family="Times,serif" font-size="10.00">onormal</text>
</g>
<!-- normalnormal -->
<g id="node3" class="node"><title>normalnormal</title>
<ellipse fill="black" stroke="black" cx="192" cy="-87.6527" rx="1.8" ry="1.8"/>
</g>
<!-- normal&#45;&gt;normalnormal -->
<g id="edge2" class="edge"><title>normal&#45;&gt;normalnormal</title>
<path fill="none" stroke="black" d="M80.6533,-87.6527C89.2742,-87.6527 140.326,-87.6527 169.878,-87.6527"/>
<polygon fill="black" stroke="black" points="179.895,-91.1528 189.895,-87.6527 179.895,-84.1528 179.895,-91.1528"/>
<polygon fill="black" stroke="black" points="169.895,-91.1528 179.895,-87.6528 169.895,-84.1528 169.895,-91.1528"/>
<text text-anchor="middle" x="135.2" y="-90.6527" font-family="Times,serif" font-size="10.00">normalnormal</text>
</g>
<!-- lnormallnormal -->
<g id="node5" class="node"><title>lnormallnormal</title>
<ellipse fill="black" stroke="black" cx="192" cy="-70.6527" rx="1.8" ry="1.8"/>
</g>
<!-- lnormal&#45;&gt;lnormallnormal -->
<g id="edge4" class="edge"><title>lnormal&#45;&gt;lnormallnormal</title>
<path fill="none" stroke="black" d="M80.6533,-70.6527C89.2742,-70.6527 140.326,-70.6527 169.878,-70.6527"/>
<polygon fill="black" stroke="black" points="179.895,-70.6528 179.895,-74.1528 189.895,-70.6527 179.895,-70.6528"/>
<polygon fill="black" stroke="black" points="169.895,-70.6528 169.895,-74.1528 179.895,-70.6528 169.895,-70.6528"/>
<text text-anchor="middle" x="135.2" y="-73.6527" font-family="Times,serif" font-size="10.00">lnormallnormal</text>
</g>
<!-- rnormalrnormal -->
<g id="node7" class="node"><title>rnormalrnormal</title>
<ellipse fill="black" stroke="black" cx="192" cy="-53.6527" rx="1.8" ry="1.8"/>
</g>
<!-- rnormal&#45;&gt;rnormalrnormal -->
<g id="edge6" class="edge"><title>rnormal&#45;&gt;rnormalrnormal</title>
<path fill="none" stroke="black" d="M80.6533,-53.6527C89.2742,-53.6527 140.326,-53.6527 169.878,-53.6527"/>
<polygon fill="black" stroke="black" points="189.895,-53.6527 179.895,-50.1528 179.895,-53.6528 189.895,-53.6527"/>
<polygon fill="black" stroke="black" points="179.895,-53.6528 169.895,-50.1528 169.895,-53.6528 179.895,-53.6528"/>
<text text-anchor="middle" x="135.2" y="-56.6527" font-family="Times,serif" font-size="10.00">rnormalrnormal</text>
</g>
<!-- olnormalolnormal -->
<g id="node9" class="node"><title>olnormalolnormal</title>
<ellipse fill="black" stroke="black" cx="192" cy="-36.6527" rx="1.8" ry="1.8"/>
</g>
<!-- olnormal&#45;&gt;olnormalolnormal -->
<g id="edge8" class="edge"><title>olnormal&#45;&gt;olnormalolnormal</title>
<path fill="none" stroke="black" d="M80.6533,-36.6527C89.2742,-36.6527 140.326,-36.6527 169.878,-36.6527"/>
<polygon fill="none" stroke="black" points="179.895,-36.6528 179.895,-40.1528 189.895,-36.6527 179.895,-36.6528"/>
<polygon fill="none" stroke="black" points="169.895,-36.6528 169.895,-40.1528 179.895,-36.6528 169.895,-36.6528"/>
<text text-anchor="middle" x="135.2" y="-39.6527" font-family="Times,serif" font-size="10.00">olnormalolnormal</text>
</g>
<!-- ornormalornormal -->
<g id="node11" class="node"><title>ornormalornormal</title>
<ellipse fill="black" stroke="black" cx="192" cy="-19.6527" rx="1.8" ry="1.8"/>
</g>
<!-- ornormal&#45;&gt;ornormalornormal -->
<g id="edge10" class="edge"><title>ornormal&#45;&gt;ornormalornormal</title>
<path fill="none" stroke="black" d="M80.6533,-19.6527C89.2742,-19.6527 140.326,-19.6527 169.878,-19.6527"/>
<polygon fill="none" stroke="black" points="189.895,-19.6527 179.895,-16.1528 179.895,-19.6528 189.895,-19.6527"/>
<polygon fill="none" stroke="black" points="179.895,-19.6528 169.895,-16.1528 169.895,-19.6528 179.895,-19.6528"/>
<text text-anchor="middle" x="135.2" y="-22.6527" font-family="Times,serif" font-size="10.00">ornormalornormal</text>
</g>
<!-- onormalonormal -->
<g id="node13" class="node"><title>onormalonormal</title>
<ellipse fill="black" stroke="black" cx="192" cy="-2.65273" rx="1.8" ry="1.8"/>
</g>
<!-- onormal&#45;&gt;onormalonormal -->
<g id="edge12" class="edge"><title>onormal&#45;&gt;onormalonormal</title>
<path fill="none" stroke="black" d="M80.6533,-2.65273C89.2742,-2.65273 140.326,-2.65273 169.878,-2.65273"/>
<polygon fill="none" stroke="black" points="179.895,-6.15278 189.895,-2.65273 179.895,0.847215 179.895,-6.15278"/>
<polygon fill="none" stroke="black" points="169.895,-6.15283 179.895,-2.65278 169.895,0.847165 169.895,-6.15283"/>
<text text-anchor="middle" x="135.2" y="-5.65273" font-family="Times,serif" font-size="10.00">onormalonormal</text>
</g>
</g>
</svg>
