<?xml version="1.0" encoding="UTF-8" standalone="no"?>
<!DOCTYPE svg PUBLIC "-//W3C//DTD SVG 1.1//EN"
 "http://www.w3.org/Graphics/SVG/1.1/DTD/svg11.dtd">
<!-- Generated by graphviz version 2.38.0 (20140413.2041)
 -->
<!-- Title: graph_08 Pages: 1 -->
<svg width="144pt" height="55pt"
 viewBox="0.00 0.00 143.80 54.80" xmlns="http://www.w3.org/2000/svg" xmlns:xlink="http://www.w3.org/1999/xlink">
<g id="graph0" class="graph" transform="scale(1 1) rotate(0) translate(4 50.8)">
<title>graph_08</title>
<polygon fill="white" stroke="none" points="-4,4 -4,-50.8 139.8,-50.8 139.8,4 -4,4"/>
<!-- _vee -->
<g id="node1" class="node"><title>_vee</title>
<ellipse fill="black" stroke="black" cx="1.8" cy="-18.8" rx="1.8" ry="1.8"/>
</g>
<!-- vee -->
<g id="node2" class="node"><title>vee</title>
<ellipse fill="black" stroke="black" cx="59.4" cy="-35.8" rx="1.8" ry="1.8"/>
</g>
<!-- _vee&#45;&gt;vee -->
<g id="edge1" class="edge"><title>_vee&#45;&gt;vee</title>
<path fill="none" stroke="black" d="M3.75441,-19.5342C6.41378,-21.5393 14.1992,-27.1361 21.6,-29.8 29.9138,-32.7925 39.8242,-34.2996 47.2648,-35.0546"/>
<polygon fill="black" stroke="black" points="57.4583,-35.7724 47.1668,-39.5588 52.4706,-35.4211 47.483,-35.0699 47.483,-35.0699 47.483,-35.0699 52.4706,-35.4211 47.7991,-30.581 57.4583,-35.7724 57.4583,-35.7724"/>
<text text-anchor="middle" x="30.6" y="-36.8" font-family="Times,serif" font-size="10.00">vee</text>
</g>
<!-- lvee -->
<g id="node4" class="node"><title>lvee</title>
<ellipse fill="black" stroke="black" cx="59.4" cy="-18.8" rx="1.8" ry="1.8"/>
</g>
<!-- _vee&#45;&gt;lvee -->
<g id="edge3" class="edge"><title>_vee&#45;&gt;lvee</title>
<path fill="none" stroke="black" d="M3.76504,-18.8C8.86977,-18.8 33.0335,-18.8 47.4609,-18.8"/>
<polygon fill="black" stroke="black" points="57.5763,-18.8 47.5764,-23.3001 52.5763,-18.8 47.5763,-18.8001 47.5763,-18.8001 47.5763,-18.8001 57.5763,-18.8"/>
<text text-anchor="middle" x="30.6" y="-21.8" font-family="Times,serif" font-size="10.00">lvee</text>
</g>
<!-- rvee -->
<g id="node6" class="node"><title>rvee</title>
<ellipse fill="black" stroke="black" cx="59.4" cy="-1.8" rx="1.8" ry="1.8"/>
</g>
<!-- _vee&#45;&gt;rvee -->
<g id="edge5" class="edge"><title>_vee&#45;&gt;rvee</title>
<path fill="none" stroke="black" d="M3.75441,-18.0658C6.41378,-16.0607 14.1992,-10.4639 21.6,-7.8 29.9138,-4.80747 39.8242,-3.30036 47.2648,-2.5454"/>
<polygon fill="black" stroke="black" points="47.483,-2.53013 47.483,-2.53013 47.483,-2.53013 52.4706,-2.17887 47.1668,1.95876 57.4583,-1.82762 47.483,-2.53013"/>
<text text-anchor="middle" x="30.6" y="-10.8" font-family="Times,serif" font-size="10.00">rvee</text>
</g>
<!-- veevee -->
<g id="node3" class="node"><title>veevee</title>
<ellipse fill="black" stroke="black" cx="134" cy="-35.8" rx="1.8" ry="1.8"/>
</g>
<!-- vee&#45;&gt;veevee -->
<g id="edge2" class="edge"><title>vee&#45;&gt;veevee</title>
<path fill="none" stroke="black" d="M61.2153,-35.8C66.1556,-35.8 92.5153,-35.8 111.865,-35.8"/>
<polygon fill="black" stroke="black" points="131.889,-35.8 121.889,-40.3 126.889,-35.8 121.889,-35.8 121.889,-35.8 121.889,-35.8 126.889,-35.8 121.889,-31.3 131.889,-35.8 131.889,-35.8"/>
<polygon fill="black" stroke="black" points="121.889,-35.8 111.889,-40.3001 116.889,-35.8001 111.889,-35.8001 111.889,-35.8001 111.889,-35.8001 116.889,-35.8001 111.889,-31.3001 121.889,-35.8 121.889,-35.8"/>
<text text-anchor="middle" x="96.7" y="-38.8" font-family="Times,serif" font-size="10.00">veevee</text>
</g>
<!-- lveelvee -->
<g id="node5" class="node"><title>lveelvee</title>
<ellipse fill="black" stroke="black" cx="134" cy="-18.8" rx="1.8" ry="1.8"/>
</g>
<!-- lvee&#45;&gt;lveelvee -->
<g id="edge4" class="edge"><title>lvee&#45;&gt;lveelvee</title>
<path fill="none" stroke="black" d="M61.2153,-18.8C66.1556,-18.8 92.5153,-18.8 111.865,-18.8"/>
<polygon fill="black" stroke="black" points="131.889,-18.8 121.889,-23.3 126.889,-18.8 121.889,-18.8 121.889,-18.8 121.889,-18.8 131.889,-18.8"/>
<polygon fill="black" stroke="black" points="121.889,-18.8 111.889,-23.3001 116.889,-18.8001 111.889,-18.8001 111.889,-18.8001 111.889,-18.8001 121.889,-18.8"/>
<text text-anchor="middle" x="96.7" y="-21.8" font-family="Times,serif" font-size="10.00">lveelvee</text>
</g>
<!-- rveervee -->
<g id="node7" class="node"><title>rveervee</title>
<ellipse fill="black" stroke="black" cx="134" cy="-1.8" rx="1.8" ry="1.8"/>
</g>
<!-- rvee&#45;&gt;rveervee -->
<g id="edge6" class="edge"><title>rvee&#45;&gt;rveervee</title>
<path fill="none" stroke="black" d="M61.2153,-1.8C66.1556,-1.8 92.5153,-1.8 111.865,-1.8"/>
<polygon fill="black" stroke="black" points="121.889,-1.80005 121.889,-1.80005 121.889,-1.80005 126.889,-1.80002 121.889,2.69995 131.889,-1.8 121.889,-1.80005"/>
<polygon fill="black" stroke="black" points="111.889,-1.8001 111.889,-1.8001 111.889,-1.8001 116.889,-1.80007 111.889,2.6999 121.889,-1.80005 111.889,-1.8001"/>
<text text-anchor="middle" x="96.7" y="-4.8" font-family="Times,serif" font-size="10.00">rveervee</text>
</g>
</g>
</svg>
