<?xml version="1.0" encoding="UTF-8" standalone="no"?>
<!DOCTYPE svg PUBLIC "-//W3C//DTD SVG 1.1//EN"
 "http://www.w3.org/Graphics/SVG/1.1/DTD/svg11.dtd">
<!-- Generated by graphviz version 2.38.0 (20140413.2041)
 -->
<!-- Title: graph_08 Pages: 1 -->
<svg width="165pt" height="106pt"
 viewBox="0.00 0.00 164.80 105.80" xmlns="http://www.w3.org/2000/svg" xmlns:xlink="http://www.w3.org/1999/xlink">
<g id="graph0" class="graph" transform="scale(1 1) rotate(0) translate(4 101.8)">
<title>graph_08</title>
<polygon fill="white" stroke="none" points="-4,4 -4,-101.8 160.8,-101.8 160.8,4 -4,4"/>
<!-- _box -->
<g id="node1" class="node"><title>_box</title>
<ellipse fill="black" stroke="black" cx="1.8" cy="-43.8" rx="1.8" ry="1.8"/>
</g>
<!-- box -->
<g id="node2" class="node"><title>box</title>
<ellipse fill="black" stroke="black" cx="66.4" cy="-86.8" rx="1.8" ry="1.8"/>
</g>
<!-- _box&#45;&gt;box -->
<g id="edge1" class="edge"><title>_box&#45;&gt;box</title>
<path fill="none" stroke="black" d="M3.08296,-45.1519C4.26536,-50.4398 9.33204,-69.869 21.6,-78.8 31.0053,-85.647 44.49,-87.2083 54.007,-87.3324"/>
<polygon fill="black" stroke="black" points="64.0175,-82.937 64.3308,-90.9309 56.337,-91.2442 56.0236,-83.2504 64.0175,-82.937"/>
<polyline fill="none" stroke="black" points="56.1803,-87.2473 54.1818,-87.3256 "/>
<text text-anchor="middle" x="34.1" y="-89.8" font-family="Times,serif" font-size="10.00">box</text>
</g>
<!-- lbox -->
<g id="node4" class="node"><title>lbox</title>
<ellipse fill="black" stroke="black" cx="66.4" cy="-69.8" rx="1.8" ry="1.8"/>
</g>
<!-- _box&#45;&gt;lbox -->
<g id="edge3" class="edge"><title>_box&#45;&gt;lbox</title>
<path fill="none" stroke="black" d="M3.39686,-44.6559C5.49962,-47.5983 12.9075,-57.3609 21.6,-61.8 31.8403,-67.0296 44.9682,-68.8828 54.1706,-69.5177"/>
<polygon fill="black" stroke="black" points="64.2408,-69.8254 64.1186,-73.8235 56.1224,-73.5792 56.2445,-69.581 64.2408,-69.8254"/>
<polyline fill="none" stroke="black" points="56.2445,-69.581 54.2455,-69.5199 "/>
<text text-anchor="middle" x="34.1" y="-70.8" font-family="Times,serif" font-size="10.00">lbox</text>
</g>
<!-- rbox -->
<g id="node6" class="node"><title>rbox</title>
<ellipse fill="black" stroke="black" cx="66.4" cy="-52.8" rx="1.8" ry="1.8"/>
</g>
<!-- _box&#45;&gt;rbox -->
<g id="edge5" class="edge"><title>_box&#45;&gt;rbox</title>
<path fill="none" stroke="black" d="M3.81246,-44.0513C6.62018,-44.7405 14.7496,-46.6829 21.6,-47.8 32.5719,-49.5892 45.1935,-50.9577 54.0606,-51.8069"/>
<polygon fill="black" stroke="black" points="64.6639,-48.7301 64.3111,-52.7145 56.3423,-52.0089 56.6951,-48.0244 64.6639,-48.7301"/>
<polyline fill="none" stroke="black" points="56.3423,-52.0089 54.3501,-51.8325 "/>
<text text-anchor="middle" x="34.1" y="-53.8" font-family="Times,serif" font-size="10.00">rbox</text>
</g>
<!-- olbox -->
<g id="node8" class="node"><title>olbox</title>
<ellipse fill="black" stroke="black" cx="66.4" cy="-35.8" rx="1.8" ry="1.8"/>
</g>
<!-- _box&#45;&gt;olbox -->
<g id="edge7" class="edge"><title>_box&#45;&gt;olbox</title>
<path fill="none" stroke="black" d="M3.81658,-43.6214C6.63481,-43.1299 14.7887,-41.7318 21.6,-40.8 32.6142,-39.2933 45.2301,-37.8867 54.0844,-36.9517"/>
<polygon fill="none" stroke="black" points="64.3142,-35.9059 64.721,-39.8852 56.7625,-40.6989 56.3557,-36.7196 64.3142,-35.9059"/>
<polyline fill="none" stroke="black" points="56.3557,-36.7196 54.366,-36.923 "/>
<text text-anchor="middle" x="34.1" y="-43.8" font-family="Times,serif" font-size="10.00">olbox</text>
</g>
<!-- orbox -->
<g id="node10" class="node"><title>orbox</title>
<ellipse fill="black" stroke="black" cx="66.4" cy="-18.8" rx="1.8" ry="1.8"/>
</g>
<!-- _box&#45;&gt;orbox -->
<g id="edge9" class="edge"><title>_box&#45;&gt;orbox</title>
<path fill="none" stroke="black" d="M3.3933,-42.937C5.4844,-39.9715 12.8588,-30.1425 21.6,-25.8 31.8586,-20.7037 44.9835,-19.1665 54.1803,-18.773"/>
<polygon fill="none" stroke="black" points="64.2294,-14.7411 64.2421,-18.741 56.2421,-18.7665 56.2294,-14.7665 64.2294,-14.7411"/>
<polyline fill="none" stroke="black" points="56.2421,-18.7665 54.2422,-18.7729 "/>
<text text-anchor="middle" x="34.1" y="-28.8" font-family="Times,serif" font-size="10.00">orbox</text>
</g>
<!-- obox -->
<g id="node12" class="node"><title>obox</title>
<ellipse fill="black" stroke="black" cx="66.4" cy="-1.8" rx="1.8" ry="1.8"/>
</g>
<!-- _box&#45;&gt;obox -->
<g id="edge11" class="edge"><title>_box&#45;&gt;obox</title>
<path fill="none" stroke="black" d="M3.07713,-42.44C4.23772,-37.1218 9.23376,-17.5944 21.6,-8.8 31.0447,-2.08329 44.5225,-0.844657 54.027,-0.964476"/>
<polygon fill="none" stroke="black" points="64.4395,2.3592 63.9143,-5.62355 55.9316,-5.09834 56.4568,2.88441 64.4395,2.3592"/>
<polyline fill="none" stroke="black" points="56.1942,-1.10696 54.1985,-0.975661 "/>
<text text-anchor="middle" x="34.1" y="-11.8" font-family="Times,serif" font-size="10.00">obox</text>
</g>
<!-- boxbox -->
<g id="node3" class="node"><title>boxbox</title>
<ellipse fill="black" stroke="black" cx="155" cy="-86.8" rx="1.8" ry="1.8"/>
</g>
<!-- box&#45;&gt;boxbox -->
<g id="edge2" class="edge"><title>box&#45;&gt;boxbox</title>
<path fill="none" stroke="black" d="M68.3726,-86.8C74.6441,-86.8 109.854,-86.8 133.126,-86.8"/>
<polygon fill="black" stroke="black" points="153.143,-82.8 153.143,-90.8 145.143,-90.8 145.143,-82.8 153.143,-82.8"/>
<polyline fill="none" stroke="black" points="145.143,-86.8 143.143,-86.8 "/>
<polygon fill="black" stroke="black" points="143.143,-82.8 143.143,-90.8 135.143,-90.8001 135.143,-82.8001 143.143,-82.8"/>
<polyline fill="none" stroke="black" points="135.143,-86.8001 133.143,-86.8001 "/>
<text text-anchor="middle" x="110.7" y="-89.8" font-family="Times,serif" font-size="10.00">boxbox</text>
</g>
<!-- lboxlbox -->
<g id="node5" class="node"><title>lboxlbox</title>
<ellipse fill="black" stroke="black" cx="155" cy="-69.8" rx="1.8" ry="1.8"/>
</g>
<!-- lbox&#45;&gt;lboxlbox -->
<g id="edge4" class="edge"><title>lbox&#45;&gt;lboxlbox</title>
<path fill="none" stroke="black" d="M68.3726,-69.8C74.6441,-69.8 109.854,-69.8 133.126,-69.8"/>
<polygon fill="black" stroke="black" points="153.143,-69.8 153.143,-73.8 145.143,-73.8 145.143,-69.8 153.143,-69.8"/>
<polyline fill="none" stroke="black" points="145.143,-69.8 143.143,-69.8 "/>
<polygon fill="black" stroke="black" points="143.143,-69.8 143.143,-73.8 135.143,-73.8001 135.143,-69.8001 143.143,-69.8"/>
<polyline fill="none" stroke="black" points="135.143,-69.8001 133.143,-69.8001 "/>
<text text-anchor="middle" x="110.7" y="-72.8" font-family="Times,serif" font-size="10.00">lboxlbox</text>
</g>
<!-- rboxrbox -->
<g id="node7" class="node"><title>rboxrbox</title>
<ellipse fill="black" stroke="black" cx="155" cy="-52.8" rx="1.8" ry="1.8"/>
</g>
<!-- rbox&#45;&gt;rboxrbox -->
<g id="edge6" class="edge"><title>rbox&#45;&gt;rboxrbox</title>
<path fill="none" stroke="black" d="M68.3726,-52.8C74.6441,-52.8 109.854,-52.8 133.126,-52.8"/>
<polygon fill="black" stroke="black" points="153.143,-48.8 153.143,-52.8 145.143,-52.8 145.143,-48.8 153.143,-48.8"/>
<polyline fill="none" stroke="black" points="145.143,-52.8 143.143,-52.8 "/>
<polygon fill="black" stroke="black" points="143.143,-48.8 143.143,-52.8 135.143,-52.8001 135.143,-48.8001 143.143,-48.8"/>
<polyline fill="none" stroke="black" points="135.143,-52.8001 133.143,-52.8001 "/>
<text text-anchor="middle" x="110.7" y="-55.8" font-family="Times,serif" font-size="10.00">rboxrbox</text>
</g>
<!-- olboxolbox -->
<g id="node9" class="node"><title>olboxolbox</title>
<ellipse fill="black" stroke="black" cx="155" cy="-35.8" rx="1.8" ry="1.8"/>
</g>
<!-- olbox&#45;&gt;olboxolbox -->
<g id="edge8" class="edge"><title>olbox&#45;&gt;olboxolbox</title>
<path fill="none" stroke="black" d="M68.3726,-35.8C74.6441,-35.8 109.854,-35.8 133.126,-35.8"/>
<polygon fill="none" stroke="black" points="153.143,-35.8 153.143,-39.8 145.143,-39.8 145.143,-35.8 153.143,-35.8"/>
<polyline fill="none" stroke="black" points="145.143,-35.8 143.143,-35.8 "/>
<polygon fill="none" stroke="black" points="143.143,-35.8 143.143,-39.8 135.143,-39.8001 135.143,-35.8001 143.143,-35.8"/>
<polyline fill="none" stroke="black" points="135.143,-35.8001 133.143,-35.8001 "/>
<text text-anchor="middle" x="110.7" y="-38.8" font-family="Times,serif" font-size="10.00">olboxolbox</text>
</g>
<!-- orboxorbox -->
<g id="node11" class="node"><title>orboxorbox</title>
<ellipse fill="black" stroke="black" cx="155" cy="-18.8" rx="1.8" ry="1.8"/>
</g>
<!-- orbox&#45;&gt;orboxorbox -->
<g id="edge10" class="edge"><title>orbox&#45;&gt;orboxorbox</title>
<path fill="none" stroke="black" d="M68.3726,-18.8C74.6441,-18.8 109.854,-18.8 133.126,-18.8"/>
<polygon fill="none" stroke="black" points="153.143,-14.8 153.143,-18.8 145.143,-18.8 145.143,-14.8 153.143,-14.8"/>
<polyline fill="none" stroke="black" points="145.143,-18.8 143.143,-18.8 "/>
<polygon fill="none" stroke="black" points="143.143,-14.8 143.143,-18.8 135.143,-18.8001 135.143,-14.8001 143.143,-14.8"/>
<polyline fill="none" stroke="black" points="135.143,-18.8001 133.143,-18.8001 "/>
<text text-anchor="middle" x="110.7" y="-21.8" font-family="Times,serif" font-size="10.00">orboxorbox</text>
</g>
<!-- oboxobox -->
<g id="node13" class="node"><title>oboxobox</title>
<ellipse fill="black" stroke="black" cx="155" cy="-1.8" rx="1.8" ry="1.8"/>
</g>
<!-- obox&#45;&gt;oboxobox -->
<g id="edge12" class="edge"><title>obox&#45;&gt;oboxobox</title>
<path fill="none" stroke="black" d="M68.3726,-1.8C74.6441,-1.8 109.854,-1.8 133.126,-1.8"/>
<polygon fill="none" stroke="black" points="153.143,2.2 153.143,-5.8 145.143,-5.80004 145.143,2.19996 153.143,2.2"/>
<polyline fill="none" stroke="black" points="145.143,-1.80004 143.143,-1.80005 "/>
<polygon fill="none" stroke="black" points="143.143,2.19995 143.143,-5.80005 135.143,-5.80009 135.143,2.19991 143.143,2.19995"/>
<polyline fill="none" stroke="black" points="135.143,-1.80009 133.143,-1.8001 "/>
<text text-anchor="middle" x="110.7" y="-4.8" font-family="Times,serif" font-size="10.00">oboxobox</text>
</g>
</g>
</svg>
