<?xml version="1.0" encoding="UTF-8" standalone="no"?>
<!DOCTYPE svg PUBLIC "-//W3C//DTD SVG 1.1//EN"
 "http://www.w3.org/Graphics/SVG/1.1/DTD/svg11.dtd">
<!-- Generated by graphviz version 2.38.0 (20140413.2041)
 -->
<!-- Title: graph_08 Pages: 1 -->
<svg width="138pt" height="55pt"
 viewBox="0.00 0.00 137.80 54.80" xmlns="http://www.w3.org/2000/svg" xmlns:xlink="http://www.w3.org/1999/xlink">
<g id="graph0" class="graph" transform="scale(1 1) rotate(0) translate(4 50.8)">
<title>graph_08</title>
<polygon fill="white" stroke="none" points="-4,4 -4,-50.8 133.8,-50.8 133.8,4 -4,4"/>
<!-- _tee -->
<g id="node1" class="node"><title>_tee</title>
<ellipse fill="black" stroke="black" cx="1.8" cy="-18.8" rx="1.8" ry="1.8"/>
</g>
<!-- tee -->
<g id="node2" class="node"><title>tee</title>
<ellipse fill="black" stroke="black" cx="57.4" cy="-35.8" rx="1.8" ry="1.8"/>
</g>
<!-- _tee&#45;&gt;tee -->
<g id="edge1" class="edge"><title>_tee&#45;&gt;tee</title>
<path fill="none" stroke="black" d="M3.7557,-19.5306C6.41836,-21.5267 14.2115,-27.1024 21.6,-29.8 31.2751,-33.3324 43.2387,-34.8125 50.3205,-35.4127"/>
<polygon fill="black" stroke="black" points="54.8485,-30.7069 54.1748,-40.6842 52.1793,-40.5495 52.853,-30.5722 54.8485,-30.7069"/>
<polyline fill="none" stroke="black" points="55.5094,-35.763 50.5207,-35.4261 "/>
<text text-anchor="middle" x="29.6" y="-36.8" font-family="Times,serif" font-size="10.00">tee</text>
</g>
<!-- ltee -->
<g id="node4" class="node"><title>ltee</title>
<ellipse fill="black" stroke="black" cx="57.4" cy="-18.8" rx="1.8" ry="1.8"/>
</g>
<!-- _tee&#45;&gt;ltee -->
<g id="edge3" class="edge"><title>_tee&#45;&gt;ltee</title>
<path fill="none" stroke="black" d="M3.73033,-18.8C9.17273,-18.8 37.0874,-18.8 49.9254,-18.8"/>
<polygon fill="black" stroke="black" points="54.2681,-18.8 54.2682,-23.8 52.2682,-23.8001 52.2681,-18.8001 54.2681,-18.8"/>
<polyline fill="none" stroke="black" points="55.2681,-18.8 50.2681,-18.8001 "/>
<text text-anchor="middle" x="29.6" y="-21.8" font-family="Times,serif" font-size="10.00">ltee</text>
</g>
<!-- rtee -->
<g id="node6" class="node"><title>rtee</title>
<ellipse fill="black" stroke="black" cx="57.4" cy="-1.8" rx="1.8" ry="1.8"/>
</g>
<!-- _tee&#45;&gt;rtee -->
<g id="edge5" class="edge"><title>_tee&#45;&gt;rtee</title>
<path fill="none" stroke="black" d="M3.7557,-18.0694C6.41836,-16.0733 14.2115,-10.4976 21.6,-7.8 31.2751,-4.2676 43.2387,-2.78749 50.3205,-2.18732"/>
<polygon fill="black" stroke="black" points="54.1748,3.08424 54.5117,-1.90441 52.5162,-2.03915 52.1793,2.9495 54.1748,3.08424"/>
<polyline fill="none" stroke="black" points="55.5094,-1.83704 50.5207,-2.17389 "/>
<text text-anchor="middle" x="29.6" y="-10.8" font-family="Times,serif" font-size="10.00">rtee</text>
</g>
<!-- teetee -->
<g id="node3" class="node"><title>teetee</title>
<ellipse fill="black" stroke="black" cx="128" cy="-35.8" rx="1.8" ry="1.8"/>
</g>
<!-- tee&#45;&gt;teetee -->
<g id="edge2" class="edge"><title>tee&#45;&gt;teetee</title>
<path fill="none" stroke="black" d="M59.3698,-35.8C65.4049,-35.8 98.1355,-35.8 115.755,-35.8"/>
<polygon fill="black" stroke="black" points="124.967,-30.8 124.967,-40.8 122.967,-40.8 122.967,-30.8 124.967,-30.8"/>
<polyline fill="none" stroke="black" points="125.967,-35.8 120.967,-35.8 "/>
<polygon fill="black" stroke="black" points="119.967,-30.8001 119.967,-40.8001 117.967,-40.8001 117.967,-30.8001 119.967,-30.8001"/>
<polyline fill="none" stroke="black" points="120.967,-35.8 115.967,-35.8001 "/>
<text text-anchor="middle" x="92.7" y="-38.8" font-family="Times,serif" font-size="10.00">teetee</text>
</g>
<!-- lteeltee -->
<g id="node5" class="node"><title>lteeltee</title>
<ellipse fill="black" stroke="black" cx="128" cy="-18.8" rx="1.8" ry="1.8"/>
</g>
<!-- ltee&#45;&gt;lteeltee -->
<g id="edge4" class="edge"><title>ltee&#45;&gt;lteeltee</title>
<path fill="none" stroke="black" d="M59.3698,-18.8C65.4049,-18.8 98.1355,-18.8 115.755,-18.8"/>
<polygon fill="black" stroke="black" points="124.967,-18.8 124.967,-23.8 122.967,-23.8 122.967,-18.8 124.967,-18.8"/>
<polyline fill="none" stroke="black" points="125.967,-18.8 120.967,-18.8 "/>
<polygon fill="black" stroke="black" points="119.967,-18.8001 119.967,-23.8001 117.967,-23.8001 117.967,-18.8001 119.967,-18.8001"/>
<polyline fill="none" stroke="black" points="120.967,-18.8 115.967,-18.8001 "/>
<text text-anchor="middle" x="92.7" y="-21.8" font-family="Times,serif" font-size="10.00">lteeltee</text>
</g>
<!-- rteertee -->
<g id="node7" class="node"><title>rteertee</title>
<ellipse fill="black" stroke="black" cx="128" cy="-1.8" rx="1.8" ry="1.8"/>
</g>
<!-- rtee&#45;&gt;rteertee -->
<g id="edge6" class="edge"><title>rtee&#45;&gt;rteertee</title>
<path fill="none" stroke="black" d="M59.3698,-1.8C65.4049,-1.8 98.1355,-1.8 115.755,-1.8"/>
<polygon fill="black" stroke="black" points="124.967,3.19999 124.967,-1.80001 122.967,-1.80003 122.967,3.19997 124.967,3.19999"/>
<polyline fill="none" stroke="black" points="125.967,-1.8 120.967,-1.80005 "/>
<polygon fill="black" stroke="black" points="119.967,3.19994 119.967,-1.80006 117.967,-1.80008 117.967,3.19992 119.967,3.19994"/>
<polyline fill="none" stroke="black" points="120.967,-1.80005 115.967,-1.8001 "/>
<text text-anchor="middle" x="92.7" y="-4.8" font-family="Times,serif" font-size="10.00">rteertee</text>
</g>
</g>
</svg>
