<?xml version="1.0" encoding="UTF-8" standalone="no"?>
<!DOCTYPE svg PUBLIC "-//W3C//DTD SVG 1.1//EN"
 "http://www.w3.org/Graphics/SVG/1.1/DTD/svg11.dtd">
<!-- Generated by graphviz version 2.38.0 (20140413.2041)
 -->
<!-- Title: graph_07 Pages: 1 -->
<svg width="242pt" height="98pt"
 viewBox="0.00 0.00 242.00 98.00" xmlns="http://www.w3.org/2000/svg" xmlns:xlink="http://www.w3.org/1999/xlink">
<g id="graph0" class="graph" transform="scale(1 1) rotate(0) translate(4 94)">
<title>graph_07</title>
<polygon fill="white" stroke="none" points="-4,4 -4,-94 238,-94 238,4 -4,4"/>
<!-- D -->
<g id="node1" class="node"><title>D</title>
<ellipse fill="lawngreen" stroke="lawngreen" cx="27" cy="-72" rx="27" ry="18"/>
<text text-anchor="middle" x="27" y="-68.3" font-family="Times,serif" font-size="14.00">D</text>
</g>
<!-- F -->
<g id="node4" class="node"><title>F</title>
<ellipse fill="turquoise" stroke="turquoise" cx="117" cy="-45" rx="27" ry="18"/>
<text text-anchor="middle" x="117" y="-41.3" font-family="Times,serif" font-size="14.00">F</text>
</g>
<!-- D&#45;&gt;F -->
<g id="edge1" class="edge"><title>D&#45;&gt;F</title>
<path fill="none" stroke="slateblue" d="M50.0224,-62.2524C67.4951,-54.5186 89,-45 89,-45"/>
</g>
<!-- E -->
<g id="node2" class="node"><title>E</title>
<ellipse fill="coral" stroke="coral" cx="27" cy="-18" rx="27" ry="18"/>
<text text-anchor="middle" x="27" y="-14.3" font-family="Times,serif" font-size="14.00">E</text>
</g>
<!-- E&#45;&gt;F -->
<g id="edge2" class="edge"><title>E&#45;&gt;F</title>
<path fill="none" stroke="slateblue" d="M50.0224,-27.7476C67.4951,-35.4814 89,-45 89,-45"/>
</g>
<!-- G -->
<g id="node3" class="node"><title>G</title>
<ellipse fill="crimson" stroke="crimson" cx="207" cy="-45" rx="27" ry="18"/>
<text text-anchor="middle" x="207" y="-41.3" font-family="Times,serif" font-size="14.00">G</text>
</g>
<!-- F&#45;&gt;G -->
<g id="edge3" class="edge"><title>F&#45;&gt;G</title>
<path fill="none" stroke="slateblue" d="M144.403,-45C152.393,-45 161.311,-45 169.824,-45"/>
<polygon fill="none" stroke="slateblue" points="179.919,-48.5 169.919,-45.0001 179.919,-41.5 179.919,-48.5"/>
</g>
</g>
</svg>
