<?xml version="1.0" encoding="UTF-8" standalone="no"?>
<!DOCTYPE svg PUBLIC "-//W3C//DTD SVG 1.1//EN"
 "http://www.w3.org/Graphics/SVG/1.1/DTD/svg11.dtd">
<!-- Generated by graphviz version 2.38.0 (20140413.2041)
 -->
<!-- Title: graph_08 Pages: 1 -->
<svg width="162pt" height="55pt"
 viewBox="0.00 0.00 161.80 54.80" xmlns="http://www.w3.org/2000/svg" xmlns:xlink="http://www.w3.org/1999/xlink">
<g id="graph0" class="graph" transform="scale(1 1) rotate(0) translate(4 50.8)">
<title>graph_08</title>
<polygon fill="white" stroke="none" points="-4,4 -4,-50.8 157.8,-50.8 157.8,4 -4,4"/>
<!-- _crow -->
<g id="node1" class="node"><title>_crow</title>
<ellipse fill="black" stroke="black" cx="1.8" cy="-18.8" rx="1.8" ry="1.8"/>
</g>
<!-- crow -->
<g id="node2" class="node"><title>crow</title>
<ellipse fill="black" stroke="black" cx="65.4" cy="-35.8" rx="1.8" ry="1.8"/>
</g>
<!-- _crow&#45;&gt;crow -->
<g id="edge1" class="edge"><title>_crow&#45;&gt;crow</title>
<path fill="none" stroke="black" d="M3.75132,-19.5429C6.40279,-21.5704 14.1699,-27.219 21.6,-29.8 31.8949,-33.3762 44.2859,-34.8258 53.0801,-35.4107"/>
<polygon fill="black" stroke="black" points="53.3124,-35.4195 63.1336,-40.2974 58.3088,-35.6101 63.3052,-35.8007 63.3052,-35.8007 63.3052,-35.8007 58.3088,-35.6101 63.4767,-31.304 53.3124,-35.4195 53.3124,-35.4195"/>
<text text-anchor="middle" x="33.6" y="-36.8" font-family="Times,serif" font-size="10.00">crow</text>
</g>
<!-- lcrow -->
<g id="node4" class="node"><title>lcrow</title>
<ellipse fill="black" stroke="black" cx="65.4" cy="-18.8" rx="1.8" ry="1.8"/>
</g>
<!-- _crow&#45;&gt;lcrow -->
<g id="edge3" class="edge"><title>_crow&#45;&gt;lcrow</title>
<path fill="none" stroke="black" d="M3.86918,-18.8C9.6426,-18.8 37.4207,-18.8 53.2651,-18.8"/>
<polygon fill="black" stroke="black" points="53.4875,-18.8001 63.4875,-23.3 58.4875,-18.8 63.4875,-18.8 63.4875,-18.8 63.4875,-18.8 53.4875,-18.8001"/>
<text text-anchor="middle" x="33.6" y="-21.8" font-family="Times,serif" font-size="10.00">lcrow</text>
</g>
<!-- rcrow -->
<g id="node6" class="node"><title>rcrow</title>
<ellipse fill="black" stroke="black" cx="65.4" cy="-1.8" rx="1.8" ry="1.8"/>
</g>
<!-- _crow&#45;&gt;rcrow -->
<g id="edge5" class="edge"><title>_crow&#45;&gt;rcrow</title>
<path fill="none" stroke="black" d="M3.75132,-18.0571C6.40279,-16.0296 14.1699,-10.381 21.6,-7.8 31.8949,-4.22375 44.2859,-2.77417 53.0801,-2.18926"/>
<polygon fill="black" stroke="black" points="63.3052,-1.79929 63.3052,-1.79929 63.3052,-1.79929 58.3088,-1.98989 63.1336,2.69744 53.3124,-2.18049 63.3052,-1.79929"/>
<text text-anchor="middle" x="33.6" y="-10.8" font-family="Times,serif" font-size="10.00">rcrow</text>
</g>
<!-- crowcrow -->
<g id="node3" class="node"><title>crowcrow</title>
<ellipse fill="black" stroke="black" cx="152" cy="-35.8" rx="1.8" ry="1.8"/>
</g>
<!-- crow&#45;&gt;crowcrow -->
<g id="edge2" class="edge"><title>crow&#45;&gt;crowcrow</title>
<path fill="none" stroke="black" d="M67.3501,-35.8C73.4087,-35.8 107.113,-35.8 129.846,-35.8"/>
<polygon fill="black" stroke="black" points="140.163,-35.8 150.163,-40.3 145.163,-35.8 150.163,-35.8 150.163,-35.8 150.163,-35.8 145.163,-35.8 150.163,-31.3 140.163,-35.8 140.163,-35.8"/>
<polygon fill="black" stroke="black" points="130.163,-35.8001 140.163,-40.3 135.163,-35.8001 140.163,-35.8 140.163,-35.8 140.163,-35.8 135.163,-35.8001 140.163,-31.3 130.163,-35.8001 130.163,-35.8001"/>
<text text-anchor="middle" x="108.7" y="-38.8" font-family="Times,serif" font-size="10.00">crowcrow</text>
</g>
<!-- lcrowlcrow -->
<g id="node5" class="node"><title>lcrowlcrow</title>
<ellipse fill="black" stroke="black" cx="152" cy="-18.8" rx="1.8" ry="1.8"/>
</g>
<!-- lcrow&#45;&gt;lcrowlcrow -->
<g id="edge4" class="edge"><title>lcrow&#45;&gt;lcrowlcrow</title>
<path fill="none" stroke="black" d="M67.3501,-18.8C73.4087,-18.8 107.113,-18.8 129.846,-18.8"/>
<polygon fill="black" stroke="black" points="140.163,-18.8 150.163,-23.3 145.163,-18.8 150.163,-18.8 150.163,-18.8 150.163,-18.8 140.163,-18.8"/>
<polygon fill="black" stroke="black" points="130.163,-18.8001 140.163,-23.3 135.163,-18.8001 140.163,-18.8 140.163,-18.8 140.163,-18.8 130.163,-18.8001"/>
<text text-anchor="middle" x="108.7" y="-21.8" font-family="Times,serif" font-size="10.00">lcrowlcrow</text>
</g>
<!-- rcrowrcrow -->
<g id="node7" class="node"><title>rcrowrcrow</title>
<ellipse fill="black" stroke="black" cx="152" cy="-1.8" rx="1.8" ry="1.8"/>
</g>
<!-- rcrow&#45;&gt;rcrowrcrow -->
<g id="edge6" class="edge"><title>rcrow&#45;&gt;rcrowrcrow</title>
<path fill="none" stroke="black" d="M67.3501,-1.8C73.4087,-1.8 107.113,-1.8 129.846,-1.8"/>
<polygon fill="black" stroke="black" points="150.163,-1.8 150.163,-1.8 150.163,-1.8 145.163,-1.80002 150.163,2.7 140.163,-1.80005 150.163,-1.8"/>
<polygon fill="black" stroke="black" points="140.163,-1.80005 140.163,-1.80005 140.163,-1.80005 135.163,-1.80007 140.163,2.69995 130.163,-1.8001 140.163,-1.80005"/>
<text text-anchor="middle" x="108.7" y="-4.8" font-family="Times,serif" font-size="10.00">rcrowrcrow</text>
</g>
</g>
</svg>
