<?xml version="1.0" encoding="UTF-8" standalone="no"?>
<!DOCTYPE svg PUBLIC "-//W3C//DTD SVG 1.1//EN"
 "http://www.w3.org/Graphics/SVG/1.1/DTD/svg11.dtd">
<!-- Generated by graphviz version 2.38.0 (20140413.2041)
 -->
<!-- Title: graph_03 Pages: 1 -->
<svg width="134pt" height="67pt"
 viewBox="0.00 0.00 134.00 67.00" xmlns="http://www.w3.org/2000/svg" xmlns:xlink="http://www.w3.org/1999/xlink">
<g id="graph0" class="graph" transform="scale(1 1) rotate(0) translate(4 63)">
<title>graph_03</title>
<polygon fill="white" stroke="none" points="-4,4 -4,-63 130,-63 130,4 -4,4"/>
<text text-anchor="middle" x="63" y="-7.8" font-family="Times,serif" font-size="14.00">Class Demo</text>
<!-- A -->
<g id="node1" class="node"><title>A</title>
<polygon fill="none" stroke="black" points="27,-59 3.55271e-15,-41 27,-23 54,-41 27,-59"/>
<polyline fill="none" stroke="black" points="9,-47 9,-35 "/>
<polyline fill="none" stroke="black" points="18,-29 36,-29 "/>
<polyline fill="none" stroke="black" points="45,-35 45,-47 "/>
<polyline fill="none" stroke="black" points="36,-53 18,-53 "/>
<text text-anchor="middle" x="27" y="-37.3" font-family="Times,serif" font-size="14.00">A</text>
</g>
<!-- B -->
<g id="node2" class="node"><title>B</title>
<polygon fill="none" stroke="black" points="126,-59 90,-59 90,-23 126,-23 126,-59"/>
<polyline fill="none" stroke="black" points="102,-59 90,-47 "/>
<polyline fill="none" stroke="black" points="90,-35 102,-23 "/>
<polyline fill="none" stroke="black" points="114,-23 126,-35 "/>
<polyline fill="none" stroke="black" points="126,-47 114,-59 "/>
<text text-anchor="middle" x="108" y="-37.3" font-family="Times,serif" font-size="14.00">B</text>
</g>
<!-- A&#45;&gt;B -->
<g id="edge1" class="edge"><title>A&#45;&gt;B</title>
<path fill="none" stroke="blue" d="M54.3059,-41C62.4202,-41 71.3739,-41 79.5625,-41"/>
<polygon fill="blue" stroke="blue" points="79.7516,-44.5001 89.7516,-41 79.7516,-37.5001 79.7516,-44.5001"/>
</g>
</g>
</svg>
