<?xml version="1.0" encoding="UTF-8" standalone="no"?>
<!DOCTYPE svg PUBLIC "-//W3C//DTD SVG 1.1//EN"
 "http://www.w3.org/Graphics/SVG/1.1/DTD/svg11.dtd">
<!-- Generated by graphviz version 2.38.0 (20140413.2041)
 -->
<!-- Title: graph_05 Pages: 1 -->
<svg width="332pt" height="100pt"
 viewBox="0.00 0.00 332.00 99.90" xmlns="http://www.w3.org/2000/svg" xmlns:xlink="http://www.w3.org/1999/xlink">
<g id="graph0" class="graph" transform="scale(1 1) rotate(0) translate(4 95.8977)">
<title>graph_05</title>
<polygon fill="white" stroke="none" points="-4,4 -4,-95.8977 328,-95.8977 328,4 -4,4"/>
<!-- A -->
<g id="node1" class="node"><title>A</title>
<ellipse fill="none" stroke="magenta" cx="27" cy="-31.8977" rx="27" ry="18"/>
<text text-anchor="middle" x="27" y="-28.1977" font-family="Times,serif" font-size="14.00">A</text>
</g>
<!-- B -->
<g id="node2" class="node"><title>B</title>
<ellipse fill="none" stroke="magenta" cx="117" cy="-31.8977" rx="27" ry="18"/>
<text text-anchor="middle" x="117" y="-28.1977" font-family="Times,serif" font-size="14.00">B</text>
</g>
<!-- A&#45;&gt;B -->
<g id="edge1" class="edge"><title>A&#45;&gt;B</title>
<path fill="none" stroke="black" d="M54.4029,-31.8977C62.3932,-31.8977 71.3106,-31.8977 79.8241,-31.8977"/>
<polygon fill="black" stroke="black" points="79.919,-35.3978 89.919,-31.8977 79.919,-28.3978 79.919,-35.3978"/>
</g>
<!-- C -->
<g id="node3" class="node"><title>C</title>
<ellipse fill="none" stroke="magenta" cx="207" cy="-73.8977" rx="27" ry="18"/>
<text text-anchor="middle" x="207" y="-70.1977" font-family="Times,serif" font-size="14.00">C</text>
</g>
<!-- A&#45;&gt;C -->
<g id="edge5" class="edge"><title>A&#45;&gt;C</title>
<path fill="none" stroke="black" d="M48.6961,-42.6654C60.4996,-48.3546 75.7418,-54.9569 90,-58.8977 116.139,-66.1222 146.574,-69.8912 169.71,-71.8438"/>
<polygon fill="black" stroke="black" points="169.545,-75.3414 179.784,-72.6191 170.082,-68.3621 169.545,-75.3414"/>
</g>
<!-- B&#45;&gt;C -->
<g id="edge2" class="edge"><title>B&#45;&gt;C</title>
<path fill="none" stroke="black" d="M139.302,-42.0647C150.139,-47.237 163.506,-53.6165 175.421,-59.3031"/>
<polygon fill="black" stroke="black" points="174.056,-62.5301 184.589,-63.6787 177.072,-56.2127 174.056,-62.5301"/>
</g>
<!-- D -->
<g id="node4" class="node"><title>D</title>
<ellipse fill="none" stroke="magenta" cx="297" cy="-27.8977" rx="27" ry="18"/>
<text text-anchor="middle" x="297" y="-24.1977" font-family="Times,serif" font-size="14.00">D</text>
</g>
<!-- B&#45;&gt;D -->
<g id="edge6" class="edge"><title>B&#45;&gt;D</title>
<path fill="none" stroke="black" d="M144.265,-31.3075C174.851,-30.6202 225.551,-29.4808 259.843,-28.7102"/>
<polygon fill="black" stroke="black" points="259.999,-32.2077 269.918,-28.4838 259.842,-25.2095 259.999,-32.2077"/>
</g>
<!-- C&#45;&gt;D -->
<g id="edge3" class="edge"><title>C&#45;&gt;D</title>
<path fill="none" stroke="black" d="M228.855,-62.9964C240.033,-57.1531 253.998,-49.8533 266.293,-43.4266"/>
<polygon fill="black" stroke="black" points="268.054,-46.4552 275.295,-38.7208 264.811,-40.2516 268.054,-46.4552"/>
</g>
<!-- D&#45;&gt;A -->
<g id="edge4" class="edge"><title>D&#45;&gt;A</title>
<path fill="none" stroke="black" d="M272.293,-20.4389C233.732,-9.37878 155.175,8.67799 90,-4.89772 78.9383,-7.20181 67.431,-11.5895 57.3766,-16.1686"/>
<polygon fill="black" stroke="black" points="55.7423,-13.0707 48.2439,-20.5556 58.7734,-19.3804 55.7423,-13.0707"/>
</g>
</g>
</svg>
