<?xml version="1.0" encoding="UTF-8" standalone="no"?>
<!DOCTYPE svg PUBLIC "-//W3C//DTD SVG 1.1//EN"
 "http://www.w3.org/Graphics/SVG/1.1/DTD/svg11.dtd">
<!-- Generated by graphviz version 2.38.0 (20140413.2041)
 -->
<!-- Title: graph_06 Pages: 1 -->
<svg width="143pt" height="67pt"
 viewBox="0.00 0.00 143.00 67.00" xmlns="http://www.w3.org/2000/svg" xmlns:xlink="http://www.w3.org/1999/xlink">
<g id="graph0" class="graph" transform="scale(1 1) rotate(0) translate(4 63)">
<title>graph_06</title>
<polygon fill="white" stroke="none" points="-4,4 -4,-63 139,-63 139,4 -4,4"/>
<text text-anchor="middle" x="67.5" y="-7.8" font-family="Times,serif" font-size="14.00">Complex Syntax Test</text>
<!-- F -->
<g id="node1" class="node"><title>F</title>
<polygon fill="yellow" stroke="darkorchid" stroke-width="5" points="58.5,-41 45,-59 18,-59 4.5,-41 18,-23 45,-23 58.5,-41"/>
<text text-anchor="middle" x="31.5" y="-37.3" font-family="Times,serif" font-size="14.00">F</text>
</g>
<!-- G -->
<g id="node2" class="node"><title>G</title>
<polygon fill="darkorchid" stroke="crimson" stroke-width="7" points="130.5,-46.5623 103.5,-59 76.5,-46.5623 86.8131,-26.4377 120.187,-26.4377 130.5,-46.5623"/>
<text text-anchor="middle" x="103.5" y="-37.3" font-family="Times,serif" font-size="14.00">G</text>
</g>
<!-- F&#45;&gt;G -->
<g id="edge1" class="edge"><title>F&#45;&gt;G</title>
<path fill="none" stroke="orange" d="M58.5,-41C62.0651,-41 65.6301,-41 69.1952,-41"/>
<polygon fill="orange" stroke="orange" points="69.2422,-44.5001 79.2422,-41 69.2422,-37.5001 69.2422,-44.5001"/>
</g>
</g>
</svg>
