<?xml version="1.0" encoding="UTF-8" standalone="no"?>
<!DOCTYPE svg PUBLIC "-//W3C//DTD SVG 1.1//EN"
 "http://www.w3.org/Graphics/SVG/1.1/DTD/svg11.dtd">
<!-- Generated by graphviz version 2.38.0 (20140413.2041)
 -->
<!-- Title: graph_06 Pages: 1 -->
<svg width="154pt" height="303pt"
 viewBox="0.00 0.00 154.00 302.65" xmlns="http://www.w3.org/2000/svg" xmlns:xlink="http://www.w3.org/1999/xlink">
<g id="graph0" class="graph" transform="scale(1 1) rotate(0) translate(4 298.652)">
<title>graph_06</title>
<polygon fill="white" stroke="none" points="-4,4 -4,-298.652 150,-298.652 150,4 -4,4"/>
<text text-anchor="middle" x="73" y="-7.8" font-family="Times,serif" font-size="14.00">Complex Syntax Test</text>
<g id="clust3" class="cluster"><title>cluster_outer</title>
<polygon fill="none" stroke="black" points="8,-31 8,-286.652 138,-286.652 138,-31 8,-31"/>
<text text-anchor="middle" x="73" y="-271.452" font-family="Times,serif" font-size="14.00">Outer</text>
</g>
<g id="clust4" class="cluster"><title>cluster_inner</title>
<polygon fill="none" stroke="black" points="16,-39 16,-255.652 130,-255.652 130,-39 16,-39"/>
<text text-anchor="middle" x="73" y="-240.452" font-family="Times,serif" font-size="14.00">Inner</text>
</g>
<!-- J -->
<g id="node1" class="node"><title>J</title>
<polygon fill="magenta" stroke="yellow" points="91.5,-224.652 54.5,-224.652 54.5,-187.652 91.5,-187.652 91.5,-224.652"/>
<text text-anchor="middle" x="73" y="-199.852" font-family="Times,serif" font-size="26.00">J</text>
</g>
<!-- K -->
<g id="node2" class="node"><title>K</title>
<polygon fill="magenta" stroke="black" points="73,-151.478 23.5051,-73.2497 122.495,-73.2497 73,-151.478"/>
<text text-anchor="middle" x="73" y="-93.0259" font-family="Times,serif" font-size="26.00">K</text>
</g>
<!-- J&#45;&gt;K -->
<g id="edge1" class="edge"><title>J&#45;&gt;K</title>
<path fill="none" stroke="blue" d="M73,-187.37C73,-180.077 73,-171.166 73,-161.858"/>
<polygon fill="blue" stroke="blue" points="76.5001,-161.662 73,-151.662 69.5001,-161.662 76.5001,-161.662"/>
</g>
</g>
</svg>
