<?xml version="1.0" encoding="UTF-8" standalone="no"?>
<!DOCTYPE svg PUBLIC "-//W3C//DTD SVG 1.1//EN"
 "http://www.w3.org/Graphics/SVG/1.1/DTD/svg11.dtd">
<!-- Generated by graphviz version 2.38.0 (20140413.2041)
 -->
<!-- Title: graph_06 Pages: 1 -->
<svg width="143pt" height="227pt"
 viewBox="0.00 0.00 143.00 226.88" xmlns="http://www.w3.org/2000/svg" xmlns:xlink="http://www.w3.org/1999/xlink">
<g id="graph0" class="graph" transform="scale(1 1) rotate(0) translate(4 222.884)">
<title>graph_06</title>
<polygon fill="white" stroke="none" points="-4,4 -4,-222.884 139,-222.884 139,4 -4,4"/>
<text text-anchor="middle" x="67.5" y="-7.8" font-family="Times,serif" font-size="14.00">Complex Syntax Test</text>
<g id="clust3" class="cluster"><title>cluster_outer</title>
<polygon fill="none" stroke="black" points="32.5,-31 32.5,-210.884 102.5,-210.884 102.5,-31 32.5,-31"/>
<text text-anchor="middle" x="67.5" y="-195.684" font-family="Times,serif" font-size="14.00">Outer</text>
</g>
<!-- H -->
<g id="node1" class="node"><title>H</title>
<polygon fill="lightblue" stroke="black" points="94.6903,-161.834 67.5,-180.107 40.3097,-161.834 40.3351,-132.269 94.6649,-132.269 94.6903,-161.834"/>
<text text-anchor="middle" x="67.5" y="-148.663" font-family="Times,serif" font-size="20.00">H</text>
</g>
<!-- I -->
<g id="node2" class="node"><title>I</title>
<polygon fill="lightblue" stroke="black" points="94.5,-73.3925 67.5,-91.6648 40.5,-73.3925 40.5252,-43.8275 94.4748,-43.8275 94.5,-73.3925"/>
<text text-anchor="middle" x="67.5" y="-60.221" font-family="Times,serif" font-size="20.00">I</text>
</g>
<!-- H&#45;&gt;I -->
<g id="edge1" class="edge"><title>H&#45;&gt;I</title>
<path fill="none" stroke="purple" d="M67.5,-132.177C67.5,-123.041 67.5,-112.01 67.5,-101.605"/>
<polygon fill="purple" stroke="purple" points="71.0001,-101.503 67.5,-91.5032 64.0001,-101.503 71.0001,-101.503"/>
</g>
</g>
</svg>
