<?xml version="1.0" encoding="UTF-8" standalone="no"?>
<!DOCTYPE svg PUBLIC "-//W3C//DTD SVG 1.1//EN"
 "http://www.w3.org/Graphics/SVG/1.1/DTD/svg11.dtd">
<!-- Generated by graphviz version 2.38.0 (20140413.2041)
 -->
<!-- Title: graph_09 Pages: 1 -->
<svg width="134pt" height="116pt"
 viewBox="0.00 0.00 134.00 116.00" xmlns="http://www.w3.org/2000/svg" xmlns:xlink="http://www.w3.org/1999/xlink">
<g id="graph0" class="graph" transform="scale(1 1) rotate(0) translate(4 112)">
<title>graph_09</title>
<polygon fill="white" stroke="none" points="-4,4 -4,-112 130,-112 130,4 -4,4"/>
<!-- i -->
<g id="node1" class="node"><title>i</title>
<ellipse fill="lemonchiffon" stroke="lemonchiffon" cx="27" cy="-90" rx="27" ry="18"/>
<text text-anchor="middle" x="27" y="-86.3" font-family="Times,serif" font-size="14.00">i</text>
</g>
<!-- k -->
<g id="node3" class="node"><title>k</title>
<ellipse fill="olivedrab" stroke="olivedrab" cx="27" cy="-18" rx="27" ry="18"/>
<text text-anchor="middle" x="27" y="-14.3" font-family="Times,serif" font-size="14.00">k</text>
</g>
<!-- i&#45;&gt;k -->
<g id="edge1" class="edge"><title>i&#45;&gt;k</title>
<path fill="none" stroke="black" d="M27,-71.6966C27,-63.9827 27,-54.7125 27,-46.1124"/>
<polygon fill="black" stroke="black" points="30.5001,-46.1043 27,-36.1043 23.5001,-46.1044 30.5001,-46.1043"/>
</g>
<!-- l -->
<g id="node4" class="node"><title>l</title>
<ellipse fill="lime" stroke="lime" cx="99" cy="-18" rx="27" ry="18"/>
<text text-anchor="middle" x="99" y="-14.3" font-family="Times,serif" font-size="14.00">l</text>
</g>
<!-- i&#45;&gt;l -->
<g id="edge2" class="edge"><title>i&#45;&gt;l</title>
<path fill="none" stroke="black" d="M41.5703,-74.8345C51.7499,-64.9376 65.5239,-51.5462 77.0306,-40.3591"/>
<polygon fill="black" stroke="black" points="79.4741,-42.865 84.2043,-33.3847 74.5945,-37.8461 79.4741,-42.865"/>
</g>
<!-- j -->
<g id="node2" class="node"><title>j</title>
<ellipse fill="yellow" stroke="yellow" cx="99" cy="-90" rx="27" ry="18"/>
<text text-anchor="middle" x="99" y="-86.3" font-family="Times,serif" font-size="14.00">j</text>
</g>
<!-- j&#45;&gt;k -->
<g id="edge3" class="edge"><title>j&#45;&gt;k</title>
<path fill="none" stroke="black" d="M84.4297,-74.8345C74.2501,-64.9376 60.4761,-51.5462 48.9694,-40.3591"/>
<polygon fill="black" stroke="black" points="51.4055,-37.8461 41.7957,-33.3847 46.5259,-42.865 51.4055,-37.8461"/>
</g>
<!-- j&#45;&gt;l -->
<g id="edge4" class="edge"><title>j&#45;&gt;l</title>
<path fill="none" stroke="black" d="M99,-71.6966C99,-63.9827 99,-54.7125 99,-46.1124"/>
<polygon fill="black" stroke="black" points="102.5,-46.1043 99,-36.1043 95.5001,-46.1044 102.5,-46.1043"/>
</g>
</g>
</svg>
