<?xml version="1.0" encoding="UTF-8" standalone="no"?>
<!DOCTYPE svg PUBLIC "-//W3C//DTD SVG 1.1//EN"
 "http://www.w3.org/Graphics/SVG/1.1/DTD/svg11.dtd">
<!-- Generated by graphviz version 2.38.0 (20140413.2041)
 -->
<!-- Title: graph_08 Pages: 1 -->
<svg width="169pt" height="55pt"
 viewBox="0.00 0.00 168.80 54.80" xmlns="http://www.w3.org/2000/svg" xmlns:xlink="http://www.w3.org/1999/xlink">
<g id="graph0" class="graph" transform="scale(1 1) rotate(0) translate(4 50.8)">
<title>graph_08</title>
<polygon fill="white" stroke="none" points="-4,4 -4,-50.8 164.8,-50.8 164.8,4 -4,4"/>
<!-- _curve -->
<g id="node1" class="node"><title>_curve</title>
<ellipse fill="black" stroke="black" cx="1.8" cy="-18.8" rx="1.8" ry="1.8"/>
</g>
<!-- curve -->
<g id="node2" class="node"><title>curve</title>
<ellipse fill="black" stroke="black" cx="67.4" cy="-35.8" rx="1.8" ry="1.8"/>
</g>
<!-- _curve&#45;&gt;curve -->
<g id="edge1" class="edge"><title>_curve&#45;&gt;curve</title>
<path fill="none" stroke="black" d="M3.75049,-19.5453C6.39983,-21.579 14.162,-27.2418 21.6,-29.8 32.6381,-33.5965 45.9743,-35.0068 55.2112,-35.5221"/>
<polyline fill="none" stroke="black" points="65.2542,-35.8102 55.2583,-35.5234 "/>
<path fill="none" stroke="black" d="M60.3996,-30.6688C67.0564,-30.86 66.7839,-40.8559 60.1128,-40.6647"/>
<text text-anchor="middle" x="34.6" y="-37.8" font-family="Times,serif" font-size="10.00">curve</text>
</g>
<!-- lcurve -->
<g id="node4" class="node"><title>lcurve</title>
<ellipse fill="black" stroke="black" cx="67.4" cy="-18.8" rx="1.8" ry="1.8"/>
</g>
<!-- _curve&#45;&gt;lcurve -->
<g id="edge3" class="edge"><title>_curve&#45;&gt;lcurve</title>
<path fill="none" stroke="black" d="M3.9039,-18.8C9.92559,-18.8 39.1324,-18.8 55.4004,-18.8"/>
<polyline fill="none" stroke="black" points="65.4578,-18.8 55.4578,-18.8001 "/>
<path fill="none" stroke="black" d="M65.4578,-18.8C65.4578,-21.3 63.7912,-23.8 60.4579,-23.8"/>
<text text-anchor="middle" x="34.6" y="-21.8" font-family="Times,serif" font-size="10.00">lcurve</text>
</g>
<!-- rcurve -->
<g id="node6" class="node"><title>rcurve</title>
<ellipse fill="black" stroke="black" cx="67.4" cy="-1.8" rx="1.8" ry="1.8"/>
</g>
<!-- _curve&#45;&gt;rcurve -->
<g id="edge5" class="edge"><title>_curve&#45;&gt;rcurve</title>
<path fill="none" stroke="black" d="M3.75049,-18.0547C6.39983,-16.021 14.162,-10.3582 21.6,-7.8 32.6381,-4.00355 45.9743,-2.59324 55.2112,-2.07789"/>
<polyline fill="none" stroke="black" points="65.2542,-1.78983 55.2583,-2.07664 "/>
<path fill="none" stroke="black" d="M60.1128,3.06471C63.4484,3.16031 65.1843,0.709145 65.2542,-1.78983"/>
<text text-anchor="middle" x="34.6" y="-10.8" font-family="Times,serif" font-size="10.00">rcurve</text>
</g>
<!-- curvecurve -->
<g id="node3" class="node"><title>curvecurve</title>
<ellipse fill="black" stroke="black" cx="159" cy="-35.8" rx="1.8" ry="1.8"/>
</g>
<!-- curve&#45;&gt;curvecurve -->
<g id="edge2" class="edge"><title>curve&#45;&gt;curvecurve</title>
<path fill="none" stroke="black" d="M69.4063,-35.8C75.9311,-35.8 112.731,-35.8 136.803,-35.8"/>
<polyline fill="none" stroke="black" points="157.113,-35.8 147.113,-35.8 "/>
<path fill="none" stroke="black" d="M152.113,-30.8C158.78,-30.8 158.78,-40.8 152.113,-40.8"/>
<polyline fill="none" stroke="black" points="147.113,-35.8 137.113,-35.8001 "/>
<path fill="none" stroke="black" d="M142.113,-30.8001C148.78,-30.8 148.78,-40.8 142.113,-40.8001"/>
<text text-anchor="middle" x="113.2" y="-38.8" font-family="Times,serif" font-size="10.00">curvecurve</text>
</g>
<!-- lcurvelcurve -->
<g id="node5" class="node"><title>lcurvelcurve</title>
<ellipse fill="black" stroke="black" cx="159" cy="-18.8" rx="1.8" ry="1.8"/>
</g>
<!-- lcurve&#45;&gt;lcurvelcurve -->
<g id="edge4" class="edge"><title>lcurve&#45;&gt;lcurvelcurve</title>
<path fill="none" stroke="black" d="M69.4063,-18.8C75.9311,-18.8 112.731,-18.8 136.803,-18.8"/>
<polyline fill="none" stroke="black" points="157.113,-18.8 147.113,-18.8 "/>
<path fill="none" stroke="black" d="M157.113,-18.8C157.113,-21.3 155.447,-23.8 152.113,-23.8"/>
<polyline fill="none" stroke="black" points="147.113,-18.8 137.113,-18.8001 "/>
<path fill="none" stroke="black" d="M147.113,-18.8C147.113,-21.3 145.447,-23.8001 142.113,-23.8001"/>
<text text-anchor="middle" x="113.2" y="-21.8" font-family="Times,serif" font-size="10.00">lcurvelcurve</text>
</g>
<!-- rcurvercurve -->
<g id="node7" class="node"><title>rcurvercurve</title>
<ellipse fill="black" stroke="black" cx="159" cy="-1.8" rx="1.8" ry="1.8"/>
</g>
<!-- rcurve&#45;&gt;rcurvercurve -->
<g id="edge6" class="edge"><title>rcurve&#45;&gt;rcurvercurve</title>
<path fill="none" stroke="black" d="M69.4063,-1.8C75.9311,-1.8 112.731,-1.8 136.803,-1.8"/>
<polyline fill="none" stroke="black" points="157.113,-1.8 147.113,-1.80005 "/>
<path fill="none" stroke="black" d="M152.113,3.19998C155.447,3.19999 157.113,0.7 157.113,-1.8"/>
<polyline fill="none" stroke="black" points="147.113,-1.80005 137.113,-1.8001 "/>
<path fill="none" stroke="black" d="M142.113,3.19993C145.447,3.19994 147.113,0.699951 147.113,-1.80005"/>
<text text-anchor="middle" x="113.2" y="-4.8" font-family="Times,serif" font-size="10.00">rcurvercurve</text>
</g>
</g>
</svg>
