<?xml version="1.0" encoding="UTF-8" standalone="no"?>
<!DOCTYPE svg PUBLIC "-//W3C//DTD SVG 1.1//EN"
 "http://www.w3.org/Graphics/SVG/1.1/DTD/svg11.dtd">
<!-- Generated by graphviz version 2.38.0 (20140413.2041)
 -->
<!-- Title: graph_10 Pages: 1 -->
<svg width="197pt" height="122pt"
 viewBox="0.00 0.00 197.00 122.04" xmlns="http://www.w3.org/2000/svg" xmlns:xlink="http://www.w3.org/1999/xlink">
<g id="graph0" class="graph" transform="scale(1 1) rotate(0) translate(4 118.039)">
<title>graph_10</title>
<polygon fill="white" stroke="none" points="-4,4 -4,-118.039 193,-118.039 193,4 -4,4"/>
<!-- node_10_03 -->
<g id="node1" class="node"><title>node_10_03</title>
<polygon fill="none" stroke="black" points="46,-77.5392 46,-113.539 189,-113.539 189,-77.5392 46,-77.5392"/>
<text text-anchor="middle" x="63" y="-91.8392" font-family="Times,serif" font-size="14.00">big</text>
<polyline fill="none" stroke="black" points="80,-77.5392 80,-113.539 "/>
<text text-anchor="middle" x="111" y="-91.8392" font-family="Times,serif" font-size="14.00">medium</text>
<polyline fill="none" stroke="black" points="142,-77.5392 142,-113.539 "/>
<text text-anchor="middle" x="165.5" y="-91.8392" font-family="Times,serif" font-size="14.00">small</text>
</g>
<!-- node_10_04 -->
<g id="node2" class="node"><title>node_10_04</title>
<polygon fill="none" stroke="black" points="0,-4.53918 0,-40.5392 81,-40.5392 81,-4.53918 0,-4.53918"/>
<text text-anchor="middle" x="21.5" y="-18.8392" font-family="Times,serif" font-size="14.00">huge</text>
<polyline fill="none" stroke="black" points="43,-4.53918 43,-40.5392 "/>
<text text-anchor="middle" x="62" y="-18.8392" font-family="Times,serif" font-size="14.00">tiny</text>
</g>
<!-- node_10_03&#45;&gt;node_10_04 -->
<g id="edge1" class="edge"><title>node_10_03:p11&#45;&gt;node_10_04:p22:s</title>
<path fill="none" stroke="red" d="M63.7412,-68.8338C67.3042,-58.3135 77.5303,-55.3821 81,-41.0392 84.8143,-25.2718 92.157,-16.3155 81,-4.53918 79.2303,-2.6712 76.76,-1.06892 74.1998,-0"/>
<ellipse fill="none" stroke="red" cx="63.0983" cy="-73.0842" rx="4.00001" ry="4.00001"/>
<polygon fill="none" stroke="red" points="73.986,-0.0646079 69.4012,-5.63056 62.5,-3.53918 67.0848,2.02677 73.986,-0.0646079"/>
</g>
</g>
</svg>
