<?xml version="1.0" encoding="UTF-8" standalone="no"?>
<!DOCTYPE svg PUBLIC "-//W3C//DTD SVG 1.1//EN"
 "http://www.w3.org/Graphics/SVG/1.1/DTD/svg11.dtd">
<!-- Generated by graphviz version 2.38.0 (20140413.2041)
 -->
<!-- Title: graph_09 Pages: 1 -->
<svg width="638pt" height="116pt"
 viewBox="0.00 0.00 638.00 116.00" xmlns="http://www.w3.org/2000/svg" xmlns:xlink="http://www.w3.org/1999/xlink">
<g id="graph0" class="graph" transform="scale(1 1) rotate(0) translate(4 112)">
<title>graph_09</title>
<polygon fill="white" stroke="none" points="-4,4 -4,-112 634,-112 634,4 -4,4"/>
<!-- a -->
<g id="node1" class="node"><title>a</title>
<ellipse fill="red" stroke="red" cx="27" cy="-90" rx="27" ry="18"/>
<text text-anchor="middle" x="27" y="-86.3" font-family="Times,serif" font-size="14.00">a</text>
</g>
<!-- b -->
<g id="node2" class="node"><title>b</title>
<ellipse fill="green" stroke="green" cx="27" cy="-18" rx="27" ry="18"/>
<text text-anchor="middle" x="27" y="-14.3" font-family="Times,serif" font-size="14.00">b</text>
</g>
<!-- a&#45;&gt;b -->
<g id="edge1" class="edge"><title>a&#45;&gt;b</title>
<path fill="none" stroke="black" d="M27,-71.6966C27,-63.9827 27,-54.7125 27,-46.1124"/>
<polygon fill="black" stroke="black" points="30.5001,-46.1043 27,-36.1043 23.5001,-46.1044 30.5001,-46.1043"/>
</g>
<!-- c -->
<g id="node3" class="node"><title>c</title>
<ellipse fill="blue" stroke="blue" cx="99" cy="-90" rx="27" ry="18"/>
<text text-anchor="middle" x="99" y="-86.3" font-family="Times,serif" font-size="14.00">c</text>
</g>
<!-- d -->
<g id="node4" class="node"><title>d</title>
<ellipse fill="orange" stroke="orange" cx="99" cy="-18" rx="27" ry="18"/>
<text text-anchor="middle" x="99" y="-14.3" font-family="Times,serif" font-size="14.00">d</text>
</g>
<!-- c&#45;&gt;d -->
<g id="edge2" class="edge"><title>c&#45;&gt;d</title>
<path fill="none" stroke="black" d="M99,-71.6966C99,-63.9827 99,-54.7125 99,-46.1124"/>
<polygon fill="black" stroke="black" points="102.5,-46.1043 99,-36.1043 95.5001,-46.1044 102.5,-46.1043"/>
</g>
<!-- e -->
<g id="node5" class="node"><title>e</title>
<ellipse fill="goldenrod" stroke="goldenrod" cx="171" cy="-18" rx="27" ry="18"/>
<text text-anchor="middle" x="171" y="-14.3" font-family="Times,serif" font-size="14.00">e</text>
</g>
<!-- c&#45;&gt;e -->
<g id="edge3" class="edge"><title>c&#45;&gt;e</title>
<path fill="none" stroke="black" d="M113.57,-74.8345C123.75,-64.9376 137.524,-51.5462 149.031,-40.3591"/>
<polygon fill="black" stroke="black" points="151.474,-42.865 156.204,-33.3847 146.595,-37.8461 151.474,-42.865"/>
</g>
<!-- f -->
<g id="node6" class="node"><title>f</title>
<ellipse fill="coral" stroke="coral" cx="171" cy="-90" rx="27" ry="18"/>
<text text-anchor="middle" x="171" y="-86.3" font-family="Times,serif" font-size="14.00">f</text>
</g>
<!-- h -->
<g id="node8" class="node"><title>h</title>
<ellipse fill="mistyrose" stroke="mistyrose" cx="243" cy="-18" rx="27" ry="18"/>
<text text-anchor="middle" x="243" y="-14.3" font-family="Times,serif" font-size="14.00">h</text>
</g>
<!-- f&#45;&gt;h -->
<g id="edge4" class="edge"><title>f&#45;&gt;h</title>
<path fill="none" stroke="black" d="M185.57,-74.8345C195.75,-64.9376 209.524,-51.5462 221.031,-40.3591"/>
<polygon fill="black" stroke="black" points="223.474,-42.865 228.204,-33.3847 218.595,-37.8461 223.474,-42.865"/>
</g>
<!-- g -->
<g id="node7" class="node"><title>g</title>
<ellipse fill="salmon" stroke="salmon" cx="243" cy="-90" rx="27" ry="18"/>
<text text-anchor="middle" x="243" y="-86.3" font-family="Times,serif" font-size="14.00">g</text>
</g>
<!-- g&#45;&gt;h -->
<g id="edge5" class="edge"><title>g&#45;&gt;h</title>
<path fill="none" stroke="black" d="M243,-71.6966C243,-63.9827 243,-54.7125 243,-46.1124"/>
<polygon fill="black" stroke="black" points="246.5,-46.1043 243,-36.1043 239.5,-46.1044 246.5,-46.1043"/>
</g>
<!-- i -->
<g id="node9" class="node"><title>i</title>
<ellipse fill="lemonchiffon" stroke="lemonchiffon" cx="315" cy="-90" rx="27" ry="18"/>
<text text-anchor="middle" x="315" y="-86.3" font-family="Times,serif" font-size="14.00">i</text>
</g>
<!-- k -->
<g id="node11" class="node"><title>k</title>
<ellipse fill="olivedrab" stroke="olivedrab" cx="315" cy="-18" rx="27" ry="18"/>
<text text-anchor="middle" x="315" y="-14.3" font-family="Times,serif" font-size="14.00">k</text>
</g>
<!-- i&#45;&gt;k -->
<g id="edge6" class="edge"><title>i&#45;&gt;k</title>
<path fill="none" stroke="black" d="M315,-71.6966C315,-63.9827 315,-54.7125 315,-46.1124"/>
<polygon fill="black" stroke="black" points="318.5,-46.1043 315,-36.1043 311.5,-46.1044 318.5,-46.1043"/>
</g>
<!-- l -->
<g id="node12" class="node"><title>l</title>
<ellipse fill="lime" stroke="lime" cx="387" cy="-18" rx="27" ry="18"/>
<text text-anchor="middle" x="387" y="-14.3" font-family="Times,serif" font-size="14.00">l</text>
</g>
<!-- i&#45;&gt;l -->
<g id="edge7" class="edge"><title>i&#45;&gt;l</title>
<path fill="none" stroke="black" d="M329.57,-74.8345C339.75,-64.9376 353.524,-51.5462 365.031,-40.3591"/>
<polygon fill="black" stroke="black" points="367.474,-42.865 372.204,-33.3847 362.595,-37.8461 367.474,-42.865"/>
</g>
<!-- j -->
<g id="node10" class="node"><title>j</title>
<ellipse fill="yellow" stroke="yellow" cx="387" cy="-90" rx="27" ry="18"/>
<text text-anchor="middle" x="387" y="-86.3" font-family="Times,serif" font-size="14.00">j</text>
</g>
<!-- j&#45;&gt;k -->
<g id="edge8" class="edge"><title>j&#45;&gt;k</title>
<path fill="none" stroke="black" d="M372.43,-74.8345C362.25,-64.9376 348.476,-51.5462 336.969,-40.3591"/>
<polygon fill="black" stroke="black" points="339.405,-37.8461 329.796,-33.3847 334.526,-42.865 339.405,-37.8461"/>
</g>
<!-- j&#45;&gt;l -->
<g id="edge9" class="edge"><title>j&#45;&gt;l</title>
<path fill="none" stroke="black" d="M387,-71.6966C387,-63.9827 387,-54.7125 387,-46.1124"/>
<polygon fill="black" stroke="black" points="390.5,-46.1043 387,-36.1043 383.5,-46.1044 390.5,-46.1043"/>
</g>
<!-- x -->
<g id="node13" class="node"><title>x</title>
<ellipse fill="none" stroke="black" cx="459" cy="-90" rx="27" ry="18"/>
<text text-anchor="middle" x="459" y="-86.3" font-family="Times,serif" font-size="14.00">x</text>
</g>
<!-- y -->
<g id="node14" class="node"><title>y</title>
<ellipse fill="none" stroke="black" cx="531" cy="-90" rx="27" ry="18"/>
<text text-anchor="middle" x="531" y="-86.3" font-family="Times,serif" font-size="14.00">y</text>
</g>
<!-- z -->
<g id="node15" class="node"><title>z</title>
<ellipse fill="none" stroke="black" cx="603" cy="-90" rx="27" ry="18"/>
<text text-anchor="middle" x="603" y="-86.3" font-family="Times,serif" font-size="14.00">z</text>
</g>
</g>
</svg>
