<?xml version="1.0" encoding="UTF-8" standalone="no"?>
<!DOCTYPE svg PUBLIC "-//W3C//DTD SVG 1.1//EN"
 "http://www.w3.org/Graphics/SVG/1.1/DTD/svg11.dtd">
<!-- Generated by graphviz version 2.38.0 (20140413.2041)
 -->
<!-- Title: fixed_length_paths Pages: 1 -->
<svg width="332pt" height="721pt"
 viewBox="0.00 0.00 332.00 721.00" xmlns="http://www.w3.org/2000/svg" xmlns:xlink="http://www.w3.org/1999/xlink">
<g id="graph0" class="graph" transform="scale(1 1) rotate(0) translate(4 717)">
<title>fixed_length_paths</title>
<polygon fill="white" stroke="none" points="-4,4 -4,-717 328,-717 328,4 -4,4"/>
<text text-anchor="middle" x="162" y="-67.8" font-family="Times,serif" font-size="14.00">Input file: fixed.length.paths.in.02.gv</text>
<text text-anchor="middle" x="162" y="-52.8" font-family="Times,serif" font-size="14.00">Starting node: 5</text>
<text text-anchor="middle" x="162" y="-37.8" font-family="Times,serif" font-size="14.00">Path length: 3</text>
<text text-anchor="middle" x="162" y="-22.8" font-family="Times,serif" font-size="14.00">Allow cycles: 0</text>
<text text-anchor="middle" x="162" y="-7.8" font-family="Times,serif" font-size="14.00">Paths: 12</text>
<!-- 1 -->
<g id="node1" class="node"><title>1</title>
<ellipse fill="none" stroke="black" cx="27" cy="-101" rx="27" ry="18"/>
<text text-anchor="middle" x="27" y="-97.3" font-family="Times,serif" font-size="14.00">5</text>
</g>
<!-- 2 -->
<g id="node2" class="node"><title>2</title>
<ellipse fill="none" stroke="black" cx="117" cy="-101" rx="27" ry="18"/>
<text text-anchor="middle" x="117" y="-97.3" font-family="Times,serif" font-size="14.00">8</text>
</g>
<!-- 1&#45;&#45;2 -->
<g id="edge1" class="edge"><title>1&#45;&#45;2</title>
<path fill="none" stroke="black" d="M54.4029,-101C65.6421,-101 78.7152,-101 89.919,-101"/>
</g>
<!-- 3 -->
<g id="node3" class="node"><title>3</title>
<ellipse fill="none" stroke="black" cx="207" cy="-101" rx="27" ry="18"/>
<text text-anchor="middle" x="207" y="-97.3" font-family="Times,serif" font-size="14.00">6</text>
</g>
<!-- 2&#45;&#45;3 -->
<g id="edge2" class="edge"><title>2&#45;&#45;3</title>
<path fill="none" stroke="black" d="M144.403,-101C155.642,-101 168.715,-101 179.919,-101"/>
</g>
<!-- 4 -->
<g id="node4" class="node"><title>4</title>
<ellipse fill="none" stroke="black" cx="297" cy="-101" rx="27" ry="18"/>
<text text-anchor="middle" x="297" y="-97.3" font-family="Times,serif" font-size="14.00">9</text>
</g>
<!-- 3&#45;&#45;4 -->
<g id="edge3" class="edge"><title>3&#45;&#45;4</title>
<path fill="none" stroke="black" d="M234.403,-101C245.642,-101 258.715,-101 269.919,-101"/>
</g>
<!-- 5 -->
<g id="node5" class="node"><title>5</title>
<ellipse fill="none" stroke="black" cx="27" cy="-155" rx="27" ry="18"/>
<text text-anchor="middle" x="27" y="-151.3" font-family="Times,serif" font-size="14.00">5</text>
</g>
<!-- 6 -->
<g id="node6" class="node"><title>6</title>
<ellipse fill="none" stroke="black" cx="117" cy="-155" rx="27" ry="18"/>
<text text-anchor="middle" x="117" y="-151.3" font-family="Times,serif" font-size="14.00">8</text>
</g>
<!-- 5&#45;&#45;6 -->
<g id="edge4" class="edge"><title>5&#45;&#45;6</title>
<path fill="none" stroke="black" d="M54.4029,-155C65.6421,-155 78.7152,-155 89.919,-155"/>
</g>
<!-- 7 -->
<g id="node7" class="node"><title>7</title>
<ellipse fill="none" stroke="black" cx="207" cy="-155" rx="27" ry="18"/>
<text text-anchor="middle" x="207" y="-151.3" font-family="Times,serif" font-size="14.00">6</text>
</g>
<!-- 6&#45;&#45;7 -->
<g id="edge5" class="edge"><title>6&#45;&#45;7</title>
<path fill="none" stroke="black" d="M144.403,-155C155.642,-155 168.715,-155 179.919,-155"/>
</g>
<!-- 8 -->
<g id="node8" class="node"><title>8</title>
<ellipse fill="none" stroke="black" cx="297" cy="-155" rx="27" ry="18"/>
<text text-anchor="middle" x="297" y="-151.3" font-family="Times,serif" font-size="14.00">1</text>
</g>
<!-- 7&#45;&#45;8 -->
<g id="edge6" class="edge"><title>7&#45;&#45;8</title>
<path fill="none" stroke="black" d="M234.403,-155C245.642,-155 258.715,-155 269.919,-155"/>
</g>
<!-- 9 -->
<g id="node9" class="node"><title>9</title>
<ellipse fill="none" stroke="black" cx="27" cy="-209" rx="27" ry="18"/>
<text text-anchor="middle" x="27" y="-205.3" font-family="Times,serif" font-size="14.00">5</text>
</g>
<!-- 10 -->
<g id="node10" class="node"><title>10</title>
<ellipse fill="none" stroke="black" cx="117" cy="-209" rx="27" ry="18"/>
<text text-anchor="middle" x="117" y="-205.3" font-family="Times,serif" font-size="14.00">8</text>
</g>
<!-- 9&#45;&#45;10 -->
<g id="edge7" class="edge"><title>9&#45;&#45;10</title>
<path fill="none" stroke="black" d="M54.4029,-209C65.6421,-209 78.7152,-209 89.919,-209"/>
</g>
<!-- 11 -->
<g id="node11" class="node"><title>11</title>
<ellipse fill="none" stroke="black" cx="207" cy="-209" rx="27" ry="18"/>
<text text-anchor="middle" x="207" y="-205.3" font-family="Times,serif" font-size="14.00">3</text>
</g>
<!-- 10&#45;&#45;11 -->
<g id="edge8" class="edge"><title>10&#45;&#45;11</title>
<path fill="none" stroke="black" d="M144.403,-209C155.642,-209 168.715,-209 179.919,-209"/>
</g>
<!-- 12 -->
<g id="node12" class="node"><title>12</title>
<ellipse fill="none" stroke="black" cx="297" cy="-209" rx="27" ry="18"/>
<text text-anchor="middle" x="297" y="-205.3" font-family="Times,serif" font-size="14.00">2</text>
</g>
<!-- 11&#45;&#45;12 -->
<g id="edge9" class="edge"><title>11&#45;&#45;12</title>
<path fill="none" stroke="black" d="M234.403,-209C245.642,-209 258.715,-209 269.919,-209"/>
</g>
<!-- 13 -->
<g id="node13" class="node"><title>13</title>
<ellipse fill="none" stroke="black" cx="27" cy="-263" rx="27" ry="18"/>
<text text-anchor="middle" x="27" y="-259.3" font-family="Times,serif" font-size="14.00">5</text>
</g>
<!-- 14 -->
<g id="node14" class="node"><title>14</title>
<ellipse fill="none" stroke="black" cx="117" cy="-263" rx="27" ry="18"/>
<text text-anchor="middle" x="117" y="-259.3" font-family="Times,serif" font-size="14.00">8</text>
</g>
<!-- 13&#45;&#45;14 -->
<g id="edge10" class="edge"><title>13&#45;&#45;14</title>
<path fill="none" stroke="black" d="M54.4029,-263C65.6421,-263 78.7152,-263 89.919,-263"/>
</g>
<!-- 15 -->
<g id="node15" class="node"><title>15</title>
<ellipse fill="none" stroke="black" cx="207" cy="-263" rx="27" ry="18"/>
<text text-anchor="middle" x="207" y="-259.3" font-family="Times,serif" font-size="14.00">3</text>
</g>
<!-- 14&#45;&#45;15 -->
<g id="edge11" class="edge"><title>14&#45;&#45;15</title>
<path fill="none" stroke="black" d="M144.403,-263C155.642,-263 168.715,-263 179.919,-263"/>
</g>
<!-- 16 -->
<g id="node16" class="node"><title>16</title>
<ellipse fill="none" stroke="black" cx="297" cy="-263" rx="27" ry="18"/>
<text text-anchor="middle" x="297" y="-259.3" font-family="Times,serif" font-size="14.00">4</text>
</g>
<!-- 15&#45;&#45;16 -->
<g id="edge12" class="edge"><title>15&#45;&#45;16</title>
<path fill="none" stroke="black" d="M234.403,-263C245.642,-263 258.715,-263 269.919,-263"/>
</g>
<!-- 17 -->
<g id="node17" class="node"><title>17</title>
<ellipse fill="none" stroke="black" cx="27" cy="-317" rx="27" ry="18"/>
<text text-anchor="middle" x="27" y="-313.3" font-family="Times,serif" font-size="14.00">5</text>
</g>
<!-- 18 -->
<g id="node18" class="node"><title>18</title>
<ellipse fill="none" stroke="black" cx="117" cy="-317" rx="27" ry="18"/>
<text text-anchor="middle" x="117" y="-313.3" font-family="Times,serif" font-size="14.00">7</text>
</g>
<!-- 17&#45;&#45;18 -->
<g id="edge13" class="edge"><title>17&#45;&#45;18</title>
<path fill="none" stroke="black" d="M54.4029,-317C65.6421,-317 78.7152,-317 89.919,-317"/>
</g>
<!-- 19 -->
<g id="node19" class="node"><title>19</title>
<ellipse fill="none" stroke="black" cx="207" cy="-317" rx="27" ry="18"/>
<text text-anchor="middle" x="207" y="-313.3" font-family="Times,serif" font-size="14.00">9</text>
</g>
<!-- 18&#45;&#45;19 -->
<g id="edge14" class="edge"><title>18&#45;&#45;19</title>
<path fill="none" stroke="black" d="M144.403,-317C155.642,-317 168.715,-317 179.919,-317"/>
</g>
<!-- 20 -->
<g id="node20" class="node"><title>20</title>
<ellipse fill="none" stroke="black" cx="297" cy="-317" rx="27" ry="18"/>
<text text-anchor="middle" x="297" y="-313.3" font-family="Times,serif" font-size="14.00">6</text>
</g>
<!-- 19&#45;&#45;20 -->
<g id="edge15" class="edge"><title>19&#45;&#45;20</title>
<path fill="none" stroke="black" d="M234.403,-317C245.642,-317 258.715,-317 269.919,-317"/>
</g>
<!-- 21 -->
<g id="node21" class="node"><title>21</title>
<ellipse fill="none" stroke="black" cx="27" cy="-371" rx="27" ry="18"/>
<text text-anchor="middle" x="27" y="-367.3" font-family="Times,serif" font-size="14.00">5</text>
</g>
<!-- 22 -->
<g id="node22" class="node"><title>22</title>
<ellipse fill="none" stroke="black" cx="117" cy="-371" rx="27" ry="18"/>
<text text-anchor="middle" x="117" y="-367.3" font-family="Times,serif" font-size="14.00">7</text>
</g>
<!-- 21&#45;&#45;22 -->
<g id="edge16" class="edge"><title>21&#45;&#45;22</title>
<path fill="none" stroke="black" d="M54.4029,-371C65.6421,-371 78.7152,-371 89.919,-371"/>
</g>
<!-- 23 -->
<g id="node23" class="node"><title>23</title>
<ellipse fill="none" stroke="black" cx="207" cy="-371" rx="27" ry="18"/>
<text text-anchor="middle" x="207" y="-367.3" font-family="Times,serif" font-size="14.00">9</text>
</g>
<!-- 22&#45;&#45;23 -->
<g id="edge17" class="edge"><title>22&#45;&#45;23</title>
<path fill="none" stroke="black" d="M144.403,-371C155.642,-371 168.715,-371 179.919,-371"/>
</g>
<!-- 24 -->
<g id="node24" class="node"><title>24</title>
<ellipse fill="none" stroke="black" cx="297" cy="-371" rx="27" ry="18"/>
<text text-anchor="middle" x="297" y="-367.3" font-family="Times,serif" font-size="14.00">4</text>
</g>
<!-- 23&#45;&#45;24 -->
<g id="edge18" class="edge"><title>23&#45;&#45;24</title>
<path fill="none" stroke="black" d="M234.403,-371C245.642,-371 258.715,-371 269.919,-371"/>
</g>
<!-- 25 -->
<g id="node25" class="node"><title>25</title>
<ellipse fill="none" stroke="black" cx="27" cy="-425" rx="27" ry="18"/>
<text text-anchor="middle" x="27" y="-421.3" font-family="Times,serif" font-size="14.00">5</text>
</g>
<!-- 26 -->
<g id="node26" class="node"><title>26</title>
<ellipse fill="none" stroke="black" cx="117" cy="-425" rx="27" ry="18"/>
<text text-anchor="middle" x="117" y="-421.3" font-family="Times,serif" font-size="14.00">7</text>
</g>
<!-- 25&#45;&#45;26 -->
<g id="edge19" class="edge"><title>25&#45;&#45;26</title>
<path fill="none" stroke="black" d="M54.4029,-425C65.6421,-425 78.7152,-425 89.919,-425"/>
</g>
<!-- 27 -->
<g id="node27" class="node"><title>27</title>
<ellipse fill="none" stroke="black" cx="207" cy="-425" rx="27" ry="18"/>
<text text-anchor="middle" x="207" y="-421.3" font-family="Times,serif" font-size="14.00">2</text>
</g>
<!-- 26&#45;&#45;27 -->
<g id="edge20" class="edge"><title>26&#45;&#45;27</title>
<path fill="none" stroke="black" d="M144.403,-425C155.642,-425 168.715,-425 179.919,-425"/>
</g>
<!-- 28 -->
<g id="node28" class="node"><title>28</title>
<ellipse fill="none" stroke="black" cx="297" cy="-425" rx="27" ry="18"/>
<text text-anchor="middle" x="297" y="-421.3" font-family="Times,serif" font-size="14.00">1</text>
</g>
<!-- 27&#45;&#45;28 -->
<g id="edge21" class="edge"><title>27&#45;&#45;28</title>
<path fill="none" stroke="black" d="M234.403,-425C245.642,-425 258.715,-425 269.919,-425"/>
</g>
<!-- 29 -->
<g id="node29" class="node"><title>29</title>
<ellipse fill="none" stroke="black" cx="27" cy="-479" rx="27" ry="18"/>
<text text-anchor="middle" x="27" y="-475.3" font-family="Times,serif" font-size="14.00">5</text>
</g>
<!-- 30 -->
<g id="node30" class="node"><title>30</title>
<ellipse fill="none" stroke="black" cx="117" cy="-479" rx="27" ry="18"/>
<text text-anchor="middle" x="117" y="-475.3" font-family="Times,serif" font-size="14.00">7</text>
</g>
<!-- 29&#45;&#45;30 -->
<g id="edge22" class="edge"><title>29&#45;&#45;30</title>
<path fill="none" stroke="black" d="M54.4029,-479C65.6421,-479 78.7152,-479 89.919,-479"/>
</g>
<!-- 31 -->
<g id="node31" class="node"><title>31</title>
<ellipse fill="none" stroke="black" cx="207" cy="-479" rx="27" ry="18"/>
<text text-anchor="middle" x="207" y="-475.3" font-family="Times,serif" font-size="14.00">2</text>
</g>
<!-- 30&#45;&#45;31 -->
<g id="edge23" class="edge"><title>30&#45;&#45;31</title>
<path fill="none" stroke="black" d="M144.403,-479C155.642,-479 168.715,-479 179.919,-479"/>
</g>
<!-- 32 -->
<g id="node32" class="node"><title>32</title>
<ellipse fill="none" stroke="black" cx="297" cy="-479" rx="27" ry="18"/>
<text text-anchor="middle" x="297" y="-475.3" font-family="Times,serif" font-size="14.00">3</text>
</g>
<!-- 31&#45;&#45;32 -->
<g id="edge24" class="edge"><title>31&#45;&#45;32</title>
<path fill="none" stroke="black" d="M234.403,-479C245.642,-479 258.715,-479 269.919,-479"/>
</g>
<!-- 33 -->
<g id="node33" class="node"><title>33</title>
<ellipse fill="none" stroke="black" cx="27" cy="-533" rx="27" ry="18"/>
<text text-anchor="middle" x="27" y="-529.3" font-family="Times,serif" font-size="14.00">5</text>
</g>
<!-- 34 -->
<g id="node34" class="node"><title>34</title>
<ellipse fill="none" stroke="black" cx="117" cy="-533" rx="27" ry="18"/>
<text text-anchor="middle" x="117" y="-529.3" font-family="Times,serif" font-size="14.00">0</text>
</g>
<!-- 33&#45;&#45;34 -->
<g id="edge25" class="edge"><title>33&#45;&#45;34</title>
<path fill="none" stroke="black" d="M54.4029,-533C65.6421,-533 78.7152,-533 89.919,-533"/>
</g>
<!-- 35 -->
<g id="node35" class="node"><title>35</title>
<ellipse fill="none" stroke="black" cx="207" cy="-533" rx="27" ry="18"/>
<text text-anchor="middle" x="207" y="-529.3" font-family="Times,serif" font-size="14.00">4</text>
</g>
<!-- 34&#45;&#45;35 -->
<g id="edge26" class="edge"><title>34&#45;&#45;35</title>
<path fill="none" stroke="black" d="M144.403,-533C155.642,-533 168.715,-533 179.919,-533"/>
</g>
<!-- 36 -->
<g id="node36" class="node"><title>36</title>
<ellipse fill="none" stroke="black" cx="297" cy="-533" rx="27" ry="18"/>
<text text-anchor="middle" x="297" y="-529.3" font-family="Times,serif" font-size="14.00">9</text>
</g>
<!-- 35&#45;&#45;36 -->
<g id="edge27" class="edge"><title>35&#45;&#45;36</title>
<path fill="none" stroke="black" d="M234.403,-533C245.642,-533 258.715,-533 269.919,-533"/>
</g>
<!-- 37 -->
<g id="node37" class="node"><title>37</title>
<ellipse fill="none" stroke="black" cx="27" cy="-587" rx="27" ry="18"/>
<text text-anchor="middle" x="27" y="-583.3" font-family="Times,serif" font-size="14.00">5</text>
</g>
<!-- 38 -->
<g id="node38" class="node"><title>38</title>
<ellipse fill="none" stroke="black" cx="117" cy="-587" rx="27" ry="18"/>
<text text-anchor="middle" x="117" y="-583.3" font-family="Times,serif" font-size="14.00">0</text>
</g>
<!-- 37&#45;&#45;38 -->
<g id="edge28" class="edge"><title>37&#45;&#45;38</title>
<path fill="none" stroke="black" d="M54.4029,-587C65.6421,-587 78.7152,-587 89.919,-587"/>
</g>
<!-- 39 -->
<g id="node39" class="node"><title>39</title>
<ellipse fill="none" stroke="black" cx="207" cy="-587" rx="27" ry="18"/>
<text text-anchor="middle" x="207" y="-583.3" font-family="Times,serif" font-size="14.00">4</text>
</g>
<!-- 38&#45;&#45;39 -->
<g id="edge29" class="edge"><title>38&#45;&#45;39</title>
<path fill="none" stroke="black" d="M144.403,-587C155.642,-587 168.715,-587 179.919,-587"/>
</g>
<!-- 40 -->
<g id="node40" class="node"><title>40</title>
<ellipse fill="none" stroke="black" cx="297" cy="-587" rx="27" ry="18"/>
<text text-anchor="middle" x="297" y="-583.3" font-family="Times,serif" font-size="14.00">3</text>
</g>
<!-- 39&#45;&#45;40 -->
<g id="edge30" class="edge"><title>39&#45;&#45;40</title>
<path fill="none" stroke="black" d="M234.403,-587C245.642,-587 258.715,-587 269.919,-587"/>
</g>
<!-- 41 -->
<g id="node41" class="node"><title>41</title>
<ellipse fill="none" stroke="black" cx="27" cy="-641" rx="27" ry="18"/>
<text text-anchor="middle" x="27" y="-637.3" font-family="Times,serif" font-size="14.00">5</text>
</g>
<!-- 42 -->
<g id="node42" class="node"><title>42</title>
<ellipse fill="none" stroke="black" cx="117" cy="-641" rx="27" ry="18"/>
<text text-anchor="middle" x="117" y="-637.3" font-family="Times,serif" font-size="14.00">0</text>
</g>
<!-- 41&#45;&#45;42 -->
<g id="edge31" class="edge"><title>41&#45;&#45;42</title>
<path fill="none" stroke="black" d="M54.4029,-641C65.6421,-641 78.7152,-641 89.919,-641"/>
</g>
<!-- 43 -->
<g id="node43" class="node"><title>43</title>
<ellipse fill="none" stroke="black" cx="207" cy="-641" rx="27" ry="18"/>
<text text-anchor="middle" x="207" y="-637.3" font-family="Times,serif" font-size="14.00">1</text>
</g>
<!-- 42&#45;&#45;43 -->
<g id="edge32" class="edge"><title>42&#45;&#45;43</title>
<path fill="none" stroke="black" d="M144.403,-641C155.642,-641 168.715,-641 179.919,-641"/>
</g>
<!-- 44 -->
<g id="node44" class="node"><title>44</title>
<ellipse fill="none" stroke="black" cx="297" cy="-641" rx="27" ry="18"/>
<text text-anchor="middle" x="297" y="-637.3" font-family="Times,serif" font-size="14.00">6</text>
</g>
<!-- 43&#45;&#45;44 -->
<g id="edge33" class="edge"><title>43&#45;&#45;44</title>
<path fill="none" stroke="black" d="M234.403,-641C245.642,-641 258.715,-641 269.919,-641"/>
</g>
<!-- 45 -->
<g id="node45" class="node"><title>45</title>
<ellipse fill="none" stroke="black" cx="27" cy="-695" rx="27" ry="18"/>
<text text-anchor="middle" x="27" y="-691.3" font-family="Times,serif" font-size="14.00">5</text>
</g>
<!-- 46 -->
<g id="node46" class="node"><title>46</title>
<ellipse fill="none" stroke="black" cx="117" cy="-695" rx="27" ry="18"/>
<text text-anchor="middle" x="117" y="-691.3" font-family="Times,serif" font-size="14.00">0</text>
</g>
<!-- 45&#45;&#45;46 -->
<g id="edge34" class="edge"><title>45&#45;&#45;46</title>
<path fill="none" stroke="black" d="M54.4029,-695C65.6421,-695 78.7152,-695 89.919,-695"/>
</g>
<!-- 47 -->
<g id="node47" class="node"><title>47</title>
<ellipse fill="none" stroke="black" cx="207" cy="-695" rx="27" ry="18"/>
<text text-anchor="middle" x="207" y="-691.3" font-family="Times,serif" font-size="14.00">1</text>
</g>
<!-- 46&#45;&#45;47 -->
<g id="edge35" class="edge"><title>46&#45;&#45;47</title>
<path fill="none" stroke="black" d="M144.403,-695C155.642,-695 168.715,-695 179.919,-695"/>
</g>
<!-- 48 -->
<g id="node48" class="node"><title>48</title>
<ellipse fill="none" stroke="black" cx="297" cy="-695" rx="27" ry="18"/>
<text text-anchor="middle" x="297" y="-691.3" font-family="Times,serif" font-size="14.00">2</text>
</g>
<!-- 47&#45;&#45;48 -->
<g id="edge36" class="edge"><title>47&#45;&#45;48</title>
<path fill="none" stroke="black" d="M234.403,-695C245.642,-695 258.715,-695 269.919,-695"/>
</g>
</g>
</svg>
