<?xml version="1.0" encoding="UTF-8" standalone="no"?>
<!DOCTYPE svg PUBLIC "-//W3C//DTD SVG 1.1//EN"
 "http://www.w3.org/Graphics/SVG/1.1/DTD/svg11.dtd">
<!-- Generated by graphviz version 2.38.0 (20140413.2041)
 -->
<!-- Title: path_03 Pages: 1 -->
<svg width="332pt" height="44pt"
 viewBox="0.00 0.00 332.00 44.00" xmlns="http://www.w3.org/2000/svg" xmlns:xlink="http://www.w3.org/1999/xlink">
<g id="graph0" class="graph" transform="scale(1 1) rotate(0) translate(4 40)">
<title>path_03</title>
<polygon fill="white" stroke="none" points="-4,4 -4,-40 328,-40 328,4 -4,4"/>
<!-- A -->
<g id="node1" class="node"><title>A</title>
<ellipse fill="none" stroke="red" cx="27" cy="-18" rx="27" ry="18"/>
<text text-anchor="middle" x="27" y="-14.3" font-family="Times,serif" font-size="14.00">A</text>
</g>
<!-- B -->
<g id="node2" class="node"><title>B</title>
<ellipse fill="none" stroke="green" cx="117" cy="-18" rx="27" ry="18"/>
<text text-anchor="middle" x="117" y="-14.3" font-family="Times,serif" font-size="14.00">B</text>
</g>
<!-- A&#45;&gt;B -->
<g id="edge1" class="edge"><title>A&#45;&gt;B</title>
<path fill="none" stroke="black" d="M52.5129,-11.8766C61.4017,-11.266 71.6201,-11.1016 81.2245,-11.3836"/>
<polygon fill="black" stroke="black" points="81.1579,-14.8843 91.3133,-11.8648 81.4915,-7.89227 81.1579,-14.8843"/>
</g>
<!-- A&#45;&gt;B -->
<g id="edge4" class="edge"><title>A&#45;&gt;B</title>
<path fill="none" stroke="black" d="M52.5129,-24.1234C61.4017,-24.734 71.6201,-24.8984 81.2245,-24.6164"/>
<polygon fill="black" stroke="black" points="81.4915,-28.1077 91.3133,-24.1352 81.1579,-21.1157 81.4915,-28.1077"/>
</g>
<!-- C -->
<g id="node3" class="node"><title>C</title>
<ellipse fill="none" stroke="blue" cx="207" cy="-18" rx="27" ry="18"/>
<text text-anchor="middle" x="207" y="-14.3" font-family="Times,serif" font-size="14.00">C</text>
</g>
<!-- B&#45;&gt;C -->
<g id="edge2" class="edge"><title>B&#45;&gt;C</title>
<path fill="none" stroke="black" d="M142.513,-11.8766C151.402,-11.266 161.62,-11.1016 171.224,-11.3836"/>
<polygon fill="black" stroke="black" points="171.158,-14.8843 181.313,-11.8648 171.491,-7.89227 171.158,-14.8843"/>
</g>
<!-- B&#45;&gt;C -->
<g id="edge5" class="edge"><title>B&#45;&gt;C</title>
<path fill="none" stroke="black" d="M142.513,-24.1234C151.402,-24.734 161.62,-24.8984 171.224,-24.6164"/>
<polygon fill="black" stroke="black" points="171.491,-28.1077 181.313,-24.1352 171.158,-21.1157 171.491,-28.1077"/>
</g>
<!-- D -->
<g id="node4" class="node"><title>D</title>
<ellipse fill="none" stroke="magenta" cx="297" cy="-18" rx="27" ry="18"/>
<text text-anchor="middle" x="297" y="-14.3" font-family="Times,serif" font-size="14.00">D</text>
</g>
<!-- C&#45;&gt;D -->
<g id="edge3" class="edge"><title>C&#45;&gt;D</title>
<path fill="none" stroke="black" d="M232.513,-11.8766C241.402,-11.266 251.62,-11.1016 261.224,-11.3836"/>
<polygon fill="black" stroke="black" points="261.158,-14.8843 271.313,-11.8648 261.491,-7.89227 261.158,-14.8843"/>
</g>
<!-- C&#45;&gt;D -->
<g id="edge6" class="edge"><title>C&#45;&gt;D</title>
<path fill="none" stroke="black" d="M232.513,-24.1234C241.402,-24.734 251.62,-24.8984 261.224,-24.6164"/>
<polygon fill="black" stroke="black" points="261.491,-28.1077 271.313,-24.1352 261.158,-21.1157 261.491,-28.1077"/>
</g>
</g>
</svg>
