<?xml version="1.0" encoding="UTF-8" standalone="no"?>
<!DOCTYPE svg PUBLIC "-//W3C//DTD SVG 1.1//EN"
 "http://www.w3.org/Graphics/SVG/1.1/DTD/svg11.dtd">
<!-- Generated by graphviz version 2.38.0 (20140413.2041)
 -->
<!-- Title: fixed_length_paths Pages: 1 -->
<svg width="332pt" height="505pt"
 viewBox="0.00 0.00 332.00 505.00" xmlns="http://www.w3.org/2000/svg" xmlns:xlink="http://www.w3.org/1999/xlink">
<g id="graph0" class="graph" transform="scale(1 1) rotate(0) translate(4 501)">
<title>fixed_length_paths</title>
<polygon fill="white" stroke="none" points="-4,4 -4,-501 328,-501 328,4 -4,4"/>
<text text-anchor="middle" x="162" y="-67.8" font-family="Times,serif" font-size="14.00">Input file: fixed.length.paths.in.03.gv</text>
<text text-anchor="middle" x="162" y="-52.8" font-family="Times,serif" font-size="14.00">Starting node: A</text>
<text text-anchor="middle" x="162" y="-37.8" font-family="Times,serif" font-size="14.00">Path length: 3</text>
<text text-anchor="middle" x="162" y="-22.8" font-family="Times,serif" font-size="14.00">Allow cycles: 0</text>
<text text-anchor="middle" x="162" y="-7.8" font-family="Times,serif" font-size="14.00">Paths: 8</text>
<!-- 1 -->
<g id="node1" class="node"><title>1</title>
<ellipse fill="none" stroke="black" cx="27" cy="-101" rx="27" ry="18"/>
<text text-anchor="middle" x="27" y="-97.3" font-family="Times,serif" font-size="14.00">A</text>
</g>
<!-- 2 -->
<g id="node2" class="node"><title>2</title>
<ellipse fill="none" stroke="black" cx="117" cy="-101" rx="27" ry="18"/>
<text text-anchor="middle" x="117" y="-97.3" font-family="Times,serif" font-size="14.00">B</text>
</g>
<!-- 1&#45;&gt;2 -->
<g id="edge1" class="edge"><title>1&#45;&gt;2</title>
<path fill="none" stroke="black" d="M54.4029,-101C62.3932,-101 71.3106,-101 79.8241,-101"/>
<polygon fill="black" stroke="black" points="79.919,-104.5 89.919,-101 79.919,-97.5001 79.919,-104.5"/>
</g>
<!-- 3 -->
<g id="node3" class="node"><title>3</title>
<ellipse fill="none" stroke="black" cx="207" cy="-101" rx="27" ry="18"/>
<text text-anchor="middle" x="207" y="-97.3" font-family="Times,serif" font-size="14.00">C</text>
</g>
<!-- 2&#45;&gt;3 -->
<g id="edge2" class="edge"><title>2&#45;&gt;3</title>
<path fill="none" stroke="black" d="M144.403,-101C152.393,-101 161.311,-101 169.824,-101"/>
<polygon fill="black" stroke="black" points="169.919,-104.5 179.919,-101 169.919,-97.5001 169.919,-104.5"/>
</g>
<!-- 4 -->
<g id="node4" class="node"><title>4</title>
<ellipse fill="none" stroke="black" cx="297" cy="-101" rx="27" ry="18"/>
<text text-anchor="middle" x="297" y="-97.3" font-family="Times,serif" font-size="14.00">D</text>
</g>
<!-- 3&#45;&gt;4 -->
<g id="edge3" class="edge"><title>3&#45;&gt;4</title>
<path fill="none" stroke="black" d="M234.403,-101C242.393,-101 251.311,-101 259.824,-101"/>
<polygon fill="black" stroke="black" points="259.919,-104.5 269.919,-101 259.919,-97.5001 259.919,-104.5"/>
</g>
<!-- 5 -->
<g id="node5" class="node"><title>5</title>
<ellipse fill="none" stroke="black" cx="27" cy="-155" rx="27" ry="18"/>
<text text-anchor="middle" x="27" y="-151.3" font-family="Times,serif" font-size="14.00">A</text>
</g>
<!-- 6 -->
<g id="node6" class="node"><title>6</title>
<ellipse fill="none" stroke="black" cx="117" cy="-155" rx="27" ry="18"/>
<text text-anchor="middle" x="117" y="-151.3" font-family="Times,serif" font-size="14.00">B</text>
</g>
<!-- 5&#45;&gt;6 -->
<g id="edge4" class="edge"><title>5&#45;&gt;6</title>
<path fill="none" stroke="black" d="M54.4029,-155C62.3932,-155 71.3106,-155 79.8241,-155"/>
<polygon fill="black" stroke="black" points="79.919,-158.5 89.919,-155 79.919,-151.5 79.919,-158.5"/>
</g>
<!-- 7 -->
<g id="node7" class="node"><title>7</title>
<ellipse fill="none" stroke="black" cx="207" cy="-155" rx="27" ry="18"/>
<text text-anchor="middle" x="207" y="-151.3" font-family="Times,serif" font-size="14.00">C</text>
</g>
<!-- 6&#45;&gt;7 -->
<g id="edge5" class="edge"><title>6&#45;&gt;7</title>
<path fill="none" stroke="black" d="M144.403,-155C152.393,-155 161.311,-155 169.824,-155"/>
<polygon fill="black" stroke="black" points="169.919,-158.5 179.919,-155 169.919,-151.5 169.919,-158.5"/>
</g>
<!-- 8 -->
<g id="node8" class="node"><title>8</title>
<ellipse fill="none" stroke="black" cx="297" cy="-155" rx="27" ry="18"/>
<text text-anchor="middle" x="297" y="-151.3" font-family="Times,serif" font-size="14.00">D</text>
</g>
<!-- 7&#45;&gt;8 -->
<g id="edge6" class="edge"><title>7&#45;&gt;8</title>
<path fill="none" stroke="black" d="M234.403,-155C242.393,-155 251.311,-155 259.824,-155"/>
<polygon fill="black" stroke="black" points="259.919,-158.5 269.919,-155 259.919,-151.5 259.919,-158.5"/>
</g>
<!-- 9 -->
<g id="node9" class="node"><title>9</title>
<ellipse fill="none" stroke="black" cx="27" cy="-209" rx="27" ry="18"/>
<text text-anchor="middle" x="27" y="-205.3" font-family="Times,serif" font-size="14.00">A</text>
</g>
<!-- 10 -->
<g id="node10" class="node"><title>10</title>
<ellipse fill="none" stroke="black" cx="117" cy="-209" rx="27" ry="18"/>
<text text-anchor="middle" x="117" y="-205.3" font-family="Times,serif" font-size="14.00">B</text>
</g>
<!-- 9&#45;&gt;10 -->
<g id="edge7" class="edge"><title>9&#45;&gt;10</title>
<path fill="none" stroke="black" d="M54.4029,-209C62.3932,-209 71.3106,-209 79.8241,-209"/>
<polygon fill="black" stroke="black" points="79.919,-212.5 89.919,-209 79.919,-205.5 79.919,-212.5"/>
</g>
<!-- 11 -->
<g id="node11" class="node"><title>11</title>
<ellipse fill="none" stroke="black" cx="207" cy="-209" rx="27" ry="18"/>
<text text-anchor="middle" x="207" y="-205.3" font-family="Times,serif" font-size="14.00">C</text>
</g>
<!-- 10&#45;&gt;11 -->
<g id="edge8" class="edge"><title>10&#45;&gt;11</title>
<path fill="none" stroke="black" d="M144.403,-209C152.393,-209 161.311,-209 169.824,-209"/>
<polygon fill="black" stroke="black" points="169.919,-212.5 179.919,-209 169.919,-205.5 169.919,-212.5"/>
</g>
<!-- 12 -->
<g id="node12" class="node"><title>12</title>
<ellipse fill="none" stroke="black" cx="297" cy="-209" rx="27" ry="18"/>
<text text-anchor="middle" x="297" y="-205.3" font-family="Times,serif" font-size="14.00">D</text>
</g>
<!-- 11&#45;&gt;12 -->
<g id="edge9" class="edge"><title>11&#45;&gt;12</title>
<path fill="none" stroke="black" d="M234.403,-209C242.393,-209 251.311,-209 259.824,-209"/>
<polygon fill="black" stroke="black" points="259.919,-212.5 269.919,-209 259.919,-205.5 259.919,-212.5"/>
</g>
<!-- 13 -->
<g id="node13" class="node"><title>13</title>
<ellipse fill="none" stroke="black" cx="27" cy="-263" rx="27" ry="18"/>
<text text-anchor="middle" x="27" y="-259.3" font-family="Times,serif" font-size="14.00">A</text>
</g>
<!-- 14 -->
<g id="node14" class="node"><title>14</title>
<ellipse fill="none" stroke="black" cx="117" cy="-263" rx="27" ry="18"/>
<text text-anchor="middle" x="117" y="-259.3" font-family="Times,serif" font-size="14.00">B</text>
</g>
<!-- 13&#45;&gt;14 -->
<g id="edge10" class="edge"><title>13&#45;&gt;14</title>
<path fill="none" stroke="black" d="M54.4029,-263C62.3932,-263 71.3106,-263 79.8241,-263"/>
<polygon fill="black" stroke="black" points="79.919,-266.5 89.919,-263 79.919,-259.5 79.919,-266.5"/>
</g>
<!-- 15 -->
<g id="node15" class="node"><title>15</title>
<ellipse fill="none" stroke="black" cx="207" cy="-263" rx="27" ry="18"/>
<text text-anchor="middle" x="207" y="-259.3" font-family="Times,serif" font-size="14.00">C</text>
</g>
<!-- 14&#45;&gt;15 -->
<g id="edge11" class="edge"><title>14&#45;&gt;15</title>
<path fill="none" stroke="black" d="M144.403,-263C152.393,-263 161.311,-263 169.824,-263"/>
<polygon fill="black" stroke="black" points="169.919,-266.5 179.919,-263 169.919,-259.5 169.919,-266.5"/>
</g>
<!-- 16 -->
<g id="node16" class="node"><title>16</title>
<ellipse fill="none" stroke="black" cx="297" cy="-263" rx="27" ry="18"/>
<text text-anchor="middle" x="297" y="-259.3" font-family="Times,serif" font-size="14.00">D</text>
</g>
<!-- 15&#45;&gt;16 -->
<g id="edge12" class="edge"><title>15&#45;&gt;16</title>
<path fill="none" stroke="black" d="M234.403,-263C242.393,-263 251.311,-263 259.824,-263"/>
<polygon fill="black" stroke="black" points="259.919,-266.5 269.919,-263 259.919,-259.5 259.919,-266.5"/>
</g>
<!-- 17 -->
<g id="node17" class="node"><title>17</title>
<ellipse fill="none" stroke="black" cx="27" cy="-317" rx="27" ry="18"/>
<text text-anchor="middle" x="27" y="-313.3" font-family="Times,serif" font-size="14.00">A</text>
</g>
<!-- 18 -->
<g id="node18" class="node"><title>18</title>
<ellipse fill="none" stroke="black" cx="117" cy="-317" rx="27" ry="18"/>
<text text-anchor="middle" x="117" y="-313.3" font-family="Times,serif" font-size="14.00">B</text>
</g>
<!-- 17&#45;&gt;18 -->
<g id="edge13" class="edge"><title>17&#45;&gt;18</title>
<path fill="none" stroke="black" d="M54.4029,-317C62.3932,-317 71.3106,-317 79.8241,-317"/>
<polygon fill="black" stroke="black" points="79.919,-320.5 89.919,-317 79.919,-313.5 79.919,-320.5"/>
</g>
<!-- 19 -->
<g id="node19" class="node"><title>19</title>
<ellipse fill="none" stroke="black" cx="207" cy="-317" rx="27" ry="18"/>
<text text-anchor="middle" x="207" y="-313.3" font-family="Times,serif" font-size="14.00">C</text>
</g>
<!-- 18&#45;&gt;19 -->
<g id="edge14" class="edge"><title>18&#45;&gt;19</title>
<path fill="none" stroke="black" d="M144.403,-317C152.393,-317 161.311,-317 169.824,-317"/>
<polygon fill="black" stroke="black" points="169.919,-320.5 179.919,-317 169.919,-313.5 169.919,-320.5"/>
</g>
<!-- 20 -->
<g id="node20" class="node"><title>20</title>
<ellipse fill="none" stroke="black" cx="297" cy="-317" rx="27" ry="18"/>
<text text-anchor="middle" x="297" y="-313.3" font-family="Times,serif" font-size="14.00">D</text>
</g>
<!-- 19&#45;&gt;20 -->
<g id="edge15" class="edge"><title>19&#45;&gt;20</title>
<path fill="none" stroke="black" d="M234.403,-317C242.393,-317 251.311,-317 259.824,-317"/>
<polygon fill="black" stroke="black" points="259.919,-320.5 269.919,-317 259.919,-313.5 259.919,-320.5"/>
</g>
<!-- 21 -->
<g id="node21" class="node"><title>21</title>
<ellipse fill="none" stroke="black" cx="27" cy="-371" rx="27" ry="18"/>
<text text-anchor="middle" x="27" y="-367.3" font-family="Times,serif" font-size="14.00">A</text>
</g>
<!-- 22 -->
<g id="node22" class="node"><title>22</title>
<ellipse fill="none" stroke="black" cx="117" cy="-371" rx="27" ry="18"/>
<text text-anchor="middle" x="117" y="-367.3" font-family="Times,serif" font-size="14.00">B</text>
</g>
<!-- 21&#45;&gt;22 -->
<g id="edge16" class="edge"><title>21&#45;&gt;22</title>
<path fill="none" stroke="black" d="M54.4029,-371C62.3932,-371 71.3106,-371 79.8241,-371"/>
<polygon fill="black" stroke="black" points="79.919,-374.5 89.919,-371 79.919,-367.5 79.919,-374.5"/>
</g>
<!-- 23 -->
<g id="node23" class="node"><title>23</title>
<ellipse fill="none" stroke="black" cx="207" cy="-371" rx="27" ry="18"/>
<text text-anchor="middle" x="207" y="-367.3" font-family="Times,serif" font-size="14.00">C</text>
</g>
<!-- 22&#45;&gt;23 -->
<g id="edge17" class="edge"><title>22&#45;&gt;23</title>
<path fill="none" stroke="black" d="M144.403,-371C152.393,-371 161.311,-371 169.824,-371"/>
<polygon fill="black" stroke="black" points="169.919,-374.5 179.919,-371 169.919,-367.5 169.919,-374.5"/>
</g>
<!-- 24 -->
<g id="node24" class="node"><title>24</title>
<ellipse fill="none" stroke="black" cx="297" cy="-371" rx="27" ry="18"/>
<text text-anchor="middle" x="297" y="-367.3" font-family="Times,serif" font-size="14.00">D</text>
</g>
<!-- 23&#45;&gt;24 -->
<g id="edge18" class="edge"><title>23&#45;&gt;24</title>
<path fill="none" stroke="black" d="M234.403,-371C242.393,-371 251.311,-371 259.824,-371"/>
<polygon fill="black" stroke="black" points="259.919,-374.5 269.919,-371 259.919,-367.5 259.919,-374.5"/>
</g>
<!-- 25 -->
<g id="node25" class="node"><title>25</title>
<ellipse fill="none" stroke="black" cx="27" cy="-425" rx="27" ry="18"/>
<text text-anchor="middle" x="27" y="-421.3" font-family="Times,serif" font-size="14.00">A</text>
</g>
<!-- 26 -->
<g id="node26" class="node"><title>26</title>
<ellipse fill="none" stroke="black" cx="117" cy="-425" rx="27" ry="18"/>
<text text-anchor="middle" x="117" y="-421.3" font-family="Times,serif" font-size="14.00">B</text>
</g>
<!-- 25&#45;&gt;26 -->
<g id="edge19" class="edge"><title>25&#45;&gt;26</title>
<path fill="none" stroke="black" d="M54.4029,-425C62.3932,-425 71.3106,-425 79.8241,-425"/>
<polygon fill="black" stroke="black" points="79.919,-428.5 89.919,-425 79.919,-421.5 79.919,-428.5"/>
</g>
<!-- 27 -->
<g id="node27" class="node"><title>27</title>
<ellipse fill="none" stroke="black" cx="207" cy="-425" rx="27" ry="18"/>
<text text-anchor="middle" x="207" y="-421.3" font-family="Times,serif" font-size="14.00">C</text>
</g>
<!-- 26&#45;&gt;27 -->
<g id="edge20" class="edge"><title>26&#45;&gt;27</title>
<path fill="none" stroke="black" d="M144.403,-425C152.393,-425 161.311,-425 169.824,-425"/>
<polygon fill="black" stroke="black" points="169.919,-428.5 179.919,-425 169.919,-421.5 169.919,-428.5"/>
</g>
<!-- 28 -->
<g id="node28" class="node"><title>28</title>
<ellipse fill="none" stroke="black" cx="297" cy="-425" rx="27" ry="18"/>
<text text-anchor="middle" x="297" y="-421.3" font-family="Times,serif" font-size="14.00">D</text>
</g>
<!-- 27&#45;&gt;28 -->
<g id="edge21" class="edge"><title>27&#45;&gt;28</title>
<path fill="none" stroke="black" d="M234.403,-425C242.393,-425 251.311,-425 259.824,-425"/>
<polygon fill="black" stroke="black" points="259.919,-428.5 269.919,-425 259.919,-421.5 259.919,-428.5"/>
</g>
<!-- 29 -->
<g id="node29" class="node"><title>29</title>
<ellipse fill="none" stroke="black" cx="27" cy="-479" rx="27" ry="18"/>
<text text-anchor="middle" x="27" y="-475.3" font-family="Times,serif" font-size="14.00">A</text>
</g>
<!-- 30 -->
<g id="node30" class="node"><title>30</title>
<ellipse fill="none" stroke="black" cx="117" cy="-479" rx="27" ry="18"/>
<text text-anchor="middle" x="117" y="-475.3" font-family="Times,serif" font-size="14.00">B</text>
</g>
<!-- 29&#45;&gt;30 -->
<g id="edge22" class="edge"><title>29&#45;&gt;30</title>
<path fill="none" stroke="black" d="M54.4029,-479C62.3932,-479 71.3106,-479 79.8241,-479"/>
<polygon fill="black" stroke="black" points="79.919,-482.5 89.919,-479 79.919,-475.5 79.919,-482.5"/>
</g>
<!-- 31 -->
<g id="node31" class="node"><title>31</title>
<ellipse fill="none" stroke="black" cx="207" cy="-479" rx="27" ry="18"/>
<text text-anchor="middle" x="207" y="-475.3" font-family="Times,serif" font-size="14.00">C</text>
</g>
<!-- 30&#45;&gt;31 -->
<g id="edge23" class="edge"><title>30&#45;&gt;31</title>
<path fill="none" stroke="black" d="M144.403,-479C152.393,-479 161.311,-479 169.824,-479"/>
<polygon fill="black" stroke="black" points="169.919,-482.5 179.919,-479 169.919,-475.5 169.919,-482.5"/>
</g>
<!-- 32 -->
<g id="node32" class="node"><title>32</title>
<ellipse fill="none" stroke="black" cx="297" cy="-479" rx="27" ry="18"/>
<text text-anchor="middle" x="297" y="-475.3" font-family="Times,serif" font-size="14.00">D</text>
</g>
<!-- 31&#45;&gt;32 -->
<g id="edge24" class="edge"><title>31&#45;&gt;32</title>
<path fill="none" stroke="black" d="M234.403,-479C242.393,-479 251.311,-479 259.824,-479"/>
<polygon fill="black" stroke="black" points="259.919,-482.5 269.919,-479 259.919,-475.5 259.919,-482.5"/>
</g>
</g>
</svg>
