<?xml version="1.0" encoding="UTF-8" standalone="no"?>
<!DOCTYPE svg PUBLIC "-//W3C//DTD SVG 1.1//EN"
 "http://www.w3.org/Graphics/SVG/1.1/DTD/svg11.dtd">
<!-- Generated by graphviz version 2.38.0 (20140413.2041)
 -->
<!-- Title: fixed_length_paths Pages: 1 -->
<svg width="548pt" height="127pt"
 viewBox="0.00 0.00 547.56 127.00" xmlns="http://www.w3.org/2000/svg" xmlns:xlink="http://www.w3.org/1999/xlink">
<g id="graph0" class="graph" transform="scale(1 1) rotate(0) translate(4 123)">
<title>fixed_length_paths</title>
<polygon fill="white" stroke="none" points="-4,4 -4,-123 543.562,-123 543.562,4 -4,4"/>
<text text-anchor="middle" x="269.781" y="-67.8" font-family="Times,serif" font-size="14.00">Input file: fixed.length.paths.in.04.gv</text>
<text text-anchor="middle" x="269.781" y="-52.8" font-family="Times,serif" font-size="14.00">Starting node: node_10_01</text>
<text text-anchor="middle" x="269.781" y="-37.8" font-family="Times,serif" font-size="14.00">Path length: 3</text>
<text text-anchor="middle" x="269.781" y="-22.8" font-family="Times,serif" font-size="14.00">Allow cycles: 0</text>
<text text-anchor="middle" x="269.781" y="-7.8" font-family="Times,serif" font-size="14.00">Paths: 1</text>
<!-- 1 -->
<g id="node1" class="node"><title>1</title>
<ellipse fill="none" stroke="black" cx="53.9452" cy="-101" rx="53.8905" ry="18"/>
<text text-anchor="middle" x="53.9452" y="-97.3" font-family="Times,serif" font-size="14.00">node_10_01</text>
</g>
<!-- 2 -->
<g id="node2" class="node"><title>2</title>
<ellipse fill="none" stroke="black" cx="197.836" cy="-101" rx="53.8905" ry="18"/>
<text text-anchor="middle" x="197.836" y="-97.3" font-family="Times,serif" font-size="14.00">node_10_02</text>
</g>
<!-- 1&#45;&gt;2 -->
<g id="edge1" class="edge"><title>1&#45;&gt;2</title>
<path fill="none" stroke="black" d="M108.184,-101C116.458,-101 125.075,-101 133.545,-101"/>
<polygon fill="black" stroke="black" points="133.771,-104.5 143.771,-101 133.771,-97.5001 133.771,-104.5"/>
</g>
<!-- 3 -->
<g id="node3" class="node"><title>3</title>
<ellipse fill="none" stroke="black" cx="341.726" cy="-101" rx="53.8905" ry="18"/>
<text text-anchor="middle" x="341.726" y="-97.3" font-family="Times,serif" font-size="14.00">node_10_03</text>
</g>
<!-- 2&#45;&gt;3 -->
<g id="edge2" class="edge"><title>2&#45;&gt;3</title>
<path fill="none" stroke="black" d="M252.074,-101C260.348,-101 268.965,-101 277.436,-101"/>
<polygon fill="black" stroke="black" points="277.661,-104.5 287.661,-101 277.661,-97.5001 277.661,-104.5"/>
</g>
<!-- 4 -->
<g id="node4" class="node"><title>4</title>
<ellipse fill="none" stroke="black" cx="485.616" cy="-101" rx="53.8905" ry="18"/>
<text text-anchor="middle" x="485.616" y="-97.3" font-family="Times,serif" font-size="14.00">node_10_04</text>
</g>
<!-- 3&#45;&gt;4 -->
<g id="edge3" class="edge"><title>3&#45;&gt;4</title>
<path fill="none" stroke="black" d="M395.965,-101C404.239,-101 412.856,-101 421.326,-101"/>
<polygon fill="black" stroke="black" points="421.552,-104.5 431.552,-101 421.552,-97.5001 421.552,-104.5"/>
</g>
</g>
</svg>
