<?xml version="1.0" encoding="UTF-8" standalone="no"?>
<!DOCTYPE svg PUBLIC "-//W3C//DTD SVG 1.1//EN"
 "http://www.w3.org/Graphics/SVG/1.1/DTD/svg11.dtd">
<!-- Generated by graphviz version 2.38.0 (20140413.2041)
 -->
<!-- Title: fixed_length_paths Pages: 1 -->
<svg width="399pt" height="289pt"
 viewBox="0.00 0.00 399.37 289.00" xmlns="http://www.w3.org/2000/svg" xmlns:xlink="http://www.w3.org/1999/xlink">
<g id="graph0" class="graph" transform="scale(1 1) rotate(0) translate(4 285)">
<title>fixed_length_paths</title>
<polygon fill="white" stroke="none" points="-4,4 -4,-285 395.375,-285 395.375,4 -4,4"/>
<text text-anchor="middle" x="195.687" y="-67.8" font-family="Times,serif" font-size="14.00">Input file: fixed.length.paths.in.01.gv</text>
<text text-anchor="middle" x="195.687" y="-52.8" font-family="Times,serif" font-size="14.00">Starting node: Act_1</text>
<text text-anchor="middle" x="195.687" y="-37.8" font-family="Times,serif" font-size="14.00">Path length: 3</text>
<text text-anchor="middle" x="195.687" y="-22.8" font-family="Times,serif" font-size="14.00">Allow cycles: 0</text>
<text text-anchor="middle" x="195.687" y="-7.8" font-family="Times,serif" font-size="14.00">Paths: 4</text>
<!-- 1 -->
<g id="node1" class="node"><title>1</title>
<ellipse fill="none" stroke="black" cx="32.4971" cy="-101" rx="32.4942" ry="18"/>
<text text-anchor="middle" x="32.4971" y="-97.3" font-family="Times,serif" font-size="14.00">Act_1</text>
</g>
<!-- 2 -->
<g id="node2" class="node"><title>2</title>
<ellipse fill="none" stroke="black" cx="137.391" cy="-101" rx="36.2938" ry="18"/>
<text text-anchor="middle" x="137.391" y="-97.3" font-family="Times,serif" font-size="14.00">Act_23</text>
</g>
<!-- 1&#45;&gt;2 -->
<g id="edge1" class="edge"><title>1&#45;&gt;2</title>
<path fill="none" stroke="black" d="M65.2083,-101C73.1844,-101 81.9065,-101 90.4257,-101"/>
<polygon fill="black" stroke="black" points="90.6531,-104.5 100.653,-101 90.653,-97.5001 90.6531,-104.5"/>
</g>
<!-- 3 -->
<g id="node3" class="node"><title>3</title>
<ellipse fill="none" stroke="black" cx="246.185" cy="-101" rx="36.2938" ry="18"/>
<text text-anchor="middle" x="246.185" y="-97.3" font-family="Times,serif" font-size="14.00">Act_25</text>
</g>
<!-- 2&#45;&gt;3 -->
<g id="edge2" class="edge"><title>2&#45;&gt;3</title>
<path fill="none" stroke="black" d="M173.952,-101C182.148,-101 190.977,-101 199.535,-101"/>
<polygon fill="black" stroke="black" points="199.779,-104.5 209.779,-101 199.779,-97.5001 199.779,-104.5"/>
</g>
<!-- 4 -->
<g id="node4" class="node"><title>4</title>
<ellipse fill="none" stroke="black" cx="354.978" cy="-101" rx="32.4942" ry="18"/>
<text text-anchor="middle" x="354.978" y="-97.3" font-family="Times,serif" font-size="14.00">Act_3</text>
</g>
<!-- 3&#45;&gt;4 -->
<g id="edge3" class="edge"><title>3&#45;&gt;4</title>
<path fill="none" stroke="black" d="M282.745,-101C292.103,-101 302.286,-101 311.948,-101"/>
<polygon fill="black" stroke="black" points="312.165,-104.5 322.165,-101 312.165,-97.5001 312.165,-104.5"/>
</g>
<!-- 5 -->
<g id="node5" class="node"><title>5</title>
<ellipse fill="none" stroke="black" cx="32.4971" cy="-155" rx="32.4942" ry="18"/>
<text text-anchor="middle" x="32.4971" y="-151.3" font-family="Times,serif" font-size="14.00">Act_1</text>
</g>
<!-- 6 -->
<g id="node6" class="node"><title>6</title>
<ellipse fill="none" stroke="black" cx="137.391" cy="-155" rx="36.2938" ry="18"/>
<text text-anchor="middle" x="137.391" y="-151.3" font-family="Times,serif" font-size="14.00">Act_23</text>
</g>
<!-- 5&#45;&gt;6 -->
<g id="edge4" class="edge"><title>5&#45;&gt;6</title>
<path fill="none" stroke="black" d="M65.2083,-155C73.1844,-155 81.9065,-155 90.4257,-155"/>
<polygon fill="black" stroke="black" points="90.6531,-158.5 100.653,-155 90.653,-151.5 90.6531,-158.5"/>
</g>
<!-- 7 -->
<g id="node7" class="node"><title>7</title>
<ellipse fill="none" stroke="black" cx="246.185" cy="-155" rx="36.2938" ry="18"/>
<text text-anchor="middle" x="246.185" y="-151.3" font-family="Times,serif" font-size="14.00">Act_24</text>
</g>
<!-- 6&#45;&gt;7 -->
<g id="edge5" class="edge"><title>6&#45;&gt;7</title>
<path fill="none" stroke="black" d="M173.952,-155C182.148,-155 190.977,-155 199.535,-155"/>
<polygon fill="black" stroke="black" points="199.779,-158.5 209.779,-155 199.779,-151.5 199.779,-158.5"/>
</g>
<!-- 8 -->
<g id="node8" class="node"><title>8</title>
<ellipse fill="none" stroke="black" cx="354.978" cy="-155" rx="36.2938" ry="18"/>
<text text-anchor="middle" x="354.978" y="-151.3" font-family="Times,serif" font-size="14.00">Act_25</text>
</g>
<!-- 7&#45;&gt;8 -->
<g id="edge6" class="edge"><title>7&#45;&gt;8</title>
<path fill="none" stroke="black" d="M282.745,-155C290.941,-155 299.771,-155 308.329,-155"/>
<polygon fill="black" stroke="black" points="308.573,-158.5 318.573,-155 308.573,-151.5 308.573,-158.5"/>
</g>
<!-- 9 -->
<g id="node9" class="node"><title>9</title>
<ellipse fill="none" stroke="black" cx="32.4971" cy="-209" rx="32.4942" ry="18"/>
<text text-anchor="middle" x="32.4971" y="-205.3" font-family="Times,serif" font-size="14.00">Act_1</text>
</g>
<!-- 10 -->
<g id="node10" class="node"><title>10</title>
<ellipse fill="none" stroke="black" cx="137.391" cy="-209" rx="36.2938" ry="18"/>
<text text-anchor="middle" x="137.391" y="-205.3" font-family="Times,serif" font-size="14.00">Act_21</text>
</g>
<!-- 9&#45;&gt;10 -->
<g id="edge7" class="edge"><title>9&#45;&gt;10</title>
<path fill="none" stroke="black" d="M65.2083,-209C73.1844,-209 81.9065,-209 90.4257,-209"/>
<polygon fill="black" stroke="black" points="90.6531,-212.5 100.653,-209 90.653,-205.5 90.6531,-212.5"/>
</g>
<!-- 11 -->
<g id="node11" class="node"><title>11</title>
<ellipse fill="none" stroke="black" cx="246.185" cy="-209" rx="36.2938" ry="18"/>
<text text-anchor="middle" x="246.185" y="-205.3" font-family="Times,serif" font-size="14.00">Act_22</text>
</g>
<!-- 10&#45;&gt;11 -->
<g id="edge8" class="edge"><title>10&#45;&gt;11</title>
<path fill="none" stroke="black" d="M173.952,-209C182.148,-209 190.977,-209 199.535,-209"/>
<polygon fill="black" stroke="black" points="199.779,-212.5 209.779,-209 199.779,-205.5 199.779,-212.5"/>
</g>
<!-- 12 -->
<g id="node12" class="node"><title>12</title>
<ellipse fill="none" stroke="black" cx="354.978" cy="-209" rx="36.2938" ry="18"/>
<text text-anchor="middle" x="354.978" y="-205.3" font-family="Times,serif" font-size="14.00">Act_24</text>
</g>
<!-- 11&#45;&gt;12 -->
<g id="edge9" class="edge"><title>11&#45;&gt;12</title>
<path fill="none" stroke="black" d="M282.745,-209C290.941,-209 299.771,-209 308.329,-209"/>
<polygon fill="black" stroke="black" points="308.573,-212.5 318.573,-209 308.573,-205.5 308.573,-212.5"/>
</g>
<!-- 13 -->
<g id="node13" class="node"><title>13</title>
<ellipse fill="none" stroke="black" cx="32.4971" cy="-263" rx="32.4942" ry="18"/>
<text text-anchor="middle" x="32.4971" y="-259.3" font-family="Times,serif" font-size="14.00">Act_1</text>
</g>
<!-- 14 -->
<g id="node14" class="node"><title>14</title>
<ellipse fill="none" stroke="black" cx="137.391" cy="-263" rx="36.2938" ry="18"/>
<text text-anchor="middle" x="137.391" y="-259.3" font-family="Times,serif" font-size="14.00">Act_21</text>
</g>
<!-- 13&#45;&gt;14 -->
<g id="edge10" class="edge"><title>13&#45;&gt;14</title>
<path fill="none" stroke="black" d="M65.2083,-263C73.1844,-263 81.9065,-263 90.4257,-263"/>
<polygon fill="black" stroke="black" points="90.6531,-266.5 100.653,-263 90.653,-259.5 90.6531,-266.5"/>
</g>
<!-- 15 -->
<g id="node15" class="node"><title>15</title>
<ellipse fill="none" stroke="black" cx="246.185" cy="-263" rx="36.2938" ry="18"/>
<text text-anchor="middle" x="246.185" y="-259.3" font-family="Times,serif" font-size="14.00">Act_22</text>
</g>
<!-- 14&#45;&gt;15 -->
<g id="edge11" class="edge"><title>14&#45;&gt;15</title>
<path fill="none" stroke="black" d="M173.952,-263C182.148,-263 190.977,-263 199.535,-263"/>
<polygon fill="black" stroke="black" points="199.779,-266.5 209.779,-263 199.779,-259.5 199.779,-266.5"/>
</g>
<!-- 16 -->
<g id="node16" class="node"><title>16</title>
<ellipse fill="none" stroke="black" cx="354.978" cy="-263" rx="36.2938" ry="18"/>
<text text-anchor="middle" x="354.978" y="-259.3" font-family="Times,serif" font-size="14.00">Act_23</text>
</g>
<!-- 15&#45;&gt;16 -->
<g id="edge12" class="edge"><title>15&#45;&gt;16</title>
<path fill="none" stroke="black" d="M282.745,-263C290.941,-263 299.771,-263 308.329,-263"/>
<polygon fill="black" stroke="black" points="308.573,-266.5 318.573,-263 308.573,-259.5 308.573,-266.5"/>
</g>
</g>
</svg>
