<?xml version="1.0" encoding="UTF-8" standalone="no"?>
<!DOCTYPE svg PUBLIC "-//W3C//DTD SVG 1.1//EN"
 "http://www.w3.org/Graphics/SVG/1.1/DTD/svg11.dtd">
<!-- Generated by graphviz version 2.38.0 (20140413.2041)
 -->
<!-- Title: path_02 Pages: 1 -->
<svg width="228pt" height="692pt"
 viewBox="0.00 0.00 228.00 692.00" xmlns="http://www.w3.org/2000/svg" xmlns:xlink="http://www.w3.org/1999/xlink">
<g id="graph0" class="graph" transform="scale(1 1) rotate(0) translate(4 688)">
<title>path_02</title>
<polygon fill="white" stroke="none" points="-4,4 -4,-688 224,-688 224,4 -4,4"/>
<!-- 0 -->
<g id="node1" class="node"><title>0</title>
<ellipse fill="none" stroke="black" cx="18" cy="-666" rx="18" ry="18"/>
<text text-anchor="middle" x="18" y="-662.3" font-family="Times,serif" font-size="14.00">0</text>
</g>
<!-- 1 -->
<g id="node2" class="node"><title>1</title>
<ellipse fill="none" stroke="black" cx="110" cy="-594" rx="18" ry="18"/>
<text text-anchor="middle" x="110" y="-590.3" font-family="Times,serif" font-size="14.00">1</text>
</g>
<!-- 0&#45;&#45;1 -->
<g id="edge1" class="edge"><title>0&#45;&#45;1</title>
<path fill="none" stroke="blue" d="M31.9728,-654.369C49.2647,-641.212 78.5433,-618.934 95.8957,-605.732"/>
</g>
<!-- 5 -->
<g id="node6" class="node"><title>5</title>
<ellipse fill="none" stroke="black" cx="18" cy="-90" rx="18" ry="18"/>
<text text-anchor="middle" x="18" y="-86.3" font-family="Times,serif" font-size="14.00">5</text>
</g>
<!-- 0&#45;&#45;5 -->
<g id="edge6" class="edge"><title>0&#45;&#45;5</title>
<path fill="none" stroke="red" d="M18,-647.951C18,-621.292 18,-568.115 18,-523 18,-523 18,-523 18,-233 18,-187.885 18,-134.708 18,-108.049"/>
</g>
<!-- 2 -->
<g id="node3" class="node"><title>2</title>
<ellipse fill="none" stroke="black" cx="202" cy="-522" rx="18" ry="18"/>
<text text-anchor="middle" x="202" y="-518.3" font-family="Times,serif" font-size="14.00">2</text>
</g>
<!-- 1&#45;&#45;2 -->
<g id="edge2" class="edge"><title>1&#45;&#45;2</title>
<path fill="none" stroke="blue" d="M123.973,-582.369C141.265,-569.212 170.543,-546.934 187.896,-533.732"/>
</g>
<!-- 6 -->
<g id="node7" class="node"><title>6</title>
<ellipse fill="none" stroke="black" cx="110" cy="-234" rx="18" ry="18"/>
<text text-anchor="middle" x="110" y="-230.3" font-family="Times,serif" font-size="14.00">6</text>
</g>
<!-- 1&#45;&#45;6 -->
<g id="edge7" class="edge"><title>1&#45;&#45;6</title>
<path fill="none" stroke="red" d="M110,-575.951C110,-549.292 110,-496.115 110,-451 110,-451 110,-451 110,-377 110,-331.885 110,-278.708 110,-252.049"/>
</g>
<!-- 3 -->
<g id="node4" class="node"><title>3</title>
<ellipse fill="none" stroke="black" cx="156" cy="-450" rx="18" ry="18"/>
<text text-anchor="middle" x="156" y="-446.3" font-family="Times,serif" font-size="14.00">3</text>
</g>
<!-- 2&#45;&#45;3 -->
<g id="edge3" class="edge"><title>2&#45;&#45;3</title>
<path fill="none" stroke="blue" d="M192.469,-506.496C184.574,-494.482 173.41,-477.494 165.519,-465.485"/>
</g>
<!-- 7 -->
<g id="node8" class="node"><title>7</title>
<ellipse fill="none" stroke="black" cx="202" cy="-18" rx="18" ry="18"/>
<text text-anchor="middle" x="202" y="-14.3" font-family="Times,serif" font-size="14.00">7</text>
</g>
<!-- 2&#45;&#45;7 -->
<g id="edge8" class="edge"><title>2&#45;&#45;7</title>
<path fill="none" stroke="red" d="M202,-503.951C202,-477.292 202,-424.115 202,-379 202,-379 202,-379 202,-161 202,-115.885 202,-62.7084 202,-36.0493"/>
</g>
<!-- 4 -->
<g id="node5" class="node"><title>4</title>
<ellipse fill="none" stroke="black" cx="64" cy="-378" rx="18" ry="18"/>
<text text-anchor="middle" x="64" y="-374.3" font-family="Times,serif" font-size="14.00">4</text>
</g>
<!-- 3&#45;&#45;4 -->
<g id="edge4" class="edge"><title>3&#45;&#45;4</title>
<path fill="none" stroke="blue" d="M142.027,-438.369C124.735,-425.212 95.4567,-402.934 78.1043,-389.732"/>
</g>
<!-- 8 -->
<g id="node9" class="node"><title>8</title>
<ellipse fill="none" stroke="black" cx="156" cy="-162" rx="18" ry="18"/>
<text text-anchor="middle" x="156" y="-158.3" font-family="Times,serif" font-size="14.00">8</text>
</g>
<!-- 3&#45;&#45;8 -->
<g id="edge9" class="edge"><title>3&#45;&#45;8</title>
<path fill="none" stroke="red" d="M156,-431.966C156,-381.218 156,-231.407 156,-180.306"/>
</g>
<!-- 4&#45;&#45;0 -->
<g id="edge5" class="edge"><title>4&#45;&#45;0</title>
<path fill="none" stroke="blue" d="M62.3749,-396.075C58.537,-434.754 48.0131,-531.923 32,-612 29.5366,-624.319 25.8914,-638.025 22.9381,-648.412"/>
</g>
<!-- 9 -->
<g id="node10" class="node"><title>9</title>
<ellipse fill="none" stroke="black" cx="64" cy="-306" rx="18" ry="18"/>
<text text-anchor="middle" x="64" y="-302.3" font-family="Times,serif" font-size="14.00">9</text>
</g>
<!-- 4&#45;&#45;9 -->
<g id="edge10" class="edge"><title>4&#45;&#45;9</title>
<path fill="none" stroke="red" d="M64,-359.697C64,-348.846 64,-334.917 64,-324.104"/>
</g>
<!-- 5&#45;&#45;7 -->
<g id="edge11" class="edge"><title>5&#45;&#45;7</title>
<path fill="none" stroke="black" d="M33.3898,-80.2124C38.5824,-77.413 44.4659,-74.4179 50,-72 97.6335,-51.1883 156.289,-32.6402 184.805,-24.0529"/>
</g>
<!-- 6&#45;&#45;8 -->
<g id="edge14" class="edge"><title>6&#45;&#45;8</title>
<path fill="none" stroke="black" d="M119.531,-218.496C127.426,-206.482 138.59,-189.494 146.481,-177.485"/>
</g>
<!-- 7&#45;&#45;9 -->
<g id="edge12" class="edge"><title>7&#45;&#45;9</title>
<path fill="none" stroke="black" d="M191.281,-32.9541C167.938,-64.0362 112.262,-142.066 83,-216 73.5226,-239.946 68.4113,-269.48 65.9484,-287.778"/>
</g>
<!-- 8&#45;&#45;5 -->
<g id="edge15" class="edge"><title>8&#45;&#45;5</title>
<path fill="none" stroke="black" d="M140.17,-152.97C113.55,-139.467 60.141,-112.376 33.6457,-98.9362"/>
</g>
<!-- 9&#45;&#45;6 -->
<g id="edge13" class="edge"><title>9&#45;&#45;6</title>
<path fill="none" stroke="black" d="M73.5312,-290.496C81.426,-278.482 92.5896,-261.494 100.481,-249.485"/>
</g>
</g>
</svg>
