<?xml version="1.0" encoding="UTF-8" standalone="no"?>
<!DOCTYPE svg PUBLIC "-//W3C//DTD SVG 1.1//EN"
 "http://www.w3.org/Graphics/SVG/1.1/DTD/svg11.dtd">
<!-- Generated by graphviz version 2.38.0 (20140413.2041)
 -->
<!-- Title: graph_10 Pages: 1 -->
<svg width="209pt" height="287pt"
 viewBox="0.00 0.00 209.45 287.46" xmlns="http://www.w3.org/2000/svg" xmlns:xlink="http://www.w3.org/1999/xlink">
<g id="graph0" class="graph" transform="scale(1 1) rotate(0) translate(4 283.465)">
<title>graph_10</title>
<polygon fill="white" stroke="none" points="-4,4 -4,-283.465 205.45,-283.465 205.45,4 -4,4"/>
<!-- node_10_01 -->
<g id="node1" class="node"><title>node_10_01</title>
<polygon fill="none" stroke="black" points="12.9505,-224.908 12.9505,-260.908 144.95,-260.908 144.95,-224.908 12.9505,-224.908"/>
<text text-anchor="middle" x="30.4505" y="-239.208" font-family="Times,serif" font-size="14.00">left</text>
<polyline fill="none" stroke="black" points="47.9505,-224.908 47.9505,-260.908 "/>
<text text-anchor="middle" x="75.4505" y="-239.208" font-family="Times,serif" font-size="14.00">middle</text>
<polyline fill="none" stroke="black" points="102.95,-224.908 102.95,-260.908 "/>
<text text-anchor="middle" x="123.95" y="-239.208" font-family="Times,serif" font-size="14.00">right</text>
</g>
<!-- node_10_02 -->
<g id="node2" class="node"><title>node_10_02</title>
<polygon fill="none" stroke="black" points="20.4505,-151.908 20.4505,-187.908 93.4505,-187.908 93.4505,-151.908 20.4505,-151.908"/>
<text text-anchor="middle" x="38.4505" y="-166.208" font-family="Times,serif" font-size="14.00">one</text>
<polyline fill="none" stroke="black" points="56.4505,-151.908 56.4505,-187.908 "/>
<text text-anchor="middle" x="74.9505" y="-166.208" font-family="Times,serif" font-size="14.00">two</text>
</g>
<!-- node_10_01&#45;&gt;node_10_02 -->
<g id="edge1" class="edge"><title>node_10_01:p12:n&#45;&gt;node_10_02:p22</title>
<path fill="none" stroke="green" d="M65.3954,-277.483C51.672,-283.228 26.5415,-274.72 12.9505,-260.908 -28.3938,-218.892 43.4383,-198.969 67.5075,-191.434"/>
<polygon fill="green" stroke="green" points="77.9338,-263.738 69.7211,-270.432 71.9672,-260.078 77.9338,-263.738"/>
<ellipse fill="green" stroke="green" cx="67.6293" cy="-273.841" rx="4.00001" ry="4.00001"/>
<ellipse fill="green" stroke="green" cx="71.2451" cy="-189.915" rx="4.00002" ry="4.00002"/>
</g>
<!-- node_10_03 -->
<g id="node3" class="node"><title>node_10_03</title>
<polygon fill="none" stroke="black" points="58.4505,-78.9081 58.4505,-114.908 201.45,-114.908 201.45,-78.9081 58.4505,-78.9081"/>
<text text-anchor="middle" x="75.4505" y="-93.2081" font-family="Times,serif" font-size="14.00">big</text>
<polyline fill="none" stroke="black" points="92.4505,-78.9081 92.4505,-114.908 "/>
<text text-anchor="middle" x="123.45" y="-93.2081" font-family="Times,serif" font-size="14.00">medium</text>
<polyline fill="none" stroke="black" points="154.45,-78.9081 154.45,-114.908 "/>
<text text-anchor="middle" x="177.95" y="-93.2081" font-family="Times,serif" font-size="14.00">small</text>
</g>
<!-- node_10_02&#45;&gt;node_10_03 -->
<g id="edge2" class="edge"><title>node_10_02:p22&#45;&gt;node_10_03:p11</title>
<path fill="none" stroke="green" d="M74.9505,-132.939C74.9505,-130.062 74.9505,-127.153 74.9505,-123.642"/>
<polygon fill="green" stroke="green" points="71.4505,-151.408 74.9505,-141.408 78.4505,-151.408 71.4505,-151.408"/>
<ellipse fill="green" stroke="green" cx="74.9506" cy="-137.408" rx="4" ry="4"/>
<ellipse fill="green" stroke="green" cx="74.9505" cy="-119.408" rx="4" ry="4"/>
</g>
<!-- node_10_04 -->
<g id="node4" class="node"><title>node_10_04</title>
<polygon fill="none" stroke="black" points="12.4505,-5.90809 12.4505,-41.9081 93.4505,-41.9081 93.4505,-5.90809 12.4505,-5.90809"/>
<text text-anchor="middle" x="33.9505" y="-20.2081" font-family="Times,serif" font-size="14.00">huge</text>
<polyline fill="none" stroke="black" points="55.4505,-5.90809 55.4505,-41.9081 "/>
<text text-anchor="middle" x="74.4505" y="-20.2081" font-family="Times,serif" font-size="14.00">tiny</text>
</g>
<!-- node_10_03&#45;&gt;node_10_04 -->
<g id="edge3" class="edge"><title>node_10_03:p11&#45;&gt;node_10_04:p22:s</title>
<path fill="none" stroke="green" d="M81.4787,-61.5083C85.8214,-56.4602 91.1374,-51.97 93.4505,-42.4081 97.2648,-26.6407 104.607,-17.6844 93.4505,-5.90809 90.4419,-2.73252 85.4088,-0.324853 81.3512,-0"/>
<polygon fill="green" stroke="green" points="71.6856,-77.1469 78.5539,-69.0799 78.2154,-79.6693 71.6856,-77.1469"/>
<ellipse fill="green" stroke="green" cx="79.9953" cy="-65.3486" rx="4.00001" ry="4.00001"/>
<ellipse fill="green" stroke="green" cx="78.1247" cy="-2.47409" rx="4.00002" ry="4.00002"/>
</g>
</g>
</svg>
