<?xml version="1.0" encoding="UTF-8" standalone="yes"?><svg xmlns="http://www.w3.org/2000/svg" xmlns:xlink="http://www.w3.org/1999/xlink" height="363pt" style="width:392px;height:363px;" version="1.1" viewBox="0 0 392 363" width="392pt"><defs><filter height="300%" id="f1" width="300%" x="-1" y="-1"><feGaussianBlur result="blurOut" stdDeviation="2.0"/><feColorMatrix in="blurOut" result="blurOut2" type="matrix" values="0 0 0 0 0 0 0 0 0 0 0 0 0 0 0 0 0 0 .4 0"/><feOffset dx="4.0" dy="4.0" in="blurOut2" result="blurOut3"/><feBlend in="SourceGraphic" in2="blurOut3" mode="normal"/></filter></defs><g><rect fill="#FFFFFF" filter="url(#f1)" height="146.5527" style="stroke: #383838; stroke-width: 1.0;" width="10" x="97.5" y="114.4883"/><rect fill="#FFFFFF" filter="url(#f1)" height="87.9316" style="stroke: #383838; stroke-width: 1.0;" width="10" x="233.5" y="143.7988"/><rect fill="#FFFFFF" filter="url(#f1)" height="29.3105" style="stroke: #383838; stroke-width: 1.0;" width="10" x="340" y="173.1094"/><line style="stroke: #383838; stroke-width: 1.0; stroke-dasharray: 5.0,5.0;" x1="23" x2="23" y1="83.4883" y2="279.3516"/><line style="stroke: #383838; stroke-width: 1.0; stroke-dasharray: 5.0,5.0;" x1="102.5" x2="102.5" y1="83.4883" y2="279.3516"/><line style="stroke: #383838; stroke-width: 1.0; stroke-dasharray: 5.0,5.0;" x1="238.5" x2="238.5" y1="83.4883" y2="279.3516"/><line style="stroke: #383838; stroke-width: 1.0; stroke-dasharray: 5.0,5.0;" x1="344.5" x2="344.5" y1="83.4883" y2="279.3516"/><text fill="#000000" font-family="sans-serif" font-size="14" lengthAdjust="spacingAndGlyphs" textLength="31" x="5" y="81">User</text><ellipse cx="23.5" cy="10" fill="#F8F8F8" filter="url(#f1)" rx="8" ry="8" style="stroke: #383838; stroke-width: 2.0;"/><path d="M23.5,18 L23.5,45 M10.5,26 L36.5,26 M23.5,45 L10.5,60 M23.5,45 L36.5,60 " fill="#F8F8F8" filter="url(#f1)" style="stroke: #383838; stroke-width: 2.0;"/><text fill="#000000" font-family="sans-serif" font-size="14" lengthAdjust="spacingAndGlyphs" textLength="31" x="5" y="291.5117">User</text><ellipse cx="23.5" cy="304" fill="#F8F8F8" filter="url(#f1)" rx="8" ry="8" style="stroke: #383838; stroke-width: 2.0;"/><path d="M23.5,312 L23.5,339 M10.5,320 L36.5,320 M23.5,339 L10.5,354 M23.5,339 L36.5,354 " fill="#F8F8F8" filter="url(#f1)" style="stroke: #383838; stroke-width: 2.0;"/><rect fill="#F8F8F8" filter="url(#f1)" height="30.4883" style="stroke: #383838; stroke-width: 1.5;" width="84" x="58.5" y="48"/><text fill="#000000" font-family="sans-serif" font-size="14" lengthAdjust="spacingAndGlyphs" textLength="70" x="65.5" y="69">First Class</text><rect fill="#F8F8F8" filter="url(#f1)" height="30.4883" style="stroke: #383838; stroke-width: 1.5;" width="84" x="58.5" y="277.5117"/><text fill="#000000" font-family="sans-serif" font-size="14" lengthAdjust="spacingAndGlyphs" textLength="70" x="65.5" y="298.5117">First Class</text><rect fill="#F8F8F8" filter="url(#f1)" height="30.4883" style="stroke: #383838; stroke-width: 1.5;" width="104" x="184.5" y="48"/><text fill="#000000" font-family="sans-serif" font-size="14" lengthAdjust="spacingAndGlyphs" textLength="90" x="191.5" y="69">Second Class</text><rect fill="#F8F8F8" filter="url(#f1)" height="30.4883" style="stroke: #383838; stroke-width: 1.5;" width="104" x="184.5" y="277.5117"/><text fill="#000000" font-family="sans-serif" font-size="14" lengthAdjust="spacingAndGlyphs" textLength="90" x="191.5" y="298.5117">Second Class</text><rect fill="#F8F8F8" filter="url(#f1)" height="30.4883" style="stroke: #383838; stroke-width: 1.5;" width="81" x="302.5" y="48"/><text fill="#000000" font-family="sans-serif" font-size="14" lengthAdjust="spacingAndGlyphs" textLength="67" x="309.5" y="69">Last Class</text><rect fill="#F8F8F8" filter="url(#f1)" height="30.4883" style="stroke: #383838; stroke-width: 1.5;" width="81" x="302.5" y="277.5117"/><text fill="#000000" font-family="sans-serif" font-size="14" lengthAdjust="spacingAndGlyphs" textLength="67" x="309.5" y="298.5117">Last Class</text><rect fill="#FFFFFF" filter="url(#f1)" height="146.5527" style="stroke: #383838; stroke-width: 1.0;" width="10" x="97.5" y="114.4883"/><rect fill="#FFFFFF" filter="url(#f1)" height="87.9316" style="stroke: #383838; stroke-width: 1.0;" width="10" x="233.5" y="143.7988"/><rect fill="#FFFFFF" filter="url(#f1)" height="29.3105" style="stroke: #383838; stroke-width: 1.0;" width="10" x="340" y="173.1094"/><polygon fill="#383838" points="85.5,110.4883,95.5,114.4883,85.5,118.4883,89.5,114.4883" style="stroke: #383838; stroke-width: 1.0;"/><line style="stroke: #383838; stroke-width: 1.0;" x1="23.5" x2="91.5" y1="114.4883" y2="114.4883"/><text fill="#000000" font-family="sans-serif" font-size="13" lengthAdjust="spacingAndGlyphs" textLength="50" x="30.5" y="110.4883">DoWork</text><polygon fill="#383838" points="221.5,139.7988,231.5,143.7988,221.5,147.7988,225.5,143.7988" style="stroke: #383838; stroke-width: 1.0;"/><line style="stroke: #383838; stroke-width: 1.0;" x1="107.5" x2="227.5" y1="143.7988" y2="143.7988"/><text fill="#000000" font-family="sans-serif" font-size="13" lengthAdjust="spacingAndGlyphs" textLength="94" x="114.5" y="139.7988">Create Request</text><polygon fill="#383838" points="328,169.1094,338,173.1094,328,177.1094,332,173.1094" style="stroke: #383838; stroke-width: 1.0;"/><line style="stroke: #383838; stroke-width: 1.0;" x1="243.5" x2="334" y1="173.1094" y2="173.1094"/><text fill="#000000" font-family="sans-serif" font-size="13" lengthAdjust="spacingAndGlyphs" textLength="50" x="250.5" y="169.1094">DoWork</text><polygon fill="#383838" points="254.5,198.4199,244.5,202.4199,254.5,206.4199,250.5,202.4199" style="stroke: #383838; stroke-width: 1.0;"/><line style="stroke: #383838; stroke-width: 1.0; stroke-dasharray: 2.0,2.0;" x1="248.5" x2="344" y1="202.4199" y2="202.4199"/><text fill="#000000" font-family="sans-serif" font-size="13" lengthAdjust="spacingAndGlyphs" textLength="65" x="260.5" y="198.4199">WorkDone</text><line style="stroke: #383838; stroke-width: 2.0;" x1="336" x2="354" y1="193.4199" y2="211.4199"/><line style="stroke: #383838; stroke-width: 2.0;" x1="336" x2="354" y1="211.4199" y2="193.4199"/><polygon fill="#383838" points="118.5,227.7305,108.5,231.7305,118.5,235.7305,114.5,231.7305" style="stroke: #383838; stroke-width: 1.0;"/><line style="stroke: #383838; stroke-width: 1.0; stroke-dasharray: 2.0,2.0;" x1="112.5" x2="237.5" y1="231.7305" y2="231.7305"/><text fill="#000000" font-family="sans-serif" font-size="13" lengthAdjust="spacingAndGlyphs" textLength="102" x="124.5" y="227.7305">Request Created</text><polygon fill="#383838" points="34.5,257.041,24.5,261.041,34.5,265.041,30.5,261.041" style="stroke: #383838; stroke-width: 1.0;"/><line style="stroke: #383838; stroke-width: 1.0; stroke-dasharray: 2.0,2.0;" x1="28.5" x2="101.5" y1="261.041" y2="261.041"/><text fill="#000000" font-family="sans-serif" font-size="13" lengthAdjust="spacingAndGlyphs" textLength="33" x="40.5" y="257.041">Done</text></g></svg>