<svg viewBox="0 0 94 24" xmlns="http://www.w3.org/2000/svg">
  <rect width="100%" height="100%" fill="white"/>
  <rect x="2" y="2" width="2" height="20" fill="red"/>
  <rect x="5" y="2" width="1" height="20" fill="red"/>
  <rect x="8" y="2" width="1" height="20" fill="red"/>
  <rect x="13" y="2" width="2" height="20" fill="red"/>
  <rect x="16" y="2" width="3" height="20" fill="red"/>
  <rect x="22" y="2" width="1" height="20" fill="red"/>
  <rect x="24" y="2" width="1" height="20" fill="red"/>
  <rect x="26" y="2" width="2" height="20" fill="red"/>
  <rect x="30" y="2" width="1" height="20" fill="red"/>
  <rect x="35" y="2" width="2" height="20" fill="red"/>
  <rect x="41" y="2" width="1" height="20" fill="red"/>
  <rect x="44" y="2" width="1" height="20" fill="red"/>
  <rect x="46" y="2" width="2" height="20" fill="red"/>
  <rect x="52" y="2" width="1" height="20" fill="red"/>
  <rect x="55" y="2" width="1" height="20" fill="red"/>
  <rect x="57" y="2" width="1" height="20" fill="red"/>
  <rect x="62" y="2" width="2" height="20" fill="red"/>
  <rect x="65" y="2" width="1" height="20" fill="red"/>
  <rect x="68" y="2" width="2" height="20" fill="red"/>
  <rect x="71" y="2" width="3" height="20" fill="red"/>
  <rect x="75" y="2" width="1" height="20" fill="red"/>
  <rect x="79" y="2" width="2" height="20" fill="red"/>
  <rect x="84" y="2" width="3" height="20" fill="red"/>
  <rect x="88" y="2" width="1" height="20" fill="red"/>
  <rect x="90" y="2" width="2" height="20" fill="red"/>
</svg>