/* XPM */
static char *logo[] = {
/* columns rows colors chars-per-pixel */
"64 64 227 2",
"   c #233004",
".  c #2F420A",
"X  c #3F440A",
"o  c #365D09",
"O  c #386F0C",
"+  c #524409",
"@  c #4B5C07",
"#  c #4C5A15",
"$  c #6E4808",
"%  c #615605",
"&  c #705A08",
"*  c #606908",
"=  c #70670D",
"-  c #617709",
";  c #717707",
":  c #544C2F",
">  c #525D35",
",  c #5D5839",
"<  c #416424",
"1  c #52702C",
"2  c #7F782F",
"3  c #606736",
"4  c #6E6837",
"5  c #627737",
"6  c #717535",
"7  c #5E6046",
"8  c #4F774C",
"9  c #626F4B",
"0  c #646455",
"q  c #6D6A52",
"w  c #61735D",
"e  c #717655",
"r  c #7D7B58",
"t  c #727666",
"y  c #7C7C66",
"u  c #805505",
"i  c #886806",
"p  c #986706",
"a  c #847907",
"s  c #9B7F06",
"d  c #B17107",
"f  c #84542C",
"g  c #A27A2C",
"h  c #3C890C",
"j  c #558A0D",
"k  c #6E8D07",
"l  c #698A1B",
"z  c #57A10F",
"x  c #57BC11",
"c  c #6FA506",
"v  c #6EA618",
"b  c #71B915",
"n  c #59892C",
"m  c #6E8F27",
"M  c #6E8A36",
"N  c #42A02C",
"B  c #54A42C",
"V  c #6CA72C",
"C  c #70B92B",
"Z  c #6FC518",
"A  c #5AC02F",
"S  c #70C62F",
"D  c #6D884A",
"F  c #71855F",
"G  c #62BE52",
"H  c #74BC6C",
"J  c #72C14C",
"K  c #71CC4F",
"L  c #71D16B",
"P  c #808000",
"I  c #858B06",
"U  c #9C9405",
"Y  c #9A9419",
"T  c #B58105",
"R  c #B59305",
"E  c #B69A18",
"W  c #84A406",
"Q  c #9BA808",
"!  c #82BC08",
"~  c #97B90B",
"^  c #80A819",
"/  c #80BD19",
"(  c #B5A90A",
")  c #A9BB07",
"_  c #BEBA08",
"`  c #868E24",
"'  c #848937",
"]  c #A39429",
"[  c #83AA2F",
"{  c #9FA92C",
"}  c #80BE28",
"|  c #97BA30",
" . c #B7B724",
".. c #A7BA32",
"X. c #CD9206",
"o. c #CBA607",
"O. c #DFBE07",
"+. c #D0BE08",
"@. c #E1A605",
"#. c #D1BA2A",
"$. c #98C80C",
"%. c #86CD15",
"&. c #99D611",
"*. c #A8CA0A",
"=. c #BCC806",
"-. c #A8D90B",
";. c #B9DA05",
":. c #BADE17",
">. c #85CE28",
",. c #81C038",
"<. c #85CF39",
"1. c #97C931",
"2. c #98D730",
"3. c #A7C92A",
"4. c #BBC830",
"5. c #A8DB30",
"6. c #BBD930",
"7. c #BDE530",
"8. c #D1CF0B",
"9. c #DECF09",
"0. c #D6DE07",
"q. c #EFC208",
"w. c #EFCF09",
"e. c #D8E219",
"r. c #E7E107",
"t. c yellow",
"y. c #E8E419",
"u. c #D1D22F",
"i. c #DFD12C",
"p. c #E6DF2B",
"a. c #F6D129",
"s. c #D7E228",
"d. c #D7E638",
"f. c #EAED34",
"g. c #808948",
"h. c #80875A",
"j. c #959A53",
"k. c #85A64C",
"l. c #9AA952",
"z. c #96BA50",
"x. c #B4A45C",
"c. c #A7B954",
"v. c #838968",
"b. c #979975",
"n. c #AC9464",
"m. c #87A16C",
"M. c #9AB96E",
"N. c #9AA777",
"B. c #A6A77A",
"V. c #A9B772",
"C. c #B8B870",
"Z. c #D4A44C",
"A. c #82C146",
"S. c #85CF48",
"D. c #98D94F",
"F. c #84C157",
"G. c #97C950",
"H. c #85D158",
"J. c #A5CB4A",
"K. c #BAC44C",
"L. c #A8DB4F",
"P. c #BED751",
"I. c #BAE64C",
"U. c #AAE450",
"Y. c #88C16B",
"T. c #97C86D",
"R. c #88D46C",
"E. c #96DA6F",
"W. c #BCC66E",
"Q. c #A8DD6D",
"!. c #BCD86C",
"~. c #BDE76D",
"^. c #D5D74F",
"/. c #E5DA52",
"(. c #D1EA4C",
"). c #E0EA4F",
"_. c #F1EE49",
"`. c #EEEE5A",
"'. c #D6D56C",
"]. c #E7D771",
"[. c #D6EC67",
"{. c #D8EC77",
"}. c #E8E973",
"|. c #EBF572",
" X c #808080",
".X c #9AA696",
"XX c #AFB088",
"oX c #A0BB8F",
"OX c #AFB29A",
"+X c #B5BE92",
"@X c #B6BFAA",
"#X c #98CE86",
"$X c #8AD58A",
"%X c #98DD8F",
"&X c #B5D08B",
"*X c #A4CCAC",
"=X c #B9D1A0",
"-X c #BAD0B2",
";X c #B7E4A4",
":X c #C7CC95",
">X c #D9D191",
",X c #ECD48C",
"<X c #CAE58D",
"1X c #D7E38D",
"2X c #D8F08B",
"3X c #E9E488",
"4X c #EAEA98",
"5X c #E8F891",
"6X c #F8F991",
"7X c #C7CEB0",
"8X c #D8D0B2",
"9X c #EAD2B3",
"0X c #D9EFAF",
"qX c #C8E0B2",
"wX c #D7E0B3",
"eX c #E9F6AF",
"rX c #F8F9AF",
"tX c #E6E5B5",
"yX c #BCD4C8",
"uX c #C0C0C0",
"iX c #C9D3C9",
"pX c #D8D9C7",
"aX c #E7DECC",
"sX c #F5DBC9",
"dX c #D9E9CD",
"fX c #E9F1D4",
"gX c None",
/* pixels */
"gXgXgXgXgXgXgXgXgXgXgXgXgXgXgXgXgXgXgXgXgXgXgXgXgXgXgXgXgXgXgXgXgXgXgXgXgXgXgXgXgXgXgXgXgXgXgXgXgXgXgXgXgXgXgXgXgXgXgXgXgXgXgXgX",
"gXgXgXgXgXgXgXgXgXgXgXgXgXgXgXgXgXgXgXgXgXgXgXgXgXgXgXgXgXgXgXgXgXgXgXgXgXgXgXgXgXgXgXgXgXgXgXgXgXgXgXgXgXgXgXgXgXgXgXgXgXgXgXgX",
"gXgXgXgXgXgXgXgXgXgXgXgXgXgXgXgXgXgXgXgXgXgXgXgXgXgXgXgXgXgXgXgXgXgXgXgXgXgXgXgXgXgXgXgXgXgXgXgXgXgXgXgXgXgXgXgXgXgXgXgXgXgXgXgX",
"gXgXgXgXgXgXgXgXgXgXgXgXgXgXgXgXgXgXgXgXgXgXgXgXgXgXgXgXgXgXgXgXgXgXgXgXgXgXgXgXgXgXgXgXgXgXgXgXgXgXgXgXgXgXgXgXgXgXgXgXgXgXgXgX",
"gXgXgXgXgXgXgXgXgXgXgXgXgXgXgXgXgXgXgXgXgXgXgXgXgXgXgXgXgXgXgXgXgXgXgXgXgXgXgXgXgXgXgXgXgXgXgXgXgXgXgXgXgXgXgXgXgXgXgXgXgXgXgXgX",
"gXgXgXgXgXgXgXgXgXgXgXgXgXgXgXgXgXgXgXgXgXgXgXgXgXgXgXgXgXgXgXgXgXgXgXgXgXgXgXgXgXgXgXgXgXgXgXgXgXgXgXgXgXgXgXgXgXgXgXgXgXgXgXgX",
"gXgXgXgXgXgXgXgXgXgXgXgXgXgXgXgXgXgXgXgXgXgXgXgXgXgXgXgXgXgXgXgXgXgXgXgXgXgXgXgXgXgXgXgXgXgXgXgXgXgXgXgXgXgXqX~.^.gXgXgXgXgXgXgX",
"gXgXgXgXgXgXgXgXgXgXgXgXgXgXgXgXgXgXgXgXgXgXgXgXgXgX).|.6XgXgXgXgXgXgXgXgXgXgXgXgXgXgXwXW.Z.x.9XgXgXgXgXgXdX6.3.[.gXgXgXgXgXgXgX",
"gXgXgXgXgXgXgXgXgXgXgXgXgXgXgXgXgXgXgXgXgXgXgXgXgXdX#.e.gXgXgXgXgXgXgXgXgXgXgXgXgXgX7X} / 1.T - ].gXgXgXgXQ.} P.gXgXgXgXgXgXgXgX",
"gXgXgXgXgXgXgXgXgXgXgXgXgXgXgXgXgXgXgXgXgXgXgXgXgX0Xe.e.gXgXgXgXgXtXd.6XgXgXgXgXgXpX>.>.<.S.| i ` gXgX0XJ.) U 1XgXgXgXtXgXgXgXgX",
"gXgXgXgXgXgXgXgXgXgXgXgXgXgXgXgXgXgXgXgXgXgXgXgXgX~.;.s.5X3X3X}.d.e.[._.gXgXgXaX8XG./ } J.G.F.I l {.Q.Q.=._ +.8.>X>Xd.d.d.gXgXgX",
"gXgXgXgXgXgXgXgXgXgXgXgXgXgXgXgXgXgXgXgXgXgXgXgXrXI.e.(.eX5X[.0.0.p.|.gXgXaX:X1.S %./ b / C / b W ;.*.=.;.8.+.+.9.w.+.s.{.gXgXgX",
"gXgXgXgXgXgXgXgXgXgXgXgXgXgXgXgXgXgXgXgXgXgXgXgX0X2X~.I.s.s.i.i.4XfXfX8XW.A.~ } ,.[ b C C C A C b _ o.o.O.O.@.O.).3XgXgXgXgXgXgX",
"gXgXgXgXgXgXgXgXgXgXgXgXgXgXgXgXgXgXgXgXgXgXgXaXI.5.Q.5.8.9._ 6.L.5.| %.} } / S [ } C S Z } <.Z / / o.O.O.O.O.s.gXgXgXgXgXgXgXgX",
"gXgXgXgXgXgXgXgXgXgXgXgXgXgXgXgXgXgXgXgXgXaXV.c.%.6.2...) $./ } C / C ~ } C | C / b / } Z S / x Z %.<.+.w.w.9.9.gXgXgXgXgXgXgXgX",
"gXgXgXgXgXgXgXgXgXgXgXgXgXgXgXgXgXgXgXgXqXH.Y.3.~ / / / / C / C / b / } b / } } / ! ! } S S <.S S S S A.Y  . .#.a.6XgXgXgXgXgXgX",
"gXgXgXgXgXgXgXgXgXgXgXgXgXgXgXgXgXgXaXoX,.,.[ ^ } [ V / C S ,.,.S S A.>.,.[ / ,.,./ ! S <.K H.$X$XE.E.S.k.r e +X}.w.f.gXgXgXgXgX",
"gXgXgXgXgXgXgXgXgXgXgXgXgXgXgXgXgXaXF.} C / } C / } b / S ,./ S >.b >./ / 3. .O.X.Y ! Z 2.S.L Q.D.Q.D.K | =X>XgXaX).).gXgXgXgXgX",
"gXgXgXgXgXgXgXgXgXgXgXgXgXgXgXgXpXA.C C [ C V ,.^ C / } } C } / S / } %.{ o.w.q.@.X.I Z R.R.R.%X%X$XH.S.c.gXgXgXgXgXgXgXgXgXgXgX",
"gXgXgXgXgXgXgXgXgXgXgXgXgXgXgX7X,./ C / v / b } ! v b / C C } ,.! Z } / o.q.E f   + s b ,.R.R.%X%X%XR.,.V.gXgXgXgXgXgXgXgXgXgXgX",
"gXgXgXgXgXgXgXgXgXgXgXgXgXgX+Xk./ V C v A / A ,.C C } A [ S ^ ,.b ! } W X.+       . a } <.K R.E.E.E.J m N.gXgXgXgXgXgXgXgXgXgXgX",
"gXgXgXgXgXgXgXgXgXgXgXgXgX@X,./ } / / b b C / b b ,.C b / } v } v ! W c X.+     . I P S <.K S.S.1.~ l D m.gXgXgXgXgXgXgXgXgXgXgX",
"gXgXgXgXgXgXgXgXgXgXgXgX:X$.! ^ / ^ } C C } } A.S A.A.J V b } v C V } V I E d g.g d c S.K $XK >.v 6 v.q v.8XgXgXgXgXgXgXgXgXgXgX",
"gXgXgXgXgXgXgXgXgXgXgX=X>.$./ C V c ^ C | A / S.S A.G ,.F.V / v v G.K #Xn k & = + h <.H.H.Q.1.l.7 r y 9 v.XXgXgXgXgXgXgXgXgXgXgX",
"gXgXgXgXgXgXgXgXgXgX:X,.$.! / ^ b ^ } / S } S S.S ,.G F.A.[ ! ^ c J.1.S.<.B B N A H.D.J.3.{ D F r t y e t m.gXgXgXgXgXgXgXgXgXgX",
"gXgXgXgXgXgXgXgXsXXX} %./ b / b b W } %.%./ A.G ,.C C ,.A.} ! c ! &.U.D.E.Y.F.D.G.1.] k 1 r y t e q  Xy y t =XgXgXgXgXgXgXgXgXgX",
"gXgXgXgXgXgXgXgXM.1.%./ %.b b A } >./ } S.<.S S H.J F.S.J } A %.j - ; = # a k I j.= # 8 7 v.t q t , t r q h.b.gXgXgXgXgXgXgXgXgX",
"gXgXgXgXgXgXgXL.%.$.! ^ ! ! ! ! ! %.} %.S &.S S <.<.S ,.,.,.} / W c = & $ u $ + @ o 5 q e q y e e 0 q q r t C.gXgXgXgXgXgXgXgXgX",
"gXgXgXgXgXgX~.2.$.$.! } b ! Z ! ! Z ! %.<.2.2.<.2.S.<.>.S.>.! $.$.=.R d s p u u @ e q q t e y e t e e r h.r tXgXgXgXgXgXgXgXgXgX",
"gXgXgXgXgXgX0X&.3.b [ W b c Z ! ! &.$.Z 2.&.2.7.%.&.<.S.<.$.&.;.;.+.O.O.+.R d % 4 v.q t e 0 y q 7 t , v.b.8XgXgXgXgXgXgXgXgXgXgX",
"gXgXgXgXgXgXgXQ./ W c c c ! ! ! ! &.&.-.&.&.-.;.;.-.5.&.-.-.;.;.=.+.t.}.w.@.s 6 t q e e t q y e F e b.+XgXgXgXgXgXgXgXgXgXgXgXgX",
"gXgXgXgXgXgXgXM./ ! c k W ! $.! $.-.;.*.*.&.=.;.-.;.-.;.-.-.) _ +.w.t.a.@.X.2 q q q q e t r e h.b.pXgXgXgXgXgXgXgXgXgXgXgXgXgXgX",
"gXgXgXgXgXgXgXuXV &.-.W U W W ~ ! *.$.-.~ $.=.;.;.8.) _ ~ Q U = s r.|.a.X.s 9 r e , h.0 v.v.+XgXgXgXgXgXgXgXgXgXgXgXgXgXgXgXgXgX",
"gXgXgXgXgXgXgXgXE.*.-.;.R R s I W U U ) Q I ~ _ _ ) U I ; % o 1 K.e./.@.T g.q e r e q h.+XgXgXgXgXgXgXgXgXgXgXgXgXgXgXgXgXgXgXgX",
"gXgXgXgXgXgXW.Q.G.$.;.;.;.o.s s s i i s s s a a i a & + o # 7 j.d.d.@.U D 0 q 9 g.N.8XgXgXgXgXgXgXgXgXgXgXgXgXgXgXgXgXgXgXgXgXgX",
"gXgXgXgXgXI.D.<.H.D.$.;.*.;.=.T d p i & * & % @ X X X < > > 9 W.(.(.R g.3 7 v.' 8XgXgXgXsX].y.p.gXgXgX6X6XgXgXgXgXgXgXgXgXgXgXgX",
"gXgXgXgX2X7.H.S.S.S.<.2.&.*.=.( X.d a 3 t 7 > 7 7 7 7 7 , 7 n.(.[.:.=.2 9 3 v.wXgXgXaX,Xy.9.9.p.gXgX].r.r.|.gXgXgXgXgXgXgXgXgXgX",
"gXgXgXgXqX:.5.<.S.J >.S.,.1.&.=._ o.T 6 4 e q q 7 > 7 0 , 9 '.I.U.5.U.5./ j.gXgXgX9X#.q.9.O.'.}.d.e.r.s.`.gXgXgXgXgXgXgXgXgXgXgX",
"gXgXgXgXgXV.&.>.} J ,.<.G G.S -.*.=.o.U 9 y 3 7 e : e > 3 D ~.U.U.2.H.D.<.D.[.gXgX,XO.q.9.9.O.9.w.s.rXgXgXgXgXgXgXgXgXgXgXgXgXgX",
"gXgXgXgXgXyXA.%.>.K } J F.F.H.A.2.;.;.( R W..XB.b.v.e , 9 3 z.2.5.U.D.E.Q.E.D.5.{.+.O.0.0.i.O.O.O.rXgXgXgXgXgXgXgXgXgXgXgXgXgXgX",
"gXgXgXgXgXgX@X1.%./ b J A.<.F.A.Y.3.&.-.=. .gXgXgXgXaXqXqX7X:X;XQ.1.2.<.D.H.D.D.2.&.*.;.5.7.:.8.8.O.gXgXgXgXgXgXgXgXgXgXgXgXgXgX",
"gXgXgXgXgXgXgXOX>.&.Z / %.A } S K A.} -.-.*.#.gXgXgXgXgXgXgXgXgXgXoX/ &.<.2.D.D.2.D.5.U.Q.5.1.:.:.:.d.).|.6XgXgXgXgXgXgXgXgXgXgX",
"gXgXgXgXgXgXgXgX@Xz.&.b / ,.A.,.F.J F.G.3.:.;.u.gXgXgXgXgXgXgXgXgXuX8 l v C 3.$.>.<.H.Y.[ k.&XL.5.~.[.(.2X).gXgXgXgXgXgXgXgXgXgX",
"gXgXgXgXgXgXgXgXgX-XM.3./ } C F.S J J F.H.1.:.:.d.gXgXgXgXgXgXgXgX.Xq w w 8 5 V k.M V D B.gXgXgXgXeXeX{.5X{.gXgXgXgXgXgXgXgXgXgX",
"gXgXgXgXgXgXgXgXgXgXdXN.,.[ / Z / A A.A.K S.2.:.:.s.gXgXgXgXgXgXgX@Xv.y y 0 h.w e v.e 7XgXgXgXgXgXgXgXgXgXgXgXgXgXgXgXgXgXgXgXgX",
"gXgXgXgXgXgXgXgXgXgXgXdX*XF.V b / ,.G S.G F.H D.5.7.`.gXgXgXgXgXgXgXgXwX-X+XOXXXOX:XaXgXgXgXgXgXgXgXgXgXgXgXgXgXgXgXgXgXgXgXgXgX",
"gXgXgXgXgXgXgXgXgXgXgXgXgX7XE.H [ b ,.G S.F.A.H.L.5.7.gXgXgXgXgXgXgXgXgXgXgXgXgXgXgXgXgXgXgXgXgXgXgXgXgXgXgXgXgXgXgXgXgXgXgXgXgX",
"gXgXgXgXgXgXgXgXgXgXgXgXgXgXiXG.H.V l c ,.J ,.S.S.5.~ tXgXgXgXgXgXgXgXgXgXgXgXgXgXgXgXgXgXgXgXgXgXgXgXgXgXgXgXgXgXgXgXgXgXgXgXgX",
"gXgXgXgXgXgXgXgXgXgXgXgXgXgXgX@Xm.R.k.l j v ,.H.D.G.P R a.p._.rXgXgXgXgXgXgXgXgXgXgXgXgXgXgXgXgXgXgXgXgXgXgXgXgXgXgXgXgXgXgXgXgX",
"gXgXgXgXgXgXgXgXgXgXgXgXgXgXgXgXgXiX&XT.,.z h b V - ; U 8.a._.6XgXgXgXgXgXgXgXgXgXgXgXgXgXgXgXgXgXgXgXgXgXgXgXgXgXgXgXgXgXgXgXgX",
"gXgXgXgXgXgXgXgXgXgXgXgXgXgXgXgXgXgXgXgX-X!.%.h o O W _ s.gXgXgXgXgXgXgXgXgXgXgXgXgXgXgXgXgXgXgXgXgXgXgXgXgXgXgXgXgXgXgXgXgXgXgX",
"gXgXgXgXgXgXgXgXgXgXgXgXgXgXgXgXgXgXgXgXgX7X~.&.c W ;.;.8.rXgXgXgXgXgXgXgXgXgXgXgXgXgXgXgXgXgXgXgXgXgXgXgXgXgXgXgXgXgXgXgXgXgXgX",
"gXgXgXgXgXgXgXgXgXgXgXgXgXgXgXgXgXgXgXgXgXgXqX&.;.+.+.=.0.y.5XgXgXgXgXgXgXgXgXgXgXgXgXgXgXgXgXgXgXgXgXgXgXgXgXgXgXgXgXgXgXgXgXgX",
"gXgXgXgXgXgXgXgXgXgXgXgXgXgXgXgXgXgXgXgXgXgXgX~.d.;.8.4.d.e.e./.5XgXgXgXgXgXgXgXgXgXgXgXgXgXgXgXgXgXgXgXgXgXgXgXgXgXgXgXgXgXgXgX",
"gXgXgXgXgXgXgXgXgXgXgXgXgXgXgXgXgXgXgXgXgXgXgXgX6.u.|.gXgXgX^.7.:.6XgXgXgXgXgXgXgXgXgXgXgXgXgXgXgXgXgXgXgXgXgXgXgXgXgXgXgXgXgXgX",
"gXgXgXgXgXgXgXgXgXgXgXgXgXgXgXgXgXgXgXgXgXgXgXgX{.6.`.gXgXgXgX2X2XgXgXgXgXgXgXgXgXgXgXgXgXgXgXgXgXgXgXgXgXgXgXgXgXgXgXgXgXgXgXgX",
"gXgXgXgXgXgXgXgXgXgXgXgXgXgXgXgXgXgXgXgXgXgXgXgXtX<Xs.gXgXgXgXgXgXgXgXgXgXgXgXgXgXgXgXgXgXgXgXgXgXgXgXgXgXgXgXgXgXgXgXgXgXgXgXgX",
"gXgXgXgXgXgXgXgXgXgXgXgXgXgXgXgXgXgXgXgXgXgXgXgXgX'.5XgXgXgXgXgXgXgXgXgXgXgXgXgXgXgXgXgXgXgXgXgXgXgXgXgXgXgXgXgXgXgXgXgXgXgXgXgX",
"gXgXgXgXgXgXgXgXgXgXgXgXgXgXgXgXgXgXgXgXgXgXgXgXgXgXgXgXgXgXgXgXgXgXgXgXgXgXgXgXgXgXgXgXgXgXgXgXgXgXgXgXgXgXgXgXgXgXgXgXgXgXgXgX",
"gXgXgXgXgXgXgXgXgXgXgXgXgXgXgXgXgXgXgXgXgXgXgXgXgXgXgXgXgXgXgXgXgXgXgXgXgXgXgXgXgXgXgXgXgXgXgXgXgXgXgXgXgXgXgXgXgXgXgXgXgXgXgXgX",
"gXgXgXgXgXgXgXgXgXgXgXgXgXgXgXgXgXgXgXgXgXgXgXgXgXgXgXgXgXgXgXgXgXgXgXgXgXgXgXgXgXgXgXgXgXgXgXgXgXgXgXgXgXgXgXgXgXgXgXgXgXgXgXgX",
"gXgXgXgXgXgXgXgXgXgXgXgXgXgXgXgXgXgXgXgXgXgXgXgXgXgXgXgXgXgXgXgXgXgXgXgXgXgXgXgXgXgXgXgXgXgXgXgXgXgXgXgXgXgXgXgXgXgXgXgXgXgXgXgX",
"gXgXgXgXgXgXgXgXgXgXgXgXgXgXgXgXgXgXgXgXgXgXgXgXgXgXgXgXgXgXgXgXgXgXgXgXgXgXgXgXgXgXgXgXgXgXgXgXgXgXgXgXgXgXgXgXgXgXgXgXgXgXgXgX",
"gXgXgXgXgXgXgXgXgXgXgXgXgXgXgXgXgXgXgXgXgXgXgXgXgXgXgXgXgXgXgXgXgXgXgXgXgXgXgXgXgXgXgXgXgXgXgXgXgXgXgXgXgXgXgXgXgXgXgXgXgXgXgXgX"
};
