<?xml version="1.0" encoding="UTF-8" standalone="no"?>
<!DOCTYPE svg PUBLIC "-//W3C//DTD SVG 1.1//EN"
 "http://www.w3.org/Graphics/SVG/1.1/DTD/svg11.dtd">
<!-- Generated by graphviz version 2.38.0 (20140413.2041)
 -->
<!-- Title: graph_15 Pages: 1 -->
<svg width="1021pt" height="224pt"
 viewBox="0.00 0.00 1021.29 224.00" xmlns="http://www.w3.org/2000/svg" xmlns:xlink="http://www.w3.org/1999/xlink">
<g id="graph0" class="graph" transform="scale(1 1) rotate(0) translate(4 220)">
<title>graph_15</title>
<polygon fill="white" stroke="none" points="-4,4 -4,-220 1017.29,-220 1017.29,4 -4,4"/>
<!-- node_15_1 -->
<g id="node1" class="node"><title>node_15_1</title>
<polygon fill="none" stroke="black" points="88.5456,-182.5 11.5456,-182.5 11.5456,-105.5 88.5456,-105.5 88.5456,-182.5"/>
<text text-anchor="middle" x="50.0456" y="-140.3" font-family="Times,serif" font-size="14.00">node_15_1</text>
</g>
<!-- node_15_2 -->
<g id="node2" class="node"><title>node_15_2</title>
<ellipse fill="none" stroke="black" cx="50.0456" cy="-18" rx="50.0912" ry="18"/>
<text text-anchor="middle" x="50.0456" y="-14.3" font-family="Times,serif" font-size="14.00">node_15_2</text>
</g>
<!-- node_15_1&#45;&gt;node_15_2 -->
<g id="edge1" class="edge"><title>node_15_1&#45;&gt;node_15_2</title>
<path fill="none" stroke="green" d="M50.0456,-105.459C50.0456,-86.3335 50.0456,-63.5094 50.0456,-46.1156"/>
<polygon fill="green" stroke="green" points="53.5457,-46.0688 50.0456,-36.0688 46.5457,-46.0689 53.5457,-46.0688"/>
</g>
<!-- node_15_3 -->
<g id="node3" class="node"><title>node_15_3</title>
<ellipse fill="none" stroke="black" cx="146.046" cy="-144" rx="39.0014" ry="72"/>
<text text-anchor="middle" x="146.046" y="-140.3" font-family="Times,serif" font-size="14.00">node_15_3</text>
</g>
<!-- node_15_4 -->
<g id="node4" class="node"><title>node_15_4</title>
<ellipse fill="none" stroke="black" cx="272.046" cy="-144" rx="69.0935" ry="25"/>
<polygon fill="none" stroke="black" points="234.046,-133 234.046,-154 310.046,-154 310.046,-133 234.046,-133"/>
<text text-anchor="start" x="237.046" y="-139.8" font-family="Times,serif" font-size="14.00">HTML table</text>
<polygon fill="none" stroke="black" points="231.046,-130.5 231.046,-157.5 313.046,-157.5 313.046,-130.5 231.046,-130.5"/>
</g>
<!-- node_15_5 -->
<g id="node5" class="node"><title>node_15_5</title>
<ellipse fill="none" stroke="black" cx="500.046" cy="-144" rx="140.929" ry="25"/>
<polygon fill="none" stroke="black" points="412.046,-133 412.046,-154 589.046,-154 589.046,-133 412.046,-133"/>
<text text-anchor="start" x="415.046" y="-139.8" font-family="Times,serif" font-size="14.00">HTML table: &#39;X&#39; &amp; &quot;Y&quot; &amp; &quot;Z&quot;</text>
<polygon fill="none" stroke="black" points="408.546,-130.5 408.546,-157.5 591.546,-157.5 591.546,-130.5 408.546,-130.5"/>
</g>
<!-- node_15_6 -->
<g id="node6" class="node"><title>node_15_6</title>
<ellipse fill="none" stroke="black" cx="746.046" cy="-144" rx="87.1846" ry="18"/>
<text text-anchor="middle" x="746.046" y="-140.3" font-family="Times,serif" font-size="14.00">Escaped quotes 1: (&quot;)</text>
</g>
<!-- node_15_7 -->
<g id="node7" class="node"><title>node_15_7</title>
<ellipse fill="none" stroke="black" cx="932.046" cy="-144" rx="81.4863" ry="18"/>
<text text-anchor="middle" x="932.046" y="-140.3" font-family="Times,serif" font-size="14.00">Escaped quotes 2: &quot;</text>
</g>
</g>
</svg>
