<?xml version="1.0" encoding="UTF-8" standalone="no"?>
<!DOCTYPE svg PUBLIC "-//W3C//DTD SVG 1.1//EN"
 "http://www.w3.org/Graphics/SVG/1.1/DTD/svg11.dtd">
<!-- Generated by graphviz version 2.38.0 (20140413.2041)
 -->
<!-- Title: graph_16_04 Pages: 1 -->
<svg width="278pt" height="116pt"
 viewBox="0.00 0.00 278.09 116.00" xmlns="http://www.w3.org/2000/svg" xmlns:xlink="http://www.w3.org/1999/xlink">
<g id="graph0" class="graph" transform="scale(1 1) rotate(0) translate(4 112)">
<title>graph_16_04</title>
<polygon fill="white" stroke="none" points="-4,4 -4,-112 274.089,-112 274.089,4 -4,4"/>
<!-- node_16_04_1 -->
<g id="node1" class="node"><title>node_16_04_1</title>
<ellipse fill="none" stroke="black" cx="63.0444" cy="-90" rx="63.0888" ry="18"/>
<text text-anchor="middle" x="63.0444" y="-86.3" font-family="Times,serif" font-size="14.00">node_16_04_1</text>
</g>
<!-- node_16_04_2 -->
<g id="node2" class="node"><title>node_16_04_2</title>
<ellipse fill="none" stroke="black" cx="63.0444" cy="-18" rx="63.0888" ry="18"/>
<text text-anchor="middle" x="63.0444" y="-14.3" font-family="Times,serif" font-size="14.00">node_16_04_2</text>
</g>
<!-- node_16_04_1&#45;&gt;node_16_04_2 -->
<g id="edge1" class="edge"><title>node_16_04_1&#45;&gt;node_16_04_2</title>
<path fill="none" stroke="black" d="M63.0444,-71.6966C63.0444,-63.9827 63.0444,-54.7125 63.0444,-46.1124"/>
<polygon fill="black" stroke="black" points="66.5445,-46.1043 63.0444,-36.1043 59.5445,-46.1044 66.5445,-46.1043"/>
</g>
<!-- node_16_04_3 -->
<g id="node3" class="node"><title>node_16_04_3</title>
<ellipse fill="none" stroke="black" cx="207.044" cy="-90" rx="63.0888" ry="18"/>
<text text-anchor="middle" x="207.044" y="-86.3" font-family="Times,serif" font-size="14.00">node_16_04_3</text>
</g>
<!-- node_16_04_4 -->
<g id="node4" class="node"><title>node_16_04_4</title>
<ellipse fill="none" stroke="black" cx="207.044" cy="-18" rx="63.0888" ry="18"/>
<text text-anchor="middle" x="207.044" y="-14.3" font-family="Times,serif" font-size="14.00">node_16_04_4</text>
</g>
<!-- node_16_04_3&#45;&gt;node_16_04_4 -->
<g id="edge2" class="edge"><title>node_16_04_3&#45;&gt;node_16_04_4</title>
<path fill="none" stroke="blue" d="M207.044,-61.6651C207.044,-56.6867 207.044,-51.4906 207.044,-46.5072"/>
<polygon fill="blue" stroke="blue" points="203.545,-61.6966 207.044,-71.6966 210.545,-61.6967 203.545,-61.6966"/>
<polygon fill="blue" stroke="blue" points="210.545,-46.1043 207.044,-36.1043 203.545,-46.1044 210.545,-46.1043"/>
</g>
</g>
</svg>
