<?xml version="1.0" encoding="UTF-8" standalone="no"?>
<!DOCTYPE svg PUBLIC "-//W3C//DTD SVG 1.1//EN"
 "http://www.w3.org/Graphics/SVG/1.1/DTD/svg11.dtd">
<!-- Generated by graphviz version 2.38.0 (20140413.2041)
 -->
<!-- Title: graph_17_02 Pages: 1 -->
<svg width="360pt" height="280pt"
 viewBox="0.00 0.00 360.00 280.08" xmlns="http://www.w3.org/2000/svg" xmlns:xlink="http://www.w3.org/1999/xlink">
<g id="graph0" class="graph" transform="scale(0.851064 0.851064) rotate(0) translate(4 325.089)">
<title>graph_17_02</title>
<polygon fill="white" stroke="none" points="-4,4 -4,-325.089 419,-325.089 419,4 -4,4"/>
<text text-anchor="end" x="243" y="-45.2" font-family="Times,serif" font-size="16.00">&quot;Standard&quot;</text>
<text text-anchor="start" x="172" y="-27.2" font-family="Times,serif" font-size="16.00">Syntax</text>
<text text-anchor="middle" x="207.5" y="-9.2" font-family="Times,serif" font-size="16.00">Test</text>
<!-- node_17_02_1 -->
<g id="node1" class="node"><title>node_17_02_1</title>
<polygon fill="none" stroke="black" points="37.5,-254.589 37.5,-290.589 169.5,-290.589 169.5,-254.589 37.5,-254.589"/>
<text text-anchor="middle" x="55" y="-268.889" font-family="Times,serif" font-size="14.00">left</text>
<polyline fill="none" stroke="black" points="72.5,-254.589 72.5,-290.589 "/>
<text text-anchor="middle" x="100" y="-268.889" font-family="Times,serif" font-size="14.00">middle</text>
<polyline fill="none" stroke="black" points="127.5,-254.589 127.5,-290.589 "/>
<text text-anchor="middle" x="148.5" y="-268.889" font-family="Times,serif" font-size="14.00">right</text>
</g>
<!-- node_17_02_2 -->
<g id="node2" class="node"><title>node_17_02_2</title>
<polygon fill="none" stroke="black" points="0,-107.044 0,-143.044 73,-143.044 73,-107.044 0,-107.044"/>
<text text-anchor="middle" x="18" y="-121.344" font-family="Times,serif" font-size="14.00">one</text>
<polyline fill="none" stroke="black" points="36,-107.044 36,-143.044 "/>
<text text-anchor="middle" x="54.5" y="-121.344" font-family="Times,serif" font-size="14.00">two</text>
</g>
<!-- node_17_02_1&#45;&gt;node_17_02_2 -->
<g id="edge1" class="edge"><title>node_17_02_1:p11&#45;&gt;node_17_02_2:p22:s</title>
<path fill="none" stroke="red" stroke-width="3" d="M54.6339,-245.519C56.0955,-202.622 69.1083,-190.168 73,-143.544 74.3494,-127.378 84.157,-118.821 73,-107.044 71.2303,-105.176 68.76,-103.574 66.1998,-102.505"/>
<ellipse fill="none" stroke="red" stroke-width="3" cx="54.5664" cy="-249.589" rx="4" ry="4"/>
<polygon fill="none" stroke="red" stroke-width="3" points="65.986,-102.57 61.4012,-108.136 54.5,-106.044 59.0848,-100.478 65.986,-102.57"/>
</g>
<!-- node_17_02_4 -->
<g id="node3" class="node"><title>node_17_02_4</title>
<polygon fill="none" stroke="black" points="285,-321.089 188,-321.089 188,-224.089 285,-224.089 285,-321.089"/>
<text text-anchor="middle" x="236.5" y="-268.889" font-family="Times,serif" font-size="14.00">node_17_02_4</text>
</g>
<!-- node_17_02_5 -->
<g id="node4" class="node"><title>node_17_02_5</title>
<ellipse fill="none" stroke="black" cx="236.5" cy="-125.044" rx="63.0888" ry="63.0888"/>
<text text-anchor="middle" x="236.5" y="-121.344" font-family="Times,serif" font-size="14.00">node_17_02_5</text>
</g>
<!-- node_17_02_4&#45;&gt;node_17_02_5 -->
<g id="edge2" class="edge"><title>node_17_02_4&#45;&gt;node_17_02_5</title>
<path fill="none" stroke="green" stroke-width="3" d="M236.5,-213.807C236.5,-208.662 236.5,-203.413 236.5,-198.169"/>
<polygon fill="green" stroke="green" stroke-width="3" points="236.5,-223.932 232,-213.932 235.5,-218.932 235.5,-213.932 236.5,-213.932 237.5,-213.932 236.5,-223.932"/>
<polygon fill="none" stroke="green" stroke-width="3" points="240,-198.118 236.5,-188.118 233,-198.118 240,-198.118"/>
</g>
<!-- node_17_02_6 -->
<g id="node5" class="node"><title>node_17_02_6</title>
<polygon fill="none" stroke="black" points="415,-321.089 318,-321.089 318,-224.089 415,-224.089 415,-321.089"/>
<text text-anchor="middle" x="366.5" y="-268.889" font-family="Times,serif" font-size="14.00">node_17_02_6</text>
</g>
<!-- node_17_02_7 -->
<g id="node6" class="node"><title>node_17_02_7</title>
<polygon fill="none" stroke="black" points="415,-173.544 318,-173.544 318,-76.5444 415,-76.5444 415,-173.544"/>
<text text-anchor="middle" x="366.5" y="-121.344" font-family="Times,serif" font-size="14.00">node_17_02_7</text>
</g>
<!-- node_17_02_6&#45;&gt;node_17_02_7 -->
<g id="edge3" class="edge"><title>node_17_02_6&#45;&gt;node_17_02_7</title>
<path fill="none" stroke="blue" stroke-width="3" d="M366.5,-213.932C366.5,-204.062 366.5,-193.804 366.5,-183.929"/>
<polygon fill="none" stroke="blue" stroke-width="3" points="363,-213.932 366.5,-223.932 370,-213.932 363,-213.932"/>
<polygon fill="blue" stroke="blue" stroke-width="3" points="366.5,-173.808 371,-183.808 367.5,-178.808 367.5,-183.808 366.5,-183.808 365.5,-183.808 366.5,-173.808"/>
</g>
</g>
</svg>
