<?xml version="1.0" encoding="UTF-8" standalone="no"?>
<!DOCTYPE svg PUBLIC "-//W3C//DTD SVG 1.1//EN"
 "http://www.w3.org/Graphics/SVG/1.1/DTD/svg11.dtd">
<!-- Generated by graphviz version 2.38.0 (20140413.2041)
 -->
<!-- Title: graph_17_01 Pages: 1 -->
<svg width="156pt" height="151pt"
 viewBox="0.00 0.00 155.82 150.67" xmlns="http://www.w3.org/2000/svg" xmlns:xlink="http://www.w3.org/1999/xlink">
<g id="graph0" class="graph" transform="scale(1 1) rotate(0) translate(4 146.667)">
<title>graph_17_01</title>
<polygon fill="white" stroke="none" points="-4,4 -4,-146.667 151.819,-146.667 151.819,4 -4,4"/>
<!-- node_17_01_1 -->
<g id="node1" class="node"><title>node_17_01_1</title>
<polygon fill="none" stroke="black" points="7.95871,-87.8941 7.95871,-123.894 139.959,-123.894 139.959,-87.8941 7.95871,-87.8941"/>
<text text-anchor="middle" x="25.4587" y="-102.194" font-family="Times,serif" font-size="14.00">left</text>
<polyline fill="none" stroke="black" points="42.9587,-87.8941 42.9587,-123.894 "/>
<text text-anchor="middle" x="70.4587" y="-102.194" font-family="Times,serif" font-size="14.00">middle</text>
<polyline fill="none" stroke="black" points="97.9587,-87.8941 97.9587,-123.894 "/>
<text text-anchor="middle" x="118.959" y="-102.194" font-family="Times,serif" font-size="14.00">right</text>
</g>
<!-- node_17_01_2 -->
<g id="node2" class="node"><title>node_17_01_2</title>
<polygon fill="none" stroke="black" points="64.4587,-14.8941 64.4587,-50.8941 137.459,-50.8941 137.459,-14.8941 64.4587,-14.8941"/>
<text text-anchor="middle" x="82.4587" y="-29.1941" font-family="Times,serif" font-size="14.00">one</text>
<polyline fill="none" stroke="black" points="100.459,-14.8941 100.459,-50.8941 "/>
<text text-anchor="middle" x="118.959" y="-29.1941" font-family="Times,serif" font-size="14.00">two</text>
</g>
<!-- node_17_01_1&#45;&gt;node_17_01_2 -->
<g id="edge1" class="edge"><title>node_17_01_1:p12:n&#45;&gt;node_17_01_2:p22</title>
<path fill="none" stroke="blue" d="M67.354,-134.84C57.8052,-149.57 24.419,-140.622 7.95871,-123.894 -3.41926,-112.331 -1.58,-100.516 7.95871,-87.3941 36.0719,-48.7216 106.685,-94.8328 117.547,-61.6412"/>
<polygon fill="none" stroke="blue" points="70.811,-135.455 69.9587,-124.894 64.0394,-133.681 70.811,-135.455"/>
<polygon fill="blue" stroke="blue" points="118.959,-51.3941 122.052,-61.9148 118.276,-56.3473 117.594,-61.3006 117.594,-61.3006 117.594,-61.3006 118.959,-51.3941"/>
</g>
<!-- node_17_01_1&#45;&gt;node_17_01_2 -->
<g id="edge2" class="edge"><title>node_17_01_1:p13&#45;&gt;node_17_01_2:p22:s</title>
<path fill="none" stroke="green" d="M125.487,-70.4943C129.83,-65.4462 135.146,-60.9561 137.459,-51.3941 141.273,-35.6267 148.616,-26.6705 137.459,-14.8941 134.45,-11.7186 129.417,-9.31089 125.359,-8.98604"/>
<polygon fill="green" stroke="green" points="115.694,-86.1329 122.562,-78.0659 122.224,-88.6553 115.694,-86.1329"/>
<ellipse fill="green" stroke="green" cx="124.004" cy="-74.3346" rx="4.00001" ry="4.00001"/>
<ellipse fill="green" stroke="green" cx="122.133" cy="-11.4601" rx="4.00002" ry="4.00002"/>
</g>
<!-- node_17_01_1&#45;&gt;node_17_01_2 -->
<g id="edge3" class="edge"><title>node_17_01_1:p13:ne&#45;&gt;node_17_01_2:p21:s</title>
<path fill="none" stroke="red" d="M147.746,-118.312C147.891,-109.119 144.823,-95.1023 139.959,-87.3941 120.12,-55.9555 84.2978,-82.8328 64.4587,-51.3941 27.161,7.71093 71.8379,6.00356 80.5427,-8.89847"/>
<polygon fill="red" stroke="red" points="147.596,-118.439 137.054,-121.457 143.777,-121.667 139.959,-124.894 139.959,-124.894 139.959,-124.894 143.777,-121.667 142.864,-128.331 147.596,-118.439 147.596,-118.439"/>
<polygon fill="red" stroke="red" points="86.4965,-11.5684 76.8755,-14.2956 76.3301,-12.3714 85.951,-9.64424 86.4965,-11.5684"/>
<polyline fill="none" stroke="red" points="81.9587,-13.8941 80.5951,-9.08365 "/>
</g>
</g>
</svg>
