<?xml version="1.0" encoding="UTF-8" standalone="no"?>
<!DOCTYPE svg PUBLIC "-//W3C//DTD SVG 1.1//EN"
 "http://www.w3.org/Graphics/SVG/1.1/DTD/svg11.dtd">
<!-- Generated by graphviz version 2.38.0 (20140413.2041)
 -->
<!-- Title: graph_18 Pages: 1 -->
<svg width="478pt" height="227pt"
 viewBox="0.00 0.00 478.05 227.00" xmlns="http://www.w3.org/2000/svg" xmlns:xlink="http://www.w3.org/1999/xlink">
<g id="graph0" class="graph" transform="scale(1 1) rotate(0) translate(4 223)">
<title>graph_18</title>
<polygon fill="white" stroke="none" points="-4,4 -4,-223 474.046,-223 474.046,4 -4,4"/>
<text text-anchor="middle" x="235.023" y="-7.8" font-family="Times,serif" font-size="14.00">dot &#45; graphviz version 2.38.0 (20140413.2041), with local patches from Emden</text>
<g id="clust1" class="cluster"><title>cluster_18_1</title>
<polygon fill="none" stroke="black" points="8,-159 8,-211 242,-211 242,-159 8,-159"/>
</g>
<!-- node_18_2 -->
<g id="node1" class="node"><title>node_18_2</title>
<ellipse fill="red" stroke="black" cx="184" cy="-185" rx="50.0912" ry="18"/>
<text text-anchor="middle" x="184" y="-181.3" font-family="Times,serif" font-size="14.00">node_18_2</text>
</g>
<!-- node_18_4 -->
<g id="node3" class="node"><title>node_18_4</title>
<ellipse fill="green" stroke="black" cx="66" cy="-113" rx="50.0912" ry="18"/>
<text text-anchor="middle" x="66" y="-109.3" font-family="Times,serif" font-size="14.00">node_18_4</text>
</g>
<!-- node_18_2&#45;&gt;node_18_4 -->
<g id="edge1" class="edge"><title>node_18_2&#45;&gt;node_18_4</title>
<path fill="none" stroke="green" d="M150.588,-164.179C134.666,-154.734 115.661,-143.46 99.7021,-133.993"/>
<polygon fill="green" stroke="green" points="159.263,-169.326 148.367,-168.094 154.963,-166.775 150.663,-164.224 150.663,-164.224 150.663,-164.224 159.263,-169.326"/>
<polygon fill="none" stroke="green" points="101.09,-130.747 90.7041,-128.655 97.5189,-136.767 101.09,-130.747"/>
</g>
<!-- node_18_5 -->
<g id="node4" class="node"><title>node_18_5</title>
<ellipse fill="green" stroke="black" cx="184" cy="-113" rx="50.0912" ry="18"/>
<text text-anchor="middle" x="184" y="-109.3" font-family="Times,serif" font-size="14.00">node_18_5</text>
</g>
<!-- node_18_2&#45;&gt;node_18_5 -->
<g id="edge2" class="edge"><title>node_18_2&#45;&gt;node_18_5</title>
<path fill="none" stroke="green" d="M184,-156.665C184,-151.687 184,-146.491 184,-141.507"/>
<polygon fill="green" stroke="green" points="184,-166.697 179.5,-156.697 184,-161.697 184,-156.697 184,-156.697 184,-156.697 184,-166.697"/>
<polygon fill="none" stroke="green" points="187.5,-141.104 184,-131.104 180.5,-141.104 187.5,-141.104"/>
</g>
<!-- node_18_3 -->
<g id="node2" class="node"><title>node_18_3</title>
<ellipse fill="red" stroke="black" cx="66" cy="-185" rx="50.0912" ry="18"/>
<text text-anchor="middle" x="66" y="-181.3" font-family="Times,serif" font-size="14.00">node_18_3</text>
</g>
<!-- node_18_3&#45;&gt;node_18_4 -->
<g id="edge3" class="edge"><title>node_18_3&#45;&gt;node_18_4</title>
<path fill="none" stroke="green" d="M66,-156.665C66,-151.687 66,-146.491 66,-141.507"/>
<polygon fill="green" stroke="green" points="66,-166.697 61.5001,-156.697 66,-161.697 66.0001,-156.697 66.0001,-156.697 66.0001,-156.697 66,-166.697"/>
<polygon fill="none" stroke="green" points="69.5001,-141.104 66,-131.104 62.5001,-141.104 69.5001,-141.104"/>
</g>
<!-- node_18_3&#45;&gt;node_18_5 -->
<g id="edge4" class="edge"><title>node_18_3&#45;&gt;node_18_5</title>
<path fill="none" stroke="green" d="M99.4122,-164.179C115.334,-154.734 134.339,-143.46 150.298,-133.993"/>
<polygon fill="green" stroke="green" points="90.7367,-169.326 97.0413,-160.353 95.0369,-166.775 99.3372,-164.224 99.3372,-164.224 99.3372,-164.224 90.7367,-169.326"/>
<polygon fill="none" stroke="green" points="152.481,-136.767 159.296,-128.655 148.91,-130.747 152.481,-136.767"/>
</g>
<!-- cluster_18_6 -->
<g id="node5" class="node"><title>cluster_18_6</title>
<ellipse fill="lightgrey" stroke="black" cx="125" cy="-41" rx="55.7903" ry="18"/>
<text text-anchor="middle" x="125" y="-37.3" font-family="Times,serif" font-size="14.00">cluster_18_6</text>
</g>
<!-- node_18_4&#45;&gt;cluster_18_6 -->
<g id="edge5" class="edge"><title>node_18_4&#45;&gt;cluster_18_6</title>
<path fill="none" stroke="green" d="M86.5148,-87.6605C92.36,-80.7254 98.7255,-73.1731 104.566,-66.2438"/>
<polygon fill="green" stroke="green" points="79.9822,-95.411 82.9861,-84.8645 83.2046,-91.5878 86.4269,-87.7647 86.4269,-87.7647 86.4269,-87.7647 79.9822,-95.411"/>
<polygon fill="none" stroke="green" points="107.35,-68.3719 111.118,-58.4699 101.997,-63.8606 107.35,-68.3719"/>
</g>
<!-- node_18_5&#45;&gt;cluster_18_6 -->
<g id="edge6" class="edge"><title>node_18_5&#45;&gt;cluster_18_6</title>
<path fill="none" stroke="green" d="M163.485,-87.6605C157.64,-80.7254 151.274,-73.1731 145.434,-66.2438"/>
<polygon fill="green" stroke="green" points="170.018,-95.411 160.132,-90.6648 166.795,-91.5878 163.573,-87.7647 163.573,-87.7647 163.573,-87.7647 170.018,-95.411"/>
<polygon fill="none" stroke="green" points="148.003,-63.8606 138.882,-58.4699 142.65,-68.3719 148.003,-63.8606"/>
</g>
<!-- node_18_7 -->
<g id="node6" class="node"><title>node_18_7</title>
<ellipse fill="blue" stroke="black" cx="302" cy="-185" rx="50.0912" ry="18"/>
<text text-anchor="middle" x="302" y="-181.3" font-family="Times,serif" font-size="14.00">node_18_7</text>
</g>
<!-- node_18_9 -->
<g id="node8" class="node"><title>node_18_9</title>
<ellipse fill="yellow" stroke="black" cx="302" cy="-113" rx="50.0912" ry="18"/>
<text text-anchor="middle" x="302" y="-109.3" font-family="Times,serif" font-size="14.00">node_18_9</text>
</g>
<!-- node_18_7&#45;&gt;node_18_9 -->
<g id="edge7" class="edge"><title>node_18_7&#45;&gt;node_18_9</title>
<path fill="none" stroke="blue" d="M302,-156.665C302,-151.687 302,-146.491 302,-141.507"/>
<polygon fill="none" stroke="blue" points="298.5,-156.697 302,-166.697 305.5,-156.697 298.5,-156.697"/>
<polygon fill="blue" stroke="blue" points="302,-131.104 306.5,-141.104 302,-136.104 302,-141.104 302,-141.104 302,-141.104 302,-131.104"/>
</g>
<!-- node_18_8 -->
<g id="node7" class="node"><title>node_18_8</title>
<ellipse fill="blue" stroke="black" cx="420" cy="-185" rx="50.0912" ry="18"/>
<text text-anchor="middle" x="420" y="-181.3" font-family="Times,serif" font-size="14.00">node_18_8</text>
</g>
<!-- node_18_8&#45;&gt;node_18_9 -->
<g id="edge8" class="edge"><title>node_18_8&#45;&gt;node_18_9</title>
<path fill="none" stroke="blue" d="M386.588,-164.179C370.666,-154.734 351.661,-143.46 335.702,-133.993"/>
<polygon fill="none" stroke="blue" points="384.877,-167.234 395.263,-169.326 388.448,-161.213 384.877,-167.234"/>
<polygon fill="blue" stroke="blue" points="326.704,-128.655 337.601,-129.887 331.004,-131.206 335.305,-133.757 335.305,-133.757 335.305,-133.757 326.704,-128.655"/>
</g>
</g>
</svg>
