<?xml version="1.0" encoding="UTF-8" standalone="no"?>
<!DOCTYPE svg PUBLIC "-//W3C//DTD SVG 1.1//EN"
 "http://www.w3.org/Graphics/SVG/1.1/DTD/svg11.dtd">
<!-- Generated by graphviz version 2.38.0 (20140413.2041)
 -->
<!-- Title: graph_19 Pages: 1 -->
<svg width="432pt" height="252pt"
 viewBox="0.00 0.00 432.00 251.79" xmlns="http://www.w3.org/2000/svg" xmlns:xlink="http://www.w3.org/1999/xlink">
<g id="graph0" class="graph" transform="scale(0.56917 0.56917) rotate(0) translate(4 438.384)">
<title>graph_19</title>
<polygon fill="white" stroke="none" points="-4,4 -4,-438.384 755,-438.384 755,4 -4,4"/>
<!-- node_19_1 -->
<g id="node1" class="node"><title>node_19_1</title>
<polygon fill="none" stroke="black" points="77,-377.023 0,-377.023 0,-300.023 77,-300.023 77,-377.023"/>
<text text-anchor="middle" x="38.5" y="-334.823" font-family="Times,serif" font-size="14.00">node_19_1</text>
</g>
<!-- node_19_2 -->
<g id="node2" class="node"><title>node_19_2</title>
<polygon fill="none" stroke="black" points="77,-141.831 0,-141.831 0,-64.8308 77,-64.8308 77,-141.831"/>
<text text-anchor="middle" x="38.5" y="-99.6308" font-family="Times,serif" font-size="14.00">node_19_2</text>
</g>
<!-- node_19_1&#45;&gt;node_19_2 -->
<g id="edge1" class="edge"><title>node_19_1&#45;&gt;node_19_2</title>
<path fill="none" stroke="red" d="M38.5,-299.797C38.5,-259.581 38.5,-195.798 38.5,-152.101"/>
<polygon fill="red" stroke="red" points="42.0001,-152.002 38.5,-142.002 35.0001,-152.002 42.0001,-152.002"/>
</g>
<!-- node_19_4 -->
<g id="node3" class="node"><title>node_19_4</title>
<polygon fill="none" stroke="black" points="296.089,-361.12 219.246,-361.12 195.5,-434.245 171.754,-361.12 94.911,-361.12 157.078,-315.926 133.333,-242.8 195.5,-287.994 257.667,-242.8 233.922,-315.926 296.089,-361.12"/>
<text text-anchor="middle" x="195.5" y="-334.823" font-family="Times,serif" font-size="14.00">node_19_4</text>
</g>
<!-- node_19_5 -->
<g id="node4" class="node"><title>node_19_5</title>
<polygon fill="none" stroke="black" points="296.089,-125.928 219.246,-125.928 195.5,-199.053 171.754,-125.928 94.911,-125.928 157.078,-80.7338 133.333,-7.60841 195.5,-52.8024 257.667,-7.60841 233.922,-80.7338 296.089,-125.928"/>
<text text-anchor="middle" x="195.5" y="-99.6308" font-family="Times,serif" font-size="14.00">node_19_5</text>
</g>
<!-- node_19_4&#45;&gt;node_19_5 -->
<g id="edge2" class="edge"><title>node_19_4&#45;&gt;node_19_5</title>
<path fill="none" stroke="green" d="M195.5,-287.783C195.5,-265.01 195.5,-237.098 195.5,-209.982"/>
<polygon fill="green" stroke="green" points="199,-209.641 195.5,-199.641 192,-209.641 199,-209.641"/>
</g>
<!-- node_19_7 -->
<g id="node5" class="node"><title>node_19_7</title>
<ellipse fill="none" stroke="black" cx="364.5" cy="-338.523" rx="50.0912" ry="50.0912"/>
<text text-anchor="middle" x="364.5" y="-334.823" font-family="Times,serif" font-size="14.00">node_19_7</text>
</g>
<!-- node_19_8 -->
<g id="node6" class="node"><title>node_19_8</title>
<ellipse fill="none" stroke="black" cx="364.5" cy="-103.331" rx="50.0912" ry="50.0912"/>
<text text-anchor="middle" x="364.5" y="-99.6308" font-family="Times,serif" font-size="14.00">node_19_8</text>
</g>
<!-- node_19_7&#45;&gt;node_19_8 -->
<g id="edge3" class="edge"><title>node_19_7&#45;&gt;node_19_8</title>
<path fill="none" stroke="blue" d="M364.5,-288.354C364.5,-251.923 364.5,-202.111 364.5,-163.498"/>
<polygon fill="blue" stroke="blue" points="368,-163.433 364.5,-153.433 361,-163.433 368,-163.433"/>
</g>
<!-- node_19_9 -->
<g id="node7" class="node"><title>node_19_9</title>
<polygon fill="none" stroke="black" points="642.089,-361.12 565.246,-361.12 541.5,-434.245 517.754,-361.12 440.911,-361.12 503.078,-315.926 479.333,-242.8 541.5,-287.994 603.667,-242.8 579.922,-315.926 642.089,-361.12"/>
<text text-anchor="middle" x="541.5" y="-334.823" font-family="Times,serif" font-size="14.00">node_19_9</text>
</g>
<!-- node_19_10 -->
<g id="node8" class="node"><title>node_19_10</title>
<polygon fill="none" stroke="black" points="650.297,-127.684 567.183,-127.684 541.5,-206.493 515.817,-127.684 432.703,-127.684 499.943,-78.9776 474.26,-0.168945 541.5,-48.8754 608.74,-0.168945 583.057,-78.9776 650.297,-127.684"/>
<text text-anchor="middle" x="541.5" y="-99.6308" font-family="Times,serif" font-size="14.00">node_19_10</text>
</g>
<!-- node_19_9&#45;&gt;node_19_10 -->
<g id="edge4" class="edge"><title>node_19_9&#45;&gt;node_19_10</title>
<path fill="none" stroke="green" d="M541.5,-287.783C541.5,-266.974 541.5,-241.875 541.5,-217.012"/>
<polygon fill="green" stroke="green" points="545,-216.761 541.5,-206.761 538,-216.761 545,-216.761"/>
</g>
<!-- node_19_11 -->
<g id="node9" class="node"><title>node_19_11</title>
<polygon fill="none" stroke="black" points="751,-380.023 668,-380.023 668,-297.023 751,-297.023 751,-380.023"/>
<text text-anchor="middle" x="709.5" y="-334.823" font-family="Times,serif" font-size="14.00">node_19_11</text>
</g>
<!-- node_19_12 -->
<g id="node10" class="node"><title>node_19_12</title>
<polygon fill="none" stroke="black" points="751,-144.831 668,-144.831 668,-61.8308 751,-61.8308 751,-144.831"/>
<text text-anchor="middle" x="709.5" y="-99.6308" font-family="Times,serif" font-size="14.00">node_19_12</text>
</g>
<!-- node_19_11&#45;&gt;node_19_12 -->
<g id="edge5" class="edge"><title>node_19_11&#45;&gt;node_19_12</title>
<path fill="none" stroke="red" d="M709.5,-296.904C709.5,-257.484 709.5,-197.541 709.5,-155.017"/>
<polygon fill="red" stroke="red" points="713,-154.875 709.5,-144.875 706,-154.875 713,-154.875"/>
</g>
</g>
</svg>
