<?xml version="1.0" encoding="UTF-8" standalone="no"?>
<!DOCTYPE svg PUBLIC "-//W3C//DTD SVG 1.1//EN"
 "http://www.w3.org/Graphics/SVG/1.1/DTD/svg11.dtd">
<!-- Generated by graphviz version 2.38.0 (20140413.2041)
 -->
<!-- Title: graph_29_01 Pages: 1 -->
<svg width="437pt" height="171pt"
 viewBox="0.00 0.00 437.00 171.00" xmlns="http://www.w3.org/2000/svg" xmlns:xlink="http://www.w3.org/1999/xlink">
<g id="graph0" class="graph" transform="scale(1 1) rotate(0) translate(4 167)">
<title>graph_29_01</title>
<polygon fill="white" stroke="none" points="-4,4 -4,-167 433,-167 433,4 -4,4"/>
<g id="clust3" class="cluster"><title>cluster_seven</title>
<polygon fill="none" stroke="black" points="331,-8 331,-155 421,-155 421,-8 331,-8"/>
<text text-anchor="middle" x="376" y="-139.8" font-family="Times,serif" font-size="14.00">cluster_seven</text>
</g>
<!-- one -->
<g id="node1" class="node"><title>one</title>
<ellipse fill="none" stroke="black" cx="27" cy="-106" rx="27" ry="18"/>
<text text-anchor="middle" x="27" y="-102.3" font-family="Times,serif" font-size="14.00">one</text>
</g>
<!-- two -->
<g id="node2" class="node"><title>two</title>
<ellipse fill="none" stroke="black" cx="99" cy="-106" rx="27" ry="18"/>
<text text-anchor="middle" x="99" y="-102.3" font-family="Times,serif" font-size="14.00">two</text>
</g>
<!-- three -->
<g id="node3" class="node"><title>three</title>
<ellipse fill="none" stroke="black" cx="99" cy="-34" rx="28.6953" ry="18"/>
<text text-anchor="middle" x="99" y="-30.3" font-family="Times,serif" font-size="14.00">three</text>
</g>
<!-- two&#45;&gt;three -->
<g id="edge1" class="edge"><title>two&#45;&gt;three</title>
<path fill="none" stroke="black" d="M99,-87.6966C99,-79.9827 99,-70.7125 99,-62.1124"/>
<polygon fill="black" stroke="black" points="102.5,-62.1043 99,-52.1043 95.5001,-62.1044 102.5,-62.1043"/>
</g>
<!-- cluster_four -->
<g id="node4" class="node"><title>cluster_four</title>
<ellipse fill="none" stroke="black" cx="197" cy="-106" rx="53.0913" ry="18"/>
<text text-anchor="middle" x="197" y="-102.3" font-family="Times,serif" font-size="14.00">cluster_four</text>
</g>
<!-- five -->
<g id="node5" class="node"><title>five</title>
<ellipse fill="none" stroke="black" cx="295" cy="-106" rx="27" ry="18"/>
<text text-anchor="middle" x="295" y="-102.3" font-family="Times,serif" font-size="14.00">five</text>
</g>
<!-- six -->
<g id="node6" class="node"><title>six</title>
<ellipse fill="none" stroke="black" cx="295" cy="-34" rx="27" ry="18"/>
<text text-anchor="middle" x="295" y="-30.3" font-family="Times,serif" font-size="14.00">six</text>
</g>
<!-- five&#45;&gt;six -->
<g id="edge2" class="edge"><title>five&#45;&gt;six</title>
<path fill="none" stroke="black" d="M295,-87.6966C295,-79.9827 295,-70.7125 295,-62.1124"/>
<polygon fill="black" stroke="black" points="298.5,-62.1043 295,-52.1043 291.5,-62.1044 298.5,-62.1043"/>
</g>
<!-- eight -->
<g id="node7" class="node"><title>eight</title>
<ellipse fill="none" stroke="black" cx="376" cy="-106" rx="28.6953" ry="18"/>
<text text-anchor="middle" x="376" y="-102.3" font-family="Times,serif" font-size="14.00">eight</text>
</g>
<!-- nine -->
<g id="node8" class="node"><title>nine</title>
<ellipse fill="none" stroke="black" cx="376" cy="-34" rx="27" ry="18"/>
<text text-anchor="middle" x="376" y="-30.3" font-family="Times,serif" font-size="14.00">nine</text>
</g>
<!-- eight&#45;&gt;nine -->
<g id="edge3" class="edge"><title>eight&#45;&gt;nine</title>
<path fill="none" stroke="black" d="M376,-87.6966C376,-79.9827 376,-70.7125 376,-62.1124"/>
<polygon fill="black" stroke="black" points="379.5,-62.1043 376,-52.1043 372.5,-62.1044 379.5,-62.1043"/>
</g>
</g>
</svg>
