<?xml version="1.0" encoding="UTF-8" standalone="no"?>
<!DOCTYPE svg PUBLIC "-//W3C//DTD SVG 1.1//EN"
 "http://www.w3.org/Graphics/SVG/1.1/DTD/svg11.dtd">
<!-- Generated by graphviz version 2.38.0 (20140413.2041)
 -->
<!-- Title: graph_46 Pages: 1 -->
<svg width="452pt" height="44pt"
 viewBox="0.00 0.00 451.55 44.00" xmlns="http://www.w3.org/2000/svg" xmlns:xlink="http://www.w3.org/1999/xlink">
<g id="graph0" class="graph" transform="scale(1 1) rotate(0) translate(4 40)">
<title>graph_46</title>
<polygon fill="white" stroke="none" points="-4,4 -4,-40 447.547,-40 447.547,4 -4,4"/>
<!-- course -->
<g id="node1" class="node"><title>course</title>
<polygon fill="none" stroke="black" points="54,-36 0,-36 0,-0 54,-0 54,-36"/>
<text text-anchor="middle" x="27" y="-14.3" font-family="Times,serif" font-size="14.00">course</text>
</g>
<!-- institute -->
<g id="node2" class="node"><title>institute</title>
<polygon fill="none" stroke="black" points="132,-36 72,-36 72,-0 132,-0 132,-36"/>
<text text-anchor="middle" x="102" y="-14.3" font-family="Times,serif" font-size="14.00">institute</text>
</g>
<!-- student -->
<g id="node3" class="node"><title>student</title>
<polygon fill="none" stroke="black" points="206,-36 150,-36 150,-0 206,-0 206,-36"/>
<text text-anchor="middle" x="178" y="-14.3" font-family="Times,serif" font-size="14.00">student</text>
</g>
<!-- name0 -->
<g id="node4" class="node"><title>name0</title>
<ellipse fill="none" stroke="black" cx="255" cy="-18" rx="30.5947" ry="18"/>
<text text-anchor="middle" x="255" y="-14.3" font-family="Times,serif" font-size="14.00">name</text>
</g>
<!-- name1 -->
<g id="node5" class="node"><title>name1</title>
<ellipse fill="none" stroke="black" cx="334" cy="-18" rx="30.5947" ry="18"/>
<text text-anchor="middle" x="334" y="-14.3" font-family="Times,serif" font-size="14.00">name</text>
</g>
<!-- name2 -->
<g id="node6" class="node"><title>name2</title>
<ellipse fill="none" stroke="black" cx="413" cy="-18" rx="30.5947" ry="18"/>
<text text-anchor="middle" x="413" y="-14.3" font-family="Times,serif" font-size="14.00">name</text>
</g>
</g>
</svg>
