<?xml version="1.0" encoding="UTF-8" standalone="no"?>
<!DOCTYPE svg PUBLIC "-//W3C//DTD SVG 1.1//EN"
 "http://www.w3.org/Graphics/SVG/1.1/DTD/svg11.dtd">
<!-- Generated by graphviz version 2.38.0 (20140413.2041)
 -->
<!-- Title: graph_47_01 Pages: 1 -->
<svg width="260pt" height="116pt"
 viewBox="0.00 0.00 259.84 116.00" xmlns="http://www.w3.org/2000/svg" xmlns:xlink="http://www.w3.org/1999/xlink">
<g id="graph0" class="graph" transform="scale(1 1) rotate(0) translate(4 112)">
<title>graph_47_01</title>
<polygon fill="white" stroke="none" points="-4,4 -4,-112 255.844,-112 255.844,4 -4,4"/>
<!-- big -->
<g id="node1" class="node"><title>big</title>
<ellipse fill="none" stroke="black" cx="116.547" cy="-90" rx="27" ry="18"/>
<text text-anchor="middle" x="116.547" y="-86.3" font-family="Times,serif" font-size="14.00">big</text>
</g>
<!-- small -->
<g id="node2" class="node"><title>small</title>
<ellipse fill="none" stroke="black" cx="30.5473" cy="-18" rx="30.5947" ry="18"/>
<text text-anchor="middle" x="30.5473" y="-14.3" font-family="Times,serif" font-size="14.00">small</text>
</g>
<!-- big&#45;&gt;small -->
<g id="edge1" class="edge"><title>big&#45;&gt;small</title>
<path fill="none" stroke="black" d="M99.9656,-75.5033C87.3986,-65.2744 69.9164,-51.0447 55.6404,-39.4246"/>
<polygon fill="black" stroke="black" points="57.6318,-36.5327 47.6667,-32.9344 53.2129,-41.9616 57.6318,-36.5327"/>
</g>
<!-- smaller -->
<g id="node3" class="node"><title>smaller</title>
<ellipse fill="none" stroke="black" cx="116.547" cy="-18" rx="37.0935" ry="18"/>
<text text-anchor="middle" x="116.547" y="-14.3" font-family="Times,serif" font-size="14.00">smaller</text>
</g>
<!-- big&#45;&gt;smaller -->
<g id="edge2" class="edge"><title>big&#45;&gt;smaller</title>
<path fill="none" stroke="black" d="M116.547,-71.6966C116.547,-63.9827 116.547,-54.7125 116.547,-46.1124"/>
<polygon fill="black" stroke="black" points="120.047,-46.1043 116.547,-36.1043 113.047,-46.1044 120.047,-46.1043"/>
</g>
<!-- smallest -->
<g id="node4" class="node"><title>smallest</title>
<ellipse fill="none" stroke="black" cx="211.547" cy="-18" rx="40.0939" ry="18"/>
<text text-anchor="middle" x="211.547" y="-14.3" font-family="Times,serif" font-size="14.00">smallest</text>
</g>
<!-- big&#45;&gt;smallest -->
<g id="edge3" class="edge"><title>big&#45;&gt;smallest</title>
<path fill="none" stroke="black" d="M133.972,-76.1609C147.711,-66.037 167.154,-51.7107 183.138,-39.9334"/>
<polygon fill="black" stroke="black" points="185.629,-42.4454 191.603,-33.6956 181.476,-36.8099 185.629,-42.4454"/>
</g>
</g>
</svg>
