<?xml version="1.0" encoding="UTF-8" standalone="no"?>
<!DOCTYPE svg PUBLIC "-//W3C//DTD SVG 1.1//EN"
 "http://www.w3.org/Graphics/SVG/1.1/DTD/svg11.dtd">
<!-- Generated by graphviz version 2.38.0 (20140413.2041)
 -->
<!-- Title: graph_47_02 Pages: 1 -->
<svg width="260pt" height="116pt"
 viewBox="0.00 0.00 259.84 116.00" xmlns="http://www.w3.org/2000/svg" xmlns:xlink="http://www.w3.org/1999/xlink">
<g id="graph0" class="graph" transform="scale(1 1) rotate(0) translate(4 112)">
<title>graph_47_02</title>
<polygon fill="white" stroke="none" points="-4,4 -4,-112 255.844,-112 255.844,4 -4,4"/>
<!-- small -->
<g id="node1" class="node"><title>small</title>
<ellipse fill="none" stroke="black" cx="30.5473" cy="-90" rx="30.5947" ry="18"/>
<text text-anchor="middle" x="30.5473" y="-86.3" font-family="Times,serif" font-size="14.00">small</text>
</g>
<!-- big -->
<g id="node4" class="node"><title>big</title>
<ellipse fill="none" stroke="black" cx="116.547" cy="-18" rx="27" ry="18"/>
<text text-anchor="middle" x="116.547" y="-14.3" font-family="Times,serif" font-size="14.00">big</text>
</g>
<!-- small&#45;&gt;big -->
<g id="edge1" class="edge"><title>small&#45;&gt;big</title>
<path fill="none" stroke="black" d="M47.9507,-74.8345C60.6695,-64.4819 78.086,-50.3057 92.1866,-38.8284"/>
<polygon fill="black" stroke="black" points="94.499,-41.4592 100.045,-32.432 90.08,-36.0303 94.499,-41.4592"/>
</g>
<!-- smaller -->
<g id="node2" class="node"><title>smaller</title>
<ellipse fill="none" stroke="black" cx="116.547" cy="-90" rx="37.0935" ry="18"/>
<text text-anchor="middle" x="116.547" y="-86.3" font-family="Times,serif" font-size="14.00">smaller</text>
</g>
<!-- smaller&#45;&gt;big -->
<g id="edge2" class="edge"><title>smaller&#45;&gt;big</title>
<path fill="none" stroke="black" d="M116.547,-71.6966C116.547,-63.9827 116.547,-54.7125 116.547,-46.1124"/>
<polygon fill="black" stroke="black" points="120.047,-46.1043 116.547,-36.1043 113.047,-46.1044 120.047,-46.1043"/>
</g>
<!-- smallest -->
<g id="node3" class="node"><title>smallest</title>
<ellipse fill="none" stroke="black" cx="211.547" cy="-90" rx="40.0939" ry="18"/>
<text text-anchor="middle" x="211.547" y="-86.3" font-family="Times,serif" font-size="14.00">smallest</text>
</g>
<!-- smallest&#45;&gt;big -->
<g id="edge3" class="edge"><title>smallest&#45;&gt;big</title>
<path fill="none" stroke="black" d="M191.4,-74.1548C177.062,-63.5899 157.68,-49.3083 142.231,-37.925"/>
<polygon fill="black" stroke="black" points="144.237,-35.0554 134.11,-31.9411 140.085,-40.6908 144.237,-35.0554"/>
</g>
</g>
</svg>
