<?xml version="1.0" encoding="UTF-8" standalone="no"?>
<!DOCTYPE svg PUBLIC "-//W3C//DTD SVG 1.1//EN"
 "http://www.w3.org/Graphics/SVG/1.1/DTD/svg11.dtd">
<!-- Generated by graphviz version 2.38.0 (20140413.2041)
 -->
<!-- Title: graph_47_03 Pages: 1 -->
<svg width="260pt" height="116pt"
 viewBox="0.00 0.00 259.84 116.00" xmlns="http://www.w3.org/2000/svg" xmlns:xlink="http://www.w3.org/1999/xlink">
<g id="graph0" class="graph" transform="scale(1 1) rotate(0) translate(4 112)">
<title>graph_47_03</title>
<polygon fill="white" stroke="none" points="-4,4 -4,-112 255.844,-112 255.844,4 -4,4"/>
<!-- small -->
<g id="node1" class="node"><title>small</title>
<ellipse fill="none" stroke="black" cx="30.5473" cy="-90" rx="30.5947" ry="18"/>
<text text-anchor="middle" x="30.5473" y="-86.3" font-family="Times,serif" font-size="14.00">small</text>
</g>
<!-- big -->
<g id="node4" class="node"><title>big</title>
<ellipse fill="none" stroke="black" cx="38.5473" cy="-18" rx="27" ry="18"/>
<text text-anchor="middle" x="38.5473" y="-14.3" font-family="Times,serif" font-size="14.00">big</text>
</g>
<!-- small&#45;&gt;big -->
<g id="edge1" class="edge"><title>small&#45;&gt;big</title>
<path fill="none" stroke="black" d="M32.5248,-71.6966C33.4064,-63.9827 34.4659,-54.7125 35.4487,-46.1124"/>
<polygon fill="black" stroke="black" points="38.9343,-46.4371 36.5925,-36.1043 31.9796,-45.6422 38.9343,-46.4371"/>
</g>
<!-- bigger -->
<g id="node5" class="node"><title>bigger</title>
<ellipse fill="none" stroke="black" cx="116.547" cy="-18" rx="33.2948" ry="18"/>
<text text-anchor="middle" x="116.547" y="-14.3" font-family="Times,serif" font-size="14.00">bigger</text>
</g>
<!-- small&#45;&gt;bigger -->
<g id="edge2" class="edge"><title>small&#45;&gt;bigger</title>
<path fill="none" stroke="black" d="M47.9507,-74.8345C60.3413,-64.749 77.1902,-51.0348 91.0885,-39.7223"/>
<polygon fill="black" stroke="black" points="93.3284,-42.412 98.8746,-33.3847 88.9095,-36.983 93.3284,-42.412"/>
</g>
<!-- biggest -->
<g id="node6" class="node"><title>biggest</title>
<ellipse fill="none" stroke="black" cx="204.547" cy="-18" rx="36.2938" ry="18"/>
<text text-anchor="middle" x="204.547" y="-14.3" font-family="Times,serif" font-size="14.00">biggest</text>
</g>
<!-- small&#45;&gt;biggest -->
<g id="edge3" class="edge"><title>small&#45;&gt;biggest</title>
<path fill="none" stroke="black" d="M54.6195,-78.6533C59.8596,-76.4335 65.3813,-74.119 70.5473,-72 103.118,-58.64 140.37,-43.9535 167.315,-33.4356"/>
<polygon fill="black" stroke="black" points="168.702,-36.6516 176.748,-29.7593 166.16,-30.1294 168.702,-36.6516"/>
</g>
<!-- smaller -->
<g id="node2" class="node"><title>smaller</title>
<ellipse fill="none" stroke="black" cx="116.547" cy="-90" rx="37.0935" ry="18"/>
<text text-anchor="middle" x="116.547" y="-86.3" font-family="Times,serif" font-size="14.00">smaller</text>
</g>
<!-- smaller&#45;&gt;big -->
<g id="edge4" class="edge"><title>smaller&#45;&gt;big</title>
<path fill="none" stroke="black" d="M99.6225,-73.811C88.5226,-63.8496 73.8655,-50.6958 61.6922,-39.771"/>
<polygon fill="black" stroke="black" points="63.8937,-37.044 54.1136,-32.9698 59.2184,-42.2538 63.8937,-37.044"/>
</g>
<!-- smaller&#45;&gt;bigger -->
<g id="edge5" class="edge"><title>smaller&#45;&gt;bigger</title>
<path fill="none" stroke="black" d="M116.547,-71.6966C116.547,-63.9827 116.547,-54.7125 116.547,-46.1124"/>
<polygon fill="black" stroke="black" points="120.047,-46.1043 116.547,-36.1043 113.047,-46.1044 120.047,-46.1043"/>
</g>
<!-- smaller&#45;&gt;biggest -->
<g id="edge6" class="edge"><title>smaller&#45;&gt;biggest</title>
<path fill="none" stroke="black" d="M135.21,-74.1548C147.661,-64.2508 164.217,-51.0807 178.029,-40.0938"/>
<polygon fill="black" stroke="black" points="180.566,-42.5481 186.213,-33.5838 176.209,-37.0699 180.566,-42.5481"/>
</g>
<!-- smallest -->
<g id="node3" class="node"><title>smallest</title>
<ellipse fill="none" stroke="black" cx="211.547" cy="-90" rx="40.0939" ry="18"/>
<text text-anchor="middle" x="211.547" y="-86.3" font-family="Times,serif" font-size="14.00">smallest</text>
</g>
<!-- smallest&#45;&gt;big -->
<g id="edge7" class="edge"><title>smallest&#45;&gt;big</title>
<path fill="none" stroke="black" d="M181.364,-78.0361C153.436,-67.7236 110.876,-51.5807 74.5473,-36 72.7369,-35.2236 70.8834,-34.4093 69.0189,-33.5753"/>
<polygon fill="black" stroke="black" points="70.301,-30.3127 59.7524,-29.3238 67.3819,-36.6751 70.301,-30.3127"/>
</g>
<!-- smallest&#45;&gt;bigger -->
<g id="edge8" class="edge"><title>smallest&#45;&gt;bigger</title>
<path fill="none" stroke="black" d="M191.4,-74.1548C177.43,-63.8608 158.671,-50.0383 143.427,-38.8062"/>
<polygon fill="black" stroke="black" points="145.5,-35.9859 135.373,-32.8716 141.347,-41.6213 145.5,-35.9859"/>
</g>
<!-- smallest&#45;&gt;biggest -->
<g id="edge9" class="edge"><title>smallest&#45;&gt;biggest</title>
<path fill="none" stroke="black" d="M209.817,-71.6966C209.046,-63.9827 208.119,-54.7125 207.259,-46.1124"/>
<polygon fill="black" stroke="black" points="210.735,-45.7064 206.258,-36.1043 203.77,-46.403 210.735,-45.7064"/>
</g>
</g>
</svg>
