<?xml version="1.0" encoding="UTF-8" standalone="no"?>
<!DOCTYPE svg PUBLIC "-//W3C//DTD SVG 1.1//EN"
 "http://www.w3.org/Graphics/SVG/1.1/DTD/svg11.dtd">
<!-- Generated by graphviz version 2.38.0 (20140413.2041)
 -->
<!-- Title: graph_48 Pages: 1 -->
<svg width="476pt" height="116pt"
 viewBox="0.00 0.00 475.64 116.00" xmlns="http://www.w3.org/2000/svg" xmlns:xlink="http://www.w3.org/1999/xlink">
<g id="graph0" class="graph" transform="scale(1 1) rotate(0) translate(4 112)">
<title>graph_48</title>
<polygon fill="white" stroke="none" points="-4,4 -4,-112 471.644,-112 471.644,4 -4,4"/>
<!-- course -->
<g id="node1" class="node"><title>course</title>
<polygon fill="none" stroke="black" points="94.2976,-36 40.2976,-36 40.2976,-0 94.2976,-0 94.2976,-36"/>
<text text-anchor="middle" x="67.2976" y="-14.3" font-family="Times,serif" font-size="14.00">course</text>
</g>
<!-- institute -->
<g id="node2" class="node"><title>institute</title>
<polygon fill="none" stroke="black" points="219.298,-108 159.298,-108 159.298,-72 219.298,-72 219.298,-108"/>
<text text-anchor="middle" x="189.298" y="-86.3" font-family="Times,serif" font-size="14.00">institute</text>
</g>
<!-- student -->
<g id="node3" class="node"><title>student</title>
<polygon fill="none" stroke="black" points="293.298,-108 237.298,-108 237.298,-72 293.298,-72 293.298,-108"/>
<text text-anchor="middle" x="265.298" y="-86.3" font-family="Times,serif" font-size="14.00">student</text>
</g>
<!-- code -->
<g id="node4" class="node"><title>code</title>
<ellipse fill="none" stroke="black" cx="27.2976" cy="-90" rx="27.0966" ry="18"/>
<text text-anchor="middle" x="27.2976" y="-86.3" font-family="Times,serif" font-size="14.00">code</text>
</g>
<!-- code&#45;&#45;course -->
<g id="edge2" class="edge"><title>code&#45;&#45;course</title>
<path fill="none" stroke="black" d="M36.5749,-72.7646C42.8524,-61.7791 51.1308,-47.2919 57.5125,-36.1239"/>
</g>
<!-- grade -->
<g id="node5" class="node"><title>grade</title>
<ellipse fill="none" stroke="black" cx="342.298" cy="-90" rx="30.5947" ry="18"/>
<text text-anchor="middle" x="342.298" y="-86.3" font-family="Times,serif" font-size="14.00">grade</text>
</g>
<!-- number -->
<g id="node6" class="node"><title>number</title>
<ellipse fill="none" stroke="black" cx="429.298" cy="-90" rx="38.1938" ry="18"/>
<text text-anchor="middle" x="429.298" y="-86.3" font-family="Times,serif" font-size="14.00">number</text>
</g>
<!-- name0 -->
<g id="node7" class="node"><title>name0</title>
<ellipse fill="none" stroke="black" cx="107.298" cy="-90" rx="34.394" ry="18"/>
<text text-anchor="middle" x="107.298" y="-86.3" font-family="Times,serif" font-size="14.00">name0</text>
</g>
<!-- name0&#45;&#45;course -->
<g id="edge1" class="edge"><title>name0&#45;&#45;course</title>
<path fill="none" stroke="black" d="M97.8181,-72.411C91.6266,-61.5758 83.5546,-47.4498 77.2672,-36.4468"/>
</g>
</g>
</svg>
