<?xml version="1.0" encoding="UTF-8" standalone="no"?>
<!DOCTYPE svg PUBLIC "-//W3C//DTD SVG 1.1//EN"
 "http://www.w3.org/Graphics/SVG/1.1/DTD/svg11.dtd">
<!-- Generated by graphviz version 2.38.0 (20140413.2041)
 -->
<!-- Title: graph_49 Pages: 1 -->
<svg width="626pt" height="116pt"
 viewBox="0.00 0.00 625.89 116.00" xmlns="http://www.w3.org/2000/svg" xmlns:xlink="http://www.w3.org/1999/xlink">
<g id="graph0" class="graph" transform="scale(1 1) rotate(0) translate(4 112)">
<title>graph_49</title>
<polygon fill="white" stroke="none" points="-4,4 -4,-112 621.894,-112 621.894,4 -4,4"/>
<!-- course -->
<g id="node1" class="node"><title>course</title>
<polygon fill="none" stroke="black" points="95.5473,-36 41.5473,-36 41.5473,-0 95.5473,-0 95.5473,-36"/>
<text text-anchor="middle" x="68.5473" y="-14.3" font-family="Times,serif" font-size="14.00">course</text>
</g>
<!-- institute -->
<g id="node2" class="node"><title>institute</title>
<polygon fill="none" stroke="black" points="211.547,-108 151.547,-108 151.547,-72 211.547,-72 211.547,-108"/>
<text text-anchor="middle" x="181.547" y="-86.3" font-family="Times,serif" font-size="14.00">institute</text>
</g>
<!-- student -->
<g id="node3" class="node"><title>student</title>
<polygon fill="none" stroke="black" points="285.547,-108 229.547,-108 229.547,-72 285.547,-72 285.547,-108"/>
<text text-anchor="middle" x="257.547" y="-86.3" font-family="Times,serif" font-size="14.00">student</text>
</g>
<!-- name0 -->
<g id="node4" class="node"><title>name0</title>
<ellipse fill="none" stroke="black" cx="30.5473" cy="-90" rx="30.5947" ry="18"/>
<text text-anchor="middle" x="30.5473" y="-86.3" font-family="Times,serif" font-size="14.00">name</text>
</g>
<!-- name0&#45;&#45;course -->
<g id="edge1" class="edge"><title>name0&#45;&#45;course</title>
<path fill="none" stroke="black" d="M39.3608,-72.7646C45.3244,-61.7791 53.1888,-47.2919 59.2514,-36.1239"/>
</g>
<!-- name1 -->
<g id="node5" class="node"><title>name1</title>
<ellipse fill="none" stroke="black" cx="334.547" cy="-90" rx="30.5947" ry="18"/>
<text text-anchor="middle" x="334.547" y="-86.3" font-family="Times,serif" font-size="14.00">name</text>
</g>
<!-- name2 -->
<g id="node6" class="node"><title>name2</title>
<ellipse fill="none" stroke="black" cx="413.547" cy="-90" rx="30.5947" ry="18"/>
<text text-anchor="middle" x="413.547" y="-86.3" font-family="Times,serif" font-size="14.00">name</text>
</g>
<!-- code -->
<g id="node7" class="node"><title>code</title>
<ellipse fill="none" stroke="black" cx="106.547" cy="-90" rx="27.0966" ry="18"/>
<text text-anchor="middle" x="106.547" y="-86.3" font-family="Times,serif" font-size="14.00">code</text>
</g>
<!-- code&#45;&#45;course -->
<g id="edge2" class="edge"><title>code&#45;&#45;course</title>
<path fill="none" stroke="black" d="M97.7338,-72.7646C91.7702,-61.7791 83.9057,-47.2919 77.8431,-36.1239"/>
</g>
<!-- grade -->
<g id="node8" class="node"><title>grade</title>
<ellipse fill="none" stroke="black" cx="492.547" cy="-90" rx="30.5947" ry="18"/>
<text text-anchor="middle" x="492.547" y="-86.3" font-family="Times,serif" font-size="14.00">grade</text>
</g>
<!-- number -->
<g id="node9" class="node"><title>number</title>
<ellipse fill="none" stroke="black" cx="579.547" cy="-90" rx="38.1938" ry="18"/>
<text text-anchor="middle" x="579.547" y="-86.3" font-family="Times,serif" font-size="14.00">number</text>
</g>
</g>
</svg>
