<?xml version="1.0" encoding="UTF-8" standalone="no"?>
<!DOCTYPE svg PUBLIC "-//W3C//DTD SVG 1.1//EN"
 "http://www.w3.org/Graphics/SVG/1.1/DTD/svg11.dtd">
<!-- Generated by graphviz version 2.38.0 (20140413.2041)
 -->
<!-- Title: graph_51 Pages: 1 -->
<svg width="161pt" height="186pt"
 viewBox="0.00 0.00 160.58 186.00" xmlns="http://www.w3.org/2000/svg" xmlns:xlink="http://www.w3.org/1999/xlink">
<g id="graph0" class="graph" transform="scale(1 1) rotate(0) translate(4 182)">
<title>graph_51</title>
<polygon fill="white" stroke="none" points="-4,4 -4,-182 156.58,-182 156.58,4 -4,4"/>
<text text-anchor="middle" x="76.2901" y="-7.8" font-family="Times,serif" font-size="14.00">Class Demo</text>
<!-- node_51_01 -->
<g id="node1" class="node"><title>node_51_01</title>
<polygon fill="none" stroke="black" points="76.2901,-178 0.209371,-160 76.2901,-142 152.371,-160 76.2901,-178"/>
<polyline fill="none" stroke="black" points="11.887,-162.763 11.887,-157.237 "/>
<polyline fill="none" stroke="black" points="64.6124,-144.763 87.9677,-144.763 "/>
<polyline fill="none" stroke="black" points="140.693,-157.237 140.693,-162.763 "/>
<polyline fill="none" stroke="black" points="87.9677,-175.237 64.6124,-175.237 "/>
<text text-anchor="middle" x="76.2901" y="-156.3" font-family="Times,serif" font-size="14.00">node_51_01</text>
</g>
<!-- node_51_02 -->
<g id="node2" class="node"><title>node_51_02</title>
<polygon fill="none" stroke="black" points="117.79,-106 34.7901,-106 34.7901,-23 117.79,-23 117.79,-106"/>
<polyline fill="none" stroke="black" points="46.7901,-106 34.7901,-94 "/>
<polyline fill="none" stroke="black" points="34.7901,-35 46.7901,-23 "/>
<polyline fill="none" stroke="black" points="105.79,-23 117.79,-35 "/>
<polyline fill="none" stroke="black" points="117.79,-94 105.79,-106 "/>
<text text-anchor="middle" x="76.2901" y="-60.8" font-family="Times,serif" font-size="14.00">node_51_02</text>
</g>
<!-- node_51_01&#45;&gt;node_51_02 -->
<g id="edge1" class="edge"><title>node_51_01&#45;&gt;node_51_02</title>
<path fill="none" stroke="blue" d="M76.2901,-141.851C76.2901,-134.495 76.2901,-125.477 76.2901,-116.251"/>
<polygon fill="blue" stroke="blue" points="79.7902,-116.226 76.2901,-106.226 72.7902,-116.226 79.7902,-116.226"/>
</g>
</g>
</svg>
