<?xml version="1.0" encoding="UTF-8" standalone="no"?>
<!DOCTYPE svg PUBLIC "-//W3C//DTD SVG 1.1//EN"
 "http://www.w3.org/Graphics/SVG/1.1/DTD/svg11.dtd">
<!-- Generated by graphviz version 2.38.0 (20140413.2041)
 -->
<!-- Title: graph_53 Pages: 1 -->
<svg width="612pt" height="288pt"
 viewBox="0.00 0.00 612.00 288.00" xmlns="http://www.w3.org/2000/svg" xmlns:xlink="http://www.w3.org/1999/xlink">
<g id="graph0" class="graph" transform="scale(1 1) rotate(0) translate(4 284)">
<title>graph_53</title>
<polygon fill="white" stroke="none" points="-4,4 -4,-284 608,-284 608,4 -4,4"/>
<text text-anchor="end" x="327.5" y="-37.8" font-family="Times,serif" font-size="14.00">Complex</text>
<text text-anchor="start" x="276.5" y="-22.8" font-family="Times,serif" font-size="14.00">Syntax</text>
<text text-anchor="middle" x="302" y="-7.8" font-family="Times,serif" font-size="14.00">Test</text>
<g id="clust2" class="cluster"><title>cluster_outer</title>
<polygon fill="none" stroke="black" points="388,-61 388,-272 542,-272 542,-61 388,-61"/>
<text text-anchor="middle" x="465" y="-256.8" font-family="Times,serif" font-size="14.00">Outer</text>
</g>
<g id="clust3" class="cluster"><title>cluster_inner</title>
<polygon fill="none" stroke="black" points="460,-69 460,-241 534,-241 534,-69 460,-69"/>
<text text-anchor="middle" x="497" y="-225.8" font-family="Times,serif" font-size="14.00">Inner</text>
</g>
<!-- A -->
<g id="node1" class="node"><title>A</title>
<ellipse fill="none" stroke="black" cx="27" cy="-192" rx="27" ry="18"/>
<text text-anchor="middle" x="27" y="-188.3" font-family="Times,serif" font-size="14.00">A</text>
</g>
<!-- B -->
<g id="node2" class="node"><title>B</title>
<polygon fill="none" stroke="black" points="144,-197.562 117,-210 90,-197.562 90.0252,-177.438 143.975,-177.438 144,-197.562"/>
<text text-anchor="middle" x="117" y="-188.3" font-family="Times,serif" font-size="14.00">B</text>
</g>
<!-- A&#45;&gt;B -->
<g id="edge1" class="edge"><title>A&#45;&gt;B</title>
<path fill="none" stroke="purple" d="M54.0703,-192C62.6689,-192 71.2674,-192 79.866,-192"/>
<polygon fill="purple" stroke="purple" points="79.9599,-195.5 89.9599,-192 79.9599,-188.5 79.9599,-195.5"/>
</g>
<!-- C -->
<g id="node3" class="node"><title>C</title>
<polygon fill="none" stroke="black" points="216,-197.562 189,-210 162,-197.562 162.025,-177.438 215.975,-177.438 216,-197.562"/>
<text text-anchor="middle" x="189" y="-188.3" font-family="Times,serif" font-size="14.00">C</text>
</g>
<!-- D -->
<g id="node4" class="node"><title>D</title>
<ellipse fill="none" stroke="black" cx="279" cy="-192" rx="27" ry="18"/>
<text text-anchor="middle" x="279" y="-188.3" font-family="Times,serif" font-size="14.00">D</text>
</g>
<!-- C&#45;&gt;D -->
<g id="edge2" class="edge"><title>C&#45;&gt;D</title>
<path fill="none" stroke="purple" d="M216.07,-192C224.669,-192 233.267,-192 241.866,-192"/>
<polygon fill="purple" stroke="purple" points="241.96,-195.5 251.96,-192 241.96,-188.5 241.96,-195.5"/>
</g>
<!-- E -->
<g id="node5" class="node"><title>E</title>
<polygon fill="green" stroke="green" points="378,-197.562 351,-210 324,-197.562 324.025,-177.438 377.975,-177.438 378,-197.562"/>
<text text-anchor="middle" x="351" y="-188.3" font-family="Times,serif" font-size="14.00">E</text>
</g>
<!-- F -->
<g id="node6" class="node"><title>F</title>
<polygon fill="green" stroke="green" points="378,-105.562 351,-118 324,-105.562 324.025,-85.4377 377.975,-85.4377 378,-105.562"/>
<text text-anchor="middle" x="351" y="-96.3" font-family="Times,serif" font-size="14.00">F</text>
</g>
<!-- E&#45;&gt;F -->
<g id="edge3" class="edge"><title>E&#45;&gt;F</title>
<path fill="none" stroke="purple" d="M351,-169.229C351,-156.372 351,-140.029 351,-126.561"/>
<ellipse fill="none" stroke="purple" cx="351" cy="-173.331" rx="4" ry="4"/>
<ellipse fill="purple" stroke="purple" cx="351" cy="-122.192" rx="4" ry="4"/>
<text text-anchor="middle" x="363" y="-144.8" font-family="Times,serif" font-size="14.00">e&#45;&gt;f</text>
</g>
<!-- G -->
<g id="node7" class="node"><title>G</title>
<polygon fill="green" stroke="green" points="450,-197.562 423,-210 396,-197.562 396.025,-177.438 449.975,-177.438 450,-197.562"/>
<text text-anchor="middle" x="423" y="-188.3" font-family="Times,serif" font-size="14.00">G</text>
</g>
<!-- H -->
<g id="node8" class="node"><title>H</title>
<polygon fill="green" stroke="green" points="450,-105.562 423,-118 396,-105.562 396.025,-85.4377 449.975,-85.4377 450,-105.562"/>
<text text-anchor="middle" x="423" y="-96.3" font-family="Times,serif" font-size="14.00">H</text>
</g>
<!-- G&#45;&gt;H -->
<g id="edge4" class="edge"><title>G&#45;&gt;H</title>
<path fill="none" stroke="purple" d="M423,-177.331C423,-164.342 423,-144.439 423,-128.214"/>
<polygon fill="purple" stroke="purple" points="426.5,-128.192 423,-118.192 419.5,-128.192 426.5,-128.192"/>
</g>
<!-- I -->
<g id="node9" class="node"><title>I</title>
<polygon fill="pink" stroke="pink" points="515,-210 479,-210 479,-174 515,-174 515,-210"/>
<text text-anchor="middle" x="497" y="-188.3" font-family="Times,serif" font-size="14.00">I</text>
</g>
<!-- J -->
<g id="node10" class="node"><title>J</title>
<polygon fill="red" stroke="red" points="497,-123 468.305,-88.5 525.695,-88.5 497,-123"/>
<text text-anchor="middle" x="497" y="-96.3" font-family="Times,serif" font-size="14.00">J</text>
</g>
<!-- I&#45;&gt;J -->
<g id="edge5" class="edge"><title>I&#45;&gt;J</title>
<path fill="none" stroke="blue" d="M497,-173.647C497,-162.168 497,-146.771 497,-133.107"/>
<polygon fill="blue" stroke="blue" points="500.5,-133.088 497,-123.088 493.5,-133.089 500.5,-133.088"/>
</g>
<!-- K -->
<g id="node11" class="node"><title>K</title>
<polygon fill="orange" stroke="orange" points="604,-197.562 577,-210 550,-197.562 550.025,-177.438 603.975,-177.438 604,-197.562"/>
<text text-anchor="middle" x="577" y="-188.3" font-family="Times,serif" font-size="14.00">K</text>
</g>
<!-- L -->
<g id="node12" class="node"><title>L</title>
<polygon fill="orange" stroke="orange" points="604,-105.562 577,-118 550,-105.562 550.025,-85.4377 603.975,-85.4377 604,-105.562"/>
<text text-anchor="middle" x="577" y="-96.3" font-family="Times,serif" font-size="14.00">L</text>
</g>
<!-- K&#45;&gt;L -->
<g id="edge6" class="edge"><title>K&#45;&gt;L</title>
<path fill="none" stroke="purple" d="M577,-177.331C577,-164.342 577,-144.439 577,-128.214"/>
<polygon fill="purple" stroke="purple" points="580.5,-128.192 577,-118.192 573.5,-128.192 580.5,-128.192"/>
<text text-anchor="middle" x="589" y="-144.8" font-family="Times,serif" font-size="14.00">k&#45;&gt;l</text>
</g>
</g>
</svg>
