<?xml version="1.0" encoding="UTF-8" standalone="no"?>
<!DOCTYPE svg PUBLIC "-//W3C//DTD SVG 1.1//EN"
 "http://www.w3.org/Graphics/SVG/1.1/DTD/svg11.dtd">
<!-- Generated by graphviz version 2.38.0 (20140413.2041)
 -->
<!-- Title: graph_55 Pages: 1 -->
<svg width="688pt" height="310pt"
 viewBox="0.00 0.00 688.00 310.37" xmlns="http://www.w3.org/2000/svg" xmlns:xlink="http://www.w3.org/1999/xlink">
<g id="graph0" class="graph" transform="scale(1 1) rotate(0) translate(4 306.373)">
<title>graph_55</title>
<polygon fill="white" stroke="none" points="-4,4 -4,-306.373 684,-306.373 684,4 -4,4"/>
<text text-anchor="middle" x="340" y="-7.8" font-family="Times,serif" font-size="14.00">Complex Syntax Test</text>
<g id="clust3" class="cluster"><title>cluster_outer</title>
<polygon fill="none" stroke="black" points="478,-31 478,-294.373 672,-294.373 672,-31 478,-31"/>
<text text-anchor="middle" x="575" y="-279.173" font-family="Times,serif" font-size="14.00">Outer</text>
</g>
<g id="clust4" class="cluster"><title>cluster_inner</title>
<polygon fill="none" stroke="black" points="550,-39 550,-263.373 664,-263.373 664,-39 550,-39"/>
<text text-anchor="middle" x="607" y="-248.173" font-family="Times,serif" font-size="14.00">Inner</text>
</g>
<!-- A -->
<g id="node1" class="node"><title>A</title>
<ellipse fill="none" stroke="blue" cx="27" cy="-213.873" rx="27" ry="18"/>
<text text-anchor="middle" x="27" y="-210.173" font-family="Times,serif" font-size="14.00">A</text>
</g>
<!-- B -->
<g id="node3" class="node"><title>B</title>
<polygon fill="goldenrod" stroke="mediumseagreen" points="108,-231.873 72,-231.873 72,-195.873 108,-195.873 108,-231.873"/>
<text text-anchor="middle" x="90" y="-210.173" font-family="Times,serif" font-size="14.00">B</text>
</g>
<!-- A&#45;&gt;B -->
<g id="edge1" class="edge"><title>A&#45;&gt;B</title>
<path fill="none" stroke="purple" d="M54.0703,-213.873C56.5571,-213.873 59.044,-213.873 61.5308,-213.873"/>
<polygon fill="purple" stroke="purple" points="61.7545,-217.373 71.7545,-213.873 61.7544,-210.373 61.7545,-217.373"/>
</g>
<!-- C -->
<g id="node2" class="node"><title>C</title>
<polygon fill="none" stroke="#ff3030" points="180,-219.435 153,-231.873 126,-219.435 126.025,-199.31 179.975,-199.31 180,-219.435"/>
<text text-anchor="middle" x="153" y="-210.173" font-family="Times,serif" font-size="14.00">C</text>
</g>
<!-- D -->
<g id="node4" class="node"><title>D</title>
<ellipse fill="#00868b" stroke="black" cx="234" cy="-213.873" rx="18" ry="18"/>
<text text-anchor="middle" x="234" y="-210.173" font-family="Times,serif" font-size="14.00">D</text>
</g>
<!-- C&#45;&gt;D -->
<g id="edge3" class="edge"><title>C&#45;&gt;D</title>
<path fill="none" stroke="purple" d="M190.257,-213.873C195.472,-213.873 200.687,-213.873 205.902,-213.873"/>
<polygon fill="none" stroke="purple" points="180.211,-217.873 180.211,-209.873 188.211,-209.873 188.211,-217.873 180.211,-217.873"/>
<polyline fill="none" stroke="purple" points="188.211,-213.873 190.211,-213.873 "/>
<polygon fill="purple" stroke="purple" points="205.93,-213.873 215.93,-218.373 210.93,-213.873 215.93,-213.873 215.93,-213.873 215.93,-213.873 210.93,-213.873 215.93,-209.373 205.93,-213.873 205.93,-213.873"/>
</g>
<!-- B&#45;&gt;C -->
<g id="edge2" class="edge"><title>B&#45;&gt;C</title>
<path fill="none" stroke="orange" stroke-width="5" d="M108.211,-213.873C110.671,-213.873 113.132,-213.873 115.592,-213.873"/>
<polygon fill="orange" stroke="orange" stroke-width="5" points="115.707,-218.248 125.707,-213.873 115.707,-209.498 115.707,-218.248"/>
</g>
<!-- E -->
<g id="node5" class="node"><title>E</title>
<ellipse fill="#00868b" stroke="black" cx="306" cy="-213.873" rx="18" ry="18"/>
<text text-anchor="middle" x="306" y="-210.173" font-family="Times,serif" font-size="14.00">E</text>
</g>
<!-- D&#45;&gt;E -->
<g id="edge4" class="edge"><title>D&#45;&gt;E</title>
<path fill="none" stroke="purple" stroke-width="5" d="M260.124,-213.873C266.625,-213.873 273.125,-213.873 279.626,-213.873"/>
<ellipse fill="none" stroke="purple" stroke-width="5" cx="256" cy="-213.873" rx="4" ry="4"/>
<ellipse fill="purple" stroke="purple" stroke-width="5" cx="283.859" cy="-213.873" rx="4" ry="4"/>
</g>
<!-- F -->
<g id="node6" class="node"><title>F</title>
<polygon fill="yellow" stroke="darkorchid" stroke-width="5" points="396,-213.873 382.5,-231.873 355.5,-231.873 342,-213.873 355.5,-195.873 382.5,-195.873 396,-213.873"/>
<text text-anchor="middle" x="369" y="-210.173" font-family="Times,serif" font-size="14.00">F</text>
</g>
<!-- G -->
<g id="node7" class="node"><title>G</title>
<polygon fill="darkorchid" stroke="crimson" stroke-width="7" points="468,-219.435 441,-231.873 414,-219.435 424.313,-199.31 457.687,-199.31 468,-219.435"/>
<text text-anchor="middle" x="441" y="-210.173" font-family="Times,serif" font-size="14.00">G</text>
</g>
<!-- F&#45;&gt;G -->
<g id="edge5" class="edge"><title>F&#45;&gt;G</title>
<path fill="none" stroke="purple" d="M396,-213.873C399.565,-213.873 403.13,-213.873 406.695,-213.873"/>
<polygon fill="purple" stroke="purple" points="406.742,-217.373 416.742,-213.873 406.742,-210.373 406.742,-217.373"/>
</g>
<!-- H -->
<g id="node8" class="node"><title>H</title>
<polygon fill="lightblue" stroke="black" points="540.19,-222.044 513,-240.317 485.81,-222.044 485.835,-192.479 540.165,-192.479 540.19,-222.044"/>
<text text-anchor="middle" x="513" y="-208.873" font-family="Times,serif" font-size="20.00">H</text>
</g>
<!-- I -->
<g id="node9" class="node"><title>I</title>
<polygon fill="lightblue" stroke="black" points="540,-107.497 513,-125.77 486,-107.497 486.025,-77.9324 539.975,-77.9324 540,-107.497"/>
<text text-anchor="middle" x="513" y="-94.3259" font-family="Times,serif" font-size="20.00">I</text>
</g>
<!-- H&#45;&gt;I -->
<g id="edge6" class="edge"><title>H&#45;&gt;I</title>
<path fill="none" stroke="purple" d="M513,-192.23C513,-176.454 513,-154.332 513,-135.745"/>
<polygon fill="purple" stroke="purple" points="516.5,-135.566 513,-125.566 509.5,-135.566 516.5,-135.566"/>
</g>
<!-- J -->
<g id="node10" class="node"><title>J</title>
<polygon fill="magenta" stroke="yellow" points="625.5,-232.373 588.5,-232.373 588.5,-195.373 625.5,-195.373 625.5,-232.373"/>
<text text-anchor="middle" x="607" y="-207.573" font-family="Times,serif" font-size="26.00">J</text>
</g>
<!-- K -->
<g id="node11" class="node"><title>K</title>
<polygon fill="magenta" stroke="black" points="607,-151.478 557.505,-73.2497 656.495,-73.2497 607,-151.478"/>
<text text-anchor="middle" x="607" y="-93.0259" font-family="Times,serif" font-size="26.00">K</text>
</g>
<!-- J&#45;&gt;K -->
<g id="edge7" class="edge"><title>J&#45;&gt;K</title>
<path fill="none" stroke="blue" stroke-width="4" d="M607,-195.287C607,-186.11 607,-174.273 607,-162.089"/>
<polygon fill="blue" stroke="blue" stroke-width="4" points="610.5,-161.823 607,-151.823 603.5,-161.823 610.5,-161.823"/>
</g>
</g>
</svg>
