<?xml version="1.0" encoding="UTF-8" standalone="no"?>
<!DOCTYPE svg PUBLIC "-//W3C//DTD SVG 1.1//EN"
 "http://www.w3.org/Graphics/SVG/1.1/DTD/svg11.dtd">
<!-- Generated by graphviz version 2.38.0 (20140413.2041)
 -->
<!-- Title: graph_59_05 Pages: 1 -->
<svg width="199pt" height="139pt"
 viewBox="0.00 0.00 199.00 139.00" xmlns="http://www.w3.org/2000/svg" xmlns:xlink="http://www.w3.org/1999/xlink">
<g id="graph0" class="graph" transform="scale(1 1) rotate(0) translate(4 135)">
<title>graph_59_05</title>
<polygon fill="white" stroke="none" points="-4,4 -4,-135 195,-135 195,4 -4,4"/>
<text text-anchor="middle" x="95.5" y="-7.8" font-family="Times,serif" font-size="14.00">Test BNF re comment handling</text>
<!-- A -->
<g id="node1" class="node"><title>A</title>
<polygon fill="none" stroke="black" points="86.5,-131 50.5,-131 50.5,-95 86.5,-95 86.5,-131"/>
<text text-anchor="middle" x="68.5" y="-109.3" font-family="Times,serif" font-size="14.00">A</text>
</g>
<!-- B -->
<g id="node2" class="node"><title>B</title>
<polygon fill="none" stroke="black" points="86.5,-59 50.5,-59 50.5,-23 86.5,-23 86.5,-59"/>
<text text-anchor="middle" x="68.5" y="-37.3" font-family="Times,serif" font-size="14.00">B</text>
</g>
<!-- A&#45;&gt;B -->
<g id="edge1" class="edge"><title>A&#45;&gt;B</title>
<path fill="none" stroke="black" stroke-width="3" d="M68.5,-94.6966C68.5,-86.3893 68.5,-76.2771 68.5,-67.1407"/>
<ellipse fill="none" stroke="black" stroke-width="3" cx="68.5" cy="-63.1043" rx="4" ry="4"/>
</g>
<!-- C -->
<g id="node3" class="node"><title>C</title>
<polygon fill="none" stroke="black" points="140.5,-131 104.5,-131 104.5,-95 140.5,-95 140.5,-131"/>
<text text-anchor="middle" x="122.5" y="-109.3" font-family="Times,serif" font-size="14.00">C</text>
</g>
<!-- D -->
<g id="node4" class="node"><title>D</title>
<polygon fill="none" stroke="black" points="140.5,-59 104.5,-59 104.5,-23 140.5,-23 140.5,-59"/>
<text text-anchor="middle" x="122.5" y="-37.3" font-family="Times,serif" font-size="14.00">D</text>
</g>
<!-- C&#45;&gt;D -->
<g id="edge2" class="edge"><title>C&#45;&gt;D</title>
<path fill="none" stroke="black" stroke-width="3" d="M122.5,-94.6966C122.5,-86.9827 122.5,-77.7125 122.5,-69.1124"/>
<polygon fill="black" stroke="black" stroke-width="3" points="126,-69.1043 122.5,-59.1043 119,-69.1044 126,-69.1043"/>
</g>
</g>
</svg>
