#define sample-bpp-1_width 13
#define sample-bpp-1_height 7
static char sample-bpp-1_bits[] = {
  0x7C, 0x12, 0x24, 0x16, 0x24, 0x12, 0xFF, 0x1F, 0x24, 0x12, 0x24, 0x1B, 
  0x77, 0x12, };
