<?xml version="1.0" encoding="UTF-8"?>
<svg width="301px" height="74px" viewBox="0 0 301 74" version="1.1" xmlns="http://www.w3.org/2000/svg" xmlns:xlink="http://www.w3.org/1999/xlink">
    <title>pgxn</title>
    <defs>
        <polygon id="path-1" points="0 0 40.418 0 40.418 37.43 0 37.43"></polygon>
    </defs>
    <g id="Page-1" stroke="none" stroke-width="1" fill="none" fill-rule="evenodd">
        <g id="pgxn">
            <g id="Group-3" transform="translate(-0.000000, -0.000000)">
                <mask id="mask-2" fill="white">
                    <use xlink:href="#path-1"></use>
                </mask>
                <g id="Clip-2"></g>
                <path d="M8.5,6.456 L8.5,16.394 L28.086,16.394 C30.77,16.394 32.003,15.886 32.003,13.42 L32.003,9.43 C32.003,6.964 30.77,6.456 28.086,6.456 L8.5,6.456 Z M-0.06,0 L32.003,0 C37.733,0 40.418,2.031 40.418,7.254 L40.418,15.596 C40.418,20.819 37.733,22.849 32.003,22.849 L8.5,22.849 L8.5,37.43 L-0.06,37.43 L-0.06,0 L-0.06,0 Z" id="Fill-1" fill="#1A1919" mask="url(#mask-2)"></path>
            </g>
            <path d="M61.741,6.674 L61.741,30.394 L88.943,30.394 L88.943,22.051 L74.725,22.051 L74.725,15.668 L97.43,15.668 L97.43,28.581 C97.43,35.617 95.181,37.43 88.145,37.43 L62.321,37.43 C55.285,37.43 53.036,35.617 53.036,28.581 L53.036,8.849 C53.036,1.813 55.285,-1.42108547e-14 62.321,-1.42108547e-14 L88.145,-1.42108547e-14 C94.964,-1.42108547e-14 97.43,1.74 97.43,8.487 C97.43,8.777 97.43,9.067 97.43,9.357 L88.943,10.881 L88.943,6.674 L61.741,6.674" id="Fill-4" fill="#1A1919"></path>
            <polyline id="Fill-5" fill="#1A1919" points="127.893 18.207 109.831 -1.42108547e-14 121.365 -1.42108547e-14 133.334 12.694 144.722 -1.42108547e-14 154.732 -1.42108547e-14 138.412 17.192 158.577 37.43 146.753 37.43 133.044 22.923 120.421 37.43 110.121 37.43 127.893 18.207"></polyline>
            <path d="M167.857,-1.42108547e-14 L173.806,-1.42108547e-14 L200.138,22.051 C201.661,23.285 203.112,24.59 204.418,26.114 C204.2,22.995 204.055,20.819 204.055,19.658 L204.055,-1.42108547e-14 L211.89,-1.42108547e-14 L211.89,37.43 L205.94,37.43 L178.448,14.29 C177.36,13.347 176.345,12.404 175.329,11.243 C175.619,14.145 175.691,16.104 175.691,17.192 L175.691,37.43 L167.857,37.43 L167.857,-1.42108547e-14" id="Fill-6" fill="#1A1919"></path>
            <path d="M54.738,58.407 C55.028,58.464 55.318,58.494 55.782,58.494 C58.132,58.494 59.989,57.014 59.989,53.678 C59.989,51.474 59.089,49.415 56.16,49.415 C55.55,49.415 55.086,49.472 54.738,49.56 L54.738,58.407 Z M53.491,48.718 C54.274,48.487 55.086,48.341 56.275,48.341 C57.784,48.341 59.147,48.835 59.989,49.734 C60.8,50.604 61.294,51.909 61.294,53.65 C61.294,55.245 60.974,56.26 60.394,57.188 C59.409,58.755 57.697,59.567 55.87,59.567 C55.405,59.567 55.086,59.567 54.738,59.509 L54.738,67.979 L53.491,67.979 L53.491,48.718 L53.491,48.718 Z" id="Fill-7" fill="#1A1919"></path>
            <path d="M66.628,67.109 C68.978,67.109 69.414,63.28 69.414,61.017 C69.414,58.755 68.978,54.926 66.571,54.926 C64.221,54.926 63.787,58.755 63.787,61.017 C63.787,63.28 64.221,67.109 66.6,67.109 L66.628,67.109 Z M66.542,68.212 C64.57,68.212 62.51,66.152 62.51,61.017 C62.51,55.883 64.57,53.824 66.745,53.824 C68.717,53.824 70.748,55.883 70.748,61.017 C70.748,66.152 68.688,68.212 66.571,68.212 L66.542,68.212 L66.542,68.212 Z" id="Fill-8" fill="#1A1919"></path>
            <path d="M72.925,66.326 C73.389,66.645 74.144,67.052 75.014,67.052 C76.464,67.052 77.421,66.065 77.421,64.527 C77.421,63.28 77.044,62.352 75.536,61.279 C73.999,60.176 72.722,59.132 72.722,57.334 C72.722,55.216 74.347,53.824 76.116,53.824 C77.161,53.824 77.915,54.23 78.378,54.578 L77.828,55.593 C77.305,55.187 76.754,54.926 76.029,54.926 C74.695,54.926 73.969,56 73.969,57.073 C73.969,58.204 74.347,58.842 75.768,59.886 C77.102,60.843 78.698,62.004 78.698,64.179 C78.698,66.935 76.871,68.153 74.956,68.153 C74.028,68.153 73.042,67.834 72.461,67.341 L72.925,66.326" id="Fill-9" fill="#1A1919"></path>
            <path d="M82.906,51.01 L82.906,54.055 L85.545,54.055 L85.545,55.13 L82.906,55.13 L82.906,64.614 C82.906,66.558 83.544,67.08 84.384,67.08 C84.733,67.08 85.023,67.052 85.226,66.993 L85.371,67.95 C85.052,68.095 84.704,68.153 84.124,68.153 C83.37,68.153 82.703,67.922 82.267,67.341 C81.833,66.76 81.658,65.92 81.658,64.15 L81.658,55.13 L79.917,55.13 L79.917,54.055 L81.658,54.055 L81.658,51.735 L82.906,51.01" id="Fill-10" fill="#1A1919"></path>
            <path d="M93.527,58.668 C93.527,58.32 93.527,57.971 93.44,57.653 C93.15,56.493 92.57,54.926 90.917,54.926 C89.147,54.926 88.074,57.304 88.074,60.901 C88.074,65.079 89.437,66.877 90.946,66.877 C91.758,66.877 92.86,66.529 93.412,64.266 C93.527,63.744 93.527,63.309 93.527,62.903 L93.527,58.668 Z M94.775,66.036 C94.775,70.126 94.369,71.373 93.586,72.33 C92.86,73.258 91.642,73.781 90.394,73.781 C89.263,73.781 88.161,73.462 87.581,73.085 L87.987,72.04 C88.451,72.302 89.409,72.678 90.54,72.678 C92.222,72.678 93.527,71.663 93.527,67.863 L93.527,66.094 L93.469,66.094 C93.005,67.312 91.96,67.979 90.713,67.979 C88.654,67.979 86.769,65.6 86.769,61.017 C86.769,55.564 89.234,53.824 90.975,53.824 C92.686,53.824 93.237,55.042 93.586,55.71 L93.643,55.71 L93.702,54.055 L94.89,54.055 C94.862,54.81 94.775,55.913 94.775,58.349 L94.775,66.036 L94.775,66.036 Z" id="Fill-11" fill="#1A1919"></path>
            <path d="M98.142,57.276 C98.142,56.231 98.055,54.926 98.026,54.055 L99.215,54.055 L99.273,56.318 L99.332,56.318 C99.679,55.1 100.898,53.824 102.348,53.824 C102.435,53.824 102.522,53.824 102.609,53.824 L102.609,55.187 C102.551,55.187 102.464,55.187 102.377,55.187 C100.579,55.187 99.535,56.957 99.419,58.668 C99.389,59.074 99.389,59.451 99.389,59.857 L99.389,67.979 L98.142,67.979 L98.142,57.276" id="Fill-12" fill="#1A1919"></path>
            <path d="M109.99,59.48 C110.047,56.057 108.627,54.926 107.611,54.926 C105.987,54.926 105.117,57.247 104.971,59.48 L109.99,59.48 Z M104.943,60.496 C104.943,66.094 106.886,67.052 108.453,67.052 C109.351,67.052 110.077,66.819 110.541,66.5 L110.831,67.457 C110.164,67.922 109.148,68.153 108.22,68.153 C105.174,68.153 103.667,65.282 103.667,61.076 C103.667,56.667 105.261,53.824 107.814,53.824 C110.57,53.824 111.324,57.217 111.324,59.683 C111.324,59.944 111.324,60.206 111.324,60.496 L104.943,60.496 L104.943,60.496 Z" id="Fill-13" fill="#1A1919"></path>
            <path d="M113.501,66.21 C114.081,66.616 115.154,67.022 116.053,67.022 C118.258,67.022 119.679,65.426 119.679,63.019 C119.679,60.96 118.519,59.626 117.069,58.407 C116.227,57.681 113.385,56 113.385,53.011 C113.385,50.169 115.444,48.255 117.939,48.255 C119.099,48.255 120.056,48.661 120.462,48.979 L119.969,50.052 C119.505,49.705 118.693,49.385 117.736,49.385 C115.647,49.385 114.661,51.126 114.661,52.664 C114.661,55.071 115.937,55.941 117.649,57.276 C119.853,59.016 120.956,60.699 120.956,62.932 C120.956,66.18 118.752,68.153 116.083,68.153 C114.893,68.153 113.559,67.689 113.066,67.254 L113.501,66.21" id="Fill-14" fill="#1A1919"></path>
            <path d="M128.268,67.08 C131.285,67.08 131.981,61.974 131.981,58.204 C131.981,54.433 131.227,49.328 128.239,49.328 C125.135,49.328 124.381,54.433 124.381,58.204 C124.381,61.974 125.135,67.08 128.239,67.08 L128.268,67.08 Z M132.967,70.271 C131.575,69.719 129.574,68.82 128.791,68.443 C128.501,68.298 128.297,68.212 128.181,68.212 C125.309,68.212 123.076,65.282 123.076,58.204 C123.076,50.894 125.542,48.196 128.414,48.196 C130.878,48.196 133.287,50.894 133.287,58.204 C133.287,63.831 131.923,66.732 129.718,67.689 L129.718,67.776 C131.053,68.356 132.387,68.792 133.461,69.139 L132.967,70.271 L132.967,70.271 Z" id="Fill-15" fill="#1A1919"></path>
            <polyline id="Fill-16" fill="#1A1919" points="136.132 48.428 137.379 48.428 137.379 66.906 143.18 66.906 143.18 67.979 136.132 67.979 136.132 48.428"></polyline>
            <polyline id="Fill-17" fill="#1A1919" points="156.381 58.261 151.218 58.261 151.218 66.877 157.135 66.877 157.135 67.979 149.971 67.979 149.971 48.428 156.758 48.428 156.758 49.531 151.218 49.531 151.218 57.16 156.381 57.16 156.381 58.261"></polyline>
            <path d="M159.604,54.055 L161.17,57.334 C161.547,58.117 161.866,58.9 162.243,59.828 L162.301,59.828 C162.678,58.842 163.084,58.059 163.403,57.334 L164.911,54.055 L166.274,54.055 L162.852,60.901 L166.188,67.979 L164.824,67.979 L163.258,64.499 C162.91,63.744 162.62,63.019 162.185,61.946 L162.127,61.946 C161.778,62.874 161.401,63.657 161.024,64.499 L159.458,67.979 L158.124,67.979 L161.576,60.93 L158.269,54.055 L159.604,54.055" id="Fill-18" fill="#1A1919"></path>
            <path d="M170.308,51.01 L170.308,54.055 L172.947,54.055 L172.947,55.13 L170.308,55.13 L170.308,64.614 C170.308,66.558 170.945,67.08 171.786,67.08 C172.135,67.08 172.425,67.052 172.628,66.993 L172.773,67.95 C172.454,68.095 172.106,68.153 171.525,68.153 C170.772,68.153 170.105,67.922 169.669,67.341 C169.234,66.76 169.06,65.92 169.06,64.15 L169.06,55.13 L167.319,55.13 L167.319,54.055 L169.06,54.055 L169.06,51.735 L170.308,51.01" id="Fill-19" fill="#1A1919"></path>
            <path d="M180.494,59.48 C180.552,56.057 179.131,54.926 178.115,54.926 C176.491,54.926 175.621,57.247 175.476,59.48 L180.494,59.48 Z M175.447,60.496 C175.447,66.094 177.391,67.052 178.957,67.052 C179.856,67.052 180.581,66.819 181.045,66.5 L181.335,67.457 C180.668,67.922 179.653,68.153 178.725,68.153 C175.679,68.153 174.171,65.282 174.171,61.076 C174.171,56.667 175.766,53.824 178.318,53.824 C181.074,53.824 181.828,57.217 181.828,59.683 C181.828,59.944 181.828,60.206 181.828,60.496 L175.447,60.496 L175.447,60.496 Z" id="Fill-20" fill="#1A1919"></path>
            <path d="M184.382,57.276 C184.382,55.564 184.295,55.042 184.267,54.055 L185.398,54.055 L185.456,55.767 L185.514,55.767 C186.036,54.636 187.109,53.824 188.588,53.824 C190.067,53.824 191.75,54.81 191.75,58.349 L191.75,67.979 L190.503,67.979 L190.503,58.842 C190.503,56.87 190.154,54.897 188.211,54.897 C187.08,54.897 185.978,55.883 185.688,57.798 C185.63,58.174 185.63,58.581 185.63,59.016 L185.63,67.979 L184.382,67.979 L184.382,57.276" id="Fill-21" fill="#1A1919"></path>
            <path d="M194.625,66.326 C195.089,66.645 195.844,67.052 196.714,67.052 C198.164,67.052 199.121,66.065 199.121,64.527 C199.121,63.28 198.744,62.352 197.235,61.279 C195.698,60.176 194.422,59.132 194.422,57.334 C194.422,55.216 196.047,53.824 197.815,53.824 C198.86,53.824 199.614,54.23 200.078,54.578 L199.527,55.593 C199.005,55.187 198.454,54.926 197.729,54.926 C196.395,54.926 195.669,56 195.669,57.073 C195.669,58.204 196.047,58.842 197.468,59.886 C198.802,60.843 200.398,62.004 200.398,64.179 C200.398,66.935 198.57,68.153 196.655,68.153 C195.728,68.153 194.741,67.834 194.161,67.341 L194.625,66.326" id="Fill-22" fill="#1A1919"></path>
            <path d="M202.951,67.979 L204.199,67.979 L204.199,54.055 L202.951,54.055 L202.951,67.979 Z M203.532,51.329 C203.01,51.329 202.633,50.923 202.633,50.256 C202.633,49.618 203.01,49.182 203.561,49.182 C204.199,49.182 204.518,49.618 204.518,50.256 C204.518,50.923 204.199,51.329 203.561,51.329 L203.532,51.329 L203.532,51.329 Z" id="Fill-23" fill="#1A1919"></path>
            <path d="M211.045,67.109 C213.395,67.109 213.83,63.28 213.83,61.017 C213.83,58.755 213.395,54.926 210.987,54.926 C208.638,54.926 208.203,58.755 208.203,61.017 C208.203,63.28 208.638,67.109 211.017,67.109 L211.045,67.109 Z M210.958,68.212 C208.986,68.212 206.927,66.152 206.927,61.017 C206.927,55.883 208.986,53.824 211.161,53.824 C213.134,53.824 215.164,55.883 215.164,61.017 C215.164,66.152 213.105,68.212 210.987,68.212 L210.958,68.212 L210.958,68.212 Z" id="Fill-24" fill="#1A1919"></path>
            <path d="M217.893,57.276 C217.893,55.564 217.806,55.042 217.777,54.055 L218.908,54.055 L218.966,55.767 L219.024,55.767 C219.547,54.636 220.62,53.824 222.099,53.824 C223.578,53.824 225.261,54.81 225.261,58.349 L225.261,67.979 L224.014,67.979 L224.014,58.842 C224.014,56.87 223.665,54.897 221.722,54.897 C220.591,54.897 219.488,55.883 219.198,57.798 C219.141,58.174 219.141,58.581 219.141,59.016 L219.141,67.979 L217.893,67.979 L217.893,57.276" id="Fill-25" fill="#1A1919"></path>
            <path d="M233.271,67.979 L233.271,48.428 L234.518,48.428 L238.462,58.523 C239.42,60.989 240.464,63.629 241.218,66.006 L241.276,66.006 C241.073,62.294 241.073,60.321 241.073,57.073 L241.073,48.428 L242.263,48.428 L242.263,67.979 L241.015,67.979 L236.838,57.363 C235.968,55.187 235.155,53.128 234.315,50.256 L234.257,50.256 C234.459,53.273 234.459,55.42 234.459,59.741 L234.459,67.979 L233.271,67.979" id="Fill-26" fill="#1A1919"></path>
            <path d="M251.374,59.48 C251.432,56.057 250.011,54.926 248.995,54.926 C247.371,54.926 246.501,57.247 246.356,59.48 L251.374,59.48 Z M246.327,60.496 C246.327,66.094 248.271,67.052 249.837,67.052 C250.735,67.052 251.461,66.819 251.925,66.5 L252.215,67.457 C251.548,67.922 250.532,68.153 249.605,68.153 C246.559,68.153 245.051,65.282 245.051,61.076 C245.051,56.667 246.646,53.824 249.198,53.824 C251.954,53.824 252.708,57.217 252.708,59.683 C252.708,59.944 252.708,60.206 252.708,60.496 L246.327,60.496 L246.327,60.496 Z" id="Fill-27" fill="#1A1919"></path>
            <path d="M256.917,51.01 L256.917,54.055 L259.557,54.055 L259.557,55.13 L256.917,55.13 L256.917,64.614 C256.917,66.558 257.555,67.08 258.396,67.08 C258.744,67.08 259.034,67.052 259.237,66.993 L259.382,67.95 C259.064,68.095 258.715,68.153 258.135,68.153 C257.381,68.153 256.714,67.922 256.278,67.341 C255.844,66.76 255.669,65.92 255.669,64.15 L255.669,55.13 L253.929,55.13 L253.929,54.055 L255.669,54.055 L255.669,51.735 L256.917,51.01" id="Fill-28" fill="#1A1919"></path>
            <path d="M261.804,54.055 L263.515,61.366 C263.863,62.845 264.24,64.44 264.443,65.949 L264.56,65.949 C264.791,64.44 265.168,62.757 265.517,61.423 L267.344,54.055 L268.33,54.055 L270.07,61.191 C270.447,62.729 270.796,64.266 271.086,65.949 L271.202,65.949 C271.405,64.382 271.753,62.961 272.13,61.307 L273.755,54.055 L275.031,54.055 L271.579,67.979 L270.622,67.979 L268.649,60.031 C268.273,58.61 268.098,57.537 267.837,55.941 L267.779,55.941 C267.518,57.624 267.257,58.813 266.938,60.147 L264.994,67.979 L263.95,67.979 L260.557,54.055 L261.804,54.055" id="Fill-29" fill="#1A1919"></path>
            <path d="M280.428,67.109 C282.777,67.109 283.213,63.28 283.213,61.017 C283.213,58.755 282.777,54.926 280.37,54.926 C278.021,54.926 277.586,58.755 277.586,61.017 C277.586,63.28 278.021,67.109 280.399,67.109 L280.428,67.109 Z M280.341,68.212 C278.369,68.212 276.31,66.152 276.31,61.017 C276.31,55.883 278.369,53.824 280.544,53.824 C282.517,53.824 284.547,55.883 284.547,61.017 C284.547,66.152 282.487,68.212 280.37,68.212 L280.341,68.212 L280.341,68.212 Z" id="Fill-30" fill="#1A1919"></path>
            <path d="M287.247,57.276 C287.247,56.231 287.16,54.926 287.131,54.055 L288.32,54.055 L288.378,56.318 L288.437,56.318 C288.784,55.1 290.003,53.824 291.453,53.824 C291.54,53.824 291.627,53.824 291.714,53.824 L291.714,55.187 C291.656,55.187 291.569,55.187 291.482,55.187 C289.684,55.187 288.64,56.957 288.523,58.668 C288.494,59.074 288.494,59.451 288.494,59.857 L288.494,67.979 L287.247,67.979 L287.247,57.276" id="Fill-31" fill="#1A1919"></path>
            <path d="M294.954,60.756 L295.012,60.756 C295.273,60.35 295.534,59.857 295.795,59.423 L299.16,54.055 L300.523,54.055 L296.665,59.916 L300.959,67.979 L299.537,67.979 L295.854,60.873 L294.954,62.236 L294.954,67.979 L293.707,67.979 L293.707,47.906 L294.954,47.906 L294.954,60.756" id="Fill-32" fill="#1A1919"></path>
        </g>
    </g>
</svg>