<?xml version="1.0" encoding="UTF-8" standalone="yes"?>
<!DOCTYPE svg PUBLIC "-//W3C//DTD SVG 1.0//EN" "http://www.w3.org/TR/2001/REC-SVG-20010904/DTD/svg10.dtd">
<svg height="300" width="300" xmlns="http://www.w3.org/2000/svg" xmlns:svg="http://www.w3.org/2000/svg" xmlns:xlink="http://www.w3.org/1999/xlink">
	<g id="n7439583">
		<g id="line2034728" />
		<g id="axis4379497" />
		<g id="linen1017488">
			<line style="fill: red; fill-opacity: 0.5; stroke: red" x1="20" x2="72" y1="280" y2="256.363636363636" />
			<line style="fill: red; fill-opacity: 0.5; stroke: red" x1="72" x2="124" y1="256.363636363636" y2="209.090909090909" />
			<line style="fill: red; fill-opacity: 0.5; stroke: red" x1="124" x2="176" y1="209.090909090909" y2="161.818181818182" />
			<line style="fill: red; fill-opacity: 0.5; stroke: red" x1="176" x2="228" y1="161.818181818182" y2="67.2727272727273" />
			<line style="fill: red; fill-opacity: 0.5; stroke: red" x1="228" x2="280" y1="67.2727272727273" y2="20" />
		</g>
		<g id="axisn5511019">
			<line style="stroke: gray; stroke-width: 2" x1="20" x2="280" y1="280" y2="280" />
			<line style="stroke: gray; stroke-width: 2" x1="20" x2="20" y1="20" y2="280" />
			<line style="stroke: gray; stroke-width: 2" x1="20" x2="20" y1="280" y2="282.5" />
			<text transform="rotate(90,20,285)" x="20" y="285">1</text>
			<text transform="rotate(90,46,285)" x="46" y="285"></text>
			<line style="stroke: gray; stroke-width: 2" x1="72" x2="72" y1="280" y2="282.5" />
			<text transform="rotate(90,72,285)" x="72" y="285">2</text>
			<text transform="rotate(90,98,285)" x="98" y="285"></text>
			<line style="stroke: gray; stroke-width: 2" x1="124" x2="124" y1="280" y2="282.5" />
			<text transform="rotate(90,124,285)" x="124" y="285">3</text>
			<text transform="rotate(90,150,285)" x="150" y="285"></text>
			<line style="stroke: gray; stroke-width: 2" x1="176" x2="176" y1="280" y2="282.5" />
			<text transform="rotate(90,176,285)" x="176" y="285">4</text>
			<text transform="rotate(90,202,285)" x="202" y="285"></text>
			<line style="stroke: gray; stroke-width: 2" x1="228" x2="228" y1="280" y2="282.5" />
			<text transform="rotate(90,228,285)" x="228" y="285">5</text>
			<text transform="rotate(90,254,285)" x="254" y="285"></text>
			<line style="stroke: gray; stroke-width: 2" x1="280" x2="280" y1="280" y2="282.5" />
			<text transform="rotate(90,280,285)" x="280" y="285">6</text>
			<text transform="rotate(90,306,285)" x="306" y="285"></text>
			<line style="stroke: gray; stroke-width: 2" x1="20" x2="17.5" y1="280" y2="280" />
			<text x="0" y="280">2</text>
			<text x="98" y="280"></text>
			<line style="stroke: gray; stroke-width: 2" x1="20" x2="17.5" y1="232.727272727273" y2="232.727272727273" />
			<text x="0" y="232.727272727273">2</text>
			<text x="202" y="232.727272727273"></text>
			<line style="stroke: gray; stroke-width: 2" x1="20" x2="17.5" y1="185.454545454545" y2="185.454545454545" />
			<text x="0" y="185.454545454545">4</text>
			<text x="306" y="185.454545454545"></text>
			<line style="stroke: gray; stroke-width: 2" x1="20" x2="17.5" y1="138.181818181818" y2="138.181818181818" />
			<text x="0" y="138.181818181818">6</text>
			<text x="410" y="138.181818181818"></text>
			<line style="stroke: gray; stroke-width: 2" x1="20" x2="17.5" y1="90.9090909090909" y2="90.9090909090909" />
			<text x="0" y="90.9090909090909">8</text>
			<text x="514" y="90.9090909090909"></text>
			<line style="stroke: gray; stroke-width: 2" x1="20" x2="17.5" y1="43.6363636363636" y2="43.6363636363636" />
			<text x="0" y="43.6363636363636">10</text>
			<text x="618" y="43.6363636363636"></text>
		</g>
	</g>
	<!-- 
	Generated using the Perl SVG Module V2.64
	by Ronan Oger
	Info: http://www.roitsystems.com/
 -->
</svg>