#define pie_width 12
#define pie_height 12
static unsigned char pie_bits[] = {
  0x00, 0x00, 0x00, 0x04, 0xfc, 0x03, 0x92, 0x00, 0x90, 0x00, 0x90, 0x00,
  0x90, 0x00, 0x90, 0x00, 0x90, 0x00, 0x90, 0x00, 0x00, 0x00, 0x00, 0x00,
  };
