<?xml version="1.0" ?><svg id="Capa_1" style="enable-background:new 0 0 512 512;" version="1.1" viewBox="0 0 512 512" xml:space="preserve" xmlns="http://www.w3.org/2000/svg" xmlns:xlink="http://www.w3.org/1999/xlink"><g><g><path d="M276,243c-5.52,0-10,4.48-10,10s4.48,10,10,10c5.52,0,10-4.48,10-10C286,247.48,281.52,243,276,243z"/></g></g><g><g><path d="M96,100c-5.514,0-10-4.486-10-10s4.486-10,10-10c3.542,0,7.283,1.808,10.816,5.227c3.969,3.841,10.301,3.735,14.14-0.232    c3.84-3.97,3.736-10.3-0.233-14.141c-5.075-4.911-10.153-7.688-14.724-9.205V50c0-5.522-4.477-10-10-10s-10,4.478-10,10v11.72    C74.361,65.848,66,76.964,66,90c0,16.542,13.458,30,30,30c5.514,0,10,4.486,10,10s-4.486,10-10,10    c-4.273,0-8.885-2.687-12.986-7.564c-3.554-4.229-9.862-4.774-14.089-1.22c-4.228,3.554-4.773,9.862-1.219,14.089    c5.346,6.36,11.632,10.791,18.294,13.025V170c0,5.522,4.477,10,10,10s10-4.478,10-10v-11.72c11.639-4.128,20-15.243,20-28.28    C126,113.458,112.542,100,96,100z"/></g></g><g><g><path d="M276,329h-40c-5.523,0-10,4.478-10,10v40c0,5.522,4.477,10,10,10h40c5.522,0,10-4.478,10-10v-40    C286,333.478,281.522,329,276,329z M266,369h-20v-20h20V369z"/></g></g><g><g><path d="M356,329h-40c-5.522,0-10,4.478-10,10v40c0,5.522,4.478,10,10,10h40c5.522,0,10-4.478,10-10v-40    C366,333.478,361.522,329,356,329z M346,369h-20v-20h20V369z"/></g></g><g><g><path d="M276,409h-40c-5.523,0-10,4.478-10,10v40c0,5.522,4.477,10,10,10h40c5.522,0,10-4.478,10-10v-40    C286,413.478,281.522,409,276,409z M266,449h-20v-20h20V449z"/></g></g><g><g><path d="M356,409h-40c-5.522,0-10,4.478-10,10v40c0,5.522,4.478,10,10,10h40c5.522,0,10-4.478,10-10v-40    C366,413.478,361.522,409,356,409z M346,449h-20v-20h20V449z"/></g></g><g><g><path d="M436,329h-40c-5.522,0-10,4.478-10,10v120c0,5.522,4.478,10,10,10h40c5.522,0,10-4.478,10-10V339    C446,333.478,441.522,329,436,329z M426,449h-20V349h20V449z"/></g></g><g><g><path d="M436,203H236c-5.523,0-10,4.478-10,10v86c0,5.522,4.477,10,10,10h200c5.522,0,10-4.478,10-10v-86    C446,207.478,441.522,203,436,203z M426,289H246v-66h180V289z"/></g></g><g><g><path d="M456,160h-90V99.59c0-7.829-2.996-15.235-8.428-20.848L290.339,9.148c-2.891-2.99-6.444-5.374-10.26-6.918    c-0.136-0.061-0.274-0.117-0.413-0.172c-0.009-0.004-0.019-0.008-0.028-0.012C276.163,0.688,272.503,0,268.76,0H56    C39.458,0,26,13.458,26,30v389c0,16.542,13.458,30,30,30h130v33c0,16.542,13.458,30,30,30h240c16.542,0,30-13.458,30-30V190    C486,173.458,472.542,160,456,160z M286,33.442l57.195,59.204C345.004,94.515,346,96.98,346,99.59V100h-50    c-5.514,0-10-4.486-10-10V33.442z M186,190v239H56c-5.514,0-10-4.486-10-10V30c0-5.514,4.486-10,10-10h210v70    c0,16.542,13.458,30,30,30h50v40H216C199.458,160,186,173.458,186,190z M466,482c0,5.514-4.486,10-10,10H216    c-5.514,0-10-4.486-10-10V190c0-5.514,4.486-10,10-10h240c5.514,0,10,4.486,10,10V482z"/></g></g><g><g><path d="M396,243h-80c-5.522,0-10,4.478-10,10c0,5.522,4.478,10,10,10h80c5.522,0,10-4.478,10-10C406,247.478,401.522,243,396,243    z"/></g></g><g><g><path d="M236,120h-80c-5.523,0-10,4.478-10,10c0,5.522,4.477,10,10,10h80c5.522,0,10-4.478,10-10C246,124.478,241.522,120,236,120    z"/></g></g><g><g><path d="M236,80h-80c-5.523,0-10,4.478-10,10c0,5.522,4.477,10,10,10h80c5.522,0,10-4.478,10-10C246,84.478,241.522,80,236,80z"/></g></g><g><g><path d="M156,203H76c-5.523,0-10,4.478-10,10c0,5.522,4.477,10,10,10h80c5.523,0,10-4.478,10-10C166,207.478,161.523,203,156,203z    "/></g></g><g><g><path d="M96,243H76c-5.523,0-10,4.478-10,10c0,5.522,4.477,10,10,10h20c5.523,0,10-4.478,10-10C106,247.478,101.523,243,96,243z"/></g></g><g><g><path d="M156,243h-20c-5.523,0-10,4.478-10,10c0,5.522,4.477,10,10,10h20c5.523,0,10-4.478,10-10C166,247.478,161.523,243,156,243    z"/></g></g><g><g><path d="M96,289H76c-5.523,0-10,4.478-10,10c0,5.522,4.477,10,10,10h20c5.523,0,10-4.478,10-10C106,293.478,101.523,289,96,289z"/></g></g><g><g><path d="M156,289h-20c-5.523,0-10,4.478-10,10c0,5.522,4.477,10,10,10h20c5.523,0,10-4.478,10-10C166,293.478,161.523,289,156,289    z"/></g></g><g><g><path d="M96,329H76c-5.523,0-10,4.478-10,10c0,5.522,4.477,10,10,10h20c5.523,0,10-4.478,10-10C106,333.478,101.523,329,96,329z"/></g></g><g><g><path d="M156,329h-20c-5.523,0-10,4.478-10,10c0,5.522,4.477,10,10,10h20c5.523,0,10-4.478,10-10C166,333.478,161.523,329,156,329    z"/></g></g><g><g><path d="M96,369H76c-5.523,0-10,4.478-10,10c0,5.522,4.477,10,10,10h20c5.523,0,10-4.478,10-10C106,373.478,101.523,369,96,369z"/></g></g><g><g><path d="M156,369h-20c-5.523,0-10,4.478-10,10c0,5.522,4.477,10,10,10h20c5.523,0,10-4.478,10-10C166,373.478,161.523,369,156,369    z"/></g></g><g/><g/><g/><g/><g/><g/><g/><g/><g/><g/><g/><g/><g/><g/><g/></svg>