P2
4 5
100
100 100 100 100
100   0   0 100
100 100 100 100
100   0   0 100
100 100 100 100
