P2
4 5
1000
1000 1000 1000 1000
1000    0    0 1000
1000 1000 1000 1000
1000    0    0 1000
1000 1000 1000 1000
