P3
4 5
100
100 100 100 100 100 100 100 100 100 100 100 100
100 100 100   0   0   0   0   0   0 100 100 100
100 100 100 100 100 100 100 100 100 100 100 100
100 100 100   0   0   0   0   0   0 100 100 100
100 100 100 100 100 100 100 100 100 100 100 100
