/* XPM */
static char * image_name[] = {
"27 27 16 1",
" 	c None",
".	c #F7F7F7F7F7F7",
"X	c #E2E2E2E2E2E2",
"o	c #15151D1D1515",
"O	c #B3B3B9B9B9B9",
"+	c #70705C5C8484",
"@	c #70705B5B3232",
"#	c #1515D4D42A2A",
"$	c #202051519595",
"%	c #9696A5A5AAAA",
"&	c #6E6EB4B45151",
"*	c #C7C7CECEA0A0",
"=	c #4A4ADDDDD3D3",
"-	c #C5C5FFFF3737",
";	c #DEDEFFFF0C0C",
":	c #C1C14F4FB2B2",
"       .XXoooooooXX.       ",
"     .O+o@##@@OOO@o+O.     ",
"     +o$%O##@&%OOXX%+%.    ",
"    +$$$$O##@@*OOXX..%+    ",
"   +$#$$$O%#&@OOOX.   %+   ",
" .%+*$$#$$O#*@OOXXX  .O+%. ",
" O@OOO$$$$%#&@OOXX  .OO%@% ",
".+===OO=$$$##&%OX  .OO%%@+.",
"Xo&====%$$$&#@*XX .O%%%%%oX",
"@#----==O$$$#@OO..OO%%%%%%@",
"o####;-;=*$$+&+%XOO%%%%%%%o",
"o@@@###-;;&+ooo@+O%%%%%%%%o",
"o:::::@@@@+oX Xo+%%%+%+%%+o",
"o:::::+::++o  .o++::+:+::+o",
"o+%++%+%+%+oX.Oo+@@@@:::::o",
"o%%%O%%%%%%@ooo+&;;&##&@@@o",
"o%%%%%%%%*X+%+&$$O&;;;####o",
"@+%%%%%%*..X%@#$+$O==--;;#@",
"Xo%%%%%*..XX%@#&$$=%====&oX",
".+@%%%*.. XOO@##$$$$OO===&.",
" O@%%*.. XXOO@&#%$$#$OOO$% ",
" .%+O.. XXOOO@*#O+$$$$O+%. ",
"  .+O.  .XOOO@&#*%$$$#$&.  ",
"    +% .XXOOO@@##O$$$$+    ",
"     %+%OXOOO@@##*%$o%.    ",
"     .O+@@OOO@&##@o+O.     ",
"       XXOoooooooXX.       "};
