/* XPM */
static char * image_name[] = {
"28 27 16 1",
" 	c None",
".	c #0C0C0C0C1111",
"X	c #252525251010",
"o	c #454545453F3F",
"O	c #F2F2F2F2EDED",
"+	c #BCBCB1B1ADAD",
"@	c #E7E7E7E7FFFF",
"#	c #DADACFCFE0E0",
"$	c #7C7C7C7C4E4E",
"%	c #2F2F2F2FBDBD",
"&	c #D7D77575E8E8",
"*	c #94947A7AA9A9",
"=	c #CCCCCCCC3131",
"-	c #616161610B0B",
";	c #FFFFFFFF0000",
":	c #212121210000",
".XXXXXX.XXXXXXXXXXXXXXXoO   ",
"X++++++X @#########@  +X+   ",
"X+$$$$+X +%%%%%%%%%#  +X+   ",
"X+$$$$+X #+++++++++@  +X+   ",
"X++++++X #&&&&&*      +X+   ",
"X*XXX*+X #******      +X+   ",
"X++++++X      @@@@@@# +X+   ",
"X+$$$$+X      &&&&&&% +X+   ",
"X+$$$$+X      +++++++ +X+   ",
"X++++++X   &%%%%*     +X+   ",
"X*XXXXX.XXX......XXXXXX.XXX#",
"X++$+                     o$",
"X+$o+            O+++++++#o$",
"X+$X+            +======-*o$",
"X++$++======$OOoo-=;;;;;-$X$",
"X*X.+$;;;;;;X+#X+o:::::::$X$",
"X++$+$=;;;;;XXXo#O++++++++X$",
"X+*o+$ooooooo++o#+-=====-$X$",
"X+oX+ #########X$$=;;;;;-$X$",
"X++$+         #X$o------X$X$",
"X+X.+         #o##+******+X$",
"X++o+         #o#+-------$X$",
".**o+         #X+$=;;;;;-$X$",
"$XX.+         O$oo-=====-$X$",
"O++$+          O#+$$$$$$$+X$",
"   $oooooooooooooooooooooo.$",
"   #*$$$$$$$$$$$$$$$$$$$$$$$"};
