/* XPM */
static char * image_name[] = {
"28 27 15 1",
" 	c None",
".	c #E2E2E2E2E2E2",
"X	c #CECECECECECE",
"o	c #EFEFEFEFEFEF",
"O	c #B1B1B1B1B1B1",
"+	c #9C9C9C9C9C9C",
"@	c #949494949494",
"#	c #66667C7C6666",
"$	c #BDBDBDBDBDBD",
"%	c #181818181818",
"&	c #EFEFF7F7EFEF",
"*	c #1C1C6F6F1C1C",
"=	c #A5A5A5A5A5A5",
"-	c #D6D6D6D6D6D6",
";	c #424242424242",
"                            ",
"                            ",
"                            ",
"                            ",
"                            ",
"                            ",
"                            ",
"   .XXXXXXXXXXXXXXXXXXXXXXo ",
"  .O+++++++++++++++++++++@#o",
" .+$$$$$$$$$$$$$$$$$$$$$O@%.",
"oOoo o o o o o o o oo& X#@%.",
"o+.$$$$$$$$$$$$$$$$***$=@#%.",
"o+o$$$$$$$$$$$$$$$$#*#$=#@%.",
"o+.O++++++++++++++====$=@#%.",
"o+.XXXXXXXXXXXXXXX----$=#@%.",
"o+o+++@+++++++++@+@@@+$=@#%.",
"o+..oooooooooooooooooo$+#@%o",
"o@XOOOOOOOOOOOOOOOOOOOO+#;- ",
"o+;;;;;;;;;;;;;;;;;;;;;;#X  ",
" .+@+@+@+@+@+@+@+@+@+@+@X   ",
"                            ",
"                            ",
"                            ",
"                            ",
"                            ",
"                            ",
"                            "};
