/* XPM */
static char * image_name[] = {
"28 28 16 1",
" 	c None",
".	c #D2D2D2D2D2D2",
"X	c #BDBDBDBDBDBD",
"o	c #9C9C9C9C9C9C",
"O	c #4E4E4E4E4E4E",
"+	c #E7E7E7E7E7E7",
"@	c #7B7B7B7B7B7B",
"#	c #6F6F6F6F6F6F",
"$	c #B5B5B5B5B5B5",
"%	c #8C8C8C8C9E9E",
"&	c #232323232323",
"*	c #F7F7F7F7F7F7",
"=	c #EFEFEFEFEFEF",
"-	c #A7A7A7A7B2B2",
";	c #B5B5B5B5BDBD",
":	c #424242429191",
"                            ",
"            .X              ",
"          .oOOooX           ",
"        +@#O$XO##@@+        ",
"       O##oXXXXXo@##+       ",
"     #O%oXXXXXXXXX+&+       ",
"     O@**+XXXXXX.*$&+       ",
"     OoXX.**...=X@@&+       ",
"     OoX%-XX+*.@@@@&+*      ",
"     Oo;::%XX*@@@@@&+       ",
"     &-X-:-XX*@@@@@&+*      ",
"     OXXXXXXX*@@@@@&+       ",
"     O$==+XXX*@@@%@&.       ",
"     OoX..**.*@@@@@&+       ",
"     &-X-;XX+ @@@@@&+       ",
"     Oo;::-XX*@@@@@&+*      ",
"     OoX%:%XX*@@@@@&-       ",
"     OXXXXXXX*@@@@@&#X.     ",
"     &X=+.XXX*@@@%@&#@%-.   ",
"     Oo..+==.*@@@@@&#@@@%.  ",
"     OoXXXX.+ @@@@@&#@@@X*  ",
"     Oo;::;XX*@@@@&#@@$     ",
"     Oo;%:%;X*@@@OO@o-      ",
"     &#XX;;XX*@#OO@-=       ",
"     oOO#@XXX*@OOoX=        ",
"      .oOOOOo*&Oo=          ",
"        +.%OOO#+=           ",
"          ==+#*             "};
