/* XPM */
static char * image_name[] = {
"28 27 3 1",
" 	c None",
".	c #000000000000",
"X	c #FFFFFFFFFFFF",
"                            ",
"                            ",
"                            ",
"                            ",
"     ............           ",
"     .XXXXXXXXXX..          ",
"     .XXXXXXXXXX.X.         ",
"     .XXXXXXXXXX.XX.        ",
"     .XXXXXXXXXX.XXX.       ",
"     .XXXXXXXXXX......      ",
"     .XXXXXXXXXXXXXXX.      ",
"     .XXXXXXXXXXXXXXX.      ",
"     .XXXXXXXXXXXXXXX.      ",
"     .XXXXXXXXXXXXXXX.      ",
"     .XXXXXXXXXXXXXXX.      ",
"     .XXXXXXXXXXXXXXX.      ",
"     .XXXXXXXXXXXXXXX.      ",
"     .XXXXXXXXXXXXXXX.      ",
"     .XXXXXXXXXXXXXXX.      ",
"     .XXXXXXXXXXXXXXX.      ",
"     .XXXXXXXXXXXXXXX.      ",
"     .XXXXXXXXXXXXXXX.      ",
"     .XXXXXXXXXXXXXXX.      ",
"     .................      ",
"                            ",
"                            ",
"                            "};
