/* XPM */
static char * image_name[] = {
"28 27 5 1",
" 	c None",
".	c #000000000000",
"X	c #FFFFFFFFFFFF",
"o	c #FFFFFFFF0000",
"O	c #7B7B7B7B0000",
"                            ",
"                            ",
"                            ",
"                            ",
"                            ",
"                            ",
"                            ",
"                            ",
"    ....                    ",
"   .XoXo.                   ",
"  .XoXoXo..........         ",
"  .oXoXoXoXoXoXoXo.         ",
"  .XoXoXoXoXoXoXoX.         ",
"  .oXoXoXoXoXoXoXo.         ",
"  .XoXoXoX................  ",
"  .oXoXoX.OOOOOOOOOOOOOOO.  ",
"  .XoXoX.OOOOOOOOOOOOOOO.   ",
"  .oXoX.OOOOOOOOOOOOOOO.    ",
"  .XoX.OOOOOOOOOOOOOOO.     ",
"  .oX.OOOOOOOOOOOOOOO.      ",
"  .X.OOOOOOOOOOOOOOO.       ",
"  ..OOOOOOOOOOOOOOO.        ",
"  ..OOOOOOOOOOOOOO.         ",
"  .................         ",
"                            ",
"                            ",
"                            "};
