/* XPM */
static char * image_name[] = {
"28 27 5 1",
" 	c None",
".	c #7B7B00000000",
"X	c #FFFF00000000",
"o	c #EFEFE7E7DEDE",
"O	c #A5A57B7B6B6B",
"                            ",
"                            ",
"                            ",
"                            ",
"                            ",
"         .........          ",
"       ..XXXXXXXXX..        ",
"      .XXXXXXXXXXXXX.       ",
"      .XXXXXXXXXXXXX.       ",
"     .XXXooXXXXXooXXX.      ",
"     .XXXoooXXXoooXXX.O     ",
"     .XXXXoooXoooXXXX.O     ",
"     .XXXXXoooooXXXXX.O     ",
"     .XXXXXXoooXXXXXX.O     ",
"     .XXXXXoooooXXXXX.O     ",
"     .XXXXoooXoooXXXX.O     ",
"     .XXXoooXXXoooXXX.O     ",
"     .XXXooXXXXXooXXX.O     ",
"      .XXXXXXXXXXXXX.OO     ",
"      .XXXXXXXXXXXXX.O      ",
"       ..XXXXXXXXX..OO      ",
"         .........OOO       ",
"          OOOOOOOOO         ",
"                            ",
"                            ",
"                            ",
"                            "};
