/* XPM */
static char * image_name[] = {
"28 27 6 1",
" 	c None",
".	c #000000000000",
"X	c #7B7B7B7B0000",
"o	c #FFFFFFFFFFFF",
"O	c #FFFFFFFF0000",
"+	c #BDBDBDBDBDBD",
"                            ",
"                            ",
"                            ",
"                            ",
"    ....................    ",
"    .XX.oOoOoOoOoOoO.oo.    ",
"    .XX.OoOoOoOoOoOo.oo.    ",
"    .XX.oOoOoOoOoOoO....    ",
"    .XX.OoOoOoOoOoOo.XX.    ",
"    .XX.oOoOoOoOoOoO.XX.    ",
"    .XX.OoOoOoOoOoOo.XX.    ",
"    .XX.oOoOoOoOoOoO.XX.    ",
"    .XX.OoOoOoOoOoOo.XX.    ",
"    .XX.oOoOoOoOoOoO.XX.    ",
"    .XX.OoOoOoOoOoOo.XX.    ",
"    .XXX............XXX.    ",
"    .XXXXXXXXXXXXXXXXXX.    ",
"    .XXX.............XX.    ",
"    .XXX.............XX.    ",
"    .XXX.........+++.XX.    ",
"    .XXX.........+++.XX.    ",
"    .XXX.........+++.XX.    ",
"    .XXX.........+++.XX.    ",
"    .XXX.........+++.XX.    ",
"     ..................     ",
"                            ",
"                            "};
