/* XPM */
static char * player2_xpm[] = {
"64 64 138 2",
"  	c None",
". 	c #7D7D7D",
"+ 	c #7A7A7A",
"@ 	c #7C7C7C",
"# 	c #777777",
"$ 	c #000000",
"% 	c #696969",
"& 	c #787878",
"* 	c #131313",
"= 	c #101010",
"- 	c #0F0F0F",
"; 	c #6C6C6C",
"> 	c #7F7F7F",
", 	c #272727",
"' 	c #0E0E0E",
") 	c #2A2A2A",
"! 	c #7B7B7B",
"~ 	c #323232",
"{ 	c #171717",
"] 	c #212121",
"^ 	c #808080",
"/ 	c #888888",
"( 	c #FAFAFA",
"_ 	c #FFFFFF",
": 	c #FBFBFB",
"< 	c #676767",
"[ 	c #BBBBBB",
"} 	c #A0A0A0",
"| 	c #959595",
"1 	c #818181",
"2 	c #828282",
"3 	c #FDFDFD",
"4 	c #E0E0E0",
"5 	c #ACACAC",
"6 	c #B5B5B5",
"7 	c #575757",
"8 	c #9B9B9B",
"9 	c #CECECE",
"0 	c #9E9E9E",
"a 	c #1A1A1A",
"b 	c #C8C8C8",
"c 	c #666666",
"d 	c #9A9A9A",
"e 	c #A2A2A2",
"f 	c #8B8B8B",
"g 	c #7E7E7E",
"h 	c #838383",
"i 	c #A4A4A4",
"j 	c #F5F5F5",
"k 	c #B6B6B6",
"l 	c #707070",
"m 	c #121212",
"n 	c #CFCFCF",
"o 	c #A3A3A3",
"p 	c #DBDBDB",
"q 	c #AAAAAA",
"r 	c #F8F8F8",
"s 	c #949494",
"t 	c #D0D0D0",
"u 	c #ADADAD",
"v 	c #CDCDCD",
"w 	c #141414",
"x 	c #DEDEDE",
"y 	c #929292",
"z 	c #A9A9A9",
"A 	c #6D6D6D",
"B 	c #C6C6C6",
"C 	c #D4D4D4",
"D 	c #F2F2F2",
"E 	c #8C8C8C",
"F 	c #858585",
"G 	c #686868",
"H 	c #C4C2B8",
"I 	c #EADFAE",
"J 	c #EBE0AF",
"K 	c #B4A977",
"L 	c #584D1C",
"M 	c #675C2B",
"N 	c #A29664",
"O 	c #F3EDCF",
"P 	c #CE2727",
"Q 	c #F3ECCE",
"R 	c #F3ECCD",
"S 	c #D24F2C",
"T 	c #EFE8C8",
"U 	c #9F9D96",
"V 	c #EEE4B8",
"W 	c #B1A77C",
"X 	c #4F4519",
"Y 	c #5F5529",
"Z 	c #9C9679",
"` 	c #DBCC88",
" .	c #5F5F5F",
"..	c #E1E1E1",
"+.	c #EDEDED",
"@.	c #606060",
"#.	c #B4B4B4",
"$.	c #D5512A",
"%.	c #E28232",
"&.	c #868686",
"*.	c #BDBDBD",
"=.	c #F7F7F7",
"-.	c #D5D5D5",
";.	c #DFDFDF",
">.	c #F6F6F6",
",.	c #C2C2C2",
"'.	c #A1A1A1",
").	c #C1C1C1",
"!.	c #C5C5C5",
"~.	c #CBCBCB",
"{.	c #FCFCFC",
"].	c #CACACA",
"^.	c #C7C7C7",
"/.	c #A5A5A5",
"(.	c #D6D6D6",
"_.	c #ECECEC",
":.	c #D2D2D2",
"<.	c #E7E7E7",
"[.	c #9C9C9C",
"}.	c #D1D1D1",
"|.	c #DADADA",
"1.	c #E2E2E2",
"2.	c #BABABA",
"3.	c #F0F0F0",
"4.	c #F1F1F1",
"5.	c #CCCCCC",
"6.	c #AFAFAF",
"7.	c #DDDDDD",
"8.	c #F3F3F3",
"9.	c #F4F4F4",
"0.	c #F9F9F9",
"a.	c #E4E4E4",
"b.	c #E9E9E9",
"c.	c #C9C9C9",
"d.	c #B2B2B2",
"e.	c #DCDCDC",
"f.	c #FEFEFE",
"g.	c #C0C0C0",
"                                                                                                                                ",
"                                                                                                                                ",
"                                                                                                                                ",
"                                                                                                                                ",
"                                                                                                                                ",
"                                                                        . + @ . . + @                                           ",
"                                                                        # $ $ $ $ $ % &                                         ",
"                                                                        & * = - = * ;                                           ",
"                                                                        > > , $ ' > >                                           ",
"                                                                        > > , $ ' > >                                           ",
"                                                                        > > , $ ' > >                                           ",
"                                                                      ) ! > ~ { ] ^ ^                                           ",
"                                                          / ( _ _ _ _ _ _ _ _ _ _ _ _ _ _ _ _ _ _ : <                           ",
"                                                          [ } _ _ _ _ _ _ _ _ _ _ _ _ _ _ _ _ _ _ |                             ",
"                                                          1 2 3 _ _ _ _ _ 4 5 5 5 5 6 _ _ _ _ _ 3 7 ^                           ",
"                                                        > > 8 9 _ _ _ _ _ 0 $ $ $ $ a _ _ _ _ _ b c >                           ",
"                                                      > > > d e _ _ _ _ _ 0 $ $ $ $ a _ _ _ _ _ f g > >                         ",
"                                                      > > > h i _ j k k k l $ $ $ $ m k k k n _ @ > > > >                       ",
"                                                    > > > > > o _ p $ $ $ $ $ $ $ $ $ $ $ $ 7 _ g > > > >                       ",
"                                                    > > > >   q r p $ $ $ $ $ $ $ $ $ $ $ $ 7 r s > > > > >                     ",
"                                                  > > > > >   t n p $ $ $ $ $ $ $ $ $ $ $ $ 7 n     > > > > >                   ",
"                                                  > > > >     : 5 p $ $ $ $ $ $ $ $ $ $ $ $ 7 u       > > > > >                 ",
"                                                  > > > >       5 r v v v > $ $ $ $ w v v v x i       > > > > >                 ",
"                                                > > > >         u _ _ _ _ 0 $ $ $ $ a _ _ _ _ y         > > > > >               ",
"                                                > > >           z 3 _ _ _ 0 $ $ $ $ a _ _ _ 3 A           > > > >               ",
"                                              > > > >           B C _ _ _ 0 $ $ $ $ a _ _ _ C             > > > >               ",
"                                              > > > >           D 0 _ _ _ 0 $ $ $ $ a _ _ _ 0               > > > >             ",
"                                              > > >               E _ _ _ 0 $ $ $ $ a _ _ _ F               > > > >             ",
"                                              > > > >             2 _ _ _ 0 $ $ $ $ a _ _ _ G               > > > >             ",
"                                                > > > >           H I J J K L L L L M J J I N               > > > >             ",
"                                                > > > >           O P P P P P P P P P P P P P             > > > > >             ",
"                                                  > > > >         Q P P P P P P P P P P P P P               > > > > >           ",
"                                                    > > > >       R P P P P P P P P P P P P P             P S P P P P P P P     ",
"                                                      > > > > >   T P P P P P P P P P P P P P           P P P P P P P P P P     ",
"                                                        > > > >   U V V V W X X X X Y V V Z `           P P P P P P P P P P     ",
"                                                          > > >  ..._ _ _ 0 $ $ $ $ a _ _ +.q           P P P P P P P P P P     ",
"                                                            > > @._ _ _ _ 0 $ $ $ $ a _ _ _ #.          P P $.$.P P P %.P P     ",
"                                                            > . &._ _ _ _ 0 $ $ $ $ a _ _ _ *.=.          > > >   -.-.-.        ",
"                                                              c ;._ _ _ _ 0 $ $ $ $ a _ _ _ >.,.          > > >   -.-.-.        ",
"                                                              '._ _ _ _ _ 0 $ $ $ $ a _ _ _ _ ).          > > >   -.-.-.        ",
"                                                              !._ _ _ _ _ 0 $ $ $ $ a _ _ _ _ ~.=.        > > >   -.-.-.        ",
"                                                              {._ _ _ _ _ 0 $ $ $ $ a _ _ _ _ {.~.        > > >   -.-.-.        ",
"                                                            5 _ _ _ _ _ _ 0 $ $ $ $ a _ _ _ _ _ ]._       > > >   -.-.-.        ",
"                                                            n _ _ _ _ _ _ 0 $ $ $ $ a _ _ _ _ _ C D       > > >   -.-.-.        ",
"                                                            _ _ _ _ _ _ _ 0 $ $ $ $ a _ _ _ _ _ _ ^.      > > >   -.-.-.        ",
"                                                          /._ _ _ _ _ _ _ 0 $ $ $ $ a _ _ _ _ _ _ !._     > > >   -.-.-.        ",
"                                                          (._ _ _ _ _ _ _ _.v v v v :._ _ _ _ _ _ p <.    > > >   -.-.-.        ",
"                                                          _ _ _ _ _ _ _ _ _ _ _ _ _ _ _ _ _ _ _ _ _ ,.    > > >   -.-.-.        ",
"                                                        [._ _ _ _ _ _ _ _ _ _ _ _ _ _ _ _ _ _ _ _ _ )._   > > >   -.-.-.        ",
"                                                        }._ _ _ _ _ _ _ _ _ _ _ _ _ _ _ _ _ _ _ _ _ |.1.  > > >   -.-.-.        ",
"                                                        _ _ _ _ _ _ _ _ _ _ _ _ _ _ _ _ _ _ _ _ _ _ _ 2.  > > >   -.-.-.        ",
"                                                      g _ _ _ _ _ _ _ _ _ _ _ _ _ _ _ _ _ _ _ _ _ _ _ k   > > >   -.-.-.        ",
"                                                      /._ _ _ _ _ _ _ _ _ _ _ _ _ _ _ _ _ _ _ _ _ _ _ 2.1.> > >   -.-.-.        ",
"                                                      3._ _ _ _ _ _ _ _ _ _ _ _ _ _ _ _ _ _ _ _ _ _ _ 4.d > > >   -.-.-.        ",
"                                                      _ _ _ _ _ _ _ _ _ _ _ _ _ _ _ _ _ _ _ _ _ _ _ {._ g > > >   -.-.-.        ",
"                                                      _ 5.q 6.k *.).7.D 8.9.j j >.=.r 0.r ..a.b.c.d.t _   > > >   -.-.-.        ",
"                                                          _ _ _ _ _ +.7.7.e.e.p p |.|.|.|.f._ _ _ _       > > >   -.-.-.        ",
"                                                                            _ _ _ _                       > > > *.-.-.-.        ",
"                                                                                                          > > > !.-.-.          ",
"                                                                                                            > > !.-.            ",
"                                                                                                              > g.              ",
"                                                                                                                                ",
"                                                                                                                                ",
"                                                                                                                                "};
