/* XPM */
static char * player_xpm[] = {
"64 64 148 2",
"  	c None",
". 	c #7D7D7D",
"+ 	c #7A7A7A",
"@ 	c #7C7C7C",
"# 	c #777777",
"$ 	c #000000",
"% 	c #696969",
"& 	c #787878",
"* 	c #131313",
"= 	c #101010",
"- 	c #0F0F0F",
"; 	c #6C6C6C",
"> 	c #7F7F7F",
", 	c #272727",
"' 	c #0E0E0E",
") 	c #2A2A2A",
"! 	c #7B7B7B",
"~ 	c #323232",
"{ 	c #171717",
"] 	c #212121",
"^ 	c #808080",
"/ 	c #888888",
"( 	c #FAFAFA",
"_ 	c #FFFFFF",
": 	c #FBFBFB",
"< 	c #676767",
"[ 	c #BBBBBB",
"} 	c #A0A0A0",
"| 	c #959595",
"1 	c #818181",
"2 	c #828282",
"3 	c #FDFDFD",
"4 	c #E0E0E0",
"5 	c #ACACAC",
"6 	c #B5B5B5",
"7 	c #575757",
"8 	c #9B9B9B",
"9 	c #CECECE",
"0 	c #9E9E9E",
"a 	c #1A1A1A",
"b 	c #C8C8C8",
"c 	c #666666",
"d 	c #9A9A9A",
"e 	c #A2A2A2",
"f 	c #8B8B8B",
"g 	c #7E7E7E",
"h 	c #838383",
"i 	c #A4A4A4",
"j 	c #F5F5F5",
"k 	c #B6B6B6",
"l 	c #707070",
"m 	c #121212",
"n 	c #CFCFCF",
"o 	c #A3A3A3",
"p 	c #DBDBDB",
"q 	c #AAAAAA",
"r 	c #F8F8F8",
"s 	c #949494",
"t 	c #D0D0D0",
"u 	c #ADADAD",
"v 	c #CDCDCD",
"w 	c #141414",
"x 	c #DEDEDE",
"y 	c #929292",
"z 	c #A9A9A9",
"A 	c #6D6D6D",
"B 	c #C6C6C6",
"C 	c #D4D4D4",
"D 	c #F2F2F2",
"E 	c #8C8C8C",
"F 	c #858585",
"G 	c #686868",
"H 	c #C4C2B8",
"I 	c #EADFAE",
"J 	c #EBE0AF",
"K 	c #B4A977",
"L 	c #584D1C",
"M 	c #675C2B",
"N 	c #A29664",
"O 	c #F3EDCF",
"P 	c #D2B844",
"Q 	c #D2B946",
"R 	c #F3ECCE",
"S 	c #F3ECCD",
"T 	c #FAD329",
"U 	c #DEC03A",
"V 	c #CFB545",
"W 	c #CDB447",
"X 	c #D6BA40",
"Y 	c #F0CC2E",
"Z 	c #EFE8C8",
"` 	c #D0B643",
" .	c #9F9D96",
"..	c #EEE4B8",
"+.	c #B1A77C",
"@.	c #4F4519",
"#.	c #5F5529",
"$.	c #9C9679",
"%.	c #DBCC88",
"&.	c #5F5F5F",
"*.	c #E1E1E1",
"=.	c #EDEDED",
"-.	c #606060",
";.	c #B4B4B4",
">.	c #EBC931",
",.	c #E9C733",
"'.	c #F4D030",
").	c #F4D33F",
"!.	c #F5D33C",
"~.	c #868686",
"{.	c #BDBDBD",
"].	c #F7F7F7",
"^.	c #D5D5D5",
"/.	c #DFDFDF",
"(.	c #F6F6F6",
"_.	c #C2C2C2",
":.	c #A1A1A1",
"<.	c #C1C1C1",
"[.	c #C5C5C5",
"}.	c #CBCBCB",
"|.	c #FCFCFC",
"1.	c #CACACA",
"2.	c #C7C7C7",
"3.	c #A5A5A5",
"4.	c #D6D6D6",
"5.	c #ECECEC",
"6.	c #D2D2D2",
"7.	c #E7E7E7",
"8.	c #9C9C9C",
"9.	c #D1D1D1",
"0.	c #DADADA",
"a.	c #E2E2E2",
"b.	c #BABABA",
"c.	c #F0F0F0",
"d.	c #F1F1F1",
"e.	c #CCCCCC",
"f.	c #AFAFAF",
"g.	c #DDDDDD",
"h.	c #F3F3F3",
"i.	c #F4F4F4",
"j.	c #F9F9F9",
"k.	c #E4E4E4",
"l.	c #E9E9E9",
"m.	c #C9C9C9",
"n.	c #B2B2B2",
"o.	c #DCDCDC",
"p.	c #FEFEFE",
"q.	c #C0C0C0",
"                                                                                                                                ",
"                                                                                                                                ",
"                                                                                                                                ",
"                                                                                                                                ",
"                                                                                                                                ",
"                                                                        . + @ . . + @                                           ",
"                                                                        # $ $ $ $ $ % &                                         ",
"                                                                        & * = - = * ;                                           ",
"                                                                        > > , $ ' > >                                           ",
"                                                                        > > , $ ' > >                                           ",
"                                                                        > > , $ ' > >                                           ",
"                                                                      ) ! > ~ { ] ^ ^                                           ",
"                                                          / ( _ _ _ _ _ _ _ _ _ _ _ _ _ _ _ _ _ _ : <                           ",
"                                                          [ } _ _ _ _ _ _ _ _ _ _ _ _ _ _ _ _ _ _ |                             ",
"                                                          1 2 3 _ _ _ _ _ 4 5 5 5 5 6 _ _ _ _ _ 3 7 ^                           ",
"                                                        > > 8 9 _ _ _ _ _ 0 $ $ $ $ a _ _ _ _ _ b c >                           ",
"                                                      > > > d e _ _ _ _ _ 0 $ $ $ $ a _ _ _ _ _ f g > >                         ",
"                                                      > > > h i _ j k k k l $ $ $ $ m k k k n _ @ > > > >                       ",
"                                                    > > > > > o _ p $ $ $ $ $ $ $ $ $ $ $ $ 7 _ g > > > >                       ",
"                                                    > > > >   q r p $ $ $ $ $ $ $ $ $ $ $ $ 7 r s > > > > >                     ",
"                                                  > > > > >   t n p $ $ $ $ $ $ $ $ $ $ $ $ 7 n     > > > > >                   ",
"                                                  > > > >     : 5 p $ $ $ $ $ $ $ $ $ $ $ $ 7 u       > > > > >                 ",
"                                                  > > > >       5 r v v v > $ $ $ $ w v v v x i       > > > > >                 ",
"                                                > > > >         u _ _ _ _ 0 $ $ $ $ a _ _ _ _ y         > > > > >               ",
"                                                > > >           z 3 _ _ _ 0 $ $ $ $ a _ _ _ 3 A           > > > >               ",
"                                              > > > >           B C _ _ _ 0 $ $ $ $ a _ _ _ C             > > > >               ",
"                                              > > > >           D 0 _ _ _ 0 $ $ $ $ a _ _ _ 0               > > > >             ",
"                                              > > >               E _ _ _ 0 $ $ $ $ a _ _ _ F               > > > >             ",
"                                              > > > >             2 _ _ _ 0 $ $ $ $ a _ _ _ G               > > > >             ",
"                                                > > > >           H I J J K L L L L M J J I N               > > > >             ",
"                                                > > > >           O P P P P P P P P P P P P Q             > > > > >             ",
"                                                  > > > >         R P P P P P P P P P P P P Q               > > > > >           ",
"                                                    > > > >       S P P P P P P P P P P P P Q             T U V W X Y T T T     ",
"                                                      > > > > >   Z P P P P P P P P P P P ` Q           T T T T T T T T T T     ",
"                                                        > > > >    .......+.@.@.@.@.#.....$.%.          T T T T T T T T T T     ",
"                                                          > > > &.*._ _ _ 0 $ $ $ $ a _ _ =.q           T T T T T T T T T T     ",
"                                                            > > -._ _ _ _ 0 $ $ $ $ a _ _ _ ;.          T >.,.,.'.).).!.T T     ",
"                                                            > . ~._ _ _ _ 0 $ $ $ $ a _ _ _ {.].          > > >   ^.^.^.        ",
"                                                              c /._ _ _ _ 0 $ $ $ $ a _ _ _ (._.          > > >   ^.^.^.        ",
"                                                              :._ _ _ _ _ 0 $ $ $ $ a _ _ _ _ <.          > > >   ^.^.^.        ",
"                                                              [._ _ _ _ _ 0 $ $ $ $ a _ _ _ _ }.].        > > >   ^.^.^.        ",
"                                                              |._ _ _ _ _ 0 $ $ $ $ a _ _ _ _ |.}.        > > >   ^.^.^.        ",
"                                                            5 _ _ _ _ _ _ 0 $ $ $ $ a _ _ _ _ _ 1._       > > >   ^.^.^.        ",
"                                                            n _ _ _ _ _ _ 0 $ $ $ $ a _ _ _ _ _ C D       > > >   ^.^.^.        ",
"                                                            _ _ _ _ _ _ _ 0 $ $ $ $ a _ _ _ _ _ _ 2.      > > >   ^.^.^.        ",
"                                                          3._ _ _ _ _ _ _ 0 $ $ $ $ a _ _ _ _ _ _ [._     > > >   ^.^.^.        ",
"                                                          4._ _ _ _ _ _ _ 5.v v v v 6._ _ _ _ _ _ p 7.    > > >   ^.^.^.        ",
"                                                          _ _ _ _ _ _ _ _ _ _ _ _ _ _ _ _ _ _ _ _ _ _.    > > >   ^.^.^.        ",
"                                                        8._ _ _ _ _ _ _ _ _ _ _ _ _ _ _ _ _ _ _ _ _ <._   > > >   ^.^.^.        ",
"                                                        9._ _ _ _ _ _ _ _ _ _ _ _ _ _ _ _ _ _ _ _ _ 0.a.  > > >   ^.^.^.        ",
"                                                        _ _ _ _ _ _ _ _ _ _ _ _ _ _ _ _ _ _ _ _ _ _ _ b.  > > >   ^.^.^.        ",
"                                                      g _ _ _ _ _ _ _ _ _ _ _ _ _ _ _ _ _ _ _ _ _ _ _ k   > > >   ^.^.^.        ",
"                                                      3._ _ _ _ _ _ _ _ _ _ _ _ _ _ _ _ _ _ _ _ _ _ _ b.a.> > >   ^.^.^.        ",
"                                                      c._ _ _ _ _ _ _ _ _ _ _ _ _ _ _ _ _ _ _ _ _ _ _ d.d > > >   ^.^.^.        ",
"                                                      _ _ _ _ _ _ _ _ _ _ _ _ _ _ _ _ _ _ _ _ _ _ _ |._ g > > >   ^.^.^.        ",
"                                                      _ e.q f.k {.<.g.D h.i.j j (.].r j.r *.k.l.m.n.t _   > > >   ^.^.^.        ",
"                                                          _ _ _ _ _ =.g.g.o.o.p p 0.0.0.0.p._ _ _ _       > > >   ^.^.^.        ",
"                                                                            _ _ _ _                       > > > {.^.^.^.        ",
"                                                                                                          > > > [.^.^.          ",
"                                                                                                            > > [.^.            ",
"                                                                                                              > q.              ",
"                                                                                                                                ",
"                                                                                                                                ",
"                                                                                                                                "};
