/* XPM */
static char * after_xpm[] = {
/* width height ncolors chars_per_pixel */
"19 19 4 1",
/* colors */
"  s None c None",
". c #040204",
"X c #C4C2C4",
"o c #FF0000",
/* pixels */
"                   ",
"                   ",
"                   ",
"                   ",
"    ............   ",
"   .XXXXXXXXXXXX.  ",
"   .XX.X......XX.  ",
"   .XXXXXXXXXXXX.  ",
"   .XXXXXXXXXXXX.  ",
"   .XXoXXXXXXXXX.  ",
"    XXooXXXXXXXX.  ",
"  oooooooXXXXXXX.  ",
"    XXooXXXXXXXX.  ",
"   .XXoXXXXXXXXX.  ",
"    ............   ",
"                   ",
"                   ",
"                   ",
"                   "};
