/* XPM */
static char * frame_xpm[] = {
/* width height ncolors chars_per_pixel */
"20 17 5 1",
/* colors */
"  s None c None",
". c #848284",
"X c #C4C2C4",
"o c #FCFE04",
"O c #040204",
/* pixels */
"                    ",
"                    ",
"                    ",
"    ...........     ",
"   .oXoXoXoXoXo     ",
"   .XoOOOoOOOoXO    ",
"   .oXoXoXoXoXoO    ",
"   .XoOOOOOOOoXO    ",
"   .oXoXoXoXoXoO    ",
"   .XoOOXOOOOoXO    ",
"   .oXoXoXoXoXoO    ",
"   .XoOOOOOOOoXO    ",
"   .oXoXoXoXoXoO    ",
"    OOOOOOOOXoXO    ",
"           OOOOO    ",
"                    ",
"                    "};
