/* XPM */
static char *subwidget[] = {
/* width height ncolors chars_per_pixel */
"19 19 4 1",
/* colors */
". c #FCFEFC",
"  s None c None",
"X c #0000FF",
"o c #040204",
/* pixels */
"                   ",
"       ooooo       ",
"     ooXXXXXoo     ",
"   ooXXXXXXXXXo    ",
"  oXXXXXXXXXXo     ",
" oXXXXXXXXXXo      ",
" oXXXXXXXXXXo      ",
"oXXXXXXXXXXo       ",
"oXXXXXXXXXo        ",
"oXXXXXXXXo         ",
"oXXXXXXXXo         ",
"oXXXXXXXo          ",
" oXXXXXo           ",
" oXXXXo            ",
"  oXXXo            ",
"   oXo             ",
"    o              ",
"                   ",
"                   "
};
