/* XPM */
static char * cascade_xpm[] = {
/* width height ncolors chars_per_pixel */
"19 21 5 1",
/* colors */
"  s None c None",
". c #FFFFFF",
"X c #C4C2C4",
"o c #040204",
"O c #000000",
/* pixels */
"                   ",
"........           ",
"XXXXXXXo           ",
"OOOXOXXo           ",
"OOOOOXXo           ",
"XXXXXXXo           ",
"OOOOXXXo           ",
"OOOOOXXo...........",
"XXXXXXXo.XXXXXXXXXX",
"oooooooo.XOOOOXXXXX",
"        .XOOOOOOOOX",
"        .XXXXXXXXXX",
"        .XOOOOXXXXX",
"        .XOOOOOXOOO",
"        .XXXXXXXXXX",
"        .XOOOOXXOOX",
"        .XOOOOOXOOX",
"        .XXXXXXXXXX",
"         oooooooooo",
"                   ",
"                   "};
