/* XPM */
static char * cut_xpm[] = {
/* width height ncolors chars_per_pixel */
"17 17 4 1",
/* colors */
"  s None c None",
". c #040204",
"X c #7C7E7C",
"o c #BCBEBC",
/* pixels */
"                 ",
"    .     .X     ",
"    .X    .X     ",
"     .   .X      ",
"     .X  .Xo     ",
"      . .X       ",
"      .X.X       ",
"       .X        ",
"      ...X       ",
"    X.X  .X      ",
"   ...X  ...     ",
"  .XX.X  .X .    ",
"  .  .X  .X .X   ",
"  .  .X  .X .X   ",
"   ..XXo  ..Xo   ",
"   XX     XX     ",
"                 "};
