/* XPM */
static char * label_xpm[] = {
/* width height ncolors chars_per_pixel */
"19 20 3 1",
/* colors */
"  s None c None",
". c #848284",
"X c #040204",
/* pixels */
"                   ",
"                   ",
"                   ",
"                   ",
"        ..         ",
"        XX         ",
"       .XX.        ",
"       XXXX        ",
"      .X XX.       ",
"      X  .XX       ",
"     .X   XX.      ",
"     X    .XX      ",
"    .XXXXXXXX.     ",
"    X      .XX     ",
"   .X       XX.    ",
"   X        .XX    ",
"  XX        .XX.   ",
" XXXX      .XXXXX  ",
"                   ",
"                   "};
