/* XPM */
static char *repaint[] = {
/* width height ncolors chars_per_pixel */
"17 17 11 1",
/* colors */
"_ c #FC0204",
". c #FCFEFC",
"X c #F4F6F4",
"o c #E4E6E4",
"O c #C4C6C4",
"+ c #0402FC",
"@ c #848684",
"# c #646264",
"$ c #FCFE04",
"% c #040204",
"  s None c None",
/* pixels */
"                 ",
"o##############  ",
"#@@@@@@@@@@@@@@% ",
"#@X...X...X.X.@% ",
"#@.........OOO@% ",
"#@X.OO..$.....@% ",
"#@..$...$...$.@% ",
"#@X..$.___.$..@% ",
"#@...._____...@% ",
"#@++++++++++++@% ",
"#@++++++++++++@% ",
"#@@@@@@@@@@@@@@% ",
" %%%%%%%%%%%%%%  ",
"       %%%       ",
"       %%%       ",
"     %%%%%%%     ",
"                 "
};
