/* XPM */
static char * duplicate_xpm[] = {
/* width height ncolors chars_per_pixel */
"17 17 6 1",
/* colors */
"  s None c None",
". c #000099",
"X c #663399",
"o c #666699",
"O c #333399",
"+ c #330099",
/* pixels */
"                 ",
"      .....      ",
"      ....X      ",
"       ..X       ",
"     .....X      ",
"    ..O.....     ",
"   ..O ...X..    ",
"  ..O ...X  ..+  ",
"     ....X  ++   ",
"    ..O ..X      ",
"   ..O   ..X     ",
"  ..O    ..X     ",
" ..O    ..X      ",
"  ..O    ..X     ",
" ooooooooooooo   ",
"                 ",
"                 "};
