/* XPM */
static char * command_xpm[] = {
/* width height ncolors chars_per_pixel */
"19 21 5 1",
/* colors */
"  s None c None",
". c #FFFFFF",
"X c #C4C4C4",
"o c #040404",
"O c #000000",
/* pixels */
"                   ",
"                   ",
"  ................ ",
"  .XXXXXXXXXXXXXXo ",
"  .XOOOOOXOOXXXXXo ",
"  .XOOOOOOOOXXXXXo ",
"  .XXXXXXXXXXXXXXo ",
"  .XOOOOOXOOXXXXXo ",
"  .XOOOOOOOOXXXXXo ",
"  .XXXXXXXXXXXXXXo ",
"  .XXXXXXXXXXXXXXo ",
"  .XXXXXXXXXXXXXXo ",
"  .XXXXXXXXXXXXXXo ",
"  .XOOOOOOXOOXXXXo ",
"  .XOOOOOOOOOXXXXo ",
"  .XXXXXXXXXXXXXXo ",
"  .ooooooooooooooo ",
"                   ",
"                   ",
"                   ",
"                   "};
