/* XPM */
static char *subwidget[] = {
/* width height ncolors chars_per_pixel */
"19 19 4 1",
/* colors */
". c #FCFEFC",
"  s None c None",
"X c #FCFE04",
"o c #040204",
/* pixels */
"                   ",
"                   ",
"                   ",
"        ooooo      ",
"        oX.Xo      ",
"        ooooo      ",
"                   ",
"          o        ",
"          o        ",
"    ooooooooooooo  ",
"    o     o     o  ",
"                   ",
"  oooo  oooo  oooo ",
"  oX.o  oX.o  oX.o ",
"  oooo  oooo  oooo ",
"                   ",
"                   ",
"                   ",
"                   "
};
