/* XPM */
static char *viewcode[] = {
/* width height ncolors chars_per_pixel */
"17 17 6 1",
/* colors */
"  s None c None",
". c #FCFEFC",
"X c #0402FC",
"o c #848284",
"O c #FCFE04",
"+ c #040204",
/* pixels */
"                 ",
"  +++++++++++++ +",
"  +............ +",
"  +.oooo.oo.... +",
"  +............ +",
"  ++++o.oo..... +",
" +....+........ +",
"+ .oo.o+.o.....++",
"+ .....+.......++",
"+ .o.oo+.......++",
"+  ....++++++++++",
" +    +O         ",
"  ++++o+X        ",
"       ++X       ",
"        ++X      ",
"                 ",
"                 "
};
