#define lightning_width 9
#define lightning_height 13
static unsigned char lightning_bits[] = {
   0x82, 0x00, 0xc6, 0x00, 0xc6, 0x00, 0x44, 0x00, 0x7c, 0x00, 0x10, 0x00,
   0x10, 0x00, 0x7c, 0x00, 0x44, 0x00, 0xc6, 0x00, 0xc6, 0x00, 0xc6, 0x00,
   0x82, 0x00 };
