<?xml version="1.0" encoding="utf-8" standalone="no"?>
<!DOCTYPE svg PUBLIC "-//W3C//DTD SVG 1.1//EN"
  "http://www.w3.org/Graphics/SVG/1.1/DTD/svg11.dtd">
<svg xmlns:xlink="http://www.w3.org/1999/xlink" width="871.891099pt" height="319.469106pt" viewBox="0 0 871.891099 319.469106" xmlns="http://www.w3.org/2000/svg" version="1.1">
 <metadata>
  <rdf:RDF xmlns:dc="http://purl.org/dc/elements/1.1/" xmlns:cc="http://creativecommons.org/ns#" xmlns:rdf="http://www.w3.org/1999/02/22-rdf-syntax-ns#">
   <cc:Work>
    <dc:type rdf:resource="http://purl.org/dc/dcmitype/StillImage"/>
    <dc:date>2025-12-27T13:32:59.058128</dc:date>
    <dc:format>image/svg+xml</dc:format>
    <dc:creator>
     <cc:Agent>
      <dc:title>made/written by /home/con/Scripts/python/matplotlib/MatPlotLib-Simple/t/01.all.tests.t called using "plt" in /home/con/perl5/perlbrew/perls/perl-5.42.0/lib/site_perl/5.42.0/x86_64-linux/Matplotlib/Simple.pm</dc:title>
     </cc:Agent>
    </dc:creator>
   </cc:Work>
  </rdf:RDF>
 </metadata>
 <defs>
  <style type="text/css">*{stroke-linejoin: round; stroke-linecap: butt}</style>
 </defs>
 <g id="figure_1">
  <g id="patch_1">
   <path d="M -0 319.469106 
L 871.891099 319.469106 
L 871.891099 0 
L -0 0 
z
" style="fill: #ffffff"/>
  </g>
  <g id="axes_1">
   <g id="patch_2">
    <path d="M 242.446917 185.806875 
C 242.446917 181.781003 242.197062 177.759008 241.698795 173.764089 
C 241.200528 169.76917 240.454807 165.809023 239.465935 161.906488 
L 145.144277 185.806875 
z
" style="fill: #1f77b4"/>
   </g>
   <g id="patch_3">
    <path d="M 239.465934 161.906487 
C 236.310352 149.453141 230.719452 137.747158 223.016624 127.465626 
C 215.313795 117.184093 205.650457 108.529136 194.585567 102.001371 
L 145.144277 185.806875 
z
" style="fill: #ff7f0e"/>
   </g>
   <g id="patch_4">
    <path d="M 194.585567 102.001371 
C 184.156678 95.848822 172.670379 91.696657 160.717985 89.758638 
C 148.765593 87.820626 136.555792 88.130584 124.71713 90.672571 
L 145.144277 185.806875 
z
" style="fill: #2ca02c"/>
   </g>
   <g id="patch_5">
    <path d="M 124.71713 90.672571 
C 107.624561 94.342672 91.832883 102.552301 79.009585 114.434571 
C 66.186286 126.316841 56.799176 141.438272 51.839496 158.202135 
L 145.144277 185.806875 
z
" style="fill: #d62728"/>
   </g>
   <g id="patch_6">
    <path d="M 51.839496 158.202135 
C 48.770422 168.575694 47.45271 179.388823 47.940672 190.195851 
C 48.428635 201.002879 50.715476 211.653254 54.706938 221.708013 
L 145.144277 185.806875 
z
" style="fill: #9467bd"/>
   </g>
   <g id="patch_7">
    <path d="M 54.706938 221.708013 
C 57.274257 228.175264 60.527918 234.34852 64.412022 240.121754 
C 68.296126 245.894985 72.788316 251.234962 77.811462 256.049992 
L 145.144277 185.806875 
z
" style="fill: #8c564b"/>
   </g>
   <g id="patch_8">
    <path d="M 77.811462 256.049992 
C 80.982158 259.089319 84.35499 261.910467 87.906842 264.494101 
C 91.458693 267.077735 95.181415 269.417922 99.04944 271.498589 
L 145.144277 185.806875 
z
" style="fill: #e377c2"/>
   </g>
   <g id="patch_9">
    <path d="M 99.04944 271.498589 
C 116.25282 280.752544 135.850667 284.614894 155.278801 282.580299 
C 174.706934 280.545704 193.07939 272.706937 207.99232 260.089626 
L 145.144277 185.806875 
z
" style="fill: #7f7f7f"/>
   </g>
   <g id="patch_10">
    <path d="M 207.99232 260.089626 
C 214.28529 254.76536 219.876272 248.662921 224.630747 241.929111 
C 229.385222 235.195301 233.264779 227.884543 236.176124 220.17265 
L 145.144277 185.806875 
z
" style="fill: #bcbd22"/>
   </g>
   <g id="patch_11">
    <path d="M 236.176124 220.17265 
C 238.245047 214.692262 239.814844 209.036204 240.866385 203.27345 
C 241.917927 197.510696 242.446917 191.664764 242.446917 185.806858 
L 145.144277 185.806875 
z
" style="fill: #17becf"/>
   </g>
   <g id="matplotlib.axis_1"/>
   <g id="matplotlib.axis_2"/>
   <g id="text_1">
    <!-- Dutch -->
    <g transform="translate(251.354247 175.319185) scale(0.1 -0.1)">
     <defs>
      <path id="DejaVuSans-44" d="M 1259 4147 
L 1259 519 
L 2022 519 
Q 2988 519 3436 956 
Q 3884 1394 3884 2338 
Q 3884 3275 3436 3711 
Q 2988 4147 2022 4147 
L 1259 4147 
z
M 628 4666 
L 1925 4666 
Q 3281 4666 3915 4102 
Q 4550 3538 4550 2338 
Q 4550 1131 3912 565 
Q 3275 0 1925 0 
L 628 0 
L 628 4666 
z
" transform="scale(0.015625)"/>
      <path id="DejaVuSans-75" d="M 544 1381 
L 544 3500 
L 1119 3500 
L 1119 1403 
Q 1119 906 1312 657 
Q 1506 409 1894 409 
Q 2359 409 2629 706 
Q 2900 1003 2900 1516 
L 2900 3500 
L 3475 3500 
L 3475 0 
L 2900 0 
L 2900 538 
Q 2691 219 2414 64 
Q 2138 -91 1772 -91 
Q 1169 -91 856 284 
Q 544 659 544 1381 
z
M 1991 3584 
L 1991 3584 
z
" transform="scale(0.015625)"/>
      <path id="DejaVuSans-74" d="M 1172 4494 
L 1172 3500 
L 2356 3500 
L 2356 3053 
L 1172 3053 
L 1172 1153 
Q 1172 725 1289 603 
Q 1406 481 1766 481 
L 2356 481 
L 2356 0 
L 1766 0 
Q 1100 0 847 248 
Q 594 497 594 1153 
L 594 3053 
L 172 3053 
L 172 3500 
L 594 3500 
L 594 4494 
L 1172 4494 
z
" transform="scale(0.015625)"/>
      <path id="DejaVuSans-63" d="M 3122 3366 
L 3122 2828 
Q 2878 2963 2633 3030 
Q 2388 3097 2138 3097 
Q 1578 3097 1268 2742 
Q 959 2388 959 1747 
Q 959 1106 1268 751 
Q 1578 397 2138 397 
Q 2388 397 2633 464 
Q 2878 531 3122 666 
L 3122 134 
Q 2881 22 2623 -34 
Q 2366 -91 2075 -91 
Q 1284 -91 818 406 
Q 353 903 353 1747 
Q 353 2603 823 3093 
Q 1294 3584 2113 3584 
Q 2378 3584 2631 3529 
Q 2884 3475 3122 3366 
z
" transform="scale(0.015625)"/>
      <path id="DejaVuSans-68" d="M 3513 2113 
L 3513 0 
L 2938 0 
L 2938 2094 
Q 2938 2591 2744 2837 
Q 2550 3084 2163 3084 
Q 1697 3084 1428 2787 
Q 1159 2491 1159 1978 
L 1159 0 
L 581 0 
L 581 4863 
L 1159 4863 
L 1159 2956 
Q 1366 3272 1645 3428 
Q 1925 3584 2291 3584 
Q 2894 3584 3203 3211 
Q 3513 2838 3513 2113 
z
" transform="scale(0.015625)"/>
     </defs>
     <use xlink:href="#DejaVuSans-44"/>
     <use xlink:href="#DejaVuSans-75" transform="translate(77.001953 0)"/>
     <use xlink:href="#DejaVuSans-74" transform="translate(140.380859 0)"/>
     <use xlink:href="#DejaVuSans-63" transform="translate(179.589844 0)"/>
     <use xlink:href="#DejaVuSans-68" transform="translate(234.570312 0)"/>
    </g>
   </g>
   <g id="text_2">
    <!-- English -->
    <g transform="translate(230.803856 124.390873) scale(0.1 -0.1)">
     <defs>
      <path id="DejaVuSans-45" d="M 628 4666 
L 3578 4666 
L 3578 4134 
L 1259 4134 
L 1259 2753 
L 3481 2753 
L 3481 2222 
L 1259 2222 
L 1259 531 
L 3634 531 
L 3634 0 
L 628 0 
L 628 4666 
z
" transform="scale(0.015625)"/>
      <path id="DejaVuSans-6e" d="M 3513 2113 
L 3513 0 
L 2938 0 
L 2938 2094 
Q 2938 2591 2744 2837 
Q 2550 3084 2163 3084 
Q 1697 3084 1428 2787 
Q 1159 2491 1159 1978 
L 1159 0 
L 581 0 
L 581 3500 
L 1159 3500 
L 1159 2956 
Q 1366 3272 1645 3428 
Q 1925 3584 2291 3584 
Q 2894 3584 3203 3211 
Q 3513 2838 3513 2113 
z
" transform="scale(0.015625)"/>
      <path id="DejaVuSans-67" d="M 2906 1791 
Q 2906 2416 2648 2759 
Q 2391 3103 1925 3103 
Q 1463 3103 1205 2759 
Q 947 2416 947 1791 
Q 947 1169 1205 825 
Q 1463 481 1925 481 
Q 2391 481 2648 825 
Q 2906 1169 2906 1791 
z
M 3481 434 
Q 3481 -459 3084 -895 
Q 2688 -1331 1869 -1331 
Q 1566 -1331 1297 -1286 
Q 1028 -1241 775 -1147 
L 775 -588 
Q 1028 -725 1275 -790 
Q 1522 -856 1778 -856 
Q 2344 -856 2625 -561 
Q 2906 -266 2906 331 
L 2906 616 
Q 2728 306 2450 153 
Q 2172 0 1784 0 
Q 1141 0 747 490 
Q 353 981 353 1791 
Q 353 2603 747 3093 
Q 1141 3584 1784 3584 
Q 2172 3584 2450 3431 
Q 2728 3278 2906 2969 
L 2906 3500 
L 3481 3500 
L 3481 434 
z
" transform="scale(0.015625)"/>
      <path id="DejaVuSans-6c" d="M 603 4863 
L 1178 4863 
L 1178 0 
L 603 0 
L 603 4863 
z
" transform="scale(0.015625)"/>
      <path id="DejaVuSans-69" d="M 603 3500 
L 1178 3500 
L 1178 0 
L 603 0 
L 603 3500 
z
M 603 4863 
L 1178 4863 
L 1178 4134 
L 603 4134 
L 603 4863 
z
" transform="scale(0.015625)"/>
      <path id="DejaVuSans-73" d="M 2834 3397 
L 2834 2853 
Q 2591 2978 2328 3040 
Q 2066 3103 1784 3103 
Q 1356 3103 1142 2972 
Q 928 2841 928 2578 
Q 928 2378 1081 2264 
Q 1234 2150 1697 2047 
L 1894 2003 
Q 2506 1872 2764 1633 
Q 3022 1394 3022 966 
Q 3022 478 2636 193 
Q 2250 -91 1575 -91 
Q 1294 -91 989 -36 
Q 684 19 347 128 
L 347 722 
Q 666 556 975 473 
Q 1284 391 1588 391 
Q 1994 391 2212 530 
Q 2431 669 2431 922 
Q 2431 1156 2273 1281 
Q 2116 1406 1581 1522 
L 1381 1569 
Q 847 1681 609 1914 
Q 372 2147 372 2553 
Q 372 3047 722 3315 
Q 1072 3584 1716 3584 
Q 2034 3584 2315 3537 
Q 2597 3491 2834 3397 
z
" transform="scale(0.015625)"/>
     </defs>
     <use xlink:href="#DejaVuSans-45"/>
     <use xlink:href="#DejaVuSans-6e" transform="translate(63.183594 0)"/>
     <use xlink:href="#DejaVuSans-67" transform="translate(126.5625 0)"/>
     <use xlink:href="#DejaVuSans-6c" transform="translate(190.039062 0)"/>
     <use xlink:href="#DejaVuSans-69" transform="translate(217.822266 0)"/>
     <use xlink:href="#DejaVuSans-73" transform="translate(245.605469 0)"/>
     <use xlink:href="#DejaVuSans-68" transform="translate(297.705078 0)"/>
    </g>
   </g>
   <g id="text_3">
    <!-- French -->
    <g transform="translate(162.275369 82.913194) scale(0.1 -0.1)">
     <defs>
      <path id="DejaVuSans-46" d="M 628 4666 
L 3309 4666 
L 3309 4134 
L 1259 4134 
L 1259 2759 
L 3109 2759 
L 3109 2228 
L 1259 2228 
L 1259 0 
L 628 0 
L 628 4666 
z
" transform="scale(0.015625)"/>
      <path id="DejaVuSans-72" d="M 2631 2963 
Q 2534 3019 2420 3045 
Q 2306 3072 2169 3072 
Q 1681 3072 1420 2755 
Q 1159 2438 1159 1844 
L 1159 0 
L 581 0 
L 581 3500 
L 1159 3500 
L 1159 2956 
Q 1341 3275 1631 3429 
Q 1922 3584 2338 3584 
Q 2397 3584 2469 3576 
Q 2541 3569 2628 3553 
L 2631 2963 
z
" transform="scale(0.015625)"/>
      <path id="DejaVuSans-65" d="M 3597 1894 
L 3597 1613 
L 953 1613 
Q 991 1019 1311 708 
Q 1631 397 2203 397 
Q 2534 397 2845 478 
Q 3156 559 3463 722 
L 3463 178 
Q 3153 47 2828 -22 
Q 2503 -91 2169 -91 
Q 1331 -91 842 396 
Q 353 884 353 1716 
Q 353 2575 817 3079 
Q 1281 3584 2069 3584 
Q 2775 3584 3186 3129 
Q 3597 2675 3597 1894 
z
M 3022 2063 
Q 3016 2534 2758 2815 
Q 2500 3097 2075 3097 
Q 1594 3097 1305 2825 
Q 1016 2553 972 2059 
L 3022 2063 
z
" transform="scale(0.015625)"/>
     </defs>
     <use xlink:href="#DejaVuSans-46"/>
     <use xlink:href="#DejaVuSans-72" transform="translate(50.269531 0)"/>
     <use xlink:href="#DejaVuSans-65" transform="translate(89.132812 0)"/>
     <use xlink:href="#DejaVuSans-6e" transform="translate(150.65625 0)"/>
     <use xlink:href="#DejaVuSans-63" transform="translate(214.035156 0)"/>
     <use xlink:href="#DejaVuSans-68" transform="translate(269.015625 0)"/>
    </g>
   </g>
   <g id="text_4">
    <!-- German -->
    <g transform="translate(32.352346 110.056731) scale(0.1 -0.1)">
     <defs>
      <path id="DejaVuSans-47" d="M 3809 666 
L 3809 1919 
L 2778 1919 
L 2778 2438 
L 4434 2438 
L 4434 434 
Q 4069 175 3628 42 
Q 3188 -91 2688 -91 
Q 1594 -91 976 548 
Q 359 1188 359 2328 
Q 359 3472 976 4111 
Q 1594 4750 2688 4750 
Q 3144 4750 3555 4637 
Q 3966 4525 4313 4306 
L 4313 3634 
Q 3963 3931 3569 4081 
Q 3175 4231 2741 4231 
Q 1884 4231 1454 3753 
Q 1025 3275 1025 2328 
Q 1025 1384 1454 906 
Q 1884 428 2741 428 
Q 3075 428 3337 486 
Q 3600 544 3809 666 
z
" transform="scale(0.015625)"/>
      <path id="DejaVuSans-6d" d="M 3328 2828 
Q 3544 3216 3844 3400 
Q 4144 3584 4550 3584 
Q 5097 3584 5394 3201 
Q 5691 2819 5691 2113 
L 5691 0 
L 5113 0 
L 5113 2094 
Q 5113 2597 4934 2840 
Q 4756 3084 4391 3084 
Q 3944 3084 3684 2787 
Q 3425 2491 3425 1978 
L 3425 0 
L 2847 0 
L 2847 2094 
Q 2847 2600 2669 2842 
Q 2491 3084 2119 3084 
Q 1678 3084 1418 2786 
Q 1159 2488 1159 1978 
L 1159 0 
L 581 0 
L 581 3500 
L 1159 3500 
L 1159 2956 
Q 1356 3278 1631 3431 
Q 1906 3584 2284 3584 
Q 2666 3584 2933 3390 
Q 3200 3197 3328 2828 
z
" transform="scale(0.015625)"/>
      <path id="DejaVuSans-61" d="M 2194 1759 
Q 1497 1759 1228 1600 
Q 959 1441 959 1056 
Q 959 750 1161 570 
Q 1363 391 1709 391 
Q 2188 391 2477 730 
Q 2766 1069 2766 1631 
L 2766 1759 
L 2194 1759 
z
M 3341 1997 
L 3341 0 
L 2766 0 
L 2766 531 
Q 2569 213 2275 61 
Q 1981 -91 1556 -91 
Q 1019 -91 701 211 
Q 384 513 384 1019 
Q 384 1609 779 1909 
Q 1175 2209 1959 2209 
L 2766 2209 
L 2766 2266 
Q 2766 2663 2505 2880 
Q 2244 3097 1772 3097 
Q 1472 3097 1187 3025 
Q 903 2953 641 2809 
L 641 3341 
Q 956 3463 1253 3523 
Q 1550 3584 1831 3584 
Q 2591 3584 2966 3190 
Q 3341 2797 3341 1997 
z
" transform="scale(0.015625)"/>
     </defs>
     <use xlink:href="#DejaVuSans-47"/>
     <use xlink:href="#DejaVuSans-65" transform="translate(77.490234 0)"/>
     <use xlink:href="#DejaVuSans-72" transform="translate(139.013672 0)"/>
     <use xlink:href="#DejaVuSans-6d" transform="translate(178.376953 0)"/>
     <use xlink:href="#DejaVuSans-61" transform="translate(275.789062 0)"/>
     <use xlink:href="#DejaVuSans-6e" transform="translate(337.068359 0)"/>
    </g>
   </g>
   <g id="text_5">
    <!-- Italian -->
    <g transform="translate(7.2 193.394124) scale(0.1 -0.1)">
     <defs>
      <path id="DejaVuSans-49" d="M 628 4666 
L 1259 4666 
L 1259 0 
L 628 0 
L 628 4666 
z
" transform="scale(0.015625)"/>
     </defs>
     <use xlink:href="#DejaVuSans-49"/>
     <use xlink:href="#DejaVuSans-74" transform="translate(29.492188 0)"/>
     <use xlink:href="#DejaVuSans-61" transform="translate(68.701172 0)"/>
     <use xlink:href="#DejaVuSans-6c" transform="translate(129.980469 0)"/>
     <use xlink:href="#DejaVuSans-69" transform="translate(157.763672 0)"/>
     <use xlink:href="#DejaVuSans-61" transform="translate(185.546875 0)"/>
     <use xlink:href="#DejaVuSans-6e" transform="translate(246.826172 0)"/>
    </g>
   </g>
   <g id="text_6">
    <!-- Polish -->
    <g transform="translate(27.449733 248.312622) scale(0.1 -0.1)">
     <defs>
      <path id="DejaVuSans-50" d="M 1259 4147 
L 1259 2394 
L 2053 2394 
Q 2494 2394 2734 2622 
Q 2975 2850 2975 3272 
Q 2975 3691 2734 3919 
Q 2494 4147 2053 4147 
L 1259 4147 
z
M 628 4666 
L 2053 4666 
Q 2838 4666 3239 4311 
Q 3641 3956 3641 3272 
Q 3641 2581 3239 2228 
Q 2838 1875 2053 1875 
L 1259 1875 
L 1259 0 
L 628 0 
L 628 4666 
z
" transform="scale(0.015625)"/>
      <path id="DejaVuSans-6f" d="M 1959 3097 
Q 1497 3097 1228 2736 
Q 959 2375 959 1747 
Q 959 1119 1226 758 
Q 1494 397 1959 397 
Q 2419 397 2687 759 
Q 2956 1122 2956 1747 
Q 2956 2369 2687 2733 
Q 2419 3097 1959 3097 
z
M 1959 3584 
Q 2709 3584 3137 3096 
Q 3566 2609 3566 1747 
Q 3566 888 3137 398 
Q 2709 -91 1959 -91 
Q 1206 -91 779 398 
Q 353 888 353 1747 
Q 353 2609 779 3096 
Q 1206 3584 1959 3584 
z
" transform="scale(0.015625)"/>
     </defs>
     <use xlink:href="#DejaVuSans-50"/>
     <use xlink:href="#DejaVuSans-6f" transform="translate(56.677734 0)"/>
     <use xlink:href="#DejaVuSans-6c" transform="translate(117.859375 0)"/>
     <use xlink:href="#DejaVuSans-69" transform="translate(145.642578 0)"/>
     <use xlink:href="#DejaVuSans-73" transform="translate(173.425781 0)"/>
     <use xlink:href="#DejaVuSans-68" transform="translate(225.525391 0)"/>
    </g>
   </g>
   <g id="text_7">
    <!-- Romanian -->
    <g transform="translate(32.115911 275.1222) scale(0.1 -0.1)">
     <defs>
      <path id="DejaVuSans-52" d="M 2841 2188 
Q 3044 2119 3236 1894 
Q 3428 1669 3622 1275 
L 4263 0 
L 3584 0 
L 2988 1197 
Q 2756 1666 2539 1819 
Q 2322 1972 1947 1972 
L 1259 1972 
L 1259 0 
L 628 0 
L 628 4666 
L 2053 4666 
Q 2853 4666 3247 4331 
Q 3641 3997 3641 3322 
Q 3641 2881 3436 2590 
Q 3231 2300 2841 2188 
z
M 1259 4147 
L 1259 2491 
L 2053 2491 
Q 2509 2491 2742 2702 
Q 2975 2913 2975 3322 
Q 2975 3731 2742 3939 
Q 2509 4147 2053 4147 
L 1259 4147 
z
" transform="scale(0.015625)"/>
     </defs>
     <use xlink:href="#DejaVuSans-52"/>
     <use xlink:href="#DejaVuSans-6f" transform="translate(64.982422 0)"/>
     <use xlink:href="#DejaVuSans-6d" transform="translate(126.164062 0)"/>
     <use xlink:href="#DejaVuSans-61" transform="translate(223.576172 0)"/>
     <use xlink:href="#DejaVuSans-6e" transform="translate(284.855469 0)"/>
     <use xlink:href="#DejaVuSans-69" transform="translate(348.234375 0)"/>
     <use xlink:href="#DejaVuSans-61" transform="translate(376.017578 0)"/>
     <use xlink:href="#DejaVuSans-6e" transform="translate(437.296875 0)"/>
    </g>
   </g>
   <g id="text_8">
    <!-- Russian -->
    <g transform="translate(156.292253 295.017014) scale(0.1 -0.1)">
     <use xlink:href="#DejaVuSans-52"/>
     <use xlink:href="#DejaVuSans-75" transform="translate(64.982422 0)"/>
     <use xlink:href="#DejaVuSans-73" transform="translate(128.361328 0)"/>
     <use xlink:href="#DejaVuSans-73" transform="translate(180.460938 0)"/>
     <use xlink:href="#DejaVuSans-69" transform="translate(232.560547 0)"/>
     <use xlink:href="#DejaVuSans-61" transform="translate(260.34375 0)"/>
     <use xlink:href="#DejaVuSans-6e" transform="translate(321.623047 0)"/>
    </g>
   </g>
   <g id="text_9">
    <!-- Spanish -->
    <g transform="translate(232.579361 250.30075) scale(0.1 -0.1)">
     <defs>
      <path id="DejaVuSans-53" d="M 3425 4513 
L 3425 3897 
Q 3066 4069 2747 4153 
Q 2428 4238 2131 4238 
Q 1616 4238 1336 4038 
Q 1056 3838 1056 3469 
Q 1056 3159 1242 3001 
Q 1428 2844 1947 2747 
L 2328 2669 
Q 3034 2534 3370 2195 
Q 3706 1856 3706 1288 
Q 3706 609 3251 259 
Q 2797 -91 1919 -91 
Q 1588 -91 1214 -16 
Q 841 59 441 206 
L 441 856 
Q 825 641 1194 531 
Q 1563 422 1919 422 
Q 2459 422 2753 634 
Q 3047 847 3047 1241 
Q 3047 1584 2836 1778 
Q 2625 1972 2144 2069 
L 1759 2144 
Q 1053 2284 737 2584 
Q 422 2884 422 3419 
Q 422 4038 858 4394 
Q 1294 4750 2059 4750 
Q 2388 4750 2728 4690 
Q 3069 4631 3425 4513 
z
" transform="scale(0.015625)"/>
      <path id="DejaVuSans-70" d="M 1159 525 
L 1159 -1331 
L 581 -1331 
L 581 3500 
L 1159 3500 
L 1159 2969 
Q 1341 3281 1617 3432 
Q 1894 3584 2278 3584 
Q 2916 3584 3314 3078 
Q 3713 2572 3713 1747 
Q 3713 922 3314 415 
Q 2916 -91 2278 -91 
Q 1894 -91 1617 61 
Q 1341 213 1159 525 
z
M 3116 1747 
Q 3116 2381 2855 2742 
Q 2594 3103 2138 3103 
Q 1681 3103 1420 2742 
Q 1159 2381 1159 1747 
Q 1159 1113 1420 752 
Q 1681 391 2138 391 
Q 2594 391 2855 752 
Q 3116 1113 3116 1747 
z
" transform="scale(0.015625)"/>
     </defs>
     <use xlink:href="#DejaVuSans-53"/>
     <use xlink:href="#DejaVuSans-70" transform="translate(63.476562 0)"/>
     <use xlink:href="#DejaVuSans-61" transform="translate(126.953125 0)"/>
     <use xlink:href="#DejaVuSans-6e" transform="translate(188.232422 0)"/>
     <use xlink:href="#DejaVuSans-69" transform="translate(251.611328 0)"/>
     <use xlink:href="#DejaVuSans-73" transform="translate(279.394531 0)"/>
     <use xlink:href="#DejaVuSans-68" transform="translate(331.494141 0)"/>
    </g>
   </g>
   <g id="text_10">
    <!-- Ukrainian -->
    <g transform="translate(250.438589 207.779534) scale(0.1 -0.1)">
     <defs>
      <path id="DejaVuSans-55" d="M 556 4666 
L 1191 4666 
L 1191 1831 
Q 1191 1081 1462 751 
Q 1734 422 2344 422 
Q 2950 422 3222 751 
Q 3494 1081 3494 1831 
L 3494 4666 
L 4128 4666 
L 4128 1753 
Q 4128 841 3676 375 
Q 3225 -91 2344 -91 
Q 1459 -91 1007 375 
Q 556 841 556 1753 
L 556 4666 
z
" transform="scale(0.015625)"/>
      <path id="DejaVuSans-6b" d="M 581 4863 
L 1159 4863 
L 1159 1991 
L 2875 3500 
L 3609 3500 
L 1753 1863 
L 3688 0 
L 2938 0 
L 1159 1709 
L 1159 0 
L 581 0 
L 581 4863 
z
" transform="scale(0.015625)"/>
     </defs>
     <use xlink:href="#DejaVuSans-55"/>
     <use xlink:href="#DejaVuSans-6b" transform="translate(73.193359 0)"/>
     <use xlink:href="#DejaVuSans-72" transform="translate(131.103516 0)"/>
     <use xlink:href="#DejaVuSans-61" transform="translate(172.216797 0)"/>
     <use xlink:href="#DejaVuSans-69" transform="translate(233.496094 0)"/>
     <use xlink:href="#DejaVuSans-6e" transform="translate(261.279297 0)"/>
     <use xlink:href="#DejaVuSans-69" transform="translate(324.658203 0)"/>
     <use xlink:href="#DejaVuSans-61" transform="translate(352.441406 0)"/>
     <use xlink:href="#DejaVuSans-6e" transform="translate(413.720703 0)"/>
    </g>
   </g>
   <g id="text_11">
    <!-- Top Languages in Europe -->
    <g transform="translate(69.994277 58.178575) scale(0.12 -0.12)">
     <defs>
      <path id="DejaVuSans-54" d="M -19 4666 
L 3928 4666 
L 3928 4134 
L 2272 4134 
L 2272 0 
L 1638 0 
L 1638 4134 
L -19 4134 
L -19 4666 
z
" transform="scale(0.015625)"/>
      <path id="DejaVuSans-20" transform="scale(0.015625)"/>
      <path id="DejaVuSans-4c" d="M 628 4666 
L 1259 4666 
L 1259 531 
L 3531 531 
L 3531 0 
L 628 0 
L 628 4666 
z
" transform="scale(0.015625)"/>
     </defs>
     <use xlink:href="#DejaVuSans-54"/>
     <use xlink:href="#DejaVuSans-6f" transform="translate(44.083984 0)"/>
     <use xlink:href="#DejaVuSans-70" transform="translate(105.265625 0)"/>
     <use xlink:href="#DejaVuSans-20" transform="translate(168.742188 0)"/>
     <use xlink:href="#DejaVuSans-4c" transform="translate(200.529297 0)"/>
     <use xlink:href="#DejaVuSans-61" transform="translate(256.242188 0)"/>
     <use xlink:href="#DejaVuSans-6e" transform="translate(317.521484 0)"/>
     <use xlink:href="#DejaVuSans-67" transform="translate(380.900391 0)"/>
     <use xlink:href="#DejaVuSans-75" transform="translate(444.376953 0)"/>
     <use xlink:href="#DejaVuSans-61" transform="translate(507.755859 0)"/>
     <use xlink:href="#DejaVuSans-67" transform="translate(569.035156 0)"/>
     <use xlink:href="#DejaVuSans-65" transform="translate(632.511719 0)"/>
     <use xlink:href="#DejaVuSans-73" transform="translate(694.035156 0)"/>
     <use xlink:href="#DejaVuSans-20" transform="translate(746.134766 0)"/>
     <use xlink:href="#DejaVuSans-69" transform="translate(777.921875 0)"/>
     <use xlink:href="#DejaVuSans-6e" transform="translate(805.705078 0)"/>
     <use xlink:href="#DejaVuSans-20" transform="translate(869.083984 0)"/>
     <use xlink:href="#DejaVuSans-45" transform="translate(900.871094 0)"/>
     <use xlink:href="#DejaVuSans-75" transform="translate(964.054688 0)"/>
     <use xlink:href="#DejaVuSans-72" transform="translate(1027.433594 0)"/>
     <use xlink:href="#DejaVuSans-6f" transform="translate(1066.296875 0)"/>
     <use xlink:href="#DejaVuSans-70" transform="translate(1127.478516 0)"/>
     <use xlink:href="#DejaVuSans-65" transform="translate(1190.955078 0)"/>
    </g>
   </g>
  </g>
  <g id="axes_2">
   <g id="patch_12">
    <path d="M 540.335852 185.806875 
C 540.335852 181.781003 540.085998 177.759008 539.587731 173.764089 
C 539.089463 169.76917 538.343743 165.809023 537.35487 161.906488 
L 443.033212 185.806875 
z
" style="fill: #1f77b4"/>
   </g>
   <g id="patch_13">
    <path d="M 537.35487 161.906487 
C 534.199288 149.453141 528.608387 137.747158 520.905559 127.465626 
C 513.202731 117.184093 503.539393 108.529136 492.474502 102.001371 
L 443.033212 185.806875 
z
" style="fill: #ff7f0e"/>
   </g>
   <g id="patch_14">
    <path d="M 492.474502 102.001371 
C 482.045614 95.848822 470.559315 91.696657 458.606921 89.758638 
C 446.654528 87.820626 434.444727 88.130584 422.606066 90.672571 
L 443.033212 185.806875 
z
" style="fill: #2ca02c"/>
   </g>
   <g id="patch_15">
    <path d="M 422.606066 90.672571 
C 405.513497 94.342672 389.721819 102.552301 376.89852 114.434571 
C 364.075222 126.316841 354.688111 141.438272 349.728432 158.202135 
L 443.033212 185.806875 
z
" style="fill: #d62728"/>
   </g>
   <g id="patch_16">
    <path d="M 349.728432 158.202135 
C 346.659358 168.575694 345.341645 179.388823 345.829608 190.195851 
C 346.317571 201.002879 348.604411 211.653254 352.595873 221.708013 
L 443.033212 185.806875 
z
" style="fill: #9467bd"/>
   </g>
   <g id="patch_17">
    <path d="M 352.595873 221.708013 
C 355.163193 228.175264 358.416853 234.34852 362.300958 240.121754 
C 366.185062 245.894985 370.677252 251.234962 375.700397 256.049992 
L 443.033212 185.806875 
z
" style="fill: #8c564b"/>
   </g>
   <g id="patch_18">
    <path d="M 375.700397 256.049992 
C 378.871093 259.089319 382.243926 261.910467 385.795777 264.494101 
C 389.347629 267.077735 393.070351 269.417922 396.938375 271.498589 
L 443.033212 185.806875 
z
" style="fill: #e377c2"/>
   </g>
   <g id="patch_19">
    <path d="M 396.938375 271.498589 
C 414.141756 280.752544 433.739602 284.614894 453.167737 282.580299 
C 472.59587 280.545704 490.968326 272.706937 505.881255 260.089626 
L 443.033212 185.806875 
z
" style="fill: #7f7f7f"/>
   </g>
   <g id="patch_20">
    <path d="M 505.881255 260.089626 
C 512.174225 254.76536 517.765207 248.662921 522.519682 241.929111 
C 527.274157 235.195301 531.153714 227.884543 534.06506 220.17265 
L 443.033212 185.806875 
z
" style="fill: #bcbd22"/>
   </g>
   <g id="patch_21">
    <path d="M 534.06506 220.17265 
C 536.133983 214.692262 537.703779 209.036204 538.755321 203.27345 
C 539.806862 197.510696 540.335852 191.664764 540.335852 185.806858 
L 443.033212 185.806875 
z
" style="fill: #17becf"/>
   </g>
   <g id="matplotlib.axis_3"/>
   <g id="matplotlib.axis_4"/>
   <g id="text_12">
    <!-- Dutch -->
    <g transform="translate(549.243183 175.319185) scale(0.1 -0.1)">
     <use xlink:href="#DejaVuSans-44"/>
     <use xlink:href="#DejaVuSans-75" transform="translate(77.001953 0)"/>
     <use xlink:href="#DejaVuSans-74" transform="translate(140.380859 0)"/>
     <use xlink:href="#DejaVuSans-63" transform="translate(179.589844 0)"/>
     <use xlink:href="#DejaVuSans-68" transform="translate(234.570312 0)"/>
    </g>
   </g>
   <g id="text_13">
    <!-- 3.9% -->
    <g transform="translate(488.26358 181.340578) scale(0.1 -0.1)">
     <defs>
      <path id="DejaVuSans-33" d="M 2597 2516 
Q 3050 2419 3304 2112 
Q 3559 1806 3559 1356 
Q 3559 666 3084 287 
Q 2609 -91 1734 -91 
Q 1441 -91 1130 -33 
Q 819 25 488 141 
L 488 750 
Q 750 597 1062 519 
Q 1375 441 1716 441 
Q 2309 441 2620 675 
Q 2931 909 2931 1356 
Q 2931 1769 2642 2001 
Q 2353 2234 1838 2234 
L 1294 2234 
L 1294 2753 
L 1863 2753 
Q 2328 2753 2575 2939 
Q 2822 3125 2822 3475 
Q 2822 3834 2567 4026 
Q 2313 4219 1838 4219 
Q 1578 4219 1281 4162 
Q 984 4106 628 3988 
L 628 4550 
Q 988 4650 1302 4700 
Q 1616 4750 1894 4750 
Q 2613 4750 3031 4423 
Q 3450 4097 3450 3541 
Q 3450 3153 3228 2886 
Q 3006 2619 2597 2516 
z
" transform="scale(0.015625)"/>
      <path id="DejaVuSans-2e" d="M 684 794 
L 1344 794 
L 1344 0 
L 684 0 
L 684 794 
z
" transform="scale(0.015625)"/>
      <path id="DejaVuSans-39" d="M 703 97 
L 703 672 
Q 941 559 1184 500 
Q 1428 441 1663 441 
Q 2288 441 2617 861 
Q 2947 1281 2994 2138 
Q 2813 1869 2534 1725 
Q 2256 1581 1919 1581 
Q 1219 1581 811 2004 
Q 403 2428 403 3163 
Q 403 3881 828 4315 
Q 1253 4750 1959 4750 
Q 2769 4750 3195 4129 
Q 3622 3509 3622 2328 
Q 3622 1225 3098 567 
Q 2575 -91 1691 -91 
Q 1453 -91 1209 -44 
Q 966 3 703 97 
z
M 1959 2075 
Q 2384 2075 2632 2365 
Q 2881 2656 2881 3163 
Q 2881 3666 2632 3958 
Q 2384 4250 1959 4250 
Q 1534 4250 1286 3958 
Q 1038 3666 1038 3163 
Q 1038 2656 1286 2365 
Q 1534 2075 1959 2075 
z
" transform="scale(0.015625)"/>
      <path id="DejaVuSans-25" d="M 4653 2053 
Q 4381 2053 4226 1822 
Q 4072 1591 4072 1178 
Q 4072 772 4226 539 
Q 4381 306 4653 306 
Q 4919 306 5073 539 
Q 5228 772 5228 1178 
Q 5228 1588 5073 1820 
Q 4919 2053 4653 2053 
z
M 4653 2450 
Q 5147 2450 5437 2106 
Q 5728 1763 5728 1178 
Q 5728 594 5436 251 
Q 5144 -91 4653 -91 
Q 4153 -91 3862 251 
Q 3572 594 3572 1178 
Q 3572 1766 3864 2108 
Q 4156 2450 4653 2450 
z
M 1428 4353 
Q 1159 4353 1004 4120 
Q 850 3888 850 3481 
Q 850 3069 1003 2837 
Q 1156 2606 1428 2606 
Q 1700 2606 1854 2837 
Q 2009 3069 2009 3481 
Q 2009 3884 1853 4118 
Q 1697 4353 1428 4353 
z
M 4250 4750 
L 4750 4750 
L 1831 -91 
L 1331 -91 
L 4250 4750 
z
M 1428 4750 
Q 1922 4750 2215 4408 
Q 2509 4066 2509 3481 
Q 2509 2891 2217 2550 
Q 1925 2209 1428 2209 
Q 931 2209 642 2551 
Q 353 2894 353 3481 
Q 353 4063 643 4406 
Q 934 4750 1428 4750 
z
" transform="scale(0.015625)"/>
     </defs>
     <use xlink:href="#DejaVuSans-33"/>
     <use xlink:href="#DejaVuSans-2e" transform="translate(63.623047 0)"/>
     <use xlink:href="#DejaVuSans-39" transform="translate(95.410156 0)"/>
     <use xlink:href="#DejaVuSans-25" transform="translate(159.033203 0)"/>
    </g>
   </g>
   <g id="text_14">
    <!-- English -->
    <g transform="translate(528.692792 124.390873) scale(0.1 -0.1)">
     <use xlink:href="#DejaVuSans-45"/>
     <use xlink:href="#DejaVuSans-6e" transform="translate(63.183594 0)"/>
     <use xlink:href="#DejaVuSans-67" transform="translate(126.5625 0)"/>
     <use xlink:href="#DejaVuSans-6c" transform="translate(190.039062 0)"/>
     <use xlink:href="#DejaVuSans-69" transform="translate(217.822266 0)"/>
     <use xlink:href="#DejaVuSans-73" transform="translate(245.605469 0)"/>
     <use xlink:href="#DejaVuSans-68" transform="translate(297.705078 0)"/>
    </g>
   </g>
   <g id="text_15">
    <!-- 12.6% -->
    <g transform="translate(473.873025 153.561499) scale(0.1 -0.1)">
     <defs>
      <path id="DejaVuSans-31" d="M 794 531 
L 1825 531 
L 1825 4091 
L 703 3866 
L 703 4441 
L 1819 4666 
L 2450 4666 
L 2450 531 
L 3481 531 
L 3481 0 
L 794 0 
L 794 531 
z
" transform="scale(0.015625)"/>
      <path id="DejaVuSans-32" d="M 1228 531 
L 3431 531 
L 3431 0 
L 469 0 
L 469 531 
Q 828 903 1448 1529 
Q 2069 2156 2228 2338 
Q 2531 2678 2651 2914 
Q 2772 3150 2772 3378 
Q 2772 3750 2511 3984 
Q 2250 4219 1831 4219 
Q 1534 4219 1204 4116 
Q 875 4013 500 3803 
L 500 4441 
Q 881 4594 1212 4672 
Q 1544 4750 1819 4750 
Q 2544 4750 2975 4387 
Q 3406 4025 3406 3419 
Q 3406 3131 3298 2873 
Q 3191 2616 2906 2266 
Q 2828 2175 2409 1742 
Q 1991 1309 1228 531 
z
" transform="scale(0.015625)"/>
      <path id="DejaVuSans-36" d="M 2113 2584 
Q 1688 2584 1439 2293 
Q 1191 2003 1191 1497 
Q 1191 994 1439 701 
Q 1688 409 2113 409 
Q 2538 409 2786 701 
Q 3034 994 3034 1497 
Q 3034 2003 2786 2293 
Q 2538 2584 2113 2584 
z
M 3366 4563 
L 3366 3988 
Q 3128 4100 2886 4159 
Q 2644 4219 2406 4219 
Q 1781 4219 1451 3797 
Q 1122 3375 1075 2522 
Q 1259 2794 1537 2939 
Q 1816 3084 2150 3084 
Q 2853 3084 3261 2657 
Q 3669 2231 3669 1497 
Q 3669 778 3244 343 
Q 2819 -91 2113 -91 
Q 1303 -91 875 529 
Q 447 1150 447 2328 
Q 447 3434 972 4092 
Q 1497 4750 2381 4750 
Q 2619 4750 2861 4703 
Q 3103 4656 3366 4563 
z
" transform="scale(0.015625)"/>
     </defs>
     <use xlink:href="#DejaVuSans-31"/>
     <use xlink:href="#DejaVuSans-32" transform="translate(63.623047 0)"/>
     <use xlink:href="#DejaVuSans-2e" transform="translate(127.246094 0)"/>
     <use xlink:href="#DejaVuSans-36" transform="translate(159.033203 0)"/>
     <use xlink:href="#DejaVuSans-25" transform="translate(222.65625 0)"/>
    </g>
   </g>
   <g id="text_16">
    <!-- French -->
    <g transform="translate(460.164305 82.913194) scale(0.1 -0.1)">
     <use xlink:href="#DejaVuSans-46"/>
     <use xlink:href="#DejaVuSans-72" transform="translate(50.269531 0)"/>
     <use xlink:href="#DejaVuSans-65" transform="translate(89.132812 0)"/>
     <use xlink:href="#DejaVuSans-6e" transform="translate(150.65625 0)"/>
     <use xlink:href="#DejaVuSans-63" transform="translate(214.035156 0)"/>
     <use xlink:href="#DejaVuSans-68" transform="translate(269.015625 0)"/>
    </g>
   </g>
   <g id="text_17">
    <!-- 11.8% -->
    <g transform="translate(436.493851 130.937311) scale(0.1 -0.1)">
     <defs>
      <path id="DejaVuSans-38" d="M 2034 2216 
Q 1584 2216 1326 1975 
Q 1069 1734 1069 1313 
Q 1069 891 1326 650 
Q 1584 409 2034 409 
Q 2484 409 2743 651 
Q 3003 894 3003 1313 
Q 3003 1734 2745 1975 
Q 2488 2216 2034 2216 
z
M 1403 2484 
Q 997 2584 770 2862 
Q 544 3141 544 3541 
Q 544 4100 942 4425 
Q 1341 4750 2034 4750 
Q 2731 4750 3128 4425 
Q 3525 4100 3525 3541 
Q 3525 3141 3298 2862 
Q 3072 2584 2669 2484 
Q 3125 2378 3379 2068 
Q 3634 1759 3634 1313 
Q 3634 634 3220 271 
Q 2806 -91 2034 -91 
Q 1263 -91 848 271 
Q 434 634 434 1313 
Q 434 1759 690 2068 
Q 947 2378 1403 2484 
z
M 1172 3481 
Q 1172 3119 1398 2916 
Q 1625 2713 2034 2713 
Q 2441 2713 2670 2916 
Q 2900 3119 2900 3481 
Q 2900 3844 2670 4047 
Q 2441 4250 2034 4250 
Q 1625 4250 1398 4047 
Q 1172 3844 1172 3481 
z
" transform="scale(0.015625)"/>
     </defs>
     <use xlink:href="#DejaVuSans-31"/>
     <use xlink:href="#DejaVuSans-31" transform="translate(63.623047 0)"/>
     <use xlink:href="#DejaVuSans-2e" transform="translate(127.246094 0)"/>
     <use xlink:href="#DejaVuSans-38" transform="translate(159.033203 0)"/>
     <use xlink:href="#DejaVuSans-25" transform="translate(222.65625 0)"/>
    </g>
   </g>
   <g id="text_18">
    <!-- German -->
    <g transform="translate(330.241281 110.056731) scale(0.1 -0.1)">
     <use xlink:href="#DejaVuSans-47"/>
     <use xlink:href="#DejaVuSans-65" transform="translate(77.490234 0)"/>
     <use xlink:href="#DejaVuSans-72" transform="translate(139.013672 0)"/>
     <use xlink:href="#DejaVuSans-6d" transform="translate(178.376953 0)"/>
     <use xlink:href="#DejaVuSans-61" transform="translate(275.789062 0)"/>
     <use xlink:href="#DejaVuSans-6e" transform="translate(337.068359 0)"/>
    </g>
   </g>
   <g id="text_19">
    <!-- 17.1% -->
    <g transform="translate(387.468792 145.742876) scale(0.1 -0.1)">
     <defs>
      <path id="DejaVuSans-37" d="M 525 4666 
L 3525 4666 
L 3525 4397 
L 1831 0 
L 1172 0 
L 2766 4134 
L 525 4134 
L 525 4666 
z
" transform="scale(0.015625)"/>
     </defs>
     <use xlink:href="#DejaVuSans-31"/>
     <use xlink:href="#DejaVuSans-37" transform="translate(63.623047 0)"/>
     <use xlink:href="#DejaVuSans-2e" transform="translate(127.246094 0)"/>
     <use xlink:href="#DejaVuSans-31" transform="translate(159.033203 0)"/>
     <use xlink:href="#DejaVuSans-25" transform="translate(222.65625 0)"/>
    </g>
   </g>
   <g id="text_20">
    <!-- Italian -->
    <g transform="translate(305.088936 193.394124) scale(0.1 -0.1)">
     <use xlink:href="#DejaVuSans-49"/>
     <use xlink:href="#DejaVuSans-74" transform="translate(29.492188 0)"/>
     <use xlink:href="#DejaVuSans-61" transform="translate(68.701172 0)"/>
     <use xlink:href="#DejaVuSans-6c" transform="translate(129.980469 0)"/>
     <use xlink:href="#DejaVuSans-69" transform="translate(157.763672 0)"/>
     <use xlink:href="#DejaVuSans-61" transform="translate(185.546875 0)"/>
     <use xlink:href="#DejaVuSans-6e" transform="translate(246.826172 0)"/>
    </g>
   </g>
   <g id="text_21">
    <!-- 10.6% -->
    <g transform="translate(368.827456 191.199636) scale(0.1 -0.1)">
     <defs>
      <path id="DejaVuSans-30" d="M 2034 4250 
Q 1547 4250 1301 3770 
Q 1056 3291 1056 2328 
Q 1056 1369 1301 889 
Q 1547 409 2034 409 
Q 2525 409 2770 889 
Q 3016 1369 3016 2328 
Q 3016 3291 2770 3770 
Q 2525 4250 2034 4250 
z
M 2034 4750 
Q 2819 4750 3233 4129 
Q 3647 3509 3647 2328 
Q 3647 1150 3233 529 
Q 2819 -91 2034 -91 
Q 1250 -91 836 529 
Q 422 1150 422 2328 
Q 422 3509 836 4129 
Q 1250 4750 2034 4750 
z
" transform="scale(0.015625)"/>
     </defs>
     <use xlink:href="#DejaVuSans-31"/>
     <use xlink:href="#DejaVuSans-30" transform="translate(63.623047 0)"/>
     <use xlink:href="#DejaVuSans-2e" transform="translate(127.246094 0)"/>
     <use xlink:href="#DejaVuSans-36" transform="translate(159.033203 0)"/>
     <use xlink:href="#DejaVuSans-25" transform="translate(222.65625 0)"/>
    </g>
   </g>
   <g id="text_22">
    <!-- Polish -->
    <g transform="translate(325.338668 248.312622) scale(0.1 -0.1)">
     <use xlink:href="#DejaVuSans-50"/>
     <use xlink:href="#DejaVuSans-6f" transform="translate(56.677734 0)"/>
     <use xlink:href="#DejaVuSans-6c" transform="translate(117.859375 0)"/>
     <use xlink:href="#DejaVuSans-69" transform="translate(145.642578 0)"/>
     <use xlink:href="#DejaVuSans-73" transform="translate(173.425781 0)"/>
     <use xlink:href="#DejaVuSans-68" transform="translate(225.525391 0)"/>
    </g>
   </g>
   <g id="text_23">
    <!-- 6.8% -->
    <g transform="translate(381.891515 221.15518) scale(0.1 -0.1)">
     <use xlink:href="#DejaVuSans-36"/>
     <use xlink:href="#DejaVuSans-2e" transform="translate(63.623047 0)"/>
     <use xlink:href="#DejaVuSans-38" transform="translate(95.410156 0)"/>
     <use xlink:href="#DejaVuSans-25" transform="translate(159.033203 0)"/>
    </g>
   </g>
   <g id="text_24">
    <!-- Romanian -->
    <g transform="translate(330.004847 275.1222) scale(0.1 -0.1)">
     <use xlink:href="#DejaVuSans-52"/>
     <use xlink:href="#DejaVuSans-6f" transform="translate(64.982422 0)"/>
     <use xlink:href="#DejaVuSans-6d" transform="translate(126.164062 0)"/>
     <use xlink:href="#DejaVuSans-61" transform="translate(223.576172 0)"/>
     <use xlink:href="#DejaVuSans-6e" transform="translate(284.855469 0)"/>
     <use xlink:href="#DejaVuSans-69" transform="translate(348.234375 0)"/>
     <use xlink:href="#DejaVuSans-61" transform="translate(376.017578 0)"/>
     <use xlink:href="#DejaVuSans-6e" transform="translate(437.296875 0)"/>
    </g>
   </g>
   <g id="text_25">
    <!-- 4.3% -->
    <g transform="translate(395.988408 235.778587) scale(0.1 -0.1)">
     <defs>
      <path id="DejaVuSans-34" d="M 2419 4116 
L 825 1625 
L 2419 1625 
L 2419 4116 
z
M 2253 4666 
L 3047 4666 
L 3047 1625 
L 3713 1625 
L 3713 1100 
L 3047 1100 
L 3047 0 
L 2419 0 
L 2419 1100 
L 313 1100 
L 313 1709 
L 2253 4666 
z
" transform="scale(0.015625)"/>
     </defs>
     <use xlink:href="#DejaVuSans-34"/>
     <use xlink:href="#DejaVuSans-2e" transform="translate(63.623047 0)"/>
     <use xlink:href="#DejaVuSans-33" transform="translate(95.410156 0)"/>
     <use xlink:href="#DejaVuSans-25" transform="translate(159.033203 0)"/>
    </g>
   </g>
   <g id="text_26">
    <!-- Russian -->
    <g transform="translate(454.181188 295.017014) scale(0.1 -0.1)">
     <use xlink:href="#DejaVuSans-52"/>
     <use xlink:href="#DejaVuSans-75" transform="translate(64.982422 0)"/>
     <use xlink:href="#DejaVuSans-73" transform="translate(128.361328 0)"/>
     <use xlink:href="#DejaVuSans-73" transform="translate(180.460938 0)"/>
     <use xlink:href="#DejaVuSans-69" transform="translate(232.560547 0)"/>
     <use xlink:href="#DejaVuSans-61" transform="translate(260.34375 0)"/>
     <use xlink:href="#DejaVuSans-6e" transform="translate(321.623047 0)"/>
    </g>
   </g>
   <g id="text_27">
    <!-- 19.0% -->
    <g transform="translate(433.230333 246.630303) scale(0.1 -0.1)">
     <use xlink:href="#DejaVuSans-31"/>
     <use xlink:href="#DejaVuSans-39" transform="translate(63.623047 0)"/>
     <use xlink:href="#DejaVuSans-2e" transform="translate(127.246094 0)"/>
     <use xlink:href="#DejaVuSans-30" transform="translate(159.033203 0)"/>
     <use xlink:href="#DejaVuSans-25" transform="translate(222.65625 0)"/>
    </g>
   </g>
   <g id="text_28">
    <!-- Spanish -->
    <g transform="translate(530.468296 250.30075) scale(0.1 -0.1)">
     <use xlink:href="#DejaVuSans-53"/>
     <use xlink:href="#DejaVuSans-70" transform="translate(63.476562 0)"/>
     <use xlink:href="#DejaVuSans-61" transform="translate(126.953125 0)"/>
     <use xlink:href="#DejaVuSans-6e" transform="translate(188.232422 0)"/>
     <use xlink:href="#DejaVuSans-69" transform="translate(251.611328 0)"/>
     <use xlink:href="#DejaVuSans-73" transform="translate(279.394531 0)"/>
     <use xlink:href="#DejaVuSans-68" transform="translate(331.494141 0)"/>
    </g>
   </g>
   <g id="text_29">
    <!-- 8.1% -->
    <g transform="translate(478.022733 222.239614) scale(0.1 -0.1)">
     <use xlink:href="#DejaVuSans-38"/>
     <use xlink:href="#DejaVuSans-2e" transform="translate(63.623047 0)"/>
     <use xlink:href="#DejaVuSans-31" transform="translate(95.410156 0)"/>
     <use xlink:href="#DejaVuSans-25" transform="translate(159.033203 0)"/>
    </g>
   </g>
   <g id="text_30">
    <!-- Ukrainian -->
    <g transform="translate(548.327525 207.779534) scale(0.1 -0.1)">
     <use xlink:href="#DejaVuSans-55"/>
     <use xlink:href="#DejaVuSans-6b" transform="translate(73.193359 0)"/>
     <use xlink:href="#DejaVuSans-72" transform="translate(131.103516 0)"/>
     <use xlink:href="#DejaVuSans-61" transform="translate(172.216797 0)"/>
     <use xlink:href="#DejaVuSans-69" transform="translate(233.496094 0)"/>
     <use xlink:href="#DejaVuSans-6e" transform="translate(261.279297 0)"/>
     <use xlink:href="#DejaVuSans-69" transform="translate(324.658203 0)"/>
     <use xlink:href="#DejaVuSans-61" transform="translate(352.441406 0)"/>
     <use xlink:href="#DejaVuSans-6e" transform="translate(413.720703 0)"/>
    </g>
   </g>
   <g id="text_31">
    <!-- 5.7% -->
    <g transform="translate(487.76413 199.046223) scale(0.1 -0.1)">
     <defs>
      <path id="DejaVuSans-35" d="M 691 4666 
L 3169 4666 
L 3169 4134 
L 1269 4134 
L 1269 2991 
Q 1406 3038 1543 3061 
Q 1681 3084 1819 3084 
Q 2600 3084 3056 2656 
Q 3513 2228 3513 1497 
Q 3513 744 3044 326 
Q 2575 -91 1722 -91 
Q 1428 -91 1123 -41 
Q 819 9 494 109 
L 494 744 
Q 775 591 1075 516 
Q 1375 441 1709 441 
Q 2250 441 2565 725 
Q 2881 1009 2881 1497 
Q 2881 1984 2565 2268 
Q 2250 2553 1709 2553 
Q 1456 2553 1204 2497 
Q 953 2441 691 2322 
L 691 4666 
z
" transform="scale(0.015625)"/>
     </defs>
     <use xlink:href="#DejaVuSans-35"/>
     <use xlink:href="#DejaVuSans-2e" transform="translate(63.623047 0)"/>
     <use xlink:href="#DejaVuSans-37" transform="translate(95.410156 0)"/>
     <use xlink:href="#DejaVuSans-25" transform="translate(159.033203 0)"/>
    </g>
   </g>
   <g id="text_32">
    <!-- Top Languages in Europe -->
    <g transform="translate(367.883212 58.178575) scale(0.12 -0.12)">
     <use xlink:href="#DejaVuSans-54"/>
     <use xlink:href="#DejaVuSans-6f" transform="translate(44.083984 0)"/>
     <use xlink:href="#DejaVuSans-70" transform="translate(105.265625 0)"/>
     <use xlink:href="#DejaVuSans-20" transform="translate(168.742188 0)"/>
     <use xlink:href="#DejaVuSans-4c" transform="translate(200.529297 0)"/>
     <use xlink:href="#DejaVuSans-61" transform="translate(256.242188 0)"/>
     <use xlink:href="#DejaVuSans-6e" transform="translate(317.521484 0)"/>
     <use xlink:href="#DejaVuSans-67" transform="translate(380.900391 0)"/>
     <use xlink:href="#DejaVuSans-75" transform="translate(444.376953 0)"/>
     <use xlink:href="#DejaVuSans-61" transform="translate(507.755859 0)"/>
     <use xlink:href="#DejaVuSans-67" transform="translate(569.035156 0)"/>
     <use xlink:href="#DejaVuSans-65" transform="translate(632.511719 0)"/>
     <use xlink:href="#DejaVuSans-73" transform="translate(694.035156 0)"/>
     <use xlink:href="#DejaVuSans-20" transform="translate(746.134766 0)"/>
     <use xlink:href="#DejaVuSans-69" transform="translate(777.921875 0)"/>
     <use xlink:href="#DejaVuSans-6e" transform="translate(805.705078 0)"/>
     <use xlink:href="#DejaVuSans-20" transform="translate(869.083984 0)"/>
     <use xlink:href="#DejaVuSans-45" transform="translate(900.871094 0)"/>
     <use xlink:href="#DejaVuSans-75" transform="translate(964.054688 0)"/>
     <use xlink:href="#DejaVuSans-72" transform="translate(1027.433594 0)"/>
     <use xlink:href="#DejaVuSans-6f" transform="translate(1066.296875 0)"/>
     <use xlink:href="#DejaVuSans-70" transform="translate(1127.478516 0)"/>
     <use xlink:href="#DejaVuSans-65" transform="translate(1190.955078 0)"/>
    </g>
   </g>
  </g>
  <g id="axes_3">
   <g id="patch_22">
    <path d="M 829.709965 185.806875 
C 829.709965 179.843911 829.161826 173.893551 828.072469 168.030937 
C 826.983113 162.168323 825.357144 156.418239 823.215096 150.853298 
L 732.407326 185.806875 
z
" style="fill: #1f77b4"/>
   </g>
   <g id="patch_23">
    <path d="M 823.215096 150.853299 
C 816.971046 134.631542 806.492841 120.375436 792.87466 109.573648 
C 779.256479 98.77186 762.989435 91.813938 745.772195 89.426461 
L 732.407326 185.806875 
z
" style="fill: #ff7f0e"/>
   </g>
   <g id="patch_24">
    <path d="M 745.772195 89.426461 
C 742.229916 88.935262 738.663249 88.639716 735.088433 88.541179 
C 731.513618 88.442642 727.936086 88.541255 724.372127 88.836575 
L 732.407326 185.806875 
z
" style="fill: #2ca02c"/>
   </g>
   <g id="patch_25">
    <path d="M 724.372127 88.836575 
C 720.213801 89.181146 716.081943 89.792839 712.002147 90.667861 
C 707.922351 91.542884 703.903053 92.679431 699.969168 94.070458 
L 732.407326 185.806875 
z
" style="fill: #d62728"/>
   </g>
   <g id="patch_26">
    <path d="M 699.969168 94.070458 
C 681.289311 100.675689 665.065185 112.831496 653.478212 128.903461 
C 641.891239 144.975427 635.485087 164.209421 635.121105 184.019357 
L 732.407326 185.806875 
z
" style="fill: #9467bd"/>
   </g>
   <g id="patch_27">
    <path d="M 635.121105 184.019357 
C 634.884994 196.870056 637.197399 209.641116 641.924471 221.593147 
C 646.651542 233.545179 653.700241 244.442998 662.662507 253.655706 
C 671.624772 262.868414 682.324231 270.214718 694.141474 275.269315 
C 705.958718 280.323912 718.661212 282.987344 731.513538 283.105409 
C 744.365864 283.223467 757.115142 280.793838 769.023246 275.957181 
C 780.931351 271.120525 791.763979 263.972008 800.893971 254.92549 
C 810.023964 245.878972 817.271662 235.112498 822.217498 223.249324 
C 827.163333 211.386149 829.709965 198.659726 829.709965 185.806858 
L 732.407326 185.806875 
z
" style="fill: #8c564b"/>
   </g>
   <g id="matplotlib.axis_5"/>
   <g id="matplotlib.axis_6"/>
   <g id="text_33">
    <!-- France -->
    <g transform="translate(789.806412 177.900687) scale(0.1 -0.1)">
     <use xlink:href="#DejaVuSans-46"/>
     <use xlink:href="#DejaVuSans-72" transform="translate(50.269531 0)"/>
     <use xlink:href="#DejaVuSans-61" transform="translate(91.382812 0)"/>
     <use xlink:href="#DejaVuSans-6e" transform="translate(152.662109 0)"/>
     <use xlink:href="#DejaVuSans-63" transform="translate(216.041016 0)"/>
     <use xlink:href="#DejaVuSans-65" transform="translate(271.021484 0)"/>
    </g>
   </g>
   <g id="text_34">
    <!-- 5.8% -->
    <g transform="translate(839.286411 166.346326) scale(0.1 -0.1)">
     <use xlink:href="#DejaVuSans-35"/>
     <use xlink:href="#DejaVuSans-2e" transform="translate(63.623047 0)"/>
     <use xlink:href="#DejaVuSans-38" transform="translate(95.410156 0)"/>
     <use xlink:href="#DejaVuSans-25" transform="translate(159.033203 0)"/>
    </g>
   </g>
   <g id="text_35">
    <!-- Germany -->
    <g transform="translate(768.687727 142.826314) scale(0.1 -0.1)">
     <defs>
      <path id="DejaVuSans-79" d="M 2059 -325 
Q 1816 -950 1584 -1140 
Q 1353 -1331 966 -1331 
L 506 -1331 
L 506 -850 
L 844 -850 
Q 1081 -850 1212 -737 
Q 1344 -625 1503 -206 
L 1606 56 
L 191 3500 
L 800 3500 
L 1894 763 
L 2988 3500 
L 3597 3500 
L 2059 -325 
z
" transform="scale(0.015625)"/>
     </defs>
     <use xlink:href="#DejaVuSans-47"/>
     <use xlink:href="#DejaVuSans-65" transform="translate(77.490234 0)"/>
     <use xlink:href="#DejaVuSans-72" transform="translate(139.013672 0)"/>
     <use xlink:href="#DejaVuSans-6d" transform="translate(178.376953 0)"/>
     <use xlink:href="#DejaVuSans-61" transform="translate(275.789062 0)"/>
     <use xlink:href="#DejaVuSans-6e" transform="translate(337.068359 0)"/>
     <use xlink:href="#DejaVuSans-79" transform="translate(400.447266 0)"/>
    </g>
   </g>
   <g id="text_36">
    <!-- 17.0% -->
    <g transform="translate(792.107902 93.274716) scale(0.1 -0.1)">
     <use xlink:href="#DejaVuSans-31"/>
     <use xlink:href="#DejaVuSans-37" transform="translate(63.623047 0)"/>
     <use xlink:href="#DejaVuSans-2e" transform="translate(127.246094 0)"/>
     <use xlink:href="#DejaVuSans-30" transform="translate(159.033203 0)"/>
     <use xlink:href="#DejaVuSans-25" transform="translate(222.65625 0)"/>
    </g>
   </g>
   <g id="text_37">
    <!-- Israel -->
    <g transform="translate(734.01599 130.206833) scale(0.1 -0.1)">
     <use xlink:href="#DejaVuSans-49"/>
     <use xlink:href="#DejaVuSans-73" transform="translate(29.492188 0)"/>
     <use xlink:href="#DejaVuSans-72" transform="translate(81.591797 0)"/>
     <use xlink:href="#DejaVuSans-61" transform="translate(122.705078 0)"/>
     <use xlink:href="#DejaVuSans-65" transform="translate(183.984375 0)"/>
     <use xlink:href="#DejaVuSans-6c" transform="translate(245.507812 0)"/>
    </g>
   </g>
   <g id="text_38">
    <!-- 3.5% -->
    <g transform="translate(723.056367 66.984132) scale(0.1 -0.1)">
     <use xlink:href="#DejaVuSans-33"/>
     <use xlink:href="#DejaVuSans-2e" transform="translate(63.623047 0)"/>
     <use xlink:href="#DejaVuSans-35" transform="translate(95.410156 0)"/>
     <use xlink:href="#DejaVuSans-25" transform="translate(159.033203 0)"/>
    </g>
   </g>
   <g id="text_39">
    <!-- Japan -->
    <g transform="translate(692.272031 131.48284) scale(0.1 -0.1)">
     <defs>
      <path id="DejaVuSans-4a" d="M 628 4666 
L 1259 4666 
L 1259 325 
Q 1259 -519 939 -900 
Q 619 -1281 -91 -1281 
L -331 -1281 
L -331 -750 
L -134 -750 
Q 284 -750 456 -515 
Q 628 -281 628 325 
L 628 4666 
z
" transform="scale(0.015625)"/>
     </defs>
     <use xlink:href="#DejaVuSans-4a"/>
     <use xlink:href="#DejaVuSans-61" transform="translate(29.492188 0)"/>
     <use xlink:href="#DejaVuSans-70" transform="translate(90.771484 0)"/>
     <use xlink:href="#DejaVuSans-61" transform="translate(154.248047 0)"/>
     <use xlink:href="#DejaVuSans-6e" transform="translate(215.527344 0)"/>
    </g>
   </g>
   <g id="text_40">
    <!-- 4.1% -->
    <g transform="translate(694.198509 69.64248) scale(0.1 -0.1)">
     <use xlink:href="#DejaVuSans-34"/>
     <use xlink:href="#DejaVuSans-2e" transform="translate(63.623047 0)"/>
     <use xlink:href="#DejaVuSans-31" transform="translate(95.410156 0)"/>
     <use xlink:href="#DejaVuSans-25" transform="translate(159.033203 0)"/>
    </g>
   </g>
   <g id="text_41">
    <!-- United Kingdom -->
    <g transform="translate(604.785793 154.424204) scale(0.1 -0.1)">
     <defs>
      <path id="DejaVuSans-64" d="M 2906 2969 
L 2906 4863 
L 3481 4863 
L 3481 0 
L 2906 0 
L 2906 525 
Q 2725 213 2448 61 
Q 2172 -91 1784 -91 
Q 1150 -91 751 415 
Q 353 922 353 1747 
Q 353 2572 751 3078 
Q 1150 3584 1784 3584 
Q 2172 3584 2448 3432 
Q 2725 3281 2906 2969 
z
M 947 1747 
Q 947 1113 1208 752 
Q 1469 391 1925 391 
Q 2381 391 2643 752 
Q 2906 1113 2906 1747 
Q 2906 2381 2643 2742 
Q 2381 3103 1925 3103 
Q 1469 3103 1208 2742 
Q 947 2381 947 1747 
z
" transform="scale(0.015625)"/>
      <path id="DejaVuSans-4b" d="M 628 4666 
L 1259 4666 
L 1259 2694 
L 3353 4666 
L 4166 4666 
L 1850 2491 
L 4331 0 
L 3500 0 
L 1259 2247 
L 1259 0 
L 628 0 
L 628 4666 
z
" transform="scale(0.015625)"/>
     </defs>
     <use xlink:href="#DejaVuSans-55"/>
     <use xlink:href="#DejaVuSans-6e" transform="translate(73.193359 0)"/>
     <use xlink:href="#DejaVuSans-69" transform="translate(136.572266 0)"/>
     <use xlink:href="#DejaVuSans-74" transform="translate(164.355469 0)"/>
     <use xlink:href="#DejaVuSans-65" transform="translate(203.564453 0)"/>
     <use xlink:href="#DejaVuSans-64" transform="translate(265.087891 0)"/>
     <use xlink:href="#DejaVuSans-20" transform="translate(328.564453 0)"/>
     <use xlink:href="#DejaVuSans-4b" transform="translate(360.351562 0)"/>
     <use xlink:href="#DejaVuSans-69" transform="translate(425.927734 0)"/>
     <use xlink:href="#DejaVuSans-6e" transform="translate(453.710938 0)"/>
     <use xlink:href="#DejaVuSans-67" transform="translate(517.089844 0)"/>
     <use xlink:href="#DejaVuSans-64" transform="translate(580.566406 0)"/>
     <use xlink:href="#DejaVuSans-6f" transform="translate(644.042969 0)"/>
     <use xlink:href="#DejaVuSans-6d" transform="translate(705.224609 0)"/>
    </g>
   </g>
   <g id="text_42">
    <!-- 19.3% -->
    <g transform="translate(617.862335 117.436987) scale(0.1 -0.1)">
     <use xlink:href="#DejaVuSans-31"/>
     <use xlink:href="#DejaVuSans-39" transform="translate(63.623047 0)"/>
     <use xlink:href="#DejaVuSans-2e" transform="translate(127.246094 0)"/>
     <use xlink:href="#DejaVuSans-33" transform="translate(159.033203 0)"/>
     <use xlink:href="#DejaVuSans-25" transform="translate(222.65625 0)"/>
    </g>
   </g>
   <g id="text_43">
    <!-- United States -->
    <g transform="translate(664.15699 246.945371) scale(0.1 -0.1)">
     <use xlink:href="#DejaVuSans-55"/>
     <use xlink:href="#DejaVuSans-6e" transform="translate(73.193359 0)"/>
     <use xlink:href="#DejaVuSans-69" transform="translate(136.572266 0)"/>
     <use xlink:href="#DejaVuSans-74" transform="translate(164.355469 0)"/>
     <use xlink:href="#DejaVuSans-65" transform="translate(203.564453 0)"/>
     <use xlink:href="#DejaVuSans-64" transform="translate(265.087891 0)"/>
     <use xlink:href="#DejaVuSans-20" transform="translate(328.564453 0)"/>
     <use xlink:href="#DejaVuSans-53" transform="translate(360.351562 0)"/>
     <use xlink:href="#DejaVuSans-74" transform="translate(423.828125 0)"/>
     <use xlink:href="#DejaVuSans-61" transform="translate(463.037109 0)"/>
     <use xlink:href="#DejaVuSans-74" transform="translate(524.316406 0)"/>
     <use xlink:href="#DejaVuSans-65" transform="translate(563.525391 0)"/>
     <use xlink:href="#DejaVuSans-73" transform="translate(625.048828 0)"/>
    </g>
   </g>
   <g id="text_44">
    <!-- 50.3% -->
    <g transform="translate(715.406497 310.189418) scale(0.1 -0.1)">
     <use xlink:href="#DejaVuSans-35"/>
     <use xlink:href="#DejaVuSans-30" transform="translate(63.623047 0)"/>
     <use xlink:href="#DejaVuSans-2e" transform="translate(127.246094 0)"/>
     <use xlink:href="#DejaVuSans-33" transform="translate(159.033203 0)"/>
     <use xlink:href="#DejaVuSans-25" transform="translate(222.65625 0)"/>
    </g>
   </g>
   <g id="text_45">
    <!-- Chem. Nobels: swap text positions -->
    <g transform="translate(628.617638 58.178575) scale(0.12 -0.12)">
     <defs>
      <path id="DejaVuSans-43" d="M 4122 4306 
L 4122 3641 
Q 3803 3938 3442 4084 
Q 3081 4231 2675 4231 
Q 1875 4231 1450 3742 
Q 1025 3253 1025 2328 
Q 1025 1406 1450 917 
Q 1875 428 2675 428 
Q 3081 428 3442 575 
Q 3803 722 4122 1019 
L 4122 359 
Q 3791 134 3420 21 
Q 3050 -91 2638 -91 
Q 1578 -91 968 557 
Q 359 1206 359 2328 
Q 359 3453 968 4101 
Q 1578 4750 2638 4750 
Q 3056 4750 3426 4639 
Q 3797 4528 4122 4306 
z
" transform="scale(0.015625)"/>
      <path id="DejaVuSans-4e" d="M 628 4666 
L 1478 4666 
L 3547 763 
L 3547 4666 
L 4159 4666 
L 4159 0 
L 3309 0 
L 1241 3903 
L 1241 0 
L 628 0 
L 628 4666 
z
" transform="scale(0.015625)"/>
      <path id="DejaVuSans-62" d="M 3116 1747 
Q 3116 2381 2855 2742 
Q 2594 3103 2138 3103 
Q 1681 3103 1420 2742 
Q 1159 2381 1159 1747 
Q 1159 1113 1420 752 
Q 1681 391 2138 391 
Q 2594 391 2855 752 
Q 3116 1113 3116 1747 
z
M 1159 2969 
Q 1341 3281 1617 3432 
Q 1894 3584 2278 3584 
Q 2916 3584 3314 3078 
Q 3713 2572 3713 1747 
Q 3713 922 3314 415 
Q 2916 -91 2278 -91 
Q 1894 -91 1617 61 
Q 1341 213 1159 525 
L 1159 0 
L 581 0 
L 581 4863 
L 1159 4863 
L 1159 2969 
z
" transform="scale(0.015625)"/>
      <path id="DejaVuSans-3a" d="M 750 794 
L 1409 794 
L 1409 0 
L 750 0 
L 750 794 
z
M 750 3309 
L 1409 3309 
L 1409 2516 
L 750 2516 
L 750 3309 
z
" transform="scale(0.015625)"/>
      <path id="DejaVuSans-77" d="M 269 3500 
L 844 3500 
L 1563 769 
L 2278 3500 
L 2956 3500 
L 3675 769 
L 4391 3500 
L 4966 3500 
L 4050 0 
L 3372 0 
L 2619 2869 
L 1863 0 
L 1184 0 
L 269 3500 
z
" transform="scale(0.015625)"/>
      <path id="DejaVuSans-78" d="M 3513 3500 
L 2247 1797 
L 3578 0 
L 2900 0 
L 1881 1375 
L 863 0 
L 184 0 
L 1544 1831 
L 300 3500 
L 978 3500 
L 1906 2253 
L 2834 3500 
L 3513 3500 
z
" transform="scale(0.015625)"/>
     </defs>
     <use xlink:href="#DejaVuSans-43"/>
     <use xlink:href="#DejaVuSans-68" transform="translate(69.824219 0)"/>
     <use xlink:href="#DejaVuSans-65" transform="translate(133.203125 0)"/>
     <use xlink:href="#DejaVuSans-6d" transform="translate(194.726562 0)"/>
     <use xlink:href="#DejaVuSans-2e" transform="translate(292.138672 0)"/>
     <use xlink:href="#DejaVuSans-20" transform="translate(323.925781 0)"/>
     <use xlink:href="#DejaVuSans-4e" transform="translate(355.712891 0)"/>
     <use xlink:href="#DejaVuSans-6f" transform="translate(430.517578 0)"/>
     <use xlink:href="#DejaVuSans-62" transform="translate(491.699219 0)"/>
     <use xlink:href="#DejaVuSans-65" transform="translate(555.175781 0)"/>
     <use xlink:href="#DejaVuSans-6c" transform="translate(616.699219 0)"/>
     <use xlink:href="#DejaVuSans-73" transform="translate(644.482422 0)"/>
     <use xlink:href="#DejaVuSans-3a" transform="translate(696.582031 0)"/>
     <use xlink:href="#DejaVuSans-20" transform="translate(730.273438 0)"/>
     <use xlink:href="#DejaVuSans-73" transform="translate(762.060547 0)"/>
     <use xlink:href="#DejaVuSans-77" transform="translate(814.160156 0)"/>
     <use xlink:href="#DejaVuSans-61" transform="translate(895.947266 0)"/>
     <use xlink:href="#DejaVuSans-70" transform="translate(957.226562 0)"/>
     <use xlink:href="#DejaVuSans-20" transform="translate(1020.703125 0)"/>
     <use xlink:href="#DejaVuSans-74" transform="translate(1052.490234 0)"/>
     <use xlink:href="#DejaVuSans-65" transform="translate(1091.699219 0)"/>
     <use xlink:href="#DejaVuSans-78" transform="translate(1151.472656 0)"/>
     <use xlink:href="#DejaVuSans-74" transform="translate(1210.652344 0)"/>
     <use xlink:href="#DejaVuSans-20" transform="translate(1249.861328 0)"/>
     <use xlink:href="#DejaVuSans-70" transform="translate(1281.648438 0)"/>
     <use xlink:href="#DejaVuSans-6f" transform="translate(1345.125 0)"/>
     <use xlink:href="#DejaVuSans-73" transform="translate(1406.306641 0)"/>
     <use xlink:href="#DejaVuSans-69" transform="translate(1458.40625 0)"/>
     <use xlink:href="#DejaVuSans-74" transform="translate(1486.189453 0)"/>
     <use xlink:href="#DejaVuSans-69" transform="translate(1525.398438 0)"/>
     <use xlink:href="#DejaVuSans-6f" transform="translate(1553.181641 0)"/>
     <use xlink:href="#DejaVuSans-6e" transform="translate(1614.363281 0)"/>
     <use xlink:href="#DejaVuSans-73" transform="translate(1677.742188 0)"/>
    </g>
   </g>
  </g>
  <g id="text_46">
   <!-- Pie in subplots -->
   <g transform="translate(392.266589 16.318125) scale(0.12 -0.12)">
    <use xlink:href="#DejaVuSans-50"/>
    <use xlink:href="#DejaVuSans-69" transform="translate(58.052734 0)"/>
    <use xlink:href="#DejaVuSans-65" transform="translate(85.835938 0)"/>
    <use xlink:href="#DejaVuSans-20" transform="translate(147.359375 0)"/>
    <use xlink:href="#DejaVuSans-69" transform="translate(179.146484 0)"/>
    <use xlink:href="#DejaVuSans-6e" transform="translate(206.929688 0)"/>
    <use xlink:href="#DejaVuSans-20" transform="translate(270.308594 0)"/>
    <use xlink:href="#DejaVuSans-73" transform="translate(302.095703 0)"/>
    <use xlink:href="#DejaVuSans-75" transform="translate(354.195312 0)"/>
    <use xlink:href="#DejaVuSans-62" transform="translate(417.574219 0)"/>
    <use xlink:href="#DejaVuSans-70" transform="translate(481.050781 0)"/>
    <use xlink:href="#DejaVuSans-6c" transform="translate(544.527344 0)"/>
    <use xlink:href="#DejaVuSans-6f" transform="translate(572.310547 0)"/>
    <use xlink:href="#DejaVuSans-74" transform="translate(633.492188 0)"/>
    <use xlink:href="#DejaVuSans-73" transform="translate(672.701172 0)"/>
   </g>
  </g>
 </g>
</svg>
