<?xml version="1.0" encoding="utf-8" standalone="no"?>
<!DOCTYPE svg PUBLIC "-//W3C//DTD SVG 1.1//EN"
  "http://www.w3.org/Graphics/SVG/1.1/DTD/svg11.dtd">
<svg xmlns:xlink="http://www.w3.org/1999/xlink" width="469.19952pt" height="353.99952pt" viewBox="0 0 469.19952 353.99952" xmlns="http://www.w3.org/2000/svg" version="1.1">
 <metadata>
  <rdf:RDF xmlns:dc="http://purl.org/dc/elements/1.1/" xmlns:cc="http://creativecommons.org/ns#" xmlns:rdf="http://www.w3.org/1999/02/22-rdf-syntax-ns#">
   <cc:Work>
    <dc:type rdf:resource="http://purl.org/dc/dcmitype/StillImage"/>
    <dc:date>2025-12-27T13:32:58.628409</dc:date>
    <dc:format>image/svg+xml</dc:format>
    <dc:creator>
     <cc:Agent>
      <dc:title>made/written by /home/con/Scripts/python/matplotlib/MatPlotLib-Simple/t/01.all.tests.t called using "plt" in /home/con/perl5/perlbrew/perls/perl-5.42.0/lib/site_perl/5.42.0/x86_64-linux/Matplotlib/Simple.pm</dc:title>
     </cc:Agent>
    </dc:creator>
   </cc:Work>
  </rdf:RDF>
 </metadata>
 <defs>
  <style type="text/css">*{stroke-linejoin: round; stroke-linecap: butt}</style>
 </defs>
 <g id="figure_1">
  <g id="patch_1">
   <path d="M 0 353.99952 
L 469.19952 353.99952 
L 469.19952 0 
L 0 0 
z
" style="fill: #ffffff"/>
  </g>
  <g id="axes_1">
   <g id="patch_2">
    <path d="M 28.942187 330.121395 
L 461.99952 330.121395 
L 461.99952 22.318125 
L 28.942187 22.318125 
z
" style="fill: #ffffff"/>
   </g>
   <g id="FillBetweenPolyCollection_1">
    <defs>
     <path id="m5268c804fe" d="M 442.315096 -307.842124 
L 442.315096 -298.149098 
L 438.378211 -296.921218 
L 434.441326 -308.867434 
L 430.504441 -295.555363 
L 426.567556 -300.007383 
L 422.630672 -295.306801 
L 418.693787 -303.778455 
L 414.756902 -302.917224 
L 410.820017 -300.39847 
L 406.883132 -306.432549 
L 402.946247 -300.193562 
L 399.009363 -291.625662 
L 395.072478 -303.907494 
L 391.135593 -298.384543 
L 387.198708 -292.616132 
L 383.261823 -302.087931 
L 379.324938 -297.32551 
L 375.388054 -296.036442 
L 371.451169 -293.789285 
L 367.514284 -292.742454 
L 363.577399 -303.085908 
L 359.640514 -293.95223 
L 355.703629 -300.243439 
L 351.766744 -298.796094 
L 347.82986 -295.807476 
L 343.892975 -295.984258 
L 339.95609 -299.51311 
L 336.019205 -298.886962 
L 332.08232 -298.704156 
L 328.145435 -295.919372 
L 324.208551 -288.290203 
L 320.271666 -288.600939 
L 316.334781 -292.248067 
L 312.397896 -296.038583 
L 308.461011 -289.523992 
L 304.524126 -290.448544 
L 300.587242 -286.783146 
L 296.650357 -290.444431 
L 292.713472 -286.191641 
L 288.776587 -286.826115 
L 284.839702 -292.980452 
L 280.902817 -288.749234 
L 276.965932 -283.904261 
L 273.029048 -284.944095 
L 269.092163 -289.330033 
L 265.155278 -288.907103 
L 261.218393 -286.351204 
L 257.281508 -284.148013 
L 253.344623 -281.682278 
L 249.407739 -284.951125 
L 245.470854 -283.705779 
L 241.533969 -277.089597 
L 237.597084 -279.480899 
L 233.660199 -281.88652 
L 229.723314 -279.317714 
L 225.78643 -270.450446 
L 221.849545 -273.678681 
L 217.91266 -277.198828 
L 213.975775 -267.475161 
L 210.03889 -267.675836 
L 206.102005 -271.396144 
L 202.165121 -272.687414 
L 198.228236 -267.528521 
L 194.291351 -262.173935 
L 190.354466 -264.398807 
L 186.417581 -267.918284 
L 182.480696 -261.267807 
L 178.543811 -263.369912 
L 174.606927 -256.369012 
L 170.670042 -252.043905 
L 166.733157 -245.813819 
L 162.796272 -246.776166 
L 158.859387 -247.841354 
L 154.922502 -246.837583 
L 150.985618 -238.15563 
L 147.048733 -241.963315 
L 143.111848 -241.20594 
L 139.174963 -241.429892 
L 135.238078 -231.362532 
L 131.301193 -230.572196 
L 127.364309 -229.400509 
L 123.427424 -228.944047 
L 119.490539 -225.747982 
L 115.553654 -221.891852 
L 111.616769 -207.060929 
L 107.679884 -203.580876 
L 103.742999 -204.546271 
L 99.806115 -200.361726 
L 95.86923 -195.920601 
L 91.932345 -184.152462 
L 87.99546 -178.233763 
L 84.058575 -168.798147 
L 80.12169 -156.985406 
L 76.184806 -158.347393 
L 72.247921 -148.821602 
L 68.311036 -135.566725 
L 64.374151 -115.6717 
L 60.437266 -96.508705 
L 56.500381 -81.292537 
L 52.563497 -68.346208 
L 48.626612 -39.208855 
L 48.626612 -46.561331 
L 48.626612 -46.561331 
L 52.563497 -77.833177 
L 56.500381 -90.611478 
L 60.437266 -104.78935 
L 64.374151 -125.014584 
L 68.311036 -137.937055 
L 72.247921 -158.525649 
L 76.184806 -169.777823 
L 80.12169 -174.411778 
L 84.058575 -182.455713 
L 87.99546 -184.621398 
L 91.932345 -190.198958 
L 95.86923 -204.518407 
L 99.806115 -207.597371 
L 103.742999 -213.156086 
L 107.679884 -223.307662 
L 111.616769 -215.36832 
L 115.553654 -224.869422 
L 119.490539 -232.065399 
L 123.427424 -231.538224 
L 127.364309 -232.960042 
L 131.301193 -240.405613 
L 135.238078 -240.839509 
L 139.174963 -246.629554 
L 143.111848 -253.080016 
L 147.048733 -251.025916 
L 150.985618 -248.033663 
L 154.922502 -251.15678 
L 158.859387 -253.804226 
L 162.796272 -254.860405 
L 166.733157 -256.454148 
L 170.670042 -258.755766 
L 174.606927 -266.32306 
L 178.543811 -267.398209 
L 182.480696 -266.464496 
L 186.417581 -274.644443 
L 190.354466 -276.551158 
L 194.291351 -268.311805 
L 198.228236 -276.406692 
L 202.165121 -280.503969 
L 206.102005 -274.640796 
L 210.03889 -275.757885 
L 213.975775 -281.004091 
L 217.91266 -278.254597 
L 221.849545 -282.956274 
L 225.78643 -278.175281 
L 229.723314 -281.596917 
L 233.660199 -285.72565 
L 237.597084 -284.455858 
L 241.533969 -290.361399 
L 245.470854 -284.677995 
L 249.407739 -286.389635 
L 253.344623 -285.597026 
L 257.281508 -286.159798 
L 261.218393 -293.313273 
L 265.155278 -294.381259 
L 269.092163 -295.093146 
L 273.029048 -288.721638 
L 276.965932 -289.029761 
L 280.902817 -298.123964 
L 284.839702 -301.391663 
L 288.776587 -299.013755 
L 292.713472 -301.228379 
L 296.650357 -293.543139 
L 300.587242 -292.841601 
L 304.524126 -297.633274 
L 308.461011 -295.476097 
L 312.397896 -301.989147 
L 316.334781 -305.376194 
L 320.271666 -303.480352 
L 324.208551 -302.111188 
L 328.145435 -304.526581 
L 332.08232 -303.105793 
L 336.019205 -306.517358 
L 339.95609 -307.842124 
L 343.892975 -302.398154 
L 347.82986 -299.211486 
L 351.766744 -301.363885 
L 355.703629 -307.554334 
L 359.640514 -307.842124 
L 363.577399 -307.842124 
L 367.514284 -307.842124 
L 371.451169 -303.783806 
L 375.388054 -301.81341 
L 379.324938 -304.413237 
L 383.261823 -307.842124 
L 387.198708 -307.842124 
L 391.135593 -307.842124 
L 395.072478 -307.842124 
L 399.009363 -302.70158 
L 402.946247 -307.842124 
L 406.883132 -307.842124 
L 410.820017 -307.842124 
L 414.756902 -307.842124 
L 418.693787 -307.306438 
L 422.630672 -307.842124 
L 426.567556 -307.842124 
L 430.504441 -305.61306 
L 434.441326 -307.842124 
L 438.378211 -306.040789 
L 442.315096 -307.842124 
z
" style="stroke: #ff0000; stroke-opacity: 0.3"/>
    </defs>
    <g clip-path="url(#pedec97bffe)">
     <use xlink:href="#m5268c804fe" x="0" y="353.99952" style="fill: #ff0000; fill-opacity: 0.3; stroke: #ff0000; stroke-opacity: 0.3"/>
    </g>
   </g>
   <g id="matplotlib.axis_1">
    <g id="xtick_1">
     <g id="line2d_1">
      <defs>
       <path id="m1f4c0cb91c" d="M 0 0 
L 0 3.5 
" style="stroke: #000000; stroke-width: 0.8"/>
      </defs>
      <g>
       <use xlink:href="#m1f4c0cb91c" x="92.369777" y="330.121395" style="stroke: #000000; stroke-width: 0.8"/>
      </g>
     </g>
     <g id="text_1">
      <!-- 0.2 -->
      <g transform="translate(84.418214 344.719832) scale(0.1 -0.1)">
       <defs>
        <path id="DejaVuSans-30" d="M 2034 4250 
Q 1547 4250 1301 3770 
Q 1056 3291 1056 2328 
Q 1056 1369 1301 889 
Q 1547 409 2034 409 
Q 2525 409 2770 889 
Q 3016 1369 3016 2328 
Q 3016 3291 2770 3770 
Q 2525 4250 2034 4250 
z
M 2034 4750 
Q 2819 4750 3233 4129 
Q 3647 3509 3647 2328 
Q 3647 1150 3233 529 
Q 2819 -91 2034 -91 
Q 1250 -91 836 529 
Q 422 1150 422 2328 
Q 422 3509 836 4129 
Q 1250 4750 2034 4750 
z
" transform="scale(0.015625)"/>
        <path id="DejaVuSans-2e" d="M 684 794 
L 1344 794 
L 1344 0 
L 684 0 
L 684 794 
z
" transform="scale(0.015625)"/>
        <path id="DejaVuSans-32" d="M 1228 531 
L 3431 531 
L 3431 0 
L 469 0 
L 469 531 
Q 828 903 1448 1529 
Q 2069 2156 2228 2338 
Q 2531 2678 2651 2914 
Q 2772 3150 2772 3378 
Q 2772 3750 2511 3984 
Q 2250 4219 1831 4219 
Q 1534 4219 1204 4116 
Q 875 4013 500 3803 
L 500 4441 
Q 881 4594 1212 4672 
Q 1544 4750 1819 4750 
Q 2544 4750 2975 4387 
Q 3406 4025 3406 3419 
Q 3406 3131 3298 2873 
Q 3191 2616 2906 2266 
Q 2828 2175 2409 1742 
Q 1991 1309 1228 531 
z
" transform="scale(0.015625)"/>
       </defs>
       <use xlink:href="#DejaVuSans-30"/>
       <use xlink:href="#DejaVuSans-2e" transform="translate(63.623047 0)"/>
       <use xlink:href="#DejaVuSans-32" transform="translate(95.410156 0)"/>
      </g>
     </g>
    </g>
    <g id="xtick_2">
     <g id="line2d_2">
      <g>
       <use xlink:href="#m1f4c0cb91c" x="179.856106" y="330.121395" style="stroke: #000000; stroke-width: 0.8"/>
      </g>
     </g>
     <g id="text_2">
      <!-- 0.4 -->
      <g transform="translate(171.904544 344.719832) scale(0.1 -0.1)">
       <defs>
        <path id="DejaVuSans-34" d="M 2419 4116 
L 825 1625 
L 2419 1625 
L 2419 4116 
z
M 2253 4666 
L 3047 4666 
L 3047 1625 
L 3713 1625 
L 3713 1100 
L 3047 1100 
L 3047 0 
L 2419 0 
L 2419 1100 
L 313 1100 
L 313 1709 
L 2253 4666 
z
" transform="scale(0.015625)"/>
       </defs>
       <use xlink:href="#DejaVuSans-30"/>
       <use xlink:href="#DejaVuSans-2e" transform="translate(63.623047 0)"/>
       <use xlink:href="#DejaVuSans-34" transform="translate(95.410156 0)"/>
      </g>
     </g>
    </g>
    <g id="xtick_3">
     <g id="line2d_3">
      <g>
       <use xlink:href="#m1f4c0cb91c" x="267.342436" y="330.121395" style="stroke: #000000; stroke-width: 0.8"/>
      </g>
     </g>
     <g id="text_3">
      <!-- 0.6 -->
      <g transform="translate(259.390874 344.719832) scale(0.1 -0.1)">
       <defs>
        <path id="DejaVuSans-36" d="M 2113 2584 
Q 1688 2584 1439 2293 
Q 1191 2003 1191 1497 
Q 1191 994 1439 701 
Q 1688 409 2113 409 
Q 2538 409 2786 701 
Q 3034 994 3034 1497 
Q 3034 2003 2786 2293 
Q 2538 2584 2113 2584 
z
M 3366 4563 
L 3366 3988 
Q 3128 4100 2886 4159 
Q 2644 4219 2406 4219 
Q 1781 4219 1451 3797 
Q 1122 3375 1075 2522 
Q 1259 2794 1537 2939 
Q 1816 3084 2150 3084 
Q 2853 3084 3261 2657 
Q 3669 2231 3669 1497 
Q 3669 778 3244 343 
Q 2819 -91 2113 -91 
Q 1303 -91 875 529 
Q 447 1150 447 2328 
Q 447 3434 972 4092 
Q 1497 4750 2381 4750 
Q 2619 4750 2861 4703 
Q 3103 4656 3366 4563 
z
" transform="scale(0.015625)"/>
       </defs>
       <use xlink:href="#DejaVuSans-30"/>
       <use xlink:href="#DejaVuSans-2e" transform="translate(63.623047 0)"/>
       <use xlink:href="#DejaVuSans-36" transform="translate(95.410156 0)"/>
      </g>
     </g>
    </g>
    <g id="xtick_4">
     <g id="line2d_4">
      <g>
       <use xlink:href="#m1f4c0cb91c" x="354.828766" y="330.121395" style="stroke: #000000; stroke-width: 0.8"/>
      </g>
     </g>
     <g id="text_4">
      <!-- 0.8 -->
      <g transform="translate(346.877203 344.719832) scale(0.1 -0.1)">
       <defs>
        <path id="DejaVuSans-38" d="M 2034 2216 
Q 1584 2216 1326 1975 
Q 1069 1734 1069 1313 
Q 1069 891 1326 650 
Q 1584 409 2034 409 
Q 2484 409 2743 651 
Q 3003 894 3003 1313 
Q 3003 1734 2745 1975 
Q 2488 2216 2034 2216 
z
M 1403 2484 
Q 997 2584 770 2862 
Q 544 3141 544 3541 
Q 544 4100 942 4425 
Q 1341 4750 2034 4750 
Q 2731 4750 3128 4425 
Q 3525 4100 3525 3541 
Q 3525 3141 3298 2862 
Q 3072 2584 2669 2484 
Q 3125 2378 3379 2068 
Q 3634 1759 3634 1313 
Q 3634 634 3220 271 
Q 2806 -91 2034 -91 
Q 1263 -91 848 271 
Q 434 634 434 1313 
Q 434 1759 690 2068 
Q 947 2378 1403 2484 
z
M 1172 3481 
Q 1172 3119 1398 2916 
Q 1625 2713 2034 2713 
Q 2441 2713 2670 2916 
Q 2900 3119 2900 3481 
Q 2900 3844 2670 4047 
Q 2441 4250 2034 4250 
Q 1625 4250 1398 4047 
Q 1172 3844 1172 3481 
z
" transform="scale(0.015625)"/>
       </defs>
       <use xlink:href="#DejaVuSans-30"/>
       <use xlink:href="#DejaVuSans-2e" transform="translate(63.623047 0)"/>
       <use xlink:href="#DejaVuSans-38" transform="translate(95.410156 0)"/>
      </g>
     </g>
    </g>
    <g id="xtick_5">
     <g id="line2d_5">
      <g>
       <use xlink:href="#m1f4c0cb91c" x="442.315096" y="330.121395" style="stroke: #000000; stroke-width: 0.8"/>
      </g>
     </g>
     <g id="text_5">
      <!-- 1.0 -->
      <g transform="translate(434.363533 344.719832) scale(0.1 -0.1)">
       <defs>
        <path id="DejaVuSans-31" d="M 794 531 
L 1825 531 
L 1825 4091 
L 703 3866 
L 703 4441 
L 1819 4666 
L 2450 4666 
L 2450 531 
L 3481 531 
L 3481 0 
L 794 0 
L 794 531 
z
" transform="scale(0.015625)"/>
       </defs>
       <use xlink:href="#DejaVuSans-31"/>
       <use xlink:href="#DejaVuSans-2e" transform="translate(63.623047 0)"/>
       <use xlink:href="#DejaVuSans-30" transform="translate(95.410156 0)"/>
      </g>
     </g>
    </g>
   </g>
   <g id="matplotlib.axis_2">
    <g id="ytick_1">
     <g id="line2d_6">
      <defs>
       <path id="me33f933bf7" d="M 0 0 
L -3.5 0 
" style="stroke: #000000; stroke-width: 0.8"/>
      </defs>
      <g>
       <use xlink:href="#me33f933bf7" x="28.942187" y="309.790772" style="stroke: #000000; stroke-width: 0.8"/>
      </g>
     </g>
     <g id="text_6">
      <!-- −8 -->
      <g transform="translate(7.2 313.589991) scale(0.1 -0.1)">
       <defs>
        <path id="DejaVuSans-2212" d="M 678 2272 
L 4684 2272 
L 4684 1741 
L 678 1741 
L 678 2272 
z
" transform="scale(0.015625)"/>
       </defs>
       <use xlink:href="#DejaVuSans-2212"/>
       <use xlink:href="#DejaVuSans-38" transform="translate(83.789062 0)"/>
      </g>
     </g>
    </g>
    <g id="ytick_2">
     <g id="line2d_7">
      <g>
       <use xlink:href="#me33f933bf7" x="28.942187" y="251.205578" style="stroke: #000000; stroke-width: 0.8"/>
      </g>
     </g>
     <g id="text_7">
      <!-- −6 -->
      <g transform="translate(7.2 255.004796) scale(0.1 -0.1)">
       <use xlink:href="#DejaVuSans-2212"/>
       <use xlink:href="#DejaVuSans-36" transform="translate(83.789062 0)"/>
      </g>
     </g>
    </g>
    <g id="ytick_3">
     <g id="line2d_8">
      <g>
       <use xlink:href="#me33f933bf7" x="28.942187" y="192.620383" style="stroke: #000000; stroke-width: 0.8"/>
      </g>
     </g>
     <g id="text_8">
      <!-- −4 -->
      <g transform="translate(7.2 196.419602) scale(0.1 -0.1)">
       <use xlink:href="#DejaVuSans-2212"/>
       <use xlink:href="#DejaVuSans-34" transform="translate(83.789062 0)"/>
      </g>
     </g>
    </g>
    <g id="ytick_4">
     <g id="line2d_9">
      <g>
       <use xlink:href="#me33f933bf7" x="28.942187" y="134.035188" style="stroke: #000000; stroke-width: 0.8"/>
      </g>
     </g>
     <g id="text_9">
      <!-- −2 -->
      <g transform="translate(7.2 137.834407) scale(0.1 -0.1)">
       <use xlink:href="#DejaVuSans-2212"/>
       <use xlink:href="#DejaVuSans-32" transform="translate(83.789062 0)"/>
      </g>
     </g>
    </g>
    <g id="ytick_5">
     <g id="line2d_10">
      <g>
       <use xlink:href="#me33f933bf7" x="28.942187" y="75.449994" style="stroke: #000000; stroke-width: 0.8"/>
      </g>
     </g>
     <g id="text_10">
      <!-- 0 -->
      <g transform="translate(15.579687 79.249212) scale(0.1 -0.1)">
       <use xlink:href="#DejaVuSans-30"/>
      </g>
     </g>
    </g>
   </g>
   <g id="line2d_11">
    <path d="M 48.626612 309.790772 
L 52.603263 285.380274 
L 56.579914 264.725238 
L 60.556566 247.020921 
L 64.533217 231.677179 
L 68.509868 218.251406 
L 72.48652 206.405135 
L 76.463171 195.875116 
L 80.439823 186.45352 
L 84.416474 177.974084 
L 88.393125 170.302214 
L 92.369777 163.327786 
L 96.346428 156.95983 
L 100.323079 151.122537 
L 104.299731 145.752227 
L 108.276382 140.795018 
L 112.253033 136.20501 
L 116.229685 131.94286 
L 120.206336 127.974651 
L 124.182987 124.270989 
L 128.159639 120.806273 
L 132.13629 117.558102 
L 136.112942 114.50679 
L 140.089593 111.634967 
L 144.066244 108.927248 
L 148.042896 106.369958 
L 152.019547 103.950899 
L 155.996198 101.65916 
L 159.97285 99.484945 
L 163.949501 97.419442 
L 167.926152 95.454694 
L 171.902804 93.583506 
L 175.879455 91.79935 
L 179.856106 90.096292 
L 183.832758 88.468926 
L 187.809409 86.912314 
L 191.78606 85.421942 
L 195.762712 83.993668 
L 199.739363 82.623691 
L 203.716015 81.308513 
L 207.692666 80.044911 
L 211.669317 78.829909 
L 215.645969 77.660756 
L 219.62262 76.534905 
L 223.599271 75.449994 
L 227.575923 74.40383 
L 231.552574 73.394373 
L 235.529225 72.419725 
L 239.505877 71.478116 
L 243.482528 70.567894 
L 247.459179 69.687516 
L 251.435831 68.835536 
L 255.412482 68.010604 
L 259.389133 67.211451 
L 263.365785 66.436887 
L 267.342436 65.685795 
L 271.319088 64.957123 
L 275.295739 64.249883 
L 279.27239 63.563143 
L 283.249042 62.896023 
L 287.225693 62.247696 
L 291.202344 61.617378 
L 295.178996 61.004329 
L 299.155647 60.407849 
L 303.132298 59.827275 
L 307.10895 59.261979 
L 311.085601 58.711367 
L 315.062252 58.174872 
L 319.038904 57.65196 
L 323.015555 57.14212 
L 326.992207 56.64487 
L 330.968858 56.159747 
L 334.945509 55.686314 
L 338.922161 55.224153 
L 342.898812 54.772866 
L 346.875463 54.332075 
L 350.852115 53.901416 
L 354.828766 53.480546 
L 358.805417 53.069133 
L 362.782069 52.666862 
L 366.75872 52.273433 
L 370.735371 51.888557 
L 374.712023 51.511957 
L 378.688674 51.14337 
L 382.665325 50.782543 
L 386.641977 50.429234 
L 390.618628 50.083208 
L 394.59528 49.744245 
L 398.571931 49.412129 
L 402.548582 49.086656 
L 406.525234 48.767628 
L 410.501885 48.454855 
L 414.478536 48.148155 
L 418.455188 47.847354 
L 422.431839 47.552282 
L 426.40849 47.262777 
L 430.385142 46.978684 
L 434.361793 46.699852 
L 438.338444 46.426136 
L 442.315096 46.157396 
" clip-path="url(#pedec97bffe)" style="fill: none; stroke: #ff0000; stroke-opacity: 0.15; stroke-width: 1.5; stroke-linecap: square"/>
   </g>
   <g id="line2d_12">
    <path d="M 48.626612 307.422171 
L 52.603263 282.435567 
L 56.579914 274.463052 
L 60.556566 254.959663 
L 64.533217 227.648885 
L 68.509868 215.871688 
L 72.48652 194.809881 
L 76.463171 181.737587 
L 80.439823 177.912442 
L 84.416474 169.033622 
L 88.393125 169.701127 
L 92.369777 164.798475 
L 96.346428 145.483391 
L 100.323079 144.884091 
L 104.299731 150.379915 
L 108.276382 152.419618 
L 112.253033 143.830932 
L 116.229685 126.171388 
L 120.206336 119.864498 
L 124.182987 125.38907 
L 128.159639 120.681885 
L 132.13629 125.721236 
L 136.112942 124.235581 
L 140.089593 100.995566 
L 144.066244 115.968939 
L 148.042896 112.391395 
L 152.019547 118.124358 
L 155.996198 103.652563 
L 159.97285 108.592291 
L 163.949501 101.613364 
L 167.926152 104.347371 
L 171.902804 101.349146 
L 175.879455 79.812809 
L 179.856106 93.992399 
L 183.832758 93.583116 
L 187.809409 73.75993 
L 191.78606 75.964046 
L 195.762712 98.322372 
L 199.739363 79.780559 
L 203.716015 76.979229 
L 207.692666 80.755159 
L 211.669317 78.667605 
L 215.645969 67.856368 
L 219.62262 82.001125 
L 223.599271 80.636178 
L 227.575923 87.354218 
L 231.552574 64.017673 
L 235.529225 73.798533 
L 239.505877 76.35316 
L 243.482528 79.594159 
L 247.459179 60.754823 
L 251.435831 74.569475 
L 255.412482 71.39695 
L 259.389133 65.879977 
L 263.365785 66.999958 
L 267.342436 54.41349 
L 271.319088 70.950392 
L 275.295739 66.893725 
L 279.27239 73.941864 
L 283.249042 50.747675 
L 287.225693 56.013265 
L 291.202344 48.794457 
L 295.178996 53.500948 
L 299.155647 73.881619 
L 303.132298 48.729612 
L 307.10895 68.738495 
L 311.085601 59.775508 
L 315.062252 45.817294 
L 319.038904 46.756926 
L 323.015555 54.278187 
L 326.992207 44.630643 
L 330.968858 55.217655 
L 334.945509 45.622693 
L 338.922161 48.140004 
L 342.898812 58.490909 
L 346.875463 59.75449 
L 350.852115 53.839435 
L 354.828766 47.614482 
L 358.805417 67.138083 
L 362.782069 40.772907 
L 366.75872 39.229864 
L 370.735371 63.576851 
L 374.712023 56.362717 
L 378.688674 49.85806 
L 382.665325 51.930459 
L 386.641977 41.384609 
L 390.618628 40.133934 
L 394.59528 46.873155 
L 398.571931 61.106104 
L 402.548582 37.408703 
L 406.525234 41.986659 
L 410.501885 55.163427 
L 414.478536 51.514093 
L 418.455188 50.16428 
L 422.431839 61.78925 
L 426.40849 55.621937 
L 430.385142 59.86851 
L 434.361793 38.976642 
L 438.338444 53.909987 
L 442.315096 37.168287 
" clip-path="url(#pedec97bffe)" style="fill: none; stroke: #ff0000; stroke-opacity: 0.15; stroke-width: 1.5; stroke-linecap: square"/>
   </g>
   <g id="line2d_13">
    <path d="M 48.626612 316.130337 
L 52.603263 273.998349 
L 56.579914 264.185438 
L 60.556566 256.731031 
L 64.533217 239.237133 
L 68.509868 215.155571 
L 72.48652 196.679627 
L 76.463171 190.084192 
L 80.439823 200.293854 
L 84.416474 185.188323 
L 88.393125 176.103566 
L 92.369777 170.412695 
L 96.346428 153.824249 
L 100.323079 153.125721 
L 104.299731 137.084713 
L 108.276382 126.412688 
L 112.253033 149.981099 
L 116.229685 125.926416 
L 120.206336 125.515935 
L 124.182987 121.12721 
L 128.159639 126.387191 
L 132.13629 108.971324 
L 136.112942 115.360645 
L 140.089593 110.052192 
L 144.066244 95.006146 
L 148.042896 104.624155 
L 152.019547 113.91716 
L 155.996198 101.933569 
L 159.97285 102.341525 
L 163.949501 110.15348 
L 167.926152 108.541826 
L 171.902804 95.230316 
L 175.879455 100.60593 
L 179.856106 78.619383 
L 183.832758 92.310624 
L 187.809409 73.370119 
L 191.78606 98.486452 
L 195.762712 87.711176 
L 199.739363 69.023812 
L 203.716015 74.42462 
L 207.692666 88.963603 
L 211.669317 87.324304 
L 215.645969 89.749289 
L 219.62262 65.41812 
L 223.599271 73.389364 
L 227.575923 85.14373 
L 231.552574 60.832018 
L 235.529225 75.301732 
L 239.505877 63.253013 
L 243.482528 60.408074 
L 247.459179 77.833332 
L 251.435831 58.159943 
L 255.412482 81.979586 
L 259.389133 56.699339 
L 263.365785 62.247566 
L 267.342436 56.433138 
L 271.319088 60.696202 
L 275.295739 76.846723 
L 279.27239 57.645318 
L 283.249042 48.673549 
L 287.225693 64.364135 
L 291.202344 73.786747 
L 295.178996 60.930008 
L 299.155647 69.7456 
L 303.132298 63.606989 
L 307.10895 66.197563 
L 311.085601 47.182896 
L 315.062252 59.517588 
L 319.038904 65.514664 
L 323.015555 71.255094 
L 326.992207 60.470127 
L 330.968858 48.933726 
L 334.945509 55.332509 
L 338.922161 43.094264 
L 342.898812 49.163005 
L 346.875463 56.332863 
L 350.852115 58.723119 
L 354.828766 44.910773 
L 358.805417 45.326314 
L 362.782069 39.071233 
L 366.75872 66.660572 
L 370.735371 50.176807 
L 374.712023 57.749257 
L 378.688674 62.268676 
L 382.665325 36.309183 
L 386.641977 65.028537 
L 390.618628 59.145287 
L 394.59528 39.646169 
L 398.571931 63.509249 
L 402.548582 55.534075 
L 406.525234 41.416897 
L 410.501885 43.447327 
L 414.478536 41.679681 
L 418.455188 46.659507 
L 422.431839 46.997597 
L 426.40849 42.970825 
L 430.385142 54.567313 
L 434.361793 36.785294 
L 438.338444 57.380561 
L 442.315096 58.277526 
" clip-path="url(#pedec97bffe)" style="fill: none; stroke: #ff0000; stroke-opacity: 0.15; stroke-width: 1.5; stroke-linecap: square"/>
   </g>
   <g id="line2d_14">
    <path d="M 442.315096 47.20107 
L 438.378211 52.518516 
L 434.441326 41.055629 
L 430.504441 53.415309 
L 426.567556 48.825966 
L 422.630672 51.938316 
L 418.693787 48.457073 
L 414.756902 47.191658 
L 410.820017 48.869238 
L 406.883132 44.503894 
L 402.946247 47.014537 
L 399.009363 56.835899 
L 395.072478 46.931746 
L 391.135593 49.219859 
L 387.198708 51.931729 
L 383.261823 47.231738 
L 379.324938 53.130147 
L 375.388054 55.074594 
L 371.451169 55.212975 
L 367.514284 53.194918 
L 363.577399 45.880525 
L 359.640514 52.866266 
L 355.703629 50.100634 
L 351.766744 53.919531 
L 347.82986 56.490039 
L 343.892975 54.808314 
L 339.95609 50.203398 
L 336.019205 51.29736 
L 332.08232 53.094546 
L 328.145435 53.776544 
L 324.208551 58.798824 
L 320.271666 57.958874 
L 316.334781 55.18739 
L 312.397896 54.985655 
L 308.461011 61.499476 
L 304.524126 59.958611 
L 300.587242 64.187146 
L 296.650357 62.005735 
L 292.713472 60.28951 
L 288.776587 61.079585 
L 284.839702 56.813462 
L 280.902817 60.562921 
L 276.965932 67.532509 
L 273.029048 67.166654 
L 269.092163 61.787931 
L 265.155278 62.355339 
L 261.218393 64.167281 
L 257.281508 68.845615 
L 253.344623 70.359868 
L 249.407739 68.32914 
L 245.470854 69.807633 
L 241.533969 70.274022 
L 237.597084 72.031142 
L 233.660199 70.193435 
L 229.723314 73.542204 
L 225.78643 79.686656 
L 221.849545 75.682042 
L 217.91266 76.272808 
L 213.975775 79.759894 
L 210.03889 82.282659 
L 206.102005 80.98105 
L 202.165121 77.403829 
L 198.228236 82.031914 
L 194.291351 88.75665 
L 190.354466 83.524537 
L 186.417581 82.718156 
L 182.480696 90.133368 
L 178.543811 88.61546 
L 174.606927 92.653484 
L 170.670042 98.599685 
L 166.733157 102.865536 
L 162.796272 103.181234 
L 158.859387 103.17673 
L 154.922502 105.002338 
L 150.985618 110.904873 
L 147.048733 107.504905 
L 143.111848 106.856542 
L 139.174963 109.969797 
L 135.238078 117.898499 
L 131.301193 118.510615 
L 127.364309 122.819244 
L 123.427424 123.758385 
L 119.490539 125.092829 
L 115.553654 130.618883 
L 111.616769 142.784895 
L 107.679884 140.555251 
L 103.742999 145.148341 
L 99.806115 150.019971 
L 95.86923 153.780016 
L 91.932345 166.82381 
L 87.99546 172.57194 
L 84.058575 178.37259 
L 80.12169 188.300928 
L 76.184806 189.936912 
L 72.247921 200.325894 
L 68.311036 217.24763 
L 64.374151 233.656378 
L 60.437266 253.350493 
L 56.500381 268.047512 
L 52.563497 280.909827 
L 48.626612 311.114427 
" clip-path="url(#pedec97bffe)" style="fill: none; stroke: #ff0000; stroke-width: 1.5; stroke-linecap: square"/>
   </g>
   <g id="patch_3">
    <path d="M 28.942187 330.121395 
L 28.942187 22.318125 
" style="fill: none; stroke: #000000; stroke-width: 0.8; stroke-linejoin: miter; stroke-linecap: square"/>
   </g>
   <g id="patch_4">
    <path d="M 461.99952 330.121395 
L 461.99952 22.318125 
" style="fill: none; stroke: #000000; stroke-width: 0.8; stroke-linejoin: miter; stroke-linecap: square"/>
   </g>
   <g id="patch_5">
    <path d="M 28.942187 330.121395 
L 461.99952 330.121395 
" style="fill: none; stroke: #000000; stroke-width: 0.8; stroke-linejoin: miter; stroke-linecap: square"/>
   </g>
   <g id="patch_6">
    <path d="M 28.942187 22.318125 
L 461.99952 22.318125 
" style="fill: none; stroke: #000000; stroke-width: 0.8; stroke-linejoin: miter; stroke-linecap: square"/>
   </g>
   <g id="text_11">
    <!-- Visualization of similar lines plotted together -->
    <g transform="translate(111.001479 16.318125) scale(0.12 -0.12)">
     <defs>
      <path id="DejaVuSans-56" d="M 1831 0 
L 50 4666 
L 709 4666 
L 2188 738 
L 3669 4666 
L 4325 4666 
L 2547 0 
L 1831 0 
z
" transform="scale(0.015625)"/>
      <path id="DejaVuSans-69" d="M 603 3500 
L 1178 3500 
L 1178 0 
L 603 0 
L 603 3500 
z
M 603 4863 
L 1178 4863 
L 1178 4134 
L 603 4134 
L 603 4863 
z
" transform="scale(0.015625)"/>
      <path id="DejaVuSans-73" d="M 2834 3397 
L 2834 2853 
Q 2591 2978 2328 3040 
Q 2066 3103 1784 3103 
Q 1356 3103 1142 2972 
Q 928 2841 928 2578 
Q 928 2378 1081 2264 
Q 1234 2150 1697 2047 
L 1894 2003 
Q 2506 1872 2764 1633 
Q 3022 1394 3022 966 
Q 3022 478 2636 193 
Q 2250 -91 1575 -91 
Q 1294 -91 989 -36 
Q 684 19 347 128 
L 347 722 
Q 666 556 975 473 
Q 1284 391 1588 391 
Q 1994 391 2212 530 
Q 2431 669 2431 922 
Q 2431 1156 2273 1281 
Q 2116 1406 1581 1522 
L 1381 1569 
Q 847 1681 609 1914 
Q 372 2147 372 2553 
Q 372 3047 722 3315 
Q 1072 3584 1716 3584 
Q 2034 3584 2315 3537 
Q 2597 3491 2834 3397 
z
" transform="scale(0.015625)"/>
      <path id="DejaVuSans-75" d="M 544 1381 
L 544 3500 
L 1119 3500 
L 1119 1403 
Q 1119 906 1312 657 
Q 1506 409 1894 409 
Q 2359 409 2629 706 
Q 2900 1003 2900 1516 
L 2900 3500 
L 3475 3500 
L 3475 0 
L 2900 0 
L 2900 538 
Q 2691 219 2414 64 
Q 2138 -91 1772 -91 
Q 1169 -91 856 284 
Q 544 659 544 1381 
z
M 1991 3584 
L 1991 3584 
z
" transform="scale(0.015625)"/>
      <path id="DejaVuSans-61" d="M 2194 1759 
Q 1497 1759 1228 1600 
Q 959 1441 959 1056 
Q 959 750 1161 570 
Q 1363 391 1709 391 
Q 2188 391 2477 730 
Q 2766 1069 2766 1631 
L 2766 1759 
L 2194 1759 
z
M 3341 1997 
L 3341 0 
L 2766 0 
L 2766 531 
Q 2569 213 2275 61 
Q 1981 -91 1556 -91 
Q 1019 -91 701 211 
Q 384 513 384 1019 
Q 384 1609 779 1909 
Q 1175 2209 1959 2209 
L 2766 2209 
L 2766 2266 
Q 2766 2663 2505 2880 
Q 2244 3097 1772 3097 
Q 1472 3097 1187 3025 
Q 903 2953 641 2809 
L 641 3341 
Q 956 3463 1253 3523 
Q 1550 3584 1831 3584 
Q 2591 3584 2966 3190 
Q 3341 2797 3341 1997 
z
" transform="scale(0.015625)"/>
      <path id="DejaVuSans-6c" d="M 603 4863 
L 1178 4863 
L 1178 0 
L 603 0 
L 603 4863 
z
" transform="scale(0.015625)"/>
      <path id="DejaVuSans-7a" d="M 353 3500 
L 3084 3500 
L 3084 2975 
L 922 459 
L 3084 459 
L 3084 0 
L 275 0 
L 275 525 
L 2438 3041 
L 353 3041 
L 353 3500 
z
" transform="scale(0.015625)"/>
      <path id="DejaVuSans-74" d="M 1172 4494 
L 1172 3500 
L 2356 3500 
L 2356 3053 
L 1172 3053 
L 1172 1153 
Q 1172 725 1289 603 
Q 1406 481 1766 481 
L 2356 481 
L 2356 0 
L 1766 0 
Q 1100 0 847 248 
Q 594 497 594 1153 
L 594 3053 
L 172 3053 
L 172 3500 
L 594 3500 
L 594 4494 
L 1172 4494 
z
" transform="scale(0.015625)"/>
      <path id="DejaVuSans-6f" d="M 1959 3097 
Q 1497 3097 1228 2736 
Q 959 2375 959 1747 
Q 959 1119 1226 758 
Q 1494 397 1959 397 
Q 2419 397 2687 759 
Q 2956 1122 2956 1747 
Q 2956 2369 2687 2733 
Q 2419 3097 1959 3097 
z
M 1959 3584 
Q 2709 3584 3137 3096 
Q 3566 2609 3566 1747 
Q 3566 888 3137 398 
Q 2709 -91 1959 -91 
Q 1206 -91 779 398 
Q 353 888 353 1747 
Q 353 2609 779 3096 
Q 1206 3584 1959 3584 
z
" transform="scale(0.015625)"/>
      <path id="DejaVuSans-6e" d="M 3513 2113 
L 3513 0 
L 2938 0 
L 2938 2094 
Q 2938 2591 2744 2837 
Q 2550 3084 2163 3084 
Q 1697 3084 1428 2787 
Q 1159 2491 1159 1978 
L 1159 0 
L 581 0 
L 581 3500 
L 1159 3500 
L 1159 2956 
Q 1366 3272 1645 3428 
Q 1925 3584 2291 3584 
Q 2894 3584 3203 3211 
Q 3513 2838 3513 2113 
z
" transform="scale(0.015625)"/>
      <path id="DejaVuSans-20" transform="scale(0.015625)"/>
      <path id="DejaVuSans-66" d="M 2375 4863 
L 2375 4384 
L 1825 4384 
Q 1516 4384 1395 4259 
Q 1275 4134 1275 3809 
L 1275 3500 
L 2222 3500 
L 2222 3053 
L 1275 3053 
L 1275 0 
L 697 0 
L 697 3053 
L 147 3053 
L 147 3500 
L 697 3500 
L 697 3744 
Q 697 4328 969 4595 
Q 1241 4863 1831 4863 
L 2375 4863 
z
" transform="scale(0.015625)"/>
      <path id="DejaVuSans-6d" d="M 3328 2828 
Q 3544 3216 3844 3400 
Q 4144 3584 4550 3584 
Q 5097 3584 5394 3201 
Q 5691 2819 5691 2113 
L 5691 0 
L 5113 0 
L 5113 2094 
Q 5113 2597 4934 2840 
Q 4756 3084 4391 3084 
Q 3944 3084 3684 2787 
Q 3425 2491 3425 1978 
L 3425 0 
L 2847 0 
L 2847 2094 
Q 2847 2600 2669 2842 
Q 2491 3084 2119 3084 
Q 1678 3084 1418 2786 
Q 1159 2488 1159 1978 
L 1159 0 
L 581 0 
L 581 3500 
L 1159 3500 
L 1159 2956 
Q 1356 3278 1631 3431 
Q 1906 3584 2284 3584 
Q 2666 3584 2933 3390 
Q 3200 3197 3328 2828 
z
" transform="scale(0.015625)"/>
      <path id="DejaVuSans-72" d="M 2631 2963 
Q 2534 3019 2420 3045 
Q 2306 3072 2169 3072 
Q 1681 3072 1420 2755 
Q 1159 2438 1159 1844 
L 1159 0 
L 581 0 
L 581 3500 
L 1159 3500 
L 1159 2956 
Q 1341 3275 1631 3429 
Q 1922 3584 2338 3584 
Q 2397 3584 2469 3576 
Q 2541 3569 2628 3553 
L 2631 2963 
z
" transform="scale(0.015625)"/>
      <path id="DejaVuSans-65" d="M 3597 1894 
L 3597 1613 
L 953 1613 
Q 991 1019 1311 708 
Q 1631 397 2203 397 
Q 2534 397 2845 478 
Q 3156 559 3463 722 
L 3463 178 
Q 3153 47 2828 -22 
Q 2503 -91 2169 -91 
Q 1331 -91 842 396 
Q 353 884 353 1716 
Q 353 2575 817 3079 
Q 1281 3584 2069 3584 
Q 2775 3584 3186 3129 
Q 3597 2675 3597 1894 
z
M 3022 2063 
Q 3016 2534 2758 2815 
Q 2500 3097 2075 3097 
Q 1594 3097 1305 2825 
Q 1016 2553 972 2059 
L 3022 2063 
z
" transform="scale(0.015625)"/>
      <path id="DejaVuSans-70" d="M 1159 525 
L 1159 -1331 
L 581 -1331 
L 581 3500 
L 1159 3500 
L 1159 2969 
Q 1341 3281 1617 3432 
Q 1894 3584 2278 3584 
Q 2916 3584 3314 3078 
Q 3713 2572 3713 1747 
Q 3713 922 3314 415 
Q 2916 -91 2278 -91 
Q 1894 -91 1617 61 
Q 1341 213 1159 525 
z
M 3116 1747 
Q 3116 2381 2855 2742 
Q 2594 3103 2138 3103 
Q 1681 3103 1420 2742 
Q 1159 2381 1159 1747 
Q 1159 1113 1420 752 
Q 1681 391 2138 391 
Q 2594 391 2855 752 
Q 3116 1113 3116 1747 
z
" transform="scale(0.015625)"/>
      <path id="DejaVuSans-64" d="M 2906 2969 
L 2906 4863 
L 3481 4863 
L 3481 0 
L 2906 0 
L 2906 525 
Q 2725 213 2448 61 
Q 2172 -91 1784 -91 
Q 1150 -91 751 415 
Q 353 922 353 1747 
Q 353 2572 751 3078 
Q 1150 3584 1784 3584 
Q 2172 3584 2448 3432 
Q 2725 3281 2906 2969 
z
M 947 1747 
Q 947 1113 1208 752 
Q 1469 391 1925 391 
Q 2381 391 2643 752 
Q 2906 1113 2906 1747 
Q 2906 2381 2643 2742 
Q 2381 3103 1925 3103 
Q 1469 3103 1208 2742 
Q 947 2381 947 1747 
z
" transform="scale(0.015625)"/>
      <path id="DejaVuSans-67" d="M 2906 1791 
Q 2906 2416 2648 2759 
Q 2391 3103 1925 3103 
Q 1463 3103 1205 2759 
Q 947 2416 947 1791 
Q 947 1169 1205 825 
Q 1463 481 1925 481 
Q 2391 481 2648 825 
Q 2906 1169 2906 1791 
z
M 3481 434 
Q 3481 -459 3084 -895 
Q 2688 -1331 1869 -1331 
Q 1566 -1331 1297 -1286 
Q 1028 -1241 775 -1147 
L 775 -588 
Q 1028 -725 1275 -790 
Q 1522 -856 1778 -856 
Q 2344 -856 2625 -561 
Q 2906 -266 2906 331 
L 2906 616 
Q 2728 306 2450 153 
Q 2172 0 1784 0 
Q 1141 0 747 490 
Q 353 981 353 1791 
Q 353 2603 747 3093 
Q 1141 3584 1784 3584 
Q 2172 3584 2450 3431 
Q 2728 3278 2906 2969 
L 2906 3500 
L 3481 3500 
L 3481 434 
z
" transform="scale(0.015625)"/>
      <path id="DejaVuSans-68" d="M 3513 2113 
L 3513 0 
L 2938 0 
L 2938 2094 
Q 2938 2591 2744 2837 
Q 2550 3084 2163 3084 
Q 1697 3084 1428 2787 
Q 1159 2491 1159 1978 
L 1159 0 
L 581 0 
L 581 4863 
L 1159 4863 
L 1159 2956 
Q 1366 3272 1645 3428 
Q 1925 3584 2291 3584 
Q 2894 3584 3203 3211 
Q 3513 2838 3513 2113 
z
" transform="scale(0.015625)"/>
     </defs>
     <use xlink:href="#DejaVuSans-56"/>
     <use xlink:href="#DejaVuSans-69" transform="translate(66.158203 0)"/>
     <use xlink:href="#DejaVuSans-73" transform="translate(93.941406 0)"/>
     <use xlink:href="#DejaVuSans-75" transform="translate(146.041016 0)"/>
     <use xlink:href="#DejaVuSans-61" transform="translate(209.419922 0)"/>
     <use xlink:href="#DejaVuSans-6c" transform="translate(270.699219 0)"/>
     <use xlink:href="#DejaVuSans-69" transform="translate(298.482422 0)"/>
     <use xlink:href="#DejaVuSans-7a" transform="translate(326.265625 0)"/>
     <use xlink:href="#DejaVuSans-61" transform="translate(378.755859 0)"/>
     <use xlink:href="#DejaVuSans-74" transform="translate(440.035156 0)"/>
     <use xlink:href="#DejaVuSans-69" transform="translate(479.244141 0)"/>
     <use xlink:href="#DejaVuSans-6f" transform="translate(507.027344 0)"/>
     <use xlink:href="#DejaVuSans-6e" transform="translate(568.208984 0)"/>
     <use xlink:href="#DejaVuSans-20" transform="translate(631.587891 0)"/>
     <use xlink:href="#DejaVuSans-6f" transform="translate(663.375 0)"/>
     <use xlink:href="#DejaVuSans-66" transform="translate(724.556641 0)"/>
     <use xlink:href="#DejaVuSans-20" transform="translate(759.761719 0)"/>
     <use xlink:href="#DejaVuSans-73" transform="translate(791.548828 0)"/>
     <use xlink:href="#DejaVuSans-69" transform="translate(843.648438 0)"/>
     <use xlink:href="#DejaVuSans-6d" transform="translate(871.431641 0)"/>
     <use xlink:href="#DejaVuSans-69" transform="translate(968.84375 0)"/>
     <use xlink:href="#DejaVuSans-6c" transform="translate(996.626953 0)"/>
     <use xlink:href="#DejaVuSans-61" transform="translate(1024.410156 0)"/>
     <use xlink:href="#DejaVuSans-72" transform="translate(1085.689453 0)"/>
     <use xlink:href="#DejaVuSans-20" transform="translate(1126.802734 0)"/>
     <use xlink:href="#DejaVuSans-6c" transform="translate(1158.589844 0)"/>
     <use xlink:href="#DejaVuSans-69" transform="translate(1186.373047 0)"/>
     <use xlink:href="#DejaVuSans-6e" transform="translate(1214.15625 0)"/>
     <use xlink:href="#DejaVuSans-65" transform="translate(1277.535156 0)"/>
     <use xlink:href="#DejaVuSans-73" transform="translate(1339.058594 0)"/>
     <use xlink:href="#DejaVuSans-20" transform="translate(1391.158203 0)"/>
     <use xlink:href="#DejaVuSans-70" transform="translate(1422.945312 0)"/>
     <use xlink:href="#DejaVuSans-6c" transform="translate(1486.421875 0)"/>
     <use xlink:href="#DejaVuSans-6f" transform="translate(1514.205078 0)"/>
     <use xlink:href="#DejaVuSans-74" transform="translate(1575.386719 0)"/>
     <use xlink:href="#DejaVuSans-74" transform="translate(1614.595703 0)"/>
     <use xlink:href="#DejaVuSans-65" transform="translate(1653.804688 0)"/>
     <use xlink:href="#DejaVuSans-64" transform="translate(1715.328125 0)"/>
     <use xlink:href="#DejaVuSans-20" transform="translate(1778.804688 0)"/>
     <use xlink:href="#DejaVuSans-74" transform="translate(1810.591797 0)"/>
     <use xlink:href="#DejaVuSans-6f" transform="translate(1849.800781 0)"/>
     <use xlink:href="#DejaVuSans-67" transform="translate(1910.982422 0)"/>
     <use xlink:href="#DejaVuSans-65" transform="translate(1974.458984 0)"/>
     <use xlink:href="#DejaVuSans-74" transform="translate(2035.982422 0)"/>
     <use xlink:href="#DejaVuSans-68" transform="translate(2075.191406 0)"/>
     <use xlink:href="#DejaVuSans-65" transform="translate(2138.570312 0)"/>
     <use xlink:href="#DejaVuSans-72" transform="translate(2200.09375 0)"/>
    </g>
   </g>
  </g>
 </g>
 <defs>
  <clipPath id="pedec97bffe">
   <rect x="28.942187" y="22.318125" width="433.057333" height="307.80327"/>
  </clipPath>
 </defs>
</svg>
