<?xml version="1.0" encoding="utf-8" standalone="no"?>
<!DOCTYPE svg PUBLIC "-//W3C//DTD SVG 1.1//EN"
  "http://www.w3.org/Graphics/SVG/1.1/DTD/svg11.dtd">
<svg xmlns:xlink="http://www.w3.org/1999/xlink" width="469.19952pt" height="353.99952pt" viewBox="0 0 469.19952 353.99952" xmlns="http://www.w3.org/2000/svg" version="1.1">
 <metadata>
  <rdf:RDF xmlns:dc="http://purl.org/dc/elements/1.1/" xmlns:cc="http://creativecommons.org/ns#" xmlns:rdf="http://www.w3.org/1999/02/22-rdf-syntax-ns#">
   <cc:Work>
    <dc:type rdf:resource="http://purl.org/dc/dcmitype/StillImage"/>
    <dc:date>2025-12-27T13:32:58.498792</dc:date>
    <dc:format>image/svg+xml</dc:format>
    <dc:creator>
     <cc:Agent>
      <dc:title>made/written by /home/con/Scripts/python/matplotlib/MatPlotLib-Simple/t/01.all.tests.t called using "plt" in /home/con/perl5/perlbrew/perls/perl-5.42.0/lib/site_perl/5.42.0/x86_64-linux/Matplotlib/Simple.pm</dc:title>
     </cc:Agent>
    </dc:creator>
   </cc:Work>
  </rdf:RDF>
 </metadata>
 <defs>
  <style type="text/css">*{stroke-linejoin: round; stroke-linecap: butt}</style>
 </defs>
 <g id="figure_1">
  <g id="patch_1">
   <path d="M 0 353.99952 
L 469.19952 353.99952 
L 469.19952 0 
L 0 0 
z
" style="fill: #ffffff"/>
  </g>
  <g id="axes_1">
   <g id="patch_2">
    <path d="M 28.942187 330.121395 
L 461.99952 330.121395 
L 461.99952 22.318125 
L 28.942187 22.318125 
z
" style="fill: #ffffff"/>
   </g>
   <g id="FillBetweenPolyCollection_1">
    <defs>
     <path id="mdee3706c58" d="M 442.315096 -305.86871 
L 442.315096 -294.965931 
L 438.378211 -299.474894 
L 434.441326 -307.288392 
L 430.504441 -306.954214 
L 426.567556 -299.248692 
L 422.630672 -293.964224 
L 418.693787 -307.86896 
L 414.756902 -306.614057 
L 410.820017 -300.323925 
L 406.883132 -299.916371 
L 402.946247 -305.843929 
L 399.009363 -297.448749 
L 395.072478 -304.803956 
L 391.135593 -294.838824 
L 387.198708 -303.807507 
L 383.261823 -294.691562 
L 379.324938 -298.664817 
L 375.388054 -297.412528 
L 371.451169 -302.68239 
L 367.514284 -300.128131 
L 363.577399 -302.804048 
L 359.640514 -302.043233 
L 355.703629 -295.428999 
L 351.766744 -294.792721 
L 347.82986 -291.71393 
L 343.892975 -291.417724 
L 339.95609 -297.956605 
L 336.019205 -299.906926 
L 332.08232 -292.069033 
L 328.145435 -294.968248 
L 324.208551 -293.41852 
L 320.271666 -298.727521 
L 316.334781 -296.76529 
L 312.397896 -289.451427 
L 308.461011 -295.389874 
L 304.524126 -296.306706 
L 300.587242 -291.954713 
L 296.650357 -287.6048 
L 292.713472 -287.043565 
L 288.776587 -289.50135 
L 284.839702 -292.282783 
L 280.902817 -288.90188 
L 276.965932 -290.287904 
L 273.029048 -290.771749 
L 269.092163 -286.866829 
L 265.155278 -289.129545 
L 261.218393 -285.306984 
L 257.281508 -283.462714 
L 253.344623 -283.887338 
L 249.407739 -284.352788 
L 245.470854 -279.611835 
L 241.533969 -285.479631 
L 237.597084 -283.699574 
L 233.660199 -281.485987 
L 229.723314 -282.569628 
L 225.78643 -279.143114 
L 221.849545 -279.95017 
L 217.91266 -276.850368 
L 213.975775 -272.664107 
L 210.03889 -273.351049 
L 206.102005 -272.695354 
L 202.165121 -273.806511 
L 198.228236 -264.621348 
L 194.291351 -265.161467 
L 190.354466 -270.173056 
L 186.417581 -270.855638 
L 182.480696 -266.446641 
L 178.543811 -265.287812 
L 174.606927 -260.944021 
L 170.670042 -255.684624 
L 166.733157 -253.969394 
L 162.796272 -256.160988 
L 158.859387 -255.256254 
L 154.922502 -247.987651 
L 150.985618 -248.783518 
L 147.048733 -250.878978 
L 143.111848 -242.172731 
L 139.174963 -239.208204 
L 135.238078 -239.253779 
L 131.301193 -240.064723 
L 127.364309 -239.321869 
L 123.427424 -227.409156 
L 119.490539 -226.122122 
L 115.553654 -221.990348 
L 111.616769 -218.532241 
L 107.679884 -214.108878 
L 103.742999 -215.454429 
L 99.806115 -203.335665 
L 95.86923 -201.730794 
L 91.932345 -192.935469 
L 87.99546 -185.638637 
L 84.058575 -186.78964 
L 80.12169 -175.764047 
L 76.184806 -165.281929 
L 72.247921 -153.271176 
L 68.311036 -148.80114 
L 64.374151 -126.801458 
L 60.437266 -121.69004 
L 56.500381 -102.119927 
L 52.563497 -90.411228 
L 48.626612 -63.408798 
L 48.626612 -67.593707 
L 48.626612 -67.593707 
L 52.563497 -95.631476 
L 56.500381 -110.290675 
L 60.437266 -123.876647 
L 64.374151 -137.031722 
L 68.311036 -159.095599 
L 72.247921 -168.759198 
L 76.184806 -171.131759 
L 80.12169 -186.362229 
L 84.058575 -192.853914 
L 87.99546 -198.985973 
L 91.932345 -202.0156 
L 95.86923 -207.950476 
L 99.806115 -212.543935 
L 103.742999 -222.923762 
L 107.679884 -227.262029 
L 111.616769 -224.862429 
L 115.553654 -231.245015 
L 119.490539 -233.455772 
L 123.427424 -242.147232 
L 127.364309 -241.469604 
L 131.301193 -244.306259 
L 135.238078 -248.041207 
L 139.174963 -246.32617 
L 143.111848 -255.99571 
L 147.048733 -256.254944 
L 150.985618 -254.579699 
L 154.922502 -258.607441 
L 158.859387 -267.076503 
L 162.796272 -265.232777 
L 166.733157 -260.929853 
L 170.670042 -266.038962 
L 174.606927 -267.260245 
L 178.543811 -272.05063 
L 182.480696 -272.158424 
L 186.417581 -274.177738 
L 190.354466 -277.335664 
L 194.291351 -276.914356 
L 198.228236 -276.564574 
L 202.165121 -280.00936 
L 206.102005 -278.59659 
L 210.03889 -277.441261 
L 213.975775 -284.443648 
L 217.91266 -284.842333 
L 221.849545 -281.574549 
L 225.78643 -284.097231 
L 229.723314 -288.597276 
L 233.660199 -284.56869 
L 237.597084 -284.791927 
L 241.533969 -289.208422 
L 245.470854 -291.71434 
L 249.407739 -289.535532 
L 253.344623 -287.527763 
L 257.281508 -287.918698 
L 261.218393 -295.524852 
L 265.155278 -294.147743 
L 269.092163 -296.092686 
L 273.029048 -295.986847 
L 276.965932 -293.775092 
L 280.902817 -293.01787 
L 284.839702 -296.802259 
L 288.776587 -298.368589 
L 292.713472 -295.615223 
L 296.650357 -295.315262 
L 300.587242 -302.33038 
L 304.524126 -300.187221 
L 308.461011 -296.104583 
L 312.397896 -306.097615 
L 316.334781 -304.444986 
L 320.271666 -304.788759 
L 324.208551 -302.697175 
L 328.145435 -301.869864 
L 332.08232 -307.114396 
L 336.019205 -303.289469 
L 339.95609 -301.65681 
L 343.892975 -302.049341 
L 347.82986 -303.762708 
L 351.766744 -301.850983 
L 355.703629 -300.971694 
L 359.640514 -307.897242 
L 363.577399 -307.897242 
L 367.514284 -304.929195 
L 371.451169 -307.713902 
L 375.388054 -302.587303 
L 379.324938 -306.543716 
L 383.261823 -302.420159 
L 387.198708 -304.606989 
L 391.135593 -303.047367 
L 395.072478 -307.897242 
L 399.009363 -307.897242 
L 402.946247 -307.897242 
L 406.883132 -306.662877 
L 410.820017 -306.189676 
L 414.756902 -307.897242 
L 418.693787 -307.897242 
L 422.630672 -304.613813 
L 426.567556 -305.702221 
L 430.504441 -307.897242 
L 434.441326 -307.897242 
L 438.378211 -307.897242 
L 442.315096 -305.86871 
z
" style="stroke: #0000ff; stroke-opacity: 0.3"/>
    </defs>
    <g clip-path="url(#p13952a9240)">
     <use xlink:href="#mdee3706c58" x="0" y="353.99952" style="fill: #0000ff; fill-opacity: 0.3; stroke: #0000ff; stroke-opacity: 0.3"/>
    </g>
   </g>
   <g id="FillBetweenPolyCollection_2">
    <defs>
     <path id="md082bb6f71" d="M 442.315096 -305.045339 
L 442.315096 -302.903681 
L 438.378211 -301.933548 
L 434.441326 -301.643582 
L 430.504441 -295.620025 
L 426.567556 -300.820801 
L 422.630672 -296.672283 
L 418.693787 -298.166391 
L 414.756902 -300.588609 
L 410.820017 -295.257755 
L 406.883132 -300.732796 
L 402.946247 -299.127257 
L 399.009363 -297.770458 
L 395.072478 -300.53601 
L 391.135593 -298.907166 
L 387.198708 -298.110625 
L 383.261823 -298.184484 
L 379.324938 -293.447001 
L 375.388054 -297.593415 
L 371.451169 -299.081378 
L 367.514284 -294.842732 
L 363.577399 -291.400224 
L 359.640514 -295.919693 
L 355.703629 -296.60514 
L 351.766744 -295.656274 
L 347.82986 -296.050497 
L 343.892975 -292.017089 
L 339.95609 -295.881299 
L 336.019205 -293.375879 
L 332.08232 -293.9319 
L 328.145435 -293.485463 
L 324.208551 -287.963368 
L 320.271666 -290.000657 
L 316.334781 -287.719577 
L 312.397896 -290.860186 
L 308.461011 -284.884612 
L 304.524126 -283.299124 
L 300.587242 -289.487857 
L 296.650357 -290.033807 
L 292.713472 -289.347458 
L 288.776587 -286.939698 
L 284.839702 -288.177561 
L 280.902817 -284.974202 
L 276.965932 -284.668379 
L 273.029048 -281.424826 
L 269.092163 -280.839162 
L 265.155278 -278.103277 
L 261.218393 -282.789209 
L 257.281508 -283.347194 
L 253.344623 -281.959111 
L 249.407739 -278.252236 
L 245.470854 -276.224371 
L 241.533969 -278.535319 
L 237.597084 -276.720625 
L 233.660199 -272.746471 
L 229.723314 -274.386891 
L 225.78643 -274.605647 
L 221.849545 -271.139424 
L 217.91266 -270.853888 
L 213.975775 -271.803458 
L 210.03889 -270.39147 
L 206.102005 -269.253087 
L 202.165121 -268.423988 
L 198.228236 -264.09454 
L 194.291351 -262.906231 
L 190.354466 -259.381902 
L 186.417581 -261.552947 
L 182.480696 -259.544092 
L 178.543811 -260.795299 
L 174.606927 -259.019947 
L 170.670042 -252.175772 
L 166.733157 -253.828344 
L 162.796272 -251.151467 
L 158.859387 -251.062313 
L 154.922502 -247.812707 
L 150.985618 -246.069284 
L 147.048733 -239.609746 
L 143.111848 -241.505841 
L 139.174963 -238.94904 
L 135.238078 -235.060482 
L 131.301193 -230.85451 
L 127.364309 -230.579307 
L 123.427424 -227.330931 
L 119.490539 -222.142535 
L 115.553654 -216.233375 
L 111.616769 -214.05394 
L 107.679884 -207.572179 
L 103.742999 -199.87366 
L 99.806115 -199.475134 
L 95.86923 -191.920516 
L 91.932345 -185.764626 
L 87.99546 -181.283927 
L 84.058575 -171.334823 
L 80.12169 -165.430561 
L 76.184806 -153.13322 
L 72.247921 -142.118841 
L 68.311036 -131.331828 
L 64.374151 -118.93596 
L 60.437266 -103.412044 
L 56.500381 -85.63639 
L 52.563497 -64.868325 
L 48.626612 -42.008193 
L 48.626612 -68.023292 
L 48.626612 -68.023292 
L 52.563497 -90.139315 
L 56.500381 -100.588291 
L 60.437266 -120.008853 
L 64.374151 -144.006752 
L 68.311036 -145.977145 
L 72.247921 -158.186829 
L 76.184806 -162.17076 
L 80.12169 -187.325135 
L 84.058575 -187.096627 
L 87.99546 -205.020508 
L 91.932345 -203.238397 
L 95.86923 -208.079929 
L 99.806115 -218.7279 
L 103.742999 -222.792824 
L 107.679884 -218.171378 
L 111.616769 -229.331593 
L 115.553654 -222.6411 
L 119.490539 -238.121017 
L 123.427424 -246.45742 
L 127.364309 -249.268602 
L 131.301193 -246.85088 
L 135.238078 -246.233392 
L 139.174963 -255.787704 
L 143.111848 -255.044804 
L 147.048733 -254.88634 
L 150.985618 -259.516763 
L 154.922502 -261.233696 
L 158.859387 -264.813219 
L 162.796272 -264.895018 
L 166.733157 -260.41583 
L 170.670042 -263.021245 
L 174.606927 -273.301004 
L 178.543811 -275.299437 
L 182.480696 -272.359515 
L 186.417581 -264.155534 
L 190.354466 -266.937083 
L 194.291351 -271.64344 
L 198.228236 -277.342246 
L 202.165121 -283.829825 
L 206.102005 -275.24252 
L 210.03889 -279.016197 
L 213.975775 -284.22858 
L 217.91266 -281.491228 
L 221.849545 -279.701757 
L 225.78643 -285.974866 
L 229.723314 -288.223744 
L 233.660199 -280.895027 
L 237.597084 -279.339729 
L 241.533969 -283.125786 
L 245.470854 -286.816152 
L 249.407739 -289.27261 
L 253.344623 -291.178472 
L 257.281508 -295.214559 
L 261.218393 -296.020823 
L 265.155278 -292.500212 
L 269.092163 -286.415981 
L 273.029048 -289.157329 
L 276.965932 -287.591354 
L 280.902817 -296.25094 
L 284.839702 -302.65325 
L 288.776587 -299.813445 
L 292.713472 -300.479189 
L 296.650357 -300.509371 
L 300.587242 -294.493236 
L 304.524126 -303.561642 
L 308.461011 -301.228936 
L 312.397896 -295.927345 
L 316.334781 -297.066244 
L 320.271666 -295.238254 
L 324.208551 -301.414047 
L 328.145435 -303.152817 
L 332.08232 -302.889537 
L 336.019205 -294.693395 
L 339.95609 -307.897242 
L 343.892975 -300.436974 
L 347.82986 -304.192178 
L 351.766744 -299.486903 
L 355.703629 -304.822424 
L 359.640514 -304.836828 
L 363.577399 -300.049171 
L 367.514284 -296.594482 
L 371.451169 -307.897242 
L 375.388054 -304.450064 
L 379.324938 -297.576021 
L 383.261823 -304.097137 
L 387.198708 -307.897242 
L 391.135593 -304.216135 
L 395.072478 -307.897242 
L 399.009363 -304.78241 
L 402.946247 -307.897242 
L 406.883132 -307.897242 
L 410.820017 -307.897242 
L 414.756902 -303.887827 
L 418.693787 -304.899477 
L 422.630672 -307.897242 
L 426.567556 -307.897242 
L 430.504441 -307.897242 
L 434.441326 -305.56539 
L 438.378211 -305.551572 
L 442.315096 -305.045339 
z
" style="stroke: #008000; stroke-opacity: 0.3"/>
    </defs>
    <g clip-path="url(#p13952a9240)">
     <use xlink:href="#md082bb6f71" x="0" y="353.99952" style="fill: #008000; fill-opacity: 0.3; stroke: #008000; stroke-opacity: 0.3"/>
    </g>
   </g>
   <g id="matplotlib.axis_1">
    <g id="xtick_1">
     <g id="line2d_1">
      <defs>
       <path id="me8e7436834" d="M 0 0 
L 0 3.5 
" style="stroke: #000000; stroke-width: 0.8"/>
      </defs>
      <g>
       <use xlink:href="#me8e7436834" x="92.369777" y="330.121395" style="stroke: #000000; stroke-width: 0.8"/>
      </g>
     </g>
     <g id="text_1">
      <!-- 0.2 -->
      <g transform="translate(84.418214 344.719832) scale(0.1 -0.1)">
       <defs>
        <path id="DejaVuSans-30" d="M 2034 4250 
Q 1547 4250 1301 3770 
Q 1056 3291 1056 2328 
Q 1056 1369 1301 889 
Q 1547 409 2034 409 
Q 2525 409 2770 889 
Q 3016 1369 3016 2328 
Q 3016 3291 2770 3770 
Q 2525 4250 2034 4250 
z
M 2034 4750 
Q 2819 4750 3233 4129 
Q 3647 3509 3647 2328 
Q 3647 1150 3233 529 
Q 2819 -91 2034 -91 
Q 1250 -91 836 529 
Q 422 1150 422 2328 
Q 422 3509 836 4129 
Q 1250 4750 2034 4750 
z
" transform="scale(0.015625)"/>
        <path id="DejaVuSans-2e" d="M 684 794 
L 1344 794 
L 1344 0 
L 684 0 
L 684 794 
z
" transform="scale(0.015625)"/>
        <path id="DejaVuSans-32" d="M 1228 531 
L 3431 531 
L 3431 0 
L 469 0 
L 469 531 
Q 828 903 1448 1529 
Q 2069 2156 2228 2338 
Q 2531 2678 2651 2914 
Q 2772 3150 2772 3378 
Q 2772 3750 2511 3984 
Q 2250 4219 1831 4219 
Q 1534 4219 1204 4116 
Q 875 4013 500 3803 
L 500 4441 
Q 881 4594 1212 4672 
Q 1544 4750 1819 4750 
Q 2544 4750 2975 4387 
Q 3406 4025 3406 3419 
Q 3406 3131 3298 2873 
Q 3191 2616 2906 2266 
Q 2828 2175 2409 1742 
Q 1991 1309 1228 531 
z
" transform="scale(0.015625)"/>
       </defs>
       <use xlink:href="#DejaVuSans-30"/>
       <use xlink:href="#DejaVuSans-2e" transform="translate(63.623047 0)"/>
       <use xlink:href="#DejaVuSans-32" transform="translate(95.410156 0)"/>
      </g>
     </g>
    </g>
    <g id="xtick_2">
     <g id="line2d_2">
      <g>
       <use xlink:href="#me8e7436834" x="179.856106" y="330.121395" style="stroke: #000000; stroke-width: 0.8"/>
      </g>
     </g>
     <g id="text_2">
      <!-- 0.4 -->
      <g transform="translate(171.904544 344.719832) scale(0.1 -0.1)">
       <defs>
        <path id="DejaVuSans-34" d="M 2419 4116 
L 825 1625 
L 2419 1625 
L 2419 4116 
z
M 2253 4666 
L 3047 4666 
L 3047 1625 
L 3713 1625 
L 3713 1100 
L 3047 1100 
L 3047 0 
L 2419 0 
L 2419 1100 
L 313 1100 
L 313 1709 
L 2253 4666 
z
" transform="scale(0.015625)"/>
       </defs>
       <use xlink:href="#DejaVuSans-30"/>
       <use xlink:href="#DejaVuSans-2e" transform="translate(63.623047 0)"/>
       <use xlink:href="#DejaVuSans-34" transform="translate(95.410156 0)"/>
      </g>
     </g>
    </g>
    <g id="xtick_3">
     <g id="line2d_3">
      <g>
       <use xlink:href="#me8e7436834" x="267.342436" y="330.121395" style="stroke: #000000; stroke-width: 0.8"/>
      </g>
     </g>
     <g id="text_3">
      <!-- 0.6 -->
      <g transform="translate(259.390874 344.719832) scale(0.1 -0.1)">
       <defs>
        <path id="DejaVuSans-36" d="M 2113 2584 
Q 1688 2584 1439 2293 
Q 1191 2003 1191 1497 
Q 1191 994 1439 701 
Q 1688 409 2113 409 
Q 2538 409 2786 701 
Q 3034 994 3034 1497 
Q 3034 2003 2786 2293 
Q 2538 2584 2113 2584 
z
M 3366 4563 
L 3366 3988 
Q 3128 4100 2886 4159 
Q 2644 4219 2406 4219 
Q 1781 4219 1451 3797 
Q 1122 3375 1075 2522 
Q 1259 2794 1537 2939 
Q 1816 3084 2150 3084 
Q 2853 3084 3261 2657 
Q 3669 2231 3669 1497 
Q 3669 778 3244 343 
Q 2819 -91 2113 -91 
Q 1303 -91 875 529 
Q 447 1150 447 2328 
Q 447 3434 972 4092 
Q 1497 4750 2381 4750 
Q 2619 4750 2861 4703 
Q 3103 4656 3366 4563 
z
" transform="scale(0.015625)"/>
       </defs>
       <use xlink:href="#DejaVuSans-30"/>
       <use xlink:href="#DejaVuSans-2e" transform="translate(63.623047 0)"/>
       <use xlink:href="#DejaVuSans-36" transform="translate(95.410156 0)"/>
      </g>
     </g>
    </g>
    <g id="xtick_4">
     <g id="line2d_4">
      <g>
       <use xlink:href="#me8e7436834" x="354.828766" y="330.121395" style="stroke: #000000; stroke-width: 0.8"/>
      </g>
     </g>
     <g id="text_4">
      <!-- 0.8 -->
      <g transform="translate(346.877203 344.719832) scale(0.1 -0.1)">
       <defs>
        <path id="DejaVuSans-38" d="M 2034 2216 
Q 1584 2216 1326 1975 
Q 1069 1734 1069 1313 
Q 1069 891 1326 650 
Q 1584 409 2034 409 
Q 2484 409 2743 651 
Q 3003 894 3003 1313 
Q 3003 1734 2745 1975 
Q 2488 2216 2034 2216 
z
M 1403 2484 
Q 997 2584 770 2862 
Q 544 3141 544 3541 
Q 544 4100 942 4425 
Q 1341 4750 2034 4750 
Q 2731 4750 3128 4425 
Q 3525 4100 3525 3541 
Q 3525 3141 3298 2862 
Q 3072 2584 2669 2484 
Q 3125 2378 3379 2068 
Q 3634 1759 3634 1313 
Q 3634 634 3220 271 
Q 2806 -91 2034 -91 
Q 1263 -91 848 271 
Q 434 634 434 1313 
Q 434 1759 690 2068 
Q 947 2378 1403 2484 
z
M 1172 3481 
Q 1172 3119 1398 2916 
Q 1625 2713 2034 2713 
Q 2441 2713 2670 2916 
Q 2900 3119 2900 3481 
Q 2900 3844 2670 4047 
Q 2441 4250 2034 4250 
Q 1625 4250 1398 4047 
Q 1172 3844 1172 3481 
z
" transform="scale(0.015625)"/>
       </defs>
       <use xlink:href="#DejaVuSans-30"/>
       <use xlink:href="#DejaVuSans-2e" transform="translate(63.623047 0)"/>
       <use xlink:href="#DejaVuSans-38" transform="translate(95.410156 0)"/>
      </g>
     </g>
    </g>
    <g id="xtick_5">
     <g id="line2d_5">
      <g>
       <use xlink:href="#me8e7436834" x="442.315096" y="330.121395" style="stroke: #000000; stroke-width: 0.8"/>
      </g>
     </g>
     <g id="text_5">
      <!-- 1.0 -->
      <g transform="translate(434.363533 344.719832) scale(0.1 -0.1)">
       <defs>
        <path id="DejaVuSans-31" d="M 794 531 
L 1825 531 
L 1825 4091 
L 703 3866 
L 703 4441 
L 1819 4666 
L 2450 4666 
L 2450 531 
L 3481 531 
L 3481 0 
L 794 0 
L 794 531 
z
" transform="scale(0.015625)"/>
       </defs>
       <use xlink:href="#DejaVuSans-31"/>
       <use xlink:href="#DejaVuSans-2e" transform="translate(63.623047 0)"/>
       <use xlink:href="#DejaVuSans-30" transform="translate(95.410156 0)"/>
      </g>
     </g>
    </g>
   </g>
   <g id="matplotlib.axis_2">
    <g id="ytick_1">
     <g id="line2d_6">
      <defs>
       <path id="m578ebf5562" d="M 0 0 
L -3.5 0 
" style="stroke: #000000; stroke-width: 0.8"/>
      </defs>
      <g>
       <use xlink:href="#m578ebf5562" x="28.942187" y="286.721341" style="stroke: #000000; stroke-width: 0.8"/>
      </g>
     </g>
     <g id="text_6">
      <!-- −8 -->
      <g transform="translate(7.2 290.520559) scale(0.1 -0.1)">
       <defs>
        <path id="DejaVuSans-2212" d="M 678 2272 
L 4684 2272 
L 4684 1741 
L 678 1741 
L 678 2272 
z
" transform="scale(0.015625)"/>
       </defs>
       <use xlink:href="#DejaVuSans-2212"/>
       <use xlink:href="#DejaVuSans-38" transform="translate(83.789062 0)"/>
      </g>
     </g>
    </g>
    <g id="ytick_2">
     <g id="line2d_7">
      <g>
       <use xlink:href="#m578ebf5562" x="28.942187" y="233.250438" style="stroke: #000000; stroke-width: 0.8"/>
      </g>
     </g>
     <g id="text_7">
      <!-- −6 -->
      <g transform="translate(7.2 237.049657) scale(0.1 -0.1)">
       <use xlink:href="#DejaVuSans-2212"/>
       <use xlink:href="#DejaVuSans-36" transform="translate(83.789062 0)"/>
      </g>
     </g>
    </g>
    <g id="ytick_3">
     <g id="line2d_8">
      <g>
       <use xlink:href="#m578ebf5562" x="28.942187" y="179.779535" style="stroke: #000000; stroke-width: 0.8"/>
      </g>
     </g>
     <g id="text_8">
      <!-- −4 -->
      <g transform="translate(7.2 183.578754) scale(0.1 -0.1)">
       <use xlink:href="#DejaVuSans-2212"/>
       <use xlink:href="#DejaVuSans-34" transform="translate(83.789062 0)"/>
      </g>
     </g>
    </g>
    <g id="ytick_4">
     <g id="line2d_9">
      <g>
       <use xlink:href="#m578ebf5562" x="28.942187" y="126.308632" style="stroke: #000000; stroke-width: 0.8"/>
      </g>
     </g>
     <g id="text_9">
      <!-- −2 -->
      <g transform="translate(7.2 130.107851) scale(0.1 -0.1)">
       <use xlink:href="#DejaVuSans-2212"/>
       <use xlink:href="#DejaVuSans-32" transform="translate(83.789062 0)"/>
      </g>
     </g>
    </g>
    <g id="ytick_5">
     <g id="line2d_10">
      <g>
       <use xlink:href="#m578ebf5562" x="28.942187" y="72.837729" style="stroke: #000000; stroke-width: 0.8"/>
      </g>
     </g>
     <g id="text_10">
      <!-- 0 -->
      <g transform="translate(15.579687 76.636948) scale(0.1 -0.1)">
       <use xlink:href="#DejaVuSans-30"/>
      </g>
     </g>
    </g>
   </g>
   <g id="line2d_11">
    <path d="M 48.626612 286.721341 
L 52.603263 264.441798 
L 56.579914 245.589877 
L 60.556566 229.431088 
L 64.533217 215.426804 
L 68.509868 203.173055 
L 72.48652 192.360924 
L 76.463171 182.750141 
L 80.439823 174.151019 
L 84.416474 166.411809 
L 88.393125 159.409667 
L 92.369777 153.044084 
L 96.346428 147.232029 
L 100.323079 141.904312 
L 104.299731 137.002813 
L 108.276382 132.478352 
L 112.253033 128.289036 
L 116.229685 124.398957 
L 120.206336 120.777159 
L 124.182987 117.396815 
L 128.159639 114.234557 
L 132.13629 111.269941 
L 136.112942 108.484998 
L 140.089593 105.863875 
L 144.066244 103.392531 
L 148.042896 101.058484 
L 152.019547 98.850601 
L 155.996198 96.758923 
L 159.97285 94.77451 
L 163.949501 92.889318 
L 167.926152 91.096086 
L 171.902804 89.388247 
L 175.879455 87.759842 
L 179.856106 86.205455 
L 183.832758 84.720152 
L 187.809409 83.299428 
L 191.78606 81.93916 
L 195.762712 80.635569 
L 199.739363 79.385187 
L 203.716015 78.18482 
L 207.692666 77.031526 
L 211.669317 75.922589 
L 215.645969 74.855499 
L 219.62262 73.827931 
L 223.599271 72.837729 
L 227.575923 71.882892 
L 231.552574 70.961557 
L 235.529225 70.071993 
L 239.505877 69.212583 
L 243.482528 68.381821 
L 247.459179 67.578296 
L 251.435831 66.800692 
L 255.412482 66.047773 
L 259.389133 65.318384 
L 263.365785 64.611437 
L 267.342436 63.925912 
L 271.319088 63.260851 
L 275.295739 62.615351 
L 279.27239 61.988561 
L 283.249042 61.379679 
L 287.225693 60.787948 
L 291.202344 60.212655 
L 295.178996 59.653123 
L 299.155647 59.108714 
L 303.132298 58.578822 
L 307.10895 58.062875 
L 311.085601 57.560329 
L 315.062252 57.070668 
L 319.038904 56.593404 
L 323.015555 56.128072 
L 326.992207 55.67423 
L 330.968858 55.231456 
L 334.945509 54.799352 
L 338.922161 54.377537 
L 342.898812 53.965646 
L 346.875463 53.563334 
L 350.852115 53.170271 
L 354.828766 52.786141 
L 358.805417 52.410643 
L 362.782069 52.043489 
L 366.75872 51.684405 
L 370.735371 51.333127 
L 374.712023 50.989403 
L 378.688674 50.652993 
L 382.665325 50.323665 
L 386.641977 50.001198 
L 390.618628 49.68538 
L 394.59528 49.376007 
L 398.571931 49.072884 
L 402.548582 48.775823 
L 406.525234 48.484645 
L 410.501885 48.199176 
L 414.478536 47.91925 
L 418.455188 47.644708 
L 422.431839 47.375395 
L 426.40849 47.111163 
L 430.385142 46.85187 
L 434.361793 46.597379 
L 438.338444 46.347557 
L 442.315096 46.102278 
" clip-path="url(#p13952a9240)" style="fill: none; stroke: #0000ff; stroke-opacity: 0.15; stroke-width: 1.5; stroke-linecap: square"/>
   </g>
   <g id="line2d_12">
    <path d="M 48.626612 287.337475 
L 52.603263 258.684651 
L 56.579914 253.347832 
L 60.556566 231.948825 
L 64.533217 228.36025 
L 68.509868 190.899673 
L 72.48652 203.19373 
L 76.463171 188.914113 
L 80.439823 177.33627 
L 84.416474 158.287019 
L 88.393125 171.895293 
L 92.369777 150.55397 
L 96.346428 153.822767 
L 100.323079 152.378734 
L 104.299731 134.73611 
L 108.276382 123.680817 
L 112.253033 132.865188 
L 116.229685 134.041235 
L 120.206336 128.370894 
L 124.182987 128.875195 
L 128.159639 109.908985 
L 132.13629 108.984039 
L 136.112942 118.29885 
L 140.089593 114.037218 
L 144.066244 113.73372 
L 148.042896 91.031175 
L 152.019547 104.841137 
L 155.996198 109.441112 
L 159.97285 94.234661 
L 163.949501 100.650711 
L 167.926152 98.602983 
L 171.902804 101.268685 
L 175.879455 91.037206 
L 179.856106 75.568535 
L 183.832758 83.745302 
L 187.809409 77.944683 
L 191.78606 86.01684 
L 195.762712 93.769886 
L 199.739363 90.620597 
L 203.716015 72.981125 
L 207.692666 88.545824 
L 211.669317 76.291014 
L 215.645969 87.391066 
L 219.62262 69.849605 
L 223.599271 74.091028 
L 227.575923 65.524656 
L 231.552574 63.225984 
L 235.529225 81.76987 
L 239.505877 60.054128 
L 243.482528 73.537375 
L 247.459179 78.301487 
L 251.435831 61.677624 
L 255.412482 74.162963 
L 259.389133 61.208201 
L 263.365785 51.498858 
L 267.342436 67.763501 
L 271.319088 67.232254 
L 275.295739 54.809355 
L 279.27239 66.3742 
L 283.249042 65.326889 
L 287.225693 54.422451 
L 291.202344 54.370542 
L 295.178996 67.324133 
L 299.155647 69.08278 
L 303.132298 49.198418 
L 307.10895 65.945581 
L 311.085601 44.750799 
L 315.062252 47.006771 
L 319.038904 50.279953 
L 323.015555 47.544049 
L 326.992207 56.512962 
L 330.968858 67.930458 
L 334.945509 51.213547 
L 338.922161 53.658807 
L 342.898812 64.274555 
L 346.875463 66.266953 
L 350.852115 59.438569 
L 354.828766 64.780667 
L 358.805417 40.453324 
L 362.782069 47.67881 
L 366.75872 48.449955 
L 370.735371 48.503695 
L 374.712023 55.61737 
L 378.688674 44.959477 
L 382.665325 57.820741 
L 386.641977 48.948574 
L 390.618628 57.732018 
L 394.59528 43.976104 
L 398.571931 39.940617 
L 402.548582 37.872549 
L 406.525234 47.454111 
L 410.501885 55.661924 
L 414.478536 45.486032 
L 418.455188 37.486726 
L 422.431839 57.051531 
L 426.40849 55.205809 
L 430.385142 42.743142 
L 434.361793 44.331367 
L 438.338444 37.882582 
L 442.315096 55.705203 
" clip-path="url(#p13952a9240)" style="fill: none; stroke: #0000ff; stroke-opacity: 0.15; stroke-width: 1.5; stroke-linecap: square"/>
   </g>
   <g id="line2d_13">
    <path d="M 48.626612 291.435986 
L 52.603263 258.974113 
L 56.579914 243.654786 
L 60.556566 230.754886 
L 64.533217 221.383151 
L 68.509868 202.65879 
L 72.48652 182.263546 
L 76.463171 184.175267 
L 80.439823 164.101825 
L 84.416474 165.55415 
L 88.393125 153.179869 
L 92.369777 164.130739 
L 96.346428 143.660204 
L 100.323079 142.919496 
L 104.299731 127.357493 
L 108.276382 143.932288 
L 112.253033 135.145683 
L 116.229685 120.806231 
L 120.206336 122.031659 
L 124.182987 108.221612 
L 128.159639 113.247239 
L 132.13629 114.6701 
L 136.112942 103.181258 
L 140.089593 114.910628 
L 144.066244 91.28307 
L 148.042896 106.83747 
L 152.019547 106.082155 
L 155.996198 93.06979 
L 159.97285 81.412875 
L 163.949501 90.242391 
L 167.926152 102.465164 
L 171.902804 83.027515 
L 175.879455 89.016392 
L 179.856106 88.393864 
L 183.832758 87.646503 
L 187.809409 76.92406 
L 191.78606 74.223592 
L 195.762712 78.417364 
L 199.739363 78.618418 
L 203.716015 69.01654 
L 207.692666 79.402067 
L 211.669317 77.224591 
L 215.645969 61.844618 
L 219.62262 72.287903 
L 223.599271 75.726041 
L 227.575923 75.216784 
L 231.552574 64.777292 
L 235.529225 73.446953 
L 239.505877 65.199975 
L 243.482528 63.331399 
L 247.459179 58.888217 
L 251.435831 68.938826 
L 255.412482 72.745505 
L 259.389133 69.344977 
L 263.365785 68.62919 
L 267.342436 58.257059 
L 271.319088 54.027949 
L 275.295739 60.9094 
L 279.27239 67.99506 
L 283.249042 51.995434 
L 287.225693 62.664093 
L 291.202344 69.237857 
L 295.178996 67.868336 
L 299.155647 47.12133 
L 303.132298 54.36363 
L 307.10895 52.751839 
L 311.085601 68.556757 
L 315.062252 60.145335 
L 319.038904 44.725581 
L 323.015555 64.459722 
L 326.992207 54.921898 
L 330.968858 42.679251 
L 334.945509 50.479164 
L 338.922161 51.092402 
L 342.898812 54.156591 
L 346.875463 50.171192 
L 350.852115 52.318157 
L 354.828766 56.516741 
L 358.805417 50.828544 
L 362.782069 40.636464 
L 366.75872 57.073658 
L 370.735371 42.658319 
L 374.712023 57.604922 
L 378.688674 55.582279 
L 382.665325 61.744161 
L 386.641977 47.221532 
L 390.618628 61.650421 
L 394.59528 45.726896 
L 398.571931 60.055805 
L 402.548582 43.417989 
L 406.525234 56.034215 
L 410.501885 49.853172 
L 414.478536 41.732561 
L 418.455188 39.244231 
L 422.431839 60.167142 
L 426.40849 53.025838 
L 430.385142 46.482306 
L 434.361793 36.309183 
L 438.338444 56.495865 
L 442.315096 58.939118 
" clip-path="url(#p13952a9240)" style="fill: none; stroke: #0000ff; stroke-opacity: 0.15; stroke-width: 1.5; stroke-linecap: square"/>
   </g>
   <g id="line2d_14">
    <path d="M 442.315096 53.582199 
L 438.378211 46.975403 
L 434.441326 42.502563 
L 430.504441 45.270712 
L 426.567556 51.524063 
L 422.630672 54.710502 
L 418.693787 42.262923 
L 414.756902 44.79483 
L 410.820017 50.742719 
L 406.883132 50.709896 
L 402.946247 44.085674 
L 399.009363 48.992994 
L 395.072478 46.759281 
L 391.135593 55.056424 
L 387.198708 49.792272 
L 383.261823 55.443659 
L 379.324938 51.395253 
L 375.388054 53.999605 
L 371.451169 48.801374 
L 367.514284 51.470857 
L 363.577399 47.909538 
L 359.640514 47.664141 
L 355.703629 55.799173 
L 351.766744 55.677668 
L 347.82986 56.261201 
L 343.892975 57.265988 
L 339.95609 54.192813 
L 336.019205 52.401323 
L 332.08232 54.407806 
L 328.145435 55.580464 
L 324.208551 55.941672 
L 320.271666 52.24138 
L 316.334781 53.394382 
L 312.397896 56.224999 
L 308.461011 58.252292 
L 304.524126 55.752556 
L 300.587242 56.856973 
L 296.650357 62.539489 
L 292.713472 62.670126 
L 288.776587 60.06455 
L 284.839702 59.456999 
L 280.902817 63.039645 
L 276.965932 61.968022 
L 273.029048 60.620222 
L 269.092163 62.519763 
L 265.155278 62.360876 
L 261.218393 63.583602 
L 257.281508 68.308814 
L 253.344623 68.29197 
L 249.407739 67.05536 
L 245.470854 68.336433 
L 241.533969 66.655493 
L 237.597084 69.75377 
L 233.660199 70.972181 
L 229.723314 68.416068 
L 225.78643 72.379347 
L 221.849545 73.23716 
L 217.91266 73.15317 
L 213.975775 75.445642 
L 210.03889 78.603365 
L 206.102005 78.353548 
L 202.165121 77.091585 
L 198.228236 83.406559 
L 194.291351 82.961609 
L 190.354466 80.24516 
L 186.417581 81.482832 
L 182.480696 84.696987 
L 178.543811 85.330299 
L 174.606927 89.897387 
L 170.670042 93.137727 
L 166.733157 96.549896 
L 162.796272 93.302637 
L 158.859387 92.833141 
L 154.922502 100.701974 
L 150.985618 102.317911 
L 147.048733 100.432559 
L 143.111848 104.915299 
L 139.174963 111.232333 
L 135.238078 110.352027 
L 131.301193 111.814029 
L 127.364309 113.603783 
L 123.427424 119.221326 
L 119.490539 124.210573 
L 115.553654 127.381838 
L 111.616769 132.302185 
L 107.679884 133.314067 
L 103.742999 134.810424 
L 99.806115 146.05972 
L 95.86923 149.158885 
L 91.932345 156.523985 
L 87.99546 161.687215 
L 84.058575 164.177743 
L 80.12169 172.936382 
L 76.184806 185.792676 
L 72.247921 192.984333 
L 68.311036 200.051151 
L 64.374151 222.08293 
L 60.437266 231.216176 
L 56.500381 247.794219 
L 52.563497 260.978168 
L 48.626612 288.498267 
" clip-path="url(#p13952a9240)" style="fill: none; stroke: #0000ff; stroke-width: 1.5; stroke-linecap: square"/>
   </g>
   <g id="line2d_15">
    <path d="M 48.626612 316.130337 
L 52.603263 291.62284 
L 56.579914 270.885727 
L 60.556566 253.111059 
L 64.533217 237.706346 
L 68.509868 224.227223 
L 72.48652 212.333879 
L 76.463171 201.762017 
L 80.439823 192.302983 
L 84.416474 183.789853 
L 88.393125 176.087497 
L 92.369777 169.085354 
L 96.346428 162.692094 
L 100.323079 156.831606 
L 104.299731 151.439957 
L 108.276382 146.463049 
L 112.253033 141.854802 
L 116.229685 137.575715 
L 120.206336 133.591738 
L 124.182987 129.873359 
L 128.159639 126.394876 
L 132.13629 123.133797 
L 136.112942 120.07036 
L 140.089593 117.187125 
L 144.066244 114.468647 
L 148.042896 111.901194 
L 152.019547 109.472524 
L 155.996198 107.171677 
L 159.97285 104.988823 
L 163.949501 102.915112 
L 167.926152 100.942558 
L 171.902804 99.063934 
L 175.879455 97.272688 
L 179.856106 95.562863 
L 183.832758 93.92903 
L 187.809409 92.366233 
L 191.78606 90.869938 
L 195.762712 89.435989 
L 199.739363 88.060568 
L 203.716015 86.740164 
L 207.692666 85.471541 
L 211.669317 84.251711 
L 215.645969 83.077912 
L 219.62262 81.947587 
L 223.599271 80.858365 
L 227.575923 79.808043 
L 231.552574 78.794576 
L 235.529225 77.816055 
L 239.505877 76.870704 
L 243.482528 75.956865 
L 247.459179 75.072988 
L 251.435831 74.217624 
L 255.412482 73.389413 
L 259.389133 72.587084 
L 263.365785 71.809443 
L 267.342436 71.055366 
L 271.319088 70.323799 
L 275.295739 69.613748 
L 279.27239 68.924279 
L 283.249042 68.254509 
L 287.225693 67.603606 
L 291.202344 66.970783 
L 295.178996 66.355298 
L 299.155647 65.756448 
L 303.132298 65.173567 
L 307.10895 64.606025 
L 311.085601 64.053224 
L 315.062252 63.514598 
L 319.038904 62.989607 
L 323.015555 62.477742 
L 326.992207 61.978515 
L 330.968858 61.491465 
L 334.945509 61.01615 
L 338.922161 60.552153 
L 342.898812 60.099073 
L 346.875463 59.65653 
L 350.852115 59.22416 
L 354.828766 58.801617 
L 358.805417 58.38857 
L 362.782069 57.984701 
L 366.75872 57.589708 
L 370.735371 57.203302 
L 374.712023 56.825206 
L 378.688674 56.455155 
L 382.665325 56.092894 
L 386.641977 55.73818 
L 390.618628 55.39078 
L 394.59528 55.05047 
L 398.571931 54.717035 
L 402.548582 54.390268 
L 406.525234 54.069972 
L 410.501885 53.755956 
L 414.478536 53.448038 
L 418.455188 53.146041 
L 422.431839 52.849797 
L 426.40849 52.559142 
L 430.385142 52.27392 
L 434.361793 51.993979 
L 438.338444 51.719176 
L 442.315096 51.449368 
" clip-path="url(#p13952a9240)" style="fill: none; stroke: #008000; stroke-opacity: 0.15; stroke-width: 1.5; stroke-linecap: square"/>
   </g>
   <g id="line2d_16">
    <path d="M 48.626612 284.64065 
L 52.603263 260.679809 
L 56.579914 253.962746 
L 60.556566 233.42845 
L 64.533217 221.110164 
L 68.509868 206.374447 
L 72.48652 204.932705 
L 76.463171 193.994695 
L 80.439823 168.902761 
L 84.416474 175.096257 
L 88.393125 155.216965 
L 92.369777 160.763757 
L 96.346428 154.008844 
L 100.323079 131.34758 
L 104.299731 125.767962 
L 108.276382 135.798358 
L 112.253033 122.11337 
L 116.229685 137.525903 
L 120.206336 109.943445 
L 124.182987 111.709482 
L 128.159639 109.014159 
L 132.13629 103.327299 
L 136.112942 114.538673 
L 140.089593 92.499037 
L 144.066244 105.804149 
L 148.042896 113.735192 
L 152.019547 94.71841 
L 155.996198 100.962776 
L 159.97285 85.2609 
L 163.949501 102.521152 
L 167.926152 91.261227 
L 171.902804 87.637531 
L 175.879455 78.849571 
L 179.856106 80.194172 
L 183.832758 78.84753 
L 187.809409 95.726338 
L 191.78606 94.835257 
L 195.762712 86.618019 
L 199.739363 87.747096 
L 203.716015 71.727242 
L 207.692666 84.538898 
L 211.669317 67.028992 
L 215.645969 82.541271 
L 219.62262 79.263661 
L 223.599271 83.912483 
L 227.575923 66.679049 
L 231.552574 83.370451 
L 235.529225 79.895682 
L 239.505877 73.144346 
L 243.482528 69.58225 
L 247.459179 60.481724 
L 251.435831 64.537028 
L 255.412482 66.244675 
L 259.389133 56.528755 
L 263.365785 75.945702 
L 267.342436 75.610102 
L 271.319088 71.023264 
L 275.295739 74.807942 
L 279.27239 59.584478 
L 283.249042 49.787355 
L 287.225693 51.296031 
L 291.202344 52.975887 
L 295.178996 54.771538 
L 299.155647 55.102067 
L 303.132298 69.638434 
L 307.10895 71.166472 
L 311.085601 64.061126 
L 315.062252 52.481467 
L 319.038904 61.023427 
L 323.015555 69.353122 
L 326.992207 56.888124 
L 330.968858 50.97779 
L 334.945509 65.227034 
L 338.922161 43.694596 
L 342.898812 65.825707 
L 346.875463 48.323603 
L 350.852115 56.14222 
L 354.828766 52.375753 
L 358.805417 52.374855 
L 362.782069 64.575757 
L 366.75872 60.42749 
L 370.735371 46.700044 
L 374.712023 46.268713 
L 378.688674 59.164434 
L 382.665325 50.440311 
L 386.641977 40.2954 
L 390.618628 54.132127 
L 394.59528 45.721994 
L 398.571931 57.429741 
L 402.548582 41.604939 
L 406.525234 42.46542 
L 410.501885 40.497501 
L 414.478536 48.943398 
L 418.455188 57.093148 
L 422.431839 42.522141 
L 426.40849 39.804079 
L 430.385142 58.963279 
L 434.361793 51.567783 
L 438.338444 51.371902 
L 442.315096 48.867393 
" clip-path="url(#p13952a9240)" style="fill: none; stroke: #008000; stroke-opacity: 0.15; stroke-width: 1.5; stroke-linecap: square"/>
   </g>
   <g id="line2d_17">
    <path d="M 48.626612 296.180346 
L 52.603263 276.502992 
L 56.579914 256.87135 
L 60.556566 238.631233 
L 64.533217 206.368556 
L 68.509868 214.425538 
L 72.48652 192.135993 
L 76.463171 191.753404 
L 80.439823 166.907526 
L 84.416474 165.093222 
L 88.393125 146.633288 
L 92.369777 148.713668 
L 96.346428 143.038105 
L 100.323079 142.772462 
L 104.299731 150.310224 
L 108.276382 140.392126 
L 112.253033 128.050512 
L 116.229685 130.975093 
L 120.206336 120.5007 
L 124.182987 106.749524 
L 128.159639 105.291246 
L 132.13629 120.23943 
L 136.112942 103.575111 
L 140.089593 104.743826 
L 144.066244 97.765883 
L 148.042896 95.35663 
L 152.019547 93.324344 
L 155.996198 90.632437 
L 159.97285 93.820462 
L 163.949501 84.068636 
L 167.926152 98.911686 
L 171.902804 101.642358 
L 175.879455 75.711728 
L 179.856106 85.065711 
L 183.832758 93.0771 
L 187.809409 89.425979 
L 191.78606 84.003249 
L 195.762712 78.520484 
L 199.739363 71.136006 
L 203.716015 66.630643 
L 207.692666 88.682778 
L 211.669317 72.147843 
L 215.645969 65.605841 
L 219.62262 73.97143 
L 223.599271 71.401315 
L 227.575923 62.331665 
L 231.552574 63.80901 
L 235.529225 78.75716 
L 239.505877 69.990638 
L 243.482528 73.488562 
L 247.459179 80.293161 
L 251.435831 66.610399 
L 255.412482 59.329159 
L 259.389133 59.619072 
L 263.365785 51.954985 
L 267.342436 67.229542 
L 271.319088 66.231666 
L 275.295739 59.777036 
L 279.27239 74.285765 
L 283.249042 53.938815 
L 287.225693 62.510204 
L 291.202344 62.640107 
L 295.178996 47.438394 
L 299.155647 68.297425 
L 303.132298 45.652219 
L 307.10895 48.243697 
L 311.085601 52.407857 
L 315.062252 68.450556 
L 319.038904 61.599864 
L 323.015555 49.031374 
L 326.992207 52.229594 
L 330.968858 44.643897 
L 334.945509 65.345869 
L 338.922161 44.029691 
L 342.898812 52.368886 
L 346.875463 50.408735 
L 350.852115 56.546154 
L 354.828766 49.305864 
L 358.805417 46.874263 
L 362.782069 50.439567 
L 366.75872 64.105038 
L 370.735371 39.90575 
L 374.712023 51.861314 
L 378.688674 62.73628 
L 382.665325 53.748649 
L 386.641977 52.876766 
L 390.618628 50.287075 
L 394.59528 39.834646 
L 398.571931 47.21875 
L 402.548582 52.495159 
L 406.525234 47.989338 
L 410.501885 59.486233 
L 414.478536 52.713799 
L 418.455188 47.41848 
L 422.431839 57.987194 
L 426.40849 51.206016 
L 430.385142 37.292574 
L 434.361793 47.631651 
L 438.338444 47.686833 
L 442.315096 49.758269 
" clip-path="url(#p13952a9240)" style="fill: none; stroke: #008000; stroke-opacity: 0.15; stroke-width: 1.5; stroke-linecap: square"/>
   </g>
   <g id="line2d_18">
    <path d="M 442.315096 50.02501 
L 438.378211 50.25696 
L 434.441326 50.395034 
L 430.504441 49.53656 
L 426.567556 47.922552 
L 422.630672 50.956546 
L 418.693787 52.466586 
L 414.756902 51.761302 
L 410.820017 51.282978 
L 406.883132 48.451359 
L 402.946247 49.364601 
L 399.009363 52.723086 
L 395.072478 47.619373 
L 391.135593 52.437869 
L 387.198708 50.145432 
L 383.261823 52.858709 
L 379.324938 58.488009 
L 375.388054 52.977781 
L 371.451169 48.605134 
L 367.514284 58.280913 
L 363.577399 58.274822 
L 359.640514 53.62126 
L 355.703629 53.285738 
L 351.766744 56.427932 
L 347.82986 53.878183 
L 343.892975 57.772489 
L 339.95609 52.026973 
L 336.019205 59.964883 
L 332.08232 55.588802 
L 328.145435 55.68038 
L 324.208551 59.310812 
L 320.271666 61.380065 
L 316.334781 61.60661 
L 312.397896 60.605755 
L 308.461011 60.942746 
L 304.524126 60.569137 
L 300.587242 62.008973 
L 296.650357 58.727931 
L 292.713472 59.086196 
L 288.776587 60.622949 
L 284.839702 58.584115 
L 280.902817 63.386949 
L 276.965932 67.869653 
L 273.029048 68.708442 
L 269.092163 70.371949 
L 265.155278 68.697775 
L 261.218393 64.594504 
L 257.281508 64.718643 
L 253.344623 67.430728 
L 249.407739 70.237097 
L 245.470854 72.479259 
L 241.533969 73.168968 
L 237.597084 75.969343 
L 233.660199 77.178771 
L 229.723314 72.694203 
L 225.78643 73.709263 
L 221.849545 78.57893 
L 217.91266 77.826962 
L 213.975775 75.983501 
L 210.03889 79.295687 
L 206.102005 81.751716 
L 202.165121 77.872614 
L 198.228236 83.281127 
L 194.291351 86.724685 
L 190.354466 90.840027 
L 186.417581 91.14528 
L 182.480696 88.047716 
L 178.543811 85.952152 
L 174.606927 87.839045 
L 170.670042 96.401011 
L 166.733157 96.877433 
L 162.796272 95.976278 
L 158.859387 96.061754 
L 154.922502 99.476318 
L 150.985618 101.206496 
L 147.048733 106.751477 
L 143.111848 105.724197 
L 139.174963 106.631148 
L 135.238078 113.352583 
L 131.301193 115.146825 
L 127.364309 114.075566 
L 123.427424 117.105344 
L 119.490539 123.867744 
L 115.553654 134.562282 
L 111.616769 132.306753 
L 107.679884 141.127742 
L 103.742999 142.666278 
L 99.806115 144.898003 
L 95.86923 153.999297 
L 91.932345 159.498009 
L 87.99546 160.847303 
L 84.058575 174.783795 
L 80.12169 177.621672 
L 76.184806 196.34753 
L 72.247921 203.846685 
L 68.311036 215.345033 
L 64.374151 222.528164 
L 60.437266 242.289071 
L 56.500381 260.88718 
L 52.563497 276.4957 
L 48.626612 298.983778 
" clip-path="url(#p13952a9240)" style="fill: none; stroke: #008000; stroke-width: 1.5; stroke-linecap: square"/>
   </g>
   <g id="patch_3">
    <path d="M 28.942187 330.121395 
L 28.942187 22.318125 
" style="fill: none; stroke: #000000; stroke-width: 0.8; stroke-linejoin: miter; stroke-linecap: square"/>
   </g>
   <g id="patch_4">
    <path d="M 461.99952 330.121395 
L 461.99952 22.318125 
" style="fill: none; stroke: #000000; stroke-width: 0.8; stroke-linejoin: miter; stroke-linecap: square"/>
   </g>
   <g id="patch_5">
    <path d="M 28.942187 330.121395 
L 461.99952 330.121395 
" style="fill: none; stroke: #000000; stroke-width: 0.8; stroke-linejoin: miter; stroke-linecap: square"/>
   </g>
   <g id="patch_6">
    <path d="M 28.942187 22.318125 
L 461.99952 22.318125 
" style="fill: none; stroke: #000000; stroke-width: 0.8; stroke-linejoin: miter; stroke-linecap: square"/>
   </g>
   <g id="text_11">
    <!-- Visualization of similar lines plotted together -->
    <g transform="translate(111.001479 16.318125) scale(0.12 -0.12)">
     <defs>
      <path id="DejaVuSans-56" d="M 1831 0 
L 50 4666 
L 709 4666 
L 2188 738 
L 3669 4666 
L 4325 4666 
L 2547 0 
L 1831 0 
z
" transform="scale(0.015625)"/>
      <path id="DejaVuSans-69" d="M 603 3500 
L 1178 3500 
L 1178 0 
L 603 0 
L 603 3500 
z
M 603 4863 
L 1178 4863 
L 1178 4134 
L 603 4134 
L 603 4863 
z
" transform="scale(0.015625)"/>
      <path id="DejaVuSans-73" d="M 2834 3397 
L 2834 2853 
Q 2591 2978 2328 3040 
Q 2066 3103 1784 3103 
Q 1356 3103 1142 2972 
Q 928 2841 928 2578 
Q 928 2378 1081 2264 
Q 1234 2150 1697 2047 
L 1894 2003 
Q 2506 1872 2764 1633 
Q 3022 1394 3022 966 
Q 3022 478 2636 193 
Q 2250 -91 1575 -91 
Q 1294 -91 989 -36 
Q 684 19 347 128 
L 347 722 
Q 666 556 975 473 
Q 1284 391 1588 391 
Q 1994 391 2212 530 
Q 2431 669 2431 922 
Q 2431 1156 2273 1281 
Q 2116 1406 1581 1522 
L 1381 1569 
Q 847 1681 609 1914 
Q 372 2147 372 2553 
Q 372 3047 722 3315 
Q 1072 3584 1716 3584 
Q 2034 3584 2315 3537 
Q 2597 3491 2834 3397 
z
" transform="scale(0.015625)"/>
      <path id="DejaVuSans-75" d="M 544 1381 
L 544 3500 
L 1119 3500 
L 1119 1403 
Q 1119 906 1312 657 
Q 1506 409 1894 409 
Q 2359 409 2629 706 
Q 2900 1003 2900 1516 
L 2900 3500 
L 3475 3500 
L 3475 0 
L 2900 0 
L 2900 538 
Q 2691 219 2414 64 
Q 2138 -91 1772 -91 
Q 1169 -91 856 284 
Q 544 659 544 1381 
z
M 1991 3584 
L 1991 3584 
z
" transform="scale(0.015625)"/>
      <path id="DejaVuSans-61" d="M 2194 1759 
Q 1497 1759 1228 1600 
Q 959 1441 959 1056 
Q 959 750 1161 570 
Q 1363 391 1709 391 
Q 2188 391 2477 730 
Q 2766 1069 2766 1631 
L 2766 1759 
L 2194 1759 
z
M 3341 1997 
L 3341 0 
L 2766 0 
L 2766 531 
Q 2569 213 2275 61 
Q 1981 -91 1556 -91 
Q 1019 -91 701 211 
Q 384 513 384 1019 
Q 384 1609 779 1909 
Q 1175 2209 1959 2209 
L 2766 2209 
L 2766 2266 
Q 2766 2663 2505 2880 
Q 2244 3097 1772 3097 
Q 1472 3097 1187 3025 
Q 903 2953 641 2809 
L 641 3341 
Q 956 3463 1253 3523 
Q 1550 3584 1831 3584 
Q 2591 3584 2966 3190 
Q 3341 2797 3341 1997 
z
" transform="scale(0.015625)"/>
      <path id="DejaVuSans-6c" d="M 603 4863 
L 1178 4863 
L 1178 0 
L 603 0 
L 603 4863 
z
" transform="scale(0.015625)"/>
      <path id="DejaVuSans-7a" d="M 353 3500 
L 3084 3500 
L 3084 2975 
L 922 459 
L 3084 459 
L 3084 0 
L 275 0 
L 275 525 
L 2438 3041 
L 353 3041 
L 353 3500 
z
" transform="scale(0.015625)"/>
      <path id="DejaVuSans-74" d="M 1172 4494 
L 1172 3500 
L 2356 3500 
L 2356 3053 
L 1172 3053 
L 1172 1153 
Q 1172 725 1289 603 
Q 1406 481 1766 481 
L 2356 481 
L 2356 0 
L 1766 0 
Q 1100 0 847 248 
Q 594 497 594 1153 
L 594 3053 
L 172 3053 
L 172 3500 
L 594 3500 
L 594 4494 
L 1172 4494 
z
" transform="scale(0.015625)"/>
      <path id="DejaVuSans-6f" d="M 1959 3097 
Q 1497 3097 1228 2736 
Q 959 2375 959 1747 
Q 959 1119 1226 758 
Q 1494 397 1959 397 
Q 2419 397 2687 759 
Q 2956 1122 2956 1747 
Q 2956 2369 2687 2733 
Q 2419 3097 1959 3097 
z
M 1959 3584 
Q 2709 3584 3137 3096 
Q 3566 2609 3566 1747 
Q 3566 888 3137 398 
Q 2709 -91 1959 -91 
Q 1206 -91 779 398 
Q 353 888 353 1747 
Q 353 2609 779 3096 
Q 1206 3584 1959 3584 
z
" transform="scale(0.015625)"/>
      <path id="DejaVuSans-6e" d="M 3513 2113 
L 3513 0 
L 2938 0 
L 2938 2094 
Q 2938 2591 2744 2837 
Q 2550 3084 2163 3084 
Q 1697 3084 1428 2787 
Q 1159 2491 1159 1978 
L 1159 0 
L 581 0 
L 581 3500 
L 1159 3500 
L 1159 2956 
Q 1366 3272 1645 3428 
Q 1925 3584 2291 3584 
Q 2894 3584 3203 3211 
Q 3513 2838 3513 2113 
z
" transform="scale(0.015625)"/>
      <path id="DejaVuSans-20" transform="scale(0.015625)"/>
      <path id="DejaVuSans-66" d="M 2375 4863 
L 2375 4384 
L 1825 4384 
Q 1516 4384 1395 4259 
Q 1275 4134 1275 3809 
L 1275 3500 
L 2222 3500 
L 2222 3053 
L 1275 3053 
L 1275 0 
L 697 0 
L 697 3053 
L 147 3053 
L 147 3500 
L 697 3500 
L 697 3744 
Q 697 4328 969 4595 
Q 1241 4863 1831 4863 
L 2375 4863 
z
" transform="scale(0.015625)"/>
      <path id="DejaVuSans-6d" d="M 3328 2828 
Q 3544 3216 3844 3400 
Q 4144 3584 4550 3584 
Q 5097 3584 5394 3201 
Q 5691 2819 5691 2113 
L 5691 0 
L 5113 0 
L 5113 2094 
Q 5113 2597 4934 2840 
Q 4756 3084 4391 3084 
Q 3944 3084 3684 2787 
Q 3425 2491 3425 1978 
L 3425 0 
L 2847 0 
L 2847 2094 
Q 2847 2600 2669 2842 
Q 2491 3084 2119 3084 
Q 1678 3084 1418 2786 
Q 1159 2488 1159 1978 
L 1159 0 
L 581 0 
L 581 3500 
L 1159 3500 
L 1159 2956 
Q 1356 3278 1631 3431 
Q 1906 3584 2284 3584 
Q 2666 3584 2933 3390 
Q 3200 3197 3328 2828 
z
" transform="scale(0.015625)"/>
      <path id="DejaVuSans-72" d="M 2631 2963 
Q 2534 3019 2420 3045 
Q 2306 3072 2169 3072 
Q 1681 3072 1420 2755 
Q 1159 2438 1159 1844 
L 1159 0 
L 581 0 
L 581 3500 
L 1159 3500 
L 1159 2956 
Q 1341 3275 1631 3429 
Q 1922 3584 2338 3584 
Q 2397 3584 2469 3576 
Q 2541 3569 2628 3553 
L 2631 2963 
z
" transform="scale(0.015625)"/>
      <path id="DejaVuSans-65" d="M 3597 1894 
L 3597 1613 
L 953 1613 
Q 991 1019 1311 708 
Q 1631 397 2203 397 
Q 2534 397 2845 478 
Q 3156 559 3463 722 
L 3463 178 
Q 3153 47 2828 -22 
Q 2503 -91 2169 -91 
Q 1331 -91 842 396 
Q 353 884 353 1716 
Q 353 2575 817 3079 
Q 1281 3584 2069 3584 
Q 2775 3584 3186 3129 
Q 3597 2675 3597 1894 
z
M 3022 2063 
Q 3016 2534 2758 2815 
Q 2500 3097 2075 3097 
Q 1594 3097 1305 2825 
Q 1016 2553 972 2059 
L 3022 2063 
z
" transform="scale(0.015625)"/>
      <path id="DejaVuSans-70" d="M 1159 525 
L 1159 -1331 
L 581 -1331 
L 581 3500 
L 1159 3500 
L 1159 2969 
Q 1341 3281 1617 3432 
Q 1894 3584 2278 3584 
Q 2916 3584 3314 3078 
Q 3713 2572 3713 1747 
Q 3713 922 3314 415 
Q 2916 -91 2278 -91 
Q 1894 -91 1617 61 
Q 1341 213 1159 525 
z
M 3116 1747 
Q 3116 2381 2855 2742 
Q 2594 3103 2138 3103 
Q 1681 3103 1420 2742 
Q 1159 2381 1159 1747 
Q 1159 1113 1420 752 
Q 1681 391 2138 391 
Q 2594 391 2855 752 
Q 3116 1113 3116 1747 
z
" transform="scale(0.015625)"/>
      <path id="DejaVuSans-64" d="M 2906 2969 
L 2906 4863 
L 3481 4863 
L 3481 0 
L 2906 0 
L 2906 525 
Q 2725 213 2448 61 
Q 2172 -91 1784 -91 
Q 1150 -91 751 415 
Q 353 922 353 1747 
Q 353 2572 751 3078 
Q 1150 3584 1784 3584 
Q 2172 3584 2448 3432 
Q 2725 3281 2906 2969 
z
M 947 1747 
Q 947 1113 1208 752 
Q 1469 391 1925 391 
Q 2381 391 2643 752 
Q 2906 1113 2906 1747 
Q 2906 2381 2643 2742 
Q 2381 3103 1925 3103 
Q 1469 3103 1208 2742 
Q 947 2381 947 1747 
z
" transform="scale(0.015625)"/>
      <path id="DejaVuSans-67" d="M 2906 1791 
Q 2906 2416 2648 2759 
Q 2391 3103 1925 3103 
Q 1463 3103 1205 2759 
Q 947 2416 947 1791 
Q 947 1169 1205 825 
Q 1463 481 1925 481 
Q 2391 481 2648 825 
Q 2906 1169 2906 1791 
z
M 3481 434 
Q 3481 -459 3084 -895 
Q 2688 -1331 1869 -1331 
Q 1566 -1331 1297 -1286 
Q 1028 -1241 775 -1147 
L 775 -588 
Q 1028 -725 1275 -790 
Q 1522 -856 1778 -856 
Q 2344 -856 2625 -561 
Q 2906 -266 2906 331 
L 2906 616 
Q 2728 306 2450 153 
Q 2172 0 1784 0 
Q 1141 0 747 490 
Q 353 981 353 1791 
Q 353 2603 747 3093 
Q 1141 3584 1784 3584 
Q 2172 3584 2450 3431 
Q 2728 3278 2906 2969 
L 2906 3500 
L 3481 3500 
L 3481 434 
z
" transform="scale(0.015625)"/>
      <path id="DejaVuSans-68" d="M 3513 2113 
L 3513 0 
L 2938 0 
L 2938 2094 
Q 2938 2591 2744 2837 
Q 2550 3084 2163 3084 
Q 1697 3084 1428 2787 
Q 1159 2491 1159 1978 
L 1159 0 
L 581 0 
L 581 4863 
L 1159 4863 
L 1159 2956 
Q 1366 3272 1645 3428 
Q 1925 3584 2291 3584 
Q 2894 3584 3203 3211 
Q 3513 2838 3513 2113 
z
" transform="scale(0.015625)"/>
     </defs>
     <use xlink:href="#DejaVuSans-56"/>
     <use xlink:href="#DejaVuSans-69" transform="translate(66.158203 0)"/>
     <use xlink:href="#DejaVuSans-73" transform="translate(93.941406 0)"/>
     <use xlink:href="#DejaVuSans-75" transform="translate(146.041016 0)"/>
     <use xlink:href="#DejaVuSans-61" transform="translate(209.419922 0)"/>
     <use xlink:href="#DejaVuSans-6c" transform="translate(270.699219 0)"/>
     <use xlink:href="#DejaVuSans-69" transform="translate(298.482422 0)"/>
     <use xlink:href="#DejaVuSans-7a" transform="translate(326.265625 0)"/>
     <use xlink:href="#DejaVuSans-61" transform="translate(378.755859 0)"/>
     <use xlink:href="#DejaVuSans-74" transform="translate(440.035156 0)"/>
     <use xlink:href="#DejaVuSans-69" transform="translate(479.244141 0)"/>
     <use xlink:href="#DejaVuSans-6f" transform="translate(507.027344 0)"/>
     <use xlink:href="#DejaVuSans-6e" transform="translate(568.208984 0)"/>
     <use xlink:href="#DejaVuSans-20" transform="translate(631.587891 0)"/>
     <use xlink:href="#DejaVuSans-6f" transform="translate(663.375 0)"/>
     <use xlink:href="#DejaVuSans-66" transform="translate(724.556641 0)"/>
     <use xlink:href="#DejaVuSans-20" transform="translate(759.761719 0)"/>
     <use xlink:href="#DejaVuSans-73" transform="translate(791.548828 0)"/>
     <use xlink:href="#DejaVuSans-69" transform="translate(843.648438 0)"/>
     <use xlink:href="#DejaVuSans-6d" transform="translate(871.431641 0)"/>
     <use xlink:href="#DejaVuSans-69" transform="translate(968.84375 0)"/>
     <use xlink:href="#DejaVuSans-6c" transform="translate(996.626953 0)"/>
     <use xlink:href="#DejaVuSans-61" transform="translate(1024.410156 0)"/>
     <use xlink:href="#DejaVuSans-72" transform="translate(1085.689453 0)"/>
     <use xlink:href="#DejaVuSans-20" transform="translate(1126.802734 0)"/>
     <use xlink:href="#DejaVuSans-6c" transform="translate(1158.589844 0)"/>
     <use xlink:href="#DejaVuSans-69" transform="translate(1186.373047 0)"/>
     <use xlink:href="#DejaVuSans-6e" transform="translate(1214.15625 0)"/>
     <use xlink:href="#DejaVuSans-65" transform="translate(1277.535156 0)"/>
     <use xlink:href="#DejaVuSans-73" transform="translate(1339.058594 0)"/>
     <use xlink:href="#DejaVuSans-20" transform="translate(1391.158203 0)"/>
     <use xlink:href="#DejaVuSans-70" transform="translate(1422.945312 0)"/>
     <use xlink:href="#DejaVuSans-6c" transform="translate(1486.421875 0)"/>
     <use xlink:href="#DejaVuSans-6f" transform="translate(1514.205078 0)"/>
     <use xlink:href="#DejaVuSans-74" transform="translate(1575.386719 0)"/>
     <use xlink:href="#DejaVuSans-74" transform="translate(1614.595703 0)"/>
     <use xlink:href="#DejaVuSans-65" transform="translate(1653.804688 0)"/>
     <use xlink:href="#DejaVuSans-64" transform="translate(1715.328125 0)"/>
     <use xlink:href="#DejaVuSans-20" transform="translate(1778.804688 0)"/>
     <use xlink:href="#DejaVuSans-74" transform="translate(1810.591797 0)"/>
     <use xlink:href="#DejaVuSans-6f" transform="translate(1849.800781 0)"/>
     <use xlink:href="#DejaVuSans-67" transform="translate(1910.982422 0)"/>
     <use xlink:href="#DejaVuSans-65" transform="translate(1974.458984 0)"/>
     <use xlink:href="#DejaVuSans-74" transform="translate(2035.982422 0)"/>
     <use xlink:href="#DejaVuSans-68" transform="translate(2075.191406 0)"/>
     <use xlink:href="#DejaVuSans-65" transform="translate(2138.570312 0)"/>
     <use xlink:href="#DejaVuSans-72" transform="translate(2200.09375 0)"/>
    </g>
   </g>
   <g id="legend_1">
    <g id="patch_7">
     <path d="M 35.942188 59.674375 
L 104.001563 59.674375 
Q 106.001563 59.674375 106.001563 57.674375 
L 106.001563 29.318125 
Q 106.001563 27.318125 104.001563 27.318125 
L 35.942188 27.318125 
Q 33.942188 27.318125 33.942188 29.318125 
L 33.942188 57.674375 
Q 33.942188 59.674375 35.942188 59.674375 
z
" style="fill: #ffffff; opacity: 0.8; stroke: #cccccc; stroke-linejoin: miter"/>
    </g>
    <g id="line2d_19">
     <path d="M 37.942188 35.416562 
L 47.942188 35.416562 
L 57.942188 35.416562 
" style="fill: none; stroke: #0000ff; stroke-width: 1.5; stroke-linecap: square"/>
    </g>
    <g id="text_12">
     <!-- Clinical -->
     <g transform="translate(65.942188 38.916562) scale(0.1 -0.1)">
      <defs>
       <path id="DejaVuSans-43" d="M 4122 4306 
L 4122 3641 
Q 3803 3938 3442 4084 
Q 3081 4231 2675 4231 
Q 1875 4231 1450 3742 
Q 1025 3253 1025 2328 
Q 1025 1406 1450 917 
Q 1875 428 2675 428 
Q 3081 428 3442 575 
Q 3803 722 4122 1019 
L 4122 359 
Q 3791 134 3420 21 
Q 3050 -91 2638 -91 
Q 1578 -91 968 557 
Q 359 1206 359 2328 
Q 359 3453 968 4101 
Q 1578 4750 2638 4750 
Q 3056 4750 3426 4639 
Q 3797 4528 4122 4306 
z
" transform="scale(0.015625)"/>
       <path id="DejaVuSans-63" d="M 3122 3366 
L 3122 2828 
Q 2878 2963 2633 3030 
Q 2388 3097 2138 3097 
Q 1578 3097 1268 2742 
Q 959 2388 959 1747 
Q 959 1106 1268 751 
Q 1578 397 2138 397 
Q 2388 397 2633 464 
Q 2878 531 3122 666 
L 3122 134 
Q 2881 22 2623 -34 
Q 2366 -91 2075 -91 
Q 1284 -91 818 406 
Q 353 903 353 1747 
Q 353 2603 823 3093 
Q 1294 3584 2113 3584 
Q 2378 3584 2631 3529 
Q 2884 3475 3122 3366 
z
" transform="scale(0.015625)"/>
      </defs>
      <use xlink:href="#DejaVuSans-43"/>
      <use xlink:href="#DejaVuSans-6c" transform="translate(69.824219 0)"/>
      <use xlink:href="#DejaVuSans-69" transform="translate(97.607422 0)"/>
      <use xlink:href="#DejaVuSans-6e" transform="translate(125.390625 0)"/>
      <use xlink:href="#DejaVuSans-69" transform="translate(188.769531 0)"/>
      <use xlink:href="#DejaVuSans-63" transform="translate(216.552734 0)"/>
      <use xlink:href="#DejaVuSans-61" transform="translate(271.533203 0)"/>
      <use xlink:href="#DejaVuSans-6c" transform="translate(332.8125 0)"/>
     </g>
    </g>
    <g id="line2d_20">
     <path d="M 37.942188 50.094687 
L 47.942188 50.094687 
L 57.942188 50.094687 
" style="fill: none; stroke: #008000; stroke-width: 1.5; stroke-linecap: square"/>
    </g>
    <g id="text_13">
     <!-- HGI -->
     <g transform="translate(65.942188 53.594687) scale(0.1 -0.1)">
      <defs>
       <path id="DejaVuSans-48" d="M 628 4666 
L 1259 4666 
L 1259 2753 
L 3553 2753 
L 3553 4666 
L 4184 4666 
L 4184 0 
L 3553 0 
L 3553 2222 
L 1259 2222 
L 1259 0 
L 628 0 
L 628 4666 
z
" transform="scale(0.015625)"/>
       <path id="DejaVuSans-47" d="M 3809 666 
L 3809 1919 
L 2778 1919 
L 2778 2438 
L 4434 2438 
L 4434 434 
Q 4069 175 3628 42 
Q 3188 -91 2688 -91 
Q 1594 -91 976 548 
Q 359 1188 359 2328 
Q 359 3472 976 4111 
Q 1594 4750 2688 4750 
Q 3144 4750 3555 4637 
Q 3966 4525 4313 4306 
L 4313 3634 
Q 3963 3931 3569 4081 
Q 3175 4231 2741 4231 
Q 1884 4231 1454 3753 
Q 1025 3275 1025 2328 
Q 1025 1384 1454 906 
Q 1884 428 2741 428 
Q 3075 428 3337 486 
Q 3600 544 3809 666 
z
" transform="scale(0.015625)"/>
       <path id="DejaVuSans-49" d="M 628 4666 
L 1259 4666 
L 1259 0 
L 628 0 
L 628 4666 
z
" transform="scale(0.015625)"/>
      </defs>
      <use xlink:href="#DejaVuSans-48"/>
      <use xlink:href="#DejaVuSans-47" transform="translate(75.195312 0)"/>
      <use xlink:href="#DejaVuSans-49" transform="translate(152.685547 0)"/>
     </g>
    </g>
   </g>
  </g>
 </g>
 <defs>
  <clipPath id="p13952a9240">
   <rect x="28.942187" y="22.318125" width="433.057333" height="307.80327"/>
  </clipPath>
 </defs>
</svg>
