<?xml version="1.0" encoding="utf-8" standalone="no"?>
<!DOCTYPE svg PUBLIC "-//W3C//DTD SVG 1.1//EN"
  "http://www.w3.org/Graphics/SVG/1.1/DTD/svg11.dtd">
<svg xmlns:xlink="http://www.w3.org/1999/xlink" width="469.19952pt" height="353.99952pt" viewBox="0 0 469.19952 353.99952" xmlns="http://www.w3.org/2000/svg" version="1.1">
 <metadata>
  <rdf:RDF xmlns:dc="http://purl.org/dc/elements/1.1/" xmlns:cc="http://creativecommons.org/ns#" xmlns:rdf="http://www.w3.org/1999/02/22-rdf-syntax-ns#">
   <cc:Work>
    <dc:type rdf:resource="http://purl.org/dc/dcmitype/StillImage"/>
    <dc:date>2025-12-27T13:32:58.762867</dc:date>
    <dc:format>image/svg+xml</dc:format>
    <dc:creator>
     <cc:Agent>
      <dc:title>made/written by /home/con/Scripts/python/matplotlib/MatPlotLib-Simple/t/01.all.tests.t called using "plt" in /home/con/perl5/perlbrew/perls/perl-5.42.0/lib/site_perl/5.42.0/x86_64-linux/Matplotlib/Simple.pm</dc:title>
     </cc:Agent>
    </dc:creator>
   </cc:Work>
  </rdf:RDF>
 </metadata>
 <defs>
  <style type="text/css">*{stroke-linejoin: round; stroke-linecap: butt}</style>
 </defs>
 <g id="figure_1">
  <g id="patch_1">
   <path d="M 0 353.99952 
L 469.19952 353.99952 
L 469.19952 0 
L 0 0 
z
" style="fill: #ffffff"/>
  </g>
  <g id="axes_1">
   <g id="patch_2">
    <path d="M 28.942187 330.121395 
L 461.99952 330.121395 
L 461.99952 39.932355 
L 28.942187 39.932355 
z
" style="fill: #ffffff"/>
   </g>
   <g id="FillBetweenPolyCollection_1">
    <defs>
     <path id="m36f26aa888" d="M 442.315096 -287.544616 
L 442.315096 -278.2765 
L 438.378211 -277.762289 
L 434.441326 -281.30746 
L 430.504441 -279.824907 
L 426.567556 -290.200116 
L 422.630672 -286.541921 
L 418.693787 -288.899962 
L 414.756902 -285.887779 
L 410.820017 -278.427624 
L 406.883132 -277.244231 
L 402.946247 -276.761065 
L 399.009363 -286.796281 
L 395.072478 -287.42232 
L 391.135593 -285.795145 
L 387.198708 -281.439648 
L 383.261823 -284.385447 
L 379.324938 -285.825778 
L 375.388054 -283.762749 
L 371.451169 -273.93526 
L 367.514284 -281.273638 
L 363.577399 -276.068595 
L 359.640514 -278.469707 
L 355.703629 -276.896052 
L 351.766744 -276.690645 
L 347.82986 -279.812487 
L 343.892975 -273.451551 
L 339.95609 -278.003588 
L 336.019205 -278.117098 
L 332.08232 -278.001235 
L 328.145435 -269.587817 
L 324.208551 -269.661835 
L 320.271666 -279.557022 
L 316.334781 -275.399046 
L 312.397896 -276.204523 
L 308.461011 -276.897585 
L 304.524126 -271.598587 
L 300.587242 -263.511143 
L 296.650357 -272.99792 
L 292.713472 -275.017679 
L 288.776587 -273.438961 
L 284.839702 -272.379186 
L 280.902817 -266.664113 
L 276.965932 -269.688325 
L 273.029048 -272.853488 
L 269.092163 -268.795944 
L 265.155278 -265.068353 
L 261.218393 -268.807137 
L 257.281508 -265.414912 
L 253.344623 -264.600878 
L 249.407739 -267.724786 
L 245.470854 -267.748538 
L 241.533969 -265.89085 
L 237.597084 -260.41222 
L 233.660199 -254.3006 
L 229.723314 -255.536611 
L 225.78643 -254.336742 
L 221.849545 -260.871298 
L 217.91266 -259.582773 
L 213.975775 -255.608291 
L 210.03889 -252.059697 
L 206.102005 -251.585622 
L 202.165121 -254.472015 
L 198.228236 -253.683256 
L 194.291351 -251.013149 
L 190.354466 -247.610821 
L 186.417581 -240.872661 
L 182.480696 -242.048489 
L 178.543811 -243.510351 
L 174.606927 -243.398846 
L 170.670042 -245.007788 
L 166.733157 -234.363934 
L 162.796272 -230.97346 
L 158.859387 -234.549899 
L 154.922502 -235.146326 
L 150.985618 -232.127451 
L 147.048733 -228.410592 
L 143.111848 -225.660756 
L 139.174963 -222.798981 
L 135.238078 -216.472101 
L 131.301193 -219.499655 
L 127.364309 -213.733731 
L 123.427424 -215.429356 
L 119.490539 -208.044945 
L 115.553654 -201.955237 
L 111.616769 -205.181859 
L 107.679884 -186.820586 
L 103.742999 -187.034471 
L 99.806115 -184.146062 
L 95.86923 -176.630716 
L 91.932345 -176.58892 
L 87.99546 -169.539637 
L 84.058575 -160.439983 
L 80.12169 -149.418702 
L 76.184806 -141.001109 
L 72.247921 -137.808545 
L 68.311036 -116.525487 
L 64.374151 -103.525715 
L 60.437266 -95.47056 
L 56.500381 -80.252684 
L 52.563497 -58.638417 
L 48.626612 -37.411545 
L 48.626612 -46.21873 
L 48.626612 -46.21873 
L 52.563497 -66.766039 
L 56.500381 -83.067999 
L 60.437266 -103.25717 
L 64.374151 -123.42637 
L 68.311036 -133.614848 
L 72.247921 -146.566865 
L 76.184806 -157.200406 
L 80.12169 -160.667609 
L 84.058575 -163.475315 
L 87.99546 -171.07775 
L 91.932345 -182.690386 
L 95.86923 -182.910687 
L 99.806115 -190.699831 
L 103.742999 -193.466923 
L 107.679884 -197.132565 
L 111.616769 -213.780341 
L 115.553654 -215.324204 
L 119.490539 -214.682304 
L 123.427424 -220.458004 
L 127.364309 -217.516959 
L 131.301193 -220.79177 
L 135.238078 -225.064778 
L 139.174963 -228.524807 
L 143.111848 -232.607784 
L 147.048733 -235.129628 
L 150.985618 -235.832466 
L 154.922502 -238.563024 
L 158.859387 -240.264979 
L 162.796272 -238.53195 
L 166.733157 -245.746241 
L 170.670042 -254.320991 
L 174.606927 -248.805281 
L 178.543811 -246.749142 
L 182.480696 -247.451282 
L 186.417581 -253.544038 
L 190.354466 -252.633009 
L 194.291351 -257.041443 
L 198.228236 -254.042797 
L 202.165121 -255.226457 
L 206.102005 -261.522998 
L 210.03889 -266.344526 
L 213.975775 -264.857313 
L 217.91266 -266.593087 
L 221.849545 -265.013289 
L 225.78643 -261.108692 
L 229.723314 -261.940006 
L 233.660199 -263.17885 
L 237.597084 -264.899521 
L 241.533969 -273.874443 
L 245.470854 -274.865369 
L 249.407739 -271.862954 
L 253.344623 -270.122113 
L 257.281508 -270.196219 
L 261.218393 -269.898553 
L 265.155278 -269.276693 
L 269.092163 -271.089607 
L 273.029048 -280.283496 
L 276.965932 -276.60639 
L 280.902817 -274.063804 
L 284.839702 -273.660378 
L 288.776587 -280.45313 
L 292.713472 -280.194365 
L 296.650357 -276.890906 
L 300.587242 -273.660245 
L 304.524126 -275.744139 
L 308.461011 -282.001735 
L 312.397896 -277.233203 
L 316.334781 -284.554235 
L 320.271666 -286.850954 
L 324.208551 -278.248996 
L 328.145435 -277.599586 
L 332.08232 -280.22669 
L 336.019205 -283.418715 
L 339.95609 -283.63142 
L 343.892975 -280.052087 
L 347.82986 -282.816716 
L 351.766744 -282.964915 
L 355.703629 -284.539737 
L 359.640514 -288.896162 
L 363.577399 -288.896162 
L 367.514284 -285.112612 
L 371.451169 -281.997162 
L 375.388054 -288.896162 
L 379.324938 -288.896162 
L 383.261823 -288.896162 
L 387.198708 -284.711182 
L 391.135593 -288.896162 
L 395.072478 -288.896162 
L 399.009363 -288.896162 
L 402.946247 -288.896162 
L 406.883132 -288.379047 
L 410.820017 -286.872024 
L 414.756902 -288.896162 
L 418.693787 -288.896162 
L 422.630672 -288.896162 
L 426.567556 -288.896162 
L 430.504441 -288.896162 
L 434.441326 -288.896162 
L 438.378211 -288.896162 
L 442.315096 -287.544616 
z
" style="stroke: #ff0000; stroke-opacity: 0.3"/>
    </defs>
    <g clip-path="url(#p5912f64786)">
     <use xlink:href="#m36f26aa888" x="0" y="353.99952" style="fill: #ff0000; fill-opacity: 0.3; stroke: #ff0000; stroke-opacity: 0.3"/>
    </g>
   </g>
   <g id="matplotlib.axis_1">
    <g id="xtick_1">
     <g id="line2d_1">
      <defs>
       <path id="m37728e2fcf" d="M 0 0 
L 0 3.5 
" style="stroke: #000000; stroke-width: 0.8"/>
      </defs>
      <g>
       <use xlink:href="#m37728e2fcf" x="92.369777" y="330.121395" style="stroke: #000000; stroke-width: 0.8"/>
      </g>
     </g>
     <g id="text_1">
      <!-- 0.2 -->
      <g transform="translate(84.418214 344.719832) scale(0.1 -0.1)">
       <defs>
        <path id="DejaVuSans-30" d="M 2034 4250 
Q 1547 4250 1301 3770 
Q 1056 3291 1056 2328 
Q 1056 1369 1301 889 
Q 1547 409 2034 409 
Q 2525 409 2770 889 
Q 3016 1369 3016 2328 
Q 3016 3291 2770 3770 
Q 2525 4250 2034 4250 
z
M 2034 4750 
Q 2819 4750 3233 4129 
Q 3647 3509 3647 2328 
Q 3647 1150 3233 529 
Q 2819 -91 2034 -91 
Q 1250 -91 836 529 
Q 422 1150 422 2328 
Q 422 3509 836 4129 
Q 1250 4750 2034 4750 
z
" transform="scale(0.015625)"/>
        <path id="DejaVuSans-2e" d="M 684 794 
L 1344 794 
L 1344 0 
L 684 0 
L 684 794 
z
" transform="scale(0.015625)"/>
        <path id="DejaVuSans-32" d="M 1228 531 
L 3431 531 
L 3431 0 
L 469 0 
L 469 531 
Q 828 903 1448 1529 
Q 2069 2156 2228 2338 
Q 2531 2678 2651 2914 
Q 2772 3150 2772 3378 
Q 2772 3750 2511 3984 
Q 2250 4219 1831 4219 
Q 1534 4219 1204 4116 
Q 875 4013 500 3803 
L 500 4441 
Q 881 4594 1212 4672 
Q 1544 4750 1819 4750 
Q 2544 4750 2975 4387 
Q 3406 4025 3406 3419 
Q 3406 3131 3298 2873 
Q 3191 2616 2906 2266 
Q 2828 2175 2409 1742 
Q 1991 1309 1228 531 
z
" transform="scale(0.015625)"/>
       </defs>
       <use xlink:href="#DejaVuSans-30"/>
       <use xlink:href="#DejaVuSans-2e" transform="translate(63.623047 0)"/>
       <use xlink:href="#DejaVuSans-32" transform="translate(95.410156 0)"/>
      </g>
     </g>
    </g>
    <g id="xtick_2">
     <g id="line2d_2">
      <g>
       <use xlink:href="#m37728e2fcf" x="179.856106" y="330.121395" style="stroke: #000000; stroke-width: 0.8"/>
      </g>
     </g>
     <g id="text_2">
      <!-- 0.4 -->
      <g transform="translate(171.904544 344.719832) scale(0.1 -0.1)">
       <defs>
        <path id="DejaVuSans-34" d="M 2419 4116 
L 825 1625 
L 2419 1625 
L 2419 4116 
z
M 2253 4666 
L 3047 4666 
L 3047 1625 
L 3713 1625 
L 3713 1100 
L 3047 1100 
L 3047 0 
L 2419 0 
L 2419 1100 
L 313 1100 
L 313 1709 
L 2253 4666 
z
" transform="scale(0.015625)"/>
       </defs>
       <use xlink:href="#DejaVuSans-30"/>
       <use xlink:href="#DejaVuSans-2e" transform="translate(63.623047 0)"/>
       <use xlink:href="#DejaVuSans-34" transform="translate(95.410156 0)"/>
      </g>
     </g>
    </g>
    <g id="xtick_3">
     <g id="line2d_3">
      <g>
       <use xlink:href="#m37728e2fcf" x="267.342436" y="330.121395" style="stroke: #000000; stroke-width: 0.8"/>
      </g>
     </g>
     <g id="text_3">
      <!-- 0.6 -->
      <g transform="translate(259.390874 344.719832) scale(0.1 -0.1)">
       <defs>
        <path id="DejaVuSans-36" d="M 2113 2584 
Q 1688 2584 1439 2293 
Q 1191 2003 1191 1497 
Q 1191 994 1439 701 
Q 1688 409 2113 409 
Q 2538 409 2786 701 
Q 3034 994 3034 1497 
Q 3034 2003 2786 2293 
Q 2538 2584 2113 2584 
z
M 3366 4563 
L 3366 3988 
Q 3128 4100 2886 4159 
Q 2644 4219 2406 4219 
Q 1781 4219 1451 3797 
Q 1122 3375 1075 2522 
Q 1259 2794 1537 2939 
Q 1816 3084 2150 3084 
Q 2853 3084 3261 2657 
Q 3669 2231 3669 1497 
Q 3669 778 3244 343 
Q 2819 -91 2113 -91 
Q 1303 -91 875 529 
Q 447 1150 447 2328 
Q 447 3434 972 4092 
Q 1497 4750 2381 4750 
Q 2619 4750 2861 4703 
Q 3103 4656 3366 4563 
z
" transform="scale(0.015625)"/>
       </defs>
       <use xlink:href="#DejaVuSans-30"/>
       <use xlink:href="#DejaVuSans-2e" transform="translate(63.623047 0)"/>
       <use xlink:href="#DejaVuSans-36" transform="translate(95.410156 0)"/>
      </g>
     </g>
    </g>
    <g id="xtick_4">
     <g id="line2d_4">
      <g>
       <use xlink:href="#m37728e2fcf" x="354.828766" y="330.121395" style="stroke: #000000; stroke-width: 0.8"/>
      </g>
     </g>
     <g id="text_4">
      <!-- 0.8 -->
      <g transform="translate(346.877203 344.719832) scale(0.1 -0.1)">
       <defs>
        <path id="DejaVuSans-38" d="M 2034 2216 
Q 1584 2216 1326 1975 
Q 1069 1734 1069 1313 
Q 1069 891 1326 650 
Q 1584 409 2034 409 
Q 2484 409 2743 651 
Q 3003 894 3003 1313 
Q 3003 1734 2745 1975 
Q 2488 2216 2034 2216 
z
M 1403 2484 
Q 997 2584 770 2862 
Q 544 3141 544 3541 
Q 544 4100 942 4425 
Q 1341 4750 2034 4750 
Q 2731 4750 3128 4425 
Q 3525 4100 3525 3541 
Q 3525 3141 3298 2862 
Q 3072 2584 2669 2484 
Q 3125 2378 3379 2068 
Q 3634 1759 3634 1313 
Q 3634 634 3220 271 
Q 2806 -91 2034 -91 
Q 1263 -91 848 271 
Q 434 634 434 1313 
Q 434 1759 690 2068 
Q 947 2378 1403 2484 
z
M 1172 3481 
Q 1172 3119 1398 2916 
Q 1625 2713 2034 2713 
Q 2441 2713 2670 2916 
Q 2900 3119 2900 3481 
Q 2900 3844 2670 4047 
Q 2441 4250 2034 4250 
Q 1625 4250 1398 4047 
Q 1172 3844 1172 3481 
z
" transform="scale(0.015625)"/>
       </defs>
       <use xlink:href="#DejaVuSans-30"/>
       <use xlink:href="#DejaVuSans-2e" transform="translate(63.623047 0)"/>
       <use xlink:href="#DejaVuSans-38" transform="translate(95.410156 0)"/>
      </g>
     </g>
    </g>
    <g id="xtick_5">
     <g id="line2d_5">
      <g>
       <use xlink:href="#m37728e2fcf" x="442.315096" y="330.121395" style="stroke: #000000; stroke-width: 0.8"/>
      </g>
     </g>
     <g id="text_5">
      <!-- 1.0 -->
      <g transform="translate(434.363533 344.719832) scale(0.1 -0.1)">
       <defs>
        <path id="DejaVuSans-31" d="M 794 531 
L 1825 531 
L 1825 4091 
L 703 3866 
L 703 4441 
L 1819 4666 
L 2450 4666 
L 2450 531 
L 3481 531 
L 3481 0 
L 794 0 
L 794 531 
z
" transform="scale(0.015625)"/>
       </defs>
       <use xlink:href="#DejaVuSans-31"/>
       <use xlink:href="#DejaVuSans-2e" transform="translate(63.623047 0)"/>
       <use xlink:href="#DejaVuSans-30" transform="translate(95.410156 0)"/>
      </g>
     </g>
    </g>
   </g>
   <g id="matplotlib.axis_2">
    <g id="ytick_1">
     <g id="line2d_6">
      <defs>
       <path id="mf7d3d65f24" d="M 0 0 
L -3.5 0 
" style="stroke: #000000; stroke-width: 0.8"/>
      </defs>
      <g>
       <use xlink:href="#mf7d3d65f24" x="28.942187" y="313.302468" style="stroke: #000000; stroke-width: 0.8"/>
      </g>
     </g>
     <g id="text_6">
      <!-- −8 -->
      <g transform="translate(7.2 317.101686) scale(0.1 -0.1)">
       <defs>
        <path id="DejaVuSans-2212" d="M 678 2272 
L 4684 2272 
L 4684 1741 
L 678 1741 
L 678 2272 
z
" transform="scale(0.015625)"/>
       </defs>
       <use xlink:href="#DejaVuSans-2212"/>
       <use xlink:href="#DejaVuSans-38" transform="translate(83.789062 0)"/>
      </g>
     </g>
    </g>
    <g id="ytick_2">
     <g id="line2d_7">
      <g>
       <use xlink:href="#mf7d3d65f24" x="28.942187" y="258.14711" style="stroke: #000000; stroke-width: 0.8"/>
      </g>
     </g>
     <g id="text_7">
      <!-- −6 -->
      <g transform="translate(7.2 261.946329) scale(0.1 -0.1)">
       <use xlink:href="#DejaVuSans-2212"/>
       <use xlink:href="#DejaVuSans-36" transform="translate(83.789062 0)"/>
      </g>
     </g>
    </g>
    <g id="ytick_3">
     <g id="line2d_8">
      <g>
       <use xlink:href="#mf7d3d65f24" x="28.942187" y="202.991752" style="stroke: #000000; stroke-width: 0.8"/>
      </g>
     </g>
     <g id="text_8">
      <!-- −4 -->
      <g transform="translate(7.2 206.790971) scale(0.1 -0.1)">
       <use xlink:href="#DejaVuSans-2212"/>
       <use xlink:href="#DejaVuSans-34" transform="translate(83.789062 0)"/>
      </g>
     </g>
    </g>
    <g id="ytick_4">
     <g id="line2d_9">
      <g>
       <use xlink:href="#mf7d3d65f24" x="28.942187" y="147.836394" style="stroke: #000000; stroke-width: 0.8"/>
      </g>
     </g>
     <g id="text_9">
      <!-- −2 -->
      <g transform="translate(7.2 151.635613) scale(0.1 -0.1)">
       <use xlink:href="#DejaVuSans-2212"/>
       <use xlink:href="#DejaVuSans-32" transform="translate(83.789062 0)"/>
      </g>
     </g>
    </g>
    <g id="ytick_5">
     <g id="line2d_10">
      <g>
       <use xlink:href="#mf7d3d65f24" x="28.942187" y="92.681037" style="stroke: #000000; stroke-width: 0.8"/>
      </g>
     </g>
     <g id="text_10">
      <!-- 0 -->
      <g transform="translate(15.579687 96.480255) scale(0.1 -0.1)">
       <use xlink:href="#DejaVuSans-30"/>
      </g>
     </g>
    </g>
   </g>
   <g id="line2d_11">
    <path d="M 48.626612 313.302468 
L 52.603263 290.321069 
L 56.579914 270.875269 
L 60.556566 254.207442 
L 64.533217 239.761991 
L 68.509868 227.122221 
L 72.48652 215.969483 
L 76.463171 206.055939 
L 80.439823 197.185925 
L 84.416474 189.202913 
L 88.393125 181.980187 
L 92.369777 175.414073 
L 96.346428 169.418926 
L 100.323079 163.923374 
L 104.299731 158.867466 
L 108.276382 154.200474 
L 112.253033 149.879185 
L 116.229685 145.86656 
L 120.206336 142.130668 
L 124.182987 138.643835 
L 128.159639 135.381959 
L 132.13629 132.32395 
L 136.112942 129.451275 
L 140.089593 126.747581 
L 144.066244 124.198384 
L 148.042896 121.790809 
L 152.019547 119.513373 
L 155.996198 117.355802 
L 159.97285 115.308876 
L 163.949501 113.364296 
L 167.926152 111.514573 
L 171.902804 109.752933 
L 175.879455 108.07323 
L 179.856106 106.469876 
L 183.832758 104.937783 
L 187.809409 103.472302 
L 191.78606 102.069183 
L 195.762712 100.724526 
L 199.739363 99.434754 
L 203.716015 98.196572 
L 207.692666 97.006947 
L 211.669317 95.863077 
L 215.645969 94.762371 
L 219.62262 93.702432 
L 223.599271 92.681037 
L 227.575923 91.69612 
L 231.552574 90.745761 
L 235.529225 89.828173 
L 239.505877 88.94169 
L 243.482528 88.084757 
L 247.459179 87.255919 
L 251.435831 86.453819 
L 255.412482 85.677182 
L 259.389133 84.924814 
L 263.365785 84.195597 
L 267.342436 83.488477 
L 271.319088 82.802465 
L 275.295739 82.13663 
L 279.27239 81.490095 
L 283.249042 80.862031 
L 287.225693 80.25166 
L 291.202344 79.658244 
L 295.178996 79.081085 
L 299.155647 78.519526 
L 303.132298 77.972941 
L 307.10895 77.44074 
L 311.085601 76.922363 
L 315.062252 76.417277 
L 319.038904 75.924979 
L 323.015555 75.444987 
L 326.992207 74.976848 
L 330.968858 74.520126 
L 334.945509 74.07441 
L 338.922161 73.639306 
L 342.898812 73.21444 
L 346.875463 72.799454 
L 350.852115 72.394009 
L 354.828766 71.997777 
L 358.805417 71.610451 
L 362.782069 71.231731 
L 366.75872 70.861335 
L 370.735371 70.498991 
L 374.712023 70.144439 
L 378.688674 69.797431 
L 382.665325 69.457728 
L 386.641977 69.125103 
L 390.618628 68.799335 
L 394.59528 68.480216 
L 398.571931 68.167544 
L 402.548582 67.861126 
L 406.525234 67.560775 
L 410.501885 67.266313 
L 414.478536 66.977569 
L 418.455188 66.694378 
L 422.431839 66.416581 
L 426.40849 66.144025 
L 430.385142 65.876564 
L 434.361793 65.614056 
L 438.338444 65.356364 
L 442.315096 65.103358 
" clip-path="url(#p5912f64786)" style="fill: none; stroke: #ff0000; stroke-opacity: 0.15; stroke-width: 1.5; stroke-linecap: square"/>
   </g>
   <g id="line2d_12">
    <path d="M 48.626612 306.319697 
L 52.603263 286.5377 
L 56.579914 271.117217 
L 60.556566 249.173534 
L 64.533217 227.565413 
L 68.509868 240.583267 
L 72.48652 210.982695 
L 76.463171 213.972066 
L 80.439823 190.806562 
L 84.416474 193.013292 
L 88.393125 183.640857 
L 92.369777 176.040521 
L 96.346428 178.006759 
L 100.323079 170.172793 
L 104.299731 163.308583 
L 108.276382 164.394369 
L 112.253033 136.530509 
L 116.229685 136.666719 
L 120.206336 148.797834 
L 124.182987 132.601713 
L 128.159639 142.683461 
L 132.13629 132.30569 
L 136.112942 141.280036 
L 140.089593 120.678841 
L 144.066244 131.820736 
L 148.042896 113.440611 
L 152.019547 119.208652 
L 155.996198 118.545179 
L 159.97285 111.540493 
L 163.949501 126.783052 
L 167.926152 119.464901 
L 171.902804 96.72127 
L 175.879455 107.849111 
L 179.856106 112.476085 
L 183.832758 109.838611 
L 187.809409 95.971297 
L 191.78606 104.873031 
L 195.762712 90.499957 
L 199.739363 106.410218 
L 203.716015 94.538488 
L 207.692666 109.493848 
L 211.669317 97.93845 
L 215.645969 99.008467 
L 219.62262 87.646812 
L 223.599271 95.085033 
L 227.575923 104.808934 
L 231.552574 87.749487 
L 235.529225 100.434818 
L 239.505877 80.718201 
L 243.482528 77.049013 
L 247.459179 82.077997 
L 251.435831 81.543133 
L 255.412482 85.765886 
L 259.389133 81.58293 
L 263.365785 86.856599 
L 267.342436 90.825588 
L 271.319088 73.736681 
L 275.295739 79.074944 
L 279.27239 91.968692 
L 283.249042 84.392104 
L 287.225693 78.111668 
L 291.202344 80.420792 
L 295.178996 70.443886 
L 299.155647 87.534069 
L 303.132298 88.837368 
L 307.10895 71.770329 
L 311.085601 82.011501 
L 315.062252 69.792324 
L 319.038904 63.076857 
L 323.015555 76.200855 
L 326.992207 85.95412 
L 330.968858 79.633735 
L 334.945509 68.176334 
L 338.922161 73.759306 
L 342.898812 84.076666 
L 346.875463 72.519769 
L 350.852115 80.837196 
L 354.828766 71.070443 
L 358.805417 63.650356 
L 362.782069 58.156288 
L 366.75872 70.984969 
L 370.735371 82.454598 
L 374.712023 57.153782 
L 378.688674 61.298417 
L 382.665325 66.704983 
L 386.641977 71.195064 
L 390.618628 67.211885 
L 394.59528 58.914758 
L 398.571931 60.603261 
L 402.548582 79.440058 
L 406.525234 79.915548 
L 410.501885 70.351142 
L 414.478536 61.572668 
L 418.455188 59.425604 
L 422.431839 55.110944 
L 426.40849 53.122766 
L 430.385142 76.560597 
L 434.361793 65.220162 
L 438.338444 79.077575 
L 442.315096 76.392857 
" clip-path="url(#p5912f64786)" style="fill: none; stroke: #ff0000; stroke-opacity: 0.15; stroke-width: 1.5; stroke-linecap: square"/>
   </g>
   <g id="line2d_13">
    <path d="M 48.626612 316.930984 
L 52.603263 296.400165 
L 56.579914 273.877265 
L 60.556566 258.918893 
L 64.533217 252.54597 
L 68.509868 217.341235 
L 72.48652 205.316589 
L 76.463171 193.345622 
L 80.439823 207.44143 
L 84.416474 191.999797 
L 88.393125 182.879933 
L 92.369777 168.483039 
L 96.346428 175.63561 
L 100.323079 162.147228 
L 104.299731 168.256966 
L 108.276382 166.70384 
L 112.253033 137.289675 
L 116.229685 156.081788 
L 120.206336 134.628784 
L 124.182987 132.842892 
L 128.159639 139.815627 
L 132.13629 132.593654 
L 136.112942 129.658581 
L 140.089593 132.993322 
L 144.066244 116.737474 
L 148.042896 129.434023 
L 152.019547 119.718069 
L 155.996198 112.942459 
L 159.97285 123.289632 
L 163.949501 120.697913 
L 167.926152 102.705838 
L 171.902804 97.240208 
L 175.879455 117.17142 
L 179.856106 104.469531 
L 183.832758 115.204874 
L 187.809409 115.756504 
L 191.78606 102.684001 
L 195.762712 102.989757 
L 199.739363 98.361591 
L 203.716015 100.396565 
L 207.692666 85.304171 
L 211.669317 85.439471 
L 215.645969 89.020429 
L 219.62262 83.799046 
L 223.599271 91.709699 
L 227.575923 99.979153 
L 231.552574 98.173084 
L 235.529225 103.596007 
L 239.505877 86.068241 
L 243.482528 83.971792 
L 247.459179 77.71592 
L 251.435831 90.414342 
L 255.412482 90.099019 
L 259.389133 88.735996 
L 263.365785 81.357383 
L 267.342436 96.031986 
L 271.319088 72.498228 
L 275.295739 75.397216 
L 279.27239 77.311189 
L 283.249042 85.849279 
L 287.225693 72.329586 
L 291.202344 71.812623 
L 295.178996 75.232045 
L 299.155647 92.239379 
L 303.132298 85.784066 
L 307.10895 70.21215 
L 311.085601 72.919829 
L 315.062252 85.608572 
L 319.038904 62.349037 
L 323.015555 85.304135 
L 326.992207 86.626794 
L 330.968858 71.540774 
L 334.945509 79.73688 
L 338.922161 66.097222 
L 342.898812 79.474784 
L 346.875463 71.355522 
L 350.852115 69.193587 
L 354.828766 79.749737 
L 358.805417 74.04315 
L 362.782069 82.695772 
L 366.75872 65.260965 
L 370.735371 82.111132 
L 374.712023 69.073206 
L 378.688674 57.682871 
L 382.665325 57.71385 
L 386.641977 74.193467 
L 390.618628 66.064426 
L 394.59528 57.804635 
L 398.571931 64.534294 
L 402.548582 56.843267 
L 406.525234 65.892631 
L 410.501885 77.914698 
L 414.478536 68.443593 
L 418.455188 56.670688 
L 422.431839 66.061946 
L 426.40849 54.172429 
L 430.385142 57.178436 
L 434.361793 74.648383 
L 438.338444 63.426844 
L 442.315096 71.770671 
" clip-path="url(#p5912f64786)" style="fill: none; stroke: #ff0000; stroke-opacity: 0.15; stroke-width: 1.5; stroke-linecap: square"/>
   </g>
   <g id="line2d_14">
    <path d="M 442.315096 71.088962 
L 438.378211 69.304948 
L 434.441326 68.510055 
L 430.504441 66.597202 
L 426.567556 58.162092 
L 422.630672 62.293986 
L 418.693787 61.026199 
L 414.756902 65.333203 
L 410.820017 71.349696 
L 406.883132 71.187881 
L 402.946247 68.355634 
L 399.009363 64.832476 
L 395.072478 62.057423 
L 391.135593 66.627254 
L 387.198708 70.924105 
L 383.261823 65.657374 
L 379.324938 63.198125 
L 375.388054 65.026889 
L 371.451169 76.033309 
L 367.514284 70.806395 
L 363.577399 70.362829 
L 359.640514 69.962574 
L 355.703629 73.281626 
L 351.766744 74.17174 
L 347.82986 72.684919 
L 343.892975 77.247701 
L 339.95609 73.182016 
L 336.019205 73.231614 
L 332.08232 74.885557 
L 328.145435 80.405818 
L 324.208551 80.044104 
L 320.271666 70.795532 
L 316.334781 74.022879 
L 312.397896 77.280657 
L 308.461011 74.54986 
L 304.524126 80.328157 
L 300.587242 85.413826 
L 296.650357 79.055107 
L 292.713472 76.393498 
L 288.776587 77.053475 
L 284.839702 80.979738 
L 280.902817 83.635562 
L 276.965932 80.852162 
L 273.029048 77.431028 
L 269.092163 84.056744 
L 265.155278 86.826997 
L 261.218393 84.646675 
L 257.281508 86.193955 
L 253.344623 86.638025 
L 249.407739 84.20565 
L 245.470854 82.692566 
L 241.533969 84.116874 
L 237.597084 91.343649 
L 233.660199 95.259795 
L 229.723314 95.261211 
L 225.78643 96.276803 
L 221.849545 91.057226 
L 217.91266 90.91159 
L 213.975775 93.766718 
L 210.03889 94.797408 
L 206.102005 97.44521 
L 202.165121 99.150284 
L 198.228236 100.136493 
L 194.291351 99.972224 
L 190.354466 103.877605 
L 186.417581 106.79117 
L 182.480696 109.249635 
L 178.543811 108.869773 
L 174.606927 107.897456 
L 170.670042 104.33513 
L 166.733157 113.944433 
L 162.796272 119.246815 
L 158.859387 116.592081 
L 154.922502 117.144845 
L 150.985618 120.019561 
L 147.048733 122.22941 
L 143.111848 124.86525 
L 139.174963 128.337626 
L 135.238078 133.23108 
L 131.301193 133.853808 
L 127.364309 138.374175 
L 123.427424 136.05584 
L 119.490539 142.635895 
L 115.553654 145.359799 
L 111.616769 144.51842 
L 107.679884 162.022944 
L 103.742999 163.748823 
L 99.806115 166.576574 
L 95.86923 174.228818 
L 91.932345 174.359867 
L 87.99546 183.690827 
L 84.058575 192.041871 
L 80.12169 198.956365 
L 76.184806 204.898762 
L 72.247921 211.811815 
L 68.311036 228.929352 
L 64.374151 240.523478 
L 60.437266 254.635655 
L 56.500381 272.339178 
L 52.563497 291.297292 
L 48.626612 312.184383 
" clip-path="url(#p5912f64786)" style="fill: none; stroke: #ff0000; stroke-width: 1.5; stroke-linecap: square"/>
   </g>
   <g id="patch_3">
    <path d="M 28.942187 330.121395 
L 28.942187 39.932355 
" style="fill: none; stroke: #000000; stroke-width: 0.8; stroke-linejoin: miter; stroke-linecap: square"/>
   </g>
   <g id="patch_4">
    <path d="M 461.99952 330.121395 
L 461.99952 39.932355 
" style="fill: none; stroke: #000000; stroke-width: 0.8; stroke-linejoin: miter; stroke-linecap: square"/>
   </g>
   <g id="patch_5">
    <path d="M 28.942187 330.121395 
L 461.99952 330.121395 
" style="fill: none; stroke: #000000; stroke-width: 0.8; stroke-linejoin: miter; stroke-linecap: square"/>
   </g>
   <g id="patch_6">
    <path d="M 28.942187 39.932355 
L 461.99952 39.932355 
" style="fill: none; stroke: #000000; stroke-width: 0.8; stroke-linejoin: miter; stroke-linecap: square"/>
   </g>
   <g id="text_11">
    <!-- Visualization of similar lines plotted together -->
    <g transform="translate(111.001479 33.932355) scale(0.12 -0.12)">
     <defs>
      <path id="DejaVuSans-56" d="M 1831 0 
L 50 4666 
L 709 4666 
L 2188 738 
L 3669 4666 
L 4325 4666 
L 2547 0 
L 1831 0 
z
" transform="scale(0.015625)"/>
      <path id="DejaVuSans-69" d="M 603 3500 
L 1178 3500 
L 1178 0 
L 603 0 
L 603 3500 
z
M 603 4863 
L 1178 4863 
L 1178 4134 
L 603 4134 
L 603 4863 
z
" transform="scale(0.015625)"/>
      <path id="DejaVuSans-73" d="M 2834 3397 
L 2834 2853 
Q 2591 2978 2328 3040 
Q 2066 3103 1784 3103 
Q 1356 3103 1142 2972 
Q 928 2841 928 2578 
Q 928 2378 1081 2264 
Q 1234 2150 1697 2047 
L 1894 2003 
Q 2506 1872 2764 1633 
Q 3022 1394 3022 966 
Q 3022 478 2636 193 
Q 2250 -91 1575 -91 
Q 1294 -91 989 -36 
Q 684 19 347 128 
L 347 722 
Q 666 556 975 473 
Q 1284 391 1588 391 
Q 1994 391 2212 530 
Q 2431 669 2431 922 
Q 2431 1156 2273 1281 
Q 2116 1406 1581 1522 
L 1381 1569 
Q 847 1681 609 1914 
Q 372 2147 372 2553 
Q 372 3047 722 3315 
Q 1072 3584 1716 3584 
Q 2034 3584 2315 3537 
Q 2597 3491 2834 3397 
z
" transform="scale(0.015625)"/>
      <path id="DejaVuSans-75" d="M 544 1381 
L 544 3500 
L 1119 3500 
L 1119 1403 
Q 1119 906 1312 657 
Q 1506 409 1894 409 
Q 2359 409 2629 706 
Q 2900 1003 2900 1516 
L 2900 3500 
L 3475 3500 
L 3475 0 
L 2900 0 
L 2900 538 
Q 2691 219 2414 64 
Q 2138 -91 1772 -91 
Q 1169 -91 856 284 
Q 544 659 544 1381 
z
M 1991 3584 
L 1991 3584 
z
" transform="scale(0.015625)"/>
      <path id="DejaVuSans-61" d="M 2194 1759 
Q 1497 1759 1228 1600 
Q 959 1441 959 1056 
Q 959 750 1161 570 
Q 1363 391 1709 391 
Q 2188 391 2477 730 
Q 2766 1069 2766 1631 
L 2766 1759 
L 2194 1759 
z
M 3341 1997 
L 3341 0 
L 2766 0 
L 2766 531 
Q 2569 213 2275 61 
Q 1981 -91 1556 -91 
Q 1019 -91 701 211 
Q 384 513 384 1019 
Q 384 1609 779 1909 
Q 1175 2209 1959 2209 
L 2766 2209 
L 2766 2266 
Q 2766 2663 2505 2880 
Q 2244 3097 1772 3097 
Q 1472 3097 1187 3025 
Q 903 2953 641 2809 
L 641 3341 
Q 956 3463 1253 3523 
Q 1550 3584 1831 3584 
Q 2591 3584 2966 3190 
Q 3341 2797 3341 1997 
z
" transform="scale(0.015625)"/>
      <path id="DejaVuSans-6c" d="M 603 4863 
L 1178 4863 
L 1178 0 
L 603 0 
L 603 4863 
z
" transform="scale(0.015625)"/>
      <path id="DejaVuSans-7a" d="M 353 3500 
L 3084 3500 
L 3084 2975 
L 922 459 
L 3084 459 
L 3084 0 
L 275 0 
L 275 525 
L 2438 3041 
L 353 3041 
L 353 3500 
z
" transform="scale(0.015625)"/>
      <path id="DejaVuSans-74" d="M 1172 4494 
L 1172 3500 
L 2356 3500 
L 2356 3053 
L 1172 3053 
L 1172 1153 
Q 1172 725 1289 603 
Q 1406 481 1766 481 
L 2356 481 
L 2356 0 
L 1766 0 
Q 1100 0 847 248 
Q 594 497 594 1153 
L 594 3053 
L 172 3053 
L 172 3500 
L 594 3500 
L 594 4494 
L 1172 4494 
z
" transform="scale(0.015625)"/>
      <path id="DejaVuSans-6f" d="M 1959 3097 
Q 1497 3097 1228 2736 
Q 959 2375 959 1747 
Q 959 1119 1226 758 
Q 1494 397 1959 397 
Q 2419 397 2687 759 
Q 2956 1122 2956 1747 
Q 2956 2369 2687 2733 
Q 2419 3097 1959 3097 
z
M 1959 3584 
Q 2709 3584 3137 3096 
Q 3566 2609 3566 1747 
Q 3566 888 3137 398 
Q 2709 -91 1959 -91 
Q 1206 -91 779 398 
Q 353 888 353 1747 
Q 353 2609 779 3096 
Q 1206 3584 1959 3584 
z
" transform="scale(0.015625)"/>
      <path id="DejaVuSans-6e" d="M 3513 2113 
L 3513 0 
L 2938 0 
L 2938 2094 
Q 2938 2591 2744 2837 
Q 2550 3084 2163 3084 
Q 1697 3084 1428 2787 
Q 1159 2491 1159 1978 
L 1159 0 
L 581 0 
L 581 3500 
L 1159 3500 
L 1159 2956 
Q 1366 3272 1645 3428 
Q 1925 3584 2291 3584 
Q 2894 3584 3203 3211 
Q 3513 2838 3513 2113 
z
" transform="scale(0.015625)"/>
      <path id="DejaVuSans-20" transform="scale(0.015625)"/>
      <path id="DejaVuSans-66" d="M 2375 4863 
L 2375 4384 
L 1825 4384 
Q 1516 4384 1395 4259 
Q 1275 4134 1275 3809 
L 1275 3500 
L 2222 3500 
L 2222 3053 
L 1275 3053 
L 1275 0 
L 697 0 
L 697 3053 
L 147 3053 
L 147 3500 
L 697 3500 
L 697 3744 
Q 697 4328 969 4595 
Q 1241 4863 1831 4863 
L 2375 4863 
z
" transform="scale(0.015625)"/>
      <path id="DejaVuSans-6d" d="M 3328 2828 
Q 3544 3216 3844 3400 
Q 4144 3584 4550 3584 
Q 5097 3584 5394 3201 
Q 5691 2819 5691 2113 
L 5691 0 
L 5113 0 
L 5113 2094 
Q 5113 2597 4934 2840 
Q 4756 3084 4391 3084 
Q 3944 3084 3684 2787 
Q 3425 2491 3425 1978 
L 3425 0 
L 2847 0 
L 2847 2094 
Q 2847 2600 2669 2842 
Q 2491 3084 2119 3084 
Q 1678 3084 1418 2786 
Q 1159 2488 1159 1978 
L 1159 0 
L 581 0 
L 581 3500 
L 1159 3500 
L 1159 2956 
Q 1356 3278 1631 3431 
Q 1906 3584 2284 3584 
Q 2666 3584 2933 3390 
Q 3200 3197 3328 2828 
z
" transform="scale(0.015625)"/>
      <path id="DejaVuSans-72" d="M 2631 2963 
Q 2534 3019 2420 3045 
Q 2306 3072 2169 3072 
Q 1681 3072 1420 2755 
Q 1159 2438 1159 1844 
L 1159 0 
L 581 0 
L 581 3500 
L 1159 3500 
L 1159 2956 
Q 1341 3275 1631 3429 
Q 1922 3584 2338 3584 
Q 2397 3584 2469 3576 
Q 2541 3569 2628 3553 
L 2631 2963 
z
" transform="scale(0.015625)"/>
      <path id="DejaVuSans-65" d="M 3597 1894 
L 3597 1613 
L 953 1613 
Q 991 1019 1311 708 
Q 1631 397 2203 397 
Q 2534 397 2845 478 
Q 3156 559 3463 722 
L 3463 178 
Q 3153 47 2828 -22 
Q 2503 -91 2169 -91 
Q 1331 -91 842 396 
Q 353 884 353 1716 
Q 353 2575 817 3079 
Q 1281 3584 2069 3584 
Q 2775 3584 3186 3129 
Q 3597 2675 3597 1894 
z
M 3022 2063 
Q 3016 2534 2758 2815 
Q 2500 3097 2075 3097 
Q 1594 3097 1305 2825 
Q 1016 2553 972 2059 
L 3022 2063 
z
" transform="scale(0.015625)"/>
      <path id="DejaVuSans-70" d="M 1159 525 
L 1159 -1331 
L 581 -1331 
L 581 3500 
L 1159 3500 
L 1159 2969 
Q 1341 3281 1617 3432 
Q 1894 3584 2278 3584 
Q 2916 3584 3314 3078 
Q 3713 2572 3713 1747 
Q 3713 922 3314 415 
Q 2916 -91 2278 -91 
Q 1894 -91 1617 61 
Q 1341 213 1159 525 
z
M 3116 1747 
Q 3116 2381 2855 2742 
Q 2594 3103 2138 3103 
Q 1681 3103 1420 2742 
Q 1159 2381 1159 1747 
Q 1159 1113 1420 752 
Q 1681 391 2138 391 
Q 2594 391 2855 752 
Q 3116 1113 3116 1747 
z
" transform="scale(0.015625)"/>
      <path id="DejaVuSans-64" d="M 2906 2969 
L 2906 4863 
L 3481 4863 
L 3481 0 
L 2906 0 
L 2906 525 
Q 2725 213 2448 61 
Q 2172 -91 1784 -91 
Q 1150 -91 751 415 
Q 353 922 353 1747 
Q 353 2572 751 3078 
Q 1150 3584 1784 3584 
Q 2172 3584 2448 3432 
Q 2725 3281 2906 2969 
z
M 947 1747 
Q 947 1113 1208 752 
Q 1469 391 1925 391 
Q 2381 391 2643 752 
Q 2906 1113 2906 1747 
Q 2906 2381 2643 2742 
Q 2381 3103 1925 3103 
Q 1469 3103 1208 2742 
Q 947 2381 947 1747 
z
" transform="scale(0.015625)"/>
      <path id="DejaVuSans-67" d="M 2906 1791 
Q 2906 2416 2648 2759 
Q 2391 3103 1925 3103 
Q 1463 3103 1205 2759 
Q 947 2416 947 1791 
Q 947 1169 1205 825 
Q 1463 481 1925 481 
Q 2391 481 2648 825 
Q 2906 1169 2906 1791 
z
M 3481 434 
Q 3481 -459 3084 -895 
Q 2688 -1331 1869 -1331 
Q 1566 -1331 1297 -1286 
Q 1028 -1241 775 -1147 
L 775 -588 
Q 1028 -725 1275 -790 
Q 1522 -856 1778 -856 
Q 2344 -856 2625 -561 
Q 2906 -266 2906 331 
L 2906 616 
Q 2728 306 2450 153 
Q 2172 0 1784 0 
Q 1141 0 747 490 
Q 353 981 353 1791 
Q 353 2603 747 3093 
Q 1141 3584 1784 3584 
Q 2172 3584 2450 3431 
Q 2728 3278 2906 2969 
L 2906 3500 
L 3481 3500 
L 3481 434 
z
" transform="scale(0.015625)"/>
      <path id="DejaVuSans-68" d="M 3513 2113 
L 3513 0 
L 2938 0 
L 2938 2094 
Q 2938 2591 2744 2837 
Q 2550 3084 2163 3084 
Q 1697 3084 1428 2787 
Q 1159 2491 1159 1978 
L 1159 0 
L 581 0 
L 581 4863 
L 1159 4863 
L 1159 2956 
Q 1366 3272 1645 3428 
Q 1925 3584 2291 3584 
Q 2894 3584 3203 3211 
Q 3513 2838 3513 2113 
z
" transform="scale(0.015625)"/>
     </defs>
     <use xlink:href="#DejaVuSans-56"/>
     <use xlink:href="#DejaVuSans-69" transform="translate(66.158203 0)"/>
     <use xlink:href="#DejaVuSans-73" transform="translate(93.941406 0)"/>
     <use xlink:href="#DejaVuSans-75" transform="translate(146.041016 0)"/>
     <use xlink:href="#DejaVuSans-61" transform="translate(209.419922 0)"/>
     <use xlink:href="#DejaVuSans-6c" transform="translate(270.699219 0)"/>
     <use xlink:href="#DejaVuSans-69" transform="translate(298.482422 0)"/>
     <use xlink:href="#DejaVuSans-7a" transform="translate(326.265625 0)"/>
     <use xlink:href="#DejaVuSans-61" transform="translate(378.755859 0)"/>
     <use xlink:href="#DejaVuSans-74" transform="translate(440.035156 0)"/>
     <use xlink:href="#DejaVuSans-69" transform="translate(479.244141 0)"/>
     <use xlink:href="#DejaVuSans-6f" transform="translate(507.027344 0)"/>
     <use xlink:href="#DejaVuSans-6e" transform="translate(568.208984 0)"/>
     <use xlink:href="#DejaVuSans-20" transform="translate(631.587891 0)"/>
     <use xlink:href="#DejaVuSans-6f" transform="translate(663.375 0)"/>
     <use xlink:href="#DejaVuSans-66" transform="translate(724.556641 0)"/>
     <use xlink:href="#DejaVuSans-20" transform="translate(759.761719 0)"/>
     <use xlink:href="#DejaVuSans-73" transform="translate(791.548828 0)"/>
     <use xlink:href="#DejaVuSans-69" transform="translate(843.648438 0)"/>
     <use xlink:href="#DejaVuSans-6d" transform="translate(871.431641 0)"/>
     <use xlink:href="#DejaVuSans-69" transform="translate(968.84375 0)"/>
     <use xlink:href="#DejaVuSans-6c" transform="translate(996.626953 0)"/>
     <use xlink:href="#DejaVuSans-61" transform="translate(1024.410156 0)"/>
     <use xlink:href="#DejaVuSans-72" transform="translate(1085.689453 0)"/>
     <use xlink:href="#DejaVuSans-20" transform="translate(1126.802734 0)"/>
     <use xlink:href="#DejaVuSans-6c" transform="translate(1158.589844 0)"/>
     <use xlink:href="#DejaVuSans-69" transform="translate(1186.373047 0)"/>
     <use xlink:href="#DejaVuSans-6e" transform="translate(1214.15625 0)"/>
     <use xlink:href="#DejaVuSans-65" transform="translate(1277.535156 0)"/>
     <use xlink:href="#DejaVuSans-73" transform="translate(1339.058594 0)"/>
     <use xlink:href="#DejaVuSans-20" transform="translate(1391.158203 0)"/>
     <use xlink:href="#DejaVuSans-70" transform="translate(1422.945312 0)"/>
     <use xlink:href="#DejaVuSans-6c" transform="translate(1486.421875 0)"/>
     <use xlink:href="#DejaVuSans-6f" transform="translate(1514.205078 0)"/>
     <use xlink:href="#DejaVuSans-74" transform="translate(1575.386719 0)"/>
     <use xlink:href="#DejaVuSans-74" transform="translate(1614.595703 0)"/>
     <use xlink:href="#DejaVuSans-65" transform="translate(1653.804688 0)"/>
     <use xlink:href="#DejaVuSans-64" transform="translate(1715.328125 0)"/>
     <use xlink:href="#DejaVuSans-20" transform="translate(1778.804688 0)"/>
     <use xlink:href="#DejaVuSans-74" transform="translate(1810.591797 0)"/>
     <use xlink:href="#DejaVuSans-6f" transform="translate(1849.800781 0)"/>
     <use xlink:href="#DejaVuSans-67" transform="translate(1910.982422 0)"/>
     <use xlink:href="#DejaVuSans-65" transform="translate(1974.458984 0)"/>
     <use xlink:href="#DejaVuSans-74" transform="translate(2035.982422 0)"/>
     <use xlink:href="#DejaVuSans-68" transform="translate(2075.191406 0)"/>
     <use xlink:href="#DejaVuSans-65" transform="translate(2138.570312 0)"/>
     <use xlink:href="#DejaVuSans-72" transform="translate(2200.09375 0)"/>
    </g>
   </g>
  </g>
  <g id="text_12">
   <!-- SubPlots -->
   <g transform="translate(208.745385 16.318125) scale(0.12 -0.12)">
    <defs>
     <path id="DejaVuSans-53" d="M 3425 4513 
L 3425 3897 
Q 3066 4069 2747 4153 
Q 2428 4238 2131 4238 
Q 1616 4238 1336 4038 
Q 1056 3838 1056 3469 
Q 1056 3159 1242 3001 
Q 1428 2844 1947 2747 
L 2328 2669 
Q 3034 2534 3370 2195 
Q 3706 1856 3706 1288 
Q 3706 609 3251 259 
Q 2797 -91 1919 -91 
Q 1588 -91 1214 -16 
Q 841 59 441 206 
L 441 856 
Q 825 641 1194 531 
Q 1563 422 1919 422 
Q 2459 422 2753 634 
Q 3047 847 3047 1241 
Q 3047 1584 2836 1778 
Q 2625 1972 2144 2069 
L 1759 2144 
Q 1053 2284 737 2584 
Q 422 2884 422 3419 
Q 422 4038 858 4394 
Q 1294 4750 2059 4750 
Q 2388 4750 2728 4690 
Q 3069 4631 3425 4513 
z
" transform="scale(0.015625)"/>
     <path id="DejaVuSans-62" d="M 3116 1747 
Q 3116 2381 2855 2742 
Q 2594 3103 2138 3103 
Q 1681 3103 1420 2742 
Q 1159 2381 1159 1747 
Q 1159 1113 1420 752 
Q 1681 391 2138 391 
Q 2594 391 2855 752 
Q 3116 1113 3116 1747 
z
M 1159 2969 
Q 1341 3281 1617 3432 
Q 1894 3584 2278 3584 
Q 2916 3584 3314 3078 
Q 3713 2572 3713 1747 
Q 3713 922 3314 415 
Q 2916 -91 2278 -91 
Q 1894 -91 1617 61 
Q 1341 213 1159 525 
L 1159 0 
L 581 0 
L 581 4863 
L 1159 4863 
L 1159 2969 
z
" transform="scale(0.015625)"/>
     <path id="DejaVuSans-50" d="M 1259 4147 
L 1259 2394 
L 2053 2394 
Q 2494 2394 2734 2622 
Q 2975 2850 2975 3272 
Q 2975 3691 2734 3919 
Q 2494 4147 2053 4147 
L 1259 4147 
z
M 628 4666 
L 2053 4666 
Q 2838 4666 3239 4311 
Q 3641 3956 3641 3272 
Q 3641 2581 3239 2228 
Q 2838 1875 2053 1875 
L 1259 1875 
L 1259 0 
L 628 0 
L 628 4666 
z
" transform="scale(0.015625)"/>
    </defs>
    <use xlink:href="#DejaVuSans-53"/>
    <use xlink:href="#DejaVuSans-75" transform="translate(63.476562 0)"/>
    <use xlink:href="#DejaVuSans-62" transform="translate(126.855469 0)"/>
    <use xlink:href="#DejaVuSans-50" transform="translate(190.332031 0)"/>
    <use xlink:href="#DejaVuSans-6c" transform="translate(250.634766 0)"/>
    <use xlink:href="#DejaVuSans-6f" transform="translate(278.417969 0)"/>
    <use xlink:href="#DejaVuSans-74" transform="translate(339.599609 0)"/>
    <use xlink:href="#DejaVuSans-73" transform="translate(378.808594 0)"/>
   </g>
  </g>
 </g>
 <defs>
  <clipPath id="p5912f64786">
   <rect x="28.942187" y="39.932355" width="433.057333" height="290.18904"/>
  </clipPath>
 </defs>
</svg>
