P3
64 64
255
232 240 240 240 248 240 232 240 240 240 248 240 240 248 240
240 248 240 240 248 240 240 248 240 232 248 236 232 248 236
240 248 240 232 248 236 232 240 240 232 248 236 232 240 240
224 240 236 232 248 236 232 240 232 216 232 224 220 232 216
216 232 236 224 224 224 216 232 236 216 232 224 208 212 228
216 224 224 216 224 224 224 232 224 220 232 216 208 228 228
184 200 192 200 200 204 200 200 180 192 192 176 192 192 184
224 232 224 216 224 224 224 240 236 224 232 236 224 240 236
192 212 200 188 216 228 208 228 228 200 208 208 200 216 204
200 200 204 216 212 192 192 192 184 200 200 204 192 200 200
192 192 200 176 176 164 216 232 224 208 216 208 208 208 208
232 240 232 240 248 232 232 240 232 208 228 228 224 240 236
240 248 240 240 240 240 224 240 236 184 200 192 240 248 232
240 248 240 240 248 240 232 248 236 240 248 240 240 248 240
240 248 240 240 248 240 232 240 240 232 240 240 232 248 236
232 240 240 240 248 240 232 248 236 232 240 232 232 248 236
216 232 224 208 228 228 208 228 228 208 228 228 208 228 228
224 232 224 224 232 224 200 208 208 208 216 208 216 232 236
208 216 208 208 224 208 216 224 224 224 232 224 200 208 208
192 160 156 192 192 176 200 200 180 192 212 200 216 224 224
192 200 200 208 228 228 224 232 236 216 232 224 184 200 192
208 224 208 224 240 236 216 232 236 224 232 236 208 228 228
176 156 156 184 184 168 208 216 208 224 232 236 200 200 192
200 208 200 224 232 224 208 212 228 208 212 228 216 216 208
232 240 232 208 228 228 208 224 208 192 200 200 232 240 240
240 248 240 240 248 240 216 224 224 240 248 240 240 248 240
240 248 240 232 240 240 232 248 236 240 248 240 240 248 240
232 248 236 232 240 232 232 240 232 240 248 240 240 240 240
240 248 240 232 248 236 240 248 240 232 248 236 224 240 236
224 240 236 216 232 224 208 228 228 200 208 208 200 216 204
216 224 224 208 208 208 064 056 176 048 136 176 192 160 156
236 220 192 208 228 228 200 216 204 208 208 208 160 200 192
224 180 156 176 140 104 192 192 200 208 216 208 152 172 156
192 200 200 224 240 236 208 228 228 208 212 228 208 228 228
216 224 216 200 208 208 208 228 228 176 176 164 176 176 164
200 208 208 216 216 208 208 216 208 200 200 180 192 192 200
216 224 216 208 224 208 208 216 208 224 232 236 224 224 224
216 224 216 208 216 208 208 208 208 224 232 224 240 248 240
240 248 240 216 224 216 248 244 236 240 248 240 240 248 240
240 248 240 240 248 240 240 248 232 240 248 240 240 248 240
240 248 240 224 240 236 240 248 232 248 244 236 248 244 236
240 248 232 248 244 236 232 240 232 240 240 232 232 240 232
208 228 228 200 208 208 208 212 228 216 224 224 200 208 200
160 200 192 188 052 072 152 172 156 040 048 076 040 048 076
160 200 192 188 216 228 200 200 192 176 140 104 184 160 156
176 140 104 176 172 148 216 216 208 160 200 192 192 200 200
208 216 208 184 200 192 232 240 224 200 216 204 184 200 192
184 200 192 220 224 236 216 212 192 200 200 180 220 200 192
216 232 236 208 208 208 184 180 152 192 192 184 208 208 208
216 224 224 216 224 216 200 208 208 216 216 208 200 200 192
208 216 208 216 216 208 224 232 236 240 248 232 240 248 240
216 232 224 240 248 240 248 244 236 240 248 240 248 244 236
248 244 236 248 244 236 232 248 236 240 248 240 232 240 232
232 240 224 232 232 224 240 248 232 240 248 240 240 240 240
240 240 232 240 240 232 240 240 232 240 240 232 224 240 236
200 216 204 216 224 216 216 232 224 208 208 208 160 200 192
064 056 176 188 080 104 048 136 176 000 000 000 000 000 000
048 136 176 192 160 156 176 140 104 164 136 092 164 160 104
184 160 124 176 140 104 160 200 192 176 140 104 192 192 176
192 192 200 216 224 216 200 216 204 208 224 208 200 200 180
208 216 208 200 200 180 200 200 192 192 184 156 192 192 184
184 180 152 176 140 104 176 156 156 200 216 204 208 216 208
200 200 180 216 216 208 224 220 216 208 208 208 208 212 188
208 208 208 232 240 232 224 240 236 240 248 240 224 232 224
240 248 240 240 248 240 240 248 240 240 248 240 240 248 240
240 248 240 232 240 232 232 240 232 240 240 240 232 248 236
232 240 232 232 232 224 232 240 232 232 240 232 240 240 232
240 248 232 240 248 240 240 248 232 224 240 236 224 232 224
224 232 224 224 224 224 200 208 200 184 200 192 208 212 228
192 036 012 000 000 000 128 012 000 084 044 044 160 168 192
000 000 000 184 160 124 176 140 104 176 136 092 216 168 124
216 172 192 184 160 124 176 172 148 184 184 168 192 192 200
208 208 208 208 216 208 160 160 136 200 200 180 216 168 124
192 200 184 192 160 156 184 152 088 176 176 164 176 176 164
200 200 192 164 136 092 208 208 208 192 160 156 224 180 156
192 192 184 216 212 192 208 216 208 224 224 224 216 216 208
224 232 224 208 224 208 224 232 224 224 232 224 232 248 236
248 244 236 240 248 240 240 248 240 240 248 240 240 248 240
232 248 236 208 208 208 208 208 208 236 228 216 208 208 208
232 240 224 240 240 232 232 240 240 232 232 224 240 248 232
232 240 232 232 240 232 220 232 216 208 216 208 216 224 224
208 224 208 216 212 192 000 000 000 120 144 176 188 080 104
064 056 176 040 048 076 224 180 156 156 152 156 176 156 156
176 140 104 176 140 104 176 140 104 176 156 156 200 200 192
176 176 164 156 152 156 192 160 156 160 200 192 208 216 208
200 200 180 184 184 168 176 172 148 200 200 192 192 184 156
176 140 104 164 136 092 176 140 104 192 192 200 176 176 164
176 140 104 200 208 200 216 168 124 184 160 124 200 200 180
236 228 216 216 216 216 216 172 192 216 216 208 216 232 224
216 216 208 208 216 208 208 216 208 240 240 240 240 248 240
240 248 240 248 244 236 248 244 236 248 244 236 232 240 232
224 232 236 232 232 224 216 216 208 232 232 224 224 232 224
232 232 224 236 228 216 232 232 224 232 240 232 232 240 232
232 240 224 224 240 236 224 232 224 200 200 204 200 208 200
184 184 168 160 200 192 040 048 076 088 000 000 000 000 000
000 000 000 236 228 216 200 200 204 184 160 124 176 156 156
192 160 156 176 140 104 176 140 104 192 160 156 176 176 164
216 168 124 200 200 192 184 200 192 184 160 156 216 212 192
200 200 192 192 200 200 200 208 208 200 200 180 176 140 104
176 140 104 176 140 104 200 200 180 164 136 092 192 160 156
220 200 192 192 136 092 192 184 156 224 180 156 224 224 224
224 224 224 216 224 216 216 216 208 192 160 156 200 200 192
192 192 176 224 224 224 240 240 232 240 248 240 240 248 240
248 244 236 240 248 240 248 244 236 240 248 240 232 240 232
224 232 224 224 232 224 224 224 224 216 212 192 232 240 224
200 200 180 208 212 188 224 220 216 240 240 232 232 240 224
232 240 232 236 228 216 192 192 176 200 200 180 160 200 192
160 200 192 120 144 176 112 072 076 000 000 000 000 000 000
000 000 000 120 144 176 176 172 148 192 160 156 160 160 136
144 112 072 176 140 104 184 160 156 192 160 156 216 168 124
208 208 208 176 172 148 200 216 204 216 216 208 184 180 152
200 200 192 208 208 208 192 160 156 176 140 104 148 124 112
164 136 092 176 140 104 176 140 104 200 200 180 192 192 176
184 152 088 192 184 156 220 200 192 208 224 208 192 160 156
216 212 192 208 208 208 176 172 148 192 184 156 200 200 180
208 212 188 248 244 236 240 248 240 240 248 240 248 244 236
248 244 236 232 240 232 240 248 240 240 248 240 240 240 232
232 232 224 216 212 192 236 228 216 200 200 180 200 200 180
216 172 192 236 228 216 232 232 224 232 232 224 232 240 224
224 224 224 216 168 124 048 136 176 048 136 176 208 228 228
208 228 228 120 144 176 160 160 136 192 200 200 184 200 192
208 208 208 192 184 156 168 172 156 148 124 120 176 140 104
144 112 092 176 112 072 156 152 156 184 160 156 176 172 148
192 160 156 184 160 124 176 156 156 176 140 104 192 184 156
208 208 208 192 160 156 184 160 124 132 096 048 148 124 112
184 160 156 168 136 072 192 184 156 184 160 124 160 160 136
216 172 192 192 160 156 192 192 176 192 192 176 208 224 208
192 192 184 176 156 156 184 160 124 192 184 156 200 200 180
240 248 232 240 248 232 240 248 240 248 244 236 232 240 232
216 212 192 224 220 216 200 208 192 184 160 124 192 192 176
236 220 192 224 220 216 236 228 216 224 220 216 236 228 216
236 228 216 232 240 232 232 240 232 224 224 224 216 224 224
192 192 184 048 136 176 160 200 192 160 200 192 192 212 200
208 212 228 216 168 124 184 200 192 216 224 216 216 224 216
192 192 176 200 200 180 216 168 124 184 152 088 148 124 120
148 120 072 184 160 124 176 140 072 184 160 156 148 132 092
164 136 092 192 136 092 164 136 092 164 136 092 192 192 184
216 224 216 184 160 124 184 160 124 216 168 124 192 136 092
176 112 072 216 168 124 176 140 104 216 172 192 192 192 176
216 168 124 156 152 156 148 096 020 176 140 104 192 160 156
176 140 104 176 172 148 200 200 180 236 228 216 248 244 236
232 240 232 240 248 240 240 248 232 240 248 240 224 240 236
224 224 224 224 232 224 232 240 224 224 224 224 220 200 192
192 160 156 216 216 208 216 216 208 236 220 192 192 192 176
192 192 176 192 136 092 192 184 156 192 184 156 048 136 176
048 136 176 048 136 176 120 144 176 184 200 192 216 224 224
216 224 216 200 216 204 200 200 204 216 212 192 192 192 176
160 200 192 184 160 124 164 136 092 156 152 156 192 160 156
176 140 104 176 140 104 176 156 156 176 140 104 176 176 164
216 168 124 132 096 048 156 152 156 144 112 072 184 160 156
180 120 072 180 120 072 164 136 092 144 112 072 164 136 092
176 140 104 184 160 156 200 200 180 192 192 176 236 228 216
192 192 176 184 152 088 216 164 076 192 192 176 160 160 136
208 212 188 176 176 164 224 180 156 232 232 224 232 240 224
248 244 236 248 244 236 248 244 236 224 224 224 224 240 236
232 232 224 224 232 224 200 200 192 200 200 180 208 212 188
192 184 156 216 168 124 176 172 148 192 192 176 192 160 156
216 224 224 200 216 204 176 176 164 048 136 176 048 136 176
160 200 192 208 212 228 184 200 192 216 224 216 236 228 216
160 160 136 208 216 208 184 184 168 176 172 148 184 180 152
184 160 124 176 140 104 160 160 136 148 124 112 000 000 000
148 124 120 164 136 092 132 096 048 200 200 180 192 160 156
160 160 136 176 140 104 148 124 112 148 124 120 144 104 044
164 136 092 152 104 044 144 112 072 152 104 044 144 112 072
180 120 072 192 184 156 176 140 104 176 140 104 164 136 092
216 168 124 216 168 124 184 160 156 192 136 092 164 160 104
192 184 156 148 124 112 224 232 236 224 232 236 240 248 240
240 248 232 240 248 232 240 240 240 232 240 232 240 248 232
224 232 224 224 232 224 156 152 156 176 172 148 216 168 124
192 192 176 216 216 208 200 208 208 200 200 180 216 168 124
200 200 180 120 144 176 040 048 076 048 136 176 160 200 192
160 200 192 208 224 208 224 224 224 208 212 188 136 120 084
160 200 192 192 212 200 200 200 204 176 172 148 176 172 148
164 136 092 148 124 112 160 160 136 000 000 000 148 132 092
164 136 092 192 200 184 176 172 148 200 200 180 184 152 088
176 140 104 176 140 104 148 124 112 144 112 072 108 080 044
176 112 072 144 112 092 164 136 092 176 140 104 184 152 088
200 200 180 184 180 152 148 132 092 184 160 156 176 140 104
216 168 124 176 156 156 192 184 156 164 160 104 144 112 092
176 140 104 200 200 204 208 216 208 232 240 240 240 248 232
240 248 232 240 248 232 240 240 240 240 240 232 232 232 236
216 224 216 200 200 180 184 160 156 160 160 136 208 212 188
200 200 180 176 156 156 176 172 148 176 172 148 216 168 124
040 048 076 064 056 176 048 136 176 048 136 176 048 136 176
184 200 192 244 240 224 148 124 112 032 036 044 040 048 076
040 048 076 020 040 000 136 096 016 164 136 092 184 160 156
156 152 156 176 176 164 144 112 092 168 120 052 176 140 104
192 160 156 192 184 156 184 160 124 180 120 072 216 168 124
176 140 104 144 112 072 164 136 092 180 120 072 132 080 016
148 120 072 184 152 088 176 156 156 176 172 148 184 160 124
148 124 112 156 152 156 144 112 092 184 160 124 176 140 104
176 140 104 164 136 092 176 140 104 164 160 104 176 140 104
184 200 192 224 232 224 232 240 232 240 248 232 240 240 240
240 240 232 232 240 232 216 224 224 220 200 192 192 192 184
208 212 188 200 200 180 192 184 156 176 172 148 200 200 180
200 208 192 192 192 184 208 212 188 200 200 204 048 136 176
040 048 076 160 200 192 064 060 000 040 048 076 152 172 156
160 200 192 160 168 192 188 216 228 040 048 076 040 048 076
040 048 076 040 048 076 000 000 000 008 000 000 192 036 012
068 048 100 144 104 044 148 124 112 176 140 104 164 136 092
152 104 044 176 140 104 176 128 072 164 136 092 160 160 136
156 152 156 164 136 092 176 156 156 132 088 020 148 132 092
164 136 092 164 136 092 132 096 048 148 124 112 176 140 104
148 124 120 132 096 048 164 136 092 192 160 156 108 080 044
144 112 072 176 112 072 164 136 092 216 168 124 156 152 156
200 200 192 232 240 232 240 240 232 240 240 232 240 248 232
232 240 232 216 232 224 216 216 216 216 216 208 184 160 124
192 184 156 192 160 156 184 160 124 192 192 176 192 200 200
208 216 208 200 208 200 048 136 176 048 136 176 104 116 084
192 192 176 208 224 208 040 048 076 048 136 176 040 048 076
160 168 192 160 200 192 176 112 072 192 036 012 188 120 184
224 232 236 064 056 176 148 132 092 144 112 072 040 000 000
112 072 076 032 036 044 104 116 084 164 136 092 176 176 164
216 168 124 176 112 072 184 180 152 176 140 104 144 112 092
164 160 104 148 124 112 084 044 044 144 104 044 148 120 072
148 132 092 112 072 076 160 160 136 148 124 112 144 112 072
144 112 072 144 112 072 184 160 124 176 140 104 144 112 072
176 156 156 164 160 104 164 136 092 184 180 152 216 224 216
232 240 232 240 248 240 240 240 240 240 248 240 240 240 232
224 232 224 224 232 224 208 208 208 200 200 180 208 212 188
184 184 168 148 124 112 200 200 192 208 208 208 208 208 208
192 160 156 040 048 076 048 136 176 160 160 136 208 212 188
208 216 208 220 232 216 112 072 076 064 056 176 032 036 044
000 000 000 112 072 076 008 000 000 200 200 180 240 248 232
064 056 176 148 124 112 160 160 136 108 080 044 000 000 000
000 000 000 148 132 092 008 000 000 216 232 236 176 136 092
176 112 072 136 120 084 148 124 120 148 120 072 176 156 156
132 096 048 104 116 084 144 112 072 176 140 104 148 120 072
144 104 044 148 124 112 148 124 112 136 120 084 176 140 104
180 120 072 184 160 124 148 120 072 144 112 092 164 136 092
144 112 072 176 140 104 224 232 224 216 216 208 224 232 236
224 240 236 232 232 224 232 232 224 216 224 216 232 240 232
240 240 232 216 216 208 200 200 180 208 212 188 192 184 156
168 172 156 164 136 092 216 172 192 176 176 164 160 160 136
040 048 076 040 048 076 160 200 192 184 200 192 048 136 176
156 152 156 160 200 192 152 172 156 156 152 156 144 112 092
160 160 136 148 124 120 108 080 044 164 136 092 164 136 092
156 152 156 112 072 076 000 000 000 104 012 000 236 228 216
000 000 000 000 000 000 248 244 236 224 180 156 184 136 072
152 104 044 176 140 104 144 112 072 136 096 016 128 096 032
128 096 032 096 032 000 148 112 040 152 104 044 152 104 044
132 096 048 144 112 072 108 080 044 104 072 016 148 124 112
164 136 092 148 124 112 128 096 032 148 120 072 128 096 032
176 140 072 208 212 188 216 172 192 208 216 208 216 216 208
224 224 224 216 216 208 192 192 184 208 216 208 216 224 224
176 140 104 184 184 168 192 192 176 176 172 148 160 160 136
148 124 112 176 140 104 176 140 104 148 124 112 040 048 076
040 048 076 040 048 076 040 048 076 040 048 076 040 048 076
040 048 076 040 048 076 048 136 176 048 136 176 120 144 176
184 200 192 176 176 164 176 172 148 128 012 000 152 036 012
188 080 104 120 064 000 008 000 000 216 168 124 000 000 000
000 000 000 108 096 044 176 140 104 108 080 044 132 096 048
148 124 112 144 084 016 144 104 044 108 080 044 104 064 000
104 064 016 148 112 040 176 112 072 136 080 000 144 112 072
144 112 092 144 104 044 168 132 052 176 112 072 132 096 048
160 112 044 176 112 072 144 112 072 104 064 016 176 112 072
224 232 224 208 212 188 220 232 216 224 224 224 184 184 168
208 216 208 200 200 192 216 212 192 220 232 216 192 192 184
200 208 192 200 208 192 160 160 136 132 096 048 148 124 112
160 160 136 148 124 120 160 160 136 040 048 076 040 048 076
000 000 000 020 040 000 040 048 076 040 048 076 064 056 176
040 048 076 040 048 076 040 048 076 040 048 076 104 116 084
152 172 156 216 224 216 128 012 000 192 036 012 192 036 012
088 000 000 088 000 000 120 144 176 008 000 000 144 112 072
096 056 000 144 112 092 144 104 044 120 072 000 104 064 016
144 112 072 120 064 000 108 080 044 144 096 000 096 032 000
132 088 020 132 088 020 132 080 016 132 080 016 080 040 000
104 064 000 120 080 016 132 096 048 152 104 044 104 064 000
144 104 044 132 096 048 104 056 000 132 088 020 232 248 236
220 232 216 232 232 224 208 216 208 176 176 164 216 224 224
216 224 216 208 216 208 192 192 184 184 184 168 176 172 148
184 184 168 176 140 104 160 160 136 148 124 112 148 132 092
156 152 156 148 124 112 064 056 176 000 000 000 040 048 076
000 000 000 040 048 076 040 048 076 040 048 076 032 036 044
040 048 076 040 048 076 040 048 076 104 116 084 208 212 188
152 036 012 000 000 000 188 080 104 192 036 012 128 012 000
048 000 000 104 012 000 056 000 000 132 096 048 148 124 112
104 064 016 184 084 012 192 036 012 192 036 012 192 036 012
192 160 156 176 112 072 088 040 000 144 096 000 160 112 044
104 072 016 112 072 000 132 096 048 108 080 044 096 048 000
120 072 000 128 072 000 096 040 000 128 072 000 112 056 000
132 080 016 128 072 000 144 104 044 224 224 224 200 208 200
200 208 200 200 208 200 192 192 200 200 208 200 216 216 216
192 192 200 176 156 156 160 160 136 176 176 164 192 192 184
184 180 152 148 132 092 144 112 072 148 124 120 148 124 112
132 096 048 144 112 072 112 072 076 000 000 000 000 000 000
000 000 000 000 000 000 000 000 000 000 000 000 040 048 076
000 000 000 064 056 176 160 200 192 188 048 044 152 036 012
156 152 156 192 160 156 128 012 000 192 036 012 128 012 000
000 000 000 144 036 012 104 116 084 128 012 000 192 036 012
192 036 012 128 012 000 136 068 000 144 080 000 152 084 016
192 036 012 200 136 072 088 012 000 132 088 020 104 056 000
080 024 000 104 064 016 120 072 000 088 032 000 120 080 016
120 064 000 112 072 000 096 048 000 104 080 016 104 056 000
096 056 000 148 112 040 232 240 232 224 232 224 184 184 168
200 200 192 200 200 192 192 160 156 208 212 188 208 216 208
208 212 228 156 152 156 184 184 168 192 192 200 148 124 120
160 160 136 192 136 092 132 096 048 176 176 164 104 116 084
040 048 076 048 136 176 080 072 016 032 036 044 000 000 000
000 000 000 000 000 000 000 000 000 000 000 000 064 056 176
048 136 176 160 200 192 128 012 000 128 012 000 128 012 000
152 036 012 128 012 000 128 012 000 032 000 000 088 000 000
016 000 000 188 120 184 128 012 000 104 032 000 104 072 016
136 068 000 096 040 000 128 072 000 096 040 000 104 048 000
064 024 000 088 032 000 136 096 016 088 032 000 104 048 000
088 040 000 132 088 020 132 088 008 120 056 000 096 048 000
088 032 000 112 064 000 104 048 000 120 072 000 112 080 000
152 124 036 216 224 216 208 216 208 144 112 072 176 176 164
168 172 156 168 172 156 200 208 208 200 200 204 208 216 208
176 176 164 200 200 192 192 184 156 160 160 136 000 000 000
144 112 072 160 128 052 104 116 084 040 048 076 032 036 044
048 136 176 032 036 044 020 024 016 032 036 044 032 036 044
000 000 000 000 000 000 000 000 000 040 048 076 040 048 076
160 200 192 128 012 000 112 012 000 112 012 000 072 000 000
016 000 000 020 040 000 128 012 000 132 088 020 128 012 000
112 012 000 064 056 176 156 152 156 132 088 020 120 080 000
088 048 000 132 096 048 144 084 016 068 012 000 056 012 000
048 000 000 120 056 000 128 080 000 112 064 000 104 064 000
120 072 000 148 112 052 132 096 048 080 040 000 128 096 032
112 048 000 056 000 000 112 072 000 056 024 000 120 088 016
208 208 208 224 224 224 168 172 156 148 124 112 192 160 156
176 176 164 200 216 204 200 216 204 208 208 208 184 184 168
176 176 164 148 124 120 184 160 156 000 000 000 128 012 000
000 000 000 104 116 084 016 000 000 032 036 044 020 024 016
040 048 076 040 048 076 040 048 076 032 036 044 000 000 000
032 036 044 000 000 000 040 048 076 048 136 176 160 200 192
000 000 000 108 080 044 048 136 176 104 116 084 104 056 000
000 000 000 128 012 000 112 048 000 192 036 012 112 012 000
216 216 216 152 172 156 112 048 000 016 000 000 000 000 000
000 000 000 000 000 000 000 000 000 080 072 016 008 000 000
080 032 000 048 000 000 080 024 000 096 048 000 128 072 000
132 088 020 144 112 072 112 064 000 112 056 000 096 040 000
096 032 000 104 040 000 064 024 000 144 096 000 208 216 208
200 200 192 184 160 156 148 124 112 156 152 156 176 172 148
176 172 148 160 160 136 192 192 200 184 184 168 176 176 164
176 176 164 128 012 000 000 000 000 048 000 000 000 000 000
128 012 000 128 012 000 128 012 000 096 008 000 000 000 000
128 012 000 152 036 012 192 036 012 192 036 012 192 036 012
192 036 012 040 048 076 152 172 156 160 160 136 084 044 044
000 000 000 000 000 000 000 000 000 080 040 016 104 028 016
112 036 000 112 064 000 192 036 012 104 040 000 104 048 000
048 000 000 000 000 000 000 000 000 000 000 000 064 060 000
064 060 000 032 036 044 000 000 000 000 000 000 128 112 044
096 024 000 032 000 000 048 000 000 132 088 020 120 080 000
152 104 044 132 096 048 088 032 000 088 032 000 132 088 020
096 024 000 096 048 000 132 088 020 208 208 208 148 132 092
104 116 084 108 080 044 144 112 072 132 080 016 144 112 072
176 156 156 192 184 156 160 160 136 176 140 104 148 124 120
164 136 092 000 000 000 128 012 000 128 012 000 032 036 044
056 024 000 156 152 156 128 096 032 000 000 000 192 036 012
192 036 012 192 036 012 192 036 012 128 012 000 192 036 012
040 048 076 160 200 192 160 200 192 000 000 000 000 000 000
000 000 000 000 000 000 000 000 000 112 012 000 064 000 000
104 012 000 128 012 000 088 040 000 032 000 000 020 040 000
000 000 000 148 124 120 104 080 016 064 024 000 096 040 000
104 048 000 068 012 000 000 000 000 000 000 000 108 080 044
096 024 000 128 072 000 112 056 000 132 088 020 128 080 000
096 040 000 104 048 000 096 032 000 160 112 044 088 024 000
016 000 000 120 080 000 164 136 092 144 112 092 144 112 072
112 056 000 132 096 048 144 112 072 148 124 112 176 112 072
192 136 092 144 112 092 144 112 072 104 116 084 000 000 000
000 000 000 144 104 044 000 000 000 000 000 000 000 000 000
000 000 000 000 000 000 000 000 000 192 036 012 192 036 012
192 036 012 128 012 000 128 012 000 024 000 000 048 136 176
160 200 192 156 152 156 000 000 000 000 000 000 000 000 000
000 000 000 096 048 000 024 008 000 056 000 000 088 000 000
128 012 000 096 056 000 000 000 000 000 000 000 048 136 176
080 040 000 148 124 112 108 080 044 148 096 020 168 104 044
112 056 000 032 000 000 040 048 076 000 000 000 016 000 000
032 000 000 080 032 000 088 040 000 080 040 000 088 040 000
104 048 000 168 132 052 168 104 044 120 064 000 080 012 000
144 104 020 144 112 092 128 064 044 096 056 000 064 000 000
112 072 000 088 032 000 120 080 016 088 032 000 108 096 044
108 080 044 096 056 000 108 096 044 000 000 000 048 040 000
104 072 016 016 000 000 000 000 000 112 072 076 000 000 000
000 000 000 008 000 000 128 012 000 128 012 000 128 012 000
128 012 000 128 012 000 000 000 000 040 048 076 160 200 192
040 048 076 000 000 000 000 000 000 000 000 000 000 000 000
000 000 000 068 012 000 040 000 000 096 008 000 096 040 000
104 056 000 000 000 000 108 096 044 132 088 020 216 216 208
184 184 168 088 048 000 136 068 000 068 012 000 072 000 000
080 012 000 104 056 000 000 000 000 108 096 044 064 000 000
080 024 000 096 032 000 128 072 000 104 048 000 080 000 000
040 000 000 068 012 000 112 080 000 096 056 000 104 056 000
176 112 072 152 104 044 108 080 044 072 024 000 104 048 000
104 064 000 104 056 000 132 096 048 144 112 072 104 040 000
084 044 044 080 040 016 080 048 000 108 080 044 104 056 000
112 072 000 104 064 000 000 000 000 000 000 000 000 000 000
000 000 000 000 000 000 000 000 000 000 000 000 000 000 000
000 000 000 000 000 000 040 048 076 160 200 192 040 048 076
152 136 072 184 184 168 184 200 192 000 000 000 112 012 000
072 000 000 040 000 000 112 064 000 056 000 000 024 000 000
000 000 000 132 088 020 096 024 000 112 072 076 112 072 076
176 140 104 000 000 000 068 012 000 096 056 000 080 024 000
096 048 000 000 000 000 080 040 000 080 000 000 088 012 000
088 024 000 152 096 000 112 056 000 064 000 000 080 000 000
064 000 000 120 048 000 072 000 000 104 040 000 144 112 072
096 048 000 096 056 000 088 012 000 096 048 000 104 064 000
104 072 016 104 072 016 108 080 044 056 032 016 056 024 000
108 080 044 144 104 044 096 048 000 104 072 016 088 048 000
000 000 000 000 000 000 020 024 016 008 000 000 000 000 000
040 000 000 000 000 000 000 000 000 000 000 000 000 000 000
000 000 000 104 116 084 072 000 000 156 152 156 104 116 084
160 160 136 160 160 136 168 104 044 128 012 000 080 000 000
056 000 000 080 012 000 104 012 000 068 012 000 000 000 000
112 072 000 072 000 000 088 012 000 152 172 156 000 000 000
000 000 000 108 080 044 112 048 000 088 012 000 120 072 000
056 024 000 000 000 000 112 036 000 132 052 000 104 048 000
148 116 020 168 112 012 048 000 000 104 040 000 184 136 072
088 024 000 104 040 000 120 080 016 108 060 044 120 080 016
108 080 044 080 072 016 064 060 000 080 032 000 108 080 044
108 080 044 064 024 000 108 080 044 064 032 000 056 032 016
080 040 000 064 024 000 064 032 000 024 008 000 000 000 000
000 000 000 148 112 052 088 032 000 112 056 000 056 024 000
000 000 000 040 048 076 000 000 000 000 000 000 000 000 000
104 116 084 104 116 084 176 176 164 192 192 184 200 200 180
220 200 192 000 000 000 080 072 016 088 000 000 056 000 000
120 056 000 104 040 000 088 012 000 000 000 000 064 000 000
080 024 000 108 080 044 096 048 000 160 200 192 000 000 000
000 000 000 108 080 044 104 080 016 132 096 048 080 040 000
000 000 000 132 052 000 132 052 000 136 068 000 120 080 000
136 080 000 096 024 000 112 036 000 072 000 000 080 024 000
056 000 000 096 040 000 056 012 000 056 000 000 056 012 000
080 040 000 056 024 000 104 072 016 056 032 016 080 040 016
048 040 000 064 060 000 056 032 016 024 008 000 056 012 000
024 000 000 056 032 016 000 000 000 000 000 000 040 000 000
064 000 000 068 012 000 000 000 000 068 048 100 096 024 000
088 032 000 104 012 000 072 000 000 000 000 000 152 172 156
104 116 084 088 000 000 120 144 176 184 160 124 000 000 000
000 000 000 080 000 000 112 036 000 096 024 000 104 028 016
136 068 000 136 088 000 000 000 000 148 124 120 088 024 000
120 048 000 132 088 020 000 000 000 000 000 000 000 000 000
112 048 000 088 048 000 144 104 044 084 044 044 000 000 000
136 068 000 136 080 000 088 000 000 088 040 000 136 080 000
128 072 000 112 048 000 080 024 000 088 032 000 064 000 000
088 012 000 048 040 000 024 000 000 040 000 000 040 000 000
024 008 000 096 068 000 096 068 000 080 048 000 056 012 000
080 048 000 056 000 000 056 024 000 056 012 000 000 000 000
000 000 000 000 000 000 000 000 000 056 024 000 024 008 000
000 000 000 000 000 000 008 000 000 064 000 000 128 012 000
000 000 000 000 000 000 000 000 000 020 024 016 104 116 084
136 120 084 000 000 000 000 000 000 064 000 000 072 000 000
088 012 000 132 052 000 104 028 016 128 064 000 112 036 000
104 040 000 000 000 000 224 224 224 064 000 000 080 012 000
108 080 044 088 032 000 112 056 000 104 064 000 128 096 032
112 036 000 112 056 000 000 000 000 008 000 000 112 012 000
088 000 000 104 012 000 080 012 000 160 112 044 160 112 044
056 000 000 072 000 000 112 056 000 104 040 000 088 024 000
032 000 000 024 000 000 056 032 016 016 000 000 056 024 000
088 048 000 088 040 000 080 048 000 080 040 016 080 032 000
088 040 000 088 032 000 072 024 000 064 000 000 024 000 000
000 000 000 024 008 000 096 056 000 008 000 000 000 000 000
128 012 000 000 000 000 000 000 000 000 000 000 000 000 000
000 000 000 000 000 000 024 000 000 040 000 000 088 024 000
080 000 000 056 000 000 056 000 000 096 008 000 112 036 000
132 080 016 132 052 000 152 084 000 136 068 000 104 048 000
056 000 000 008 000 000 192 192 200 088 032 000 120 072 000
112 048 000 164 136 092 112 036 000 168 120 052 080 040 016
104 116 084 000 000 000 104 048 000 072 000 000 048 000 000
088 012 000 068 012 000 072 000 000 064 000 000 032 000 000
040 000 000 088 012 000 088 000 000 064 000 000 048 000 000
068 012 000 064 024 000 040 000 000 040 000 000 024 008 000
088 048 000 056 012 000 056 012 000 056 012 000 072 024 000
088 024 000 056 000 000 072 000 000 000 000 000 000 000 000
032 036 044 096 056 000 000 000 000 016 000 000 000 000 000
000 000 000 000 000 000 016 000 000 040 000 000 000 000 000
104 028 016 088 000 000 104 012 000 128 012 000 120 056 000
104 012 000 088 000 000 136 068 000 152 084 000 148 096 020
144 084 016 152 084 000 096 024 000 080 012 000 096 040 000
000 000 000 000 000 000 156 152 156 128 080 000 132 088 020
144 104 044 152 104 044 136 068 000 104 116 084 000 000 000
000 000 000 072 000 000 064 000 000 040 000 000 048 000 000
072 000 000 080 000 000 152 104 020 144 104 044 064 000 000
128 072 000 120 048 000 120 056 000 088 048 000 072 024 000
080 048 000 104 048 000 088 012 000 132 088 020 088 040 000
056 012 000 088 032 000 096 040 000 048 000 000 096 008 000
112 056 000 096 024 000 072 000 000 000 000 000 000 000 000
108 080 044 072 024 000 000 000 000 000 000 000 000 000 000
136 080 000 152 036 012 000 000 000 000 000 000 120 048 000
112 048 000 132 052 000 136 068 000 160 096 012 144 084 016
152 084 000 168 100 000 132 052 000 152 084 000 144 088 000
152 084 000 120 056 000 112 036 000 096 032 000 128 080 000
000 000 000 000 000 000 160 160 136 048 136 176 148 124 112
064 056 176 064 056 176 000 000 000 000 000 000 088 000 000
112 036 000 104 012 000 088 012 000 104 040 000 104 056 000
068 012 000 068 012 000 144 104 044 072 000 000 104 040 000
096 032 000 148 096 020 088 032 000 096 048 000 104 056 000
104 056 000 064 024 000 104 072 016 136 080 000 148 096 020
132 088 020 064 000 000 088 024 000 112 056 000 112 012 000
088 000 000 056 000 000 040 000 000 000 000 000 160 160 136
104 040 000 056 012 000 088 040 000 080 012 000 128 064 000
120 048 000 000 000 000 024 000 000 152 084 016 136 068 000
144 088 000 168 100 016 168 100 000 168 100 016 168 104 044
176 112 044 176 112 044 160 112 044 148 112 052 152 104 020
144 096 000 120 056 000 104 012 000 088 012 000 088 032 000
016 000 000 088 000 000 000 000 000 020 024 016 020 024 016
000 000 000 000 000 000 104 040 000 104 012 000 104 048 000
136 088 000 112 056 000 128 072 000 112 072 000 088 024 000
096 024 000 120 100 000 132 088 008 120 072 000 112 048 000
152 104 004 056 024 000 088 048 000 104 048 000 120 072 000
096 024 000 104 064 016 128 072 000 132 080 016 112 048 000
096 008 000 104 012 000 088 000 000 080 000 000 068 012 000
112 012 000 104 012 000 000 000 000 000 000 000 156 152 156
084 044 044 120 080 016 120 080 016 112 072 076 000 000 000
000 000 000 144 104 044 160 096 012 152 084 000 168 112 012
176 120 044 176 112 044 152 084 000 184 084 012 176 104 012
160 096 012 176 120 044 168 112 012 168 112 012 176 120 044
160 104 000 128 072 000 136 088 000 112 048 000 104 048 000
132 052 000 088 024 000 000 000 000 080 012 000 168 112 012
160 096 012 136 080 000 128 088 000 136 088 000 144 088 000
152 096 000 132 108 000 144 104 004 152 104 004 144 096 000
112 080 000 144 104 020 168 112 012 136 088 000 144 104 020
032 000 000 024 000 000 056 000 000 120 056 000 096 048 000
096 032 000 136 068 000 104 040 000 096 024 000 080 000 000
088 000 000 096 024 000 104 032 000 096 024 000 112 012 000
120 064 000 032 000 000 000 000 000 000 000 000 020 024 016
020 040 000 020 024 016 000 000 000 000 000 000 136 096 016
176 112 044 160 112 044 148 096 020 148 096 020 168 100 016
176 112 044 168 100 016 176 104 012 168 100 000 160 104 000
168 100 016 152 084 000 208 120 012 176 128 012 200 132 044
200 132 044 168 112 012 184 132 044 168 112 012 168 100 000
168 112 012 160 120 012 184 132 044 168 100 000 160 104 000
160 104 000 136 080 000 144 088 000 136 068 000 136 080 000
168 112 012 176 140 072 152 104 004 144 104 004 144 096 000
144 104 004 160 120 012 176 128 012 176 120 044 024 008 000
056 012 000 096 048 000 120 080 016 104 012 000 120 056 000
136 068 000 128 072 000 104 032 000 088 000 000 132 052 000
112 048 000 120 056 000 128 064 000 132 052 000 120 056 000
096 008 000 112 048 000 064 024 000 000 000 000 000 000 000
000 000 000 000 000 000 144 088 000 168 112 012 168 112 012
152 084 000 112 036 000 144 096 000 144 080 000 160 096 012
168 112 012 144 088 000 160 096 012 160 096 012 148 096 020
152 084 000 132 052 000 120 048 000 168 100 016 200 132 044
200 132 044 200 132 044 200 132 044 176 128 012 200 132 044
168 128 012 164 136 092 200 132 044 176 136 044 176 136 044
200 132 044 168 112 012 152 096 000 160 112 044 168 112 012
160 104 000 176 136 044 148 116 004 168 112 012 184 132 044
200 132 044 184 084 012 200 132 044 024 000 000 024 000 000
120 048 000 152 084 000 112 012 000 132 052 000 104 032 000
136 080 000 120 048 000 132 052 000 132 052 000 128 072 000
136 068 000 136 068 000 112 056 000 132 052 000 120 048 000
136 080 000 128 072 000 128 072 000 136 080 000 136 080 000
144 096 000 152 084 000 160 104 000 168 100 000 152 084 000
136 068 000 208 120 012 152 084 000 160 096 012 176 120 044
112 048 000 128 064 000 120 048 000 152 096 000 168 100 000
208 120 012 176 104 012 200 136 072 176 128 012 200 132 044
200 132 044 200 132 044 200 132 044 216 164 076 164 160 104
168 128 012 200 132 044 200 132 044 216 164 076 200 132 044
164 136 092 200 132 044 168 112 012 208 120 012 176 104 012
176 120 044 176 128 012 200 132 044 216 164 076 200 132 044
176 136 044 176 136 044 088 048 000 080 040 000 132 052 000
152 084 000 168 104 044 176 120 044 160 112 044 168 112 012
160 096 012 160 096 012 152 084 000 148 096 020 132 052 000
136 068 000 132 052 000 136 068 000 176 104 012 128 036 000
132 052 000 184 084 012 132 052 000 168 100 000 168 112 012
168 100 000 152 084 000 152 084 000 168 100 000 136 068 000
152 096 000 160 096 012 160 096 012 168 112 012 152 096 000
144 080 000 136 068 000 160 096 012 152 084 000 168 112 012
152 084 000 176 104 012 176 104 012 168 100 000 200 132 044
176 128 012 200 132 044 216 164 076 168 128 012 168 128 012
200 132 044 200 132 044 168 128 012 168 128 012 216 164 076
152 124 036 176 104 012 176 104 012 200 132 044 200 132 044
200 132 044 200 132 044 200 132 044 200 132 044 176 128 012
168 128 012 144 112 072 144 084 016 152 084 016 168 104 044
168 104 044 176 120 044 176 120 044 176 120 044 168 100 000
152 084 000 152 084 000 160 096 012 152 084 000 168 100 000
152 084 000 096 008 000 152 084 000 144 104 044 184 084 012
208 120 012 184 084 012 168 100 000 208 120 012 176 104 012
176 104 012 168 112 012 160 096 012 160 096 012 152 084 000
160 096 012 208 120 012 168 112 012 136 088 000 112 056 000
120 056 000 132 052 000 144 080 000 152 084 000 132 052 000
168 100 000 160 096 012 168 100 000 208 120 012 168 100 000
200 132 044 176 128 012 176 128 012 200 132 044 168 112 012
200 132 044 168 128 012 168 112 012 168 128 012 168 100 000
152 084 000 152 084 000 208 120 012 168 128 036 168 112 012
176 128 012 160 120 012 168 112 012 168 112 012 168 112 012
180 120 072 160 104 016 168 104 044 152 084 000 152 084 016
176 120 044 132 080 016 160 096 012 144 080 000 132 052 000
144 088 000 144 084 016 148 096 008 168 100 016 128 080 000
120 048 000 152 036 012 152 084 000 132 052 000 136 068 000
168 100 000 152 084 000 160 096 012 176 104 012 160 096 012
168 112 012 168 112 012 160 096 012 152 084 000 168 100 000
176 104 012 168 112 012 176 104 012 168 112 012 168 100 000
152 104 004 176 120 044 176 120 044 176 128 012 176 120 044
176 120 044 176 104 012 200 132 044 176 128 012 152 096 000
176 104 012 160 104 000 148 116 004 144 080 000 152 096 000
168 112 012 176 104 012 184 084 012 152 084 000 132 052 000
168 112 012 176 128 012 168 112 012 168 112 012 160 104 000
152 104 004 176 128 012 160 120 012 120 072 000 144 084 016
144 088 000 152 104 044 132 088 020 132 088 020 152 084 000
120 064 000 112 056 000 112 072 000 088 012 000 088 012 000
120 072 000 148 096 020 136 088 000 128 064 000 112 048 000
136 068 000 132 052 000 132 052 000 120 064 000 128 036 000
112 012 000 120 048 000 112 048 000 144 088 000 136 068 000
152 096 000 144 088 000 136 068 000 152 084 000 144 080 000
128 036 000 160 104 000 168 112 012 168 112 012 168 112 012
176 120 044 184 132 044 168 128 036 144 088 000 152 096 000
168 112 012 168 112 012 160 104 000 136 088 000 152 096 000
160 096 012 144 088 000 136 088 000 160 104 000 168 112 012
160 096 012 128 036 000 144 080 000 144 088 000 152 096 000
168 112 012 152 104 004 168 112 012 144 096 000 152 104 004
148 116 004 144 080 000 136 088 000 120 088 016 128 088 000
144 080 000 148 096 020 152 084 016 144 096 000 168 112 012
160 104 000 112 036 000 032 000 000 112 064 000 120 064 000
120 064 000 056 000 000 064 024 000 112 048 000 096 024 000
104 040 000 104 040 000 072 000 000 072 000 000 072 000 000
056 000 000 040 000 000 104 032 000 120 072 000 136 080 000
120 056 000 088 032 000 112 048 000 096 040 000 112 056 000
128 072 000 120 056 000 136 068 000 136 088 000 128 080 000
148 096 008 160 104 016 136 088 000 120 056 000 136 088 000
136 068 000 144 088 000 152 084 000 112 056 000 136 080 000
128 064 000 136 096 016 144 096 000 160 104 000 144 088 000
128 080 000 128 072 000 128 080 000 148 112 040 136 080 000
152 096 000 144 104 004 144 096 000 148 116 004 128 088 000
136 088 000 096 048 000 124 096 016 112 080 000 080 024 000
096 040 000 120 072 000 152 096 000 168 112 012 144 088 000
120 080 000 068 012 000 088 048 000 080 040 000 096 068 000
112 064 000 072 024 000 080 040 000 080 012 000 096 032 000
112 036 000 000 000 000 032 000 000 096 068 000 048 000 000
000 000 000 040 000 000 096 024 000 104 056 000 104 040 000
068 012 000 068 012 000 048 000 000 056 000 000 088 032 000
088 040 000 096 040 000 096 032 000 080 048 000 112 064 000
112 072 000 080 000 000 096 032 000 088 024 000 136 068 000
120 048 000 120 056 000 112 036 000 112 036 000 112 048 000
120 064 000 132 052 000 132 052 000 144 088 000 128 088 000
104 048 000 136 088 000 144 096 000 128 072 000 112 056 000
144 096 000 144 096 000 132 108 000 120 088 016 096 068 000
096 056 000 120 072 000 120 072 000 152 104 004 176 136 044
128 088 000 148 116 004 160 120 012 152 104 004 080 032 000
056 024 000 072 024 000 080 024 000 096 032 000 120 080 000
128 064 000 032 000 000 040 000 000 032 000 000 068 012 000
088 032 000 104 080 016 120 072 000 096 048 000 088 000 000
064 000 000 080 024 000 128 080 000 112 056 000 104 048 000
096 040 000 112 036 000 120 064 000 068 012 000 016 000 000
048 040 000 072 024 000 088 048 000 048 000 000 056 012 000
088 032 000 104 032 000 056 024 000 152 084 000 132 052 000
096 032 000 120 072 000 104 032 000 112 056 000 104 032 000
088 032 000 080 000 000 072 000 000 088 040 000 112 064 000
128 080 000 112 072 000 104 048 000 128 088 000 120 088 016
136 088 000 104 048 000 144 096 000 104 056 000 104 056 000
148 112 032 144 104 004 120 088 016 132 108 000 144 104 020
148 116 020 120 100 000 148 116 004 148 128 052 132 108 000
096 068 000 132 108 000 168 112 012 136 088 000 136 088 000
168 100 000 148 112 032 148 112 052 148 112 052 148 116 004
168 132 052 216 164 076 120 100 000 120 100 000 128 080 000
112 072 000 056 000 000 080 040 000 120 088 016 128 088 000
144 096 000 112 072 000 088 032 000 096 040 000 120 088 016
132 108 000 120 072 000 104 056 000 152 104 020 112 080 000
088 040 000 104 040 000 132 052 000 128 064 000 064 024 000
112 080 000 128 036 000 064 000 000 096 008 000 080 000 000
056 000 000 048 000 000 016 000 000 080 012 000 096 056 000
168 128 012 200 132 044 120 088 016 148 116 020 216 164 076
168 136 072 148 116 020 148 116 020 112 056 000 144 104 020
128 112 016 128 112 044 148 112 052 160 120 012 144 104 004
132 108 000 120 100 000 148 128 052 148 112 052 100 080 000
152 104 004 120 100 000 120 088 016 184 152 088 168 112 012
144 104 020 120 100 000 104 072 000 104 096 000 112 072 000
176 136 044 160 104 000 136 068 000 144 104 004 128 112 016
152 124 036 176 136 044 176 136 044 152 104 020 168 120 052
176 140 072 152 124 036 168 120 052 160 112 044 176 140 072
184 136 072 160 128 052 144 104 004 144 104 004 184 152 088
168 132 052 200 136 072 168 112 012 128 112 044 148 116 020
152 104 004 168 128 012 200 132 044 128 088 000 120 100 000
136 096 016 128 112 016 112 072 000 148 116 020 144 104 004
132 108 000 144 104 020 128 112 016 168 112 012 132 108 000
184 152 088 200 132 044 124 096 016 128 096 032 176 128 072
148 096 020 136 088 000 148 096 020 132 088 020 176 112 072
128 112 016 168 120 052 120 088 016 104 072 000 080 048 000
104 096 000 132 108 000 144 096 000 120 048 000 080 048 000
104 072 000 048 040 000 096 048 000 104 040 000 056 024 000
080 048 000 088 040 000 176 120 044 144 104 020 104 096 000
128 112 044 120 100 000 144 104 044 184 152 088 176 140 072
096 068 000 120 100 000 136 096 016 124 096 016 096 056 000
128 080 000 132 108 000 104 096 000 104 096 000 148 116 004
160 096 012 128 072 000 120 100 000 148 116 020 168 112 012
148 116 004 176 128 012 168 120 052 144 104 004 128 072 000
168 136 072 144 096 000 148 112 032 128 112 016 128 112 016
124 096 016 120 100 000 132 108 000 120 100 000 148 116 020
152 124 036 132 108 000 160 112 044 200 136 072 168 104 044
184 152 088 184 152 088 184 152 088 176 140 072 176 140 072
176 140 072 168 132 052 184 132 044 160 112 044 148 116 004
120 088 016 128 072 000 128 080 000 120 100 000 148 096 008
120 100 000 128 080 000 120 080 000 120 088 016 144 104 020
136 088 000 152 104 020 136 096 016 144 104 020 120 100 000
104 056 000 124 096 016 128 096 032 160 128 052 144 104 044
088 048 000 120 100 000 096 068 000 088 048 000 096 048 000
072 000 000 120 080 000 120 088 016 136 068 000 144 080 000
136 068 000 112 056 000 136 088 000 160 096 012 144 096 000
144 088 000 152 084 000 168 100 000 144 096 000 104 100 016
112 080 000 088 048 000 096 068 000 104 072 000 100 080 000
104 096 000 124 096 016 096 048 000 096 056 000 120 088 016
124 096 016 176 128 072 184 136 072 216 164 076 216 164 076
184 152 088 216 164 076 184 152 088 164 136 092 164 136 092
176 136 092 176 140 072 176 112 072 132 096 048 132 096 048
128 072 000 056 024 000 068 012 000 080 024 000 064 024 000
080 024 000 056 000 000 104 040 000 128 064 000 056 012 000
096 068 000 080 032 000 040 000 000 024 008 000 080 048 000
112 072 000 088 048 000 080 040 000 088 024 000 112 072 000
112 072 000 100 080 000 120 080 000 112 064 000 120 080 000
112 072 000 104 056 000 096 068 000 144 080 000 132 052 000
112 064 000 144 088 000 152 096 000 112 056 000 132 052 000
132 052 000 112 072 000 132 088 020 104 072 000 080 032 000
104 072 000 096 068 000 096 068 000 148 112 052 160 120 012
152 124 036 128 112 016 132 108 000 148 112 032 136 096 016
168 120 052 200 136 072 200 136 072 184 152 088 176 140 072
184 152 088 184 152 088 184 152 088 184 152 088 192 136 092
216 164 076 176 140 104 176 112 072 176 140 104 176 112 072
124 096 016 088 040 000 132 096 048 132 088 020 112 056 000
104 056 000 088 024 000 104 040 000 056 012 000 088 032 000
068 012 000 016 000 000 032 000 000 080 040 000 056 012 000
088 040 000 112 080 000 104 048 000 056 000 000 080 012 000
128 072 000 108 080 044 104 064 000 112 036 000 112 036 000
072 000 000 104 040 000 132 052 000 132 052 000 112 048 000
120 048 000 112 036 000 132 052 000 112 036 000 112 048 000
096 056 000 096 056 000 088 024 000 040 000 000 056 032 016
080 040 000 080 048 000 088 048 000 080 048 000 120 080 000
088 040 000 080 040 000 120 088 016 104 064 000 168 128 036
176 140 072 200 132 044 200 132 044 216 164 076 176 140 072
176 140 072 176 136 044 176 136 044 184 152 088 168 136 072
184 136 072 176 140 104 176 140 104 176 112 072 148 112 052
168 104 044 176 136 092 148 120 072 144 084 016 152 104 044
148 096 020 168 100 016 132 088 008 148 096 020 152 104 044
132 088 008 128 072 000 144 104 044 088 040 000 088 048 000
088 048 000 120 072 000 112 036 000 104 032 000 152 104 044
152 104 044 148 096 020 144 088 000 128 072 000 128 064 000
096 040 000 120 056 000 128 036 000 184 084 012 160 096 012
168 100 016 152 084 000 128 080 000 128 072 000 096 048 000
120 072 000 104 048 000 104 080 016 120 080 016 096 056 000
112 072 000 104 080 016 128 096 032 144 104 044 144 104 020
104 080 016 144 104 044 108 080 044 148 128 052 148 128 052
176 136 044 168 128 012 200 132 044 216 164 076 176 140 104
184 152 088 184 152 088 148 128 052 160 128 052 168 132 052
184 152 088 192 136 092 152 124 036 168 132 052 168 100 016
176 128 072 168 112 012 168 100 000 176 112 044 168 120 052
160 104 000 152 084 000 192 136 092 216 168 124 152 104 020
168 136 072 176 128 072 132 088 020 132 088 020 132 096 048
148 096 020 128 072 000 104 048 000 152 104 044 148 116 020
152 104 044 136 096 016 112 036 000 128 072 000 112 036 000
132 052 000 152 036 012 152 084 000 168 100 000 168 100 000
136 068 000 152 084 000 152 104 004 120 088 016 160 112 044
144 104 020 144 104 020 152 104 044 148 116 020 108 080 044
144 112 072 148 128 052 148 112 032 148 128 052 144 104 044
148 112 032 152 124 036 132 108 000 160 120 012 128 112 044
152 124 036 152 124 036 164 136 092 176 140 104 164 136 092
176 140 104 148 112 040 168 120 052 160 120 012 168 132 052
160 128 052 148 116 020 168 132 052 168 100 000 168 112 012
144 104 020 144 096 000 144 084 016 160 104 016 176 120 044
160 112 044 192 136 092 200 136 072 168 112 012 168 112 012
176 140 072 184 132 044 168 120 052 148 112 032 152 096 000
148 112 040 120 088 016 160 112 044 176 128 072 160 112 044
160 120 012 136 088 000 112 036 000 144 080 000 132 052 000
132 052 000 152 036 012 152 036 012 184 084 012 152 036 012
184 084 012 168 100 000 152 104 020 160 112 044 168 120 052
168 120 052 160 128 052 168 112 012 144 104 004 144 104 020
176 140 072 152 124 036 148 112 052 148 112 052 128 112 044
160 112 044 124 096 016 148 112 052 168 136 072 104 096 000
120 100 000 176 140 072 184 152 088 216 164 076 152 136 072
160 128 052 148 112 032 152 124 036 160 128 052 148 112 052
148 112 052 168 112 012 168 112 012 152 084 000 144 104 020
160 112 044 176 120 044 148 096 020 160 120 012 176 112 044
184 132 044 176 128 072 176 140 072 160 112 044 176 136 044
176 140 072 176 140 072 176 140 072 160 128 052 176 128 072
148 096 008 144 084 016 184 132 044 152 084 000 148 116 004
136 088 000 168 112 012 168 112 012 132 052 000 128 036 000
152 084 000 128 012 000 152 084 000 132 052 000 128 036 000
176 112 044 168 136 072 160 104 016 168 132 052 184 132 044
160 128 052 160 112 044 144 088 000 168 120 052 160 128 052
152 124 036 148 112 040 152 124 036 148 112 052 148 116 020
168 136 072 160 120 012 112 080 000 104 100 016 132 088 020
164 160 104 176 140 072 168 136 072 148 128 052 128 112 016
148 116 020 152 124 036 160 112 044 160 128 052 148 112 040
148 096 020 160 120 012 160 096 012 148 116 020 160 112 044
176 120 044 136 068 000 160 112 044 168 120 052 168 120 052
160 104 016 168 112 012 136 068 000 152 084 000 168 120 052
168 120 052 168 120 052 184 132 044 176 128 072 148 112 040
128 072 000 160 104 016 148 096 020 136 080 000 136 068 000
168 112 012 176 104 012 144 080 000 128 036 000 128 036 000
144 036 012 128 036 000 128 036 000 136 068 000 176 104 012
176 120 044 144 088 000 168 120 052 168 128 012 144 096 000
160 112 044 160 112 044 148 096 020 148 116 020 144 096 000
152 104 004 136 096 016 124 096 016 168 120 052 152 084 016
144 088 000 132 096 048 132 108 000 148 112 052 168 120 052
152 136 072 148 112 052 148 112 040 176 140 072 160 128 052
132 108 000 128 112 016 144 104 004 128 088 000 160 104 016
152 104 020 136 068 000 120 072 000 160 112 044 160 104 016
148 096 020 148 116 020 168 112 012 152 104 044 148 096 008
160 120 012 160 104 016 160 104 000 160 096 012 176 112 044
176 120 044 160 104 000 152 104 044 152 104 020 144 080 000
160 104 000 144 104 004 136 080 000 152 084 000 176 104 012
136 068 000 112 048 000 096 008 000 112 012 000 152 084 000
144 080 000 112 012 000 132 052 000 152 036 012 132 052 000
152 096 000 144 104 004 128 088 000 124 096 016 168 120 052
168 120 052 152 084 000 136 080 000 120 088 016 128 088 000
132 088 020 136 068 000 136 080 000 184 132 044 168 100 016
104 080 016 128 112 044 160 128 052 148 128 052 128 096 032
148 128 052 148 096 020 144 104 044 120 088 016 120 088 016
112 080 000 120 100 000 132 108 000 144 096 000 128 088 000
136 088 000 124 096 016 144 104 004 148 112 040 128 088 000
144 096 000 168 120 052 144 096 000 120 088 016 144 096 000
144 096 000 148 096 020 144 080 000 152 084 000 176 112 044
144 096 000 120 088 016 136 080 000 128 036 000 152 084 000
144 096 000 096 048 000 104 012 000 152 036 012 152 036 012
080 000 000 088 000 000 144 036 012 112 012 000 112 036 000
096 024 000 128 012 000 132 052 000 144 096 000 148 096 020
120 100 000 144 088 000 136 088 000 148 096 020 160 096 012
112 048 000 096 040 000 104 056 000 104 072 000 112 064 000
112 036 000 144 096 000 176 104 012 176 120 044 164 136 092
148 132 092 176 112 072 148 120 072 120 096 048 112 080 000
148 096 008 144 104 020 128 096 032 096 068 000 120 088 016
112 072 000 120 088 016 112 080 000 056 000 000 132 052 000
120 056 000 120 100 000 144 104 020 120 088 016 128 088 000
144 104 020 096 048 000 112 056 000 112 064 000 120 100 000
148 096 020 136 068 000 132 052 000 136 068 000 144 096 000
112 048 000 096 032 000 128 012 000 136 080 000 104 064 000
104 064 000 152 084 000 152 036 012 128 012 000 128 080 000
096 008 000 112 036 000 120 048 000 120 064 000 128 072 000
120 048 000 104 040 000 120 064 000 128 088 000 120 088 016
136 080 000 128 064 000 136 088 000 152 096 000 112 012 000
136 068 000 096 068 000 064 024 000 096 056 000 104 040 000
104 040 000 
