<?xml version="1.0" encoding="UTF-8" standalone="no"?>
<!DOCTYPE svg PUBLIC "-//W3C//DTD SVG 1.1//EN"
 "http://www.w3.org/Graphics/SVG/1.1/DTD/svg11.dtd">
<!-- Generated by graphviz version 2.36.0 (20140111.2315)
 -->
<!-- Title: Perl Pages: 1 -->
<svg width="926pt" height="404pt"
 viewBox="0.00 0.00 926.00 404.00" xmlns="http://www.w3.org/2000/svg" xmlns:xlink="http://www.w3.org/1999/xlink">
<g id="graph0" class="graph" transform="scale(1 1) rotate(0) translate(4 400)">
<title>Perl</title>
<polygon fill="white" stroke="none" points="-4,4 -4,-400 922,-400 922,4 -4,4"/>
<!-- My::Example::Class -->
<g id="node1" class="node"><title>My::Example::Class</title>
<polygon fill="none" stroke="black" stroke-width="2" points="408.142,-36 313.858,-36 313.858,-0 408.142,-0 408.142,-36"/>
<text text-anchor="middle" x="361" y="-15.3" font-family="Helvettica" font-size="9.00">My::Example::Class</text>
</g>
<!-- My::Example::Superclass -->
<g id="node2" class="node"><title>My::Example::Superclass</title>
<polygon fill="none" stroke="black" stroke-width="2" points="419.154,-108 302.846,-108 302.846,-72 419.154,-72 419.154,-108"/>
<text text-anchor="middle" x="361" y="-87.3" font-family="Helvettica" font-size="9.00">My::Example::Superclass</text>
</g>
<!-- My::Example::Superclass&#45;&#45;My::Example::Class -->
<g id="edge1" class="edge"><title>My::Example::Superclass&#45;&#45;My::Example::Class</title>
<path fill="none" stroke="black" d="M361,-71.6966C361,-60.8463 361,-46.9167 361,-36.1043"/>
</g>
<!-- My::Example::Role::StarTrek -->
<g id="node3" class="node"><title>My::Example::Role::StarTrek</title>
<polygon fill="none" stroke="black" points="281.027,-180 150.973,-180 150.973,-144 281.027,-144 281.027,-180"/>
<text text-anchor="middle" x="216" y="-159.3" font-family="Helvettica" font-size="9.00">My::Example::Role::StarTrek</text>
</g>
<!-- My::Example::Role::StarTrek&#45;&#45;My::Example::Superclass -->
<g id="edge2" class="edge"><title>My::Example::Role::StarTrek&#45;&#45;My::Example::Superclass</title>
<path fill="none" stroke="black" d="M251.471,-143.876C274.024,-132.988 303.113,-118.945 325.644,-108.068"/>
</g>
<!-- My::Example::Role::TVSeries -->
<g id="node4" class="node"><title>My::Example::Role::TVSeries</title>
<polygon fill="none" stroke="black" points="132.154,-252 -0.154232,-252 -0.154232,-216 132.154,-216 132.154,-252"/>
<text text-anchor="middle" x="66" y="-231.3" font-family="Helvettica" font-size="9.00">My::Example::Role::TVSeries</text>
</g>
<!-- My::Example::Role::TVSeries&#45;&#45;My::Example::Role::StarTrek -->
<g id="edge3" class="edge"><title>My::Example::Role::TVSeries&#45;&#45;My::Example::Role::StarTrek</title>
<path fill="none" stroke="black" d="M102.694,-215.876C126.025,-204.988 156.117,-190.945 179.425,-180.068"/>
</g>
<!-- My::Example::Role::Buffy -->
<g id="node15" class="node"><title>My::Example::Role::Buffy</title>
<polygon fill="none" stroke="black" points="126.158,-108 9.84235,-108 9.84235,-72 126.158,-72 126.158,-108"/>
<text text-anchor="middle" x="68" y="-87.3" font-family="Helvettica" font-size="9.00">My::Example::Role::Buffy</text>
</g>
<!-- My::Example::Role::TVSeries&#45;&#45;My::Example::Role::Buffy -->
<g id="edge16" class="edge"><title>My::Example::Role::TVSeries&#45;&#45;My::Example::Role::Buffy</title>
<path fill="none" stroke="black" d="M66.2412,-215.871C66.6257,-188.578 67.373,-135.52 67.7579,-108.189"/>
</g>
<!-- My::Example::Role::Flintstones -->
<g id="node16" class="node"><title>My::Example::Role::Flintstones</title>
<polygon fill="none" stroke="black" points="284.033,-108 143.967,-108 143.967,-72 284.033,-72 284.033,-108"/>
<text text-anchor="middle" x="214" y="-87.3" font-family="Helvettica" font-size="9.00">My::Example::Role::Flintstones</text>
</g>
<!-- My::Example::Role::TVSeries&#45;&#45;My::Example::Role::Flintstones -->
<g id="edge18" class="edge"><title>My::Example::Role::TVSeries&#45;&#45;My::Example::Role::Flintstones</title>
<path fill="none" stroke="black" d="M78.6774,-215.914C92.9771,-197.207 117.454,-166.835 142,-144 156.206,-130.785 173.705,-117.839 187.894,-108.05"/>
</g>
<!-- My::Example::Role::Tribute::__ANON__::SERIAL::5 -->
<g id="node5" class="node"><title>My::Example::Role::Tribute::__ANON__::SERIAL::5</title>
<polygon fill="none" stroke="black" stroke-dasharray="1,5" points="423.155,-180 298.845,-180 298.845,-144 423.155,-144 423.155,-180"/>
<text text-anchor="middle" x="361" y="-159.3" font-family="Helvettica" font-size="9.00">My::Example::Role::Tribute</text>
</g>
<!-- My::Example::Role::Tribute::__ANON__::SERIAL::5&#45;&#45;My::Example::Superclass -->
<g id="edge4" class="edge"><title>My::Example::Role::Tribute::__ANON__::SERIAL::5&#45;&#45;My::Example::Superclass</title>
<path fill="none" stroke="black" d="M361,-143.697C361,-132.846 361,-118.917 361,-108.104"/>
</g>
<!-- My::Example::Role::Tribute -->
<g id="node6" class="node"><title>My::Example::Role::Tribute</title>
<polygon fill="none" stroke="black" stroke-dasharray="5,2" points="275.155,-252 150.845,-252 150.845,-216 275.155,-216 275.155,-252"/>
<text text-anchor="middle" x="213" y="-231.3" font-family="Helvettica" font-size="9.00">My::Example::Role::Tribute</text>
</g>
<!-- My::Example::Role::Tribute&#45;&#45;My::Example::Role::Tribute::__ANON__::SERIAL::5 -->
<g id="edge5" class="edge"><title>My::Example::Role::Tribute&#45;&#45;My::Example::Role::Tribute::__ANON__::SERIAL::5</title>
<path fill="none" stroke="black" d="M249.205,-215.876C272.225,-204.988 301.915,-190.945 324.913,-180.068"/>
</g>
<!-- My::Example::Role::JackBlack -->
<g id="node7" class="node"><title>My::Example::Role::JackBlack</title>
<polygon fill="none" stroke="black" points="430.279,-252 293.721,-252 293.721,-216 430.279,-216 430.279,-252"/>
<text text-anchor="middle" x="362" y="-231.3" font-family="Helvettica" font-size="9.00">My::Example::Role::JackBlack</text>
</g>
<!-- My::Example::Role::JackBlack&#45;&#45;My::Example::Role::Tribute::__ANON__::SERIAL::5 -->
<g id="edge6" class="edge"><title>My::Example::Role::JackBlack&#45;&#45;My::Example::Role::Tribute::__ANON__::SERIAL::5</title>
<path fill="none" stroke="black" d="M361.753,-215.697C361.598,-204.846 361.399,-190.917 361.244,-180.104"/>
</g>
<!-- My::Example::Baseclass -->
<g id="node8" class="node"><title>My::Example::Baseclass</title>
<polygon fill="none" stroke="black" stroke-width="2" points="555.025,-180 440.975,-180 440.975,-144 555.025,-144 555.025,-180"/>
<text text-anchor="middle" x="498" y="-159.3" font-family="Helvettica" font-size="9.00">My::Example::Baseclass</text>
</g>
<!-- My::Example::Baseclass&#45;&#45;My::Example::Superclass -->
<g id="edge7" class="edge"><title>My::Example::Baseclass&#45;&#45;My::Example::Superclass</title>
<path fill="none" stroke="black" d="M464.486,-143.876C443.256,-133.029 415.897,-119.05 394.643,-108.19"/>
</g>
<!-- My::Example::Role::ShedColor::__ANON__::SERIAL::2 -->
<g id="node9" class="node"><title>My::Example::Role::ShedColor::__ANON__::SERIAL::2</title>
<polygon fill="none" stroke="black" stroke-dasharray="1,5" points="587.288,-252 448.712,-252 448.712,-216 587.288,-216 587.288,-252"/>
<text text-anchor="middle" x="518" y="-231.3" font-family="Helvettica" font-size="9.00">My::Example::Role::ShedColor</text>
</g>
<!-- My::Example::Role::ShedColor::__ANON__::SERIAL::2&#45;&#45;My::Example::Baseclass -->
<g id="edge8" class="edge"><title>My::Example::Role::ShedColor::__ANON__::SERIAL::2&#45;&#45;My::Example::Baseclass</title>
<path fill="none" stroke="black" d="M513.056,-215.697C509.956,-204.846 505.976,-190.917 502.887,-180.104"/>
</g>
<!-- My::Example::Role::ShedColor -->
<g id="node10" class="node"><title>My::Example::Role::ShedColor</title>
<polygon fill="none" stroke="black" stroke-dasharray="5,2" points="587.288,-324 448.712,-324 448.712,-288 587.288,-288 587.288,-324"/>
<text text-anchor="middle" x="518" y="-303.3" font-family="Helvettica" font-size="9.00">My::Example::Role::ShedColor</text>
</g>
<!-- My::Example::Role::ShedColor&#45;&#45;My::Example::Role::ShedColor::__ANON__::SERIAL::2 -->
<g id="edge9" class="edge"><title>My::Example::Role::ShedColor&#45;&#45;My::Example::Role::ShedColor::__ANON__::SERIAL::2</title>
<path fill="none" stroke="black" d="M518,-287.697C518,-276.846 518,-262.917 518,-252.104"/>
</g>
<!-- My::Example::Role::PickRandom::__ANON__::SERIAL::3 -->
<g id="node11" class="node"><title>My::Example::Role::PickRandom::__ANON__::SERIAL::3</title>
<polygon fill="none" stroke="black" stroke-dasharray="1,5" points="752.161,-252 605.839,-252 605.839,-216 752.161,-216 752.161,-252"/>
<text text-anchor="middle" x="679" y="-231.3" font-family="Helvettica" font-size="9.00">My::Example::Role::PickRandom</text>
</g>
<!-- My::Example::Role::PickRandom::__ANON__::SERIAL::3&#45;&#45;My::Example::Baseclass -->
<g id="edge10" class="edge"><title>My::Example::Role::PickRandom::__ANON__::SERIAL::3&#45;&#45;My::Example::Baseclass</title>
<path fill="none" stroke="black" d="M634.722,-215.876C606.569,-204.988 570.259,-190.945 542.134,-180.068"/>
</g>
<!-- My::Example::Role::PickRandom -->
<g id="node12" class="node"><title>My::Example::Role::PickRandom</title>
<polygon fill="none" stroke="black" stroke-dasharray="5,2" points="835.161,-324 688.839,-324 688.839,-288 835.161,-288 835.161,-324"/>
<text text-anchor="middle" x="762" y="-303.3" font-family="Helvettica" font-size="9.00">My::Example::Role::PickRandom</text>
</g>
<!-- My::Example::Role::PickRandom&#45;&#45;My::Example::Role::PickRandom::__ANON__::SERIAL::3 -->
<g id="edge11" class="edge"><title>My::Example::Role::PickRandom&#45;&#45;My::Example::Role::PickRandom::__ANON__::SERIAL::3</title>
<path fill="none" stroke="black" d="M741.483,-287.697C728.618,-276.846 712.101,-262.917 699.281,-252.104"/>
</g>
<!-- My::Example::Role::PickRandom::__ANON__::SERIAL::4 -->
<g id="node14" class="node"><title>My::Example::Role::PickRandom::__ANON__::SERIAL::4</title>
<polygon fill="none" stroke="black" stroke-dasharray="1,5" points="918.161,-252 771.839,-252 771.839,-216 918.161,-216 918.161,-252"/>
<text text-anchor="middle" x="845" y="-231.3" font-family="Helvettica" font-size="9.00">My::Example::Role::PickRandom</text>
</g>
<!-- My::Example::Role::PickRandom&#45;&#45;My::Example::Role::PickRandom::__ANON__::SERIAL::4 -->
<g id="edge14" class="edge"><title>My::Example::Role::PickRandom&#45;&#45;My::Example::Role::PickRandom::__ANON__::SERIAL::4</title>
<path fill="none" stroke="black" d="M782.517,-287.697C795.382,-276.846 811.899,-262.917 824.719,-252.104"/>
</g>
<!-- My::Example::Role::RandomValue -->
<g id="node13" class="node"><title>My::Example::Role::RandomValue</title>
<polygon fill="none" stroke="black" points="838.174,-396 685.826,-396 685.826,-360 838.174,-360 838.174,-396"/>
<text text-anchor="middle" x="762" y="-375.3" font-family="Helvettica" font-size="9.00">My::Example::Role::RandomValue</text>
</g>
<!-- My::Example::Role::RandomValue&#45;&#45;My::Example::Role::PickRandom -->
<g id="edge12" class="edge"><title>My::Example::Role::RandomValue&#45;&#45;My::Example::Role::PickRandom</title>
<path fill="none" stroke="black" d="M762,-359.697C762,-348.846 762,-334.917 762,-324.104"/>
</g>
<!-- My::Example::Role::PickRandom::__ANON__::SERIAL::4&#45;&#45;My::Example::Baseclass -->
<g id="edge13" class="edge"><title>My::Example::Role::PickRandom::__ANON__::SERIAL::4&#45;&#45;My::Example::Baseclass</title>
<path fill="none" stroke="black" d="M771.701,-218.162C768.083,-217.431 764.5,-216.707 761,-216 690.119,-201.686 608.484,-185.241 555.207,-174.514"/>
</g>
<!-- My::Example::Role::Buffy&#45;&#45;My::Example::Class -->
<g id="edge15" class="edge"><title>My::Example::Role::Buffy&#45;&#45;My::Example::Class</title>
<path fill="none" stroke="black" d="M126.45,-74.103C129.34,-73.3873 132.202,-72.683 135,-72 196.663,-56.948 267.996,-40.3558 313.759,-29.816"/>
</g>
<!-- My::Example::Role::Flintstones&#45;&#45;My::Example::Class -->
<g id="edge17" class="edge"><title>My::Example::Role::Flintstones&#45;&#45;My::Example::Class</title>
<path fill="none" stroke="black" d="M249.96,-71.8761C272.825,-60.9882 302.315,-46.9454 325.157,-36.0683"/>
</g>
</g>
</svg>
