<?xml version="1.0" encoding="UTF-8" standalone="no"?>
<svg
   id="Layer_1"
   data-name="Layer 1"
   viewBox="0 0 986.34623 160.44618"
   version="1.1"
   sodipodi:docname="signin_with_authentik.svg"
   inkscape:version="1.2.2 (b0a8486541, 2022-12-01)"
   width="986.34625"
   height="160.44618"
   inkscape:export-filename="signin_with_authentik.png"
   inkscape:export-xdpi="18.589821"
   inkscape:export-ydpi="18.589821"
   xmlns:inkscape="http://www.inkscape.org/namespaces/inkscape"
   xmlns:sodipodi="http://sodipodi.sourceforge.net/DTD/sodipodi-0.dtd"
   xmlns:xlink="http://www.w3.org/1999/xlink"
   xmlns="http://www.w3.org/2000/svg"
   xmlns:svg="http://www.w3.org/2000/svg">
  <sodipodi:namedview
     id="namedview51"
     pagecolor="#ffffff"
     bordercolor="#666666"
     borderopacity="1.0"
     inkscape:showpageshadow="2"
     inkscape:pageopacity="0.0"
     inkscape:pagecheckerboard="0"
     inkscape:deskcolor="#d1d1d1"
     showgrid="true"
     inkscape:zoom="1.9577284"
     inkscape:cx="925.0517"
     inkscape:cy="-16.856271"
     inkscape:window-width="1600"
     inkscape:window-height="1163"
     inkscape:window-x="0"
     inkscape:window-y="0"
     inkscape:window-maximized="1"
     inkscape:current-layer="Layer_1">
    <inkscape:grid
       type="xygrid"
       id="grid3746"
       originx="-1.1920929e-07"
       originy="4.3980905" />
  </sodipodi:namedview>
  <defs
     id="defs4">
    <color-profile
       name="_3448CTO"
       xlink:href="file:///home/puck/.local/share/icc/edid-0fad9dc183b01bf6e0abf5ef5a97e802.icc"
       id="color-profile7486" />
    <style
       id="style2">.cls-1{fill:#ffffff;}</style>
  </defs>
  <rect
     style="fill:#fd4b2d;fill-opacity:1;stroke:#fd4b2d;stroke-width:0.754574"
     id="rect3689"
     width="204.24542"
     height="159.62233"
     x="0.377287"
     y="0.41192254"
     ry="0" />
  <g
     id="g3784"
     transform="translate(5.1249999,3.1880904)">
    <rect
       class="cls-1"
       x="107.1"
       y="34.93"
       width="6.3699999"
       height="18.200001"
       id="rect26" />
    <rect
       class="cls-1"
       x="123.67"
       y="34.16"
       width="6.3699999"
       height="14.23"
       id="rect28" />
    <path
       class="cls-1"
       d="M 30.83,55 A 23.23,23.23 0 0 0 10.41,67.13 h 10.8 C 26,63 32.94,61.8 38,67.13 H 49.39 C 44.93,61.09 38.24,55 30.83,55 Z"
       id="path30" />
    <path
       class="cls-1"
       d="m 46.25,78.11 c -14.89,31.15 -41,4.6 -25,-11 H 10.41 c -8.47,14.76 3.24,34.68 20.42,34.23 13.28,0 24.24,-19.72 24.24,-23.21 0,-1.54 -2.14,-6.25 -5.68,-11 H 38 a 40.52,40.52 0 0 1 8.25,10.98 z m 0.4,-0.91 z"
       id="path32" />
    <path
       class="cls-1"
       d="M 189.62,34.71 V 117 A 28.62,28.62 0 0 1 161,145.54 h -12.11 v -28 H 90.94 v 28 H 78.81 A 28.62,28.62 0 0 1 50.22,117 V 91.08 h 91.87 V 41.62 H 97.74 V 69.41 H 50.22 v -34.7 a 27.43,27.43 0 0 1 0.19,-3.29 27.09,27.09 0 0 1 0.71,-3.84 c 0.1,-0.41 0.22,-0.82 0.34,-1.21 a 2.13,2.13 0 0 1 0.09,-0.3 c 0.07,-0.21 0.13,-0.4 0.2,-0.59 0.07,-0.19 0.14,-0.4 0.21,-0.59 0.07,-0.19 0.16,-0.44 0.25,-0.65 0.09,-0.21 0.18,-0.43 0.26,-0.64 a 29.35,29.35 0 0 1 2.6,-4.82 v -0.05 c 0.26,-0.37 0.53,-0.75 0.81,-1.12 0.28,-0.37 0.47,-0.61 0.7,-0.91 0.23,-0.3 0.57,-0.67 0.86,-1 0.29,-0.33 0.56,-0.63 0.86,-0.93 v 0 a 4.53,4.53 0 0 1 0.49,-0.49 29.23,29.23 0 0 1 3.4,-2.84 c 0.32,-0.24 0.66,-0.46 1,-0.68 0.34,-0.22 0.77,-0.49 1.17,-0.72 A 23.78,23.78 0 0 1 66.65,8.83 L 67.4,8.49 A 27.84,27.84 0 0 1 70.75,7.28 C 71.19,7.15 71.63,7.04 72.08,6.93 A 6.19,6.19 0 0 1 72.73,6.78 28.86,28.86 0 0 1 76.6,6.21 h 0.56 0.28 c 0.43,0 0.87,0 1.31,0 H 161 c 0.43,0 0.87,0 1.3,0 h 0.28 0.56 a 29.25,29.25 0 0 1 3.88,0.57 c 0.22,0 0.43,0.09 0.65,0.15 0.45,0.11 0.88,0.22 1.32,0.35 a 27.23,27.23 0 0 1 3.35,1.21 l 0.75,0.34 a 25.19,25.19 0 0 1 2.3,1.21 c 0.39,0.23 0.78,0.47 1.16,0.72 0.38,0.25 0.69,0.44 1,0.68 a 29.23,29.23 0 0 1 3.91,3.36 q 0.45,0.45 0.87,0.93 c 0.29,0.32 0.57,0.66 0.85,1 l 0.71,0.91 c 0.28,0.37 0.54,0.75 0.8,1.12 v 0.05 a 28.61,28.61 0 0 1 2.6,4.82 l 0.27,0.64 0.24,0.65 c 0.08,0.19 0.15,0.39 0.22,0.59 l 0.19,0.59 c 0,0.09 0.06,0.19 0.1,0.3 0.11,0.39 0.23,0.8 0.34,1.21 a 28.56,28.56 0 0 1 0.7,3.84 27.42,27.42 0 0 1 0.27,3.26 z"
       id="path34" />
    <path
       class="cls-1"
       d="M 184.76,18.78 H 55.07 A 28.59,28.59 0 0 1 78.8,6.12 H 161 a 28.59,28.59 0 0 1 23.76,12.66 z"
       id="path36" />
    <path
       class="cls-1"
       d="M 189.43,31.43 H 50.4 a 28.29,28.29 0 0 1 4.67,-12.65 h 129.69 a 28.17,28.17 0 0 1 4.67,12.65 z"
       id="path38" />
    <path
       class="cls-1"
       d="m 189.63,34.71 v 9.37 H 142.09 V 41.62 H 97.74 v 2.46 H 50.21 v -9.37 a 27.43,27.43 0 0 1 0.19,-3.29 h 139 a 27.42,27.42 0 0 1 0.23,3.29 z"
       id="path40" />
    <rect
       class="cls-1"
       x="50.209999"
       y="44.080002"
       width="47.540001"
       height="12.66"
       id="rect42" />
    <rect
       class="cls-1"
       x="142.09"
       y="44.080002"
       width="47.540001"
       height="12.66"
       id="rect44" />
    <rect
       class="cls-1"
       x="50.209999"
       y="56.740002"
       width="47.540001"
       height="12.65"
       id="rect46" />
    <rect
       class="cls-1"
       x="142.09"
       y="56.740002"
       width="47.540001"
       height="12.65"
       id="rect48" />
  </g>
  <text
     xml:space="preserve"
     style="font-style:normal;font-weight:normal;font-size:66.6667px;line-height:41.6667px;font-family:Sans;letter-spacing:0px;word-spacing:0px;fill:#fd4b2d;fill-opacity:1;stroke:none;stroke-width:1px;stroke-linecap:butt;stroke-linejoin:miter;stroke-opacity:1"
     x="226.21098"
     y="98.615028"
     id="text3840"><tspan
       sodipodi:role="line"
       id="tspan3838"
       x="226.21098"
       y="98.615028">Sign in with Authentik</tspan></text>
  <rect
     style="fill:none;fill-opacity:1;stroke:#fd4b2d;stroke-width:2.6926"
     id="rect7386"
     width="983.65118"
     height="157.75359"
     x="1.3487906"
     y="1.3463" />
</svg>
