/* XPM */
static char * image_name[] = {
"64 64 2 1",
" 	c #FFFFFFFFFFFF",
".	c #000000000000",
"                                                                ",
"                        .............                           ",
"                     ...................                        ",
"                  .........................                     ",
"                .............................                   ",
"              .................................                 ",
"             ...................................                ",
"            .....................................               ",
"          .........................................             ",
"         ................           ................            ",
"        ..............                 ..............           ",
"       .............                     .............          ",
"       ...........                         ...........          ",
"      ...........                           ...........         ",
"     ..........                               ..........        ",
"    ..........                                 ..........       ",
"    .........                                   .........       ",
"   ..........                .                  ..........      ",
"   .........            ...........              .........      ",
"  .........           ...............             .........     ",
"  .........         ...................           .........     ",
"  ........         .....................           ........     ",
" .........        .......................          .........    ",
" ........        ...........   ...........          ........    ",
" ........        ........         ........          ........    ",
".........       ........           ........         .........   ",
"........        .......             .......          ........   ",
"........       .......               .......         ........   ",
"........       ......                 ......         ........   ",
"........       ......                 ......         ........   ",
"........       ......                 ......         ........   ",
"........       .....                   .....         ........   ",
"........      ......                   ......        ........   ",
"........       .....                   .....         ........   ",
"........       ......                 ......         ........   ",
"........       ......                 ......         ........   ",
"........       ......                 ......         ........   ",
".........      .......               .......        .........   ",
" ........       .......             .......         ........    ",
" ........       ........           ........         ........    ",
" .........       ........         ........         .........    ",
"  ........       ...........   ...........         ........     ",
"  .........       .......................         .........     ",
"  .........        .....................          .........     ",
"   .........        ...................          .........      ",
"   ..........         ...............           ..........      ",
"    .........           ...........             .........       ",
"    ..........               .                 ..........       ",
"     ..........                               ..........        ",
"      ...........                           ...........         ",
"       ...........                         ...........          ",
"       .............                     .............          ",
"        ..............                 ..............           ",
"         ................           ................            ",
"          .........................................             ",
"            .....................................               ",
"             ...................................                ",
"              .................................                 ",
"                .............................                   ",
"                  .........................                     ",
"                     ...................                        ",
"                        .............                           ",
"                                                                ",
"                                                                "};
