<?xml version="1.0" encoding="UTF-8" standalone="no"?>
<!DOCTYPE svg PUBLIC "-//W3C//DTD SVG 1.1//EN"
 "http://www.w3.org/Graphics/SVG/1.1/DTD/svg11.dtd">
<!-- Generated by graphviz version 2.38.0 (20140413.2041)
 -->
<!-- Title: Perl Pages: 1 -->
<svg width="206pt" height="143pt"
 viewBox="9.00 9.00 133.50 197.00" xmlns="http://www.w3.org/2000/svg" xmlns:xlink="http://www.w3.org/1999/xlink">
<g id="graph0" class="graph" transform="scale(1 1) rotate(-90) translate(-129.5 193)">
<title>Perl</title>
<polygon fill="white" stroke="none" points="-4,4 -4,-184 120.5,-184 120.5,4 -4,4"/>
<!-- Here -->
<g id="node1" class="node"><title>Here</title>
<ellipse fill="none" stroke="black" cx="62.5" cy="-162" rx="28.6953" ry="18"/>
<text text-anchor="middle" x="62.5" y="-158.3" font-family="Times,serif" font-size="14.00">Here</text>
</g>
<!-- There -->
<g id="node2" class="node"><title>There</title>
<ellipse fill="none" stroke="black" cx="32.5" cy="-90" rx="32.5" ry="18"/>
<text text-anchor="middle" x="32.5" y="-86.3" font-family="Times,serif" font-size="14.00">There</text>
</g>
<!-- Here&#45;&gt;There -->
<g id="edge1" class="edge"><title>Here&#45;&gt;There</title>
<path fill="none" stroke="grey" d="M55.3904,-144.411C51.9294,-136.335 47.6848,-126.431 43.7949,-117.355"/>
<polygon fill="grey" stroke="grey" points="46.9232,-115.769 39.7669,-107.956 40.4892,-118.526 46.9232,-115.769"/>
</g>
<!-- Everywhere -->
<g id="node3" class="node"><title>Everywhere</title>
<ellipse fill="none" stroke="black" cx="62.5" cy="-18" rx="54" ry="18"/>
<text text-anchor="middle" x="62.5" y="-14.3" font-family="Times,serif" font-size="14.00">Everywhere</text>
</g>
<!-- There&#45;&gt;Everywhere -->
<g id="edge2" class="edge"><title>There&#45;&gt;Everywhere</title>
<path fill="none" stroke="grey" d="M39.6096,-72.411C43.0706,-64.3352 47.3152,-54.4312 51.2051,-45.3547"/>
<polygon fill="grey" stroke="grey" points="54.5108,-46.5264 55.2331,-35.9562 48.0768,-43.7689 54.5108,-46.5264"/>
</g>
<!-- Everywhere&#45;&gt;Here -->
<g id="edge3" class="edge"><title>Everywhere&#45;&gt;Here</title>
<path fill="none" stroke="grey" d="M67.3691,-36.0209C70.0642,-46.3345 73.1374,-59.8114 74.5,-72 76.2776,-87.9009 76.2776,-92.0991 74.5,-108 73.5419,-116.57 71.7382,-125.777 69.8148,-134.074"/>
<polygon fill="grey" stroke="grey" points="66.3682,-133.432 67.3691,-143.979 73.1642,-135.11 66.3682,-133.432"/>
</g>
</g>
</svg>
