<?xml version="1.0" encoding="UTF-8" standalone="no"?>
<!DOCTYPE svg PUBLIC "-//W3C//DTD SVG 1.1//EN"
 "http://www.w3.org/Graphics/SVG/1.1/DTD/svg11.dtd">
<!-- Generated by graphviz version 2.38.0 (20140413.2041)
 -->
<!-- Title: Perl Pages: 1 -->
<svg width="653pt" height="204pt"
 viewBox="0.00 0.00 653.44 203.74" xmlns="http://www.w3.org/2000/svg" xmlns:xlink="http://www.w3.org/1999/xlink">
<g id="graph0" class="graph" transform="scale(1 1) rotate(0) translate(4 199.74)">
<title>Perl</title>
<polygon fill="white" stroke="none" points="-4,4 -4,-199.74 649.443,-199.74 649.443,4 -4,4"/>
<g id="clust1" class="cluster"><title>cluster_Europe</title>
<polygon fill="grey" stroke="black" points="8,-8 8,-187.74 102,-187.74 102,-8 8,-8"/>
<text text-anchor="middle" x="55" y="-172.54" font-family="Times,serif" font-size="14.00">Europe</text>
</g>
<g id="clust2" class="cluster"><title>cluster_Australia</title>
<polygon fill="grey" stroke="black" points="215,-16.8701 215,-187.74 491,-187.74 491,-16.8701 215,-16.8701"/>
<text text-anchor="middle" x="353" y="-172.54" font-family="Times,serif" font-size="14.00">Australia</text>
</g>
<!-- London -->
<g id="node1" class="node"><title>London</title>
<ellipse fill="none" stroke="blue" cx="55" cy="-138.74" rx="38.9931" ry="18"/>
<text text-anchor="middle" x="55" y="-135.04" font-family="Times,serif" font-size="14.00">London</text>
</g>
<!-- Paris -->
<g id="node2" class="node"><title>Paris</title>
<ellipse fill="none" stroke="green" cx="55" cy="-42.8701" rx="38.3684" ry="26.7407"/>
<text text-anchor="middle" x="55" y="-46.6701" font-family="Times,serif" font-size="14.00">City of</text>
<text text-anchor="middle" x="55" y="-31.6701" font-family="Times,serif" font-size="14.00">lurve</text>
</g>
<!-- London&#45;&gt;Paris -->
<g id="edge1" class="edge"><title>London&#45;&gt;Paris</title>
<path fill="none" stroke="grey" d="M49.6359,-120.523C48.3908,-109.135 47.9846,-93.7819 48.4175,-79.8072"/>
<polygon fill="grey" stroke="grey" points="51.9297,-79.6338 48.912,-69.4778 44.9377,-79.299 51.9297,-79.6338"/>
</g>
<!-- New York -->
<g id="node3" class="node"><title>New York</title>
<ellipse fill="none" stroke="yellow" cx="158" cy="-42.8701" rx="46.5926" ry="18"/>
<text text-anchor="middle" x="158" y="-39.1701" font-family="Times,serif" font-size="14.00">New York</text>
</g>
<!-- London&#45;&gt;New York -->
<g id="edge3" class="edge"><title>London&#45;&gt;New York</title>
<path fill="none" stroke="grey" d="M72.0084,-122.239C88.6812,-107.044 114.28,-83.7145 133.216,-66.4575"/>
<polygon fill="grey" stroke="grey" points="135.589,-69.0304 140.622,-59.7076 130.873,-63.8566 135.589,-69.0304"/>
<text text-anchor="middle" x="120" y="-91.5401" font-family="Times,serif" font-size="14.00">Far</text>
</g>
<!-- Paris&#45;&gt;London -->
<g id="edge2" class="edge"><title>Paris&#45;&gt;London</title>
<path fill="none" stroke="grey" d="M61.088,-69.4778C61.9317,-82.1492 61.9689,-97.4546 61.1998,-110.359"/>
<polygon fill="grey" stroke="grey" points="57.6954,-110.27 60.3641,-120.523 64.6719,-110.843 57.6954,-110.27"/>
</g>
<!-- Victoria -->
<g id="node4" class="node"><title>Victoria</title>
<ellipse fill="none" stroke="blue" cx="368" cy="-138.74" rx="40.0939" ry="18"/>
<text text-anchor="middle" x="368" y="-135.04" font-family="Times,serif" font-size="14.00">Victoria</text>
</g>
<!-- New South Wales -->
<g id="node5" class="node"><title>New South Wales</title>
<ellipse fill="none" stroke="green" cx="298" cy="-42.8701" rx="74.9875" ry="18"/>
<text text-anchor="middle" x="298" y="-39.1701" font-family="Times,serif" font-size="14.00">New South Wales</text>
</g>
<!-- Victoria&#45;&gt;New South Wales -->
<g id="edge4" class="edge"><title>Victoria&#45;&gt;New South Wales</title>
<path fill="none" stroke="grey" d="M355.807,-121.389C344.999,-106.896 329.053,-85.5124 316.645,-68.873"/>
<polygon fill="grey" stroke="grey" points="319.308,-66.5899 310.525,-60.6657 313.697,-70.7745 319.308,-66.5899"/>
</g>
<!-- Tasmania -->
<g id="node6" class="node"><title>Tasmania</title>
<ellipse fill="none" stroke="red" cx="437" cy="-42.8701" rx="46.2923" ry="18"/>
<text text-anchor="middle" x="437" y="-39.1701" font-family="Times,serif" font-size="14.00">Tasmania</text>
</g>
<!-- Victoria&#45;&gt;Tasmania -->
<g id="edge5" class="edge"><title>Victoria&#45;&gt;Tasmania</title>
<path fill="none" stroke="grey" d="M380.019,-121.389C390.738,-106.807 406.585,-85.2482 418.847,-68.5654"/>
<polygon fill="grey" stroke="grey" points="421.785,-70.4789 424.887,-60.3486 416.145,-66.333 421.785,-70.4789"/>
</g>
<!-- cluster_Australia -->
<g id="node7" class="node"><title>cluster_Australia</title>
<ellipse fill="none" stroke="black" cx="572" cy="-138.74" rx="73.387" ry="18"/>
<text text-anchor="middle" x="572" y="-135.04" font-family="Times,serif" font-size="14.00">cluster_Australia</text>
</g>
<!-- cluster_Europe -->
<g id="node8" class="node"><title>cluster_Europe</title>
<ellipse fill="none" stroke="black" cx="572" cy="-42.8701" rx="65.7887" ry="18"/>
<text text-anchor="middle" x="572" y="-39.1701" font-family="Times,serif" font-size="14.00">cluster_Europe</text>
</g>
<!-- cluster_Australia&#45;&gt;cluster_Europe -->
<g id="edge6" class="edge"><title>cluster_Australia&#45;&gt;cluster_Europe</title>
<path fill="none" stroke="grey" d="M572,-120.523C572,-106.761 572,-87.2097 572,-71.2972"/>
<polygon fill="grey" stroke="grey" points="575.5,-70.9781 572,-60.9781 568.5,-70.9782 575.5,-70.9781"/>
</g>
</g>
</svg>
