<?xml version="1.0" encoding="UTF-8" standalone="no"?>
<!DOCTYPE svg PUBLIC "-//W3C//DTD SVG 1.1//EN"
 "http://www.w3.org/Graphics/SVG/1.1/DTD/svg11.dtd">
<!-- Generated by graphviz version 2.38.0 (20140413.2041)
 -->
<!-- Title: Perl Pages: 1 -->
<svg width="2325pt" height="704pt"
 viewBox="0.00 0.00 2324.50 704.00" xmlns="http://www.w3.org/2000/svg" xmlns:xlink="http://www.w3.org/1999/xlink">
<g id="graph0" class="graph" transform="scale(1 1) rotate(0) translate(4 700)">
<title>Perl</title>
<polygon fill="white" stroke="none" points="-4,4 -4,-700 2320.5,-700 2320.5,4 -4,4"/>
<!-- communication_types -->
<g id="node1" class="node"><title>communication_types</title>
<path fill="none" stroke="blue" d="M811,-0.5C811,-0.5 985,-0.5 985,-0.5 991,-0.5 997,-6.5 997,-12.5 997,-12.5 997,-34.5 997,-34.5 997,-40.5 991,-46.5 985,-46.5 985,-46.5 811,-46.5 811,-46.5 805,-46.5 799,-40.5 799,-34.5 799,-34.5 799,-12.5 799,-12.5 799,-6.5 805,-0.5 811,-0.5"/>
<text text-anchor="middle" x="867.5" y="-19.8" font-family="Times,serif" font-size="14.00">communication_types</text>
<polyline fill="none" stroke="blue" points="936,-0.5 936,-46.5 "/>
<text text-anchor="middle" x="966.5" y="-31.3" font-family="Times,serif" font-size="14.00">1: id</text>
<polyline fill="none" stroke="blue" points="936,-23.5 997,-23.5 "/>
<text text-anchor="middle" x="966.5" y="-8.3" font-family="Times,serif" font-size="14.00">2: name</text>
</g>
<!-- email_address_types -->
<g id="node2" class="node"><title>email_address_types</title>
<path fill="none" stroke="blue" d="M341.5,-0.5C341.5,-0.5 508.5,-0.5 508.5,-0.5 514.5,-0.5 520.5,-6.5 520.5,-12.5 520.5,-12.5 520.5,-34.5 520.5,-34.5 520.5,-40.5 514.5,-46.5 508.5,-46.5 508.5,-46.5 341.5,-46.5 341.5,-46.5 335.5,-46.5 329.5,-40.5 329.5,-34.5 329.5,-34.5 329.5,-12.5 329.5,-12.5 329.5,-6.5 335.5,-0.5 341.5,-0.5"/>
<text text-anchor="middle" x="394.5" y="-19.8" font-family="Times,serif" font-size="14.00">email_address_types</text>
<polyline fill="none" stroke="blue" points="459.5,-0.5 459.5,-46.5 "/>
<text text-anchor="middle" x="490" y="-31.3" font-family="Times,serif" font-size="14.00">1: id</text>
<polyline fill="none" stroke="blue" points="459.5,-23.5 520.5,-23.5 "/>
<text text-anchor="middle" x="490" y="-8.3" font-family="Times,serif" font-size="14.00">2: name</text>
</g>
<!-- email_addresses -->
<g id="node3" class="node"><title>email_addresses</title>
<path fill="none" stroke="blue" d="M165,-256C165,-256 403,-256 403,-256 409,-256 415,-262 415,-268 415,-268 415,-336 415,-336 415,-342 409,-348 403,-348 403,-348 165,-348 165,-348 159,-348 153,-342 153,-336 153,-336 153,-268 153,-268 153,-262 159,-256 165,-256"/>
<text text-anchor="middle" x="206" y="-298.3" font-family="Times,serif" font-size="14.00">email_addresses</text>
<polyline fill="none" stroke="blue" points="259,-256 259,-348 "/>
<text text-anchor="middle" x="337" y="-332.8" font-family="Times,serif" font-size="14.00">1: address</text>
<polyline fill="none" stroke="blue" points="259,-325 415,-325 "/>
<text text-anchor="middle" x="337" y="-309.8" font-family="Times,serif" font-size="14.00">2: email_address_type_id</text>
<polyline fill="none" stroke="blue" points="259,-302 415,-302 "/>
<text text-anchor="middle" x="337" y="-286.8" font-family="Times,serif" font-size="14.00">3: id</text>
<polyline fill="none" stroke="blue" points="259,-279 415,-279 "/>
<text text-anchor="middle" x="337" y="-263.8" font-family="Times,serif" font-size="14.00">4: upper_address</text>
</g>
<!-- email_addresses&#45;&gt;email_address_types -->
<g id="edge3" class="edge"><title>email_addresses:port2&#45;&gt;email_address_types:port0:w</title>
<path fill="none" stroke="grey" d="M416,-314C547.216,-314 212.294,-39.1695 318.019,-24.1397"/>
<polygon fill="grey" stroke="grey" points="318.244,-27.6325 328,-23.5 317.797,-20.6469 318.244,-27.6325"/>
</g>
<!-- email_organizations -->
<g id="node4" class="node"><title>email_organizations</title>
<path fill="none" stroke="blue" d="M246.5,-592C246.5,-592 475.5,-592 475.5,-592 481.5,-592 487.5,-598 487.5,-604 487.5,-604 487.5,-649 487.5,-649 487.5,-655 481.5,-661 475.5,-661 475.5,-661 246.5,-661 246.5,-661 240.5,-661 234.5,-655 234.5,-649 234.5,-649 234.5,-604 234.5,-604 234.5,-598 240.5,-592 246.5,-592"/>
<text text-anchor="middle" x="298" y="-622.8" font-family="Times,serif" font-size="14.00">email_organizations</text>
<polyline fill="none" stroke="blue" points="361.5,-592 361.5,-661 "/>
<text text-anchor="middle" x="424.5" y="-645.8" font-family="Times,serif" font-size="14.00">1: email_address_id</text>
<polyline fill="none" stroke="blue" points="361.5,-638 487.5,-638 "/>
<text text-anchor="middle" x="424.5" y="-622.8" font-family="Times,serif" font-size="14.00">2: id</text>
<polyline fill="none" stroke="blue" points="361.5,-615 487.5,-615 "/>
<text text-anchor="middle" x="424.5" y="-599.8" font-family="Times,serif" font-size="14.00">3: organization_id</text>
</g>
<!-- email_organizations&#45;&gt;email_addresses -->
<g id="edge4" class="edge"><title>email_organizations:port1&#45;&gt;email_addresses:port0:w</title>
<path fill="none" stroke="grey" d="M425,-662.5C425,-676.391 477.757,-671.4 487.5,-661.5 498.411,-650.413 494.562,-605.36 487.5,-591.5 399.697,-419.189 -29.0573,-306.14 141.946,-302.111"/>
<polygon fill="grey" stroke="grey" points="142.039,-305.611 152,-302 141.962,-298.611 142.039,-305.611"/>
</g>
<!-- organizations -->
<g id="node11" class="node"><title>organizations</title>
<path fill="none" stroke="blue" d="M855.5,-164C855.5,-164 1084.5,-164 1084.5,-164 1090.5,-164 1096.5,-170 1096.5,-176 1096.5,-176 1096.5,-428 1096.5,-428 1096.5,-434 1090.5,-440 1084.5,-440 1084.5,-440 855.5,-440 855.5,-440 849.5,-440 843.5,-434 843.5,-428 843.5,-428 843.5,-176 843.5,-176 843.5,-170 849.5,-164 855.5,-164"/>
<text text-anchor="middle" x="888" y="-298.3" font-family="Times,serif" font-size="14.00">organizations</text>
<polyline fill="none" stroke="blue" points="932.5,-164 932.5,-440 "/>
<text text-anchor="middle" x="1014.5" y="-424.8" font-family="Times,serif" font-size="14.00">1: communication_type_id</text>
<polyline fill="none" stroke="blue" points="932.5,-417 1096.5,-417 "/>
<text text-anchor="middle" x="1014.5" y="-401.8" font-family="Times,serif" font-size="14.00">2: creator_id</text>
<polyline fill="none" stroke="blue" points="932.5,-394 1096.5,-394 "/>
<text text-anchor="middle" x="1014.5" y="-378.8" font-family="Times,serif" font-size="14.00">3: deleted</text>
<polyline fill="none" stroke="blue" points="932.5,-371 1096.5,-371 "/>
<text text-anchor="middle" x="1014.5" y="-355.8" font-family="Times,serif" font-size="14.00">4: facebook_tag</text>
<polyline fill="none" stroke="blue" points="932.5,-348 1096.5,-348 "/>
<text text-anchor="middle" x="1014.5" y="-332.8" font-family="Times,serif" font-size="14.00">5: homepage</text>
<polyline fill="none" stroke="blue" points="932.5,-325 1096.5,-325 "/>
<text text-anchor="middle" x="1014.5" y="-309.8" font-family="Times,serif" font-size="14.00">6: id</text>
<polyline fill="none" stroke="blue" points="932.5,-302 1096.5,-302 "/>
<text text-anchor="middle" x="1014.5" y="-286.8" font-family="Times,serif" font-size="14.00">7: name</text>
<polyline fill="none" stroke="blue" points="932.5,-279 1096.5,-279 "/>
<text text-anchor="middle" x="1014.5" y="-263.8" font-family="Times,serif" font-size="14.00">8: role_id</text>
<polyline fill="none" stroke="blue" points="932.5,-256 1096.5,-256 "/>
<text text-anchor="middle" x="1014.5" y="-240.8" font-family="Times,serif" font-size="14.00">9: timestamp</text>
<polyline fill="none" stroke="blue" points="932.5,-233 1096.5,-233 "/>
<text text-anchor="middle" x="1014.5" y="-217.8" font-family="Times,serif" font-size="14.00">10: twitter_tag</text>
<polyline fill="none" stroke="blue" points="932.5,-210 1096.5,-210 "/>
<text text-anchor="middle" x="1014.5" y="-194.8" font-family="Times,serif" font-size="14.00">11: upper_name</text>
<polyline fill="none" stroke="blue" points="932.5,-187 1096.5,-187 "/>
<text text-anchor="middle" x="1014.5" y="-171.8" font-family="Times,serif" font-size="14.00">12: visibility_id</text>
</g>
<!-- email_organizations&#45;&gt;organizations -->
<g id="edge8" class="edge"><title>email_organizations:port3&#45;&gt;organizations:port0:w</title>
<path fill="none" stroke="grey" d="M489,-603.5C499.485,-603.5 489.353,-564.173 497,-557 551.931,-505.474 782.638,-576.084 834,-521 841.232,-513.243 832.697,-352.822 838.423,-311.592"/>
<polygon fill="grey" stroke="grey" points="841.786,-312.593 842,-302 835.227,-310.147 841.786,-312.593"/>
</g>
<!-- email_people -->
<g id="node5" class="node"><title>email_people</title>
<path fill="none" stroke="blue" d="M12,-592C12,-592 204,-592 204,-592 210,-592 216,-598 216,-604 216,-604 216,-649 216,-649 216,-655 210,-661 204,-661 204,-661 12,-661 12,-661 6,-661 0,-655 0,-649 0,-649 0,-604 0,-604 0,-598 6,-592 12,-592"/>
<text text-anchor="middle" x="45" y="-622.8" font-family="Times,serif" font-size="14.00">email_people</text>
<polyline fill="none" stroke="blue" points="90,-592 90,-661 "/>
<text text-anchor="middle" x="153" y="-645.8" font-family="Times,serif" font-size="14.00">1: email_address_id</text>
<polyline fill="none" stroke="blue" points="90,-638 216,-638 "/>
<text text-anchor="middle" x="153" y="-622.8" font-family="Times,serif" font-size="14.00">2: id</text>
<polyline fill="none" stroke="blue" points="90,-615 216,-615 "/>
<text text-anchor="middle" x="153" y="-599.8" font-family="Times,serif" font-size="14.00">3: person_id</text>
</g>
<!-- email_people&#45;&gt;email_addresses -->
<g id="edge5" class="edge"><title>email_people:port1&#45;&gt;email_addresses:port0:w</title>
<path fill="none" stroke="grey" d="M217,-649.5C252.752,-649.5 137.04,-361.636 145.575,-309.911"/>
<polygon fill="grey" stroke="grey" points="148.412,-311.969 152,-302 142.979,-307.556 148.412,-311.969"/>
</g>
<!-- people -->
<g id="node12" class="node"><title>people</title>
<path fill="none" stroke="blue" d="M620.5,-83.5C620.5,-83.5 813.5,-83.5 813.5,-83.5 819.5,-83.5 825.5,-89.5 825.5,-95.5 825.5,-95.5 825.5,-508.5 825.5,-508.5 825.5,-514.5 819.5,-520.5 813.5,-520.5 813.5,-520.5 620.5,-520.5 620.5,-520.5 614.5,-520.5 608.5,-514.5 608.5,-508.5 608.5,-508.5 608.5,-95.5 608.5,-95.5 608.5,-89.5 614.5,-83.5 620.5,-83.5"/>
<text text-anchor="middle" x="635" y="-298.3" font-family="Times,serif" font-size="14.00">people</text>
<polyline fill="none" stroke="blue" points="661.5,-83.5 661.5,-520.5 "/>
<text text-anchor="middle" x="743.5" y="-505.3" font-family="Times,serif" font-size="14.00">1: communication_type_id</text>
<polyline fill="none" stroke="blue" points="661.5,-497.5 825.5,-497.5 "/>
<text text-anchor="middle" x="743.5" y="-482.3" font-family="Times,serif" font-size="14.00">2: creator_id</text>
<polyline fill="none" stroke="blue" points="661.5,-474.5 825.5,-474.5 "/>
<text text-anchor="middle" x="743.5" y="-459.3" font-family="Times,serif" font-size="14.00">3: date_of_birth</text>
<polyline fill="none" stroke="blue" points="661.5,-451.5 825.5,-451.5 "/>
<text text-anchor="middle" x="743.5" y="-436.3" font-family="Times,serif" font-size="14.00">4: deleted</text>
<polyline fill="none" stroke="blue" points="661.5,-428.5 825.5,-428.5 "/>
<text text-anchor="middle" x="743.5" y="-413.3" font-family="Times,serif" font-size="14.00">5: facebook_tag</text>
<polyline fill="none" stroke="blue" points="661.5,-405.5 825.5,-405.5 "/>
<text text-anchor="middle" x="743.5" y="-390.3" font-family="Times,serif" font-size="14.00">6: gender_id</text>
<polyline fill="none" stroke="blue" points="661.5,-382.5 825.5,-382.5 "/>
<text text-anchor="middle" x="743.5" y="-367.3" font-family="Times,serif" font-size="14.00">7: given_names</text>
<polyline fill="none" stroke="blue" points="661.5,-359.5 825.5,-359.5 "/>
<text text-anchor="middle" x="743.5" y="-344.3" font-family="Times,serif" font-size="14.00">8: homepage</text>
<polyline fill="none" stroke="blue" points="661.5,-336.5 825.5,-336.5 "/>
<text text-anchor="middle" x="743.5" y="-321.3" font-family="Times,serif" font-size="14.00">9: id</text>
<polyline fill="none" stroke="blue" points="661.5,-313.5 825.5,-313.5 "/>
<text text-anchor="middle" x="743.5" y="-298.3" font-family="Times,serif" font-size="14.00">10: name</text>
<polyline fill="none" stroke="blue" points="661.5,-290.5 825.5,-290.5 "/>
<text text-anchor="middle" x="743.5" y="-275.3" font-family="Times,serif" font-size="14.00">11: preferred_name</text>
<polyline fill="none" stroke="blue" points="661.5,-267.5 825.5,-267.5 "/>
<text text-anchor="middle" x="743.5" y="-252.3" font-family="Times,serif" font-size="14.00">12: role_id</text>
<polyline fill="none" stroke="blue" points="661.5,-244.5 825.5,-244.5 "/>
<text text-anchor="middle" x="743.5" y="-229.3" font-family="Times,serif" font-size="14.00">13: surname</text>
<polyline fill="none" stroke="blue" points="661.5,-221.5 825.5,-221.5 "/>
<text text-anchor="middle" x="743.5" y="-206.3" font-family="Times,serif" font-size="14.00">14: timestamp</text>
<polyline fill="none" stroke="blue" points="661.5,-198.5 825.5,-198.5 "/>
<text text-anchor="middle" x="743.5" y="-183.3" font-family="Times,serif" font-size="14.00">15: title_id</text>
<polyline fill="none" stroke="blue" points="661.5,-175.5 825.5,-175.5 "/>
<text text-anchor="middle" x="743.5" y="-160.3" font-family="Times,serif" font-size="14.00">16: twitter_tag</text>
<polyline fill="none" stroke="blue" points="661.5,-152.5 825.5,-152.5 "/>
<text text-anchor="middle" x="743.5" y="-137.3" font-family="Times,serif" font-size="14.00">17: upper_given_names</text>
<polyline fill="none" stroke="blue" points="661.5,-129.5 825.5,-129.5 "/>
<text text-anchor="middle" x="743.5" y="-114.3" font-family="Times,serif" font-size="14.00">18: upper_name</text>
<polyline fill="none" stroke="blue" points="661.5,-106.5 825.5,-106.5 "/>
<text text-anchor="middle" x="743.5" y="-91.3" font-family="Times,serif" font-size="14.00">19: visibility_id</text>
</g>
<!-- email_people&#45;&gt;people -->
<g id="edge11" class="edge"><title>email_people:port3&#45;&gt;people:port0:w</title>
<path fill="none" stroke="grey" d="M217,-603.5C227.485,-603.5 217.618,-564.446 225,-557 288.281,-493.173 346.308,-566.192 424,-521 530.644,-458.967 482.961,-310.42 596.992,-302.343"/>
<polygon fill="grey" stroke="grey" points="597.126,-305.841 607,-302 596.886,-298.845 597.126,-305.841"/>
</g>
<!-- genders -->
<g id="node6" class="node"><title>genders</title>
<path fill="none" stroke="blue" d="M673,-0.5C673,-0.5 769,-0.5 769,-0.5 775,-0.5 781,-6.5 781,-12.5 781,-12.5 781,-34.5 781,-34.5 781,-40.5 775,-46.5 769,-46.5 769,-46.5 673,-46.5 673,-46.5 667,-46.5 661,-40.5 661,-34.5 661,-34.5 661,-12.5 661,-12.5 661,-6.5 667,-0.5 673,-0.5"/>
<text text-anchor="middle" x="690.5" y="-19.8" font-family="Times,serif" font-size="14.00">genders</text>
<polyline fill="none" stroke="blue" points="720,-0.5 720,-46.5 "/>
<text text-anchor="middle" x="750.5" y="-31.3" font-family="Times,serif" font-size="14.00">1: id</text>
<polyline fill="none" stroke="blue" points="720,-23.5 781,-23.5 "/>
<text text-anchor="middle" x="750.5" y="-8.3" font-family="Times,serif" font-size="14.00">2: name</text>
</g>
<!-- log -->
<g id="node7" class="node"><title>log</title>
<path fill="none" stroke="blue" d="M1434.5,-580.5C1434.5,-580.5 1533.5,-580.5 1533.5,-580.5 1539.5,-580.5 1545.5,-586.5 1545.5,-592.5 1545.5,-592.5 1545.5,-660.5 1545.5,-660.5 1545.5,-666.5 1539.5,-672.5 1533.5,-672.5 1533.5,-672.5 1434.5,-672.5 1434.5,-672.5 1428.5,-672.5 1422.5,-666.5 1422.5,-660.5 1422.5,-660.5 1422.5,-592.5 1422.5,-592.5 1422.5,-586.5 1428.5,-580.5 1434.5,-580.5"/>
<text text-anchor="middle" x="1439.5" y="-622.8" font-family="Times,serif" font-size="14.00">log</text>
<polyline fill="none" stroke="blue" points="1456.5,-580.5 1456.5,-672.5 "/>
<text text-anchor="middle" x="1501" y="-657.3" font-family="Times,serif" font-size="14.00">1: id</text>
<polyline fill="none" stroke="blue" points="1456.5,-649.5 1545.5,-649.5 "/>
<text text-anchor="middle" x="1501" y="-634.3" font-family="Times,serif" font-size="14.00">2: level</text>
<polyline fill="none" stroke="blue" points="1456.5,-626.5 1545.5,-626.5 "/>
<text text-anchor="middle" x="1501" y="-611.3" font-family="Times,serif" font-size="14.00">3: message</text>
<polyline fill="none" stroke="blue" points="1456.5,-603.5 1545.5,-603.5 "/>
<text text-anchor="middle" x="1501" y="-588.3" font-family="Times,serif" font-size="14.00">4: timestamp</text>
</g>
<!-- notes -->
<g id="node8" class="node"><title>notes</title>
<path fill="none" stroke="blue" d="M1575.5,-557.5C1575.5,-557.5 1688.5,-557.5 1688.5,-557.5 1694.5,-557.5 1700.5,-563.5 1700.5,-569.5 1700.5,-569.5 1700.5,-683.5 1700.5,-683.5 1700.5,-689.5 1694.5,-695.5 1688.5,-695.5 1688.5,-695.5 1575.5,-695.5 1575.5,-695.5 1569.5,-695.5 1563.5,-689.5 1563.5,-683.5 1563.5,-683.5 1563.5,-569.5 1563.5,-569.5 1563.5,-563.5 1569.5,-557.5 1575.5,-557.5"/>
<text text-anchor="middle" x="1586" y="-622.8" font-family="Times,serif" font-size="14.00">notes</text>
<polyline fill="none" stroke="blue" points="1608.5,-557.5 1608.5,-695.5 "/>
<text text-anchor="middle" x="1654.5" y="-680.3" font-family="Times,serif" font-size="14.00">1: body</text>
<polyline fill="none" stroke="blue" points="1608.5,-672.5 1700.5,-672.5 "/>
<text text-anchor="middle" x="1654.5" y="-657.3" font-family="Times,serif" font-size="14.00">2: creator_id</text>
<polyline fill="none" stroke="blue" points="1608.5,-649.5 1700.5,-649.5 "/>
<text text-anchor="middle" x="1654.5" y="-634.3" font-family="Times,serif" font-size="14.00">3: entity_id</text>
<polyline fill="none" stroke="blue" points="1608.5,-626.5 1700.5,-626.5 "/>
<text text-anchor="middle" x="1654.5" y="-611.3" font-family="Times,serif" font-size="14.00">4: entity_type</text>
<polyline fill="none" stroke="blue" points="1608.5,-603.5 1700.5,-603.5 "/>
<text text-anchor="middle" x="1654.5" y="-588.3" font-family="Times,serif" font-size="14.00">5: id</text>
<polyline fill="none" stroke="blue" points="1608.5,-580.5 1700.5,-580.5 "/>
<text text-anchor="middle" x="1654.5" y="-565.3" font-family="Times,serif" font-size="14.00">6: timestamp</text>
</g>
<!-- occupation_titles -->
<g id="node9" class="node"><title>occupation_titles</title>
<path fill="none" stroke="blue" d="M1126.5,-267.5C1126.5,-267.5 1309.5,-267.5 1309.5,-267.5 1315.5,-267.5 1321.5,-273.5 1321.5,-279.5 1321.5,-279.5 1321.5,-324.5 1321.5,-324.5 1321.5,-330.5 1315.5,-336.5 1309.5,-336.5 1309.5,-336.5 1126.5,-336.5 1126.5,-336.5 1120.5,-336.5 1114.5,-330.5 1114.5,-324.5 1114.5,-324.5 1114.5,-279.5 1114.5,-279.5 1114.5,-273.5 1120.5,-267.5 1126.5,-267.5"/>
<text text-anchor="middle" x="1169" y="-298.3" font-family="Times,serif" font-size="14.00">occupation_titles</text>
<polyline fill="none" stroke="blue" points="1223.5,-267.5 1223.5,-336.5 "/>
<text text-anchor="middle" x="1272.5" y="-321.3" font-family="Times,serif" font-size="14.00">1: id</text>
<polyline fill="none" stroke="blue" points="1223.5,-313.5 1321.5,-313.5 "/>
<text text-anchor="middle" x="1272.5" y="-298.3" font-family="Times,serif" font-size="14.00">2: name</text>
<polyline fill="none" stroke="blue" points="1223.5,-290.5 1321.5,-290.5 "/>
<text text-anchor="middle" x="1272.5" y="-275.3" font-family="Times,serif" font-size="14.00">3: upper_name</text>
</g>
<!-- occupations -->
<g id="node10" class="node"><title>occupations</title>
<path fill="none" stroke="blue" d="M683,-569C683,-569 875,-569 875,-569 881,-569 887,-575 887,-581 887,-581 887,-672 887,-672 887,-678 881,-684 875,-684 875,-684 683,-684 683,-684 677,-684 671,-678 671,-672 671,-672 671,-581 671,-581 671,-575 677,-569 683,-569"/>
<text text-anchor="middle" x="711.5" y="-622.8" font-family="Times,serif" font-size="14.00">occupations</text>
<polyline fill="none" stroke="blue" points="752,-569 752,-684 "/>
<text text-anchor="middle" x="819.5" y="-668.8" font-family="Times,serif" font-size="14.00">1: creator_id</text>
<polyline fill="none" stroke="blue" points="752,-661 887,-661 "/>
<text text-anchor="middle" x="819.5" y="-645.8" font-family="Times,serif" font-size="14.00">2: id</text>
<polyline fill="none" stroke="blue" points="752,-638 887,-638 "/>
<text text-anchor="middle" x="819.5" y="-622.8" font-family="Times,serif" font-size="14.00">3: occupation_title_id</text>
<polyline fill="none" stroke="blue" points="752,-615 887,-615 "/>
<text text-anchor="middle" x="819.5" y="-599.8" font-family="Times,serif" font-size="14.00">4: organization_id</text>
<polyline fill="none" stroke="blue" points="752,-592 887,-592 "/>
<text text-anchor="middle" x="819.5" y="-576.8" font-family="Times,serif" font-size="14.00">5: person_id</text>
</g>
<!-- occupations&#45;&gt;occupation_titles -->
<g id="edge7" class="edge"><title>occupations:port3&#45;&gt;occupation_titles:port0:w</title>
<path fill="none" stroke="grey" d="M888,-626.5C903.546,-626.5 885.319,-568.296 896,-557 960.759,-488.511 1042.96,-591.964 1105,-521 1111.98,-513.015 1103.63,-352.763 1109.41,-311.581"/>
<polygon fill="grey" stroke="grey" points="1112.77,-312.592 1113,-302 1106.21,-310.137 1112.77,-312.592"/>
</g>
<!-- occupations&#45;&gt;organizations -->
<g id="edge9" class="edge"><title>occupations:port4&#45;&gt;organizations:port0:w</title>
<path fill="none" stroke="grey" d="M888,-603.5C903.562,-603.5 889.783,-583.811 887,-568.5 876.24,-509.314 853.127,-499.798 843,-440.5 840.824,-427.76 830.743,-338.73 836.686,-310.539"/>
<polygon fill="grey" stroke="grey" points="839.688,-312.34 842,-302 833.745,-308.641 839.688,-312.34"/>
</g>
<!-- occupations&#45;&gt;people -->
<g id="edge12" class="edge"><title>occupations:port5&#45;&gt;people:port0:w</title>
<path fill="none" stroke="grey" d="M820,-567.5C820,-471.038 668.634,-596.023 608,-521 549.029,-448.034 512.382,-312.267 596.971,-302.551"/>
<polygon fill="grey" stroke="grey" points="597.207,-306.044 607,-302 596.823,-299.054 597.207,-306.044"/>
</g>
<!-- organizations&#45;&gt;communication_types -->
<g id="edge1" class="edge"><title>organizations:port1&#45;&gt;communication_types:port0:w</title>
<path fill="none" stroke="grey" d="M1015,-441C1015,-459.112 1083.77,-452.886 1096.5,-440 1107.3,-429.072 1105.16,-176.189 1096.5,-163.5 1016.46,-46.2054 881.511,-162.566 799,-47 795.963,-42.746 793.099,-36.871 792.302,-32.0595"/>
<polygon fill="grey" stroke="grey" points="795.372,-33.7637 798,-23.5 789.545,-29.8847 795.372,-33.7637"/>
</g>
<!-- roles -->
<g id="node19" class="node"><title>roles</title>
<path fill="none" stroke="blue" d="M1179,-0.5C1179,-0.5 1259,-0.5 1259,-0.5 1265,-0.5 1271,-6.5 1271,-12.5 1271,-12.5 1271,-34.5 1271,-34.5 1271,-40.5 1265,-46.5 1259,-46.5 1259,-46.5 1179,-46.5 1179,-46.5 1173,-46.5 1167,-40.5 1167,-34.5 1167,-34.5 1167,-12.5 1167,-12.5 1167,-6.5 1173,-0.5 1179,-0.5"/>
<text text-anchor="middle" x="1188.5" y="-19.8" font-family="Times,serif" font-size="14.00">roles</text>
<polyline fill="none" stroke="blue" points="1210,-0.5 1210,-46.5 "/>
<text text-anchor="middle" x="1240.5" y="-31.3" font-family="Times,serif" font-size="14.00">1: id</text>
<polyline fill="none" stroke="blue" points="1210,-23.5 1271,-23.5 "/>
<text text-anchor="middle" x="1240.5" y="-8.3" font-family="Times,serif" font-size="14.00">2: name</text>
</g>
<!-- organizations&#45;&gt;roles -->
<g id="edge19" class="edge"><title>organizations:port8&#45;&gt;roles:port0:w</title>
<path fill="none" stroke="grey" d="M1098,-267C1108.23,-267 1100.04,-91.9473 1105,-83 1118.8,-58.0937 1140.74,-69.6496 1158,-47 1161.34,-42.6121 1160.59,-36.7371 1160.37,-31.9591"/>
<polygon fill="grey" stroke="grey" points="1163.37,-33.7641 1166,-23.5 1157.55,-29.8857 1163.37,-33.7641"/>
</g>
<!-- visibilities -->
<g id="node23" class="node"><title>visibilities</title>
<path fill="none" stroke="blue" d="M1027,-0.5C1027,-0.5 1137,-0.5 1137,-0.5 1143,-0.5 1149,-6.5 1149,-12.5 1149,-12.5 1149,-34.5 1149,-34.5 1149,-40.5 1143,-46.5 1137,-46.5 1137,-46.5 1027,-46.5 1027,-46.5 1021,-46.5 1015,-40.5 1015,-34.5 1015,-34.5 1015,-12.5 1015,-12.5 1015,-6.5 1021,-0.5 1027,-0.5"/>
<text text-anchor="middle" x="1051.5" y="-19.8" font-family="Times,serif" font-size="14.00">visibilities</text>
<polyline fill="none" stroke="blue" points="1088,-0.5 1088,-46.5 "/>
<text text-anchor="middle" x="1118.5" y="-31.3" font-family="Times,serif" font-size="14.00">1: id</text>
<polyline fill="none" stroke="blue" points="1088,-23.5 1149,-23.5 "/>
<text text-anchor="middle" x="1118.5" y="-8.3" font-family="Times,serif" font-size="14.00">2: name</text>
</g>
<!-- organizations&#45;&gt;visibilities -->
<g id="edge22" class="edge"><title>organizations:port12&#45;&gt;visibilities:port0:w</title>
<path fill="none" stroke="grey" d="M1098,-175C1103.13,-175 1098.76,-168.319 1097,-163.5 1075.29,-104.022 1035.39,-106.944 1015,-47 1013.47,-42.5155 1010.98,-37.27 1009.68,-32.8739"/>
<polygon fill="grey" stroke="grey" points="1012.99,-34.0469 1014,-23.5 1006.64,-31.1169 1012.99,-34.0469"/>
</g>
<!-- people&#45;&gt;communication_types -->
<g id="edge2" class="edge"><title>people:port1&#45;&gt;communication_types:port0:w</title>
<path fill="none" stroke="grey" d="M827,-509C838.833,-509 829.755,-94.2217 826,-83 819.653,-64.0338 805.727,-65.8349 799,-47 797.352,-42.3852 794.732,-36.9332 793.491,-32.4429"/>
<polygon fill="grey" stroke="grey" points="796.623,-34.0049 798,-23.5 790.372,-30.8532 796.623,-34.0049"/>
</g>
<!-- people&#45;&gt;genders -->
<g id="edge6" class="edge"><title>people:port6&#45;&gt;genders:port0:w</title>
<path fill="none" stroke="grey" d="M827,-394C835.639,-394 831.429,-89.7196 826,-83 778.827,-24.6176 709.311,-104.444 661,-47 657.531,-42.8747 654.594,-36.7557 653.996,-31.7958"/>
<polygon fill="grey" stroke="grey" points="656.972,-33.653 660,-23.5 651.302,-29.5488 656.972,-33.653"/>
</g>
<!-- people&#45;&gt;roles -->
<g id="edge20" class="edge"><title>people:port12&#45;&gt;roles:port0:w</title>
<path fill="none" stroke="grey" d="M827,-256C836.619,-256 827.441,-90.0362 834,-83 883.395,-30.0085 1101.52,-92.3637 1158,-47 1162.44,-43.4376 1161.49,-37.301 1161.05,-32.192"/>
<polygon fill="grey" stroke="grey" points="1164.09,-33.9212 1166,-23.5 1158.01,-30.4554 1164.09,-33.9212"/>
</g>
<!-- titles -->
<g id="node22" class="node"><title>titles</title>
<path fill="none" stroke="blue" d="M551,-0.5C551,-0.5 631,-0.5 631,-0.5 637,-0.5 643,-6.5 643,-12.5 643,-12.5 643,-34.5 643,-34.5 643,-40.5 637,-46.5 631,-46.5 631,-46.5 551,-46.5 551,-46.5 545,-46.5 539,-40.5 539,-34.5 539,-34.5 539,-12.5 539,-12.5 539,-6.5 545,-0.5 551,-0.5"/>
<text text-anchor="middle" x="560.5" y="-19.8" font-family="Times,serif" font-size="14.00">titles</text>
<polyline fill="none" stroke="blue" points="582,-0.5 582,-46.5 "/>
<text text-anchor="middle" x="612.5" y="-31.3" font-family="Times,serif" font-size="14.00">1: id</text>
<polyline fill="none" stroke="blue" points="582,-23.5 643,-23.5 "/>
<text text-anchor="middle" x="612.5" y="-8.3" font-family="Times,serif" font-size="14.00">2: name</text>
</g>
<!-- people&#45;&gt;titles -->
<g id="edge21" class="edge"><title>people:port15&#45;&gt;titles:port0:w</title>
<path fill="none" stroke="grey" d="M827,-187C838.556,-187 833.688,-91.6281 826,-83 740.48,12.9832 626.088,-141.563 539,-47 535.238,-42.9148 532.24,-36.5378 531.824,-31.457"/>
<polygon fill="grey" stroke="grey" points="534.634,-33.5458 538,-23.5 529.104,-29.2538 534.634,-33.5458"/>
</g>
<!-- people&#45;&gt;visibilities -->
<g id="edge23" class="edge"><title>people:port19&#45;&gt;visibilities:port0:w</title>
<path fill="none" stroke="grey" d="M827,-95C833.174,-95 828.991,-86.6102 834,-83 897.359,-37.3336 947.516,-98.7623 1006,-47 1010.13,-43.3439 1009.37,-37.4689 1008.96,-32.5079"/>
<polygon fill="grey" stroke="grey" points="1012.17,-33.936 1014,-23.5 1006.06,-30.5185 1012.17,-33.936"/>
</g>
<!-- phone_number_types -->
<g id="node13" class="node"><title>phone_number_types</title>
<path fill="none" stroke="blue" d="M1536.5,-0.5C1536.5,-0.5 1707.5,-0.5 1707.5,-0.5 1713.5,-0.5 1719.5,-6.5 1719.5,-12.5 1719.5,-12.5 1719.5,-34.5 1719.5,-34.5 1719.5,-40.5 1713.5,-46.5 1707.5,-46.5 1707.5,-46.5 1536.5,-46.5 1536.5,-46.5 1530.5,-46.5 1524.5,-40.5 1524.5,-34.5 1524.5,-34.5 1524.5,-12.5 1524.5,-12.5 1524.5,-6.5 1530.5,-0.5 1536.5,-0.5"/>
<text text-anchor="middle" x="1591.5" y="-19.8" font-family="Times,serif" font-size="14.00">phone_number_types</text>
<polyline fill="none" stroke="blue" points="1658.5,-0.5 1658.5,-46.5 "/>
<text text-anchor="middle" x="1689" y="-31.3" font-family="Times,serif" font-size="14.00">1: id</text>
<polyline fill="none" stroke="blue" points="1658.5,-23.5 1719.5,-23.5 "/>
<text text-anchor="middle" x="1689" y="-8.3" font-family="Times,serif" font-size="14.00">2: name</text>
</g>
<!-- phone_numbers -->
<g id="node14" class="node"><title>phone_numbers</title>
<path fill="none" stroke="blue" d="M1352,-256C1352,-256 1592,-256 1592,-256 1598,-256 1604,-262 1604,-268 1604,-268 1604,-336 1604,-336 1604,-342 1598,-348 1592,-348 1592,-348 1352,-348 1352,-348 1346,-348 1340,-342 1340,-336 1340,-336 1340,-268 1340,-268 1340,-262 1346,-256 1352,-256"/>
<text text-anchor="middle" x="1392" y="-298.3" font-family="Times,serif" font-size="14.00">phone_numbers</text>
<polyline fill="none" stroke="blue" points="1444,-256 1444,-348 "/>
<text text-anchor="middle" x="1524" y="-332.8" font-family="Times,serif" font-size="14.00">1: id</text>
<polyline fill="none" stroke="blue" points="1444,-325 1604,-325 "/>
<text text-anchor="middle" x="1524" y="-309.8" font-family="Times,serif" font-size="14.00">2: number</text>
<polyline fill="none" stroke="blue" points="1444,-302 1604,-302 "/>
<text text-anchor="middle" x="1524" y="-286.8" font-family="Times,serif" font-size="14.00">3: phone_number_type_id</text>
<polyline fill="none" stroke="blue" points="1444,-279 1604,-279 "/>
<text text-anchor="middle" x="1524" y="-263.8" font-family="Times,serif" font-size="14.00">4: upper_number</text>
</g>
<!-- phone_numbers&#45;&gt;phone_number_types -->
<g id="edge16" class="edge"><title>phone_numbers:port3&#45;&gt;phone_number_types:port0:w</title>
<path fill="none" stroke="grey" d="M1605,-290C1725.17,-290 1418.63,-39.3915 1512.97,-24.2179"/>
<polygon fill="grey" stroke="grey" points="1513.28,-27.705 1523,-23.5 1512.78,-20.7228 1513.28,-27.705"/>
</g>
<!-- phone_organizations -->
<g id="node15" class="node"><title>phone_organizations</title>
<path fill="none" stroke="blue" d="M1157.5,-592C1157.5,-592 1392.5,-592 1392.5,-592 1398.5,-592 1404.5,-598 1404.5,-604 1404.5,-604 1404.5,-649 1404.5,-649 1404.5,-655 1398.5,-661 1392.5,-661 1392.5,-661 1157.5,-661 1157.5,-661 1151.5,-661 1145.5,-655 1145.5,-649 1145.5,-649 1145.5,-604 1145.5,-604 1145.5,-598 1151.5,-592 1157.5,-592"/>
<text text-anchor="middle" x="1210" y="-622.8" font-family="Times,serif" font-size="14.00">phone_organizations</text>
<polyline fill="none" stroke="blue" points="1274.5,-592 1274.5,-661 "/>
<text text-anchor="middle" x="1339.5" y="-645.8" font-family="Times,serif" font-size="14.00">1: id</text>
<polyline fill="none" stroke="blue" points="1274.5,-638 1404.5,-638 "/>
<text text-anchor="middle" x="1339.5" y="-622.8" font-family="Times,serif" font-size="14.00">2: organization_id</text>
<polyline fill="none" stroke="blue" points="1274.5,-615 1404.5,-615 "/>
<text text-anchor="middle" x="1339.5" y="-599.8" font-family="Times,serif" font-size="14.00">3: phone_number_id</text>
</g>
<!-- phone_organizations&#45;&gt;organizations -->
<g id="edge10" class="edge"><title>phone_organizations:port2&#45;&gt;organizations:port0:w</title>
<path fill="none" stroke="grey" d="M1406,-626.5C1413.78,-626.5 1409.92,-597.529 1405,-591.5 1318.42,-485.368 1237.2,-556.8 1105,-521 987.418,-489.159 915.745,-538.212 843,-440.5 839.177,-435.365 835.697,-342.895 839.067,-311.975"/>
<polygon fill="grey" stroke="grey" points="842.537,-312.581 842,-302 835.822,-310.607 842.537,-312.581"/>
</g>
<!-- phone_organizations&#45;&gt;phone_numbers -->
<g id="edge17" class="edge"><title>phone_organizations:port3&#45;&gt;phone_numbers:port0:w</title>
<path fill="none" stroke="grey" d="M1406,-603.5C1436.9,-603.5 1330.02,-359.073 1333.47,-310.379"/>
<polygon fill="grey" stroke="grey" points="1336.41,-312.274 1339,-302 1330.57,-308.417 1336.41,-312.274"/>
</g>
<!-- phone_people -->
<g id="node16" class="node"><title>phone_people</title>
<path fill="none" stroke="blue" d="M917,-592C917,-592 1115,-592 1115,-592 1121,-592 1127,-598 1127,-604 1127,-604 1127,-649 1127,-649 1127,-655 1121,-661 1115,-661 1115,-661 917,-661 917,-661 911,-661 905,-655 905,-649 905,-649 905,-604 905,-604 905,-598 911,-592 917,-592"/>
<text text-anchor="middle" x="951" y="-622.8" font-family="Times,serif" font-size="14.00">phone_people</text>
<polyline fill="none" stroke="blue" points="997,-592 997,-661 "/>
<text text-anchor="middle" x="1062" y="-645.8" font-family="Times,serif" font-size="14.00">1: id</text>
<polyline fill="none" stroke="blue" points="997,-638 1127,-638 "/>
<text text-anchor="middle" x="1062" y="-622.8" font-family="Times,serif" font-size="14.00">2: person_id</text>
<polyline fill="none" stroke="blue" points="997,-615 1127,-615 "/>
<text text-anchor="middle" x="1062" y="-599.8" font-family="Times,serif" font-size="14.00">3: phone_number_id</text>
</g>
<!-- phone_people&#45;&gt;people -->
<g id="edge13" class="edge"><title>phone_people:port2&#45;&gt;people:port0:w</title>
<path fill="none" stroke="grey" d="M1128,-626.5C1135.78,-626.5 1132.16,-597.321 1127,-591.5 1058.12,-513.84 998.843,-571.105 896,-557 832.1,-548.236 650.795,-569.255 608,-521 545.751,-450.809 512.145,-312.468 596.958,-302.562"/>
<polygon fill="grey" stroke="grey" points="597.211,-306.054 607,-302 596.82,-299.065 597.211,-306.054"/>
</g>
<!-- phone_people&#45;&gt;phone_numbers -->
<g id="edge18" class="edge"><title>phone_people:port3&#45;&gt;phone_numbers:port0:w</title>
<path fill="none" stroke="grey" d="M1128,-603.5C1138.49,-603.5 1128.63,-564.463 1136,-557 1197.6,-494.586 1272.56,-587.264 1330,-521 1336.95,-512.985 1329.38,-352.755 1335.36,-311.579"/>
<polygon fill="grey" stroke="grey" points="1338.72,-312.591 1339,-302 1332.18,-310.107 1338.72,-312.591"/>
</g>
<!-- report_entities -->
<g id="node17" class="node"><title>report_entities</title>
<path fill="none" stroke="blue" d="M1731,-603.5C1731,-603.5 1863,-603.5 1863,-603.5 1869,-603.5 1875,-609.5 1875,-615.5 1875,-615.5 1875,-637.5 1875,-637.5 1875,-643.5 1869,-649.5 1863,-649.5 1863,-649.5 1731,-649.5 1731,-649.5 1725,-649.5 1719,-643.5 1719,-637.5 1719,-637.5 1719,-615.5 1719,-615.5 1719,-609.5 1725,-603.5 1731,-603.5"/>
<text text-anchor="middle" x="1766.5" y="-622.8" font-family="Times,serif" font-size="14.00">report_entities</text>
<polyline fill="none" stroke="blue" points="1814,-603.5 1814,-649.5 "/>
<text text-anchor="middle" x="1844.5" y="-634.3" font-family="Times,serif" font-size="14.00">1: id</text>
<polyline fill="none" stroke="blue" points="1814,-626.5 1875,-626.5 "/>
<text text-anchor="middle" x="1844.5" y="-611.3" font-family="Times,serif" font-size="14.00">2: name</text>
</g>
<!-- reports -->
<g id="node18" class="node"><title>reports</title>
<path fill="none" stroke="blue" d="M1905.5,-603.5C1905.5,-603.5 1996.5,-603.5 1996.5,-603.5 2002.5,-603.5 2008.5,-609.5 2008.5,-615.5 2008.5,-615.5 2008.5,-637.5 2008.5,-637.5 2008.5,-643.5 2002.5,-649.5 1996.5,-649.5 1996.5,-649.5 1905.5,-649.5 1905.5,-649.5 1899.5,-649.5 1893.5,-643.5 1893.5,-637.5 1893.5,-637.5 1893.5,-615.5 1893.5,-615.5 1893.5,-609.5 1899.5,-603.5 1905.5,-603.5"/>
<text text-anchor="middle" x="1920.5" y="-622.8" font-family="Times,serif" font-size="14.00">reports</text>
<polyline fill="none" stroke="blue" points="1947.5,-603.5 1947.5,-649.5 "/>
<text text-anchor="middle" x="1978" y="-634.3" font-family="Times,serif" font-size="14.00">1: id</text>
<polyline fill="none" stroke="blue" points="1947.5,-626.5 2008.5,-626.5 "/>
<text text-anchor="middle" x="1978" y="-611.3" font-family="Times,serif" font-size="14.00">2: name</text>
</g>
<!-- sessions -->
<g id="node20" class="node"><title>sessions</title>
<path fill="none" stroke="blue" d="M2039,-603.5C2039,-603.5 2159,-603.5 2159,-603.5 2165,-603.5 2171,-609.5 2171,-615.5 2171,-615.5 2171,-637.5 2171,-637.5 2171,-643.5 2165,-649.5 2159,-649.5 2159,-649.5 2039,-649.5 2039,-649.5 2033,-649.5 2027,-643.5 2027,-637.5 2027,-637.5 2027,-615.5 2027,-615.5 2027,-609.5 2033,-603.5 2039,-603.5"/>
<text text-anchor="middle" x="2057.5" y="-622.8" font-family="Times,serif" font-size="14.00">sessions</text>
<polyline fill="none" stroke="blue" points="2088,-603.5 2088,-649.5 "/>
<text text-anchor="middle" x="2129.5" y="-634.3" font-family="Times,serif" font-size="14.00">1: a_session</text>
<polyline fill="none" stroke="blue" points="2088,-626.5 2171,-626.5 "/>
<text text-anchor="middle" x="2129.5" y="-611.3" font-family="Times,serif" font-size="14.00">2: id</text>
</g>
<!-- spouses -->
<g id="node21" class="node"><title>spouses</title>
<path fill="none" stroke="blue" d="M518,-592C518,-592 638,-592 638,-592 644,-592 650,-598 650,-604 650,-604 650,-649 650,-649 650,-655 644,-661 638,-661 638,-661 518,-661 518,-661 512,-661 506,-655 506,-649 506,-649 506,-604 506,-604 506,-598 512,-592 518,-592"/>
<text text-anchor="middle" x="535.5" y="-622.8" font-family="Times,serif" font-size="14.00">spouses</text>
<polyline fill="none" stroke="blue" points="565,-592 565,-661 "/>
<text text-anchor="middle" x="607.5" y="-645.8" font-family="Times,serif" font-size="14.00">1: id</text>
<polyline fill="none" stroke="blue" points="565,-638 650,-638 "/>
<text text-anchor="middle" x="607.5" y="-622.8" font-family="Times,serif" font-size="14.00">2: person_id</text>
<polyline fill="none" stroke="blue" points="565,-615 650,-615 "/>
<text text-anchor="middle" x="607.5" y="-599.8" font-family="Times,serif" font-size="14.00">3: spouse_id</text>
</g>
<!-- spouses&#45;&gt;people -->
<g id="edge14" class="edge"><title>spouses:port2&#45;&gt;people:port0:w</title>
<path fill="none" stroke="grey" d="M651,-626.5C666.562,-626.5 654.344,-606.443 650,-591.5 639.818,-556.478 617.761,-556.142 608,-521 582.918,-430.696 514.967,-311.25 596.854,-302.509"/>
<polygon fill="grey" stroke="grey" points="597.188,-305.997 607,-302 596.837,-299.006 597.188,-305.997"/>
</g>
<!-- spouses&#45;&gt;people -->
<g id="edge15" class="edge"><title>spouses:port3&#45;&gt;people:port0:w</title>
<path fill="none" stroke="grey" d="M651,-603.5C656.352,-603.5 651.634,-596.596 650,-591.5 638.866,-556.769 617.761,-556.142 608,-521 582.918,-430.696 514.967,-311.25 596.854,-302.509"/>
<polygon fill="grey" stroke="grey" points="597.188,-305.997 607,-302 596.837,-299.006 597.188,-305.997"/>
</g>
<!-- yes_noes -->
<g id="node24" class="node"><title>yes_noes</title>
<path fill="none" stroke="blue" d="M2201.5,-603.5C2201.5,-603.5 2304.5,-603.5 2304.5,-603.5 2310.5,-603.5 2316.5,-609.5 2316.5,-615.5 2316.5,-615.5 2316.5,-637.5 2316.5,-637.5 2316.5,-643.5 2310.5,-649.5 2304.5,-649.5 2304.5,-649.5 2201.5,-649.5 2201.5,-649.5 2195.5,-649.5 2189.5,-643.5 2189.5,-637.5 2189.5,-637.5 2189.5,-615.5 2189.5,-615.5 2189.5,-609.5 2195.5,-603.5 2201.5,-603.5"/>
<text text-anchor="middle" x="2222.5" y="-622.8" font-family="Times,serif" font-size="14.00">yes_noes</text>
<polyline fill="none" stroke="blue" points="2255.5,-603.5 2255.5,-649.5 "/>
<text text-anchor="middle" x="2286" y="-634.3" font-family="Times,serif" font-size="14.00">1: id</text>
<polyline fill="none" stroke="blue" points="2255.5,-626.5 2316.5,-626.5 "/>
<text text-anchor="middle" x="2286" y="-611.3" font-family="Times,serif" font-size="14.00">2: name</text>
</g>
</g>
</svg>
