<?xml version="1.0" encoding="UTF-8" standalone="no"?>
<!DOCTYPE svg PUBLIC "-//W3C//DTD SVG 1.1//EN"
 "http://www.w3.org/Graphics/SVG/1.1/DTD/svg11.dtd">
<!-- Generated by graphviz version 2.38.0 (20140413.2041)
 -->
<!-- Title: Perl Pages: 1 -->
<svg width="268pt" height="211pt"
 viewBox="0.00 0.00 267.89 211.00" xmlns="http://www.w3.org/2000/svg" xmlns:xlink="http://www.w3.org/1999/xlink">
<g id="graph0" class="graph" transform="scale(1 1) rotate(0) translate(4 207)">
<title>Perl</title>
<polygon fill="white" stroke="none" points="-4,4 -4,-207 263.889,-207 263.889,4 -4,4"/>
<text text-anchor="middle" x="129.945" y="-7.8" font-family="Times,serif" font-size="14.00">Adult</text>
<!-- Adult -->
<g id="node1" class="node"><title>Adult</title>
<ellipse fill="none" stroke="black" cx="129.445" cy="-185" rx="32.4942" ry="18"/>
<text text-anchor="middle" x="129.445" y="-181.3" font-family="Times,serif" font-size="14.00">Adult</text>
</g>
<!-- Adult::Child1 -->
<g id="node2" class="node"><title>Adult::Child1</title>
<ellipse fill="none" stroke="black" cx="60.4446" cy="-113" rx="60.3893" ry="18"/>
<text text-anchor="middle" x="60.4446" y="-109.3" font-family="Times,serif" font-size="14.00">Adult::Child1</text>
</g>
<!-- Adult::Child1&#45;&gt;Adult -->
<g id="edge1" class="edge"><title>Adult::Child1&#45;&gt;Adult</title>
<path fill="none" stroke="grey" d="M76.7967,-130.589C85.9427,-139.868 97.4676,-151.559 107.401,-161.637"/>
<polygon fill="grey" stroke="grey" points="105.109,-164.297 114.621,-168.962 110.094,-159.383 105.109,-164.297"/>
</g>
<!-- Adult::Child2 -->
<g id="node3" class="node"><title>Adult::Child2</title>
<ellipse fill="none" stroke="black" cx="199.445" cy="-113" rx="60.3893" ry="18"/>
<text text-anchor="middle" x="199.445" y="-109.3" font-family="Times,serif" font-size="14.00">Adult::Child2</text>
</g>
<!-- Adult::Child2&#45;&gt;Adult -->
<g id="edge2" class="edge"><title>Adult::Child2&#45;&gt;Adult</title>
<path fill="none" stroke="grey" d="M182.856,-130.589C173.577,-139.868 161.885,-151.559 151.808,-161.637"/>
<polygon fill="grey" stroke="grey" points="149.079,-159.416 144.483,-168.962 154.029,-164.366 149.079,-159.416"/>
</g>
<!-- Adult::Child::Grandchild -->
<g id="node4" class="node"><title>Adult::Child::Grandchild</title>
<ellipse fill="none" stroke="black" cx="129.445" cy="-41" rx="101.282" ry="18"/>
<text text-anchor="middle" x="129.445" y="-37.3" font-family="Times,serif" font-size="14.00">Adult::Child::Grandchild</text>
</g>
<!-- Adult::Child::Grandchild&#45;&gt;Adult::Child1 -->
<g id="edge3" class="edge"><title>Adult::Child::Grandchild&#45;&gt;Adult::Child1</title>
<path fill="none" stroke="grey" d="M112.742,-58.945C104.182,-67.6293 93.6084,-78.3556 84.2141,-87.886"/>
<polygon fill="grey" stroke="grey" points="81.5212,-85.6322 76.9938,-95.211 86.5065,-90.5462 81.5212,-85.6322"/>
</g>
<!-- Adult::Child::Grandchild&#45;&gt;Adult::Child2 -->
<g id="edge4" class="edge"><title>Adult::Child::Grandchild&#45;&gt;Adult::Child2</title>
<path fill="none" stroke="grey" d="M146.39,-58.945C155.074,-67.6293 165.8,-78.3556 175.331,-87.886"/>
<polygon fill="grey" stroke="grey" points="173.11,-90.6148 182.656,-95.211 178.059,-85.665 173.11,-90.6148"/>
</g>
</g>
</svg>
