<?xml version="1.0" encoding="UTF-8" standalone="no"?>
<!DOCTYPE svg PUBLIC "-//W3C//DTD SVG 1.1//EN"
 "http://www.w3.org/Graphics/SVG/1.1/DTD/svg11.dtd">
<!-- Generated by graphviz version 2.38.0 (20140413.2041)
 -->
<!-- Title: Heawood Pages: 1 -->
<svg width="230pt" height="1008pt"
 viewBox="0.00 0.00 230.00 1007.58" xmlns="http://www.w3.org/2000/svg" xmlns:xlink="http://www.w3.org/1999/xlink">
<g id="graph0" class="graph" transform="scale(1 1) rotate(0) translate(4 1003.58)">
<title>Heawood</title>
<polygon fill="white" stroke="none" points="-4,4 -4,-1003.58 226,-1003.58 226,4 -4,4"/>
<!-- 0 -->
<g id="node1" class="node"><title>0</title>
<ellipse fill="none" stroke="black" cx="176" cy="-981.585" rx="18" ry="18"/>
<text text-anchor="middle" x="176" y="-977.885" font-family="Arial" font-size="14.00">0</text>
</g>
<!-- 1 -->
<g id="node2" class="node"><title>1</title>
<ellipse fill="none" stroke="black" cx="107" cy="-909.585" rx="18" ry="18"/>
<text text-anchor="middle" x="107" y="-905.885" font-family="Arial" font-size="14.00">1</text>
</g>
<!-- 0&#45;&#45;1 -->
<g id="edge1" class="edge"><title>0&#45;&#45;1</title>
<path fill="none" stroke="black" d="M163.664,-968.07C151.105,-955.329 131.75,-935.693 119.229,-922.991"/>
</g>
<!-- 5 -->
<g id="node6" class="node"><title>5</title>
<ellipse fill="none" stroke="black" cx="176" cy="-621.585" rx="18" ry="18"/>
<text text-anchor="middle" x="176" y="-617.885" font-family="Arial" font-size="14.00">5</text>
</g>
<!-- 0&#45;&#45;5 -->
<g id="edge15" class="edge"><title>0&#45;&#45;5</title>
<path fill="none" stroke="black" d="M176,-963.535C176,-936.876 176,-883.699 176,-838.585 176,-838.585 176,-838.585 176,-764.585 176,-719.47 176,-666.293 176,-639.634"/>
</g>
<!-- 2 -->
<g id="node3" class="node"><title>2</title>
<ellipse fill="none" stroke="black" cx="107" cy="-837.585" rx="18" ry="18"/>
<text text-anchor="middle" x="107" y="-833.885" font-family="Arial" font-size="14.00">2</text>
</g>
<!-- 1&#45;&#45;2 -->
<g id="edge2" class="edge"><title>1&#45;&#45;2</title>
<path fill="none" stroke="black" d="M107,-891.281C107,-880.431 107,-866.501 107,-855.689"/>
</g>
<!-- 3 -->
<g id="node4" class="node"><title>3</title>
<ellipse fill="none" stroke="black" cx="84" cy="-765.585" rx="18" ry="18"/>
<text text-anchor="middle" x="84" y="-761.885" font-family="Arial" font-size="14.00">3</text>
</g>
<!-- 2&#45;&#45;3 -->
<g id="edge3" class="edge"><title>2&#45;&#45;3</title>
<path fill="none" stroke="black" d="M101.666,-820.349C98.0029,-809.202 93.1556,-794.45 89.4653,-783.218"/>
</g>
<!-- 7 -->
<g id="node8" class="node"><title>7</title>
<ellipse fill="none" stroke="black" cx="130" cy="-477.585" rx="18" ry="18"/>
<text text-anchor="middle" x="130" y="-473.885" font-family="Arial" font-size="14.00">7</text>
</g>
<!-- 2&#45;&#45;7 -->
<g id="edge16" class="edge"><title>2&#45;&#45;7</title>
<path fill="none" stroke="black" d="M111.435,-820.11C118.118,-793.79 130,-740.537 130,-694.585 130,-694.585 130,-694.585 130,-620.585 130,-575.47 130,-522.293 130,-495.634"/>
</g>
<!-- 4 -->
<g id="node5" class="node"><title>4</title>
<ellipse fill="none" stroke="black" cx="84" cy="-693.585" rx="18" ry="18"/>
<text text-anchor="middle" x="84" y="-689.885" font-family="Arial" font-size="14.00">4</text>
</g>
<!-- 3&#45;&#45;4 -->
<g id="edge4" class="edge"><title>3&#45;&#45;4</title>
<path fill="none" stroke="black" d="M84,-747.281C84,-736.431 84,-722.501 84,-711.689"/>
</g>
<!-- 4&#45;&#45;5 -->
<g id="edge5" class="edge"><title>4&#45;&#45;5</title>
<path fill="none" stroke="black" d="M97.9728,-681.953C115.265,-668.796 144.543,-646.519 161.896,-633.316"/>
</g>
<!-- 9 -->
<g id="node10" class="node"><title>9</title>
<ellipse fill="none" stroke="black" cx="87" cy="-333.585" rx="18" ry="18"/>
<text text-anchor="middle" x="87" y="-329.885" font-family="Arial" font-size="14.00">9</text>
</g>
<!-- 4&#45;&#45;9 -->
<g id="edge17" class="edge"><title>4&#45;&#45;9</title>
<path fill="none" stroke="black" d="M84,-675.535C84,-648.876 84,-595.699 84,-550.585 84,-550.585 84,-550.585 84,-476.585 84,-431.46 85.533,-378.287 86.4073,-351.632"/>
</g>
<!-- 6 -->
<g id="node7" class="node"><title>6</title>
<ellipse fill="none" stroke="black" cx="176" cy="-549.585" rx="18" ry="18"/>
<text text-anchor="middle" x="176" y="-545.885" font-family="Arial" font-size="14.00">6</text>
</g>
<!-- 5&#45;&#45;6 -->
<g id="edge6" class="edge"><title>5&#45;&#45;6</title>
<path fill="none" stroke="black" d="M176,-603.281C176,-592.431 176,-578.501 176,-567.689"/>
</g>
<!-- 6&#45;&#45;7 -->
<g id="edge7" class="edge"><title>6&#45;&#45;7</title>
<path fill="none" stroke="black" d="M166.469,-534.081C158.574,-522.067 147.41,-505.079 139.519,-493.07"/>
</g>
<!-- 11 -->
<g id="node12" class="node"><title>11</title>
<ellipse fill="none" stroke="black" cx="87" cy="-179.24" rx="21.3963" ry="21.3963"/>
<text text-anchor="middle" x="87" y="-175.54" font-family="Arial" font-size="14.00">11</text>
</g>
<!-- 6&#45;&#45;11 -->
<g id="edge18" class="edge"><title>6&#45;&#45;11</title>
<path fill="none" stroke="black" d="M176,-531.535C176,-504.876 176,-451.699 176,-406.585 176,-406.585 176,-406.585 176,-332.585 176,-274.998 128.002,-219.831 102.503,-194.587"/>
</g>
<!-- 8 -->
<g id="node9" class="node"><title>8</title>
<ellipse fill="none" stroke="black" cx="130" cy="-405.585" rx="18" ry="18"/>
<text text-anchor="middle" x="130" y="-401.885" font-family="Arial" font-size="14.00">8</text>
</g>
<!-- 7&#45;&#45;8 -->
<g id="edge8" class="edge"><title>7&#45;&#45;8</title>
<path fill="none" stroke="black" d="M130,-459.281C130,-448.431 130,-434.501 130,-423.689"/>
</g>
<!-- 8&#45;&#45;9 -->
<g id="edge9" class="edge"><title>8&#45;&#45;9</title>
<path fill="none" stroke="black" d="M120.881,-389.74C113.584,-377.86 103.4,-361.282 96.106,-349.409"/>
</g>
<!-- 13 -->
<g id="node14" class="node"><title>13</title>
<ellipse fill="none" stroke="black" cx="136" cy="-21.4481" rx="21.3963" ry="21.3963"/>
<text text-anchor="middle" x="136" y="-17.7481" font-family="Arial" font-size="14.00">13</text>
</g>
<!-- 8&#45;&#45;13 -->
<g id="edge19" class="edge"><title>8&#45;&#45;13</title>
<path fill="none" stroke="black" d="M131.157,-387.576C132.9,-360.433 136,-305.639 136,-259.137 136,-259.137 136,-259.137 136,-178.24 136,-129.826 136,-72.9481 136,-43.1126"/>
</g>
<!-- 10 -->
<g id="node11" class="node"><title>10</title>
<ellipse fill="none" stroke="black" cx="87" cy="-258.137" rx="21.3963" ry="21.3963"/>
<text text-anchor="middle" x="87" y="-254.437" font-family="Arial" font-size="14.00">10</text>
</g>
<!-- 9&#45;&#45;10 -->
<g id="edge10" class="edge"><title>9&#45;&#45;10</title>
<path fill="none" stroke="black" d="M87,-315.55C87,-304.871 87,-291.038 87,-279.743"/>
</g>
<!-- 10&#45;&#45;1 -->
<g id="edge20" class="edge"><title>10&#45;&#45;1</title>
<path fill="none" stroke="black" d="M71.4461,-273.148C46.4219,-297.315 0,-349.562 0,-404.585 0,-766.585 0,-766.585 0,-766.585 0,-827.086 62.7214,-878.183 92.1221,-898.811"/>
</g>
<!-- 10&#45;&#45;11 -->
<g id="edge11" class="edge"><title>10&#45;&#45;11</title>
<path fill="none" stroke="black" d="M87,-236.53C87,-225.497 87,-211.946 87,-200.904"/>
</g>
<!-- 12 -->
<g id="node13" class="node"><title>12</title>
<ellipse fill="none" stroke="black" cx="87" cy="-100.344" rx="21.3963" ry="21.3963"/>
<text text-anchor="middle" x="87" y="-96.6443" font-family="Arial" font-size="14.00">12</text>
</g>
<!-- 11&#45;&#45;12 -->
<g id="edge12" class="edge"><title>11&#45;&#45;12</title>
<path fill="none" stroke="black" d="M87,-157.634C87,-146.601 87,-133.049 87,-122.008"/>
</g>
<!-- 12&#45;&#45;3 -->
<g id="edge21" class="edge"><title>12&#45;&#45;3</title>
<path fill="none" stroke="black" d="M75.8357,-119.018C69.4555,-129.841 61.7942,-144.185 57,-157.792 42.0623,-200.191 38,-212.183 38,-257.137 38,-622.585 38,-622.585 38,-622.585 38,-663.032 43.483,-673.463 57,-711.585 61.7624,-725.016 69.2363,-739.368 75.1143,-749.745"/>
</g>
<!-- 12&#45;&#45;13 -->
<g id="edge13" class="edge"><title>12&#45;&#45;13</title>
<path fill="none" stroke="black" d="M98.1189,-81.8954C106.138,-69.3108 116.916,-52.3966 124.925,-39.828"/>
</g>
<!-- 13&#45;&#45;0 -->
<g id="edge14" class="edge"><title>13&#45;&#45;0</title>
<path fill="none" stroke="black" d="M150.98,-37.2909C175.62,-63.3646 222,-120.159 222,-178.24 222,-838.585 222,-838.585 222,-838.585 222,-886.785 197.717,-939.905 184.437,-965.351"/>
</g>
</g>
</svg>
