<?xml version="1.0" encoding="UTF-8" standalone="no"?>
<!DOCTYPE svg PUBLIC "-//W3C//DTD SVG 1.1//EN"
 "http://www.w3.org/Graphics/SVG/1.1/DTD/svg11.dtd">
<!-- Generated by graphviz version 2.38.0 (20140413.2041)
 -->
<!-- Title: Perl Pages: 1 -->
<svg width="304pt" height="342pt"
 viewBox="0.00 0.00 304.40 341.56" xmlns="http://www.w3.org/2000/svg" xmlns:xlink="http://www.w3.org/1999/xlink">
<g id="graph0" class="graph" transform="scale(1 1) rotate(0) translate(4 337.557)">
<title>Perl</title>
<polygon fill="white" stroke="none" points="-4,4 -4,-337.557 300.396,-337.557 300.396,4 -4,4"/>
<text text-anchor="middle" x="148.198" y="-7.8" font-family="Times,serif" font-size="14.00">HTML label demo # 1 &#45; Using &lt; ... &gt;</text>
<!-- Carnegie -->
<g id="node1" class="node"><title>Carnegie</title>
<ellipse fill="red" stroke="red" cx="42.8962" cy="-65.8962" rx="42.7926" ry="42.7926"/>
<text text-anchor="middle" x="42.8962" y="-62.1962" font-family="Times,serif" font-size="14.00">Carnegie</text>
</g>
<!-- Murrumbeena -->
<g id="node2" class="node"><title>Murrumbeena</title>
<ellipse fill="none" stroke="green" cx="152.896" cy="-261.675" rx="67.7712" ry="67.7712"/>
<ellipse fill="none" stroke="green" cx="152.896" cy="-261.675" rx="71.7647" ry="71.7647"/>
<text text-anchor="start" x="112.896" y="-272.975" font-family="Times,serif" font-size="14.00">Murrumbeena</text>
<text text-anchor="start" x="129.896" y="-257.975" font-family="Times,serif" font-size="14.00" fill="#0000ff">Victoria</text>
<text text-anchor="start" x="126.396" y="-242.975" font-family="Times,serif" font-size="14.00">Australia</text>
</g>
<!-- Murrumbeena&#45;&gt;Carnegie -->
<g id="edge1" class="edge"><title>Murrumbeena&#45;&gt;Carnegie</title>
<path fill="none" stroke="grey" d="M117.789,-198.829C103.61,-173.85 87.3916,-145.28 73.6816,-121.128"/>
<polygon fill="grey" stroke="grey" points="79.7226,-117.591 63.7617,-103.653 67.5475,-124.502 79.7226,-117.591"/>
<text text-anchor="start" x="104.896" y="-160.592" font-family="Times,serif" font-size="14.00">Bike</text>
<text text-anchor="start" x="101.896" y="-145.592" font-family="Times,serif" font-size="14.00">Train</text>
<text text-anchor="start" x="101.896" y="-130.592" font-family="Times,serif" font-size="14.00">Stroll</text>
</g>
<!-- Oakleigh -->
<g id="node3" class="node"><title>Oakleigh</title>
<path fill="none" stroke="blue" d="M115.396,-47.8962C115.396,-47.8962 284.396,-47.8962 284.396,-47.8962 290.396,-47.8962 296.396,-53.8962 296.396,-59.8962 296.396,-59.8962 296.396,-71.8962 296.396,-71.8962 296.396,-77.8962 290.396,-83.8962 284.396,-83.8962 284.396,-83.8962 115.396,-83.8962 115.396,-83.8962 109.396,-83.8962 103.396,-77.8962 103.396,-71.8962 103.396,-71.8962 103.396,-59.8962 103.396,-59.8962 103.396,-53.8962 109.396,-47.8962 115.396,-47.8962"/>
<text text-anchor="middle" x="152.896" y="-62.1962" font-family="Times,serif" font-size="14.00">West Oakleigh</text>
<polyline fill="none" stroke="blue" points="202.396,-47.8962 202.396,-83.8962 "/>
<text text-anchor="middle" x="249.396" y="-62.1962" font-family="Times,serif" font-size="14.00">East Oakleigh</text>
</g>
<!-- Murrumbeena&#45;&gt;Oakleigh -->
<g id="edge2" class="edge"><title>Murrumbeena&#45;&gt;Oakleigh:port1</title>
<path fill="none" stroke="brown" d="M152.896,-189.687C152.896,-160.797 152.896,-126.799 152.896,-95.0985"/>
<polygon fill="brown" stroke="brown" points="156.396,-94.8962 152.896,-84.8962 149.396,-94.8962 156.396,-94.8962"/>
<text text-anchor="start" x="159.896" y="-160.592" font-family="Times,serif" font-size="14.00">Meander</text>
<text text-anchor="start" x="152.896" y="-145.592" font-family="Times,serif" font-size="14.00">Promenade</text>
<text text-anchor="start" x="162.896" y="-130.592" font-family="Times,serif" font-size="14.00">Saunter</text>
</g>
<!-- Murrumbeena&#45;&gt;Oakleigh -->
<g id="edge3" class="edge"><title>Murrumbeena&#45;&gt;Oakleigh:port2</title>
<path fill="none" stroke="green" d="M200.544,-207.395C223.254,-176.928 246.213,-136.568 249.496,-94.9306"/>
<polygon fill="green" stroke="green" points="252.995,-95.0277 249.896,-84.8962 246.001,-94.7488 252.995,-95.0277"/>
<text text-anchor="start" x="244.896" y="-160.592" font-family="Times,serif" font-size="14.00">Drive</text>
<text text-anchor="start" x="248.896" y="-145.592" font-family="Times,serif" font-size="14.00">Run</text>
<text text-anchor="start" x="242.896" y="-130.592" font-family="Times,serif" font-size="14.00">Sprint</text>
</g>
</g>
</svg>
