<?xml version="1.0" encoding="UTF-8" standalone="no"?>
<!DOCTYPE svg PUBLIC "-//W3C//DTD SVG 1.1//EN"
 "http://www.w3.org/Graphics/SVG/1.1/DTD/svg11.dtd">
<!-- Generated by graphviz version 2.38.0 (20140413.2041)
 -->
<!-- Title: Perl Pages: 1 -->
<svg width="304pt" height="251pt"
 viewBox="0.00 0.00 304.40 250.79" xmlns="http://www.w3.org/2000/svg" xmlns:xlink="http://www.w3.org/1999/xlink">
<g id="graph0" class="graph" transform="scale(1 1) rotate(0) translate(4 246.792)">
<title>Perl</title>
<polygon fill="white" stroke="none" points="-4,4 -4,-246.792 300.396,-246.792 300.396,4 -4,4"/>
<text text-anchor="middle" x="148.198" y="-7.8" font-family="Times,serif" font-size="14.00">HTML label demo # 1 &#45; Using &lt; ... &gt;</text>
<!-- Carnegie -->
<g id="node1" class="node"><title>Carnegie</title>
<ellipse fill="red" stroke="red" cx="42.8962" cy="-65.8962" rx="42.7926" ry="42.7926"/>
<text text-anchor="middle" x="42.8962" y="-62.1962" font-family="Times,serif" font-size="14.00">Carnegie</text>
</g>
<!-- Murrumbeena -->
<g id="node2" class="node"><title>Murrumbeena</title>
<path fill="none" stroke="green" d="M188.896,-242.792C188.896,-242.792 116.896,-242.792 116.896,-242.792 110.896,-242.792 104.896,-236.792 104.896,-230.792 104.896,-230.792 104.896,-201.792 104.896,-201.792 104.896,-195.792 110.896,-189.792 116.896,-189.792 116.896,-189.792 188.896,-189.792 188.896,-189.792 194.896,-189.792 200.896,-195.792 200.896,-201.792 200.896,-201.792 200.896,-230.792 200.896,-230.792 200.896,-236.792 194.896,-242.792 188.896,-242.792"/>
<text text-anchor="start" x="112.896" y="-227.592" font-family="Times,serif" font-size="14.00">Murrumbeena</text>
<text text-anchor="start" x="129.896" y="-212.592" font-family="Times,serif" font-size="14.00" fill="#0000ff">Victoria</text>
<text text-anchor="start" x="126.396" y="-197.592" font-family="Times,serif" font-size="14.00">Australia</text>
</g>
<!-- Murrumbeena&#45;&gt;Carnegie -->
<g id="edge1" class="edge"><title>Murrumbeena&#45;&gt;Carnegie</title>
<path fill="none" stroke="grey" d="M130.863,-189.333C126.17,-183.62 121.303,-177.555 116.896,-171.792 103.866,-154.754 90.174,-135.7 78.1594,-118.555"/>
<polygon fill="grey" stroke="grey" points="83.7274,-114.3 66.5682,-101.868 72.2293,-122.288 83.7274,-114.3"/>
<text text-anchor="start" x="119.896" y="-160.592" font-family="Times,serif" font-size="14.00">Bike</text>
<text text-anchor="start" x="116.896" y="-145.592" font-family="Times,serif" font-size="14.00">Train</text>
<text text-anchor="start" x="116.896" y="-130.592" font-family="Times,serif" font-size="14.00">Stroll</text>
</g>
<!-- Oakleigh -->
<g id="node3" class="node"><title>Oakleigh</title>
<path fill="none" stroke="blue" d="M115.396,-47.8962C115.396,-47.8962 284.396,-47.8962 284.396,-47.8962 290.396,-47.8962 296.396,-53.8962 296.396,-59.8962 296.396,-59.8962 296.396,-71.8962 296.396,-71.8962 296.396,-77.8962 290.396,-83.8962 284.396,-83.8962 284.396,-83.8962 115.396,-83.8962 115.396,-83.8962 109.396,-83.8962 103.396,-77.8962 103.396,-71.8962 103.396,-71.8962 103.396,-59.8962 103.396,-59.8962 103.396,-53.8962 109.396,-47.8962 115.396,-47.8962"/>
<text text-anchor="middle" x="152.896" y="-62.1962" font-family="Times,serif" font-size="14.00">West Oakleigh</text>
<polyline fill="none" stroke="blue" points="202.396,-47.8962 202.396,-83.8962 "/>
<text text-anchor="middle" x="249.396" y="-62.1962" font-family="Times,serif" font-size="14.00">East Oakleigh</text>
</g>
<!-- Murrumbeena&#45;&gt;Oakleigh -->
<g id="edge2" class="edge"><title>Murrumbeena&#45;&gt;Oakleigh:port1</title>
<path fill="none" stroke="brown" d="M152.896,-189.315C152.896,-165.465 152.896,-128.833 152.896,-95.2151"/>
<polygon fill="brown" stroke="brown" points="156.396,-94.8962 152.896,-84.8962 149.396,-94.8962 156.396,-94.8962"/>
<text text-anchor="start" x="159.896" y="-160.592" font-family="Times,serif" font-size="14.00">Meander</text>
<text text-anchor="start" x="152.896" y="-145.592" font-family="Times,serif" font-size="14.00">Promenade</text>
<text text-anchor="start" x="162.896" y="-130.592" font-family="Times,serif" font-size="14.00">Saunter</text>
</g>
<!-- Murrumbeena&#45;&gt;Oakleigh -->
<g id="edge3" class="edge"><title>Murrumbeena&#45;&gt;Oakleigh:port2</title>
<path fill="none" stroke="green" d="M200.969,-190.529C208.377,-185.124 215.384,-178.868 220.896,-171.792 243.672,-142.561 249.012,-128.284 249.788,-95.2571"/>
<polygon fill="green" stroke="green" points="253.291,-94.9324 249.896,-84.8962 246.291,-94.8589 253.291,-94.9324"/>
<text text-anchor="start" x="247.896" y="-160.592" font-family="Times,serif" font-size="14.00">Drive</text>
<text text-anchor="start" x="251.896" y="-145.592" font-family="Times,serif" font-size="14.00">Run</text>
<text text-anchor="start" x="245.896" y="-130.592" font-family="Times,serif" font-size="14.00">Sprint</text>
</g>
</g>
</svg>
