<?xml version="1.0" encoding="UTF-8" standalone="no"?>
<!DOCTYPE svg PUBLIC "-//W3C//DTD SVG 1.1//EN"
 "http://www.w3.org/Graphics/SVG/1.1/DTD/svg11.dtd">
<!-- Generated by graphviz version 2.38.0 (20140413.2041)
 -->
<!-- Title: Perl Pages: 1 -->
<svg width="383pt" height="113pt"
 viewBox="0.00 0.00 382.73 113.02" xmlns="http://www.w3.org/2000/svg" xmlns:xlink="http://www.w3.org/1999/xlink">
<g id="graph0" class="graph" transform="scale(1 1) rotate(0) translate(4 109.024)">
<title>Perl</title>
<polygon fill="white" stroke="none" points="-4,4 -4,-109.024 378.731,-109.024 378.731,4 -4,4"/>
<text text-anchor="middle" x="187.366" y="-7.8" font-family="Times,serif" font-size="14.00">HTML label demo # 3 &#45; Fixing newlines</text>
<!-- One -->
<g id="node1" class="node"><title>One</title>
<ellipse fill="none" stroke="black" cx="29.6985" cy="-64.0122" rx="29.8983" ry="26.7407"/>
<text text-anchor="start" x="18.1985" y="-67.8122" font-family="Times,serif" font-size="14.00">One</text>
<text text-anchor="start" x="16.6985" y="-52.8122" font-family="Times,serif" font-size="14.00" fill="#0000ff">Blue</text>
</g>
<!-- Two -->
<g id="node2" class="node"><title>Two</title>
<ellipse fill="none" stroke="black" cx="112.698" cy="-64.0122" rx="35.2113" ry="26.7407"/>
<text text-anchor="start" x="100.198" y="-67.8122" font-family="Times,serif" font-size="14.00">Two</text>
<text text-anchor="start" x="95.6985" y="-52.8122" font-family="Times,serif" font-size="14.00" fill="#00ff00">Green</text>
</g>
<!-- Three -->
<g id="node3" class="node"><title>Three</title>
<ellipse fill="none" stroke="red" cx="208.698" cy="-64.0122" rx="42.3529" ry="41.0244"/>
<polygon fill="none" stroke="red" points="189.698,-65.0122 189.698,-86.0122 227.698,-86.0122 227.698,-65.0122 189.698,-65.0122"/>
<text text-anchor="start" x="192.698" y="-71.8122" font-family="Times,serif" font-size="14.00">Three</text>
<polygon fill="none" stroke="red" points="189.698,-42.0122 189.698,-63.0122 227.698,-63.0122 227.698,-42.0122 189.698,-42.0122"/>
<text text-anchor="start" x="197.698" y="-48.8122" font-family="Times,serif" font-size="14.00">Red</text>
<polygon fill="none" stroke="red" points="186.698,-39.0122 186.698,-89.0122 230.698,-89.0122 230.698,-39.0122 186.698,-39.0122"/>
</g>
<!-- Four -->
<g id="node4" class="node"><title>Four</title>
<ellipse fill="none" stroke="magenta" cx="321.698" cy="-64.0122" rx="53.066" ry="35.2113"/>
<polygon fill="none" stroke="magenta" points="295.698,-46.0122 295.698,-82.0122 348.698,-82.0122 348.698,-46.0122 295.698,-46.0122"/>
<text text-anchor="start" x="309.198" y="-67.8122" font-family="Times,serif" font-size="14.00">Four</text>
<text text-anchor="start" x="298.698" y="-52.8122" font-family="Times,serif" font-size="14.00">magenta</text>
<polygon fill="none" stroke="magenta" points="292.198,-43.0122 292.198,-85.0122 351.198,-85.0122 351.198,-43.0122 292.198,-43.0122"/>
</g>
</g>
</svg>
