<?xml version="1.0" encoding="UTF-8" standalone="no"?>
<!DOCTYPE svg PUBLIC "-//W3C//DTD SVG 1.1//EN"
 "http://www.w3.org/Graphics/SVG/1.1/DTD/svg11.dtd">
<!-- Generated by graphviz version 2.38.0 (20140413.2041)
 -->
<!-- Title: Perl Pages: 1 -->
<svg width="472pt" height="152pt"
 viewBox="0.00 0.00 472.29 152.00" xmlns="http://www.w3.org/2000/svg" xmlns:xlink="http://www.w3.org/1999/xlink">
<g id="graph0" class="graph" transform="scale(1 1) rotate(0) translate(4 148)">
<title>Perl</title>
<polygon fill="white" stroke="none" points="-4,4 -4,-148 468.292,-148 468.292,4 -4,4"/>
<!-- Carnegie -->
<g id="node1" class="node"><title>Carnegie</title>
<ellipse fill="aquamarine" stroke="aquamarine" cx="42.8962" cy="-126" rx="42.7926" ry="18"/>
<text text-anchor="middle" x="42.8962" y="-122.3" font-family="Times,serif" font-size="14.00">Carnegie</text>
</g>
<!-- one -->
<g id="node4" class="node"><title>one</title>
<ellipse fill="grey" stroke="grey" cx="104.896" cy="-72" rx="0" ry="0"/>
</g>
<!-- Carnegie&#45;&gt;one -->
<g id="edge2" class="edge"><title>Carnegie&#45;&gt;one</title>
<path fill="none" stroke="grey" d="M61.1629,-109.68C78.8799,-94.8202 103.313,-74.3279 104.823,-73.0617"/>
</g>
<!-- Murrumbeena -->
<g id="node2" class="node"><title>Murrumbeena</title>
<ellipse fill="bisque" stroke="bisque" cx="165.896" cy="-126" rx="62.2891" ry="18"/>
<text text-anchor="middle" x="165.896" y="-122.3" font-family="Times,serif" font-size="14.00">Murrumbeena</text>
</g>
<!-- Murrumbeena&#45;&gt;one -->
<g id="edge1" class="edge"><title>Murrumbeena&#45;&gt;one</title>
<path fill="none" stroke="grey" d="M146.93,-108.832C129.583,-94.0442 106.398,-74.2803 104.966,-73.0595"/>
</g>
<!-- Oakleigh -->
<g id="node3" class="node"><title>Oakleigh</title>
<ellipse fill="blueviolet" stroke="blueviolet" cx="104.896" cy="-18" rx="43.5923" ry="18"/>
<text text-anchor="middle" x="104.896" y="-14.3" font-family="Times,serif" font-size="14.00">Oakleigh</text>
</g>
<!-- one&#45;&gt;Oakleigh -->
<g id="edge3" class="edge"><title>one&#45;&gt;Oakleigh</title>
<path fill="none" stroke="grey" d="M104.896,-70.8508C104.896,-69.4317 104.896,-58.1086 104.896,-46.4049"/>
<polygon fill="grey" stroke="grey" points="108.396,-46.261 104.896,-36.2611 101.396,-46.2611 108.396,-46.261"/>
</g>
<!-- Ashburton -->
<g id="node5" class="node"><title>Ashburton</title>
<ellipse fill="lawngreen" stroke="lawngreen" cx="296.896" cy="-126" rx="50.8918" ry="18"/>
<text text-anchor="middle" x="296.896" y="-122.3" font-family="Times,serif" font-size="14.00">Ashburton</text>
</g>
<!-- two -->
<g id="node8" class="node"><title>two</title>
<ellipse fill="grey" stroke="grey" cx="355.896" cy="-72" rx="0" ry="0"/>
</g>
<!-- Ashburton&#45;&gt;two -->
<g id="edge4" class="edge"><title>Ashburton&#45;&gt;two</title>
<path fill="none" stroke="grey" d="M314.919,-109.116C331.727,-94.3014 354.426,-74.2961 355.828,-73.0602"/>
</g>
<!-- Chadstone -->
<g id="node6" class="node"><title>Chadstone</title>
<ellipse fill="coral" stroke="coral" cx="414.896" cy="-126" rx="49.2915" ry="18"/>
<text text-anchor="middle" x="414.896" y="-122.3" font-family="Times,serif" font-size="14.00">Chadstone</text>
</g>
<!-- Chadstone&#45;&gt;two -->
<g id="edge5" class="edge"><title>Chadstone&#45;&gt;two</title>
<path fill="none" stroke="grey" d="M396.874,-109.116C380.065,-94.3014 357.367,-74.2961 355.964,-73.0602"/>
</g>
<!-- Waverley -->
<g id="node7" class="node"><title>Waverley</title>
<ellipse fill="crimson" stroke="crimson" cx="355.896" cy="-18" rx="45.4919" ry="18"/>
<text text-anchor="middle" x="355.896" y="-14.3" font-family="Times,serif" font-size="14.00">Waverley</text>
</g>
<!-- two&#45;&gt;Waverley -->
<g id="edge6" class="edge"><title>two&#45;&gt;Waverley</title>
<path fill="none" stroke="grey" d="M355.896,-70.8508C355.896,-69.4317 355.896,-58.1086 355.896,-46.4049"/>
<polygon fill="grey" stroke="grey" points="359.396,-46.261 355.896,-36.2611 352.396,-46.2611 359.396,-46.261"/>
</g>
</g>
</svg>
