<?xml version="1.0" encoding="UTF-8" standalone="no"?>
<!DOCTYPE svg PUBLIC "-//W3C//DTD SVG 1.1//EN"
 "http://www.w3.org/Graphics/SVG/1.1/DTD/svg11.dtd">
<!-- Generated by graphviz version 2.38.0 (20140413.2041)
 -->
<!-- Title: Perl Pages: 1 -->
<svg width="352pt" height="269pt"
 viewBox="0.00 0.00 352.00 269.00" xmlns="http://www.w3.org/2000/svg" xmlns:xlink="http://www.w3.org/1999/xlink">
<g id="graph0" class="graph" transform="scale(1 1) rotate(0) translate(4 265)">
<title>Perl</title>
<polygon fill="white" stroke="none" points="-4,4 -4,-265 348,-265 348,4 -4,4"/>
<text text-anchor="middle" x="172" y="-7.8" font-family="Times,serif" font-size="14.00">Macro demo 4 &#45; Linked cluster sub&#45;graphs</text>
<g id="clust1" class="cluster"><title>cluster 1</title>
<polygon fill="none" stroke="black" points="8,-103 8,-253 152,-253 152,-103 8,-103"/>
<text text-anchor="middle" x="80" y="-237.8" font-family="Times,serif" font-size="14.00">cluster 1</text>
</g>
<g id="clust2" class="cluster"><title>cluster 2</title>
<polygon fill="none" stroke="black" points="168,-31 168,-178 336,-178 336,-31 168,-31"/>
<text text-anchor="middle" x="252" y="-162.8" font-family="Times,serif" font-size="14.00">cluster 2</text>
</g>
<!-- Chadstone -->
<g id="node1" class="node"><title>Chadstone</title>
<polygon fill="none" stroke="magenta" points="140.074,-204 111.537,-222 54.4628,-222 25.9257,-204 54.4628,-186 111.537,-186 140.074,-204"/>
<text text-anchor="middle" x="83" y="-200.3" font-family="Times,serif" font-size="14.00">Chadstone</text>
</g>
<!-- Waverley -->
<g id="node2" class="node"><title>Waverley</title>
<polygon fill="none" stroke="orange" points="80,-147 15.8176,-129 80,-111 144.182,-129 80,-147"/>
<text text-anchor="middle" x="80" y="-125.3" font-family="Times,serif" font-size="14.00">Waverley</text>
</g>
<!-- Chadstone&#45;&gt;Waverley -->
<g id="edge1" class="edge"><title>Chadstone&#45;&gt;Waverley</title>
<path fill="none" stroke="grey" d="M82.289,-185.7C81.9391,-177.184 81.509,-166.718 81.1164,-157.167"/>
<polygon fill="grey" stroke="grey" points="84.6033,-156.772 80.6955,-146.924 77.6092,-157.059 84.6033,-156.772"/>
</g>
<!-- Notting Hill -->
<g id="node4" class="node"><title>Notting Hill</title>
<polygon fill="none" stroke="orange" points="252,-75 175.919,-57 252,-39 328.081,-57 252,-75"/>
<text text-anchor="middle" x="252" y="-53.3" font-family="Times,serif" font-size="14.00">Notting Hill</text>
</g>
<!-- Chadstone&#45;&gt;Notting Hill -->
<g id="edge3" class="edge"><title>Chadstone&#45;&gt;Notting Hill</title>
<path fill="none" stroke="grey" d="M124.323,-194.015C134.536,-190.323 144.868,-185.167 153,-178 181.033,-153.292 166.867,-131.53 191,-103 199.852,-92.5347 211.599,-83.1361 222.419,-75.6687"/>
<polygon fill="grey" stroke="grey" points="224.414,-78.5454 230.826,-70.1104 220.554,-72.7064 224.414,-78.5454"/>
</g>
<!-- Hughesdale -->
<g id="node3" class="node"><title>Hughesdale</title>
<polygon fill="none" stroke="magenta" points="320.078,-129 290.039,-147 229.961,-147 199.922,-129 229.961,-111 290.039,-111 320.078,-129"/>
<text text-anchor="middle" x="260" y="-125.3" font-family="Times,serif" font-size="14.00">Hughesdale</text>
</g>
<!-- Hughesdale&#45;&gt;Notting Hill -->
<g id="edge2" class="edge"><title>Hughesdale&#45;&gt;Notting Hill</title>
<path fill="none" stroke="grey" d="M258.022,-110.697C257.128,-102.868 256.05,-93.4354 255.055,-84.7278"/>
<polygon fill="grey" stroke="grey" points="258.513,-84.1602 253.9,-74.6223 251.558,-84.9551 258.513,-84.1602"/>
</g>
</g>
</svg>
