<?xml version="1.0" encoding="UTF-8" standalone="no"?>
<!DOCTYPE svg PUBLIC "-//W3C//DTD SVG 1.1//EN"
 "http://www.w3.org/Graphics/SVG/1.1/DTD/svg11.dtd">
<!-- Generated by graphviz version 2.38.0 (20140413.2041)
 -->
<!-- Title: Perl Pages: 1 -->
<svg width="308pt" height="139pt"
 viewBox="0.00 0.00 307.63 139.00" xmlns="http://www.w3.org/2000/svg" xmlns:xlink="http://www.w3.org/1999/xlink">
<g id="graph0" class="graph" transform="scale(1 1) rotate(0) translate(4 135)">
<title>Perl</title>
<polygon fill="white" stroke="none" points="-4,4 -4,-135 303.631,-135 303.631,4 -4,4"/>
<text text-anchor="middle" x="149.816" y="-7.8" font-family="Times,serif" font-size="14.00">Macro demo 1 &#45; Non&#45;cluster sub&#45;graphs</text>
<!-- Chadstone -->
<g id="node1" class="node"><title>Chadstone</title>
<polygon fill="none" stroke="magenta" points="121.415,-113 92.8782,-131 35.8039,-131 7.26669,-113 35.8039,-95 92.8782,-95 121.415,-113"/>
<text text-anchor="middle" x="64.341" y="-109.3" font-family="Times,serif" font-size="14.00">Chadstone</text>
</g>
<!-- Waverley -->
<g id="node2" class="node"><title>Waverley</title>
<polygon fill="none" stroke="orange" points="64.341,-59 0.1586,-41 64.341,-23 128.523,-41 64.341,-59"/>
<text text-anchor="middle" x="64.341" y="-37.3" font-family="Times,serif" font-size="14.00">Waverley</text>
</g>
<!-- Chadstone&#45;&gt;Waverley -->
<g id="edge1" class="edge"><title>Chadstone&#45;&gt;Waverley</title>
<path fill="none" stroke="grey" d="M64.341,-94.6966C64.341,-86.9827 64.341,-77.7125 64.341,-69.1124"/>
<polygon fill="grey" stroke="grey" points="67.8411,-69.1043 64.341,-59.1043 60.8411,-69.1044 67.8411,-69.1043"/>
</g>
<!-- Hughesdale -->
<g id="node3" class="node"><title>Hughesdale</title>
<polygon fill="none" stroke="magenta" points="283.419,-113 253.38,-131 193.302,-131 163.263,-113 193.302,-95 253.38,-95 283.419,-113"/>
<text text-anchor="middle" x="223.341" y="-109.3" font-family="Times,serif" font-size="14.00">Hughesdale</text>
</g>
<!-- Notting Hill -->
<g id="node4" class="node"><title>Notting Hill</title>
<polygon fill="none" stroke="orange" points="223.341,-59 147.26,-41 223.341,-23 299.422,-41 223.341,-59"/>
<text text-anchor="middle" x="223.341" y="-37.3" font-family="Times,serif" font-size="14.00">Notting Hill</text>
</g>
<!-- Hughesdale&#45;&gt;Notting Hill -->
<g id="edge2" class="edge"><title>Hughesdale&#45;&gt;Notting Hill</title>
<path fill="none" stroke="grey" d="M223.341,-94.6966C223.341,-86.9827 223.341,-77.7125 223.341,-69.1124"/>
<polygon fill="grey" stroke="grey" points="226.841,-69.1043 223.341,-59.1043 219.841,-69.1044 226.841,-69.1043"/>
</g>
</g>
</svg>
