<?xml version="1.0" encoding="UTF-8" standalone="no"?>
<!DOCTYPE svg PUBLIC "-//W3C//DTD SVG 1.1//EN"
 "http://www.w3.org/Graphics/SVG/1.1/DTD/svg11.dtd">
<!-- Generated by graphviz version 2.38.0 (20140413.2041)
 -->
<!-- Title: Perl Pages: 1 -->
<svg width="312pt" height="211pt"
 viewBox="0.00 0.00 312.38 211.00" xmlns="http://www.w3.org/2000/svg" xmlns:xlink="http://www.w3.org/1999/xlink">
<g id="graph0" class="graph" transform="scale(1 1) rotate(0) translate(4 207)">
<title>Perl</title>
<polygon fill="white" stroke="none" points="-4,4 -4,-207 308.38,-207 308.38,4 -4,4"/>
<text text-anchor="middle" x="152.19" y="-7.8" font-family="Times,serif" font-size="14.00">Macro demo 2 &#45; Linked non&#45;cluster sub&#45;graphs</text>
<!-- Chadstone -->
<g id="node1" class="node"><title>Chadstone</title>
<polygon fill="none" stroke="magenta" points="167.415,-185 138.878,-203 81.8039,-203 53.2667,-185 81.8039,-167 138.878,-167 167.415,-185"/>
<text text-anchor="middle" x="110.341" y="-181.3" font-family="Times,serif" font-size="14.00">Chadstone</text>
</g>
<!-- Waverley -->
<g id="node2" class="node"><title>Waverley</title>
<polygon fill="none" stroke="orange" points="64.341,-131 0.1586,-113 64.341,-95 128.523,-113 64.341,-131"/>
<text text-anchor="middle" x="64.341" y="-109.3" font-family="Times,serif" font-size="14.00">Waverley</text>
</g>
<!-- Chadstone&#45;&gt;Waverley -->
<g id="edge1" class="edge"><title>Chadstone&#45;&gt;Waverley</title>
<path fill="none" stroke="grey" d="M98.9702,-166.697C93.1037,-157.769 85.8675,-146.758 79.5294,-137.113"/>
<polygon fill="grey" stroke="grey" points="82.443,-135.173 74.0262,-128.738 76.593,-139.018 82.443,-135.173"/>
</g>
<!-- Notting Hill -->
<g id="node4" class="node"><title>Notting Hill</title>
<polygon fill="none" stroke="orange" points="200.341,-59 124.26,-41 200.341,-23 276.422,-41 200.341,-59"/>
<text text-anchor="middle" x="200.341" y="-37.3" font-family="Times,serif" font-size="14.00">Notting Hill</text>
</g>
<!-- Chadstone&#45;&gt;Notting Hill -->
<g id="edge3" class="edge"><title>Chadstone&#45;&gt;Notting Hill</title>
<path fill="none" stroke="grey" d="M121.197,-166.871C137.228,-141.578 167.284,-94.1571 185.389,-65.5909"/>
<polygon fill="grey" stroke="grey" points="188.417,-67.3507 190.815,-57.0306 182.505,-63.6033 188.417,-67.3507"/>
</g>
<!-- Hughesdale -->
<g id="node3" class="node"><title>Hughesdale</title>
<polygon fill="none" stroke="magenta" points="304.419,-113 274.38,-131 214.302,-131 184.263,-113 214.302,-95 274.38,-95 304.419,-113"/>
<text text-anchor="middle" x="244.341" y="-109.3" font-family="Times,serif" font-size="14.00">Hughesdale</text>
</g>
<!-- Hughesdale&#45;&gt;Notting Hill -->
<g id="edge2" class="edge"><title>Hughesdale&#45;&gt;Notting Hill</title>
<path fill="none" stroke="grey" d="M233.465,-94.6966C227.988,-85.9832 221.262,-75.284 215.306,-65.8081"/>
<polygon fill="grey" stroke="grey" points="218.182,-63.8062 209.897,-57.2024 212.255,-67.5314 218.182,-63.8062"/>
</g>
</g>
</svg>
