<?xml version="1.0" encoding="UTF-8" standalone="no"?>
<!DOCTYPE svg PUBLIC "-//W3C//DTD SVG 1.1//EN"
 "http://www.w3.org/Graphics/SVG/1.1/DTD/svg11.dtd">
<!-- Generated by graphviz version 2.38.0 (20140413.2041)
 -->
<!-- Title: Perl Pages: 1 -->
<svg width="344pt" height="194pt"
 viewBox="0.00 0.00 344.00 194.00" xmlns="http://www.w3.org/2000/svg" xmlns:xlink="http://www.w3.org/1999/xlink">
<g id="graph0" class="graph" transform="scale(1 1) rotate(0) translate(4 190)">
<title>Perl</title>
<polygon fill="white" stroke="none" points="-4,4 -4,-190 340,-190 340,4 -4,4"/>
<text text-anchor="middle" x="168" y="-7.8" font-family="Times,serif" font-size="14.00">Macro demo 3 &#45; Cluster sub&#45;graphs</text>
<g id="clust1" class="cluster"><title>cluster 1</title>
<polygon fill="none" stroke="black" points="8,-31 8,-178 152,-178 152,-31 8,-31"/>
<text text-anchor="middle" x="80" y="-162.8" font-family="Times,serif" font-size="14.00">cluster 1</text>
</g>
<g id="clust2" class="cluster"><title>cluster 2</title>
<polygon fill="none" stroke="black" points="160,-31 160,-178 328,-178 328,-31 160,-31"/>
<text text-anchor="middle" x="244" y="-162.8" font-family="Times,serif" font-size="14.00">cluster 2</text>
</g>
<!-- Chadstone -->
<g id="node1" class="node"><title>Chadstone</title>
<polygon fill="none" stroke="magenta" points="137.074,-129 108.537,-147 51.4628,-147 22.9257,-129 51.4628,-111 108.537,-111 137.074,-129"/>
<text text-anchor="middle" x="80" y="-125.3" font-family="Times,serif" font-size="14.00">Chadstone</text>
</g>
<!-- Waverley -->
<g id="node2" class="node"><title>Waverley</title>
<polygon fill="none" stroke="orange" points="80,-75 15.8176,-57 80,-39 144.182,-57 80,-75"/>
<text text-anchor="middle" x="80" y="-53.3" font-family="Times,serif" font-size="14.00">Waverley</text>
</g>
<!-- Chadstone&#45;&gt;Waverley -->
<g id="edge1" class="edge"><title>Chadstone&#45;&gt;Waverley</title>
<path fill="none" stroke="grey" d="M80,-110.697C80,-102.983 80,-93.7125 80,-85.1124"/>
<polygon fill="grey" stroke="grey" points="83.5001,-85.1043 80,-75.1043 76.5001,-85.1044 83.5001,-85.1043"/>
</g>
<!-- Hughesdale -->
<g id="node3" class="node"><title>Hughesdale</title>
<polygon fill="none" stroke="magenta" points="304.078,-129 274.039,-147 213.961,-147 183.922,-129 213.961,-111 274.039,-111 304.078,-129"/>
<text text-anchor="middle" x="244" y="-125.3" font-family="Times,serif" font-size="14.00">Hughesdale</text>
</g>
<!-- Notting Hill -->
<g id="node4" class="node"><title>Notting Hill</title>
<polygon fill="none" stroke="orange" points="244,-75 167.919,-57 244,-39 320.081,-57 244,-75"/>
<text text-anchor="middle" x="244" y="-53.3" font-family="Times,serif" font-size="14.00">Notting Hill</text>
</g>
<!-- Hughesdale&#45;&gt;Notting Hill -->
<g id="edge2" class="edge"><title>Hughesdale&#45;&gt;Notting Hill</title>
<path fill="none" stroke="grey" d="M244,-110.697C244,-102.983 244,-93.7125 244,-85.1124"/>
<polygon fill="grey" stroke="grey" points="247.5,-85.1043 244,-75.1043 240.5,-85.1044 247.5,-85.1043"/>
</g>
</g>
</svg>
