<?xml version="1.0" encoding="UTF-8" standalone="no"?>
<!DOCTYPE svg PUBLIC "-//W3C//DTD SVG 1.1//EN"
 "http://www.w3.org/Graphics/SVG/1.1/DTD/svg11.dtd">
<!-- Generated by graphviz version 2.38.0 (20140413.2041)
 -->
<!-- Title: Perl Pages: 1 -->
<svg width="527pt" height="708pt"
 viewBox="0.00 0.00 526.50 708.00" xmlns="http://www.w3.org/2000/svg" xmlns:xlink="http://www.w3.org/1999/xlink">
<g id="graph0" class="graph" transform="scale(1 1) rotate(0) translate(4 704)">
<title>Perl</title>
<polygon fill="white" stroke="none" points="-4,4 -4,-704 522.5,-704 522.5,4 -4,4"/>
<!-- 0 -->
<g id="node1" class="node"><title>0</title>
<polygon fill="none" stroke="green" points="276.263,-670.544 276.263,-685.456 259.707,-696 236.293,-696 219.737,-685.456 219.737,-670.544 236.293,-660 259.707,-660 276.263,-670.544"/>
<polygon fill="none" stroke="green" points="280.28,-668.354 280.28,-687.646 260.882,-700 235.118,-700 215.72,-687.646 215.72,-668.354 235.118,-656 260.882,-656 280.28,-668.354"/>
<text text-anchor="middle" x="248" y="-674.3" font-family="Times,serif" font-size="14.00">%$s</text>
</g>
<!-- 0_kids -->
<g id="node2" class="node"><title>0_kids</title>
<path fill="none" stroke="grey" d="M219,-583.5C219,-583.5 281,-583.5 281,-583.5 287,-583.5 293,-589.5 293,-595.5 293,-595.5 293,-607.5 293,-607.5 293,-613.5 287,-619.5 281,-619.5 281,-619.5 219,-619.5 219,-619.5 213,-619.5 207,-613.5 207,-607.5 207,-607.5 207,-595.5 207,-595.5 207,-589.5 213,-583.5 219,-583.5"/>
<text text-anchor="middle" x="221" y="-597.8" font-family="Times,serif" font-size="14.00" fill="blue">A</text>
<polyline fill="none" stroke="grey" points="235,-583.5 235,-619.5 "/>
<text text-anchor="middle" x="248" y="-597.8" font-family="Times,serif" font-size="14.00" fill="blue">C</text>
<polyline fill="none" stroke="grey" points="261,-583.5 261,-619.5 "/>
<text text-anchor="middle" x="277" y="-597.8" font-family="Times,serif" font-size="14.00" fill="blue">els</text>
</g>
<!-- 0&#45;&gt;0_kids -->
<g id="edge1" class="edge"><title>0&#45;&gt;0_kids:port2</title>
<path fill="none" stroke="grey" d="M248,-655.886C248,-648.163 248,-639.138 248,-630.263"/>
<polygon fill="grey" stroke="grey" points="251.5,-630 248,-620 244.5,-630 251.5,-630"/>
</g>
<!-- 0_0_kids -->
<g id="node3" class="node"><title>0_0_kids</title>
<path fill="none" stroke="grey" d="M101,-510.5C101,-510.5 131,-510.5 131,-510.5 137,-510.5 143,-516.5 143,-522.5 143,-522.5 143,-534.5 143,-534.5 143,-540.5 137,-546.5 131,-546.5 131,-546.5 101,-546.5 101,-546.5 95,-546.5 89,-540.5 89,-534.5 89,-534.5 89,-522.5 89,-522.5 89,-516.5 95,-510.5 101,-510.5"/>
<text text-anchor="middle" x="116" y="-524.8" font-family="Times,serif" font-size="14.00" fill="blue">%$A</text>
</g>
<!-- 0_kids&#45;&gt;0_0_kids -->
<g id="edge2" class="edge"><title>0_kids:port1&#45;&gt;0_0_kids:port1</title>
<path fill="none" stroke="grey" d="M206,-601.5C175.409,-601.5 149.408,-575.747 133.335,-554.834"/>
<polygon fill="grey" stroke="grey" points="136,-552.549 127.271,-546.545 130.351,-556.682 136,-552.549"/>
</g>
<!-- 0_1_kids -->
<g id="node11" class="node"><title>0_1_kids</title>
<path fill="none" stroke="grey" d="M233,-510.5C233,-510.5 263,-510.5 263,-510.5 269,-510.5 275,-516.5 275,-522.5 275,-522.5 275,-534.5 275,-534.5 275,-540.5 269,-546.5 263,-546.5 263,-546.5 233,-546.5 233,-546.5 227,-546.5 221,-540.5 221,-534.5 221,-534.5 221,-522.5 221,-522.5 221,-516.5 227,-510.5 233,-510.5"/>
<text text-anchor="middle" x="248" y="-524.8" font-family="Times,serif" font-size="14.00" fill="blue">%$C</text>
</g>
<!-- 0_kids&#45;&gt;0_1_kids -->
<g id="edge12" class="edge"><title>0_kids:port2&#45;&gt;0_1_kids:port1</title>
<path fill="none" stroke="grey" d="M248,-583C248,-574.484 248,-565.22 248,-556.787"/>
<polygon fill="grey" stroke="grey" points="251.5,-556.667 248,-546.667 244.5,-556.667 251.5,-556.667"/>
</g>
<!-- 0_2_kids -->
<g id="node21" class="node"><title>0_2_kids</title>
<path fill="none" stroke="grey" d="M348,-510.5C348,-510.5 378,-510.5 378,-510.5 384,-510.5 390,-516.5 390,-522.5 390,-522.5 390,-534.5 390,-534.5 390,-540.5 384,-546.5 378,-546.5 378,-546.5 348,-546.5 348,-546.5 342,-546.5 336,-540.5 336,-534.5 336,-534.5 336,-522.5 336,-522.5 336,-516.5 342,-510.5 348,-510.5"/>
<text text-anchor="middle" x="363" y="-524.8" font-family="Times,serif" font-size="14.00" fill="blue">@$els</text>
</g>
<!-- 0_kids&#45;&gt;0_2_kids -->
<g id="edge22" class="edge"><title>0_kids:port3&#45;&gt;0_2_kids:port1</title>
<path fill="none" stroke="grey" d="M294,-601.5C320.163,-601.5 339.358,-576.43 350.767,-555.673"/>
<polygon fill="grey" stroke="grey" points="354,-557.039 355.458,-546.545 347.774,-553.839 354,-557.039"/>
</g>
<!-- 0_0_0_kids -->
<g id="node4" class="node"><title>0_0_0_kids</title>
<path fill="none" stroke="grey" d="M43,-437.5C43,-437.5 165,-437.5 165,-437.5 171,-437.5 177,-443.5 177,-449.5 177,-449.5 177,-461.5 177,-461.5 177,-467.5 171,-473.5 165,-473.5 165,-473.5 43,-473.5 43,-473.5 37,-473.5 31,-467.5 31,-461.5 31,-461.5 31,-449.5 31,-449.5 31,-443.5 37,-437.5 43,-437.5"/>
<text text-anchor="middle" x="42.5" y="-451.8" font-family="Times,serif" font-size="14.00" fill="blue">a</text>
<polyline fill="none" stroke="grey" points="54,-437.5 54,-473.5 "/>
<text text-anchor="middle" x="82.5" y="-451.8" font-family="Times,serif" font-size="14.00" fill="blue">bbbbbb</text>
<polyline fill="none" stroke="grey" points="111,-437.5 111,-473.5 "/>
<text text-anchor="middle" x="132.5" y="-451.8" font-family="Times,serif" font-size="14.00" fill="blue">c123</text>
<polyline fill="none" stroke="grey" points="154,-437.5 154,-473.5 "/>
<text text-anchor="middle" x="165.5" y="-451.8" font-family="Times,serif" font-size="14.00" fill="blue">d</text>
</g>
<!-- 0_0_kids&#45;&gt;0_0_0_kids -->
<g id="edge3" class="edge"><title>0_0_kids:port1&#45;&gt;0_0_0_kids:port2</title>
<path fill="none" stroke="grey" d="M97.4083,-510.029C91.5171,-502.73 85.8831,-493.791 83.3697,-484.195"/>
<polygon fill="grey" stroke="grey" points="86.8004,-483.445 82,-474 79.8627,-484.377 86.8004,-483.445"/>
</g>
<!-- 0_0_0_0_kids -->
<g id="node5" class="node"><title>0_0_0_0_kids</title>
<path fill="none" stroke="grey" d="M12,-364.5C12,-364.5 42,-364.5 42,-364.5 48,-364.5 54,-370.5 54,-376.5 54,-376.5 54,-388.5 54,-388.5 54,-394.5 48,-400.5 42,-400.5 42,-400.5 12,-400.5 12,-400.5 6,-400.5 0,-394.5 0,-388.5 0,-388.5 0,-376.5 0,-376.5 0,-370.5 6,-364.5 12,-364.5"/>
<text text-anchor="middle" x="27" y="-378.8" font-family="Times,serif" font-size="14.00" fill="blue">%$a</text>
</g>
<!-- 0_0_0_kids&#45;&gt;0_0_0_0_kids -->
<g id="edge4" class="edge"><title>0_0_0_kids:port1&#45;&gt;0_0_0_0_kids:port1</title>
<path fill="none" stroke="grey" d="M42,-437C42,-428.209 40.1634,-418.897 37.7755,-410.506"/>
<polygon fill="grey" stroke="grey" points="41.058,-409.279 34.6758,-400.823 34.3913,-411.414 41.058,-409.279"/>
</g>
<!-- 0_0_0_1_kids -->
<g id="node6" class="node"><title>0_0_0_1_kids</title>
<path fill="none" stroke="grey" d="M15,-291.5C15,-291.5 55,-291.5 55,-291.5 61,-291.5 67,-297.5 67,-303.5 67,-303.5 67,-315.5 67,-315.5 67,-321.5 61,-327.5 55,-327.5 55,-327.5 15,-327.5 15,-327.5 9,-327.5 3,-321.5 3,-315.5 3,-315.5 3,-303.5 3,-303.5 3,-297.5 9,-291.5 15,-291.5"/>
<text text-anchor="middle" x="35" y="-305.8" font-family="Times,serif" font-size="14.00" fill="blue">$bbbbbb</text>
</g>
<!-- 0_0_0_kids&#45;&gt;0_0_0_1_kids -->
<g id="edge5" class="edge"><title>0_0_0_kids:port2&#45;&gt;0_0_0_1_kids:port1</title>
<path fill="none" stroke="grey" d="M82,-437C82,-400.601 64.9279,-361.764 51.362,-336.649"/>
<polygon fill="grey" stroke="grey" points="54.311,-334.751 46.3774,-327.729 48.2003,-338.166 54.311,-334.751"/>
</g>
<!-- 0_0_0_2_kids -->
<g id="node8" class="node"><title>0_0_0_2_kids</title>
<path fill="none" stroke="grey" d="M97,-291.5C97,-291.5 127,-291.5 127,-291.5 133,-291.5 139,-297.5 139,-303.5 139,-303.5 139,-315.5 139,-315.5 139,-321.5 133,-327.5 127,-327.5 127,-327.5 97,-327.5 97,-327.5 91,-327.5 85,-321.5 85,-315.5 85,-315.5 85,-303.5 85,-303.5 85,-297.5 91,-291.5 97,-291.5"/>
<text text-anchor="middle" x="112" y="-305.8" font-family="Times,serif" font-size="14.00" fill="blue">$c123</text>
</g>
<!-- 0_0_0_kids&#45;&gt;0_0_0_2_kids -->
<g id="edge7" class="edge"><title>0_0_0_kids:port3&#45;&gt;0_0_0_2_kids:port1</title>
<path fill="none" stroke="grey" d="M133,-437C133,-402.298 125.333,-362.981 119.264,-337.296"/>
<polygon fill="grey" stroke="grey" points="122.645,-336.387 116.871,-327.504 115.845,-338.049 122.645,-336.387"/>
</g>
<!-- 0_0_0_3_kids -->
<g id="node9" class="node"><title>0_0_0_3_kids</title>
<path fill="none" stroke="grey" d="M197.5,-364.5C197.5,-364.5 240.5,-364.5 240.5,-364.5 246.5,-364.5 252.5,-370.5 252.5,-376.5 252.5,-376.5 252.5,-388.5 252.5,-388.5 252.5,-394.5 246.5,-400.5 240.5,-400.5 240.5,-400.5 197.5,-400.5 197.5,-400.5 191.5,-400.5 185.5,-394.5 185.5,-388.5 185.5,-388.5 185.5,-376.5 185.5,-376.5 185.5,-370.5 191.5,-364.5 197.5,-364.5"/>
<text text-anchor="middle" x="219" y="-378.8" font-family="Times,serif" font-size="14.00" fill="blue">Object: d</text>
</g>
<!-- 0_0_0_kids&#45;&gt;0_0_0_3_kids -->
<g id="edge9" class="edge"><title>0_0_0_kids:port4&#45;&gt;0_0_0_3_kids:port1</title>
<path fill="none" stroke="grey" d="M166,-437C166,-425.582 172.053,-415.656 180.068,-407.519"/>
<polygon fill="grey" stroke="grey" points="182.736,-409.829 187.863,-400.557 178.073,-404.608 182.736,-409.829"/>
</g>
<!-- &amp;CODE(0x12d1790) -->
<g id="node7" class="node"><title>&amp;CODE(0x12d1790)</title>
<ellipse fill="none" stroke="grey" cx="112" cy="-236.5" rx="88.2844" ry="18"/>
<text text-anchor="middle" x="112" y="-232.8" font-family="Times,serif" font-size="14.00" fill="red">&amp;CODE(0x12d1790)</text>
</g>
<!-- 0_0_0_1_kids&#45;&gt;&amp;CODE(0x12d1790) -->
<g id="edge6" class="edge"><title>0_0_0_1_kids:port1&#45;&gt;&amp;CODE(0x12d1790)</title>
<path fill="none" stroke="grey" d="M54.4304,-291.331C64.2534,-282.146 76.2922,-270.889 86.8167,-261.048"/>
<polygon fill="grey" stroke="grey" points="89.2455,-263.569 94.1593,-254.182 84.4645,-258.456 89.2455,-263.569"/>
</g>
<!-- 0_0_0_2_kids&#45;&gt;&amp;CODE(0x12d1790) -->
<g id="edge8" class="edge"><title>0_0_0_2_kids:port1&#45;&gt;&amp;CODE(0x12d1790)</title>
<path fill="none" stroke="grey" d="M112,-291.331C112,-283.394 112,-273.909 112,-265.128"/>
<polygon fill="grey" stroke="grey" points="115.5,-264.918 112,-254.918 108.5,-264.918 115.5,-264.918"/>
</g>
<!-- $REF(0x12d1808) -->
<g id="node10" class="node"><title>$REF(0x12d1808)</title>
<ellipse fill="none" stroke="grey" cx="235" cy="-309.5" rx="77.9862" ry="18"/>
<text text-anchor="middle" x="235" y="-305.8" font-family="Times,serif" font-size="14.00" fill="red">$REF(0x12d1808)</text>
</g>
<!-- 0_0_0_3_kids&#45;&gt;$REF(0x12d1808) -->
<g id="edge10" class="edge"><title>0_0_0_3_kids:port1&#45;&gt;$REF(0x12d1808)</title>
<path fill="none" stroke="grey" d="M223.037,-364.331C224.821,-356.307 226.955,-346.701 228.925,-337.839"/>
<polygon fill="grey" stroke="grey" points="232.377,-338.439 231.129,-327.918 225.543,-336.92 232.377,-338.439"/>
</g>
<!-- $REF(0x12d1808)&#45;&gt;&amp;CODE(0x12d1790) -->
<g id="edge11" class="edge"><title>$REF(0x12d1808)&#45;&gt;&amp;CODE(0x12d1790)</title>
<path fill="none" stroke="grey" d="M207.396,-292.566C190.11,-282.588 167.627,-269.61 148.83,-258.759"/>
<polygon fill="grey" stroke="grey" points="150.347,-255.594 139.937,-253.626 146.848,-261.657 150.347,-255.594"/>
</g>
<!-- 0_1_0_kids -->
<g id="node12" class="node"><title>0_1_0_kids</title>
<path fill="none" stroke="grey" d="M233,-437.5C233,-437.5 263,-437.5 263,-437.5 269,-437.5 275,-443.5 275,-449.5 275,-449.5 275,-461.5 275,-461.5 275,-467.5 269,-473.5 263,-473.5 263,-473.5 233,-473.5 233,-473.5 227,-473.5 221,-467.5 221,-461.5 221,-461.5 221,-449.5 221,-449.5 221,-443.5 227,-437.5 233,-437.5"/>
<text text-anchor="middle" x="248" y="-451.8" font-family="Times,serif" font-size="14.00" fill="blue">b</text>
</g>
<!-- 0_1_kids&#45;&gt;0_1_0_kids -->
<g id="edge13" class="edge"><title>0_1_kids:port1&#45;&gt;0_1_0_kids:port1</title>
<path fill="none" stroke="grey" d="M248,-510.455C248,-502.383 248,-492.676 248,-483.682"/>
<polygon fill="grey" stroke="grey" points="251.5,-483.59 248,-473.59 244.5,-483.59 251.5,-483.59"/>
</g>
<!-- 0_1_0_0_kids -->
<g id="node13" class="node"><title>0_1_0_0_kids</title>
<path fill="none" stroke="grey" d="M320,-364.5C320,-364.5 350,-364.5 350,-364.5 356,-364.5 362,-370.5 362,-376.5 362,-376.5 362,-388.5 362,-388.5 362,-394.5 356,-400.5 350,-400.5 350,-400.5 320,-400.5 320,-400.5 314,-400.5 308,-394.5 308,-388.5 308,-388.5 308,-376.5 308,-376.5 308,-370.5 314,-364.5 320,-364.5"/>
<text text-anchor="middle" x="335" y="-378.8" font-family="Times,serif" font-size="14.00" fill="blue">%$b</text>
</g>
<!-- 0_1_0_kids&#45;&gt;0_1_0_0_kids -->
<g id="edge14" class="edge"><title>0_1_0_kids:port1&#45;&gt;0_1_0_0_kids:port1</title>
<path fill="none" stroke="grey" d="M269.506,-437.455C280.381,-428.33 293.745,-417.116 305.559,-407.204"/>
<polygon fill="grey" stroke="grey" points="308.029,-409.699 313.44,-400.59 303.53,-404.337 308.029,-409.699"/>
</g>
<!-- 0_1_0_0_0_kids -->
<g id="node14" class="node"><title>0_1_0_0_0_kids</title>
<path fill="none" stroke="grey" d="M343,-291.5C343,-291.5 373,-291.5 373,-291.5 379,-291.5 385,-297.5 385,-303.5 385,-303.5 385,-315.5 385,-315.5 385,-321.5 379,-327.5 373,-327.5 373,-327.5 343,-327.5 343,-327.5 337,-327.5 331,-321.5 331,-315.5 331,-315.5 331,-303.5 331,-303.5 331,-297.5 337,-291.5 343,-291.5"/>
<text text-anchor="middle" x="358" y="-305.8" font-family="Times,serif" font-size="14.00" fill="blue">a</text>
</g>
<!-- 0_1_0_0_kids&#45;&gt;0_1_0_0_0_kids -->
<g id="edge15" class="edge"><title>0_1_0_0_kids:port1&#45;&gt;0_1_0_0_0_kids:port1</title>
<path fill="none" stroke="grey" d="M340.685,-364.455C343.256,-356.295 346.353,-346.465 349.213,-337.389"/>
<polygon fill="grey" stroke="grey" points="352.633,-338.18 352.3,-327.59 345.957,-336.076 352.633,-338.18"/>
</g>
<!-- 0_1_0_0_0_0_kids -->
<g id="node15" class="node"><title>0_1_0_0_0_0_kids</title>
<path fill="none" stroke="grey" d="M343,-218.5C343,-218.5 373,-218.5 373,-218.5 379,-218.5 385,-224.5 385,-230.5 385,-230.5 385,-242.5 385,-242.5 385,-248.5 379,-254.5 373,-254.5 373,-254.5 343,-254.5 343,-254.5 337,-254.5 331,-248.5 331,-242.5 331,-242.5 331,-230.5 331,-230.5 331,-224.5 337,-218.5 343,-218.5"/>
<text text-anchor="middle" x="358" y="-232.8" font-family="Times,serif" font-size="14.00" fill="blue">%$a</text>
</g>
<!-- 0_1_0_0_0_kids&#45;&gt;0_1_0_0_0_0_kids -->
<g id="edge16" class="edge"><title>0_1_0_0_0_kids:port1&#45;&gt;0_1_0_0_0_0_kids:port1</title>
<path fill="none" stroke="grey" d="M358,-291.455C358,-283.383 358,-273.676 358,-264.682"/>
<polygon fill="grey" stroke="grey" points="361.5,-264.59 358,-254.59 354.5,-264.59 361.5,-264.59"/>
</g>
<!-- 0_1_0_0_0_0_0_kids -->
<g id="node16" class="node"><title>0_1_0_0_0_0_0_kids</title>
<path fill="none" stroke="grey" d="M335.5,-145.5C335.5,-145.5 380.5,-145.5 380.5,-145.5 386.5,-145.5 392.5,-151.5 392.5,-157.5 392.5,-157.5 392.5,-169.5 392.5,-169.5 392.5,-175.5 386.5,-181.5 380.5,-181.5 380.5,-181.5 335.5,-181.5 335.5,-181.5 329.5,-181.5 323.5,-175.5 323.5,-169.5 323.5,-169.5 323.5,-157.5 323.5,-157.5 323.5,-151.5 329.5,-145.5 335.5,-145.5"/>
<text text-anchor="middle" x="335" y="-159.8" font-family="Times,serif" font-size="14.00" fill="blue">a</text>
<polyline fill="none" stroke="grey" points="346.5,-145.5 346.5,-181.5 "/>
<text text-anchor="middle" x="358" y="-159.8" font-family="Times,serif" font-size="14.00" fill="blue">b</text>
<polyline fill="none" stroke="grey" points="369.5,-145.5 369.5,-181.5 "/>
<text text-anchor="middle" x="381" y="-159.8" font-family="Times,serif" font-size="14.00" fill="blue">c</text>
</g>
<!-- 0_1_0_0_0_0_kids&#45;&gt;0_1_0_0_0_0_0_kids -->
<g id="edge17" class="edge"><title>0_1_0_0_0_0_kids:port1&#45;&gt;0_1_0_0_0_0_0_kids:port2</title>
<path fill="none" stroke="grey" d="M358,-218.333C358,-210.634 358,-201.336 358,-192.182"/>
<polygon fill="grey" stroke="grey" points="361.5,-192 358,-182 354.5,-192 361.5,-192"/>
</g>
<!-- 0_1_0_0_0_0_0_0_kids -->
<g id="node17" class="node"><title>0_1_0_0_0_0_0_0_kids</title>
<path fill="none" stroke="grey" d="M271,-72.5C271,-72.5 301,-72.5 301,-72.5 307,-72.5 313,-78.5 313,-84.5 313,-84.5 313,-96.5 313,-96.5 313,-102.5 307,-108.5 301,-108.5 301,-108.5 271,-108.5 271,-108.5 265,-108.5 259,-102.5 259,-96.5 259,-96.5 259,-84.5 259,-84.5 259,-78.5 265,-72.5 271,-72.5"/>
<text text-anchor="middle" x="286" y="-86.8" font-family="Times,serif" font-size="14.00" fill="blue">%$a</text>
</g>
<!-- 0_1_0_0_0_0_0_kids&#45;&gt;0_1_0_0_0_0_0_0_kids -->
<g id="edge18" class="edge"><title>0_1_0_0_0_0_0_kids:port1&#45;&gt;0_1_0_0_0_0_0_0_kids:port1</title>
<path fill="none" stroke="grey" d="M335,-145C335,-137.815 325.463,-126.363 314.805,-115.806"/>
<polygon fill="grey" stroke="grey" points="317.004,-113.068 307.35,-108.705 312.176,-118.136 317.004,-113.068"/>
</g>
<!-- 0_1_0_0_0_0_0_1_kids -->
<g id="node18" class="node"><title>0_1_0_0_0_0_0_1_kids</title>
<path fill="none" stroke="grey" d="M343,-72.5C343,-72.5 373,-72.5 373,-72.5 379,-72.5 385,-78.5 385,-84.5 385,-84.5 385,-96.5 385,-96.5 385,-102.5 379,-108.5 373,-108.5 373,-108.5 343,-108.5 343,-108.5 337,-108.5 331,-102.5 331,-96.5 331,-96.5 331,-84.5 331,-84.5 331,-78.5 337,-72.5 343,-72.5"/>
<text text-anchor="middle" x="358" y="-86.8" font-family="Times,serif" font-size="14.00" fill="blue">$b</text>
</g>
<!-- 0_1_0_0_0_0_0_kids&#45;&gt;0_1_0_0_0_0_0_1_kids -->
<g id="edge19" class="edge"><title>0_1_0_0_0_0_0_kids:port2&#45;&gt;0_1_0_0_0_0_0_1_kids:port1</title>
<path fill="none" stroke="grey" d="M358,-145C358,-136.484 358,-127.22 358,-118.787"/>
<polygon fill="grey" stroke="grey" points="361.5,-118.667 358,-108.667 354.5,-118.667 361.5,-118.667"/>
</g>
<!-- 0_1_0_0_0_0_0_2_kids -->
<g id="node20" class="node"><title>0_1_0_0_0_0_0_2_kids</title>
<path fill="none" stroke="grey" d="M415,-72.5C415,-72.5 445,-72.5 445,-72.5 451,-72.5 457,-78.5 457,-84.5 457,-84.5 457,-96.5 457,-96.5 457,-102.5 451,-108.5 445,-108.5 445,-108.5 415,-108.5 415,-108.5 409,-108.5 403,-102.5 403,-96.5 403,-96.5 403,-84.5 403,-84.5 403,-78.5 409,-72.5 415,-72.5"/>
<text text-anchor="middle" x="430" y="-86.8" font-family="Times,serif" font-size="14.00" fill="blue">42</text>
</g>
<!-- 0_1_0_0_0_0_0_kids&#45;&gt;0_1_0_0_0_0_0_2_kids -->
<g id="edge21" class="edge"><title>0_1_0_0_0_0_0_kids:port3&#45;&gt;0_1_0_0_0_0_0_2_kids:port1</title>
<path fill="none" stroke="grey" d="M381,-145C381,-137.815 390.537,-126.363 401.195,-115.806"/>
<polygon fill="grey" stroke="grey" points="403.824,-118.136 408.65,-108.705 398.996,-113.068 403.824,-118.136"/>
</g>
<!-- &amp;CODE(0x12d1580) -->
<g id="node19" class="node"><title>&amp;CODE(0x12d1580)</title>
<ellipse fill="none" stroke="grey" cx="358" cy="-18" rx="88.2844" ry="18"/>
<text text-anchor="middle" x="358" y="-14.3" font-family="Times,serif" font-size="14.00" fill="red">&amp;CODE(0x12d1580)</text>
</g>
<!-- 0_1_0_0_0_0_0_1_kids&#45;&gt;&amp;CODE(0x12d1580) -->
<g id="edge20" class="edge"><title>0_1_0_0_0_0_0_1_kids:port1&#45;&gt;&amp;CODE(0x12d1580)</title>
<path fill="none" stroke="grey" d="M358,-72.4575C358,-64.5753 358,-55.1566 358,-46.4366"/>
<polygon fill="grey" stroke="grey" points="361.5,-46.2967 358,-36.2968 354.5,-46.2968 361.5,-46.2967"/>
</g>
<!-- 0_2_0_kids -->
<g id="node22" class="node"><title>0_2_0_kids</title>
<path fill="none" stroke="grey" d="M305.5,-437.5C305.5,-437.5 506.5,-437.5 506.5,-437.5 512.5,-437.5 518.5,-443.5 518.5,-449.5 518.5,-449.5 518.5,-461.5 518.5,-461.5 518.5,-467.5 512.5,-473.5 506.5,-473.5 506.5,-473.5 305.5,-473.5 305.5,-473.5 299.5,-473.5 293.5,-467.5 293.5,-461.5 293.5,-461.5 293.5,-449.5 293.5,-449.5 293.5,-443.5 299.5,-437.5 305.5,-437.5"/>
<text text-anchor="middle" x="331" y="-451.8" font-family="Times,serif" font-size="14.00" fill="blue">element_1</text>
<polyline fill="none" stroke="grey" points="368.5,-437.5 368.5,-473.5 "/>
<text text-anchor="middle" x="406" y="-451.8" font-family="Times,serif" font-size="14.00" fill="blue">element_2</text>
<polyline fill="none" stroke="grey" points="443.5,-437.5 443.5,-473.5 "/>
<text text-anchor="middle" x="481" y="-451.8" font-family="Times,serif" font-size="14.00" fill="blue">element_3</text>
</g>
<!-- 0_2_kids&#45;&gt;0_2_0_kids -->
<g id="edge23" class="edge"><title>0_2_kids:port1&#45;&gt;0_2_0_kids:port2</title>
<path fill="none" stroke="grey" d="M387.014,-510.461C394.479,-503.225 401.533,-494.184 404.512,-484.041"/>
<polygon fill="grey" stroke="grey" points="407.996,-484.405 406,-474 401.072,-483.379 407.996,-484.405"/>
</g>
</g>
</svg>
