<?xml version="1.0" encoding="UTF-8" standalone="no"?>
<!DOCTYPE svg PUBLIC "-//W3C//DTD SVG 1.1//EN"
 "http://www.w3.org/Graphics/SVG/1.1/DTD/svg11.dtd">
<!-- Generated by graphviz version 2.38.0 (20140413.2041)
 -->
<!-- Title: Perl Pages: 1 -->
<svg width="316pt" height="344pt"
 viewBox="0.00 0.00 316.00 344.00" xmlns="http://www.w3.org/2000/svg" xmlns:xlink="http://www.w3.org/1999/xlink">
<g id="graph0" class="graph" transform="scale(1 1) rotate(0) translate(4 340)">
<title>Perl</title>
<polygon fill="white" stroke="none" points="-4,4 -4,-340 312,-340 312,4 -4,4"/>
<!-- 0 -->
<g id="node1" class="node"><title>0</title>
<polygon fill="none" stroke="green" points="187.724,-306.544 187.724,-321.456 162.111,-332 125.889,-332 100.276,-321.456 100.276,-306.544 125.889,-296 162.111,-296 187.724,-306.544"/>
<polygon fill="none" stroke="green" points="191.733,-303.868 191.733,-324.132 162.906,-336 125.094,-336 96.2666,-324.132 96.2666,-303.868 125.094,-292 162.906,-292 191.733,-303.868"/>
<text text-anchor="middle" x="144" y="-310.3" font-family="Times,serif" font-size="14.00">%$html</text>
</g>
<!-- 0_kids -->
<g id="node2" class="node"><title>0_kids</title>
<path fill="none" stroke="grey" d="M135,-219.5C135,-219.5 197,-219.5 197,-219.5 203,-219.5 209,-225.5 209,-231.5 209,-231.5 209,-243.5 209,-243.5 209,-249.5 203,-255.5 197,-255.5 197,-255.5 135,-255.5 135,-255.5 129,-255.5 123,-249.5 123,-243.5 123,-243.5 123,-231.5 123,-231.5 123,-225.5 129,-219.5 135,-219.5"/>
<text text-anchor="middle" x="144.5" y="-233.8" font-family="Times,serif" font-size="14.00" fill="blue">body</text>
<polyline fill="none" stroke="grey" points="166,-219.5 166,-255.5 "/>
<text text-anchor="middle" x="187.5" y="-233.8" font-family="Times,serif" font-size="14.00" fill="blue">head</text>
</g>
<!-- 0&#45;&gt;0_kids -->
<g id="edge1" class="edge"><title>0&#45;&gt;0_kids:port1</title>
<path fill="none" stroke="grey" d="M144,-291.886C144,-284.163 144,-275.138 144,-266.263"/>
<polygon fill="grey" stroke="grey" points="147.5,-266 144,-256 140.5,-266 147.5,-266"/>
</g>
<!-- 0_0_kids -->
<g id="node3" class="node"><title>0_0_kids</title>
<path fill="none" stroke="grey" d="M103.5,-146.5C103.5,-146.5 140.5,-146.5 140.5,-146.5 146.5,-146.5 152.5,-152.5 152.5,-158.5 152.5,-158.5 152.5,-170.5 152.5,-170.5 152.5,-176.5 146.5,-182.5 140.5,-182.5 140.5,-182.5 103.5,-182.5 103.5,-182.5 97.5,-182.5 91.5,-176.5 91.5,-170.5 91.5,-170.5 91.5,-158.5 91.5,-158.5 91.5,-152.5 97.5,-146.5 103.5,-146.5"/>
<text text-anchor="middle" x="122" y="-160.8" font-family="Times,serif" font-size="14.00" fill="blue">%$body</text>
</g>
<!-- 0_kids&#45;&gt;0_0_kids -->
<g id="edge2" class="edge"><title>0_kids:port1&#45;&gt;0_0_kids:port1</title>
<path fill="none" stroke="grey" d="M144,-219C144,-209.906 141.333,-200.538 137.857,-192.19"/>
<polygon fill="grey" stroke="grey" points="140.931,-190.502 133.515,-182.935 134.594,-193.475 140.931,-190.502"/>
</g>
<!-- 0_1_kids -->
<g id="node7" class="node"><title>0_1_kids</title>
<path fill="none" stroke="grey" d="M191.5,-146.5C191.5,-146.5 228.5,-146.5 228.5,-146.5 234.5,-146.5 240.5,-152.5 240.5,-158.5 240.5,-158.5 240.5,-170.5 240.5,-170.5 240.5,-176.5 234.5,-182.5 228.5,-182.5 228.5,-182.5 191.5,-182.5 191.5,-182.5 185.5,-182.5 179.5,-176.5 179.5,-170.5 179.5,-170.5 179.5,-158.5 179.5,-158.5 179.5,-152.5 185.5,-146.5 191.5,-146.5"/>
<text text-anchor="middle" x="210" y="-160.8" font-family="Times,serif" font-size="14.00" fill="blue">%$head</text>
</g>
<!-- 0_kids&#45;&gt;0_1_kids -->
<g id="edge6" class="edge"><title>0_kids:port2&#45;&gt;0_1_kids:port1</title>
<path fill="none" stroke="grey" d="M188,-219C188,-209.906 190.667,-200.538 194.143,-192.19"/>
<polygon fill="grey" stroke="grey" points="197.406,-193.475 198.485,-182.935 191.069,-190.502 197.406,-193.475"/>
</g>
<!-- 0_0_0_kids -->
<g id="node4" class="node"><title>0_0_0_kids</title>
<path fill="none" stroke="grey" d="M101,-73.5C101,-73.5 131,-73.5 131,-73.5 137,-73.5 143,-79.5 143,-85.5 143,-85.5 143,-97.5 143,-97.5 143,-103.5 137,-109.5 131,-109.5 131,-109.5 101,-109.5 101,-109.5 95,-109.5 89,-103.5 89,-97.5 89,-97.5 89,-85.5 89,-85.5 89,-79.5 95,-73.5 101,-73.5"/>
<text text-anchor="middle" x="104.5" y="-87.8" font-family="Times,serif" font-size="14.00" fill="blue">h1</text>
<polyline fill="none" stroke="grey" points="120,-73.5 120,-109.5 "/>
<text text-anchor="middle" x="131.5" y="-87.8" font-family="Times,serif" font-size="14.00" fill="blue">p</text>
</g>
<!-- 0_0_kids&#45;&gt;0_0_0_kids -->
<g id="edge3" class="edge"><title>0_0_kids:port1&#45;&gt;0_0_0_kids:port1</title>
<path fill="none" stroke="grey" d="M112.789,-146.324C109.537,-138.709 106.321,-129.46 104.843,-120.111"/>
<polygon fill="grey" stroke="grey" points="108.318,-119.675 104,-110 101.343,-120.256 108.318,-119.675"/>
</g>
<!-- 0_0_0_0_kids -->
<g id="node5" class="node"><title>0_0_0_0_kids</title>
<path fill="none" stroke="grey" d="M12,-0.5C12,-0.5 60,-0.5 60,-0.5 66,-0.5 72,-6.5 72,-12.5 72,-12.5 72,-24.5 72,-24.5 72,-30.5 66,-36.5 60,-36.5 60,-36.5 12,-36.5 12,-36.5 6,-36.5 0,-30.5 0,-24.5 0,-24.5 0,-12.5 0,-12.5 0,-6.5 6,-0.5 12,-0.5"/>
<text text-anchor="middle" x="36" y="-14.8" font-family="Times,serif" font-size="14.00" fill="blue">Heading 1</text>
</g>
<!-- 0_0_0_kids&#45;&gt;0_0_0_0_kids -->
<g id="edge4" class="edge"><title>0_0_0_kids:port1&#45;&gt;0_0_0_0_kids:port1</title>
<path fill="none" stroke="grey" d="M104,-73C104,-64.3834 90.5376,-52.6449 75.5928,-42.2685"/>
<polygon fill="grey" stroke="grey" points="77.4735,-39.3158 67.2137,-36.6725 73.5858,-45.137 77.4735,-39.3158"/>
</g>
<!-- 0_0_0_1_kids -->
<g id="node6" class="node"><title>0_0_0_1_kids</title>
<path fill="none" stroke="grey" d="M102.5,-0.5C102.5,-0.5 161.5,-0.5 161.5,-0.5 167.5,-0.5 173.5,-6.5 173.5,-12.5 173.5,-12.5 173.5,-24.5 173.5,-24.5 173.5,-30.5 167.5,-36.5 161.5,-36.5 161.5,-36.5 102.5,-36.5 102.5,-36.5 96.5,-36.5 90.5,-30.5 90.5,-24.5 90.5,-24.5 90.5,-12.5 90.5,-12.5 90.5,-6.5 96.5,-0.5 102.5,-0.5"/>
<text text-anchor="middle" x="132" y="-14.8" font-family="Times,serif" font-size="14.00" fill="blue">Paragraph 1</text>
</g>
<!-- 0_0_0_kids&#45;&gt;0_0_0_1_kids -->
<g id="edge5" class="edge"><title>0_0_0_kids:port2&#45;&gt;0_0_0_1_kids:port1</title>
<path fill="none" stroke="grey" d="M132,-73C132,-64.4844 132,-55.2203 132,-46.7865"/>
<polygon fill="grey" stroke="grey" points="135.5,-46.6666 132,-36.6667 128.5,-46.6667 135.5,-46.6666"/>
</g>
<!-- 0_1_0_kids -->
<g id="node8" class="node"><title>0_1_0_kids</title>
<path fill="none" stroke="grey" d="M204,-73.5C204,-73.5 234,-73.5 234,-73.5 240,-73.5 246,-79.5 246,-85.5 246,-85.5 246,-97.5 246,-97.5 246,-103.5 240,-109.5 234,-109.5 234,-109.5 204,-109.5 204,-109.5 198,-109.5 192,-103.5 192,-97.5 192,-97.5 192,-85.5 192,-85.5 192,-79.5 198,-73.5 204,-73.5"/>
<text text-anchor="middle" x="219" y="-87.8" font-family="Times,serif" font-size="14.00" fill="blue">title</text>
</g>
<!-- 0_1_kids&#45;&gt;0_1_0_kids -->
<g id="edge7" class="edge"><title>0_1_kids:port1&#45;&gt;0_1_0_kids:port1</title>
<path fill="none" stroke="grey" d="M212.225,-146.455C213.22,-138.383 214.417,-128.676 215.526,-119.682"/>
<polygon fill="grey" stroke="grey" points="219.02,-119.944 216.77,-109.59 212.072,-119.087 219.02,-119.944"/>
</g>
<!-- 0_1_0_0_kids -->
<g id="node9" class="node"><title>0_1_0_0_kids</title>
<path fill="none" stroke="grey" d="M204,-0.5C204,-0.5 296,-0.5 296,-0.5 302,-0.5 308,-6.5 308,-12.5 308,-12.5 308,-24.5 308,-24.5 308,-30.5 302,-36.5 296,-36.5 296,-36.5 204,-36.5 204,-36.5 198,-36.5 192,-30.5 192,-24.5 192,-24.5 192,-12.5 192,-12.5 192,-6.5 198,-0.5 204,-0.5"/>
<text text-anchor="middle" x="250" y="-14.8" font-family="Times,serif" font-size="14.00" fill="blue">Title of document</text>
</g>
<!-- 0_1_0_kids&#45;&gt;0_1_0_0_kids -->
<g id="edge8" class="edge"><title>0_1_0_kids:port1&#45;&gt;0_1_0_0_kids:port1</title>
<path fill="none" stroke="grey" d="M226.663,-73.4551C230.203,-65.1196 234.482,-55.0416 238.405,-45.8042"/>
<polygon fill="grey" stroke="grey" points="241.631,-47.1629 242.318,-36.5904 235.187,-44.4267 241.631,-47.1629"/>
</g>
</g>
</svg>
