<?xml version="1.0" encoding="UTF-8" standalone="no"?>
<!DOCTYPE svg PUBLIC "-//W3C//DTD SVG 1.1//EN"
 "http://www.w3.org/Graphics/SVG/1.1/DTD/svg11.dtd">
<!-- Generated by graphviz version 2.38.0 (20140413.2041)
 -->
<!-- Title: Perl Pages: 1 -->
<svg width="3952pt" height="332pt"
 viewBox="0.00 0.00 3952.24 332.00" xmlns="http://www.w3.org/2000/svg" xmlns:xlink="http://www.w3.org/1999/xlink">
<g id="graph0" class="graph" transform="scale(1 1) rotate(0) translate(4 328)">
<title>Perl</title>
<polygon fill="white" stroke="none" points="-4,4 -4,-328 3948.24,-328 3948.24,4 -4,4"/>
<!-- Grammar -->
<g id="node1" class="node"><title>Grammar</title>
<ellipse fill="none" stroke="blue" cx="1530.55" cy="-306" rx="46.5926" ry="18"/>
<text text-anchor="middle" x="1530.55" y="-302.3" font-family="Times,serif" font-size="14.00">Grammar</text>
</g>
<!-- id -->
<g id="node2" class="node"><title>id</title>
<ellipse fill="none" stroke="blue" cx="509.555" cy="-18" rx="509.61" ry="18"/>
<text text-anchor="middle" x="509.555" y="-14.3" font-family="Times,serif" font-size="14.00">/[a&#45;z]		# LEADING ALPHABETIC\n		 &#160;\w*		# FOLLOWED BY ALPHAS, DIGITS, OR UNDERSCORES\n		 /ix &#160;</text>
</g>
<!-- Grammar&#45;&gt;id -->
<g id="edge1" class="edge"><title>Grammar&#45;&gt;id</title>
<path fill="none" stroke="grey" d="M1483.79,-304.3C1289.01,-301.162 550.779,-286.992 516.555,-252 462.643,-196.879 485.099,-94.7517 500.113,-46.1141"/>
<polygon fill="grey" stroke="grey" points="503.536,-46.9027 503.265,-36.3113 496.872,-44.76 503.536,-46.9027"/>
</g>
<!-- name -->
<g id="node3" class="node"><title>name</title>
<ellipse fill="none" stroke="blue" cx="1189.55" cy="-162" rx="33.2948" ry="18"/>
<text text-anchor="middle" x="1189.55" y="-158.3" font-family="Times,serif" font-size="14.00">&#39;fred&#39; &#160;</text>
</g>
<!-- Grammar&#45;&gt;name -->
<g id="edge2" class="edge"><title>Grammar&#45;&gt;name</title>
<path fill="none" stroke="grey" d="M1483.76,-305.631C1393.03,-305.746 1198.42,-300.218 1156.55,-252 1140.37,-233.356 1154.43,-206.05 1168.88,-186.607"/>
<polygon fill="grey" stroke="grey" points="1171.79,-188.569 1175.23,-178.545 1166.29,-184.24 1171.79,-188.569"/>
</g>
<!-- dog -->
<g id="node4" class="node"><title>dog</title>
<ellipse fill="none" stroke="blue" cx="1438.55" cy="-234" rx="31.3957" ry="18"/>
<text text-anchor="middle" x="1438.55" y="-230.3" font-family="Times,serif" font-size="14.00">&#39;dog&#39; &#160;</text>
</g>
<!-- Grammar&#45;&gt;dog -->
<g id="edge3" class="edge"><title>Grammar&#45;&gt;dog</title>
<path fill="none" stroke="grey" d="M1510.14,-289.465C1496.77,-279.296 1479.18,-265.914 1464.79,-254.959"/>
<polygon fill="grey" stroke="grey" points="1466.81,-252.102 1456.73,-248.832 1462.57,-257.673 1466.81,-252.102"/>
</g>
<!-- cat -->
<g id="node5" class="node"><title>cat</title>
<ellipse fill="none" stroke="blue" cx="1623.55" cy="-234" rx="135.676" ry="18"/>
<text text-anchor="middle" x="1623.55" y="-230.3" font-family="Times,serif" font-size="14.00">&lt;reject: $arg[0] ne &#39;meows&#39;&gt; &#39;cat&#39; &#160;&#160;</text>
</g>
<!-- Grammar&#45;&gt;cat -->
<g id="edge4" class="edge"><title>Grammar&#45;&gt;cat</title>
<path fill="none" stroke="grey" d="M1551.19,-289.465C1563.43,-280.259 1579.16,-268.418 1592.83,-258.13"/>
<polygon fill="grey" stroke="grey" points="1595.13,-260.772 1601.02,-251.962 1590.93,-255.179 1595.13,-260.772"/>
</g>
<!-- _alternation_1_of_production_1_of_rule_test1 -->
<g id="node6" class="node"><title>_alternation_1_of_production_1_of_rule_test1</title>
<ellipse fill="none" stroke="blue" cx="1897.55" cy="-162" rx="33.5952" ry="18"/>
<text text-anchor="middle" x="1897.55" y="-158.3" font-family="Times,serif" font-size="14.00">&#39;easy&#39; &#160;</text>
</g>
<!-- Grammar&#45;&gt;_alternation_1_of_production_1_of_rule_test1 -->
<g id="edge5" class="edge"><title>Grammar&#45;&gt;_alternation_1_of_production_1_of_rule_test1</title>
<path fill="none" stroke="grey" d="M1576.47,-302.058C1626.33,-297.256 1707.07,-284.695 1768.55,-252 1789.1,-241.077 1787.93,-229.947 1806.55,-216 1824.87,-202.279 1847.03,-189.305 1864.9,-179.627"/>
<polygon fill="grey" stroke="grey" points="1866.63,-182.671 1873.81,-174.88 1863.34,-176.494 1866.63,-182.671"/>
</g>
<!-- test4 -->
<g id="node7" class="node"><title>test4</title>
<ellipse fill="none" stroke="blue" cx="2523.55" cy="-234" rx="39.7935" ry="18"/>
<text text-anchor="middle" x="2523.55" y="-230.3" font-family="Times,serif" font-size="14.00">&#39;a&#39; b /c/ &#160;</text>
</g>
<!-- Grammar&#45;&gt;test4 -->
<g id="edge7" class="edge"><title>Grammar&#45;&gt;test4</title>
<path fill="none" stroke="grey" d="M1577.16,-303.901C1741.76,-299.782 2295.28,-283.837 2469.55,-252 2474.26,-251.14 2479.13,-249.992 2483.93,-248.697"/>
<polygon fill="grey" stroke="grey" points="2484.99,-252.034 2493.61,-245.877 2483.03,-245.314 2484.99,-252.034"/>
</g>
<!-- b -->
<g id="node8" class="node"><title>b</title>
<ellipse fill="none" stroke="blue" cx="2489.55" cy="-162" rx="27" ry="18"/>
<text text-anchor="middle" x="2489.55" y="-158.3" font-family="Times,serif" font-size="14.00">&#39;b&#39; &#160;</text>
</g>
<!-- Grammar&#45;&gt;b -->
<g id="edge8" class="edge"><title>Grammar&#45;&gt;b</title>
<path fill="none" stroke="grey" d="M1577.25,-304.403C1749.43,-301.904 2342.62,-290.55 2417.55,-252 2444.5,-238.14 2464.88,-209.228 2476.97,-188.105"/>
<polygon fill="grey" stroke="grey" points="2480.05,-189.765 2481.78,-179.313 2473.91,-186.403 2480.05,-189.765"/>
</g>
<!-- test6 -->
<g id="node9" class="node"><title>test6</title>
<ellipse fill="none" stroke="blue" cx="2952.55" cy="-234" rx="371.534" ry="18"/>
<text text-anchor="middle" x="2952.55" y="-230.3" font-family="Times,serif" font-size="14.00">&lt;rulevar: $test6 = 1&gt; &#160;&#39;a&#39; &lt;commit&gt; &#39;b&#39; &lt;uncommit&gt; &#39;c&#39; &lt;reject: $test6 &amp;&amp; $text&gt; &#160;&lt;uncommit&gt; &#160;&#39;a&#39; &#160;</text>
</g>
<!-- Grammar&#45;&gt;test6 -->
<g id="edge9" class="edge"><title>Grammar&#45;&gt;test6</title>
<path fill="none" stroke="grey" d="M1576.66,-302.731C1746.1,-294.389 2342.68,-265.022 2692.17,-247.818"/>
<polygon fill="grey" stroke="grey" points="2692.36,-251.313 2702.18,-247.325 2692.02,-244.321 2692.36,-251.313"/>
</g>
<!-- the -->
<g id="node10" class="node"><title>the</title>
<ellipse fill="none" stroke="blue" cx="3372.55" cy="-234" rx="30.5947" ry="18"/>
<text text-anchor="middle" x="3372.55" y="-230.3" font-family="Times,serif" font-size="14.00">&#39;the&#39; &#160;</text>
</g>
<!-- Grammar&#45;&gt;the -->
<g id="edge10" class="edge"><title>Grammar&#45;&gt;the</title>
<path fill="none" stroke="grey" d="M1577.57,-304.685C1843.93,-302.759 3157.93,-291.314 3333.55,-252 3336.01,-251.449 3338.51,-250.744 3340.99,-249.934"/>
<polygon fill="grey" stroke="grey" points="3342.24,-253.203 3350.36,-246.402 3339.77,-246.653 3342.24,-253.203"/>
</g>
<!-- is -->
<g id="node11" class="node"><title>is</title>
<ellipse fill="none" stroke="blue" cx="2251.55" cy="-162" rx="43.5923" ry="18"/>
<text text-anchor="middle" x="2251.55" y="-158.3" font-family="Times,serif" font-size="14.00">&#39;is&#39; &#160;&#39;are&#39; &#160;</text>
</g>
<!-- Grammar&#45;&gt;is -->
<g id="edge11" class="edge"><title>Grammar&#45;&gt;is</title>
<path fill="none" stroke="grey" d="M1577.33,-303.9C1753.74,-299.528 2370.2,-282.136 2398.55,-252 2433.77,-214.566 2355.02,-187.209 2299.74,-173.32"/>
<polygon fill="grey" stroke="grey" points="2300.27,-169.846 2289.72,-170.883 2298.61,-176.648 2300.27,-169.846"/>
</g>
<!-- test5 -->
<g id="node12" class="node"><title>test5</title>
<ellipse fill="none" stroke="blue" cx="1258.55" cy="-234" rx="92.8835" ry="18"/>
<text text-anchor="middle" x="1258.55" y="-230.3" font-family="Times,serif" font-size="14.00">name notname &#160;name &#160;</text>
</g>
<!-- Grammar&#45;&gt;test5 -->
<g id="edge14" class="edge"><title>Grammar&#45;&gt;test5</title>
<path fill="none" stroke="grey" d="M1492.73,-295.267C1448.58,-283.903 1374.85,-264.929 1321.91,-251.305"/>
<polygon fill="grey" stroke="grey" points="1322.51,-247.844 1311.95,-248.741 1320.76,-254.623 1322.51,-247.844"/>
</g>
<!-- notname -->
<g id="node13" class="node"><title>notname</title>
<ellipse fill="none" stroke="blue" cx="1349.55" cy="-162" rx="51.1914" ry="18"/>
<text text-anchor="middle" x="1349.55" y="-158.3" font-family="Times,serif" font-size="14.00">/[a&#45;z]\w*/i &#160;</text>
</g>
<!-- Grammar&#45;&gt;notname -->
<g id="edge19" class="edge"><title>Grammar&#45;&gt;notname</title>
<path fill="none" stroke="grey" d="M1490.66,-296.578C1462.29,-288.913 1424.72,-275.163 1398.55,-252 1379.55,-235.173 1366.43,-209.139 1358.58,-189.567"/>
<polygon fill="grey" stroke="grey" points="1361.77,-188.113 1354.95,-180.004 1355.23,-190.595 1361.77,-188.113"/>
</g>
<!-- defn -->
<g id="node14" class="node"><title>defn</title>
<ellipse fill="none" stroke="blue" cx="890.555" cy="-90" rx="109.381" ry="18"/>
<text text-anchor="middle" x="890.555" y="-86.3" font-family="Times,serif" font-size="14.00">&#39;var&#39; id &#39;holds&#39; typename &#39;;&#39; &#160;</text>
</g>
<!-- Grammar&#45;&gt;defn -->
<g id="edge17" class="edge"><title>Grammar&#45;&gt;defn</title>
<path fill="none" stroke="grey" d="M1483.92,-304.454C1379.13,-302.489 1128.59,-293.464 1056.55,-252 1004.78,-222.2 1020.55,-184.4 976.555,-144 963.396,-131.918 947.094,-121.06 932.232,-112.364"/>
<polygon fill="grey" stroke="grey" points="933.63,-109.133 923.206,-107.238 930.173,-115.22 933.63,-109.133"/>
</g>
<!-- typename -->
<g id="node15" class="node"><title>typename</title>
<ellipse fill="none" stroke="blue" cx="1065.55" cy="-18" rx="28.6953" ry="18"/>
<text text-anchor="middle" x="1065.55" y="-14.3" font-family="Times,serif" font-size="14.00">&#39;int&#39; &#160;</text>
</g>
<!-- Grammar&#45;&gt;typename -->
<g id="edge34" class="edge"><title>Grammar&#45;&gt;typename</title>
<path fill="none" stroke="grey" d="M1483.7,-304.518C1392.64,-302.646 1196.29,-293.741 1145.55,-252 1129.08,-238.442 1089.67,-104.411 1073.1,-45.9895"/>
<polygon fill="grey" stroke="grey" points="1076.37,-44.6801 1070.28,-36.0068 1069.63,-46.5816 1076.37,-44.6801"/>
</g>
<!-- test7 -->
<g id="node16" class="node"><title>test7</title>
<ellipse fill="none" stroke="blue" cx="3495.55" cy="-234" rx="74.9875" ry="18"/>
<text text-anchor="middle" x="3495.55" y="-230.3" font-family="Times,serif" font-size="14.00">&#39;x&#39; &lt;resync&gt; /y+/ &#160;</text>
</g>
<!-- Grammar&#45;&gt;test7 -->
<g id="edge18" class="edge"><title>Grammar&#45;&gt;test7</title>
<path fill="none" stroke="grey" d="M1577.36,-304.786C1830.83,-303.457 3041.18,-294.932 3412.55,-252 3419.33,-251.217 3426.37,-250.16 3433.36,-248.954"/>
<polygon fill="grey" stroke="grey" points="3434.32,-252.336 3443.53,-247.095 3433.07,-245.45 3434.32,-252.336"/>
</g>
<!-- a -->
<g id="node17" class="node"><title>a</title>
<ellipse fill="none" stroke="blue" cx="3615.55" cy="-234" rx="27" ry="18"/>
<text text-anchor="middle" x="3615.55" y="-230.3" font-family="Times,serif" font-size="14.00">&#39;a&#39; &#160;</text>
</g>
<!-- Grammar&#45;&gt;a -->
<g id="edge20" class="edge"><title>Grammar&#45;&gt;a</title>
<path fill="none" stroke="grey" d="M1577.29,-304.947C1863.99,-304.468 3379.09,-299.683 3579.55,-252 3581.74,-251.48 3583.95,-250.818 3586.15,-250.059"/>
<polygon fill="grey" stroke="grey" points="3587.59,-253.251 3595.53,-246.243 3584.95,-246.767 3587.59,-253.251"/>
</g>
<!-- _alternation_1_of_production_1_of_rule_test3 -->
<g id="node18" class="node"><title>_alternation_1_of_production_1_of_rule_test3</title>
<ellipse fill="none" stroke="blue" cx="890.555" cy="-162" rx="76.8869" ry="18"/>
<text text-anchor="middle" x="890.555" y="-158.3" font-family="Times,serif" font-size="14.00">defn &#160;typedef &#160;fail &#160;</text>
</g>
<!-- Grammar&#45;&gt;_alternation_1_of_production_1_of_rule_test3 -->
<g id="edge24" class="edge"><title>Grammar&#45;&gt;_alternation_1_of_production_1_of_rule_test3</title>
<path fill="none" stroke="grey" d="M1483.74,-303.738C1372.37,-300.178 1094.58,-287.868 1009.55,-252 986.59,-242.312 986.352,-231.143 966.555,-216 952.72,-205.417 936.992,-194.305 923.447,-185.004"/>
<polygon fill="grey" stroke="grey" points="925.137,-181.921 914.903,-179.178 921.193,-187.704 925.137,-181.921"/>
</g>
<!-- typedef -->
<g id="node19" class="node"><title>typedef</title>
<ellipse fill="none" stroke="blue" cx="633.555" cy="-90" rx="98.5829" ry="18"/>
<text text-anchor="middle" x="633.555" y="-86.3" font-family="Times,serif" font-size="14.00">&#39;type&#39; id &#39;is&#39; typename &#39;;&#39; &#160;</text>
</g>
<!-- Grammar&#45;&gt;typedef -->
<g id="edge30" class="edge"><title>Grammar&#45;&gt;typedef</title>
<path fill="none" stroke="grey" d="M1483.85,-304.287C1291.05,-301.121 565.667,-286.918 532.555,-252 491.601,-208.814 558.5,-146.557 601.599,-113.543"/>
<polygon fill="grey" stroke="grey" points="603.703,-116.339 609.6,-107.537 599.501,-110.741 603.703,-116.339"/>
</g>
<!-- fail -->
<g id="node20" class="node"><title>fail</title>
<ellipse fill="none" stroke="blue" cx="1044.55" cy="-90" rx="27" ry="18"/>
<text text-anchor="middle" x="1044.55" y="-86.3" font-family="Times,serif" font-size="14.00"> </text>
</g>
<!-- Grammar&#45;&gt;fail -->
<g id="edge27" class="edge"><title>Grammar&#45;&gt;fail</title>
<path fill="none" stroke="grey" d="M1483.62,-305.873C1381.56,-306.775 1143.9,-303.173 1085.55,-252 1047.33,-218.476 1042.31,-154.79 1042.89,-118.37"/>
<polygon fill="grey" stroke="grey" points="1046.4,-118.112 1043.21,-108.006 1039.4,-117.89 1046.4,-118.112"/>
</g>
<!-- test3 -->
<g id="node21" class="node"><title>test3</title>
<ellipse fill="none" stroke="blue" cx="749.555" cy="-234" rx="207.963" ry="18"/>
<text text-anchor="middle" x="749.555" y="-230.3" font-family="Times,serif" font-size="14.00">_alternation_1_of_production_1_of_rule_test3(5..10) &#160;</text>
</g>
<!-- Grammar&#45;&gt;test3 -->
<g id="edge26" class="edge"><title>Grammar&#45;&gt;test3</title>
<path fill="none" stroke="grey" d="M1485.47,-300.96C1373.57,-290.93 1079.1,-264.537 898.397,-248.341"/>
<polygon fill="grey" stroke="grey" points="898.545,-244.84 888.272,-247.433 897.92,-251.812 898.545,-244.84"/>
</g>
<!-- test1 -->
<g id="node22" class="node"><title>test1</title>
<ellipse fill="none" stroke="blue" cx="2102.55" cy="-234" rx="287.049" ry="18"/>
<text text-anchor="middle" x="2102.55" y="-230.3" font-family="Times,serif" font-size="14.00">&#39;(&#39; &#39;the&#39; &#39;$::first&#39; /te+st/ is _alternation_1_of_production_1_of_rule_test1(s?) &#160;</text>
</g>
<!-- Grammar&#45;&gt;test1 -->
<g id="edge33" class="edge"><title>Grammar&#45;&gt;test1</title>
<path fill="none" stroke="grey" d="M1574.49,-299.623C1657.52,-289.462 1840.55,-267.064 1967.68,-251.506"/>
<polygon fill="grey" stroke="grey" points="1968.38,-254.946 1977.88,-250.257 1967.53,-247.998 1968.38,-254.946"/>
</g>
<!-- test2 -->
<g id="node23" class="node"><title>test2</title>
<ellipse fill="none" stroke="blue" cx="3802.55" cy="-234" rx="141.875" ry="18"/>
<text text-anchor="middle" x="3802.55" y="-230.3" font-family="Times,serif" font-size="14.00">$arg{article} $arg[3][$arg{sound}] &#160;</text>
</g>
<!-- Grammar&#45;&gt;test2 -->
<g id="edge35" class="edge"><title>Grammar&#45;&gt;test2</title>
<path fill="none" stroke="grey" d="M1577.65,-305.341C1806.14,-306.675 2821.97,-308.955 3651.55,-252 3665.78,-251.024 3680.72,-249.702 3695.45,-248.225"/>
<polygon fill="grey" stroke="grey" points="3696.01,-251.685 3705.6,-247.179 3695.29,-244.722 3696.01,-251.685"/>
</g>
<!-- test4&#45;&gt;b -->
<g id="edge6" class="edge"><title>test4&#45;&gt;b</title>
<path fill="none" stroke="grey" d="M2515.32,-216.055C2511.3,-207.767 2506.37,-197.618 2501.9,-188.424"/>
<polygon fill="grey" stroke="grey" points="2504.99,-186.773 2497.48,-179.307 2498.7,-189.831 2504.99,-186.773"/>
</g>
<!-- test5&#45;&gt;name -->
<g id="edge12" class="edge"><title>test5&#45;&gt;name</title>
<path fill="none" stroke="grey" d="M1241.85,-216.055C1232.83,-206.898 1221.56,-195.47 1211.8,-185.568"/>
<polygon fill="grey" stroke="grey" points="1214.2,-183.021 1204.69,-178.356 1209.22,-187.935 1214.2,-183.021"/>
</g>
<!-- test5&#45;&gt;notname -->
<g id="edge13" class="edge"><title>test5&#45;&gt;notname</title>
<path fill="none" stroke="grey" d="M1280.12,-216.411C1292.28,-207.058 1307.62,-195.254 1320.8,-185.123"/>
<polygon fill="grey" stroke="grey" points="1323.29,-187.62 1329.08,-178.749 1319.02,-182.072 1323.29,-187.62"/>
</g>
<!-- defn&#45;&gt;id -->
<g id="edge15" class="edge"><title>defn&#45;&gt;id</title>
<path fill="none" stroke="grey" d="M820.674,-76.1609C761.824,-65.3487 676.886,-49.7434 610.623,-37.5689"/>
<polygon fill="grey" stroke="grey" points="611.04,-34.087 600.572,-35.7223 609.775,-40.9717 611.04,-34.087"/>
</g>
<!-- defn&#45;&gt;typename -->
<g id="edge16" class="edge"><title>defn&#45;&gt;typename</title>
<path fill="none" stroke="grey" d="M933.42,-73.3438C960.808,-63.1426 996.98,-49.301 1028.55,-36 1030.36,-35.2384 1032.21,-34.4422 1034.08,-33.6278"/>
<polygon fill="grey" stroke="grey" points="1035.65,-36.7574 1043.35,-29.4805 1032.79,-30.367 1035.65,-36.7574"/>
</g>
<!-- _alternation_1_of_production_1_of_rule_test3&#45;&gt;defn -->
<g id="edge21" class="edge"><title>_alternation_1_of_production_1_of_rule_test3&#45;&gt;defn</title>
<path fill="none" stroke="grey" d="M890.555,-143.697C890.555,-135.983 890.555,-126.712 890.555,-118.112"/>
<polygon fill="grey" stroke="grey" points="894.055,-118.104 890.555,-108.104 887.055,-118.104 894.055,-118.104"/>
</g>
<!-- _alternation_1_of_production_1_of_rule_test3&#45;&gt;typedef -->
<g id="edge22" class="edge"><title>_alternation_1_of_production_1_of_rule_test3&#45;&gt;typedef</title>
<path fill="none" stroke="grey" d="M842.517,-147.916C801.099,-136.635 741.02,-120.271 695.902,-107.982"/>
<polygon fill="grey" stroke="grey" points="696.794,-104.597 686.225,-105.346 694.954,-111.351 696.794,-104.597"/>
</g>
<!-- _alternation_1_of_production_1_of_rule_test3&#45;&gt;fail -->
<g id="edge23" class="edge"><title>_alternation_1_of_production_1_of_rule_test3&#45;&gt;fail</title>
<path fill="none" stroke="grey" d="M924.713,-145.864C948.316,-135.355 980.406,-120.966 1008.55,-108 1010.34,-107.176 1012.18,-106.324 1014.03,-105.462"/>
<polygon fill="grey" stroke="grey" points="1015.7,-108.548 1023.27,-101.135 1012.73,-102.21 1015.7,-108.548"/>
</g>
<!-- typedef&#45;&gt;id -->
<g id="edge28" class="edge"><title>typedef&#45;&gt;id</title>
<path fill="none" stroke="grey" d="M604.795,-72.7646C588.223,-63.4098 567.154,-51.5156 549.047,-41.2942"/>
<polygon fill="grey" stroke="grey" points="550.317,-37.992 539.889,-36.1239 546.876,-44.0878 550.317,-37.992"/>
</g>
<!-- typedef&#45;&gt;typename -->
<g id="edge29" class="edge"><title>typedef&#45;&gt;typename</title>
<path fill="none" stroke="grey" d="M712.447,-79.0232C823.342,-64.9109 1013.56,-40.3448 1028.55,-36 1030.49,-35.4393 1032.45,-34.7927 1034.41,-34.0864"/>
<polygon fill="grey" stroke="grey" points="1036.1,-37.178 1044.06,-30.177 1033.47,-30.6909 1036.1,-37.178"/>
</g>
<!-- test3&#45;&gt;_alternation_1_of_production_1_of_rule_test3 -->
<g id="edge25" class="edge"><title>test3&#45;&gt;_alternation_1_of_production_1_of_rule_test3</title>
<path fill="none" stroke="grey" d="M783.328,-216.233C803.341,-206.298 828.833,-193.642 849.94,-183.164"/>
<polygon fill="grey" stroke="grey" points="851.589,-186.252 858.99,-178.671 848.477,-179.982 851.589,-186.252"/>
</g>
<!-- test1&#45;&gt;_alternation_1_of_production_1_of_rule_test1 -->
<g id="edge32" class="edge"><title>test1&#45;&gt;_alternation_1_of_production_1_of_rule_test1</title>
<path fill="none" stroke="grey" d="M2053.45,-216.233C2017.06,-203.807 1968.21,-187.127 1934.96,-175.772"/>
<polygon fill="grey" stroke="grey" points="1935.76,-172.349 1925.17,-172.429 1933.5,-178.973 1935.76,-172.349"/>
</g>
<!-- test1&#45;&gt;is -->
<g id="edge31" class="edge"><title>test1&#45;&gt;is</title>
<path fill="none" stroke="grey" d="M2138.62,-216.055C2161.64,-205.244 2191.38,-191.268 2214.57,-180.375"/>
<polygon fill="grey" stroke="grey" points="2216.18,-183.484 2223.75,-176.064 2213.21,-177.148 2216.18,-183.484"/>
</g>
</g>
</svg>
