<?xml version="1.0" encoding="UTF-8" standalone="no"?>
<!DOCTYPE svg PUBLIC "-//W3C//DTD SVG 1.1//EN"
 "http://www.w3.org/Graphics/SVG/1.1/DTD/svg11.dtd">
<!-- Generated by graphviz version 2.38.0 (20140413.2041)
 -->
<!-- Title: Perl Pages: 1 -->
<svg width="3471pt" height="332pt"
 viewBox="0.00 0.00 3471.20 332.00" xmlns="http://www.w3.org/2000/svg" xmlns:xlink="http://www.w3.org/1999/xlink">
<g id="graph0" class="graph" transform="scale(1 1) rotate(0) translate(4 328)">
<title>Perl</title>
<polygon fill="white" stroke="none" points="-4,4 -4,-328 3467.2,-328 3467.2,4 -4,4"/>
<!-- Grammar -->
<g id="node1" class="node"><title>Grammar</title>
<ellipse fill="none" stroke="blue" cx="1238" cy="-306" rx="46.5926" ry="18"/>
<text text-anchor="middle" x="1238" y="-302.3" font-family="Times,serif" font-size="14.00">Grammar</text>
</g>
<!-- b -->
<g id="node2" class="node"><title>b</title>
<ellipse fill="none" stroke="blue" cx="27" cy="-162" rx="27" ry="18"/>
<text text-anchor="middle" x="27" y="-158.3" font-family="Times,serif" font-size="14.00">&#39;b&#39; &#160;</text>
</g>
<!-- Grammar&#45;&gt;b -->
<g id="edge1" class="edge"><title>Grammar&#45;&gt;b</title>
<path fill="none" stroke="grey" d="M1190.98,-304.765C971.129,-303.44 53.4903,-295.323 12,-252 -4.113,-235.175 3.54828,-207.876 12.8045,-187.942"/>
<polygon fill="grey" stroke="grey" points="16.022,-189.334 17.3794,-178.826 9.76566,-186.194 16.022,-189.334"/>
</g>
<!-- test3 -->
<g id="node3" class="node"><title>test3</title>
<ellipse fill="none" stroke="blue" cx="441" cy="-234" rx="207.963" ry="18"/>
<text text-anchor="middle" x="441" y="-230.3" font-family="Times,serif" font-size="14.00">_alternation_1_of_production_1_of_rule_test3(5..10) &#160;</text>
</g>
<!-- Grammar&#45;&gt;test3 -->
<g id="edge3" class="edge"><title>Grammar&#45;&gt;test3</title>
<path fill="none" stroke="grey" d="M1192.87,-301.036C1079.05,-291.039 776.253,-264.445 591.5,-248.218"/>
<polygon fill="grey" stroke="grey" points="591.692,-244.722 581.424,-247.333 591.08,-251.695 591.692,-244.722"/>
</g>
<!-- _alternation_1_of_production_1_of_rule_test3 -->
<g id="node4" class="node"><title>_alternation_1_of_production_1_of_rule_test3</title>
<ellipse fill="none" stroke="blue" cx="390" cy="-162" rx="76.8869" ry="18"/>
<text text-anchor="middle" x="390" y="-158.3" font-family="Times,serif" font-size="14.00">defn &#160;typedef &#160;fail &#160;</text>
</g>
<!-- Grammar&#45;&gt;_alternation_1_of_production_1_of_rule_test3 -->
<g id="edge30" class="edge"><title>Grammar&#45;&gt;_alternation_1_of_production_1_of_rule_test3</title>
<path fill="none" stroke="grey" d="M1191.2,-304.326C996.319,-301.297 257.695,-287.502 224,-252 188.336,-214.423 260.392,-189.27 320.499,-175.555"/>
<polygon fill="grey" stroke="grey" points="321.393,-178.941 330.405,-173.37 319.886,-172.106 321.393,-178.941"/>
</g>
<!-- cat -->
<g id="node5" class="node"><title>cat</title>
<ellipse fill="none" stroke="blue" cx="917" cy="-234" rx="135.676" ry="18"/>
<text text-anchor="middle" x="917" y="-230.3" font-family="Times,serif" font-size="14.00">&lt;reject: $arg[0] ne &#39;meows&#39;&gt; &#39;cat&#39; &#160;&#160;</text>
</g>
<!-- Grammar&#45;&gt;cat -->
<g id="edge4" class="edge"><title>Grammar&#45;&gt;cat</title>
<path fill="none" stroke="grey" d="M1198.32,-296.346C1147.6,-285.288 1058.7,-265.899 994.38,-251.874"/>
<polygon fill="grey" stroke="grey" points="994.795,-248.382 984.279,-249.671 993.303,-255.222 994.795,-248.382"/>
</g>
<!-- is -->
<g id="node6" class="node"><title>is</title>
<ellipse fill="none" stroke="blue" cx="1191" cy="-162" rx="43.5923" ry="18"/>
<text text-anchor="middle" x="1191" y="-158.3" font-family="Times,serif" font-size="14.00">&#39;is&#39; &#160;&#39;are&#39; &#160;</text>
</g>
<!-- Grammar&#45;&gt;is -->
<g id="edge5" class="edge"><title>Grammar&#45;&gt;is</title>
<path fill="none" stroke="grey" d="M1192.89,-300.758C1161.12,-295.149 1120.71,-282.142 1100,-252 1090.94,-238.813 1092.03,-229.872 1100,-216 1110.32,-198.048 1129.32,-185.607 1147.3,-177.314"/>
<polygon fill="grey" stroke="grey" points="1148.74,-180.503 1156.56,-173.348 1145.99,-174.068 1148.74,-180.503"/>
</g>
<!-- test6 -->
<g id="node7" class="node"><title>test6</title>
<ellipse fill="none" stroke="blue" cx="2111" cy="-234" rx="371.534" ry="18"/>
<text text-anchor="middle" x="2111" y="-230.3" font-family="Times,serif" font-size="14.00">&lt;rulevar: $test6 = 1&gt; &#160;&#39;a&#39; &lt;commit&gt; &#39;b&#39; &lt;uncommit&gt; &#39;c&#39; &lt;reject: $test6 &amp;&amp; $text&gt; &#160;&lt;uncommit&gt; &#160;&#39;a&#39; &#160;</text>
</g>
<!-- Grammar&#45;&gt;test6 -->
<g id="edge6" class="edge"><title>Grammar&#45;&gt;test6</title>
<path fill="none" stroke="grey" d="M1283.4,-301.36C1399.36,-292.061 1711.81,-267.008 1917.88,-250.485"/>
<polygon fill="grey" stroke="grey" points="1918.23,-253.968 1927.92,-249.68 1917.67,-246.991 1918.23,-253.968"/>
</g>
<!-- typename -->
<g id="node8" class="node"><title>typename</title>
<ellipse fill="none" stroke="blue" cx="163" cy="-18" rx="28.6953" ry="18"/>
<text text-anchor="middle" x="163" y="-14.3" font-family="Times,serif" font-size="14.00">&#39;int&#39; &#160;</text>
</g>
<!-- Grammar&#45;&gt;typename -->
<g id="edge7" class="edge"><title>Grammar&#45;&gt;typename</title>
<path fill="none" stroke="grey" d="M1191.09,-304.3C992.2,-301.121 226.991,-286.667 190,-252 133.114,-198.687 146.212,-94.7999 156.434,-45.8008"/>
<polygon fill="grey" stroke="grey" points="159.873,-46.4623 158.609,-35.9431 153.037,-44.9542 159.873,-46.4623"/>
</g>
<!-- a -->
<g id="node9" class="node"><title>a</title>
<ellipse fill="none" stroke="blue" cx="2528" cy="-234" rx="27" ry="18"/>
<text text-anchor="middle" x="2528" y="-230.3" font-family="Times,serif" font-size="14.00">&#39;a&#39; &#160;</text>
</g>
<!-- Grammar&#45;&gt;a -->
<g id="edge8" class="edge"><title>Grammar&#45;&gt;a</title>
<path fill="none" stroke="grey" d="M1284.89,-304.12C1498.39,-299.964 2373.26,-281.274 2492,-252 2494.18,-251.462 2496.39,-250.787 2498.58,-250.018"/>
<polygon fill="grey" stroke="grey" points="2500.03,-253.206 2507.96,-246.18 2497.38,-246.727 2500.03,-253.206"/>
</g>
<!-- fail -->
<g id="node10" class="node"><title>fail</title>
<ellipse fill="none" stroke="blue" cx="215" cy="-90" rx="27" ry="18"/>
<text text-anchor="middle" x="215" y="-86.3" font-family="Times,serif" font-size="14.00"> </text>
</g>
<!-- Grammar&#45;&gt;fail -->
<g id="edge9" class="edge"><title>Grammar&#45;&gt;fail</title>
<path fill="none" stroke="grey" d="M1191.27,-304.36C994.908,-301.445 245.176,-287.985 211,-252 176.915,-216.11 191.882,-152.869 204.361,-117.266"/>
<polygon fill="grey" stroke="grey" points="207.756,-118.177 207.934,-107.584 201.189,-115.753 207.756,-118.177"/>
</g>
<!-- defn -->
<g id="node11" class="node"><title>defn</title>
<ellipse fill="none" stroke="blue" cx="616" cy="-90" rx="109.381" ry="18"/>
<text text-anchor="middle" x="616" y="-86.3" font-family="Times,serif" font-size="14.00">&#39;var&#39; id &#39;holds&#39; typename &#39;;&#39; &#160;</text>
</g>
<!-- Grammar&#45;&gt;defn -->
<g id="edge12" class="edge"><title>Grammar&#45;&gt;defn</title>
<path fill="none" stroke="grey" d="M1191.07,-305.825C1081.04,-306.859 810.317,-303.91 739,-252 696.532,-221.088 724.31,-184.614 691,-144 681.142,-131.98 667.914,-121.428 655.313,-112.97"/>
<polygon fill="grey" stroke="grey" points="657.042,-109.921 646.738,-107.456 653.256,-115.808 657.042,-109.921"/>
</g>
<!-- id -->
<g id="node12" class="node"><title>id</title>
<ellipse fill="none" stroke="blue" cx="719" cy="-18" rx="509.61" ry="18"/>
<text text-anchor="middle" x="719" y="-14.3" font-family="Times,serif" font-size="14.00">/[a&#45;z]		# LEADING ALPHABETIC\n		 &#160;\w*		# FOLLOWED BY ALPHAS, DIGITS, OR UNDERSCORES\n		 /ix &#160;</text>
</g>
<!-- Grammar&#45;&gt;id -->
<g id="edge35" class="edge"><title>Grammar&#45;&gt;id</title>
<path fill="none" stroke="grey" d="M1191.93,-302.786C1080.4,-297.006 802.722,-279.939 772,-252 711.51,-196.989 753.589,-151.382 734,-72 731.883,-63.4193 729.339,-54.1263 726.953,-45.7538"/>
<polygon fill="grey" stroke="grey" points="730.303,-44.7394 724.16,-36.1074 723.579,-46.6863 730.303,-44.7394"/>
</g>
<!-- name -->
<g id="node13" class="node"><title>name</title>
<ellipse fill="none" stroke="blue" cx="2592" cy="-162" rx="33.2948" ry="18"/>
<text text-anchor="middle" x="2592" y="-158.3" font-family="Times,serif" font-size="14.00">&#39;fred&#39; &#160;</text>
</g>
<!-- Grammar&#45;&gt;name -->
<g id="edge13" class="edge"><title>Grammar&#45;&gt;name</title>
<path fill="none" stroke="grey" d="M1284.7,-304.63C1514.05,-302.622 2512.19,-291.63 2564,-252 2582.73,-237.67 2589.22,-210.846 2591.32,-190.378"/>
<polygon fill="grey" stroke="grey" points="2594.82,-190.586 2592.07,-180.354 2587.83,-190.067 2594.82,-190.586"/>
</g>
<!-- the -->
<g id="node14" class="node"><title>the</title>
<ellipse fill="none" stroke="blue" cx="2884" cy="-234" rx="30.5947" ry="18"/>
<text text-anchor="middle" x="2884" y="-230.3" font-family="Times,serif" font-size="14.00">&#39;the&#39; &#160;</text>
</g>
<!-- Grammar&#45;&gt;the -->
<g id="edge14" class="edge"><title>Grammar&#45;&gt;the</title>
<path fill="none" stroke="grey" d="M1284.87,-304.362C1532.54,-300.871 2683.38,-283.084 2839,-252 2842.74,-251.253 2846.58,-250.231 2850.36,-249.056"/>
<polygon fill="grey" stroke="grey" points="2851.84,-252.25 2860.14,-245.672 2849.55,-245.635 2851.84,-252.25"/>
</g>
<!-- test5 -->
<g id="node15" class="node"><title>test5</title>
<ellipse fill="none" stroke="blue" cx="2704" cy="-234" rx="92.8835" ry="18"/>
<text text-anchor="middle" x="2704" y="-230.3" font-family="Times,serif" font-size="14.00">name notname &#160;name &#160;</text>
</g>
<!-- Grammar&#45;&gt;test5 -->
<g id="edge17" class="edge"><title>Grammar&#45;&gt;test5</title>
<path fill="none" stroke="grey" d="M1284.78,-305.181C1458.72,-305.429 2084.45,-302.531 2597,-252 2607.07,-251.007 2617.64,-249.681 2628.04,-248.205"/>
<polygon fill="grey" stroke="grey" points="2628.56,-251.666 2637.95,-246.75 2627.55,-244.74 2628.56,-251.666"/>
</g>
<!-- notname -->
<g id="node16" class="node"><title>notname</title>
<ellipse fill="none" stroke="blue" cx="2764" cy="-162" rx="51.1914" ry="18"/>
<text text-anchor="middle" x="2764" y="-158.3" font-family="Times,serif" font-size="14.00">/[a&#45;z]\w*/i &#160;</text>
</g>
<!-- Grammar&#45;&gt;notname -->
<g id="edge34" class="edge"><title>Grammar&#45;&gt;notname</title>
<path fill="none" stroke="grey" d="M1284.84,-305.226C1539.88,-306.234 2751.81,-308.055 2806,-252 2823.93,-233.457 2806.11,-205.834 2788.46,-186.289"/>
<polygon fill="grey" stroke="grey" points="2790.95,-183.825 2781.53,-178.973 2785.87,-188.639 2790.95,-183.825"/>
</g>
<!-- test2 -->
<g id="node17" class="node"><title>test2</title>
<ellipse fill="none" stroke="blue" cx="3074" cy="-234" rx="141.875" ry="18"/>
<text text-anchor="middle" x="3074" y="-230.3" font-family="Times,serif" font-size="14.00">$arg{article} $arg[3][$arg{sound}] &#160;</text>
</g>
<!-- Grammar&#45;&gt;test2 -->
<g id="edge18" class="edge"><title>Grammar&#45;&gt;test2</title>
<path fill="none" stroke="grey" d="M1285.01,-304.923C1483.86,-304.304 2275.56,-298.859 2924,-252 2937.78,-251.004 2952.24,-249.698 2966.52,-248.251"/>
<polygon fill="grey" stroke="grey" points="2967.29,-251.69 2976.88,-247.175 2966.57,-244.728 2967.29,-251.69"/>
</g>
<!-- typedef -->
<g id="node18" class="node"><title>typedef</title>
<ellipse fill="none" stroke="blue" cx="390" cy="-90" rx="98.5829" ry="18"/>
<text text-anchor="middle" x="390" y="-86.3" font-family="Times,serif" font-size="14.00">&#39;type&#39; id &#39;is&#39; typename &#39;;&#39; &#160;</text>
</g>
<!-- Grammar&#45;&gt;typedef -->
<g id="edge21" class="edge"><title>Grammar&#45;&gt;typedef</title>
<path fill="none" stroke="grey" d="M1191.69,-303.258C1080.08,-298.594 798.941,-283.946 711,-252 684.236,-242.277 682.761,-230.063 658,-216 583.67,-173.782 492.659,-133.604 438.109,-110.671"/>
<polygon fill="grey" stroke="grey" points="439.265,-107.361 428.688,-106.73 436.563,-113.818 439.265,-107.361"/>
</g>
<!-- _alternation_1_of_production_1_of_rule_test1 -->
<g id="node19" class="node"><title>_alternation_1_of_production_1_of_rule_test1</title>
<ellipse fill="none" stroke="blue" cx="1553" cy="-162" rx="33.5952" ry="18"/>
<text text-anchor="middle" x="1553" y="-158.3" font-family="Times,serif" font-size="14.00">&#39;easy&#39; &#160;</text>
</g>
<!-- Grammar&#45;&gt;_alternation_1_of_production_1_of_rule_test1 -->
<g id="edge22" class="edge"><title>Grammar&#45;&gt;_alternation_1_of_production_1_of_rule_test1</title>
<path fill="none" stroke="grey" d="M1284.47,-303.013C1394.77,-297.821 1665.19,-282.12 1692,-252 1702.64,-240.048 1701.08,-229.176 1692,-216 1670.71,-185.102 1628.82,-172.205 1596.57,-166.828"/>
<polygon fill="grey" stroke="grey" points="1596.88,-163.335 1586.47,-165.333 1595.85,-170.26 1596.88,-163.335"/>
</g>
<!-- test7 -->
<g id="node20" class="node"><title>test7</title>
<ellipse fill="none" stroke="blue" cx="3308" cy="-234" rx="74.9875" ry="18"/>
<text text-anchor="middle" x="3308" y="-230.3" font-family="Times,serif" font-size="14.00">&#39;x&#39; &lt;resync&gt; /y+/ &#160;</text>
</g>
<!-- Grammar&#45;&gt;test7 -->
<g id="edge23" class="edge"><title>Grammar&#45;&gt;test7</title>
<path fill="none" stroke="grey" d="M1284.82,-304.866C1546.63,-303.949 2831.6,-297.181 3225,-252 3231.77,-251.222 3238.82,-250.168 3245.81,-248.964"/>
<polygon fill="grey" stroke="grey" points="3246.77,-252.347 3255.98,-247.107 3245.51,-245.46 3246.77,-252.347"/>
</g>
<!-- test1 -->
<g id="node21" class="node"><title>test1</title>
<ellipse fill="none" stroke="blue" cx="1396" cy="-234" rx="287.049" ry="18"/>
<text text-anchor="middle" x="1396" y="-230.3" font-family="Times,serif" font-size="14.00">&#39;(&#39; &#39;the&#39; &#39;$::first&#39; /te+st/ is _alternation_1_of_production_1_of_rule_test1(s?) &#160;</text>
</g>
<!-- Grammar&#45;&gt;test1 -->
<g id="edge26" class="edge"><title>Grammar&#45;&gt;test1</title>
<path fill="none" stroke="grey" d="M1267.72,-291.834C1290.41,-281.781 1322.13,-267.727 1348.35,-256.11"/>
<polygon fill="grey" stroke="grey" points="1350.01,-259.203 1357.74,-251.953 1347.17,-252.803 1350.01,-259.203"/>
</g>
<!-- test4 -->
<g id="node22" class="node"><title>test4</title>
<ellipse fill="none" stroke="blue" cx="61" cy="-234" rx="39.7935" ry="18"/>
<text text-anchor="middle" x="61" y="-230.3" font-family="Times,serif" font-size="14.00">&#39;a&#39; b /c/ &#160;</text>
</g>
<!-- Grammar&#45;&gt;test4 -->
<g id="edge32" class="edge"><title>Grammar&#45;&gt;test4</title>
<path fill="none" stroke="grey" d="M1191.11,-304.395C1006.13,-301.76 326.741,-289.673 115,-252 110.289,-251.162 105.416,-250.027 100.614,-248.74"/>
<polygon fill="grey" stroke="grey" points="101.51,-245.356 90.931,-245.928 99.5583,-252.078 101.51,-245.356"/>
</g>
<!-- dog -->
<g id="node23" class="node"><title>dog</title>
<ellipse fill="none" stroke="blue" cx="3432" cy="-234" rx="31.3957" ry="18"/>
<text text-anchor="middle" x="3432" y="-230.3" font-family="Times,serif" font-size="14.00">&#39;dog&#39; &#160;</text>
</g>
<!-- Grammar&#45;&gt;dog -->
<g id="edge33" class="edge"><title>Grammar&#45;&gt;dog</title>
<path fill="none" stroke="grey" d="M1285.17,-304.902C1581.46,-304.144 3179.84,-297.939 3392,-252 3394.52,-251.455 3397.07,-250.753 3399.61,-249.946"/>
<polygon fill="grey" stroke="grey" points="3401.04,-253.152 3409.22,-246.421 3398.63,-246.58 3401.04,-253.152"/>
</g>
<!-- test3&#45;&gt;_alternation_1_of_production_1_of_rule_test3 -->
<g id="edge2" class="edge"><title>test3&#45;&gt;_alternation_1_of_production_1_of_rule_test3</title>
<path fill="none" stroke="grey" d="M428.393,-215.697C422.403,-207.474 415.124,-197.483 408.521,-188.421"/>
<polygon fill="grey" stroke="grey" points="411.179,-186.126 402.462,-180.104 405.522,-190.248 411.179,-186.126"/>
</g>
<!-- _alternation_1_of_production_1_of_rule_test3&#45;&gt;fail -->
<g id="edge29" class="edge"><title>_alternation_1_of_production_1_of_rule_test3&#45;&gt;fail</title>
<path fill="none" stroke="grey" d="M352.887,-146.155C321.518,-133.607 277.042,-115.817 247.164,-103.866"/>
<polygon fill="grey" stroke="grey" points="248.216,-100.517 237.632,-100.053 245.617,-107.016 248.216,-100.517"/>
</g>
<!-- _alternation_1_of_production_1_of_rule_test3&#45;&gt;defn -->
<g id="edge27" class="edge"><title>_alternation_1_of_production_1_of_rule_test3&#45;&gt;defn</title>
<path fill="none" stroke="grey" d="M434.381,-147.254C469.428,-136.398 518.648,-121.153 557.01,-109.271"/>
<polygon fill="grey" stroke="grey" points="558.5,-112.474 567.016,-106.172 556.428,-105.787 558.5,-112.474"/>
</g>
<!-- _alternation_1_of_production_1_of_rule_test3&#45;&gt;typedef -->
<g id="edge28" class="edge"><title>_alternation_1_of_production_1_of_rule_test3&#45;&gt;typedef</title>
<path fill="none" stroke="grey" d="M390,-143.697C390,-135.983 390,-126.712 390,-118.112"/>
<polygon fill="grey" stroke="grey" points="393.5,-118.104 390,-108.104 386.5,-118.104 393.5,-118.104"/>
</g>
<!-- defn&#45;&gt;typename -->
<g id="edge11" class="edge"><title>defn&#45;&gt;typename</title>
<path fill="none" stroke="grey" d="M537.646,-77.4556C524.42,-75.5804 510.824,-73.6981 498,-72 365.747,-54.4872 328.378,-72.2851 200,-36 198.061,-35.452 196.096,-34.8154 194.133,-34.1165"/>
<polygon fill="grey" stroke="grey" points="195.069,-30.7201 184.485,-30.2274 192.451,-37.2124 195.069,-30.7201"/>
</g>
<!-- defn&#45;&gt;id -->
<g id="edge10" class="edge"><title>defn&#45;&gt;id</title>
<path fill="none" stroke="grey" d="M640.41,-72.411C653.836,-63.2859 670.698,-51.8267 685.356,-41.8646"/>
<polygon fill="grey" stroke="grey" points="687.387,-44.7167 693.69,-36.201 683.452,-38.9271 687.387,-44.7167"/>
</g>
<!-- test5&#45;&gt;name -->
<g id="edge15" class="edge"><title>test5&#45;&gt;name</title>
<path fill="none" stroke="grey" d="M2677.74,-216.588C2660.89,-206.058 2638.99,-192.366 2621.53,-181.458"/>
<polygon fill="grey" stroke="grey" points="2623.2,-178.371 2612.86,-176.039 2619.49,-184.307 2623.2,-178.371"/>
</g>
<!-- test5&#45;&gt;notname -->
<g id="edge16" class="edge"><title>test5&#45;&gt;notname</title>
<path fill="none" stroke="grey" d="M2718.52,-216.055C2725.89,-207.457 2734.98,-196.857 2743.09,-187.397"/>
<polygon fill="grey" stroke="grey" points="2745.76,-189.659 2749.61,-179.789 2740.44,-185.104 2745.76,-189.659"/>
</g>
<!-- typedef&#45;&gt;typename -->
<g id="edge20" class="edge"><title>typedef&#45;&gt;typename</title>
<path fill="none" stroke="grey" d="M331.877,-75.3359C293.87,-65.7804 243.407,-51.9118 200,-36 198.158,-35.3248 196.281,-34.5963 194.397,-33.8339"/>
<polygon fill="grey" stroke="grey" points="195.635,-30.5563 185.065,-29.8298 192.875,-36.9892 195.635,-30.5563"/>
</g>
<!-- typedef&#45;&gt;id -->
<g id="edge19" class="edge"><title>typedef&#45;&gt;id</title>
<path fill="none" stroke="grey" d="M451.882,-75.8335C502.103,-65.1483 573.569,-49.9428 629.945,-37.948"/>
<polygon fill="grey" stroke="grey" points="630.876,-41.3283 639.928,-35.8238 629.419,-34.4816 630.876,-41.3283"/>
</g>
<!-- test1&#45;&gt;is -->
<g id="edge24" class="edge"><title>test1&#45;&gt;is</title>
<path fill="none" stroke="grey" d="M1346.9,-216.233C1312.22,-204.394 1266.24,-188.692 1233.21,-177.414"/>
<polygon fill="grey" stroke="grey" points="1234,-173.985 1223.41,-174.065 1231.74,-180.609 1234,-173.985"/>
</g>
<!-- test1&#45;&gt;_alternation_1_of_production_1_of_rule_test1 -->
<g id="edge25" class="edge"><title>test1&#45;&gt;_alternation_1_of_production_1_of_rule_test1</title>
<path fill="none" stroke="grey" d="M1434.01,-216.055C1459.64,-204.624 1493.22,-189.656 1518.16,-178.533"/>
<polygon fill="grey" stroke="grey" points="1519.89,-181.593 1527.6,-174.325 1517.04,-175.2 1519.89,-181.593"/>
</g>
<!-- test4&#45;&gt;b -->
<g id="edge31" class="edge"><title>test4&#45;&gt;b</title>
<path fill="none" stroke="grey" d="M52.7695,-216.055C48.7437,-207.767 43.8144,-197.618 39.3489,-188.424"/>
<polygon fill="grey" stroke="grey" points="42.4379,-186.773 34.9205,-179.307 36.1414,-189.831 42.4379,-186.773"/>
</g>
</g>
</svg>
