<?xml version="1.0" encoding="UTF-8" standalone="no"?>
<!DOCTYPE svg PUBLIC "-//W3C//DTD SVG 1.1//EN"
 "http://www.w3.org/Graphics/SVG/1.1/DTD/svg11.dtd">
<!-- Generated by graphviz version 2.38.0 (20140413.2041)
 -->
<!-- Title: Perl Pages: 1 -->
<svg width="232pt" height="476pt"
 viewBox="0.00 0.00 231.69 476.00" xmlns="http://www.w3.org/2000/svg" xmlns:xlink="http://www.w3.org/1999/xlink">
<g id="graph0" class="graph" transform="scale(1 1) rotate(0) translate(4 472)">
<title>Perl</title>
<polygon fill="white" stroke="none" points="-4,4 -4,-472 227.691,-472 227.691,4 -4,4"/>
<!-- 1 -->
<g id="node1" class="node"><title>1</title>
<ellipse fill="none" stroke="blue" cx="111.345" cy="-450" rx="51.1914" ry="18"/>
<text text-anchor="middle" x="111.345" y="-446.3" font-family="Times,serif" font-size="14.00">START $1</text>
</g>
<!-- 3 -->
<g id="node2" class="node"><title>3</title>
<polygon fill="none" stroke="blue" points="111.345,-396 84.3454,-378 111.345,-360 138.345,-378 111.345,-396"/>
</g>
<!-- 1&#45;&gt;3 -->
<g id="edge1" class="edge"><title>1&#45;&gt;3</title>
<path fill="none" stroke="grey" d="M111.345,-431.697C111.345,-423.983 111.345,-414.712 111.345,-406.112"/>
<polygon fill="grey" stroke="grey" points="114.846,-406.104 111.345,-396.104 107.846,-406.104 114.846,-406.104"/>
</g>
<!-- 4 -->
<g id="node3" class="node"><title>4</title>
<ellipse fill="none" stroke="blue" cx="51.3454" cy="-306" rx="51.1914" ry="18"/>
<text text-anchor="middle" x="51.3454" y="-302.3" font-family="Times,serif" font-size="14.00">START $2</text>
</g>
<!-- 3&#45;&gt;4 -->
<g id="edge2" class="edge"><title>3&#45;&gt;4</title>
<path fill="none" stroke="grey" d="M101.97,-366.062C93.9902,-356.752 82.2362,-343.039 72.0623,-331.17"/>
<polygon fill="grey" stroke="grey" points="74.5024,-328.638 65.3371,-323.324 69.1876,-333.194 74.5024,-328.638"/>
</g>
<!-- 20 -->
<g id="node4" class="node"><title>20</title>
<ellipse fill="none" stroke="blue" cx="172.345" cy="-306" rx="51.1914" ry="18"/>
<text text-anchor="middle" x="172.345" y="-302.3" font-family="Times,serif" font-size="14.00">START $3</text>
</g>
<!-- 3&#45;&gt;20 -->
<g id="edge3" class="edge"><title>3&#45;&gt;20</title>
<path fill="none" stroke="grey" d="M120.877,-366.062C128.99,-356.752 140.94,-343.039 151.283,-331.17"/>
<polygon fill="grey" stroke="grey" points="154.19,-333.162 158.121,-323.324 148.912,-328.563 154.19,-333.162"/>
</g>
<!-- 6 -->
<g id="node9" class="node"><title>6</title>
<polygon fill="none" stroke="blue" points="93.8454,-252 32.8454,-252 32.8454,-216 93.8454,-216 93.8454,-252"/>
<text text-anchor="middle" x="63.3454" y="-230.3" font-family="Times,serif" font-size="14.00">[0&#45;9a&#45;d]</text>
</g>
<!-- 4&#45;&gt;6 -->
<g id="edge8" class="edge"><title>4&#45;&gt;6</title>
<path fill="none" stroke="grey" d="M54.3117,-287.697C55.6341,-279.983 57.2233,-270.712 58.6976,-262.112"/>
<polygon fill="grey" stroke="grey" points="62.1732,-262.552 60.4133,-252.104 55.2739,-261.369 62.1732,-262.552"/>
</g>
<!-- 22 -->
<g id="node5" class="node"><title>22</title>
<polygon fill="none" stroke="blue" points="197.345,-252 143.345,-252 143.345,-216 197.345,-216 197.345,-252"/>
<text text-anchor="middle" x="170.345" y="-230.3" font-family="Times,serif" font-size="14.00">foo</text>
</g>
<!-- 20&#45;&gt;22 -->
<g id="edge4" class="edge"><title>20&#45;&gt;22</title>
<path fill="none" stroke="grey" d="M171.851,-287.697C171.631,-279.983 171.366,-270.712 171.12,-262.112"/>
<polygon fill="grey" stroke="grey" points="174.618,-262 170.834,-252.104 167.621,-262.2 174.618,-262"/>
</g>
<!-- 24 -->
<g id="node6" class="node"><title>24</title>
<ellipse fill="none" stroke="blue" cx="169.345" cy="-162" rx="39.7935" ry="18"/>
<text text-anchor="middle" x="169.345" y="-158.3" font-family="Times,serif" font-size="14.00">END $3</text>
</g>
<!-- 22&#45;&gt;24 -->
<g id="edge5" class="edge"><title>22&#45;&gt;24</title>
<path fill="none" stroke="grey" d="M170.098,-215.697C169.988,-207.983 169.856,-198.712 169.733,-190.112"/>
<polygon fill="grey" stroke="grey" points="173.232,-190.053 169.59,-180.104 166.233,-190.153 173.232,-190.053"/>
</g>
<!-- 26 -->
<g id="node7" class="node"><title>26</title>
<ellipse fill="none" stroke="blue" cx="119.345" cy="-90" rx="39.7935" ry="18"/>
<text text-anchor="middle" x="119.345" y="-86.3" font-family="Times,serif" font-size="14.00">END $1</text>
</g>
<!-- 24&#45;&gt;26 -->
<g id="edge6" class="edge"><title>24&#45;&gt;26</title>
<path fill="none" stroke="grey" d="M157.749,-144.765C151.653,-136.23 144.047,-125.582 137.216,-116.019"/>
<polygon fill="grey" stroke="grey" points="139.887,-113.736 131.226,-107.633 134.191,-117.805 139.887,-113.736"/>
</g>
<!-- 28 -->
<g id="node8" class="node"><title>28</title>
<ellipse fill="none" stroke="blue" cx="119.345" cy="-18" rx="28.6953" ry="18"/>
<text text-anchor="middle" x="119.345" y="-14.3" font-family="Times,serif" font-size="14.00">END</text>
</g>
<!-- 26&#45;&gt;28 -->
<g id="edge7" class="edge"><title>26&#45;&gt;28</title>
<path fill="none" stroke="grey" d="M119.345,-71.6966C119.345,-63.9827 119.345,-54.7125 119.345,-46.1124"/>
<polygon fill="grey" stroke="grey" points="122.846,-46.1043 119.345,-36.1043 115.846,-46.1044 122.846,-46.1043"/>
</g>
<!-- 17 -->
<g id="node10" class="node"><title>17</title>
<ellipse fill="none" stroke="blue" cx="69.3454" cy="-162" rx="39.7935" ry="18"/>
<text text-anchor="middle" x="69.3454" y="-158.3" font-family="Times,serif" font-size="14.00">END $2</text>
</g>
<!-- 6&#45;&gt;17 -->
<g id="edge9" class="edge"><title>6&#45;&gt;17</title>
<path fill="none" stroke="grey" d="M64.8286,-215.697C65.4898,-207.983 66.2844,-198.712 67.0215,-190.112"/>
<polygon fill="grey" stroke="grey" points="70.5125,-190.367 67.8794,-180.104 63.538,-189.769 70.5125,-190.367"/>
</g>
<!-- 17&#45;&gt;26 -->
<g id="edge10" class="edge"><title>17&#45;&gt;26</title>
<path fill="none" stroke="grey" d="M80.9421,-144.765C87.0382,-136.23 94.6439,-125.582 101.475,-116.019"/>
<polygon fill="grey" stroke="grey" points="104.5,-117.805 107.464,-107.633 98.8039,-113.736 104.5,-117.805"/>
</g>
</g>
</svg>
