<?xml version="1.0" encoding="UTF-8" standalone="no"?>
<!DOCTYPE svg PUBLIC "-//W3C//DTD SVG 1.1//EN"
 "http://www.w3.org/Graphics/SVG/1.1/DTD/svg11.dtd">
<!-- Generated by graphviz version 2.38.0 (20140413.2041)
 -->
<!-- Title: Perl Pages: 1 -->
<svg width="271pt" height="79pt"
 viewBox="0.00 0.00 271.00 79.38" xmlns="http://www.w3.org/2000/svg" xmlns:xlink="http://www.w3.org/1999/xlink">
<g id="graph0" class="graph" transform="scale(1 1) rotate(0) translate(4 75.3831)">
<title>Perl</title>
<polygon fill="white" stroke="none" points="-4,4 -4,-75.3831 267,-75.3831 267,4 -4,4"/>
<!-- foo -->
<g id="node1" class="node"><title>foo</title>
<ellipse fill="none" stroke="green" cx="27" cy="-20.3831" rx="27" ry="18"/>
<text text-anchor="middle" x="27" y="-16.6831" font-family="Times,serif" font-size="14.00">foo</text>
</g>
<!-- foo&#45;&gt;foo -->
<g id="edge1" class="edge"><title>foo&#45;&gt;foo</title>
<path fill="none" stroke="grey" d="M17.7856,-37.4204C15.9051,-47.241 18.9766,-56.3831 27,-56.3831 32.0146,-56.3831 35.0949,-52.812 36.2409,-47.736"/>
<polygon fill="grey" stroke="grey" points="39.7401,-47.4114 36.2144,-37.4204 32.7402,-47.4294 39.7401,-47.4114"/>
<text text-anchor="middle" x="27" y="-60.1831" font-family="Times,serif" font-size="14.00">/./</text>
</g>
<!-- bar -->
<g id="node2" class="node"><title>bar</title>
<ellipse fill="none" stroke="green" cx="132" cy="-20.3831" rx="27" ry="18"/>
<text text-anchor="middle" x="132" y="-16.6831" font-family="Times,serif" font-size="14.00">bar</text>
</g>
<!-- foo&#45;&gt;bar -->
<g id="edge2" class="edge"><title>foo&#45;&gt;bar</title>
<path fill="none" stroke="grey" d="M54.2578,-20.3831C66.4855,-20.3831 81.2356,-20.3831 94.5233,-20.3831"/>
<polygon fill="grey" stroke="grey" points="94.7902,-23.8832 104.79,-20.3831 94.7902,-16.8832 94.7902,-23.8832"/>
<text text-anchor="middle" x="79.5" y="-24.1831" font-family="Times,serif" font-size="14.00">/b/</text>
</g>
<!-- bar&#45;&gt;foo -->
<g id="edge5" class="edge"><title>bar&#45;&gt;foo</title>
<path fill="none" stroke="grey" d="M111.35,-8.66458C100.009,-3.27135 85.3837,1.38311 72,-1.38311 67.4776,-2.31782 62.8481,-3.74027 58.3704,-5.39503"/>
<polygon fill="grey" stroke="grey" points="56.8256,-2.24594 48.9111,-9.28951 59.4906,-8.71881 56.8256,-2.24594"/>
<text text-anchor="middle" x="79.5" y="-5.18311" font-family="Times,serif" font-size="14.00">/a/</text>
</g>
<!-- bar&#45;&gt;bar -->
<g id="edge4" class="edge"><title>bar&#45;&gt;bar</title>
<path fill="none" stroke="grey" d="M122.786,-37.4204C120.905,-47.241 123.977,-56.3831 132,-56.3831 137.015,-56.3831 140.095,-52.812 141.241,-47.736"/>
<polygon fill="grey" stroke="grey" points="144.74,-47.4114 141.214,-37.4204 137.74,-47.4294 144.74,-47.4114"/>
<text text-anchor="middle" x="132" y="-60.1831" font-family="Times,serif" font-size="14.00">/b/</text>
</g>
<!-- baz -->
<g id="node3" class="node"><title>baz</title>
<ellipse fill="none" stroke="green" cx="236" cy="-20.3831" rx="27" ry="18"/>
<text text-anchor="middle" x="236" y="-16.6831" font-family="Times,serif" font-size="14.00">baz</text>
</g>
<!-- bar&#45;&gt;baz -->
<g id="edge3" class="edge"><title>bar&#45;&gt;baz</title>
<path fill="none" stroke="grey" d="M159.003,-20.3831C171.019,-20.3831 185.494,-20.3831 198.574,-20.3831"/>
<polygon fill="grey" stroke="grey" points="198.69,-23.8832 208.69,-20.3831 198.69,-16.8832 198.69,-23.8832"/>
<text text-anchor="middle" x="184" y="-24.1831" font-family="Times,serif" font-size="14.00">/c/</text>
</g>
<!-- baz&#45;&gt;baz -->
<g id="edge6" class="edge"><title>baz&#45;&gt;baz</title>
<path fill="none" stroke="grey" d="M226.786,-37.4204C224.905,-47.241 227.977,-56.3831 236,-56.3831 241.015,-56.3831 244.095,-52.812 245.241,-47.736"/>
<polygon fill="grey" stroke="grey" points="248.74,-47.4114 245.214,-37.4204 241.74,-47.4294 248.74,-47.4114"/>
<text text-anchor="middle" x="236" y="-60.1831" font-family="Times,serif" font-size="14.00">/./</text>
</g>
</g>
</svg>
