<?xml version="1.0" encoding="UTF-8" standalone="no"?>
<!DOCTYPE svg PUBLIC "-//W3C//DTD SVG 1.1//EN"
 "http://www.w3.org/Graphics/SVG/1.1/DTD/svg11.dtd">
<!-- Generated by graphviz version 2.38.0 (20140413.2041)
 -->
<!-- Title: Perl Pages: 1 -->
<svg width="586pt" height="332pt"
 viewBox="0.00 0.00 585.84 332.00" xmlns="http://www.w3.org/2000/svg" xmlns:xlink="http://www.w3.org/1999/xlink">
<g id="graph0" class="graph" transform="scale(1 1) rotate(0) translate(4 328)">
<title>Perl</title>
<polygon fill="white" stroke="none" points="-4,4 -4,-328 581.841,-328 581.841,4 -4,4"/>
<!-- person -->
<g id="node1" class="node"><title>person</title>
<ellipse fill="none" stroke="blue" cx="239.595" cy="-306" rx="35.194" ry="18"/>
<text text-anchor="middle" x="239.595" y="-302.3" font-family="Times,serif" font-size="14.00">person</text>
</g>
<!-- name -->
<g id="node2" class="node"><title>name</title>
<ellipse fill="none" stroke="blue" cx="169.595" cy="-234" rx="30.5947" ry="18"/>
<text text-anchor="middle" x="169.595" y="-230.3" font-family="Times,serif" font-size="14.00">name</text>
</g>
<!-- person&#45;&gt;name -->
<g id="edge1" class="edge"><title>person&#45;&gt;name</title>
<path fill="none" stroke="grey" d="M224.06,-289.465C214.596,-280.001 202.347,-267.752 191.864,-257.268"/>
<polygon fill="grey" stroke="grey" points="194.153,-254.608 184.607,-250.011 189.203,-259.557 194.153,-254.608"/>
</g>
<!-- address -->
<g id="node7" class="node"><title>address</title>
<ellipse fill="none" stroke="blue" cx="310.595" cy="-234" rx="37.8943" ry="18"/>
<text text-anchor="middle" x="310.595" y="-230.3" font-family="Times,serif" font-size="14.00">address</text>
</g>
<!-- person&#45;&gt;address -->
<g id="edge6" class="edge"><title>person&#45;&gt;address</title>
<path fill="none" stroke="grey" d="M255.001,-289.811C264.453,-280.492 276.738,-268.38 287.356,-257.912"/>
<polygon fill="grey" stroke="grey" points="290.064,-260.157 294.728,-250.644 285.149,-255.172 290.064,-260.157"/>
</g>
<!-- given_name -->
<g id="node3" class="node"><title>given_name</title>
<ellipse fill="none" stroke="blue" cx="54.5952" cy="-162" rx="54.6905" ry="18"/>
<text text-anchor="middle" x="54.5952" y="-158.3" font-family="Times,serif" font-size="14.00">given_name</text>
</g>
<!-- name&#45;&gt;given_name -->
<g id="edge2" class="edge"><title>name&#45;&gt;given_name</title>
<path fill="none" stroke="grey" d="M149.035,-220.485C132.116,-210.187 107.796,-195.383 88.0733,-183.378"/>
<polygon fill="grey" stroke="grey" points="89.74,-180.295 79.3781,-178.085 86.1003,-186.275 89.74,-180.295"/>
</g>
<!-- surname -->
<g id="node5" class="node"><title>surname</title>
<ellipse fill="none" stroke="blue" cx="169.595" cy="-162" rx="42.4939" ry="18"/>
<text text-anchor="middle" x="169.595" y="-158.3" font-family="Times,serif" font-size="14.00">surname</text>
</g>
<!-- name&#45;&gt;surname -->
<g id="edge4" class="edge"><title>name&#45;&gt;surname</title>
<path fill="none" stroke="grey" d="M169.595,-215.697C169.595,-207.983 169.595,-198.712 169.595,-190.112"/>
<polygon fill="grey" stroke="grey" points="173.095,-190.104 169.595,-180.104 166.095,-190.104 173.095,-190.104"/>
</g>
<!-- Ron -->
<g id="node4" class="node"><title>Ron</title>
<polygon fill="none" stroke="blue" points="81.5952,-108 27.5952,-108 27.5952,-72 81.5952,-72 81.5952,-108"/>
<text text-anchor="middle" x="54.5952" y="-86.3" font-family="Times,serif" font-size="14.00">Ron</text>
</g>
<!-- given_name&#45;&gt;Ron -->
<g id="edge3" class="edge"><title>given_name&#45;&gt;Ron</title>
<path fill="none" stroke="grey" d="M54.5952,-143.697C54.5952,-135.983 54.5952,-126.712 54.5952,-118.112"/>
<polygon fill="grey" stroke="grey" points="58.0953,-118.104 54.5952,-108.104 51.0953,-118.104 58.0953,-118.104"/>
</g>
<!-- Savage -->
<g id="node6" class="node"><title>Savage</title>
<polygon fill="none" stroke="blue" points="197.095,-108 142.095,-108 142.095,-72 197.095,-72 197.095,-108"/>
<text text-anchor="middle" x="169.595" y="-86.3" font-family="Times,serif" font-size="14.00">Savage</text>
</g>
<!-- surname&#45;&gt;Savage -->
<g id="edge5" class="edge"><title>surname&#45;&gt;Savage</title>
<path fill="none" stroke="grey" d="M169.595,-143.697C169.595,-135.983 169.595,-126.712 169.595,-118.112"/>
<polygon fill="grey" stroke="grey" points="173.095,-118.104 169.595,-108.104 166.095,-118.104 173.095,-118.104"/>
</g>
<!-- country -->
<g id="node8" class="node"><title>country</title>
<ellipse fill="none" stroke="blue" cx="268.595" cy="-162" rx="38.1938" ry="18"/>
<text text-anchor="middle" x="268.595" y="-158.3" font-family="Times,serif" font-size="14.00">country</text>
</g>
<!-- address&#45;&gt;country -->
<g id="edge7" class="edge"><title>address&#45;&gt;country</title>
<path fill="none" stroke="grey" d="M300.642,-216.411C295.568,-207.955 289.292,-197.494 283.642,-188.078"/>
<polygon fill="grey" stroke="grey" points="286.623,-186.244 278.477,-179.47 280.621,-189.846 286.623,-186.244"/>
</g>
<!-- state -->
<g id="node10" class="node"><title>state</title>
<ellipse fill="none" stroke="blue" cx="352.595" cy="-162" rx="27.8951" ry="18"/>
<text text-anchor="middle" x="352.595" y="-158.3" font-family="Times,serif" font-size="14.00">state</text>
</g>
<!-- address&#45;&gt;state -->
<g id="edge9" class="edge"><title>address&#45;&gt;state</title>
<path fill="none" stroke="grey" d="M320.549,-216.411C325.696,-207.832 332.081,-197.191 337.793,-187.67"/>
<polygon fill="grey" stroke="grey" points="340.859,-189.364 343.002,-178.988 334.856,-185.762 340.859,-189.364"/>
</g>
<!-- city -->
<g id="node12" class="node"><title>city</title>
<ellipse fill="none" stroke="blue" cx="438.595" cy="-162" rx="27" ry="18"/>
<text text-anchor="middle" x="438.595" y="-158.3" font-family="Times,serif" font-size="14.00">city</text>
</g>
<!-- address&#45;&gt;city -->
<g id="edge11" class="edge"><title>address&#45;&gt;city</title>
<path fill="none" stroke="grey" d="M334.371,-219.998C355.594,-208.391 386.743,-191.357 409.458,-178.934"/>
<polygon fill="grey" stroke="grey" points="411.224,-181.958 418.319,-174.089 407.866,-175.816 411.224,-181.958"/>
</g>
<!-- Australia -->
<g id="node9" class="node"><title>Australia</title>
<polygon fill="none" stroke="blue" points="303.095,-108 234.095,-108 234.095,-72 303.095,-72 303.095,-108"/>
<text text-anchor="middle" x="268.595" y="-86.3" font-family="Times,serif" font-size="14.00">Australia</text>
</g>
<!-- country&#45;&gt;Australia -->
<g id="edge8" class="edge"><title>country&#45;&gt;Australia</title>
<path fill="none" stroke="grey" d="M268.595,-143.697C268.595,-135.983 268.595,-126.712 268.595,-118.112"/>
<polygon fill="grey" stroke="grey" points="272.095,-118.104 268.595,-108.104 265.095,-118.104 272.095,-118.104"/>
</g>
<!-- Victoria -->
<g id="node11" class="node"><title>Victoria</title>
<polygon fill="none" stroke="blue" points="383.595,-108 321.595,-108 321.595,-72 383.595,-72 383.595,-108"/>
<text text-anchor="middle" x="352.595" y="-86.3" font-family="Times,serif" font-size="14.00">Victoria</text>
</g>
<!-- state&#45;&gt;Victoria -->
<g id="edge10" class="edge"><title>state&#45;&gt;Victoria</title>
<path fill="none" stroke="grey" d="M352.595,-143.697C352.595,-135.983 352.595,-126.712 352.595,-118.112"/>
<polygon fill="grey" stroke="grey" points="356.095,-118.104 352.595,-108.104 349.095,-118.104 356.095,-118.104"/>
</g>
<!-- locality -->
<g id="node13" class="node"><title>locality</title>
<ellipse fill="none" stroke="blue" cx="438.595" cy="-90" rx="37.0935" ry="18"/>
<text text-anchor="middle" x="438.595" y="-86.3" font-family="Times,serif" font-size="14.00">locality</text>
</g>
<!-- city&#45;&gt;locality -->
<g id="edge12" class="edge"><title>city&#45;&gt;locality</title>
<path fill="none" stroke="grey" d="M438.595,-143.697C438.595,-135.983 438.595,-126.712 438.595,-118.112"/>
<polygon fill="grey" stroke="grey" points="442.095,-118.104 438.595,-108.104 435.095,-118.104 442.095,-118.104"/>
</g>
<!-- postcode -->
<g id="node15" class="node"><title>postcode</title>
<ellipse fill="none" stroke="blue" cx="535.595" cy="-90" rx="42.4939" ry="18"/>
<text text-anchor="middle" x="535.595" y="-86.3" font-family="Times,serif" font-size="14.00">postcode</text>
</g>
<!-- city&#45;&gt;postcode -->
<g id="edge14" class="edge"><title>city&#45;&gt;postcode</title>
<path fill="none" stroke="grey" d="M456.386,-148.161C470.452,-138.01 490.372,-123.636 506.716,-111.841"/>
<polygon fill="grey" stroke="grey" points="508.826,-114.634 514.887,-105.944 504.729,-108.958 508.826,-114.634"/>
</g>
<!-- Murrumbeena -->
<g id="node14" class="node"><title>Murrumbeena</title>
<polygon fill="none" stroke="blue" points="486.595,-36 390.595,-36 390.595,-0 486.595,-0 486.595,-36"/>
<text text-anchor="middle" x="438.595" y="-14.3" font-family="Times,serif" font-size="14.00">Murrumbeena</text>
</g>
<!-- locality&#45;&gt;Murrumbeena -->
<g id="edge13" class="edge"><title>locality&#45;&gt;Murrumbeena</title>
<path fill="none" stroke="grey" d="M438.595,-71.6966C438.595,-63.9827 438.595,-54.7125 438.595,-46.1124"/>
<polygon fill="grey" stroke="grey" points="442.095,-46.1043 438.595,-36.1043 435.095,-46.1044 442.095,-46.1043"/>
</g>
<!-- 3163 -->
<g id="node16" class="node"><title>3163</title>
<polygon fill="none" stroke="blue" points="562.595,-36 508.595,-36 508.595,-0 562.595,-0 562.595,-36"/>
<text text-anchor="middle" x="535.595" y="-14.3" font-family="Times,serif" font-size="14.00">3163</text>
</g>
<!-- postcode&#45;&gt;3163 -->
<g id="edge15" class="edge"><title>postcode&#45;&gt;3163</title>
<path fill="none" stroke="grey" d="M535.595,-71.6966C535.595,-63.9827 535.595,-54.7125 535.595,-46.1124"/>
<polygon fill="grey" stroke="grey" points="539.095,-46.1043 535.595,-36.1043 532.095,-46.1044 539.095,-46.1043"/>
</g>
</g>
</svg>
