<?xml version="1.0" encoding="UTF-8" standalone="no"?>
<!DOCTYPE svg PUBLIC "-//W3C//DTD SVG 1.1//EN"
 "http://www.w3.org/Graphics/SVG/1.1/DTD/svg11.dtd">
<!-- Generated by graphviz version 2.38.0 (20140413.2041)
 -->
<!-- Title: Perl Pages: 1 -->
<svg width="527pt" height="708pt"
 viewBox="0.00 0.00 526.50 708.00" xmlns="http://www.w3.org/2000/svg" xmlns:xlink="http://www.w3.org/1999/xlink">
<g id="graph0" class="graph" transform="scale(1 1) rotate(0) translate(4 704)">
<title>Perl</title>
<polygon fill="white" stroke="none" points="-4,4 -4,-704 522.5,-704 522.5,4 -4,4"/>
<!-- 0 -->
<g id="node1" class="node"><title>0</title>
<polygon fill="none" stroke="green" points="276.263,-670.544 276.263,-685.456 259.707,-696 236.293,-696 219.737,-685.456 219.737,-670.544 236.293,-660 259.707,-660 276.263,-670.544"/>
<polygon fill="none" stroke="green" points="280.28,-668.354 280.28,-687.646 260.882,-700 235.118,-700 215.72,-687.646 215.72,-668.354 235.118,-656 260.882,-656 280.28,-668.354"/>
<text text-anchor="middle" x="248" y="-674.3" font-family="Times,serif" font-size="14.00">%$s</text>
</g>
<!-- 0_kids -->
<g id="node2" class="node"><title>0_kids</title>
<path fill="none" stroke="grey" d="M219,-583.5C219,-583.5 281,-583.5 281,-583.5 287,-583.5 293,-589.5 293,-595.5 293,-595.5 293,-607.5 293,-607.5 293,-613.5 287,-619.5 281,-619.5 281,-619.5 219,-619.5 219,-619.5 213,-619.5 207,-613.5 207,-607.5 207,-607.5 207,-595.5 207,-595.5 207,-589.5 213,-583.5 219,-583.5"/>
<text text-anchor="middle" x="221" y="-597.8" font-family="Times,serif" font-size="14.00" fill="blue">A</text>
<polyline fill="none" stroke="grey" points="235,-583.5 235,-619.5 "/>
<text text-anchor="middle" x="248" y="-597.8" font-family="Times,serif" font-size="14.00" fill="blue">C</text>
<polyline fill="none" stroke="grey" points="261,-583.5 261,-619.5 "/>
<text text-anchor="middle" x="277" y="-597.8" font-family="Times,serif" font-size="14.00" fill="blue">els</text>
</g>
<!-- 0&#45;&gt;0_kids -->
<g id="edge1" class="edge"><title>0&#45;&gt;0_kids:port2</title>
<path fill="none" stroke="grey" d="M248,-655.886C248,-648.163 248,-639.138 248,-630.263"/>
<polygon fill="grey" stroke="grey" points="251.5,-630 248,-620 244.5,-630 251.5,-630"/>
</g>
<!-- 0_0_kids -->
<g id="node3" class="node"><title>0_0_kids</title>
<path fill="none" stroke="grey" d="M101,-510.5C101,-510.5 131,-510.5 131,-510.5 137,-510.5 143,-516.5 143,-522.5 143,-522.5 143,-534.5 143,-534.5 143,-540.5 137,-546.5 131,-546.5 131,-546.5 101,-546.5 101,-546.5 95,-546.5 89,-540.5 89,-534.5 89,-534.5 89,-522.5 89,-522.5 89,-516.5 95,-510.5 101,-510.5"/>
<text text-anchor="middle" x="116" y="-524.8" font-family="Times,serif" font-size="14.00" fill="blue">%$A</text>
</g>
<!-- 0_kids&#45;&gt;0_0_kids -->
<g id="edge2" class="edge"><title>0_kids:port1&#45;&gt;0_0_kids:port1</title>
<path fill="none" stroke="grey" d="M206,-601.5C175.409,-601.5 149.408,-575.747 133.335,-554.834"/>
<polygon fill="grey" stroke="grey" points="136,-552.549 127.271,-546.545 130.351,-556.682 136,-552.549"/>
</g>
<!-- 0_1_kids -->
<g id="node11" class="node"><title>0_1_kids</title>
<path fill="none" stroke="grey" d="M233,-510.5C233,-510.5 263,-510.5 263,-510.5 269,-510.5 275,-516.5 275,-522.5 275,-522.5 275,-534.5 275,-534.5 275,-540.5 269,-546.5 263,-546.5 263,-546.5 233,-546.5 233,-546.5 227,-546.5 221,-540.5 221,-534.5 221,-534.5 221,-522.5 221,-522.5 221,-516.5 227,-510.5 233,-510.5"/>
<text text-anchor="middle" x="248" y="-524.8" font-family="Times,serif" font-size="14.00" fill="blue">%$C</text>
</g>
<!-- 0_kids&#45;&gt;0_1_kids -->
<g id="edge12" class="edge"><title>0_kids:port2&#45;&gt;0_1_kids:port1</title>
<path fill="none" stroke="grey" d="M248,-583C248,-574.484 248,-565.22 248,-556.787"/>
<polygon fill="grey" stroke="grey" points="251.5,-556.667 248,-546.667 244.5,-556.667 251.5,-556.667"/>
</g>
<!-- 0_2_kids -->
<g id="node21" class="node"><title>0_2_kids</title>
<path fill="none" stroke="grey" d="M348,-510.5C348,-510.5 378,-510.5 378,-510.5 384,-510.5 390,-516.5 390,-522.5 390,-522.5 390,-534.5 390,-534.5 390,-540.5 384,-546.5 378,-546.5 378,-546.5 348,-546.5 348,-546.5 342,-546.5 336,-540.5 336,-534.5 336,-534.5 336,-522.5 336,-522.5 336,-516.5 342,-510.5 348,-510.5"/>
<text text-anchor="middle" x="363" y="-524.8" font-family="Times,serif" font-size="14.00" fill="blue">@$els</text>
</g>
<!-- 0_kids&#45;&gt;0_2_kids -->
<g id="edge22" class="edge"><title>0_kids:port3&#45;&gt;0_2_kids:port1</title>
<path fill="none" stroke="grey" d="M294,-601.5C320.163,-601.5 339.358,-576.43 350.767,-555.673"/>
<polygon fill="grey" stroke="grey" points="354,-557.039 355.458,-546.545 347.774,-553.839 354,-557.039"/>
</g>
<!-- 0_0_0_kids -->
<g id="node4" class="node"><title>0_0_0_kids</title>
<path fill="none" stroke="grey" d="M43,-437.5C43,-437.5 165,-437.5 165,-437.5 171,-437.5 177,-443.5 177,-449.5 177,-449.5 177,-461.5 177,-461.5 177,-467.5 171,-473.5 165,-473.5 165,-473.5 43,-473.5 43,-473.5 37,-473.5 31,-467.5 31,-461.5 31,-461.5 31,-449.5 31,-449.5 31,-443.5 37,-437.5 43,-437.5"/>
<text text-anchor="middle" x="42.5" y="-451.8" font-family="Times,serif" font-size="14.00" fill="blue">a</text>
<polyline fill="none" stroke="grey" points="54,-437.5 54,-473.5 "/>
<text text-anchor="middle" x="82.5" y="-451.8" font-family="Times,serif" font-size="14.00" fill="blue">bbbbbb</text>
<polyline fill="none" stroke="grey" points="111,-437.5 111,-473.5 "/>
<text text-anchor="middle" x="132.5" y="-451.8" font-family="Times,serif" font-size="14.00" fill="blue">c123</text>
<polyline fill="none" stroke="grey" points="154,-437.5 154,-473.5 "/>
<text text-anchor="middle" x="165.5" y="-451.8" font-family="Times,serif" font-size="14.00" fill="blue">d</text>
</g>
<!-- 0_0_kids&#45;&gt;0_0_0_kids -->
<g id="edge3" class="edge"><title>0_0_kids:port1&#45;&gt;0_0_0_kids:port2</title>
<path fill="none" stroke="grey" d="M97.4083,-510.029C91.5171,-502.73 85.8831,-493.791 83.3697,-484.195"/>
<polygon fill="grey" stroke="grey" points="86.8004,-483.445 82,-474 79.8627,-484.377 86.8004,-483.445"/>
</g>
<!-- 0_0_0_0_kids -->
<g id="node5" class="node"><title>0_0_0_0_kids</title>
<path fill="none" stroke="grey" d="M12,-364.5C12,-364.5 42,-364.5 42,-364.5 48,-364.5 54,-370.5 54,-376.5 54,-376.5 54,-388.5 54,-388.5 54,-394.5 48,-400.5 42,-400.5 42,-400.5 12,-400.5 12,-400.5 6,-400.5 0,-394.5 0,-388.5 0,-388.5 0,-376.5 0,-376.5 0,-370.5 6,-364.5 12,-364.5"/>
<text text-anchor="middle" x="27" y="-378.8" font-family="Times,serif" font-size="14.00" fill="blue">%$a</text>
</g>
<!-- 0_0_0_kids&#45;&gt;0_0_0_0_kids -->
<g id="edge4" class="edge"><title>0_0_0_kids:port1&#45;&gt;0_0_0_0_kids:port1</title>
<path fill="none" stroke="grey" d="M42,-437C42,-428.209 40.1634,-418.897 37.7755,-410.506"/>
<polygon fill="grey" stroke="grey" points="41.058,-409.279 34.6758,-400.823 34.3913,-411.414 41.058,-409.279"/>
</g>
<!-- 0_0_0_1_kids -->
<g id="node6" class="node"><title>0_0_0_1_kids</title>
<path fill="none" stroke="grey" d="M15,-291.5C15,-291.5 55,-291.5 55,-291.5 61,-291.5 67,-297.5 67,-303.5 67,-303.5 67,-315.5 67,-315.5 67,-321.5 61,-327.5 55,-327.5 55,-327.5 15,-327.5 15,-327.5 9,-327.5 3,-321.5 3,-315.5 3,-315.5 3,-303.5 3,-303.5 3,-297.5 9,-291.5 15,-291.5"/>
<text text-anchor="middle" x="35" y="-305.8" font-family="Times,serif" font-size="14.00" fill="blue">$bbbbbb</text>
</g>
<!-- 0_0_0_kids&#45;&gt;0_0_0_1_kids -->
<g id="edge5" class="edge"><title>0_0_0_kids:port2&#45;&gt;0_0_0_1_kids:port1</title>
<path fill="none" stroke="grey" d="M82,-437C82,-400.601 64.9279,-361.764 51.362,-336.649"/>
<polygon fill="grey" stroke="grey" points="54.311,-334.751 46.3774,-327.729 48.2003,-338.166 54.311,-334.751"/>
</g>
<!-- 0_0_0_2_kids -->
<g id="node8" class="node"><title>0_0_0_2_kids</title>
<path fill="none" stroke="grey" d="M97,-291.5C97,-291.5 127,-291.5 127,-291.5 133,-291.5 139,-297.5 139,-303.5 139,-303.5 139,-315.5 139,-315.5 139,-321.5 133,-327.5 127,-327.5 127,-327.5 97,-327.5 97,-327.5 91,-327.5 85,-321.5 85,-315.5 85,-315.5 85,-303.5 85,-303.5 85,-297.5 91,-291.5 97,-291.5"/>
<text text-anchor="middle" x="112" y="-305.8" font-family="Times,serif" font-size="14.00" fill="blue">$c123</text>
</g>
<!-- 0_0_0_kids&#45;&gt;0_0_0_2_kids -->
<g id="edge7" class="edge"><title>0_0_0_kids:port3&#45;&gt;0_0_0_2_kids:port1</title>
<path fill="none" stroke="grey" d="M133,-437C133,-402.298 125.333,-362.981 119.264,-337.296"/>
<polygon fill="grey" stroke="grey" points="122.645,-336.387 116.871,-327.504 115.845,-338.049 122.645,-336.387"/>
</g>
<!-- 0_0_0_3_kids -->
<g id="node9" class="node"><title>0_0_0_3_kids</title>
<path fill="none" stroke="grey" d="M197.5,-364.5C197.5,-364.5 240.5,-364.5 240.5,-364.5 246.5,-364.5 252.5,-370.5 252.5,-376.5 252.5,-376.5 252.5,-388.5 252.5,-388.5 252.5,-394.5 246.5,-400.5 240.5,-400.5 240.5,-400.5 197.5,-400.5 197.5,-400.5 191.5,-400.5 185.5,-394.5 185.5,-388.5 185.5,-388.5 185.5,-376.5 185.5,-376.5 185.5,-370.5 191.5,-364.5 197.5,-364.5"/>
<text text-anchor="middle" x="219" y="-378.8" font-family="Times,serif" font-size="14.00" fill="blue">Object: d</text>
</g>
<!-- 0_0_0_kids&#45;&gt;0_0_0_3_kids -->
<g id="edge9" class="edge"><title>0_0_0_kids:port4&#45;&gt;0_0_0_3_kids:port1</title>
<path fill="none" stroke="grey" d="M166,-437C166,-425.582 172.053,-415.656 180.068,-407.519"/>
<polygon fill="grey" stroke="grey" points="182.736,-409.829 187.863,-400.557 178.073,-404.608 182.736,-409.829"/>
</g>
<!-- &amp;CODE(0x32bcdf0) -->
<g id="node7" class="node"><title>&amp;CODE(0x32bcdf0)</title>
<ellipse fill="none" stroke="grey" cx="112" cy="-236.5" rx="86.3847" ry="18"/>
<text text-anchor="middle" x="112" y="-232.8" font-family="Times,serif" font-size="14.00" fill="red">&amp;CODE(0x32bcdf0)</text>
</g>
<!-- 0_0_0_1_kids&#45;&gt;&amp;CODE(0x32bcdf0) -->
<g id="edge6" class="edge"><title>0_0_0_1_kids:port1&#45;&gt;&amp;CODE(0x32bcdf0)</title>
<path fill="none" stroke="grey" d="M54.4304,-291.331C64.2534,-282.146 76.2922,-270.889 86.8167,-261.048"/>
<polygon fill="grey" stroke="grey" points="89.2455,-263.569 94.1593,-254.182 84.4645,-258.456 89.2455,-263.569"/>
</g>
<!-- 0_0_0_2_kids&#45;&gt;&amp;CODE(0x32bcdf0) -->
<g id="edge8" class="edge"><title>0_0_0_2_kids:port1&#45;&gt;&amp;CODE(0x32bcdf0)</title>
<path fill="none" stroke="grey" d="M112,-291.331C112,-283.394 112,-273.909 112,-265.128"/>
<polygon fill="grey" stroke="grey" points="115.5,-264.918 112,-254.918 108.5,-264.918 115.5,-264.918"/>
</g>
<!-- $REF(0x32bce68) -->
<g id="node10" class="node"><title>$REF(0x32bce68)</title>
<ellipse fill="none" stroke="grey" cx="234" cy="-309.5" rx="77.1866" ry="18"/>
<text text-anchor="middle" x="234" y="-305.8" font-family="Times,serif" font-size="14.00" fill="red">$REF(0x32bce68)</text>
</g>
<!-- 0_0_0_3_kids&#45;&gt;$REF(0x32bce68) -->
<g id="edge10" class="edge"><title>0_0_0_3_kids:port1&#45;&gt;$REF(0x32bce68)</title>
<path fill="none" stroke="grey" d="M222.785,-364.331C224.457,-356.307 226.458,-346.701 228.304,-337.839"/>
<polygon fill="grey" stroke="grey" points="231.758,-338.421 230.371,-327.918 224.905,-336.994 231.758,-338.421"/>
</g>
<!-- $REF(0x32bce68)&#45;&gt;&amp;CODE(0x32bcdf0) -->
<g id="edge11" class="edge"><title>$REF(0x32bce68)&#45;&gt;&amp;CODE(0x32bcdf0)</title>
<path fill="none" stroke="grey" d="M206.621,-292.566C189.475,-282.588 167.175,-269.61 148.53,-258.759"/>
<polygon fill="grey" stroke="grey" points="150.113,-255.631 139.71,-253.626 146.592,-261.681 150.113,-255.631"/>
</g>
<!-- 0_1_0_kids -->
<g id="node12" class="node"><title>0_1_0_kids</title>
<path fill="none" stroke="grey" d="M233,-437.5C233,-437.5 263,-437.5 263,-437.5 269,-437.5 275,-443.5 275,-449.5 275,-449.5 275,-461.5 275,-461.5 275,-467.5 269,-473.5 263,-473.5 263,-473.5 233,-473.5 233,-473.5 227,-473.5 221,-467.5 221,-461.5 221,-461.5 221,-449.5 221,-449.5 221,-443.5 227,-437.5 233,-437.5"/>
<text text-anchor="middle" x="248" y="-451.8" font-family="Times,serif" font-size="14.00" fill="blue">b</text>
</g>
<!-- 0_1_kids&#45;&gt;0_1_0_kids -->
<g id="edge13" class="edge"><title>0_1_kids:port1&#45;&gt;0_1_0_kids:port1</title>
<path fill="none" stroke="grey" d="M248,-510.455C248,-502.383 248,-492.676 248,-483.682"/>
<polygon fill="grey" stroke="grey" points="251.5,-483.59 248,-473.59 244.5,-483.59 251.5,-483.59"/>
</g>
<!-- 0_1_0_0_kids -->
<g id="node13" class="node"><title>0_1_0_0_kids</title>
<path fill="none" stroke="grey" d="M319,-364.5C319,-364.5 349,-364.5 349,-364.5 355,-364.5 361,-370.5 361,-376.5 361,-376.5 361,-388.5 361,-388.5 361,-394.5 355,-400.5 349,-400.5 349,-400.5 319,-400.5 319,-400.5 313,-400.5 307,-394.5 307,-388.5 307,-388.5 307,-376.5 307,-376.5 307,-370.5 313,-364.5 319,-364.5"/>
<text text-anchor="middle" x="334" y="-378.8" font-family="Times,serif" font-size="14.00" fill="blue">%$b</text>
</g>
<!-- 0_1_0_kids&#45;&gt;0_1_0_0_kids -->
<g id="edge14" class="edge"><title>0_1_0_kids:port1&#45;&gt;0_1_0_0_kids:port1</title>
<path fill="none" stroke="grey" d="M269.258,-437.455C280.009,-428.33 293.219,-417.116 304.897,-407.204"/>
<polygon fill="grey" stroke="grey" points="307.329,-409.73 312.688,-400.59 302.799,-404.393 307.329,-409.73"/>
</g>
<!-- 0_1_0_0_0_kids -->
<g id="node14" class="node"><title>0_1_0_0_0_kids</title>
<path fill="none" stroke="grey" d="M341,-291.5C341,-291.5 371,-291.5 371,-291.5 377,-291.5 383,-297.5 383,-303.5 383,-303.5 383,-315.5 383,-315.5 383,-321.5 377,-327.5 371,-327.5 371,-327.5 341,-327.5 341,-327.5 335,-327.5 329,-321.5 329,-315.5 329,-315.5 329,-303.5 329,-303.5 329,-297.5 335,-291.5 341,-291.5"/>
<text text-anchor="middle" x="356" y="-305.8" font-family="Times,serif" font-size="14.00" fill="blue">a</text>
</g>
<!-- 0_1_0_0_kids&#45;&gt;0_1_0_0_0_kids -->
<g id="edge15" class="edge"><title>0_1_0_0_kids:port1&#45;&gt;0_1_0_0_0_kids:port1</title>
<path fill="none" stroke="grey" d="M339.438,-364.455C341.897,-356.295 344.86,-346.465 347.595,-337.389"/>
<polygon fill="grey" stroke="grey" points="351.014,-338.175 350.548,-327.59 344.311,-336.155 351.014,-338.175"/>
</g>
<!-- 0_1_0_0_0_0_kids -->
<g id="node15" class="node"><title>0_1_0_0_0_0_kids</title>
<path fill="none" stroke="grey" d="M341,-218.5C341,-218.5 371,-218.5 371,-218.5 377,-218.5 383,-224.5 383,-230.5 383,-230.5 383,-242.5 383,-242.5 383,-248.5 377,-254.5 371,-254.5 371,-254.5 341,-254.5 341,-254.5 335,-254.5 329,-248.5 329,-242.5 329,-242.5 329,-230.5 329,-230.5 329,-224.5 335,-218.5 341,-218.5"/>
<text text-anchor="middle" x="356" y="-232.8" font-family="Times,serif" font-size="14.00" fill="blue">%$a</text>
</g>
<!-- 0_1_0_0_0_kids&#45;&gt;0_1_0_0_0_0_kids -->
<g id="edge16" class="edge"><title>0_1_0_0_0_kids:port1&#45;&gt;0_1_0_0_0_0_kids:port1</title>
<path fill="none" stroke="grey" d="M356,-291.455C356,-283.383 356,-273.676 356,-264.682"/>
<polygon fill="grey" stroke="grey" points="359.5,-264.59 356,-254.59 352.5,-264.59 359.5,-264.59"/>
</g>
<!-- 0_1_0_0_0_0_0_kids -->
<g id="node16" class="node"><title>0_1_0_0_0_0_0_kids</title>
<path fill="none" stroke="grey" d="M333.5,-145.5C333.5,-145.5 378.5,-145.5 378.5,-145.5 384.5,-145.5 390.5,-151.5 390.5,-157.5 390.5,-157.5 390.5,-169.5 390.5,-169.5 390.5,-175.5 384.5,-181.5 378.5,-181.5 378.5,-181.5 333.5,-181.5 333.5,-181.5 327.5,-181.5 321.5,-175.5 321.5,-169.5 321.5,-169.5 321.5,-157.5 321.5,-157.5 321.5,-151.5 327.5,-145.5 333.5,-145.5"/>
<text text-anchor="middle" x="333" y="-159.8" font-family="Times,serif" font-size="14.00" fill="blue">a</text>
<polyline fill="none" stroke="grey" points="344.5,-145.5 344.5,-181.5 "/>
<text text-anchor="middle" x="356" y="-159.8" font-family="Times,serif" font-size="14.00" fill="blue">b</text>
<polyline fill="none" stroke="grey" points="367.5,-145.5 367.5,-181.5 "/>
<text text-anchor="middle" x="379" y="-159.8" font-family="Times,serif" font-size="14.00" fill="blue">c</text>
</g>
<!-- 0_1_0_0_0_0_kids&#45;&gt;0_1_0_0_0_0_0_kids -->
<g id="edge17" class="edge"><title>0_1_0_0_0_0_kids:port1&#45;&gt;0_1_0_0_0_0_0_kids:port2</title>
<path fill="none" stroke="grey" d="M356,-218.333C356,-210.634 356,-201.336 356,-192.182"/>
<polygon fill="grey" stroke="grey" points="359.5,-192 356,-182 352.5,-192 359.5,-192"/>
</g>
<!-- 0_1_0_0_0_0_0_0_kids -->
<g id="node17" class="node"><title>0_1_0_0_0_0_0_0_kids</title>
<path fill="none" stroke="grey" d="M269,-72.5C269,-72.5 299,-72.5 299,-72.5 305,-72.5 311,-78.5 311,-84.5 311,-84.5 311,-96.5 311,-96.5 311,-102.5 305,-108.5 299,-108.5 299,-108.5 269,-108.5 269,-108.5 263,-108.5 257,-102.5 257,-96.5 257,-96.5 257,-84.5 257,-84.5 257,-78.5 263,-72.5 269,-72.5"/>
<text text-anchor="middle" x="284" y="-86.8" font-family="Times,serif" font-size="14.00" fill="blue">%$a</text>
</g>
<!-- 0_1_0_0_0_0_0_kids&#45;&gt;0_1_0_0_0_0_0_0_kids -->
<g id="edge18" class="edge"><title>0_1_0_0_0_0_0_kids:port1&#45;&gt;0_1_0_0_0_0_0_0_kids:port1</title>
<path fill="none" stroke="grey" d="M333,-145C333,-137.815 323.463,-126.363 312.805,-115.806"/>
<polygon fill="grey" stroke="grey" points="315.004,-113.068 305.35,-108.705 310.176,-118.136 315.004,-113.068"/>
</g>
<!-- 0_1_0_0_0_0_0_1_kids -->
<g id="node18" class="node"><title>0_1_0_0_0_0_0_1_kids</title>
<path fill="none" stroke="grey" d="M341,-72.5C341,-72.5 371,-72.5 371,-72.5 377,-72.5 383,-78.5 383,-84.5 383,-84.5 383,-96.5 383,-96.5 383,-102.5 377,-108.5 371,-108.5 371,-108.5 341,-108.5 341,-108.5 335,-108.5 329,-102.5 329,-96.5 329,-96.5 329,-84.5 329,-84.5 329,-78.5 335,-72.5 341,-72.5"/>
<text text-anchor="middle" x="356" y="-86.8" font-family="Times,serif" font-size="14.00" fill="blue">$b</text>
</g>
<!-- 0_1_0_0_0_0_0_kids&#45;&gt;0_1_0_0_0_0_0_1_kids -->
<g id="edge19" class="edge"><title>0_1_0_0_0_0_0_kids:port2&#45;&gt;0_1_0_0_0_0_0_1_kids:port1</title>
<path fill="none" stroke="grey" d="M356,-145C356,-136.484 356,-127.22 356,-118.787"/>
<polygon fill="grey" stroke="grey" points="359.5,-118.667 356,-108.667 352.5,-118.667 359.5,-118.667"/>
</g>
<!-- 0_1_0_0_0_0_0_2_kids -->
<g id="node20" class="node"><title>0_1_0_0_0_0_0_2_kids</title>
<path fill="none" stroke="grey" d="M413,-72.5C413,-72.5 443,-72.5 443,-72.5 449,-72.5 455,-78.5 455,-84.5 455,-84.5 455,-96.5 455,-96.5 455,-102.5 449,-108.5 443,-108.5 443,-108.5 413,-108.5 413,-108.5 407,-108.5 401,-102.5 401,-96.5 401,-96.5 401,-84.5 401,-84.5 401,-78.5 407,-72.5 413,-72.5"/>
<text text-anchor="middle" x="428" y="-86.8" font-family="Times,serif" font-size="14.00" fill="blue">42</text>
</g>
<!-- 0_1_0_0_0_0_0_kids&#45;&gt;0_1_0_0_0_0_0_2_kids -->
<g id="edge21" class="edge"><title>0_1_0_0_0_0_0_kids:port3&#45;&gt;0_1_0_0_0_0_0_2_kids:port1</title>
<path fill="none" stroke="grey" d="M379,-145C379,-137.815 388.537,-126.363 399.195,-115.806"/>
<polygon fill="grey" stroke="grey" points="401.824,-118.136 406.65,-108.705 396.996,-113.068 401.824,-118.136"/>
</g>
<!-- &amp;CODE(0x32bcbe0) -->
<g id="node19" class="node"><title>&amp;CODE(0x32bcbe0)</title>
<ellipse fill="none" stroke="grey" cx="356" cy="-18" rx="87.1846" ry="18"/>
<text text-anchor="middle" x="356" y="-14.3" font-family="Times,serif" font-size="14.00" fill="red">&amp;CODE(0x32bcbe0)</text>
</g>
<!-- 0_1_0_0_0_0_0_1_kids&#45;&gt;&amp;CODE(0x32bcbe0) -->
<g id="edge20" class="edge"><title>0_1_0_0_0_0_0_1_kids:port1&#45;&gt;&amp;CODE(0x32bcbe0)</title>
<path fill="none" stroke="grey" d="M356,-72.4575C356,-64.5753 356,-55.1566 356,-46.4366"/>
<polygon fill="grey" stroke="grey" points="359.5,-46.2967 356,-36.2968 352.5,-46.2968 359.5,-46.2967"/>
</g>
<!-- 0_2_0_kids -->
<g id="node22" class="node"><title>0_2_0_kids</title>
<path fill="none" stroke="grey" d="M305.5,-437.5C305.5,-437.5 506.5,-437.5 506.5,-437.5 512.5,-437.5 518.5,-443.5 518.5,-449.5 518.5,-449.5 518.5,-461.5 518.5,-461.5 518.5,-467.5 512.5,-473.5 506.5,-473.5 506.5,-473.5 305.5,-473.5 305.5,-473.5 299.5,-473.5 293.5,-467.5 293.5,-461.5 293.5,-461.5 293.5,-449.5 293.5,-449.5 293.5,-443.5 299.5,-437.5 305.5,-437.5"/>
<text text-anchor="middle" x="331" y="-451.8" font-family="Times,serif" font-size="14.00" fill="blue">element_1</text>
<polyline fill="none" stroke="grey" points="368.5,-437.5 368.5,-473.5 "/>
<text text-anchor="middle" x="406" y="-451.8" font-family="Times,serif" font-size="14.00" fill="blue">element_2</text>
<polyline fill="none" stroke="grey" points="443.5,-437.5 443.5,-473.5 "/>
<text text-anchor="middle" x="481" y="-451.8" font-family="Times,serif" font-size="14.00" fill="blue">element_3</text>
</g>
<!-- 0_2_kids&#45;&gt;0_2_0_kids -->
<g id="edge23" class="edge"><title>0_2_kids:port1&#45;&gt;0_2_0_kids:port2</title>
<path fill="none" stroke="grey" d="M387.014,-510.461C394.479,-503.225 401.533,-494.184 404.512,-484.041"/>
<polygon fill="grey" stroke="grey" points="407.996,-484.405 406,-474 401.072,-483.379 407.996,-484.405"/>
</g>
</g>
</svg>
