<?xml version="1.0" encoding="UTF-8" standalone="no"?>
<!DOCTYPE svg PUBLIC "-//W3C//DTD SVG 1.1//EN"
 "http://www.w3.org/Graphics/SVG/1.1/DTD/svg11.dtd">
<!-- Generated by graphviz version 2.38.0 (20140413.2041)
 -->
<!-- Title: Perl Pages: 1 -->
<svg width="153pt" height="450pt"
 viewBox="0.00 0.00 152.50 450.00" xmlns="http://www.w3.org/2000/svg" xmlns:xlink="http://www.w3.org/1999/xlink">
<g id="graph0" class="graph" transform="scale(1 1) rotate(0) translate(4 446)">
<title>Perl</title>
<polygon fill="white" stroke="none" points="-4,4 -4,-446 148.5,-446 148.5,4 -4,4"/>
<!-- exp -->
<g id="node1" class="node"><title>exp</title>
<path fill="none" stroke="blue" d="M13.5,-0.5C13.5,-0.5 114.5,-0.5 114.5,-0.5 120.5,-0.5 126.5,-6.5 126.5,-12.5 126.5,-12.5 126.5,-146.5 126.5,-146.5 126.5,-152.5 120.5,-158.5 114.5,-158.5 114.5,-158.5 13.5,-158.5 13.5,-158.5 7.5,-158.5 1.5,-152.5 1.5,-146.5 1.5,-146.5 1.5,-12.5 1.5,-12.5 1.5,-6.5 7.5,-0.5 13.5,-0.5"/>
<text text-anchor="middle" x="19.5" y="-75.8" font-family="Times,serif" font-size="14.00">exp</text>
<polyline fill="none" stroke="blue" points="37.5,-0.5 37.5,-158.5 "/>
<text text-anchor="middle" x="82" y="-143.3" font-family="Times,serif" font-size="14.00">NUM </text>
<text text-anchor="middle" x="82" y="-128.3" font-family="Times,serif" font-size="14.00">VAR </text>
<text text-anchor="middle" x="82" y="-113.3" font-family="Times,serif" font-size="14.00">VAR &#39;=&#39; exp </text>
<text text-anchor="middle" x="82" y="-98.3" font-family="Times,serif" font-size="14.00">exp &#39;+&#39; exp </text>
<text text-anchor="middle" x="82" y="-83.3" font-family="Times,serif" font-size="14.00">exp &#39;&#45;&#39; exp </text>
<text text-anchor="middle" x="82" y="-68.3" font-family="Times,serif" font-size="14.00">exp &#39;*&#39; exp </text>
<text text-anchor="middle" x="82" y="-53.3" font-family="Times,serif" font-size="14.00">exp &#39;/&#39; exp </text>
<text text-anchor="middle" x="82" y="-38.3" font-family="Times,serif" font-size="14.00">&#39;&#45;&#39; exp </text>
<text text-anchor="middle" x="82" y="-23.3" font-family="Times,serif" font-size="14.00">exp &#39;^&#39; exp </text>
<text text-anchor="middle" x="82" y="-8.3" font-family="Times,serif" font-size="14.00">&#39;(&#39; exp &#39;)&#39; </text>
</g>
<!-- exp&#45;&gt;exp -->
<g id="edge1" class="edge"><title>exp&#45;&gt;exp</title>
<path fill="none" stroke="grey" d="M126.778,-108.08C137.264,-104.081 144.5,-94.5547 144.5,-79.5 144.5,-69.1499 141.08,-61.4126 135.535,-56.2881"/>
<polygon fill="grey" stroke="grey" points="137.133,-53.1624 126.778,-50.9196 133.474,-59.1302 137.133,-53.1624"/>
</g>
<!-- input -->
<g id="node2" class="node"><title>input</title>
<path fill="none" stroke="blue" d="M16.5,-330.5C16.5,-330.5 111.5,-330.5 111.5,-330.5 117.5,-330.5 123.5,-336.5 123.5,-342.5 123.5,-342.5 123.5,-356.5 123.5,-356.5 123.5,-362.5 117.5,-368.5 111.5,-368.5 111.5,-368.5 16.5,-368.5 16.5,-368.5 10.5,-368.5 4.5,-362.5 4.5,-356.5 4.5,-356.5 4.5,-342.5 4.5,-342.5 4.5,-336.5 10.5,-330.5 16.5,-330.5"/>
<text text-anchor="middle" x="27.5" y="-345.8" font-family="Times,serif" font-size="14.00">input</text>
<polyline fill="none" stroke="blue" points="50.5,-330.5 50.5,-368.5 "/>
<text text-anchor="middle" x="87" y="-353.3" font-family="Times,serif" font-size="14.00">(empty) </text>
<text text-anchor="middle" x="87" y="-338.3" font-family="Times,serif" font-size="14.00">input line </text>
</g>
<!-- input&#45;&gt;input -->
<g id="edge3" class="edge"><title>input&#45;&gt;input</title>
<path fill="none" stroke="grey" d="M123.79,-362.508C134.234,-360.773 141.5,-356.437 141.5,-349.5 141.5,-345.056 138.518,-341.679 133.629,-339.37"/>
<polygon fill="grey" stroke="grey" points="134.37,-335.94 123.79,-336.492 132.405,-342.659 134.37,-335.94"/>
</g>
<!-- line -->
<g id="node3" class="node"><title>line</title>
<path fill="none" stroke="blue" d="M31.5,-195.5C31.5,-195.5 96.5,-195.5 96.5,-195.5 102.5,-195.5 108.5,-201.5 108.5,-207.5 108.5,-207.5 108.5,-281.5 108.5,-281.5 108.5,-287.5 102.5,-293.5 96.5,-293.5 96.5,-293.5 31.5,-293.5 31.5,-293.5 25.5,-293.5 19.5,-287.5 19.5,-281.5 19.5,-281.5 19.5,-207.5 19.5,-207.5 19.5,-201.5 25.5,-195.5 31.5,-195.5"/>
<text text-anchor="middle" x="38.5" y="-240.8" font-family="Times,serif" font-size="14.00">line</text>
<polyline fill="none" stroke="blue" points="57.5,-195.5 57.5,-293.5 "/>
<text text-anchor="middle" x="83" y="-278.3" font-family="Times,serif" font-size="14.00">&#39;</text>
<text text-anchor="middle" x="83" y="-263.3" font-family="Times,serif" font-size="14.00">&#39; </text>
<text text-anchor="middle" x="83" y="-248.3" font-family="Times,serif" font-size="14.00">exp &#39;</text>
<text text-anchor="middle" x="83" y="-233.3" font-family="Times,serif" font-size="14.00">&#39; </text>
<text text-anchor="middle" x="83" y="-218.3" font-family="Times,serif" font-size="14.00">error &#39;</text>
<text text-anchor="middle" x="83" y="-203.3" font-family="Times,serif" font-size="14.00">&#39; </text>
</g>
<!-- input&#45;&gt;line -->
<g id="edge2" class="edge"><title>input&#45;&gt;line</title>
<path fill="none" stroke="grey" d="M64,-330.086C64,-322.607 64,-313.513 64,-304.097"/>
<polygon fill="grey" stroke="grey" points="67.5001,-303.814 64,-293.814 60.5001,-303.815 67.5001,-303.814"/>
</g>
<!-- line&#45;&gt;exp -->
<g id="edge5" class="edge"><title>line&#45;&gt;exp</title>
<path fill="none" stroke="grey" d="M64,-195.476C64,-187.084 64,-178.118 64,-169.036"/>
<polygon fill="grey" stroke="grey" points="67.5001,-168.755 64,-158.755 60.5001,-168.755 67.5001,-168.755"/>
</g>
<!-- $start -->
<g id="node4" class="node"><title>$start</title>
<path fill="none" stroke="blue" d="M12,-405.5C12,-405.5 116,-405.5 116,-405.5 122,-405.5 128,-411.5 128,-417.5 128,-417.5 128,-429.5 128,-429.5 128,-435.5 122,-441.5 116,-441.5 116,-441.5 12,-441.5 12,-441.5 6,-441.5 0,-435.5 0,-429.5 0,-429.5 0,-417.5 0,-417.5 0,-411.5 6,-405.5 12,-405.5"/>
<text text-anchor="middle" x="24.5" y="-419.8" font-family="Times,serif" font-size="14.00">$start</text>
<polyline fill="none" stroke="blue" points="49,-405.5 49,-441.5 "/>
<text text-anchor="middle" x="88.5" y="-419.8" font-family="Times,serif" font-size="14.00">input $end </text>
</g>
<!-- $start&#45;&gt;input -->
<g id="edge4" class="edge"><title>$start&#45;&gt;input</title>
<path fill="none" stroke="grey" d="M64,-405.437C64,-397.487 64,-387.813 64,-378.813"/>
<polygon fill="grey" stroke="grey" points="67.5001,-378.699 64,-368.699 60.5001,-378.699 67.5001,-378.699"/>
</g>
</g>
</svg>
