<?xml version="1.0" encoding="UTF-8" standalone="no"?>
<!DOCTYPE svg PUBLIC "-//W3C//DTD SVG 1.1//EN"
 "http://www.w3.org/Graphics/SVG/1.1/DTD/svg11.dtd">
<!-- Generated by graphviz version 2.38.0 (20140413.2041)
 -->
<!-- Title: Perl Pages: 1 -->
<svg width="453pt" height="191pt"
 viewBox="0.00 0.00 452.50 191.00" xmlns="http://www.w3.org/2000/svg" xmlns:xlink="http://www.w3.org/1999/xlink">
<g id="graph0" class="graph" transform="scale(1 1) rotate(0) translate(4 187)">
<title>Perl</title>
<polygon fill="white" stroke="none" points="-4,4 -4,-187 448.5,-187 448.5,4 -4,4"/>
<!-- Adult -->
<g id="node1" class="node"><title>Adult</title>
<path fill="none" stroke="blue" d="M86.5,-146.5C86.5,-146.5 116.5,-146.5 116.5,-146.5 122.5,-146.5 128.5,-152.5 128.5,-158.5 128.5,-158.5 128.5,-170.5 128.5,-170.5 128.5,-176.5 122.5,-182.5 116.5,-182.5 116.5,-182.5 86.5,-182.5 86.5,-182.5 80.5,-182.5 74.5,-176.5 74.5,-170.5 74.5,-170.5 74.5,-158.5 74.5,-158.5 74.5,-152.5 80.5,-146.5 86.5,-146.5"/>
<text text-anchor="middle" x="101.5" y="-160.8" font-family="Times,serif" font-size="14.00">Adult</text>
</g>
<!-- Adult::Child1 -->
<g id="node2" class="node"><title>Adult::Child1</title>
<path fill="none" stroke="blue" d="M12,-73.5C12,-73.5 81,-73.5 81,-73.5 87,-73.5 93,-79.5 93,-85.5 93,-85.5 93,-97.5 93,-97.5 93,-103.5 87,-109.5 81,-109.5 81,-109.5 12,-109.5 12,-109.5 6,-109.5 0,-103.5 0,-97.5 0,-97.5 0,-85.5 0,-85.5 0,-79.5 6,-73.5 12,-73.5"/>
<text text-anchor="middle" x="46.5" y="-87.8" font-family="Times,serif" font-size="14.00">Adult::Child1</text>
</g>
<!-- Adult::Child1&#45;&gt;Adult -->
<g id="edge1" class="edge"><title>Adult::Child1&#45;&gt;Adult</title>
<path fill="none" stroke="grey" d="M59.814,-109.687C66.5022,-118.321 74.732,-128.945 82.1074,-138.466"/>
<polygon fill="grey" stroke="grey" points="79.4177,-140.709 88.3086,-146.471 84.9516,-136.422 79.4177,-140.709"/>
</g>
<!-- Adult::Child2 -->
<g id="node3" class="node"><title>Adult::Child2</title>
<path fill="none" stroke="blue" d="M123,-73.5C123,-73.5 192,-73.5 192,-73.5 198,-73.5 204,-79.5 204,-85.5 204,-85.5 204,-97.5 204,-97.5 204,-103.5 198,-109.5 192,-109.5 192,-109.5 123,-109.5 123,-109.5 117,-109.5 111,-103.5 111,-97.5 111,-97.5 111,-85.5 111,-85.5 111,-79.5 117,-73.5 123,-73.5"/>
<text text-anchor="middle" x="157.5" y="-87.8" font-family="Times,serif" font-size="14.00">Adult::Child2</text>
</g>
<!-- Adult::Child2&#45;&gt;Adult -->
<g id="edge2" class="edge"><title>Adult::Child2&#45;&gt;Adult</title>
<path fill="none" stroke="grey" d="M143.944,-109.687C137.134,-118.321 128.755,-128.945 121.245,-138.466"/>
<polygon fill="grey" stroke="grey" points="118.376,-136.452 114.931,-146.471 123.872,-140.787 118.376,-136.452"/>
</g>
<!-- Adult::Child::Grandchild -->
<g id="node4" class="node"><title>Adult::Child::Grandchild</title>
<path fill="none" stroke="blue" d="M23.5,-0.5C23.5,-0.5 155.5,-0.5 155.5,-0.5 161.5,-0.5 167.5,-6.5 167.5,-12.5 167.5,-12.5 167.5,-24.5 167.5,-24.5 167.5,-30.5 161.5,-36.5 155.5,-36.5 155.5,-36.5 23.5,-36.5 23.5,-36.5 17.5,-36.5 11.5,-30.5 11.5,-24.5 11.5,-24.5 11.5,-12.5 11.5,-12.5 11.5,-6.5 17.5,-0.5 23.5,-0.5"/>
<text text-anchor="middle" x="89.5" y="-14.8" font-family="Times,serif" font-size="14.00">Adult::Child::Grandchild</text>
</g>
<!-- Adult::Child::Grandchild&#45;&gt;Adult::Child1 -->
<g id="edge3" class="edge"><title>Adult::Child::Grandchild&#45;&gt;Adult::Child1</title>
<path fill="none" stroke="grey" d="M79.0909,-36.6871C73.9676,-45.1466 67.6872,-55.5165 62.0118,-64.8876"/>
<polygon fill="grey" stroke="grey" points="58.9999,-63.1044 56.8132,-73.4712 64.9874,-66.7307 58.9999,-63.1044"/>
</g>
<!-- Adult::Child::Grandchild&#45;&gt;Adult::Child2 -->
<g id="edge4" class="edge"><title>Adult::Child::Grandchild&#45;&gt;Adult::Child2</title>
<path fill="none" stroke="grey" d="M105.961,-36.6871C114.397,-45.4954 124.817,-56.375 134.075,-66.0416"/>
<polygon fill="grey" stroke="grey" points="131.746,-68.67 141.191,-73.4712 136.802,-63.8282 131.746,-68.67"/>
</g>
<!-- GoldenDelicious -->
<g id="node5" class="node"><title>GoldenDelicious</title>
<path fill="none" stroke="blue" d="M234.5,-73.5C234.5,-73.5 320.5,-73.5 320.5,-73.5 326.5,-73.5 332.5,-79.5 332.5,-85.5 332.5,-85.5 332.5,-97.5 332.5,-97.5 332.5,-103.5 326.5,-109.5 320.5,-109.5 320.5,-109.5 234.5,-109.5 234.5,-109.5 228.5,-109.5 222.5,-103.5 222.5,-97.5 222.5,-97.5 222.5,-85.5 222.5,-85.5 222.5,-79.5 228.5,-73.5 234.5,-73.5"/>
<text text-anchor="middle" x="277.5" y="-87.8" font-family="Times,serif" font-size="14.00">GoldenDelicious</text>
</g>
<!-- GrannySmith -->
<g id="node6" class="node"><title>GrannySmith</title>
<path fill="none" stroke="blue" d="M362.5,-73.5C362.5,-73.5 432.5,-73.5 432.5,-73.5 438.5,-73.5 444.5,-79.5 444.5,-85.5 444.5,-85.5 444.5,-97.5 444.5,-97.5 444.5,-103.5 438.5,-109.5 432.5,-109.5 432.5,-109.5 362.5,-109.5 362.5,-109.5 356.5,-109.5 350.5,-103.5 350.5,-97.5 350.5,-97.5 350.5,-85.5 350.5,-85.5 350.5,-79.5 356.5,-73.5 362.5,-73.5"/>
<text text-anchor="middle" x="397.5" y="-87.8" font-family="Times,serif" font-size="14.00">GrannySmith</text>
</g>
<!-- HybridVariety -->
<g id="node7" class="node"><title>HybridVariety</title>
<path fill="none" stroke="blue" d="M301.5,-0.5C301.5,-0.5 373.5,-0.5 373.5,-0.5 379.5,-0.5 385.5,-6.5 385.5,-12.5 385.5,-12.5 385.5,-24.5 385.5,-24.5 385.5,-30.5 379.5,-36.5 373.5,-36.5 373.5,-36.5 301.5,-36.5 301.5,-36.5 295.5,-36.5 289.5,-30.5 289.5,-24.5 289.5,-24.5 289.5,-12.5 289.5,-12.5 289.5,-6.5 295.5,-0.5 301.5,-0.5"/>
<text text-anchor="middle" x="337.5" y="-14.8" font-family="Times,serif" font-size="14.00">HybridVariety</text>
</g>
<!-- HybridVariety&#45;&gt;GoldenDelicious -->
<g id="edge5" class="edge"><title>HybridVariety&#45;&gt;GoldenDelicious</title>
<path fill="none" stroke="grey" d="M322.976,-36.6871C315.606,-45.4082 306.52,-56.1598 298.412,-65.7541"/>
<polygon fill="grey" stroke="grey" points="295.672,-63.5741 291.891,-73.4712 301.018,-68.0923 295.672,-63.5741"/>
</g>
<!-- HybridVariety&#45;&gt;GrannySmith -->
<g id="edge6" class="edge"><title>HybridVariety&#45;&gt;GrannySmith</title>
<path fill="none" stroke="grey" d="M352.024,-36.6871C359.394,-45.4082 368.48,-56.1598 376.588,-65.7541"/>
<polygon fill="grey" stroke="grey" points="373.982,-68.0923 383.109,-73.4712 379.328,-63.5741 373.982,-68.0923"/>
</g>
</g>
</svg>
