<?xml version="1.0" encoding="UTF-8" standalone="no"?>
<!DOCTYPE svg PUBLIC "-//W3C//DTD SVG 1.1//EN"
 "http://www.w3.org/Graphics/SVG/1.1/DTD/svg11.dtd">
<!-- Generated by graphviz version 2.38.0 (20140413.2041)
 -->
<!-- Title: Perl Pages: 1 -->
<svg width="230pt" height="483pt"
 viewBox="0.00 0.00 230.00 483.22" xmlns="http://www.w3.org/2000/svg" xmlns:xlink="http://www.w3.org/1999/xlink">
<g id="graph0" class="graph" transform="scale(1 1) rotate(0) translate(4 479.216)">
<title>Perl</title>
<polygon fill="white" stroke="none" points="-4,4 -4,-479.216 226,-479.216 226,4 -4,4"/>
<!-- number -->
<g id="node1" class="node"><title>number</title>
<path fill="none" stroke="blue" d="M32,-3.71649C32,-3.71649 172,-3.71649 172,-3.71649 178,-3.71649 184,-9.71649 184,-15.7165 184,-15.7165 184,-29.7165 184,-29.7165 184,-35.7165 178,-41.7165 172,-41.7165 172,-41.7165 32,-41.7165 32,-41.7165 26,-41.7165 20,-35.7165 20,-29.7165 20,-29.7165 20,-15.7165 20,-15.7165 20,-9.71649 26,-3.71649 32,-3.71649"/>
<text text-anchor="middle" x="50" y="-19.0165" font-family="Times,serif" font-size="14.00">number</text>
<polyline fill="none" stroke="blue" points="80,-3.71649 80,-41.7165 "/>
<text text-anchor="middle" x="132" y="-26.5165" font-family="Times,serif" font-size="14.00">DIGIT </text>
<text text-anchor="middle" x="132" y="-11.5165" font-family="Times,serif" font-size="14.00">number DIGIT </text>
</g>
<!-- number&#45;&gt;number -->
<g id="edge1" class="edge"><title>number&#45;&gt;number</title>
<path fill="none" stroke="grey" d="M138.924,-41.7833C169.769,-49.9315 202,-43.5759 202,-22.7165 202,-4.13861 176.434,2.93468 149.051,-1.49661"/>
<polygon fill="grey" stroke="grey" points="147.977,1.85347 138.924,-3.64972 149.433,-4.99349 147.977,1.85347"/>
</g>
<!-- $accept -->
<g id="node2" class="node"><title>$accept</title>
<path fill="none" stroke="blue" d="M51,-438.716C51,-438.716 153,-438.716 153,-438.716 159,-438.716 165,-444.716 165,-450.716 165,-450.716 165,-462.716 165,-462.716 165,-468.716 159,-474.716 153,-474.716 153,-474.716 51,-474.716 51,-474.716 45,-474.716 39,-468.716 39,-462.716 39,-462.716 39,-450.716 39,-450.716 39,-444.716 45,-438.716 51,-438.716"/>
<text text-anchor="middle" x="68.5" y="-453.016" font-family="Times,serif" font-size="14.00">$accept</text>
<polyline fill="none" stroke="blue" points="98,-438.716 98,-474.716 "/>
<text text-anchor="middle" x="131.5" y="-453.016" font-family="Times,serif" font-size="14.00">list $end </text>
</g>
<!-- list -->
<g id="node3" class="node"><title>list</title>
<path fill="none" stroke="blue" d="M61.5,-318.716C61.5,-318.716 142.5,-318.716 142.5,-318.716 148.5,-318.716 154.5,-324.716 154.5,-330.716 154.5,-330.716 154.5,-389.716 154.5,-389.716 154.5,-395.716 148.5,-401.716 142.5,-401.716 142.5,-401.716 61.5,-401.716 61.5,-401.716 55.5,-401.716 49.5,-395.716 49.5,-389.716 49.5,-389.716 49.5,-330.716 49.5,-330.716 49.5,-324.716 55.5,-318.716 61.5,-318.716"/>
<text text-anchor="middle" x="66.5" y="-356.516" font-family="Times,serif" font-size="14.00">list</text>
<polyline fill="none" stroke="blue" points="83.5,-318.716 83.5,-401.716 "/>
<text text-anchor="middle" x="119" y="-386.516" font-family="Times,serif" font-size="14.00">(empty) </text>
<text text-anchor="middle" x="119" y="-371.516" font-family="Times,serif" font-size="14.00">list stat &#39;</text>
<text text-anchor="middle" x="119" y="-356.516" font-family="Times,serif" font-size="14.00">&#39; </text>
<text text-anchor="middle" x="119" y="-341.516" font-family="Times,serif" font-size="14.00">list error &#39;</text>
<text text-anchor="middle" x="119" y="-326.516" font-family="Times,serif" font-size="14.00">&#39; </text>
</g>
<!-- $accept&#45;&gt;list -->
<g id="edge2" class="edge"><title>$accept&#45;&gt;list</title>
<path fill="none" stroke="grey" d="M102,-438.384C102,-430.871 102,-421.643 102,-412.216"/>
<polygon fill="grey" stroke="grey" points="105.5,-411.979 102,-401.979 98.5001,-411.979 105.5,-411.979"/>
</g>
<!-- list&#45;&gt;list -->
<g id="edge4" class="edge"><title>list&#45;&gt;list</title>
<path fill="none" stroke="grey" d="M154.575,-377.474C165.039,-375.531 172.5,-369.779 172.5,-360.216 172.5,-353.941 169.287,-349.307 164.12,-346.313"/>
<polygon fill="grey" stroke="grey" points="165.17,-342.972 154.575,-342.959 162.85,-349.576 165.17,-342.972"/>
</g>
<!-- stat -->
<g id="node4" class="node"><title>stat</title>
<path fill="none" stroke="blue" d="M37.5,-243.716C37.5,-243.716 166.5,-243.716 166.5,-243.716 172.5,-243.716 178.5,-249.716 178.5,-255.716 178.5,-255.716 178.5,-269.716 178.5,-269.716 178.5,-275.716 172.5,-281.716 166.5,-281.716 166.5,-281.716 37.5,-281.716 37.5,-281.716 31.5,-281.716 25.5,-275.716 25.5,-269.716 25.5,-269.716 25.5,-255.716 25.5,-255.716 25.5,-249.716 31.5,-243.716 37.5,-243.716"/>
<text text-anchor="middle" x="44" y="-259.016" font-family="Times,serif" font-size="14.00">stat</text>
<polyline fill="none" stroke="blue" points="62.5,-243.716 62.5,-281.716 "/>
<text text-anchor="middle" x="120.5" y="-266.516" font-family="Times,serif" font-size="14.00">expr </text>
<text text-anchor="middle" x="120.5" y="-251.516" font-family="Times,serif" font-size="14.00">LETTER &#39;=&#39; expr </text>
</g>
<!-- list&#45;&gt;stat -->
<g id="edge3" class="edge"><title>list&#45;&gt;stat</title>
<path fill="none" stroke="grey" d="M102,-318.716C102,-309.708 102,-300.348 102,-291.958"/>
<polygon fill="grey" stroke="grey" points="105.5,-291.95 102,-281.95 98.5001,-291.95 105.5,-291.95"/>
</g>
<!-- expr -->
<g id="node5" class="node"><title>expr</title>
<path fill="none" stroke="blue" d="M12,-78.7165C12,-78.7165 192,-78.7165 192,-78.7165 198,-78.7165 204,-84.7165 204,-90.7165 204,-90.7165 204,-194.716 204,-194.716 204,-200.716 198,-206.716 192,-206.716 192,-206.716 12,-206.716 12,-206.716 6,-206.716 -1.42109e-14,-200.716 -1.42109e-14,-194.716 -1.42109e-14,-194.716 -1.42109e-14,-90.7165 -1.42109e-14,-90.7165 -1.42109e-14,-84.7165 6,-78.7165 12,-78.7165"/>
<text text-anchor="middle" x="20.5" y="-139.016" font-family="Times,serif" font-size="14.00">expr</text>
<polyline fill="none" stroke="blue" points="41,-78.7165 41,-206.716 "/>
<text text-anchor="middle" x="87" y="-191.516" font-family="Times,serif" font-size="14.00">&#39;(&#39; expr &#39;)&#39; </text>
<text text-anchor="middle" x="87" y="-176.516" font-family="Times,serif" font-size="14.00">expr &#39;+&#39; expr </text>
<text text-anchor="middle" x="87" y="-161.516" font-family="Times,serif" font-size="14.00">expr &#39;&#45;&#39; expr </text>
<text text-anchor="middle" x="87" y="-146.516" font-family="Times,serif" font-size="14.00">expr &#39;*&#39; expr </text>
<text text-anchor="middle" x="87" y="-131.516" font-family="Times,serif" font-size="14.00">expr &#39;/&#39; expr </text>
<text text-anchor="middle" x="87" y="-116.516" font-family="Times,serif" font-size="14.00">expr &#39;%&#39; expr </text>
<text text-anchor="middle" x="87" y="-101.516" font-family="Times,serif" font-size="14.00">expr &#39;&amp;&#39; expr </text>
<text text-anchor="middle" x="87" y="-86.5165" font-family="Times,serif" font-size="14.00">expr &#39;</text>
<polyline fill="none" stroke="blue" points="133,-78.7165 133,-206.716 "/>
<text text-anchor="middle" x="168.5" y="-161.516" font-family="Times,serif" font-size="14.00">&#39; expr </text>
<text text-anchor="middle" x="168.5" y="-146.516" font-family="Times,serif" font-size="14.00">&#39;&#45;&#39; expr </text>
<text text-anchor="middle" x="168.5" y="-131.516" font-family="Times,serif" font-size="14.00">LETTER </text>
<text text-anchor="middle" x="168.5" y="-116.516" font-family="Times,serif" font-size="14.00">number </text>
</g>
<!-- stat&#45;&gt;expr -->
<g id="edge5" class="edge"><title>stat&#45;&gt;expr</title>
<path fill="none" stroke="grey" d="M102,-243.538C102,-235.974 102,-226.654 102,-216.776"/>
<polygon fill="grey" stroke="grey" points="105.5,-216.757 102,-206.757 98.5001,-216.757 105.5,-216.757"/>
</g>
<!-- expr&#45;&gt;number -->
<g id="edge7" class="edge"><title>expr&#45;&gt;number</title>
<path fill="none" stroke="grey" d="M102,-78.5711C102,-69.3791 102,-60.322 102,-52.2981"/>
<polygon fill="grey" stroke="grey" points="105.5,-52.0811 102,-42.0811 98.5001,-52.0812 105.5,-52.0811"/>
</g>
<!-- expr&#45;&gt;expr -->
<g id="edge6" class="edge"><title>expr&#45;&gt;expr</title>
<path fill="none" stroke="grey" d="M204.418,-161.359C215.134,-157.72 222,-151.506 222,-142.716 222,-136.811 218.9,-132.069 213.616,-128.488"/>
<polygon fill="grey" stroke="grey" points="214.948,-125.245 204.418,-124.074 211.919,-131.556 214.948,-125.245"/>
</g>
</g>
</svg>
