<?xml version="1.0" encoding="UTF-8" standalone="no"?>
<!DOCTYPE svg PUBLIC "-//W3C//DTD SVG 1.1//EN"
 "http://www.w3.org/Graphics/SVG/1.1/DTD/svg11.dtd">
<!-- Generated by graphviz version 2.38.0 (20140413.2041)
 -->
<!-- Title: Perl Pages: 1 -->
<svg width="349pt" height="276pt"
 viewBox="0.00 0.00 349.29 275.58" xmlns="http://www.w3.org/2000/svg" xmlns:xlink="http://www.w3.org/1999/xlink">
<g id="graph0" class="graph" transform="scale(1 1) rotate(0) translate(4 271.58)">
<title>Perl</title>
<polygon fill="white" stroke="none" points="-4,4 -4,-271.58 345.291,-271.58 345.291,4 -4,4"/>
<!-- Carnegie -->
<g id="node1" class="node"><title>Carnegie</title>
<ellipse fill="none" stroke="black" cx="42.8962" cy="-66.3945" rx="42.7926" ry="42.7926"/>
<text text-anchor="middle" x="42.8962" y="-62.6945" font-family="Times,serif" font-size="14.00">Carnegie</text>
</g>
<!-- Chadstone -->
<g id="node2" class="node"><title>Chadstone</title>
<ellipse fill="none" stroke="red" cx="146.896" cy="-218.185" rx="49.2915" ry="49.2915"/>
<text text-anchor="middle" x="146.896" y="-214.485" font-family="Times,serif" font-size="14.00">Chadstone</text>
</g>
<!-- Oakleigh -->
<g id="node5" class="node"><title>Oakleigh</title>
<ellipse fill="none" stroke="blue" cx="146.896" cy="-66.3945" rx="43.5923" ry="18"/>
<text text-anchor="middle" x="146.896" y="-62.6945" font-family="Times,serif" font-size="14.00">Oakleigh</text>
</g>
<!-- Chadstone&#45;&gt;Oakleigh -->
<g id="edge1" class="edge"><title>Chadstone&#45;&gt;Oakleigh</title>
<path fill="none" stroke="grey" d="M146.896,-168.552C146.896,-143.287 146.896,-113.458 146.896,-92.7667"/>
<ellipse fill="none" stroke="grey" cx="146.896" cy="-88.4986" rx="4" ry="4"/>
</g>
<!-- Malvern -->
<g id="node3" class="node"><title>Malvern</title>
<polygon fill="none" stroke="green" points="76.8962,-236.185 12.8962,-236.185 12.8962,-200.185 76.8962,-200.185 76.8962,-236.185"/>
<text text-anchor="middle" x="44.8962" y="-214.485" font-family="Times,serif" font-size="14.00">Malvern</text>
</g>
<!-- Malvern&#45;&gt;Carnegie -->
<g id="edge2" class="edge"><title>Malvern&#45;&gt;Carnegie</title>
<path fill="none" stroke="grey" d="M44.6668,-200.002C44.4372,-182.806 44.0701,-155.311 43.7295,-129.805"/>
<polygon fill="grey" stroke="grey" points="50.7257,-129.469 43.4593,-109.565 36.727,-129.656 50.7257,-129.469"/>
</g>
<!-- Malvern&#45;&gt;Oakleigh -->
<g id="edge3" class="edge"><title>Malvern&#45;&gt;Oakleigh</title>
<path fill="none" stroke="brown" d="M56.5969,-200.002C74.5999,-173.564 109.18,-122.781 129.931,-92.3081"/>
<polygon fill="brown" stroke="brown" points="132.907,-94.1561 135.643,-83.9205 127.121,-90.2161 132.907,-94.1561"/>
</g>
<!-- Murrumbeena -->
<g id="node4" class="node"><title>Murrumbeena</title>
<ellipse fill="none" stroke="orange" cx="274.896" cy="-66.3945" rx="62.2954" ry="62.2954"/>
<ellipse fill="none" stroke="orange" cx="274.896" cy="-66.3945" rx="66.2891" ry="66.2891"/>
<text text-anchor="middle" x="274.896" y="-62.6945" font-family="Times,serif" font-size="14.00">Murrumbeena</text>
</g>
<!-- Prahran -->
<g id="node6" class="node"><title>Prahran</title>
<ellipse fill="none" stroke="black" cx="254.896" cy="-218.185" rx="40.0939" ry="18"/>
<text text-anchor="middle" x="254.896" y="-214.485" font-family="Times,serif" font-size="14.00">Prahran</text>
</g>
</g>
</svg>
