<?xml version="1.0" encoding="UTF-8" standalone="no"?>
<!DOCTYPE svg PUBLIC "-//W3C//DTD SVG 1.1//EN"
 "http://www.w3.org/Graphics/SVG/1.1/DTD/svg11.dtd">
<!-- Generated by graphviz version 2.38.0 (20140413.2041)
 -->
<!-- Title: Perl Pages: 1 -->
<svg width="365pt" height="292pt"
 viewBox="0.00 0.00 364.90 291.58" xmlns="http://www.w3.org/2000/svg" xmlns:xlink="http://www.w3.org/1999/xlink">
<g id="graph0" class="graph" transform="scale(1 1) rotate(0) translate(4 287.58)">
<title>Perl</title>
<polygon fill="white" stroke="none" points="-4,4 -4,-287.58 360.896,-287.58 360.896,4 -4,4"/>
<g id="clust2" class="cluster"><title>cluster Subgraph 2</title>
<polygon fill="none" stroke="black" points="94.8962,-8 94.8962,-156.789 348.896,-156.789 348.896,-8 94.8962,-8"/>
</g>
<!-- Carnegie -->
<g id="node1" class="node"><title>Carnegie</title>
<ellipse fill="none" stroke="black" cx="42.8962" cy="-82.3945" rx="42.7926" ry="42.7926"/>
<text text-anchor="middle" x="42.8962" y="-78.6945" font-family="Times,serif" font-size="14.00">Carnegie</text>
</g>
<!-- Chadstone -->
<g id="node2" class="node"><title>Chadstone</title>
<ellipse fill="none" stroke="red" cx="146.896" cy="-234.185" rx="49.2915" ry="49.2915"/>
<text text-anchor="middle" x="146.896" y="-230.485" font-family="Times,serif" font-size="14.00">Chadstone</text>
</g>
<!-- Oakleigh -->
<g id="node5" class="node"><title>Oakleigh</title>
<ellipse fill="none" stroke="blue" cx="146.896" cy="-82.3945" rx="43.5923" ry="18"/>
<text text-anchor="middle" x="146.896" y="-78.6945" font-family="Times,serif" font-size="14.00">Oakleigh</text>
</g>
<!-- Chadstone&#45;&gt;Oakleigh -->
<g id="edge1" class="edge"><title>Chadstone&#45;&gt;Oakleigh</title>
<path fill="none" stroke="grey" d="M146.896,-184.552C146.896,-159.287 146.896,-129.458 146.896,-108.767"/>
<ellipse fill="none" stroke="grey" cx="146.896" cy="-104.499" rx="4" ry="4"/>
</g>
<!-- Malvern -->
<g id="node3" class="node"><title>Malvern</title>
<polygon fill="none" stroke="green" points="77.8962,-252.185 13.8962,-252.185 13.8962,-216.185 77.8962,-216.185 77.8962,-252.185"/>
<text text-anchor="middle" x="45.8962" y="-230.485" font-family="Times,serif" font-size="14.00">Malvern</text>
</g>
<!-- Malvern&#45;&gt;Carnegie -->
<g id="edge2" class="edge"><title>Malvern&#45;&gt;Carnegie</title>
<path fill="none" stroke="grey" d="M45.5521,-216.002C45.2077,-198.806 44.657,-171.311 44.1461,-145.805"/>
<polygon fill="grey" stroke="grey" points="51.14,-145.421 43.7408,-125.565 37.1428,-145.701 51.14,-145.421"/>
</g>
<!-- Malvern&#45;&gt;Oakleigh -->
<g id="edge3" class="edge"><title>Malvern&#45;&gt;Oakleigh</title>
<path fill="none" stroke="brown" d="M57.4822,-216.002C75.3087,-189.564 109.55,-138.781 130.098,-108.308"/>
<polygon fill="brown" stroke="brown" points="133.064,-110.168 135.753,-99.9205 127.26,-106.255 133.064,-110.168"/>
</g>
<!-- Murrumbeena -->
<g id="node4" class="node"><title>Murrumbeena</title>
<ellipse fill="none" stroke="orange" cx="274.896" cy="-82.3945" rx="62.2954" ry="62.2954"/>
<ellipse fill="none" stroke="orange" cx="274.896" cy="-82.3945" rx="66.2891" ry="66.2891"/>
<text text-anchor="middle" x="274.896" y="-78.6945" font-family="Times,serif" font-size="14.00">Murrumbeena</text>
</g>
<!-- Prahran -->
<g id="node6" class="node"><title>Prahran</title>
<ellipse fill="none" stroke="black" cx="254.896" cy="-234.185" rx="40.0939" ry="18"/>
<text text-anchor="middle" x="254.896" y="-230.485" font-family="Times,serif" font-size="14.00">Prahran</text>
</g>
</g>
</svg>
