<?xml version="1.0" encoding="UTF-8" standalone="no"?>
<!DOCTYPE svg PUBLIC "-//W3C//DTD SVG 1.1//EN"
 "http://www.w3.org/Graphics/SVG/1.1/DTD/svg11.dtd">
<!-- Generated by graphviz version 2.38.0 (20140413.2041)
 -->
<!-- Title: Perl Pages: 1 -->
<svg width="320pt" height="239pt"
 viewBox="0.00 0.00 319.60 238.79" xmlns="http://www.w3.org/2000/svg" xmlns:xlink="http://www.w3.org/1999/xlink">
<g id="graph0" class="graph" transform="scale(1 1) rotate(0) translate(4 234.791)">
<title>Perl</title>
<polygon fill="white" stroke="none" points="-4,4 -4,-234.791 315.596,-234.791 315.596,4 -4,4"/>
<!-- Carnegie -->
<g id="node1" class="node"><title>Carnegie</title>
<ellipse fill="none" stroke="black" cx="45.5963" cy="-48" rx="42.7926" ry="42.7926"/>
<text text-anchor="middle" x="45.5963" y="-44.3" font-family="Times,serif" font-size="14.00">Carnegie</text>
</g>
<!-- Chadstone -->
<g id="node2" class="node"><title>Chadstone</title>
<ellipse fill="none" stroke="red" cx="158.596" cy="-181.396" rx="49.2915" ry="49.2915"/>
<text text-anchor="middle" x="158.596" y="-177.696" font-family="Times,serif" font-size="14.00">Chadstone</text>
</g>
<!-- Oakleigh -->
<g id="node5" class="node"><title>Oakleigh</title>
<ellipse fill="none" stroke="blue" cx="153.596" cy="-48" rx="43.5923" ry="18"/>
<text text-anchor="middle" x="153.596" y="-44.3" font-family="Times,serif" font-size="14.00">Oakleigh</text>
</g>
<!-- Chadstone&#45;&gt;Oakleigh -->
<g id="edge1" class="edge"><title>Chadstone&#45;&gt;Oakleigh</title>
<path fill="none" stroke="grey" d="M156.749,-131.842C156.012,-112.474 155.193,-90.9682 154.575,-74.7232"/>
<ellipse fill="none" stroke="grey" cx="154.406" cy="-70.2835" rx="4" ry="4"/>
</g>
<!-- Malvern -->
<g id="node3" class="node"><title>Malvern</title>
<ellipse fill="none" stroke="green" cx="45.5963" cy="-181.396" rx="41.6844" ry="41.6844"/>
<ellipse fill="none" stroke="green" cx="45.5963" cy="-181.396" rx="45.6928" ry="45.6928"/>
<text text-anchor="middle" x="45.5963" y="-177.696" font-family="Times,serif" font-size="14.00">Malvern</text>
</g>
<!-- Malvern&#45;&gt;Carnegie -->
<g id="edge2" class="edge"><title>Malvern&#45;&gt;Carnegie</title>
<path fill="none" stroke="grey" d="M45.5963,-135.544C45.5963,-127.657 45.5963,-119.322 45.5963,-111.064"/>
<polygon fill="grey" stroke="grey" points="52.5964,-110.994 45.5963,-90.9936 38.5964,-110.994 52.5964,-110.994"/>
</g>
<!-- Malvern&#45;&gt;Oakleigh -->
<g id="edge3" class="edge"><title>Malvern&#45;&gt;Oakleigh</title>
<path fill="none" stroke="brown" d="M74.2548,-145.529C93.0388,-122.676 117.114,-93.3859 133.793,-73.0936"/>
<polygon fill="brown" stroke="brown" points="136.586,-75.2067 140.232,-65.2589 131.179,-70.7618 136.586,-75.2067"/>
</g>
<!-- Murrumbeena -->
<g id="node4" class="node"><title>Murrumbeena</title>
<polygon fill="none" stroke="orange" points="311.596,-96 215.596,-96 215.596,-0 311.596,-0 311.596,-96"/>
<text text-anchor="middle" x="263.596" y="-44.3" font-family="Times,serif" font-size="14.00">Murrumbeena</text>
</g>
<!-- Prahran -->
<g id="node6" class="node"><title>Prahran</title>
<ellipse fill="none" stroke="black" cx="266.596" cy="-181.396" rx="40.0939" ry="18"/>
<text text-anchor="middle" x="266.596" y="-177.696" font-family="Times,serif" font-size="14.00">Prahran</text>
</g>
</g>
</svg>
