<?xml version="1.0" encoding="UTF-8" standalone="no"?>
<!DOCTYPE svg PUBLIC "-//W3C//DTD SVG 1.1//EN"
 "http://www.w3.org/Graphics/SVG/1.1/DTD/svg11.dtd">
<!-- Generated by graphviz version 2.38.0 (20140413.2041)
 -->
<!-- Title: Perl Pages: 1 -->
<svg width="322pt" height="174pt"
 viewBox="0.00 0.00 322.00 174.00" xmlns="http://www.w3.org/2000/svg" xmlns:xlink="http://www.w3.org/1999/xlink">
<g id="graph0" class="graph" transform="scale(1 1) rotate(0) translate(4 170)">
<title>Perl</title>
<polygon fill="white" stroke="none" points="-4,4 -4,-170 318,-170 318,4 -4,4"/>
<text text-anchor="middle" x="157" y="-7.8" font-family="Times,serif" font-size="14.00">Record demo 1 &#45; Nested records using strings as labels</text>
<!-- struct1 -->
<g id="node1" class="node"><title>struct1</title>
<polygon fill="none" stroke="black" points="35.5,-129.5 35.5,-165.5 172.5,-165.5 172.5,-129.5 35.5,-129.5"/>
<text text-anchor="middle" x="53" y="-143.8" font-family="Times,serif" font-size="14.00">left</text>
<polyline fill="none" stroke="black" points="70.5,-129.5 70.5,-165.5 "/>
<text text-anchor="middle" x="99.5" y="-143.8" font-family="Times,serif" font-size="14.00">mid dle</text>
<polyline fill="none" stroke="black" points="128.5,-129.5 128.5,-165.5 "/>
<text text-anchor="middle" x="150.5" y="-143.8" font-family="Times,serif" font-size="14.00">right</text>
</g>
<!-- struct2 -->
<g id="node2" class="node"><title>struct2</title>
<polygon fill="none" stroke="black" points="29,-40 29,-76 103,-76 103,-40 29,-40"/>
<text text-anchor="middle" x="47.5" y="-54.3" font-family="Times,serif" font-size="14.00">one</text>
<polyline fill="none" stroke="black" points="66,-40 66,-76 "/>
<text text-anchor="middle" x="84.5" y="-54.3" font-family="Times,serif" font-size="14.00">two</text>
</g>
<!-- struct1&#45;&gt;struct2 -->
<g id="edge1" class="edge"><title>struct1:f1&#45;&gt;struct2:f0</title>
<path fill="none" stroke="blue" d="M99,-129C99,-100.274 58.8312,-107.122 49.1029,-87.0112"/>
<polygon fill="blue" stroke="blue" points="52.481,-86.0669 47,-77 45.6305,-87.5059 52.481,-86.0669"/>
</g>
<!-- struct3 -->
<g id="node3" class="node"><title>struct3</title>
<polygon fill="none" stroke="black" points="121,-23.5 121,-92.5 285,-92.5 285,-23.5 121,-23.5"/>
<text text-anchor="middle" x="145" y="-61.8" font-family="Times,serif" font-size="14.00">hello</text>
<text text-anchor="middle" x="145" y="-46.8" font-family="Times,serif" font-size="14.00">world</text>
<polyline fill="none" stroke="black" points="169,-23.5 169,-92.5 "/>
<text text-anchor="middle" x="203.5" y="-77.3" font-family="Times,serif" font-size="14.00">b</text>
<polyline fill="none" stroke="black" points="169,-69.5 238,-69.5 "/>
<text text-anchor="middle" x="180.5" y="-54.3" font-family="Times,serif" font-size="14.00">c</text>
<polyline fill="none" stroke="black" points="192,-46.5 192,-69.5 "/>
<text text-anchor="middle" x="203.5" y="-54.3" font-family="Times,serif" font-size="14.00">d</text>
<polyline fill="none" stroke="black" points="215,-46.5 215,-69.5 "/>
<text text-anchor="middle" x="226.5" y="-54.3" font-family="Times,serif" font-size="14.00">e</text>
<polyline fill="none" stroke="black" points="169,-46.5 238,-46.5 "/>
<text text-anchor="middle" x="203.5" y="-31.3" font-family="Times,serif" font-size="14.00">f</text>
<polyline fill="none" stroke="black" points="238,-23.5 238,-92.5 "/>
<text text-anchor="middle" x="249.5" y="-54.3" font-family="Times,serif" font-size="14.00">g</text>
<polyline fill="none" stroke="black" points="261,-23.5 261,-92.5 "/>
<text text-anchor="middle" x="273" y="-54.3" font-family="Times,serif" font-size="14.00">h</text>
</g>
<!-- struct1&#45;&gt;struct3 -->
<g id="edge2" class="edge"><title>struct1:f2&#45;&gt;struct3:here</title>
<path fill="none" stroke="red" d="M151,-129C151,-117.169 170.137,-93.9204 185.412,-77.2474"/>
<polygon fill="red" stroke="red" points="188.225,-79.3637 192.5,-69.6695 183.113,-74.5819 188.225,-79.3637"/>
</g>
</g>
</svg>
