<?xml version="1.0" encoding="UTF-8" standalone="no"?>
<!DOCTYPE svg PUBLIC "-//W3C//DTD SVG 1.1//EN"
 "http://www.w3.org/Graphics/SVG/1.1/DTD/svg11.dtd">
<!-- Generated by graphviz version 2.38.0 (20140413.2041)
 -->
<!-- Title: Perl Pages: 1 -->
<svg width="415pt" height="78pt"
 viewBox="0.00 0.00 415.00 78.00" xmlns="http://www.w3.org/2000/svg" xmlns:xlink="http://www.w3.org/1999/xlink">
<g id="graph0" class="graph" transform="scale(1 1) rotate(0) translate(4 74)">
<title>Perl</title>
<polygon fill="white" stroke="none" points="-4,4 -4,-74 411,-74 411,4 -4,4"/>
<text text-anchor="middle" x="203.5" y="-7.8" font-family="Times,serif" font-size="14.00">Record demo 4 &#45; Set record shapes in various ways</text>
<!-- One -->
<g id="node1" class="node"><title>One</title>
<path fill="none" stroke="magenta" d="M12,-28.5C12,-28.5 42,-28.5 42,-28.5 48,-28.5 54,-34.5 54,-40.5 54,-40.5 54,-52.5 54,-52.5 54,-58.5 48,-64.5 42,-64.5 42,-64.5 12,-64.5 12,-64.5 6,-64.5 0,-58.5 0,-52.5 0,-52.5 0,-40.5 0,-40.5 0,-34.5 6,-28.5 12,-28.5"/>
<text text-anchor="middle" x="27" y="-42.8" font-family="Times,serif" font-size="14.00"> </text>
</g>
<!-- Two -->
<g id="node2" class="node"><title>Two</title>
<path fill="none" stroke="magenta" d="M84.5,-28.5C84.5,-28.5 147.5,-28.5 147.5,-28.5 153.5,-28.5 159.5,-34.5 159.5,-40.5 159.5,-40.5 159.5,-52.5 159.5,-52.5 159.5,-58.5 153.5,-64.5 147.5,-64.5 147.5,-64.5 84.5,-64.5 84.5,-64.5 78.5,-64.5 72.5,-58.5 72.5,-52.5 72.5,-52.5 72.5,-40.5 72.5,-40.5 72.5,-34.5 78.5,-28.5 84.5,-28.5"/>
<text text-anchor="middle" x="92.5" y="-42.8" font-family="Times,serif" font-size="14.00">Left</text>
<polyline fill="none" stroke="magenta" points="112.5,-28.5 112.5,-64.5 "/>
<text text-anchor="middle" x="136" y="-42.8" font-family="Times,serif" font-size="14.00">Right</text>
</g>
<!-- Three -->
<g id="node3" class="node"><title>Three</title>
<polygon fill="none" stroke="black" points="177.5,-28.5 177.5,-64.5 262.5,-64.5 262.5,-28.5 177.5,-28.5"/>
<text text-anchor="middle" x="201" y="-42.8" font-family="Times,serif" font-size="14.00">Good</text>
<polyline fill="none" stroke="black" points="224.5,-28.5 224.5,-64.5 "/>
<text text-anchor="middle" x="243.5" y="-42.8" font-family="Times,serif" font-size="14.00">Bad</text>
</g>
<!-- Four -->
<g id="node4" class="node"><title>Four</title>
<path fill="none" stroke="magenta" d="M293,-23.5C293,-23.5 323,-23.5 323,-23.5 329,-23.5 335,-29.5 335,-35.5 335,-35.5 335,-57.5 335,-57.5 335,-63.5 329,-69.5 323,-69.5 323,-69.5 293,-69.5 293,-69.5 287,-69.5 281,-63.5 281,-57.5 281,-57.5 281,-35.5 281,-35.5 281,-29.5 287,-23.5 293,-23.5"/>
<text text-anchor="middle" x="308" y="-54.3" font-family="Times,serif" font-size="14.00">Big</text>
<polyline fill="none" stroke="magenta" points="281,-46.5 335,-46.5 "/>
<text text-anchor="middle" x="308" y="-31.3" font-family="Times,serif" font-size="14.00">Small</text>
</g>
<!-- Five -->
<g id="node5" class="node"><title>Five</title>
<polygon fill="none" stroke="magenta" points="353,-23.5 353,-69.5 407,-69.5 407,-23.5 353,-23.5"/>
<text text-anchor="middle" x="380" y="-54.3" font-family="Times,serif" font-size="14.00">Yin</text>
<polyline fill="none" stroke="magenta" points="353,-46.5 407,-46.5 "/>
<text text-anchor="middle" x="380" y="-31.3" font-family="Times,serif" font-size="14.00">Yang</text>
</g>
</g>
</svg>
