<?xml version="1.0" encoding="UTF-8" standalone="no"?>
<!DOCTYPE svg PUBLIC "-//W3C//DTD SVG 1.1//EN"
 "http://www.w3.org/Graphics/SVG/1.1/DTD/svg11.dtd">
<!-- Generated by graphviz version 2.38.0 (20140413.2041)
 -->
<!-- Title: Perl Pages: 1 -->
<svg width="392pt" height="215pt"
 viewBox="0.00 0.00 391.82 215.30" xmlns="http://www.w3.org/2000/svg" xmlns:xlink="http://www.w3.org/1999/xlink">
<g id="graph0" class="graph" transform="scale(1 1) rotate(0) translate(4 211.295)">
<title>Perl</title>
<polygon fill="white" stroke="none" points="-4,4 -4,-211.295 387.822,-211.295 387.822,4 -4,4"/>
<text text-anchor="middle" x="191.911" y="-7.8" font-family="Times,serif" font-size="14.00">Demo of 3 subgraphs (2 being clusters), and 1 frame</text>
<g id="clust1" class="cluster"><title>cluster First subgraph</title>
<polygon fill="none" stroke="white" points="69.6476,-31 69.6476,-199.295 177.648,-199.295 177.648,-31 69.6476,-31"/>
<text text-anchor="middle" x="123.648" y="-184.095" font-family="Times,serif" font-size="14.00">Child the First</text>
</g>
<g id="clust2" class="cluster"><title>cluster Second subgraph</title>
<polygon fill="none" stroke="purple" points="185.648,-31 185.648,-199.295 297.648,-199.295 297.648,-31 185.648,-31"/>
<text text-anchor="middle" x="241.648" y="-184.095" font-family="Times,serif" font-size="14.00">Child the Second</text>
</g>
<!-- One -->
<g id="node1" class="node"><title>One</title>
<ellipse fill="none" stroke="red" cx="30.6476" cy="-150.295" rx="26.7961" ry="26.7961"/>
<text text-anchor="middle" x="30.6476" y="-146.595" font-family="Times,serif" font-size="14.00">One</text>
</g>
<!-- Two -->
<g id="node2" class="node"><title>Two</title>
<ellipse fill="none" stroke="green" cx="30.6476" cy="-57" rx="26.7766" ry="26.7766"/>
<ellipse fill="none" stroke="green" cx="30.6476" cy="-57" rx="30.796" ry="30.796"/>
<text text-anchor="middle" x="30.6476" y="-53.3" font-family="Times,serif" font-size="14.00">Two</text>
</g>
<!-- One&#45;&gt;Two -->
<g id="edge1" class="edge"><title>One&#45;&gt;Two</title>
<path fill="none" stroke="maroon" stroke-width="3" d="M30.6476,-123.378C30.6476,-115.507 30.6476,-106.668 30.6476,-98.094"/>
<polygon fill="maroon" stroke="maroon" stroke-width="3" points="34.1477,-97.85 30.6476,-87.85 27.1477,-97.8501 34.1477,-97.85"/>
</g>
<!-- Three -->
<g id="node3" class="node"><title>Three</title>
<polygon fill="none" stroke="magenta" points="123.648,-168.295 77.7319,-150.295 123.648,-132.295 169.563,-150.295 123.648,-168.295"/>
<text text-anchor="middle" x="123.648" y="-146.595" font-family="Times,serif" font-size="14.00">Three</text>
</g>
<!-- Four -->
<g id="node4" class="node"><title>Four</title>
<polygon fill="none" stroke="orange" points="150.648,-75 96.6476,-75 96.6476,-39 150.648,-39 150.648,-75"/>
<text text-anchor="middle" x="123.648" y="-53.3" font-family="Times,serif" font-size="14.00">Four</text>
</g>
<!-- Three&#45;&gt;Four -->
<g id="edge2" class="edge"><title>Three&#45;&gt;Four</title>
<path fill="none" stroke="grey" stroke-width="3" d="M123.648,-132.123C123.648,-118.989 123.648,-100.618 123.648,-85.4515"/>
<polygon fill="grey" stroke="grey" stroke-width="3" points="127.148,-85.0949 123.648,-75.0949 120.148,-85.095 127.148,-85.0949"/>
</g>
<!-- Five -->
<g id="node5" class="node"><title>Five</title>
<polygon fill="none" stroke="blue" points="240.648,-168.295 202.776,-150.295 240.648,-132.295 278.519,-150.295 240.648,-168.295"/>
<text text-anchor="middle" x="240.648" y="-146.595" font-family="Times,serif" font-size="14.00">Five</text>
</g>
<!-- Six -->
<g id="node6" class="node"><title>Six</title>
<polygon fill="none" stroke="orange" points="267.648,-75 213.648,-75 213.648,-39 267.648,-39 267.648,-75"/>
<text text-anchor="middle" x="240.648" y="-53.3" font-family="Times,serif" font-size="14.00">Six</text>
</g>
<!-- Five&#45;&gt;Six -->
<g id="edge3" class="edge"><title>Five&#45;&gt;Six</title>
<path fill="none" stroke="grey" stroke-width="3" d="M240.648,-132.123C240.648,-118.989 240.648,-100.618 240.648,-85.4515"/>
<polygon fill="grey" stroke="grey" stroke-width="3" points="244.148,-85.0949 240.648,-75.0949 237.148,-85.095 244.148,-85.0949"/>
</g>
<!-- Seven -->
<g id="node7" class="node"><title>Seven</title>
<polygon fill="none" stroke="blue" points="379.98,-142.839 379.98,-157.751 359.283,-168.295 330.013,-168.295 309.316,-157.751 309.316,-142.839 330.013,-132.295 359.283,-132.295 379.98,-142.839"/>
<polygon fill="none" stroke="blue" points="383.998,-140.393 383.998,-160.198 360.251,-172.295 329.044,-172.295 305.298,-160.198 305.298,-140.393 329.044,-128.295 360.251,-128.295 383.998,-140.393"/>
<text text-anchor="middle" x="344.648" y="-146.595" font-family="Times,serif" font-size="14.00">Seven</text>
</g>
<!-- Eight -->
<g id="node8" class="node"><title>Eight</title>
<polygon fill="none" stroke="orange" points="371.648,-75 317.648,-75 317.648,-39 371.648,-39 371.648,-75"/>
<text text-anchor="middle" x="344.648" y="-53.3" font-family="Times,serif" font-size="14.00">Eight</text>
</g>
<!-- Seven&#45;&gt;Eight -->
<g id="edge4" class="edge"><title>Seven&#45;&gt;Eight</title>
<path fill="none" stroke="grey" stroke-width="3" d="M344.648,-128.121C344.648,-115.402 344.648,-99.085 344.648,-85.3918"/>
<polygon fill="grey" stroke="grey" stroke-width="3" points="348.148,-85.0916 344.648,-75.0916 341.148,-85.0916 348.148,-85.0916"/>
</g>
</g>
</svg>
