<?xml version="1.0" encoding="UTF-8" standalone="no"?>
<!DOCTYPE svg PUBLIC "-//W3C//DTD SVG 1.1//EN"
 "http://www.w3.org/Graphics/SVG/1.1/DTD/svg11.dtd">
<!-- Generated by graphviz version 2.38.0 (20140413.2041)
 -->
<!-- Title: Perl Pages: 1 -->
<svg width="776pt" height="402pt"
 viewBox="0.00 0.00 775.90 401.58" xmlns="http://www.w3.org/2000/svg" xmlns:xlink="http://www.w3.org/1999/xlink">
<g id="graph0" class="graph" transform="scale(1 1) rotate(0) translate(4 397.581)">
<title>Perl</title>
<polygon fill="white" stroke="none" points="-4,4 -4,-397.581 771.896,-397.581 771.896,4 -4,4"/>
<text text-anchor="middle" x="383.948" y="-7.8" font-family="Times,serif" font-size="14.00">Adult</text>
<g id="clust2" class="cluster"><title>cluster_2</title>
<polygon fill="none" stroke="black" points="457.896,-180.187 457.896,-385.581 759.896,-385.581 759.896,-180.187 457.896,-180.187"/>
<text text-anchor="middle" x="608.896" y="-370.381" font-family="Times,serif" font-size="14.00">Grandchild</text>
</g>
<!-- Carnegie -->
<g id="node1" class="node"><title>Carnegie</title>
<ellipse fill="none" stroke="black" cx="42.8962" cy="-65.8962" rx="42.7926" ry="42.7926"/>
<text text-anchor="middle" x="42.8962" y="-62.1962" font-family="Times,serif" font-size="14.00">Carnegie</text>
</g>
<!-- Murrumbeena -->
<g id="node2" class="node"><title>Murrumbeena</title>
<ellipse fill="none" stroke="green" cx="94.8962" cy="-211.187" rx="62.2954" ry="62.2954"/>
<ellipse fill="none" stroke="green" cx="94.8962" cy="-211.187" rx="66.2891" ry="66.2891"/>
<text text-anchor="middle" x="94.8962" y="-207.487" font-family="Times,serif" font-size="14.00">Murrumbeena</text>
</g>
<!-- Murrumbeena&#45;&gt;Carnegie -->
<g id="edge1" class="edge"><title>Murrumbeena&#45;&gt;Carnegie</title>
<path fill="none" stroke="grey" d="M72.5417,-148.587C69.7521,-140.9 66.9052,-133.055 64.1332,-125.417"/>
<polygon fill="grey" stroke="grey" points="70.6717,-122.914 57.2689,-106.502 57.5115,-127.69 70.6717,-122.914"/>
</g>
<!-- Oakleigh -->
<g id="node3" class="node"><title>Oakleigh</title>
<ellipse fill="none" stroke="blue" cx="146.896" cy="-65.8962" rx="43.5923" ry="18"/>
<text text-anchor="middle" x="146.896" y="-62.1962" font-family="Times,serif" font-size="14.00">Oakleigh</text>
</g>
<!-- Murrumbeena&#45;&gt;Oakleigh -->
<g id="edge2" class="edge"><title>Murrumbeena&#45;&gt;Oakleigh</title>
<path fill="none" stroke="brown" d="M117.251,-148.587C124.296,-129.174 131.705,-108.756 137.354,-93.1893"/>
<polygon fill="brown" stroke="brown" points="140.67,-94.3137 140.791,-83.7195 134.09,-91.9257 140.67,-94.3137"/>
</g>
<!-- Chadstone -->
<g id="node4" class="node"><title>Chadstone</title>
<polygon fill="none" stroke="magenta" points="440.971,-336.581 412.433,-354.581 355.359,-354.581 326.822,-336.581 355.359,-318.581 412.433,-318.581 440.971,-336.581"/>
<text text-anchor="middle" x="383.896" y="-332.881" font-family="Times,serif" font-size="14.00">Chadstone</text>
</g>
<!-- Waverley -->
<g id="node5" class="node"><title>Waverley</title>
<polygon fill="none" stroke="orange" points="383.896,-229.187 319.714,-211.187 383.896,-193.187 448.079,-211.187 383.896,-229.187"/>
<text text-anchor="middle" x="383.896" y="-207.487" font-family="Times,serif" font-size="14.00">Waverley</text>
</g>
<!-- Chadstone&#45;&gt;Waverley -->
<g id="edge3" class="edge"><title>Chadstone&#45;&gt;Waverley</title>
<path fill="none" stroke="grey" d="M383.896,-318.424C383.896,-297.98 383.896,-263.566 383.896,-239.461"/>
<polygon fill="grey" stroke="grey" points="387.396,-239.199 383.896,-229.199 380.396,-239.199 387.396,-239.199"/>
</g>
<!-- Glen Waverley -->
<g id="node6" class="node"><title>Glen Waverley</title>
<polygon fill="none" stroke="#0000cd" points="690.178,-342.144 608.896,-354.581 527.615,-342.144 558.661,-322.019 659.131,-322.019 690.178,-342.144"/>
<text text-anchor="middle" x="608.896" y="-332.881" font-family="Times,serif" font-size="14.00">Glen Waverley</text>
</g>
<!-- Mount Waverley -->
<g id="node7" class="node"><title>Mount Waverley</title>
<polygon fill="none" stroke="darkslategrey" points="608.896,-234.187 465.922,-199.687 751.871,-199.687 608.896,-234.187"/>
<text text-anchor="middle" x="608.896" y="-207.487" font-family="Times,serif" font-size="14.00">Mount Waverley</text>
</g>
<!-- Glen Waverley&#45;&gt;Mount Waverley -->
<g id="edge4" class="edge"><title>Glen Waverley&#45;&gt;Mount Waverley</title>
<path fill="none" stroke="grey" d="M608.896,-321.904C608.896,-303.347 608.896,-269.619 608.896,-244.44"/>
<polygon fill="grey" stroke="grey" points="612.396,-244.241 608.896,-234.241 605.396,-244.241 612.396,-244.241"/>
</g>
<!-- Malvern -->
<g id="node8" class="node"><title>Malvern</title>
<polygon fill="none" stroke="cyan" points="160.896,-359.581 77.5105,-325.081 244.282,-325.081 160.896,-359.581"/>
<text text-anchor="middle" x="160.896" y="-332.881" font-family="Times,serif" font-size="14.00">Malvern</text>
</g>
<!-- Malvern&#45;&gt;Murrumbeena -->
<g id="edge6" class="edge"><title>Malvern&#45;&gt;Murrumbeena</title>
<path fill="none" stroke="grey" d="M155.269,-325.061C149.563,-314.392 140.22,-296.925 130.571,-278.884"/>
<polygon fill="grey" stroke="grey" points="133.626,-277.176 125.823,-270.009 127.454,-280.477 133.626,-277.176"/>
</g>
<!-- Prahran -->
<g id="node9" class="node"><title>Prahran</title>
<polygon fill="none" stroke="cyan" points="269.171,-229.187 202.622,-229.187 178.921,-193.187 292.872,-193.187 269.171,-229.187"/>
<text text-anchor="middle" x="235.896" y="-207.487" font-family="Times,serif" font-size="14.00">Prahran</text>
</g>
<!-- Malvern&#45;&gt;Prahran -->
<g id="edge5" class="edge"><title>Malvern&#45;&gt;Prahran</title>
<path fill="none" stroke="grey" d="M167.291,-325.061C178.939,-305.896 203.923,-264.79 220.309,-237.832"/>
<polygon fill="grey" stroke="grey" points="223.302,-239.647 225.505,-229.284 217.32,-236.011 223.302,-239.647"/>
</g>
</g>
</svg>
