<?xml version="1.0" encoding="UTF-8" standalone="no"?>
<!DOCTYPE svg PUBLIC "-//W3C//DTD SVG 1.1//EN"
 "http://www.w3.org/Graphics/SVG/1.1/DTD/svg11.dtd">
<!-- Generated by graphviz version 2.38.0 (20140413.2041)
 -->
<!-- Title: Perl Pages: 1 -->
<svg width="758pt" height="315pt"
 viewBox="0.00 0.00 757.90 314.79" xmlns="http://www.w3.org/2000/svg" xmlns:xlink="http://www.w3.org/1999/xlink">
<g id="graph0" class="graph" transform="scale(1 1) rotate(0) translate(4 310.792)">
<title>Perl</title>
<polygon fill="white" stroke="none" points="-4,4 -4,-310.792 753.896,-310.792 753.896,4 -4,4"/>
<text text-anchor="middle" x="374.948" y="-7.8" font-family="Times,serif" font-size="14.00">Adult</text>
<g id="clust2" class="cluster"><title>cluster_2</title>
<polygon fill="none" stroke="black" points="439.896,-136.792 439.896,-298.792 741.896,-298.792 741.896,-136.792 439.896,-136.792"/>
<text text-anchor="middle" x="590.896" y="-283.592" font-family="Times,serif" font-size="14.00">Grandchild</text>
</g>
<!-- Carnegie -->
<g id="node1" class="node"><title>Carnegie</title>
<ellipse fill="none" stroke="black" cx="42.8962" cy="-65.8962" rx="42.7926" ry="42.7926"/>
<text text-anchor="middle" x="42.8962" y="-62.1962" font-family="Times,serif" font-size="14.00">Carnegie</text>
</g>
<!-- Murrumbeena -->
<g id="node2" class="node"><title>Murrumbeena</title>
<polygon fill="none" stroke="green" points="142.896,-185.792 46.8962,-185.792 46.8962,-149.792 142.896,-149.792 142.896,-185.792"/>
<text text-anchor="middle" x="94.8962" y="-164.092" font-family="Times,serif" font-size="14.00">Murrumbeena</text>
</g>
<!-- Murrumbeena&#45;&gt;Carnegie -->
<g id="edge1" class="edge"><title>Murrumbeena&#45;&gt;Carnegie</title>
<path fill="none" stroke="grey" d="M85.8385,-149.392C81.8011,-141.636 76.7983,-132.025 71.6498,-122.134"/>
<polygon fill="grey" stroke="grey" points="77.8462,-118.877 62.4024,-104.369 65.4279,-125.342 77.8462,-118.877"/>
</g>
<!-- Oakleigh -->
<g id="node3" class="node"><title>Oakleigh</title>
<ellipse fill="none" stroke="blue" cx="146.896" cy="-65.8962" rx="43.5923" ry="18"/>
<text text-anchor="middle" x="146.896" y="-62.1962" font-family="Times,serif" font-size="14.00">Oakleigh</text>
</g>
<!-- Murrumbeena&#45;&gt;Oakleigh -->
<g id="edge2" class="edge"><title>Murrumbeena&#45;&gt;Oakleigh</title>
<path fill="none" stroke="brown" d="M103.954,-149.392C112.056,-133.827 124.046,-110.794 133.299,-93.0181"/>
<polygon fill="brown" stroke="brown" points="136.603,-94.2508 138.116,-83.7645 130.394,-91.0187 136.603,-94.2508"/>
</g>
<!-- Chadstone -->
<g id="node4" class="node"><title>Chadstone</title>
<polygon fill="none" stroke="magenta" points="422.971,-249.792 394.433,-267.792 337.359,-267.792 308.822,-249.792 337.359,-231.792 394.433,-231.792 422.971,-249.792"/>
<text text-anchor="middle" x="365.896" y="-246.092" font-family="Times,serif" font-size="14.00">Chadstone</text>
</g>
<!-- Waverley -->
<g id="node5" class="node"><title>Waverley</title>
<polygon fill="none" stroke="orange" points="365.896,-185.792 301.714,-167.792 365.896,-149.792 430.079,-167.792 365.896,-185.792"/>
<text text-anchor="middle" x="365.896" y="-164.092" font-family="Times,serif" font-size="14.00">Waverley</text>
</g>
<!-- Chadstone&#45;&gt;Waverley -->
<g id="edge3" class="edge"><title>Chadstone&#45;&gt;Waverley</title>
<path fill="none" stroke="grey" d="M365.896,-231.434C365.896,-221.09 365.896,-207.733 365.896,-196.013"/>
<polygon fill="grey" stroke="grey" points="369.396,-195.842 365.896,-185.842 362.396,-195.843 369.396,-195.842"/>
</g>
<!-- Glen Waverley -->
<g id="node6" class="node"><title>Glen Waverley</title>
<polygon fill="none" stroke="#0000cd" points="672.178,-255.355 590.896,-267.792 509.615,-255.355 540.661,-235.23 641.131,-235.23 672.178,-255.355"/>
<text text-anchor="middle" x="590.896" y="-246.092" font-family="Times,serif" font-size="14.00">Glen Waverley</text>
</g>
<!-- Mount Waverley -->
<g id="node7" class="node"><title>Mount Waverley</title>
<polygon fill="none" stroke="darkslategrey" points="590.896,-190.792 447.922,-156.292 733.871,-156.292 590.896,-190.792"/>
<text text-anchor="middle" x="590.896" y="-164.092" font-family="Times,serif" font-size="14.00">Mount Waverley</text>
</g>
<!-- Glen Waverley&#45;&gt;Mount Waverley -->
<g id="edge4" class="edge"><title>Glen Waverley&#45;&gt;Mount Waverley</title>
<path fill="none" stroke="grey" d="M590.896,-235.221C590.896,-225.843 590.896,-212.957 590.896,-201.028"/>
<polygon fill="grey" stroke="grey" points="594.396,-200.904 590.896,-190.904 587.396,-200.904 594.396,-200.904"/>
</g>
<!-- Malvern -->
<g id="node8" class="node"><title>Malvern</title>
<polygon fill="none" stroke="cyan" points="151.896,-272.792 68.5105,-238.292 235.282,-238.292 151.896,-272.792"/>
<text text-anchor="middle" x="151.896" y="-246.092" font-family="Times,serif" font-size="14.00">Malvern</text>
</g>
<!-- Malvern&#45;&gt;Murrumbeena -->
<g id="edge6" class="edge"><title>Malvern&#45;&gt;Murrumbeena</title>
<path fill="none" stroke="grey" d="M144.209,-238.003C136.233,-226.808 123.474,-208.902 112.933,-194.107"/>
<polygon fill="grey" stroke="grey" points="115.689,-191.943 107.036,-185.83 109.988,-196.005 115.689,-191.943"/>
</g>
<!-- Prahran -->
<g id="node9" class="node"><title>Prahran</title>
<polygon fill="none" stroke="cyan" points="251.171,-185.792 184.622,-185.792 160.921,-149.792 274.872,-149.792 251.171,-185.792"/>
<text text-anchor="middle" x="217.896" y="-164.092" font-family="Times,serif" font-size="14.00">Prahran</text>
</g>
<!-- Malvern&#45;&gt;Prahran -->
<g id="edge5" class="edge"><title>Malvern&#45;&gt;Prahran</title>
<path fill="none" stroke="grey" d="M160.797,-238.003C170.119,-226.704 185.083,-208.566 197.353,-193.693"/>
<polygon fill="grey" stroke="grey" points="200.176,-195.771 203.84,-185.83 194.776,-191.317 200.176,-195.771"/>
</g>
</g>
</svg>
