<?xml version="1.0" encoding="UTF-8" standalone="no"?>
<!DOCTYPE svg PUBLIC "-//W3C//DTD SVG 1.1//EN"
 "http://www.w3.org/Graphics/SVG/1.1/DTD/svg11.dtd">
<!-- Generated by graphviz version 2.38.0 (20140413.2041)
 -->
<!-- Title: Perl Pages: 1 -->
<svg width="445pt" height="300pt"
 viewBox="0.00 0.00 444.90 299.79" xmlns="http://www.w3.org/2000/svg" xmlns:xlink="http://www.w3.org/1999/xlink">
<g id="graph0" class="graph" transform="scale(1 1) rotate(0) translate(4 295.792)">
<title>Perl</title>
<polygon fill="white" stroke="none" points="-4,4 -4,-295.792 440.896,-295.792 440.896,4 -4,4"/>
<text text-anchor="middle" x="218.448" y="-7.8" font-family="Times,serif" font-size="14.00">Adult</text>
<g id="clust1" class="cluster"><title>cluster_1</title>
<polygon fill="none" stroke="black" points="284.896,-136.792 284.896,-283.792 428.896,-283.792 428.896,-136.792 284.896,-136.792"/>
<text text-anchor="middle" x="356.896" y="-268.592" font-family="Times,serif" font-size="14.00">Child</text>
</g>
<!-- Carnegie -->
<g id="node1" class="node"><title>Carnegie</title>
<ellipse fill="none" stroke="black" cx="42.8962" cy="-65.8962" rx="42.7926" ry="42.7926"/>
<text text-anchor="middle" x="42.8962" y="-62.1962" font-family="Times,serif" font-size="14.00">Carnegie</text>
</g>
<!-- Murrumbeena -->
<g id="node2" class="node"><title>Murrumbeena</title>
<polygon fill="none" stroke="green" points="142.896,-180.792 46.8962,-180.792 46.8962,-144.792 142.896,-144.792 142.896,-180.792"/>
<text text-anchor="middle" x="94.8962" y="-159.092" font-family="Times,serif" font-size="14.00">Murrumbeena</text>
</g>
<!-- Murrumbeena&#45;&gt;Carnegie -->
<g id="edge1" class="edge"><title>Murrumbeena&#45;&gt;Carnegie</title>
<path fill="none" stroke="grey" d="M85.3586,-144.387C81.7165,-137.74 77.3422,-129.758 72.8054,-121.478"/>
<polygon fill="grey" stroke="grey" points="78.8948,-118.024 63.145,-103.849 66.6173,-124.752 78.8948,-118.024"/>
</g>
<!-- Oakleigh -->
<g id="node3" class="node"><title>Oakleigh</title>
<ellipse fill="none" stroke="blue" cx="146.896" cy="-65.8962" rx="43.5923" ry="18"/>
<text text-anchor="middle" x="146.896" y="-62.1962" font-family="Times,serif" font-size="14.00">Oakleigh</text>
</g>
<!-- Murrumbeena&#45;&gt;Oakleigh -->
<g id="edge2" class="edge"><title>Murrumbeena&#45;&gt;Oakleigh</title>
<path fill="none" stroke="brown" d="M104.434,-144.387C112.375,-129.895 123.797,-109.051 132.795,-92.6303"/>
<polygon fill="brown" stroke="brown" points="136.032,-94.0065 137.768,-83.5548 129.893,-90.6426 136.032,-94.0065"/>
</g>
<!-- Chadstone -->
<g id="node4" class="node"><title>Chadstone</title>
<polygon fill="none" stroke="magenta" points="413.971,-234.792 385.433,-252.792 328.359,-252.792 299.822,-234.792 328.359,-216.792 385.433,-216.792 413.971,-234.792"/>
<text text-anchor="middle" x="356.896" y="-231.092" font-family="Times,serif" font-size="14.00">Chadstone</text>
</g>
<!-- Waverley -->
<g id="node5" class="node"><title>Waverley</title>
<polygon fill="none" stroke="orange" points="356.896,-180.792 292.714,-162.792 356.896,-144.792 421.079,-162.792 356.896,-180.792"/>
<text text-anchor="middle" x="356.896" y="-159.092" font-family="Times,serif" font-size="14.00">Waverley</text>
</g>
<!-- Chadstone&#45;&gt;Waverley -->
<g id="edge3" class="edge"><title>Chadstone&#45;&gt;Waverley</title>
<path fill="none" stroke="grey" d="M356.896,-216.489C356.896,-208.775 356.896,-199.505 356.896,-190.905"/>
<polygon fill="grey" stroke="grey" points="360.396,-190.897 356.896,-180.897 353.396,-190.897 360.396,-190.897"/>
</g>
<!-- Malvern -->
<g id="node6" class="node"><title>Malvern</title>
<polygon fill="none" stroke="cyan" points="155.896,-252.792 97.2436,-234.792 155.896,-216.792 214.549,-234.792 155.896,-252.792"/>
<text text-anchor="middle" x="155.896" y="-231.092" font-family="Times,serif" font-size="14.00">Malvern</text>
</g>
<!-- Malvern&#45;&gt;Murrumbeena -->
<g id="edge5" class="edge"><title>Malvern&#45;&gt;Murrumbeena</title>
<path fill="none" stroke="grey" d="M144.135,-220.296C136.355,-211.368 125.919,-199.392 116.657,-188.764"/>
<polygon fill="grey" stroke="grey" points="119.076,-186.212 109.867,-180.972 113.798,-190.811 119.076,-186.212"/>
</g>
<!-- Prahran -->
<g id="node7" class="node"><title>Prahran</title>
<polygon fill="none" stroke="cyan" points="251.171,-180.792 184.622,-180.792 160.921,-144.792 274.872,-144.792 251.171,-180.792"/>
<text text-anchor="middle" x="217.896" y="-159.092" font-family="Times,serif" font-size="14.00">Prahran</text>
</g>
<!-- Malvern&#45;&gt;Prahran -->
<g id="edge4" class="edge"><title>Malvern&#45;&gt;Prahran</title>
<path fill="none" stroke="grey" d="M167.85,-220.296C175.758,-211.368 186.365,-199.392 195.778,-188.764"/>
<polygon fill="grey" stroke="grey" points="198.669,-190.779 202.68,-180.972 193.429,-186.138 198.669,-190.779"/>
</g>
</g>
</svg>
