<?xml version="1.0" encoding="UTF-8" standalone="no"?>
<!DOCTYPE svg PUBLIC "-//W3C//DTD SVG 1.1//EN"
 "http://www.w3.org/Graphics/SVG/1.1/DTD/svg11.dtd">
<!-- Generated by graphviz version 2.38.0 (20140413.2041)
 -->
<!-- Title: Perl Pages: 1 -->
<svg width="463pt" height="397pt"
 viewBox="0.00 0.00 462.90 396.58" xmlns="http://www.w3.org/2000/svg" xmlns:xlink="http://www.w3.org/1999/xlink">
<g id="graph0" class="graph" transform="scale(1 1) rotate(0) translate(4 392.581)">
<title>Perl</title>
<polygon fill="white" stroke="none" points="-4,4 -4,-392.581 458.896,-392.581 458.896,4 -4,4"/>
<text text-anchor="middle" x="227.448" y="-7.8" font-family="Times,serif" font-size="14.00">Adult</text>
<g id="clust1" class="cluster"><title>cluster_1</title>
<polygon fill="none" stroke="black" points="302.896,-185.187 302.896,-380.581 446.896,-380.581 446.896,-185.187 302.896,-185.187"/>
<text text-anchor="middle" x="374.896" y="-365.381" font-family="Times,serif" font-size="14.00">Child</text>
</g>
<!-- Carnegie -->
<g id="node1" class="node"><title>Carnegie</title>
<ellipse fill="none" stroke="black" cx="42.8962" cy="-65.8962" rx="42.7926" ry="42.7926"/>
<text text-anchor="middle" x="42.8962" y="-62.1962" font-family="Times,serif" font-size="14.00">Carnegie</text>
</g>
<!-- Murrumbeena -->
<g id="node2" class="node"><title>Murrumbeena</title>
<ellipse fill="none" stroke="green" cx="94.8962" cy="-211.187" rx="62.2954" ry="62.2954"/>
<ellipse fill="none" stroke="green" cx="94.8962" cy="-211.187" rx="66.2891" ry="66.2891"/>
<text text-anchor="middle" x="94.8962" y="-207.487" font-family="Times,serif" font-size="14.00">Murrumbeena</text>
</g>
<!-- Murrumbeena&#45;&gt;Carnegie -->
<g id="edge1" class="edge"><title>Murrumbeena&#45;&gt;Carnegie</title>
<path fill="none" stroke="grey" d="M72.5417,-148.587C69.7521,-140.9 66.9052,-133.055 64.1332,-125.417"/>
<polygon fill="grey" stroke="grey" points="70.6717,-122.914 57.2689,-106.502 57.5115,-127.69 70.6717,-122.914"/>
</g>
<!-- Oakleigh -->
<g id="node3" class="node"><title>Oakleigh</title>
<ellipse fill="none" stroke="blue" cx="146.896" cy="-65.8962" rx="43.5923" ry="18"/>
<text text-anchor="middle" x="146.896" y="-62.1962" font-family="Times,serif" font-size="14.00">Oakleigh</text>
</g>
<!-- Murrumbeena&#45;&gt;Oakleigh -->
<g id="edge2" class="edge"><title>Murrumbeena&#45;&gt;Oakleigh</title>
<path fill="none" stroke="brown" d="M117.251,-148.587C124.296,-129.174 131.705,-108.756 137.354,-93.1893"/>
<polygon fill="brown" stroke="brown" points="140.67,-94.3137 140.791,-83.7195 134.09,-91.9257 140.67,-94.3137"/>
</g>
<!-- Chadstone -->
<g id="node4" class="node"><title>Chadstone</title>
<polygon fill="none" stroke="magenta" points="431.971,-331.581 403.433,-349.581 346.359,-349.581 317.822,-331.581 346.359,-313.581 403.433,-313.581 431.971,-331.581"/>
<text text-anchor="middle" x="374.896" y="-327.881" font-family="Times,serif" font-size="14.00">Chadstone</text>
</g>
<!-- Waverley -->
<g id="node5" class="node"><title>Waverley</title>
<polygon fill="none" stroke="orange" points="374.896,-229.187 310.714,-211.187 374.896,-193.187 439.079,-211.187 374.896,-229.187"/>
<text text-anchor="middle" x="374.896" y="-207.487" font-family="Times,serif" font-size="14.00">Waverley</text>
</g>
<!-- Chadstone&#45;&gt;Waverley -->
<g id="edge3" class="edge"><title>Chadstone&#45;&gt;Waverley</title>
<path fill="none" stroke="grey" d="M374.896,-313.366C374.896,-293.988 374.896,-262.245 374.896,-239.479"/>
<polygon fill="grey" stroke="grey" points="378.396,-239.423 374.896,-229.423 371.396,-239.423 378.396,-239.423"/>
</g>
<!-- Malvern -->
<g id="node6" class="node"><title>Malvern</title>
<polygon fill="none" stroke="cyan" points="164.896,-349.581 106.244,-331.581 164.896,-313.581 223.549,-331.581 164.896,-349.581"/>
<text text-anchor="middle" x="164.896" y="-327.881" font-family="Times,serif" font-size="14.00">Malvern</text>
</g>
<!-- Malvern&#45;&gt;Murrumbeena -->
<g id="edge5" class="edge"><title>Malvern&#45;&gt;Murrumbeena</title>
<path fill="none" stroke="grey" d="M156.313,-316.064C150.392,-306.05 142.061,-291.958 133.439,-277.377"/>
<polygon fill="grey" stroke="grey" points="136.448,-275.588 128.346,-268.762 130.422,-279.151 136.448,-275.588"/>
</g>
<!-- Prahran -->
<g id="node7" class="node"><title>Prahran</title>
<polygon fill="none" stroke="cyan" points="269.171,-229.187 202.622,-229.187 178.921,-193.187 292.872,-193.187 269.171,-229.187"/>
<text text-anchor="middle" x="235.896" y="-207.487" font-family="Times,serif" font-size="14.00">Prahran</text>
</g>
<!-- Malvern&#45;&gt;Prahran -->
<g id="edge4" class="edge"><title>Malvern&#45;&gt;Prahran</title>
<path fill="none" stroke="grey" d="M173.602,-316.064C185.226,-296.681 206.011,-262.021 220.356,-238.101"/>
<polygon fill="grey" stroke="grey" points="223.364,-239.89 225.506,-229.513 217.361,-236.289 223.364,-239.89"/>
</g>
</g>
</svg>
