<?xml version="1.0" encoding="UTF-8" standalone="no"?>
<!DOCTYPE svg PUBLIC "-//W3C//DTD SVG 1.1//EN"
 "http://www.w3.org/Graphics/SVG/1.1/DTD/svg11.dtd">
<!-- Generated by graphviz version 2.38.0 (20140413.2041)
 -->
<!-- Title: Perl Pages: 1 -->
<svg width="198pt" height="166pt"
 viewBox="0.00 0.00 198.44 165.79" xmlns="http://www.w3.org/2000/svg" xmlns:xlink="http://www.w3.org/1999/xlink">
<g id="graph0" class="graph" transform="scale(1 1) rotate(0) translate(4 161.792)">
<title>Perl</title>
<polygon fill="white" stroke="none" points="-4,4 -4,-161.792 194.442,-161.792 194.442,4 -4,4"/>
<!-- Carnegie -->
<g id="node1" class="node"><title>Carnegie</title>
<ellipse fill="red" stroke="red" cx="42.8962" cy="-42.8962" rx="42.7926" ry="42.7926"/>
<text text-anchor="middle" x="42.8962" y="-39.1962" font-family="Times,serif" font-size="14.00">Carnegie</text>
</g>
<!-- Murrumbeena -->
<g id="node2" class="node"><title>Murrumbeena</title>
<path fill="none" stroke="green" d="M130.896,-157.792C130.896,-157.792 58.8962,-157.792 58.8962,-157.792 52.8962,-157.792 46.8962,-151.792 46.8962,-145.792 46.8962,-145.792 46.8962,-133.792 46.8962,-133.792 46.8962,-127.792 52.8962,-121.792 58.8962,-121.792 58.8962,-121.792 130.896,-121.792 130.896,-121.792 136.896,-121.792 142.896,-127.792 142.896,-133.792 142.896,-133.792 142.896,-145.792 142.896,-145.792 142.896,-151.792 136.896,-157.792 130.896,-157.792"/>
<text text-anchor="middle" x="94.8962" y="-136.092" font-family="Times,serif" font-size="14.00">Murrumbeena</text>
</g>
<!-- Murrumbeena&#45;&gt;Carnegie -->
<g id="edge1" class="edge"><title>Murrumbeena&#45;&gt;Carnegie</title>
<path fill="none" stroke="grey" d="M85.3586,-121.387C81.7165,-114.74 77.3422,-106.758 72.8054,-98.4783"/>
<polygon fill="grey" stroke="grey" points="78.8948,-95.0243 63.145,-80.8488 66.6173,-101.752 78.8948,-95.0243"/>
</g>
<!-- Oakleigh -->
<g id="node3" class="node"><title>Oakleigh</title>
<ellipse fill="none" stroke="blue" cx="146.896" cy="-42.8962" rx="43.5923" ry="18"/>
<text text-anchor="middle" x="146.896" y="-39.1962" font-family="Times,serif" font-size="14.00">Oakleigh</text>
</g>
<!-- Murrumbeena&#45;&gt;Oakleigh -->
<g id="edge2" class="edge"><title>Murrumbeena&#45;&gt;Oakleigh</title>
<path fill="none" stroke="brown" d="M104.434,-121.387C108.479,-114.005 113.426,-104.976 118.497,-95.7226"/>
<polygon fill="brown" stroke="brown" points="130.823,-102.361 137.768,-60.5548 106.268,-88.9058 130.823,-102.361"/>
</g>
</g>
</svg>
