<?xml version="1.0" encoding="UTF-8" standalone="no"?>
<!DOCTYPE svg PUBLIC "-//W3C//DTD SVG 1.1//EN"
 "http://www.w3.org/Graphics/SVG/1.1/DTD/svg11.dtd">
<!-- Generated by graphviz version 2.38.0 (20140413.2041)
 -->
<!-- Title: Perl Pages: 1 -->
<svg width="309pt" height="139pt"
 viewBox="0.00 0.00 309.48 139.00" xmlns="http://www.w3.org/2000/svg" xmlns:xlink="http://www.w3.org/1999/xlink">
<g id="graph0" class="graph" transform="scale(1 1) rotate(0) translate(4 135)">
<title>Perl</title>
<polygon fill="white" stroke="none" points="-4,4 -4,-135 305.482,-135 305.482,4 -4,4"/>
<text text-anchor="middle" x="150.741" y="-7.8" font-family="Times,serif" font-size="14.00">Named and unnamed subgraphs</text>
<!-- Chadstone -->
<g id="node1" class="node"><title>Chadstone</title>
<polygon fill="none" stroke="magenta" points="121.415,-113 92.8782,-131 35.8039,-131 7.26669,-113 35.8039,-95 92.8782,-95 121.415,-113"/>
<text text-anchor="middle" x="64.341" y="-109.3" font-family="Times,serif" font-size="14.00">Chadstone</text>
</g>
<!-- Waverley -->
<g id="node2" class="node"><title>Waverley</title>
<polygon fill="none" stroke="orange" points="64.341,-59 0.1586,-41 64.341,-23 128.523,-41 64.341,-59"/>
<text text-anchor="middle" x="64.341" y="-37.3" font-family="Times,serif" font-size="14.00">Waverley</text>
</g>
<!-- Chadstone&#45;&gt;Waverley -->
<g id="edge1" class="edge"><title>Chadstone&#45;&gt;Waverley</title>
<path fill="none" stroke="grey" d="M64.341,-94.6966C64.341,-86.9827 64.341,-77.7125 64.341,-69.1124"/>
<polygon fill="grey" stroke="grey" points="67.8411,-69.1043 64.341,-59.1043 60.8411,-69.1044 67.8411,-69.1043"/>
</g>
<!-- Glen Waverley -->
<g id="node3" class="node"><title>Glen Waverley</title>
<polygon fill="none" stroke="#0000cd" points="301.623,-118.562 220.341,-131 139.059,-118.562 170.106,-98.4377 270.576,-98.4377 301.623,-118.562"/>
<text text-anchor="middle" x="220.341" y="-109.3" font-family="Times,serif" font-size="14.00">Glen Waverley</text>
</g>
<!-- Mount Waverley -->
<g id="node4" class="node"><title>Mount Waverley</title>
<polygon fill="none" stroke="darkslategrey" points="275.341,-59 165.341,-59 165.341,-23 275.341,-23 275.341,-59"/>
<text text-anchor="middle" x="220.341" y="-37.3" font-family="Times,serif" font-size="14.00">Mount Waverley</text>
</g>
<!-- Glen Waverley&#45;&gt;Mount Waverley -->
<g id="edge2" class="edge"><title>Glen Waverley&#45;&gt;Mount Waverley</title>
<path fill="none" stroke="grey" d="M220.341,-98.1703C220.341,-89.9188 220.341,-79.1528 220.341,-69.2563"/>
<polygon fill="grey" stroke="grey" points="223.841,-69.019 220.341,-59.019 216.841,-69.0191 223.841,-69.019"/>
</g>
</g>
</svg>
