<?xml version="1.0" encoding="UTF-8" standalone="no"?>
<!DOCTYPE svg PUBLIC "-//W3C//DTD SVG 1.1//EN"
 "http://www.w3.org/Graphics/SVG/1.1/DTD/svg11.dtd">
<!-- Generated by graphviz version 2.38.0 (20140413.2041)
 -->
<!-- Title: Perl Pages: 1 -->
<svg width="325pt" height="277pt"
 viewBox="0.00 0.00 325.19 277.00" xmlns="http://www.w3.org/2000/svg" xmlns:xlink="http://www.w3.org/1999/xlink">
<g id="graph0" class="graph" transform="scale(1 1) rotate(0) translate(4 273)">
<title>Perl</title>
<polygon fill="white" stroke="none" points="-4,4 -4,-273 321.186,-273 321.186,4 -4,4"/>
<!-- Zero -->
<g id="node1" class="node"><title>Zero</title>
<ellipse fill="none" stroke="black" cx="150.194" cy="-251" rx="81.7856" ry="18"/>
<text text-anchor="middle" x="150.194" y="-247.3" font-family="Times,serif" font-size="14.00">The Orient Express</text>
</g>
<!-- One -->
<g id="node2" class="node"><title>One</title>
<ellipse fill="none" stroke="black" cx="70.1938" cy="-178" rx="70.3881" ry="18"/>
<text text-anchor="middle" x="70.1938" y="-174.3" font-family="Times,serif" font-size="14.00">Reichwaldstraße</text>
</g>
<!-- Zero&#45;&gt;One -->
<g id="edge1" class="edge"><title>Zero&#45;&gt;One</title>
<path fill="none" stroke="grey" d="M131.235,-233.174C120.798,-223.912 107.69,-212.278 96.2987,-202.168"/>
<polygon fill="grey" stroke="grey" points="98.5431,-199.48 88.7406,-195.46 93.8966,-204.716 98.5431,-199.48"/>
</g>
<!-- Three -->
<g id="node4" class="node"><title>Three</title>
<ellipse fill="none" stroke="black" cx="231.194" cy="-178" rx="72.5877" ry="18"/>
<text text-anchor="middle" x="231.194" y="-174.3" font-family="Times,serif" font-size="14.00">ʎ ʏ ʐ ʑ ʒ ʓ ʙ ʚ</text>
</g>
<!-- Zero&#45;&gt;Three -->
<g id="edge2" class="edge"><title>Zero&#45;&gt;Three</title>
<path fill="none" stroke="grey" d="M169.39,-233.174C179.957,-223.912 193.229,-212.278 204.763,-202.168"/>
<polygon fill="grey" stroke="grey" points="207.202,-204.684 212.415,-195.46 202.588,-199.42 207.202,-204.684"/>
</g>
<!-- Two -->
<g id="node3" class="node"><title>Two</title>
<ellipse fill="none" stroke="black" cx="79.1938" cy="-105" rx="37.0935" ry="18"/>
<text text-anchor="middle" x="79.1938" y="-101.3" font-family="Times,serif" font-size="14.00">Böhme</text>
</g>
<!-- One&#45;&gt;Two -->
<g id="edge3" class="edge"><title>One&#45;&gt;Two</title>
<path fill="none" stroke="grey" d="M72.3724,-159.813C73.3895,-151.789 74.6244,-142.047 75.7625,-133.069"/>
<polygon fill="grey" stroke="grey" points="79.2498,-133.39 77.0352,-123.029 72.3053,-132.509 79.2498,-133.39"/>
</g>
<!-- Five -->
<g id="node6" class="node"><title>Five</title>
<ellipse fill="none" stroke="black" cx="158.194" cy="-18" rx="102.082" ry="18"/>
<text text-anchor="middle" x="158.194" y="-14.3" font-family="Times,serif" font-size="14.00">ΔΔΔΔΔΔΔΔΔΔΔΔΔΔΔΔΔ</text>
</g>
<!-- Two&#45;&gt;Five -->
<g id="edge5" class="edge"><title>Two&#45;&gt;Five</title>
<path fill="none" stroke="grey" d="M86.7082,-87.0387C91.8042,-76.7451 99.2344,-63.7566 108.194,-54 112.28,-49.5502 117.026,-45.3464 121.936,-41.4997"/>
<polygon fill="grey" stroke="grey" points="124.277,-44.1231 130.265,-35.3828 120.133,-38.4812 124.277,-44.1231"/>
<text text-anchor="middle" x="146.194" y="-57.8" font-family="Times,serif" font-size="14.00">Label has a ☃</text>
</g>
<!-- Four -->
<g id="node5" class="node"><title>Four</title>
<ellipse fill="none" stroke="black" cx="226.194" cy="-105" rx="90.9839" ry="18"/>
<text text-anchor="middle" x="226.194" y="-101.3" font-family="Times,serif" font-size="14.00">Πηληϊάδεω Ἀχιλῆος</text>
</g>
<!-- Three&#45;&gt;Four -->
<g id="edge4" class="edge"><title>Three&#45;&gt;Four</title>
<path fill="none" stroke="grey" d="M229.983,-159.813C229.418,-151.789 228.732,-142.047 228.1,-133.069"/>
<polygon fill="grey" stroke="grey" points="231.587,-132.758 227.393,-123.029 224.604,-133.25 231.587,-132.758"/>
</g>
<!-- Four&#45;&gt;Five -->
<g id="edge6" class="edge"><title>Four&#45;&gt;Five</title>
<path fill="none" stroke="grey" d="M212.433,-86.799C202.599,-74.5062 189.213,-57.7736 178.2,-44.0073"/>
<polygon fill="grey" stroke="grey" points="180.682,-41.5076 171.702,-35.8854 175.216,-45.8805 180.682,-41.5076"/>
<text text-anchor="middle" x="235.694" y="-57.8" font-family="Times,serif" font-size="14.00">Label has a ✔</text>
</g>
</g>
</svg>
