<?xml version="1.0" encoding="UTF-8" standalone="no"?>
<!DOCTYPE svg PUBLIC "-//W3C//DTD SVG 1.1//EN"
 "http://www.w3.org/Graphics/SVG/1.1/DTD/svg11.dtd">
<!-- Generated by graphviz version 2.38.0 (20140413.2041)
 -->
<!-- Title: Perl Pages: 1 -->
<svg width="1080pt" height="1035pt"
 viewBox="0.00 0.00 1079.50 1035.00" xmlns="http://www.w3.org/2000/svg" xmlns:xlink="http://www.w3.org/1999/xlink">
<g id="graph0" class="graph" transform="scale(1 1) rotate(0) translate(4 1031)">
<title>Perl</title>
<polygon fill="white" stroke="none" points="-4,4 -4,-1031 1075.5,-1031 1075.5,4 -4,4"/>
<text text-anchor="middle" x="535.75" y="-7.8" font-family="Times,serif" font-size="14.00">points.bnf</text>
<!-- coordinate_pairs -->
<g id="node1" class="node"><title>coordinate_pairs</title>
<path fill="lightgreen" stroke="black" d="M524.5,-980.5C524.5,-980.5 607.5,-980.5 607.5,-980.5 613.5,-980.5 619.5,-986.5 619.5,-992.5 619.5,-992.5 619.5,-1014.5 619.5,-1014.5 619.5,-1020.5 613.5,-1026.5 607.5,-1026.5 607.5,-1026.5 524.5,-1026.5 524.5,-1026.5 518.5,-1026.5 512.5,-1020.5 512.5,-1014.5 512.5,-1014.5 512.5,-992.5 512.5,-992.5 512.5,-986.5 518.5,-980.5 524.5,-980.5"/>
<text text-anchor="middle" x="566" y="-1011.3" font-family="Times,serif" font-size="14.00">:start</text>
<polyline fill="none" stroke="black" points="512.5,-1003.5 619.5,-1003.5 "/>
<text text-anchor="middle" x="566" y="-988.3" font-family="Times,serif" font-size="14.00">coordinate_pairs</text>
</g>
<!-- ꞉default -->
<g id="node2" class="node"><title>꞉default</title>
<polygon fill="lightblue" stroke="black" points="438.5,-944 379.5,-944 379.5,-908 438.5,-908 438.5,-944"/>
<text text-anchor="middle" x="409" y="-922.3" font-family="Times,serif" font-size="14.00">꞉default</text>
</g>
<!-- coordinate_pairs&#45;&gt;꞉default -->
<g id="edge1" class="edge"><title>coordinate_pairs&#45;&gt;꞉default</title>
<path fill="none" stroke="grey" d="M520.167,-980.459C497.2,-969.415 469.693,-956.187 447.787,-945.652"/>
<polygon fill="grey" stroke="grey" points="449.3,-942.496 438.771,-941.317 446.267,-948.805 449.3,-942.496"/>
</g>
<!-- ꞉discard -->
<g id="node4" class="node"><title>꞉discard</title>
<polygon fill="lightblue" stroke="black" points="538,-944 478,-944 478,-908 538,-908 538,-944"/>
<text text-anchor="middle" x="508" y="-922.3" font-family="Times,serif" font-size="14.00">꞉discard</text>
</g>
<!-- coordinate_pairs&#45;&gt;꞉discard -->
<g id="edge3" class="edge"><title>coordinate_pairs&#45;&gt;꞉discard</title>
<path fill="none" stroke="grey" d="M548.912,-980.256C542.158,-971.464 534.36,-961.314 527.396,-952.248"/>
<polygon fill="grey" stroke="grey" points="530.156,-950.095 521.288,-944.298 524.605,-954.36 530.156,-950.095"/>
</g>
<!-- coordinate_pair -->
<g id="node7" class="node"><title>coordinate_pair</title>
<polygon fill="white" stroke="black" points="741.5,-871.5 640.5,-871.5 640.5,-835.5 741.5,-835.5 741.5,-871.5"/>
<text text-anchor="middle" x="691" y="-849.8" font-family="Times,serif" font-size="14.00">coordinate_pair</text>
</g>
<!-- coordinate_pairs&#45;&gt;coordinate_pair -->
<g id="edge6" class="edge"><title>coordinate_pairs&#45;&gt;coordinate_pair</title>
<path fill="none" stroke="grey" d="M565.185,-980.41C565.541,-959.709 569.081,-928.901 585,-908 596.592,-892.78 613.712,-881.563 630.827,-873.448"/>
<polygon fill="grey" stroke="grey" points="632.574,-876.503 640.3,-869.253 629.739,-870.102 632.574,-876.503"/>
</g>
<!-- coordinate_pair coordinate_pairs -->
<g id="node8" class="node"><title>coordinate_pair coordinate_pairs</title>
<polygon fill="white" stroke="black" points="788.5,-944 593.5,-944 593.5,-908 788.5,-908 788.5,-944"/>
<text text-anchor="middle" x="691" y="-922.3" font-family="Times,serif" font-size="14.00">coordinate_pair coordinate_pairs</text>
</g>
<!-- coordinate_pairs&#45;&gt;coordinate_pair coordinate_pairs -->
<g id="edge7" class="edge"><title>coordinate_pairs&#45;&gt;coordinate_pair coordinate_pairs</title>
<path fill="none" stroke="grey" d="M596.29,-980.459C611.884,-970.6 631.085,-959.001 648.151,-949.131"/>
<polygon fill="grey" stroke="grey" points="649.914,-952.155 656.85,-944.146 646.433,-946.082 649.914,-952.155"/>
</g>
<!-- ꞉default_1 -->
<g id="node3" class="node"><title>꞉default_1</title>
<path fill="goldenrod" stroke="black" d="M343.5,-835.5C343.5,-835.5 436.5,-835.5 436.5,-835.5 442.5,-835.5 448.5,-841.5 448.5,-847.5 448.5,-847.5 448.5,-859.5 448.5,-859.5 448.5,-865.5 442.5,-871.5 436.5,-871.5 436.5,-871.5 343.5,-871.5 343.5,-871.5 337.5,-871.5 331.5,-865.5 331.5,-859.5 331.5,-859.5 331.5,-847.5 331.5,-847.5 331.5,-841.5 337.5,-835.5 343.5,-835.5"/>
<text text-anchor="middle" x="390" y="-849.8" font-family="Times,serif" font-size="14.00">action =&gt; [values]</text>
</g>
<!-- ꞉default&#45;&gt;꞉default_1 -->
<g id="edge2" class="edge"><title>꞉default&#45;&gt;꞉default_1</title>
<path fill="none" stroke="grey" d="M404.401,-907.934C402.285,-900.084 399.723,-890.578 397.35,-881.772"/>
<polygon fill="grey" stroke="grey" points="400.671,-880.643 394.689,-871.899 393.912,-882.465 400.671,-880.643"/>
</g>
<!-- comma -->
<g id="node5" class="node"><title>comma</title>
<polygon fill="lightblue" stroke="black" points="525,-871.5 467,-871.5 467,-835.5 525,-835.5 525,-871.5"/>
<text text-anchor="middle" x="496" y="-849.8" font-family="Times,serif" font-size="14.00">comma</text>
</g>
<!-- ꞉discard&#45;&gt;comma -->
<g id="edge4" class="edge"><title>꞉discard&#45;&gt;comma</title>
<path fill="none" stroke="grey" d="M505.095,-907.934C503.759,-900.084 502.141,-890.578 500.642,-881.772"/>
<polygon fill="grey" stroke="grey" points="504.09,-881.17 498.961,-871.899 497.189,-882.344 504.09,-881.17"/>
</g>
<!-- whitespace -->
<g id="node6" class="node"><title>whitespace</title>
<polygon fill="lightblue" stroke="black" points="620.5,-871.5 543.5,-871.5 543.5,-835.5 620.5,-835.5 620.5,-871.5"/>
<text text-anchor="middle" x="582" y="-849.8" font-family="Times,serif" font-size="14.00">whitespace</text>
</g>
<!-- ꞉discard&#45;&gt;whitespace -->
<g id="edge5" class="edge"><title>꞉discard&#45;&gt;whitespace</title>
<path fill="none" stroke="grey" d="M525.913,-907.934C535.117,-899.166 546.489,-888.331 556.583,-878.715"/>
<polygon fill="grey" stroke="grey" points="559.169,-881.085 563.995,-871.653 554.341,-876.017 559.169,-881.085"/>
</g>
<!-- &#39;,&#39; -->
<g id="node35" class="node"><title>&#39;,&#39;</title>
<polygon fill="white" stroke="black" points="523,-799 469,-799 469,-763 523,-763 523,-799"/>
<text text-anchor="middle" x="496" y="-777.3" font-family="Times,serif" font-size="14.00">&#39;,&#39;</text>
</g>
<!-- comma&#45;&gt;&#39;,&#39; -->
<g id="edge54" class="edge"><title>comma&#45;&gt;&#39;,&#39;</title>
<path fill="none" stroke="grey" d="M496,-835.434C496,-827.67 496,-818.284 496,-809.56"/>
<polygon fill="grey" stroke="grey" points="499.5,-809.399 496,-799.399 492.5,-809.399 499.5,-809.399"/>
</g>
<!-- [\\s] -->
<g id="node36" class="node"><title>[\\s]</title>
<polygon fill="white" stroke="black" points="607,-799 553,-799 553,-763 607,-763 607,-799"/>
<text text-anchor="middle" x="580" y="-777.3" font-family="Times,serif" font-size="14.00">[\s]+</text>
</g>
<!-- whitespace&#45;&gt;[\\s] -->
<g id="edge55" class="edge"><title>whitespace&#45;&gt;[\\s]</title>
<path fill="none" stroke="grey" d="M581.516,-835.434C581.296,-827.67 581.029,-818.284 580.782,-809.56"/>
<polygon fill="grey" stroke="grey" points="584.276,-809.295 580.494,-799.399 577.279,-809.494 584.276,-809.295"/>
</g>
<!-- coordinate coordinate -->
<g id="node9" class="node"><title>coordinate coordinate</title>
<polygon fill="white" stroke="black" points="759,-799 625,-799 625,-763 759,-763 759,-799"/>
<text text-anchor="middle" x="692" y="-777.3" font-family="Times,serif" font-size="14.00">coordinate coordinate</text>
</g>
<!-- coordinate_pair&#45;&gt;coordinate coordinate -->
<g id="edge10" class="edge"><title>coordinate_pair&#45;&gt;coordinate coordinate</title>
<path fill="none" stroke="grey" d="M691.242,-835.434C691.352,-827.67 691.485,-818.284 691.609,-809.56"/>
<polygon fill="grey" stroke="grey" points="695.111,-809.447 691.753,-799.399 688.112,-809.348 695.111,-809.447"/>
</g>
<!-- coordinate_pair coordinate_pairs&#45;&gt;coordinate_pairs -->
<g id="edge9" class="edge"><title>coordinate_pair coordinate_pairs&#45;&gt;coordinate_pairs</title>
<path fill="none" stroke="grey" d="M668.375,-944.146C654.185,-953.308 635.404,-964.803 617.776,-975.163"/>
<polygon fill="grey" stroke="grey" points="615.568,-972.399 608.692,-980.459 619.094,-978.446 615.568,-972.399"/>
</g>
<!-- coordinate_pair coordinate_pairs&#45;&gt;coordinate_pair -->
<g id="edge8" class="edge"><title>coordinate_pair coordinate_pairs&#45;&gt;coordinate_pair</title>
<path fill="none" stroke="grey" d="M691,-907.934C691,-900.17 691,-890.784 691,-882.06"/>
<polygon fill="grey" stroke="grey" points="694.5,-881.899 691,-871.899 687.5,-881.899 694.5,-881.899"/>
</g>
<!-- coordinate -->
<g id="node10" class="node"><title>coordinate</title>
<polygon fill="white" stroke="black" points="729,-727 655,-727 655,-691 729,-691 729,-727"/>
<text text-anchor="middle" x="692" y="-705.3" font-family="Times,serif" font-size="14.00">coordinate</text>
</g>
<!-- coordinate coordinate&#45;&gt;coordinate -->
<g id="edge11" class="edge"><title>coordinate coordinate&#45;&gt;coordinate</title>
<path fill="none" stroke="grey" d="M686.084,-762.697C685.289,-754.983 685.062,-745.712 685.405,-737.112"/>
<polygon fill="grey" stroke="grey" points="688.898,-737.324 686.105,-727.104 681.915,-736.836 688.898,-737.324"/>
</g>
<!-- coordinate coordinate&#45;&gt;coordinate -->
<g id="edge12" class="edge"><title>coordinate coordinate&#45;&gt;coordinate</title>
<path fill="none" stroke="grey" d="M697.916,-762.697C698.711,-754.983 698.938,-745.712 698.595,-737.112"/>
<polygon fill="grey" stroke="grey" points="702.085,-736.836 697.895,-727.104 695.102,-737.324 702.085,-736.836"/>
</g>
<!-- float -->
<g id="node11" class="node"><title>float</title>
<polygon fill="white" stroke="black" points="599,-655 545,-655 545,-619 599,-619 599,-655"/>
<text text-anchor="middle" x="572" y="-633.3" font-family="Times,serif" font-size="14.00">float</text>
</g>
<!-- coordinate&#45;&gt;float -->
<g id="edge13" class="edge"><title>coordinate&#45;&gt;float</title>
<path fill="none" stroke="grey" d="M662.645,-690.876C646.1,-681.225 625.307,-669.096 607.81,-658.889"/>
<polygon fill="grey" stroke="grey" points="609.402,-655.766 599,-653.75 605.875,-661.812 609.402,-655.766"/>
</g>
<!-- integer -->
<g id="node13" class="node"><title>integer</title>
<polygon fill="white" stroke="black" points="871,-655 817,-655 817,-619 871,-619 871,-655"/>
<text text-anchor="middle" x="844" y="-633.3" font-family="Times,serif" font-size="14.00">integer</text>
</g>
<!-- coordinate&#45;&gt;integer -->
<g id="edge15" class="edge"><title>coordinate&#45;&gt;integer</title>
<path fill="none" stroke="grey" d="M729.183,-690.876C752.975,-679.919 783.705,-665.767 807.385,-654.862"/>
<polygon fill="grey" stroke="grey" points="809.116,-657.918 816.735,-650.556 806.188,-651.56 809.116,-657.918"/>
</g>
<!-- float_attributes -->
<g id="node12" class="node"><title>float_attributes</title>
<path fill="goldenrod" stroke="black" d="M574,-546.5C574,-546.5 648,-546.5 648,-546.5 654,-546.5 660,-552.5 660,-558.5 660,-558.5 660,-570.5 660,-570.5 660,-576.5 654,-582.5 648,-582.5 648,-582.5 574,-582.5 574,-582.5 568,-582.5 562,-576.5 562,-570.5 562,-570.5 562,-558.5 562,-558.5 562,-552.5 568,-546.5 574,-546.5"/>
<text text-anchor="middle" x="611" y="-560.8" font-family="Times,serif" font-size="14.00">action =&gt; float</text>
</g>
<!-- float&#45;&gt;float_attributes -->
<g id="edge14" class="edge"><title>float&#45;&gt;float_attributes</title>
<path fill="none" stroke="grey" d="M581.441,-618.934C585.925,-610.828 591.386,-600.956 596.388,-591.913"/>
<polygon fill="grey" stroke="grey" points="599.597,-593.343 601.375,-582.899 593.472,-589.955 599.597,-593.343"/>
</g>
<!-- sign_maybe non_zero digit_any -->
<g id="node25" class="node"><title>sign_maybe non_zero digit_any</title>
<polygon fill="white" stroke="black" points="869.5,-582.5 678.5,-582.5 678.5,-546.5 869.5,-546.5 869.5,-582.5"/>
<text text-anchor="middle" x="774" y="-560.8" font-family="Times,serif" font-size="14.00">sign_maybe non_zero digit_any</text>
</g>
<!-- float&#45;&gt;sign_maybe non_zero digit_any -->
<g id="edge46" class="edge"><title>float&#45;&gt;sign_maybe non_zero digit_any</title>
<path fill="none" stroke="grey" d="M599.243,-626.492C628.926,-616.132 677.299,-599.249 715.635,-585.87"/>
<polygon fill="grey" stroke="grey" points="716.86,-589.15 725.148,-582.55 714.553,-582.541 716.86,-589.15"/>
</g>
<!-- sign_maybe digit_many E -->
<g id="node28" class="node"><title>sign_maybe digit_many E</title>
<polygon fill="white" stroke="black" points="614.5,-510 453.5,-510 453.5,-474 614.5,-474 614.5,-510"/>
<text text-anchor="middle" x="534" y="-488.3" font-family="Times,serif" font-size="14.00">sign_maybe digit_many E</text>
</g>
<!-- float&#45;&gt;sign_maybe digit_many E -->
<g id="edge31" class="edge"><title>float&#45;&gt;sign_maybe digit_many E</title>
<path fill="none" stroke="grey" d="M565.058,-618.528C561.161,-608.288 556.411,-595.038 553,-583 547.095,-562.163 542.114,-538.144 538.736,-520.163"/>
<polygon fill="grey" stroke="grey" points="542.135,-519.294 536.891,-510.088 535.249,-520.554 542.135,-519.294"/>
</g>
<!-- sign_maybe digit_any &#39;.&#39; digit_many E_maybe -->
<g id="node29" class="node"><title>sign_maybe digit_any &#39;.&#39; digit_many E_maybe</title>
<polygon fill="white" stroke="black" points="505.5,-582.5 234.5,-582.5 234.5,-546.5 505.5,-546.5 505.5,-582.5"/>
<text text-anchor="middle" x="370" y="-560.8" font-family="Times,serif" font-size="14.00">sign_maybe digit_any &#39;.&#39; digit_many E_maybe</text>
</g>
<!-- float&#45;&gt;sign_maybe digit_any &#39;.&#39; digit_many E_maybe -->
<g id="edge35" class="edge"><title>float&#45;&gt;sign_maybe digit_any &#39;.&#39; digit_many E_maybe</title>
<path fill="none" stroke="grey" d="M544.757,-626.492C515.074,-616.132 466.701,-599.249 428.365,-585.87"/>
<polygon fill="grey" stroke="grey" points="429.447,-582.541 418.852,-582.55 427.14,-589.15 429.447,-582.541"/>
</g>
<!-- sign_maybe digit_many &#39;.&#39; E_maybe -->
<g id="node31" class="node"><title>sign_maybe digit_many &#39;.&#39; E_maybe</title>
<polygon fill="white" stroke="black" points="216,-582.5 0,-582.5 0,-546.5 216,-546.5 216,-582.5"/>
<text text-anchor="middle" x="108" y="-560.8" font-family="Times,serif" font-size="14.00">sign_maybe digit_many &#39;.&#39; E_maybe</text>
</g>
<!-- float&#45;&gt;sign_maybe digit_many &#39;.&#39; E_maybe -->
<g id="edge41" class="edge"><title>float&#45;&gt;sign_maybe digit_many &#39;.&#39; E_maybe</title>
<path fill="none" stroke="grey" d="M544.707,-631.853C483.766,-622.594 333.559,-599.771 226.351,-583.482"/>
<polygon fill="grey" stroke="grey" points="226.852,-580.018 216.44,-581.976 225.801,-586.939 226.852,-580.018"/>
</g>
<!-- integer_attributes -->
<g id="node14" class="node"><title>integer_attributes</title>
<path fill="goldenrod" stroke="black" d="M972.5,-546.5C972.5,-546.5 1059.5,-546.5 1059.5,-546.5 1065.5,-546.5 1071.5,-552.5 1071.5,-558.5 1071.5,-558.5 1071.5,-570.5 1071.5,-570.5 1071.5,-576.5 1065.5,-582.5 1059.5,-582.5 1059.5,-582.5 972.5,-582.5 972.5,-582.5 966.5,-582.5 960.5,-576.5 960.5,-570.5 960.5,-570.5 960.5,-558.5 960.5,-558.5 960.5,-552.5 966.5,-546.5 972.5,-546.5"/>
<text text-anchor="middle" x="1016" y="-560.8" font-family="Times,serif" font-size="14.00">action =&gt; integer</text>
</g>
<!-- integer&#45;&gt;integer_attributes -->
<g id="edge16" class="edge"><title>integer&#45;&gt;integer_attributes</title>
<path fill="none" stroke="grey" d="M871.254,-624.829C896.406,-614.519 934.401,-598.946 965.153,-586.341"/>
<polygon fill="grey" stroke="grey" points="966.516,-589.565 974.442,-582.534 963.861,-583.088 966.516,-589.565"/>
</g>
<!-- integer&#45;&gt;sign_maybe non_zero digit_any -->
<g id="edge26" class="edge"><title>integer&#45;&gt;sign_maybe non_zero digit_any</title>
<path fill="none" stroke="grey" d="M827.055,-618.934C818.498,-610.316 807.959,-599.702 798.535,-590.21"/>
<polygon fill="grey" stroke="grey" points="800.805,-587.529 791.275,-582.899 795.838,-592.461 800.805,-587.529"/>
</g>
<!-- zero -->
<g id="node27" class="node"><title>zero</title>
<polygon fill="white" stroke="black" points="942,-582.5 888,-582.5 888,-546.5 942,-546.5 942,-582.5"/>
<text text-anchor="middle" x="915" y="-560.8" font-family="Times,serif" font-size="14.00">zero</text>
</g>
<!-- integer&#45;&gt;zero -->
<g id="edge30" class="edge"><title>integer&#45;&gt;zero</title>
<path fill="none" stroke="grey" d="M861.187,-618.934C869.866,-610.316 880.555,-599.702 890.114,-590.21"/>
<polygon fill="grey" stroke="grey" points="892.848,-592.428 897.478,-582.899 887.916,-587.461 892.848,-592.428"/>
</g>
<!-- [0&#45;9] -->
<g id="node15" class="node"><title>[0&#45;9]</title>
<polygon fill="white" stroke="black" points="358,-104.5 304,-104.5 304,-68.5 358,-68.5 358,-104.5"/>
<text text-anchor="middle" x="331" y="-82.8" font-family="Times,serif" font-size="14.00">[0&#45;9]</text>
</g>
<!-- digit -->
<g id="node16" class="node"><title>digit</title>
<polygon fill="white" stroke="black" points="358,-222 304,-222 304,-186 358,-186 358,-222"/>
<text text-anchor="middle" x="331" y="-200.3" font-family="Times,serif" font-size="14.00">digit*</text>
</g>
<!-- digit&#45;&gt;[0&#45;9] -->
<g id="edge17" class="edge"><title>digit&#45;&gt;[0&#45;9]</title>
<path fill="none" stroke="grey" d="M331,-185.958C331,-167.191 331,-136.756 331,-114.687"/>
<polygon fill="grey" stroke="grey" points="334.5,-114.612 331,-104.612 327.5,-114.612 334.5,-114.612"/>
</g>
<!-- digit_any -->
<g id="node17" class="node"><title>digit_any</title>
<polygon fill="white" stroke="black" points="701,-510 633,-510 633,-474 701,-474 701,-510"/>
<text text-anchor="middle" x="667" y="-488.3" font-family="Times,serif" font-size="14.00">digit_any</text>
</g>
<!-- digit_any&#45;&gt;digit -->
<g id="edge18" class="edge"><title>digit_any&#45;&gt;digit</title>
<path fill="none" stroke="grey" d="M663.73,-473.813C654.536,-430.403 624.263,-315.704 552,-258 523.904,-235.564 423.8,-218.211 368.458,-210.075"/>
<polygon fill="grey" stroke="grey" points="368.744,-206.58 358.347,-208.618 367.745,-213.509 368.744,-206.58"/>
</g>
<!-- digit_many -->
<g id="node18" class="node"><title>digit_many</title>
<polygon fill="white" stroke="black" points="271.5,-294 192.5,-294 192.5,-258 271.5,-258 271.5,-294"/>
<text text-anchor="middle" x="232" y="-272.3" font-family="Times,serif" font-size="14.00">digit_many</text>
</g>
<!-- digit_many&#45;&gt;digit -->
<g id="edge19" class="edge"><title>digit_many&#45;&gt;digit</title>
<path fill="none" stroke="grey" d="M256.218,-257.876C268.923,-248.893 284.664,-237.763 298.423,-228.034"/>
<polygon fill="grey" stroke="grey" points="300.544,-230.821 306.689,-222.19 296.503,-225.105 300.544,-230.821"/>
</g>
<!-- [Ee] sign_maybe digit_many -->
<g id="node19" class="node"><title>[Ee] sign_maybe digit_many</title>
<polygon fill="white" stroke="black" points="436,-366 260,-366 260,-330 436,-330 436,-366"/>
<text text-anchor="middle" x="348" y="-344.3" font-family="Times,serif" font-size="14.00">[Ee] sign_maybe digit_many</text>
</g>
<!-- [Ee] sign_maybe digit_many&#45;&gt;digit_many -->
<g id="edge23" class="edge"><title>[Ee] sign_maybe digit_many&#45;&gt;digit_many</title>
<path fill="none" stroke="grey" d="M319.623,-329.876C304.456,-320.724 285.595,-309.342 269.261,-299.485"/>
<polygon fill="grey" stroke="grey" points="270.856,-296.36 260.486,-294.19 267.239,-302.353 270.856,-296.36"/>
</g>
<!-- [Ee] -->
<g id="node21" class="node"><title>[Ee]</title>
<polygon fill="white" stroke="black" points="375,-294 321,-294 321,-258 375,-258 375,-294"/>
<text text-anchor="middle" x="348" y="-272.3" font-family="Times,serif" font-size="14.00">[Ee]</text>
</g>
<!-- [Ee] sign_maybe digit_many&#45;&gt;[Ee] -->
<g id="edge21" class="edge"><title>[Ee] sign_maybe digit_many&#45;&gt;[Ee]</title>
<path fill="none" stroke="grey" d="M348,-329.697C348,-321.983 348,-312.712 348,-304.112"/>
<polygon fill="grey" stroke="grey" points="351.5,-304.104 348,-294.104 344.5,-304.104 351.5,-304.104"/>
</g>
<!-- sign_maybe -->
<g id="node22" class="node"><title>sign_maybe</title>
<polygon fill="white" stroke="black" points="543.5,-294 460.5,-294 460.5,-258 543.5,-258 543.5,-294"/>
<text text-anchor="middle" x="502" y="-272.3" font-family="Times,serif" font-size="14.00">sign_maybe</text>
</g>
<!-- [Ee] sign_maybe digit_many&#45;&gt;sign_maybe -->
<g id="edge22" class="edge"><title>[Ee] sign_maybe digit_many&#45;&gt;sign_maybe</title>
<path fill="none" stroke="grey" d="M385.673,-329.876C406.632,-320.349 432.905,-308.407 455.177,-298.283"/>
<polygon fill="grey" stroke="grey" points="456.794,-301.393 464.45,-294.068 453.898,-295.02 456.794,-301.393"/>
</g>
<!-- E -->
<g id="node20" class="node"><title>E</title>
<polygon fill="white" stroke="black" points="276,-438 222,-438 222,-402 276,-402 276,-438"/>
<text text-anchor="middle" x="249" y="-416.3" font-family="Times,serif" font-size="14.00">E</text>
</g>
<!-- E&#45;&gt;[Ee] sign_maybe digit_many -->
<g id="edge20" class="edge"><title>E&#45;&gt;[Ee] sign_maybe digit_many</title>
<path fill="none" stroke="grey" d="M273.218,-401.876C285.923,-392.893 301.664,-381.763 315.423,-372.034"/>
<polygon fill="grey" stroke="grey" points="317.544,-374.821 323.689,-366.19 313.503,-369.105 317.544,-374.821"/>
</g>
<g id="node24" class="node"><title></title>
<polygon fill="white" stroke="black" points="216,-222 162,-222 162,-186 216,-186 216,-222"/>
</g>
<!-- sign_maybe&#45;&gt; -->
<g id="edge52" class="edge"><title>sign_maybe&#45;&gt;</title>
<path fill="none" stroke="grey" d="M460.436,-265.705C399.098,-251.987 285.263,-226.528 226.404,-213.365"/>
<polygon fill="grey" stroke="grey" points="226.943,-209.899 216.42,-211.132 225.415,-216.73 226.943,-209.899"/>
</g>
<!-- [+&#45;] -->
<g id="node33" class="node"><title>[+&#45;]</title>
<polygon fill="white" stroke="black" points="529,-222 475,-222 475,-186 529,-186 529,-222"/>
<text text-anchor="middle" x="502" y="-200.3" font-family="Times,serif" font-size="14.00">[+&#45;]</text>
</g>
<!-- sign_maybe&#45;&gt;[+&#45;] -->
<g id="edge51" class="edge"><title>sign_maybe&#45;&gt;[+&#45;]</title>
<path fill="none" stroke="grey" d="M502,-257.697C502,-249.983 502,-240.712 502,-232.112"/>
<polygon fill="grey" stroke="grey" points="505.5,-232.104 502,-222.104 498.5,-232.104 505.5,-232.104"/>
</g>
<!-- E_maybe -->
<g id="node23" class="node"><title>E_maybe</title>
<polygon fill="white" stroke="black" points="276,-510 208,-510 208,-474 276,-474 276,-510"/>
<text text-anchor="middle" x="242" y="-488.3" font-family="Times,serif" font-size="14.00">E_maybe</text>
</g>
<!-- E_maybe&#45;&gt;E -->
<g id="edge24" class="edge"><title>E_maybe&#45;&gt;E</title>
<path fill="none" stroke="grey" d="M243.73,-473.697C244.502,-465.983 245.429,-456.712 246.289,-448.112"/>
<polygon fill="grey" stroke="grey" points="249.777,-448.403 247.29,-438.104 242.812,-447.706 249.777,-448.403"/>
</g>
<!-- E_maybe&#45;&gt; -->
<g id="edge25" class="edge"><title>E_maybe&#45;&gt;</title>
<path fill="none" stroke="grey" d="M212.495,-473.937C200.018,-464.988 186.815,-452.79 180,-438 148.333,-369.269 167.713,-276.673 180.475,-231.716"/>
<polygon fill="grey" stroke="grey" points="183.835,-232.693 183.309,-222.111 177.122,-230.711 183.835,-232.693"/>
</g>
<!-- sign_maybe non_zero digit_any&#45;&gt;digit_any -->
<g id="edge29" class="edge"><title>sign_maybe non_zero digit_any&#45;&gt;digit_any</title>
<path fill="none" stroke="grey" d="M742.22,-546.434C727.431,-537.322 710.047,-525.978 695.664,-516.089"/>
<polygon fill="grey" stroke="grey" points="697.352,-513 687.147,-510.153 693.349,-518.743 697.352,-513"/>
</g>
<!-- sign_maybe non_zero digit_any&#45;&gt;digit_any -->
<g id="edge49" class="edge"><title>sign_maybe non_zero digit_any&#45;&gt;digit_any</title>
<path fill="none" stroke="grey" d="M753.977,-546.434C740.865,-537.15 723.413,-525.549 707.54,-515.531"/>
<polygon fill="grey" stroke="grey" points="709.258,-512.478 698.921,-510.153 705.552,-518.417 709.258,-512.478"/>
</g>
<!-- sign_maybe non_zero digit_any&#45;&gt;sign_maybe -->
<g id="edge27" class="edge"><title>sign_maybe non_zero digit_any&#45;&gt;sign_maybe</title>
<path fill="none" stroke="grey" d="M756.483,-546.283C742.056,-527.708 721.578,-497.621 701,-474 642.285,-406.603 563.499,-336.747 524.873,-301.099"/>
<polygon fill="grey" stroke="grey" points="526.97,-298.269 517.262,-294.024 522.204,-303.396 526.97,-298.269"/>
</g>
<!-- sign_maybe non_zero digit_any&#45;&gt;sign_maybe -->
<g id="edge47" class="edge"><title>sign_maybe non_zero digit_any&#45;&gt;sign_maybe</title>
<path fill="none" stroke="grey" d="M769.751,-546.283C760.056,-527.708 739.578,-497.621 719,-474 659.794,-406.039 580.179,-335.577 535.527,-300.211"/>
<polygon fill="grey" stroke="grey" points="537.644,-297.423 527.609,-294.024 533.334,-302.939 537.644,-297.423"/>
</g>
<!-- non_zero -->
<g id="node26" class="node"><title>non_zero</title>
<polygon fill="white" stroke="black" points="842.5,-510 775.5,-510 775.5,-474 842.5,-474 842.5,-510"/>
<text text-anchor="middle" x="809" y="-488.3" font-family="Times,serif" font-size="14.00">non_zero</text>
</g>
<!-- sign_maybe non_zero digit_any&#45;&gt;non_zero -->
<g id="edge28" class="edge"><title>sign_maybe non_zero digit_any&#45;&gt;non_zero</title>
<path fill="none" stroke="grey" d="M776.594,-546.434C779.798,-538.243 784.537,-528.248 789.484,-519.128"/>
<polygon fill="grey" stroke="grey" points="792.547,-520.821 794.45,-510.399 786.463,-517.36 792.547,-520.821"/>
</g>
<!-- sign_maybe non_zero digit_any&#45;&gt;non_zero -->
<g id="edge48" class="edge"><title>sign_maybe non_zero digit_any&#45;&gt;non_zero</title>
<path fill="none" stroke="grey" d="M788.351,-546.434C793.178,-538.414 798.249,-528.664 802.315,-519.699"/>
<polygon fill="grey" stroke="grey" points="805.578,-520.971 806.275,-510.399 799.137,-518.228 805.578,-520.971"/>
</g>
<!-- [1&#45;9] -->
<g id="node32" class="node"><title>[1&#45;9]</title>
<polygon fill="white" stroke="black" points="836,-438 782,-438 782,-402 836,-402 836,-438"/>
<text text-anchor="middle" x="809" y="-416.3" font-family="Times,serif" font-size="14.00">[1&#45;9]</text>
</g>
<!-- non_zero&#45;&gt;[1&#45;9] -->
<g id="edge50" class="edge"><title>non_zero&#45;&gt;[1&#45;9]</title>
<path fill="none" stroke="grey" d="M809,-473.697C809,-465.983 809,-456.712 809,-448.112"/>
<polygon fill="grey" stroke="grey" points="812.5,-448.104 809,-438.104 805.5,-448.104 812.5,-448.104"/>
</g>
<!-- &#39;0&#39; -->
<g id="node34" class="node"><title>&#39;0&#39;</title>
<polygon fill="white" stroke="black" points="942,-510 888,-510 888,-474 942,-474 942,-510"/>
<text text-anchor="middle" x="915" y="-488.3" font-family="Times,serif" font-size="14.00">&#39;0&#39;</text>
</g>
<!-- zero&#45;&gt;&#39;0&#39; -->
<g id="edge53" class="edge"><title>zero&#45;&gt;&#39;0&#39;</title>
<path fill="none" stroke="grey" d="M915,-546.434C915,-538.67 915,-529.284 915,-520.56"/>
<polygon fill="grey" stroke="grey" points="918.5,-520.399 915,-510.399 911.5,-520.399 918.5,-520.399"/>
</g>
<!-- sign_maybe digit_many E&#45;&gt;digit_many -->
<g id="edge33" class="edge"><title>sign_maybe digit_many E&#45;&gt;digit_many</title>
<path fill="none" stroke="grey" d="M453.468,-476.288C389.07,-460.255 301.484,-428.098 251,-366 236.938,-348.703 232.605,-323.437 231.548,-304.241"/>
<polygon fill="grey" stroke="grey" points="235.04,-303.915 231.256,-294.019 228.043,-304.114 235.04,-303.915"/>
</g>
<!-- sign_maybe digit_many E&#45;&gt;E -->
<g id="edge34" class="edge"><title>sign_maybe digit_many E&#45;&gt;E</title>
<path fill="none" stroke="grey" d="M464.646,-473.966C408.393,-460.149 331.276,-441.208 286.132,-430.12"/>
<polygon fill="grey" stroke="grey" points="286.736,-426.665 276.19,-427.678 285.066,-433.463 286.736,-426.665"/>
</g>
<!-- sign_maybe digit_many E&#45;&gt;sign_maybe -->
<g id="edge32" class="edge"><title>sign_maybe digit_many E&#45;&gt;sign_maybe</title>
<path fill="none" stroke="grey" d="M532.921,-473.958C530.869,-444.44 525.716,-381.976 516,-330 514.402,-321.449 512.16,-312.247 509.938,-303.95"/>
<polygon fill="grey" stroke="grey" points="513.234,-302.738 507.184,-294.041 506.489,-304.613 513.234,-302.738"/>
</g>
<!-- sign_maybe digit_any &#39;.&#39; digit_many E_maybe&#45;&gt;digit_any -->
<g id="edge37" class="edge"><title>sign_maybe digit_any &#39;.&#39; digit_many E_maybe&#45;&gt;digit_any</title>
<path fill="none" stroke="grey" d="M468.533,-546.471C515.715,-537.353 572.752,-524.915 623,-510 623.098,-509.971 623.196,-509.942 623.295,-509.912"/>
<polygon fill="grey" stroke="grey" points="624.163,-513.31 632.594,-506.894 622.002,-506.652 624.163,-513.31"/>
</g>
<!-- sign_maybe digit_any &#39;.&#39; digit_many E_maybe&#45;&gt;digit_many -->
<g id="edge39" class="edge"><title>sign_maybe digit_any &#39;.&#39; digit_many E_maybe&#45;&gt;digit_many</title>
<path fill="none" stroke="grey" d="M356.751,-546.292C341.169,-526.895 313.759,-495.297 285,-474 256.248,-452.708 231.809,-468.434 213,-438 187.277,-396.379 205.25,-337.044 219.437,-303.244"/>
<polygon fill="grey" stroke="grey" points="222.67,-304.587 223.481,-294.023 216.259,-301.775 222.67,-304.587"/>
</g>
<!-- sign_maybe digit_any &#39;.&#39; digit_many E_maybe&#45;&gt;sign_maybe -->
<g id="edge36" class="edge"><title>sign_maybe digit_any &#39;.&#39; digit_many E_maybe&#45;&gt;sign_maybe</title>
<path fill="none" stroke="grey" d="M381.129,-546.48C402.536,-513.1 449.817,-436.172 478,-366 486.127,-345.765 492.402,-321.857 496.494,-303.919"/>
<polygon fill="grey" stroke="grey" points="499.919,-304.638 498.648,-294.119 493.082,-303.134 499.919,-304.638"/>
</g>
<!-- sign_maybe digit_any &#39;.&#39; digit_many E_maybe&#45;&gt;E_maybe -->
<g id="edge40" class="edge"><title>sign_maybe digit_any &#39;.&#39; digit_many E_maybe&#45;&gt;E_maybe</title>
<path fill="none" stroke="grey" d="M339.015,-546.434C321.925,-537.021 300.511,-525.227 282.152,-515.115"/>
<polygon fill="grey" stroke="grey" points="283.591,-511.912 273.144,-510.153 280.214,-518.044 283.591,-511.912"/>
</g>
<!-- &#39;.&#39; -->
<g id="node30" class="node"><title>&#39;.&#39;</title>
<polygon fill="white" stroke="black" points="190,-510 136,-510 136,-474 190,-474 190,-510"/>
<text text-anchor="middle" x="163" y="-488.3" font-family="Times,serif" font-size="14.00">&#39;.&#39;</text>
</g>
<!-- sign_maybe digit_any &#39;.&#39; digit_many E_maybe&#45;&gt;&#39;.&#39; -->
<g id="edge38" class="edge"><title>sign_maybe digit_any &#39;.&#39; digit_many E_maybe&#45;&gt;&#39;.&#39;</title>
<path fill="none" stroke="grey" d="M308.353,-546.45C277.882,-537.505 240.506,-525.761 199.894,-510.118"/>
<polygon fill="grey" stroke="grey" points="200.935,-506.767 190.347,-506.391 198.389,-513.288 200.935,-506.767"/>
</g>
<!-- sign_maybe digit_many &#39;.&#39; E_maybe&#45;&gt;digit_many -->
<g id="edge43" class="edge"><title>sign_maybe digit_many &#39;.&#39; E_maybe&#45;&gt;digit_many</title>
<path fill="none" stroke="grey" d="M110.142,-546.38C115.838,-505.929 134.172,-402.408 180,-330 186.558,-319.638 195.423,-309.658 203.975,-301.207"/>
<polygon fill="grey" stroke="grey" points="206.507,-303.63 211.343,-294.204 201.684,-298.556 206.507,-303.63"/>
</g>
<!-- sign_maybe digit_many &#39;.&#39; E_maybe&#45;&gt;sign_maybe -->
<g id="edge42" class="edge"><title>sign_maybe digit_many &#39;.&#39; E_maybe&#45;&gt;sign_maybe</title>
<path fill="none" stroke="grey" d="M191.23,-546.408C221.915,-538.064 256.194,-526.233 285,-510 368.347,-463.031 383.089,-438.937 445,-366 461.659,-346.374 477.178,-321.529 487.803,-303.08"/>
<polygon fill="grey" stroke="grey" points="490.874,-304.76 492.751,-294.333 484.781,-301.313 490.874,-304.76"/>
</g>
<!-- sign_maybe digit_many &#39;.&#39; E_maybe&#45;&gt;E_maybe -->
<g id="edge45" class="edge"><title>sign_maybe digit_many &#39;.&#39; E_maybe&#45;&gt;E_maybe</title>
<path fill="none" stroke="grey" d="M140.438,-546.434C158.492,-536.935 181.156,-525.011 200.492,-514.838"/>
<polygon fill="grey" stroke="grey" points="202.176,-517.907 209.397,-510.153 198.917,-511.712 202.176,-517.907"/>
</g>
<!-- sign_maybe digit_many &#39;.&#39; E_maybe&#45;&gt;&#39;.&#39; -->
<g id="edge44" class="edge"><title>sign_maybe digit_many &#39;.&#39; E_maybe&#45;&gt;&#39;.&#39;</title>
<path fill="none" stroke="grey" d="M121.314,-546.434C127.837,-538.072 135.827,-527.831 143.06,-518.559"/>
<polygon fill="grey" stroke="grey" points="146.035,-520.436 149.427,-510.399 140.516,-516.13 146.035,-520.436"/>
</g>
<!-- Legend -->
<g id="node37" class="node"><title>Legend</title>
<polygon fill="lightgrey" stroke="none" points="630,-150 376,-150 376,-23 630,-23 630,-150"/>
<polygon fill="white" stroke="none" points="384,-27 384,-146 622,-146 622,-27 384,-27"/>
<polygon fill="lightgreen" stroke="none" points="387,-121.5 387,-142.5 619,-142.5 619,-121.5 387,-121.5"/>
<polygon fill="none" stroke="black" points="387,-121.5 387,-142.5 619,-142.5 619,-121.5 387,-121.5"/>
<text text-anchor="start" x="415.5" y="-128.3" font-family="Times,serif" font-size="14.00">The green node is the start node</text>
<polygon fill="lightblue" stroke="none" points="387,-98.5 387,-119.5 619,-119.5 619,-98.5 387,-98.5"/>
<polygon fill="none" stroke="black" points="387,-98.5 387,-119.5 619,-119.5 619,-98.5 387,-98.5"/>
<text text-anchor="start" x="390" y="-105.3" font-family="Times,serif" font-size="14.00">Lightblue nodes are for lexeme attributes</text>
<polygon fill="orchid" stroke="none" points="387,-75.5 387,-96.5 619,-96.5 619,-75.5 387,-75.5"/>
<polygon fill="none" stroke="black" points="387,-75.5 387,-96.5 619,-96.5 619,-75.5 387,-75.5"/>
<text text-anchor="start" x="422" y="-82.3" font-family="Times,serif" font-size="14.00">Orchid nodes are for lexemes</text>
<polygon fill="goldenrod" stroke="none" points="387,-52.5 387,-73.5 619,-73.5 619,-52.5 387,-52.5"/>
<polygon fill="none" stroke="black" points="387,-52.5 387,-73.5 619,-73.5 619,-52.5 387,-52.5"/>
<text text-anchor="start" x="424.5" y="-59.3" font-family="Times,serif" font-size="14.00">Golden nodes are for actions</text>
<polygon fill="#ff3030" stroke="none" points="387,-29.5 387,-50.5 619,-50.5 619,-29.5 387,-29.5"/>
<polygon fill="none" stroke="black" points="387,-29.5 387,-50.5 619,-50.5 619,-29.5 387,-29.5"/>
<text text-anchor="start" x="435" y="-36.3" font-family="Times,serif" font-size="14.00">Red nodes are for events</text>
<polygon fill="none" stroke="black" points="384,-27 384,-146 622,-146 622,-27 384,-27"/>
</g>
</g>
</svg>
