<?xml version="1.0" encoding="UTF-8" standalone="no"?>
<!DOCTYPE svg PUBLIC "-//W3C//DTD SVG 1.1//EN"
 "http://www.w3.org/Graphics/SVG/1.1/DTD/svg11.dtd">
<!-- Generated by graphviz version 2.30.1 (20130611.0131)
 -->
<!-- Title: Perl Pages: 1 -->
<svg width="1079pt" height="1035pt"
 viewBox="0.00 0.00 1079.00 1035.00" xmlns="http://www.w3.org/2000/svg" xmlns:xlink="http://www.w3.org/1999/xlink">
<g id="graph0" class="graph" transform="scale(1 1) rotate(0) translate(4 1031)">
<title>Perl</title>
<polygon fill="white" stroke="white" points="-4,5 -4,-1031 1076,-1031 1076,5 -4,5"/>
<text text-anchor="middle" x="535.5" y="-7.8" font-family="Times,serif" font-size="14.00">points.bnf</text>
<!-- coordinate_pairs -->
<g id="node1" class="node"><title>coordinate_pairs</title>
<path fill="lightgreen" stroke="black" d="M544.5,-980C544.5,-980 627.5,-980 627.5,-980 633.5,-980 639.5,-986 639.5,-992 639.5,-992 639.5,-1014 639.5,-1014 639.5,-1020 633.5,-1026 627.5,-1026 627.5,-1026 544.5,-1026 544.5,-1026 538.5,-1026 532.5,-1020 532.5,-1014 532.5,-1014 532.5,-992 532.5,-992 532.5,-986 538.5,-980 544.5,-980"/>
<text text-anchor="middle" x="586" y="-1010.8" font-family="Times,serif" font-size="14.00">:start</text>
<polyline fill="none" stroke="black" points="532.5,-1003 639.5,-1003 "/>
<text text-anchor="middle" x="586" y="-987.8" font-family="Times,serif" font-size="14.00">coordinate_pairs</text>
</g>
<!-- ꞉default -->
<g id="node2" class="node"><title>꞉default</title>
<polygon fill="lightblue" stroke="black" points="457.5,-943 400.5,-943 400.5,-907 457.5,-907 457.5,-943"/>
<text text-anchor="middle" x="429" y="-921.3" font-family="Times,serif" font-size="14.00">꞉default</text>
</g>
<!-- coordinate_pairs&#45;&gt;꞉default -->
<g id="edge1" class="edge"><title>coordinate_pairs&#45;&gt;꞉default</title>
<path fill="none" stroke="grey" d="M540.167,-979.813C516.884,-968.542 488.933,-955.012 466.884,-944.339"/>
<polygon fill="grey" stroke="grey" points="468.352,-941.161 457.826,-939.954 465.302,-947.462 468.352,-941.161"/>
</g>
<!-- ꞉discard -->
<g id="node4" class="node"><title>꞉discard</title>
<polygon fill="lightblue" stroke="black" points="557.25,-943 498.75,-943 498.75,-907 557.25,-907 557.25,-943"/>
<text text-anchor="middle" x="528" y="-921.3" font-family="Times,serif" font-size="14.00">꞉discard</text>
</g>
<!-- coordinate_pairs&#45;&gt;꞉discard -->
<g id="edge3" class="edge"><title>coordinate_pairs&#45;&gt;꞉discard</title>
<path fill="none" stroke="grey" d="M568.912,-979.609C562.158,-970.758 554.36,-960.541 547.396,-951.415"/>
<polygon fill="grey" stroke="grey" points="550.137,-949.238 541.288,-943.412 544.573,-953.485 550.137,-949.238"/>
</g>
<!-- coordinate_pair -->
<g id="node7" class="node"><title>coordinate_pair</title>
<polygon fill="white" stroke="black" points="761.25,-870 660.75,-870 660.75,-834 761.25,-834 761.25,-870"/>
<text text-anchor="middle" x="711" y="-848.3" font-family="Times,serif" font-size="14.00">coordinate_pair</text>
</g>
<!-- coordinate_pairs&#45;&gt;coordinate_pair -->
<g id="edge6" class="edge"><title>coordinate_pairs&#45;&gt;coordinate_pair</title>
<path fill="none" stroke="grey" d="M585.171,-979.809C585.518,-959.008 589.05,-928.046 605,-907 616.631,-891.653 633.849,-880.323 651.043,-872.118"/>
<polygon fill="grey" stroke="grey" points="652.849,-875.145 660.557,-867.876 649.998,-868.752 652.849,-875.145"/>
</g>
<!-- coordinate_pair coordinate_pairs -->
<g id="node8" class="node"><title>coordinate_pair coordinate_pairs</title>
<polygon fill="white" stroke="black" points="808.25,-943 613.75,-943 613.75,-907 808.25,-907 808.25,-943"/>
<text text-anchor="middle" x="711" y="-921.3" font-family="Times,serif" font-size="14.00">coordinate_pair coordinate_pairs</text>
</g>
<!-- coordinate_pairs&#45;&gt;coordinate_pair coordinate_pairs -->
<g id="edge7" class="edge"><title>coordinate_pairs&#45;&gt;coordinate_pair coordinate_pairs</title>
<path fill="none" stroke="grey" d="M616.29,-979.813C632.001,-969.814 651.374,-958.037 668.535,-948.054"/>
<polygon fill="grey" stroke="grey" points="670.361,-951.042 677.277,-943.016 666.865,-944.977 670.361,-951.042"/>
</g>
<!-- ꞉default_1 -->
<g id="node3" class="node"><title>꞉default_1</title>
<path fill="goldenrod" stroke="black" d="M363.5,-834C363.5,-834 456.5,-834 456.5,-834 462.5,-834 468.5,-840 468.5,-846 468.5,-846 468.5,-858 468.5,-858 468.5,-864 462.5,-870 456.5,-870 456.5,-870 363.5,-870 363.5,-870 357.5,-870 351.5,-864 351.5,-858 351.5,-858 351.5,-846 351.5,-846 351.5,-840 357.5,-834 363.5,-834"/>
<text text-anchor="middle" x="410" y="-848.3" font-family="Times,serif" font-size="14.00">action =&gt; [values]</text>
</g>
<!-- ꞉default&#45;&gt;꞉default_1 -->
<g id="edge2" class="edge"><title>꞉default&#45;&gt;꞉default_1</title>
<path fill="none" stroke="grey" d="M424.401,-906.813C422.23,-898.702 419.59,-888.836 417.166,-879.777"/>
<polygon fill="grey" stroke="grey" points="420.523,-878.784 414.557,-870.029 413.761,-880.594 420.523,-878.784"/>
</g>
<!-- comma -->
<g id="node5" class="node"><title>comma</title>
<polygon fill="lightblue" stroke="black" points="544.5,-870 487.5,-870 487.5,-834 544.5,-834 544.5,-870"/>
<text text-anchor="middle" x="516" y="-848.3" font-family="Times,serif" font-size="14.00">comma</text>
</g>
<!-- ꞉discard&#45;&gt;comma -->
<g id="edge4" class="edge"><title>꞉discard&#45;&gt;comma</title>
<path fill="none" stroke="grey" d="M525.095,-906.813C523.739,-898.789 522.093,-889.047 520.575,-880.069"/>
<polygon fill="grey" stroke="grey" points="523.996,-879.306 518.878,-870.029 517.094,-880.472 523.996,-879.306"/>
</g>
<!-- whitespace -->
<g id="node6" class="node"><title>whitespace</title>
<polygon fill="lightblue" stroke="black" points="640.25,-870 563.75,-870 563.75,-834 640.25,-834 640.25,-870"/>
<text text-anchor="middle" x="602" y="-848.3" font-family="Times,serif" font-size="14.00">whitespace</text>
</g>
<!-- ꞉discard&#45;&gt;whitespace -->
<g id="edge5" class="edge"><title>꞉discard&#45;&gt;whitespace</title>
<path fill="none" stroke="grey" d="M545.913,-906.813C555.185,-897.917 566.658,-886.909 576.807,-877.172"/>
<polygon fill="grey" stroke="grey" points="579.459,-879.478 584.252,-870.029 574.613,-874.427 579.459,-879.478"/>
</g>
<!-- &#39;,&#39; -->
<g id="node35" class="node"><title>&#39;,&#39;</title>
<polygon fill="white" stroke="black" points="543,-797 489,-797 489,-761 543,-761 543,-797"/>
<text text-anchor="middle" x="516" y="-775.3" font-family="Times,serif" font-size="14.00">&#39;,&#39;</text>
</g>
<!-- comma&#45;&gt;&#39;,&#39; -->
<g id="edge54" class="edge"><title>comma&#45;&gt;&#39;,&#39;</title>
<path fill="none" stroke="grey" d="M516,-833.813C516,-825.789 516,-816.047 516,-807.069"/>
<polygon fill="grey" stroke="grey" points="519.5,-807.029 516,-797.029 512.5,-807.029 519.5,-807.029"/>
</g>
<!-- [\\s] -->
<g id="node36" class="node"><title>[\\s]</title>
<polygon fill="white" stroke="black" points="627,-797 573,-797 573,-761 627,-761 627,-797"/>
<text text-anchor="middle" x="600" y="-775.3" font-family="Times,serif" font-size="14.00">[\s]+</text>
</g>
<!-- whitespace&#45;&gt;[\\s] -->
<g id="edge55" class="edge"><title>whitespace&#45;&gt;[\\s]</title>
<path fill="none" stroke="grey" d="M601.516,-833.813C601.29,-825.789 601.015,-816.047 600.763,-807.069"/>
<polygon fill="grey" stroke="grey" points="604.26,-806.926 600.48,-797.029 597.263,-807.123 604.26,-806.926"/>
</g>
<!-- coordinate coordinate -->
<g id="node9" class="node"><title>coordinate coordinate</title>
<polygon fill="white" stroke="black" points="779,-797 645,-797 645,-761 779,-761 779,-797"/>
<text text-anchor="middle" x="712" y="-775.3" font-family="Times,serif" font-size="14.00">coordinate coordinate</text>
</g>
<!-- coordinate_pair&#45;&gt;coordinate coordinate -->
<g id="edge10" class="edge"><title>coordinate_pair&#45;&gt;coordinate coordinate</title>
<path fill="none" stroke="grey" d="M711.242,-833.813C711.355,-825.789 711.492,-816.047 711.619,-807.069"/>
<polygon fill="grey" stroke="grey" points="715.119,-807.077 711.76,-797.029 708.12,-806.979 715.119,-807.077"/>
</g>
<!-- coordinate_pair coordinate_pairs&#45;&gt;coordinate_pair -->
<g id="edge8" class="edge"><title>coordinate_pair coordinate_pairs&#45;&gt;coordinate_pair</title>
<path fill="none" stroke="grey" d="M711,-906.813C711,-898.789 711,-889.047 711,-880.069"/>
<polygon fill="grey" stroke="grey" points="714.5,-880.029 711,-870.029 707.5,-880.029 714.5,-880.029"/>
</g>
<!-- coordinate_pair coordinate_pairs&#45;&gt;coordinate_pairs -->
<g id="edge9" class="edge"><title>coordinate_pair coordinate_pairs&#45;&gt;coordinate_pairs</title>
<path fill="none" stroke="grey" d="M688.749,-943.016C674.405,-952.35 655.262,-964.145 637.356,-974.73"/>
<polygon fill="grey" stroke="grey" points="635.546,-971.734 628.692,-979.813 639.089,-977.772 635.546,-971.734"/>
</g>
<!-- coordinate -->
<g id="node10" class="node"><title>coordinate</title>
<polygon fill="white" stroke="black" points="749,-725 675,-725 675,-689 749,-689 749,-725"/>
<text text-anchor="middle" x="712" y="-703.3" font-family="Times,serif" font-size="14.00">coordinate</text>
</g>
<!-- coordinate coordinate&#45;&gt;coordinate -->
<g id="edge11" class="edge"><title>coordinate coordinate&#45;&gt;coordinate</title>
<path fill="none" stroke="grey" d="M706.084,-760.697C705.289,-752.983 705.062,-743.712 705.405,-735.112"/>
<polygon fill="grey" stroke="grey" points="708.898,-735.324 706.105,-725.104 701.915,-734.836 708.898,-735.324"/>
</g>
<!-- coordinate coordinate&#45;&gt;coordinate -->
<g id="edge12" class="edge"><title>coordinate coordinate&#45;&gt;coordinate</title>
<path fill="none" stroke="grey" d="M717.916,-760.697C718.711,-752.983 718.938,-743.712 718.595,-735.112"/>
<polygon fill="grey" stroke="grey" points="722.085,-734.836 717.895,-725.104 715.102,-735.324 722.085,-734.836"/>
</g>
<!-- float -->
<g id="node11" class="node"><title>float</title>
<polygon fill="white" stroke="black" points="595,-653 541,-653 541,-617 595,-617 595,-653"/>
<text text-anchor="middle" x="568" y="-631.3" font-family="Times,serif" font-size="14.00">float</text>
</g>
<!-- coordinate&#45;&gt;float -->
<g id="edge13" class="edge"><title>coordinate&#45;&gt;float</title>
<path fill="none" stroke="grey" d="M676.774,-688.876C654.771,-678.18 626.506,-664.44 604.303,-653.647"/>
<polygon fill="grey" stroke="grey" points="605.719,-650.444 595.195,-649.22 602.659,-656.74 605.719,-650.444"/>
</g>
<!-- integer -->
<g id="node13" class="node"><title>integer</title>
<polygon fill="white" stroke="black" points="871,-653 817,-653 817,-617 871,-617 871,-653"/>
<text text-anchor="middle" x="844" y="-631.3" font-family="Times,serif" font-size="14.00">integer</text>
</g>
<!-- coordinate&#45;&gt;integer -->
<g id="edge15" class="edge"><title>coordinate&#45;&gt;integer</title>
<path fill="none" stroke="grey" d="M744.291,-688.876C763.531,-678.673 787.995,-665.7 807.875,-655.157"/>
<polygon fill="grey" stroke="grey" points="809.742,-658.129 816.937,-650.352 806.462,-651.945 809.742,-658.129"/>
</g>
<!-- float_attributes -->
<g id="node12" class="node"><title>float_attributes</title>
<path fill="goldenrod" stroke="black" d="M246,-544C246,-544 320,-544 320,-544 326,-544 332,-550 332,-556 332,-556 332,-568 332,-568 332,-574 326,-580 320,-580 320,-580 246,-580 246,-580 240,-580 234,-574 234,-568 234,-568 234,-556 234,-556 234,-550 240,-544 246,-544"/>
<text text-anchor="middle" x="283" y="-558.3" font-family="Times,serif" font-size="14.00">action =&gt; float</text>
</g>
<!-- float&#45;&gt;float_attributes -->
<g id="edge14" class="edge"><title>float&#45;&gt;float_attributes</title>
<path fill="none" stroke="grey" d="M540.937,-628.338C499.976,-619.626 419.613,-601.986 342.204,-581.239"/>
<polygon fill="grey" stroke="grey" points="342.858,-577.79 332.291,-578.56 341.032,-584.548 342.858,-577.79"/>
</g>
<!-- sign_maybe digit_many E -->
<g id="node28" class="node"><title>sign_maybe digit_many E</title>
<polygon fill="white" stroke="black" points="531.25,-507 370.75,-507 370.75,-471 531.25,-471 531.25,-507"/>
<text text-anchor="middle" x="451" y="-485.3" font-family="Times,serif" font-size="14.00">sign_maybe digit_many E</text>
</g>
<!-- float&#45;&gt;sign_maybe digit_many E -->
<g id="edge31" class="edge"><title>float&#45;&gt;sign_maybe digit_many E</title>
<path fill="none" stroke="grey" d="M595.236,-618.535C608.351,-609.463 622.771,-596.691 630,-581 637.067,-565.661 640.106,-556.532 630,-543 618.603,-527.739 579.937,-515.319 541.445,-506.348"/>
<polygon fill="grey" stroke="grey" points="542.205,-502.932 531.679,-504.142 540.662,-509.76 542.205,-502.932"/>
</g>
<!-- sign_maybe digit_any &#39;.&#39; digit_many E_maybe -->
<g id="node29" class="node"><title>sign_maybe digit_any &#39;.&#39; digit_many E_maybe</title>
<polygon fill="white" stroke="black" points="621.25,-580 350.75,-580 350.75,-544 621.25,-544 621.25,-580"/>
<text text-anchor="middle" x="486" y="-558.3" font-family="Times,serif" font-size="14.00">sign_maybe digit_any &#39;.&#39; digit_many E_maybe</text>
</g>
<!-- float&#45;&gt;sign_maybe digit_any &#39;.&#39; digit_many E_maybe -->
<g id="edge35" class="edge"><title>float&#45;&gt;sign_maybe digit_any &#39;.&#39; digit_many E_maybe</title>
<path fill="none" stroke="grey" d="M548.15,-616.813C537.675,-607.743 524.663,-596.477 513.257,-586.6"/>
<polygon fill="grey" stroke="grey" points="515.518,-583.929 505.667,-580.029 510.936,-589.221 515.518,-583.929"/>
</g>
<!-- sign_maybe digit_many &#39;.&#39; E_maybe -->
<g id="node31" class="node"><title>sign_maybe digit_many &#39;.&#39; E_maybe</title>
<polygon fill="white" stroke="black" points="216,-580 0,-580 0,-544 216,-544 216,-580"/>
<text text-anchor="middle" x="108" y="-558.3" font-family="Times,serif" font-size="14.00">sign_maybe digit_many &#39;.&#39; E_maybe</text>
</g>
<!-- float&#45;&gt;sign_maybe digit_many &#39;.&#39; E_maybe -->
<g id="edge41" class="edge"><title>float&#45;&gt;sign_maybe digit_many &#39;.&#39; E_maybe</title>
<path fill="none" stroke="grey" d="M540.942,-629.824C480.681,-620.523 332.373,-597.632 226.145,-581.235"/>
<polygon fill="grey" stroke="grey" points="226.417,-577.736 216.001,-579.67 225.35,-584.654 226.417,-577.736"/>
</g>
<!-- sign_maybe non_zero digit_any -->
<g id="node25" class="node"><title>sign_maybe non_zero digit_any</title>
<polygon fill="white" stroke="black" points="869.25,-580 678.75,-580 678.75,-544 869.25,-544 869.25,-580"/>
<text text-anchor="middle" x="774" y="-558.3" font-family="Times,serif" font-size="14.00">sign_maybe non_zero digit_any</text>
</g>
<!-- float&#45;&gt;sign_maybe non_zero digit_any -->
<g id="edge46" class="edge"><title>float&#45;&gt;sign_maybe non_zero digit_any</title>
<path fill="none" stroke="grey" d="M595.355,-624.572C625.624,-614.139 675.316,-597.012 714.617,-583.467"/>
<polygon fill="grey" stroke="grey" points="716.053,-586.674 724.367,-580.107 713.772,-580.056 716.053,-586.674"/>
</g>
<!-- integer_attributes -->
<g id="node14" class="node"><title>integer_attributes</title>
<path fill="goldenrod" stroke="black" d="M972.5,-544C972.5,-544 1059.5,-544 1059.5,-544 1065.5,-544 1071.5,-550 1071.5,-556 1071.5,-556 1071.5,-568 1071.5,-568 1071.5,-574 1065.5,-580 1059.5,-580 1059.5,-580 972.5,-580 972.5,-580 966.5,-580 960.5,-574 960.5,-568 960.5,-568 960.5,-556 960.5,-556 960.5,-550 966.5,-544 972.5,-544"/>
<text text-anchor="middle" x="1016" y="-558.3" font-family="Times,serif" font-size="14.00">action =&gt; integer</text>
</g>
<!-- integer&#45;&gt;integer_attributes -->
<g id="edge16" class="edge"><title>integer&#45;&gt;integer_attributes</title>
<path fill="none" stroke="grey" d="M871.254,-622.75C896.492,-612.332 934.661,-596.576 965.467,-583.859"/>
<polygon fill="grey" stroke="grey" points="966.861,-587.071 974.769,-580.02 964.19,-580.6 966.861,-587.071"/>
</g>
<!-- integer&#45;&gt;sign_maybe non_zero digit_any -->
<g id="edge26" class="edge"><title>integer&#45;&gt;sign_maybe non_zero digit_any</title>
<path fill="none" stroke="grey" d="M827.055,-616.813C818.285,-607.917 807.432,-596.909 797.831,-587.172"/>
<polygon fill="grey" stroke="grey" points="800.302,-584.693 790.789,-580.029 795.317,-589.607 800.302,-584.693"/>
</g>
<!-- zero -->
<g id="node27" class="node"><title>zero</title>
<polygon fill="white" stroke="black" points="942,-580 888,-580 888,-544 942,-544 942,-580"/>
<text text-anchor="middle" x="915" y="-558.3" font-family="Times,serif" font-size="14.00">zero</text>
</g>
<!-- integer&#45;&gt;zero -->
<g id="edge30" class="edge"><title>integer&#45;&gt;zero</title>
<path fill="none" stroke="grey" d="M861.187,-616.813C870.083,-607.917 881.091,-596.909 890.828,-587.172"/>
<polygon fill="grey" stroke="grey" points="893.375,-589.575 897.971,-580.029 888.425,-584.625 893.375,-589.575"/>
</g>
<!-- [0&#45;9] -->
<g id="node15" class="node"><title>[0&#45;9]</title>
<polygon fill="white" stroke="black" points="731,-103 677,-103 677,-67 731,-67 731,-103"/>
<text text-anchor="middle" x="704" y="-81.3" font-family="Times,serif" font-size="14.00">[0&#45;9]</text>
</g>
<!-- digit -->
<g id="node16" class="node"><title>digit</title>
<polygon fill="white" stroke="black" points="731,-219 677,-219 677,-183 731,-183 731,-219"/>
<text text-anchor="middle" x="704" y="-197.3" font-family="Times,serif" font-size="14.00">digit*</text>
</g>
<!-- digit&#45;&gt;[0&#45;9] -->
<g id="edge17" class="edge"><title>digit&#45;&gt;[0&#45;9]</title>
<path fill="none" stroke="grey" d="M704,-182.686C704,-164.249 704,-134.816 704,-113.262"/>
<polygon fill="grey" stroke="grey" points="707.5,-113.104 704,-103.104 700.5,-113.104 707.5,-113.104"/>
</g>
<!-- digit_any -->
<g id="node17" class="node"><title>digit_any</title>
<polygon fill="white" stroke="black" points="796,-507 728,-507 728,-471 796,-471 796,-507"/>
<text text-anchor="middle" x="762" y="-485.3" font-family="Times,serif" font-size="14.00">digit_any</text>
</g>
<!-- digit_any&#45;&gt;digit -->
<g id="edge18" class="edge"><title>digit_any&#45;&gt;digit</title>
<path fill="none" stroke="grey" d="M758.546,-470.966C748.857,-423.192 721.364,-287.623 709.529,-229.266"/>
<polygon fill="grey" stroke="grey" points="712.927,-228.411 707.51,-219.306 706.067,-229.803 712.927,-228.411"/>
</g>
<!-- digit_many -->
<g id="node18" class="node"><title>digit_many</title>
<polygon fill="white" stroke="black" points="355.25,-291 276.75,-291 276.75,-255 355.25,-255 355.25,-291"/>
<text text-anchor="middle" x="316" y="-269.3" font-family="Times,serif" font-size="14.00">digit_many</text>
</g>
<!-- digit_many&#45;&gt;digit -->
<g id="edge19" class="edge"><title>digit_many&#45;&gt;digit</title>
<path fill="none" stroke="grey" d="M355.39,-263.209C368.302,-260.44 382.738,-257.464 396,-255 496,-236.423 521.954,-237.329 622,-219 636.73,-216.301 652.881,-213.022 666.925,-210.067"/>
<polygon fill="grey" stroke="grey" points="667.674,-213.486 676.729,-207.985 666.22,-206.639 667.674,-213.486"/>
</g>
<!-- [Ee] sign_maybe digit_many -->
<g id="node19" class="node"><title>[Ee] sign_maybe digit_many</title>
<polygon fill="white" stroke="black" points="519.5,-363 344.5,-363 344.5,-327 519.5,-327 519.5,-363"/>
<text text-anchor="middle" x="432" y="-341.3" font-family="Times,serif" font-size="14.00">[Ee] sign_maybe digit_many</text>
</g>
<!-- [Ee] -->
<g id="node21" class="node"><title>[Ee]</title>
<polygon fill="white" stroke="black" points="459,-291 405,-291 405,-255 459,-255 459,-291"/>
<text text-anchor="middle" x="432" y="-269.3" font-family="Times,serif" font-size="14.00">[Ee]</text>
</g>
<!-- [Ee] sign_maybe digit_many&#45;&gt;[Ee] -->
<g id="edge21" class="edge"><title>[Ee] sign_maybe digit_many&#45;&gt;[Ee]</title>
<path fill="none" stroke="grey" d="M432,-326.697C432,-318.983 432,-309.712 432,-301.112"/>
<polygon fill="grey" stroke="grey" points="435.5,-301.104 432,-291.104 428.5,-301.104 435.5,-301.104"/>
</g>
<!-- sign_maybe -->
<g id="node22" class="node"><title>sign_maybe</title>
<polygon fill="white" stroke="black" points="627.25,-291 544.75,-291 544.75,-255 627.25,-255 627.25,-291"/>
<text text-anchor="middle" x="586" y="-269.3" font-family="Times,serif" font-size="14.00">sign_maybe</text>
</g>
<!-- [Ee] sign_maybe digit_many&#45;&gt;sign_maybe -->
<g id="edge22" class="edge"><title>[Ee] sign_maybe digit_many&#45;&gt;sign_maybe</title>
<path fill="none" stroke="grey" d="M469.673,-326.876C490.632,-317.349 516.905,-305.407 539.177,-295.283"/>
<polygon fill="grey" stroke="grey" points="540.794,-298.393 548.45,-291.068 537.898,-292.02 540.794,-298.393"/>
</g>
<!-- [Ee] sign_maybe digit_many&#45;&gt;digit_many -->
<g id="edge23" class="edge"><title>[Ee] sign_maybe digit_many&#45;&gt;digit_many</title>
<path fill="none" stroke="grey" d="M403.623,-326.876C388.456,-317.724 369.595,-306.342 353.261,-296.485"/>
<polygon fill="grey" stroke="grey" points="354.856,-293.36 344.486,-291.19 351.239,-299.353 354.856,-293.36"/>
</g>
<!-- E -->
<g id="node20" class="node"><title>E</title>
<polygon fill="white" stroke="black" points="360,-435 306,-435 306,-399 360,-399 360,-435"/>
<text text-anchor="middle" x="333" y="-413.3" font-family="Times,serif" font-size="14.00">E</text>
</g>
<!-- E&#45;&gt;[Ee] sign_maybe digit_many -->
<g id="edge20" class="edge"><title>E&#45;&gt;[Ee] sign_maybe digit_many</title>
<path fill="none" stroke="grey" d="M357.218,-398.876C369.923,-389.893 385.664,-378.763 399.423,-369.034"/>
<polygon fill="grey" stroke="grey" points="401.544,-371.821 407.689,-363.19 397.503,-366.105 401.544,-371.821"/>
</g>
<!-- [+&#45;] -->
<g id="node33" class="node"><title>[+&#45;]</title>
<polygon fill="white" stroke="black" points="613,-219 559,-219 559,-183 613,-183 613,-219"/>
<text text-anchor="middle" x="586" y="-197.3" font-family="Times,serif" font-size="14.00">[+&#45;]</text>
</g>
<!-- sign_maybe&#45;&gt;[+&#45;] -->
<g id="edge51" class="edge"><title>sign_maybe&#45;&gt;[+&#45;]</title>
<path fill="none" stroke="grey" d="M586,-254.697C586,-246.983 586,-237.712 586,-229.112"/>
<polygon fill="grey" stroke="grey" points="589.5,-229.104 586,-219.104 582.5,-229.104 589.5,-229.104"/>
</g>
<g id="node24" class="node"><title></title>
<polygon fill="white" stroke="black" points="386,-219 332,-219 332,-183 386,-183 386,-219"/>
</g>
<!-- sign_maybe&#45;&gt; -->
<g id="edge52" class="edge"><title>sign_maybe&#45;&gt;</title>
<path fill="none" stroke="grey" d="M544.629,-259.242C502.188,-246.155 436.774,-225.983 396.001,-213.41"/>
<polygon fill="grey" stroke="grey" points="396.782,-209.988 386.195,-210.386 394.719,-216.677 396.782,-209.988"/>
</g>
<!-- E_maybe -->
<g id="node23" class="node"><title>E_maybe</title>
<polygon fill="white" stroke="black" points="204,-507 136,-507 136,-471 204,-471 204,-507"/>
<text text-anchor="middle" x="170" y="-485.3" font-family="Times,serif" font-size="14.00">E_maybe</text>
</g>
<!-- E_maybe&#45;&gt;E -->
<g id="edge24" class="edge"><title>E_maybe&#45;&gt;E</title>
<path fill="none" stroke="grey" d="M204.17,-473.326C231.227,-461.706 268.933,-445.513 296.562,-433.648"/>
<polygon fill="grey" stroke="grey" points="298.073,-436.808 305.881,-429.646 295.311,-430.376 298.073,-436.808"/>
</g>
<!-- E_maybe&#45;&gt; -->
<g id="edge25" class="edge"><title>E_maybe&#45;&gt;</title>
<path fill="none" stroke="grey" d="M173.198,-470.763C181.685,-429.167 208.261,-321.794 267,-255 281.995,-237.948 303.862,-225.035 322.515,-216.225"/>
<polygon fill="grey" stroke="grey" points="323.966,-219.411 331.645,-212.111 321.09,-213.028 323.966,-219.411"/>
</g>
<!-- sign_maybe non_zero digit_any&#45;&gt;sign_maybe -->
<g id="edge27" class="edge"><title>sign_maybe non_zero digit_any&#45;&gt;sign_maybe</title>
<path fill="none" stroke="grey" d="M733.68,-543.858C716.932,-534.989 698.523,-522.691 686,-507 633.309,-440.979 664.048,-401.902 625,-327 620.009,-317.427 613.389,-307.7 607.022,-299.236"/>
<polygon fill="grey" stroke="grey" points="609.711,-296.992 600.809,-291.247 604.185,-301.289 609.711,-296.992"/>
</g>
<!-- non_zero -->
<g id="node26" class="node"><title>non_zero</title>
<polygon fill="white" stroke="black" points="881.25,-507 814.75,-507 814.75,-471 881.25,-471 881.25,-507"/>
<text text-anchor="middle" x="848" y="-485.3" font-family="Times,serif" font-size="14.00">non_zero</text>
</g>
<!-- sign_maybe non_zero digit_any&#45;&gt;non_zero -->
<g id="edge28" class="edge"><title>sign_maybe non_zero digit_any&#45;&gt;non_zero</title>
<path fill="none" stroke="grey" d="M791.913,-543.813C801.185,-534.917 812.658,-523.909 822.807,-514.172"/>
<polygon fill="grey" stroke="grey" points="825.459,-516.478 830.252,-507.029 820.613,-511.427 825.459,-516.478"/>
</g>
<!-- sign_maybe non_zero digit_any&#45;&gt;digit_any -->
<g id="edge29" class="edge"><title>sign_maybe non_zero digit_any&#45;&gt;digit_any</title>
<path fill="none" stroke="grey" d="M771.095,-543.813C769.739,-535.789 768.093,-526.047 766.575,-517.069"/>
<polygon fill="grey" stroke="grey" points="769.996,-516.306 764.878,-507.029 763.094,-517.472 769.996,-516.306"/>
</g>
<!-- sign_maybe non_zero digit_any&#45;&gt;sign_maybe -->
<g id="edge47" class="edge"><title>sign_maybe non_zero digit_any&#45;&gt;sign_maybe</title>
<path fill="none" stroke="grey" d="M752.817,-543.988C741.602,-534.123 728.272,-520.922 719,-507 671.239,-435.286 696.922,-397.227 647,-327 639.239,-316.083 628.782,-305.937 618.72,-297.505"/>
<polygon fill="grey" stroke="grey" points="620.78,-294.67 610.794,-291.129 616.392,-300.124 620.78,-294.67"/>
</g>
<!-- sign_maybe non_zero digit_any&#45;&gt;non_zero -->
<g id="edge48" class="edge"><title>sign_maybe non_zero digit_any&#45;&gt;non_zero</title>
<path fill="none" stroke="grey" d="M791.913,-543.813C801.185,-534.917 812.658,-523.909 822.807,-514.172"/>
<polygon fill="grey" stroke="grey" points="825.459,-516.478 830.252,-507.029 820.613,-511.427 825.459,-516.478"/>
</g>
<!-- sign_maybe non_zero digit_any&#45;&gt;digit_any -->
<g id="edge49" class="edge"><title>sign_maybe non_zero digit_any&#45;&gt;digit_any</title>
<path fill="none" stroke="grey" d="M771.095,-543.813C769.739,-535.789 768.093,-526.047 766.575,-517.069"/>
<polygon fill="grey" stroke="grey" points="769.996,-516.306 764.878,-507.029 763.094,-517.472 769.996,-516.306"/>
</g>
<!-- [1&#45;9] -->
<g id="node32" class="node"><title>[1&#45;9]</title>
<polygon fill="white" stroke="black" points="875,-435 821,-435 821,-399 875,-399 875,-435"/>
<text text-anchor="middle" x="848" y="-413.3" font-family="Times,serif" font-size="14.00">[1&#45;9]</text>
</g>
<!-- non_zero&#45;&gt;[1&#45;9] -->
<g id="edge50" class="edge"><title>non_zero&#45;&gt;[1&#45;9]</title>
<path fill="none" stroke="grey" d="M848,-470.697C848,-462.983 848,-453.712 848,-445.112"/>
<polygon fill="grey" stroke="grey" points="851.5,-445.104 848,-435.104 844.5,-445.104 851.5,-445.104"/>
</g>
<!-- &#39;0&#39; -->
<g id="node34" class="node"><title>&#39;0&#39;</title>
<polygon fill="white" stroke="black" points="954,-507 900,-507 900,-471 954,-471 954,-507"/>
<text text-anchor="middle" x="927" y="-485.3" font-family="Times,serif" font-size="14.00">&#39;0&#39;</text>
</g>
<!-- zero&#45;&gt;&#39;0&#39; -->
<g id="edge53" class="edge"><title>zero&#45;&gt;&#39;0&#39;</title>
<path fill="none" stroke="grey" d="M917.905,-543.813C919.261,-535.789 920.907,-526.047 922.425,-517.069"/>
<polygon fill="grey" stroke="grey" points="925.906,-517.472 924.122,-507.029 919.004,-516.306 925.906,-517.472"/>
</g>
<!-- sign_maybe digit_many E&#45;&gt;sign_maybe -->
<g id="edge32" class="edge"><title>sign_maybe digit_many E&#45;&gt;sign_maybe</title>
<path fill="none" stroke="grey" d="M461.819,-470.849C485.468,-433.362 541.873,-343.949 569.786,-299.702"/>
<polygon fill="grey" stroke="grey" points="572.754,-301.558 575.129,-291.232 566.833,-297.823 572.754,-301.558"/>
</g>
<!-- sign_maybe digit_many E&#45;&gt;digit_many -->
<g id="edge33" class="edge"><title>sign_maybe digit_many E&#45;&gt;digit_many</title>
<path fill="none" stroke="grey" d="M435.342,-470.88C418.887,-452.918 392.217,-423.888 369,-399 353.988,-382.907 345.233,-382.484 335,-363 324.929,-343.823 320.196,-319.662 317.971,-301.354"/>
<polygon fill="grey" stroke="grey" points="321.445,-300.918 316.93,-291.333 314.482,-301.642 321.445,-300.918"/>
</g>
<!-- sign_maybe digit_many E&#45;&gt;E -->
<g id="edge34" class="edge"><title>sign_maybe digit_many E&#45;&gt;E</title>
<path fill="none" stroke="grey" d="M422.134,-470.876C406.245,-461.45 386.37,-449.66 369.422,-439.606"/>
<polygon fill="grey" stroke="grey" points="370.738,-436.318 360.352,-434.226 367.167,-442.338 370.738,-436.318"/>
</g>
<!-- sign_maybe digit_any &#39;.&#39; digit_many E_maybe&#45;&gt;sign_maybe -->
<g id="edge36" class="edge"><title>sign_maybe digit_any &#39;.&#39; digit_many E_maybe&#45;&gt;sign_maybe</title>
<path fill="none" stroke="grey" d="M553.148,-543.871C571.473,-535.788 589.226,-524.025 600,-507 640.797,-442.533 614.019,-346.875 596.991,-300.766"/>
<polygon fill="grey" stroke="grey" points="600.17,-299.279 593.328,-291.19 593.632,-301.78 600.17,-299.279"/>
</g>
<!-- sign_maybe digit_any &#39;.&#39; digit_many E_maybe&#45;&gt;digit_any -->
<g id="edge37" class="edge"><title>sign_maybe digit_any &#39;.&#39; digit_many E_maybe&#45;&gt;digit_any</title>
<path fill="none" stroke="grey" d="M552.109,-543.994C603.556,-530.759 673.499,-512.767 718.205,-501.266"/>
<polygon fill="grey" stroke="grey" points="719.084,-504.654 727.896,-498.773 717.34,-497.875 719.084,-504.654"/>
</g>
<!-- &#39;.&#39; -->
<g id="node30" class="node"><title>&#39;.&#39;</title>
<polygon fill="white" stroke="black" points="276,-507 222,-507 222,-471 276,-471 276,-507"/>
<text text-anchor="middle" x="249" y="-485.3" font-family="Times,serif" font-size="14.00">&#39;.&#39;</text>
</g>
<!-- sign_maybe digit_any &#39;.&#39; digit_many E_maybe&#45;&gt;&#39;.&#39; -->
<g id="edge38" class="edge"><title>sign_maybe digit_any &#39;.&#39; digit_many E_maybe&#45;&gt;&#39;.&#39;</title>
<path fill="none" stroke="grey" d="M415.965,-543.96C378.289,-534.23 331.225,-521.164 290,-507 288.588,-506.515 287.155,-506.006 285.712,-505.479"/>
<polygon fill="grey" stroke="grey" points="286.756,-502.131 276.166,-501.817 284.249,-508.667 286.756,-502.131"/>
</g>
<!-- sign_maybe digit_any &#39;.&#39; digit_many E_maybe&#45;&gt;digit_many -->
<g id="edge39" class="edge"><title>sign_maybe digit_any &#39;.&#39; digit_many E_maybe&#45;&gt;digit_many</title>
<path fill="none" stroke="grey" d="M430.176,-543.967C382.593,-525.832 318.583,-491.767 297,-435 279.942,-390.133 294.044,-333.594 305.359,-300.846"/>
<polygon fill="grey" stroke="grey" points="308.777,-301.688 308.892,-291.094 302.195,-299.304 308.777,-301.688"/>
</g>
<!-- sign_maybe digit_any &#39;.&#39; digit_many E_maybe&#45;&gt;E_maybe -->
<g id="edge40" class="edge"><title>sign_maybe digit_any &#39;.&#39; digit_many E_maybe&#45;&gt;E_maybe</title>
<path fill="none" stroke="grey" d="M376.301,-543.984C328.673,-535.468 272.266,-523.868 213.846,-506.985"/>
<polygon fill="grey" stroke="grey" points="214.653,-503.574 204.072,-504.116 212.681,-510.291 214.653,-503.574"/>
</g>
<!-- sign_maybe digit_many &#39;.&#39; E_maybe&#45;&gt;sign_maybe -->
<g id="edge42" class="edge"><title>sign_maybe digit_many &#39;.&#39; E_maybe&#45;&gt;sign_maybe</title>
<path fill="none" stroke="grey" d="M216.031,-544.223C219.052,-543.805 222.046,-543.396 225,-543 294.831,-533.642 488.201,-554.758 540,-507 597.774,-453.733 595.021,-350.639 589.841,-301.431"/>
<polygon fill="grey" stroke="grey" points="593.287,-300.762 588.65,-291.236 586.334,-301.574 593.287,-300.762"/>
</g>
<!-- sign_maybe digit_many &#39;.&#39; E_maybe&#45;&gt;digit_many -->
<g id="edge43" class="edge"><title>sign_maybe digit_many &#39;.&#39; E_maybe&#45;&gt;digit_many</title>
<path fill="none" stroke="grey" d="M108.827,-543.798C110.351,-524.948 114.684,-494.294 127,-471 166.254,-396.758 241.711,-330.914 284.451,-297.408"/>
<polygon fill="grey" stroke="grey" points="286.777,-300.034 292.543,-291.145 282.492,-294.498 286.777,-300.034"/>
</g>
<!-- sign_maybe digit_many &#39;.&#39; E_maybe&#45;&gt;&#39;.&#39; -->
<g id="edge44" class="edge"><title>sign_maybe digit_many &#39;.&#39; E_maybe&#45;&gt;&#39;.&#39;</title>
<path fill="none" stroke="grey" d="M141.773,-543.994C163.159,-533.225 190.802,-519.306 212.664,-508.297"/>
<polygon fill="grey" stroke="grey" points="214.287,-511.399 221.644,-503.775 211.138,-505.146 214.287,-511.399"/>
</g>
<!-- sign_maybe digit_many &#39;.&#39; E_maybe&#45;&gt;E_maybe -->
<g id="edge45" class="edge"><title>sign_maybe digit_many &#39;.&#39; E_maybe&#45;&gt;E_maybe</title>
<path fill="none" stroke="grey" d="M123.008,-543.813C130.624,-535.092 140.013,-524.34 148.391,-514.746"/>
<polygon fill="grey" stroke="grey" points="151.189,-516.863 155.13,-507.029 145.916,-512.259 151.189,-516.863"/>
</g>
<!-- Legend -->
<g id="node37" class="node"><title>Legend</title>
<polygon fill="lightgrey" stroke="none" points="1004.25,-146.5 749.75,-146.5 749.75,-23.5 1004.25,-23.5 1004.25,-146.5"/>
<polygon fill="white" stroke="none" points="757.5,-27.5 757.5,-142.5 996.5,-142.5 996.5,-27.5 757.5,-27.5"/>
<polygon fill="lightgreen" stroke="none" points="761,-118 761,-139 994,-139 994,-118 761,-118"/>
<polygon fill="none" stroke="black" points="761,-118 761,-139 994,-139 994,-118 761,-118"/>
<text text-anchor="start" x="790" y="-125.3" font-family="Times,serif" font-size="14.00">The green node is the start node</text>
<polygon fill="lightblue" stroke="none" points="761,-96 761,-116 994,-116 994,-96 761,-96"/>
<polygon fill="none" stroke="black" points="761,-96 761,-116 994,-116 994,-96 761,-96"/>
<text text-anchor="start" x="764.5" y="-102.8" font-family="Times,serif" font-size="14.00">Lightblue nodes are for lexeme attributes</text>
<polygon fill="orchid" stroke="none" points="761,-74 761,-94 994,-94 994,-74 761,-74"/>
<polygon fill="none" stroke="black" points="761,-74 761,-94 994,-94 994,-74 761,-74"/>
<text text-anchor="start" x="796.5" y="-80.8" font-family="Times,serif" font-size="14.00">Orchid nodes are for lexemes</text>
<polygon fill="goldenrod" stroke="none" points="761,-52 761,-72 994,-72 994,-52 761,-52"/>
<polygon fill="none" stroke="black" points="761,-52 761,-72 994,-72 994,-52 761,-52"/>
<text text-anchor="start" x="799" y="-58.8" font-family="Times,serif" font-size="14.00">Golden nodes are for actions</text>
<polygon fill="#ff3030" stroke="none" points="761,-30 761,-50 994,-50 994,-30 761,-30"/>
<polygon fill="none" stroke="black" points="761,-30 761,-50 994,-50 994,-30 761,-30"/>
<text text-anchor="start" x="809.5" y="-36.8" font-family="Times,serif" font-size="14.00">Red nodes are for events</text>
<polygon fill="none" stroke="black" points="757.5,-27.5 757.5,-142.5 996.5,-142.5 996.5,-27.5 757.5,-27.5"/>
</g>
</g>
</svg>
