<?xml version="1.0" encoding="UTF-8" standalone="no"?>
<!DOCTYPE svg PUBLIC "-//W3C//DTD SVG 1.1//EN"
 "http://www.w3.org/Graphics/SVG/1.1/DTD/svg11.dtd">
<!-- Generated by graphviz version 2.38.0 (20140413.2041)
 -->
<!-- Title: Perl Pages: 1 -->
<svg width="720pt" height="458pt"
 viewBox="0.00 0.00 719.50 458.00" xmlns="http://www.w3.org/2000/svg" xmlns:xlink="http://www.w3.org/1999/xlink">
<g id="graph0" class="graph" transform="scale(1 1) rotate(0) translate(4 454)">
<title>Perl</title>
<polygon fill="white" stroke="none" points="-4,4 -4,-454 715.5,-454 715.5,4 -4,4"/>
<text text-anchor="middle" x="355.75" y="-7.8" font-family="Times,serif" font-size="14.00">preserveAspectRatio.bnf</text>
<!-- strings -->
<g id="node1" class="node"><title>strings</title>
<path fill="lightgreen" stroke="black" d="M206.5,-403.5C206.5,-403.5 236.5,-403.5 236.5,-403.5 242.5,-403.5 248.5,-409.5 248.5,-415.5 248.5,-415.5 248.5,-437.5 248.5,-437.5 248.5,-443.5 242.5,-449.5 236.5,-449.5 236.5,-449.5 206.5,-449.5 206.5,-449.5 200.5,-449.5 194.5,-443.5 194.5,-437.5 194.5,-437.5 194.5,-415.5 194.5,-415.5 194.5,-409.5 200.5,-403.5 206.5,-403.5"/>
<text text-anchor="middle" x="221.5" y="-434.3" font-family="Times,serif" font-size="14.00">:start</text>
<polyline fill="none" stroke="black" points="194.5,-426.5 248.5,-426.5 "/>
<text text-anchor="middle" x="221.5" y="-411.3" font-family="Times,serif" font-size="14.00">strings</text>
</g>
<!-- ꞉default -->
<g id="node2" class="node"><title>꞉default</title>
<polygon fill="lightblue" stroke="black" points="106,-367 47,-367 47,-331 106,-331 106,-367"/>
<text text-anchor="middle" x="76.5" y="-345.3" font-family="Times,serif" font-size="14.00">꞉default</text>
</g>
<!-- strings&#45;&gt;꞉default -->
<g id="edge1" class="edge"><title>strings&#45;&gt;꞉default</title>
<path fill="none" stroke="grey" d="M194.227,-411.299C171.967,-399.709 140.237,-383.187 115.326,-370.216"/>
<polygon fill="grey" stroke="grey" points="116.632,-366.951 106.146,-365.437 113.399,-373.159 116.632,-366.951"/>
</g>
<!-- ꞉discard -->
<g id="node4" class="node"><title>꞉discard</title>
<polygon fill="lightblue" stroke="black" points="193.5,-367 133.5,-367 133.5,-331 193.5,-331 193.5,-367"/>
<text text-anchor="middle" x="163.5" y="-345.3" font-family="Times,serif" font-size="14.00">꞉discard</text>
</g>
<!-- strings&#45;&gt;꞉discard -->
<g id="edge3" class="edge"><title>strings&#45;&gt;꞉discard</title>
<path fill="none" stroke="grey" d="M204.412,-403.256C197.658,-394.464 189.86,-384.314 182.896,-375.248"/>
<polygon fill="grey" stroke="grey" points="185.656,-373.095 176.788,-367.298 180.105,-377.36 185.656,-373.095"/>
</g>
<!-- string -->
<g id="node6" class="node"><title>string</title>
<polygon fill="white" stroke="black" points="375.5,-294.5 321.5,-294.5 321.5,-258.5 375.5,-258.5 375.5,-294.5"/>
<text text-anchor="middle" x="348.5" y="-272.8" font-family="Times,serif" font-size="14.00">string</text>
</g>
<!-- strings&#45;&gt;string -->
<g id="edge5" class="edge"><title>strings&#45;&gt;string</title>
<path fill="none" stroke="grey" d="M220.65,-403.384C220.981,-382.663 224.503,-351.842 240.5,-331 257.89,-308.343 287.441,-294.637 311.239,-286.778"/>
<polygon fill="grey" stroke="grey" points="312.509,-290.05 321.034,-283.759 310.447,-283.36 312.509,-290.05"/>
</g>
<!-- string string -->
<g id="node7" class="node"><title>string string</title>
<polygon fill="white" stroke="black" points="331.5,-367 249.5,-367 249.5,-331 331.5,-331 331.5,-367"/>
<text text-anchor="middle" x="290.5" y="-345.3" font-family="Times,serif" font-size="14.00">string string</text>
</g>
<!-- strings&#45;&gt;string string -->
<g id="edge6" class="edge"><title>strings&#45;&gt;string string</title>
<path fill="none" stroke="grey" d="M241.829,-403.256C250.028,-394.285 259.519,-383.899 267.931,-374.695"/>
<polygon fill="grey" stroke="grey" points="270.529,-377.04 274.692,-367.298 265.362,-372.318 270.529,-377.04"/>
</g>
<!-- string string string -->
<g id="node8" class="node"><title>string string string</title>
<polygon fill="white" stroke="black" points="465.5,-367 349.5,-367 349.5,-331 465.5,-331 465.5,-367"/>
<text text-anchor="middle" x="407.5" y="-345.3" font-family="Times,serif" font-size="14.00">string string string</text>
</g>
<!-- strings&#45;&gt;string string string -->
<g id="edge9" class="edge"><title>strings&#45;&gt;string string string</title>
<path fill="none" stroke="grey" d="M248.546,-414.522C276.543,-403.157 320.971,-385.123 355.748,-371.007"/>
<polygon fill="grey" stroke="grey" points="357.33,-374.142 365.279,-367.138 354.697,-367.656 357.33,-374.142"/>
</g>
<!-- ꞉default_1 -->
<g id="node3" class="node"><title>꞉default_1</title>
<path fill="goldenrod" stroke="black" d="M12,-258.5C12,-258.5 105,-258.5 105,-258.5 111,-258.5 117,-264.5 117,-270.5 117,-270.5 117,-282.5 117,-282.5 117,-288.5 111,-294.5 105,-294.5 105,-294.5 12,-294.5 12,-294.5 6,-294.5 0,-288.5 0,-282.5 0,-282.5 0,-270.5 0,-270.5 0,-264.5 6,-258.5 12,-258.5"/>
<text text-anchor="middle" x="58.5" y="-272.8" font-family="Times,serif" font-size="14.00">action =&gt; [values]</text>
</g>
<!-- ꞉default&#45;&gt;꞉default_1 -->
<g id="edge2" class="edge"><title>꞉default&#45;&gt;꞉default_1</title>
<path fill="none" stroke="grey" d="M72.1427,-330.934C70.1385,-323.084 67.7113,-313.578 65.4631,-304.772"/>
<polygon fill="grey" stroke="grey" points="68.8073,-303.722 62.9422,-294.899 62.0249,-305.454 68.8073,-303.722"/>
</g>
<!-- whitespace -->
<g id="node5" class="node"><title>whitespace</title>
<polygon fill="lightblue" stroke="black" points="212,-294.5 135,-294.5 135,-258.5 212,-258.5 212,-294.5"/>
<text text-anchor="middle" x="173.5" y="-272.8" font-family="Times,serif" font-size="14.00">whitespace</text>
</g>
<!-- ꞉discard&#45;&gt;whitespace -->
<g id="edge4" class="edge"><title>꞉discard&#45;&gt;whitespace</title>
<path fill="none" stroke="grey" d="M165.921,-330.934C167.022,-323.17 168.353,-313.784 169.591,-305.06"/>
<polygon fill="grey" stroke="grey" points="173.093,-305.291 171.032,-294.899 166.162,-304.308 173.093,-305.291"/>
</g>
<!-- [\\s] -->
<g id="node12" class="node"><title>[\\s]</title>
<polygon fill="white" stroke="black" points="200.5,-222 146.5,-222 146.5,-186 200.5,-186 200.5,-222"/>
<text text-anchor="middle" x="173.5" y="-200.3" font-family="Times,serif" font-size="14.00">[\s]+</text>
</g>
<!-- whitespace&#45;&gt;[\\s] -->
<g id="edge16" class="edge"><title>whitespace&#45;&gt;[\\s]</title>
<path fill="none" stroke="grey" d="M173.5,-258.434C173.5,-250.67 173.5,-241.284 173.5,-232.56"/>
<polygon fill="grey" stroke="grey" points="177,-232.399 173.5,-222.399 170,-232.399 177,-232.399"/>
</g>
<!-- letter -->
<g id="node9" class="node"><title>letter</title>
<polygon fill="white" stroke="black" points="375.5,-222 321.5,-222 321.5,-186 375.5,-186 375.5,-222"/>
<text text-anchor="middle" x="348.5" y="-200.3" font-family="Times,serif" font-size="14.00">letter</text>
</g>
<!-- string&#45;&gt;letter -->
<g id="edge13" class="edge"><title>string&#45;&gt;letter</title>
<path fill="none" stroke="grey" d="M348.5,-258.434C348.5,-250.67 348.5,-241.284 348.5,-232.56"/>
<polygon fill="grey" stroke="grey" points="352,-232.399 348.5,-222.399 345,-232.399 352,-232.399"/>
</g>
<!-- string string&#45;&gt;string -->
<g id="edge7" class="edge"><title>string string&#45;&gt;string</title>
<path fill="none" stroke="grey" d="M298.662,-330.934C304.782,-322.402 313.209,-311.912 321.449,-302.493"/>
<polygon fill="grey" stroke="grey" points="324.193,-304.676 328.273,-294.899 318.986,-299.997 324.193,-304.676"/>
</g>
<!-- string string&#45;&gt;string -->
<g id="edge8" class="edge"><title>string string&#45;&gt;string</title>
<path fill="none" stroke="grey" d="M310.418,-330.934C318.179,-322.572 326.817,-312.331 333.991,-303.059"/>
<polygon fill="grey" stroke="grey" points="336.908,-305.002 340.099,-294.899 331.304,-300.807 336.908,-305.002"/>
</g>
<!-- string string string&#45;&gt;string -->
<g id="edge10" class="edge"><title>string string string&#45;&gt;string</title>
<path fill="none" stroke="grey" d="M381.461,-330.934C372.791,-322.658 363.888,-312.54 357.064,-303.343"/>
<polygon fill="grey" stroke="grey" points="359.796,-301.14 351.235,-294.899 354.036,-305.117 359.796,-301.14"/>
</g>
<!-- string string string&#45;&gt;string -->
<g id="edge11" class="edge"><title>string string string&#45;&gt;string</title>
<path fill="none" stroke="grey" d="M393.218,-330.934C386.149,-322.487 377.474,-312.122 369.653,-302.776"/>
<polygon fill="grey" stroke="grey" points="372.163,-300.321 363.061,-294.899 366.794,-304.814 372.163,-300.321"/>
</g>
<!-- string string string&#45;&gt;string -->
<g id="edge12" class="edge"><title>string string string&#45;&gt;string</title>
<path fill="none" stroke="grey" d="M404.974,-330.934C399.538,-322.252 390.966,-311.543 381.928,-301.998"/>
<polygon fill="grey" stroke="grey" points="384.161,-299.28 374.63,-294.653 379.195,-304.214 384.161,-299.28"/>
</g>
<!-- letter_attributes -->
<g id="node10" class="node"><title>letter_attributes</title>
<path fill="goldenrod" stroke="black" d="M255.5,-68.5C255.5,-68.5 335.5,-68.5 335.5,-68.5 341.5,-68.5 347.5,-74.5 347.5,-80.5 347.5,-80.5 347.5,-92.5 347.5,-92.5 347.5,-98.5 341.5,-104.5 335.5,-104.5 335.5,-104.5 255.5,-104.5 255.5,-104.5 249.5,-104.5 243.5,-98.5 243.5,-92.5 243.5,-92.5 243.5,-80.5 243.5,-80.5 243.5,-74.5 249.5,-68.5 255.5,-68.5"/>
<text text-anchor="middle" x="295.5" y="-82.8" font-family="Times,serif" font-size="14.00">action =&gt; string</text>
</g>
<!-- letter&#45;&gt;letter_attributes -->
<g id="edge14" class="edge"><title>letter&#45;&gt;letter_attributes</title>
<path fill="none" stroke="grey" d="M340.68,-185.958C331.951,-166.935 317.721,-135.924 307.563,-113.789"/>
<polygon fill="grey" stroke="grey" points="310.704,-112.241 303.352,-104.612 304.342,-115.161 310.704,-112.241"/>
</g>
<!-- [A&#45;Za&#45;z] -->
<g id="node11" class="node"><title>[A&#45;Za&#45;z]</title>
<polygon fill="white" stroke="black" points="439,-104.5 366,-104.5 366,-68.5 439,-68.5 439,-104.5"/>
<text text-anchor="middle" x="402.5" y="-82.8" font-family="Times,serif" font-size="14.00">[A&#45;Za&#45;z]+</text>
</g>
<!-- letter&#45;&gt;[A&#45;Za&#45;z] -->
<g id="edge15" class="edge"><title>letter&#45;&gt;[A&#45;Za&#45;z]</title>
<path fill="none" stroke="grey" d="M356.468,-185.958C365.361,-166.935 379.86,-135.924 390.209,-113.789"/>
<polygon fill="grey" stroke="grey" points="393.435,-115.154 394.499,-104.612 387.093,-112.189 393.435,-115.154"/>
</g>
<!-- Legend -->
<g id="node13" class="node"><title>Legend</title>
<polygon fill="lightgrey" stroke="none" points="711.5,-150 457.5,-150 457.5,-23 711.5,-23 711.5,-150"/>
<polygon fill="white" stroke="none" points="465.5,-27 465.5,-146 703.5,-146 703.5,-27 465.5,-27"/>
<polygon fill="lightgreen" stroke="none" points="468.5,-121.5 468.5,-142.5 700.5,-142.5 700.5,-121.5 468.5,-121.5"/>
<polygon fill="none" stroke="black" points="468.5,-121.5 468.5,-142.5 700.5,-142.5 700.5,-121.5 468.5,-121.5"/>
<text text-anchor="start" x="497" y="-128.3" font-family="Times,serif" font-size="14.00">The green node is the start node</text>
<polygon fill="lightblue" stroke="none" points="468.5,-98.5 468.5,-119.5 700.5,-119.5 700.5,-98.5 468.5,-98.5"/>
<polygon fill="none" stroke="black" points="468.5,-98.5 468.5,-119.5 700.5,-119.5 700.5,-98.5 468.5,-98.5"/>
<text text-anchor="start" x="471.5" y="-105.3" font-family="Times,serif" font-size="14.00">Lightblue nodes are for lexeme attributes</text>
<polygon fill="orchid" stroke="none" points="468.5,-75.5 468.5,-96.5 700.5,-96.5 700.5,-75.5 468.5,-75.5"/>
<polygon fill="none" stroke="black" points="468.5,-75.5 468.5,-96.5 700.5,-96.5 700.5,-75.5 468.5,-75.5"/>
<text text-anchor="start" x="503.5" y="-82.3" font-family="Times,serif" font-size="14.00">Orchid nodes are for lexemes</text>
<polygon fill="goldenrod" stroke="none" points="468.5,-52.5 468.5,-73.5 700.5,-73.5 700.5,-52.5 468.5,-52.5"/>
<polygon fill="none" stroke="black" points="468.5,-52.5 468.5,-73.5 700.5,-73.5 700.5,-52.5 468.5,-52.5"/>
<text text-anchor="start" x="506" y="-59.3" font-family="Times,serif" font-size="14.00">Golden nodes are for actions</text>
<polygon fill="#ff3030" stroke="none" points="468.5,-29.5 468.5,-50.5 700.5,-50.5 700.5,-29.5 468.5,-29.5"/>
<polygon fill="none" stroke="black" points="468.5,-29.5 468.5,-50.5 700.5,-50.5 700.5,-29.5 468.5,-29.5"/>
<text text-anchor="start" x="516.5" y="-36.3" font-family="Times,serif" font-size="14.00">Red nodes are for events</text>
<polygon fill="none" stroke="black" points="465.5,-27 465.5,-146 703.5,-146 703.5,-27 465.5,-27"/>
</g>
</g>
</svg>
