<?xml version="1.0" encoding="UTF-8" standalone="no"?>
<!DOCTYPE svg PUBLIC "-//W3C//DTD SVG 1.1//EN"
 "http://www.w3.org/Graphics/SVG/1.1/DTD/svg11.dtd">
<!-- Generated by graphviz version 2.30.1 (20130611.0131)
 -->
<!-- Title: Perl Pages: 1 -->
<svg width="719pt" height="457pt"
 viewBox="0.00 0.00 719.00 457.00" xmlns="http://www.w3.org/2000/svg" xmlns:xlink="http://www.w3.org/1999/xlink">
<g id="graph0" class="graph" transform="scale(1 1) rotate(0) translate(4 453)">
<title>Perl</title>
<polygon fill="white" stroke="white" points="-4,5 -4,-453 716,-453 716,5 -4,5"/>
<text text-anchor="middle" x="355.5" y="-7.8" font-family="Times,serif" font-size="14.00">preserveAspectRatio.bnf</text>
<!-- strings -->
<g id="node1" class="node"><title>strings</title>
<path fill="lightgreen" stroke="black" d="M206,-402C206,-402 236,-402 236,-402 242,-402 248,-408 248,-414 248,-414 248,-436 248,-436 248,-442 242,-448 236,-448 236,-448 206,-448 206,-448 200,-448 194,-442 194,-436 194,-436 194,-414 194,-414 194,-408 200,-402 206,-402"/>
<text text-anchor="middle" x="221" y="-432.8" font-family="Times,serif" font-size="14.00">:start</text>
<polyline fill="none" stroke="black" points="194,-425 248,-425 "/>
<text text-anchor="middle" x="221" y="-409.8" font-family="Times,serif" font-size="14.00">strings</text>
</g>
<!-- ꞉default -->
<g id="node2" class="node"><title>꞉default</title>
<polygon fill="lightblue" stroke="black" points="105.5,-365 48.5,-365 48.5,-329 105.5,-329 105.5,-365"/>
<text text-anchor="middle" x="77" y="-343.3" font-family="Times,serif" font-size="14.00">꞉default</text>
</g>
<!-- strings&#45;&gt;꞉default -->
<g id="edge1" class="edge"><title>strings&#45;&gt;꞉default</title>
<path fill="none" stroke="grey" d="M193.915,-409.705C171.664,-397.962 139.885,-381.189 115.074,-368.095"/>
<polygon fill="grey" stroke="grey" points="116.418,-364.846 105.94,-363.274 113.15,-371.037 116.418,-364.846"/>
</g>
<!-- ꞉discard -->
<g id="node4" class="node"><title>꞉discard</title>
<polygon fill="lightblue" stroke="black" points="192.25,-365 133.75,-365 133.75,-329 192.25,-329 192.25,-365"/>
<text text-anchor="middle" x="163" y="-343.3" font-family="Times,serif" font-size="14.00">꞉discard</text>
</g>
<!-- strings&#45;&gt;꞉discard -->
<g id="edge3" class="edge"><title>strings&#45;&gt;꞉discard</title>
<path fill="none" stroke="grey" d="M203.912,-401.609C197.158,-392.758 189.36,-382.541 182.396,-373.415"/>
<polygon fill="grey" stroke="grey" points="185.137,-371.238 176.288,-365.412 179.573,-375.485 185.137,-371.238"/>
</g>
<!-- string -->
<g id="node6" class="node"><title>string</title>
<polygon fill="white" stroke="black" points="375,-292 321,-292 321,-256 375,-256 375,-292"/>
<text text-anchor="middle" x="348" y="-270.3" font-family="Times,serif" font-size="14.00">string</text>
</g>
<!-- strings&#45;&gt;string -->
<g id="edge5" class="edge"><title>strings&#45;&gt;string</title>
<path fill="none" stroke="grey" d="M220.135,-401.782C220.457,-380.962 223.971,-349.986 240,-329 257.369,-306.26 286.921,-292.417 310.725,-284.449"/>
<polygon fill="grey" stroke="grey" points="312.023,-287.71 320.523,-281.385 309.934,-281.03 312.023,-287.71"/>
</g>
<!-- string string -->
<g id="node7" class="node"><title>string string</title>
<polygon fill="white" stroke="black" points="331,-365 249,-365 249,-329 331,-329 331,-365"/>
<text text-anchor="middle" x="290" y="-343.3" font-family="Times,serif" font-size="14.00">string string</text>
</g>
<!-- strings&#45;&gt;string string -->
<g id="edge6" class="edge"><title>strings&#45;&gt;string string</title>
<path fill="none" stroke="grey" d="M241.329,-401.609C249.528,-392.578 259.019,-382.124 267.431,-372.858"/>
<polygon fill="grey" stroke="grey" points="270.061,-375.169 274.192,-365.412 264.878,-370.463 270.061,-375.169"/>
</g>
<!-- string string string -->
<g id="node8" class="node"><title>string string string</title>
<polygon fill="white" stroke="black" points="464.5,-365 349.5,-365 349.5,-329 464.5,-329 464.5,-365"/>
<text text-anchor="middle" x="407" y="-343.3" font-family="Times,serif" font-size="14.00">string string string</text>
</g>
<!-- strings&#45;&gt;string string string -->
<g id="edge9" class="edge"><title>strings&#45;&gt;string string string</title>
<path fill="none" stroke="grey" d="M248.046,-412.949C276.135,-401.472 320.763,-383.236 355.591,-369.006"/>
<polygon fill="grey" stroke="grey" points="357.199,-372.13 365.132,-365.107 354.551,-365.65 357.199,-372.13"/>
</g>
<!-- ꞉default_1 -->
<g id="node3" class="node"><title>꞉default_1</title>
<path fill="goldenrod" stroke="black" d="M11.5,-256C11.5,-256 104.5,-256 104.5,-256 110.5,-256 116.5,-262 116.5,-268 116.5,-268 116.5,-280 116.5,-280 116.5,-286 110.5,-292 104.5,-292 104.5,-292 11.5,-292 11.5,-292 5.5,-292 -0.5,-286 -0.5,-280 -0.5,-280 -0.5,-268 -0.5,-268 -0.5,-262 5.5,-256 11.5,-256"/>
<text text-anchor="middle" x="58" y="-270.3" font-family="Times,serif" font-size="14.00">action =&gt; [values]</text>
</g>
<!-- ꞉default&#45;&gt;꞉default_1 -->
<g id="edge2" class="edge"><title>꞉default&#45;&gt;꞉default_1</title>
<path fill="none" stroke="grey" d="M72.4006,-328.813C70.2302,-320.702 67.5898,-310.836 65.1656,-301.777"/>
<polygon fill="grey" stroke="grey" points="68.5232,-300.784 62.557,-292.029 61.7611,-302.594 68.5232,-300.784"/>
</g>
<!-- whitespace -->
<g id="node5" class="node"><title>whitespace</title>
<polygon fill="lightblue" stroke="black" points="211.25,-292 134.75,-292 134.75,-256 211.25,-256 211.25,-292"/>
<text text-anchor="middle" x="173" y="-270.3" font-family="Times,serif" font-size="14.00">whitespace</text>
</g>
<!-- ꞉discard&#45;&gt;whitespace -->
<g id="edge4" class="edge"><title>꞉discard&#45;&gt;whitespace</title>
<path fill="none" stroke="grey" d="M165.421,-328.813C166.551,-320.789 167.923,-311.047 169.187,-302.069"/>
<polygon fill="grey" stroke="grey" points="172.673,-302.419 170.602,-292.029 165.741,-301.443 172.673,-302.419"/>
</g>
<!-- [\\s] -->
<g id="node12" class="node"><title>[\\s]</title>
<polygon fill="white" stroke="black" points="200,-219 146,-219 146,-183 200,-183 200,-219"/>
<text text-anchor="middle" x="173" y="-197.3" font-family="Times,serif" font-size="14.00">[\s]+</text>
</g>
<!-- whitespace&#45;&gt;[\\s] -->
<g id="edge16" class="edge"><title>whitespace&#45;&gt;[\\s]</title>
<path fill="none" stroke="grey" d="M173,-255.813C173,-247.789 173,-238.047 173,-229.069"/>
<polygon fill="grey" stroke="grey" points="176.5,-229.029 173,-219.029 169.5,-229.029 176.5,-229.029"/>
</g>
<!-- letter -->
<g id="node9" class="node"><title>letter</title>
<polygon fill="white" stroke="black" points="375,-219 321,-219 321,-183 375,-183 375,-219"/>
<text text-anchor="middle" x="348" y="-197.3" font-family="Times,serif" font-size="14.00">letter</text>
</g>
<!-- string&#45;&gt;letter -->
<g id="edge13" class="edge"><title>string&#45;&gt;letter</title>
<path fill="none" stroke="grey" d="M348,-255.813C348,-247.789 348,-238.047 348,-229.069"/>
<polygon fill="grey" stroke="grey" points="351.5,-229.029 348,-219.029 344.5,-229.029 351.5,-229.029"/>
</g>
<!-- string string&#45;&gt;string -->
<g id="edge7" class="edge"><title>string string&#45;&gt;string</title>
<path fill="none" stroke="grey" d="M298.162,-328.813C304.374,-320.092 312.961,-309.34 321.318,-299.746"/>
<polygon fill="grey" stroke="grey" points="324.165,-301.814 328.228,-292.029 318.95,-297.144 324.165,-301.814"/>
</g>
<!-- string string&#45;&gt;string -->
<g id="edge8" class="edge"><title>string string&#45;&gt;string</title>
<path fill="none" stroke="grey" d="M309.918,-328.813C317.794,-320.266 326.575,-309.769 333.811,-300.323"/>
<polygon fill="grey" stroke="grey" points="336.814,-302.149 339.951,-292.029 331.188,-297.984 336.814,-302.149"/>
</g>
<!-- string string string&#45;&gt;string -->
<g id="edge10" class="edge"><title>string string string&#45;&gt;string</title>
<path fill="none" stroke="grey" d="M380.961,-328.813C372.071,-320.266 362.936,-309.769 356.049,-300.323"/>
<polygon fill="grey" stroke="grey" points="358.935,-298.343 350.428,-292.029 353.14,-302.27 358.935,-298.343"/>
</g>
<!-- string string string&#45;&gt;string -->
<g id="edge11" class="edge"><title>string string string&#45;&gt;string</title>
<path fill="none" stroke="grey" d="M392.718,-328.813C385.471,-320.092 376.536,-309.34 368.564,-299.746"/>
<polygon fill="grey" stroke="grey" points="371.234,-297.483 362.151,-292.029 365.85,-301.957 371.234,-297.483"/>
</g>
<!-- string string string&#45;&gt;string -->
<g id="edge12" class="edge"><title>string string string&#45;&gt;string</title>
<path fill="none" stroke="grey" d="M404.474,-328.813C398.943,-319.917 390.167,-308.909 380.956,-299.172"/>
<polygon fill="grey" stroke="grey" points="383.4,-296.666 373.874,-292.029 378.429,-301.594 383.4,-296.666"/>
</g>
<!-- letter_attributes -->
<g id="node10" class="node"><title>letter_attributes</title>
<path fill="goldenrod" stroke="black" d="M255,-67C255,-67 335,-67 335,-67 341,-67 347,-73 347,-79 347,-79 347,-91 347,-91 347,-97 341,-103 335,-103 335,-103 255,-103 255,-103 249,-103 243,-97 243,-91 243,-91 243,-79 243,-79 243,-73 249,-67 255,-67"/>
<text text-anchor="middle" x="295" y="-81.3" font-family="Times,serif" font-size="14.00">action =&gt; string</text>
</g>
<!-- letter&#45;&gt;letter_attributes -->
<g id="edge14" class="edge"><title>letter&#45;&gt;letter_attributes</title>
<path fill="none" stroke="grey" d="M339.95,-182.686C331.262,-163.997 317.319,-134.008 307.265,-112.381"/>
<polygon fill="grey" stroke="grey" points="310.341,-110.696 302.952,-103.104 303.994,-113.647 310.341,-110.696"/>
</g>
<!-- [A&#45;Za&#45;z] -->
<g id="node11" class="node"><title>[A&#45;Za&#45;z]</title>
<polygon fill="white" stroke="black" points="438.25,-103 365.75,-103 365.75,-67 438.25,-67 438.25,-103"/>
<text text-anchor="middle" x="402" y="-81.3" font-family="Times,serif" font-size="14.00">[A&#45;Za&#45;z]+</text>
</g>
<!-- letter&#45;&gt;[A&#45;Za&#45;z] -->
<g id="edge15" class="edge"><title>letter&#45;&gt;[A&#45;Za&#45;z]</title>
<path fill="none" stroke="grey" d="M356.201,-182.686C365.054,-163.997 379.26,-134.008 389.504,-112.381"/>
<polygon fill="grey" stroke="grey" points="392.78,-113.639 393.898,-103.104 386.454,-110.643 392.78,-113.639"/>
</g>
<!-- Legend -->
<g id="node13" class="node"><title>Legend</title>
<polygon fill="lightgrey" stroke="none" points="711.25,-146.5 456.75,-146.5 456.75,-23.5 711.25,-23.5 711.25,-146.5"/>
<polygon fill="white" stroke="none" points="464.5,-27.5 464.5,-142.5 703.5,-142.5 703.5,-27.5 464.5,-27.5"/>
<polygon fill="lightgreen" stroke="none" points="468,-118 468,-139 701,-139 701,-118 468,-118"/>
<polygon fill="none" stroke="black" points="468,-118 468,-139 701,-139 701,-118 468,-118"/>
<text text-anchor="start" x="497" y="-125.3" font-family="Times,serif" font-size="14.00">The green node is the start node</text>
<polygon fill="lightblue" stroke="none" points="468,-96 468,-116 701,-116 701,-96 468,-96"/>
<polygon fill="none" stroke="black" points="468,-96 468,-116 701,-116 701,-96 468,-96"/>
<text text-anchor="start" x="471.5" y="-102.8" font-family="Times,serif" font-size="14.00">Lightblue nodes are for lexeme attributes</text>
<polygon fill="orchid" stroke="none" points="468,-74 468,-94 701,-94 701,-74 468,-74"/>
<polygon fill="none" stroke="black" points="468,-74 468,-94 701,-94 701,-74 468,-74"/>
<text text-anchor="start" x="503.5" y="-80.8" font-family="Times,serif" font-size="14.00">Orchid nodes are for lexemes</text>
<polygon fill="goldenrod" stroke="none" points="468,-52 468,-72 701,-72 701,-52 468,-52"/>
<polygon fill="none" stroke="black" points="468,-52 468,-72 701,-72 701,-52 468,-52"/>
<text text-anchor="start" x="506" y="-58.8" font-family="Times,serif" font-size="14.00">Golden nodes are for actions</text>
<polygon fill="#ff3030" stroke="none" points="468,-30 468,-50 701,-50 701,-30 468,-30"/>
<polygon fill="none" stroke="black" points="468,-30 468,-50 701,-50 701,-30 468,-30"/>
<text text-anchor="start" x="516.5" y="-36.8" font-family="Times,serif" font-size="14.00">Red nodes are for events</text>
<polygon fill="none" stroke="black" points="464.5,-27.5 464.5,-142.5 703.5,-142.5 703.5,-27.5 464.5,-27.5"/>
</g>
</g>
</svg>
