<?xml version="1.0" encoding="UTF-8" standalone="no"?>
<!DOCTYPE svg PUBLIC "-//W3C//DTD SVG 1.1//EN"
 "http://www.w3.org/Graphics/SVG/1.1/DTD/svg11.dtd">
<!-- Generated by graphviz version 2.30.1 (20130611.0131)
 -->
<!-- Title: Perl Pages: 1 -->
<svg width="1079pt" height="1035pt"
 viewBox="0.00 0.00 1079.00 1035.00" xmlns="http://www.w3.org/2000/svg" xmlns:xlink="http://www.w3.org/1999/xlink">
<g id="graph0" class="graph" transform="scale(1 1) rotate(0) translate(4 1031)">
<title>Perl</title>
<polygon fill="white" stroke="white" points="-4,5 -4,-1031 1076,-1031 1076,5 -4,5"/>
<text text-anchor="middle" x="535.5" y="-7.8" font-family="Times,serif" font-size="14.00">viewBox.bnf</text>
<!-- coordinate_pairs -->
<g id="node1" class="node"><title>coordinate_pairs</title>
<path fill="lightgreen" stroke="black" d="M535.5,-980C535.5,-980 618.5,-980 618.5,-980 624.5,-980 630.5,-986 630.5,-992 630.5,-992 630.5,-1014 630.5,-1014 630.5,-1020 624.5,-1026 618.5,-1026 618.5,-1026 535.5,-1026 535.5,-1026 529.5,-1026 523.5,-1020 523.5,-1014 523.5,-1014 523.5,-992 523.5,-992 523.5,-986 529.5,-980 535.5,-980"/>
<text text-anchor="middle" x="577" y="-1010.8" font-family="Times,serif" font-size="14.00">:start</text>
<polyline fill="none" stroke="black" points="523.5,-1003 630.5,-1003 "/>
<text text-anchor="middle" x="577" y="-987.8" font-family="Times,serif" font-size="14.00">coordinate_pairs</text>
</g>
<!-- ꞉default -->
<g id="node2" class="node"><title>꞉default</title>
<polygon fill="lightblue" stroke="black" points="514.5,-943 457.5,-943 457.5,-907 514.5,-907 514.5,-943"/>
<text text-anchor="middle" x="486" y="-921.3" font-family="Times,serif" font-size="14.00">꞉default</text>
</g>
<!-- coordinate_pairs&#45;&gt;꞉default -->
<g id="edge1" class="edge"><title>coordinate_pairs&#45;&gt;꞉default</title>
<path fill="none" stroke="grey" d="M550.189,-979.609C538.967,-970.236 525.91,-959.331 514.512,-949.813"/>
<polygon fill="grey" stroke="grey" points="516.476,-946.892 506.557,-943.168 511.989,-952.265 516.476,-946.892"/>
</g>
<!-- ꞉discard -->
<g id="node4" class="node"><title>꞉discard</title>
<polygon fill="lightblue" stroke="black" points="606.25,-943 547.75,-943 547.75,-907 606.25,-907 606.25,-943"/>
<text text-anchor="middle" x="577" y="-921.3" font-family="Times,serif" font-size="14.00">꞉discard</text>
</g>
<!-- coordinate_pairs&#45;&gt;꞉discard -->
<g id="edge3" class="edge"><title>coordinate_pairs&#45;&gt;꞉discard</title>
<path fill="none" stroke="grey" d="M577,-979.609C577,-971.481 577,-962.2 577,-953.671"/>
<polygon fill="grey" stroke="grey" points="580.5,-953.412 577,-943.412 573.5,-953.412 580.5,-953.412"/>
</g>
<!-- coordinate_pair coordinate_pair -->
<g id="node7" class="node"><title>coordinate_pair coordinate_pair</title>
<polygon fill="white" stroke="black" points="841,-943 651,-943 651,-907 841,-907 841,-943"/>
<text text-anchor="middle" x="746" y="-921.3" font-family="Times,serif" font-size="14.00">coordinate_pair coordinate_pair</text>
</g>
<!-- coordinate_pairs&#45;&gt;coordinate_pair coordinate_pair -->
<g id="edge6" class="edge"><title>coordinate_pairs&#45;&gt;coordinate_pair coordinate_pair</title>
<path fill="none" stroke="grey" d="M626.336,-979.813C649.183,-969.539 676.204,-957.388 698.782,-947.234"/>
<polygon fill="grey" stroke="grey" points="700.477,-950.309 708.162,-943.016 697.606,-943.925 700.477,-950.309"/>
</g>
<!-- ꞉default_1 -->
<g id="node3" class="node"><title>꞉default_1</title>
<path fill="goldenrod" stroke="black" d="M398.5,-834C398.5,-834 491.5,-834 491.5,-834 497.5,-834 503.5,-840 503.5,-846 503.5,-846 503.5,-858 503.5,-858 503.5,-864 497.5,-870 491.5,-870 491.5,-870 398.5,-870 398.5,-870 392.5,-870 386.5,-864 386.5,-858 386.5,-858 386.5,-846 386.5,-846 386.5,-840 392.5,-834 398.5,-834"/>
<text text-anchor="middle" x="445" y="-848.3" font-family="Times,serif" font-size="14.00">action =&gt; [values]</text>
</g>
<!-- ꞉default&#45;&gt;꞉default_1 -->
<g id="edge2" class="edge"><title>꞉default&#45;&gt;꞉default_1</title>
<path fill="none" stroke="grey" d="M476.075,-906.813C471.24,-898.441 465.325,-888.197 459.958,-878.903"/>
<polygon fill="grey" stroke="grey" points="462.865,-876.938 454.834,-870.029 456.803,-880.439 462.865,-876.938"/>
</g>
<!-- comma -->
<g id="node5" class="node"><title>comma</title>
<polygon fill="lightblue" stroke="black" points="579.5,-870 522.5,-870 522.5,-834 579.5,-834 579.5,-870"/>
<text text-anchor="middle" x="551" y="-848.3" font-family="Times,serif" font-size="14.00">comma</text>
</g>
<!-- ꞉discard&#45;&gt;comma -->
<g id="edge4" class="edge"><title>꞉discard&#45;&gt;comma</title>
<path fill="none" stroke="grey" d="M570.706,-906.813C567.704,-898.615 564.045,-888.623 560.699,-879.485"/>
<polygon fill="grey" stroke="grey" points="563.961,-878.215 557.236,-870.029 557.388,-880.623 563.961,-878.215"/>
</g>
<!-- whitespace -->
<g id="node6" class="node"><title>whitespace</title>
<polygon fill="lightblue" stroke="black" points="675.25,-870 598.75,-870 598.75,-834 675.25,-834 675.25,-870"/>
<text text-anchor="middle" x="637" y="-848.3" font-family="Times,serif" font-size="14.00">whitespace</text>
</g>
<!-- ꞉discard&#45;&gt;whitespace -->
<g id="edge5" class="edge"><title>꞉discard&#45;&gt;whitespace</title>
<path fill="none" stroke="grey" d="M591.524,-906.813C598.894,-898.092 607.98,-887.34 616.088,-877.746"/>
<polygon fill="grey" stroke="grey" points="618.828,-879.926 622.609,-870.029 613.482,-875.408 618.828,-879.926"/>
</g>
<!-- &#39;,&#39; -->
<g id="node35" class="node"><title>&#39;,&#39;</title>
<polygon fill="white" stroke="black" points="578,-797 524,-797 524,-761 578,-761 578,-797"/>
<text text-anchor="middle" x="551" y="-775.3" font-family="Times,serif" font-size="14.00">&#39;,&#39;</text>
</g>
<!-- comma&#45;&gt;&#39;,&#39; -->
<g id="edge53" class="edge"><title>comma&#45;&gt;&#39;,&#39;</title>
<path fill="none" stroke="grey" d="M551,-833.813C551,-825.789 551,-816.047 551,-807.069"/>
<polygon fill="grey" stroke="grey" points="554.5,-807.029 551,-797.029 547.5,-807.029 554.5,-807.029"/>
</g>
<!-- [\\s] -->
<g id="node36" class="node"><title>[\\s]</title>
<polygon fill="white" stroke="black" points="662,-797 608,-797 608,-761 662,-761 662,-797"/>
<text text-anchor="middle" x="635" y="-775.3" font-family="Times,serif" font-size="14.00">[\s]+</text>
</g>
<!-- whitespace&#45;&gt;[\\s] -->
<g id="edge54" class="edge"><title>whitespace&#45;&gt;[\\s]</title>
<path fill="none" stroke="grey" d="M636.516,-833.813C636.29,-825.789 636.015,-816.047 635.763,-807.069"/>
<polygon fill="grey" stroke="grey" points="639.26,-806.926 635.48,-797.029 632.263,-807.123 639.26,-806.926"/>
</g>
<!-- coordinate_pair -->
<g id="node8" class="node"><title>coordinate_pair</title>
<polygon fill="white" stroke="black" points="796.25,-870 695.75,-870 695.75,-834 796.25,-834 796.25,-870"/>
<text text-anchor="middle" x="746" y="-848.3" font-family="Times,serif" font-size="14.00">coordinate_pair</text>
</g>
<!-- coordinate_pair coordinate_pair&#45;&gt;coordinate_pair -->
<g id="edge7" class="edge"><title>coordinate_pair coordinate_pair&#45;&gt;coordinate_pair</title>
<path fill="none" stroke="grey" d="M740.122,-906.813C739.282,-898.789 739.049,-889.047 739.422,-880.069"/>
<polygon fill="grey" stroke="grey" points="742.918,-880.253 740.138,-870.029 735.936,-879.754 742.918,-880.253"/>
</g>
<!-- coordinate_pair coordinate_pair&#45;&gt;coordinate_pair -->
<g id="edge8" class="edge"><title>coordinate_pair coordinate_pair&#45;&gt;coordinate_pair</title>
<path fill="none" stroke="grey" d="M751.878,-906.813C752.718,-898.789 752.951,-889.047 752.578,-880.069"/>
<polygon fill="grey" stroke="grey" points="756.064,-879.754 751.862,-870.029 749.082,-880.253 756.064,-879.754"/>
</g>
<!-- coordinate coordinate -->
<g id="node9" class="node"><title>coordinate coordinate</title>
<polygon fill="white" stroke="black" points="814,-797 680,-797 680,-761 814,-761 814,-797"/>
<text text-anchor="middle" x="747" y="-775.3" font-family="Times,serif" font-size="14.00">coordinate coordinate</text>
</g>
<!-- coordinate_pair&#45;&gt;coordinate coordinate -->
<g id="edge9" class="edge"><title>coordinate_pair&#45;&gt;coordinate coordinate</title>
<path fill="none" stroke="grey" d="M746.242,-833.813C746.355,-825.789 746.492,-816.047 746.619,-807.069"/>
<polygon fill="grey" stroke="grey" points="750.119,-807.077 746.76,-797.029 743.12,-806.979 750.119,-807.077"/>
</g>
<!-- coordinate -->
<g id="node10" class="node"><title>coordinate</title>
<polygon fill="white" stroke="black" points="784,-725 710,-725 710,-689 784,-689 784,-725"/>
<text text-anchor="middle" x="747" y="-703.3" font-family="Times,serif" font-size="14.00">coordinate</text>
</g>
<!-- coordinate coordinate&#45;&gt;coordinate -->
<g id="edge10" class="edge"><title>coordinate coordinate&#45;&gt;coordinate</title>
<path fill="none" stroke="grey" d="M741.084,-760.697C740.289,-752.983 740.062,-743.712 740.405,-735.112"/>
<polygon fill="grey" stroke="grey" points="743.898,-735.324 741.105,-725.104 736.915,-734.836 743.898,-735.324"/>
</g>
<!-- coordinate coordinate&#45;&gt;coordinate -->
<g id="edge11" class="edge"><title>coordinate coordinate&#45;&gt;coordinate</title>
<path fill="none" stroke="grey" d="M752.916,-760.697C753.711,-752.983 753.938,-743.712 753.595,-735.112"/>
<polygon fill="grey" stroke="grey" points="757.085,-734.836 752.895,-725.104 750.102,-735.324 757.085,-734.836"/>
</g>
<!-- float -->
<g id="node11" class="node"><title>float</title>
<polygon fill="white" stroke="black" points="595,-653 541,-653 541,-617 595,-617 595,-653"/>
<text text-anchor="middle" x="568" y="-631.3" font-family="Times,serif" font-size="14.00">float</text>
</g>
<!-- coordinate&#45;&gt;float -->
<g id="edge12" class="edge"><title>coordinate&#45;&gt;float</title>
<path fill="none" stroke="grey" d="M709.911,-691.496C679.049,-679.427 635.348,-662.337 604.618,-650.32"/>
<polygon fill="grey" stroke="grey" points="605.716,-646.991 595.129,-646.609 603.167,-653.511 605.716,-646.991"/>
</g>
<!-- integer -->
<g id="node13" class="node"><title>integer</title>
<polygon fill="white" stroke="black" points="871,-653 817,-653 817,-617 871,-617 871,-653"/>
<text text-anchor="middle" x="844" y="-631.3" font-family="Times,serif" font-size="14.00">integer</text>
</g>
<!-- coordinate&#45;&gt;integer -->
<g id="edge14" class="edge"><title>coordinate&#45;&gt;integer</title>
<path fill="none" stroke="grey" d="M770.978,-688.697C783.311,-679.796 798.516,-668.823 811.853,-659.199"/>
<polygon fill="grey" stroke="grey" points="814.237,-661.794 820.298,-653.104 810.141,-656.118 814.237,-661.794"/>
</g>
<!-- float_attributes -->
<g id="node12" class="node"><title>float_attributes</title>
<path fill="goldenrod" stroke="black" d="M246,-544C246,-544 320,-544 320,-544 326,-544 332,-550 332,-556 332,-556 332,-568 332,-568 332,-574 326,-580 320,-580 320,-580 246,-580 246,-580 240,-580 234,-574 234,-568 234,-568 234,-556 234,-556 234,-550 240,-544 246,-544"/>
<text text-anchor="middle" x="283" y="-558.3" font-family="Times,serif" font-size="14.00">action =&gt; float</text>
</g>
<!-- float&#45;&gt;float_attributes -->
<g id="edge13" class="edge"><title>float&#45;&gt;float_attributes</title>
<path fill="none" stroke="grey" d="M540.721,-628.21C498.098,-619.027 413.21,-600.19 342,-581 341.9,-580.973 341.8,-580.946 341.699,-580.919"/>
<polygon fill="grey" stroke="grey" points="342.758,-577.581 332.186,-578.27 340.88,-584.324 342.758,-577.581"/>
</g>
<!-- sign_maybe digit_many E -->
<g id="node28" class="node"><title>sign_maybe digit_many E</title>
<polygon fill="white" stroke="black" points="531.25,-507 370.75,-507 370.75,-471 531.25,-471 531.25,-507"/>
<text text-anchor="middle" x="451" y="-485.3" font-family="Times,serif" font-size="14.00">sign_maybe digit_many E</text>
</g>
<!-- float&#45;&gt;sign_maybe digit_many E -->
<g id="edge30" class="edge"><title>float&#45;&gt;sign_maybe digit_many E</title>
<path fill="none" stroke="grey" d="M595.236,-618.535C608.351,-609.463 622.771,-596.691 630,-581 637.067,-565.661 640.106,-556.532 630,-543 618.603,-527.739 579.937,-515.319 541.445,-506.348"/>
<polygon fill="grey" stroke="grey" points="542.205,-502.932 531.679,-504.142 540.662,-509.76 542.205,-502.932"/>
</g>
<!-- sign_maybe digit_any &#39;.&#39; digit_many E_maybe -->
<g id="node29" class="node"><title>sign_maybe digit_any &#39;.&#39; digit_many E_maybe</title>
<polygon fill="white" stroke="black" points="621.25,-580 350.75,-580 350.75,-544 621.25,-544 621.25,-580"/>
<text text-anchor="middle" x="486" y="-558.3" font-family="Times,serif" font-size="14.00">sign_maybe digit_any &#39;.&#39; digit_many E_maybe</text>
</g>
<!-- float&#45;&gt;sign_maybe digit_any &#39;.&#39; digit_many E_maybe -->
<g id="edge34" class="edge"><title>float&#45;&gt;sign_maybe digit_any &#39;.&#39; digit_many E_maybe</title>
<path fill="none" stroke="grey" d="M548.15,-616.813C537.675,-607.743 524.663,-596.477 513.257,-586.6"/>
<polygon fill="grey" stroke="grey" points="515.518,-583.929 505.667,-580.029 510.936,-589.221 515.518,-583.929"/>
</g>
<!-- sign_maybe digit_many &#39;.&#39; E_maybe -->
<g id="node31" class="node"><title>sign_maybe digit_many &#39;.&#39; E_maybe</title>
<polygon fill="white" stroke="black" points="216,-580 0,-580 0,-544 216,-544 216,-580"/>
<text text-anchor="middle" x="108" y="-558.3" font-family="Times,serif" font-size="14.00">sign_maybe digit_many &#39;.&#39; E_maybe</text>
</g>
<!-- float&#45;&gt;sign_maybe digit_many &#39;.&#39; E_maybe -->
<g id="edge40" class="edge"><title>float&#45;&gt;sign_maybe digit_many &#39;.&#39; E_maybe</title>
<path fill="none" stroke="grey" d="M540.942,-629.824C480.681,-620.523 332.373,-597.632 226.145,-581.235"/>
<polygon fill="grey" stroke="grey" points="226.417,-577.736 216.001,-579.67 225.35,-584.654 226.417,-577.736"/>
</g>
<!-- sign_maybe non_zero digit_any -->
<g id="node25" class="node"><title>sign_maybe non_zero digit_any</title>
<polygon fill="white" stroke="black" points="869.25,-580 678.75,-580 678.75,-544 869.25,-544 869.25,-580"/>
<text text-anchor="middle" x="774" y="-558.3" font-family="Times,serif" font-size="14.00">sign_maybe non_zero digit_any</text>
</g>
<!-- float&#45;&gt;sign_maybe non_zero digit_any -->
<g id="edge45" class="edge"><title>float&#45;&gt;sign_maybe non_zero digit_any</title>
<path fill="none" stroke="grey" d="M595.355,-624.572C625.624,-614.139 675.316,-597.012 714.617,-583.467"/>
<polygon fill="grey" stroke="grey" points="716.053,-586.674 724.367,-580.107 713.772,-580.056 716.053,-586.674"/>
</g>
<!-- integer_attributes -->
<g id="node14" class="node"><title>integer_attributes</title>
<path fill="goldenrod" stroke="black" d="M972.5,-544C972.5,-544 1059.5,-544 1059.5,-544 1065.5,-544 1071.5,-550 1071.5,-556 1071.5,-556 1071.5,-568 1071.5,-568 1071.5,-574 1065.5,-580 1059.5,-580 1059.5,-580 972.5,-580 972.5,-580 966.5,-580 960.5,-574 960.5,-568 960.5,-568 960.5,-556 960.5,-556 960.5,-550 966.5,-544 972.5,-544"/>
<text text-anchor="middle" x="1016" y="-558.3" font-family="Times,serif" font-size="14.00">action =&gt; integer</text>
</g>
<!-- integer&#45;&gt;integer_attributes -->
<g id="edge15" class="edge"><title>integer&#45;&gt;integer_attributes</title>
<path fill="none" stroke="grey" d="M871.254,-622.75C896.492,-612.332 934.661,-596.576 965.467,-583.859"/>
<polygon fill="grey" stroke="grey" points="966.861,-587.071 974.769,-580.02 964.19,-580.6 966.861,-587.071"/>
</g>
<!-- integer&#45;&gt;sign_maybe non_zero digit_any -->
<g id="edge25" class="edge"><title>integer&#45;&gt;sign_maybe non_zero digit_any</title>
<path fill="none" stroke="grey" d="M827.055,-616.813C818.285,-607.917 807.432,-596.909 797.831,-587.172"/>
<polygon fill="grey" stroke="grey" points="800.302,-584.693 790.789,-580.029 795.317,-589.607 800.302,-584.693"/>
</g>
<!-- zero -->
<g id="node27" class="node"><title>zero</title>
<polygon fill="white" stroke="black" points="942,-580 888,-580 888,-544 942,-544 942,-580"/>
<text text-anchor="middle" x="915" y="-558.3" font-family="Times,serif" font-size="14.00">zero</text>
</g>
<!-- integer&#45;&gt;zero -->
<g id="edge29" class="edge"><title>integer&#45;&gt;zero</title>
<path fill="none" stroke="grey" d="M861.187,-616.813C870.083,-607.917 881.091,-596.909 890.828,-587.172"/>
<polygon fill="grey" stroke="grey" points="893.375,-589.575 897.971,-580.029 888.425,-584.625 893.375,-589.575"/>
</g>
<!-- [0&#45;9] -->
<g id="node15" class="node"><title>[0&#45;9]</title>
<polygon fill="white" stroke="black" points="731,-103 677,-103 677,-67 731,-67 731,-103"/>
<text text-anchor="middle" x="704" y="-81.3" font-family="Times,serif" font-size="14.00">[0&#45;9]</text>
</g>
<!-- digit -->
<g id="node16" class="node"><title>digit</title>
<polygon fill="white" stroke="black" points="731,-219 677,-219 677,-183 731,-183 731,-219"/>
<text text-anchor="middle" x="704" y="-197.3" font-family="Times,serif" font-size="14.00">digit*</text>
</g>
<!-- digit&#45;&gt;[0&#45;9] -->
<g id="edge16" class="edge"><title>digit&#45;&gt;[0&#45;9]</title>
<path fill="none" stroke="grey" d="M704,-182.686C704,-164.249 704,-134.816 704,-113.262"/>
<polygon fill="grey" stroke="grey" points="707.5,-113.104 704,-103.104 700.5,-113.104 707.5,-113.104"/>
</g>
<!-- digit_any -->
<g id="node17" class="node"><title>digit_any</title>
<polygon fill="white" stroke="black" points="796,-507 728,-507 728,-471 796,-471 796,-507"/>
<text text-anchor="middle" x="762" y="-485.3" font-family="Times,serif" font-size="14.00">digit_any</text>
</g>
<!-- digit_any&#45;&gt;digit -->
<g id="edge17" class="edge"><title>digit_any&#45;&gt;digit</title>
<path fill="none" stroke="grey" d="M758.546,-470.966C748.857,-423.192 721.364,-287.623 709.529,-229.266"/>
<polygon fill="grey" stroke="grey" points="712.927,-228.411 707.51,-219.306 706.067,-229.803 712.927,-228.411"/>
</g>
<!-- digit_many -->
<g id="node18" class="node"><title>digit_many</title>
<polygon fill="white" stroke="black" points="355.25,-291 276.75,-291 276.75,-255 355.25,-255 355.25,-291"/>
<text text-anchor="middle" x="316" y="-269.3" font-family="Times,serif" font-size="14.00">digit_many</text>
</g>
<!-- digit_many&#45;&gt;digit -->
<g id="edge18" class="edge"><title>digit_many&#45;&gt;digit</title>
<path fill="none" stroke="grey" d="M355.39,-263.209C368.302,-260.44 382.738,-257.464 396,-255 496,-236.423 521.954,-237.329 622,-219 636.73,-216.301 652.881,-213.022 666.925,-210.067"/>
<polygon fill="grey" stroke="grey" points="667.674,-213.486 676.729,-207.985 666.22,-206.639 667.674,-213.486"/>
</g>
<!-- [Ee] sign_maybe digit_many -->
<g id="node19" class="node"><title>[Ee] sign_maybe digit_many</title>
<polygon fill="white" stroke="black" points="519.5,-363 344.5,-363 344.5,-327 519.5,-327 519.5,-363"/>
<text text-anchor="middle" x="432" y="-341.3" font-family="Times,serif" font-size="14.00">[Ee] sign_maybe digit_many</text>
</g>
<!-- [Ee] -->
<g id="node21" class="node"><title>[Ee]</title>
<polygon fill="white" stroke="black" points="459,-291 405,-291 405,-255 459,-255 459,-291"/>
<text text-anchor="middle" x="432" y="-269.3" font-family="Times,serif" font-size="14.00">[Ee]</text>
</g>
<!-- [Ee] sign_maybe digit_many&#45;&gt;[Ee] -->
<g id="edge20" class="edge"><title>[Ee] sign_maybe digit_many&#45;&gt;[Ee]</title>
<path fill="none" stroke="grey" d="M432,-326.697C432,-318.983 432,-309.712 432,-301.112"/>
<polygon fill="grey" stroke="grey" points="435.5,-301.104 432,-291.104 428.5,-301.104 435.5,-301.104"/>
</g>
<!-- sign_maybe -->
<g id="node22" class="node"><title>sign_maybe</title>
<polygon fill="white" stroke="black" points="627.25,-291 544.75,-291 544.75,-255 627.25,-255 627.25,-291"/>
<text text-anchor="middle" x="586" y="-269.3" font-family="Times,serif" font-size="14.00">sign_maybe</text>
</g>
<!-- [Ee] sign_maybe digit_many&#45;&gt;sign_maybe -->
<g id="edge21" class="edge"><title>[Ee] sign_maybe digit_many&#45;&gt;sign_maybe</title>
<path fill="none" stroke="grey" d="M469.673,-326.876C490.632,-317.349 516.905,-305.407 539.177,-295.283"/>
<polygon fill="grey" stroke="grey" points="540.794,-298.393 548.45,-291.068 537.898,-292.02 540.794,-298.393"/>
</g>
<!-- [Ee] sign_maybe digit_many&#45;&gt;digit_many -->
<g id="edge22" class="edge"><title>[Ee] sign_maybe digit_many&#45;&gt;digit_many</title>
<path fill="none" stroke="grey" d="M403.623,-326.876C388.456,-317.724 369.595,-306.342 353.261,-296.485"/>
<polygon fill="grey" stroke="grey" points="354.856,-293.36 344.486,-291.19 351.239,-299.353 354.856,-293.36"/>
</g>
<!-- E -->
<g id="node20" class="node"><title>E</title>
<polygon fill="white" stroke="black" points="360,-435 306,-435 306,-399 360,-399 360,-435"/>
<text text-anchor="middle" x="333" y="-413.3" font-family="Times,serif" font-size="14.00">E</text>
</g>
<!-- E&#45;&gt;[Ee] sign_maybe digit_many -->
<g id="edge19" class="edge"><title>E&#45;&gt;[Ee] sign_maybe digit_many</title>
<path fill="none" stroke="grey" d="M357.218,-398.876C369.923,-389.893 385.664,-378.763 399.423,-369.034"/>
<polygon fill="grey" stroke="grey" points="401.544,-371.821 407.689,-363.19 397.503,-366.105 401.544,-371.821"/>
</g>
<!-- [+&#45;] -->
<g id="node33" class="node"><title>[+&#45;]</title>
<polygon fill="white" stroke="black" points="613,-219 559,-219 559,-183 613,-183 613,-219"/>
<text text-anchor="middle" x="586" y="-197.3" font-family="Times,serif" font-size="14.00">[+&#45;]</text>
</g>
<!-- sign_maybe&#45;&gt;[+&#45;] -->
<g id="edge50" class="edge"><title>sign_maybe&#45;&gt;[+&#45;]</title>
<path fill="none" stroke="grey" d="M586,-254.697C586,-246.983 586,-237.712 586,-229.112"/>
<polygon fill="grey" stroke="grey" points="589.5,-229.104 586,-219.104 582.5,-229.104 589.5,-229.104"/>
</g>
<g id="node24" class="node"><title></title>
<polygon fill="white" stroke="black" points="390,-219 336,-219 336,-183 390,-183 390,-219"/>
</g>
<!-- sign_maybe&#45;&gt; -->
<g id="edge51" class="edge"><title>sign_maybe&#45;&gt;</title>
<path fill="none" stroke="grey" d="M544.578,-258.998C503.008,-245.949 439.584,-226.04 399.752,-213.537"/>
<polygon fill="grey" stroke="grey" points="400.75,-210.182 390.161,-210.526 398.654,-216.86 400.75,-210.182"/>
</g>
<!-- E_maybe -->
<g id="node23" class="node"><title>E_maybe</title>
<polygon fill="white" stroke="black" points="204,-507 136,-507 136,-471 204,-471 204,-507"/>
<text text-anchor="middle" x="170" y="-485.3" font-family="Times,serif" font-size="14.00">E_maybe</text>
</g>
<!-- E_maybe&#45;&gt;E -->
<g id="edge23" class="edge"><title>E_maybe&#45;&gt;E</title>
<path fill="none" stroke="grey" d="M204.17,-473.326C231.227,-461.706 268.933,-445.513 296.562,-433.648"/>
<polygon fill="grey" stroke="grey" points="298.073,-436.808 305.881,-429.646 295.311,-430.376 298.073,-436.808"/>
</g>
<!-- E_maybe&#45;&gt; -->
<g id="edge24" class="edge"><title>E_maybe&#45;&gt;</title>
<path fill="none" stroke="grey" d="M173.223,-470.71C181.779,-428.996 208.591,-321.382 268,-255 283.803,-237.343 306.935,-224.262 326.417,-215.514"/>
<polygon fill="grey" stroke="grey" points="327.823,-218.719 335.639,-211.566 325.068,-212.284 327.823,-218.719"/>
</g>
<!-- sign_maybe non_zero digit_any&#45;&gt;sign_maybe -->
<g id="edge26" class="edge"><title>sign_maybe non_zero digit_any&#45;&gt;sign_maybe</title>
<path fill="none" stroke="grey" d="M733.717,-543.829C716.976,-534.953 698.562,-522.66 686,-507 633.056,-440.999 662.838,-402.173 624,-327 619.089,-317.494 612.626,-307.785 606.425,-299.317"/>
<polygon fill="grey" stroke="grey" points="609.201,-297.184 600.38,-291.316 603.616,-301.404 609.201,-297.184"/>
</g>
<!-- non_zero -->
<g id="node26" class="node"><title>non_zero</title>
<polygon fill="white" stroke="black" points="881.25,-507 814.75,-507 814.75,-471 881.25,-471 881.25,-507"/>
<text text-anchor="middle" x="848" y="-485.3" font-family="Times,serif" font-size="14.00">non_zero</text>
</g>
<!-- sign_maybe non_zero digit_any&#45;&gt;non_zero -->
<g id="edge27" class="edge"><title>sign_maybe non_zero digit_any&#45;&gt;non_zero</title>
<path fill="none" stroke="grey" d="M791.913,-543.813C801.185,-534.917 812.658,-523.909 822.807,-514.172"/>
<polygon fill="grey" stroke="grey" points="825.459,-516.478 830.252,-507.029 820.613,-511.427 825.459,-516.478"/>
</g>
<!-- sign_maybe non_zero digit_any&#45;&gt;digit_any -->
<g id="edge28" class="edge"><title>sign_maybe non_zero digit_any&#45;&gt;digit_any</title>
<path fill="none" stroke="grey" d="M771.095,-543.813C769.739,-535.789 768.093,-526.047 766.575,-517.069"/>
<polygon fill="grey" stroke="grey" points="769.996,-516.306 764.878,-507.029 763.094,-517.472 769.996,-516.306"/>
</g>
<!-- sign_maybe non_zero digit_any&#45;&gt;sign_maybe -->
<g id="edge46" class="edge"><title>sign_maybe non_zero digit_any&#45;&gt;sign_maybe</title>
<path fill="none" stroke="grey" d="M752.869,-543.953C741.67,-534.077 728.338,-520.878 719,-507 670.711,-435.238 694.868,-397.674 645,-327 637.358,-316.17 627.121,-305.99 617.32,-297.504"/>
<polygon fill="grey" stroke="grey" points="619.535,-294.793 609.612,-291.08 615.054,-300.171 619.535,-294.793"/>
</g>
<!-- sign_maybe non_zero digit_any&#45;&gt;non_zero -->
<g id="edge47" class="edge"><title>sign_maybe non_zero digit_any&#45;&gt;non_zero</title>
<path fill="none" stroke="grey" d="M791.913,-543.813C801.185,-534.917 812.658,-523.909 822.807,-514.172"/>
<polygon fill="grey" stroke="grey" points="825.459,-516.478 830.252,-507.029 820.613,-511.427 825.459,-516.478"/>
</g>
<!-- sign_maybe non_zero digit_any&#45;&gt;digit_any -->
<g id="edge48" class="edge"><title>sign_maybe non_zero digit_any&#45;&gt;digit_any</title>
<path fill="none" stroke="grey" d="M771.095,-543.813C769.739,-535.789 768.093,-526.047 766.575,-517.069"/>
<polygon fill="grey" stroke="grey" points="769.996,-516.306 764.878,-507.029 763.094,-517.472 769.996,-516.306"/>
</g>
<!-- [1&#45;9] -->
<g id="node32" class="node"><title>[1&#45;9]</title>
<polygon fill="white" stroke="black" points="875,-435 821,-435 821,-399 875,-399 875,-435"/>
<text text-anchor="middle" x="848" y="-413.3" font-family="Times,serif" font-size="14.00">[1&#45;9]</text>
</g>
<!-- non_zero&#45;&gt;[1&#45;9] -->
<g id="edge49" class="edge"><title>non_zero&#45;&gt;[1&#45;9]</title>
<path fill="none" stroke="grey" d="M848,-470.697C848,-462.983 848,-453.712 848,-445.112"/>
<polygon fill="grey" stroke="grey" points="851.5,-445.104 848,-435.104 844.5,-445.104 851.5,-445.104"/>
</g>
<!-- &#39;0&#39; -->
<g id="node34" class="node"><title>&#39;0&#39;</title>
<polygon fill="white" stroke="black" points="954,-507 900,-507 900,-471 954,-471 954,-507"/>
<text text-anchor="middle" x="927" y="-485.3" font-family="Times,serif" font-size="14.00">&#39;0&#39;</text>
</g>
<!-- zero&#45;&gt;&#39;0&#39; -->
<g id="edge52" class="edge"><title>zero&#45;&gt;&#39;0&#39;</title>
<path fill="none" stroke="grey" d="M917.905,-543.813C919.261,-535.789 920.907,-526.047 922.425,-517.069"/>
<polygon fill="grey" stroke="grey" points="925.906,-517.472 924.122,-507.029 919.004,-516.306 925.906,-517.472"/>
</g>
<!-- sign_maybe digit_many E&#45;&gt;sign_maybe -->
<g id="edge31" class="edge"><title>sign_maybe digit_many E&#45;&gt;sign_maybe</title>
<path fill="none" stroke="grey" d="M461.819,-470.849C485.468,-433.362 541.873,-343.949 569.786,-299.702"/>
<polygon fill="grey" stroke="grey" points="572.754,-301.558 575.129,-291.232 566.833,-297.823 572.754,-301.558"/>
</g>
<!-- sign_maybe digit_many E&#45;&gt;digit_many -->
<g id="edge32" class="edge"><title>sign_maybe digit_many E&#45;&gt;digit_many</title>
<path fill="none" stroke="grey" d="M435.342,-470.88C418.887,-452.918 392.217,-423.888 369,-399 353.988,-382.907 345.233,-382.484 335,-363 324.929,-343.823 320.196,-319.662 317.971,-301.354"/>
<polygon fill="grey" stroke="grey" points="321.445,-300.918 316.93,-291.333 314.482,-301.642 321.445,-300.918"/>
</g>
<!-- sign_maybe digit_many E&#45;&gt;E -->
<g id="edge33" class="edge"><title>sign_maybe digit_many E&#45;&gt;E</title>
<path fill="none" stroke="grey" d="M422.134,-470.876C406.245,-461.45 386.37,-449.66 369.422,-439.606"/>
<polygon fill="grey" stroke="grey" points="370.738,-436.318 360.352,-434.226 367.167,-442.338 370.738,-436.318"/>
</g>
<!-- sign_maybe digit_any &#39;.&#39; digit_many E_maybe&#45;&gt;sign_maybe -->
<g id="edge35" class="edge"><title>sign_maybe digit_any &#39;.&#39; digit_many E_maybe&#45;&gt;sign_maybe</title>
<path fill="none" stroke="grey" d="M553.148,-543.871C571.473,-535.788 589.226,-524.025 600,-507 640.797,-442.533 614.019,-346.875 596.991,-300.766"/>
<polygon fill="grey" stroke="grey" points="600.17,-299.279 593.328,-291.19 593.632,-301.78 600.17,-299.279"/>
</g>
<!-- sign_maybe digit_any &#39;.&#39; digit_many E_maybe&#45;&gt;digit_any -->
<g id="edge36" class="edge"><title>sign_maybe digit_any &#39;.&#39; digit_many E_maybe&#45;&gt;digit_any</title>
<path fill="none" stroke="grey" d="M552.109,-543.994C603.556,-530.759 673.499,-512.767 718.205,-501.266"/>
<polygon fill="grey" stroke="grey" points="719.084,-504.654 727.896,-498.773 717.34,-497.875 719.084,-504.654"/>
</g>
<!-- &#39;.&#39; -->
<g id="node30" class="node"><title>&#39;.&#39;</title>
<polygon fill="white" stroke="black" points="276,-507 222,-507 222,-471 276,-471 276,-507"/>
<text text-anchor="middle" x="249" y="-485.3" font-family="Times,serif" font-size="14.00">&#39;.&#39;</text>
</g>
<!-- sign_maybe digit_any &#39;.&#39; digit_many E_maybe&#45;&gt;&#39;.&#39; -->
<g id="edge37" class="edge"><title>sign_maybe digit_any &#39;.&#39; digit_many E_maybe&#45;&gt;&#39;.&#39;</title>
<path fill="none" stroke="grey" d="M415.965,-543.96C378.289,-534.23 331.225,-521.164 290,-507 288.588,-506.515 287.155,-506.006 285.712,-505.479"/>
<polygon fill="grey" stroke="grey" points="286.756,-502.131 276.166,-501.817 284.249,-508.667 286.756,-502.131"/>
</g>
<!-- sign_maybe digit_any &#39;.&#39; digit_many E_maybe&#45;&gt;digit_many -->
<g id="edge38" class="edge"><title>sign_maybe digit_any &#39;.&#39; digit_many E_maybe&#45;&gt;digit_many</title>
<path fill="none" stroke="grey" d="M430.28,-543.927C382.768,-525.766 318.801,-491.683 297,-435 279.769,-390.199 293.928,-333.638 305.302,-300.868"/>
<polygon fill="grey" stroke="grey" points="308.722,-301.703 308.853,-291.109 302.144,-299.309 308.722,-301.703"/>
</g>
<!-- sign_maybe digit_any &#39;.&#39; digit_many E_maybe&#45;&gt;E_maybe -->
<g id="edge39" class="edge"><title>sign_maybe digit_any &#39;.&#39; digit_many E_maybe&#45;&gt;E_maybe</title>
<path fill="none" stroke="grey" d="M376.301,-543.984C328.673,-535.468 272.266,-523.868 213.846,-506.985"/>
<polygon fill="grey" stroke="grey" points="214.653,-503.574 204.072,-504.116 212.681,-510.291 214.653,-503.574"/>
</g>
<!-- sign_maybe digit_many &#39;.&#39; E_maybe&#45;&gt;sign_maybe -->
<g id="edge41" class="edge"><title>sign_maybe digit_many &#39;.&#39; E_maybe&#45;&gt;sign_maybe</title>
<path fill="none" stroke="grey" d="M216.031,-544.223C219.052,-543.805 222.046,-543.396 225,-543 294.831,-533.642 488.201,-554.758 540,-507 597.774,-453.733 595.021,-350.639 589.841,-301.431"/>
<polygon fill="grey" stroke="grey" points="593.287,-300.762 588.65,-291.236 586.334,-301.574 593.287,-300.762"/>
</g>
<!-- sign_maybe digit_many &#39;.&#39; E_maybe&#45;&gt;digit_many -->
<g id="edge42" class="edge"><title>sign_maybe digit_many &#39;.&#39; E_maybe&#45;&gt;digit_many</title>
<path fill="none" stroke="grey" d="M108.827,-543.798C110.351,-524.948 114.684,-494.294 127,-471 166.254,-396.758 241.711,-330.914 284.451,-297.408"/>
<polygon fill="grey" stroke="grey" points="286.777,-300.034 292.543,-291.145 282.492,-294.498 286.777,-300.034"/>
</g>
<!-- sign_maybe digit_many &#39;.&#39; E_maybe&#45;&gt;&#39;.&#39; -->
<g id="edge43" class="edge"><title>sign_maybe digit_many &#39;.&#39; E_maybe&#45;&gt;&#39;.&#39;</title>
<path fill="none" stroke="grey" d="M141.773,-543.994C163.159,-533.225 190.802,-519.306 212.664,-508.297"/>
<polygon fill="grey" stroke="grey" points="214.287,-511.399 221.644,-503.775 211.138,-505.146 214.287,-511.399"/>
</g>
<!-- sign_maybe digit_many &#39;.&#39; E_maybe&#45;&gt;E_maybe -->
<g id="edge44" class="edge"><title>sign_maybe digit_many &#39;.&#39; E_maybe&#45;&gt;E_maybe</title>
<path fill="none" stroke="grey" d="M123.008,-543.813C130.624,-535.092 140.013,-524.34 148.391,-514.746"/>
<polygon fill="grey" stroke="grey" points="151.189,-516.863 155.13,-507.029 145.916,-512.259 151.189,-516.863"/>
</g>
<!-- Legend -->
<g id="node37" class="node"><title>Legend</title>
<polygon fill="lightgrey" stroke="none" points="1004.25,-146.5 749.75,-146.5 749.75,-23.5 1004.25,-23.5 1004.25,-146.5"/>
<polygon fill="white" stroke="none" points="757.5,-27.5 757.5,-142.5 996.5,-142.5 996.5,-27.5 757.5,-27.5"/>
<polygon fill="lightgreen" stroke="none" points="761,-118 761,-139 994,-139 994,-118 761,-118"/>
<polygon fill="none" stroke="black" points="761,-118 761,-139 994,-139 994,-118 761,-118"/>
<text text-anchor="start" x="790" y="-125.3" font-family="Times,serif" font-size="14.00">The green node is the start node</text>
<polygon fill="lightblue" stroke="none" points="761,-96 761,-116 994,-116 994,-96 761,-96"/>
<polygon fill="none" stroke="black" points="761,-96 761,-116 994,-116 994,-96 761,-96"/>
<text text-anchor="start" x="764.5" y="-102.8" font-family="Times,serif" font-size="14.00">Lightblue nodes are for lexeme attributes</text>
<polygon fill="orchid" stroke="none" points="761,-74 761,-94 994,-94 994,-74 761,-74"/>
<polygon fill="none" stroke="black" points="761,-74 761,-94 994,-94 994,-74 761,-74"/>
<text text-anchor="start" x="796.5" y="-80.8" font-family="Times,serif" font-size="14.00">Orchid nodes are for lexemes</text>
<polygon fill="goldenrod" stroke="none" points="761,-52 761,-72 994,-72 994,-52 761,-52"/>
<polygon fill="none" stroke="black" points="761,-52 761,-72 994,-72 994,-52 761,-52"/>
<text text-anchor="start" x="799" y="-58.8" font-family="Times,serif" font-size="14.00">Golden nodes are for actions</text>
<polygon fill="#ff3030" stroke="none" points="761,-30 761,-50 994,-50 994,-30 761,-30"/>
<polygon fill="none" stroke="black" points="761,-30 761,-50 994,-50 994,-30 761,-30"/>
<text text-anchor="start" x="809.5" y="-36.8" font-family="Times,serif" font-size="14.00">Red nodes are for events</text>
<polygon fill="none" stroke="black" points="757.5,-27.5 757.5,-142.5 996.5,-142.5 996.5,-27.5 757.5,-27.5"/>
</g>
</g>
</svg>
