/* XPM */
static char * app_exit_xpm[] = {
"16 16 184 2",
"  	c None",
". 	c #5B5D59",
"+ 	c #555753",
"@ 	c #565854",
"# 	c #5C5E5A",
"$ 	c #646562",
"% 	c #686966",
"& 	c #686A67",
"* 	c #656763",
"= 	c #6D6E6B",
"- 	c #A6A6A6",
"; 	c #858585",
"> 	c #797979",
", 	c #6E6E6E",
"' 	c #656565",
") 	c #5D5D5D",
"! 	c #595959",
"~ 	c #EFEFED",
"{ 	c #F1F1EF",
"] 	c #F4F4F3",
"^ 	c #F6F6F5",
"/ 	c #EDEEEC",
"( 	c #7F817D",
"_ 	c #ADADAD",
": 	c #8C8C8C",
"< 	c #7F7F7F",
"[ 	c #757575",
"} 	c #6C6C6C",
"| 	c #646464",
"1 	c #606060",
"2 	c #F3F3F2",
"3 	c #F8F8F7",
"4 	c #FBFBFA",
"5 	c #FBFBFB",
"6 	c #F9F9F9",
"7 	c #9A9B98",
"8 	c #BABABA",
"9 	c #959595",
"0 	c #898989",
"a 	c #7E7E7E",
"b 	c #686868",
"c 	c #EFEFEE",
"d 	c #F4F4F2",
"e 	c #D79292",
"f 	c #BC3E3E",
"g 	c #FAFAFA",
"h 	c #A2A3A1",
"i 	c #BBBBBB",
"j 	c #9D9D9D",
"k 	c #949494",
"l 	c #767676",
"m 	c #707070",
"n 	c #F0F0EE",
"o 	c #F3F1EF",
"p 	c #C76565",
"q 	c #C45151",
"r 	c #AC1515",
"s 	c #EDD4D3",
"t 	c #A28988",
"u 	c #BDBDBD",
"v 	c #A0A0A0",
"w 	c #979797",
"x 	c #8F8F8F",
"y 	c #868686",
"z 	c #ECE3E1",
"A 	c #B93C3C",
"B 	c #CD6161",
"C 	c #ECA7A7",
"D 	c #BC3030",
"E 	c #B72828",
"F 	c #B12221",
"G 	c #A50101",
"H 	c #BEBEBE",
"I 	c #A2A2A2",
"J 	c #9A9A9A",
"K 	c #919191",
"L 	c #888888",
"M 	c #808080",
"N 	c #7E6A6A",
"O 	c #B02121",
"P 	c #D26565",
"Q 	c #E78888",
"R 	c #E88E8E",
"S 	c #EA9595",
"T 	c #EA9696",
"U 	c #EB9A9A",
"V 	c #A4A4A4",
"W 	c #9C9C9C",
"X 	c #939393",
"Y 	c #8B8B8B",
"Z 	c #8A6464",
"` 	c #A61111",
" .	c #D55E5E",
"..	c #E16969",
"+.	c #DB4848",
"@.	c #DB4A4A",
"#.	c #DB4C4C",
"$.	c #DB4D4D",
"%.	c #E88D8D",
"&.	c #A60303",
"*.	c #A7A7A7",
"=.	c #9E9E9E",
"-.	c #969696",
";.	c #8D8D8D",
">.	c #A11616",
",.	c #C53636",
"'.	c #DD5656",
").	c #D52D2D",
"!.	c #D32525",
"~.	c #D11A1A",
"{.	c #CF1010",
"].	c #D21B1B",
"^.	c #E26E6E",
"/.	c #A60404",
"(.	c #A9A9A9",
"_.	c #A1A1A1",
":.	c #989898",
"<.	c #8B7373",
"[.	c #A20E0E",
"}.	c #C42D2D",
"|.	c #D73636",
"1.	c #CE0808",
"2.	c #CE0C0C",
"3.	c #CF0E0E",
"4.	c #DC5151",
"5.	c #AAAAAA",
"6.	c #A3A3A3",
"7.	c #929292",
"8.	c #867979",
"9.	c #AC2524",
"0.	c #BC2424",
"a.	c #D63838",
"b.	c #D94141",
"c.	c #D43A3A",
"d.	c #D23C3C",
"e.	c #D23D3D",
"f.	c #A50000",
"g.	c #A5A5A5",
"h.	c #828282",
"i.	c #645F5E",
"j.	c #BB4948",
"k.	c #B51B1B",
"l.	c #D33535",
"m.	c #B01E1E",
"n.	c #A51413",
"o.	c #AA0B0B",
"p.	c #999999",
"q.	c #6F6F6F",
"r.	c #898A88",
"s.	c #D0D2D0",
"t.	c #E4E5E3",
"u.	c #C46C6B",
"v.	c #AC1111",
"w.	c #A90C0C",
"x.	c #E5E6E4",
"y.	c #878886",
"z.	c #ABABAB",
"A.	c #AFAFAF",
"B.	c #858685",
"C.	c #8D8F8B",
"D.	c #C7C9C5",
"E.	c #D4D6D2",
"F.	c #D7D9D5",
"G.	c #D8DAD6",
"H.	c #D9DBD7",
"I.	c #C58886",
"J.	c #B64543",
"K.	c #D6D8D4",
"L.	c #737571",
"M.	c #C3C3C3",
"N.	c #989897",
"O.	c #929390",
"P.	c #BEC1BB",
"Q.	c #C3C6C1",
"R.	c #C6C8C3",
"S.	c #C6C9C3",
"T.	c #C6C9C4",
"U.	c #C5C7C1",
"V.	c #61635F",
"W.	c #696B68",
"X.	c #575955",
"Y.	c #585A56",
"Z.	c #595B57",
"`.	c #5F615D",
". + + + + + + + @ # $ % & * =   ",
"+ - ; > , ' ) ! ~ { ] ^ ^ / (   ",
"+ _ : < [ } | 1 ~ 2 3 4 5 6 7   ",
"+ 8 9 0 a [ , b c d 6 e f g h   ",
"+ i j k 0 < l m n o p q r s t   ",
"+ u v w x y a l z A B C D E F G ",
"+ H I J K L M N O P Q R S T U G ",
"+ H V W X Y Z `  ...+.@.#.$.%.&.",
"+ H *.=.-.;.>.,.'.).!.~.{.].^./.",
"+ H (._.:.x <.[.}.|.1.2.2.3.4.G ",
"+ H 5.6.J 7.0 8.9.0.a.b.c.d.e.f.",
"+ H 5.g.j 9 x h.i.j.k.l./.m.n.o.",
"+ H 5.(._.p.q.r.s.t.u.v.w.x.y.  ",
"+ H z.A.B.C.D.E.F.G.H.I.J.K.L.  ",
"+ M.N.O.P.Q.R.S.T.T.T.T.T.U.V.  ",
". W.@ X.Y.Y.Y.Y.Z.Z.Z.Z.Z.Y.`.  "};
