/* XPM */
static char * clean_up_xpm[] = {
"16 16 108 2",
"  	c None",
". 	c #7C4B00",
"+ 	c #7B4A00",
"@ 	c #A6690A",
"# 	c #AB6D0B",
"$ 	c #B2720C",
"% 	c #C17D10",
"& 	c #A96B0A",
"* 	c #9C8B00",
"= 	c #865203",
"- 	c #BC7A0F",
"; 	c #845201",
"> 	c #9A8500",
", 	c #804E01",
"' 	c #B2760B",
") 	c #A18801",
"! 	c #BEAE32",
"~ 	c #B1A01D",
"{ 	c #876400",
"] 	c #9C8800",
"^ 	c #CDBD41",
"/ 	c #EBDE77",
"( 	c #B06917",
"_ 	c #A03600",
": 	c #A08F01",
"< 	c #9E8D01",
"[ 	c #D8C84F",
"} 	c #ECDC68",
"| 	c #C86D33",
"1 	c #AB1B0D",
"2 	c #D7B162",
"3 	c #EADC72",
"4 	c #CCBD43",
"5 	c #A29009",
"6 	c #9F8E01",
"7 	c #9E8D00",
"8 	c #BBA529",
"9 	c #BB4A28",
"0 	c #B8381D",
"a 	c #F6D861",
"b 	c #FDEA63",
"c 	c #FDEB6C",
"d 	c #FDEE7D",
"e 	c #F8EA88",
"f 	c #CDBE45",
"g 	c #9F8F05",
"h 	c #9F8E00",
"i 	c #A12400",
"j 	c #AD4213",
"k 	c #FBEA84",
"l 	c #FDEC6B",
"m 	c #FDEF84",
"n 	c #FDEC6D",
"o 	c #FDE952",
"p 	c #FBE544",
"q 	c #F3E365",
"r 	c #EBDD77",
"s 	c #CFC149",
"t 	c #AE9E1B",
"u 	c #9D8C00",
"v 	c #C0B02F",
"w 	c #FDEF8A",
"x 	c #FDEA5F",
"y 	c #FDEB61",
"z 	c #FDE63C",
"A 	c #F3DB2A",
"B 	c #E7D018",
"C 	c #DCC610",
"D 	c #E4D249",
"E 	c #E2D467",
"F 	c #9F8D01",
"G 	c #A59411",
"H 	c #FBED8B",
"I 	c #FCE53C",
"J 	c #FBE437",
"K 	c #F6DE2F",
"L 	c #EED723",
"M 	c #E5CD14",
"N 	c #DBC304",
"O 	c #DAC203",
"P 	c #E6D656",
"Q 	c #C6B633",
"R 	c #A08E01",
"S 	c #DDCF5E",
"T 	c #EDDA46",
"U 	c #E3CB11",
"V 	c #DCC407",
"W 	c #E4D34C",
"X 	c #DCCD58",
"Y 	c #9F8E04",
"Z 	c #AB9B1A",
"` 	c #E8DA6C",
" .	c #DCC510",
"..	c #DCC615",
"+.	c #E7D75B",
"@.	c #D6C856",
"#.	c #A08F05",
"$.	c #C5B536",
"%.	c #E7D85F",
"&.	c #DFCA26",
"*.	c #E5D44E",
"=.	c #E7D96D",
"-.	c #C5B432",
";.	c #D2C34F",
">.	c #E1D35B",
",.	c #C6B530",
"'.	c #A19008",
").	c #9F8D00",
"  . +                           ",
"+ @ # +                         ",
"+ $ % & +   *                   ",
"  = - % ; > *                   ",
"  + , ' ) ! ~                   ",
"    { ] ^ / ( _ :               ",
"    < [ } | 1 2 3 4 5 6         ",
"    7 8 9 0 a b c d e f g h     ",
"      i j k l m n o p q r s t u ",
"        v w x y o z A B C D E F ",
"        G H I J K L M N O P Q h ",
"        R S T B U V O O W X Y   ",
"          Z `  .O O ..+.@.#.    ",
"          h $.%.&.*.=.-.7       ",
"            7 ;.>.,.'.).        ",
"              u 7 7             "};
