/* XPM */
static char * config_preferences_xpm[] = {
"16 16 44 1",
" 	c None",
".	c #9D9D9D",
"+	c #9C9C9C",
"@	c #9F9F9F",
"#	c #FAFAFA",
"$	c #FBFBFB",
"%	c #FFFFFF",
"&	c #E2E2E2",
"*	c #E3E3E3",
"=	c #E4E4E4",
"-	c #E5E5E5",
";	c #E6E6E6",
">	c #9B9B9B",
",	c #484E4F",
"'	c #E8E8E8",
")	c #4E5557",
"!	c #EEEEEC",
"~	c #EAEAEA",
"{	c #545D5F",
"]	c #ECECEC",
"^	c #5A6467",
"/	c #A0A0A0",
"(	c #A5A5A5",
"_	c #FDFDFD",
":	c #596366",
"<	c #FEFEFD",
"[	c #EFEFED",
"}	c #EBEBEB",
"|	c #5F6A6E",
"1	c #EDEDED",
"2	c #647175",
"3	c #EFEFEF",
"4	c #677579",
"5	c #F1F1F1",
"6	c #EEEEEE",
"7	c #F0F0F0",
"8	c #F2F2F2",
"9	c #F4F4F4",
"0	c #F6F6F6",
"a	c #F8F8F8",
"b	c #F9F9F9",
"c	c #F7F7F7",
"d	c #F5F5F5",
"e	c #A1A1A1",
" .++++++++++++.@",
".#$$$$$$$$$$$$$+",
"+%&*==-;;;;;--%+",
"+%>>>>>>;,,,,-%+",
"+%>%%%%>'))));%+",
"+%>%!!%>~{{{{'%+",
"+%>%!!%>]^^^^~%+",
"+%>%%%%>>>>>>/%+",
"+%>>>>>>(%%%_@%+",
".%~::::](<![_@%+",
".%}||||1(<![_@%+",
".%]22223(%%%_@%+",
".%144445>>>>>/%+",
".%67890a#$#bcd%+",
".%%%%%%%%%%%%%%+",
"/>>>>>>>>>>>>>>e"};
