/* XPM */
static char * mode_full_xpm[] = {
"16 16 9 1",
" 	c None",
".	c #3B455E",
"+	c #000000",
"@	c #C1C1C1",
"#	c #9F9FA2",
"$	c #8E8E8E",
"%	c #FFFFFF",
"&	c #666666",
"*	c #3C465E",
"                ",
"..............+ ",
".@@@@@@@@@@@@@+#",
".@@@@@@@@@@@@@+#",
".$$$$$$$$$$$$$+#",
".%%%%%%%%%%%%%+#",
".%%&&&&&&&&%%%+#",
"*%%%%%%%%%%%%%+#",
"*%%&&&&&&&&%%%+#",
".%%%%%%%%%%%%%+#",
".%%&&&&&&&&%%%+#",
".%%%%%%%%%%%%%+#",
".%%%%%%%%%%%%%+#",
".++++++++++++++#",
" ###############",
"                "};
