/* XPM */
static char * console_xpm[] = {
"16 16 163 2",
"  	c None",
". 	c #9DA098",
"+ 	c #999C94",
"@ 	c #92958D",
"# 	c #8D9088",
"$ 	c #888B83",
"% 	c #83867E",
"& 	c #7E817A",
"* 	c #797D75",
"= 	c #747870",
"- 	c #6F736B",
"; 	c #6A6E66",
"> 	c #656961",
", 	c #62655E",
"' 	c #5A5E57",
") 	c #A3A69D",
"! 	c #B4B6B1",
"~ 	c #D7D7D5",
"{ 	c #DDDEDD",
"] 	c #DDDEDC",
"^ 	c #DDDDDC",
"/ 	c #DBDBD9",
"( 	c #CCCDCB",
"_ 	c #B2B4B1",
": 	c #747772",
"< 	c #555952",
"[ 	c #D6D7D5",
"} 	c #343633",
"| 	c #080807",
"1 	c #070706",
"2 	c #2F312D",
"3 	c #989996",
"4 	c #A2A59C",
"5 	c #D7D8D7",
"6 	c #0F100D",
"7 	c #B1BF9B",
"8 	c #AFBE98",
"9 	c #AEBD97",
"0 	c #ACBC94",
"a 	c #AABA92",
"b 	c #A9B990",
"c 	c #A8B88E",
"d 	c #A5B68D",
"e 	c #A4B58A",
"f 	c #A2B387",
"g 	c #000000",
"h 	c #9A9B97",
"i 	c #545851",
"j 	c #0D0E0C",
"k 	c #849074",
"l 	c #849071",
"m 	c #828E70",
"n 	c #808D6D",
"o 	c #7F8C6B",
"p 	c #7E8B69",
"q 	c #7C8967",
"r 	c #7B8865",
"s 	c #798764",
"t 	c #768560",
"u 	c #969893",
"v 	c #0B0C0A",
"w 	c #97A681",
"x 	c #95A47F",
"y 	c #94A27D",
"z 	c #92A279",
"A 	c #90A076",
"B 	c #8E9F74",
"C 	c #8C9D72",
"D 	c #859869",
"E 	c #758954",
"F 	c #657C41",
"G 	c #939590",
"H 	c #0A0B09",
"I 	c #6A7559",
"J 	c #D9DED4",
"K 	c #7A846C",
"L 	c #657152",
"M 	c #647151",
"N 	c #616E4D",
"O 	c #4E5E36",
"P 	c #46562B",
"Q 	c #46572C",
"R 	c #91928D",
"S 	c #090908",
"T 	c #73825F",
"U 	c #99A38A",
"V 	c #E0E3DB",
"W 	c #CDD2C6",
"X 	c #697850",
"Y 	c #536537",
"Z 	c #4E6132",
"` 	c #4F6232",
" .	c #4F6332",
"..	c #8D8F8A",
"+.	c #070806",
"@.	c #4C563D",
"#.	c #616A55",
"$.	c #CFD3CB",
"%.	c #D3D6CD",
"&.	c #374525",
"*.	c #364323",
"=.	c #364423",
"-.	c #364523",
";.	c #374523",
">.	c #8A8C87",
",.	c #4C5A3A",
"'.	c #CED1C8",
").	c #737D64",
"!.	c #3B4A27",
"~.	c #3B4A26",
"{.	c #3C4B27",
"].	c #3C4C27",
"^.	c #878983",
"/.	c #29331D",
"(.	c #27311A",
"_.	c #273019",
":.	c #273119",
"<.	c #F2F3F1",
"[.	c #ECEDEA",
"}.	c #28321A",
"|.	c #848681",
"1.	c #060706",
"2.	c #26311A",
"3.	c #27321A",
"4.	c #27321B",
"5.	c #28331B",
"6.	c #28341B",
"7.	c #29341C",
"8.	c #29351C",
"9.	c #81837D",
"0.	c #060606",
"a.	c #181F11",
"b.	c #182011",
"c.	c #192011",
"d.	c #7E807A",
"e.	c #D7D8D6",
"f.	c #232423",
"g.	c #020302",
"h.	c #010201",
"i.	c #131412",
"j.	c #767972",
"k.	c #A3A69E",
"l.	c #B7B9B4",
"m.	c #CDCECC",
"n.	c #C0C1BE",
"o.	c #B0B1AE",
"p.	c #A0A19D",
"q.	c #989995",
"r.	c #8F918C",
"s.	c #8B8C87",
"t.	c #868782",
"u.	c #81837E",
"v.	c #7D7F79",
"w.	c #777A73",
"x.	c #636660",
"y.	c #979A92",
"z.	c #8C8F87",
"A.	c #878A82",
"B.	c #82857E",
"C.	c #7D8079",
"D.	c #787C74",
"E.	c #646860",
"F.	c #5F625B",
"  . + @ # $ % & * = - ; > , '   ",
") ! ~ { ] ^ ^ ^ ^ ^ ^ / ( _ : < ",
") [ } | | | | | | | | 1 1 2 3 < ",
"4 5 6 7 8 9 0 a b c d e f g h i ",
"4 5 j k l m n o p q r s t g u i ",
"4 5 v w x y z A B C D E F g G i ",
"4 5 H I J K L M N O P P Q g R i ",
"4 5 S T U V W X Y Z ` `  .g ..i ",
"4 5 +.@.#.$.%.&.*.=.=.-.;.g >.i ",
"4 5 1 ,.'.).!.~.~.~.{.{.].g ^.i ",
"4 5 1 /.(._.:.<.<.<.[.}.}.g |.i ",
"4 5 1.2.3.4.4.5.5.6.7.7.8.g 9.i ",
"4 5 0.a.a.a.a.a.a.a.b.c.c.g d.i ",
") e.f.g.h.h.h.h.h.h.h.h.h.i.j.< ",
"k.l.m.n.o.p.q.G r.s.t.u.v.w.x.< ",
"  . y.@ z.A.B.C.D.= - ; E.F.'   "};
