/* XPM */
static char * edit_replace_xpm[] = {
"16 16 131 2",
"  	c None",
". 	c #030154",
"+ 	c #996800",
"@ 	c #9A6603",
"# 	c #9A6306",
"$ 	c #996801",
"% 	c #9B6600",
"& 	c #9A6404",
"* 	c #727391",
"= 	c #060155",
"- 	c #010350",
"; 	c #070252",
"> 	c #9F6504",
", 	c #FEF8D8",
"' 	c #FEF9E6",
") 	c #FFF9E3",
"! 	c #F7FCE5",
"~ 	c #F7F8E6",
"{ 	c #714601",
"] 	c #9F9EA3",
"^ 	c #010658",
"/ 	c #9A6600",
"( 	c #FFFAE6",
"_ 	c #F4DB65",
": 	c #F7E169",
"< 	c #FBE263",
"[ 	c #F6E068",
"} 	c #6B4900",
"| 	c #9F9F9D",
"1 	c #060352",
"2 	c #976502",
"3 	c #FEFADD",
"4 	c #F1DA7A",
"5 	c #F3C53B",
"6 	c #5E6379",
"7 	c #595E72",
"8 	c #5A6076",
"9 	c #585E6A",
"0 	c #5A646E",
"a 	c #976701",
"b 	c #F7FBDA",
"c 	c #F0D154",
"d 	c #EDC738",
"e 	c #606176",
"f 	c #FCFCFE",
"g 	c #F8FDF7",
"h 	c #FEFFFF",
"i 	c #5C6177",
"j 	c #575C6F",
"k 	c #9B6306",
"l 	c #FDF8DA",
"m 	c #F1C63C",
"n 	c #F1C73F",
"o 	c #605F71",
"p 	c #FEFEFC",
"q 	c #FDFDFD",
"r 	c #FDFCFA",
"s 	c #5B6177",
"t 	c #5D636F",
"u 	c #606277",
"v 	c #9E6702",
"w 	c #F8FAE2",
"x 	c #F0C73B",
"y 	c #EDC83B",
"z 	c #5D6276",
"A 	c #FDFDFF",
"B 	c #F1F2ED",
"C 	c #F3F5F2",
"D 	c #FEF9FF",
"E 	c #FCFEF9",
"F 	c #010254",
"G 	c #9FA19C",
"H 	c #9B6501",
"I 	c #ECD762",
"J 	c #EFD96C",
"K 	c #ECC939",
"L 	c #5A606C",
"M 	c #FFFDFA",
"N 	c #C1CFC2",
"O 	c #C6D1C3",
"P 	c #C4CABC",
"Q 	c #010453",
"R 	c #A49DA5",
"S 	c #5E5F74",
"T 	c #775108",
"U 	c #785305",
"V 	c #6F4701",
"W 	c #566173",
"X 	c #F9FDFC",
"Y 	c #FFFEFC",
"Z 	c #F8FCFF",
"` 	c #FBFFFE",
" .	c #FEFCFD",
"..	c #040054",
"+.	c #A29DA3",
"@.	c #9F9CA3",
"#.	c #A19EA5",
"$.	c #A0A09E",
"%.	c #F4F3EF",
"&.	c #B0C4A9",
"*.	c #D8CDC7",
"=.	c #B2C8B1",
"-.	c #EFF9F1",
";.	c #050357",
">.	c #A69CA4",
",.	c #00024F",
"'.	c #596072",
").	c #FDFFF9",
"!.	c #FFFEFF",
"~.	c #FCFFFB",
"{.	c #FEFEFF",
"].	c #0B004F",
"^.	c #A39FA0",
"/.	c #080053",
"(.	c #030655",
"_.	c #5C6477",
":.	c #00064E",
"<.	c #00044E",
"[.	c #070256",
"}.	c #090858",
"|.	c #010356",
"1.	c #080757",
"2.	c #9EA2A3",
"3.	c #00074F",
"4.	c #060553",
"5.	c #A19FA2",
"6.	c #A29E9D",
"7.	c #A39EA2",
"8.	c #9E9FA1",
"9.	c #A79E9F",
"0.	c #000152",
"                      .         ",
"    + @ # $ % & *   = - ;       ",
"    > , ' ) ! ~ { ]   ^   -     ",
"    / ( _ : < [ } |       1     ",
"    2 3 4 5 6 7 8 9 0           ",
"    a b c d e f g h i j         ",
"    k l m n o p q r s t u       ",
"    v w x y z A B C D E F G     ",
"    H I J K L M N O P C Q R     ",
"    S T U V W X Y Z `  ...+.    ",
"      @.#.$.0 %.&.*.=.-.;.>.    ",
"  ,.        '.).!.~.{.h ].^.    ",
"  /.  (.    _.:.<.[.}.|.1.2.    ",
"    3.Q 4.    5.6.5.5.7.8.9.    ",
"      0.                        ",
"                                "};
