/* XPM */
static char * edit_bookmark_xpm[] = {
"16 15 14 1",
" 	c None",
".	c #6D4800",
"+	c #FFD50E",
"@	c #FEE671",
"#	c #FFE349",
"$	c #FFDD2F",
"%	c #F3B800",
"&	c #FAC801",
"*	c #FFD91B",
"=	c #ECAA00",
"-	c #E2A32D",
";	c #EEB001",
">	c #303132",
",	c #F0BA16",
"                ",
"       .        ",
"       .        ",
"      .+.       ",
"      .@.       ",
" .....#$#.....  ",
" .%&+***+&=-=.  ",
"   .%$+&=%=.    ",
"    .#*&;=.     ",
"    .#*;&;>     ",
"   .@*>>>,%>    ",
"   .*>   >%>    ",
"  .@>     >%>   ",
"  .>       >>   ",
"                "};
