/* XPM */
static char * edit_delete_xpm[] = {
"16 16 83 1",
" 	c None",
".	c #91938F",
"+	c #888A85",
"@	c #F1F1F1",
"#	c #EBEBEB",
"$	c #EAEAEA",
"%	c #E9E9E9",
"&	c #204A87",
"*	c #E7E7E7",
"=	c #D7D7D7",
"-	c #D6D6D6",
";	c #D5D5D5",
">	c #DADADA",
",	c #DCDCDC",
"'	c #9CBBDD",
")	c #7A7C77",
"!	c #D9D9D9",
"~	c #BDBDBD",
"{	c #BCBCBC",
"]	c #BFBFBF",
"^	c #C0C0C0",
"/	c #4E5B6A",
"(	c #C9C9C9",
"_	c #9C9C9C",
":	c #9B9B9B",
"<	c #2C5286",
"[	c #2B5186",
"}	c #588ACA",
"|	c #729FCF",
"1	c #204987",
"2	c #6D6E6A",
"3	c #CDCDCC",
"4	c #686965",
"5	c #ABACAA",
"6	c #6E6F6C",
"7	c #AFB0AE",
"8	c #6D6E6B",
"9	c #B1B2B0",
"0	c #71726E",
"a	c #B3B3B2",
"b	c #6F706C",
"c	c #757672",
"d	c #C8C9C7",
"e	c #7B7E79",
"f	c #9E9F9E",
"g	c #8F8F8E",
"h	c #ADAEAD",
"i	c #8C8D8C",
"j	c #AEAFAE",
"k	c #7F807C",
"l	c #B7B8B7",
"m	c #787976",
"n	c #888985",
"o	c #CACBC9",
"p	c #858883",
"q	c #C4C4C4",
"r	c #CBCCCA",
"s	c #9C9D9B",
"t	c #E3E3E2",
"u	c #8D8E8B",
"v	c #8F908C",
"w	c #F6F6F6",
"x	c #9B9C99",
"y	c #ACADAB",
"z	c #DEDFDE",
"A	c #9E9F9C",
"B	c #CDCECC",
"C	c #9A9B98",
"D	c #989996",
"E	c #FAFAFA",
"F	c #979894",
"G	c #989A96",
"H	c #EEEEED",
"I	c #979994",
"J	c #9D9E9B",
"K	c #FFFFFF",
"L	c #92938F",
"M	c #939491",
"N	c #AFB0AD",
"O	c #929490",
"P	c #9FA09D",
"Q	c #9A9C98",
"R	c #7D7E7B",
"  .++++++++++.  ",
"  +@###$$$$$%+  ",
"&&+*=----;;>,+&&",
"&')!~~~~{{{]^)'&",
"&'/(___::::::/'&",
"&'<[[[[[<<<<<<'&",
"&'}}}}}}}}}}}}'&",
"&''''''''''''''&",
"&'||||||||||||'&",
"1&&&&&&&&&&&&&&1",
"  234567890ab   ",
"  cdefghijklm   ",
"  nopqprs^ktu   ",
" vnwxypzABC#D   ",
" vEFxxGHIJCuKL  ",
" vMN  OPQ   RC  "};
