/* XPM */
static char * favourite_xpm[] = {
"16 16 89 1",
" 	c None",
".	c #B07801",
"+	c #B47605",
"@	c #B57605",
"#	c #FFD70D",
"$	c #684B00",
"%	c #B37403",
"&	c #FAE76F",
"*	c #704803",
"=	c #B57706",
"-	c #B57302",
";	c #B37603",
">	c #B67906",
",	c #B37802",
"'	c #FBE449",
")	c #FDDD32",
"!	c #FEE449",
"~	c #6F4604",
"{	c #905D01",
"]	c #8A5D02",
"^	c #886201",
"/	c #8D5E02",
"(	c #B47903",
"_	c #F3B806",
":	c #F7CA00",
"<	c #FDD20A",
"[	c #FFDA1A",
"}	c #FDDB18",
"|	c #FEDA16",
"1	c #FCD50B",
"2	c #F9CA02",
"3	c #EAAE02",
"4	c #E1A431",
"5	c #F1A803",
"6	c #8C5F04",
"7	c #B67501",
"8	c #F1B904",
"9	c #FDDD30",
"0	c #FFD50D",
"a	c #FCC601",
"b	c #EBA704",
"c	c #F0BE00",
"d	c #EAA605",
"e	c #6E4807",
"f	c #999D9C",
"g	c #B57507",
"h	c #FCE442",
"i	c #F8C802",
"j	c #EEAE04",
"k	c #E9AB02",
"l	c #6F4902",
"m	c #9E9EA0",
"n	c #6E4809",
"o	c #FDE24B",
"p	c #FEDC19",
"q	c #EDAE00",
"r	c #F8CB00",
"s	c #EDAD03",
"t	c #5A5A58",
"u	c #9D9EA3",
"v	c #6F4900",
"w	c #FDE76F",
"x	c #FFD91C",
"y	c #5C5859",
"z	c #5E5A59",
"A	c #555A53",
"B	c #F2B914",
"C	c #F0B801",
"D	c #5C5D57",
"E	c #6D4804",
"F	c #FBDD1D",
"G	c #5D5956",
"H	c #9E9FA4",
"I	c #959FA1",
"J	c #98A0A3",
"K	c #5E5955",
"L	c #F1BB01",
"M	c #694801",
"N	c #FFE570",
"O	c #595554",
"P	c #9C9C9C",
"Q	c #5A5B55",
"R	c #F1B902",
"S	c #5C5857",
"T	c #6D4700",
"U	c #5A5A5C",
"V	c #9CA1A5",
"W	c #585A57",
"X	c #575958",
"                ",
"       .        ",
"       +        ",
"      @#$       ",
"      %&*       ",
" =-;>,')!~{]^/  ",
" (_:<[}|123456  ",
"   7890abcdef   ",
"    gh[ijklm    ",
"    nopqrstu    ",
"   vwxyzABCD    ",
"   EFGHIJKLt    ",
"  MNOP    QRS   ",
"  TUV      WX   ",
"                ",
"                "};
