/* XPM */
static char * file_save_all_xpm[] = {
"16 16 164 2",
"  	c None",
". 	c #5A5EBF",
"+ 	c #5D5DC1",
"@ 	c #5D5CC2",
"# 	c #5A5EC2",
"$ 	c #5F5FC3",
"% 	c #585DC1",
"& 	c #5A5EC1",
"* 	c #595CC3",
"= 	c #5B5DC2",
"- 	c #585BC2",
"; 	c #888AD4",
"> 	c #2F34AC",
", 	c #CAE4F5",
"' 	c #7271B3",
") 	c #DADDE2",
"! 	c #FDFDFB",
"~ 	c #FFFEFA",
"{ 	c #FEFEFE",
"] 	c #6F72B5",
"^ 	c #7CBDF3",
"/ 	c #3E3EC2",
"( 	c #A0A0A2",
"_ 	c #3034B2",
": 	c #7071B1",
"< 	c #DADFE2",
"[ 	c #FDFFFC",
"} 	c #FDFFFE",
"| 	c #FFFFFD",
"1 	c #FFFFFF",
"2 	c #6F70B0",
"3 	c #7EBFF9",
"4 	c #3E3D81",
"5 	c #A09FA5",
"6 	c #3032AB",
"7 	c #BBDAF6",
"8 	c #7171AD",
"9 	c #D9DDE6",
"0 	c #FFFDFE",
"a 	c #FEFEFC",
"b 	c #FEFFFF",
"c 	c #6F75B3",
"d 	c #464070",
"e 	c #9E9FA3",
"f 	c #3135B2",
"g 	c #9AD2F5",
"h 	c #6F74AE",
"i 	c #7474B4",
"j 	c #7273B4",
"k 	c #5C60C4",
"l 	c #5A5DC4",
"m 	c #5E5EC2",
"n 	c #595EC2",
"o 	c #2E3293",
"p 	c #8C8AD5",
"q 	c #2F33AE",
"r 	c #9AD0F6",
"s 	c #779BD7",
"t 	c #7FC1FD",
"u 	c #7DBEF4",
"v 	c #CAE4F3",
"w 	c #A3A4D4",
"x 	c #FDFFFA",
"y 	c #7172B2",
"z 	c #A0D1F2",
"A 	c #413A64",
"B 	c #98C8F6",
"C 	c #6766AA",
"D 	c #5F60A3",
"E 	c #59589A",
"F 	c #595FC1",
"G 	c #CBE2F4",
"H 	c #A3A4D2",
"I 	c #FFFDFF",
"J 	c #7172B3",
"K 	c #98CEF4",
"L 	c #413C64",
"M 	c #A3A1A6",
"N 	c #2F33B0",
"O 	c #76BCFA",
"P 	c #5357A1",
"Q 	c #C4D1D9",
"R 	c #C9CFDD",
"S 	c #5D5CC4",
"T 	c #B4D7F5",
"U 	c #A4A5D5",
"V 	c #FEFFFA",
"W 	c #FAFFFB",
"X 	c #7272B2",
"Y 	c #93C8F4",
"Z 	c #403B63",
"` 	c #9FA1A0",
" .	c #3031B0",
"..	c #6FB4F9",
"+.	c #5E66AE",
"@.	c #9DD2F4",
"#.	c #878ABF",
"$.	c #7074B3",
"%.	c #6D70B3",
"&.	c #7171B1",
"*.	c #87C4F3",
"=.	c #423E63",
"-.	c #9FA0A4",
";.	c #3131A9",
">.	c #65AEFA",
",.	c #5E67AC",
"'.	c #2C3093",
").	c #99CDF5",
"!.	c #8EB3E8",
"~.	c #7CBDF7",
"{.	c #7DBEF6",
"].	c #413C65",
"^.	c #A09EA3",
"/.	c #6C6C92",
"(.	c #3C3E65",
"_.	c #423C62",
":.	c #3E3E64",
"<.	c #423B65",
"[.	c #2F3293",
"}.	c #70B7F7",
"|.	c #5F5C9F",
"1.	c #57559E",
"2.	c #58569F",
"3.	c #57589B",
"4.	c #59589E",
"5.	c #5D5E9F",
"6.	c #70B6F4",
"7.	c #A09FA4",
"8.	c #9E9FA1",
"9.	c #2D3393",
"0.	c #6BB6F9",
"a.	c #4F56A6",
"b.	c #C4D0DC",
"c.	c #C8CEDA",
"d.	c #C7CFDA",
"e.	c #C7CFDC",
"f.	c #5359A5",
"g.	c #6DB1F8",
"h.	c #413A63",
"i.	c #9F9EA3",
"j.	c #303394",
"k.	c #62B0FB",
"l.	c #6367B1",
"m.	c #FFFEFC",
"n.	c #7477BA",
"o.	c #61AFFA",
"p.	c #3F3D65",
"q.	c #A19FA2",
"r.	c #6F6B8C",
"s.	c #3F3D64",
"t.	c #403E65",
"u.	c #403B64",
"v.	c #403E66",
"w.	c #423E61",
"x.	c #404066",
"y.	c #3D3D63",
"z.	c #9E9C9F",
"A.	c #9E9E9E",
"B.	c #A1A1A3",
"C.	c #9BA0A3",
"D.	c #9CA0A3",
"E.	c #9F9FA1",
"F.	c #A19FA4",
"G.	c #9FA0A2",
"                                ",
". + @ # $ % & * = - ;           ",
"> , ' ) ! ~ { { ] ^ / (         ",
"_ , : < [ } | 1 2 3 4 5         ",
"6 7 8 9 0 1 a b c 3 d e         ",
"f g h i j = @ = k l m k n o p   ",
"q r s t u = v w 0 { x 0 y z A ( ",
"q B C D E F G H I b { 1 J K L M ",
"N O P Q R S T U a [ V W X Y Z ` ",
" ...+.[ 1 = @.#.$.: %.&.X *.=.-.",
";.>.,.1 [ '.).!.~.{.^ {.3 {.].^.",
"/.(._.:.<.[.}.|.1.2.3.4.5.6._.7.",
"  e ^.e 8.9.0.a.b.c.d.e.f.g.h.i.",
"          j.k.l.1 { m.I n.o.p.q.",
"          r.h.s.t.u.v.w.x.p.y.i.",
"            z.5 A.B.C.D.E.F.G.  "};
