/* XPM */
static char * file_open_xpm[] = {
"16 16 69 1",
" 	c None",
".	c #555753",
"+	c #6D6F6B",
"@	c #676965",
"#	c #CECECE",
"$	c #C6C6C5",
"%	c #636561",
"&	c #6A6C68",
"*	c #C0C0BF",
"=	c #969795",
"-	c #9A9C98",
";	c #A7A9A4",
">	c #969992",
",	c #C9C9C9",
"'	c #A6A6A6",
")	c #FFFFFF",
"!	c #61635F",
"~	c #F5F5F4",
"{	c #5D5F5B",
"]	c #CCCCCA",
"^	c #595B57",
"/	c #D8D8D7",
"(	c #617A9A",
"_	c #3465A4",
":	c #436B9D",
"<	c #C6D8EB",
"[	c #BED2E8",
"}	c #AEC7E3",
"|	c #8CB1D8",
"1	c #89AED6",
"2	c #A6C2E0",
"3	c #ADC7E3",
"4	c #8BB0D7",
"5	c #8AAFD7",
"6	c #88AED6",
"7	c #85ACD5",
"8	c #81A9D4",
"9	c #7CA6D2",
"0	c #76A2D0",
"a	c #729FCF",
"b	c #9CBBDD",
"c	c #58769B",
"d	c #9BBBDD",
"e	c #709ECE",
"f	c #709DCF",
"g	c #6E9DCE",
"h	c #6E9CCE",
"i	c #6D9CCE",
"j	c #6C9BCE",
"k	c #6B9BCD",
"l	c #6A9ACE",
"m	c #6999CD",
"n	c #6899CD",
"o	c #94B6DB",
"p	c #A9ABA9",
"q	c #89AFD7",
"r	c #6B9ACD",
"s	c #6A9ACD",
"t	c #6898CD",
"u	c #6698CC",
"v	c #6598CD",
"w	c #6597CC",
"x	c #6496CC",
"y	c #6395CC",
"z	c #9ABADE",
"A	c #537196",
"B	c #455D79",
"C	c #3E6089",
"D	c #3F6086",
".+++++@@        ",
"+######$%       ",
"&*==-;;;;;;;;;> ",
"@,'';))))))))); ",
"!*==;)~~~~~~~); ",
"{,'';)~]]]]]~); ",
"{*==;)~~~~~~~); ",
"^,'';)~]]]/~~); ",
".*(____________:",
".,_<[[[[[[[[[[<_",
".*_}|||||||||12_",
".,_34|4567890ab_",
".*cdefghijklmno_",
".pqkrsmtuvwxyzAB",
"C_____________D ",
"                "};
