/* XPM */
static char * file_manager_xpm[] = {
"16 16 22 1",
" 	c None",
".	c #686326",
"+	c #E9D1A6",
"@	c #E4CC9E",
"#	c #E3CC9E",
"$	c #E3CB9D",
"%	c #E4CC9F",
"&	c #DDC596",
"*	c #DFC796",
"=	c #E3C082",
"-	c #DFC696",
";	c #E2BF82",
">	c #7E6920",
",	c #C17D11",
"'	c #D5BC88",
")	c #6C672B",
"!	c #D7BF8C",
"~	c #736622",
"{	c #D2BA85",
"]	c #DBB676",
"^	c #D0B782",
"/	c #5F5B29",
"  ............  ",
" .+@#$$$$$$$$%. ",
".&******=-----;.",
".&>..........>&.",
".&.,,,,,,,,,,.')",
".&.,,,,,,,,,,.!)",
".&.,,,,..,,,,.!)",
".&>..........~'.",
".&,,,,,,,,,,,,'.",
".!>..........>'.",
".!.,,,,,,,,,,.{.",
".!.,,,,,,,,,,.{.",
".'.,,,,..,,,,.{.",
".'>...........{.",
".]{{{{^{^^^^{^{.",
"/.))))))........"};
