/* XPM */
static char * go_to_line_xpm[] = {
"16 16 96 2",
"  	c None",
". 	c #6A748D",
"+ 	c #6D7285",
"@ 	c #6E7389",
"# 	c #6D7487",
"$ 	c #6D7486",
"% 	c #6E7587",
"& 	c #6C7386",
"* 	c #787E88",
"= 	c #787E89",
"- 	c #737983",
"; 	c #78797B",
"> 	c #6F7488",
", 	c #FFFFFF",
"' 	c #FEFFFF",
") 	c #FFFFFD",
"! 	c #EAE8EA",
"~ 	c #EAE8E9",
"{ 	c #EAE9EB",
"] 	c #EDECED",
"^ 	c #313467",
"/ 	c #A3A1A4",
"( 	c #6E7386",
"_ 	c #FDFFFC",
": 	c #FEFFFA",
"< 	c #FEFEFC",
"[ 	c #FEFEFF",
"} 	c #FEFCFD",
"| 	c #FFFEFC",
"1 	c #A2A0A3",
"2 	c #6B7284",
"3 	c #FDFDFD",
"4 	c #FEFEFE",
"5 	c #FFFDFE",
"6 	c #6D7286",
"7 	c #040353",
"8 	c #030552",
"9 	c #6E7585",
"0 	c #FFFFFB",
"a 	c #B5DAF7",
"b 	c #323467",
"c 	c #9F9EA3",
"d 	c #8FA892",
"e 	c #B7D9F4",
"f 	c #333369",
"g 	c #6E7588",
"h 	c #FBFCFE",
"i 	c #B4D6F9",
"j 	c #A3D4FC",
"k 	c #010356",
"l 	c #FEFDF9",
"m 	c #00024F",
"n 	c #5CB1F6",
"o 	c #060352",
"p 	c #6C7586",
"q 	c #FEFDFB",
"r 	c #FDFFFE",
"s 	c #323369",
"t 	c #39A3F7",
"u 	c #050450",
"v 	c #E7EBEE",
"w 	c #323264",
"x 	c #373064",
"y 	c #313366",
"z 	c #343667",
"A 	c #FDFEFF",
"B 	c #F4F7FC",
"C 	c #ECEFF4",
"D 	c #E4E9EF",
"E 	c #DCE5EE",
"F 	c #D3DCE3",
"G 	c #CDD5E0",
"H 	c #363466",
"I 	c #353163",
"J 	c #F7F8FC",
"K 	c #EEF0EF",
"L 	c #E6EAED",
"M 	c #DFE4EA",
"N 	c #D4DBE3",
"O 	c #CBD8E1",
"P 	c #C6CFDE",
"Q 	c #BFC9D3",
"R 	c #BBC9D6",
"S 	c #2F3569",
"T 	c #A0A0A2",
"U 	c #030154",
"V 	c #000352",
"W 	c #030657",
"X 	c #050251",
"Y 	c #050155",
"Z 	c #050452",
"` 	c #030456",
" .	c #030751",
"..	c #020353",
"+.	c #070256",
"@.	c #9FA1A0",
"                                ",
"  . + @ # $ % & * = - ; ;       ",
"  > , , ' ' ) ) ! ~ { ] ^ /     ",
"  ( _ : < [ } | , , , , ^ 1     ",
"  2 ' 3 4 , 5 | , , , , ^ 1     ",
"  6 [ , , , , , , , , 7 8 1     ",
"  9 _ 0 ) 4 , , , , 7 a b c     ",
"  + , d d d d d , 7 a e f b b b ",
"  g h , , , , , 7 a i j a a a k ",
"  g l d d d d m n n n n n n n o ",
"  p q 3 r _ _ 4 s t t t t t t u ",
"  # ) d d d d d v w t t x y b z ",
"  $ A r B C D E F G H t I c     ",
"  & J K L M N O P Q R S ^ T     ",
"  + U V W X Y Z V `  ...+.@.    ",
"    @.@.@.@.@.@.@.@.@.@.@.@.    "};
