/* XPM */
static char * goto_last_edit_xpm[] = {
"16 16 104 2",
"  	c None",
". 	c #7B4A00",
"+ 	c #12670C",
"@ 	c #51A303",
"# 	c #68C10F",
"$ 	c #6A748D",
"% 	c #6D7285",
"& 	c #6E7389",
"* 	c #6D7487",
"= 	c #6D7486",
"- 	c #6E7587",
"; 	c #6C7386",
"> 	c #6C7385",
", 	c #6E7386",
"' 	c #BB8C07",
") 	c #CDA945",
"! 	c #6F7488",
"~ 	c #FFFFFF",
"{ 	c #FEFFFF",
"] 	c #FFFFFD",
"^ 	c #FFFDFE",
"/ 	c #DAC84A",
"( 	c #372F2D",
"_ 	c #FDFFFC",
": 	c #FEFFFA",
"< 	c #FEFEFC",
"[ 	c #FEFEFF",
"} 	c #FEFCFD",
"| 	c #FFFEFC",
"1 	c #A2A0A3",
"2 	c #6B7284",
"3 	c #FDFDFD",
"4 	c #FEFEFE",
"5 	c #6D7286",
"6 	c #040353",
"7 	c #030552",
"8 	c #6E7585",
"9 	c #FFFFFB",
"0 	c #B5DAF7",
"a 	c #323467",
"b 	c #9F9EA3",
"c 	c #B7D9F4",
"d 	c #333369",
"e 	c #6E7588",
"f 	c #FBFCFE",
"g 	c #B4D6F9",
"h 	c #A3D4FC",
"i 	c #010356",
"j 	c #FEFDF9",
"k 	c #8FA892",
"l 	c #00024F",
"m 	c #49AEFF",
"n 	c #060352",
"o 	c #6C7586",
"p 	c #FEFDFB",
"q 	c #FDFFFE",
"r 	c #323369",
"s 	c #54A1FD",
"t 	c #549EFD",
"u 	c #539DFF",
"v 	c #569CFE",
"w 	c #4DA2FC",
"x 	c #539EF9",
"y 	c #050450",
"z 	c #E7EBEE",
"A 	c #323264",
"B 	c #529DFA",
"C 	c #549DF9",
"D 	c #373064",
"E 	c #313366",
"F 	c #343667",
"G 	c #FDFEFF",
"H 	c #F4F7FC",
"I 	c #ECEFF4",
"J 	c #E4E9EF",
"K 	c #DCE5EE",
"L 	c #D3DCE3",
"M 	c #CDD5E0",
"N 	c #363466",
"O 	c #509EFF",
"P 	c #353163",
"Q 	c #F7F8FC",
"R 	c #EEF0EF",
"S 	c #E6EAED",
"T 	c #DFE4EA",
"U 	c #D4DBE3",
"V 	c #CBD8E1",
"W 	c #C6CFDE",
"X 	c #BFC9D3",
"Y 	c #BBC9D6",
"Z 	c #2F3569",
"` 	c #313467",
" .	c #A0A0A2",
"..	c #030154",
"+.	c #000352",
"@.	c #030657",
"#.	c #050251",
"$.	c #050155",
"%.	c #050452",
"&.	c #030456",
"*.	c #030751",
"=.	c #020353",
"-.	c #070256",
";.	c #9FA1A0",
"                      . + @ #   ",
"  $ % & * = - ; > , . ' ) @ +   ",
"  ! ~ ~ { { ] ] ^ . ' ) / (     ",
"  , _ : < [ } | . ' ) / ( 1     ",
"  2 { 3 4 ~ ^ . ' ) / ( ~ 1     ",
"  5 [ ^ < ~ . ' ) / ( 6 7 1     ",
"  8 _ 9 ] . ' ) / ( 6 0 a b     ",
"  % ~ ^ ~ . ) / ( 6 0 c d a a a ",
"  e f ~ ~ . . ( 6 0 g h 0 0 0 i ",
"  e j k k k k l m m m m m m m n ",
"  o p 3 q _ _ 4 r s t u v w x y ",
"  * ] k k k k k z A B C D E a F ",
"  = G q H I J K L M N O P b     ",
"  ; Q R S T U V W X Y Z `  .    ",
"  % ..+.@.#.$.%.+.&.*.=.-.;.    ",
"    b b b b b b b b b b b b     "};
