/* XPM */
static char * help_keyboard_xpm[] = {
"16 16 87 1",
" 	c None",
".	c #8B8D88",
"+	c #888A85",
"@	c #8A8C87",
"#	c #8C8E8A",
"$	c #D6D7D4",
"%	c #EDEEEC",
"&	c #EFF0EE",
"*	c #F2F2F1",
"=	c #F4F4F3",
"-	c #F6F6F5",
";	c #F7F7F7",
">	c #E0E0DE",
",	c #8A8C88",
"'	c #E5E7E4",
")	c #DBDBD7",
"!	c #DADAD7",
"~	c #DBDCD8",
"{	c #DCDDD8",
"]	c #DCDDD9",
"^	c #F0F0EF",
"/	c #E4E5E3",
"(	c #D9D9D5",
"_	c #DBDFD8",
":	c #DDE0DA",
"<	c #DEE1DB",
"[	c #DFE2DC",
"}	c #DFE2DD",
"|	c #6C6D6B",
"1	c #535451",
"2	c #DEE2DB",
"3	c #EEEEED",
"4	c #E2E3E0",
"5	c #DDDDD9",
"6	c #E0E3DD",
"7	c #E1E4DE",
"8	c #E2E5E0",
"9	c #BCBFBA",
"0	c #D7DAD5",
"a	c #E1E4DF",
"b	c #EBEBE9",
"c	c #DFE0DD",
"d	c #E3E3E0",
"e	c #E4E7E1",
"f	c #E5E8E3",
"g	c #9D9F9C",
"h	c #6F716E",
"i	c #3A3B39",
"j	c #E4E7E2",
"k	c #E7E7E5",
"l	c #DBDDD9",
"m	c #E6E9E4",
"n	c #E8EAE6",
"o	c #9B9C9A",
"p	c #6A6C69",
"q	c #232323",
"r	c #D9DBD7",
"s	c #D7D9D5",
"t	c #EDEEEB",
"u	c #E4E6E1",
"v	c #E8EBE7",
"w	c #EBEDE9",
"x	c #3C3C3B",
"y	c #E4E6E3",
"z	c #2C2C2B",
"A	c #DADDD8",
"B	c #EEEEEB",
"C	c #DDDEDB",
"D	c #D7D8D5",
"E	c #E7EAE5",
"F	c #EAECE8",
"G	c #ECEFEB",
"H	c #979996",
"I	c #777876",
"J	c #7F807E",
"K	c #E2E4E0",
"L	c #F5F5F4",
"M	c #F7F7F5",
"N	c #F7F8F5",
"O	c #F8F8F6",
"P	c #BEC0BA",
"Q	c #C0C3BC",
"R	c #BBBEB7",
"S	c #BABDB6",
"T	c #CBCCC8",
"U	c #CECFCB",
"V	c #898B86",
"                ",
"  .++++++++++@  ",
" #$%&*=-;;-=*>, ",
" .')!~~~{{~~]^+ ",
" ./(_:<[}|12(3+ ",
" .45<678[90a5b+ ",
" .cd68efghijdk+ ",
" @lk8jmnopqrk4+ ",
" @stumvwxyzABC+ ",
" @D=jEFGHIJK=~+ ",
" @DLMNOOOOOOL~+ ",
" @DPQQQQQQQQP~+ ",
" @DRSSSSSSSSR~+ ",
" .TllllllllllUV ",
"  V++++++++++V  ",
"                "};
