/* XPM */
static char * tip_xpm[] = {
"16 16 11 1",
" 	c None",
".	c #B28500",
"+	c #4C3900",
"@	c #3B455E",
"#	c #E5AC00",
"$	c #FFEBB2",
"%	c #9F9FA2",
"&	c #EAB924",
"*	c #F2CC59",
"=	c #FADE8E",
"-	c #000000",
"                ",
" .    ++++     .",
"  . @+####+@  . ",
"    +#$$###+%   ",
"   +&$&&&&&&+   ",
".. +********+ ..",
"   +========+   ",
"   +$$$$$$$$+   ",
"  . +$$$$$$-%.  ",
" .  %+$$$$-%  . ",
"     %----%     ",
"       %%@      ",
"      ---@      ",
"      %%%@      ",
"      @--@      ",
"       @@       "};
