/* XPM */
static char * help_documentation_xpm[] = {
"16 16 153 2",
"  	c None",
". 	c #204A87",
"+ 	c #2C548D",
"@ 	c #8CA1C1",
"# 	c #BDC9DB",
"$ 	c #EBEFF4",
"% 	c #8CA2C1",
"& 	c #5B7AA7",
"* 	c #E3E8F0",
"= 	c #A9B9D0",
"- 	c #6582AC",
"; 	c #3B6096",
"> 	c #AABAD1",
", 	c #E4E9F0",
"' 	c #5C7BA7",
") 	c #617EAA",
"! 	c #E7EBF2",
"~ 	c #5978A6",
"{ 	c #47699C",
"] 	c #C2CEDE",
"^ 	c #F0F3F7",
"/ 	c #E6EAF1",
"( 	c #A7B8D0",
"_ 	c #4D6FA0",
": 	c #6482AD",
"< 	c #E8EDF3",
"[ 	c #5D7CA8",
"} 	c #2D558E",
"| 	c #E5EAF1",
"1 	c #5878A5",
"2 	c #6C88B0",
"3 	c #FDFDFE",
"4 	c #D6DEE9",
"5 	c #EFF2F6",
"6 	c #FFFFFF",
"7 	c #BDCADC",
"8 	c #386098",
"9 	c #6B89B3",
"0 	c #E6EBF2",
"a 	c #2D558D",
"b 	c #90A5C3",
"c 	c #4B6E9F",
"d 	c #325B94",
"e 	c #597AA8",
"f 	c #FBFCFD",
"g 	c #466DA1",
"h 	c #436A9F",
"i 	c #B7C6DA",
"j 	c #94A9C6",
"k 	c #C0CCDD",
"l 	c #27508B",
"m 	c #2D5690",
"n 	c #345C95",
"o 	c #3A6299",
"p 	c #89A1C2",
"q 	c #E8ECF3",
"r 	c #4B72A5",
"s 	c #4D73A6",
"t 	c #86A1C3",
"u 	c #C6D2E1",
"v 	c #234C89",
"w 	c #EDF0F5",
"x 	c #365C93",
"y 	c #254F8A",
"z 	c #345D95",
"A 	c #3B639A",
"B 	c #6D8BB5",
"C 	c #F9FBFC",
"D 	c #FEFEFE",
"E 	c #829DC1",
"F 	c #547AAC",
"G 	c #567CAD",
"H 	c #6C8DB7",
"I 	c #EFF3F7",
"J 	c #214B88",
"K 	c #385E94",
"L 	c #2A538E",
"M 	c #335B94",
"N 	c #42699F",
"O 	c #A0B5D0",
"P 	c #5A7FB0",
"Q 	c #5E83B2",
"R 	c #6085B4",
"S 	c #7594BD",
"T 	c #F0F3F8",
"U 	c #224B88",
"V 	c #6A86AF",
"W 	c #2F5891",
"X 	c #386097",
"Y 	c #40679D",
"Z 	c #5176A7",
"` 	c #C8D4E4",
" .	c #CAD6E5",
"..	c #6286B4",
"+.	c #6387B6",
"@.	c #678BB9",
"#.	c #6A8EBA",
"$.	c #9BB2D1",
"%.	c #CCD7E6",
"&.	c #244E8A",
"*.	c #ADBCD3",
"=.	c #335C94",
"-.	c #3C649A",
";.	c #456CA1",
">.	c #5278A9",
",.	c #8FA8C8",
"'.	c #94ADCC",
").	c #6589B7",
"!.	c #6B8FBB",
"~.	c #7093BF",
"{.	c #7396C1",
"].	c #C9D7E7",
"^.	c #A0B4CF",
"/.	c #6987B1",
"(.	c #496FA3",
"_.	c #6284B2",
":.	c #6F92BD",
"<.	c #7296C1",
"[.	c #789BC5",
"}.	c #9DB7D6",
"|.	c #EDF1F7",
"1.	c #2F578F",
"2.	c #6381AB",
"3.	c #E9EEF3",
"4.	c #728FB7",
"5.	c #4C72A5",
"6.	c #6587B3",
"7.	c #7497C1",
"8.	c #A0B9D7",
"9.	c #F1F5F9",
"0.	c #6B88B2",
"a.	c #6482AC",
"b.	c #E9EDF3",
"c.	c #BAC9DD",
"d.	c #8BA5C7",
"e.	c #7191BB",
"f.	c #7999C1",
"g.	c #9FB7D5",
"h.	c #CDDAE9",
"i.	c #EFF3F8",
"j.	c #718DB5",
"k.	c #264F8B",
"l.	c #2E558F",
"m.	c #9BAFCB",
"n.	c #CBD6E5",
"o.	c #F1F4F8",
"p.	c #F2F5F9",
"q.	c #D1DBE8",
"r.	c #A6B9D3",
"s.	c #315891",
"t.	c #234D89",
"u.	c #224C88",
"v.	c #254F8B",
"          . . . . . .           ",
"        + @ # $ $ # % +         ",
"    . & * = - ; ; - > , ' .     ",
"    ) ! ~ { ] ^ / ( _ : < [     ",
"  } | 1 . 2 3 4 5 6 7 8 9 0 a   ",
". b = . . c _ d e 6 f g h i j . ",
". k - . l m n o p 6 q r s t u v ",
". w x y m z A B C D E F G H I J ",
". w K L M o N < 6 O P Q R S T U ",
". k V W X Y Z `  ...+.@.#.$.%.&.",
". b *.=.-.;.>.,.'.).!.~.{.].^.J ",
"  } 0 /.Y (._.6 6 :.<.[.}.|.1.  ",
"    2.3.4.5.6.6 6 7.[.8.9.0.    ",
"    . a.b.c.d.e.f.g.h.i.j.k.    ",
"        l.m.n.o.p.q.r.s.        ",
"          . t.u.u.v.J           "};
