/* XPM */
static char * line_wrap_xpm[] = {
"16 16 56 1",
" 	c None",
".	c #5B6272",
"+	c #5F6275",
"@	c #5D5F74",
"#	c #596073",
"$	c #596072",
"%	c #5D6071",
"&	c #5C5F70",
"*	c #5B6275",
"=	c #5B616F",
"-	c #5A5F72",
";	c #5C6471",
">	c #5A6374",
",	c #5C5E75",
"'	c #606374",
")	c #5A646E",
"!	c #5A6070",
"~	c #5C6177",
"{	c #5D5F6B",
"]	c #98151B",
"^	c #961519",
"/	c #595E7B",
"(	c #5B616D",
"_	c #5C646F",
":	c #575E71",
"<	c #5E6577",
"[	c #585F72",
"}	c #5C6079",
"|	c #59666F",
"1	c #9A1119",
"2	c #901611",
"3	c #5D606F",
"4	c #5D636F",
"5	c #5C6174",
"6	c #5B6171",
"7	c #5C5F6E",
"8	c #931020",
"9	c #981318",
"0	c #9B141B",
"a	c #93141F",
"b	c #665E6D",
"c	c #5E6174",
"d	c #5C6672",
"e	c #5B6073",
"f	c #5B656E",
"g	c #5E5E76",
"h	c #991520",
"i	c #941318",
"j	c #981118",
"k	c #911619",
"l	c #8F1416",
"m	c #921618",
"n	c #961617",
"o	c #981211",
"p	c #9D141E",
"q	c #97141C",
"                ",
"                ",
"  .+@#$%&*=     ",
"                ",
"  -;>,')!~{ ]   ",
"             ^  ",
"  /(_:<[}.|   1 ",
"              2 ",
"  345[;6#7    8 ",
"              9 ",
"           0  a ",
"  bcdefg  hi j  ",
"         klmn   ",
"          op    ",
"           q    ",
"                "};
