/* XPM */
static char * replace_start_xpm[] = {
"16 16 96 2",
"  	c None",
". 	c #818380",
"+ 	c #AEBAC8",
"@ 	c #A2BAD4",
"# 	c #A7B9CC",
"$ 	c #A7B7C8",
"% 	c #8AACD1",
"& 	c #C5D7EA",
"* 	c #9BB9D9",
"= 	c #90ACCB",
"- 	c #858783",
"; 	c #888A85",
"> 	c #8D8F8A",
", 	c #A2AEBB",
"' 	c #84A8CF",
") 	c #DCE6F2",
"! 	c #E4ECF5",
"~ 	c #CADAEC",
"{ 	c #8DB1D8",
"] 	c #97B0CB",
"^ 	c #FFFFFF",
"/ 	c #A2B8D0",
"( 	c #A4C0DE",
"_ 	c #D9E4F1",
": 	c #DDE7F2",
"< 	c #C3D5EA",
"[ 	c #A2BFDF",
"} 	c #80A5D0",
"| 	c #F0F0EF",
"1 	c #8F5902",
"2 	c #A7B5C2",
"3 	c #88AAD0",
"4 	c #BBD0E8",
"5 	c #CDDCEE",
"6 	c #DEE8F3",
"7 	c #A8C1DC",
"8 	c #94B0CE",
"9 	c #C7C7C6",
"0 	c #EEEAC6",
"a 	c #CFAD71",
"b 	c #9FB8D1",
"c 	c #91B3D6",
"d 	c #BBD0E6",
"e 	c #A6BED8",
"f 	c #97B5D3",
"g 	c #D1D2D0",
"h 	c #EFEBC7",
"i 	c #D2AC6A",
"j 	c #A18355",
"k 	c #848482",
"l 	c #A3A4A3",
"m 	c #B3C8DD",
"n 	c #7FA7D1",
"o 	c #99B4D1",
"p 	c #959693",
"q 	c #A48757",
"r 	c #B8B8B7",
"s 	c #8D8E8C",
"t 	c #B0B1AF",
"u 	c #EDE6C5",
"v 	c #CFAA69",
"w 	c #A08356",
"x 	c #EDE5C4",
"y 	c #C89F64",
"z 	c #A08457",
"A 	c #89806A",
"B 	c #898B86",
"C 	c #EFEFEE",
"D 	c #705B39",
"E 	c #C2AB8A",
"F 	c #A38555",
"G 	c #E7DCCA",
"H 	c #878984",
"I 	c #FEFEFD",
"J 	c #4C4226",
"K 	c #6B5736",
"L 	c #CCC1AF",
"M 	c #EFEFEF",
"N 	c #82847F",
"O 	c #FAFAF9",
"P 	c #EEEEED",
"Q 	c #000000",
"R 	c #B3A996",
"S 	c #C2C2C2",
"T 	c #CBCBCA",
"U 	c #E2E2E2",
"V 	c #7D7F7B",
"W 	c #FEFEFE",
"X 	c #F7F7F7",
"Y 	c #E9E9E9",
"Z 	c #E5E5E5",
"` 	c #EAEAEA",
" .	c #8C8E89",
"..	c #868883",
"+.	c #858782",
"@.	c #8B8D88",
"        . . .                   ",
"      . + @ # .                 ",
"    . $ % & * = . - ; ; ; >     ",
"  . , ' ) ! ~ { ] . ^ ^ ^ ;     ",
"  . / ( _ : < [ } . | | ^ 1 1   ",
"  . 2 3 4 5 6 7 8 . 9 | 1 0 a 1 ",
"    . b c d e f . g | 1 h i j 1 ",
"  k l . m n o . p 9 1 h i q 1   ",
"k l r s . . . t | 1 u v w 1     ",
"k r s ^ | 9 9 9 1 x y z 1 A     ",
"  s B ^ | | | C D E F 1 G H     ",
"    B I | | C 1 J K 1 L M N     ",
"    B O | | P Q 1 R S T U V     ",
"    B ^ ^ ^ W X Y U Z ` M N     ",
"     .B ; ; ; H ..+.......@.    ",
"                                "};
