/* XPM */
static char * stay_on_top_xpm[] = {
"16 16 151 2",
"  	c None",
". 	c #6C728A",
"+ 	c #707386",
"@ 	c #6C7487",
"# 	c #697488",
"$ 	c #6E7588",
"% 	c #6D718A",
"& 	c #6C7584",
"* 	c #6D7487",
"= 	c #6D7383",
"- 	c #6D758A",
"; 	c #6D738B",
"> 	c #6F7686",
", 	c #C2C0C1",
"' 	c #C4BFC3",
") 	c #C0C0C0",
"! 	c #BFC3C2",
"~ 	c #BFC1BE",
"{ 	c #C1C1BF",
"] 	c #C3C1C6",
"^ 	c #C5C1C0",
"/ 	c #717388",
"( 	c #A09FA4",
"_ 	c #C0C1C3",
": 	c #C2C2C0",
"< 	c #6C7586",
"[ 	c #6D7687",
"} 	c #6D7389",
"| 	c #6D7588",
"1 	c #6D7486",
"2 	c #6E7386",
"3 	c #697486",
"4 	c #6F7688",
"5 	c #6F7488",
"6 	c #717487",
"7 	c #C2C2BA",
"8 	c #6C7385",
"9 	c #FFFFFD",
"0 	c #FFFEFF",
"a 	c #8EAFFE",
"b 	c #89A8FA",
"c 	c #8EA8FF",
"d 	c #88A6FF",
"e 	c #8DA8FF",
"f 	c #8DA7FC",
"g 	c #8BA7FA",
"h 	c #8CA7FE",
"i 	c #98B9FE",
"j 	c #3D4461",
"k 	c #9F9F9F",
"l 	c #FEFEFC",
"m 	c #6C7386",
"n 	c #7E9FFE",
"o 	c #7FA0FF",
"p 	c #819FFF",
"q 	c #7EA2F6",
"r 	c #80A1FE",
"s 	c #7FA1FA",
"t 	c #809EFE",
"u 	c #82A8F9",
"v 	c #3C475D",
"w 	c #9EA09F",
"x 	c #FFFFFF",
"y 	c #687385",
"z 	c #FFFDFE",
"A 	c #FDFDFF",
"B 	c #FDFEFF",
"C 	c #FFFEFA",
"D 	c #FFFEF9",
"E 	c #3B465C",
"F 	c #A0A1A6",
"G 	c #6D7288",
"H 	c #FEFCFF",
"I 	c #FFFFFB",
"J 	c #FDFBFC",
"K 	c #FFFCFB",
"L 	c #FEFDF8",
"M 	c #3A4360",
"N 	c #A09FA7",
"O 	c #FEFFFF",
"P 	c #6B7485",
"Q 	c #FDFFFC",
"R 	c #8DA293",
"S 	c #8EA591",
"T 	c #8CA48C",
"U 	c #8FA68C",
"V 	c #8DA58F",
"W 	c #87A790",
"X 	c #FDFFFE",
"Y 	c #FDFFFA",
"Z 	c #5E6174",
"` 	c #6A7285",
" .	c #FFFCFD",
"..	c #FEFFFA",
"+.	c #FFFEFC",
"@.	c #FEFEFF",
"#.	c #3F455D",
"$.	c #9DA2A5",
"%.	c #5B6370",
"&.	c #FEFFF9",
"*.	c #FEFEFE",
"=.	c #5B616D",
"-.	c #FAFFFF",
";.	c #8DA58D",
">.	c #8DA689",
",.	c #8CA48A",
"'.	c #88A893",
").	c #8CA48E",
"!.	c #FDFEF8",
"~.	c #3B4560",
"{.	c #A0A1A3",
"].	c #5B6272",
"^.	c #FFFBFC",
"/.	c #585F6F",
"(.	c #FEFCFD",
"_.	c #FDFEF9",
":.	c #3A465C",
"<.	c #A19EA5",
"[.	c #5E6172",
"}.	c #323464",
"|.	c #343264",
"1.	c #5C6373",
"2.	c #FEFFFD",
"3.	c #FDFDFB",
"4.	c #FEFDFF",
"5.	c #FEFDFB",
"6.	c #3D435D",
"7.	c #A29FA6",
"8.	c #A1A0A5",
"9.	c #9F9DA8",
"0.	c #3E445E",
"a.	c #333367",
"b.	c #383467",
"c.	c #373365",
"d.	c #353865",
"e.	c #383668",
"f.	c #373769",
"g.	c #3A455B",
"h.	c #3D455A",
"i.	c #3B475F",
"j.	c #575755",
"k.	c #A09FA5",
"l.	c #9EA1A8",
"m.	c #9DA0A7",
"n.	c #A19EA7",
"o.	c #A1A0A6",
"p.	c #A5A0A7",
"q.	c #A1A2A7",
"r.	c #A1A3A2",
"s.	c #A29DA3",
"t.	c #A49DA4",
"                                ",
". + @ # $ % & * = * - ;         ",
"> , ' ) ! ) ~ { ] { ^ / (       ",
"$ _ : < [ } $ | 1 2 3 4 $ 5 6 7 ",
"8 9 0 / a b c d e f e g h i j k ",
"1 l l m n o p q r s t o p u v w ",
"$ x x y 9 l z 9 A l B C D B E F ",
"G H I $ z z l x x B J K l L M N ",
"* 9 O P Q R S T U V W X x Y M ( ",
"Z 9 x `  .x x ..Q +.0 @.+.x #.$.",
"%.&.*.=.-.;.>.;.,.'.).Y C !.~.{.",
"].^.0 /.(.9 9 J A ..*..._.Y :.<.",
"[.}.|.1.x 2...3.+.+...&.4.5.6.7.",
"  8.9.=.0.a.b.c.d.e.f.g.h.i.j.k.",
"        l.m.n.o.p.q.r.s.( k.t.8.",
"                                "};
