/* XPM */
static const char * wxpl16_xpm[] = {
"16 16 5 1",
" 	c None",
".	c Gray100",
"X	c Red",
"o	c Yellow",
"O	c Blue",
"                ",
" ...........    ",
" .XXXXXXXXX.    ",
" .XXXXXXXXX.    ",
" .XXXX......... ",
" .XXXX.ooooooo. ",
" .XXXX.ooooooo. ",
" .X........ooo. ",
" ...OOOOOO.ooo. ",
"   .OOOOOO.ooo. ",
"   .OOOOOO.ooo. ",
"   .OOOOOO.ooo. ",
"   ........ooo. ",
"      .ooooooo. ",
"      ......... ",
"                "};

/* XPM */
static const char * wxpl32_xpm[] = {
"32 32 5 1",
" 	c None",
".	c Gray100",
"X	c Red",
"o	c Yellow",
"O	c Blue",
"                                ",
"                                ",
"  .....................         ",
"  .XXXXXXXXXXXXXXXXXXX.         ",
"  .XXXXXXXXXXXXXXXXXXX.         ",
"  .XXXXXXXXXXXXXXXXXXX.         ",
"  .XXXXXXXXXXXXXXXXXXX.         ",
"  .XXXXXXXXXXXXXXXXXXX.         ",
"  .XXXXXXXXXXXXXXXXXXX.         ",
"  .XXXXXXXXXX.................  ",
"  .XXXXXXXXXX.ooooooooooooooo.  ",
"  .XXXXXXXXXX.ooooooooooooooo.  ",
"  .XXXXXXXXXX.ooooooooooooooo.  ",
"  .XXXXXXXXXX.ooooooooooooooo.  ",
"  .XXXX................oooooo.  ",
"  .XXXX.OOOOOOOOOOOOOO.oooooo.  ",
"  .XXXX.OOOOOOOOOOOOOO.oooooo.  ",
"  .XXXX.OOOOOOOOOOOOOO.oooooo.  ",
"  ......OOOOOOOOOOOOOO.oooooo.  ",
"       .OOOOOOOOOOOOOO.oooooo.  ",
"       .OOOOOOOOOOOOOO.oooooo.  ",
"       .OOOOOOOOOOOOOO.oooooo.  ",
"       .OOOOOOOOOOOOOO.oooooo.  ",
"       .OOOOOOOOOOOOOO.oooooo.  ",
"       .OOOOOOOOOOOOOO.oooooo.  ",
"       ................oooooo.  ",
"             .ooooooooooooooo.  ",
"             .ooooooooooooooo.  ",
"             .................  ",
"                                ",
"                                ",
"                                "};
