<?xml version="1.0" encoding="UTF-8" standalone="no"?>
<!-- Created with Inkscape (http://www.inkscape.org/) -->

<svg
   xmlns:dc="http://purl.org/dc/elements/1.1/"
   xmlns:cc="http://creativecommons.org/ns#"
   xmlns:rdf="http://www.w3.org/1999/02/22-rdf-syntax-ns#"
   xmlns:svg="http://www.w3.org/2000/svg"
   xmlns="http://www.w3.org/2000/svg"
   xmlns:sodipodi="http://sodipodi.sourceforge.net/DTD/sodipodi-0.dtd"
   xmlns:inkscape="http://www.inkscape.org/namespaces/inkscape"
   width="300.66144"
   height="400.81506"
   id="svg3007"
   version="1.1"
   inkscape:version="0.92.3 (2405546, 2018-03-11)"
   sodipodi:docname="tux.svg"
   inkscape:export-filename="./Tux Mono.png"
   inkscape:export-xdpi="90"
   inkscape:export-ydpi="90">
  <defs
     id="defs3009">
    <inkscape:path-effect
       effect="spiro"
       id="path-effect29672-0"
       is_visible="true" />
    <inkscape:path-effect
       effect="spiro"
       id="path-effect29678-1"
       is_visible="true" />
    <inkscape:path-effect
       effect="spiro"
       id="path-effect29678-4-6"
       is_visible="true" />
    <inkscape:path-effect
       effect="spiro"
       id="path-effect28714-5"
       is_visible="true" />
    <inkscape:path-effect
       effect="spiro"
       id="path-effect29721-2"
       is_visible="true" />
    <inkscape:path-effect
       effect="spiro"
       id="path-effect28463-8-0"
       is_visible="true" />
    <inkscape:path-effect
       effect="spiro"
       id="path-effect28463-0-7"
       is_visible="true" />
    <linearGradient
       id="linearGradient28799-5-5">
      <stop
         style="stop-color:#fefefc;stop-opacity:1;"
         offset="0"
         id="stop28801-1-9" />
      <stop
         id="stop28807-2-6"
         offset="0.75733864"
         style="stop-color:#fefefc;stop-opacity:1" />
      <stop
         style="stop-color:#d4d4d4;stop-opacity:1"
         offset="1"
         id="stop28803-6-3" />
    </linearGradient>
    <inkscape:path-effect
       effect="spiro"
       id="path-effect28797-8-1"
       is_visible="true" />
    <inkscape:path-effect
       effect="spiro"
       id="path-effect28797-81"
       is_visible="true" />
    <inkscape:path-effect
       effect="spiro"
       id="path-effect28273-4-2"
       is_visible="true" />
    <linearGradient
       id="linearGradient28853-5">
      <stop
         style="stop-color:#020204;stop-opacity:1"
         offset="0"
         id="stop28855-3" />
      <stop
         id="stop28865-0"
         offset="0.73448181"
         style="stop-color:#020204;stop-opacity:1" />
      <stop
         style="stop-color:#5c5c5c;stop-opacity:1;"
         offset="1"
         id="stop28857-9" />
    </linearGradient>
    <inkscape:path-effect
       effect="spiro"
       id="path-effect28851-0"
       is_visible="true" />
    <inkscape:path-effect
       effect="spiro"
       id="path-effect28881-6"
       is_visible="true" />
    <linearGradient
       id="linearGradient28935-8">
      <stop
         style="stop-color:#949494;stop-opacity:0.39215687;"
         offset="0"
         id="stop28937-7" />
      <stop
         id="stop28943-3"
         offset="0.5"
         style="stop-color:#949494;stop-opacity:1;" />
      <stop
         style="stop-color:#949494;stop-opacity:0.39215687;"
         offset="1"
         id="stop28939-8" />
    </linearGradient>
    <linearGradient
       id="linearGradient28976-3">
      <stop
         style="stop-color:#747474;stop-opacity:1"
         offset="0"
         id="stop28978-7" />
      <stop
         id="stop29259-5"
         offset="0.125"
         style="stop-color:#8c8c8c;stop-opacity:1;" />
      <stop
         id="stop29257-0"
         offset="0.25"
         style="stop-color:#a4a4a4;stop-opacity:1;" />
      <stop
         id="stop28984-4"
         offset="0.5"
         style="stop-color:#d4d4d4;stop-opacity:1" />
      <stop
         style="stop-color:#d4d4d4;stop-opacity:1"
         offset="0.61919296"
         id="stop28986-0" />
      <stop
         style="stop-color:#7c7c7c;stop-opacity:1"
         offset="1"
         id="stop28980-2" />
    </linearGradient>
    <inkscape:path-effect
       effect="spiro"
       id="path-effect28974-8"
       is_visible="true" />
    <clipPath
       clipPathUnits="userSpaceOnUse"
       id="clipPath29028-5">
      <path
         style="fill:url(#radialGradient29032);fill-opacity:1;stroke:none"
         d="m 85.75,122.36218 c -2.780425,1.91023 -5.110569,4.57487 -6.25,7.75 -1.436029,4.00163 -0.885838,8.48071 0.5,12.5 1.419488,4.11688 3.793788,8.04098 7.37932,10.51234 1.792766,1.23567 3.868091,2.08301 6.030402,2.33859 2.162311,0.25558 4.409274,-0.0949 6.340278,-1.10093 2.35312,-1.22596 4.14782,-3.37278 5.26217,-5.78076 1.11436,-2.40798 1.5888,-5.0701 1.73783,-7.71924 0.18989,-3.37546 -0.14047,-6.80646 -1.25,-10 -1.20527,-3.46909 -3.39005,-6.67055 -6.472754,-8.6666 -1.541351,-0.99803 -3.291947,-1.68356 -5.110883,-1.93515 -1.818936,-0.25158 -3.704766,-0.0633 -5.416363,0.60175 -0.975471,0.37901 -1.887438,0.9074 -2.75,1.5"
         id="path29030-7"
         inkscape:original-d="m 85.75,122.36218 c -2.54738,2.12715 -5.20812,4.59907 -6.25,7.75 -1.30914,3.95917 -1.63336,8.91703 0.5,12.5 3.91901,6.58194 12.38353,13.85135 19.75,11.75 4.87452,-1.3905 6.10748,-8.51023 7,-13.5 0.59149,-3.30679 0.59578,-7.19325 -1.25,-10 -3.61233,-5.49303 -10.4265,-9.89357 -17,-10 -1.04403,-0.0169 -1.94852,0.83074 -2.75,1.5 z"
         inkscape:connector-curvature="0"
         sodipodi:nodetypes="aaaaaaaa" />
    </clipPath>
    <linearGradient
       id="linearGradient29336-6">
      <stop
         style="stop-color:#646464;stop-opacity:0"
         offset="0"
         id="stop29338-1" />
      <stop
         id="stop29344-7"
         offset="0.30628255"
         style="stop-color:#646464;stop-opacity:0.5825243" />
      <stop
         style="stop-color:#646464;stop-opacity:1"
         offset="0.47000006"
         id="stop29354-5" />
      <stop
         id="stop29356-3"
         offset="0.72834015"
         style="stop-color:#646464;stop-opacity:0.25728154" />
      <stop
         style="stop-color:#646464;stop-opacity:0;"
         offset="1"
         id="stop29340-6" />
    </linearGradient>
    <inkscape:path-effect
       effect="spiro"
       id="path-effect29455-3"
       is_visible="true" />
    <linearGradient
       id="linearGradient29477-3">
      <stop
         style="stop-color:#757574;stop-opacity:0"
         offset="0"
         id="stop29479-5" />
      <stop
         id="stop29487-5"
         offset="0.26291031"
         style="stop-color:#757574;stop-opacity:1;" />
      <stop
         id="stop29485-0"
         offset="0.5"
         style="stop-color:#757574;stop-opacity:1;" />
      <stop
         style="stop-color:#757574;stop-opacity:0"
         offset="1"
         id="stop29481-3" />
    </linearGradient>
    <linearGradient
       id="linearGradient28469-0">
      <stop
         id="stop28479-4"
         offset="0"
         style="stop-color:#d2940a;stop-opacity:1" />
      <stop
         id="stop28477-2"
         offset="0.75143719"
         style="stop-color:#d89c08;stop-opacity:1" />
      <stop
         style="stop-color:#b67e07;stop-opacity:1;"
         offset="0.86579126"
         id="stop28485-7" />
      <stop
         style="stop-color:#946106;stop-opacity:1"
         offset="1"
         id="stop28473-1" />
    </linearGradient>
    <inkscape:path-effect
       effect="spiro"
       id="path-effect28463-4"
       is_visible="true" />
    <inkscape:path-effect
       effect="spiro"
       id="path-effect28489-4"
       is_visible="true" />
    <inkscape:path-effect
       effect="spiro"
       id="path-effect28273-54-7"
       is_visible="true" />
    <linearGradient
       id="linearGradient28275-8">
      <stop
         style="stop-color:#ad780a;stop-opacity:1"
         offset="0"
         id="stop28277-1" />
      <stop
         id="stop28291-9"
         offset="0.11972899"
         style="stop-color:#d89e08;stop-opacity:1" />
      <stop
         id="stop28289-6"
         offset="0.25514477"
         style="stop-color:#edb80b;stop-opacity:1" />
      <stop
         id="stop28287-6"
         offset="0.39194193"
         style="stop-color:#ebc80d;stop-opacity:1" />
      <stop
         id="stop28285-7"
         offset="0.52741116"
         style="stop-color:#f5d838;stop-opacity:1" />
      <stop
         id="stop28283-7"
         offset="0.76906693"
         style="stop-color:#f6d811;stop-opacity:1" />
      <stop
         style="stop-color:#f5cd31;stop-opacity:1"
         offset="1"
         id="stop28279-5" />
    </linearGradient>
    <inkscape:path-effect
       effect="spiro"
       id="path-effect28273-44"
       is_visible="true" />
    <inkscape:path-effect
       effect="spiro"
       id="path-effect28384-7"
       is_visible="true" />
    <linearGradient
       id="linearGradient29529-6">
      <stop
         style="stop-color:#3a2903;stop-opacity:1;"
         offset="0"
         id="stop29531-0" />
      <stop
         id="stop29539-7"
         offset="0.55472803"
         style="stop-color:#735208;stop-opacity:1" />
      <stop
         style="stop-color:#ac8c04;stop-opacity:1"
         offset="1"
         id="stop29533-8" />
    </linearGradient>
    <inkscape:path-effect
       effect="spiro"
       id="path-effect29553-7"
       is_visible="true" />
    <clipPath
       clipPathUnits="userSpaceOnUse"
       id="clipPath29644-8">
      <path
         style="fill:url(#radialGradient29648);fill-opacity:1;stroke:none"
         d="m 54.232441,122.36218 c -1.780966,0.097 -3.484616,0.91899 -4.787851,2.1367 -1.303235,1.21771 -2.221372,2.81176 -2.786181,4.50357 -1.129618,3.38363 -0.875481,7.05177 -0.618698,10.60973 0.23251,3.22162 0.470404,6.50533 1.676785,9.50158 0.60319,1.49813 1.450247,2.91021 2.580338,4.06395 1.130092,1.15374 2.551736,2.04189 4.118297,2.43447 1.468838,0.36809 3.038161,0.29183 4.482784,-0.16209 1.444623,-0.45391 2.763917,-1.27887 3.846236,-2.33791 1.57904,-1.54507 2.643262,-3.5662 3.253449,-5.68947 0.610186,-2.12328 0.784157,-4.35155 0.752401,-6.56053 -0.03974,-2.76435 -0.400909,-5.53851 -1.265755,-8.16439 -0.864846,-2.62588 -2.245742,-5.10327 -4.172795,-7.08561 -0.933308,-0.96009 -1.997766,-1.80513 -3.198586,-2.39747 -1.200819,-0.59233 -2.54344,-0.92535 -3.880424,-0.85253"
         id="path29646-8"
         inkscape:original-d="m 54.232441,122.36218 c -3.79199,4.78949 -8.5176,11.69104 -8.19273,17.25 0.32487,5.55896 3.86025,13.93486 8.37542,16 4.51517,2.06514 5.75436,0.0125 8.32902,-2.5 2.57466,-2.51247 3.85871,-7.34762 4.00585,-12.25 0.14713,-4.90238 -3.03534,-11.91949 -5.43855,-15.25 -2.40321,-3.33051 -3.28702,-8.03949 -7.07901,-3.25 z"
         inkscape:connector-curvature="0"
         sodipodi:nodetypes="zzzzzzz" />
    </clipPath>
    <inkscape:path-effect
       effect="spiro"
       id="path-effect29707-7-6"
       is_visible="true" />
    <clipPath
       id="clipPath14656-7"
       clipPathUnits="userSpaceOnUse">
      <path
         style="fill:none;stroke:#c17d11;stroke-width:1px;stroke-linecap:butt;stroke-linejoin:miter;stroke-opacity:1"
         inkscape:original-d="m 304.84727,225.44951 c 5.05628,5.63479 9.72833,12.47181 10.94319,20.00305 1.91724,11.88535 -4.97006,23.58228 -6.44591,35.53273 -0.57645,4.66766 -2.84839,9.7988 -0.93525,14.08107 1.10334,2.46967 3.76154,4.35176 6.36677,4.92292 5.08221,1.1142 11.95719,2.41291 15.20182,-3.54776 6.07775,-11.16533 10.5961,-26.78641 9.45943,-38.64224 -0.906,-9.44981 -3.86858,-18.61978 -7.74003,-27.40773 -2.817,-6.39442 -6.14704,-12.5833 -9.61753,-18.52016 -3.44146,-5.88721 -8.20051,-10.94245 -13.10336,-15.63502 -6.34842,-6.07614 -12.40311,-17.98386 -20.89399,-15.99204 -5.48499,1.28669 -7.45029,9.57719 -7.69578,15.30218 -0.17245,4.02188 2.46425,7.71677 4.46569,11.18873 2.26238,3.92465 5.10447,7.56255 8.38442,10.65407 3.43735,3.23988 8.4511,4.53927 11.61053,8.0602 z"
         id="path14658-9"
         d="m 304.84727,225.44951 c 6.01627,4.92338 9.77707,12.317 10.94319,20.00305 1.8254,12.03148 -2.34636,24.07488 -6.44591,35.53273 -0.81749,2.28481 -1.63978,4.59033 -1.96473,6.99513 -0.32495,2.4048 -0.11897,4.94825 1.02948,7.08594 1.30279,2.42497 3.73227,4.12469 6.36677,4.92292 2.58877,0.78438 5.39365,0.76103 8.01466,0.0922 2.62101,-0.66882 5.06097,-1.96774 7.18716,-3.63996 5.48002,-4.30997 8.75799,-10.98552 10.01043,-17.84394 1.25243,-6.85841 0.63908,-13.92879 -0.551,-20.7983 -1.62313,-9.36916 -4.30898,-18.53961 -7.74003,-27.40773 -2.51766,-6.50732 -5.46794,-12.91081 -9.61753,-18.52016 -4.04611,-5.46946 -9.16208,-10.08954 -13.10336,-15.63502 -2.73209,-3.84412 -4.89983,-8.13097 -8.1917,-11.50812 -1.64594,-1.68858 -3.57654,-3.13527 -5.76975,-4.00143 -2.19321,-0.86616 -4.66356,-1.12446 -6.93254,-0.48249 -1.50468,0.42573 -2.89193,1.23739 -4.03791,2.30136 -1.14598,1.06397 -2.05268,2.37637 -2.69275,3.80312 -1.28015,2.85349 -1.47719,6.11241 -0.96512,9.1977 0.66114,3.98343 2.44407,7.69333 4.46569,11.18873 2.27396,3.93169 4.918,7.71926 8.38442,10.65407 3.5985,3.04664 7.96161,5.07413 11.61053,8.0602"
         inkscape:connector-curvature="0"
         sodipodi:nodetypes="aaaaassssaaaaaa" />
    </clipPath>
    <inkscape:path-effect
       effect="spiro"
       id="path-effect4500-7"
       is_visible="true" />
    <inkscape:path-effect
       effect="spiro"
       id="path-effect4582-3"
       is_visible="true" />
    <inkscape:path-effect
       is_visible="true"
       id="path-effect14300-7"
       effect="spiro" />
    <clipPath
       id="clipPath14489-3"
       clipPathUnits="userSpaceOnUse">
      <path
         inkscape:original-d="m 516.00562,331.8756 c 0.90859,1.59687 -1.57016,3.38773 -2.81579,4.73826 -2.74207,2.97299 -6.45099,4.90178 -9.89648,7.01985 -5.91373,3.63539 -12.61918,5.90302 -18.41964,9.71654 -3.88318,2.553 -7.32809,5.72221 -10.86016,8.74238 -3.0221,2.58411 -5.48201,5.87643 -8.83247,8.01771 -3.3519,2.1422 -7.0437,4.15414 -10.99061,4.6502 -4.78298,0.60114 -9.87221,-0.25577 -14.29898,-2.16416 -3.0947,-1.33413 -6.16113,-3.38144 -7.96301,-6.22931 -1.81288,-2.86525 -2.06093,-6.5375 -2.23266,-9.92375 -0.30734,-6.06031 1.36252,-12.0605 2.17848,-18.07349 0.67882,-5.00236 1.85312,-9.94325 2.26013,-14.97502 0.73946,-9.14185 -0.7797,-18.40771 0.3199,-27.51327 0.35468,-2.93704 -0.181,-6.65876 2.01238,-8.64398 2.0384,-1.84494 5.43058,-1.1212 8.17929,-1.06253 3.34492,0.0714 6.63224,0.95108 9.88917,1.71656 2.05612,0.48325 3.99816,1.41138 6.0722,1.81081 3.44031,0.66255 6.96573,1.06623 10.46739,0.95192 3.78516,-0.12356 7.43659,-1.79636 11.22363,-1.76474 1.55185,0.013 3.12359,0.28186 4.58649,0.79985 1.48266,0.52499 2.98786,1.20618 4.12281,2.29512 0.86547,0.83038 1.42933,1.95676 1.87872,3.06879 0.67163,1.66196 0.8942,3.4778 1.16703,5.24945 0.24238,1.57389 -0.1531,3.27141 0.41433,4.75933 1.83023,4.79924 5.57666,8.72712 9.22489,12.34277 1.74278,1.93455 4.03041,3.53404 6.16708,4.82839 2.26886,1.37444 4.3675,2.44991 5.46279,4.81597 0.65901,1.48517 -0.54371,3.76097 0.68307,4.82635 z"
         sodipodi:nodetypes="aaaaaaaaaaaaaaaaaaaaaaaacscaa"
         inkscape:connector-curvature="0"
         id="path14491-6"
         d="m 516.00562,331.8756 c -0.6714,1.71905 -1.62682,3.32679 -2.81579,4.73826 -2.6238,3.11482 -6.268,5.17039 -9.89648,7.01985 -6.1886,3.15437 -12.60169,5.92177 -18.41964,9.71654 -3.89802,2.54249 -7.4959,5.52671 -10.86016,8.74238 -2.87719,2.75012 -5.60582,5.68745 -8.83247,8.01771 -3.25567,2.35122 -7.01915,4.05426 -10.99061,4.6502 -4.83026,0.72481 -9.82134,-0.21289 -14.29898,-2.16416 -3.13754,-1.36728 -6.15569,-3.3229 -7.96301,-6.22931 -1.81425,-2.91754 -2.22807,-6.48813 -2.23266,-9.92375 -0.008,-6.07666 1.11824,-12.09004 2.17848,-18.07349 0.88097,-4.97177 1.71949,-9.95483 2.26013,-14.97502 0.98337,-9.13118 0.9763,-18.35278 0.3199,-27.51327 -0.10993,-1.53416 -0.23754,-3.0832 -0.008,-4.60412 0.22922,-1.52092 0.85475,-3.0367 2.02069,-4.03986 1.07696,-0.9266 2.52093,-1.33598 3.93947,-1.4145 1.41854,-0.0785 2.83404,0.14655 4.23982,0.35197 3.31254,0.48405 6.65159,0.8649 9.88917,1.71656 2.04284,0.53738 4.03315,1.25925 6.0722,1.81081 3.40258,0.92039 6.96639,1.36144 10.46739,0.95192 3.76917,-0.44089 7.42987,-1.85678 11.22363,-1.76474 1.55658,0.0378 3.1015,0.33171 4.58649,0.79985 1.51539,0.47772 3.00914,1.16182 4.12281,2.29512 0.84639,0.8613 1.43579,1.94539 1.87872,3.06879 0.65982,1.67352 1.01492,3.457 1.16703,5.24945 0.13475,1.58788 0.11343,3.19441 0.41433,4.75933 0.49503,2.57458 1.84746,4.92305 3.52848,6.93494 1.68102,2.01189 3.68982,3.72048 5.69641,5.40783 1.99908,1.68103 4.0106,3.35469 6.16708,4.82839 1.0121,0.69165 2.05642,1.33949 3.01736,2.10062 0.96094,0.76113 1.84466,1.6468 2.44543,2.71535 0.81492,1.44944 1.06377,3.2077 0.68307,4.82635 h 2e-5"
         style="fill:url(#linearGradient14493);fill-opacity:1;stroke:none" />
    </clipPath>
    <inkscape:path-effect
       is_visible="true"
       id="path-effect14300-2-7"
       effect="spiro" />
    <clipPath
       id="clipPath14481-1"
       clipPathUnits="userSpaceOnUse">
      <path
         inkscape:original-d="m 516.00562,331.8756 c 0.90859,1.59687 -1.57016,3.38773 -2.81579,4.73826 -2.74207,2.97299 -6.45099,4.90178 -9.89648,7.01985 -5.91373,3.63539 -12.61918,5.90302 -18.41964,9.71654 -3.88318,2.553 -7.32809,5.72221 -10.86016,8.74238 -3.0221,2.58411 -5.48201,5.87643 -8.83247,8.01771 -3.3519,2.1422 -7.0437,4.15414 -10.99061,4.6502 -4.78298,0.60114 -9.87221,-0.25577 -14.29898,-2.16416 -3.0947,-1.33413 -6.16113,-3.38144 -7.96301,-6.22931 -1.81288,-2.86525 -2.06093,-6.5375 -2.23266,-9.92375 -0.30734,-6.06031 1.36252,-12.0605 2.17848,-18.07349 0.67882,-5.00236 1.85312,-9.94325 2.26013,-14.97502 0.73946,-9.14185 -0.7797,-18.40771 0.3199,-27.51327 0.35468,-2.93704 -0.181,-6.65876 2.01238,-8.64398 2.0384,-1.84494 5.43058,-1.1212 8.17929,-1.06253 3.34492,0.0714 6.63224,0.95108 9.88917,1.71656 2.05612,0.48325 3.99816,1.41138 6.0722,1.81081 3.44031,0.66255 6.96573,1.06623 10.46739,0.95192 3.78516,-0.12356 7.43659,-1.79636 11.22363,-1.76474 1.55185,0.013 3.12359,0.28186 4.58649,0.79985 1.48266,0.52499 2.98786,1.20618 4.12281,2.29512 0.86547,0.83038 1.42933,1.95676 1.87872,3.06879 0.67163,1.66196 0.8942,3.4778 1.16703,5.24945 0.24238,1.57389 -0.1531,3.27141 0.41433,4.75933 1.83023,4.79924 5.57666,8.72712 9.22489,12.34277 1.74278,1.93455 4.03041,3.53404 6.16708,4.82839 2.26886,1.37444 4.3675,2.44991 5.46279,4.81597 0.65901,1.48517 -0.54371,3.76097 0.68307,4.82635 z"
         sodipodi:nodetypes="aaaaaaaaaaaaaaaaaaaaaaaacscaa"
         inkscape:connector-curvature="0"
         id="path14483-3"
         d="m 516.00562,331.8756 c -0.6714,1.71905 -1.62682,3.32679 -2.81579,4.73826 -2.6238,3.11482 -6.268,5.17039 -9.89648,7.01985 -6.1886,3.15437 -12.60169,5.92177 -18.41964,9.71654 -3.89802,2.54249 -7.4959,5.52671 -10.86016,8.74238 -2.87719,2.75012 -5.60582,5.68745 -8.83247,8.01771 -3.25567,2.35122 -7.01915,4.05426 -10.99061,4.6502 -4.83026,0.72481 -9.82134,-0.21289 -14.29898,-2.16416 -3.13754,-1.36728 -6.15569,-3.3229 -7.96301,-6.22931 -1.81425,-2.91754 -2.22807,-6.48813 -2.23266,-9.92375 -0.008,-6.07666 1.11824,-12.09004 2.17848,-18.07349 0.88097,-4.97177 1.71949,-9.95483 2.26013,-14.97502 0.98337,-9.13118 0.9763,-18.35278 0.3199,-27.51327 -0.10993,-1.53416 -0.23754,-3.0832 -0.008,-4.60412 0.22922,-1.52092 0.85475,-3.0367 2.02069,-4.03986 1.07696,-0.9266 2.52093,-1.33598 3.93947,-1.4145 1.41854,-0.0785 2.83404,0.14655 4.23982,0.35197 3.31254,0.48405 6.65159,0.8649 9.88917,1.71656 2.04284,0.53738 4.03315,1.25925 6.0722,1.81081 3.40258,0.92039 6.96639,1.36144 10.46739,0.95192 3.76917,-0.44089 7.42987,-1.85678 11.22363,-1.76474 1.55658,0.0378 3.1015,0.33171 4.58649,0.79985 1.51539,0.47772 3.00914,1.16182 4.12281,2.29512 0.84639,0.8613 1.43579,1.94539 1.87872,3.06879 0.65982,1.67352 1.01492,3.457 1.16703,5.24945 0.13475,1.58788 0.11343,3.19441 0.41433,4.75933 0.49503,2.57458 1.84746,4.92305 3.52848,6.93494 1.68102,2.01189 3.68982,3.72048 5.69641,5.40783 1.99908,1.68103 4.0106,3.35469 6.16708,4.82839 1.0121,0.69165 2.05642,1.33949 3.01736,2.10062 0.96094,0.76113 1.84466,1.6468 2.44543,2.71535 0.81492,1.44944 1.06377,3.2077 0.68307,4.82635 h 2e-5"
         style="fill:url(#linearGradient14485);fill-opacity:1;stroke:none" />
    </clipPath>
    <inkscape:path-effect
       is_visible="true"
       id="path-effect14300-2-2-0"
       effect="spiro" />
    <clipPath
       id="clipPath14473-5"
       clipPathUnits="userSpaceOnUse">
      <path
         inkscape:original-d="m 511.82669,331.89986 c 0.79493,1.29584 -1.37375,2.7491 -2.46357,3.84504 -2.39907,2.41255 -5.64405,3.97773 -8.65855,5.69652 -5.17399,2.95008 -11.04067,4.79023 -16.11556,7.88485 -3.39744,2.07173 -6.41144,4.64351 -9.50169,7.09434 -2.64407,2.09697 -4.79627,4.76865 -7.72763,6.50627 -2.93262,1.73837 -6.16262,3.37103 -9.61582,3.77358 -4.18468,0.48781 -8.63731,-0.20756 -12.51035,-1.75619 -2.70759,-1.08263 -5.39044,-2.744 -6.96693,-5.05501 -1.58611,-2.32511 -1.80313,-5.3051 -1.95338,-8.053 -0.2689,-4.91787 1.19208,-9.78694 1.90598,-14.66641 0.59391,-4.05935 1.62131,-8.06882 1.97741,-12.15204 0.64696,-7.4185 -0.68217,-14.93763 0.27989,-22.32668 0.31031,-2.38337 -0.15836,-5.4035 1.76065,-7.01448 1.78342,-1.49715 4.75128,-0.90984 7.15616,-0.86223 2.92651,0.0579 5.80263,0.77179 8.65215,1.39297 1.79893,0.39215 3.49804,1.14531 5.31265,1.46945 3.00996,0.53765 6.0944,0.86523 9.15804,0.77247 3.31168,-0.10027 6.50636,-1.45773 9.81969,-1.43207 1.35773,0.0105 2.73287,0.22873 4.01277,0.64907 1.2972,0.42602 2.61412,0.9788 3.6071,1.86246 0.75721,0.67384 1.25054,1.58789 1.64371,2.49029 0.58762,1.34866 0.78235,2.82219 1.02105,4.25986 0.21206,1.27719 -0.13395,2.65471 0.36251,3.86214 1.60129,3.89452 4.87908,7.08195 8.07096,10.016 1.52478,1.56986 3.52626,2.86783 5.39565,3.91818 1.98506,1.11534 3.82118,1.98807 4.77946,3.9081 0.57658,1.2052 -0.47569,3.05198 0.59763,3.91652 z"
         sodipodi:nodetypes="aaaaaaaaaaaaaaaaaaaaaaaacscaa"
         inkscape:connector-curvature="0"
         id="path14475-9"
         d="m 511.82669,331.89986 c -0.60617,1.40358 -1.44178,2.70776 -2.46357,3.84504 -2.32524,2.58805 -5.50706,4.22246 -8.65855,5.69652 -5.42045,2.53534 -11.00071,4.7788 -16.11556,7.88485 -3.38301,2.05437 -6.53696,4.47221 -9.50169,7.09434 -2.52461,2.23286 -4.92977,4.6271 -7.72763,6.50627 -2.88313,1.93644 -6.17534,3.29888 -9.61582,3.77358 -4.21817,0.58201 -8.55335,-0.18335 -12.51035,-1.75619 -2.7091,-1.07682 -5.36625,-2.6185 -6.96693,-5.05501 -1.53813,-2.3413 -1.9333,-5.25173 -1.95338,-8.053 -0.0354,-4.93859 0.96501,-9.81816 1.90598,-14.66641 0.78215,-4.02995 1.52682,-8.0717 1.97741,-12.15204 0.81784,-7.40607 0.66114,-14.88536 0.27989,-22.32668 -0.064,-1.24906 -0.13361,-2.5105 0.0789,-3.74301 0.21256,-1.23251 0.73646,-2.45247 1.68171,-3.27147 0.93914,-0.8137 2.20952,-1.15942 3.45104,-1.2115 1.24152,-0.0521 2.47642,0.16381 3.70512,0.34927 2.88969,0.43617 5.81087,0.7091 8.65215,1.39297 1.78651,0.43 3.53091,1.02011 5.31265,1.46945 2.98632,0.75312 6.09645,1.10709 9.15804,0.77247 3.2941,-0.36004 6.50688,-1.50957 9.81969,-1.43207 1.35838,0.0318 2.70755,0.27142 4.01277,0.64907 1.31265,0.3798 2.61744,0.9202 3.6071,1.86246 0.72535,0.69061 1.25006,1.56936 1.64371,2.49029 0.57625,1.34814 0.88626,2.79994 1.02105,4.25986 0.11897,1.28855 0.10468,2.59405 0.36251,3.86214 0.4369,2.14878 1.63966,4.08139 3.11506,5.70353 1.4754,1.62214 3.22406,2.96752 4.9559,4.31247 1.75634,1.36398 3.50975,2.7398 5.39565,3.91818 0.88228,0.55128 1.79349,1.05932 2.63473,1.67142 0.84123,0.61209 1.61878,1.33907 2.14473,2.23668 0.68386,1.16711 0.90229,2.59857 0.59763,3.91652 h 2e-5"
         style="fill:url(#linearGradient14477);fill-opacity:1;stroke:none" />
    </clipPath>
    <linearGradient
       id="linearGradient14518-6">
      <stop
         style="stop-color:#110800;stop-opacity:1;"
         offset="0"
         id="stop14540-0" />
      <stop
         id="stop14542-5"
         offset="0.59066743"
         style="stop-color:#a65a00;stop-opacity:0.80000001;" />
      <stop
         id="stop14522-4"
         offset="1"
         style="stop-color:#ff921e;stop-opacity:0;" />
    </linearGradient>
    <inkscape:path-effect
       effect="spiro"
       id="path-effect29716-0-0"
       is_visible="true" />
    <inkscape:path-effect
       effect="spiro"
       id="path-effect29716-0-8-3"
       is_visible="true" />
    <inkscape:path-effect
       effect="spiro"
       id="path-effect29716-6-1"
       is_visible="true" />
    <clipPath
       id="clipPath14822-9"
       clipPathUnits="userSpaceOnUse">
      <path
         style="fill:none;stroke:#ce5c00;stroke-width:1px;stroke-linecap:butt;stroke-linejoin:miter;stroke-opacity:1"
         inkscape:original-d="m 386.1875,285.32775 c -2.36571,-3.81321 -7.59294,-4.9003 -11.805,-6.41698 -2.08672,-0.75138 -4.32322,-1.04333 -6.52782,-1.27734 -2.27612,-0.2416 -4.71593,-0.91505 -6.8653,-0.1253 -3.64566,1.33955 -7.24986,3.80684 -8.75671,7.70871 -1.13743,2.94527 -1.80122,7.05909 -1.65394,10.40316 0.13075,2.96891 0.9633,5.07273 2.60877,7.33912 1.08803,1.49859 3.40096,2.67896 5.43398,3.22092 3.49923,0.93284 7.37483,0.82779 10.86038,-0.1553 5.98587,-2.2615 11.09272,-5.76885 14.33034,-10.77903 1.07459,-1.67639 2.15539,-3.45031 2.5532,-5.4034 0.30053,-1.4755 0.61519,-3.23621 -0.1779,-4.51456 z"
         id="path14824-1"
         d="m 386.1875,285.32775 c -0.40516,-1.10369 -1.11845,-2.08156 -1.9907,-2.86987 -0.87226,-0.78832 -1.90049,-1.39229 -2.98278,-1.85155 -2.16459,-0.91852 -4.52053,-1.26149 -6.83152,-1.69556 -2.17919,-0.40931 -4.34179,-0.90631 -6.52782,-1.27734 -2.27136,-0.38551 -4.6179,-0.63213 -6.8653,-0.1253 -1.96583,0.44333 -3.7845,1.45879 -5.27172,2.81864 -1.48723,1.35984 -2.64911,3.0564 -3.48499,4.89007 -1.47218,3.22952 -1.93451,6.86503 -1.65394,10.40316 0.20882,2.63325 0.87532,5.34594 2.60877,7.33912 1.40065,1.61052 3.38733,2.61526 5.43398,3.22092 3.52502,1.04316 7.36663,0.98822 10.86038,-0.1553 5.76689,-1.93113 10.87568,-5.77387 14.33034,-10.77903 1.13861,-1.64963 2.11217,-3.44809 2.5532,-5.4034 0.33597,-1.48955 0.34831,-3.08112 -0.1779,-4.51456"
         inkscape:connector-curvature="0"
         sodipodi:nodetypes="aaaasssaccaa" />
    </clipPath>
    <clipPath
       id="clipPath14822-2-4"
       clipPathUnits="userSpaceOnUse">
      <path
         style="fill:none;stroke:#ce5c00;stroke-width:1px;stroke-linecap:butt;stroke-linejoin:miter;stroke-opacity:1"
         inkscape:original-d="m 386.1875,285.32775 c -2.36571,-3.81321 -7.59294,-4.9003 -11.805,-6.41698 -2.08672,-0.75138 -4.32322,-1.04333 -6.52782,-1.27734 -2.27612,-0.2416 -4.71593,-0.91505 -6.8653,-0.1253 -3.64566,1.33955 -7.24986,3.80684 -8.75671,7.70871 -1.13743,2.94527 -1.80122,7.05909 -1.65394,10.40316 0.13075,2.96891 0.9633,5.07273 2.60877,7.33912 1.08803,1.49859 3.40096,2.67896 5.43398,3.22092 3.49923,0.93284 7.37483,0.82779 10.86038,-0.1553 5.98587,-2.2615 11.09272,-5.76885 14.33034,-10.77903 1.07459,-1.67639 2.15539,-3.45031 2.5532,-5.4034 0.30053,-1.4755 0.61519,-3.23621 -0.1779,-4.51456 z"
         id="path14824-6-5"
         d="m 386.1875,285.32775 c -0.40516,-1.10369 -1.11845,-2.08156 -1.9907,-2.86987 -0.87226,-0.78832 -1.90049,-1.39229 -2.98278,-1.85155 -2.16459,-0.91852 -4.52053,-1.26149 -6.83152,-1.69556 -2.17919,-0.40931 -4.34179,-0.90631 -6.52782,-1.27734 -2.27136,-0.38551 -4.6179,-0.63213 -6.8653,-0.1253 -1.96583,0.44333 -3.7845,1.45879 -5.27172,2.81864 -1.48723,1.35984 -2.64911,3.0564 -3.48499,4.89007 -1.47218,3.22952 -1.93451,6.86503 -1.65394,10.40316 0.20882,2.63325 0.87532,5.34594 2.60877,7.33912 1.40065,1.61052 3.38733,2.61526 5.43398,3.22092 3.52502,1.04316 7.36663,0.98822 10.86038,-0.1553 5.76689,-1.93113 10.87568,-5.77387 14.33034,-10.77903 1.13861,-1.64963 2.11217,-3.44809 2.5532,-5.4034 0.33597,-1.48955 0.34831,-3.08112 -0.1779,-4.51456"
         inkscape:connector-curvature="0"
         sodipodi:nodetypes="aaaasssaccaa" />
    </clipPath>
    <inkscape:path-effect
       is_visible="true"
       id="path-effect14972-2-2"
       effect="spiro" />
    <inkscape:path-effect
       is_visible="true"
       id="path-effect15017-9"
       effect="spiro" />
    <clipPath
       id="clipPath15031-3"
       clipPathUnits="userSpaceOnUse">
      <path
         sodipodi:nodetypes="czzzzzzzzzzzzzzzszzzzzc"
         inkscape:original-d="m 248.06066,184.61218 c 0,0 -5.10626,6.34527 -7.89695,10.24696 -2.7907,3.9017 -5.73652,6.64881 -8.58729,10.75139 -2.85076,4.10259 -7.36482,9.43164 -9.44912,13.93045 -2.08429,4.49881 -2.32047,9.0356 -4.26498,13.84932 -1.94451,4.81371 -3.70129,10.64183 -5.97071,15.33612 -2.26943,4.69429 -5.37093,9.68473 -6.93891,13.53553 -1.56799,3.8508 -3.81119,5.72384 -4.10782,10.22071 -0.29663,4.49686 -0.57747,8.31749 3.77151,16.77227 4.34898,8.45478 17.23626,22.00721 24.24176,27.92472 7.00549,5.9175 9.39133,7.22492 14.60245,8.52595 5.21112,1.30104 13.85627,2.9981 16.72874,-1.2702 2.87246,-4.26829 2.27191,-5.96483 -0.74863,-10.66616 -3.02055,-4.70132 -4.82469,-5.30209 -9.79642,-9.57343 -4.97172,-4.27133 -18.63696,-14.87266 -22.68212,-19.23996 -4.04516,-4.36729 -7.10731,-3.41164 -5.53019,-6.28412 1.57712,-2.87249 -2.20738,-4.00856 -2.65783,-7.69253 -0.76361,-6.24511 0.9436,-18.71046 1.45958,-22.13343 0.51598,-3.42296 1.22371,-2.92446 3.51815,-8.03965 2.29444,-5.11519 4.12424,-8.62435 7.04933,-13.46723 2.92509,-4.84289 8.62493,-10.12787 11.15147,-15.27803 2.52654,-5.15017 3.50393,-10.72068 4.36185,-15.31831 0.85792,-4.59763 1.74613,-12.13037 1.74613,-12.13037 z"
         inkscape:connector-curvature="0"
         id="path15033-2"
         d="m 248.06066,184.61218 c -2.60091,3.4397 -5.23338,6.85555 -7.89695,10.24696 -2.83301,3.60715 -5.70116,7.1866 -8.58729,10.75139 -3.54135,4.37407 -7.15155,8.79286 -9.44912,13.93045 -1.97407,4.41422 -2.91014,9.20748 -4.26498,13.84932 -1.53862,5.27153 -3.62627,10.37023 -5.97071,15.33612 -2.1648,4.58539 -4.54978,9.06293 -6.93891,13.53553 -1.73823,3.25407 -3.50515,6.58104 -4.10782,10.22071 -0.47627,2.87632 -0.19849,5.84423 0.53376,8.66626 0.73224,2.82202 1.90964,5.5106 3.23775,8.10601 5.66724,11.07504 14.17003,20.62168 24.24176,27.92472 4.57063,3.31418 9.46669,6.18109 14.60245,8.52595 2.78247,1.27041 5.71355,2.40436 8.77186,2.45744 1.52915,0.0265 3.0741,-0.22544 4.47434,-0.84055 1.40024,-0.6151 2.65068,-1.60373 3.48254,-2.88709 1.02278,-1.5779 1.36992,-3.53829 1.16461,-5.40743 -0.2053,-1.86914 -0.93484,-3.65294 -1.91324,-5.25873 -2.38997,-3.92251 -6.1652,-6.76055 -9.79642,-9.57343 -7.84055,-6.07358 -15.42466,-12.48038 -22.68212,-19.23996 -2.04911,-1.90854 -4.0984,-3.87759 -5.53019,-6.28412 -1.3943,-2.34352 -2.14763,-5.01375 -2.65783,-7.69253 -1.39963,-7.34872 -1.0404,-15.0827 1.45958,-22.13343 0.97802,-2.75834 2.27066,-5.39225 3.51815,-8.03965 2.1622,-4.58855 4.21133,-9.26299 7.04933,-13.46723 3.53268,-5.23334 8.24484,-9.67275 11.15147,-15.27803 2.45457,-4.7335 3.49353,-10.05742 4.36185,-15.31831 0.66531,-4.03089 1.24751,-8.07549 1.74613,-12.13037"
         style="fill:none;stroke:#729fcf;stroke-width:0.125;stroke-linecap:butt;stroke-linejoin:miter;stroke-miterlimit:4;stroke-dasharray:none;stroke-opacity:1" />
    </clipPath>
    <clipPath
       id="clipPath14186-9"
       clipPathUnits="userSpaceOnUse">
      <path
         style="fill:#402c07;fill-opacity:1;stroke:none"
         d="m 137.57703,281.0191 c 1.59929,-0.66295 3.3982,-0.78361 5.10074,-0.46963 1.70253,0.31398 3.31141,1.04948 4.74342,2.02239 2.86402,1.94583 4.98821,4.77774 7.02263,7.57952 4.67189,6.43406 9.16868,13.00227 13.24488,19.8293 3.30635,5.53766 6.34352,11.25685 10.16415,16.45304 2.49398,3.3919 5.3066,6.53947 7.813,9.92221 2.50639,3.38273 4.72794,7.05586 5.83931,11.11662 1.44411,5.27653 0.88463,11.09291 -1.62666,15.95302 -1.76663,3.41896 -4.47646,6.35228 -7.77242,8.33898 -3.29595,1.9867 -7.17064,3.01444 -11.01635,2.87021 -6.11413,-0.2293 -11.69944,-3.28515 -17.38362,-5.54906 -11.58097,-4.6125 -24.15978,-6.0594 -36.09666,-9.65174 -3.66859,-1.10404 -7.27582,-2.4107 -10.96988,-3.42629 -1.64125,-0.45122 -3.30866,-0.8482 -4.85875,-1.55144 -1.55008,-0.70325 -2.999548,-1.7491 -3.86171,-3.21675 -0.666391,-1.13439 -0.948386,-2.47002 -0.930187,-3.78554 0.0182,-1.31552 0.325889,-2.61453 0.773815,-3.85158 0.895851,-2.47409 2.343262,-4.71374 3.320162,-7.15696 1.59511,-3.98935 1.88169,-8.38839 1.66657,-12.67942 -0.21511,-4.29103 -0.91078,-8.54478 -1.20454,-12.83115 -0.13118,-1.91406 -0.18066,-3.85256 0.18479,-5.73598 0.36545,-1.88343 1.17577,-3.72459 2.55771,-5.05541 1.27406,-1.22693 2.96492,-1.95531 4.69643,-2.31651 1.73151,-0.3612 3.51533,-0.37747 5.28367,-0.33762 1.76833,0.0399 3.54067,0.13425 5.30351,-0.0106 1.76284,-0.14488 3.53347,-0.54055 5.06911,-1.41828 1.45996,-0.83447 2.65433,-2.0745 3.64374,-3.43424 0.9894,-1.35974 1.78909,-2.84573 2.60891,-4.31396 0.81983,-1.46823 1.66834,-2.93151 2.74157,-4.22611 1.07324,-1.2946 2.38923,-2.42304 3.94266,-3.06698"
         id="path14188-1"
         inkscape:connector-curvature="0"
         sodipodi:nodetypes="ssssssssssssssss"
         inkscape:original-d="m 137.57703,281.0191 c 6.32494,-1.3585 11.99755,4.87308 16.86679,9.13228 6.42572,5.62067 -8.54781,26.01622 13.24488,19.8293 5.86081,-1.66388 6.89528,11.31183 10.16415,16.45304 4.09971,6.44793 11.58575,13.6827 13.65231,21.03883 1.58383,5.63779 1.34339,10.90606 -1.62666,15.95302 -3.57124,6.06857 -11.7907,10.42929 -18.78877,11.20919 -5.73056,0.63864 -11.87822,-3.8351 -17.38362,-5.54906 -12.31617,-3.83432 -23.77946,-5.82074 -36.09666,-9.65174 -2.50091,-0.77785 -8.28361,-2.638 -10.96988,-3.42629 -4.51043,-1.3236 -6.46556,-0.99271 -8.72046,-4.76819 -2.68251,-4.49147 0.68051,-9.72669 3.16379,-14.79408 4.06995,-8.30524 1.91195,-17.82603 0.46203,-25.51057 -0.92235,-4.8884 -0.66071,-7.92707 2.7425,-10.79139 4.99476,-4.20385 14.53027,-1.53186 20.35272,-4.08305 5.82246,-2.55119 6.66365,-13.6939 12.93688,-15.04129 z" />
    </clipPath>
    <inkscape:path-effect
       effect="spiro"
       id="path-effect4669-1"
       is_visible="true" />
    <inkscape:path-effect
       effect="spiro"
       id="path-effect4669-4-3"
       is_visible="true" />
  </defs>
  <sodipodi:namedview
     id="base"
     pagecolor="#ffffff"
     bordercolor="#666666"
     borderopacity="1.0"
     inkscape:pageopacity="0.0"
     inkscape:pageshadow="2"
     inkscape:zoom="0.5"
     inkscape:cx="-132.60267"
     inkscape:cy="294.40982"
     inkscape:document-units="px"
     inkscape:current-layer="layer1"
     showgrid="false"
     inkscape:window-width="3066"
     inkscape:window-height="1689"
     inkscape:window-x="134"
     inkscape:window-y="55"
     inkscape:window-maximized="1"
     units="cm"
     fit-margin-top="0"
     fit-margin-left="0"
     fit-margin-right="0"
     fit-margin-bottom="0" />
  <metadata
     id="metadata3012">
    <rdf:RDF>
      <cc:Work
         rdf:about="">
        <dc:format>image/svg+xml</dc:format>
        <dc:type
           rdf:resource="http://purl.org/dc/dcmitype/StillImage" />
        <dc:title></dc:title>
      </cc:Work>
    </rdf:RDF>
  </metadata>
  <g
     inkscape:label="Layer 1"
     inkscape:groupmode="layer"
     id="layer1"
     transform="translate(-35.433071,-393.11382)">
    <path
       inkscape:connector-curvature="0"
       style="color:#000000;font-style:normal;font-variant:normal;font-weight:normal;font-stretch:normal;font-size:medium;line-height:normal;font-family:'Bitstream Vera Sans';-inkscape-font-specification:'Bitstream Vera Sans';text-indent:0;text-align:start;text-decoration:none;text-decoration-line:none;letter-spacing:normal;word-spacing:normal;text-transform:none;writing-mode:lr-tb;direction:ltr;baseline-shift:baseline;text-anchor:start;display:inline;overflow:visible;visibility:visible;fill:#202020;fill-opacity:1;stroke:none;stroke-width:124.93508148;marker:none;enable-background:accumulate"
       d="m 197.74747,412.11395 c -2.13506,-0.004 -4.36206,0.0933 -6.68441,0.29476 -58.69491,5.14428 -43.12861,72.62548 -43.99976,95.22277 -1.07188,16.52524 -4.15069,29.54825 -14.5943,45.70367 -12.26968,15.87868 -29.544,41.57852 -37.727301,68.33116 -3.862139,12.62609 -5.699986,25.49547 -4.002694,37.67548 -0.531679,0.51815 -1.037844,1.06103 -1.519138,1.6202 -3.602377,4.18531 -6.264125,9.25642 -9.229987,12.6707 -2.770899,3.008 -6.718734,4.15214 -11.057077,5.84601 -4.340002,1.69462 -9.104993,4.19299 -11.997371,10.23312 0,0 0,0.002 -0.0019,0.003 -0.0047,0.01 -0.0099,0.0194 -0.01479,0.0296 v 0 c -2.618327,5.3221 -1.839939,11.45092 -1.040284,17.12915 0.799678,5.67817 1.609229,11.04384 0.534656,14.68423 -3.434816,10.21688 -3.873345,17.28411 -1.455346,22.41041 2.423155,5.13698 7.405361,7.40437 13.036336,8.68427 11.261982,2.55979 26.513656,1.92367 38.963086,9.05417 12.44944,7.1305 25.49514,9.73107 35.90332,7.14393 7.5461,-1.8757 13.67175,-6.76557 16.81766,-14.28991 8.14086,-0.0436 17.07403,-3.79575 31.38385,-4.65321 9.70779,-0.85097 21.83453,3.75163 35.78329,2.90873 0.36461,1.64692 0.89231,3.231 1.61465,4.73626 0.007,0.0155 0.0143,0.0308 0.0219,0.0461 5.40727,11.76706 15.45435,17.14933 26.16147,16.22973 10.72124,-0.92077 22.12008,-7.80049 31.12491,-19.57018 9.00482,-11.76969 23.58237,-16.57521 33.24846,-22.91975 4.83307,-3.17236 8.75474,-7.14462 9.05774,-12.91406 0.30284,-5.76654 -2.80805,-12.22888 -9.96147,-20.87029 l -0.002,-0.002 c -0.003,-0.004 -0.006,-0.007 -0.008,-0.0108 -2.35037,-2.89052 -3.47163,-8.24781 -4.6766,-13.95284 -1.20414,-5.70155 -2.54825,-11.85193 -6.84951,-15.83774 v 0 c -0.009,-0.008 -0.0173,-0.0156 -0.0259,-0.0238 v 0 c -1.71184,-1.62332 -3.49074,-2.72508 -5.28219,-3.46528 5.98011,-19.3009 3.63379,-38.51992 -2.40276,-55.88723 -7.40855,-21.31451 -20.34277,-39.88683 -30.22085,-52.59193 -11.05689,-15.17754 -21.87151,-29.5874 -21.65848,-50.87028 0.32935,-32.48232 3.28316,-92.71979 -49.24003,-92.79781 z m 7.11061,50.04218 c 2.9804,0 5.52586,0.9507 8.14061,3.01604 2.65627,2.09809 4.56992,4.72459 6.11228,8.39239 1.51377,3.57456 2.24211,7.07136 2.31352,11.22098 0,0.10879 0,0.20202 0.0286,0.31081 0.0286,4.25836 -0.64263,7.87953 -2.12787,11.57842 -0.84748,2.11061 -1.82072,3.88207 -2.98562,5.41572 -0.39547,-0.20662 -0.8062,-0.40528 -1.23219,-0.59592 v 0 c -2.95274,-1.37629 -5.21784,-2.25214 -7.10568,-2.96502 0.68433,-0.8952 1.25416,-1.95689 1.75523,-3.28412 0.75689,-2.00483 1.1282,-3.9631 1.1996,-6.2943 0,-0.0933 0.0286,-0.17099 0.0286,-0.27977 0.0428,-2.23794 -0.22849,-4.14957 -0.82829,-6.10782 -0.62837,-2.05146 -1.42811,-3.52788 -2.58486,-4.75566 -1.15676,-1.22783 -2.31352,-1.78728 -3.6988,-1.83395 -0.0649,-0.004 -0.12969,-0.004 -0.19367,-0.004 -1.30302,0.004 -2.43447,0.49053 -3.60506,1.55707 -1.22817,1.11903 -2.14214,2.54878 -2.89906,4.53811 -0.75689,1.98929 -1.1282,3.96304 -1.19958,6.30984 -0.0143,0.0933 -0.0143,0.17099 -0.0143,0.26422 -0.0247,1.28997 0.0506,2.47169 0.2334,3.61921 -2.66618,-1.44579 -5.17873,-2.43147 -7.53679,-3.04225 -0.13442,-1.10968 -0.21217,-2.2548 -0.23699,-3.45211 v -0.32641 c -0.0429,-4.24285 0.5998,-7.87953 2.09931,-11.57838 1.49952,-3.6989 3.35604,-6.35652 5.96946,-8.51678 2.61342,-2.16025 5.18399,-3.1549 8.22586,-3.18598 h 0.14237 z m -40.79281,3.51481 c 1.97714,0.005 3.74631,0.72392 5.57629,2.31424 1.98506,1.72506 3.48457,3.93195 4.7413,7.04027 1.25672,3.10831 1.92793,6.21659 2.11358,9.8844 v 0.0309 c 0.09,1.54045 0.079,2.99048 -0.0326,4.3948 -0.39103,0.12095 -0.77424,0.25182 -1.14961,0.39246 -2.13185,0.7986 -4.01064,1.88693 -5.64814,3.06363 0.16012,-1.2309 0.18395,-2.4798 0.0611,-3.8723 -0.0144,-0.0777 -0.0144,-0.13987 -0.0144,-0.21755 -0.17138,-1.84944 -0.5284,-3.40359 -1.1282,-4.97329 -0.64263,-1.6318 -1.35669,-2.78191 -2.29925,-3.6678 -0.85417,-0.80278 -1.66123,-1.17143 -2.54915,-1.16413 -0.0919,0 -0.18476,0.006 -0.27847,0.014 -0.99968,0.0932 -1.82797,0.62158 -2.61344,1.66289 -0.78545,1.04127 -1.29956,2.33122 -1.67086,4.04075 -0.37131,1.70958 -0.47128,3.38807 -0.3142,5.31519 0,0.0777 0.0144,0.13991 0.0144,0.21758 0.17135,1.86501 0.51411,3.41912 1.1282,4.98886 0.62836,1.6163 1.35669,2.76636 2.29925,3.65221 0.15784,0.14836 0.31401,0.28163 0.46947,0.40069 -0.9804,0.82114 -1.44854,1.19971 -2.25192,1.84214 -0.51528,0.41147 -1.12896,0.90138 -1.84225,1.47355 -1.55551,-1.58581 -2.769,-3.57883 -3.83,-6.20301 -1.25673,-3.10826 -1.92794,-6.21659 -2.12787,-9.8844 v -0.0309 c -0.18565,-3.66776 0.14281,-6.8227 1.07108,-10.0864 0.92826,-3.26374 2.17072,-5.62602 3.97011,-7.56876 1.79941,-1.94266 3.61311,-2.92176 5.7981,-3.04606 0.1707,-0.0102 0.33988,-0.0149 0.50741,-0.014 z m 18.55238,25.44577 c 4.59534,-0.0193 10.12523,1.62024 16.8199,6.30454 4.11216,2.91017 7.31193,3.15339 14.67998,6.58763 l 0.009,0.004 0.009,0.004 c 3.54508,1.58291 5.62585,3.64615 6.64246,5.8188 1.01659,2.17269 1.04146,4.52875 0.19056,7.00727 -1.70175,4.95715 -7.13372,10.17401 -14.7563,12.76445 l -0.007,0.003 -0.007,0.003 c -3.71673,1.31415 -6.95769,4.21623 -10.77858,6.59396 -3.82077,2.37761 -8.14427,4.29531 -14.02304,3.92521 0,-4e-5 0,0 0,0 -5.00471,-0.31744 -7.99634,-2.16643 -10.70139,-4.5323 -2.70512,-2.36592 -5.06238,-5.33818 -8.51416,-7.54395 l -0.009,-0.006 -0.009,-0.006 c -5.56,-3.41999 -8.5955,-7.37557 -9.54817,-10.80474 -0.9527,-3.42918 -0.0586,-6.35627 2.69999,-8.60613 3.10147,-2.52948 5.25593,-4.2501 6.69108,-5.39626 1.42569,-1.13852 2.01885,-1.56542 2.47286,-2.03984 0.002,-0.004 0.005,-0.005 0.007,-0.008 l 0.002,-0.004 c 2.33037,-2.40054 6.04516,-6.77406 11.6448,-8.87174 1.92728,-0.722 4.07784,-1.18781 6.48492,-1.19817 z m 38.83451,30.49924 c 5.00661,21.47786 16.65138,52.5001 24.13579,67.63952 3.97823,8.03222 11.89287,25.0979 15.31238,45.65898 5.65763,0.0447 11.17926,2.08247 16.26292,4.69548 14.35121,7.60512 19.65878,14.21837 17.10686,23.24424 -0.84052,-0.0321 -1.6673,-0.0285 -2.47373,-0.007 -0.0753,0.002 -0.14996,0.004 -0.22494,0.006 2.07821,-7.15452 -2.52573,-12.43136 -14.79376,-18.47203 -12.72439,-6.09226 -22.8639,-5.48615 -24.57761,6.86935 -0.10968,0.64732 -0.1979,1.30692 -0.2651,1.97571 -0.95065,0.35926 -1.90647,0.81795 -2.86468,1.38854 -5.97495,3.55788 -9.23614,10.01356 -11.04994,17.93148 -1.81235,7.91153 -2.33191,17.47609 -2.8321,28.22774 v 0.006 c -0.30561,5.40629 -2.34805,12.71849 -4.41953,20.46332 -20.8445,16.18112 -49.77468,23.19166 -74.3375,4.94899 -1.66463,-2.86571 -3.57417,-5.70509 -5.53971,-8.50552 -1.25517,-1.78836 -2.54454,-3.56579 -3.82642,-5.31817 2.5215,0.002 4.66479,-0.44725 6.397,-1.30202 2.15411,-1.06298 3.66763,-2.77032 4.4164,-4.96213 1.49754,-4.3837 -0.007,-10.5677 -4.80065,-17.62947 -4.7938,-7.06128 -10.58733,-17.56132 -22.51769,-25.52383 0,0 -0.002,0 -0.002,-0.002 -3.18003,-2.17033 -5.61792,-6.6443 -5.8311,-14.85183 0.37818,-14.61172 1.25919,-26.98315 6.64211,-40.92234 7.84063,-19.34171 24.2404,-52.88263 25.54293,-79.6152 0.67157,0.53069 2.97932,2.22522 4.00761,2.86161 0.002,0.003 0.005,0.003 0.007,0.004 3.00857,1.92807 5.26813,4.74647 8.19463,7.30599 2.9323,2.56459 6.59552,4.7797 12.12993,5.13064 v 0 c 6.45978,0.40679 11.38309,-1.7706 15.41678,-4.28073 4.02762,-2.50633 7.24518,-5.28009 10.29349,-6.36281 0.005,-0.003 0.009,-0.003 0.0138,-0.005 6.44136,-2.1921 11.56291,-6.07202 14.47736,-10.59737 z m 41.20309,121.90597 c 6.29101,-0.22405 13.90865,3.78053 17.36823,5.46483 9.31121,4.67801 10.09285,9.53128 7.55084,15.42152 -2.14214,4.44487 -14.41118,14.25786 -22.43892,12.28745 -10.57862,-3.59541 -10.89623,-18.39588 -9.85373,-25.99565 0.55844,-5.16077 3.43447,-7.15811 7.37358,-7.17815 z m -10.8256,14.94226 c 0.52633,9.29349 4.75144,18.77183 12.22364,20.82319 8.17693,2.3446 19.96638,-5.29053 24.94401,-11.51819 1.01675,-1.51949 1.1393,-2.73234 2.08169,-2.75709 4.36633,-0.11473 10.06327,0.5783 13.38501,3.69658 3.32173,3.11828 5.51212,9.07743 6.69757,14.69005 1.18538,5.61263 1.33179,11.61137 6.53168,17.9218 5.19988,6.31043 8.00445,13.5323 7.81746,17.0931 -0.18702,3.5609 -3.09532,7.95394 -7.46995,10.82529 -8.74547,5.74036 -23.54145,10.36079 -33.43899,23.40775 -8.59419,11.13028 -21.07539,17.71023 -30.3047,18.50293 -9.22931,0.79265 -19.03302,-5.37946 -23.72754,-15.63341 l -0.0107,-0.0232 -0.0111,-0.0229 c -2.91234,-6.02905 -1.21467,-15.12193 1.23867,-25.15803 2.4534,-10.03618 5.78448,-21.71194 6.25633,-30.08767 v -0.0132 -0.0127 c 0.49916,-10.73157 1.82626,-22.63414 3.48276,-29.86527 1.65647,-7.23113 5.62132,-11.28493 10.24288,-14.03693 0.21521,-0.12814 -0.15251,2.28168 0.0599,2.16744 z m -147.49491,-0.58115 c 5.23141,0.8624 10.76232,7.05737 15.15756,13.54509 4.39527,6.48781 8.67877,15.23866 12.47521,23.99932 3.79644,8.76066 11.41,16.46031 17.45147,25.06806 6.04144,8.60774 9.84508,17.56431 9.1445,26.53899 -0.70059,8.97467 -7.3221,17.01283 -16.29682,19.24364 -8.97205,2.23006 -21.81328,0.21806 -34.61332,-7.1134 -12.800042,-7.33146 -27.432956,-6.24564 -37.689697,-8.57689 -5.129765,-1.166 -10.899317,-4.18428 -12.435575,-7.44123 -1.536364,-3.25684 -1.861336,-9.46627 0.591925,-17.06336 2.45326,-7.59708 1.452222,-13.63263 0.668356,-19.19867 -0.783867,-5.56607 -1.748574,-10.73435 0.250704,-14.86043 1.999277,-4.12609 6.441859,-8.22816 10.512515,-9.81746 4.070633,-1.58938 8.316173,-1.99401 12.003572,-6.1174 3.6874,-4.12339 6.237371,-9.29971 9.335144,-12.89879 4.153888,-4.19916 8.136521,-6.16406 13.444456,-5.30747 z"
       id="path154"
       sodipodi:nodetypes="ccccscsccccccsccscscccccscsscccccccccscccccscccsccccsccsccccsccccccssccccsscccccccccccsscccccccsccsccccccccccccccsccscccssccccsccccccccccccssccccscssscccccccsccscccccccccccccscccsscscccscccsccccscscscsccsccccc" />
    <g
       id="g4618"
       transform="matrix(0.38757778,0,0,0.4217868,296.81852,533.88348)">
      <path
         sodipodi:nodetypes="sscccccssszzs"
         style="fill:#202020;fill-opacity:1"
         inkscape:connector-curvature="0"
         id="path11"
         d="m -245.31131,-29.04609 c -15.64075,8.1527 -33.91,18.04 -53.35,18.04 -19.43,0 -34.78,-8.98 -45.82,-17.73 -5.52,-4.37 -10,-8.72 -13.38,-11.88 -5.86434,-4.62903 -5.16188,-11.12168 -2.75246,-10.93 4.03863,0.50418 4.64927,5.82168 7.19246,8.2 3.44,3.22 7.75,7.39 12.97,11.53 10.44,8.27 24.36,16.32 41.79,16.32 17.4,0 37.71174,-10.21517 50.11,-17.17 7.02421,-3.94024 15.96224,-11.0031 23.25658,-16.35742 5.58072,-4.09647 5.37722,-9.02921 9.98509,-8.49216 4.60786,0.53705 1.19917,5.45984 -5.25377,11.09153 -6.45295,5.63169 -16.54818,13.10397 -24.7479,17.37805 z" />
      <path
         style="opacity:1;fill:#202020;fill-opacity:1;stroke:none"
         d="m -284.1147,-85.8664 c 0.64684,2.07624 3.99301,1.73211 5.92629,2.72792 1.69642,0.87378 3.06086,2.78891 4.96829,2.84398 1.82043,0.0526 4.65359,-0.63043 4.89041,-2.43615 0.31286,-2.38563 -3.17083,-3.90165 -5.41255,-4.77563 -2.88469,-1.12471 -6.58056,-1.69534 -9.28659,-0.19073 -0.6201,0.34477 -1.29689,1.15328 -1.08585,1.83064 z"
         id="path28396-7"
         inkscape:connector-curvature="0"
         sodipodi:nodetypes="aaaaaaa" />
      <path
         sodipodi:nodetypes="aaaaaaa"
         inkscape:connector-curvature="0"
         id="path5461"
         d="m -303.87905,-85.8664 c -0.64684,2.07624 -3.99301,1.73211 -5.92629,2.72792 -1.69642,0.87378 -3.06086,2.78891 -4.96829,2.84398 -1.82043,0.0526 -4.65359,-0.63043 -4.89041,-2.43615 -0.31286,-2.38563 3.17083,-3.90165 5.41255,-4.77563 2.88469,-1.12471 6.58056,-1.69534 9.28659,-0.19073 0.6201,0.34477 1.29689,1.15328 1.08585,1.83064 z"
         style="opacity:1;fill:#202020;fill-opacity:1;stroke:none" />
    </g>
    <path
       style="color:#000000;font-style:normal;font-variant:normal;font-weight:normal;font-stretch:normal;font-size:medium;line-height:normal;font-family:'Bitstream Vera Sans';-inkscape-font-specification:'Bitstream Vera Sans';text-indent:0;text-align:start;text-decoration:none;text-decoration-line:none;letter-spacing:normal;word-spacing:normal;text-transform:none;writing-mode:lr-tb;direction:ltr;baseline-shift:baseline;text-anchor:start;display:inline;overflow:visible;visibility:visible;fill:#ffffff;fill-opacity:1;stroke:none;stroke-width:124.93508148;marker:none;enable-background:accumulate"
       d="m 197.74372,414.22275 c -2.07839,-0.004 -4.25287,0.091 -6.52675,0.28833 -14.32811,1.25608 -23.84391,6.2425 -30.29844,13.26075 -6.45476,7.01851 -9.90599,16.19961 -11.63566,26.09724 -3.45933,19.79525 0.17535,41.93904 -0.28387,53.85113 l -7.7e-4,0.0297 -0.002,0.0305 c -1.0852,16.73055 -4.3197,30.33597 -14.94218,46.76808 l -0.0485,0.075 -0.053,0.0692 c -12.18341,15.76703 -29.32985,41.34714 -37.372485,67.63993 -3.698694,12.09177 -5.467865,24.31222 -4.042316,35.79092 3.95165,-2.20175 7.451473,-3.07622 10.541061,-2.97063 1.94022,0.0663 3.71872,0.51756 5.34736,1.26701 4.34301,1.99852 7.52166,5.75184 13.50809,14.2047 5.98643,8.45287 10.39014,19.14154 14.02734,25.96308 3.6372,6.82153 6.35251,10.08489 8.96804,13.67017 l 2.13697,0.002 c 2.3091,0.002 4.17759,-0.4144 5.5949,-1.11378 1.75424,-0.86566 2.8343,-2.11926 3.40039,-3.77631 1.14241,-3.34417 0.0452,-8.88348 -4.54269,-15.64153 -4.89596,-7.21177 -10.45085,-17.28972 -21.97233,-24.97934 l 0.0787,0.0239 c -0.0248,-0.0238 -0.0892,-0.0853 -0.15215,-0.14581 l 0.0553,0.10874 c -3.81791,-2.60567 -6.51431,-7.9392 -6.73871,-16.57902 l -0.002,-0.0593 0.002,-0.0593 c 0.37969,-14.67038 1.28013,-27.40598 6.79245,-41.68028 l 0.007,-0.0173 0.007,-0.0165 c 7.90947,-19.51154 24.11951,-52.98476 25.38104,-78.87578 l 0.12188,-2.50518 c -2.17682,-2.29974 -3.67405,-4.69757 -4.33906,-7.09129 -1.13831,-4.09728 0.14953,-8.2587 3.39282,-10.90385 1.5648,-1.27621 2.26282,-1.82697 3.37617,-2.72267 l -0.17714,-0.18124 c -1.77975,-1.8144 -3.14455,-4.08629 -4.27925,-6.89275 -1.34609,-3.32929 -2.07709,-6.7329 -2.28838,-10.60893 l -0.004,-0.0618 v -0.0684 c -0.1857,-3.83346 0.17165,-7.26639 1.15819,-10.73496 0.99459,-3.49693 2.41605,-6.23944 4.45639,-8.44233 v -8.5e-4 c 2.0305,-2.19215 4.40298,-3.50312 7.06194,-3.65438 0.20555,-0.0122 0.40971,-0.0182 0.61315,-0.0173 h 7.8e-4 0.003 l 0.92655,0.005 0.0719,0.0972 c 2.03829,0.23385 3.98852,1.11738 5.77884,2.67324 2.24296,1.94918 3.95633,4.50176 5.30573,7.8393 1.34608,3.32933 2.0783,6.73596 2.27475,10.61716 l 0.003,0.0585 v 0.061 c 0.0886,1.59127 0.0768,3.11171 -0.0401,4.59105 0.71229,-0.15542 1.47475,-0.22368 2.23614,-0.30316 l -0.005,-0.18453 1.98406,-0.008 c 1.30949,-0.005 2.68713,0.12985 4.12029,0.3946 -0.13794,-1.16424 -0.22116,-2.3561 -0.24678,-3.59178 l -7.8e-4,-0.0231 v -0.32705 c -0.0453,-4.4878 0.65783,-8.4911 2.26415,-12.45342 1.59958,-3.94572 3.69963,-6.97119 6.57066,-9.34439 2.60043,-2.14952 5.39099,-3.29005 8.43057,-3.52258 0.31823,-0.0243 0.62518,-0.0898 0.94926,-0.0931 h 0.16048 c 3.35908,0 6.40934,1.15114 9.27916,3.41796 2.91929,2.30584 5.08457,5.29813 6.73341,9.21752 l 0.002,0.004 c 1.60537,3.79258 2.4011,7.62339 2.48443,11.98632 l 0.0318,0.12028 0.002,0.2875 c 0.0302,4.50823 -0.7046,8.48973 -2.28988,12.43777 -0.90614,2.25672 -1.97386,4.21119 -3.26792,5.9149 l -0.13702,0.18042 c 2.27626,1.49192 3.87981,3.27878 4.80915,5.26492 1.26783,2.70966 1.27471,5.80023 0.27857,8.70182 -0.25547,0.66594 -0.22593,1.66142 0.5473,3.51681 4.93971,21.19086 16.60474,52.27205 23.96321,67.15719 l 7.7e-4,0.002 c 3.90897,7.89249 11.58828,24.50328 15.20108,44.6921 5.49241,0.37203 10.73229,2.30624 15.49478,4.75416 l 0.0106,0.006 0.0106,0.005 c 7.28985,3.8631 12.42112,7.49199 15.54399,11.65186 3.12286,4.15986 3.88938,8.72988 2.46324,13.77397 l 3.41325,0.44815 c 5.80664,-18.741 3.54875,-37.41244 -2.37921,-54.46734 -7.27628,-20.93396 -20.07203,-39.3509 -29.88739,-51.97534 l -0.0204,-0.0264 -0.0189,-0.0264 c -11.0457,-15.16216 -22.29847,-30.13212 -22.07755,-52.20271 v -8.4e-4 c 0.16512,-16.29667 0.91935,-39.27556 -4.70405,-57.86812 -2.81171,-9.29629 -7.17284,-17.4466 -13.9089,-23.29301 -6.73606,-5.84642 -15.90172,-9.48522 -28.69211,-9.50421 z m 5.9416,63.85622 c -0.86339,0.003 -1.44547,0.22547 -2.3671,1.06517 -0.96805,0.88203 -1.6812,1.96281 -2.35272,3.72771 -0.66926,1.75897 -0.98775,3.42884 -1.05297,5.57302 l -0.005,0.14005 -0.009,0.0593 v 0.0165 0.0222 c -0.0225,1.17391 0.0453,2.21184 0.20515,3.2153 l 0.40272,2.53072 c 0.66459,0.42067 1.2946,0.73969 1.97876,1.21841 l 0.004,0.003 0.005,0.003 c 1.69154,1.1971 3.2888,1.90221 5.17023,2.63699 l 0.84782,-1.10883 c 0.54081,-0.70745 1.00981,-1.56446 1.45267,-2.7375 0.67298,-1.78257 0.99008,-3.43511 1.05523,-5.56231 l -0.002,0.07 c 0,-0.56184 0.0288,-0.57305 0.0288,-0.28009 v -0.0214 -0.0222 c 0.0388,-2.02756 -0.19338,-3.6481 -0.72898,-5.39673 -0.56058,-1.83017 -1.17867,-2.93608 -2.09913,-3.91306 -0.90511,-0.96072 -1.46582,-1.20404 -2.4057,-1.2357 l -0.0288,-8.5e-4 -0.028,-0.003 c 0.0113,8.5e-4 -0.0178,1.6e-4 -0.0712,0 z m -39.94928,2.92697 c -0.0199,0 -0.0598,0.002 -0.11506,0.007 -0.46795,0.0439 -0.71485,0.15127 -1.27931,0.89959 -0.55056,0.72988 -0.95295,1.67074 -1.28234,3.18729 -0.32391,1.49131 -0.41218,2.90246 -0.27024,4.64377 l 0.008,0.0931 v 0.0931 c 0,-0.15364 0.007,-0.10323 0.0106,0.0552 0.15757,1.67918 0.44715,2.97068 0.97727,4.32578 l 7.8e-4,0.002 7.7e-4,0.003 c 0.54752,1.40835 1.09283,2.23059 1.7812,2.87754 0.11381,0.10697 0.2203,0.19733 0.31869,0.27268 l 0.78499,0.60138 c 0.7684,-0.80521 1.65702,-1.67076 2.68958,-2.5991 l 0.38682,-2.97063 c 0.13814,-1.06195 0.16013,-2.12461 0.0507,-3.36935 0.007,0.0656 0.0155,0.13304 0.0295,0.20924 l -0.0295,-0.21501 c -0.01,-0.0923 -0.0165,-0.17684 -0.0189,-0.24796 -0.15603,-1.65098 -0.45715,-2.95137 -0.98029,-4.32332 -0.566,-1.4342 -1.10129,-2.25487 -1.78044,-2.89319 -0.61927,-0.58202 -0.88174,-0.65397 -1.26795,-0.65081 h -0.007 z m 66.70123,243.06041 c -20.61715,15.31665 -48.70942,21.88901 -73.01148,5.34977 3.62625,7.45138 4.89041,15.3854 2.49352,23.02775 7.54255,-0.11861 16.59996,-3.76874 30.98881,-4.63801 10.39342,-0.91027 22.33395,3.72025 35.82975,2.90473 -1.4969,-9.04771 2.07449,-18.65404 3.6994,-26.64424 z"
       id="path4883"
       inkscape:connector-curvature="0"
       sodipodi:nodetypes="ccssccccccscssczccsssccccccccccccssccscccsccccccccsscccccccccccssccsccccccscccccccccccsccscccccssccscsccccccccccccscccccscccccscsscccccccsccccccccccccsccccccc" />
  </g>
</svg>
