<?xml version="1.0" standalone="no"?>
<!DOCTYPE svg PUBLIC "-//W3C//DTD SVG 20010904//EN"
"http://www.w3.org/TR/2001/REC-SVG-20010904/DTD/svg10.dtd"
[
 <!ATTLIST svg
  xmlns:xlink CDATA #FIXED "http://www.w3.org/1999/xlink">
]>
<!-- Created with Sodipodi ("http://www.sodipodi.com/") -->
<svg
   xmlns="http://www.w3.org/2000/svg"
   xmlns:xlink="http://www.w3.org/1999/xlink"
   width="744.094"
   height="744.094"
   id="svg1">
  <defs
     id="defs3" />
  <g
     transform="matrix(2.58928,0,0,2.58928,228.419,-1318.56)"
     style="font-size:12;"
     id="g2699">
    <path
       d="M 89.473 750.671 C 90.397 750.767 90.64 752.13 91.564 751.837 L 91.564 751.496 C 92.538 749.017 89.57 747.702 89.716 745.562 C 89.473 745.024 88.938 744.83 88.548 744.635 C 88.889 742.056 89.57 739.477 89.813 737.047 C 91.857 730.962 90.592 724.151 88.645 718.458 C 87.187 714.42 84.9 710.771 84.656 706.195 C 82.613 699.337 83.732 692.621 83.293 685.421 C 84.705 684.545 83.488 683.328 83.877 682.161 C 83.244 680.799 84.364 677.88 81.736 678.317 C 81.201 674.522 80.471 670.337 80.568 666.251 C 80.958 664.45 80.519 662.359 82.319 661.143 C 83.633 657.786 86.65 654.768 85.968 650.632 C 84.8 646.837 84.168 642.847 81.979 639.538 C 81.444 638.419 79.936 637.349 80.372 636.133 C 79.497 634.527 78.33 632.728 77.065 631.608 C 75.362 631.851 74.777 630.83 73.561 629.856 C 73.221 628.932 73.123 628.252 73.367 627.277 L 73.707 627.376 C 76.48 624.942 78.67 622.267 81.152 619.444 C 83.292 617.109 82.514 613.46 82.708 610.443 C 83.147 608.156 82.611 605.432 84.314 603.68 C 84.508 602.999 84.606 602.026 83.876 601.587 C 83.487 598.425 84.751 595.7 85.968 593.073 C 86.552 593.024 87.038 593.511 87.379 593.851 L 86.893 594.337 C 87.088 595.7 85.385 597.305 86.991 598.181 C 88.596 595.748 89.569 593.024 90.153 590.153 C 90.931 589.131 90.494 587.526 91.468 586.747 C 93.948 581.638 96.673 576.53 95.895 570.642 C 95.505 567.042 93.22 563.976 92.246 560.473 C 91.808 554.877 89.911 550.207 86.651 545.779 C 87.04 543.152 86.018 541.157 86.212 538.627 C 85.872 534.345 84.023 530.647 81.055 527.533 C 78.136 525.198 75.119 523.056 71.811 521.596 C 70.06 521.353 68.016 520.039 66.361 521.353 C 63.831 521.742 62.128 523.591 60.28 525.343 C 56.825 523.25 54.587 526.997 51.521 527.288 C 48.408 529.722 47.823 533.565 45.099 536.289 C 40.819 540.766 42.861 547.432 43.347 552.978 C 44.077 554.048 44.174 555.41 45.099 556.383 C 46.315 559.302 49.186 560.519 51.862 561.395 C 53.225 564.071 54.636 566.747 54.198 570.153 C 53.662 572.197 52.64 574.338 50.792 575.555 C 50.841 575.7 50.694 575.993 50.937 576.138 C 52.884 575.165 55.025 574.289 56.631 572.83 C 56.533 573.803 56.485 574.825 56.047 575.652 C 55.852 576.43 54.83 577.014 55.122 577.89 C 56.971 576.771 58.917 575.993 60.523 574.241 C 61.009 575.116 59.745 575.603 60.28 576.479 C 62.663 576.187 64.707 574.338 65.972 572.246 C 66.458 572.975 67.285 573.511 67.382 574.386 C 65.193 575.7 62.614 576.625 61.106 579.155 C 58.381 580.809 56.775 583.437 54.537 585.675 C 53.126 587.28 51.569 588.984 49.623 589.568 C 47.822 592.001 45.779 588.693 43.589 590.152 C 43.589 592.974 39.745 593.315 39.016 595.845 C 39.94 600.468 39.891 605.916 44.368 608.69 C 44.271 609.42 43.054 610.733 44.514 611.171 C 44.466 611.463 44.612 611.853 44.368 612.096 C 44.758 614.431 44.562 616.961 45.439 619.102 C 41.254 624.405 38.578 630.391 35.756 636.277 C 35.173 635.207 34.102 634.866 33.081 634.72 C 31.669 635.206 31.913 636.763 31.33 637.784 C 30.454 637.638 29.723 637.104 28.994 636.616 L 28.847 634.622 C 28.02 633.892 28.312 633.163 28.41 632.189 C 26.901 631.313 28.847 629.95 27.582 629.026 C 28.847 627.13 26.123 626.35 27.242 624.598 C 26.269 624.112 26.804 623.431 26.658 622.603 C 26.366 622.263 26.026 622.117 25.685 621.874 C 25.588 618.517 25.199 614.917 23.738 611.948 C 21.597 610.829 20.527 613.651 18.824 614.186 C 17.17 616.327 17.851 619.49 18.678 621.777 C 19.408 622.506 19.116 623.82 20.333 624.112 C 20.236 625.524 21.013 626.301 20.577 627.713 C 22.133 628.442 20.43 630.049 21.988 630.778 C 20.237 632.432 23.739 632.87 22.426 634.524 C 23.789 635.157 22.377 636.568 23.497 637.298 C 22.815 637.979 21.842 637.93 21.014 638.222 C 20.528 638.951 20.528 639.877 20.577 640.801 C 18.776 641.725 21.549 643.088 19.993 644.061 C 19.993 644.888 20.917 644.937 21.405 645.375 C 21.113 646.152 21.94 647.223 21.161 647.953 C 20.578 647.32 19.653 647.223 19.069 647.125 C 17.609 647.369 15.906 647.32 15.079 648.877 C 14.203 651.894 16.392 653.889 16.149 656.81 L 16.735 657.734 C 17.512 658.755 18.632 657.831 19.507 657.636 C 21.501 656.711 21.794 654.667 22.086 652.819 L 24.665 651.067 L 24.909 651.311 C 25.25 654.084 25.591 657.101 26.077 659.972 C 26.854 659.825 27.098 660.896 27.828 660.993 C 28.363 668.827 29.434 676.028 30.504 683.667 C 31.04 684.688 30.358 685.76 31.088 686.685 C 31.476 692.62 32.985 698.167 33.422 704.104 C 33.764 706.244 33.179 708.288 34.104 710.186 C 34.348 718.652 36.732 726.289 37.51 734.562 C 39.456 743.467 39.311 753.538 40.77 762.343 C 41.744 763.268 41.89 764.291 41.452 765.506 C 42.133 766.774 43.057 764.581 43.933 764.825 L 43.933 765.846 C 42.717 768.231 40.528 769.984 38.678 771.931 C 36.927 776.501 31.915 776.647 28.606 779.179 C 27.195 780.054 24.568 780.054 24.519 782.342 C 27.973 784.676 32.401 785.65 36.779 784.676 C 43.3 784.385 47.97 778.594 54.539 778.594 C 56.729 778.74 56.875 776.748 57.702 775.335 C 58.188 772.66 56.875 770.273 57.02 767.744 L 57.361 768.181 C 58.918 768.231 57.75 766.774 58.285 765.994 C 58.723 766.189 59.16 766.966 59.55 766.235 C 59.209 763.997 59.939 761.029 58.042 759.328 C 58.722 758.209 58.673 756.165 60.376 756.069 C 62.127 755.63 60.911 754.022 61.447 752.906 C 63.587 748.525 65.777 744.097 67.966 739.718 C 70.108 739.474 68.55 736.945 70.205 736.07 C 70.448 735.096 69.864 734.027 69.134 733.393 C 69.573 728.236 69.475 723.613 68.551 718.7 C 67.336 713.59 68.405 709.455 68.551 704.103 L 68.795 703.763 L 69.134 704.201 C 70.79 706.777 70.156 710.574 73.124 712.277 C 72.492 714.708 75.07 716.071 75.216 718.359 C 75.849 727.26 78.573 735.485 79.206 744.242 C 77.746 745.166 77.309 746.87 76.725 748.329 C 76.676 749.789 75.363 751.298 76.481 752.661 C 77.601 752.757 77.649 751.152 78.476 751.152 C 77.405 755.094 73.416 757.234 70.545 759.812 C 67.578 763.17 62.177 762.341 60.376 766.819 C 68.939 769.397 76.968 764.435 85.386 765.65 C 87.38 765.7 89.23 764.775 90.981 764.921 C 91.76 764.436 91.469 763.316 91.663 762.49 C 92.831 757.768 88.208 755.19 89.474 750.667 L 89.473 750.671 z M 52.932 729.894 C 52.152 729.844 52.057 730.818 51.618 731.306 C 52.737 732.618 50.353 734.419 52.348 735.49 C 50.936 739.819 50.305 744.636 49.284 748.919 C 48.602 748.724 48.261 749.747 47.873 750.232 L 47.775 751.157 C 45.245 738.944 44.466 725.855 41.255 713.692 C 39.651 703.962 38.385 693.451 36.439 684.011 C 35.953 682.552 37.023 681.093 36.001 679.682 C 35.368 674.232 34.785 668.491 33.52 663.139 C 34.201 660.267 32.062 657.154 34.006 654.818 C 33.228 652.629 32.935 650.196 32.596 647.811 C 33.908 647.422 35.368 647.276 36.585 646.546 C 39.456 642.215 43.203 638.178 46.949 634.625 C 46.024 636.474 47.532 638.955 45.441 640.366 C 44.905 643.043 45.635 645.816 47.532 647.81 C 49.091 648.151 48.506 650.681 48.458 651.897 C 47.679 656.131 46.753 660.218 46.122 664.5 C 46.024 668.295 46.024 672.284 46.024 675.983 C 43.299 676.907 45.149 680.119 45.099 682.162 C 45.634 683.378 45.683 685.422 47.531 685.519 C 48.36 692.526 50.937 699.094 52.105 706.1 C 51.619 709.263 52.64 712.376 53.955 715.051 C 54.198 720.113 53.857 724.93 52.934 729.893 L 52.932 729.894 z "
       id="path1772" />
    <path
       d="M 80.471 528.361 C 84.899 532.545 85.871 538.383 85.969 544.466 C 82.174 540.282 78.476 535.757 76.725 530.453 C 76.579 530.356 77.163 529.626 76.481 529.772 C 76.093 531.232 76.676 532.886 77.31 534.2 C 79.401 539.796 84.996 543.639 87.819 548.894 C 89.667 552.349 91.321 555.852 91.468 559.988 C 92.051 564.804 96.042 568.259 95.555 573.562 C 95.408 575.752 94.97 578.136 94.143 580.229 L 91.563 584.754 C 92.682 575.266 89.618 567.383 86.553 559.307 C 86.211 560.329 86.553 561.643 86.893 562.713 C 90.251 570.255 92.197 579.548 90.3 588.16 C 89.57 591.177 88.695 594.096 87.137 596.772 C 86.407 595.263 88.354 594.68 88.158 593.171 C 89.034 587.673 86.602 582.759 87.575 577.067 C 87.721 573.126 87.137 569.671 85.824 566.217 C 82.077 557.604 83.974 546.657 77.649 539.115 L 77.454 539.115 C 77.114 539.698 77.893 540.234 78.232 540.623 C 83.196 549.527 82.271 560.864 86.211 570.157 C 86.553 572.541 86.941 574.634 86.795 577.067 C 86.746 573.661 86.163 570.06 83.73 567.579 C 83.097 568.893 84.751 569.866 85.043 571.082 C 86.552 574.537 85.822 579.013 86.21 582.759 C 86.746 585.29 87.67 587.674 87.476 590.496 C 85.822 588.452 85.432 585.63 84.313 583.344 C 83.827 584.463 84.507 585.679 84.799 586.75 C 85.287 588.696 86.162 590.497 87.476 592.102 L 87.476 592.588 C 84.264 591.177 82.61 587.382 82.561 583.83 C 84.02 578.332 82.026 572.25 80.713 566.898 C 80.713 564.757 80.663 562.324 80.371 560.134 C 78.329 566.217 81.929 571.861 82.221 577.748 C 80.664 575.899 79.983 573.32 79.642 570.644 C 77.744 566.119 78.28 560.134 79.204 555.318 C 79.69 551.669 78.425 548.117 77.55 544.711 C 77.16 548.7 79.204 552.35 78.474 556.631 C 76.772 562.373 78.036 568.942 79.545 574.39 L 79.545 576.824 C 75.798 572.055 76.479 566.217 76.284 560.135 C 76.09 559.405 76.235 558.481 75.7 558.043 C 74.971 560.573 76.041 563.249 75.7 566.071 C 75.457 566.946 75.602 567.968 75.554 568.893 C 71.321 560.573 78.668 552.983 76.04 544.127 C 74.873 541.938 73.899 538.921 71.224 538.045 C 70.445 539.019 72.099 538.921 72.391 539.553 C 78.668 546.024 74.387 555.415 73.462 562.908 C 73.365 566.217 75.067 569.136 75.457 571.908 C 74.873 568.114 71.516 565.291 72.294 561.058 C 73.073 555.511 77.014 548.796 72.538 543.542 C 69.57 540.672 66.115 538.092 63.05 535.368 C 61.93 534.978 60.812 534.2 59.448 534.687 C 56.627 536.438 56.432 539.698 55.702 542.472 C 55.459 543.25 54.583 543.299 53.951 543.056 C 50.933 542.909 47.674 543.834 46.263 546.802 C 44.707 550.695 46.312 554.976 48.599 558.139 L 51.276 560.572 C 48.357 560.426 47.09 557.507 45.339 555.707 C 42.809 551.62 43.296 546.998 43.101 542.131 C 43.783 537.461 48.454 534.104 50.01 529.627 C 51.372 527.389 53.951 527.438 55.849 526.027 C 56.773 525.102 58.525 525.784 59.789 525.93 C 58.817 527.487 57.502 528.946 56.871 530.698 L 57.016 530.795 C 59.693 527.194 62.417 522.864 67.04 521.696 C 72.441 521.696 76.333 525.346 80.469 528.362 L 80.471 528.361 z "
       style="fill:#ff6000;"
       id="path2702" />
    <path
       d="M 71.957 526.707 C 72.006 527.048 72.345 527.339 72.054 527.68 C 70.107 525.976 68.113 523.787 65.388 523.691 L 65.533 523.107 C 68.209 522.961 69.912 525.248 71.956 526.708 L 71.957 526.707 z "
       id="path2703" />
    <path
       d="M 63.782 526.512 C 63.344 527.144 62.078 526.707 61.447 527.29 C 61.057 527.193 60.522 527.436 60.133 527.776 L 60.036 527.679 C 60.814 526.366 62.322 526.463 63.782 526.511 L 63.782 526.512 z "
       id="path2704" />
    <path
       d="M 56.532 529.869 L 56.288 530.112 C 55.559 530.063 55.17 529.139 54.537 528.847 C 54.488 528.409 54.976 528.311 55.266 528.457 C 55.704 528.847 56.337 529.333 56.532 529.868 L 56.532 529.869 z "
       id="path2705" />
    <path
       d="M 66.36 530.453 C 66.652 530.891 67.042 531.328 67.042 531.865 C 65.192 530.113 62.906 529.043 60.375 529.189 C 60.423 528.897 60.862 528.653 61.202 528.606 C 63.198 528.508 64.754 529.481 66.36 530.454 L 66.36 530.453 z "
       id="path2706" />
    <path
       d="M 67.042 534.103 C 67.042 534.2 67.091 534.93 66.555 534.686 L 66.215 534.686 C 64.172 532.496 61.691 530.745 58.771 531.524 C 55.852 532.983 54.636 535.903 54.099 538.87 C 55.17 540.136 53.078 539.99 53.37 541.206 L 53.127 541.206 C 53.516 539.6 51.569 540.233 50.693 539.941 C 49.526 540.038 48.309 539.99 47.53 540.963 C 47.142 541.499 46.85 542.325 46.363 542.617 C 46.606 541.254 47.676 539.941 48.942 539.357 C 50.304 539.503 51.569 538.481 52.786 539.357 C 53.419 539.551 53.661 538.822 53.711 538.383 C 54.392 535.124 56.145 531.378 59.792 530.599 C 62.857 530.258 64.902 532.495 67.042 534.102 L 67.042 534.103 z "
       id="path2707" />
    <path
       d="M 54.878 532.35 L 54.683 532.545 L 52.202 531.378 C 52.445 530.453 53.564 531.134 54.099 531.378 C 54.489 531.669 54.781 531.864 54.878 532.35 z "
       id="path2708" />
    <path
       d="M 54.197 534.297 C 54.246 534.54 54.148 534.735 53.954 534.88 C 52.592 534.15 50.936 533.421 49.429 533.712 C 49.527 532.983 50.646 533.274 51.279 533.03 C 52.349 533.225 53.37 533.517 54.198 534.296 L 54.197 534.297 z "
       id="path2709" />
    <path
       d="M 60.959 535.61 C 60.132 537.021 59.499 538.53 59.45 540.281 C 59.207 540.427 58.915 540.476 58.77 540.719 C 58.478 538.822 59.062 536.924 60.279 535.464 L 60.959 535.61 z "
       style="fill:#e12600;"
       id="path2710" />
    <path
       d="M 62.614 536.194 C 61.69 537.313 62.176 539.551 60.376 539.795 C 60.28 538.53 60.717 536.973 61.544 535.853 L 62.614 536.194 z "
       style="fill:#e12600;"
       id="path2711" />
    <path
       d="M 53.516 537.119 C 52.008 536.973 49.866 536.34 48.359 537.216 C 48.116 536.243 49.429 536.389 50.013 536.048 C 51.327 536.048 52.982 535.902 53.516 537.119 L 53.516 537.119 z "
       id="path2712" />
    <path
       d="M 57.943 541.546 C 57.456 542.129 57.214 543.055 56.434 542.958 C 57.359 540.768 57.553 538.238 58.868 536.194 C 58.381 537.897 57.359 539.551 57.943 541.546 z "
       style="fill:#e12600;"
       id="path2713" />
    <path
       d="M 63.442 537.362 C 63.101 537.848 63.149 538.724 62.468 538.87 C 62.274 538.189 62.517 537.216 63.052 536.632 C 63.442 536.632 63.734 537.07 63.442 537.362 L 63.442 537.362 z "
       style="fill:#e12600;"
       id="path2714" />
    <path
       d="M 64.609 537.8 C 64.415 537.897 63.879 538.335 63.635 537.946 L 63.879 537.363 C 64.22 537.265 64.365 537.655 64.609 537.801 L 64.609 537.8 z "
       style="fill:#e12600;"
       id="path2715" />
    <g
       style="fill:#e12600;"
       id="g2716">
      <path
         d="M 48.845 544.952 C 49.525 545.059 50.002 546.396 51.689 545.306 C 50.783 544.931 49.814 544.139 48.845 544.952 z "
         id="path2717" />
      <path
         d="M 82.222 579.984 L 80.372 576.578 C 80.178 577.649 80.228 578.768 79.886 579.741 C 79.595 579.887 79.498 579.497 79.303 579.4 C 78.963 576.675 77.309 574.486 76.286 572.053 C 75.945 572.637 76.335 573.269 76.384 573.902 C 76.335 574.388 75.702 574.292 75.46 574.146 C 74 571.47 73.708 568.307 72.054 565.729 C 70.594 561.593 72.637 557.701 73.465 553.954 C 74.681 550.499 74 546.121 71.372 543.883 L 71.032 544.807 C 71.129 545.634 71.907 544.953 72.2 545.391 C 71.47 546.364 73.416 547.191 72.394 548.116 C 71.665 547.97 71.615 547.142 71.227 546.704 C 70.741 546.51 70.107 546.51 69.962 546.704 C 71.42 548.455 72.151 550.84 71.129 552.883 L 71.372 552.883 C 71.567 552.981 71.421 553.175 71.47 553.37 C 70.838 554.294 69.524 554.537 68.454 554.391 C 68.308 554.099 68.648 553.953 68.697 553.709 C 67.092 553.271 66.702 551.52 66.119 550.207 C 65.632 548.31 65.729 545.925 67.383 544.709 L 66.945 544.709 C 65.728 545.828 65.632 547.434 64.464 548.553 L 64.123 548.212 C 63.88 547.531 64.561 547.19 64.61 546.558 C 65.68 545.585 65.583 542.665 67.87 543.639 C 68.258 543.298 67.966 542.471 68.551 542.374 C 68.989 542.666 68.697 543.249 68.795 543.639 C 69.33 543.639 69.719 543.249 70.06 542.861 C 69.622 541.742 68.309 541.303 67.53 540.38 C 66.021 541.645 64.173 543.25 62.956 544.711 L 62.858 544.613 L 62.615 544.808 C 62.469 544.808 62.323 544.857 62.275 544.711 C 63.296 542.91 64.903 540.916 66.945 539.942 C 66.263 539.115 65.34 538.871 64.221 538.969 C 62.567 540.088 60.619 540.428 58.966 541.548 C 57.896 542.181 57.896 544.127 56.289 543.884 C 55.828 543.769 53.843 544.903 53.118 545.189 L 53.128 545.197 C 52.898 545.4 52.66 545.477 52.415 545.479 C 49.353 547.195 51.084 552.438 52.446 554.879 L 52.787 554.879 C 53.469 553.955 51.474 553.711 52.544 552.884 C 52.836 552.884 53.079 553.517 53.371 553.128 C 53.177 552.836 53.128 552.544 52.788 552.301 C 52.496 551.96 51.961 551.231 52.69 550.89 C 53.226 550.939 53.322 551.522 53.614 551.814 L 53.712 551.717 C 53.81 551.133 54.685 550.5 53.857 549.965 C 53.565 549.625 53.42 548.846 53.955 548.7 C 54.684 551.181 57.263 548.651 58.625 550.305 C 58.577 552.836 56.825 549.965 55.852 550.889 C 56.095 551.23 56.387 551.425 56.776 551.473 C 59.209 552.64 60.669 555.754 60.523 558.382 C 60.717 558.235 61.058 557.992 61.302 558.235 C 61.01 559.111 59.939 559.695 59.209 560.231 C 58.626 560.425 57.702 560.863 57.215 560.376 L 57.701 559.89 C 56.435 559.306 55.463 557.506 54.879 556.046 C 54.441 556.241 53.809 556.144 53.517 556.386 C 54.587 557.943 55.803 559.5 56.436 561.301 C 55.512 564.318 57.896 566.458 60.038 568.307 C 63.297 569.135 67.044 570.204 70.546 569.135 C 71.568 568.599 71.422 567.334 72.298 566.799 C 72.736 567.286 72.007 567.675 72.055 568.162 C 70.886 570.838 67.919 570.351 65.389 570.4 C 66.507 571.47 67.431 572.541 68.21 573.903 C 69.378 573.125 71.227 573.222 71.713 571.567 C 71.957 571.617 72.248 571.47 72.394 571.665 C 71.372 574.389 68.21 573.952 66.361 575.655 C 57.992 578.866 58.576 588.597 57.457 595.993 C 59.549 595.847 61.009 596.82 62.371 598.329 C 63.101 597.599 63.88 597.063 64.95 597.161 C 66.167 597.258 66.653 598.426 66.945 599.496 C 67.139 600.518 65.389 601.93 67.286 602.27 C 69.281 600.08 70.594 596.674 73.708 595.847 C 73.951 595.847 73.951 596.139 73.951 596.333 C 71.665 597.257 70.255 599.349 68.891 601.344 C 71.227 602.658 74.486 602.56 77.066 603.193 C 79.644 603.777 78.671 600.566 80.568 599.69 C 81.103 600.42 80.178 601.102 79.985 601.831 C 80.52 602.414 79.207 602.414 79.644 602.999 C 80.325 602.804 81.25 602.901 81.639 602.27 C 82.855 599.058 83.634 595.701 85.628 592.83 C 81.931 589.813 81.298 584.51 82.222 579.985 L 82.222 579.984 z "
         style="fill:#ffcc99;"
         id="path2718" />
      <path
         d="M 54.317 543.897 L 51.617 543.882 L 52.731 544.821 C 52.916 544.624 53.57 544.496 54.316 543.897 L 54.317 543.897 z "
         id="path2719" />
    </g>
    <path
       d="M 71.128 543.542 L 70.204 544.223 C 69.863 543.785 70.544 543.493 70.544 543.056 C 70.836 543.007 71.031 543.348 71.128 543.542 z "
       style="fill:#ffcc99;"
       id="path2720" />
    <path
       d="M 69.28 545.05 C 69.378 545.536 68.745 545.488 68.696 545.779 L 68.55 545.633 C 68.647 545.39 68.988 545.195 69.28 545.05 L 69.28 545.05 z "
       style="fill:#ffcc99;"
       id="path2721" />
    <path
       d="M 49.769 546.363 C 48.991 546.655 47.53 547.044 46.704 548.115 C 46.898 547.288 47.239 546.558 47.774 545.877 C 48.504 545.828 49.233 545.828 49.769 546.363 L 49.769 546.363 z "
       style="fill:#e12600;"
       id="path2722" />
    <path
       d="M 69.621 547.726 C 69.962 548.018 69.962 548.65 69.621 548.893 C 69.133 549.331 68.55 549.72 67.965 549.379 C 67.187 548.454 66.992 546.8 67.285 545.973 C 68.063 546.362 68.988 546.995 69.621 547.725 L 69.621 547.726 z "
       style="fill:#ffffff;"
       id="path2723" />
    <path
       d="M 56.288 546.801 C 54.976 547.775 53.029 547.676 51.764 548.893 C 51.618 548.893 51.472 548.942 51.374 548.795 C 52.736 547.676 54.391 546.509 56.288 546.8 L 56.288 546.801 z "
       id="path2724" />
    <path
       d="M 49.866 547.385 C 49.915 547.823 49.089 547.92 48.845 548.455 C 47.53 550.061 46.899 552.396 47.53 554.392 C 46.558 552.933 46.558 550.889 46.607 549.137 C 47.385 548.116 48.553 547.434 49.866 547.386 L 49.866 547.385 z "
       style="fill:#e12600;"
       id="path2725" />
    <path
       d="M 84.558 547.628 C 85.288 549.526 86.406 551.569 85.969 553.71 L 85.725 553.71 C 85.774 551.473 84.314 549.721 84.314 547.628 L 84.558 547.628 z "
       id="path2726" />
    <path
       d="M 49.769 548.699 C 49.769 551.23 48.698 553.759 49.769 556.29 C 48.407 554.782 47.336 552.397 48.456 550.305 C 48.894 549.77 48.991 548.894 49.769 548.7 L 49.769 548.699 z "
       style="fill:#e12600;"
       id="path2727" />
    <path
       d="M 55.364 551.716 L 55.023 552.64 L 54.439 552.543 L 54.78 551.23 C 54.976 551.425 55.364 551.376 55.364 551.716 z "
       style="fill:#ffcc99;"
       id="path2728" />
    <path
       d="M 55.267 560.813 C 51.959 559.646 50.207 556.191 49.866 552.98 L 50.11 551.715 C 50.693 555.218 53.856 557.651 55.267 560.813 L 55.267 560.813 z "
       style="fill:#e12600;"
       id="path2729" />
    <path
       d="M 69.718 553.224 L 68.55 552.257 C 68.404 551.705 68.842 551.083 69.28 551.221 C 69.815 551.635 69.621 552.533 69.718 553.223 L 69.718 553.224 z "
       style="fill:#ffffff;"
       id="path2730" />
    <path
       d="M 58.624 555.565 C 58.089 556.497 57.603 555.44 57.116 555.13 C 56.58 554.384 56.434 553.266 56.532 552.397 C 57.602 552.956 58.527 554.136 58.624 555.565 L 58.624 555.565 z "
       style="fill:#ffffff;"
       id="path2731" />
    <path
       d="M 54.683 553.564 C 54.537 553.71 54.635 554.05 54.294 553.953 L 54.294 553.564 L 54.683 553.564 z "
       style="fill:#ffcc99;"
       id="path2732" />
    <path
       d="M 54.537 554.878 C 54.488 555.024 54.635 555.268 54.439 555.316 L 54.294 554.732 C 54.391 554.83 54.439 554.927 54.537 554.878 z "
       style="fill:#ffcc99;"
       id="path2733" />
    <path
       d="M 52.313 560.304 C 50.762 559.442 49.468 557.976 48.004 556.167 L 52.313 560.304 z "
       style="fill:#e12600;"
       id="path2734" />
    <path
       d="M 58.624 558.348 L 58.527 558.966 C 58.041 558.925 57.652 558.718 57.36 558.348 C 57.505 557.607 58.625 557.484 58.625 558.348 L 58.624 558.348 z "
       style="fill:#ffffff;"
       id="path2735" />
    <path
       d="M 62.468 557.555 C 63.052 558.576 62.03 561.009 64.365 560.231 C 64.559 560.376 64.415 560.62 64.463 560.814 C 63.88 560.717 62.663 561.106 62.274 560.474 C 62.857 559.403 61.544 558.382 62.468 557.555 L 62.468 557.555 z "
       id="path2736" />
    <path
       d="M 57.116 566.896 C 58.965 570.496 63.149 568.891 65.388 571.81 C 64.268 573.269 63.052 575.313 60.959 575.313 L 61.3 572.977 L 61.105 572.733 C 59.791 574.193 58.185 575.409 56.531 576.236 C 57.115 574.193 57.99 570.982 56.629 568.743 C 56.239 569.716 57.017 571.078 56.434 572.149 C 55.315 572.976 54.294 573.9 53.028 574.241 C 55.607 570.738 55.217 565.288 52.931 561.737 C 53.709 562.078 54.634 562.223 55.363 561.64 C 55.606 563.586 55.655 565.386 57.115 566.895 L 57.116 566.896 z "
       style="fill:#e12600;"
       id="path2737" />
    <path
       d="M 68.308 561.885 C 68.405 562.615 67.479 562.323 67.042 562.566 C 65.874 563.685 64.463 564.269 62.856 564.317 C 62.517 563.247 64.122 564.123 64.609 563.49 C 66.068 563.49 66.701 561.204 68.307 561.885 L 68.308 561.885 z "
       id="path2738" />
    <path
       d="M 67.285 564.561 C 67.528 565.388 66.36 564.95 65.972 565.388 L 65.29 565.388 C 65.192 564.561 66.458 564.512 67.285 564.561 L 67.285 564.561 z "
       id="path2739" />
    <path
       d="M 56.435 595.603 C 55.706 595.847 55.365 596.576 55.024 597.16 C 51.861 596.138 49.137 594.241 46.509 592.002 C 48.504 590.591 51.034 589.959 53.127 588.596 L 53.127 588.158 C 55.122 585.969 57.067 583.681 59.111 581.589 C 57.457 585.725 57.116 590.882 56.435 595.602 L 56.435 595.603 z "
       style="fill:#ffcc99;"
       id="path2740" />
    <path
       d="M 79.79 583.245 C 79.644 585.58 79.303 588.305 77.552 589.911 C 78.427 587.673 79.838 584.9 78.622 582.564 C 79.206 581.785 79.547 582.904 79.79 583.245 L 79.79 583.245 z "
       id="path2741" />
    <path
       d="M 44.854 590.591 C 44.368 592.343 46.655 593.024 47.529 594.241 C 49.671 595.846 52.056 597.013 54.439 598.084 C 53.661 599.349 55.364 600.274 54.537 601.441 C 52.202 607.134 51.569 613.799 46.022 618.276 L 45.925 618.276 C 45.341 615.697 45.097 613.264 45.195 610.588 C 43.297 609.81 46.071 608.739 44.952 607.669 C 42.129 606.063 40.912 602.56 40.426 599.348 C 40.573 597.84 39.016 596.039 40.28 594.678 L 43.2 592.488 C 44.027 593.656 44.757 595.456 46.363 595.991 L 46.849 595.505 C 45.487 594.288 44.709 592.634 43.93 591.077 L 44.271 590.494 C 44.368 590.688 44.661 590.542 44.854 590.591 L 44.854 590.591 z "
       style="fill:#9f0000;"
       id="path2742" />
    <path
       d="M 46.606 590.835 C 46.46 591.224 45.389 591.613 45.536 590.737 L 46.606 590.835 z "
       style="fill:#9f0000;"
       id="path2743" />
    <path
       d="M 61.787 599.106 C 62.127 600.225 61.641 601.247 61.301 602.171 C 60.766 603.339 59.792 602.755 58.868 602.755 C 58.284 602.414 57.748 602.074 58.186 601.344 C 58.624 600.517 59.403 601.49 59.695 600.517 C 60.084 600.371 60.133 600.761 60.279 601.004 C 60.424 601.442 59.305 601.636 60.036 602.026 C 60.667 602.123 60.814 601.491 61.203 601.102 C 61.398 600.47 60.863 600.177 60.619 599.69 C 58.771 600.469 57.311 597.793 55.365 599.252 C 54.392 598.425 56.192 598.035 55.608 597.257 C 56.435 595.846 58.089 597.062 59.355 597.013 C 60.231 597.597 61.009 598.327 61.788 599.106 L 61.787 599.106 z "
       style="fill:#ffa433;"
       id="path2744" />
    <path
       d="M 65.972 599.495 C 66.069 600.177 65.874 600.712 65.534 601.247 C 64.707 601.636 64.707 600.517 64.123 600.274 C 63.88 599.398 66.263 599.495 64.805 598.766 C 64.123 598.912 63.491 599.69 63.2 600.274 C 63.005 601.003 63.588 601.392 63.881 601.928 C 64.367 602.901 65.729 601.392 65.778 602.755 C 66.168 603.241 67.14 603.436 67.044 604.263 C 67.19 604.895 66.557 605.139 66.46 605.674 C 64.709 605.382 63.444 603.728 62.47 602.414 C 63.151 600.711 61.837 598.667 64.124 598.084 C 65.098 597.89 65.682 598.716 65.974 599.495 L 65.972 599.495 z "
       style="fill:#ffa433;"
       id="path2745" />
    <path
       d="M 83.292 599.252 C 83.584 600.225 83.292 601.295 82.709 602.025 L 82.32 602.025 C 82.564 601.197 83.148 600.176 83.293 599.252 L 83.292 599.252 z "
       style="fill:#ffcc99;"
       id="path2746" />
    <path
       d="M 58.041 600.274 C 57.7 601.149 56.679 601.878 57.214 602.999 C 58.333 603.582 59.598 604.215 60.96 603.777 C 61.301 603.582 61.447 603.339 61.544 602.999 C 62.712 604.069 63.344 606.015 65.047 606.259 C 64.755 607.232 63.928 607.962 63.443 608.838 C 60.523 614.629 55.609 619.591 53.37 625.624 C 49.429 632.825 41.305 638.08 36.925 645.038 C 35.806 646.304 34.25 646.692 32.595 646.643 C 32.497 646.06 32.06 646.497 31.766 646.546 C 30.162 646.303 28.994 644.649 27.339 644.794 C 27.193 644.453 27.68 644.356 27.68 644.065 C 26.658 643.53 26.074 645.475 25.003 645.622 C 23.933 645.72 22.96 646.157 22.181 646.985 C 21.355 644.26 24.906 643.919 25.685 641.876 L 25.491 641.632 L 21.743 644.552 C 21.354 644.601 21.013 644.552 20.819 644.212 C 20.381 642.995 21.987 643.725 21.987 642.703 C 23.641 642.313 24.566 641.001 25.685 639.784 C 25.441 639.54 24.761 639.638 24.517 640.124 C 23.593 641.243 22.376 641.583 21.257 642.313 C 20.089 641.34 21.939 641.145 22.328 640.561 C 23.496 639.832 25.685 639.394 25.588 637.642 C 24.419 638.907 22.766 639.442 21.404 640.367 C 20.916 638.274 23.496 638.616 24.517 637.788 L 26.998 636.135 C 28.701 638.032 31.668 639.784 34.102 638.714 C 34.394 639.005 34.784 639.443 35.27 639.395 C 36.243 638.811 34.249 637.253 36.097 637.206 C 39.357 630.394 42.081 623.339 47.53 617.452 C 48.942 615.846 49.915 613.997 51.764 612.684 C 51.764 610.104 53.467 607.915 54.098 605.434 C 54.536 603.439 55.315 601.541 56.191 599.838 L 58.041 600.276 L 58.041 600.274 z "
       style="fill:#ffcc99;"
       id="path2747" />
    <path
       d="M 81.395 603.437 C 82.173 602.999 83.292 602.951 83.633 602.026 C 84.169 602.415 84.022 603.34 83.731 603.777 C 81.444 605.236 78.038 605.09 75.46 604.75 C 74.098 604.068 72.2 604.604 70.885 603.777 C 70.545 603.728 70.302 603.875 70.059 604.167 C 72.054 605.334 74.827 605.189 77.211 605.675 C 77.017 606.356 76.676 606.988 76.384 607.67 C 76.53 607.865 76.822 608.01 76.967 607.767 L 78.038 605.772 L 79.789 605.675 C 76.626 611.951 71.42 617.79 72.977 625.623 C 67.722 622.656 59.645 623.191 54.293 625.623 C 56.872 619.007 61.59 613.898 65.045 607.67 C 65.775 606.94 65.921 606.599 66.943 606.599 C 67.917 605.286 67.868 603.437 68.306 602.026 C 72.49 603.388 76.966 604.896 81.393 603.437 L 81.395 603.437 z "
       style="fill:#9f0000;"
       id="path2748" />
    <path
       d="M 81.639 617.206 C 80.082 620.369 76.87 623.289 74.146 625.868 C 74.146 624.651 73.708 623.581 73.708 622.364 C 73.66 616.769 76.871 612.488 79.207 607.865 C 79.838 607.135 80.277 605.334 81.737 605.529 L 82.466 604.946 C 81.834 608.887 81.737 613.071 81.639 617.206 z "
       style="fill:#ffcc99;"
       id="path2749" />
    <path
       d="M 52.444 605.432 C 52.347 606.356 51.277 606.502 50.693 607.086 C 49.72 607.767 48.553 608.01 47.287 608.107 C 47.385 607.086 48.796 607.669 49.428 607.183 C 50.449 606.697 51.423 605.967 52.444 605.432 z "
       id="path2750" />
    <path
       d="M 23.008 612.535 C 24.323 615.357 24.906 618.763 24.76 621.877 L 22.18 622.705 C 21.11 620.369 19.894 617.401 20.576 614.676 C 21.256 613.898 21.695 612.535 23.008 612.535 z "
       style="fill:#636363;"
       id="path2751" />
    <path
       d="M 19.992 614.287 C 18.97 617.158 19.7 620.417 21.16 622.85 L 20.916 623.191 C 19.992 622.412 19.409 620.855 18.922 619.541 C 18.727 618.179 18.338 616.623 18.824 615.26 C 19.068 614.87 19.457 614.238 19.992 614.287 L 19.992 614.287 z "
       style="fill:#a3a3a3;"
       id="path2752" />
    <path
       d="M 55.267 615.844 C 55.365 616.623 55.121 617.79 54.538 618.277 C 53.955 617.45 54.587 616.574 54.879 615.844 L 55.268 615.844 L 55.267 615.844 z "
       id="path2753" />
    <path
       d="M 24.323 618.374 C 24.469 619.494 23.641 620.078 22.911 620.613 C 21.89 620.564 22.425 619.3 21.987 618.764 C 22.181 617.742 21.499 616.818 22.084 615.943 C 23.642 615.797 23.884 617.354 24.323 618.375 L 24.323 618.374 z "
       id="path2754" />
    <path
       d="M 79.886 616.185 C 79.498 617.158 79.4 618.666 78.135 618.861 L 79.547 616.039 L 79.886 616.185 z "
       id="path2755" />
    <path
       d="M 23.592 619.202 C 23.397 619.299 23.3 619.542 23.008 619.445 L 22.571 616.866 C 23.008 617.498 23.592 618.277 23.592 619.202 L 23.592 619.202 z "
       style="fill:#b10000;"
       id="path2756" />
    <path
       d="M 72.541 617.206 C 71.859 619.007 70.983 620.905 71.032 622.851 C 70.497 622.851 70.545 622.218 70.545 621.781 C 70.448 619.981 71.519 618.667 72.2 617.206 L 72.541 617.206 L 72.541 617.206 z "
       id="path2757" />
    <path
       d="M 25.927 623.288 C 25.83 623.969 24.954 624.213 24.418 624.456 L 21.256 624.699 C 20.964 624.31 21.548 623.726 21.84 623.629 C 23.397 624.018 24.759 621.488 25.926 623.288 L 25.927 623.288 z "
       style="fill:#262626;"
       id="path2758" />
    <path
       d="M 70.302 625.623 C 70.35 626.159 70.059 627.959 71.032 628.203 C 71.615 627.473 70.837 626.598 71.032 625.867 C 73.757 626.061 71.47 629.419 72.978 630.635 C 73.513 631.268 74.34 631.755 74.534 632.532 C 70.593 632.24 66.799 630.587 62.711 631.706 C 61.057 631.657 59.694 634.09 58.186 632.631 C 56.921 631.609 56.191 633.408 55.851 634.139 C 55.121 635.696 52.981 636.425 51.764 637.885 C 50.742 638.955 49.575 639.539 48.358 640.123 C 47.822 637.934 46.8 635.842 47.872 633.555 C 50.45 631.268 51.715 627.814 54.78 626.208 C 59.111 624.066 64.511 624.407 69.133 625.04 L 70.301 625.623 L 70.302 625.623 z "
       style="fill:#ffcc99;"
       id="path2759" />
    <path
       d="M 26.512 625.283 C 26.463 626.256 25.344 626.693 24.662 627.133 C 23.543 627.133 22.036 627.814 21.256 626.938 C 21.012 624.018 24.274 626.209 25.49 624.602 C 25.927 624.554 26.365 624.894 26.511 625.284 L 26.512 625.283 z "
       style="fill:#262626;"
       id="path2760" />
    <path
       d="M 27.095 628.105 C 27.193 628.883 26.171 628.445 25.83 628.883 C 24.76 629.418 23.592 630.051 22.328 629.71 C 22.036 629.32 21.841 628.834 22.181 628.444 C 23.496 627.909 25.149 628.298 26.074 626.936 C 26.609 627.131 27.193 627.374 27.095 628.104 L 27.095 628.105 z "
       style="fill:#262626;"
       id="path2761" />
    <path
       d="M 27.242 631.024 C 25.782 631.706 24.031 632.582 22.572 632.045 C 22.23 631.607 22.62 631.169 22.668 630.78 C 24.08 630.731 25.54 630.001 26.755 629.126 C 26.804 629.905 27.485 630.245 27.242 631.023 L 27.242 631.024 z "
       style="fill:#262626;"
       id="path2762" />
    <path
       d="M 27.582 632.775 C 27.631 633.797 26.317 634.041 25.588 634.381 C 24.712 634.138 23.836 634.965 23.252 634.04 L 23.349 633.116 C 24.517 632.581 26.074 632.921 26.998 631.802 C 27.484 631.9 27.388 632.435 27.581 632.775 L 27.582 632.775 z "
       style="fill:#262626;"
       id="path2763" />
    <path
       d="M 74.632 633.555 C 75.459 633.409 76.188 633.069 76.87 632.533 C 77.453 633.507 78.621 634.431 78.816 635.696 C 72.734 636.815 65.095 632.436 59.938 637.302 C 59.5 637.836 58.965 638.178 58.381 638.371 C 58.235 637.155 57.749 636.085 57.943 634.723 C 62.419 630.684 69.377 632.582 74.632 633.555 L 74.632 633.555 z "
       style="fill:#996000;"
       id="path2764" />
    <path
       d="M 58.186 633.7 L 58.186 633.798 C 57.748 633.798 57.165 633.798 57.018 634.382 C 56.532 638.518 59.159 641.34 59.207 645.233 C 60.618 652.629 53.028 658.711 57.213 666.058 C 57.699 667.955 57.991 670.437 56.531 671.749 C 56.337 670.242 57.942 668.685 56.872 667.079 C 54.293 661.922 54.487 654.233 58.04 649.562 C 59.402 645.621 58.185 641.388 56.629 637.787 C 56.629 636.085 56.093 634.723 57.115 633.359 C 57.455 633.457 57.796 633.554 58.185 633.7 L 58.186 633.7 z "
       style="fill:#996000;"
       id="path2765" />
    <path
       d="M 28.166 635.209 L 28.166 635.793 C 27.874 635.307 27.388 635.307 26.851 635.307 C 25.977 635.745 25.148 636.668 24.176 636.619 C 24.03 636.23 23.544 635.987 23.738 635.452 C 25.101 635.258 26.415 634.917 27.68 634.382 L 28.166 635.209 L 28.166 635.209 z "
       style="fill:#262626;"
       id="path2766" />
    <path
       d="M 32.594 638.031 L 31.912 638.031 C 32.009 637.252 32.009 636.085 32.836 635.549 C 33.08 636.279 32.301 637.204 32.594 638.031 L 32.594 638.031 z "
       style="fill:#a3a3a3;"
       id="path2767" />
    <path
       d="M 35.026 636.717 C 34.539 637.155 34.539 638.371 33.761 638.031 C 33.129 637.302 33.419 636.522 33.761 635.793 C 34.344 635.695 34.782 636.279 35.026 636.717 L 35.026 636.717 z "
       style="fill:#636363;"
       id="path2768" />
    <path
       d="M 79.206 636.474 C 80.715 639.491 82.855 642.215 83.731 645.475 C 83.877 648.444 85.969 650.876 85.044 653.99 C 84.412 656.765 82.368 659.441 79.886 660.9 C 80.665 659.635 81.638 658.224 81.736 656.814 L 81.541 656.814 C 80.324 659.1 78.962 661.144 76.725 662.895 C 80.277 656.521 80.715 647.52 76.287 641.389 C 73.854 637.156 68.989 636.572 64.464 636.864 C 64.074 636.572 63.443 636.864 63.053 636.62 C 65.972 635.308 68.843 636.135 71.957 636.378 C 74.146 636.962 77.017 637.303 79.207 636.475 L 79.206 636.474 z "
       style="fill:#9f0000;"
       id="path2769" />
    <path
       d="M 55.948 639.539 C 52.785 640.609 49.818 643.675 48.26 646.643 C 47.677 646.254 47.092 645.768 46.849 645.038 C 46.751 643.189 45.244 640.951 46.947 639.394 C 47.287 639.637 47.239 640.172 47.433 640.561 C 47.092 640.756 46.558 640.659 46.509 641.145 C 46.412 641.389 46.607 641.487 46.704 641.631 C 50.255 641 52.494 637.545 55.462 636.035 L 55.948 639.539 L 55.948 639.539 z "
       style="fill:#996000;"
       id="path2770" />
    <g
       id="g2771">
      <path
         d="M 63.052 674.571 C 62.127 674.961 62.954 676.323 62.37 677.005 C 62.565 677.394 62.808 677.93 63.441 677.734 C 63.671 676.767 63.533 675.378 64.054 674.588 C 63.742 674.539 63.413 674.52 63.052 674.571 z "
         style="fill:#8a8a8a;"
         id="path2772" />
      <path
         d="M 78.622 651.314 C 78.379 646.545 76.335 642.312 72.638 639.198 C 69.719 636.717 65.096 638.713 62.128 636.961 C 62.323 637.934 62.372 639.394 61.788 640.366 C 60.669 640.074 60.718 638.761 60.038 638.031 C 59.697 638.469 59.259 638.615 58.87 638.955 C 61.741 645.719 59.209 652.531 57.02 658.808 C 55.707 662.943 59.356 665.766 58.383 669.902 L 60.135 668.004 C 62.129 669.707 58.773 671.459 60.524 673.259 C 60.426 673.94 61.449 674.572 61.692 674.33 C 61.449 674.135 61.01 674.282 60.962 673.843 C 61.06 673.162 61.935 673.502 62.276 673.405 L 62.859 669.173 C 62.52 668.54 61.887 667.714 62.471 666.984 C 62.763 666.351 63.445 666.157 64.027 665.914 C 64.904 666.157 65.828 666.741 65.536 667.908 C 64.076 669.467 65.488 671.801 64.709 673.65 C 65.487 673.844 66.363 674.088 66.801 674.818 L 66.557 675.012 C 65.734 675.111 65.389 674.868 64.607 674.709 L 64.481 674.961 C 64.818 674.92 65.195 675.108 65.536 675.012 C 67.531 675.986 69.769 676.228 71.715 677.25 C 72.299 672.627 73.078 668.103 75.121 664.064 C 77.651 660.365 78.819 656.133 78.624 651.316 L 78.622 651.314 z "
         style="fill:#ffcc99;"
         id="path2773" />
    </g>
    <path
       d="M 61.447 638.226 C 61.349 637.983 60.91 637.691 61.203 637.448 C 61.349 637.691 61.495 637.886 61.447 638.226 z "
       style="fill:#ffffff;"
       id="path2774" />
    <path
       d="M 57.214 642.312 C 57.505 644.94 58.284 647.761 57.018 650.146 C 53.029 655.645 54.002 663.429 56.435 669.316 C 54.44 670.289 53.905 672.479 53.37 674.329 C 52.933 674.62 52.397 674.767 51.862 674.815 C 52.105 674.329 51.327 673.794 52.105 673.647 C 52.397 673.89 52.787 673.647 53.03 673.403 C 53.176 673.113 52.787 673.014 52.689 672.82 C 50.305 673.841 51.473 670.631 50.354 669.755 C 50.159 669.026 51.132 668.198 50.597 667.419 C 50.013 666.981 49.624 666.106 48.699 666.641 C 47.775 667.176 47.629 668.15 47.873 669.075 C 47.969 669.366 48.261 669.561 48.457 669.756 C 48.31 671.021 48.651 672.285 48.699 673.745 C 48.164 673.843 47.143 672.967 47.094 674.086 C 47.532 674.865 48.846 674.33 48.944 675.156 L 47.094 675.498 C 46.511 668.734 46.949 661.972 48.458 655.646 C 49.285 652.774 49.82 649.271 49.43 646.303 C 50.306 643.626 53.322 641.534 55.853 640.464 C 56.826 640.464 56.777 641.681 57.216 642.313 L 57.214 642.312 z "
       style="fill:#ffcc99;"
       id="path2775" />
    <path
       d="M 30.501 643.724 C 29.869 644.649 29.236 643.481 28.604 643.383 L 28.847 642.799 C 29.48 642.945 29.967 643.432 30.502 643.724 L 30.501 643.724 z "
       id="path2776" />
    <path
       d="M 27.095 648.055 C 25.684 649.514 23.884 650.779 22.327 651.898 C 22.278 651.023 21.889 650.196 22.18 649.32 C 24.126 648.93 25.148 646.936 26.657 645.719 C 26.949 646.303 27.484 647.227 27.095 648.055 z "
       style="fill:#636363;"
       id="path2777" />
    <path
       d="M 31.668 647.714 C 32.155 649.902 31.863 652.482 32.933 654.477 C 32.933 656.229 31.473 657.348 30.744 658.808 C 29.917 657.883 28.896 657.105 27.923 656.472 C 27.825 653.746 27.679 651.315 27.581 648.736 C 28.214 648.006 28.311 646.741 27.923 645.817 L 31.668 647.714 L 31.668 647.714 z "
       style="fill:#636363;"
       id="path2778" />
    <path
       d="M 24.418 646.643 C 24.03 647.909 22.667 647.86 21.84 648.639 C 22.229 647.811 23.251 646.936 24.175 646.643 L 24.418 646.643 z "
       style="fill:#a3a3a3;"
       id="path2779" />
    <path
       d="M 21.256 649.319 C 21.403 650.34 20.867 651.946 21.743 652.822 C 21.499 653.892 21.256 655.061 20.673 655.887 L 20.429 655.645 C 20.186 655.936 20.088 656.471 19.651 656.471 C 17.218 655.742 17.996 652.919 17.169 650.973 C 17.413 649.757 16.44 648.054 18.093 647.713 C 19.359 647.761 20.282 648.832 21.256 649.318 L 21.256 649.319 z "
       style="fill:#636363;"
       id="path2780" />
    <path
       d="M 16.342 648.541 C 15.807 650.925 16.733 653.602 17.316 655.985 C 17.608 656.374 17.803 656.813 18.241 657.153 C 17.803 657.299 17.17 656.958 16.928 656.569 C 16.684 654.331 16.101 652.19 15.662 650.048 C 15.906 649.513 15.614 648.589 16.343 648.54 L 16.342 648.541 z "
       style="fill:#a3a3a3;"
       id="path2781" />
    <path
       d="M 19.846 649.465 C 20.089 650.535 20.381 652.482 19.846 653.406 C 19.602 653.698 19.213 653.649 18.824 653.649 C 18.386 652.238 18.143 650.924 18.58 649.464 C 18.289 649.221 18.386 648.978 18.678 648.735 C 19.213 648.638 19.505 649.416 19.846 649.464 L 19.846 649.465 z "
       id="path2782" />
    <path
       d="M 27.095 657.153 C 28.215 658.029 29.431 659.002 30.258 660.072 C 28.993 660.218 28.019 656.813 27.339 659.39 L 26.851 659.244 C 26.074 656.471 25.83 653.453 25.491 650.486 L 26.658 649.464 L 27.096 657.152 L 27.095 657.153 z "
       style="fill:#a3a3a3;"
       id="path2783" />
    <path
       d="M 19.505 652.725 C 19.067 652.044 18.824 650.731 19.261 649.807 C 19.7 650.633 19.456 651.752 19.505 652.725 z "
       style="fill:#b10000;"
       id="path2784" />
    <path
       d="M 69.718 654.963 C 69.182 656.521 69.378 658.37 68.696 659.828 L 68.453 659.489 C 68.55 657.055 69.864 654.136 68.209 652.044 C 68.453 651.995 68.695 651.606 68.89 651.898 C 69.523 652.774 69.62 653.845 69.717 654.963 L 69.718 654.963 z "
       id="path2785" />
    <path
       d="M 31.329 653.406 C 31.329 654.039 31.377 654.671 30.745 655.061 L 29.09 655.061 C 28.846 654.281 29.334 653.358 30.161 652.968 C 30.599 652.919 31.036 653.016 31.329 653.406 z "
       id="path2786" />
    <path
       d="M 30.745 654.233 C 30.355 654.331 29.918 654.574 29.577 654.379 C 29.334 653.551 30.355 653.988 30.501 653.551 C 30.551 653.795 30.843 653.941 30.745 654.233 z "
       style="fill:#b10000;"
       id="path2787" />
    <path
       d="M 35.756 685.179 C 36.583 689.51 37.362 693.839 38.189 698.121 C 39.016 705.612 40.184 713.252 41.691 720.552 C 43.589 729.943 44.854 739.528 46.606 748.918 L 47.433 755.243 C 48.066 756.313 46.85 757.677 46.704 758.991 L 45.925 759.232 C 44.465 760.255 43.297 761.566 42.177 762.834 C 40.524 760.352 41.01 757.433 40.426 754.563 C 40.525 749.647 39.356 744.49 39.113 739.577 C 37.751 734.32 37.606 728.532 36.583 723.131 C 35.707 719.238 34.832 715.346 35.026 711.453 C 34.296 708.775 34.053 705.275 34.004 702.599 C 33.761 697.343 32.155 692.087 31.765 687.028 C 31.522 686.445 32.349 685.763 31.425 685.423 C 30.452 678.758 29.625 671.653 28.992 664.891 L 29.186 664.404 L 28.504 660.316 C 29.137 661.145 30.354 661.582 31.181 660.901 C 32.008 660.22 31.814 659.149 32.349 658.323 C 33.176 667.275 35.22 676.276 35.755 685.18 L 35.756 685.179 z "
       style="fill:#d6d6d6;"
       id="path2788" />
    <path
       d="M 79.061 665.473 L 79.79 665.572 C 79.644 670.048 80.373 674.282 80.958 678.319 C 78.476 678.27 76.237 678.952 73.806 679.682 C 73.854 679.291 73.854 678.173 72.979 678.076 L 72.638 677.735 C 73.513 673.258 73.513 668.491 75.801 664.646 C 77.99 663.527 80.033 661.775 81.98 660.315 C 81.25 661.874 79.061 663.333 79.061 665.473 L 79.061 665.473 z "
       style="fill:#ffcc99;"
       id="path2789" />
    <path
       d="M 32.106 665.327 C 34.248 687.952 38.967 709.894 41.594 732.716 C 43.443 740.842 44.465 749.064 45.681 757.337 L 45.195 757.677 C 43.979 746.29 41.156 735.441 39.94 724.201 C 37.362 703.862 32.885 685.032 31.182 664.5 C 30.696 664.257 30.258 663.673 29.917 663.332 C 30.5 662.65 30.938 664.013 31.425 664.062 L 32.008 662.553 C 32.593 663.38 31.911 664.45 32.105 665.326 L 32.106 665.327 z "
       id="path2790" />
    <path
       d="M 64.609 667.419 C 64.415 667.712 64.559 668.344 64.024 668.247 C 63.1 668.441 63.343 667.565 62.954 667.079 C 63.294 666.105 64.268 667.03 64.609 667.419 z "
       style="fill:#a70000;"
       id="path2791" />
    <path
       d="M 49.866 667.905 C 50.012 668.343 49.72 668.634 49.526 668.976 C 48.991 668.976 48.698 668.586 48.601 668.149 C 48.698 667.663 49.233 667.128 49.526 667.322 L 49.866 667.905 z "
       style="fill:#a70000;"
       id="path2792" />
    <path
       d="M 59.451 670.923 C 59.208 670.923 59.063 670.631 58.868 670.485 L 59.791 669.172 C 60.036 669.756 59.937 670.485 59.45 670.924 L 59.451 670.923 z "
       style="fill:#996000;"
       id="path2793" />
    <path
       d="M 64.122 670.825 C 62.955 671.019 63.879 670.144 64.122 669.755 L 64.122 670.825 z "
       style="fill:#993300;"
       id="path2794" />
    <path
       d="M 49.858 670.763 C 49.924 671.098 49.458 670.898 49.256 670.964 L 49.056 670.162 C 49.458 670.026 49.792 670.496 49.858 670.763 z "
       style="fill:#993300;"
       id="path2795" />
    <path
       d="M 55.607 670.825 C 55.705 672.138 54.439 673.113 54.537 674.571 C 54.927 675.593 55.559 674.523 56.191 674.669 C 57.359 674.718 58.672 675.155 59.548 674.329 C 59.45 673.21 58.526 672.235 57.699 671.652 L 57.942 670.923 C 60.422 671.701 58.623 675.691 61.883 675.253 C 61.834 675.886 61.542 676.421 61.689 677.15 C 61.007 677.686 60.035 675.933 59.937 677.345 C 61.834 678.902 64.072 678.707 66.554 678.902 C 66.7 678.708 66.944 678.756 67.041 678.512 C 66.457 677.783 65.24 678.074 64.364 677.831 L 64.462 675.593 C 66.846 676.858 69.863 676.858 71.809 678.756 C 74.242 679.242 71.663 681.285 72.295 682.842 C 72.343 684.059 72.198 684.886 72.392 686.005 C 70.203 684.789 67.527 684.643 65.288 683.426 L 63.877 683.572 L 64.12 680.75 C 65.239 680.361 66.651 681.092 67.283 680.068 L 66.699 679.68 C 64.169 680.068 61.784 679.631 59.693 678.658 C 59.449 678.756 59.596 679.048 59.547 679.242 C 60.082 679.534 60.422 680.118 61.104 680.068 L 61.201 682.988 C 58.72 682.89 56.044 682.161 53.27 682.258 C 53.173 681.626 52.931 680.992 53.027 680.263 C 53.709 679.923 54.584 679.583 54.876 678.902 C 53.125 679.486 50.399 679.194 48.696 679.584 C 48.551 680.362 49.475 680.069 49.864 680.264 C 50.108 680.897 50.351 681.529 50.594 682.162 C 49.281 682.795 47.383 682.308 46.604 683.67 L 47.285 683.769 L 47.285 684.353 C 45.874 683.136 45.923 681.093 45.437 679.34 C 45.777 678.659 44.756 677.93 45.437 677.248 C 46.507 676.519 47.724 675.934 49.037 676.177 C 49.183 676.761 49.282 677.346 49.427 677.93 C 49.232 677.978 48.941 677.832 48.844 678.076 C 48.697 678.805 49.574 678.709 50.011 678.903 C 51.519 678.952 53.368 678.61 54.293 677.346 C 53.709 677.2 53.076 677.637 52.443 677.735 C 52.249 677.054 52.055 676.422 51.957 675.74 C 52.686 674.913 54.975 675.984 54.097 674.33 C 54.195 673.795 54.293 672.967 54.535 672.335 C 54.778 671.799 55.021 671.021 55.605 670.826 L 55.607 670.825 z "
       style="fill:#996000;"
       id="path2796" />
    <path
       d="M 64.122 671.506 L 64.122 672.235 C 63.734 672.43 63.587 671.945 63.295 671.749 L 63.442 671.41 C 63.587 671.555 63.88 671.506 64.122 671.506 z "
       style="fill:#993300;"
       id="path2797" />
    <path
       d="M 50.012 671.749 L 49.428 671.749 C 49.38 671.41 49.769 671.555 50.012 671.506 L 50.012 671.749 z "
       style="fill:#993300;"
       id="path2798" />
    <path
       d="M 50.308 673.563 L 49.725 673.563 C 49.677 673.223 50.065 673.368 50.308 673.32 L 50.308 673.563 z "
       style="fill:#993300;"
       id="path2799" />
    <path
       d="M 50.353 672.674 L 49.526 672.578 C 49.575 672.625 50.401 671.945 50.353 672.674 z "
       style="fill:#993300;"
       id="path2800" />
    <path
       d="M 58.381 673.744 C 57.214 674.182 56.288 673.842 55.121 674.231 C 55.218 673.696 55.364 673.064 55.851 672.82 C 56.727 673.355 58.284 672.041 58.381 673.744 z "
       style="fill:#ffcc99;"
       id="path2801" />
    <path
       d="M 63.879 673.161 C 63.879 673.355 63.927 673.647 63.635 673.647 C 63.441 673.647 63.198 673.598 63.052 673.403 L 63.198 672.917 C 63.441 673.015 63.586 673.21 63.879 673.161 z "
       style="fill:#993300;"
       id="path2802" />
    <path
       d="M 51.375 677.93 C 49.429 678.368 50.401 675.594 49.624 674.572 C 50.062 674.524 50.305 673.988 50.792 674.086 L 51.375 677.931 L 51.375 677.93 z "
       style="fill:#8a8a8a;"
       id="path2803" />
    <path
       d="M 82.904 680.069 C 83.001 681.189 83.243 682.258 83.148 683.426 C 81.493 683.135 79.499 683.426 77.795 683.669 C 76.384 684.352 74.73 684.398 73.368 685.178 C 72.978 683.718 72.978 682.357 73.368 680.75 C 76.093 679.534 79.255 678.707 82.466 679.242 L 82.904 680.068 L 82.904 680.069 z "
       style="fill:#996000;"
       id="path2804" />
    <path
       d="M 52.444 680.168 C 52.688 682.113 52.834 684.156 52.542 685.86 C 52.299 684.838 51.617 683.768 51.86 682.6 C 50.985 682.064 51.179 680.896 50.79 680.069 L 52.443 680.168 L 52.444 680.168 z "
       style="fill:#8a8a8a;"
       id="path2805" />
    <path
       d="M 63.442 680.507 C 63.782 682.552 62.76 684.255 62.955 686.347 L 62.274 686.931 C 61.884 684.595 61.982 682.698 62.127 680.264 C 62.566 680.363 62.906 680.606 63.442 680.507 z "
       style="fill:#8a8a8a;"
       id="path2806" />
    <path
       d="M 51.764 686.444 C 52.202 686.784 51.861 687.757 52.688 687.611 C 53.905 687.076 52.688 685.908 53.71 685.276 L 53.612 683.329 C 56.288 682.891 58.672 683.525 61.202 684.156 C 60.814 685.568 61.982 686.444 61.543 687.758 C 61.835 688.584 62.321 687.66 62.711 687.612 C 63.685 686.688 64.073 685.569 63.879 684.157 C 66.312 684.985 69.086 685.666 71.614 686.688 C 72.101 689.948 70.253 692.818 70.301 696.176 L 67.868 704.205 C 67.625 709.069 66.749 713.79 67.722 718.558 C 68.793 723.666 69.181 729.454 68.307 734.466 C 67.041 734.272 65.338 734.126 65.873 732.231 C 65.191 731.792 65.727 731.306 65.387 730.722 L 63.781 728.872 C 63.343 726.875 64.511 725.66 64.121 723.957 C 64.511 723.181 64.901 722.401 64.219 721.622 C 64.754 720.747 64.558 719.677 65.775 719.287 C 66.457 718.703 65.97 717.974 66.116 717.29 C 65.045 715.93 63.585 715.979 62.125 716.369 C 61.299 717.244 60.617 718.509 61.104 719.628 C 61.347 721.087 59.547 722.012 60.52 723.471 C 59.157 724.785 61.152 726.149 60.131 727.559 C 60.861 728.774 59.157 728.384 58.769 728.969 C 57.942 729.504 58.525 730.913 57.358 730.963 C 57.26 732.667 55.85 731.157 55.022 731.401 C 54.584 731.305 54.244 731.061 53.952 730.721 C 54.535 725.854 55.022 719.676 54.681 714.86 L 55.46 714.031 C 53.222 713.641 53.562 711.162 53.026 709.603 C 52.442 707.903 53.269 705.565 52.442 703.96 C 51.859 699.629 49.961 695.104 49.183 690.677 C 48.989 688.487 48.648 685.713 48.113 683.573 C 48.988 683.427 50.01 682.795 50.789 683.184 L 51.762 686.444 L 51.764 686.444 z "
       style="fill:#ffcc99;"
       id="path2807" />
    <path
       d="M 82.222 684.011 C 83.097 691.845 81.736 698.852 83.876 706.197 C 83.682 711.21 86.65 714.91 87.963 719.288 C 91.806 727.559 89.228 737.728 87.477 746 C 85.092 746.34 82.562 747.021 80.372 745.901 C 79.351 740.211 79.108 734.615 77.453 729.213 C 76.48 724.102 77.113 718.168 73.95 713.692 C 74.242 712.232 73.659 710.869 72.296 710.383 C 71.323 708.776 71.469 706.685 70.301 705.127 C 70.496 703.571 68.404 702.647 69.473 700.942 C 70.253 698.121 71.858 695.494 71.614 692.428 C 72.442 690.823 71.76 688.534 73.464 687.271 C 73.415 686.881 73.317 686.444 73.367 686.005 C 74.534 684.886 76.285 685.031 77.648 684.352 C 79.206 684.254 80.714 684.156 82.222 684.01 L 82.222 684.011 z "
       style="fill:#ffcc99;"
       id="path2808" />
    <path
       d="M 81.736 707.365 C 81.541 707.853 81.346 708.583 81.736 709.019 C 82.076 709.359 82.563 709.702 82.709 710.042 C 82.369 710.478 81.736 710.236 81.396 710.042 C 80.618 709.507 80.716 708.239 81.055 707.463 C 81.104 707.269 81.688 706.879 81.737 707.364 L 81.736 707.365 z "
       id="path2809" />
    <path
       d="M 58.041 707.854 C 57.457 708.63 58.089 709.458 58.381 710.189 C 58.916 710.43 59.208 710.965 59.451 711.357 C 58.527 711.794 57.749 710.628 57.457 709.945 C 57.165 709.314 56.97 707.416 58.041 707.854 L 58.041 707.854 z "
       id="path2810" />
    <path
       d="M 64.707 709.702 C 65.29 710.578 64.415 712.475 66.118 712.522 C 66.118 712.863 66.799 712.961 66.555 713.447 C 65.582 713.691 64.95 712.816 64.366 712.377 C 64.318 711.403 64.123 710.383 64.707 709.702 z "
       id="path2811" />
    <path
       d="M 65.29 717.778 L 65.192 718.703 C 64.171 718.703 62.856 718.849 62.03 718.119 C 62.613 718.119 62.662 717.39 62.613 717.049 L 62.613 716.95 C 63.441 717.29 63.829 716.369 64.706 717.049 L 65.289 717.778 L 65.29 717.778 z "
       style="fill:#993300;"
       id="path2812" />
    <path
       d="M 63.879 719.869 C 63.781 720.212 63.635 720.503 63.635 720.892 C 62.906 721.086 61.153 721.282 61.689 719.869 C 61.689 719.677 61.494 719.628 61.446 719.532 C 62.175 719.432 63.148 719.578 63.879 719.869 z "
       style="fill:#993300;"
       id="path2813" />
    <path
       d="M 63.636 723.032 L 63.539 723.47 C 62.712 723.52 62.031 723.276 61.447 722.79 C 61.398 722.449 61.009 722.061 61.301 721.72 C 62.031 722.302 63.88 721.377 63.636 723.032 z "
       style="fill:#993300;"
       id="path2814" />
    <path
       d="M 63.295 724.979 C 63.246 725.418 63.101 726.535 62.371 725.954 C 61.69 725.854 61.544 725.175 61.106 724.884 L 61.203 723.957 C 61.787 724.541 63.199 724.006 63.295 724.979 z "
       style="fill:#993300;"
       id="path2815" />
    <path
       d="M 62.856 728.044 L 62.711 728.969 C 61.738 729.068 61.69 727.85 61.106 727.46 L 61.301 726.535 C 61.836 727.219 63.004 726.829 62.857 728.044 L 62.856 728.044 z "
       style="fill:#993300;"
       id="path2816" />
    <path
       d="M 63.636 730.138 C 63.977 730.771 64.902 731.109 64.61 731.987 C 62.518 732.522 60.717 731.644 58.965 730.964 C 58.916 730.139 58.916 729.31 59.938 729.31 C 61.447 728.873 62.031 730.723 63.636 730.139 L 63.636 730.138 z "
       style="fill:#b5b5b5;"
       id="path2817" />
    <path
       d="M 56.435 732.472 C 56.435 733.737 55.9 735.051 55.852 736.463 C 54.247 735.879 53.079 734.807 52.349 733.3 C 52.397 733.007 52.64 732.667 52.933 732.96 C 53.613 733.201 54.392 734.419 55.122 733.542 C 54.489 732.425 52.64 732.521 52.543 731.062 C 53.809 731.644 54.878 732.96 56.435 732.472 L 56.435 732.472 z "
       style="fill:#996000;"
       id="path2818" />
    <path
       d="M 62.955 733.056 C 62.031 733.885 60.96 733.495 60.037 732.96 C 59.307 732.861 59.014 731.451 58.285 732.472 C 59.696 734.031 61.837 734.807 62.956 736.56 C 61.448 735.49 60.085 734.225 58.382 733.3 L 57.944 733.737 L 58.869 734.807 C 58.236 735.197 57.311 734.859 56.874 735.635 C 57.701 735.929 58.917 735.635 59.792 735.394 C 59.306 735.685 58.284 735.685 58.042 736.316 C 58.82 736.754 59.745 736.074 60.62 735.975 C 61.545 736.266 62.032 738.263 63.2 737.24 L 63.2 736.804 C 63.443 737.048 63.831 736.754 63.881 736.463 C 63.735 735.929 63.589 735.394 63.054 735.051 C 63.395 734.37 64.417 734.516 64.611 733.737 C 64.026 733.347 63.589 733.981 63.054 733.981 C 63.297 733.543 64.026 733.591 63.881 732.96 C 64.367 733.106 64.756 733.056 65.048 733.056 C 64.999 734.76 64.465 736.609 63.444 738.069 C 61.594 739.722 59.6 737.484 57.605 737.385 C 56.34 736.754 57.021 735.539 57.021 734.71 L 57.703 731.401 C 59.406 732.082 60.962 733.155 62.957 733.055 L 62.955 733.056 z "
       style="fill:#c29f00;"
       id="path2819" />
    <path
       d="M 69.377 735.73 C 69.523 736.364 68.647 736.364 68.549 736.899 L 68.452 738.652 C 66.992 738.992 65.775 738.117 64.364 738.068 C 64.656 736.998 65.63 736.218 65.63 735.05 C 66.798 735.44 68.403 735.149 69.377 735.73 L 69.377 735.73 z "
       style="fill:#996000;"
       id="path2820" />
    <path
       d="M 56.288 737.629 C 55.851 741.083 54.78 744.345 54.197 747.752 C 53.661 748.918 53.321 750.183 53.127 751.496 C 52.202 750.816 48.796 750.816 50.207 748.481 C 51.18 744.393 52.008 740.21 53.127 736.218 C 54.099 736.899 55.219 737.239 56.289 737.628 L 56.288 737.629 z "
       style="fill:#ffcc99;"
       id="path2821" />
    <path
       d="M 57.457 740.062 C 59.257 740.745 56.728 741.618 57.603 742.884 C 57.117 743.225 56.484 743.516 56.435 744.149 L 57.117 745.318 L 55.949 749.502 C 54.977 749.648 54.781 750.767 54.538 751.496 C 55.219 752.47 55.998 752.177 56.874 751.837 C 57.895 751.546 57.798 750.328 57.457 749.648 L 57.117 749.404 C 57.555 747.848 56.971 745.269 58.966 744.979 C 59.452 744.491 59.55 743.711 59.355 743.081 C 58.772 742.982 58.382 742.352 58.382 741.816 C 58.334 740.548 60.717 741.084 60.28 739.382 C 60.863 739.138 61.447 739.772 62.031 739.722 C 60.815 744.781 58.527 749.452 56.775 754.32 C 55.802 753.735 54.44 754.125 53.711 752.91 C 55.072 748.288 55.706 743.13 57.214 738.409 L 58.284 738.653 L 57.457 740.063 L 57.457 740.062 z "
       style="fill:#5d2600;"
       id="path2822" />
    <path
       d="M 66.944 739.722 C 65.339 744.345 62.468 748.482 60.618 753.005 C 59.937 753.346 60.132 754.805 58.964 754.075 L 58.185 753.59 C 59.305 748.723 62.03 744.539 63.051 739.577 L 63.634 738.992 L 66.943 739.721 L 66.944 739.722 z "
       style="fill:#ffcc99;"
       id="path2823" />
    <path
       d="M 59.5 739.527 L 59.5 740.111 C 59.063 739.964 58.259 739.892 58.625 739.233 C 58.99 739.09 59.208 739.453 59.5 739.527 L 59.5 739.527 z "
       style="fill:#c29f00;"
       id="path2824" />
    <path
       d="M 58.747 743.488 C 58.929 744.218 58.259 744.827 57.591 744.342 C 57.226 743.977 57.651 743.429 58.016 743.368 C 58.259 743.429 58.502 743.552 58.746 743.488 L 58.747 743.488 z "
       style="fill:#c29f00;"
       id="path2825" />
    <path
       d="M 88.888 746.583 C 90.153 747.752 90.689 749.502 91.077 750.912 C 90.396 750.961 90.251 750.133 89.812 749.746 C 89.034 749.258 88.207 748.918 87.379 748.577 C 86.503 749.016 87.526 749.502 87.379 750.086 L 87.233 751.984 C 85.676 751.449 83.682 750.377 83.292 748.577 C 82.661 748.772 82.904 749.211 82.709 749.746 L 81.542 751.496 C 80.325 750.671 80.423 749.063 80.131 747.752 C 79.401 747.943 79.548 748.821 79.061 749.308 L 77.066 751.252 C 76.774 749.502 77.795 747.943 78.379 746.389 C 81.639 748.333 85.483 747.069 88.888 746.583 L 88.888 746.583 z "
       style="fill:#ff9900;"
       id="path2826" />
    <path
       d="M 52.786 752.421 L 52.688 753.15 C 51.472 751.935 48.017 752.665 48.942 749.891 C 49.818 751.204 51.472 751.691 52.786 752.42 L 52.786 752.421 z "
       style="fill:#996000;"
       id="path2827" />
    <path
       d="M 88.401 749.892 C 88.596 753.151 88.742 756.364 90.493 758.992 C 90.299 760.742 91.612 763.224 89.811 764.245 C 83.681 765.219 76.917 764.585 71.031 766.094 C 68.16 766.778 64.268 767.455 61.543 765.998 C 63.052 764.295 65.727 763.225 68.112 762.591 C 71.469 759.818 75.312 757.239 78.038 753.832 C 78.865 753.006 79.303 751.788 79.4 750.573 C 80.13 751.497 80.763 753.055 81.881 753.151 L 82.903 750.573 C 84.606 751.401 86.066 752.713 87.818 753.247 C 88.401 752.226 87.623 750.866 88.061 749.893 L 88.401 749.893 L 88.401 749.892 z "
       style="fill:#004200;"
       id="path2828" />
    <path
       d="M 56.775 750.328 C 56.824 750.717 56.727 751.205 56.288 751.156 L 55.607 751.057 L 55.851 750.328 C 56.144 750.717 56.434 750.427 56.775 750.328 L 56.775 750.328 z "
       style="fill:#c29f00;"
       id="path2829" />
    <path
       d="M 48.26 753.979 C 48.115 753.201 47.482 752.323 47.872 751.401 C 48.212 752.177 48.845 753.104 48.26 753.979 z "
       style="fill:#ffffff;"
       id="path2830" />
    <path
       d="M 52.444 754.174 C 52.494 755.486 51.715 756.945 53.126 757.822 C 54.05 758.747 54.927 757.578 55.851 757.482 C 56.824 756.703 57.067 755.048 58.527 756.168 C 57.797 757.822 57.018 759.572 56.873 761.325 C 54.391 762.25 51.715 762.494 48.942 762.006 C 48.407 761.471 46.412 761.715 47.287 760.596 C 47.677 758.114 48.893 755.633 49.428 753.005 C 50.548 753.055 51.52 753.784 52.444 754.174 L 52.444 754.174 z "
       style="fill:#ffcc99;"
       id="path2831" />
    <path
       d="M 56.288 755.243 C 56.434 755.973 55.607 756.799 54.878 757.093 C 54.197 757.578 53.711 756.849 53.272 756.409 C 52.883 755.633 53.516 754.999 53.37 754.174 C 54.295 754.709 55.219 755.145 56.289 755.243 L 56.288 755.243 z "
       style="fill:#5d2600;"
       id="path2832" />
    <path
       d="M 59.938 755.34 C 58.965 755.68 58.527 754.805 57.7 754.755 L 57.797 754.415 C 58.43 754.95 59.208 755.099 59.938 755.34 L 59.938 755.34 z "
       style="fill:#996000;"
       id="path2833" />
    <path
       d="M 45.682 760.596 C 45.536 760.206 46.217 760.061 46.509 759.817 C 46.363 760.108 46.363 761.18 45.682 760.596 z "
       style="fill:#ff9900;"
       id="path2834" />
    <path
       d="M 56.191 762.59 C 56.824 762.152 57.602 762.105 58.186 761.424 C 58.819 762.297 58.381 763.613 58.527 764.684 C 58.235 764.634 57.652 763.759 57.36 764.584 L 57.36 766.434 C 56.145 765.024 54.538 764.44 52.786 764.245 C 50.936 765.12 52.932 766.434 52.445 767.748 C 51.229 767.455 49.527 766.533 49.039 765.073 C 49.185 764.684 49.331 763.952 48.942 763.661 C 47.872 764.78 47.336 766.385 46.607 767.748 C 45.682 766.727 44.272 765.414 45.098 763.905 C 44.417 763.224 43.542 764.78 43.007 763.661 C 42.86 762.495 44.224 761.911 44.953 760.986 C 47.726 764.099 52.495 763.079 56.192 762.59 L 56.191 762.59 z "
       style="fill:#ff9900;"
       id="path2835" />
    <path
       d="M 56.191 766.823 C 55.364 770.375 58.38 774.268 55.851 777.527 C 53.759 778.158 51.472 778.207 49.526 779.083 C 46.947 780.836 43.832 781.321 41.254 783.024 C 37.216 783.803 32.642 785.164 28.75 783.17 C 27.582 782.879 26.269 782.391 25.588 781.516 C 27.144 780.592 29.188 779.912 30.843 778.697 C 34.199 777.429 38.043 775.484 39.697 771.836 C 41.643 770.324 43.006 768.333 44.368 766.824 C 44.562 767.6 45.293 768.333 46.022 768.673 C 46.557 768.723 47.043 768.867 47.433 768.333 C 47.677 767.504 47.774 766.483 48.26 765.85 C 48.893 767.894 51.228 768.039 52.444 769.501 C 54.78 768.673 52.444 766.58 52.688 765.073 C 53.855 765.655 55.218 765.705 56.191 766.824 L 56.191 766.823 z "
       style="fill:#004200;"
       id="path2836" />
  </g>
</svg>
