/* XPM */
static char * empty_xpm[] = {
"48 48 380 2",
"  	c None",
". 	c #C2C6C4",
"+ 	c #BABABC",
"@ 	c #B6BABC",
"# 	c #B5B9BB",
"$ 	c #B9B9BB",
"% 	c #B5B5B3",
"& 	c #BABEBC",
"* 	c #BEBEBC",
"= 	c #B2B6B4",
"- 	c #AEB6B4",
"; 	c #AEB2B4",
"> 	c #BEC2BC",
", 	c #BEC2C4",
"' 	c #A6AAAC",
") 	c #B6B6B4",
"! 	c #EAEEEC",
"~ 	c #E6E6E4",
"{ 	c #CDD1CF",
"] 	c #CCCCCA",
"^ 	c #C7CBC9",
"/ 	c #C7C7C9",
"( 	c #CBCFCD",
"_ 	c #CCD0CE",
": 	c #CCD1CF",
"< 	c #D2D2D4",
"[ 	c #CED2D0",
"} 	c #D2D6D4",
"| 	c #DADEDC",
"1 	c #DEDADC",
"2 	c #D6DADC",
"3 	c #D6D6D4",
"4 	c #DADADB",
"5 	c #DEDEDC",
"6 	c #727A77",
"7 	c #4E5253",
"8 	c #BDBDBB",
"9 	c #A4A9AA",
"0 	c #A1A9A3",
"a 	c #A4A8AA",
"b 	c #A0A8A2",
"c 	c #A0A8A3",
"d 	c #A0A4A2",
"e 	c #98A09B",
"f 	c #99A19B",
"g 	c #9DA0A2",
"h 	c #9DA1A3",
"i 	c #A1A5A3",
"j 	c #A5A9AB",
"k 	c #A2AAA4",
"l 	c #AAAEAC",
"m 	c #A6AEAC",
"n 	c #9A9E9C",
"o 	c #969E9C",
"p 	c #929A94",
"q 	c #929694",
"r 	c #8A928C",
"s 	c #868E8C",
"t 	c #828A88",
"u 	c #7E8684",
"v 	c #7E8284",
"w 	c #868A8C",
"x 	c #8E9294",
"y 	c #969A9C",
"z 	c #9AA29C",
"A 	c #9EA2A4",
"B 	c #8A8E8C",
"C 	c #525A54",
"D 	c #464A4B",
"E 	c #9DA5A3",
"F 	c #8E9694",
"G 	c #8B8F8E",
"H 	c #8C908E",
"I 	c #8B8E8C",
"J 	c #8A8F8D",
"K 	c #8A8E8D",
"L 	c #95999B",
"M 	c #969690",
"N 	c #9EA297",
"O 	c #3A3E3C",
"P 	c #D0D0D2",
"Q 	c #8B928D",
"R 	c #8F9794",
"S 	c #8F9395",
"T 	c #8F9695",
"U 	c #8E9594",
"V 	c #8D9593",
"W 	c #92928C",
"X 	c #828684",
"Y 	c #424644",
"Z 	c #D0D4D2",
"` 	c #A8ACAA",
" .	c #909494",
"..	c #939692",
"+.	c #949898",
"@.	c #8E9494",
"#.	c #909796",
"$.	c #92938F",
"%.	c #929A95",
"&.	c #929693",
"*.	c #91928C",
"=.	c #919594",
"-.	c #919593",
";.	c #9E9E9C",
">.	c #3A3A3B",
",.	c #AFB3B5",
"'.	c #CFCFD1",
").	c #A4ACAA",
"!.	c #878F8A",
"~.	c #909694",
"{.	c #929894",
"].	c #939797",
"^.	c #919797",
"/.	c #929690",
"(.	c #909596",
"_.	c #3E3E3B",
":.	c #464E4C",
"<.	c #AFB7B5",
"[.	c #A7A7A9",
"}.	c #979C9A",
"|.	c #898F8F",
"1.	c #949899",
"2.	c #8E9394",
"3.	c #909894",
"4.	c #929698",
"5.	c #95999A",
"6.	c #959A9B",
"7.	c #919994",
"8.	c #4A4A48",
"9.	c #CDD2CF",
"0.	c #A3A7A9",
"a.	c #979B99",
"b.	c #8C9490",
"c.	c #8E9290",
"d.	c #909794",
"e.	c #959C9A",
"f.	c #94989A",
"g.	c #939799",
"h.	c #949A98",
"i.	c #ABAFAD",
"j.	c #CDD1D0",
"k.	c #9FA6A1",
"l.	c #979F99",
"m.	c #8B918F",
"n.	c #929794",
"o.	c #919597",
"p.	c #939999",
"q.	c #94999A",
"r.	c #929994",
"s.	c #919694",
"t.	c #8E9293",
"u.	c #939A97",
"v.	c #9EA6A4",
"w.	c #363A3A",
"x.	c #3E4244",
"y.	c #CDCDCF",
"z.	c #9EA2A1",
"A.	c #939899",
"B.	c #929695",
"C.	c #8E9593",
"D.	c #939798",
"E.	c #8E9193",
"F.	c #7F8383",
"G.	c #8B8F91",
"H.	c #A2A2A4",
"I.	c #363634",
"J.	c #424244",
"K.	c #CDD2D0",
"L.	c #9EA6A0",
"M.	c #939997",
"N.	c #8E9690",
"O.	c #8F9394",
"P.	c #8B938D",
"Q.	c #8B938E",
"R.	c #959690",
"S.	c #909493",
"T.	c #929797",
"U.	c #858C87",
"V.	c #838A85",
"W.	c #89908C",
"X.	c #878E8A",
"Y.	c #A2A6A4",
"Z.	c #7A7E7C",
"`.	c #AFB3B4",
" +	c #CECFD0",
".+	c #A2A6A8",
"++	c #959B96",
"@+	c #8B9291",
"#+	c #8D9490",
"$+	c #909496",
"%+	c #8E9493",
"&+	c #8F9492",
"*+	c #939695",
"=+	c #979B9A",
"-+	c #8D9291",
";+	c #88908A",
">+	c #8F9491",
",+	c #9CA0A0",
"'+	c #9BA09E",
")+	c #89918C",
"!+	c #7F8785",
"~+	c #888E8C",
"{+	c #323634",
"]+	c #464644",
"^+	c #CFD3D1",
"/+	c #8B908E",
"(+	c #8C9090",
"_+	c #909895",
":+	c #909795",
"<+	c #8E9392",
"[+	c #8E9492",
"}+	c #8A928D",
"|+	c #8A918D",
"1+	c #919695",
"2+	c #929790",
"3+	c #A2A6A5",
"4+	c #838B89",
"5+	c #878F8D",
"6+	c #727674",
"7+	c #919596",
"8+	c #959D9A",
"9+	c #8D9590",
"0+	c #8C9291",
"a+	c #8B928E",
"b+	c #939796",
"c+	c #939795",
"d+	c #999D9B",
"e+	c #909593",
"f+	c #888C8D",
"g+	c #8D9292",
"h+	c #8C938D",
"i+	c #8C938F",
"j+	c #949896",
"k+	c #949897",
"l+	c #8C9192",
"m+	c #8E9391",
"n+	c #919993",
"o+	c #AAA6A4",
"p+	c #6E7674",
"q+	c #B2B2B4",
"r+	c #939B95",
"s+	c #9C9D9C",
"t+	c #929697",
"u+	c #878E8D",
"v+	c #929795",
"w+	c #8F9493",
"x+	c #979B9B",
"y+	c #8E9393",
"z+	c #8C928F",
"A+	c #959A98",
"B+	c #6A6E6C",
"C+	c #9DA1A2",
"D+	c #9AA19C",
"E+	c #A1A1A3",
"F+	c #919595",
"G+	c #989C9B",
"H+	c #989C9A",
"I+	c #868D8B",
"J+	c #4A4E4C",
"K+	c #909893",
"L+	c #9DA2A3",
"M+	c #888C8B",
"N+	c #888C8A",
"O+	c #8D9190",
"P+	c #767E7C",
"Q+	c #4A524C",
"R+	c #999E9C",
"S+	c #848886",
"T+	c #929596",
"U+	c #969A9B",
"V+	c #979A9A",
"W+	c #9FA3A2",
"X+	c #CACECC",
"Y+	c #898E8C",
"Z+	c #9A9E9F",
"`+	c #95989A",
" @	c #979B9C",
".@	c #CACACC",
"+@	c #7A8282",
"@@	c #969A9A",
"#@	c #909594",
"$@	c #909595",
"%@	c #979C9C",
"&@	c #9BA39D",
"*@	c #8C9190",
"=@	c #919696",
"-@	c #959898",
";@	c #868D8C",
">@	c #939B99",
",@	c #909896",
"'@	c #8F9391",
")@	c #868B89",
"!@	c #898D8C",
"~@	c #929796",
"{@	c #959999",
"]@	c #828988",
"^@	c #838A88",
"/@	c #868A88",
"(@	c #929696",
"_@	c #97999A",
":@	c #8D9193",
"<@	c #949A9A",
"[@	c #9CA0A2",
"}@	c #8B9090",
"|@	c #8F9495",
"1@	c #979B9D",
"2@	c #909492",
"3@	c #949694",
"4@	c #848C8A",
"5@	c #767A78",
"6@	c #979E9D",
"7@	c #929798",
"8@	c #959A9A",
"9@	c #9A9EA0",
"0@	c #939696",
"a@	c #9B9F9E",
"b@	c #9B9FA1",
"c@	c #8D9393",
"d@	c #898F8E",
"e@	c #8C9191",
"f@	c #8F9494",
"g@	c #989C9E",
"h@	c #9BA2A1",
"i@	c #8F9393",
"j@	c #919794",
"k@	c #9B9FA0",
"l@	c #818885",
"m@	c #9A9F9C",
"n@	c #8D9392",
"o@	c #8E9292",
"p@	c #8A908D",
"q@	c #808786",
"r@	c #909695",
"s@	c #9CA0A1",
"t@	c #8A8F8E",
"u@	c #939597",
"v@	c #888F8D",
"w@	c #8D9390",
"x@	c #929997",
"y@	c #919997",
"z@	c #8C918F",
"A@	c #8C9290",
"B@	c #8D9391",
"C@	c #C2C2C4",
"D@	c #969D9B",
"E@	c #959D9B",
"F@	c #8F9593",
"G@	c #929594",
"H@	c #989E9C",
"I@	c #949C9A",
"J@	c #888D8B",
"K@	c #8D9290",
"L@	c #959899",
"M@	c #8C9492",
"N@	c #6E7272",
"O@	c #8D9591",
"P@	c #828583",
"Q@	c #939898",
"R@	c #6A726C",
"S@	c #89908A",
"T@	c #838782",
"U@	c #868988",
"V@	c #939697",
"W@	c #8A908C",
"X@	c #808482",
"Y@	c #8A908F",
"Z@	c #929995",
"`@	c #91928D",
" #	c #C6CACC",
".#	c #565651",
"+#	c #2E3234",
"@#	c #262624",
"##	c #222624",
"$#	c #262A2A",
"%#	c #2A2E2C",
"&#	c #525654",
"*#	c #4E5654",
"=#	c #4E4E4C",
"-#	c #565A5C",
";#	c #565E5C",
". . + @ @ # $ # # # % % # @ @ @ & & + + & @ @ + + & & * * + = - = ; ; - = @ & & > , , @ ; @ ' ' ",
") ! ~ { ] ] ^ / / ^ ( ( _ : { < < [ [ } < < < | | 1 1 2 2 2 } < [ } } 3 3 4 4 1 4 5 4 } } = 6 7 ",
") | 8 9 0 a b c d e f g h i 0 j ' k k k l m ' n o p q r s t u v u w s x q y z A n q s t B q C D ",
"= { E r x F q G H I J K x q L q q q M y p q F q F x r B B w u u w r x F p n n p r t w r N s O D ",
"= P 0 B Q x q R R F x S T q F F U V p y p x r W q x x r s w u u r r x M n z y w X t x q n X O Y ",
"; Z ` F s  .q ..+. .@.#.$.%.&.*.=.-.q F x r r F p x r r r t X s B x q o z ;.r t s q q p p v >.Y ",
",.'.).q !.@.~.{.].^./.^.(.%.p q -.=.x r B B q y y x B x r s t r q q y n A q t u x y q q o u _.:.",
"<.[ [.}.|. .q 1.q 2.3.4.y y 5.6.7.x B B x q q y o q r r r w s x x q o z z r u r F p q q y t O 8.",
",.9.0.a.b.c.d.e.&.q f.g.h.1.5.M U x s r q p y y y F B B r B r F F M ;.n q w t q q q q q A B O Y ",
"i.j.k.l.~.m.f.L q q 7.n.o.p.q.r.s.r t.x q y u.5.p x r r r s B x x y A z x u s q x F p v.' s w.x.",
",.y.z.g.^.m.=.q x x =.R ^.A.5.B.7.F F C.D.L L E.F.G.|.t s s s r F o A n B t x q q y H.m ' u I.J.",
",.K.L.g.M.N.O.P.Q.q q ].4.{.B.q R.x t.S.T.L L f.L t.B U.V.W.X.B y A Y.p t w F q q n m ' n Z.w.:.",
"`. +.+q ++^.m.@+#+O.q n.n.$+$+R q %+&+*+g.y L L =+-+r ;+;+A.Q >+,+'+n )+!+~+V q y n Y.n r 6 {+]+",
"- ^+d $+o.y /+(+O.x O.q #._+:+B.6.<+[+=.y g.L L f.}+Q ;+|+1+2+3+n n B X 4+5+&+q n v.z o x 6+{+Y ",
"= Z E P.7+8+9+0+r a+b+b+c+$+B.y d+-.[+e+f+f.L L g.g+h+;+i+].j+n n k+s s l+m+n+o Y.o+n n F p+{+Y ",
"q+{ i x r+s+t+s u+r 2.v+q p y h f e+&+&+w+&+L x+g.y+P.z+1.5.d+n A+t s q n o y Y.Y.A p q r B+{+D ",
") { i q A C+g.t w x x q q y D+E+A p ^.5.F+e+L L L L f.f.L G+n H+I+t F A Y.v.A v.y x s t X B+{+J+",
"= } i y n 0 K+t )+r x y y n L+A y q M+N+&+O+f.f.L f.L L L G+B.-.e+f+L i k y p q s u t X s P+>.Q+",
"; [ v.y R+i L X s x r p o y o o q x S+K w+ .T+g.f.f.f.5.U+4.].t+*+V+L W+n s s X u t s s q u _.J+",
"- X+Y.o v.i -.u t s x y y o z n y q S+Y+&+w+1+Z+D.f.L f.f.f.g.`+5.L  @;.q X t t X s x q o u O :.",
"l .@Y.n Y.A x +@t s x p y n z z o C.w+w+w+S.@@#@$@D.f.f.1.L f.L f.%@&@n B Z.v t w r F x q Z.>.D ",
"l X+Y.A v.o t v w r F y A n A A y w+<+*@*@+.w+w+w+#@=@t+-@L f.f.o.;@>@,@s +@s r x x x q q P+{+Y ",
"; X+Y.n A F u u B x q p n n A A y '@-+)@!@w+w+w+~@].{@L L L f.f.o.4.]@^@u t x F F q F F q Z.w.Y ",
"= } v.n y x u t x q y y n n n n p /@K 7+].w+w+(@&+&+&+L L _@f.:@f.f.O.V u B F q q F q q p +@w.]+",
"+ < o o y F s s x q y o n z z n F <@[@(@w+1+=.&+&+e+=@D.f.5.1.f.f.}@|@L t x q q q x q q q Z.w.]+",
", } n y x x B r q p y y y n A z x+1@ @].A.D.&+2@-.=.e+&+D.`+L -@3@g.g.].4@F F q q q q q q 5@w.Y ",
", } n p x q x r q y y p y A A 6@A 7@8@9@4.(.&+&+D.].=.0@D.f.`+L L L 5.4+!.q F F q F q y p 6 w.]+",
"* 3 y q r p F x q p y y n n a@b@c@ .w+d@e@f@w+g.t+S.F+S.g.(@#@{@g@h@n x x x q q q q q q q Z.w.D ",
", } q q x q x r q p y y p o y (.<+w+w+<+<+w+i@w+&+#@S.&+=.&+S.j@k@A q q F x x F F F F y y P+w.D ",
", 2 q x q y y q q q q p y y =+<+<+w+w+<+<+<+w+w+S.&+w+w+&+&+&+w+l@F s t B w x x x q x q p Z.w.Y ",
"* } F x q y y y q p y y n m@s.n@w+w+-+w+G o@w+w+w+B.e+w+&+&+&+p@q@B t w r@o.r x x q p y p P+w.D ",
", 2 x r F p y q q x q o s@1+#@%+<+f@w+t@<+i@w+w+u@&+w+&+&+&+m+v@<+w@x F A.F x r p y q p y Z._.Q+",
"> 3 x x q q p F x x q y n H+x@x@y@*@G <+w+w+=@F+t+`+&+&+w+z@A@B@&+-.F B.].F q x y n y n z t O J+",
"C@3 x x q p y q r r q p R+o D@E@F@m+&+&+F+F+&+T.5.`+=@G@&+-+&+m+&+q q q q x x q y n A n ;.+@>.Y ",
". 2 q F q q q q r B q y H@o e.I@x@J@K@m+S.F+L `+L L L L@&+&+m+M@-.q q q q F F q F x q x B N@{+x.",
", 3 q x F q p y x q q o n n u._+O@P@m+J 1.5.L `+L `+Q@w+&+&+=.x q q F F q q x F q r t u u R@{+Y ",
", 2 y q F q q y q p y y o o -.S@T@X U@f.`+L V@T+f.#@&+&+&+#@q F F F x F x q F F x x s t t 6+I.]+",
", } o q x q F y q M o y n y F W@X@P@7+L L #@&+&+&+&+&+&+&+C.x x x x x x q q x x F F B r x P+w.D ",
"* 3 y q x x F y y q y q M q r w X S+f.L &+&+&+w+&+&+&+1+5.x s r r x q F F q q q x q x F F P+w.Y ",
", } q x r x x y p q o o p q r s 4@Y@7@Z@I@2@e+e+&+[+D.n q r s B x x x q q q q q q F x x q Z.w.D ",
", 2 p x x F r q y y n A y x x r r x x x C.C.`@-.x W p o F t s B r x x q q F q q x x x x q +@O D ",
"* } x q q x r F y n A z p q F r B x q F y y r x F F q M x B B r r x q q F x F F q r F q p v w.D ",
"* 2 q F y q B F n z ;.n p x B r r B q F p o F x y q F x F x r x r x x x x x q F q x F q p +@O D ",
", } y q x r F y v.H.v.y q r s t s r x x M n n y q x B x p F s x x F F F q F F q q y y o y v >.:.",
"C@3 y F B B p A k A A q r t t X w r q p q n n q x r x r y y x x q q q q q q q p y n n n y +@>.D ",
".  #F s r x y Y.A z q r w w t t s B F F y o z y s r x B v +@6 P+5@Z.Z.P+5@Z.Z.Z.v +@Z.P+P+B+w.D ",
"& y .#+#{+I.w.O >.{+@#@#########$#@#$#$#$#$#$#$#######$#w.w.{+{+w.{+{+{+{+{+I.w.I.{+I.{+{+%#$#]+",
"u &#:.J.Y :.J+J+:.J+*#7 7 =#J+Q+7 &#&#-#.#-#-#&#&#7 &#C .#-#-#-#&#&#&#&#&#C -#&#C -#&#-#&#7 J.;#"};
