<?xml version="1.0" encoding= "UTF-8"?>
<svg width="800" height="600" xmlns:drawswf="http://drawswf.sf.net/2002/drawswf" xmlns="http://www.w3.org/2000/svg">
  <title>Made with DrawSWF 1.2 (http://drawswf.sf.net)</title>
    <polyline points="344,165 344,168 345,171 345,174 346,177 347,180 349,183 351,186 354,187 358,188 361,189 364,189 367,190 371,189 374,188 378,187 381,185 384,182 387,180 388,177 390,174 390,171 391,167 391,164 391,161 391,158 390,155 390,152 389,149 388,146 386,142 384,139 381,136 378,135 375,133 372,133 369,132 366,132 363,133 360,134 360,137 357,138 354,140 352,143 351,146 349,149 348,152 347,155 346,158 345,161 345,163 "  stroke="#000099" stroke-width="5.0" stroke-opacity="1.0" stroke-linecap="round" fill="none" />
    <polyline points="353,161 353,164 354,167 357,169 360,170 362,167 362,164 362,161 360,158 357,160 354,160 353,163 353,165 "  stroke="#000099" stroke-width="5.0" stroke-opacity="1.0" stroke-linecap="round" fill="none" />
    <polyline points="347,142 348,139 347,136 344,133 340,131 337,129 333,127 330,127 327,127 324,127 321,127 318,129 317,132 313,134 311,137 311,140 310,143 309,147 309,151 308,154 309,158 309,162 310,165 311,169 313,172 316,174 318,177 320,180 324,181 327,181 331,181 336,180 339,180 342,180 342,176 342,176 "  stroke="#000099" stroke-width="5.0" stroke-opacity="1.0" stroke-linecap="round" fill="none" />
    <polyline points="335,166 338,165 340,162 341,159 340,156 336,155 334,158 332,162 333,165 336,167 338,167 "  stroke="#000099" stroke-width="5.0" stroke-opacity="1.0" stroke-linecap="round" fill="none" />
    <polyline points="354,122 358,120 360,117 363,115 367,114 372,114 377,114 380,114 384,114 389,117 392,119 395,122 397,126 400,131 400,134 401,137 400,138 "  stroke="#000099" stroke-width="5.0" stroke-opacity="1.0" stroke-linecap="round" fill="none" />
    <polyline points="345,116 344,113 341,112 338,110 334,107 331,106 327,106 324,106 321,106 318,106 315,106 308,108 305,110 302,113 300,116 299,119 299,122 299,125 298,129 296,133 295,134 "  stroke="#000099" stroke-width="5.0" stroke-opacity="1.0" stroke-linecap="round" fill="none" />
    <polyline points="334,205 337,205 340,207 343,207 347,205 350,201 351,198 352,194 351,191 347,188 344,188 340,189 335,191 333,194 332,198 331,201 332,204 333,207 337,210 340,210 343,209 347,205 349,202 349,199 348,194 345,192 342,190 338,189 335,190 332,192 331,195 331,199 332,203 333,207 336,209 341,207 344,204 345,201 346,198 345,194 343,190 340,189 336,190 333,192 331,195 331,199 333,203 335,207 339,208 342,207 345,205 345,201 345,198 344,196 "  stroke="#000099" stroke-width="5.0" stroke-opacity="1.0" stroke-linecap="round" fill="none" />
    <polyline points="340,207 340,210 341,213 341,216 340,219 340,223 339,226 338,229 338,232 336,235 335,239 333,242 331,245 329,248 326,248 322,248 319,246 318,243 315,240 311,237 308,234 306,230 304,223 302,219 300,215 299,210 298,203 298,200 298,200 "  stroke="#000099" stroke-width="5.0" stroke-opacity="1.0" stroke-linecap="round" fill="none" />
    <polyline points="342,209 341,212 341,215 341,218 342,221 344,227 345,230 347,233 349,236 351,239 353,242 356,245 360,248 364,252 368,253 371,253 374,253 378,252 382,251 386,250 389,248 392,245 395,241 399,237 400,234 400,226 400,226 "  stroke="#000099" stroke-width="5.0" stroke-opacity="1.0" stroke-linecap="round" fill="none" />
    <polyline points="412,126 413,123 416,120 419,117 421,114 425,111 428,108 432,106 437,103 441,101 444,100 447,100 450,100 454,100 457,100 460,102 463,102 466,105 470,108 473,112 474,116 475,122 476,125 477,130 477,133 477,141 477,144 477,149 475,153 473,158 472,162 470,165 468,169 465,171 461,173 456,176 453,176 450,177 447,178 443,178 441,178 "  stroke="#000099" stroke-width="5.0" stroke-opacity="1.0" stroke-linecap="round" fill="none" />
    <polyline points="423,134 425,131 427,127 430,124 434,121 439,118 442,117 445,116 448,115 451,115 454,115 457,116 460,117 463,118 464,122 465,126 465,126 "  stroke="#000099" stroke-width="5.0" stroke-opacity="1.0" stroke-linecap="round" fill="none" />
    <polyline points="434,124 437,124 440,126 442,129 443,134 443,138 443,141 443,144 443,144 "  stroke="#000099" stroke-width="5.0" stroke-opacity="1.0" stroke-linecap="round" fill="none" />
    <polyline points="273,126 271,123 269,120 265,117 262,117 258,116 252,115 247,115 243,115 240,116 234,117 230,117 227,118 224,119 222,122 219,124 218,127 215,129 212,133 211,136 209,140 209,143 209,147 209,150 209,153 210,158 211,162 212,166 214,169 216,174 219,178 222,180 225,181 232,183 235,183 239,185 243,186 246,187 250,187 256,188 259,188 262,187 266,185 267,181 266,178 266,178 "  stroke="#000099" stroke-width="5.0" stroke-opacity="1.0" stroke-linecap="round" fill="none" />
    <polyline points="264,138 262,135 259,135 255,135 252,134 248,135 245,135 242,135 239,136 236,137 235,140 232,142 233,144 "  stroke="#000099" stroke-width="5.0" stroke-opacity="1.0" stroke-linecap="round" fill="none" />
    <polyline points="256,136 253,140 250,147 250,152 250,155 252,159 254,162 257,164 257,164 "  stroke="#000099" stroke-width="5.0" stroke-opacity="1.0" stroke-linecap="round" fill="none" />
    <polyline points="277,111 279,108 279,104 278,99 276,91 272,86 268,84 264,83 264,83 "  stroke="#000099" stroke-width="5.0" stroke-opacity="1.0" stroke-linecap="round" fill="none" />
    <polyline points="291,100 290,95 290,91 284,74 281,72 278,70 277,72 "  stroke="#000099" stroke-width="5.0" stroke-opacity="1.0" stroke-linecap="round" fill="none" />
    <polyline points="304,94 304,90 303,86 303,82 303,78 302,69 302,65 302,62 301,59 301,57 "  stroke="#000099" stroke-width="5.0" stroke-opacity="1.0" stroke-linecap="round" fill="none" />
    <polyline points="318,88 318,85 318,82 318,77 319,73 319,68 319,61 319,58 318,59 "  stroke="#000099" stroke-width="5.0" stroke-opacity="1.0" stroke-linecap="round" fill="none" />
    <polyline points="333,86 335,79 336,73 336,69 337,63 337,58 337,54 338,51 338,52 "  stroke="#000099" stroke-width="5.0" stroke-opacity="1.0" stroke-linecap="round" fill="none" />
    <polyline points="346,86 347,83 347,79 349,73 350,70 351,66 353,61 355,55 358,50 361,45 367,37 371,35 375,31 377,30 "  stroke="#000099" stroke-width="5.0" stroke-opacity="1.0" stroke-linecap="round" fill="none" />
    <polyline points="362,84 362,81 363,77 363,74 365,68 367,64 370,61 372,58 374,55 376,52 377,52 "  stroke="#000099" stroke-width="5.0" stroke-opacity="1.0" stroke-linecap="round" fill="none" />
    <polyline points="380,77 384,72 387,70 389,67 390,64 393,62 395,59 398,54 398,52 "  stroke="#000099" stroke-width="5.0" stroke-opacity="1.0" stroke-linecap="round" fill="none" />
    <polyline points="392,81 395,79 400,74 403,70 406,69 409,68 410,69 "  stroke="#000099" stroke-width="5.0" stroke-opacity="1.0" stroke-linecap="round" fill="none" />
    <polyline points="395,97 400,95 404,91 407,89 410,87 418,86 418,86 "  stroke="#000099" stroke-width="5.0" stroke-opacity="1.0" stroke-linecap="round" fill="none" />
    <polyline points="403,103 409,100 414,99 419,97 422,97 422,98 "  stroke="#000099" stroke-width="5.0" stroke-opacity="1.0" stroke-linecap="round" fill="none" />
    <polyline points="409,117 412,113 418,110 421,109 424,108 427,108 427,108 "  stroke="#000099" stroke-width="5.0" stroke-opacity="1.0" stroke-linecap="round" fill="none" />
    <polyline points="439,185 444,186 448,186 454,187 457,187 464,188 468,188 470,189 "  stroke="#000099" stroke-width="5.0" stroke-opacity="1.0" stroke-linecap="round" fill="none" />
    <polyline points="439,198 443,196 448,197 453,198 456,200 459,201 463,201 466,202 469,203 470,203 "  stroke="#000099" stroke-width="5.0" stroke-opacity="1.0" stroke-linecap="round" fill="none" />
    <polyline points="450,215 454,214 457,214 462,212 467,210 470,210 472,210 "  stroke="#000099" stroke-width="5.0" stroke-opacity="1.0" stroke-linecap="round" fill="none" />
    <polyline points="461,233 464,232 467,229 475,225 479,223 482,221 486,218 486,218 "  stroke="#000099" stroke-width="5.0" stroke-opacity="1.0" stroke-linecap="round" fill="none" />
    <polyline points="476,243 488,237 491,236 495,236 495,236 "  stroke="#000099" stroke-width="5.0" stroke-opacity="1.0" stroke-linecap="round" fill="none" />
    <polyline points="486,251 490,250 493,250 499,248 502,248 508,246 507,246 "  stroke="#000099" stroke-width="5.0" stroke-opacity="1.0" stroke-linecap="round" fill="none" />
    <polyline points="499,263 502,262 506,261 509,260 514,259 518,257 520,258 "  stroke="#000099" stroke-width="5.0" stroke-opacity="1.0" stroke-linecap="round" fill="none" />
    <polyline points="536,269 534,266 531,265 527,266 524,268 521,268 518,269 515,271 512,273 510,276 509,279 508,282 507,285 509,288 512,291 515,292 518,293 521,293 524,292 528,292 531,290 534,288 536,285 538,282 538,279 539,276 539,273 538,270 535,270 534,270 "  stroke="#000099" stroke-width="5.0" stroke-opacity="1.0" stroke-linecap="round" fill="none" />
    <polyline points="511,291 508,293 507,296 507,299 508,302 509,305 512,308 515,309 519,309 522,309 525,309 528,308 531,307 534,305 536,302 539,299 541,296 542,293 542,290 540,287 537,286 534,287 534,287 "  stroke="#000099" stroke-width="5.0" stroke-opacity="1.0" stroke-linecap="round" fill="none" />
    <polyline points="507,308 506,311 506,314 506,317 508,320 511,323 514,324 517,324 521,324 524,323 527,320 530,318 532,315 535,313 537,309 537,306 535,307 "  stroke="#000099" stroke-width="5.0" stroke-opacity="1.0" stroke-linecap="round" fill="none" />
    <polyline points="218,257 215,254 212,252 209,252 206,252 203,252 200,252 196,253 193,254 190,254 187,257 185,260 185,263 187,266 190,269 193,270 197,270 200,270 203,270 206,268 209,267 212,266 215,264 218,262 215,261 214,261 "  stroke="#000099" stroke-width="5.0" stroke-opacity="1.0" stroke-linecap="round" fill="none" />
    <polyline points="187,272 184,275 184,278 186,281 189,282 192,283 195,283 198,282 201,282 205,281 209,279 211,276 214,273 216,270 217,267 216,264 212,263 212,264 "  stroke="#000099" stroke-width="5.0" stroke-opacity="1.0" stroke-linecap="round" fill="none" />
    <polyline points="190,285 189,288 188,291 188,294 190,297 193,298 196,299 199,299 203,297 206,295 209,292 212,288 213,285 214,282 214,279 210,275 210,275 "  stroke="#000099" stroke-width="5.0" stroke-opacity="1.0" stroke-linecap="round" fill="none" />
    <polyline points="207,241 210,241 216,242 219,243 223,245 226,246 227,249 227,249 "  stroke="#000099" stroke-width="5.0" stroke-opacity="1.0" stroke-linecap="round" fill="none" />
    <polyline points="220,237 223,237 227,236 231,236 234,238 236,242 236,245 236,245 "  stroke="#000099" stroke-width="5.0" stroke-opacity="1.0" stroke-linecap="round" fill="none" />
    <polyline points="230,225 233,225 236,227 239,228 242,228 247,230 246,232 "  stroke="#000099" stroke-width="5.0" stroke-opacity="1.0" stroke-linecap="round" fill="none" />
    <polyline points="239,218 242,218 245,216 248,215 251,215 254,216 258,218 261,219 258,218 258,218 "  stroke="#000099" stroke-width="5.0" stroke-opacity="1.0" stroke-linecap="round" fill="none" />
    <polyline points="243,205 246,205 249,204 252,203 255,202 260,201 261,201 "  stroke="#000099" stroke-width="5.0" stroke-opacity="1.0" stroke-linecap="round" fill="none" />
    <polyline points="218,290 218,293 218,297 217,302 217,302 "  stroke="#000099" stroke-width="5.0" stroke-opacity="1.0" stroke-linecap="round" fill="none" />
    <polyline points="232,288 232,293 231,296 231,298 "  stroke="#000099" stroke-width="5.0" stroke-opacity="1.0" stroke-linecap="round" fill="none" />
    <polyline points="242,291 241,295 240,298 239,303 239,306 239,306 "  stroke="#000099" stroke-width="5.0" stroke-opacity="1.0" stroke-linecap="round" fill="none" />
    <polyline points="254,297 253,300 252,307 251,309 "  stroke="#000099" stroke-width="5.0" stroke-opacity="1.0" stroke-linecap="round" fill="none" />
    <polyline points="261,302 261,306 261,309 260,313 259,314 "  stroke="#000099" stroke-width="5.0" stroke-opacity="1.0" stroke-linecap="round" fill="none" />
    <polyline points="267,308 267,311 266,314 266,317 264,320 263,321 "  stroke="#000099" stroke-width="5.0" stroke-opacity="1.0" stroke-linecap="round" fill="none" />
    <polyline points="272,320 270,323 267,327 264,331 264,331 "  stroke="#000099" stroke-width="5.0" stroke-opacity="1.0" stroke-linecap="round" fill="none" />
    <polyline points="275,331 272,335 264,344 264,344 "  stroke="#000099" stroke-width="5.0" stroke-opacity="1.0" stroke-linecap="round" fill="none" />
    <polyline points="273,344 270,351 266,356 264,357 "  stroke="#000099" stroke-width="5.0" stroke-opacity="1.0" stroke-linecap="round" fill="none" />
    <polyline points="493,311 496,315 498,318 499,319 "  stroke="#000099" stroke-width="5.0" stroke-opacity="1.0" stroke-linecap="round" fill="none" />
    <polyline points="481,306 482,309 483,312 483,313 "  stroke="#000099" stroke-width="5.0" stroke-opacity="1.0" stroke-linecap="round" fill="none" />
    <polyline points="472,302 473,306 474,310 474,311 "  stroke="#000099" stroke-width="5.0" stroke-opacity="1.0" stroke-linecap="round" fill="none" />
    <polyline points="465,303 467,306 468,310 468,311 "  stroke="#000099" stroke-width="5.0" stroke-opacity="1.0" stroke-linecap="round" fill="none" />
    <polyline points="449,300 452,303 455,306 455,309 455,309 "  stroke="#000099" stroke-width="5.0" stroke-opacity="1.0" stroke-linecap="round" fill="none" />
    <polyline points="448,309 451,313 452,316 452,317 "  stroke="#000099" stroke-width="5.0" stroke-opacity="1.0" stroke-linecap="round" fill="none" />
    <polyline points="439,317 442,320 444,323 446,326 446,326 "  stroke="#000099" stroke-width="5.0" stroke-opacity="1.0" stroke-linecap="round" fill="none" />
    <polyline points="439,326 443,329 444,332 445,334 "  stroke="#000099" stroke-width="5.0" stroke-opacity="1.0" stroke-linecap="round" fill="none" />
    <polyline points="437,338 441,342 443,345 443,346 "  stroke="#000099" stroke-width="5.0" stroke-opacity="1.0" stroke-linecap="round" fill="none" />
    <polyline points="434,343 443,353 443,354 "  stroke="#000099" stroke-width="5.0" stroke-opacity="1.0" stroke-linecap="round" fill="none" />
    <polyline points="433,357 436,361 439,364 442,364 442,364 "  stroke="#000099" stroke-width="5.0" stroke-opacity="1.0" stroke-linecap="round" fill="none" />
    <polyline points="327,378 324,380 322,383 319,385 316,388 313,389 310,391 306,394 303,394 300,396 297,396 293,396 290,394 287,393 284,392 282,389 281,386 279,383 279,380 280,376 281,373 284,369 285,366 288,365 291,364 294,363 297,362 300,362 303,363 304,363 "  stroke="#000099" stroke-width="5.0" stroke-opacity="1.0" stroke-linecap="round" fill="none" />
    <polyline points="280,388 277,388 274,389 270,389 267,390 264,389 262,386 260,383 259,380 259,377 259,374 260,371 262,367 265,364 268,364 272,363 271,364 "  stroke="#000099" stroke-width="5.0" stroke-opacity="1.0" stroke-linecap="round" fill="none" />
    <polyline points="260,385 257,385 254,385 250,383 246,381 243,378 240,374 238,371 237,367 237,364 240,362 243,359 246,357 250,356 254,355 257,356 261,358 262,360 "  stroke="#000099" stroke-width="5.0" stroke-opacity="1.0" stroke-linecap="round" fill="none" />
    <polyline points="382,381 383,384 386,387 388,390 392,394 396,395 400,396 403,398 406,398 409,397 412,394 413,391 414,388 412,385 411,382 410,379 407,377 405,373 402,371 401,367 397,365 394,367 394,367 "  stroke="#000099" stroke-width="5.0" stroke-opacity="1.0" stroke-linecap="round" fill="none" />
    <polyline points="413,399 416,400 419,399 422,399 425,398 428,396 430,393 430,390 430,386 429,383 427,380 424,378 422,375 419,374 416,373 413,372 410,373 410,373 "  stroke="#000099" stroke-width="5.0" stroke-opacity="1.0" stroke-linecap="round" fill="none" />
    <polyline points="432,398 435,399 439,398 442,398 444,395 446,392 449,389 450,386 450,383 448,380 446,377 443,375 440,372 436,372 433,373 430,372 430,372 "  stroke="#000099" stroke-width="5.0" stroke-opacity="1.0" stroke-linecap="round" fill="none" />
    <polyline points="374,373 374,376 374,379 372,380 "  stroke="#000099" stroke-width="5.0" stroke-opacity="1.0" stroke-linecap="round" fill="none" />
    <polyline points="366,361 366,364 367,367 365,368 "  stroke="#000099" stroke-width="5.0" stroke-opacity="1.0" stroke-linecap="round" fill="none" />
    <polyline points="360,351 360,354 360,358 360,360 "  stroke="#000099" stroke-width="5.0" stroke-opacity="1.0" stroke-linecap="round" fill="none" />
    <polyline points="358,342 357,345 356,348 355,348 "  stroke="#000099" stroke-width="5.0" stroke-opacity="1.0" stroke-linecap="round" fill="none" />
    <polyline points="351,334 351,338 350,341 350,341 "  stroke="#000099" stroke-width="5.0" stroke-opacity="1.0" stroke-linecap="round" fill="none" />
    <polyline points="345,345 345,349 346,353 345,353 "  stroke="#000099" stroke-width="5.0" stroke-opacity="1.0" stroke-linecap="round" fill="none" />
    <polyline points="341,352 340,356 340,359 340,361 "  stroke="#000099" stroke-width="5.0" stroke-opacity="1.0" stroke-linecap="round" fill="none" />
    <polyline points="333,362 335,365 335,370 334,371 "  stroke="#000099" stroke-width="5.0" stroke-opacity="1.0" stroke-linecap="round" fill="none" />
    <polyline points="331,367 331,371 331,374 332,377 332,377 "  stroke="#000099" stroke-width="5.0" stroke-opacity="1.0" stroke-linecap="round" fill="none" />
    <polyline points="297,207 298,210 298,214 299,218 299,221 299,224 300,228 300,231 300,235 302,240 303,243 304,246 304,250 306,254 307,257 308,261 309,264 311,267 311,270 313,273 315,276 318,279 320,282 324,286 327,289 331,291 334,291 337,292 340,293 343,293 346,294 349,295 353,296 356,296 359,296 362,294 365,293 368,291 371,290 374,287 376,284 379,283 381,280 384,277 386,274 390,267 391,264 392,261 394,258 394,255 395,252 397,249 400,247 401,244 401,241 401,238 401,235 398,235 397,235 "  stroke="#000099" stroke-width="5.0" stroke-opacity="1.0" stroke-linecap="round" fill="none" />
    <polyline points="324,248 325,251 326,254 326,258 327,261 327,264 328,268 329,271 329,275 329,278 331,281 331,284 332,287 332,287 "  stroke="#000099" stroke-width="5.0" stroke-opacity="1.0" stroke-linecap="round" fill="none" />
    <polyline points="340,225 340,228 340,231 340,234 341,237 342,240 342,243 342,246 343,250 344,254 344,257 345,260 345,263 346,266 347,270 347,273 349,277 349,280 350,283 351,286 351,289 353,292 351,292 "  stroke="#000099" stroke-width="5.0" stroke-opacity="1.0" stroke-linecap="round" fill="none" />
    <polyline points="367,253 367,256 369,259 369,263 370,266 370,269 370,272 371,275 372,279 373,282 374,285 372,284 "  stroke="#000099" stroke-width="5.0" stroke-opacity="1.0" stroke-linecap="round" fill="none" />
    <polyline points="306,253 309,255 312,257 315,258 318,259 322,262 325,263 328,263 331,264 335,265 338,265 341,265 344,265 347,265 350,265 353,264 356,264 359,264 362,263 365,263 368,262 371,262 374,261 377,261 380,260 383,259 386,257 389,255 391,252 394,250 397,248 400,248 399,246 "  stroke="#000099" stroke-width="5.0" stroke-opacity="1.0" stroke-linecap="round" fill="none" />
</svg>
