<?xml version="1.0" encoding= "UTF-8"?>
<svg width="800" height="200">
  <title>Made with DrawSWF 1.2 (http://drawswf.sf.net)</title>
  <g transform="scale(0.05)">
    <line x1="1069.0" y1="691.0" x2="792.0" y2="3257.0"  stroke="#3333ff" stroke-width="100.0" stroke-opacity="1.0" stroke-linecap="round"/>
    <line x1="792.0" y1="3257.0" x2="1572.0" y2="3220.0"  stroke="#3333ff" stroke-width="100.0" stroke-opacity="1.0" stroke-linecap="round"/>
    <line x1="1572.0" y1="3220.0" x2="1647.0" y2="2352.0"  stroke="#3333ff" stroke-width="100.0" stroke-opacity="1.0" stroke-linecap="round"/>
    <line x1="1647.0" y1="2339.0" x2="2251.0" y2="2301.0"  stroke="#3333ff" stroke-width="100.0" stroke-opacity="1.0" stroke-linecap="round"/>
    <line x1="2251.0" y1="2301.0" x2="1962.0" y2="3245.0"  stroke="#3333ff" stroke-width="100.0" stroke-opacity="1.0" stroke-linecap="round"/>
    <line x1="1962.0" y1="3245.0" x2="2742.0" y2="3194.0"  stroke="#3333ff" stroke-width="100.0" stroke-opacity="1.0" stroke-linecap="round"/>
    <line x1="2742.0" y1="3194.0" x2="2943.0" y2="553.0"  stroke="#3333ff" stroke-width="100.0" stroke-opacity="1.0" stroke-linecap="round"/>
    <line x1="2943.0" y1="553.0" x2="2062.0" y2="679.0"  stroke="#3333ff" stroke-width="100.0" stroke-opacity="1.0" stroke-linecap="round"/>
    <line x1="2062.0" y1="679.0" x2="2125.0" y2="1484.0"  stroke="#3333ff" stroke-width="100.0" stroke-opacity="1.0" stroke-linecap="round"/>
    <line x1="2125.0" y1="1484.0" x2="1622.0" y2="1484.0"  stroke="#3333ff" stroke-width="100.0" stroke-opacity="1.0" stroke-linecap="round"/>
    <line x1="1622.0" y1="1484.0" x2="1849.0" y2="603.0"  stroke="#3333ff" stroke-width="100.0" stroke-opacity="1.0" stroke-linecap="round"/>
    <line x1="1849.0" y1="603.0" x2="1094.0" y2="704.0"  stroke="#3333ff" stroke-width="100.0" stroke-opacity="1.0" stroke-linecap="round"/>
    <line x1="3144.0" y1="503.0" x2="2930.0" y2="3194.0"  stroke="#3333ff" stroke-width="100.0" stroke-opacity="1.0" stroke-linecap="round"/>
    <line x1="2930.0" y1="3194.0" x2="4188.0" y2="3220.0"  stroke="#3333ff" stroke-width="100.0" stroke-opacity="1.0" stroke-linecap="round"/>
    <line x1="4188.0" y1="3220.0" x2="4226.0" y2="2251.0"  stroke="#3333ff" stroke-width="100.0" stroke-opacity="1.0" stroke-linecap="round"/>
    <line x1="4226.0" y1="2251.0" x2="3345.0" y2="2238.0"  stroke="#3333ff" stroke-width="100.0" stroke-opacity="1.0" stroke-linecap="round"/>
    <line x1="3345.0" y1="2238.0" x2="3408.0" y2="1735.0"  stroke="#3333ff" stroke-width="100.0" stroke-opacity="1.0" stroke-linecap="round"/>
    <line x1="3408.0" y1="1735.0" x2="3710.0" y2="2012.0"  stroke="#3333ff" stroke-width="100.0" stroke-opacity="1.0" stroke-linecap="round"/>
    <line x1="3710.0" y1="2012.0" x2="3811.0" y2="1169.0"  stroke="#3333ff" stroke-width="100.0" stroke-opacity="1.0" stroke-linecap="round"/>
    <line x1="3811.0" y1="1169.0" x2="3408.0" y2="1371.0"  stroke="#3333ff" stroke-width="100.0" stroke-opacity="1.0" stroke-linecap="round"/>
    <line x1="3408.0" y1="1371.0" x2="3433.0" y2="930.0"  stroke="#3333ff" stroke-width="100.0" stroke-opacity="1.0" stroke-linecap="round"/>
    <line x1="3433.0" y1="930.0" x2="4427.0" y2="930.0"  stroke="#3333ff" stroke-width="100.0" stroke-opacity="1.0" stroke-linecap="round"/>
    <line x1="4427.0" y1="930.0" x2="4402.0" y2="188.0"  stroke="#3333ff" stroke-width="100.0" stroke-opacity="1.0" stroke-linecap="round"/>
    <line x1="4402.0" y1="188.0" x2="3144.0" y2="515.0"  stroke="#3333ff" stroke-width="100.0" stroke-opacity="1.0" stroke-linecap="round"/>
    <line x1="4792.0" y1="477.0" x2="4327.0" y2="3169.0"  stroke="#3333ff" stroke-width="100.0" stroke-opacity="1.0" stroke-linecap="round"/>
    <line x1="4327.0" y1="3169.0" x2="5786.0" y2="3157.0"  stroke="#3333ff" stroke-width="100.0" stroke-opacity="1.0" stroke-linecap="round"/>
    <line x1="5786.0" y1="3157.0" x2="5773.0" y2="2289.0"  stroke="#3333ff" stroke-width="100.0" stroke-opacity="1.0" stroke-linecap="round"/>
    <line x1="5773.0" y1="2289.0" x2="5044.0" y2="2314.0"  stroke="#3333ff" stroke-width="100.0" stroke-opacity="1.0" stroke-linecap="round"/>
    <line x1="5044.0" y1="2314.0" x2="5345.0" y2="314.0"  stroke="#3333ff" stroke-width="100.0" stroke-opacity="1.0" stroke-linecap="round"/>
    <line x1="5345.0" y1="314.0" x2="4842.0" y2="452.0"  stroke="#3333ff" stroke-width="100.0" stroke-opacity="1.0" stroke-linecap="round"/>
    <line x1="5773.0" y1="251.0" x2="6000.0" y2="3132.0"  stroke="#3333ff" stroke-width="100.0" stroke-opacity="1.0" stroke-linecap="round"/>
    <line x1="6000.0" y1="3132.0" x2="7270.0" y2="3232.0"  stroke="#3333ff" stroke-width="100.0" stroke-opacity="1.0" stroke-linecap="round"/>
    <line x1="7270.0" y1="3232.0" x2="7094.0" y2="2314.0"  stroke="#3333ff" stroke-width="100.0" stroke-opacity="1.0" stroke-linecap="round"/>
    <line x1="7094.0" y1="2314.0" x2="6377.0" y2="2226.0"  stroke="#3333ff" stroke-width="100.0" stroke-opacity="1.0" stroke-linecap="round"/>
    <line x1="6377.0" y1="2226.0" x2="6314.0" y2="528.0"  stroke="#3333ff" stroke-width="100.0" stroke-opacity="1.0" stroke-linecap="round"/>
    <line x1="6314.0" y1="528.0" x2="5798.0" y2="264.0"  stroke="#3333ff" stroke-width="100.0" stroke-opacity="1.0" stroke-linecap="round"/>
    <ellipse cx="8232.5" cy="1785.5" rx="836.5" ry="1534.5"  fill="#ffffff" fill-opacity="0.0" stroke="#3333ff" stroke-width="100.0" stroke-opacity="1.0" stroke-linecap="round"/>
    <ellipse cx="8043.5" cy="1301.5" rx="245.5" ry="320.5"  fill="#ffffff" fill-opacity="0.0" stroke="#3333ff" stroke-width="100.0" stroke-opacity="1.0" stroke-linecap="round"/>
    <ellipse cx="12559.5" cy="1836.0" rx="1490.5" ry="1459.0"  fill="#ffffff" fill-opacity="1.0" stroke="#3333ff" stroke-width="100.0" stroke-opacity="1.0" stroke-linecap="round"/>
    <ellipse cx="11552.5" cy="1081.0" rx="597.5" ry="629.0"  fill="#ffffff" fill-opacity="1.0" stroke="#3333ff" stroke-width="100.0" stroke-opacity="1.0" stroke-linecap="round"/>
    <ellipse cx="12207.0" cy="1068.5" rx="547.0" ry="616.5"  fill="#ffffff" fill-opacity="1.0" stroke="#3333ff" stroke-width="100.0" stroke-opacity="1.0" stroke-linecap="round"/>
    <ellipse cx="11930.5" cy="1056.5" rx="81.5" ry="163.5"  fill="#ffffff" fill-opacity="1.0" stroke="#3333ff" stroke-width="100.0" stroke-opacity="1.0" stroke-linecap="round"/>
    <ellipse cx="11295.0" cy="1119.0" rx="88.0" ry="176.0"  fill="#ffffff" fill-opacity="1.0" stroke="#3333ff" stroke-width="100.0" stroke-opacity="1.0" stroke-linecap="round"/>
    <line x1="10855.0" y1="377.0" x2="11522.0" y2="188.0"  stroke="#3333ff" stroke-width="100.0" stroke-opacity="1.0" stroke-linecap="round"/>
    <line x1="11937.0" y1="176.0" x2="12515.0" y2="226.0"  stroke="#3333ff" stroke-width="100.0" stroke-opacity="1.0" stroke-linecap="round"/>
    <line x1="11559.0" y1="2251.0" x2="11924.0" y2="2641.0"  stroke="#3333ff" stroke-width="100.0" stroke-opacity="1.0" stroke-linecap="round"/>
    <line x1="11924.0" y1="2641.0" x2="12352.0" y2="2817.0"  stroke="#3333ff" stroke-width="100.0" stroke-opacity="1.0" stroke-linecap="round"/>
    <line x1="12352.0" y1="2817.0" x2="12792.0" y2="2830.0"  stroke="#3333ff" stroke-width="100.0" stroke-opacity="1.0" stroke-linecap="round"/>
    <line x1="12792.0" y1="2830.0" x2="13182.0" y2="2666.0"  stroke="#3333ff" stroke-width="100.0" stroke-opacity="1.0" stroke-linecap="round"/>
    <line x1="13182.0" y1="2666.0" x2="13534.0" y2="2138.0"  stroke="#3333ff" stroke-width="100.0" stroke-opacity="1.0" stroke-linecap="round"/>
    <line x1="13534.0" y1="2138.0" x2="13509.0" y2="1547.0"  stroke="#3333ff" stroke-width="100.0" stroke-opacity="1.0" stroke-linecap="round"/>
    <line x1="13509.0" y1="1547.0" x2="13295.0" y2="1132.0"  stroke="#3333ff" stroke-width="100.0" stroke-opacity="1.0" stroke-linecap="round"/>
    <line x1="13295.0" y1="1132.0" x2="13220.0" y2="1572.0"  stroke="#3333ff" stroke-width="100.0" stroke-opacity="1.0" stroke-linecap="round"/>
    <line x1="13220.0" y1="1572.0" x2="12943.0" y2="1861.0"  stroke="#3333ff" stroke-width="100.0" stroke-opacity="1.0" stroke-linecap="round"/>
    <line x1="12943.0" y1="1861.0" x2="12377.0" y2="2012.0"  stroke="#3333ff" stroke-width="100.0" stroke-opacity="1.0" stroke-linecap="round"/>
    <line x1="12377.0" y1="2012.0" x2="11698.0" y2="2062.0"  stroke="#3333ff" stroke-width="100.0" stroke-opacity="1.0" stroke-linecap="round"/>
    <line x1="11698.0" y1="2062.0" x2="11371.0" y2="2012.0"  stroke="#3333ff" stroke-width="100.0" stroke-opacity="1.0" stroke-linecap="round"/>
    <line x1="11371.0" y1="2025.0" x2="11547.0" y2="2238.0"  stroke="#3333ff" stroke-width="100.0" stroke-opacity="1.0" stroke-linecap="round"/>
    <line x1="11735.0" y1="2050.0" x2="12088.0" y2="2666.0"  stroke="#3333ff" stroke-width="100.0" stroke-opacity="1.0" stroke-linecap="round"/>
    <line x1="12301.0" y1="2025.0" x2="12716.0" y2="2779.0"  stroke="#3333ff" stroke-width="100.0" stroke-opacity="1.0" stroke-linecap="round"/>
    <line x1="12805.0" y1="1911.0" x2="13182.0" y2="2553.0"  stroke="#3333ff" stroke-width="100.0" stroke-opacity="1.0" stroke-linecap="round"/>
    <line x1="13207.0" y1="1572.0" x2="13496.0" y2="2088.0"  stroke="#3333ff" stroke-width="100.0" stroke-opacity="1.0" stroke-linecap="round"/>
    <line x1="13408.0" y1="1459.0" x2="13371.0" y2="1874.0"  stroke="#3333ff" stroke-width="100.0" stroke-opacity="1.0" stroke-linecap="round"/>
    <line x1="13371.0" y1="1874.0" x2="12981.0" y2="2251.0"  stroke="#3333ff" stroke-width="100.0" stroke-opacity="1.0" stroke-linecap="round"/>
    <line x1="12981.0" y1="2251.0" x2="12553.0" y2="2364.0"  stroke="#3333ff" stroke-width="100.0" stroke-opacity="1.0" stroke-linecap="round"/>
    <line x1="12553.0" y1="2389.0" x2="11974.0" y2="2377.0"  stroke="#3333ff" stroke-width="100.0" stroke-opacity="1.0" stroke-linecap="round"/>
    <line x1="11974.0" y1="2377.0" x2="11647.0" y2="2327.0"  stroke="#3333ff" stroke-width="100.0" stroke-opacity="1.0" stroke-linecap="round"/>
  </g>
</svg>
