P1
# CREATOR: GIMP PNM Filter Version 1.1
6 8
000000001100010010100001111111100001100001000000
