P2
# CREATOR: GIMP PNM Filter Version 1.1
6 8
255
255
255
255
255
255
255
255
255
78
78
255
255
255
0
255
255
0
255
0
255
255
255
255
0
0
54
54
54
54
0
0
255
255
255
255
0
0
255
255
255
255
0
255
255
255
255
255
255
