/* XPM */
static char * icon_xpm[] = {
"48 48 93 2",
"  	c None",
". 	c #F0F3FB",
"+ 	c #E4E7F7",
"@ 	c #DCE0F3",
"# 	c #E0E4F5",
"$ 	c #C3C7E8",
"% 	c #D0D5EF",
"& 	c #CBD0EC",
"* 	c #D6DAF1",
"= 	c #B6BBE1",
"- 	c #989DCF",
"; 	c #BDC2E6",
"> 	c #E8EAF7",
", 	c #EBEEF8",
"' 	c #B0B6DF",
") 	c #C8CDEB",
"! 	c #FAFBFD",
"~ 	c #FFFFFF",
"{ 	c #F4F6FB",
"] 	c #ACB3DD",
"^ 	c #A4AAD7",
"/ 	c #FDFDFE",
"( 	c #F7F9FC",
"_ 	c #F2F4FB",
": 	c #AAB0DB",
"< 	c #6C72AB",
"[ 	c #656BA4",
"} 	c #9CA1D3",
"| 	c #979CCE",
"1 	c #E1E5F6",
"2 	c #EEF0F9",
"3 	c #878DC2",
"4 	c #535884",
"5 	c #7B81B8",
"6 	c #D3D8F0",
"7 	c #D9DCF2",
"8 	c #B8BDE3",
"9 	c #5A5F8F",
"0 	c #42476F",
"a 	c #6F75AE",
"b 	c #B3B8E0",
"c 	c #686EA7",
"d 	c #444A73",
"e 	c #585C89",
"f 	c #C5C9EA",
"g 	c #4C507B",
"h 	c #CED2ED",
"i 	c #A6ACD9",
"j 	c #61669E",
"k 	c #8F94C8",
"l 	c #9399CC",
"m 	c #757BB4",
"n 	c #7F84BC",
"o 	c #9FA5D4",
"p 	c #9A9FCF",
"q 	c #8289BF",
"r 	c #7177B0",
"s 	c #6A70A9",
"t 	c #6268A1",
"u 	c #5D6294",
"v 	c #8B91C6",
"w 	c #A2A8D5",
"x 	c #787EB7",
"y 	c #5F649A",
"z 	c #BABFE5",
"A 	c #505581",
"B 	c #494D78",
"C 	c #3F446C",
"D 	c #3A3F65",
"E 	c #363B61",
"F 	c #3B4168",
"G 	c #2B3054",
"H 	c #202545",
"I 	c #34395D",
"J 	c #303559",
"K 	c #272C4E",
"L 	c #141935",
"M 	c #01071E",
"N 	c #C0C4E7",
"O 	c #2F62C6",
"P 	c #4573CC",
"Q 	c #7496D9",
"R 	c #5C84D2",
"S 	c #002E93",
"T 	c #5573B7",
"U 	c #AAB9DB",
"V 	c #1C449E",
"W 	c #385BAA",
"X 	c #8DA1CE",
"Y 	c #C6D0E6",
"Z 	c #718AC2",
"` 	c #E2E7F2",
" .	c #B9CAEC",
"                                        . . + + @ @ # @ $ %                                     ",
"                                  & & % % # # + + @ * & = - ; > ,                               ",
"                              ' ' ) + ! ~ ~ ~ ~ ~ ~ ~ ~ ~ { , + ) ' ]                           ",
"                          ^ = * , { ! / ~ ~ ~ ! ( { _ ( ~ ~ ~ ~ ! , : < [                       ",
"                      } | ) @ 1 + + , ! / / / { , , , 2 ( / ~ ~ ~ ~ ~ @ 3 4                     ",
"                    5 ] 6 * 6 * 7 @ + ( ~ ! ( , + + > , , ! ~ ~ ~ ~ ~ ~ ~ 8 9 0                 ",
"                  a b & & & & & & % 7 , ( _ > + # # @ # + ! ~ ~ ~ ~ ~ ~ ~ ~ @ c d               ",
"                e ] $ 8 ; ; $ f $ ; ) @ 1 # @ * * 7 * * > ! ~ ~ ~ ~ ~ ~ ~ ~ ~ @ < g             ",
"              g ^ 8 ' = 8 8 8 = 8 ' = $ % * 6 & h % * * , / ~ ~ ~ ~ ~ ~ ~ ~ 2 % i < j           ",
"            d k = : ] ' ] ] ' ] : ^ ^ ] 8 $ % & & & % * , / ~ ~ ~ ~ ~ ~ ! + ) i l m c           ",
"          e n 8 ] i i i i i i i o p - p o b $ ) ) ) % @ 2 / ~ ~ ~ ~ ~ ( # ; } q r s t c         ",
"          u ' : : : i ^ ^ : ^ p l k v 3 3 w = ; ) & & * , / ~ ~ ~ / , % = l x c u y 9 u r       ",
"        e o ] o o ^ i o ^ i o v q n n x x v : z ) % h @ 2 ~ ~ ~ / 2 & ^ q [ y u e e e A j       ",
"        5 ] ^ w o o } } ^ w l 3 5 r < t t 5 p = f % % @ 2 ~ ~ ( > & w r e A 4 4 A g 4 A 4 q     ",
"      3 ^ ] i i ^ o o p } | 3 n a c e A e [ v = & h & * _ ~ ( + & | s 4 d B d d B d B A 4 r     ",
"      k ' ' : i ^ ^ p | l v x a t 4 0 C B u n ^ = = % 2 ! . # $ o < A 0 0 0 C D C 0 g 4 4 y     ",
"      w = b ' ] w w o p k 3 a [ A C E E C F G H H H I r 6 . ) | c A C D F F E E D 0 g 4 9 u ^   ",
"    ^ ; $ 8 = = : ^ ^ } k 5 < e 0 J G K L L K J J G H M G x w [ B C E J G J J E C d 4 9 t j v   ",
"    ^ * & & ; = = ] ^ o l x t A I K H L I 4 u u u e e 0 L M F A F J G K G J I F d A e t s c n   ",
"    : + * & $ ; ; = ' ^ l 5 y g E K L d t j y t y u 4 A B H M H J G K G I E C B 4 9 t < < r m = ",
"    ; , @ * * * h ) $ z i l m u g G D < c j t u 4 e e 4 A d L M J J I D C B A 9 u t < m x m 5 : ",
"  e % / . _ 2 2 , , + @ % ; i l 5 D 9 n < < e G K K D 9 e 9 I M I g g g 4 u j [ < r m 5 n n 5 w ",
"  d @ ~ ! ~ / ~ ~ ~ ~ / ( , @ * ' g 5 q 5 c I A r j I d u e B M I y u u j c s a r n n 5 n q n p ",
"  A , ~ ~ ~ ~ ~ ~ ~ ~ ~ ! ( 2 ( N [ v v v s 9 3 } ^ a C u 9 e H J [ t y t < < r m 5 n 5 x 5 m } ",
"  g , ~ ~ ~ ~ ~ ~ ~ ~ ~ 2 , + + 8 a k l k n m l | w 3 y t y u K J u u u y [ c a r m x r m m m o ",
"  F @ ~ ! ~ ~ ~ ~ ! ( , 7 & = ^ 3 4 v w l } k k | } k r s s y H G d g 4 e u y t c < r a r r < o ",
"  A & ! 2 2 2 > # * ) ' p v r u B J < ] p o ' : w w | x a m u L L G I F 0 A 4 e u j [ [ [ t c w ",
"O O O O O O O O O O O O O O O O O O O O O O O O O O O O O O O O O O O O O O O O O O O O O O O O ",
"O O O O O O O O O O O O O O O O O O O O O O O O O O P Q Q Q R O O O O O O O O O O O O O O O O O ",
"O O S S S S S S S S S S S S S S S S S S S S S S S S T ~ ~ ~ U S S S S S S S S S S S S S S S O O ",
"O O S S S S S S S S S S S S S S S S S S S S S S S S T ~ ~ ~ U S S S S S S S S S S S S S S S O O ",
"O O S S S S S S S S S S S S S S S S S S S S S S S S V T T T W S S S S S S S S S S S S S S S O O ",
"O O S S W T T T V S S T T T T S S V T T T V W U U W V T T T W S S W T T T S W U U X V S S S O O ",
"O O S S U ~ ~ ~ T S S ~ ~ ~ ~ S S T ~ ~ ~ X ~ ~ ~ Y T ~ ~ ~ U S S U ~ ~ ~ Z ~ ~ ~ ~ ` W S S O O ",
"O O S S U ~ ~ ~ T S S ~ ~ ~ ~ S S T ~ ~ ~ ~ ~ ~ ~ W T ~ ~ ~ U S S U ~ ~ ~ ~ ~ ~ ~ ~ ~ ` S S O O ",
"O O S S U ~ ~ ~ T S S ~ ~ ~ ~ S S T ~ ~ ~ ~ Y T Z S T ~ ~ ~ U S S U ~ ~ ~ ` V V ` ~ ~ ~ T S O O ",
"O O S S Z U U U W S S U U U U S S T ~ ~ ~ ~ V S S S T ~ ~ ~ U S S U ~ ~ ~ Z S S Z ~ ~ ~ X S O O ",
"O O S S S S S S S S S S S S S S S T ~ ~ ~ Y S S S S T ~ ~ ~ U S S U ~ ~ ~ T S S T ~ ~ ~ U S O O ",
"O O S S S S S S S S S S S S S S S T ~ ~ ~ U S S S S T ~ ~ ~ U S S U ~ ~ ~ T S S T ~ ~ ~ U S O O ",
"O O S S U ~ ~ ~ T S S ~ ~ ~ ~ S S T ~ ~ ~ U S S S S T ~ ~ ~ U S S U ~ ~ ~ X S S X ~ ~ ~ X S O O ",
"O O S S U ~ ~ ~ T S S ~ ~ ~ ~ S S T ~ ~ ~ U S S S S T ~ ~ ~ U S S U ~ ~ ~ ~ Z Z ~ ~ ~ ~ W S O O ",
"O O S S U ~ ~ ~ T S S ~ ~ ~ ~ S S T ~ ~ ~ U S S S S T ~ ~ ~ U S S U ~ ~ ~ ~ ~ ~ ~ ~ ~ Y S S O O ",
"O O S S U ~ ~ ~ T S S ~ ~ ~ ~ S S T ~ ~ ~ U S S S S T ~ ~ ~ U S S U ~ ~ ~ U ` ~ ~ ~ Y V S S O O ",
"O O S S S S S S S S S S S S S S S S S S S S S S S S S S S S S S S U ~ ~ ~ T S T T W S S S S O O ",
"O O S S S S S S S S S S S S S S S S S S S S S S S S S S S S S S S U ~ ~ ~ T S S S S S S S S O O ",
"O O S S S S S S S S S S S S S S S S S S S S S S S S S S S S S S S U ~ ~ ~ T S S S S S S S S O O ",
"O O O O O O O O O O O O O O O O O O O O O O O O O O O O O O O O O  .~ ~ ~ Q O O O O O O O O O O ",
"O O O O O O O O O O O O O O O O O O O O O O O O O O O O O O O O O O O O O O O O O O O O O O O O "};
