<svg width="125" height="125" xmlns="http://www.w3.org/2000/svg">
  <rect width="100%" height="100%" fill="white"/>
  <rect x="10" y="10" width="35" height="5" fill="black"/>
  <rect x="55" y="10" width="10" height="5" fill="black"/>
  <rect x="80" y="10" width="35" height="5" fill="black"/>
  <rect x="10" y="15" width="5" height="5" fill="black"/>
  <rect x="40" y="15" width="5" height="5" fill="black"/>
  <rect x="50" y="15" width="10" height="5" fill="black"/>
  <rect x="70" y="15" width="5" height="5" fill="black"/>
  <rect x="80" y="15" width="5" height="5" fill="black"/>
  <rect x="110" y="15" width="5" height="5" fill="black"/>
  <rect x="10" y="20" width="5" height="5" fill="black"/>
  <rect x="20" y="20" width="15" height="5" fill="black"/>
  <rect x="40" y="20" width="5" height="5" fill="black"/>
  <rect x="70" y="20" width="5" height="5" fill="black"/>
  <rect x="80" y="20" width="5" height="5" fill="black"/>
  <rect x="90" y="20" width="15" height="5" fill="black"/>
  <rect x="110" y="20" width="5" height="5" fill="black"/>
  <rect x="10" y="25" width="5" height="5" fill="black"/>
  <rect x="20" y="25" width="15" height="5" fill="black"/>
  <rect x="40" y="25" width="5" height="5" fill="black"/>
  <rect x="65" y="25" width="10" height="5" fill="black"/>
  <rect x="80" y="25" width="5" height="5" fill="black"/>
  <rect x="90" y="25" width="15" height="5" fill="black"/>
  <rect x="110" y="25" width="5" height="5" fill="black"/>
  <rect x="10" y="30" width="5" height="5" fill="black"/>
  <rect x="20" y="30" width="15" height="5" fill="black"/>
  <rect x="40" y="30" width="5" height="5" fill="black"/>
  <rect x="50" y="30" width="5" height="5" fill="black"/>
  <rect x="70" y="30" width="5" height="5" fill="black"/>
  <rect x="80" y="30" width="5" height="5" fill="black"/>
  <rect x="90" y="30" width="15" height="5" fill="black"/>
  <rect x="110" y="30" width="5" height="5" fill="black"/>
  <rect x="10" y="35" width="5" height="5" fill="black"/>
  <rect x="40" y="35" width="5" height="5" fill="black"/>
  <rect x="55" y="35" width="5" height="5" fill="black"/>
  <rect x="70" y="35" width="5" height="5" fill="black"/>
  <rect x="80" y="35" width="5" height="5" fill="black"/>
  <rect x="110" y="35" width="5" height="5" fill="black"/>
  <rect x="10" y="40" width="35" height="5" fill="black"/>
  <rect x="50" y="40" width="5" height="5" fill="black"/>
  <rect x="60" y="40" width="5" height="5" fill="black"/>
  <rect x="70" y="40" width="5" height="5" fill="black"/>
  <rect x="80" y="40" width="35" height="5" fill="black"/>
  <rect x="60" y="45" width="15" height="5" fill="black"/>
  <rect x="10" y="50" width="5" height="5" fill="black"/>
  <rect x="20" y="50" width="5" height="5" fill="black"/>
  <rect x="30" y="50" width="5" height="5" fill="black"/>
  <rect x="40" y="50" width="5" height="5" fill="black"/>
  <rect x="55" y="50" width="5" height="5" fill="black"/>
  <rect x="65" y="50" width="5" height="5" fill="black"/>
  <rect x="90" y="50" width="5" height="5" fill="black"/>
  <rect x="105" y="50" width="5" height="5" fill="black"/>
  <rect x="15" y="55" width="15" height="5" fill="black"/>
  <rect x="35" y="55" width="5" height="5" fill="black"/>
  <rect x="45" y="55" width="20" height="5" fill="black"/>
  <rect x="80" y="55" width="5" height="5" fill="black"/>
  <rect x="105" y="55" width="10" height="5" fill="black"/>
  <rect x="10" y="60" width="15" height="5" fill="black"/>
  <rect x="30" y="60" width="20" height="5" fill="black"/>
  <rect x="55" y="60" width="5" height="5" fill="black"/>
  <rect x="70" y="60" width="5" height="5" fill="black"/>
  <rect x="90" y="60" width="25" height="5" fill="black"/>
  <rect x="15" y="65" width="10" height="5" fill="black"/>
  <rect x="30" y="65" width="10" height="5" fill="black"/>
  <rect x="45" y="65" width="5" height="5" fill="black"/>
  <rect x="80" y="65" width="5" height="5" fill="black"/>
  <rect x="105" y="65" width="5" height="5" fill="black"/>
  <rect x="15" y="70" width="5" height="5" fill="black"/>
  <rect x="25" y="70" width="10" height="5" fill="black"/>
  <rect x="40" y="70" width="5" height="5" fill="black"/>
  <rect x="60" y="70" width="5" height="5" fill="black"/>
  <rect x="70" y="70" width="5" height="5" fill="black"/>
  <rect x="80" y="70" width="5" height="5" fill="black"/>
  <rect x="90" y="70" width="5" height="5" fill="black"/>
  <rect x="105" y="70" width="10" height="5" fill="black"/>
  <rect x="50" y="75" width="5" height="5" fill="black"/>
  <rect x="60" y="75" width="10" height="5" fill="black"/>
  <rect x="75" y="75" width="5" height="5" fill="black"/>
  <rect x="85" y="75" width="5" height="5" fill="black"/>
  <rect x="95" y="75" width="10" height="5" fill="black"/>
  <rect x="10" y="80" width="35" height="5" fill="black"/>
  <rect x="55" y="80" width="5" height="5" fill="black"/>
  <rect x="65" y="80" width="5" height="5" fill="black"/>
  <rect x="75" y="80" width="15" height="5" fill="black"/>
  <rect x="95" y="80" width="5" height="5" fill="black"/>
  <rect x="105" y="80" width="10" height="5" fill="black"/>
  <rect x="10" y="85" width="5" height="5" fill="black"/>
  <rect x="40" y="85" width="5" height="5" fill="black"/>
  <rect x="60" y="85" width="20" height="5" fill="black"/>
  <rect x="85" y="85" width="10" height="5" fill="black"/>
  <rect x="10" y="90" width="5" height="5" fill="black"/>
  <rect x="20" y="90" width="15" height="5" fill="black"/>
  <rect x="40" y="90" width="5" height="5" fill="black"/>
  <rect x="50" y="90" width="5" height="5" fill="black"/>
  <rect x="65" y="90" width="5" height="5" fill="black"/>
  <rect x="75" y="90" width="15" height="5" fill="black"/>
  <rect x="105" y="90" width="10" height="5" fill="black"/>
  <rect x="10" y="95" width="5" height="5" fill="black"/>
  <rect x="20" y="95" width="15" height="5" fill="black"/>
  <rect x="40" y="95" width="5" height="5" fill="black"/>
  <rect x="55" y="95" width="5" height="5" fill="black"/>
  <rect x="80" y="95" width="10" height="5" fill="black"/>
  <rect x="95" y="95" width="15" height="5" fill="black"/>
  <rect x="10" y="100" width="5" height="5" fill="black"/>
  <rect x="20" y="100" width="15" height="5" fill="black"/>
  <rect x="40" y="100" width="5" height="5" fill="black"/>
  <rect x="50" y="100" width="5" height="5" fill="black"/>
  <rect x="60" y="100" width="5" height="5" fill="black"/>
  <rect x="70" y="100" width="5" height="5" fill="black"/>
  <rect x="90" y="100" width="10" height="5" fill="black"/>
  <rect x="110" y="100" width="5" height="5" fill="black"/>
  <rect x="10" y="105" width="5" height="5" fill="black"/>
  <rect x="40" y="105" width="5" height="5" fill="black"/>
  <rect x="55" y="105" width="5" height="5" fill="black"/>
  <rect x="80" y="105" width="5" height="5" fill="black"/>
  <rect x="105" y="105" width="5" height="5" fill="black"/>
  <rect x="10" y="110" width="35" height="5" fill="black"/>
  <rect x="50" y="110" width="10" height="5" fill="black"/>
  <rect x="70" y="110" width="5" height="5" fill="black"/>
  <rect x="80" y="110" width="5" height="5" fill="black"/>
  <rect x="105" y="110" width="10" height="5" fill="black"/>
</svg>