#define counter_width 32
#define counter_height 9
static unsigned charcounter_bits[]={
0x7c,0x3c,0x7c,0x3c,
0xfe,0x7c,0xfe,0x7c,
0xee,0xee,0xee,0xee,
0xe0,0xee,0x60,0xee,
0x70,0xfe,0x30,0xfe,
0x38,0xec,0xe0,0xec,
0x1c,0xe0,0xee,0xe0,
0xfe,0x7e,0xfe,0x7e,
0xfe,0x3c,0x7c,0x3c
}
