/* XPM */
static char * flower_xpm[] = {
"64 64 332 2",
"  	c None",
". 	c #FF0000",
"+ 	c #FF0080",
"@ 	c #FF8000",
"# 	c #FF0025",
"$ 	c #FF3600",
"% 	c #FF0076",
"& 	c #FF0006",
"* 	c #FF0200",
"= 	c #FF5600",
"- 	c #FF7E00",
"; 	c #FF004E",
"> 	c #FF1800",
", 	c #FF6C00",
"' 	c #FF007C",
") 	c #FF000C",
"! 	c #FF1C00",
"~ 	c #FF7200",
"{ 	c #FF0065",
"] 	c #FF1400",
"^ 	c #FF004A",
"/ 	c #FF6800",
"( 	c #FF0026",
"_ 	c #FF4E00",
": 	c #FF00B9",
"< 	c #FF007D",
"[ 	c #FF1D00",
"} 	c #FF7B00",
"| 	c #FF8900",
"1 	c #FFA900",
"2 	c #FFBD00",
"3 	c #FFC600",
"4 	c #FFDE00",
"5 	c #FF00FF",
"6 	c #FF00D2",
"7 	c #FF0075",
"8 	c #FF5E00",
"9 	c #FF9600",
"0 	c #FFCB00",
"a 	c #FFEC00",
"b 	c #FFFF00",
"c 	c #FF00DA",
"d 	c #FF0073",
"e 	c #FF1700",
"f 	c #FF7D00",
"g 	c #FF9E00",
"h 	c #FFFE00",
"i 	c #FF00E9",
"j 	c #FF5100",
"k 	c #FF8700",
"l 	c #FFD200",
"m 	c #FF00FA",
"n 	c #FF6D00",
"o 	c #FF9A00",
"p 	c #FFF000",
"q 	c #FF00A3",
"r 	c #FF0600",
"s 	c #FFA500",
"t 	c #FFF900",
"u 	c #FF00CD",
"v 	c #FF3700",
"w 	c #FFA200",
"x 	c #FFFA00",
"y 	c #FF00F4",
"z 	c #FF0081",
"A 	c #FF0049",
"B 	c #FF4D00",
"C 	c #FF9200",
"D 	c #FFF600",
"E 	c #FF00B7",
"F 	c #FF0064",
"G 	c #FF5400",
"H 	c #FFE500",
"I 	c #FF00F0",
"J 	c #FF0082",
"K 	c #FF007B",
"L 	c #FF000B",
"M 	c #FF5800",
"N 	c #F9FF00",
"O 	c #EEFF00",
"P 	c #ECFF00",
"Q 	c #FF00C5",
"R 	c #FF8600",
"S 	c #F8FF00",
"T 	c #D6FF00",
"U 	c #B4FF00",
"V 	c #8FFF00",
"W 	c #80FF00",
"X 	c #90FF00",
"Y 	c #FF00FC",
"Z 	c #FF009E",
"` 	c #FF0005",
" .	c #FF5200",
"..	c #FFC100",
"+.	c #EFFF00",
"@.	c #B8FF00",
"#.	c #83FF00",
"$.	c #B9FF00",
"%.	c #A100FF",
"&.	c #FC00FF",
"*.	c #FF00F2",
"=.	c #FF008D",
"-.	c #FF0052",
";.	c #FF4300",
">.	c #FFEF00",
",.	c #BEFF00",
"'.	c #81FF00",
").	c #8000FF",
"!.	c #C500FF",
"~.	c #FF00EB",
"{.	c #FF008A",
"].	c #FF0029",
"^.	c #FF2400",
"/.	c #FF9D00",
"(.	c #E8FF00",
"_.	c #93FF00",
":.	c #8100FF",
"<.	c #E300FF",
"[.	c #FF00ED",
"}.	c #FF0093",
"|.	c #FF0071",
"1.	c #FF000E",
"2.	c #FF7700",
"3.	c #FFC500",
"4.	c #DAFF00",
"5.	c #8900FF",
"6.	c #EC00FF",
"7.	c #FF00F6",
"8.	c #FF00AE",
"9.	c #FF0067",
"0.	c #FF0002",
"a.	c #FF6100",
"b.	c #FFDF00",
"c.	c #D8FF00",
"d.	c #8C00FF",
"e.	c #EB00FF",
"f.	c #FF0092",
"g.	c #FF0066",
"h.	c #FF3900",
"i.	c #E4FF00",
"j.	c #7AFF00",
"k.	c #6EFF00",
"l.	c #65FF00",
"m.	c #5FFF00",
"n.	c #5CFF00",
"o.	c #63FF00",
"p.	c #68FF00",
"q.	c #74FF00",
"r.	c #7FFF00",
"s.	c #8700FF",
"t.	c #DD00FF",
"u.	c #FF00D6",
"v.	c #FF009F",
"w.	c #FF006F",
"x.	c #FF0021",
"y.	c #FF7100",
"z.	c #F5FA00",
"A.	c #8DFF00",
"B.	c #73FF00",
"C.	c #55FF00",
"D.	c #2DFF00",
"E.	c #00FF00",
"F.	c #0EFF00",
"G.	c #45FF00",
"H.	c #7DFF00",
"I.	c #BB00FF",
"J.	c #F800FF",
"K.	c #FF00B6",
"L.	c #FF009D",
"M.	c #FF0083",
"N.	c #FF4346",
"O.	c #A5FF00",
"P.	c #3BFF00",
"Q.	c #1AFF00",
"R.	c #59FF00",
"S.	c #7CFF00",
"T.	c #CF00FF",
"U.	c #FA00FF",
"V.	c #A400FF",
"W.	c #00E3E3",
"X.	c #00FF91",
"Y.	c #00FF75",
"Z.	c #00FF69",
"`.	c #00FF56",
" +	c #00FF32",
".+	c #20FF00",
"++	c #67FF00",
"@+	c #BE00FF",
"#+	c #E400FF",
"$+	c #F300FF",
"%+	c #D300FF",
"&+	c #7C00FF",
"*+	c #2814FF",
"=+	c #00A6FF",
"-+	c #00FFF9",
";+	c #00FFAF",
">+	c #00FF80",
",+	c #00FF74",
"'+	c #00FF53",
")+	c #00FF12",
"!+	c #4CFF00",
"~+	c #7EFF00",
"{+	c #8200FF",
"]+	c #A200FF",
"^+	c #BA00FF",
"/+	c #C200FF",
"(+	c #C900FF",
"_+	c #C600FF",
":+	c #BF00FF",
"<+	c #AE00FF",
"[+	c #9100FF",
"}+	c #7F00FF",
"|+	c #4400FF",
"1+	c #0032FF",
"2+	c #0080FF",
"3+	c #00ECFF",
"4+	c #00FFFE",
"5+	c #00FFBF",
"6+	c #00FF7A",
"7+	c #00FF4F",
"8+	c #00FF01",
"9+	c #3CFF00",
"0+	c #5100FF",
"a+	c #0000FF",
"b+	c #004AFF",
"c+	c #00C5FF",
"d+	c #00FFFF",
"e+	c #00FFBD",
"f+	c #00FF6E",
"g+	c #00FF25",
"h+	c #3AFF00",
"i+	c #4F00FF",
"j+	c #0060FF",
"k+	c #0099FF",
"l+	c #00FFFD",
"m+	c #00FFAA",
"n+	c #00FF79",
"o+	c #00FF37",
"p+	c #46FF00",
"q+	c #7A00FF",
"r+	c #3F00FF",
"s+	c #0075FF",
"t+	c #00F6FF",
"u+	c #00FFF6",
"v+	c #00FF8D",
"w+	c #00FF7D",
"x+	c #00FF3B",
"y+	c #60FF00",
"z+	c #7B00FF",
"A+	c #6500FF",
"B+	c #1E00FF",
"C+	c #0034FF",
"D+	c #00E5FF",
"E+	c #00FFD9",
"F+	c #00FF7C",
"G+	c #00FF2F",
"H+	c #13FF00",
"I+	c #3400FF",
"J+	c #6800FF",
"K+	c #3500FF",
"L+	c #0063FF",
"M+	c #00D9FF",
"N+	c #00FFA0",
"O+	c #00FF14",
"P+	c #2100FF",
"Q+	c #5200FF",
"R+	c #6B00FF",
"S+	c #5300FF",
"T+	c #2200FF",
"U+	c #0025FF",
"V+	c #007EFF",
"W+	c #00D1FF",
"X+	c #00FFDD",
"Y+	c #00FF60",
"Z+	c #1A00FF",
"`+	c #3800FF",
" @	c #3B00FF",
".@	c #0065FF",
"+@	c #00CEFF",
"@@	c #00FF8F",
"#@	c #00FF7F",
"$@	c #00FF33",
"%@	c #0042FF",
"&@	c #00D6FF",
"*@	c #00FFC1",
"=@	c #0026FF",
"-@	c #007AFF",
";@	c #00DCFF",
">@	c #00FFE1",
",@	c #00FF2A",
"'@	c #001AFF",
")@	c #0073FF",
"!@	c #00EDFF",
"~@	c #00FFF7",
"{@	c #00FF5A",
"]@	c #001DFF",
"^@	c #0072FF",
"/@	c #0085FF",
"(@	c #00FDFF",
"_@	c #00FF8B",
":@	c #00FF73",
"<@	c #0033FF",
"[@	c #0077FF",
"}@	c #00B0FF",
"|@	c #00FFA2",
"1@	c #00FF16",
"2@	c #0004FF",
"3@	c #0056FF",
"4@	c #00FFA5",
"5@	c #00FF3E",
"6@	c #0001FF",
"7@	c #008AFF",
"8@	c #00FBFF",
"9@	c #0038FF",
"0@	c #005CFF",
"a@	c #0078FF",
"b@	c #00C9FF",
"c@	c #00FF57",
"d@	c #004DFF",
"e@	c #0070FF",
"f@	c #007CFF",
"g@	c #008EFF",
"h@	c #00F9FF",
"i@	c #00DBFF",
"j@	c #00B9FF",
"k@	c #00FCFF",
"l@	c #00A4FF",
"m@	c #00B2FF",
"n@	c #0087FF",
"o@	c #00D2FF",
"p@	c #00FF9F",
"q@	c #00EEFF",
"                                                              . .                                                               ",
"                                                            . . . .                                                             ",
"                                                          . . . . . .                                                           ",
"                                                        . . . . . . . .                                                         ",
"                                + + +                 . . . . . . . . . .                 @ @ @                                 ",
"                              + + + + + + + +       . . . . . . . . . . . .       @ @ @ @ @ @ @ @                               ",
"                              + + + + + + + + + + # . . . . . . . . . . . . $ @ @ @ @ @ @ @ @ @ @                               ",
"                              + + + + + + + + + % & . . . . . . . . . . * = - @ @ @ @ @ @ @ @ @ @                               ",
"                            + + + + + + + + + + ; . . . . . . . . . . > , @ @ @ @ @ @ @ @ @ @ @ @ @                             ",
"                            + + + + + + + + + ' ) . . . . . . . . . ! ~ @ @ @ @ @ @ @ @ @ @ @ @ @ @                             ",
"                            + + + + + + + + + { . . . . . . . . . ] ~ @ @ @ @ @ @ @ @ @ @ @ @ @ @ @                             ",
"                            + + + + + + + + + ^ . . . . . . . . . / @ @ @ @ @ @ @ @ @ @ @ @ @ @ @ @                             ",
"                            + + + + + + + + + ( . . . . . . . . _ @ @ @ @ @ @ @ @ @ @ @ @ @ @ @ @ @                             ",
"                          : + + + + + + + + < . . . . . . . . [ } @ @ @ @ @ @ @ @ @ @ @ @ @ | 1 2 3 4                           ",
"                5 5 5 5 5 6 + + + + + + + + 7 . . . . . . . . 8 @ @ @ @ @ @ @ @ @ @ @ 9 0 a b b b b b b b b b b                 ",
"          5 5 5 5 5 5 5 5 c + + + + + + + + d . . . . . . . e f @ @ @ @ @ @ @ @ @ g 4 h b b b b b b b b b b b b b b b           ",
"        5 5 5 5 5 5 5 5 5 i + + + + + + + + d . . . . . . . j @ @ @ @ @ @ @ @ k l h b b b b b b b b b b b b b b b b b b         ",
"        5 5 5 5 5 5 5 5 5 m + + + + + + + + 7 . . . . . . . n @ @ @ @ @ @ @ o p b b b b b b b b b b b b b b b b b b b b         ",
"        5 5 5 5 5 5 5 5 5 5 q + + + + + + + < . . . . . . r - @ @ @ @ @ @ s t b b b b b b b b b b b b b b b b b b b b b         ",
"          5 5 5 5 5 5 5 5 5 u + + + + + + + + # . . . . . v @ @ @ @ @ @ w x b b b b b b b b b b b b b b b b b b b b b           ",
"          5 5 5 5 5 5 5 5 5 y z + + + + + + + A . . . . . B @ @ @ @ @ C D b b b b b b b b b b b b b b b b b b b b b b           ",
"          5 5 5 5 5 5 5 5 5 5 E + + + + + + + F . . . . . G @ @ @ @ @ H b b b b b b b b b b b b b b b b b b b b b b b           ",
"          5 5 5 5 5 5 5 5 5 5 I J + + + + + + K L . . . . M @ @ @ @ 2 b b b b b b b b b b N O P P O N b b b b b b b b           ",
"            5 5 5 5 5 5 5 5 5 5 Q + + + + + + + ; . . . . = @ @ @ R D b b b b b b S T U V W W W W W W X U T S b b b             ",
"            5 5 5 5 5 5 5 5 5 5 Y Z + + + + + + 7 ` . . .  .@ @ @ ..b b b b b +.@.#.W W W W W W W W W W W W #.$.O b             ",
"            %.&.5 5 5 5 5 5 5 5 5 *.=.+ + + + + + -.. . . ;.@ @ @ >.b b b N ,.'.W W W W W W W W W W W W W W W W '.X             ",
"          ).).!.5 5 5 5 5 5 5 5 5 5 ~.{.+ + + + + ' ].. . ^.@ @ /.b b b (._.W W W W W W W W W W W W W W W W W W W W W           ",
"        ).).).:.<.5 5 5 5 5 5 5 5 5 5 [.}.+ + + + + |.1.. . 2.@ 3.b b 4.#.W W W W W W W W W W W W W W W W W W W W W W W         ",
"      ).).).).).5.6.5 5 5 5 5 5 5 5 5 5 7.8.+ + + + + 9.0.. a.@ b.b c.W W W W W W W W W W W W W W W W W W W W W W W W W W       ",
"    ).).).).).).).d.e.5 5 5 5 5 5 5 5 5 5 5 c f.+ + + + g.& h.@ p i.'.W W j.k.l.m.n.o.p.q.r.W W W W W W W W W W W W W W W W     ",
"  ).).).).).).).).).s.t.5 5 5 5 5 5 5 5 5 5 5 Y u.v.+ + + w.x.y.z.A.B.C.D.E.E.E.E.E.E.E.E.F.G.l.H.W W W W W W W W W W W W W W   ",
").).).).).).).).).).).).I.J.5 5 5 5 5 5 5 5 5 5 5 5 I 6 K.L.M.N.O.P.E.E.E.E.E.E.E.E.E.E.E.E.E.E.Q.R.S.W W W W W W W W W W W W W ",
").).).).).).).).).).).).).d.T.U.5 5 5 5 5 5 5 5 5 5 5 5 5 5 e.V.W.X.Y.Z.`. +E.E.E.E.E.E.E.E.E.E.E.E..+++W W W W W W W W W W W W ",
"  ).).).).).).).).).).).).).).5.@+#+&.5 5 5 5 5 5 5 5 $+%+V.&+*+=+-+;+>+>+>+,+'+)+E.E.E.E.E.E.E.E.E.E.E.!+~+W W W W W W W W W   ",
"    ).).).).).).).).).).).).).).).).{+]+^+/+(+_+:+<+[+).).}+|+1+2+3+4+5+>+>+>+>+6+7+8+E.E.E.E.E.E.E.E.E.E.9+S.W W W W W W W     ",
"      ).).).).).).).).).).).).).).).).).).).).).).).).).).0+a+b+2+c+d+d+e+>+>+>+>+>+f+g+E.E.E.E.E.E.E.E.E.E.h+H.W W W W W       ",
"        ).).).).).).).).).).).).).).).).).).).).).).).}+i+a+a+j+2+k+d+d+l+m+>+>+>+>+>+n+o+E.E.E.E.E.E.E.E.E.E.p+W W W W         ",
"          ).).).).).).).).).).).).).).).).).).).).).q+r+a+a+a+s+2+2+t+d+d+u+v+>+>+>+>+>+w+x+E.E.E.E.E.E.E.E.E.E.y+W W           ",
"            z+).).).).).).).).).).).).).).).).).).A+B+a+a+a+C+2+2+2+D+d+d+d+E+>+>+>+>+>+>+F+G+E.E.E.E.E.E.E.E.E.H+q.            ",
"            a+I+J+}+).).).).).).).).).).).).}+J+K+a+a+a+a+a+L+2+2+2+M+d+d+d+4+N+>+>+>+>+>+>+Y.O+E.E.E.E.E.E.E.E.E.E.            ",
"            a+a+a+P+Q+R+q+).).).).).).q+R+S+T+a+a+a+a+a+a+U+V+2+2+2+W+d+d+d+d+X+>+>+>+>+>+>+>+Y+E.E.E.E.E.E.E.E.E.E.            ",
"          a+a+a+a+a+a+a+a+Z+`+ @ @`+Z+a+a+a+a+a+a+a+a+a+a+.@2+2+2+2++@d+d+d+d+4+@@>+>+>+>+>+>+#@$@E.E.E.E.E.E.E.E.E.E.          ",
"          a+a+a+a+a+a+a+a+a+a+a+a+a+a+a+a+a+a+a+a+a+a+a+%@2+2+2+2+2+&@d+d+d+d+d+*@>+>+>+>+>+>+>+Z.E.E.E.E.E.E.E.E.E.E.          ",
"          a+a+a+a+a+a+a+a+a+a+a+a+a+a+a+a+a+a+a+a+a+a+=@-@2+2+2+2+2+;@d+d+d+d+d+>@>+>+>+>+>+>+>+>+,@E.E.E.E.E.E.E.E.E.          ",
"          a+a+a+a+a+a+a+a+a+a+a+a+a+a+a+a+a+a+a+a+a+'@)@2+2+2+2+2+2+!@d+d+d+d+d+~@>+>+>+>+>+>+>+>+{@E.E.E.E.E.E.E.E.E.          ",
"        a+a+a+a+a+a+a+a+a+a+a+a+a+a+a+a+a+a+a+a+a+]@^@2+2+2+2+2+2+/@(@d+d+d+d+d+d+_@>+>+>+>+>+>+>+:@E.E.E.E.E.E.E.E.E.E.        ",
"        a+a+a+a+a+a+a+a+a+a+a+a+a+a+a+a+a+a+a+a+<@[@2+2+2+2+2+2+2+}@d+d+d+d+d+d+d+|@>+>+>+>+>+>+>+>+1@E.E.E.E.E.E.E.E.E.        ",
"        a+a+a+a+a+a+a+a+a+a+a+a+a+a+a+a+a+a+2@3@V+2+2+2+2+2+2+2+2+M+d+d+d+d+d+d+d+4@>+>+>+>+>+>+>+>+5@E.E.E.E.E.E.E.E.E.        ",
"          a+a+a+a+a+a+a+a+a+a+a+a+a+a+a+6@b+s+2+2+2+2+2+2+2+2+2+7@8@d+d+d+d+d+d+d+4@>+>+>+>+>+>+>+>+7+E.E.E.E.E.E.E.E.          ",
"                a+a+a+a+a+a+a+a+a+a+9@0@a@2+2+2+2+2+2+2+2+2+2+2+b@d+d+d+d+d+d+d+d+|@>+>+>+>+>+>+>+>+c@E.E.E.E.E.                ",
"                          d@j+.@e@f@2+2+2+2+2+2+2+2+2+2+2+2+2+g@h@d+d+d+d+d+d+d+d+_@>+>+>+>+>+>+>+>+Z.                          ",
"                            2+2+2+2+2+2+2+2+2+2+2+2+2+2+2+2+2+i@d+d+d+d+d+d+d+d+~@>+>+>+>+>+>+>+>+>+                            ",
"                            2+2+2+2+2+2+2+2+2+2+2+2+2+2+2+2+j@d+d+d+d+d+d+d+d+d+>@>+>+>+>+>+>+>+>+>+                            ",
"                            2+2+2+2+2+2+2+2+2+2+2+2+2+2+2+=+k@d+d+d+d+d+d+d+d+d+*@>+>+>+>+>+>+>+>+>+                            ",
"                            2+2+2+2+2+2+2+2+2+2+2+2+2+2+l@h@d+d+d+d+d+d+d+d+d+4+@@>+>+>+>+>+>+>+>+>+                            ",
"                            2+2+2+2+2+2+2+2+2+2+2+2+2+m@8@d+d+d+d+d+d+d+d+d+d+X+>+>+>+>+>+>+>+>+>+>+                            ",
"                              2+2+2+2+2+2+2+2+2+2+n@o@d+d+d+d+d+d+d+d+d+d+d+4+p@>+>+>+>+>+>+>+>+>+                              ",
"                              2+2+2+2+2+2+2+2+2+2+q@d+d+d+d+d+d+d+d+d+d+d+d+~@>+>+>+>+>+>+>+>+>+>+                              ",
"                              2+2+2+2+2+2+2+2+      d+d+d+d+d+d+d+d+d+d+d+d+      >+>+>+>+>+>+>+>+                              ",
"                                2+2+2+                d+d+d+d+d+d+d+d+d+d+                >+>+>+                                ",
"                                                        d+d+d+d+d+d+d+d+                                                        ",
"                                                          d+d+d+d+d+d+                                                          ",
"                                                            d+d+d+d+                                                            ",
"                                                              d+d+                                                              "};
