/* XPM */
static char * proton_xpm[] = {
"32 32 5 1",
" 	c None",
".	c #808080",
"+	c #FFFFFF",
"@	c #000000",
"#	c #000080",
"................................",
"................................",
"..++++++++++++++++++++++++++++@.",
"..++++++++++++++++++++++++++++@.",
"..++++++++++++++++++++++++++++@.",
"..++++++++++++++++++++++++++++@.",
"..+++#################++++++++@.",
"..+++#################++++++++@.",
"..++++++++++++++++++++++++++++@.",
"..++++++++++++++++++++++++++++@.",
"..+++###################++++++@.",
"..+++###################++++++@.",
"..++++++++++++++++++++++++++++@.",
"..++++++++++++++++++++++++++++@.",
"..+++###############++++++++++@.",
"..+++###############++++++++++@.",
"..++++++++++++++++++++++++++++@.",
"..++++++++++++++++++++++++++++@.",
"..+++###################++++++@.",
"..+++###################++++++@.",
"..++++++++++++++++++++++++++++@.",
"..++++++++++++++++++++++++++++@.",
"..+++################+++++++++@.",
"..+++################+++++++++@.",
"..++++++++++++++++++++++++++++@.",
"..++++++++++++++++++++++++++++@.",
"..+++##################+++++++@.",
"..+++##################+++++++@.",
"..++++++++++++++++++++++++++++@.",
"..++++++++++++++++++++++++++++@.",
"..@@@@@@@@@@@@@@@@@@@@@@@@@@@@@.",
"................................"};
