<?xml version="1.0" encoding="UTF-8" standalone="no"?>
<!DOCTYPE svg PUBLIC "-//W3C//DTD SVG 1.1//EN" "http://www.w3.org/Graphics/SVG/1.1/DTD/svg11.dtd">
<svg width="100%" height="100%" viewBox="0 0 362 550" version="1.1" xmlns="http://www.w3.org/2000/svg" xmlns:xlink="http://www.w3.org/1999/xlink" xml:space="preserve" xmlns:serif="http://www.serif.com/" style="fill-rule:evenodd;clip-rule:evenodd;stroke-miterlimit:2;">
    <g transform="matrix(1,0,0,1,-272.976,-55.034)">
        <g transform="matrix(0.1,0,0,0.1,69.4292,-366.8)">
            <path d="M5525,4234C5492,4242 4631,4351 4517,4389C4243,4480 4038,4626 3906,4824C3808,4972 3760,5140 3734,5429C3724,5533 3719,5621 3722,5623C3728,5629 3851,5505 3877,5468C3900,5436 4180,5178 4292,5086C4473,4938 5093.6,4583.38 5164,4557C5129.99,4583.73 4804,4807 4655,4928C4485,5065 4186,5381 4038,5580C3996,5635 3870,5819 3870,5824C3870,5826 4002,5828 4163,5828C4566,5828 4730,5801 4922,5701C5188,5564 5649.8,4218.34 5649.8,4218.34C5649.8,4218.34 5558,4226 5525,4234Z" style="fill:rgb(0,181,161);fill-rule:nonzero;"/>
        </g>
        <g transform="matrix(0.1,0,0,0.1,69.4292,-443)">
            <path d="M2061,5074C2053,5084 2049,5182 2048,5405C2047,5703 2048,5724 2065,5737C2080,5747 2150,5750 2390,5750C2650,5750 2699,5748 2718,5734C2740,5719 2740,5718 2740,5400C2740,5095 2739,5080 2721,5070C2709,5064 2585,5060 2387,5060C2131,5060 2070,5063 2061,5074Z" style="fill:rgb(37,57,73);fill-rule:nonzero;"/>
        </g>
        <g transform="matrix(0.1,0,0,0.1,69.4292,-443)">
            <path d="M2916,5076C2902,5089 2900,5133 2900,5405L2900,5720L2924,5735C2944,5749 2990,5750 3257,5748C3502,5746 3570,5742 3583,5731C3598,5719 3600,5683 3600,5404C3600,5133 3598,5089 3584,5076C3571,5062 3526,5060 3250,5060C2974,5060 2929,5062 2916,5076Z" style="fill:rgb(37,57,73);fill-rule:nonzero;"/>
        </g>
        <g transform="matrix(0.1,0,0,0.1,69.4292,-275.3)">
            <path d="M2074,4233C2062,4237 2051,4247 2048,4255C2046,4262 2044,4406 2045,4575C2046,4813 2049,4885 2059,4897C2071,4911 2112,4913 2394,4913C2631,4913 2719,4910 2728,4901C2737,4892 2740,4804 2740,4566C2740,4258 2739,4243 2721,4233C2697,4221 2105,4220 2074,4233Z" style="fill:rgb(37,57,73);fill-rule:nonzero;"/>
        </g>
        <g transform="matrix(0.1,0,0,0.1,69.4292,-275)">
            <path d="M2940,4227C2902,4241 2900,4255 2900,4571C2900,4837 2902,4881 2916,4894C2929,4908 2974,4910 3250,4910C3526,4910 3571,4908 3584,4894C3598,4881 3600,4837 3600,4565C3600,4252 3600,4251 3578,4236C3559,4222 3512,4220 3255,4221C3090,4221 2948,4224 2940,4227Z" style="fill:rgb(37,57,73);fill-rule:nonzero;"/>
        </g>
        <g transform="matrix(0.1,0,0,0.1,69.4292,-105)">
            <path d="M2058,3389C2047,3404 2045,3472 2047,3722C2049,4004 2051,4036 2067,4047C2080,4057 2160,4060 2390,4060C2650,4060 2699,4058 2718,4044C2740,4029 2740,4028 2740,3711C2740,3478 2737,3391 2728,3382C2719,3373 2631,3370 2394,3370C2087,3370 2070,3371 2058,3389Z" style="fill:rgb(37,57,73);fill-rule:nonzero;"/>
        </g>
        <g transform="matrix(0.1,0,0,0.1,69.4292,-105)">
            <path d="M2916,3386C2902,3399 2900,3443 2900,3715C2900,4028 2900,4029 2922,4044C2941,4058 2990,4060 3252,4060C3547,4060 3561,4059 3580,4040C3599,4021 3600,4007 3600,3711C3600,3443 3598,3399 3584,3386C3571,3372 3526,3370 3250,3370C2974,3370 2929,3372 2916,3386Z" style="fill:rgb(37,57,73);fill-rule:nonzero;"/>
        </g>
        <g transform="matrix(0.1,0,0,0.1,69.4292,-105)">
            <path d="M3766,3389C3750,3406 3749,3437 3751,3715C3753,4000 3754,4024 3772,4042C3789,4059 3812,4060 4098,4060C4360,4060 4409,4058 4428,4044C4450,4029 4450,4028 4450,3711C4450,3478 4447,3391 4438,3382C4429,3373 4341,3370 4105,3370C3802,3370 3782,3371 3766,3389Z" style="fill:rgb(37,57,73);fill-rule:nonzero;"/>
        </g>
        <g transform="matrix(0.1,0,0,0.1,69.4292,-106)">
            <path d="M4629,3397C4618,3410 4614,3478 4613,3721C4610,3989 4612,4031 4626,4044C4639,4058 4683,4060 4955,4060C5227,4060 5271,4058 5284,4044C5298,4031 5300,3987 5300,3720C5300,3453 5298,3409 5284,3396C5271,3382 5227,3380 4956,3380C4677,3380 4641,3382 4629,3397Z" style="fill:rgb(37,57,73);fill-rule:nonzero;"/>
        </g>
        <g transform="matrix(0.1,0,0,0.1,69.4292,63)">
            <path d="M2060,2550C2041,2569 2040,2582 2041,2876C2043,3161 2044,3184 2061,3201C2079,3219 2101,3220 2391,3220C2586,3220 2709,3216 2721,3210C2739,3200 2740,3185 2740,2880C2740,2604 2738,2559 2724,2546C2711,2532 2667,2530 2394,2530C2093,2530 2079,2531 2060,2550Z" style="fill:rgb(37,57,73);fill-rule:nonzero;"/>
        </g>
        <g transform="matrix(0.1,0,0,0.1,69.4292,63.8)">
            <path d="M2922,2538C2900,2553 2900,2554 2900,2867C2900,3139 2902,3183 2916,3196C2939,3220 3544,3220 3578,3196C3600,3181 3600,3180 3600,2871C3600,2575 3599,2561 3580,2542C3561,2523 3547,2522 3252,2522C2990,2522 2941,2524 2922,2538Z" style="fill:rgb(37,57,73);fill-rule:nonzero;"/>
        </g>
        <g transform="matrix(0.1,0,0,0.1,69.4292,63)">
            <path d="M3770,2550C3751,2569 3750,2583 3750,2873C3750,3131 3752,3179 3766,3198C3781,3220 3782,3220 4096,3220C4294,3220 4418,3216 4431,3210C4449,3200 4450,3185 4450,2875C4450,2565 4449,2550 4431,2540C4419,2534 4296,2530 4101,2530C3803,2530 3789,2531 3770,2550Z" style="fill:rgb(37,57,73);fill-rule:nonzero;"/>
        </g>
        <g transform="matrix(0.1,0,0,0.1,69.4292,63)">
            <path d="M4626,2546C4612,2559 4610,2603 4610,2875C4610,3147 4612,3191 4626,3204C4639,3218 4684,3220 4960,3220C5278,3220 5279,3220 5294,3198C5308,3179 5310,3131 5310,2873C5310,2583 5309,2569 5290,2550C5271,2531 5257,2530 4956,2530C4683,2530 4639,2532 4626,2546Z" style="fill:rgb(37,57,73);fill-rule:nonzero;"/>
        </g>
        <g transform="matrix(1,0,0,1,69.4292,0)">
            <path d="M377.4,109.31C391.479,89.326 412.003,73.95 438.667,63.412C432.983,63.153 423.569,63 411.327,63C385.727,63 379.627,63.3 378.727,64.4C377.927,65.4 377.527,75.2 377.427,97.5C377.412,102.05 377.401,105.955 377.4,109.31Z" style="fill:rgb(37,57,73);fill-rule:nonzero;"/>
        </g>
        <g transform="matrix(18.349,0,0,18.349,-805.187,-8358.41)">
            <path d="M58.809,486.026L58.809,477.571L60.526,477.571L64.617,483.083L63.092,482.323L64.157,482.323L64.157,477.571L66.197,477.571L66.197,486.026L64.493,486.026L60.389,480.466L61.914,481.23L60.849,481.23L60.849,486.026L58.809,486.026Z" style="fill:rgb(0,181,161);fill-rule:nonzero;"/>
            <path d="M68.275,486.026L68.275,484.506L70.65,484.506C71.095,484.506 71.435,484.411 71.671,484.221C71.906,484.032 72.024,483.759 72.024,483.404L72.024,483.392C72.024,483.161 71.97,482.966 71.862,482.807C71.755,482.648 71.599,482.527 71.393,482.445C71.188,482.362 70.937,482.321 70.64,482.321L68.275,482.321L68.275,481.018L70.485,481.018C70.877,481.018 71.182,480.932 71.4,480.761C71.617,480.59 71.726,480.356 71.726,480.061L71.726,480.049C71.726,479.751 71.624,479.517 71.422,479.347C71.219,479.176 70.935,479.091 70.571,479.091L68.275,479.091L68.275,477.571L71.144,477.571C71.708,477.571 72.19,477.655 72.588,477.824C72.987,477.993 73.292,478.235 73.506,478.549C73.719,478.864 73.825,479.239 73.825,479.674L73.825,479.686C73.825,479.988 73.756,480.267 73.618,480.523C73.48,480.78 73.293,480.993 73.058,481.163C72.822,481.332 72.554,481.438 72.254,481.48L72.254,481.592C72.623,481.609 72.955,481.708 73.252,481.89C73.548,482.072 73.783,482.31 73.957,482.604C74.13,482.898 74.217,483.223 74.217,483.58L74.217,483.591C74.217,484.083 74.096,484.512 73.854,484.878C73.612,485.243 73.271,485.526 72.83,485.726C72.389,485.926 71.867,486.026 71.262,486.026L68.275,486.026ZM67.2,486.026L67.2,477.571L69.35,477.571L69.35,486.026L67.2,486.026Z" style="fill:rgb(0,181,161);fill-rule:nonzero;"/>
            <rect x="74.454" y="477.571" width="2.151" height="8.455" style="fill:rgb(0,181,161);fill-rule:nonzero;"/>
        </g>
        <g transform="matrix(2.21296,0,0,2.21296,206.6,-302.015)">
            <path d="M30.196,409.071L30.196,400.616L30.984,400.616L36.121,407.933L35.567,407.641L35.988,407.641L35.988,400.616L36.776,400.616L36.776,409.071L36.008,409.071L30.852,401.749L31.405,402.04L30.985,402.04L30.985,409.071L30.196,409.071Z" style="fill:none;fill-rule:nonzero;stroke:rgb(37,57,73);stroke-width:0.18px;"/>
            <path d="M30.196,409.071L30.196,400.616L30.984,400.616L36.121,407.933L35.567,407.641L35.988,407.641L35.988,400.616L36.776,400.616L36.776,409.071L36.008,409.071L30.852,401.749L31.405,402.04L30.985,402.04L30.985,409.071L30.196,409.071Z" style="fill:rgb(37,57,73);fill-rule:nonzero;"/>
            <path d="M41.034,409.177C40.444,409.177 39.935,409.044 39.507,408.779C39.08,408.514 38.751,408.139 38.52,407.653C38.288,407.168 38.173,406.595 38.173,405.936L38.173,405.927C38.173,405.268 38.288,404.694 38.519,404.205C38.749,403.715 39.075,403.334 39.496,403.061C39.917,402.789 40.409,402.653 40.972,402.653C41.537,402.653 42.025,402.785 42.434,403.048C42.843,403.312 43.157,403.679 43.377,404.15C43.597,404.621 43.707,405.168 43.707,405.791L43.707,406.115L38.571,406.115L38.571,405.487L43.315,405.487L42.935,406.056L42.935,405.761C42.935,405.231 42.852,404.788 42.685,404.431C42.519,404.074 42.288,403.803 41.993,403.62C41.697,403.437 41.355,403.345 40.968,403.345C40.58,403.345 40.235,403.439 39.934,403.628C39.632,403.817 39.395,404.091 39.221,404.451C39.048,404.811 38.961,405.248 38.961,405.761L38.961,406.056C38.961,406.56 39.047,406.993 39.217,407.355C39.388,407.718 39.63,407.997 39.943,408.192C40.257,408.387 40.626,408.485 41.05,408.485C41.358,408.485 41.631,408.442 41.87,408.355C42.109,408.269 42.31,408.155 42.471,408.013C42.632,407.871 42.747,407.719 42.815,407.557L42.835,407.512L43.611,407.512L43.597,407.559C43.534,407.774 43.431,407.978 43.287,408.171C43.143,408.364 42.963,408.536 42.745,408.687C42.528,408.838 42.276,408.958 41.988,409.045C41.701,409.133 41.383,409.177 41.034,409.177Z" style="fill:none;fill-rule:nonzero;stroke:rgb(37,57,73);stroke-width:0.18px;"/>
            <path d="M41.034,409.177C40.444,409.177 39.935,409.044 39.507,408.779C39.08,408.514 38.751,408.139 38.52,407.653C38.288,407.168 38.173,406.595 38.173,405.936L38.173,405.927C38.173,405.268 38.288,404.694 38.519,404.205C38.749,403.715 39.075,403.334 39.496,403.061C39.917,402.789 40.409,402.653 40.972,402.653C41.537,402.653 42.025,402.785 42.434,403.048C42.843,403.312 43.157,403.679 43.377,404.15C43.597,404.621 43.707,405.168 43.707,405.791L43.707,406.115L38.571,406.115L38.571,405.487L43.315,405.487L42.935,406.056L42.935,405.761C42.935,405.231 42.852,404.788 42.685,404.431C42.519,404.074 42.288,403.803 41.993,403.62C41.697,403.437 41.355,403.345 40.968,403.345C40.58,403.345 40.235,403.439 39.934,403.628C39.632,403.817 39.395,404.091 39.221,404.451C39.048,404.811 38.961,405.248 38.961,405.761L38.961,406.056C38.961,406.56 39.047,406.993 39.217,407.355C39.388,407.718 39.63,407.997 39.943,408.192C40.257,408.387 40.626,408.485 41.05,408.485C41.358,408.485 41.631,408.442 41.87,408.355C42.109,408.269 42.31,408.155 42.471,408.013C42.632,407.871 42.747,407.719 42.815,407.557L42.835,407.512L43.611,407.512L43.597,407.559C43.534,407.774 43.431,407.978 43.287,408.171C43.143,408.364 42.963,408.536 42.745,408.687C42.528,408.838 42.276,408.958 41.988,409.045C41.701,409.133 41.383,409.177 41.034,409.177Z" style="fill:rgb(37,57,73);fill-rule:nonzero;"/>
            <path d="M45.827,409.071L44.039,402.758L44.813,402.758L46.216,408.123L46.287,408.123L47.847,402.758L48.616,402.758L50.176,408.123L50.248,408.123L51.66,402.758L52.43,402.758L50.633,409.071L49.821,409.071L48.262,403.825L48.19,403.825L46.634,409.071L45.827,409.071Z" style="fill:none;fill-rule:nonzero;stroke:rgb(37,57,73);stroke-width:0.18px;"/>
            <path d="M45.827,409.071L44.039,402.758L44.813,402.758L46.216,408.123L46.287,408.123L47.847,402.758L48.616,402.758L50.176,408.123L50.248,408.123L51.66,402.758L52.43,402.758L50.633,409.071L49.821,409.071L48.262,403.825L48.19,403.825L46.634,409.071L45.827,409.071Z" style="fill:rgb(37,57,73);fill-rule:nonzero;"/>
            <path d="M56.176,409.071L56.176,408.363L58.742,408.363C59.478,408.363 60.03,408.219 60.397,407.932C60.765,407.645 60.949,407.243 60.949,406.725L60.949,406.713C60.949,406.36 60.859,406.06 60.681,405.814C60.502,405.568 60.243,405.382 59.903,405.254C59.563,405.127 59.153,405.064 58.673,405.064L56.176,405.064L56.176,404.371L58.469,404.371C59.124,404.371 59.631,404.238 59.989,403.972C60.347,403.705 60.526,403.326 60.526,402.835L60.526,402.824C60.526,402.357 60.36,401.991 60.028,401.724C59.697,401.458 59.238,401.324 58.653,401.324L56.176,401.324L56.176,400.616L58.81,400.616C59.33,400.616 59.779,400.702 60.155,400.874C60.531,401.046 60.821,401.287 61.025,401.599C61.228,401.91 61.33,402.277 61.33,402.699L61.33,402.711C61.33,403.022 61.263,403.311 61.129,403.576C60.995,403.841 60.812,404.063 60.581,404.243C60.349,404.422 60.082,404.541 59.781,404.597L59.781,404.665C60.166,404.712 60.508,404.827 60.806,405.009C61.103,405.192 61.338,405.43 61.509,405.725C61.68,406.02 61.765,406.361 61.765,406.749L61.765,406.761C61.765,407.237 61.653,407.648 61.428,407.994C61.203,408.339 60.875,408.605 60.444,408.792C60.012,408.978 59.482,409.071 58.854,409.071L56.176,409.071ZM55.778,409.071L55.778,400.616L56.575,400.616L56.575,409.071L55.778,409.071Z" style="fill:none;fill-rule:nonzero;stroke:rgb(37,57,73);stroke-width:0.18px;"/>
            <path d="M56.176,409.071L56.176,408.363L58.742,408.363C59.478,408.363 60.03,408.219 60.397,407.932C60.765,407.645 60.949,407.243 60.949,406.725L60.949,406.713C60.949,406.36 60.859,406.06 60.681,405.814C60.502,405.568 60.243,405.382 59.903,405.254C59.563,405.127 59.153,405.064 58.673,405.064L56.176,405.064L56.176,404.371L58.469,404.371C59.124,404.371 59.631,404.238 59.989,403.972C60.347,403.705 60.526,403.326 60.526,402.835L60.526,402.824C60.526,402.357 60.36,401.991 60.028,401.724C59.697,401.458 59.238,401.324 58.653,401.324L56.176,401.324L56.176,400.616L58.81,400.616C59.33,400.616 59.779,400.702 60.155,400.874C60.531,401.046 60.821,401.287 61.025,401.599C61.228,401.91 61.33,402.277 61.33,402.699L61.33,402.711C61.33,403.022 61.263,403.311 61.129,403.576C60.995,403.841 60.812,404.063 60.581,404.243C60.349,404.422 60.082,404.541 59.781,404.597L59.781,404.665C60.166,404.712 60.508,404.827 60.806,405.009C61.103,405.192 61.338,405.43 61.509,405.725C61.68,406.02 61.765,406.361 61.765,406.749L61.765,406.761C61.765,407.237 61.653,407.648 61.428,407.994C61.203,408.339 60.875,408.605 60.444,408.792C60.012,408.978 59.482,409.071 58.854,409.071L56.176,409.071ZM55.778,409.071L55.778,400.616L56.575,400.616L56.575,409.071L55.778,409.071Z" style="fill:rgb(37,57,73);fill-rule:nonzero;"/>
            <path d="M64.676,409.177C64.272,409.177 63.911,409.101 63.593,408.95C63.275,408.799 63.025,408.585 62.843,408.308C62.66,408.031 62.569,407.706 62.569,407.333L62.569,407.322C62.569,406.955 62.657,406.641 62.833,406.379C63.009,406.117 63.267,405.911 63.606,405.76C63.945,405.61 64.358,405.519 64.844,405.488L67.199,405.331L67.199,405.959L64.945,406.114C64.408,406.149 64.009,406.267 63.748,406.468C63.487,406.67 63.357,406.949 63.357,407.306L63.357,407.317C63.357,407.681 63.495,407.969 63.769,408.182C64.044,408.394 64.395,408.501 64.821,408.501C65.2,408.501 65.54,408.422 65.841,408.264C66.141,408.106 66.378,407.893 66.552,407.625C66.726,407.356 66.813,407.055 66.813,406.719L66.813,404.763C66.813,404.299 66.677,403.946 66.404,403.704C66.132,403.462 65.74,403.341 65.229,403.341C64.8,403.341 64.442,403.425 64.155,403.594C63.869,403.762 63.683,404.004 63.599,404.317L63.595,404.331L62.821,404.331L62.825,404.305C62.881,403.968 63.018,403.676 63.236,403.43C63.454,403.183 63.736,402.992 64.081,402.856C64.425,402.72 64.816,402.653 65.253,402.653C65.747,402.653 66.167,402.736 66.515,402.902C66.862,403.068 67.128,403.308 67.311,403.622C67.494,403.936 67.585,404.315 67.585,404.76L67.585,409.071L66.813,409.071L66.813,407.983L66.742,407.983C66.616,408.231 66.452,408.445 66.248,408.624C66.044,408.803 65.81,408.94 65.545,409.035C65.279,409.13 64.99,409.177 64.676,409.177Z" style="fill:none;fill-rule:nonzero;stroke:rgb(37,57,73);stroke-width:0.18px;"/>
            <path d="M64.676,409.177C64.272,409.177 63.911,409.101 63.593,408.95C63.275,408.799 63.025,408.585 62.843,408.308C62.66,408.031 62.569,407.706 62.569,407.333L62.569,407.322C62.569,406.955 62.657,406.641 62.833,406.379C63.009,406.117 63.267,405.911 63.606,405.76C63.945,405.61 64.358,405.519 64.844,405.488L67.199,405.331L67.199,405.959L64.945,406.114C64.408,406.149 64.009,406.267 63.748,406.468C63.487,406.67 63.357,406.949 63.357,407.306L63.357,407.317C63.357,407.681 63.495,407.969 63.769,408.182C64.044,408.394 64.395,408.501 64.821,408.501C65.2,408.501 65.54,408.422 65.841,408.264C66.141,408.106 66.378,407.893 66.552,407.625C66.726,407.356 66.813,407.055 66.813,406.719L66.813,404.763C66.813,404.299 66.677,403.946 66.404,403.704C66.132,403.462 65.74,403.341 65.229,403.341C64.8,403.341 64.442,403.425 64.155,403.594C63.869,403.762 63.683,404.004 63.599,404.317L63.595,404.331L62.821,404.331L62.825,404.305C62.881,403.968 63.018,403.676 63.236,403.43C63.454,403.183 63.736,402.992 64.081,402.856C64.425,402.72 64.816,402.653 65.253,402.653C65.747,402.653 66.167,402.736 66.515,402.902C66.862,403.068 67.128,403.308 67.311,403.622C67.494,403.936 67.585,404.315 67.585,404.76L67.585,409.071L66.813,409.071L66.813,407.983L66.742,407.983C66.616,408.231 66.452,408.445 66.248,408.624C66.044,408.803 65.81,408.94 65.545,409.035C65.279,409.13 64.99,409.177 64.676,409.177Z" style="fill:rgb(37,57,73);fill-rule:nonzero;"/>
            <path d="M71.042,409.114C70.442,409.114 70.01,408.989 69.743,408.737C69.477,408.486 69.344,408.074 69.344,407.502L69.344,403.406L68.329,403.406L68.329,402.758L69.344,402.758L69.344,401.12L70.14,401.12L70.14,402.758L71.585,402.758L71.585,403.406L70.14,403.406L70.14,407.326C70.14,407.714 70.216,407.995 70.368,408.167C70.521,408.34 70.774,408.426 71.13,408.426C71.217,408.426 71.295,408.424 71.363,408.419C71.431,408.415 71.505,408.409 71.585,408.403L71.585,409.065C71.496,409.078 71.408,409.09 71.319,409.1C71.231,409.109 71.138,409.114 71.042,409.114Z" style="fill:none;fill-rule:nonzero;stroke:rgb(37,57,73);stroke-width:0.18px;"/>
            <path d="M71.042,409.114C70.442,409.114 70.01,408.989 69.743,408.737C69.477,408.486 69.344,408.074 69.344,407.502L69.344,403.406L68.329,403.406L68.329,402.758L69.344,402.758L69.344,401.12L70.14,401.12L70.14,402.758L71.585,402.758L71.585,403.406L70.14,403.406L70.14,407.326C70.14,407.714 70.216,407.995 70.368,408.167C70.521,408.34 70.774,408.426 71.13,408.426C71.217,408.426 71.295,408.424 71.363,408.419C71.431,408.415 71.505,408.409 71.585,408.403L71.585,409.065C71.496,409.078 71.408,409.09 71.319,409.1C71.231,409.109 71.138,409.114 71.042,409.114Z" style="fill:rgb(37,57,73);fill-rule:nonzero;"/>
            <path d="M74.93,409.177C74.35,409.177 73.847,409.043 73.42,408.774C72.994,408.506 72.664,408.127 72.431,407.636C72.198,407.145 72.081,406.566 72.081,405.899L72.081,405.887C72.081,405.23 72.197,404.66 72.429,404.176C72.661,403.693 72.99,403.318 73.416,403.052C73.843,402.786 74.346,402.653 74.926,402.653C75.407,402.653 75.828,402.738 76.191,402.909C76.553,403.08 76.847,403.312 77.072,403.604C77.297,403.897 77.443,404.226 77.509,404.594L77.51,404.616L76.743,404.62L76.739,404.604C76.646,404.241 76.442,403.94 76.125,403.7C75.808,403.461 75.408,403.341 74.926,403.341C74.506,403.341 74.143,403.445 73.834,403.654C73.526,403.862 73.288,404.157 73.121,404.538C72.953,404.919 72.869,405.369 72.869,405.887L72.869,405.899C72.869,406.424 72.954,406.881 73.124,407.269C73.293,407.657 73.532,407.957 73.84,408.17C74.148,408.382 74.51,408.489 74.926,408.489C75.393,408.489 75.783,408.383 76.093,408.173C76.404,407.962 76.616,407.666 76.73,407.283L76.74,407.257L77.506,407.251L77.498,407.299C77.414,407.668 77.262,407.994 77.042,408.277C76.822,408.559 76.536,408.78 76.183,408.939C75.829,409.098 75.412,409.177 74.93,409.177Z" style="fill:none;fill-rule:nonzero;stroke:rgb(37,57,73);stroke-width:0.18px;"/>
            <path d="M74.93,409.177C74.35,409.177 73.847,409.043 73.42,408.774C72.994,408.506 72.664,408.127 72.431,407.636C72.198,407.145 72.081,406.566 72.081,405.899L72.081,405.887C72.081,405.23 72.197,404.66 72.429,404.176C72.661,403.693 72.99,403.318 73.416,403.052C73.843,402.786 74.346,402.653 74.926,402.653C75.407,402.653 75.828,402.738 76.191,402.909C76.553,403.08 76.847,403.312 77.072,403.604C77.297,403.897 77.443,404.226 77.509,404.594L77.51,404.616L76.743,404.62L76.739,404.604C76.646,404.241 76.442,403.94 76.125,403.7C75.808,403.461 75.408,403.341 74.926,403.341C74.506,403.341 74.143,403.445 73.834,403.654C73.526,403.862 73.288,404.157 73.121,404.538C72.953,404.919 72.869,405.369 72.869,405.887L72.869,405.899C72.869,406.424 72.954,406.881 73.124,407.269C73.293,407.657 73.532,407.957 73.84,408.17C74.148,408.382 74.51,408.489 74.926,408.489C75.393,408.489 75.783,408.383 76.093,408.173C76.404,407.962 76.616,407.666 76.73,407.283L76.74,407.257L77.506,407.251L77.498,407.299C77.414,407.668 77.262,407.994 77.042,408.277C76.822,408.559 76.536,408.78 76.183,408.939C75.829,409.098 75.412,409.177 74.93,409.177Z" style="fill:rgb(37,57,73);fill-rule:nonzero;"/>
            <path d="M78.47,409.071L78.47,400.247L79.242,400.247L79.242,403.87L79.313,403.87C79.483,403.486 79.737,403.187 80.074,402.973C80.411,402.76 80.824,402.653 81.314,402.653C81.783,402.653 82.182,402.743 82.511,402.925C82.841,403.107 83.093,403.37 83.267,403.714C83.441,404.059 83.528,404.476 83.528,404.967L83.528,409.071L82.756,409.071L82.756,405.159C82.756,404.557 82.619,404.103 82.345,403.798C82.071,403.493 81.661,403.341 81.115,403.341C80.744,403.341 80.417,403.423 80.136,403.588C79.855,403.753 79.636,403.983 79.478,404.279C79.321,404.575 79.242,404.922 79.242,405.322L79.242,409.071L78.47,409.071Z" style="fill:none;fill-rule:nonzero;stroke:rgb(37,57,73);stroke-width:0.18px;"/>
            <path d="M78.47,409.071L78.47,400.247L79.242,400.247L79.242,403.87L79.313,403.87C79.483,403.486 79.737,403.187 80.074,402.973C80.411,402.76 80.824,402.653 81.314,402.653C81.783,402.653 82.182,402.743 82.511,402.925C82.841,403.107 83.093,403.37 83.267,403.714C83.441,404.059 83.528,404.476 83.528,404.967L83.528,409.071L82.756,409.071L82.756,405.159C82.756,404.557 82.619,404.103 82.345,403.798C82.071,403.493 81.661,403.341 81.115,403.341C80.744,403.341 80.417,403.423 80.136,403.588C79.855,403.753 79.636,403.983 79.478,404.279C79.321,404.575 79.242,404.922 79.242,405.322L79.242,409.071L78.47,409.071Z" style="fill:rgb(37,57,73);fill-rule:nonzero;"/>
            <rect x="87.436" y="400.616" width="0.796" height="8.455" style="fill:none;fill-rule:nonzero;stroke:rgb(37,57,73);stroke-width:0.18px;"/>
            <rect x="87.436" y="400.616" width="0.796" height="8.455" style="fill:rgb(37,57,73);fill-rule:nonzero;"/>
            <path d="M90.036,409.071L90.036,402.758L90.808,402.758L90.808,403.87L90.88,403.87C91.05,403.486 91.303,403.187 91.64,402.973C91.976,402.76 92.39,402.653 92.88,402.653C93.585,402.653 94.13,402.855 94.516,403.259C94.902,403.663 95.095,404.233 95.095,404.967L95.095,409.071L94.323,409.071L94.323,405.159C94.323,404.559 94.186,404.106 93.912,403.8C93.639,403.494 93.229,403.341 92.682,403.341C92.31,403.341 91.984,403.423 91.703,403.588C91.421,403.753 91.202,403.983 91.045,404.279C90.887,404.575 90.808,404.922 90.808,405.322L90.808,409.071L90.036,409.071Z" style="fill:none;fill-rule:nonzero;stroke:rgb(37,57,73);stroke-width:0.18px;"/>
            <path d="M90.036,409.071L90.036,402.758L90.808,402.758L90.808,403.87L90.88,403.87C91.05,403.486 91.303,403.187 91.64,402.973C91.976,402.76 92.39,402.653 92.88,402.653C93.585,402.653 94.13,402.855 94.516,403.259C94.902,403.663 95.095,404.233 95.095,404.967L95.095,409.071L94.323,409.071L94.323,405.159C94.323,404.559 94.186,404.106 93.912,403.8C93.639,403.494 93.229,403.341 92.682,403.341C92.31,403.341 91.984,403.423 91.703,403.588C91.421,403.753 91.202,403.983 91.045,404.279C90.887,404.575 90.808,404.922 90.808,405.322L90.808,409.071L90.036,409.071Z" style="fill:rgb(37,57,73);fill-rule:nonzero;"/>
            <path d="M98.44,409.114C97.841,409.114 97.408,408.989 97.142,408.737C96.875,408.486 96.742,408.074 96.742,407.502L96.742,403.406L95.727,403.406L95.727,402.758L96.742,402.758L96.742,401.12L97.538,401.12L97.538,402.758L98.984,402.758L98.984,403.406L97.538,403.406L97.538,407.326C97.538,407.714 97.614,407.995 97.767,408.167C97.919,408.34 98.173,408.426 98.528,408.426C98.615,408.426 98.693,408.424 98.761,408.419C98.829,408.415 98.904,408.409 98.984,408.403L98.984,409.065C98.895,409.078 98.806,409.09 98.718,409.1C98.629,409.109 98.537,409.114 98.44,409.114Z" style="fill:none;fill-rule:nonzero;stroke:rgb(37,57,73);stroke-width:0.18px;"/>
            <path d="M98.44,409.114C97.841,409.114 97.408,408.989 97.142,408.737C96.875,408.486 96.742,408.074 96.742,407.502L96.742,403.406L95.727,403.406L95.727,402.758L96.742,402.758L96.742,401.12L97.538,401.12L97.538,402.758L98.984,402.758L98.984,403.406L97.538,403.406L97.538,407.326C97.538,407.714 97.614,407.995 97.767,408.167C97.919,408.34 98.173,408.426 98.528,408.426C98.615,408.426 98.693,408.424 98.761,408.419C98.829,408.415 98.904,408.409 98.984,408.403L98.984,409.065C98.895,409.078 98.806,409.09 98.718,409.1C98.629,409.109 98.537,409.114 98.44,409.114Z" style="fill:rgb(37,57,73);fill-rule:nonzero;"/>
            <path d="M102.341,409.177C101.75,409.177 101.241,409.044 100.814,408.779C100.387,408.514 100.058,408.139 99.826,407.653C99.595,407.168 99.48,406.595 99.48,405.936L99.48,405.927C99.48,405.268 99.595,404.694 99.825,404.205C100.056,403.715 100.382,403.334 100.803,403.061C101.223,402.789 101.715,402.653 102.278,402.653C102.844,402.653 103.331,402.785 103.74,403.048C104.149,403.312 104.464,403.679 104.684,404.15C104.904,404.621 105.014,405.168 105.014,405.791L105.014,406.115L99.878,406.115L99.878,405.487L104.622,405.487L104.242,406.056L104.242,405.761C104.242,405.231 104.158,404.788 103.992,404.431C103.826,404.074 103.595,403.803 103.299,403.62C103.004,403.437 102.662,403.345 102.274,403.345C101.886,403.345 101.542,403.439 101.24,403.628C100.939,403.817 100.702,404.091 100.528,404.451C100.355,404.811 100.268,405.248 100.268,405.761L100.268,406.056C100.268,406.56 100.353,406.993 100.524,407.355C100.695,407.718 100.937,407.997 101.25,408.192C101.563,408.387 101.932,408.485 102.357,408.485C102.664,408.485 102.937,408.442 103.177,408.355C103.416,408.269 103.616,408.155 103.778,408.013C103.939,407.871 104.054,407.719 104.122,407.557L104.142,407.512L104.918,407.512L104.904,407.559C104.841,407.774 104.737,407.978 104.594,408.171C104.45,408.364 104.269,408.536 104.052,408.687C103.834,408.838 103.582,408.958 103.295,409.045C103.008,409.133 102.69,409.177 102.341,409.177Z" style="fill:none;fill-rule:nonzero;stroke:rgb(37,57,73);stroke-width:0.18px;"/>
            <path d="M102.341,409.177C101.75,409.177 101.241,409.044 100.814,408.779C100.387,408.514 100.058,408.139 99.826,407.653C99.595,407.168 99.48,406.595 99.48,405.936L99.48,405.927C99.48,405.268 99.595,404.694 99.825,404.205C100.056,403.715 100.382,403.334 100.803,403.061C101.223,402.789 101.715,402.653 102.278,402.653C102.844,402.653 103.331,402.785 103.74,403.048C104.149,403.312 104.464,403.679 104.684,404.15C104.904,404.621 105.014,405.168 105.014,405.791L105.014,406.115L99.878,406.115L99.878,405.487L104.622,405.487L104.242,406.056L104.242,405.761C104.242,405.231 104.158,404.788 103.992,404.431C103.826,404.074 103.595,403.803 103.299,403.62C103.004,403.437 102.662,403.345 102.274,403.345C101.886,403.345 101.542,403.439 101.24,403.628C100.939,403.817 100.702,404.091 100.528,404.451C100.355,404.811 100.268,405.248 100.268,405.761L100.268,406.056C100.268,406.56 100.353,406.993 100.524,407.355C100.695,407.718 100.937,407.997 101.25,408.192C101.563,408.387 101.932,408.485 102.357,408.485C102.664,408.485 102.937,408.442 103.177,408.355C103.416,408.269 103.616,408.155 103.778,408.013C103.939,407.871 104.054,407.719 104.122,407.557L104.142,407.512L104.918,407.512L104.904,407.559C104.841,407.774 104.737,407.978 104.594,408.171C104.45,408.364 104.269,408.536 104.052,408.687C103.834,408.838 103.582,408.958 103.295,409.045C103.008,409.133 102.69,409.177 102.341,409.177Z" style="fill:rgb(37,57,73);fill-rule:nonzero;"/>
            <path d="M105.944,409.071L105.944,402.758L106.716,402.758L106.716,403.799L106.788,403.799C106.913,403.438 107.124,403.156 107.421,402.955C107.718,402.753 108.079,402.653 108.505,402.653C108.621,402.653 108.73,402.658 108.832,402.67C108.934,402.682 109.023,402.697 109.1,402.716L109.1,403.47C108.987,403.442 108.877,403.421 108.771,403.408C108.665,403.395 108.549,403.389 108.425,403.389C108.097,403.389 107.804,403.464 107.547,403.613C107.29,403.762 107.087,403.968 106.939,404.229C106.791,404.491 106.716,404.793 106.716,405.135L106.716,409.071L105.944,409.071Z" style="fill:none;fill-rule:nonzero;stroke:rgb(37,57,73);stroke-width:0.18px;"/>
            <path d="M105.944,409.071L105.944,402.758L106.716,402.758L106.716,403.799L106.788,403.799C106.913,403.438 107.124,403.156 107.421,402.955C107.718,402.753 108.079,402.653 108.505,402.653C108.621,402.653 108.73,402.658 108.832,402.67C108.934,402.682 109.023,402.697 109.1,402.716L109.1,403.47C108.987,403.442 108.877,403.421 108.771,403.408C108.665,403.395 108.549,403.389 108.425,403.389C108.097,403.389 107.804,403.464 107.547,403.613C107.29,403.762 107.087,403.968 106.939,404.229C106.791,404.491 106.716,404.793 106.716,405.135L106.716,409.071L105.944,409.071Z" style="fill:rgb(37,57,73);fill-rule:nonzero;"/>
            <path d="M110.065,409.071L110.065,403.406L109.016,403.406L109.016,402.758L110.065,402.758L110.065,401.948C110.065,401.556 110.13,401.23 110.259,400.97C110.389,400.71 110.58,400.515 110.832,400.385C111.085,400.255 111.394,400.19 111.759,400.19C111.874,400.19 111.982,400.194 112.082,400.203C112.182,400.212 112.281,400.224 112.378,400.239L112.378,400.866C112.316,400.855 112.244,400.848 112.162,400.844C112.079,400.84 111.993,400.838 111.903,400.838C111.539,400.838 111.27,400.934 111.097,401.127C110.924,401.319 110.837,401.6 110.837,401.968L110.837,402.758L112.317,402.758L112.317,403.406L110.837,403.406L110.837,409.071L110.065,409.071Z" style="fill:none;fill-rule:nonzero;stroke:rgb(37,57,73);stroke-width:0.18px;"/>
            <path d="M110.065,409.071L110.065,403.406L109.016,403.406L109.016,402.758L110.065,402.758L110.065,401.948C110.065,401.556 110.13,401.23 110.259,400.97C110.389,400.71 110.58,400.515 110.832,400.385C111.085,400.255 111.394,400.19 111.759,400.19C111.874,400.19 111.982,400.194 112.082,400.203C112.182,400.212 112.281,400.224 112.378,400.239L112.378,400.866C112.316,400.855 112.244,400.848 112.162,400.844C112.079,400.84 111.993,400.838 111.903,400.838C111.539,400.838 111.27,400.934 111.097,401.127C110.924,401.319 110.837,401.6 110.837,401.968L110.837,402.758L112.317,402.758L112.317,403.406L110.837,403.406L110.837,409.071L110.065,409.071Z" style="fill:rgb(37,57,73);fill-rule:nonzero;"/>
            <path d="M114.674,409.177C114.27,409.177 113.909,409.101 113.591,408.95C113.273,408.799 113.023,408.585 112.841,408.308C112.658,408.031 112.567,407.706 112.567,407.333L112.567,407.322C112.567,406.955 112.655,406.641 112.831,406.379C113.007,406.117 113.265,405.911 113.604,405.76C113.943,405.61 114.356,405.519 114.842,405.488L117.197,405.331L117.197,405.959L114.943,406.114C114.406,406.149 114.007,406.267 113.746,406.468C113.485,406.67 113.355,406.949 113.355,407.306L113.355,407.317C113.355,407.681 113.493,407.969 113.767,408.182C114.042,408.394 114.393,408.501 114.819,408.501C115.199,408.501 115.538,408.422 115.839,408.264C116.139,408.106 116.376,407.893 116.55,407.625C116.724,407.356 116.811,407.055 116.811,406.719L116.811,404.763C116.811,404.299 116.675,403.946 116.402,403.704C116.13,403.462 115.738,403.341 115.227,403.341C114.798,403.341 114.44,403.425 114.153,403.594C113.867,403.762 113.681,404.004 113.597,404.317L113.593,404.331L112.819,404.331L112.823,404.305C112.879,403.968 113.016,403.676 113.234,403.43C113.452,403.183 113.734,402.992 114.079,402.856C114.423,402.72 114.814,402.653 115.251,402.653C115.745,402.653 116.165,402.736 116.513,402.902C116.86,403.068 117.126,403.308 117.309,403.622C117.492,403.936 117.583,404.315 117.583,404.76L117.583,409.071L116.811,409.071L116.811,407.983L116.74,407.983C116.614,408.231 116.45,408.445 116.246,408.624C116.042,408.803 115.808,408.94 115.543,409.035C115.277,409.13 114.988,409.177 114.674,409.177Z" style="fill:none;fill-rule:nonzero;stroke:rgb(37,57,73);stroke-width:0.18px;"/>
            <path d="M114.674,409.177C114.27,409.177 113.909,409.101 113.591,408.95C113.273,408.799 113.023,408.585 112.841,408.308C112.658,408.031 112.567,407.706 112.567,407.333L112.567,407.322C112.567,406.955 112.655,406.641 112.831,406.379C113.007,406.117 113.265,405.911 113.604,405.76C113.943,405.61 114.356,405.519 114.842,405.488L117.197,405.331L117.197,405.959L114.943,406.114C114.406,406.149 114.007,406.267 113.746,406.468C113.485,406.67 113.355,406.949 113.355,407.306L113.355,407.317C113.355,407.681 113.493,407.969 113.767,408.182C114.042,408.394 114.393,408.501 114.819,408.501C115.199,408.501 115.538,408.422 115.839,408.264C116.139,408.106 116.376,407.893 116.55,407.625C116.724,407.356 116.811,407.055 116.811,406.719L116.811,404.763C116.811,404.299 116.675,403.946 116.402,403.704C116.13,403.462 115.738,403.341 115.227,403.341C114.798,403.341 114.44,403.425 114.153,403.594C113.867,403.762 113.681,404.004 113.597,404.317L113.593,404.331L112.819,404.331L112.823,404.305C112.879,403.968 113.016,403.676 113.234,403.43C113.452,403.183 113.734,402.992 114.079,402.856C114.423,402.72 114.814,402.653 115.251,402.653C115.745,402.653 116.165,402.736 116.513,402.902C116.86,403.068 117.126,403.308 117.309,403.622C117.492,403.936 117.583,404.315 117.583,404.76L117.583,409.071L116.811,409.071L116.811,407.983L116.74,407.983C116.614,408.231 116.45,408.445 116.246,408.624C116.042,408.803 115.808,408.94 115.543,409.035C115.277,409.13 114.988,409.177 114.674,409.177Z" style="fill:rgb(37,57,73);fill-rule:nonzero;"/>
            <path d="M121.488,409.177C120.908,409.177 120.405,409.043 119.979,408.774C119.553,408.506 119.223,408.127 118.99,407.636C118.756,407.145 118.64,406.566 118.64,405.899L118.64,405.887C118.64,405.23 118.756,404.66 118.988,404.176C119.22,403.693 119.549,403.318 119.975,403.052C120.401,402.786 120.904,402.653 121.484,402.653C121.965,402.653 122.387,402.738 122.75,402.909C123.112,403.08 123.406,403.312 123.631,403.604C123.856,403.897 124.002,404.226 124.068,404.594L124.068,404.616L123.302,404.62L123.298,404.604C123.205,404.241 123,403.94 122.683,403.7C122.367,403.461 121.967,403.341 121.484,403.341C121.065,403.341 120.701,403.445 120.393,403.654C120.085,403.862 119.847,404.157 119.679,404.538C119.512,404.919 119.428,405.369 119.428,405.887L119.428,405.899C119.428,406.424 119.513,406.881 119.682,407.269C119.852,407.657 120.091,407.957 120.399,408.17C120.707,408.382 121.069,408.489 121.484,408.489C121.952,408.489 122.341,408.383 122.652,408.173C122.963,407.962 123.175,407.666 123.288,407.283L123.298,407.257L124.064,407.251L124.056,407.299C123.973,407.668 123.821,407.994 123.601,408.277C123.381,408.559 123.094,408.78 122.741,408.939C122.388,409.098 121.97,409.177 121.488,409.177Z" style="fill:none;fill-rule:nonzero;stroke:rgb(37,57,73);stroke-width:0.18px;"/>
            <path d="M121.488,409.177C120.908,409.177 120.405,409.043 119.979,408.774C119.553,408.506 119.223,408.127 118.99,407.636C118.756,407.145 118.64,406.566 118.64,405.899L118.64,405.887C118.64,405.23 118.756,404.66 118.988,404.176C119.22,403.693 119.549,403.318 119.975,403.052C120.401,402.786 120.904,402.653 121.484,402.653C121.965,402.653 122.387,402.738 122.75,402.909C123.112,403.08 123.406,403.312 123.631,403.604C123.856,403.897 124.002,404.226 124.068,404.594L124.068,404.616L123.302,404.62L123.298,404.604C123.205,404.241 123,403.94 122.683,403.7C122.367,403.461 121.967,403.341 121.484,403.341C121.065,403.341 120.701,403.445 120.393,403.654C120.085,403.862 119.847,404.157 119.679,404.538C119.512,404.919 119.428,405.369 119.428,405.887L119.428,405.899C119.428,406.424 119.513,406.881 119.682,407.269C119.852,407.657 120.091,407.957 120.399,408.17C120.707,408.382 121.069,408.489 121.484,408.489C121.952,408.489 122.341,408.383 122.652,408.173C122.963,407.962 123.175,407.666 123.288,407.283L123.298,407.257L124.064,407.251L124.056,407.299C123.973,407.668 123.821,407.994 123.601,408.277C123.381,408.559 123.094,408.78 122.741,408.939C122.388,409.098 121.97,409.177 121.488,409.177Z" style="fill:rgb(37,57,73);fill-rule:nonzero;"/>
            <path d="M127.513,409.177C126.922,409.177 126.413,409.044 125.986,408.779C125.559,408.514 125.229,408.139 124.998,407.653C124.767,407.168 124.651,406.595 124.651,405.936L124.651,405.927C124.651,405.268 124.767,404.694 124.997,404.205C125.228,403.715 125.554,403.334 125.974,403.061C126.395,402.789 126.887,402.653 127.45,402.653C128.016,402.653 128.503,402.785 128.912,403.048C129.321,403.312 129.636,403.679 129.856,404.15C130.076,404.621 130.186,405.168 130.186,405.791L130.186,406.115L125.05,406.115L125.05,405.487L129.794,405.487L129.413,406.056L129.413,405.761C129.413,405.231 129.33,404.788 129.164,404.431C128.998,404.074 128.767,403.803 128.471,403.62C128.176,403.437 127.834,403.345 127.446,403.345C127.058,403.345 126.714,403.439 126.412,403.628C126.111,403.817 125.873,404.091 125.7,404.451C125.526,404.811 125.44,405.248 125.44,405.761L125.44,406.056C125.44,406.56 125.525,406.993 125.696,407.355C125.867,407.718 126.109,407.997 126.422,408.192C126.735,408.387 127.104,408.485 127.529,408.485C127.836,408.485 128.109,408.442 128.349,408.355C128.588,408.269 128.788,408.155 128.949,408.013C129.111,407.871 129.226,407.719 129.294,407.557L129.314,407.512L130.089,407.512L130.076,407.559C130.013,407.774 129.909,407.978 129.766,408.171C129.622,408.364 129.441,408.536 129.224,408.687C129.006,408.838 128.754,408.958 128.467,409.045C128.18,409.133 127.862,409.177 127.513,409.177Z" style="fill:none;fill-rule:nonzero;stroke:rgb(37,57,73);stroke-width:0.18px;"/>
            <path d="M127.513,409.177C126.922,409.177 126.413,409.044 125.986,408.779C125.559,408.514 125.229,408.139 124.998,407.653C124.767,407.168 124.651,406.595 124.651,405.936L124.651,405.927C124.651,405.268 124.767,404.694 124.997,404.205C125.228,403.715 125.554,403.334 125.974,403.061C126.395,402.789 126.887,402.653 127.45,402.653C128.016,402.653 128.503,402.785 128.912,403.048C129.321,403.312 129.636,403.679 129.856,404.15C130.076,404.621 130.186,405.168 130.186,405.791L130.186,406.115L125.05,406.115L125.05,405.487L129.794,405.487L129.413,406.056L129.413,405.761C129.413,405.231 129.33,404.788 129.164,404.431C128.998,404.074 128.767,403.803 128.471,403.62C128.176,403.437 127.834,403.345 127.446,403.345C127.058,403.345 126.714,403.439 126.412,403.628C126.111,403.817 125.873,404.091 125.7,404.451C125.526,404.811 125.44,405.248 125.44,405.761L125.44,406.056C125.44,406.56 125.525,406.993 125.696,407.355C125.867,407.718 126.109,407.997 126.422,408.192C126.735,408.387 127.104,408.485 127.529,408.485C127.836,408.485 128.109,408.442 128.349,408.355C128.588,408.269 128.788,408.155 128.949,408.013C129.111,407.871 129.226,407.719 129.294,407.557L129.314,407.512L130.089,407.512L130.076,407.559C130.013,407.774 129.909,407.978 129.766,408.171C129.622,408.364 129.441,408.536 129.224,408.687C129.006,408.838 128.754,408.958 128.467,409.045C128.18,409.133 127.862,409.177 127.513,409.177Z" style="fill:rgb(37,57,73);fill-rule:nonzero;"/>
            <path d="M133.343,409.071L134.528,403.41L133.474,403.41L133.61,402.758L134.664,402.758L134.809,402.034C134.926,401.44 135.149,401.007 135.477,400.733C135.805,400.46 136.251,400.324 136.813,400.324C136.951,400.324 137.073,400.332 137.179,400.348C137.285,400.364 137.376,400.381 137.452,400.398L137.316,401.041C137.263,401.026 137.186,401.011 137.086,400.998C136.985,400.985 136.87,400.979 136.741,400.979C136.439,400.979 136.189,401.067 135.992,401.242C135.796,401.417 135.661,401.69 135.589,402.06L135.45,402.758L136.957,402.758L136.822,403.41L135.314,403.41L134.129,409.071L133.343,409.071Z" style="fill:none;fill-rule:nonzero;stroke:rgb(0,181,161);stroke-width:0.18px;"/>
            <path d="M133.343,409.071L134.528,403.41L133.474,403.41L133.61,402.758L134.664,402.758L134.809,402.034C134.926,401.44 135.149,401.007 135.477,400.733C135.805,400.46 136.251,400.324 136.813,400.324C136.951,400.324 137.073,400.332 137.179,400.348C137.285,400.364 137.376,400.381 137.452,400.398L137.316,401.041C137.263,401.026 137.186,401.011 137.086,400.998C136.985,400.985 136.87,400.979 136.741,400.979C136.439,400.979 136.189,401.067 135.992,401.242C135.796,401.417 135.661,401.69 135.589,402.06L135.45,402.758L136.957,402.758L136.822,403.41L135.314,403.41L134.129,409.071L133.343,409.071Z" style="fill:rgb(0,181,161);fill-rule:nonzero;"/>
            <path d="M139.243,408.481C139.69,408.481 140.095,408.344 140.457,408.071C140.818,407.797 141.106,407.429 141.32,406.966C141.534,406.504 141.641,405.99 141.641,405.423C141.641,404.782 141.479,404.276 141.156,403.905C140.833,403.534 140.392,403.348 139.833,403.348C139.36,403.348 138.941,403.482 138.575,403.749C138.209,404.016 137.921,404.384 137.713,404.855C137.504,405.326 137.4,405.867 137.4,406.479C137.4,407.084 137.568,407.569 137.903,407.934C138.239,408.299 138.685,408.481 139.243,408.481ZM139.901,402.652C140.412,402.652 140.858,402.762 141.24,402.98C141.623,403.198 141.921,403.502 142.136,403.893C142.35,404.283 142.457,404.738 142.457,405.256C142.457,405.819 142.375,406.339 142.21,406.816C142.045,407.294 141.814,407.709 141.517,408.062C141.22,408.415 140.87,408.689 140.466,408.884C140.062,409.079 139.623,409.177 139.148,409.177C138.64,409.177 138.194,409.068 137.81,408.849C137.425,408.63 137.126,408.324 136.91,407.932C136.695,407.54 136.588,407.085 136.588,406.566C136.588,405.999 136.669,405.477 136.833,405C136.996,404.523 137.227,404.109 137.524,403.758C137.821,403.406 138.171,403.134 138.574,402.941C138.978,402.749 139.42,402.652 139.901,402.652Z" style="fill:none;fill-rule:nonzero;stroke:rgb(0,181,161);stroke-width:0.18px;"/>
            <path d="M139.243,408.481C139.69,408.481 140.095,408.344 140.457,408.071C140.818,407.797 141.106,407.429 141.32,406.966C141.534,406.504 141.641,405.99 141.641,405.423C141.641,404.782 141.479,404.276 141.156,403.905C140.833,403.534 140.392,403.348 139.833,403.348C139.36,403.348 138.941,403.482 138.575,403.749C138.209,404.016 137.921,404.384 137.713,404.855C137.504,405.326 137.4,405.867 137.4,406.479C137.4,407.084 137.568,407.569 137.903,407.934C138.239,408.299 138.685,408.481 139.243,408.481ZM139.901,402.652C140.412,402.652 140.858,402.762 141.24,402.98C141.623,403.198 141.921,403.502 142.136,403.893C142.35,404.283 142.457,404.738 142.457,405.256C142.457,405.819 142.375,406.339 142.21,406.816C142.045,407.294 141.814,407.709 141.517,408.062C141.22,408.415 140.87,408.689 140.466,408.884C140.062,409.079 139.623,409.177 139.148,409.177C138.64,409.177 138.194,409.068 137.81,408.849C137.425,408.63 137.126,408.324 136.91,407.932C136.695,407.54 136.588,407.085 136.588,406.566C136.588,405.999 136.669,405.477 136.833,405C136.996,404.523 137.227,404.109 137.524,403.758C137.821,403.406 138.171,403.134 138.574,402.941C138.978,402.749 139.42,402.652 139.901,402.652Z" style="fill:rgb(0,181,161);fill-rule:nonzero;"/>
            <path d="M142.655,409.071L143.997,402.758L144.742,402.758L144.547,403.679L144.619,403.679C144.826,403.342 145.078,403.087 145.374,402.913C145.67,402.739 146.005,402.652 146.38,402.652C146.537,402.652 146.689,402.664 146.835,402.686C146.982,402.709 147.089,402.733 147.158,402.76L146.992,403.498C146.903,403.473 146.778,403.449 146.617,403.428C146.456,403.407 146.313,403.397 146.188,403.397C145.855,403.397 145.558,403.468 145.297,403.61C145.035,403.753 144.816,403.96 144.64,404.233C144.464,404.505 144.334,404.839 144.248,405.235L143.433,409.071L142.655,409.071Z" style="fill:none;fill-rule:nonzero;stroke:rgb(0,181,161);stroke-width:0.18px;"/>
            <path d="M142.655,409.071L143.997,402.758L144.742,402.758L144.547,403.679L144.619,403.679C144.826,403.342 145.078,403.087 145.374,402.913C145.67,402.739 146.005,402.652 146.38,402.652C146.537,402.652 146.689,402.664 146.835,402.686C146.982,402.709 147.089,402.733 147.158,402.76L146.992,403.498C146.903,403.473 146.778,403.449 146.617,403.428C146.456,403.407 146.313,403.397 146.188,403.397C145.855,403.397 145.558,403.468 145.297,403.61C145.035,403.753 144.816,403.96 144.64,404.233C144.464,404.505 144.334,404.839 144.248,405.235L143.433,409.071L142.655,409.071Z" style="fill:rgb(0,181,161);fill-rule:nonzero;"/>
            <path d="M152.731,409.245C152.136,409.245 151.612,409.145 151.159,408.947C150.706,408.749 150.345,408.476 150.076,408.127C149.808,407.779 149.652,407.38 149.609,406.93L149.603,406.867L150.399,406.867L150.405,406.93C150.436,407.242 150.557,407.516 150.767,407.753C150.978,407.989 151.256,408.174 151.602,408.308C151.948,408.441 152.338,408.508 152.773,408.508C153.197,408.508 153.574,408.437 153.903,408.295C154.232,408.153 154.491,407.957 154.678,407.708C154.866,407.459 154.96,407.177 154.96,406.861L154.96,406.853C154.96,406.463 154.814,406.133 154.521,405.865C154.228,405.597 153.755,405.389 153.101,405.24L152.234,405.046C151.384,404.853 150.769,404.572 150.388,404.203C150.008,403.834 149.817,403.36 149.817,402.78L149.817,402.772C149.82,402.325 149.944,401.925 150.19,401.575C150.436,401.224 150.776,400.947 151.21,400.746C151.645,400.544 152.143,400.443 152.706,400.443C153.257,400.443 153.744,400.54 154.168,400.733C154.592,400.927 154.93,401.187 155.182,401.514C155.434,401.841 155.576,402.208 155.607,402.614L155.613,402.686L154.817,402.686L154.807,402.62C154.768,402.346 154.656,402.101 154.472,401.884C154.289,401.668 154.045,401.495 153.742,401.367C153.439,401.239 153.087,401.176 152.685,401.179C152.296,401.179 151.946,401.245 151.637,401.376C151.327,401.508 151.082,401.691 150.901,401.926C150.72,402.16 150.63,402.436 150.63,402.752L150.63,402.76C150.63,403.132 150.771,403.441 151.052,403.687C151.333,403.934 151.794,404.129 152.435,404.274L153.302,404.472C153.89,404.603 154.364,404.772 154.726,404.979C155.088,405.186 155.353,405.436 155.521,405.729C155.689,406.022 155.773,406.364 155.773,406.757L155.773,406.765C155.773,407.263 155.646,407.697 155.392,408.068C155.139,408.439 154.784,408.728 154.327,408.935C153.871,409.141 153.339,409.245 152.731,409.245Z" style="fill:none;fill-rule:nonzero;stroke:rgb(37,57,73);stroke-width:0.18px;"/>
            <path d="M152.731,409.245C152.136,409.245 151.612,409.145 151.159,408.947C150.706,408.749 150.345,408.476 150.076,408.127C149.808,407.779 149.652,407.38 149.609,406.93L149.603,406.867L150.399,406.867L150.405,406.93C150.436,407.242 150.557,407.516 150.767,407.753C150.978,407.989 151.256,408.174 151.602,408.308C151.948,408.441 152.338,408.508 152.773,408.508C153.197,408.508 153.574,408.437 153.903,408.295C154.232,408.153 154.491,407.957 154.678,407.708C154.866,407.459 154.96,407.177 154.96,406.861L154.96,406.853C154.96,406.463 154.814,406.133 154.521,405.865C154.228,405.597 153.755,405.389 153.101,405.24L152.234,405.046C151.384,404.853 150.769,404.572 150.388,404.203C150.008,403.834 149.817,403.36 149.817,402.78L149.817,402.772C149.82,402.325 149.944,401.925 150.19,401.575C150.436,401.224 150.776,400.947 151.21,400.746C151.645,400.544 152.143,400.443 152.706,400.443C153.257,400.443 153.744,400.54 154.168,400.733C154.592,400.927 154.93,401.187 155.182,401.514C155.434,401.841 155.576,402.208 155.607,402.614L155.613,402.686L154.817,402.686L154.807,402.62C154.768,402.346 154.656,402.101 154.472,401.884C154.289,401.668 154.045,401.495 153.742,401.367C153.439,401.239 153.087,401.176 152.685,401.179C152.296,401.179 151.946,401.245 151.637,401.376C151.327,401.508 151.082,401.691 150.901,401.926C150.72,402.16 150.63,402.436 150.63,402.752L150.63,402.76C150.63,403.132 150.771,403.441 151.052,403.687C151.333,403.934 151.794,404.129 152.435,404.274L153.302,404.472C153.89,404.603 154.364,404.772 154.726,404.979C155.088,405.186 155.353,405.436 155.521,405.729C155.689,406.022 155.773,406.364 155.773,406.757L155.773,406.765C155.773,407.263 155.646,407.697 155.392,408.068C155.139,408.439 154.784,408.728 154.327,408.935C153.871,409.141 153.339,409.245 152.731,409.245Z" style="fill:rgb(37,57,73);fill-rule:nonzero;"/>
            <rect x="157.097" y="400.247" width="0.772" height="8.824" style="fill:none;fill-rule:nonzero;stroke:rgb(37,57,73);stroke-width:0.18px;"/>
            <rect x="157.097" y="400.247" width="0.772" height="8.824" style="fill:rgb(37,57,73);fill-rule:nonzero;"/>
            <path d="M161.652,409.177C161.182,409.177 160.781,409.085 160.449,408.901C160.118,408.717 159.866,408.451 159.693,408.105C159.52,407.758 159.434,407.344 159.434,406.863L159.434,402.758L160.206,402.758L160.206,406.67C160.206,407.258 160.342,407.708 160.614,408.02C160.886,408.332 161.293,408.489 161.835,408.489C162.129,408.489 162.393,408.442 162.626,408.349C162.86,408.256 163.058,408.123 163.222,407.949C163.385,407.776 163.509,407.568 163.594,407.325C163.678,407.082 163.721,406.81 163.721,406.51L163.721,402.758L164.493,402.758L164.493,409.071L163.721,409.071L163.721,407.969L163.649,407.969C163.548,408.221 163.402,408.438 163.214,408.619C163.025,408.8 162.799,408.938 162.537,409.034C162.274,409.129 161.979,409.177 161.652,409.177Z" style="fill:none;fill-rule:nonzero;stroke:rgb(37,57,73);stroke-width:0.18px;"/>
            <path d="M161.652,409.177C161.182,409.177 160.781,409.085 160.449,408.901C160.118,408.717 159.866,408.451 159.693,408.105C159.52,407.758 159.434,407.344 159.434,406.863L159.434,402.758L160.206,402.758L160.206,406.67C160.206,407.258 160.342,407.708 160.614,408.02C160.886,408.332 161.293,408.489 161.835,408.489C162.129,408.489 162.393,408.442 162.626,408.349C162.86,408.256 163.058,408.123 163.222,407.949C163.385,407.776 163.509,407.568 163.594,407.325C163.678,407.082 163.721,406.81 163.721,406.51L163.721,402.758L164.493,402.758L164.493,409.071L163.721,409.071L163.721,407.969L163.649,407.969C163.548,408.221 163.402,408.438 163.214,408.619C163.025,408.8 162.799,408.938 162.537,409.034C162.274,409.129 161.979,409.177 161.652,409.177Z" style="fill:rgb(37,57,73);fill-rule:nonzero;"/>
            <path d="M165.81,409.071L165.81,402.758L166.582,402.758L166.582,403.799L166.653,403.799C166.778,403.438 166.989,403.156 167.286,402.955C167.583,402.753 167.945,402.653 168.37,402.653C168.486,402.653 168.595,402.658 168.697,402.67C168.799,402.682 168.888,402.697 168.965,402.716L168.965,403.47C168.852,403.442 168.743,403.421 168.636,403.408C168.53,403.395 168.414,403.389 168.29,403.389C167.962,403.389 167.669,403.464 167.412,403.613C167.155,403.762 166.952,403.968 166.804,404.229C166.656,404.491 166.582,404.793 166.582,405.135L166.582,409.071L165.81,409.071Z" style="fill:none;fill-rule:nonzero;stroke:rgb(37,57,73);stroke-width:0.18px;"/>
            <path d="M165.81,409.071L165.81,402.758L166.582,402.758L166.582,403.799L166.653,403.799C166.778,403.438 166.989,403.156 167.286,402.955C167.583,402.753 167.945,402.653 168.37,402.653C168.486,402.653 168.595,402.658 168.697,402.67C168.799,402.682 168.888,402.697 168.965,402.716L168.965,403.47C168.852,403.442 168.743,403.421 168.636,403.408C168.53,403.395 168.414,403.389 168.29,403.389C167.962,403.389 167.669,403.464 167.412,403.613C167.155,403.762 166.952,403.968 166.804,404.229C166.656,404.491 166.582,404.793 166.582,405.135L166.582,409.071L165.81,409.071Z" style="fill:rgb(37,57,73);fill-rule:nonzero;"/>
            <path d="M169.507,409.071L169.507,402.758L170.279,402.758L170.279,403.878L170.351,403.878C170.488,403.498 170.712,403.198 171.023,402.98C171.334,402.762 171.704,402.653 172.133,402.653C172.429,402.653 172.696,402.704 172.932,402.807C173.169,402.91 173.371,403.055 173.538,403.242C173.706,403.429 173.835,403.649 173.925,403.902L173.997,403.902C174.105,403.649 174.256,403.429 174.449,403.242C174.643,403.055 174.869,402.91 175.128,402.807C175.388,402.704 175.667,402.653 175.968,402.653C176.391,402.653 176.751,402.735 177.048,402.9C177.345,403.065 177.572,403.304 177.729,403.616C177.886,403.928 177.964,404.307 177.964,404.752L177.964,409.071L177.192,409.071L177.192,404.931C177.192,404.584 177.138,404.293 177.028,404.058C176.919,403.823 176.757,403.644 176.542,403.523C176.327,403.402 176.061,403.341 175.743,403.341C175.419,403.341 175.135,403.417 174.891,403.569C174.647,403.721 174.457,403.927 174.321,404.187C174.186,404.447 174.118,404.741 174.118,405.07L174.118,409.071L173.345,409.071L173.345,404.847C173.345,404.543 173.286,404.278 173.167,404.052C173.048,403.827 172.879,403.652 172.662,403.527C172.444,403.403 172.189,403.341 171.896,403.341C171.593,403.341 171.319,403.424 171.074,403.589C170.829,403.755 170.635,403.978 170.492,404.26C170.35,404.541 170.279,404.855 170.279,405.201L170.279,409.071L169.507,409.071Z" style="fill:none;fill-rule:nonzero;stroke:rgb(37,57,73);stroke-width:0.18px;"/>
            <path d="M169.507,409.071L169.507,402.758L170.279,402.758L170.279,403.878L170.351,403.878C170.488,403.498 170.712,403.198 171.023,402.98C171.334,402.762 171.704,402.653 172.133,402.653C172.429,402.653 172.696,402.704 172.932,402.807C173.169,402.91 173.371,403.055 173.538,403.242C173.706,403.429 173.835,403.649 173.925,403.902L173.997,403.902C174.105,403.649 174.256,403.429 174.449,403.242C174.643,403.055 174.869,402.91 175.128,402.807C175.388,402.704 175.667,402.653 175.968,402.653C176.391,402.653 176.751,402.735 177.048,402.9C177.345,403.065 177.572,403.304 177.729,403.616C177.886,403.928 177.964,404.307 177.964,404.752L177.964,409.071L177.192,409.071L177.192,404.931C177.192,404.584 177.138,404.293 177.028,404.058C176.919,403.823 176.757,403.644 176.542,403.523C176.327,403.402 176.061,403.341 175.743,403.341C175.419,403.341 175.135,403.417 174.891,403.569C174.647,403.721 174.457,403.927 174.321,404.187C174.186,404.447 174.118,404.741 174.118,405.07L174.118,409.071L173.345,409.071L173.345,404.847C173.345,404.543 173.286,404.278 173.167,404.052C173.048,403.827 172.879,403.652 172.662,403.527C172.444,403.403 172.189,403.341 171.896,403.341C171.593,403.341 171.319,403.424 171.074,403.589C170.829,403.755 170.635,403.978 170.492,404.26C170.35,404.541 170.279,404.855 170.279,405.201L170.279,409.071L169.507,409.071Z" style="fill:rgb(37,57,73);fill-rule:nonzero;"/>
        </g>
        <g transform="matrix(1,0,0,1,69.4292,0)">
            <path d="M529.949,166.064C518.948,188.262 507.325,206.685 497.343,211.826C494.378,213.37 491.474,214.755 488.548,215.994C490.683,215.998 492.995,216 495.5,216C522.7,216 527.1,215.8 528.4,214.4C529.8,213.1 530,208.7 530,182C530,175.434 529.988,170.217 529.949,166.064Z" style="fill:rgb(37,57,73);fill-rule:nonzero;"/>
        </g>
    </g>
</svg>
