#define file_item_down_arrow_width 13
#define file_item_down_arrow_height 14
static unsigned char file_item_down_arrow_bits[] = {
   0x00, 0x00, 0x02, 0x08, 0x04, 0x0c, 0x04, 0x04, 0x08, 0x02, 0x10, 0x02,
   0x10, 0x01, 0x20, 0x01, 0xa0, 0x00, 0xa0, 0x00, 0xe0, 0x00, 0x40, 0x00,
   0x40, 0x00, 0x40, 0x00 };
