/* XPM */
static char *Penguin[] = {
/* width height num_colors chars_per_pixel */
"    16    16      203            2",
/* colors */
".. c #000008",
".# c #080800",
".a c #080808",
".b c #000010",
".c c #101008",
".d c #181008",
".e c #101010",
".f c #181818",
".g c #000021",
".h c #000031",
".i c #000039",
".j c #100839",
".k c #211800",
".l c #211808",
".m c #291800",
".n c #292100",
".o c #312100",
".p c #392900",
".q c #212121",
".r c #292921",
".s c #292929",
".t c #392931",
".u c #313131",
".v c #393939",
".w c #000042",
".x c #00004a",
".y c #000052",
".z c #08085a",
".A c #000063",
".B c #00006b",
".C c #000073",
".D c #00007b",
".E c #29187b",
".F c #39217b",
".G c #423100",
".H c #4a3100",
".I c #4a3900",
".J c #5a3900",
".K c #523110",
".L c #5a3910",
".M c #5a3918",
".N c #422952",
".O c #5a3942",
".P c #4a317b",
".Q c #524221",
".R c #634200",
".S c #6b4200",
".T c #6b4a00",
".U c #6b5208",
".V c #734a00",
".W c #735a00",
".X c #734a31",
".Y c #734a39",
".Z c #7f623d",
".0 c #424242",
".1 c #4a4a4a",
".2 c #52524a",
".3 c #525252",
".4 c #52525a",
".5 c #5a5a5a",
".6 c #7b526b",
".7 c #7b5a63",
".8 c #636363",
".9 c #6b6b6b",
"#. c #737373",
"## c #7b7b7b",
"#a c #000084",
"#b c #00008c",
"#c c #08088c",
"#d c #000094",
"#e c #00009c",
"#f c #0000ad",
"#g c #0000b5",
"#h c #0000bd",
"#i c #1008ad",
"#j c #1008b5",
"#k c #1810ad",
"#l c #2921a5",
"#m c #3929ad",
"#n c #3121b5",
"#o c #3121bd",
"#p c #0000c6",
"#q c #0808ce",
"#r c #0000d6",
"#s c #0000de",
"#t c #0800de",
"#u c #1008d6",
"#v c #1810c6",
"#w c #1810de",
"#x c #0000e7",
"#y c #1008e7",
"#z c #4a319c",
"#A c #4a39b5",
"#B c #634284",
"#C c #6b5294",
"#D c #735a84",
"#E c #845a00",
"#F c #845a08",
"#G c #8c5a00",
"#H c #8c6308",
"#I c #8c6b00",
"#J c #8c6310",
"#K c #946300",
"#L c #946308",
"#M c #9c6b00",
"#N c #947300",
"#O c #9c7b00",
"#P c #947b21",
"#Q c #a77508",
"#R c #ad7b08",
"#S c #ad7318",
"#T c #ad7b39",
"#U c #8c635a",
"#V c #847b52",
"#W c #946342",
"#X c #9c7b42",
"#Y c #846363",
"#Z c #946b63",
"#0 c #9c8408",
"#1 c #ad880c",
"#2 c #bd8408",
"#3 c #b59808",
"#4 c #bd9c08",
"#5 c #b58421",
"#6 c #bd8429",
"#7 c #94844a",
"#8 c #9c844a",
"#9 c #9c947b",
"a. c #a5844a",
"a# c #ad9442",
"aa c #b58c4a",
"ab c #ad9c7b",
"ac c #b1986b",
"ad c #c68408",
"ae c #c68c00",
"af c #c68c08",
"ag c #ce8c08",
"ah c #c68c18",
"ai c #ce8c18",
"aj c #ce9408",
"ak c #d69408",
"al c #d69c00",
"am c #d69c08",
"an c #d69410",
"ao c #c68c29",
"ap c #c6a510",
"aq c #d6ad08",
"ar c #dea508",
"as c #dead08",
"at c #dea510",
"au c #dea518",
"av c #deb508",
"aw c #d6b518",
"ax c #deb518",
"ay c #d6b521",
"az c #e7a508",
"aA c #e7ad08",
"aB c #e7a510",
"aC c #e7ad10",
"aD c #e7ad18",
"aE c #efb508",
"aF c #efbd10",
"aG c #f7bd10",
"aH c #ce9c42",
"aI c #d6b54a",
"aJ c #cead73",
"aK c #ceb56b",
"aL c #dec608",
"aM c #e7c608",
"aN c #efc608",
"aO c #efce08",
"aP c #efce10",
"aQ c #efce18",
"aR c #f7c610",
"aS c #e7ce21",
"aT c #e7ce31",
"aU c #e7c67b",
"aV c #efce7b",
"aW c #efd66b",
"aX c #848484",
"aY c #8c8c8c",
"aZ c #949494",
"a0 c #9c9c9c",
"a1 c #bdad84",
"a2 c #b5a594",
"a3 c #bdb594",
"a4 c #a5a5a5",
"a5 c #adadad",
"a6 c #bdb5ad",
"a7 c #b5b5b5",
"a8 c #bdbdbd",
"a9 c #e7d6b5",
"b. c #c6c6c6",
"b# c #c6c6ce",
"ba c #cecece",
"bb c #dedece",
"bc c #d6d6d6",
"bd c #dedede",
"be c #f7efd6",
"bf c #e7e7e7",
"bg c #efefef",
"bh c #f7f7f7",
"bi c #b2c0dc",
/* pixels */
"bibibibibibibi#z...xaXbibibibibi",
"bibibibibibi#C.....f.zbibibibibi",
"bibibibibibi.h.....e...Fbibibibi",
"bibibibibibi.N.5.0aZ.v.xbibibibi",
"bibibibibibi.N#Pa#.U.2.hbibibibi",
"bibibibibibi.Naqawap.Q.saZbibibi",
"bibibibibia4#CabaJbca8.e.Ebibibi",
"bibibibibi.hb#bgbgbhbh.v.b#Cbibi",
"bibibibi.x.8bgbhbhbhbfa0.a..#Cbi",
"bibibiaX.ubhbhbhbhbhbhbh.v.e.hbi",
"bibibi.EaXbhbhbhbhbhbhbh.3.a..aX",
"bibibi.la0bhbhbhbhbhbhbh.5.a.baX",
"bia0a4aE#5aZbgbhbhbhbhaV.U.a.Ua4",
"#UaEaFaFaF#H.vbhbhbhbhaJaramaFaH",
"#YaEaFaFaFaRaJbhbhbha0.WaFaFaFaF",
"#UahataCaFaF#Q.0.0.f..#FaEaEaoa0"
};
