/* XPM */
static char *tiny_windowsxp[] = {
/* width height num_colors chars_per_pixel */
"    16    16      175            2",
/* colors */
".. c #165a9b",
".# c #1a5e9d",
".a c #254f99",
".b c #2a5792",
".c c #2a68a1",
".d c #2d5d9d",
".e c #2d6117",
".f c #2e66a1",
".g c #326a11",
".h c #326da7",
".i c #356e10",
".j c #3675ab",
".k c #3a80b1",
".l c #3d6aad",
".m c #3e83ad",
".n c #3f741c",
".o c #3f86b4",
".p c #4487b2",
".q c #477b19",
".r c #4f8516",
".s c #528fbc",
".t c #5998c1",
".u c #5b833a",
".v c #5d9317",
".w c #5e9abf",
".x c #639b16",
".y c #649e14",
".z c #679f16",
".A c #6aa4c9",
".B c #6fa51b",
".C c #71a7c9",
".D c #77aac9",
".E c #7cb119",
".F c #7d9d3c",
".G c #7fb2d1",
".H c #82b323",
".I c #88b824",
".J c #8bb923",
".K c #8dba1f",
".L c #91bbd3",
".M c #94ab81",
".N c #9bc53d",
".O c #a0c843",
".P c #a2c7e1",
".Q c #a3c845",
".R c #a6cb4a",
".S c #a8c8e1",
".T c #acd64e",
".U c #b0d355",
".V c #b4c97e",
".W c #b5c3a2",
".X c #b6d7e0",
".Y c #bad65f",
".Z c #bd1400",
".0 c #bdc9b5",
".1 c #be0701",
".2 c #bedd65",
".3 c #bfda69",
".4 c #c1dfe9",
".5 c #c3e26d",
".6 c #c51903",
".7 c #c61900",
".8 c #ca2200",
".9 c #caccc9",
"#. c #cc2a04",
"## c #cd2405",
"#a c #cdef7f",
"#b c #cee2eb",
"#c c #cf4006",
"#d c #cfdcef",
"#e c #d0ac4e",
"#f c #d1cfdd",
"#g c #d2bba9",
"#h c #d3412a",
"#i c #d3d0cb",
"#j c #d43800",
"#k c #d5dbd9",
"#l c #d93c09",
"#m c #daecf0",
"#n c #df5b08",
"#o c #e1520c",
"#p c #e2580d",
"#q c #e2e6e9",
"#r c #e34a10",
"#s c #e3eceb",
"#t c #e45c10",
"#u c #e45f10",
"#v c #e5541b",
"#w c #e6e2f0",
"#x c #e78402",
"#y c #e7840d",
"#z c #e7950b",
"#A c #e79e5a",
"#B c #e7e6e2",
"#C c #e87f12",
"#D c #e88a10",
"#E c #eaa712",
"#F c #eb7710",
"#G c #eba186",
"#H c #ebd7d0",
"#I c #ecad14",
"#J c #ecf0f1",
"#K c #ed8a00",
"#L c #eed115",
"#M c #eefffd",
"#N c #ef9408",
"#O c #efc717",
"#P c #f09e55",
"#Q c #f0f4f3",
"#R c #f1faf5",
"#S c #f3ad0f",
"#T c #f3e485",
"#U c #f3fdfc",
"#V c #f49c00",
"#W c #f4f5fa",
"#X c #f4f7ff",
"#Y c #f59f0c",
"#Z c #f5e2aa",
"#0 c #f5f9fc",
"#1 c #f69707",
"#2 c #f7c210",
"#3 c #f7dc4f",
"#4 c #f7fbfa",
"#5 c #f7feff",
"#6 c #f7fffc",
"#7 c #f88903",
"#8 c #f88d03",
"#9 c #f8ab0d",
"a. c #f8ae0d",
"a# c #f8b80e",
"aa c #f99406",
"ab c #f9d939",
"ac c #f9e791",
"ad c #f9ffff",
"ae c #fad431",
"af c #fad73b",
"ag c #fadd65",
"ah c #fade63",
"ai c #fafdff",
"aj c #faffff",
"ak c #fbbf13",
"al c #fbc412",
"am c #fbd11b",
"an c #fbd41f",
"ao c #fbd42f",
"ap c #fbeec4",
"aq c #fbfbf3",
"ar c #fbfbfb",
"as c #fbfffa",
"at c #fbffff",
"au c #fcfcfe",
"av c #fcffff",
"aw c #fdcc18",
"ax c #fde8a9",
"ay c #fdfbfc",
"az c #fdfcf8",
"aA c #fdfef9",
"aB c #fdfffc",
"aC c #fefdff",
"aD c #fefffa",
"aE c #fefffd",
"aF c #feffff",
"aG c #ffe4dc",
"aH c #fffaff",
"aI c #fffcff",
"aJ c #fffdfd",
"aK c #fffdff",
"aL c #fffefa",
"aM c #fffeff",
"aN c #fffff3",
"aO c #fffff4",
"aP c #fffffa",
"aQ c #fffffb",
"aR c #fffffd",
"aS c #ffffff",
/* pixels */
"aSaSaSaSaKaIataRaRaSaSaSaSaSaSaS",
"aSaSaSaSaDaJaSad#6aSaSaSaSaSaSaS",
"aSaSaM#4.1.6##.8.ZaE#UaSaSaSaIaK",
"aSaSaJ#h#.#c#o#p#n#w.FaiaSaSaI.W",
"aSaSaH.7#l#u#C#y#x.V.I.B.q.g.e.M",
"aSaSaJ#j#t#D#E#I#P.T.O.J.z.r.i#f",
"aSaSaG#r#F#z#O#L#X.2.U.N.E.v.naz",
"aBaA#G#B#s#0#M#v#Q.5.Y.Q.H.x.uaR",
"asaM.l.s.D.S.4#m#W#a.3.R.K.y.0au",
"aFaN.h.p.A.L.X#daxapaS#5#R#AaSaS",
"aQ#b.f.k.t.G.PaPac#Tahabak#YaraS",
"at.b.d.j.o.w.C#Zag#3afam#S#eaSaS",
"aN.a.#.c...m.9aeaoanawa.#N#kaSaS",
"aM#iajaKaMaq#J#2ala##9#1#7#qaSaS",
"aSaSaSaSaSaSay#H#Vaa#8#K#gaOaSaS",
"aSaSaSaSaSaSaRaIaLaDaPavaPaCaSaS"
};
