<?xml version="1.0" encoding="UTF-8" standalone="no"?>
<!DOCTYPE svg PUBLIC "-//W3C//DTD SVG 1.1//EN"
 "http://www.w3.org/Graphics/SVG/1.1/DTD/svg11.dtd">
<!-- Generated by graphviz version 2.38.0 (20140413.2041)
 -->
<!-- Title: Perl Pages: 1 -->
<svg width="620pt" height="414pt"
 viewBox="0.00 0.00 619.50 414.00" xmlns="http://www.w3.org/2000/svg" xmlns:xlink="http://www.w3.org/1999/xlink">
<g id="graph0" class="graph" transform="scale(1 1) rotate(0) translate(4 410)">
<title>Perl</title>
<polygon fill="white" stroke="none" points="-4,4 -4,-410 615.5,-410 615.5,4 -4,4"/>
<!-- countries -->
<g id="node1" class="node"><title>countries</title>
<path fill="none" stroke="blue" d="M174.5,-0.5C174.5,-0.5 343.5,-0.5 343.5,-0.5 349.5,-0.5 355.5,-6.5 355.5,-12.5 355.5,-12.5 355.5,-172.5 355.5,-172.5 355.5,-178.5 349.5,-184.5 343.5,-184.5 343.5,-184.5 174.5,-184.5 174.5,-184.5 168.5,-184.5 162.5,-178.5 162.5,-172.5 162.5,-172.5 162.5,-12.5 162.5,-12.5 162.5,-6.5 168.5,-0.5 174.5,-0.5"/>
<text text-anchor="middle" x="196.5" y="-88.8" font-family="Times,serif" font-size="14.00">countries</text>
<polyline fill="none" stroke="blue" points="230.5,-0.5 230.5,-184.5 "/>
<text text-anchor="middle" x="293" y="-169.3" font-family="Times,serif" font-size="14.00">1: code2</text>
<polyline fill="none" stroke="blue" points="230.5,-161.5 355.5,-161.5 "/>
<text text-anchor="middle" x="293" y="-146.3" font-family="Times,serif" font-size="14.00">2: code3</text>
<polyline fill="none" stroke="blue" points="230.5,-138.5 355.5,-138.5 "/>
<text text-anchor="middle" x="293" y="-123.3" font-family="Times,serif" font-size="14.00">3: fc_name</text>
<polyline fill="none" stroke="blue" points="230.5,-115.5 355.5,-115.5 "/>
<text text-anchor="middle" x="293" y="-100.3" font-family="Times,serif" font-size="14.00">4: has_subcountries</text>
<polyline fill="none" stroke="blue" points="230.5,-92.5 355.5,-92.5 "/>
<text text-anchor="middle" x="293" y="-77.3" font-family="Times,serif" font-size="14.00">5: id</text>
<polyline fill="none" stroke="blue" points="230.5,-69.5 355.5,-69.5 "/>
<text text-anchor="middle" x="293" y="-54.3" font-family="Times,serif" font-size="14.00">6: name</text>
<polyline fill="none" stroke="blue" points="230.5,-46.5 355.5,-46.5 "/>
<text text-anchor="middle" x="293" y="-31.3" font-family="Times,serif" font-size="14.00">7: number</text>
<polyline fill="none" stroke="blue" points="230.5,-23.5 355.5,-23.5 "/>
<text text-anchor="middle" x="293" y="-8.3" font-family="Times,serif" font-size="14.00">8: timestamp</text>
</g>
<!-- subcountries -->
<g id="node2" class="node"><title>subcountries</title>
<path fill="none" stroke="blue" d="M226,-221.5C226,-221.5 450,-221.5 450,-221.5 456,-221.5 462,-227.5 462,-233.5 462,-233.5 462,-393.5 462,-393.5 462,-399.5 456,-405.5 450,-405.5 450,-405.5 226,-405.5 226,-405.5 220,-405.5 214,-399.5 214,-393.5 214,-393.5 214,-233.5 214,-233.5 214,-227.5 220,-221.5 226,-221.5"/>
<text text-anchor="middle" x="257.5" y="-309.8" font-family="Times,serif" font-size="14.00">subcountries</text>
<polyline fill="none" stroke="blue" points="301,-221.5 301,-405.5 "/>
<text text-anchor="middle" x="381.5" y="-390.3" font-family="Times,serif" font-size="14.00">1: code</text>
<polyline fill="none" stroke="blue" points="301,-382.5 462,-382.5 "/>
<text text-anchor="middle" x="381.5" y="-367.3" font-family="Times,serif" font-size="14.00">2: country_id</text>
<polyline fill="none" stroke="blue" points="301,-359.5 462,-359.5 "/>
<text text-anchor="middle" x="381.5" y="-344.3" font-family="Times,serif" font-size="14.00">3: fc_name</text>
<polyline fill="none" stroke="blue" points="301,-336.5 462,-336.5 "/>
<text text-anchor="middle" x="381.5" y="-321.3" font-family="Times,serif" font-size="14.00">4: id</text>
<polyline fill="none" stroke="blue" points="301,-313.5 462,-313.5 "/>
<text text-anchor="middle" x="381.5" y="-298.3" font-family="Times,serif" font-size="14.00">5: name</text>
<polyline fill="none" stroke="blue" points="301,-290.5 462,-290.5 "/>
<text text-anchor="middle" x="381.5" y="-275.3" font-family="Times,serif" font-size="14.00">6: sequence</text>
<polyline fill="none" stroke="blue" points="301,-267.5 462,-267.5 "/>
<text text-anchor="middle" x="381.5" y="-252.3" font-family="Times,serif" font-size="14.00">7: subcountry_category_id</text>
<polyline fill="none" stroke="blue" points="301,-244.5 462,-244.5 "/>
<text text-anchor="middle" x="381.5" y="-229.3" font-family="Times,serif" font-size="14.00">8: timestamp</text>
</g>
<!-- subcountries&#45;&gt;countries -->
<g id="edge1" class="edge"><title>subcountries:port2&#45;&gt;countries:port0:w</title>
<path fill="none" stroke="grey" d="M463,-371.5C529.89,-371.5 506.558,-270.889 462,-221 372.546,-120.842 251.663,-284.972 162,-185 137.123,-157.263 122.748,-103.83 150.872,-94.0552"/>
<polygon fill="grey" stroke="grey" points="151.647,-97.4773 161,-92.5 150.585,-90.5584 151.647,-97.4773"/>
</g>
<!-- subcountry_categories -->
<g id="node3" class="node"><title>subcountry_categories</title>
<path fill="none" stroke="blue" d="M394.5,-58C394.5,-58 599.5,-58 599.5,-58 605.5,-58 611.5,-64 611.5,-70 611.5,-70 611.5,-115 611.5,-115 611.5,-121 605.5,-127 599.5,-127 599.5,-127 394.5,-127 394.5,-127 388.5,-127 382.5,-121 382.5,-115 382.5,-115 382.5,-70 382.5,-70 382.5,-64 388.5,-58 394.5,-58"/>
<text text-anchor="middle" x="452.5" y="-88.8" font-family="Times,serif" font-size="14.00">subcountry_categories</text>
<polyline fill="none" stroke="blue" points="522.5,-58 522.5,-127 "/>
<text text-anchor="middle" x="567" y="-111.8" font-family="Times,serif" font-size="14.00">1: id</text>
<polyline fill="none" stroke="blue" points="522.5,-104 611.5,-104 "/>
<text text-anchor="middle" x="567" y="-88.8" font-family="Times,serif" font-size="14.00">2: name</text>
<polyline fill="none" stroke="blue" points="522.5,-81 611.5,-81 "/>
<text text-anchor="middle" x="567" y="-65.8" font-family="Times,serif" font-size="14.00">3: timestamp</text>
</g>
<!-- subcountries&#45;&gt;subcountry_categories -->
<g id="edge3" class="edge"><title>subcountries:port7&#45;&gt;subcountry_categories:port0:w</title>
<path fill="none" stroke="grey" d="M463,-255.5C478.34,-255.5 467.524,-235.311 462,-221 442.307,-169.978 401.683,-178.526 382,-127.5 378.325,-117.972 372.341,-105.876 373.059,-98.6862"/>
<polygon fill="grey" stroke="grey" points="375.262,-101.407 381,-92.5 370.96,-95.8845 375.262,-101.407"/>
</g>
<!-- subcountry_info -->
<g id="node4" class="node"><title>subcountry_info</title>
<path fill="none" stroke="blue" d="M12,-256C12,-256 184,-256 184,-256 190,-256 196,-262 196,-268 196,-268 196,-359 196,-359 196,-365 190,-371 184,-371 184,-371 12,-371 12,-371 6,-371 0,-365 0,-359 0,-359 0,-268 0,-268 0,-262 6,-256 12,-256"/>
<text text-anchor="middle" x="53.5" y="-309.8" font-family="Times,serif" font-size="14.00">subcountry_info</text>
<polyline fill="none" stroke="blue" points="107,-256 107,-371 "/>
<text text-anchor="middle" x="151.5" y="-355.8" font-family="Times,serif" font-size="14.00">1: country_id</text>
<polyline fill="none" stroke="blue" points="107,-348 196,-348 "/>
<text text-anchor="middle" x="151.5" y="-332.8" font-family="Times,serif" font-size="14.00">2: id</text>
<polyline fill="none" stroke="blue" points="107,-325 196,-325 "/>
<text text-anchor="middle" x="151.5" y="-309.8" font-family="Times,serif" font-size="14.00">3: name</text>
<polyline fill="none" stroke="blue" points="107,-302 196,-302 "/>
<text text-anchor="middle" x="151.5" y="-286.8" font-family="Times,serif" font-size="14.00">4: sequence</text>
<polyline fill="none" stroke="blue" points="107,-279 196,-279 "/>
<text text-anchor="middle" x="151.5" y="-263.8" font-family="Times,serif" font-size="14.00">5: timestamp</text>
</g>
<!-- subcountry_info&#45;&gt;countries -->
<g id="edge2" class="edge"><title>subcountry_info:port1&#45;&gt;countries:port0:w</title>
<path fill="none" stroke="grey" d="M197,-359.5C208.556,-359.5 198.629,-266.753 196,-255.5 188.087,-221.625 169.934,-218.87 162,-185 153.539,-148.879 126.058,-102.629 150.977,-93.9407"/>
<polygon fill="grey" stroke="grey" points="151.6,-97.3873 161,-92.5 150.604,-90.4585 151.6,-97.3873"/>
</g>
</g>
</svg>
