/* XPM */
static char * image_name[] = {
"19 17 4 1",
" 	c None",
".	c #FFFFFFFFFFFF",
"X	c #393939393939",
"o	c #6B6B6B6B6B6B",
"                   ",
"  ..............X  ",
"  ..oooooooooooXX  ",
"   .oooooooooooX   ",
"   ..oooooooooXX   ",
"    .oooooooooX    ",
"    ..oooooooXX    ",
"     .oooooooX     ",
"     ..oooooXX     ",
"      .oooooX      ",
"      ..oooXX      ",
"       .oooX       ",
"       ..oXX       ",
"        .XX        ",
"        .XX        ",
"         X         ",
"                   "};
