<?xml version="1.0" encoding="UTF-8" standalone="no"?>
<!DOCTYPE svg PUBLIC "-//W3C//DTD SVG 1.1//EN"
 "http://www.w3.org/Graphics/SVG/1.1/DTD/svg11.dtd">
<!-- Generated by graphviz version 2.38.0 (20140413.2041)
 -->
<!-- Title: test Pages: 1 -->
<svg width="342pt" height="332pt"
 viewBox="0.00 0.00 342.04 332.00" xmlns="http://www.w3.org/2000/svg" xmlns:xlink="http://www.w3.org/1999/xlink">
<g id="graph0" class="graph" transform="scale(1 1) rotate(0) translate(4 328)">
<title>test</title>
<polygon fill="white" stroke="none" points="-4,4 -4,-328 338.039,-328 338.039,4 -4,4"/>
<!-- node1 -->
<g id="node1" class="node"><title>node1</title>
<ellipse fill="green" stroke="black" cx="112.34" cy="-306" rx="27" ry="18"/>
<text text-anchor="middle" x="112.34" y="-302.3" font-family="Times New Roman,serif" font-size="14.00">7</text>
</g>
<!-- node2 -->
<g id="node2" class="node"><title>node2</title>
<ellipse fill="yellow" stroke="black" cx="39.3395" cy="-162" rx="27" ry="18"/>
<text text-anchor="middle" x="39.3395" y="-158.3" font-family="Times New Roman,serif" font-size="14.00">9</text>
</g>
<!-- node1&#45;&#45;node2 -->
<g id="edge16" class="edge"><title>node1&#45;&#45;node2</title>
<path fill="none" stroke="black" d="M98.7752,-290.124C90.0452,-279.962 78.9495,-265.871 71.3395,-252 58.387,-228.391 48.8971,-198.506 43.749,-180.074"/>
</g>
<!-- node3 -->
<g id="node3" class="node"><title>node3</title>
<ellipse fill="red" stroke="black" cx="97.3395" cy="-18" rx="27" ry="18"/>
<text text-anchor="middle" x="97.3395" y="-14.3" font-family="Times New Roman,serif" font-size="14.00">8</text>
</g>
<!-- node1&#45;&#45;node3 -->
<g id="edge15" class="edge"><title>node1&#45;&#45;node3</title>
<path fill="none" stroke="black" d="M94.1484,-292.259C67.3493,-272.133 18.7647,-230.082 3.33953,-180 -15.1433,-119.99 48.3692,-58.4738 80.2172,-32.1966"/>
</g>
<!-- node4 -->
<g id="node4" class="node"><title>node4</title>
<ellipse fill="yellow" stroke="black" cx="182.34" cy="-234" rx="27" ry="18"/>
<text text-anchor="middle" x="182.34" y="-230.3" font-family="Times New Roman,serif" font-size="14.00">1</text>
</g>
<!-- node1&#45;&#45;node4 -->
<g id="edge13" class="edge"><title>node1&#45;&#45;node4</title>
<path fill="none" stroke="black" d="M126.844,-290.496C138.857,-278.482 155.845,-261.494 167.854,-249.485"/>
</g>
<!-- node5 -->
<g id="node5" class="node"><title>node5</title>
<ellipse fill="red" stroke="black" cx="299.34" cy="-18" rx="27" ry="18"/>
<text text-anchor="middle" x="299.34" y="-14.3" font-family="Times New Roman,serif" font-size="14.00">4</text>
</g>
<!-- node1&#45;&#45;node5 -->
<g id="edge14" class="edge"><title>node1&#45;&#45;node5</title>
<path fill="none" stroke="black" d="M136.808,-298.177C181.379,-284.303 274.921,-248.179 315.34,-180 339.922,-138.534 336.237,-118.957 325.34,-72 322.281,-58.8216 315.464,-45.1424 309.578,-34.9825"/>
</g>
<!-- node2&#45;&#45;node3 -->
<g id="edge18" class="edge"><title>node2&#45;&#45;node3</title>
<path fill="none" stroke="black" d="M41.702,-144.015C44.6691,-125.66 50.7078,-95.8397 61.3395,-72 67.4104,-58.3871 76.9894,-44.5039 84.7406,-34.3632"/>
</g>
<!-- node6 -->
<g id="node6" class="node"><title>node6</title>
<ellipse fill="red" stroke="black" cx="97.3395" cy="-90" rx="27" ry="18"/>
<text text-anchor="middle" x="97.3395" y="-86.3" font-family="Times New Roman,serif" font-size="14.00">3</text>
</g>
<!-- node2&#45;&#45;node6 -->
<g id="edge17" class="edge"><title>node2&#45;&#45;node6</title>
<path fill="none" stroke="black" d="M51.9247,-145.811C61.6532,-134.07 75.0566,-117.893 84.779,-106.159"/>
</g>
<!-- node4&#45;&#45;node5 -->
<g id="edge3" class="edge"><title>node4&#45;&#45;node5</title>
<path fill="none" stroke="black" d="M208.336,-228.711C234.974,-222.798 275.126,-209.331 294.34,-180 323.761,-135.086 311.863,-66.9805 304.075,-35.7349"/>
</g>
<!-- node4&#45;&#45;node6 -->
<g id="edge2" class="edge"><title>node4&#45;&#45;node6</title>
<path fill="none" stroke="black" d="M172.754,-216.987C156.429,-189.715 123.41,-134.553 107.02,-107.173"/>
</g>
<!-- node7 -->
<g id="node7" class="node"><title>node7</title>
<ellipse fill="blue" stroke="black" cx="187.34" cy="-162" rx="27" ry="18"/>
<text text-anchor="middle" x="187.34" y="-158.3" font-family="Times New Roman,serif" font-size="14.00">2</text>
</g>
<!-- node4&#45;&#45;node7 -->
<g id="edge1" class="edge"><title>node4&#45;&#45;node7</title>
<path fill="none" stroke="black" d="M183.575,-215.697C184.351,-204.846 185.345,-190.917 186.118,-180.104"/>
</g>
<!-- node7&#45;&#45;node3 -->
<g id="edge6" class="edge"><title>node7&#45;&#45;node3</title>
<path fill="none" stroke="black" d="M178.022,-145.094C167.446,-127.17 149.555,-97.2417 133.34,-72 125.163,-59.2722 115.514,-45.1097 108.265,-34.629"/>
</g>
<!-- node7&#45;&#45;node6 -->
<g id="edge4" class="edge"><title>node7&#45;&#45;node6</title>
<path fill="none" stroke="black" d="M170.411,-147.834C154.321,-135.319 130.257,-116.603 114.192,-104.107"/>
</g>
<!-- node9 -->
<g id="node9" class="node"><title>node9</title>
<ellipse fill="green" stroke="black" cx="222.34" cy="-90" rx="27" ry="18"/>
<text text-anchor="middle" x="222.34" y="-86.3" font-family="Times New Roman,serif" font-size="14.00">5</text>
</g>
<!-- node7&#45;&#45;node9 -->
<g id="edge5" class="edge"><title>node7&#45;&#45;node9</title>
<path fill="none" stroke="black" d="M195.457,-144.765C201.031,-133.618 208.407,-118.865 214.023,-107.633"/>
</g>
<!-- node8 -->
<g id="node8" class="node"><title>node8</title>
<ellipse fill="blue" stroke="black" cx="107.34" cy="-234" rx="27" ry="18"/>
<text text-anchor="middle" x="107.34" y="-230.3" font-family="Times New Roman,serif" font-size="14.00">6</text>
</g>
<!-- node8&#45;&#45;node2 -->
<g id="edge12" class="edge"><title>node8&#45;&#45;node2</title>
<path fill="none" stroke="black" d="M93.2499,-218.496C81.5794,-206.482 65.0766,-189.494 53.4111,-177.485"/>
</g>
<!-- node8&#45;&#45;node5 -->
<g id="edge10" class="edge"><title>node8&#45;&#45;node5</title>
<path fill="none" stroke="black" d="M129.124,-223.28C134.713,-220.849 140.73,-218.284 146.34,-216 188.159,-198.974 209.676,-212.189 241.34,-180 281.55,-139.122 294.096,-68.3722 297.836,-36.0255"/>
</g>
<!-- node8&#45;&#45;node6 -->
<g id="edge9" class="edge"><title>node8&#45;&#45;node6</title>
<path fill="none" stroke="black" d="M106.133,-215.871C104.211,-188.578 100.475,-135.52 98.55,-108.189"/>
</g>
<!-- node8&#45;&#45;node9 -->
<g id="edge11" class="edge"><title>node8&#45;&#45;node9</title>
<path fill="none" stroke="black" d="M129.379,-223.289C162.64,-208.585 221.963,-182.142 223.34,-180 237.289,-158.29 232.613,-127.031 227.676,-107.919"/>
</g>
<!-- node9&#45;&#45;node3 -->
<g id="edge8" class="edge"><title>node9&#45;&#45;node3</title>
<path fill="none" stroke="black" d="M202.256,-77.7533C178.93,-64.6905 140.678,-43.2696 117.373,-30.2188"/>
</g>
<!-- node9&#45;&#45;node5 -->
<g id="edge7" class="edge"><title>node9&#45;&#45;node5</title>
<path fill="none" stroke="black" d="M237.922,-74.8345C251.369,-62.6099 270.68,-45.0538 284.043,-32.9056"/>
</g>
</g>
</svg>

