<?xml version="1.0" encoding="UTF-8" standalone="no"?>
<!DOCTYPE svg PUBLIC "-//W3C//DTD SVG 1.1//EN"
 "http://www.w3.org/Graphics/SVG/1.1/DTD/svg11.dtd">
<!-- Generated by graphviz version 2.38.0 (20140413.2041)
 -->
<!-- Title: test Pages: 1 -->
<svg width="282pt" height="332pt"
 viewBox="0.00 0.00 282.00 332.00" xmlns="http://www.w3.org/2000/svg" xmlns:xlink="http://www.w3.org/1999/xlink">
<g id="graph0" class="graph" transform="scale(1 1) rotate(0) translate(4 328)">
<title>test</title>
<polygon fill="white" stroke="none" points="-4,4 -4,-328 278,-328 278,4 -4,4"/>
<!-- node1 -->
<g id="node1" class="node"><title>node1</title>
<ellipse fill="red" stroke="black" cx="143" cy="-306" rx="27" ry="18"/>
<text text-anchor="middle" x="143" y="-302.3" font-family="Times New Roman,serif" font-size="14.00">1</text>
</g>
<!-- node2 -->
<g id="node2" class="node"><title>node2</title>
<ellipse fill="blue" stroke="black" cx="102" cy="-234" rx="27" ry="18"/>
<text text-anchor="middle" x="102" y="-230.3" font-family="Times New Roman,serif" font-size="14.00">4</text>
</g>
<!-- node1&#45;&#45;node2 -->
<g id="edge3" class="edge"><title>node1&#45;&#45;node2</title>
<path fill="none" stroke="black" d="M133.491,-288.765C126.867,-277.456 118.07,-262.437 111.458,-251.147"/>
</g>
<!-- node3 -->
<g id="node3" class="node"><title>node3</title>
<ellipse fill="blue" stroke="black" cx="184" cy="-234" rx="27" ry="18"/>
<text text-anchor="middle" x="184" y="-230.3" font-family="Times New Roman,serif" font-size="14.00">2</text>
</g>
<!-- node1&#45;&#45;node3 -->
<g id="edge1" class="edge"><title>node1&#45;&#45;node3</title>
<path fill="none" stroke="black" d="M152.509,-288.765C159.133,-277.456 167.93,-262.437 174.542,-251.147"/>
</g>
<!-- node4 -->
<g id="node4" class="node"><title>node4</title>
<ellipse fill="green" stroke="black" cx="247" cy="-162" rx="27" ry="18"/>
<text text-anchor="middle" x="247" y="-158.3" font-family="Times New Roman,serif" font-size="14.00">3</text>
</g>
<!-- node1&#45;&#45;node4 -->
<g id="edge2" class="edge"><title>node1&#45;&#45;node4</title>
<path fill="none" stroke="black" d="M164.631,-295.194C181.986,-286.273 205.73,-271.521 220,-252 235.818,-230.362 242.475,-199.364 245.2,-180.243"/>
</g>
<!-- node5 -->
<g id="node5" class="node"><title>node5</title>
<ellipse fill="green" stroke="black" cx="27" cy="-162" rx="27" ry="18"/>
<text text-anchor="middle" x="27" y="-158.3" font-family="Times New Roman,serif" font-size="14.00">7</text>
</g>
<!-- node1&#45;&#45;node5 -->
<g id="edge4" class="edge"><title>node1&#45;&#45;node5</title>
<path fill="none" stroke="black" d="M121.618,-294.547C104.643,-285.338 81.2975,-270.517 66,-252 48.0567,-230.281 36.9273,-199.024 31.3575,-179.916"/>
</g>
<!-- node2&#45;&#45;node5 -->
<g id="edge12" class="edge"><title>node2&#45;&#45;node5</title>
<path fill="none" stroke="black" d="M86.8226,-218.834C73.8105,-206.69 55.1604,-189.283 42.1548,-177.144"/>
</g>
<!-- node6 -->
<g id="node6" class="node"><title>node6</title>
<ellipse fill="green" stroke="black" cx="99" cy="-162" rx="27" ry="18"/>
<text text-anchor="middle" x="99" y="-158.3" font-family="Times New Roman,serif" font-size="14.00">5</text>
</g>
<!-- node2&#45;&#45;node6 -->
<g id="edge10" class="edge"><title>node2&#45;&#45;node6</title>
<path fill="none" stroke="black" d="M101.258,-215.697C100.793,-204.846 100.196,-190.917 99.733,-180.104"/>
</g>
<!-- node8 -->
<g id="node8" class="node"><title>node8</title>
<ellipse fill="red" stroke="black" cx="166" cy="-90" rx="27" ry="18"/>
<text text-anchor="middle" x="166" y="-86.3" font-family="Times New Roman,serif" font-size="14.00">6</text>
</g>
<!-- node2&#45;&#45;node8 -->
<g id="edge11" class="edge"><title>node2&#45;&#45;node8</title>
<path fill="none" stroke="black" d="M113.072,-217.29C119.986,-207.011 128.734,-193.104 135,-180 146.576,-155.792 156.043,-126.075 161.352,-107.842"/>
</g>
<!-- node3&#45;&#45;node4 -->
<g id="edge5" class="edge"><title>node3&#45;&#45;node4</title>
<path fill="none" stroke="black" d="M197.361,-218.155C208.052,-206.276 222.972,-189.697 233.659,-177.824"/>
</g>
<!-- node3&#45;&#45;node6 -->
<g id="edge6" class="edge"><title>node3&#45;&#45;node6</title>
<path fill="none" stroke="black" d="M167.611,-219.503C152.56,-207.108 130.374,-188.838 115.339,-176.455"/>
</g>
<!-- node7 -->
<g id="node7" class="node"><title>node7</title>
<ellipse fill="red" stroke="black" cx="94" cy="-90" rx="27" ry="18"/>
<text text-anchor="middle" x="94" y="-86.3" font-family="Times New Roman,serif" font-size="14.00">8</text>
</g>
<!-- node3&#45;&#45;node7 -->
<g id="edge7" class="edge"><title>node3&#45;&#45;node7</title>
<path fill="none" stroke="black" d="M175.881,-216.481C166.709,-198.27 150.97,-168.33 135,-144 126.318,-130.774 115.29,-116.642 106.858,-106.3"/>
</g>
<!-- node4&#45;&#45;node8 -->
<g id="edge8" class="edge"><title>node4&#45;&#45;node8</title>
<path fill="none" stroke="black" d="M230.997,-147.17C216.797,-134.898 196.16,-117.064 181.97,-104.801"/>
</g>
<!-- node9 -->
<g id="node9" class="node"><title>node9</title>
<ellipse fill="blue" stroke="black" cx="130" cy="-18" rx="27" ry="18"/>
<text text-anchor="middle" x="130" y="-14.3" font-family="Times New Roman,serif" font-size="14.00">9</text>
</g>
<!-- node4&#45;&#45;node9 -->
<g id="edge9" class="edge"><title>node4&#45;&#45;node9</title>
<path fill="none" stroke="black" d="M241.237,-144.213C234.135,-125.223 220.676,-94.0744 202,-72 187.263,-54.5811 165.71,-39.6912 150.028,-30.1694"/>
</g>
<!-- node5&#45;&#45;node7 -->
<g id="edge16" class="edge"><title>node5&#45;&#45;node7</title>
<path fill="none" stroke="black" d="M40.8824,-146.496C52.3813,-134.482 68.6414,-117.494 80.1353,-105.485"/>
</g>
<!-- node5&#45;&#45;node9 -->
<g id="edge17" class="edge"><title>node5&#45;&#45;node9</title>
<path fill="none" stroke="black" d="M29.8209,-143.838C33.6264,-124.789 41.8734,-93.8549 58,-72 71.5473,-53.6406 93.2767,-38.8903 109.325,-29.6579"/>
</g>
<!-- node6&#45;&#45;node7 -->
<g id="edge14" class="edge"><title>node6&#45;&#45;node7</title>
<path fill="none" stroke="black" d="M97.764,-143.697C96.989,-132.846 95.9941,-118.917 95.2217,-108.104"/>
</g>
<!-- node6&#45;&#45;node8 -->
<g id="edge13" class="edge"><title>node6&#45;&#45;node8</title>
<path fill="none" stroke="black" d="M112.882,-146.496C124.381,-134.482 140.641,-117.494 152.135,-105.485"/>
</g>
<!-- node7&#45;&#45;node9 -->
<g id="edge18" class="edge"><title>node7&#45;&#45;node9</title>
<path fill="none" stroke="black" d="M102.35,-72.7646C108.165,-61.456 115.89,-46.4367 121.696,-35.1473"/>
</g>
<!-- node8&#45;&#45;node9 -->
<g id="edge15" class="edge"><title>node8&#45;&#45;node9</title>
<path fill="none" stroke="black" d="M157.65,-72.7646C151.835,-61.456 144.11,-46.4367 138.304,-35.1473"/>
</g>
</g>
</svg>

