/* XPM */
static char * cross_xpm[] = {
"18 19 4 1",
" 	c None",
".	c #080700",
"+	c #080800",
"@	c #090700",
"  .            .  ",
" ...          ... ",
".....        .....",
" .....      ..... ",
"  ....     .....  ",
"   ....   .....   ",
"    .... .....    ",
"     ........     ",
"     .......      ",
"      .....       ",
"      ....+.      ",
"     ....@...     ",
"    ..........    ",
"   .....  ....    ",
"  .....    ....   ",
" .....      ....  ",
".....        .... ",
" ...          ..  ",
"  .           .   "};
