#define file_item_up_arrow_mask_width 13
#define file_item_up_arrow_mask_height 14
static unsigned char file_item_up_arrow_mask_bits[] = {
   0x40, 0x00, 0x40, 0x00, 0x40, 0x00, 0xe0, 0x00, 0xa0, 0x00, 0xa0, 0x00,
   0x90, 0x00, 0x10, 0x01, 0x08, 0x01, 0x08, 0x02, 0x04, 0x04, 0x06, 0x04,
   0x02, 0x08, 0x00, 0x00 };
