/* XPM */
static char * file_item_up_arrow_xpm[] = {
"11 12 2 1",
" 	c None",
".	c #000000",
"    ...    ",
"    ...    ",
"   ....    ",
"   .....   ",
"   .....   ",
"  ... ..   ",
"  ... ...  ",
" ...   ..  ",
" ...   ... ",
"...     ...",
"..      ...",
"..       .."};
