/* XPM */
static char * minus_xpm[] = {
"13 14 2 1",
" 	c None",
".	c #000000",
"             ",
"             ",
"             ",
"             ",
"             ",
"             ",
"  .........  ",
"  .........  ",
"             ",
"             ",
"             ",
"             ",
"             ",
"             "};
