/* XPM */
static char * folder_new_xpm[] = {
"22 22 196 2",
"  	c None",
". 	c #DBDA4D",
"+ 	c #F6F611",
"@ 	c #80800D",
"# 	c #26190E",
"$ 	c #271C11",
"% 	c #271A0F",
"& 	c #FFFF00",
"* 	c #494900",
"= 	c #3B2714",
"- 	c #F4AD6A",
"; 	c #FEC280",
"> 	c #FEC27F",
", 	c #FDB773",
"' 	c #FBFB00",
") 	c #D2D149",
"! 	c #000000",
"~ 	c #CFCE49",
"{ 	c #E5A566",
"] 	c #FECB93",
"^ 	c #FED39A",
"/ 	c #FECE93",
"( 	c #FEC88B",
"_ 	c #F6B675",
": 	c #150F09",
"< 	c #130E08",
"[ 	c #FFFFAF",
"} 	c #FFFFDA",
"| 	c #FEC385",
"1 	c #FED59C",
"2 	c #FECE92",
"3 	c #FCB269",
"4 	c #F9AC62",
"5 	c #F8AC62",
"6 	c #F5A960",
"7 	c #DE9A58",
"8 	c #F3F286",
"9 	c #818129",
"0 	c #FEC888",
"a 	c #FED199",
"b 	c #FEC282",
"c 	c #EEA059",
"d 	c #80532C",
"e 	c #4B3119",
"f 	c #4A3019",
"g 	c #452C17",
"h 	c #3F2814",
"i 	c #808004",
"j 	c #FECA8F",
"k 	c #FDB56E",
"l 	c #A86F3C",
"m 	c #53504D",
"n 	c #F5F5F5",
"o 	c #F7F7F7",
"p 	c #F1F1F1",
"q 	c #EAEAEA",
"r 	c #FDFD00",
"s 	c #FFFFC3",
"t 	c #FFFFDD",
"u 	c #999999",
"v 	c #333333",
"w 	c #FEC685",
"x 	c #FEC182",
"y 	c #F2A55C",
"z 	c #C8C8C7",
"A 	c #E7E7E7",
"B 	c #E4E4E4",
"C 	c #E1E1E1",
"D 	c #D9D9D8",
"E 	c #494901",
"F 	c #CFCE48",
"G 	c #E3E254",
"H 	c #161616",
"I 	c #FEC283",
"J 	c #FBB269",
"K 	c #AB6F3B",
"L 	c #F2F2F2",
"M 	c #E2E2E1",
"N 	c #EAEAE9",
"O 	c #EBEBEA",
"P 	c #E3E3E3",
"Q 	c #969695",
"R 	c #848483",
"S 	c #7D7D7C",
"T 	c #787877",
"U 	c #FDFD04",
"V 	c #646463",
"W 	c #636362",
"X 	c #5C5C5B",
"Y 	c #50504E",
"Z 	c #FEB971",
"` 	c #EA9E58",
" .	c #4E331B",
"..	c #CDCDCC",
"+.	c #D5D5D4",
"@.	c #E1E1E0",
"#.	c #E9E9E8",
"$.	c #E7E7E6",
"%.	c #E5E5E3",
"&.	c #D1D1D0",
"*.	c #A1A1A0",
"=.	c #B5B5B4",
"-.	c #B6B6B4",
";.	c #ACACAB",
">.	c #747473",
",.	c #8A8A88",
"'.	c #828281",
").	c #656564",
"!.	c #FEB469",
"~.	c #A66D3A",
"{.	c #DEDEDD",
"].	c #D4D4D3",
"^.	c #E0E0DF",
"/.	c #E5E5E4",
"(.	c #DDDDDC",
"_.	c #D5D5D3",
":.	c #C6C6C5",
"<.	c #C5C5C4",
"[.	c #C0C0BE",
"}.	c #B7B7B6",
"|.	c #767675",
"1.	c #8C8C8C",
"2.	c #818180",
"3.	c #292928",
"4.	c #F3A45A",
"5.	c #ACACAC",
"6.	c #C9C9C8",
"7.	c #DCDCDB",
"8.	c #D0D0CF",
"9.	c #C2C2C1",
"0.	c #B9B9B8",
"a.	c #B2B2B1",
"b.	c #9F9F9E",
"c.	c #7A7A79",
"d.	c #888887",
"e.	c #5E5E5C",
"f.	c #161615",
"g.	c #B57740",
"h.	c #CFCFCE",
"i.	c #C4C4C4",
"j.	c #D2D2D1",
"k.	c #CDCDCB",
"l.	c #C1C1C0",
"m.	c #BBBBBA",
"n.	c #B3B3B2",
"o.	c #939391",
"p.	c #7F7F7F",
"q.	c #383837",
"r.	c #472E19",
"s.	c #BDBDBB",
"t.	c #C3C3C1",
"u.	c #C7C7C5",
"v.	c #C8C8C6",
"w.	c #C3C3C2",
"x.	c #BFBFBE",
"y.	c #B9B9B7",
"z.	c #A5A5A4",
"A.	c #9D9D9B",
"B.	c #8D8D8C",
"C.	c #676766",
"D.	c #0B0704",
"E.	c #6D6864",
"F.	c #ADADAC",
"G.	c #B6B6B5",
"H.	c #BABAB9",
"I.	c #AEAEAD",
"J.	c #A9A9A7",
"K.	c #A2A2A1",
"L.	c #9D9D9C",
"M.	c #919190",
"N.	c #7F7F7E",
"O.	c #2D2D2C",
"P.	c #171717",
"Q.	c #919191",
"R.	c #9A9A9A",
"S.	c #999998",
"T.	c #9C9C9B",
"U.	c #9F9F9D",
"V.	c #9A9A99",
"W.	c #979796",
"X.	c #939393",
"Y.	c #90908F",
"Z.	c #8B8B8A",
"`.	c #5A5A58",
" +	c #141413",
".+	c #131313",
"++	c #323232",
"@+	c #2B2B2B",
"#+	c #2C2C2B",
"$+	c #2D2D2D",
"%+	c #2A2A2A",
"&+	c #282828",
"*+	c #272727",
"=+	c #262625",
"-+	c #252524",
";+	c #101010",
"                                            ",
"                                            ",
"                                            ",
"                                            ",
"                              .             ",
"                              + @           ",
"    # $ $ %         .         & *       .   ",
"  = - ; > , =       * ' ) ! . & . ! ~ & *   ",
"= { ] ^ / ( _ = : : < * & . [ } [ . & @     ",
"= | 1 2 ; 3 4 5 5 5 6 7 * 8 } } } 8 9       ",
"= 0 a b c d e f f f g h * 8 } } } 8 i ! ! ! ",
"= 0 j k l m n o n p q * r . s t [ . & i u v ",
"= w x y f z A B C D E r F ! G & . ! ~ & * H ",
"= I J K m L M N O P . Q R S T U V W X Y .   ",
"= Z `  ...+.@.#.$.%.&.*.=.-.;.+ >.,.'.).!   ",
"= !.~.m {.].^./.M (._.:.<.[.}.. |.1.2.3.    ",
"= 4.f 5.6.].(.7.D +.8.6.9.0.a.b.c.d.e.f.    ",
"= g.m h.i.h.].j.8.k.z l.m.n.;.*.o.p.q.      ",
"= r.5.n.s.t.u.v.:.w.x.y.n.;.z.A.B.C.!       ",
"D.E.z F.n.G.y.m.H.G.n.I.J.K.L.M.N.O.        ",
"P.Q.R.S.T.U.U.U.A.V.W.X.Y.Z.,.S `. +        ",
".+++@+#+O.$+$+$+O.#+@+%+&+*+=+-+;+          "};
