<svg height="200" viewBox="0 0 16 16" width="200" xmlns="http://www.w3.org/2000/svg">
  <rect width="100%" height="100%" fill="white"/>
  <rect x="2" y="2" width="1" height="1" fill="black"/>
  <rect x="4" y="2" width="1" height="1" fill="black"/>
  <rect x="6" y="2" width="1" height="1" fill="black"/>
  <rect x="8" y="2" width="1" height="1" fill="black"/>
  <rect x="10" y="2" width="1" height="1" fill="black"/>
  <rect x="12" y="2" width="1" height="1" fill="black"/>
  <rect x="2" y="3" width="1" height="1" fill="black"/>
  <rect x="4" y="3" width="2" height="1" fill="black"/>
  <rect x="8" y="3" width="1" height="1" fill="black"/>
  <rect x="10" y="3" width="1" height="1" fill="black"/>
  <rect x="12" y="3" width="2" height="1" fill="black"/>
  <rect x="2" y="4" width="2" height="1" fill="black"/>
  <rect x="7" y="4" width="2" height="1" fill="black"/>
  <rect x="12" y="4" width="1" height="1" fill="black"/>
  <rect x="2" y="5" width="3" height="1" fill="black"/>
  <rect x="6" y="5" width="1" height="1" fill="black"/>
  <rect x="8" y="5" width="2" height="1" fill="black"/>
  <rect x="11" y="5" width="1" height="1" fill="black"/>
  <rect x="13" y="5" width="1" height="1" fill="black"/>
  <rect x="2" y="6" width="1" height="1" fill="black"/>
  <rect x="4" y="6" width="2" height="1" fill="black"/>
  <rect x="7" y="6" width="1" height="1" fill="black"/>
  <rect x="9" y="6" width="2" height="1" fill="black"/>
  <rect x="12" y="6" width="1" height="1" fill="black"/>
  <rect x="2" y="7" width="2" height="1" fill="black"/>
  <rect x="5" y="7" width="1" height="1" fill="black"/>
  <rect x="8" y="7" width="4" height="1" fill="black"/>
  <rect x="13" y="7" width="1" height="1" fill="black"/>
  <rect x="2" y="8" width="5" height="1" fill="black"/>
  <rect x="8" y="8" width="3" height="1" fill="black"/>
  <rect x="2" y="9" width="4" height="1" fill="black"/>
  <rect x="7" y="9" width="3" height="1" fill="black"/>
  <rect x="12" y="9" width="2" height="1" fill="black"/>
  <rect x="2" y="10" width="2" height="1" fill="black"/>
  <rect x="5" y="10" width="1" height="1" fill="black"/>
  <rect x="10" y="10" width="2" height="1" fill="black"/>
  <rect x="2" y="11" width="1" height="1" fill="black"/>
  <rect x="4" y="11" width="2" height="1" fill="black"/>
  <rect x="8" y="11" width="1" height="1" fill="black"/>
  <rect x="11" y="11" width="1" height="1" fill="black"/>
  <rect x="13" y="11" width="1" height="1" fill="black"/>
  <rect x="2" y="12" width="2" height="1" fill="black"/>
  <rect x="5" y="12" width="1" height="1" fill="black"/>
  <rect x="7" y="12" width="1" height="1" fill="black"/>
  <rect x="12" y="12" width="1" height="1" fill="black"/>
  <rect x="2" y="13" width="12" height="1" fill="black"/>
</svg>