<svg height="100" viewBox="0 0 52 20" width="300" xmlns="http://www.w3.org/2000/svg">
  <rect width="100%" height="100%" fill="white"/>
  <rect x="2" y="2" width="1" height="1" fill="red"/>
  <rect x="4" y="2" width="1" height="1" fill="red"/>
  <rect x="6" y="2" width="1" height="1" fill="red"/>
  <rect x="8" y="2" width="1" height="1" fill="red"/>
  <rect x="10" y="2" width="1" height="1" fill="red"/>
  <rect x="12" y="2" width="1" height="1" fill="red"/>
  <rect x="14" y="2" width="1" height="1" fill="red"/>
  <rect x="16" y="2" width="1" height="1" fill="red"/>
  <rect x="18" y="2" width="1" height="1" fill="red"/>
  <rect x="20" y="2" width="1" height="1" fill="red"/>
  <rect x="22" y="2" width="1" height="1" fill="red"/>
  <rect x="24" y="2" width="1" height="1" fill="red"/>
  <rect x="26" y="2" width="1" height="1" fill="red"/>
  <rect x="28" y="2" width="1" height="1" fill="red"/>
  <rect x="30" y="2" width="1" height="1" fill="red"/>
  <rect x="32" y="2" width="1" height="1" fill="red"/>
  <rect x="34" y="2" width="1" height="1" fill="red"/>
  <rect x="36" y="2" width="1" height="1" fill="red"/>
  <rect x="38" y="2" width="1" height="1" fill="red"/>
  <rect x="40" y="2" width="1" height="1" fill="red"/>
  <rect x="42" y="2" width="1" height="1" fill="red"/>
  <rect x="44" y="2" width="1" height="1" fill="red"/>
  <rect x="46" y="2" width="1" height="1" fill="red"/>
  <rect x="48" y="2" width="1" height="1" fill="red"/>
  <rect x="2" y="3" width="1" height="1" fill="red"/>
  <rect x="4" y="3" width="2" height="1" fill="red"/>
  <rect x="8" y="3" width="1" height="1" fill="red"/>
  <rect x="10" y="3" width="1" height="1" fill="red"/>
  <rect x="17" y="3" width="1" height="1" fill="red"/>
  <rect x="20" y="3" width="3" height="1" fill="red"/>
  <rect x="25" y="3" width="3" height="1" fill="red"/>
  <rect x="29" y="3" width="1" height="1" fill="red"/>
  <rect x="31" y="3" width="2" height="1" fill="red"/>
  <rect x="35" y="3" width="1" height="1" fill="red"/>
  <rect x="41" y="3" width="2" height="1" fill="red"/>
  <rect x="46" y="3" width="4" height="1" fill="red"/>
  <rect x="2" y="4" width="2" height="1" fill="red"/>
  <rect x="7" y="4" width="2" height="1" fill="red"/>
  <rect x="11" y="4" width="1" height="1" fill="red"/>
  <rect x="13" y="4" width="7" height="1" fill="red"/>
  <rect x="21" y="4" width="1" height="1" fill="red"/>
  <rect x="24" y="4" width="1" height="1" fill="red"/>
  <rect x="26" y="4" width="2" height="1" fill="red"/>
  <rect x="29" y="4" width="1" height="1" fill="red"/>
  <rect x="33" y="4" width="2" height="1" fill="red"/>
  <rect x="38" y="4" width="2" height="1" fill="red"/>
  <rect x="41" y="4" width="1" height="1" fill="red"/>
  <rect x="43" y="4" width="4" height="1" fill="red"/>
  <rect x="2" y="5" width="3" height="1" fill="red"/>
  <rect x="6" y="5" width="1" height="1" fill="red"/>
  <rect x="8" y="5" width="2" height="1" fill="red"/>
  <rect x="12" y="5" width="1" height="1" fill="red"/>
  <rect x="14" y="5" width="1" height="1" fill="red"/>
  <rect x="16" y="5" width="3" height="1" fill="red"/>
  <rect x="22" y="5" width="1" height="1" fill="red"/>
  <rect x="24" y="5" width="3" height="1" fill="red"/>
  <rect x="29" y="5" width="4" height="1" fill="red"/>
  <rect x="34" y="5" width="1" height="1" fill="red"/>
  <rect x="36" y="5" width="3" height="1" fill="red"/>
  <rect x="42" y="5" width="3" height="1" fill="red"/>
  <rect x="49" y="5" width="1" height="1" fill="red"/>
  <rect x="2" y="6" width="1" height="1" fill="red"/>
  <rect x="4" y="6" width="1" height="1" fill="red"/>
  <rect x="7" y="6" width="1" height="1" fill="red"/>
  <rect x="10" y="6" width="1" height="1" fill="red"/>
  <rect x="12" y="6" width="1" height="1" fill="red"/>
  <rect x="14" y="6" width="1" height="1" fill="red"/>
  <rect x="16" y="6" width="1" height="1" fill="red"/>
  <rect x="18" y="6" width="1" height="1" fill="red"/>
  <rect x="20" y="6" width="3" height="1" fill="red"/>
  <rect x="24" y="6" width="1" height="1" fill="red"/>
  <rect x="26" y="6" width="1" height="1" fill="red"/>
  <rect x="28" y="6" width="1" height="1" fill="red"/>
  <rect x="33" y="6" width="5" height="1" fill="red"/>
  <rect x="39" y="6" width="3" height="1" fill="red"/>
  <rect x="44" y="6" width="2" height="1" fill="red"/>
  <rect x="47" y="6" width="1" height="1" fill="red"/>
  <rect x="2" y="7" width="2" height="1" fill="red"/>
  <rect x="7" y="7" width="2" height="1" fill="red"/>
  <rect x="10" y="7" width="2" height="1" fill="red"/>
  <rect x="19" y="7" width="1" height="1" fill="red"/>
  <rect x="24" y="7" width="3" height="1" fill="red"/>
  <rect x="29" y="7" width="1" height="1" fill="red"/>
  <rect x="34" y="7" width="2" height="1" fill="red"/>
  <rect x="38" y="7" width="1" height="1" fill="red"/>
  <rect x="40" y="7" width="1" height="1" fill="red"/>
  <rect x="42" y="7" width="1" height="1" fill="red"/>
  <rect x="45" y="7" width="1" height="1" fill="red"/>
  <rect x="48" y="7" width="2" height="1" fill="red"/>
  <rect x="2" y="8" width="1" height="1" fill="red"/>
  <rect x="6" y="8" width="4" height="1" fill="red"/>
  <rect x="12" y="8" width="1" height="1" fill="red"/>
  <rect x="14" y="8" width="4" height="1" fill="red"/>
  <rect x="19" y="8" width="1" height="1" fill="red"/>
  <rect x="21" y="8" width="4" height="1" fill="red"/>
  <rect x="26" y="8" width="3" height="1" fill="red"/>
  <rect x="31" y="8" width="3" height="1" fill="red"/>
  <rect x="38" y="8" width="1" height="1" fill="red"/>
  <rect x="41" y="8" width="1" height="1" fill="red"/>
  <rect x="48" y="8" width="1" height="1" fill="red"/>
  <rect x="2" y="9" width="1" height="1" fill="red"/>
  <rect x="6" y="9" width="1" height="1" fill="red"/>
  <rect x="8" y="9" width="2" height="1" fill="red"/>
  <rect x="11" y="9" width="3" height="1" fill="red"/>
  <rect x="16" y="9" width="2" height="1" fill="red"/>
  <rect x="19" y="9" width="4" height="1" fill="red"/>
  <rect x="25" y="9" width="3" height="1" fill="red"/>
  <rect x="29" y="9" width="2" height="1" fill="red"/>
  <rect x="32" y="9" width="3" height="1" fill="red"/>
  <rect x="36" y="9" width="2" height="1" fill="red"/>
  <rect x="39" y="9" width="3" height="1" fill="red"/>
  <rect x="48" y="9" width="2" height="1" fill="red"/>
  <rect x="2" y="10" width="1" height="1" fill="red"/>
  <rect x="4" y="10" width="2" height="1" fill="red"/>
  <rect x="8" y="10" width="1" height="1" fill="red"/>
  <rect x="10" y="10" width="1" height="1" fill="red"/>
  <rect x="13" y="10" width="1" height="1" fill="red"/>
  <rect x="16" y="10" width="2" height="1" fill="red"/>
  <rect x="19" y="10" width="1" height="1" fill="red"/>
  <rect x="21" y="10" width="1" height="1" fill="red"/>
  <rect x="26" y="10" width="1" height="1" fill="red"/>
  <rect x="30" y="10" width="2" height="1" fill="red"/>
  <rect x="34" y="10" width="1" height="1" fill="red"/>
  <rect x="38" y="10" width="1" height="1" fill="red"/>
  <rect x="41" y="10" width="1" height="1" fill="red"/>
  <rect x="44" y="10" width="2" height="1" fill="red"/>
  <rect x="48" y="10" width="1" height="1" fill="red"/>
  <rect x="2" y="11" width="4" height="1" fill="red"/>
  <rect x="7" y="11" width="3" height="1" fill="red"/>
  <rect x="13" y="11" width="1" height="1" fill="red"/>
  <rect x="16" y="11" width="2" height="1" fill="red"/>
  <rect x="20" y="11" width="1" height="1" fill="red"/>
  <rect x="22" y="11" width="1" height="1" fill="red"/>
  <rect x="24" y="11" width="4" height="1" fill="red"/>
  <rect x="30" y="11" width="4" height="1" fill="red"/>
  <rect x="35" y="11" width="4" height="1" fill="red"/>
  <rect x="43" y="11" width="2" height="1" fill="red"/>
  <rect x="46" y="11" width="2" height="1" fill="red"/>
  <rect x="49" y="11" width="1" height="1" fill="red"/>
  <rect x="2" y="12" width="1" height="1" fill="red"/>
  <rect x="5" y="12" width="1" height="1" fill="red"/>
  <rect x="7" y="12" width="1" height="1" fill="red"/>
  <rect x="9" y="12" width="1" height="1" fill="red"/>
  <rect x="13" y="12" width="2" height="1" fill="red"/>
  <rect x="21" y="12" width="3" height="1" fill="red"/>
  <rect x="26" y="12" width="1" height="1" fill="red"/>
  <rect x="29" y="12" width="1" height="1" fill="red"/>
  <rect x="33" y="12" width="2" height="1" fill="red"/>
  <rect x="37" y="12" width="2" height="1" fill="red"/>
  <rect x="48" y="12" width="1" height="1" fill="red"/>
  <rect x="2" y="13" width="3" height="1" fill="red"/>
  <rect x="8" y="13" width="1" height="1" fill="red"/>
  <rect x="10" y="13" width="3" height="1" fill="red"/>
  <rect x="16" y="13" width="2" height="1" fill="red"/>
  <rect x="19" y="13" width="1" height="1" fill="red"/>
  <rect x="25" y="13" width="3" height="1" fill="red"/>
  <rect x="30" y="13" width="2" height="1" fill="red"/>
  <rect x="35" y="13" width="2" height="1" fill="red"/>
  <rect x="39" y="13" width="2" height="1" fill="red"/>
  <rect x="42" y="13" width="1" height="1" fill="red"/>
  <rect x="44" y="13" width="3" height="1" fill="red"/>
  <rect x="48" y="13" width="2" height="1" fill="red"/>
  <rect x="2" y="14" width="1" height="1" fill="red"/>
  <rect x="4" y="14" width="2" height="1" fill="red"/>
  <rect x="8" y="14" width="3" height="1" fill="red"/>
  <rect x="17" y="14" width="2" height="1" fill="red"/>
  <rect x="21" y="14" width="3" height="1" fill="red"/>
  <rect x="26" y="14" width="2" height="1" fill="red"/>
  <rect x="30" y="14" width="2" height="1" fill="red"/>
  <rect x="33" y="14" width="2" height="1" fill="red"/>
  <rect x="36" y="14" width="2" height="1" fill="red"/>
  <rect x="41" y="14" width="1" height="1" fill="red"/>
  <rect x="46" y="14" width="2" height="1" fill="red"/>
  <rect x="2" y="15" width="1" height="1" fill="red"/>
  <rect x="5" y="15" width="2" height="1" fill="red"/>
  <rect x="8" y="15" width="3" height="1" fill="red"/>
  <rect x="13" y="15" width="5" height="1" fill="red"/>
  <rect x="19" y="15" width="1" height="1" fill="red"/>
  <rect x="21" y="15" width="8" height="1" fill="red"/>
  <rect x="30" y="15" width="1" height="1" fill="red"/>
  <rect x="32" y="15" width="1" height="1" fill="red"/>
  <rect x="37" y="15" width="1" height="1" fill="red"/>
  <rect x="44" y="15" width="1" height="1" fill="red"/>
  <rect x="46" y="15" width="1" height="1" fill="red"/>
  <rect x="49" y="15" width="1" height="1" fill="red"/>
  <rect x="2" y="16" width="6" height="1" fill="red"/>
  <rect x="9" y="16" width="1" height="1" fill="red"/>
  <rect x="11" y="16" width="4" height="1" fill="red"/>
  <rect x="19" y="16" width="2" height="1" fill="red"/>
  <rect x="22" y="16" width="3" height="1" fill="red"/>
  <rect x="26" y="16" width="3" height="1" fill="red"/>
  <rect x="30" y="16" width="8" height="1" fill="red"/>
  <rect x="39" y="16" width="1" height="1" fill="red"/>
  <rect x="42" y="16" width="2" height="1" fill="red"/>
  <rect x="46" y="16" width="1" height="1" fill="red"/>
  <rect x="2" y="17" width="48" height="1" fill="red"/>
</svg>