/* XPM */
static char *mikmod2[] = {
/* width height num_colors chars_per_pixel */
"   100    33      245            2",
/* colors */
".. c #14152a",
".# c #2c76b8",
".a c #244769",
".b c #44a6ec",
".c c #444687",
".d c #6076dc",
".e c #1c62b4",
".f c #428ec2",
".g c #142f54",
".h c #5c8edc",
".i c #4860a0",
".j c #4c7ab4",
".k c #316391",
".l c #7476ea",
".m c #6462c3",
".n c #2e2f5b",
".o c #0c49b1",
".p c #54bef4",
".q c #2478df",
".r c #5290d0",
".s c #4464e0",
".t c #2c4979",
".u c #2c5ec9",
".v c #5c86cc",
".w c #1460dc",
".x c #183e78",
".y c #7491f4",
".z c #2c84e4",
".A c #66a6f0",
".B c #1a3c67",
".C c #4884bc",
".D c #7482e8",
".E c #343c6e",
".F c #4a549f",
".G c #4a6caa",
".H c #65ccf9",
".I c #4c9ad4",
".J c #1c6ddd",
".K c #5cb2dc",
".L c #449ad4",
".M c #24244a",
".N c #2c6ed0",
".O c #649bf4",
".P c #646cd4",
".Q c #385aa8",
".R c #144694",
".S c #2c567c",
".T c #5a5fb2",
".U c #4977d7",
".V c #1456b4",
".W c #3579e1",
".X c #486ed0",
".Y c #6083ee",
".Z c #6c78ef",
".0 c #1c3050",
".1 c #5455a6",
".2 c #847efc",
".3 c #3c3670",
".4 c #64c1e8",
".5 c #1c1934",
".6 c #54a8dc",
".7 c #346e9c",
".8 c #747ee7",
".9 c #3c85e1",
"#. c #7471e1",
"## c #3991eb",
"#a c #2c3660",
"#b c #243a58",
"#c c #8482fc",
"#d c #1c243f",
"#e c #1c62dc",
"#f c #748af2",
"#g c #3c3c77",
"#h c #509bee",
"#i c #0c52dc",
"#j c #6c83f0",
"#k c #3c60c4",
"#l c #749cfa",
"#m c #4484e4",
"#n c #6c9bea",
"#o c #24548c",
"#p c #5472cc",
"#q c #3c7eb4",
"#r c #246dbf",
"#s c #4e91ec",
"#t c #2c4e8c",
"#u c #2472cc",
"#v c #3c6ac4",
"#w c #5466c0",
"#x c #585ab0",
"#y c #4490ec",
"#z c #141b31",
"#A c #544e9c",
"#B c #5f79ef",
"#C c #5f8fef",
"#D c #333264",
"#E c #2b7ee3",
"#F c #348ae4",
"#G c #64b5ef",
"#H c #2a2a50",
"#I c #6472ec",
"#J c #243064",
"#K c #67c6f4",
"#L c #2c7ac8",
"#M c #245078",
"#N c #4c4e9a",
"#O c #3c6294",
"#P c #7c7af3",
"#Q c #3c4684",
"#R c #2f61df",
"#S c #3485e3",
"#T c #1c4268",
"#U c #7a83f7",
"#V c #44a2ec",
"#W c #6872dc",
"#X c #2c569c",
"#Y c #5a60be",
"#Z c #447edc",
"#0 c #387ed7",
"#1 c #5caef4",
"#2 c #424283",
"#3 c #1c5ad4",
"#4 c #102e6c",
"#5 c #4860c0",
"#6 c #4f96d7",
"#7 c #5969cc",
"#8 c #5472c0",
"#9 c #3c6e94",
"a. c #547abc",
"a# c #548abc",
"aa c #244c84",
"ab c #1c4aac",
"ac c #102858",
"ad c #6c86dc",
"ae c #445abc",
"af c #5482ec",
"ag c #245aa4",
"ah c #6c8ef4",
"ai c #3c6ae4",
"aj c #4570e7",
"ak c #3c568c",
"al c #447eb4",
"am c #448abc",
"an c #5cbaf4",
"ao c #3072e2",
"ap c #1c4e84",
"aq c #1c3e94",
"ar c #3c5ac4",
"as c #5a72ec",
"at c #3c4e9c",
"au c #6c7edc",
"av c #3c8ad4",
"aw c #244269",
"ax c #547eec",
"ay c #6ca2f4",
"az c #347eb4",
"aA c #4caeec",
"aB c #2466ae",
"aC c #346a9c",
"aD c #6666cb",
"aE c #144eac",
"aF c #5cc6f4",
"aG c #2f4e79",
"aH c #2c66cc",
"aI c #648adc",
"aJ c #7496f4",
"aK c #4c5aac",
"aL c #60a2ec",
"aM c #3c8ac4",
"aN c #1e66d9",
"aO c #4fa2e9",
"aP c #4c8aec",
"aQ c #6cbaf4",
"aR c #1c365c",
"aS c #23477b",
"aT c #4476c8",
"aU c #4c82d4",
"aV c #4c6abc",
"aW c #56b4f3",
"aX c #409ceb",
"aY c #4477e7",
"aZ c #6ac1f6",
"a0 c #57a9f1",
"a1 c #2d70b1",
"a2 c #121e3e",
"a3 c #5c7ed4",
"a4 c #4c66a4",
"a5 c #1466dc",
"a6 c #2c426c",
"a7 c #6bd2fb",
"a8 c #608af2",
"a9 c #1f1e39",
"b. c #3c96e8",
"b# c #115adb",
"ba c #647ef4",
"bb c #6096f4",
"bc c #3466e4",
"bd c #143668",
"be c #5c96cc",
"bf c #7b7ef8",
"bg c #1c2a45",
"bh c #6c8af0",
"bi c #2472e4",
"bj c #2c6adf",
"bk c #243e6c",
"bl c #5479ec",
"bm c #6c9cf5",
"bn c #3c7acc",
"bo c #3478b2",
"bp c #4ca7ea",
"bq c #4c4a93",
"br c #245fab",
"bs c #5cc0ed",
"bt c #2c7ae3",
"bu c #344a84",
"bv c #142341",
"bw c #6484dc",
"bx c #7c91fa",
"by c #246cdc",
"bz c #6c6dd9",
"bA c #1c4a86",
"bB c #345781",
"bC c #1c5ab4",
"bD c #243050",
"bE c #5c56ac",
"bF c #3c85bf",
"bG c #245fda",
"bH c #443e7c",
"bI c #4c86ec",
"bJ c #345a8c",
"bK c #2456cc",
"bL c #446ae4",
"bM c #74a2f4",
"bN c #3c72cc",
"bO c #4496e8",
"bP c #3c6a9c",
"bQ c #548aec",
"bR c #6c96f4",
"bS c #6c7ef4",
"bT c #3c8ae8",
"bU c #345ed4",
"bV c #549acc",
"bW c #34366b",
"bX c #7c8afa",
"bY c #5c72d8",
/* pixels */
"#c#c#c#c#c#c#c#c#c#c#c#c#c#c#c#c#c#c#c#c#c#c#c#c#c#c#c#c#c#c#c#U.2#U.2#c#U#c#c#c#c#c#c#c#c#c#c#c#c#c#c#c#c#c#c#c#c#c#c#c#c#c#c#c#c#c#c#c#c#c#c#c#c#c#c#c#c#c#c#c#c#c#c#c#c#c#c#c#c#c#c#c#c#c#c#c#U#c#c#c",
"#c#Bbfbf#c#c#U#c#U#c#c#U#c#c#U#c#c#U#c#c#U#c#c#U#c#Bbf.2#U#c.sbGbGbUbGbU#.#P#U#c#c#U#cbfas#P.2#U#c#c#U#c#c#U#c#c#U#c#c#U#c#c#U#c#c#U#c#Uas#Pbf#c#c#U#c#c#U#c#c#U#c#c#U#c#c#U#c#c#U#c#c#U#c#U#P#RbG.s#.bf",
"#cbL.u.P#P.2#c#c#c#c#c#c#c#c#c#c#c#c#c#c#c#U#c#cbLbG.m#..2#c.s#i#i#i#i.o#g#..2#c#c#c#c#U#3bUbz#P#c#c#c#c#c#c#c#c#c#c#c#c#c#c#c#c#U#c.ZbGar.m#P#U#c#c#c#c#c#c#c#c#c#c#c#c#c#c#c#c#c#c#c#c#c#c.Z#i#iaq#Q#P",
"#Uas#i#3#Y#Pbf#c#U.2#U#c#U#c#U#c#U#c#U#c#U.2bfaib#abbWbz.2#Uasb#b#b#b#.o.Mbzbf#c#U#c#U#c#Rb#bK#7#P#U.2#U#c#U#c#U#c#U#c#U#c#U#c#U#c#I.w#i#Jbq#P#c#c#U#c#U#c#U#c#U#c#U#c#U#c#U#c#U#c#U#c#U#c#Ubfb##i#4.3.l",
"#c.Z.wb#b#ae#.bf#c#c.2#U.2#c.2#U.2#c.2#c#c.ZbGb#b##4#D.l#c#c.Zb#b#b#b#.o.Mbz.2#c.2#U.2#cbLb#.w#3ae#P.2#c.2#cbf#c.2#cbf#c.2#c#U.2ajb#.wb##z.F#P#c#c.2#c.2#U.2#c.2#U.2#c.2#U.2#c.2#U.2#c.2#U.2bfb#b#ac#g#P",
"#cbf#ea5.w.war.P#P#U#c.2#c#c#U.2#c#c#U.2blaNa5.wa5a2#2.l.2#UbfaN.wa5.waE.M#.bf#c#U#c.2#U#B.w.w.w#earbzbf#c#U#c.2#U#c#c#U#c#Ubfbj.w.w.w.V...m.2#U#c#U.2#U#c#c.2#U#c#c.2#U#c#c.2#U#c#c.2#U#c#cbS.wa5bv.c#P",
"#cbfbja5aNa5a5bG#Y#P.2#U#c#c#c#c#U#cbfajaNa5a5aNa5...F#P#c#cbfbja5a5a5aE.Mbz.2#c#c#c#c#c.Za5aNa5a5aN.uaD#P.2#c#U#c#c#c.2.2#BbyaNa5aNa5.R.MaD.2#c#c#c#c#c#c#U#c#c#c#U#c#c#c#U#c#c#c#U#c#c#c#Ubfa5a5a2#Nbf",
"#c#caj.J.J.J.J.JaN#5.lbf#c.2#U#c#cbfao.J.J.J.J.J.V.5#x.2#U#c#caj.J.J.J.V.Mbz.2#U#c#c#U#cbfby.J.J.J.J.JbG#w.l.2#c#c#U.2#Ublby.J.J.J.J.J#4.n#..2#c#U#c#c#U#c#c#c#c#c#c#c#c#c#c#c#c#c#c#c#U#c#c#P.J.J..bEbf",
"#c#Ublbibibibibi.Jby#kbz#P#c#c#c#Baobi.Jbibi.JbiaEa9bz.2.2#c#cblbibibibC.Mbz.2#c#c#c#c#cbfaobibibibibibiby#5#W.2#c#cbfaY.Jbi.Jbi.Jbibiac#g.l#c#c#c#c#c#c#c#U#c#U#c#U#c#U#c#U#c#U#c#c#c#c#c#Ubf.J.J..#x.2",
"#c#c.Zbibibibibibi.qbibc#7#Pbfblbibi.qbibibibi.q.x#H#.bf#c#U#c.ZbibibybC.M#.bf.2#U.2#U#c#caYbibibibibibi.qbi#kbz#PbSao.qbibibibibibibi#z#N#P#c#c#U#c#U#cbf#c#c.2#c#c.2#c#c.2#c#c#c#U#cbf#cbf#UbibG.5.mbf",
"#c#Ubf.q.q.q.q.q#E.qbt.q.N#w.Wbt.q.q.q.qbt.qbt.qac#g.ZbSbSbSbS#P.q#E.q.e.Mbz.2#cbfbSbSbS#Pbl.q.q.q.q.q.q.q.q#E.N.Xbt#E.q.q#E.q.q#E.q.J#zae.l#j#P.2.2#c.2#c#c#U#c#U.2#U#cbSbS.8#Pbf#c.2#c#c#Ubf.qbr#daD.2",
"#c.2#U.W#E#E.ebA.q#E#E#E#E#E#E#E#E#Ebt.eab#E#E#Ea2at#Ebt#E#Ebt.F.W#E#Ebr.M#.bf.8#Ebt#E.N.1as#E#E#Ebd.e#E#E#E.q#Ebt#E#E#E#E.q.gby#E#Ebr.0#E#E#E.W.W#BbS.lbf.2bf#c.2#U#cbf#B#Ebt#7#.bf#c#U.2#Ubf#Eag.Mbz#c",
"#c#c.2#m.z.zaB.5#k#E.z.z.z.z.z.z.z.zbA..#X.z.zbt..aK.z.z.z.z#u.MbN.z.zaB.Mbz.2af.z.z#La2.3#W.z.z.zbd#D#v.z.z.z.z.z.z.z.zbya2a9bt.z.zbA#J#E.z.z.z#S.z.z#S#Zax.Zbfbf.2.2#U#I#7#0#E.Q#..2#c#c.2#U.zag#Hbz#c",
"#U#c#U.Y.z#SaB.MaD#w#0#S.z.z.z.z#Ebd..#2.U.z.zaB.5#Y.z.z.z#Sbra9.X.z.zaH.Mbzbf#S.z.zbv.M#Y#P.9.z#Sbd#2bz#7.z#S.z.z.z.zbr..#H#Y.9.z.z.gbW#S.zaa.xaSaSaSaS#taa.Q#5bY.l#P#U.d.P#7bnbt.F#.bf#c#U#U.zbA#D.l#c",
"#c#c#cba###FaB#Hbz#P.P.W###F###La2a9.1#..Y#F###o.M#WbT###F#Fap.nbY#F#F#r#Hbz#j#F#F.B.5.1#PbfbI###F.B.c#P.l#7.9#F###SbA...3aD#PbT#F##bv.c.9##.g.n.1.1#x.1#x#x#x#Y.P#W#Pbf.U.m#Pbz.U#0aK.l#c#cbf#FaS#g.l#c",
"#c#c#c.8####a1.M#.bf.2#W.X##aB...n#x#P#U.Y####.BbW.laP#######TbW.Z####a1.Mbz#y###o..bq.l.2#U.Y####.B.c#P#c#P.P#0#S.g.5.c#.bf#c#y###S...1aP##aRbq#P#Pbfbf.2bfbf.2bS.Z#..8#Z.1.l#P#WaT#0#x.lbf#U##aw#2#P#c",
"#c#U#cbf####a1.M#.bf#cbf#.aV#H#gaD#P#c#Ua8####bv.c#PaP####b..g#2#P####a1.M#W##a1..#g#..2#c#c.Y####.B.c.l#c#cbf#..F#D.1.l.2#cbf#y###L.5#YbQ##aRbq#P#c#c.2#c#c#c#ca8.PaDbf.9bq#..2.2.l#pbn.m#Pbf##bkbq#P#U",
"#c#c#c#c#saX.#.M#.bf#c#c.2#Pbz#..2#U#c#c#CaXb....1#PbQaXaXaX#zbq#P#saXbo.MaUavbgbWbzbf#c#U#cbfaXaX#T.c#P#cbf#c.2.l#.#P#c#U#c#UbOaXag.Mbz.YaXaR.c#P#c#c#U#c#U#c#c#s.T.mbf###gbzbf#c.2#PbYaTaD.8aX#J#N#P#c",
"#c#U.2#U#CaXbo.M#.bf#c#U#cbf.2bf#c#c.2#U#CaXbF#z#Y.2bhaXaXaX...1bfaIaXbobDbObu.naD#P#c#c#c#U.2aXaXaw#2#P#c#c#U.2#cbf#c.2#c.2#U#haX.a#D#.bhaX.Bbq#P#U.2#c.2#c.2#c#h.F#xbfaX.E.m.2#U#c.2#P#W#8#IaX.n#xbf#c",
"#c.2#U#cbh.b#q.M#.#U.2#c.2#c#c#c.2#U#c#c#C.baCa9bz#c#j.b.bbF.5.mbfbh.bazbBaV.3.m#P#cbf#cbf#c.2#haO#T.c#Pbf#c.2#U#c.2#U#c#U#c#U#h.bbg#2#P#f#Va6bq#P#c.2#U#c#U#c#UaO#Q.1#U.b.t.1#P#c.2#U#cbf.l#WaO#H.mbf#c",
"#c#U.2#c#f.baz#Hbz.2#c#U#c#U.2#U#c.2#U#c#Cbp#M#D#..2#fbpbpbo#daD.2#UbpbF.tbq#x#P.2.2#c#U#c#c.2bb.b.a.c#P#c#c#U.2#c#U.2#c.2#c#UaO.b#z.F#Pbf.bawbq#P#c#U.2#cbf#c#Ubpa6bEbf.bbBbq#P#U#c.2#cbfbf.8bO#D.m.2#c",
"bf#c#c#c#Ua0#q.M#.#cbf#c.2#U#c.2#U#c#c#cbbaA#b#g.l.2#UbpaAbJ#H#.#c#UbpaM#H.1#Pbf.2#U.2#c.2#U#cahbp.t#Q#Pbf#c.2#U#c#c#c#c#U.2.2a0.L.5bEbfbfa0.tbq#P#c.2#U#c#c#U.yaA#a.1#Ubp.7#g.l#c.2#U#c#c#c#U#6.Ebzbf#c",
"#c#c#U#cbfa0am#Hbz.2#c#c#c#c#c#U#c#c#c#cbbaW#d#Nbf#c#Ua0aW#MbW#.#c.2a0.f.k.T#P.2#c#c#c#U#c#c#c#faW#M#2#P.2#c#c#c#c#U#c#c#c#U.2a0#q#dbz.2.2a0aGbq#P#U#c#c#c#c#UbmaW#J.1#UaW.C#D#.bf#c#c#c#c#c#U.r#Qbz.2#c",
"#c#c.2#U.2aLam#H#.#U#c#U#c#U#c#c#c#c#U#cbmbpa9#xbf#c.2a0aA#b#2#P#U#c.O.fa6#6aD#P#c#U#c#c#c#c#UbfaWbB.c.l#c#c#c#U#c#c#c#U#c#c#U#1bP.n#.#cbf.Aak#Nbf#c#c#U#c#c#UaLaW#H.1.DaWbp.Mbzbf#c#U#c#U#c#U.rbq#.#U#c",
"#c#U#c#c#cbR.L#Hbz.2#c#c#c#c#c#c#U#c#c.2bm.r#HaDbf#c#Uayan#d#N#P#c#cbR.I#H.6.r#Y#P#c#c#U#c#c.2#U#1bJ#2#P#c#U#c#c#c#c#c#c#c#cbf#1bB#g.l.2#cbm.i.F#P#c#c#c#c#c#Uan.pbg.1#U.pan#daD.2#c#c#c#c#c#U.h#A.l.2#c",
"#c#c#c#c#c.y#6#D#.bf#c#U#c#c#U#c#c#c#c#Ubmal#D#.#c#c#cbm.pa2bEbf#c#c.y.I#Da3an.C.m#P#c#c#c#U#c#cay#O.c#P.2#c#c#c#c#c#U#c#U#c.2an#2bq#P#U#cbma4.1#P#c#c#U#c#c#Uananbg.1#Uan.p#a#xbf#U#c#U#c#cbXbw.1#P#U#c",
"#c#U.2#U.2#U.6.3bz.2#c#cbf#c#c.2#U.2#c#cay.G#2.l#c#U.2aJ.6.M.mbf#cbf#U.6.3bz#GaF.jaDbf#c#c#c.2#U#l.Gbq#P#U#cbf#cbf#c.2#c.2#U.2#1#g.T#P#c#c.y#8.1#P#c#U.2#c#UbxaFaFbg.1#UbsaF.Sbq#P#c.2#c#U#c#Ubw#Y#P.2#c",
"#U.2#c#c#cbfaL#2#..2#U#c#c#U#c#U.2#c#U#c#la4.1#P.2#c#UbxbV.nbz.2#c#c#caL.cbzaJaF#K.Gbzbf#c#U#c#c.ya.#N#P.2#c#c#U#c#c#U.2#U#c#c.A.caDbf#c#UbX.d#Y#P#c.2#U.2#cbMaF#KbgbE#UaF#K#9bH#P#c#U#c.2#cbXauaD#P#U#c",
"#c#c#U.2#c.2#n#A#W.2#cbf#c.2#c.2#U#c.2#c#l.T#Y#P#U#c#c#Ube#2#.#U.2#c#UaJ.1#.bf#K.H.H.G#.#P#c.2#U#U.v#x#P#c#U.2#cbf#c.2#U.2#cbf#n.1#.#c.2#c#UadaDbf#c#c#cbX#laZ.Ha7bg.1#U.H.Hbsa##j#P.2#U#c#U#cbSbz.2#c#c",
"bf#c.2#U#c#U.y.m#..2#U#c.2#U#c#U.2#c#U#caJ.mbz.2#cbf#c#UaI.1.l#c#U#c.2.y.m#..2aya7a7#Ka4#.bf#c#c.2bh.m#P#c.2#U#c#c#U#c#c#c#U.2bh.m.l#c#U#cbf.Dbz#PbXbMaZa7a7a7a7a7.0.1#Ua7a7a7a7a7aZ.A#f#P.2#U.8#.bf#U#c",
"#c#U#c#c#c#c#Ubz.l#c#c#c#U.2#c.2#c#U.2#c#Ubz.l.2#U#c#cbf.8aD#P.2#c#U#c.D#..l#c#U#K.4bs.K#x.l.2#U.2.8bzbf#c#U.2#cbf#c.2#U.2#c#c.8#.#P#U.2#c#c#fbRaQaZ.4.4bsbsbsbsbsbgbE#U#K.4.4bsbsbs.4.4#G.O.D#P#P.2.2#U",
"#c.2#U#c#c#U.2#Pbf.2#U#c#c#c#c#U#c#c#c#c#U#Pbf.2#c#c#c#c#P#Pbf#U#c#c#c.2#Pbf#cbf#.#2.n#D#Qbzbf#c#c#P#Pbf#c#c#c#c#c#c#c#c#c#U#cbf#Pbf#c#c#c.2#P#P.m.F#gbW#D#D#D#D.n.3aD#P#W#2.n.n#D#D.n#DbWbq.T#.#P#U#c#c",
"#c#c#c#c#c#c#cbf.2#c#c#c#U#c#c#c#c#U#c#c.2.2#c#U#c#c#U#c.2bf#c#c#c#U#c#U.2#U#c#cbf.l.l#..l#P#c#c#c#c.2#c#U#c#c#U#c#U#c#c#c#c#c.2#c#c#c#U#c#cbf#P#P#..l.l.l.l#..l.l.l#P#c.2.l#..l#..l.l.l#.#..l#P.2#c#c#c"
};
