<svg width="167" height="167" xmlns="http://www.w3.org/2000/svg">
  <rect width="100%" height="100%" fill="white"/>
  <rect x="10" y="10" width="49" height="7" fill="red"/>
  <rect x="108" y="10" width="49" height="7" fill="red"/>
  <rect x="10" y="17" width="7" height="7" fill="red"/>
  <rect x="52" y="17" width="7" height="7" fill="red"/>
  <rect x="87" y="17" width="7" height="7" fill="red"/>
  <rect x="108" y="17" width="7" height="7" fill="red"/>
  <rect x="150" y="17" width="7" height="7" fill="red"/>
  <rect x="10" y="24" width="7" height="7" fill="red"/>
  <rect x="24" y="24" width="21" height="7" fill="red"/>
  <rect x="52" y="24" width="7" height="7" fill="red"/>
  <rect x="87" y="24" width="14" height="7" fill="red"/>
  <rect x="108" y="24" width="7" height="7" fill="red"/>
  <rect x="122" y="24" width="21" height="7" fill="red"/>
  <rect x="150" y="24" width="7" height="7" fill="red"/>
  <rect x="10" y="31" width="7" height="7" fill="red"/>
  <rect x="24" y="31" width="21" height="7" fill="red"/>
  <rect x="52" y="31" width="7" height="7" fill="red"/>
  <rect x="73" y="31" width="7" height="7" fill="red"/>
  <rect x="108" y="31" width="7" height="7" fill="red"/>
  <rect x="122" y="31" width="21" height="7" fill="red"/>
  <rect x="150" y="31" width="7" height="7" fill="red"/>
  <rect x="10" y="38" width="7" height="7" fill="red"/>
  <rect x="24" y="38" width="21" height="7" fill="red"/>
  <rect x="52" y="38" width="7" height="7" fill="red"/>
  <rect x="73" y="38" width="7" height="7" fill="red"/>
  <rect x="87" y="38" width="14" height="7" fill="red"/>
  <rect x="108" y="38" width="7" height="7" fill="red"/>
  <rect x="122" y="38" width="21" height="7" fill="red"/>
  <rect x="150" y="38" width="7" height="7" fill="red"/>
  <rect x="10" y="45" width="7" height="7" fill="red"/>
  <rect x="52" y="45" width="7" height="7" fill="red"/>
  <rect x="66" y="45" width="14" height="7" fill="red"/>
  <rect x="108" y="45" width="7" height="7" fill="red"/>
  <rect x="150" y="45" width="7" height="7" fill="red"/>
  <rect x="10" y="52" width="49" height="7" fill="red"/>
  <rect x="66" y="52" width="7" height="7" fill="red"/>
  <rect x="80" y="52" width="7" height="7" fill="red"/>
  <rect x="94" y="52" width="7" height="7" fill="red"/>
  <rect x="108" y="52" width="49" height="7" fill="red"/>
  <rect x="80" y="59" width="7" height="7" fill="red"/>
  <rect x="10" y="66" width="7" height="7" fill="red"/>
  <rect x="31" y="66" width="7" height="7" fill="red"/>
  <rect x="45" y="66" width="14" height="7" fill="red"/>
  <rect x="66" y="66" width="42" height="7" fill="red"/>
  <rect x="115" y="66" width="7" height="7" fill="red"/>
  <rect x="10" y="73" width="28" height="7" fill="red"/>
  <rect x="45" y="73" width="7" height="7" fill="red"/>
  <rect x="59" y="73" width="7" height="7" fill="red"/>
  <rect x="87" y="73" width="7" height="7" fill="red"/>
  <rect x="108" y="73" width="35" height="7" fill="red"/>
  <rect x="150" y="73" width="7" height="7" fill="red"/>
  <rect x="10" y="80" width="7" height="7" fill="red"/>
  <rect x="31" y="80" width="14" height="7" fill="red"/>
  <rect x="52" y="80" width="14" height="7" fill="red"/>
  <rect x="87" y="80" width="7" height="7" fill="red"/>
  <rect x="101" y="80" width="21" height="7" fill="red"/>
  <rect x="150" y="80" width="7" height="7" fill="red"/>
  <rect x="10" y="87" width="42" height="7" fill="red"/>
  <rect x="66" y="87" width="14" height="7" fill="red"/>
  <rect x="94" y="87" width="7" height="7" fill="red"/>
  <rect x="129" y="87" width="14" height="7" fill="red"/>
  <rect x="10" y="94" width="14" height="7" fill="red"/>
  <rect x="31" y="94" width="7" height="7" fill="red"/>
  <rect x="45" y="94" width="14" height="7" fill="red"/>
  <rect x="66" y="94" width="14" height="7" fill="red"/>
  <rect x="87" y="94" width="7" height="7" fill="red"/>
  <rect x="108" y="94" width="7" height="7" fill="red"/>
  <rect x="122" y="94" width="7" height="7" fill="red"/>
  <rect x="136" y="94" width="7" height="7" fill="red"/>
  <rect x="150" y="94" width="7" height="7" fill="red"/>
  <rect x="66" y="101" width="7" height="7" fill="red"/>
  <rect x="122" y="101" width="7" height="7" fill="red"/>
  <rect x="143" y="101" width="7" height="7" fill="red"/>
  <rect x="10" y="108" width="49" height="7" fill="red"/>
  <rect x="87" y="108" width="28" height="7" fill="red"/>
  <rect x="136" y="108" width="14" height="7" fill="red"/>
  <rect x="10" y="115" width="7" height="7" fill="red"/>
  <rect x="52" y="115" width="7" height="7" fill="red"/>
  <rect x="66" y="115" width="7" height="7" fill="red"/>
  <rect x="80" y="115" width="7" height="7" fill="red"/>
  <rect x="101" y="115" width="14" height="7" fill="red"/>
  <rect x="129" y="115" width="28" height="7" fill="red"/>
  <rect x="10" y="122" width="7" height="7" fill="red"/>
  <rect x="24" y="122" width="21" height="7" fill="red"/>
  <rect x="52" y="122" width="7" height="7" fill="red"/>
  <rect x="94" y="122" width="14" height="7" fill="red"/>
  <rect x="115" y="122" width="7" height="7" fill="red"/>
  <rect x="129" y="122" width="21" height="7" fill="red"/>
  <rect x="10" y="129" width="7" height="7" fill="red"/>
  <rect x="24" y="129" width="21" height="7" fill="red"/>
  <rect x="52" y="129" width="7" height="7" fill="red"/>
  <rect x="66" y="129" width="7" height="7" fill="red"/>
  <rect x="101" y="129" width="7" height="7" fill="red"/>
  <rect x="115" y="129" width="7" height="7" fill="red"/>
  <rect x="143" y="129" width="14" height="7" fill="red"/>
  <rect x="10" y="136" width="7" height="7" fill="red"/>
  <rect x="24" y="136" width="21" height="7" fill="red"/>
  <rect x="52" y="136" width="7" height="7" fill="red"/>
  <rect x="87" y="136" width="7" height="7" fill="red"/>
  <rect x="101" y="136" width="21" height="7" fill="red"/>
  <rect x="129" y="136" width="14" height="7" fill="red"/>
  <rect x="150" y="136" width="7" height="7" fill="red"/>
  <rect x="10" y="143" width="7" height="7" fill="red"/>
  <rect x="52" y="143" width="7" height="7" fill="red"/>
  <rect x="73" y="143" width="7" height="7" fill="red"/>
  <rect x="87" y="143" width="14" height="7" fill="red"/>
  <rect x="115" y="143" width="14" height="7" fill="red"/>
  <rect x="10" y="150" width="49" height="7" fill="red"/>
  <rect x="66" y="150" width="7" height="7" fill="red"/>
  <rect x="80" y="150" width="7" height="7" fill="red"/>
  <rect x="115" y="150" width="7" height="7" fill="red"/>
  <rect x="129" y="150" width="7" height="7" fill="red"/>
  <rect x="143" y="150" width="7" height="7" fill="red"/>
</svg>