<svg width="68" height="64" viewBox="0 0 68 64" xmlns="http://www.w3.org/2000/svg">
  <g fill="none" fill-rule="evenodd">
    <path d="M34 2C17.432 2 4 15.432 4 32s13.432 30 30 30 30-13.432 30-30S50.568 2 34 2zm0 56C19.561 58 8 46.439 8 32S19.561 6 34 6s26 11.561 26 26-11.561 26-26 26z" fill="#1E90FF" fill-rule="nonzero"/>
    <path d="M47.5 23.5c0 7.732-6.268 14-14 14s-14-6.268-14-14 6.268-14 14-14 14 6.268 14 14zm-3 0c0-6.075-4.925-11-11-11s-11 4.925-11 11 4.925 11 11 11 11-4.925 11-11z" fill="#1EBC61" fill-rule="nonzero"/>
    <path d="M34 14.5c-1.104 0-2 .896-2 2v13c0 1.104.896 2 2 2s2-.896 2-2v-13c0-1.104-.896-2-2-2z" fill="#FFD700"/>
    <path d="M34 37c-1.104 0-2 .896-2 2v3c0 1.104.896 2 2 2s2-.896 2-2v-3c0-1.104-.896-2-2-2z" fill="#FFD700"/>
    <path d="M22.5 23.5c-.552 0-1 .448-1 1v6c0 .552.448 1 1 1h7c.552 0 1-.448 1-1v-6c0-.552-.448-1-1-1h-7zm21 0c-.552 0-1 .448-1 1v6c0 .552.448 1 1 1h7c.552 0 1-.448 1-1v-6c0-.552-.448-1-1-1h-7z" fill="#FFF" fill-rule="nonzero"/>
    <circle cx="34" cy="32" r="2.5" fill="#FFF"/>
  </g>
</svg>
