<?xml version="1.0" encoding="UTF-8" standalone="no"?>
<!DOCTYPE svg PUBLIC "-//W3C//DTD SVG 1.1//EN"
 "http://www.w3.org/Graphics/SVG/1.1/DTD/svg11.dtd">
<!-- Generated by graphviz version 2.30.1 (20130611.0131)
 -->
<!-- Title: Perl Pages: 1 -->
<svg width="320pt" height="280pt"
 viewBox="0.00 0.00 320.00 280.00" xmlns="http://www.w3.org/2000/svg" xmlns:xlink="http://www.w3.org/1999/xlink">
<g id="graph0" class="graph" transform="scale(1 1) rotate(0) translate(4 276)">
<title>Perl</title>
<polygon fill="white" stroke="white" points="-4,5 -4,-276 317,-276 317,5 -4,5"/>
<!-- Zero -->
<g id="node1" class="node"><title>Zero</title>
<ellipse fill="none" stroke="black" cx="150" cy="-254" rx="78.9404" ry="18"/>
<text text-anchor="middle" x="150" y="-250.3" font-family="Times,serif" font-size="14.00">The Orient Express</text>
</g>
<!-- One -->
<g id="node2" class="node"><title>One</title>
<ellipse fill="none" stroke="black" cx="69" cy="-180" rx="69.3156" ry="18"/>
<text text-anchor="middle" x="69" y="-176.3" font-family="Times,serif" font-size="14.00">Reichwaldstraße</text>
</g>
<!-- Zero&#45;&gt;One -->
<g id="edge1" class="edge"><title>Zero&#45;&gt;One</title>
<path fill="none" stroke="grey" d="M131.213,-236.301C120.505,-226.782 106.922,-214.708 95.1813,-204.272"/>
<polygon fill="grey" stroke="grey" points="97.2049,-201.388 87.4055,-197.36 92.5543,-206.62 97.2049,-201.388"/>
</g>
<!-- Three -->
<g id="node4" class="node"><title>Three</title>
<ellipse fill="none" stroke="black" cx="232" cy="-180" rx="75.0904" ry="18"/>
<text text-anchor="middle" x="232" y="-176.3" font-family="Times,serif" font-size="14.00">ʎ ʏ ʐ ʑ ʒ ʓ ʙ ʚ</text>
</g>
<!-- Zero&#45;&gt;Three -->
<g id="edge2" class="edge"><title>Zero&#45;&gt;Three</title>
<path fill="none" stroke="grey" d="M169.019,-236.301C179.782,-226.85 193.415,-214.88 205.242,-204.495"/>
<polygon fill="grey" stroke="grey" points="207.879,-206.837 213.085,-197.609 203.261,-201.577 207.879,-206.837"/>
</g>
<!-- Two -->
<g id="node3" class="node"><title>Two</title>
<ellipse fill="none" stroke="black" cx="82" cy="-106" rx="36.096" ry="18"/>
<text text-anchor="middle" x="82" y="-102.3" font-family="Times,serif" font-size="14.00">Böhme</text>
</g>
<!-- One&#45;&gt;Two -->
<g id="edge3" class="edge"><title>One&#45;&gt;Two</title>
<path fill="none" stroke="grey" d="M72.0808,-161.937C73.5865,-153.598 75.4343,-143.364 77.1253,-133.998"/>
<polygon fill="grey" stroke="grey" points="80.6087,-134.403 78.9413,-123.941 73.7201,-133.159 80.6087,-134.403"/>
</g>
<!-- Five -->
<g id="node6" class="node"><title>Five</title>
<ellipse fill="none" stroke="black" cx="158" cy="-18" rx="102.061" ry="18"/>
<text text-anchor="middle" x="158" y="-14.3" font-family="Times,serif" font-size="14.00">ΔΔΔΔΔΔΔΔΔΔΔΔΔΔΔΔΔ</text>
</g>
<!-- Two&#45;&gt;Five -->
<g id="edge5" class="edge"><title>Two&#45;&gt;Five</title>
<path fill="none" stroke="grey" d="M86.5455,-88.0167C90.0243,-77.3811 95.6611,-63.8704 104,-54 107.926,-49.3529 112.625,-45.0992 117.591,-41.2818"/>
<polygon fill="grey" stroke="grey" points="119.953,-43.8991 126.11,-35.2769 115.92,-38.1777 119.953,-43.8991"/>
<text text-anchor="middle" x="143" y="-58.3" font-family="Times,serif" font-size="14.00">Label has a ☃</text>
</g>
<!-- Four -->
<g id="node5" class="node"><title>Four</title>
<ellipse fill="none" stroke="black" cx="225" cy="-106" rx="87.613" ry="18"/>
<text text-anchor="middle" x="225" y="-102.3" font-family="Times,serif" font-size="14.00">Πηληϊάδεω Ἀχιλῆος</text>
</g>
<!-- Three&#45;&gt;Four -->
<g id="edge4" class="edge"><title>Three&#45;&gt;Four</title>
<path fill="none" stroke="grey" d="M230.341,-161.937C229.542,-153.719 228.564,-143.66 227.664,-134.406"/>
<polygon fill="grey" stroke="grey" points="231.147,-134.055 226.696,-124.441 224.18,-134.732 231.147,-134.055"/>
</g>
<!-- Four&#45;&gt;Five -->
<g id="edge6" class="edge"><title>Four&#45;&gt;Five</title>
<path fill="none" stroke="grey" d="M211.763,-88.0092C201.944,-75.4058 188.405,-58.0272 177.37,-43.8632"/>
<polygon fill="grey" stroke="grey" points="180.116,-41.6931 171.21,-35.9555 174.594,-45.9952 180.116,-41.6931"/>
<text text-anchor="middle" x="237.5" y="-58.3" font-family="Times,serif" font-size="14.00">Label has a ✔</text>
</g>
</g>
</svg>
