/* XPM */
static char *sample_bpp_8[] = {
/* columns rows colors chars-per-pixel */
"13 7 92 1 ",
"  c #8FB972",
". c #990FF7",
"X c #20D852",
"o c #D20039",
"O c #C4D203",
"+ c #C18974",
"@ c #232A54",
"# c #008AB5",
"$ c #BC6747",
"% c #F706CC",
"& c #367FE8",
"* c #6EB4F7",
"= c #24CD07",
"- c #B70B6F",
"; c #E931EA",
": c #EA2768",
"> c #996097",
", c #8BF339",
"< c #F965BE",
"1 c #AF657A",
"2 c #A64945",
"3 c #B4BCCA",
"4 c #772E64",
"5 c #88800F",
"6 c #5EF04F",
"7 c #FFD746",
"8 c #6ED157",
"9 c #876F74",
"0 c #7BA105",
"q c #064785",
"w c #34F325",
"e c #AE9E45",
"r c #677A50",
"t c #B61336",
"y c #0AFE20",
"u c #B2EDF2",
"i c #1C1026",
"p c #4D5603",
"a c #327911",
"s c #55B843",
"d c #3FF43A",
"f c #A8EC3A",
"g c #2BA860",
"h c #56208F",
"j c #608170",
"k c #241C06",
"l c #303687",
"z c #9029F2",
"x c #CA0E4E",
"c c #D622BF",
"v c #AB3147",
"b c #43F155",
"n c #BF040B",
"m c #6A0755",
"M c #BF1B80",
"N c #158388",
"B c #99EA6F",
"V c #68B163",
"C c #936B17",
"Z c #D59930",
"A c #ABDB14",
"S c #2E88F7",
"D c #8728CC",
"F c #78C7DD",
"G c #51864F",
"H c #64AB82",
"J c #F60474",
"K c #77650A",
"L c #102D4F",
"P c #330319",
"I c #B0A86F",
"U c #F2B74B",
"Y c #39B7AD",
"T c #053869",
"R c #DE89D1",
"E c #C09B80",
"W c #ED5601",
"Q c #1BDB8C",
"! c #61061D",
"~ c #DA4D3C",
"^ c #EBCEBE",
"/ c #B8B226",
"( c #6914FB",
") c #397D41",
"_ c #17DBE1",
"` c #339DE9",
"' c #684CD6",
"] c #B04F4F",
"[ c #1BD5B1",
"{ c #B2DFFB",
"} c #F994C6",
"| c white",
/* pixels */
" .XoO+@#$%&*=",
"-;:>,<1234567",
"890qwertyuipa",
"sdfghjklzxcvb",
"nmMNBVCZASDFG",
"HJKLPIUYTREWQ",
"!~^/()_`'][{}"
};
