/* XPM */
static char * chart_xpm[] = {
"32 32 4 1",
" 	c #000000000000",
".	c #0000FFFF0000",
"X	c #FFFF00000000",
"o	c #FFFFFFFFFFFF",
"                                ",
"                                ",
"                 ..             ",
"                 ..             ",
"                 ..             ",
"                 .. XX          ",
"                 .. XX          ",
"                 .. XX          ",
"     ..          .. XX          ",
"     ..          .. XX          ",
"     ..       ..    XX XX       ",
"     .. XX    ..    XX XX       ",
"  .. .. XX    ..       XX       ",
"  .. .. XX    ..       XX       ",
"  ..    XX    ..          XX    ",
"  ..    XX XX ..          XX .. ",
"  ..    XX XX ..          XX .. ",
"  ..    XX XX ..          XX .. ",
"  ..       XX             XX .. ",
"  ..       XX                   ",
"                                ",
"                                ",
"                                ",
"     oo             oo          ",
"  oo oo    oo       oo          ",
"  oo oo    oo    oo oo oo    oo ",
"  oo oo    oo    oo oo oo    oo ",
"  oo oo oo oo    oo oo oo oo oo ",
"  oo oo oo oo oo oo oo oo oo oo ",
"  oo oo oo oo oo oo oo oo oo oo ",
"  oo oo oo oo oo oo oo oo oo oo ",
"  oo oo oo oo oo oo oo oo oo oo "};
