STARTFONT 2.1
COMMENT  
COMMENT  WARNING:  This bdf file was generated from a font server using
COMMENT  fstobdf.  The resulting font is subject to the same copyright,
COMMENT  license, and trademark restrictions as the original font.  The
COMMENT  authors and distributors of fstobdf disclaim all liability for
COMMENT  misuse of the program or its output.
COMMENT  
FONT -adobe-helvetica-bold-r-narrow--26-251-75-75-p-123-iso8859-1
SIZE 25 75 75
FONTBOUNDINGBOX 23 26 -2 -6
STARTPROPERTIES 30
FOUNDRY "adobe"
FAMILY_NAME "helvetica"
WEIGHT_NAME "bold"
SLANT "r"
SETWIDTH_NAME "narrow"
ADD_STYLE_NAME ""
PIXEL_SIZE 26
POINT_SIZE 251
RESOLUTION_X 75
RESOLUTION_Y 75
SPACING "p"
AVERAGE_WIDTH 123
CHARSET_REGISTRY "iso8859"
CHARSET_ENCODING "1"
FONT "-adobe-helvetica-bold-r-narrow--26-251-75-75-p-123-iso8859-1"
RAW_ASCENT 763
RAW_DESCENT 200
RAW_PIXELSIZE 1000
RAW_POINTSIZE 964
RAW_AVERAGE_WIDTH 4733
CAP_HEIGHT 20
RAW_CAP_HEIGHT 763
X_HEIGHT 15
RAW_X_HEIGHT 562
WEIGHT 10
QUAD_WIDTH 14
RAW_QUAD_WIDTH 522
DEFAULT_CHAR 0
FONT_ASCENT 19
FONT_DESCENT 5
ENDPROPERTIES
CHARS 190
STARTCHAR space
ENCODING 32
SWIDTH 230 0
DWIDTH 6 0
BBX 1 1 0 0
ATTRIBUTES 0x00f1
BITMAP
00
ENDCHAR
STARTCHAR exclam
ENCODING 33
SWIDTH 268 0
DWIDTH 7 0
BBX 3 20 2 0
ATTRIBUTES 0x0119
BITMAP
e0
e0
e0
e0
e0
e0
e0
e0
e0
e0
e0
e0
e0
e0
e0
e0
00
e0
e0
e0
ENDCHAR
STARTCHAR quotedbl
ENCODING 34
SWIDTH 268 0
DWIDTH 7 0
BBX 5 7 1 13
ATTRIBUTES 0x0119
BITMAP
d8
d8
d8
d8
d8
d8
00
ENDCHAR
STARTCHAR numbersign
ENCODING 35
SWIDTH 499 0
DWIDTH 13 0
BBX 13 20 0 0
ATTRIBUTES 0x01e2
BITMAP
1ce0
1ce0
1ce0
1ce0
1ce0
7ff8
7ff8
39c0
39c0
39c0
39c0
39c0
ffe0
ffe0
7380
7380
7380
7380
7380
7380
ENDCHAR
STARTCHAR dollar
ENCODING 36
SWIDTH 499 0
DWIDTH 13 0
BBX 10 23 1 -3
ATTRIBUTES 0x01e2
BITMAP
0c00
3f00
7f80
7fc0
edc0
edc0
ec00
7c00
7c00
7e00
3f80
0f80
0fc0
0dc0
edc0
edc0
edc0
7f80
7f80
3f00
0c00
0c00
0000
ENDCHAR
STARTCHAR percent
ENCODING 37
SWIDTH 729 0
DWIDTH 19 0
BBX 16 20 1 0
ATTRIBUTES 0x02d3
BITMAP
380c
7c38
c638
c670
c670
c6c0
7cc0
3980
3980
0180
0300
0300
063c
067e
0cc3
0cc3
18c3
18c3
307e
303c
ENDCHAR
STARTCHAR ampersand
ENCODING 38
SWIDTH 614 0
DWIDTH 16 0
BBX 14 20 1 0
ATTRIBUTES 0x025a
BITMAP
0f00
1f80
3fc0
39c0
39c0
3b80
1f80
1f00
1f00
3e00
7f00
773c
e3bc
e3fc
e1f8
e0f8
f1f0
7ff8
7fbc
1f0c
ENDCHAR
STARTCHAR apostrophe
ENCODING 39
SWIDTH 192 0
DWIDTH 5 0
BBX 3 7 1 13
ATTRIBUTES 0x00c9
BITMAP
e0
e0
e0
60
e0
c0
00
ENDCHAR
STARTCHAR parenleft
ENCODING 40
SWIDTH 268 0
DWIDTH 7 0
BBX 5 26 1 -6
ATTRIBUTES 0x0119
BITMAP
18
18
38
30
70
70
70
e0
e0
e0
e0
e0
e0
e0
e0
e0
e0
e0
70
70
70
30
38
18
18
00
ENDCHAR
STARTCHAR parenright
ENCODING 41
SWIDTH 268 0
DWIDTH 7 0
BBX 5 26 1 -6
ATTRIBUTES 0x0119
BITMAP
c0
c0
e0
60
70
70
70
38
38
38
38
38
38
38
38
38
38
38
70
70
70
60
e0
c0
c0
00
ENDCHAR
STARTCHAR asterisk
ENCODING 42
SWIDTH 307 0
DWIDTH 8 0
BBX 8 8 0 12
ATTRIBUTES 0x0141
BITMAP
18
db
ff
3c
7e
e7
42
00
ENDCHAR
STARTCHAR plus
ENCODING 43
SWIDTH 499 0
DWIDTH 13 0
BBX 11 14 0 0
ATTRIBUTES 0x01e2
BITMAP
0e00
0e00
0e00
0e00
0e00
0e00
ffe0
ffe0
ffe0
0e00
0e00
0e00
0e00
0e00
ENDCHAR
STARTCHAR comma
ENCODING 44
SWIDTH 230 0
DWIDTH 6 0
BBX 3 7 1 -4
ATTRIBUTES 0x00f1
BITMAP
e0
e0
e0
60
e0
c0
00
ENDCHAR
STARTCHAR minus
ENCODING 45
SWIDTH 614 0
DWIDTH 16 0
BBX 12 3 2 5
ATTRIBUTES 0x025a
BITMAP
fff0
fff0
fff0
ENDCHAR
STARTCHAR period
ENCODING 46
SWIDTH 230 0
DWIDTH 6 0
BBX 3 3 1 0
ATTRIBUTES 0x00f1
BITMAP
e0
e0
e0
ENDCHAR
STARTCHAR slash
ENCODING 47
SWIDTH 230 0
DWIDTH 6 0
BBX 8 24 -2 -4
ATTRIBUTES 0x00f1
BITMAP
03
03
07
07
06
06
0e
0e
0e
0c
0c
1c
1c
18
18
38
38
30
30
70
70
60
60
00
ENDCHAR
STARTCHAR 0
ENCODING 48
SWIDTH 499 0
DWIDTH 13 0
BBX 10 20 1 0
ATTRIBUTES 0x01e2
BITMAP
1e00
7f80
7f80
f3c0
e1c0
e1c0
e1c0
e1c0
e1c0
e1c0
e1c0
e1c0
e1c0
e1c0
e1c0
e1c0
f3c0
7f80
7f80
1e00
ENDCHAR
STARTCHAR 1
ENCODING 49
SWIDTH 499 0
DWIDTH 13 0
BBX 6 20 2 0
ATTRIBUTES 0x01e2
BITMAP
1c
1c
3c
fc
fc
fc
1c
1c
1c
1c
1c
1c
1c
1c
1c
1c
1c
1c
1c
1c
ENDCHAR
STARTCHAR 2
ENCODING 50
SWIDTH 499 0
DWIDTH 13 0
BBX 10 20 1 0
ATTRIBUTES 0x01e2
BITMAP
1e00
7f80
7f80
f3c0
e1c0
e1c0
e1c0
03c0
03c0
0380
0780
0f00
1e00
3c00
7800
7000
f000
ffc0
ffc0
ffc0
ENDCHAR
STARTCHAR 3
ENCODING 51
SWIDTH 499 0
DWIDTH 13 0
BBX 10 20 1 0
ATTRIBUTES 0x01e2
BITMAP
1e00
7f80
7f80
f3c0
e1c0
e1c0
01c0
03c0
03c0
0f80
0f00
0f80
03c0
e1c0
e1c0
e1c0
f3c0
7f80
7f80
1e00
ENDCHAR
STARTCHAR 4
ENCODING 52
SWIDTH 499 0
DWIDTH 13 0
BBX 11 20 0 0
ATTRIBUTES 0x01e2
BITMAP
0380
0380
0780
0780
0f80
0f80
1f80
1f80
1f80
3b80
3b80
7380
7380
ffe0
ffe0
ffe0
0380
0380
0380
0380
ENDCHAR
STARTCHAR 5
ENCODING 53
SWIDTH 499 0
DWIDTH 13 0
BBX 10 20 1 0
ATTRIBUTES 0x01e2
BITMAP
ff80
ff80
ff80
e000
e000
e000
ee00
ff80
ff80
ff80
e3c0
01c0
01c0
01c0
e1c0
e1c0
f3c0
7f80
7f80
1e00
ENDCHAR
STARTCHAR 6
ENCODING 54
SWIDTH 499 0
DWIDTH 13 0
BBX 10 20 1 0
ATTRIBUTES 0x01e2
BITMAP
1e00
7f80
7f80
f3c0
e1c0
e1c0
e000
ee00
ee00
ff80
ff80
f3c0
e1c0
e1c0
e1c0
e1c0
f3c0
7f80
7f80
1e00
ENDCHAR
STARTCHAR 7
ENCODING 55
SWIDTH 499 0
DWIDTH 13 0
BBX 11 20 0 0
ATTRIBUTES 0x01e2
BITMAP
ffe0
ffe0
ffe0
01c0
01c0
0380
0380
0700
0700
0700
0700
0e00
0e00
0e00
0e00
1c00
1c00
1c00
1c00
1c00
ENDCHAR
STARTCHAR 8
ENCODING 56
SWIDTH 499 0
DWIDTH 13 0
BBX 10 20 1 0
ATTRIBUTES 0x01e2
BITMAP
1e00
7f80
7f80
f3c0
e1c0
e1c0
e1c0
7380
7380
7f80
3f00
7f80
7380
e1c0
e1c0
e1c0
f3c0
7f80
7f80
1e00
ENDCHAR
STARTCHAR 9
ENCODING 57
SWIDTH 499 0
DWIDTH 13 0
BBX 10 20 1 0
ATTRIBUTES 0x01e2
BITMAP
1e00
7f80
7f80
f3c0
e1c0
e1c0
e1c0
e1c0
e1c0
f3c0
7fc0
7fc0
1dc0
01c0
e1c0
e1c0
f3c0
7f80
7f80
1e00
ENDCHAR
STARTCHAR colon
ENCODING 58
SWIDTH 268 0
DWIDTH 7 0
BBX 3 14 2 0
ATTRIBUTES 0x0119
BITMAP
e0
e0
e0
e0
00
00
00
00
00
00
00
e0
e0
e0
ENDCHAR
STARTCHAR semicolon
ENCODING 59
SWIDTH 268 0
DWIDTH 7 0
BBX 3 18 2 -4
ATTRIBUTES 0x0119
BITMAP
e0
e0
e0
e0
00
00
00
00
00
00
00
e0
e0
e0
60
e0
c0
00
ENDCHAR
STARTCHAR less
ENCODING 60
SWIDTH 499 0
DWIDTH 13 0
BBX 11 13 0 0
ATTRIBUTES 0x01e2
BITMAP
0060
0060
01e0
07c0
1f00
7c00
f000
f000
7c00
1f00
07c0
01e0
0060
ENDCHAR
STARTCHAR equal
ENCODING 61
SWIDTH 499 0
DWIDTH 13 0
BBX 10 9 1 2
ATTRIBUTES 0x01e2
BITMAP
ffc0
ffc0
ffc0
0000
0000
0000
ffc0
ffc0
ffc0
ENDCHAR
STARTCHAR greater
ENCODING 62
SWIDTH 499 0
DWIDTH 13 0
BBX 11 13 0 0
ATTRIBUTES 0x01e2
BITMAP
c000
c000
f000
7c00
1f00
07c0
01e0
01e0
07c0
1f00
7c00
f000
c000
ENDCHAR
STARTCHAR question
ENCODING 63
SWIDTH 422 0
DWIDTH 11 0
BBX 9 20 1 0
ATTRIBUTES 0x01ba
BITMAP
3e00
7f00
ff80
e380
e380
e380
0780
0700
0700
0f00
0e00
1e00
1c00
1c00
1c00
0000
0000
1c00
1c00
1c00
ENDCHAR
STARTCHAR at
ENCODING 64
SWIDTH 844 0
DWIDTH 22 0
BBX 21 25 0 -5
ATTRIBUTES 0x034b
BITMAP
00ff00
03ffc0
0fffe0
1f01f0
3c0070
387b78
79ff38
71ff38
71ff38
73c738
e38738
e78638
e71e38
e71e30
e71e70
e7be70
e7ffe0
f3e7e0
71c380
780000
3e0380
1fff80
0fff00
03fc00
000000
ENDCHAR
STARTCHAR A
ENCODING 65
SWIDTH 614 0
DWIDTH 16 0
BBX 14 20 1 0
ATTRIBUTES 0x025a
BITMAP
0f80
0f80
0f80
1fc0
1dc0
1dc0
1dc0
38f0
38f0
38f0
38f0
38f0
7078
7ff8
7ff8
7ff8
e03c
e03c
e03c
e03c
ENDCHAR
STARTCHAR B
ENCODING 66
SWIDTH 614 0
DWIDTH 16 0
BBX 12 20 2 0
ATTRIBUTES 0x025a
BITMAP
ff00
ffe0
ffe0
e1f0
e0f0
e0f0
e1f0
ffe0
ffe0
ff80
ffe0
e1f0
e0f0
e0f0
e0f0
e0f0
e1f0
ffe0
ffe0
ff00
ENDCHAR
STARTCHAR C
ENCODING 67
SWIDTH 576 0
DWIDTH 15 0
BBX 13 20 1 0
ATTRIBUTES 0x0232
BITMAP
0f80
3ff0
3ff0
78f8
7078
f078
e000
e000
e000
e000
e000
e000
e000
e000
f078
7078
78f8
3ff0
3ff0
0f80
ENDCHAR
STARTCHAR D
ENCODING 68
SWIDTH 652 0
DWIDTH 17 0
BBX 13 20 2 0
ATTRIBUTES 0x0283
BITMAP
ff00
ffe0
ffe0
e1f0
e0f0
e0f8
e078
e078
e078
e078
e078
e078
e078
e078
e0f8
e0f0
e1f0
ffe0
ffe0
ff00
ENDCHAR
STARTCHAR E
ENCODING 69
SWIDTH 537 0
DWIDTH 14 0
BBX 11 20 2 0
ATTRIBUTES 0x020a
BITMAP
ffe0
ffe0
ffe0
e000
e000
e000
e000
e000
e000
ff80
ff80
ff80
e000
e000
e000
e000
e000
ffe0
ffe0
ffe0
ENDCHAR
STARTCHAR F
ENCODING 70
SWIDTH 499 0
DWIDTH 13 0
BBX 11 20 2 0
ATTRIBUTES 0x01e2
BITMAP
ffe0
ffe0
ffe0
e000
e000
e000
e000
e000
e000
ff80
ff80
ff80
e000
e000
e000
e000
e000
e000
e000
e000
ENDCHAR
STARTCHAR G
ENCODING 71
SWIDTH 652 0
DWIDTH 17 0
BBX 14 20 1 0
ATTRIBUTES 0x0283
BITMAP
0fc0
3ff8
3ff8
787c
703c
f03c
e000
e000
e000
e000
e1fc
e1fc
e1fc
e03c
f03c
703c
787c
3ffc
3ffc
0fbc
ENDCHAR
STARTCHAR H
ENCODING 72
SWIDTH 614 0
DWIDTH 16 0
BBX 12 20 2 0
ATTRIBUTES 0x025a
BITMAP
e0f0
e0f0
e0f0
e0f0
e0f0
e0f0
e0f0
e0f0
e0f0
fff0
fff0
fff0
e0f0
e0f0
e0f0
e0f0
e0f0
e0f0
e0f0
e0f0
ENDCHAR
STARTCHAR I
ENCODING 73
SWIDTH 268 0
DWIDTH 7 0
BBX 3 20 2 0
ATTRIBUTES 0x0119
BITMAP
e0
e0
e0
e0
e0
e0
e0
e0
e0
e0
e0
e0
e0
e0
e0
e0
e0
e0
e0
e0
ENDCHAR
STARTCHAR J
ENCODING 74
SWIDTH 384 0
DWIDTH 10 0
BBX 9 20 0 0
ATTRIBUTES 0x0192
BITMAP
0380
0380
0380
0380
0380
0380
0380
0380
0380
0380
0380
0380
0380
e380
e380
e380
e380
ff80
7f00
3e00
ENDCHAR
STARTCHAR K
ENCODING 75
SWIDTH 537 0
DWIDTH 14 0
BBX 13 20 2 0
ATTRIBUTES 0x020a
BITMAP
e1f0
e1e0
e3e0
e380
e780
e700
ef00
ee00
ee00
fe00
fe00
ff00
ef00
e780
e780
e3e0
e3e0
e1f0
e1f0
e0f8
ENDCHAR
STARTCHAR L
ENCODING 76
SWIDTH 499 0
DWIDTH 13 0
BBX 11 20 2 0
ATTRIBUTES 0x01e2
BITMAP
e000
e000
e000
e000
e000
e000
e000
e000
e000
e000
e000
e000
e000
e000
e000
e000
e000
ffe0
ffe0
ffe0
ENDCHAR
STARTCHAR M
ENCODING 77
SWIDTH 768 0
DWIDTH 20 0
BBX 16 20 2 0
ATTRIBUTES 0x02fb
BITMAP
f00f
f00f
f00f
f81f
f81f
f81f
fc7f
fc7f
fc7f
ec77
eef7
eef7
e6e7
e7e7
e7e7
e7e7
e387
e387
e387
e387
ENDCHAR
STARTCHAR N
ENCODING 78
SWIDTH 652 0
DWIDTH 17 0
BBX 13 20 2 0
ATTRIBUTES 0x0283
BITMAP
f078
f078
f078
f878
f878
fc78
fc78
ec78
ec78
ee78
e678
e778
e378
e3f8
e3f8
e1f8
e1f8
e0f8
e0f8
e0f8
ENDCHAR
STARTCHAR O
ENCODING 79
SWIDTH 652 0
DWIDTH 17 0
BBX 15 20 1 0
ATTRIBUTES 0x0283
BITMAP
0fc0
3ff8
3ff8
787c
703c
f03e
e00e
e00e
e00e
e00e
e00e
e00e
e00e
e00e
f03e
703c
787c
3ff8
3ff8
0fc0
ENDCHAR
STARTCHAR P
ENCODING 80
SWIDTH 576 0
DWIDTH 15 0
BBX 12 20 2 0
ATTRIBUTES 0x0232
BITMAP
ff00
ffe0
ffe0
e1f0
e0f0
e0f0
e0f0
e1f0
e1f0
ffe0
ffe0
ff00
e000
e000
e000
e000
e000
e000
e000
e000
ENDCHAR
STARTCHAR Q
ENCODING 81
SWIDTH 652 0
DWIDTH 17 0
BBX 15 22 1 -2
ATTRIBUTES 0x0283
BITMAP
0fc0
3ff8
3ff8
787c
703c
f03e
e00e
e00e
e00e
e00e
e00e
e00e
e00e
e00e
f0bc
71fc
78f8
3ff8
3ffc
0fbc
0008
0000
ENDCHAR
STARTCHAR R
ENCODING 82
SWIDTH 652 0
DWIDTH 17 0
BBX 13 20 2 0
ATTRIBUTES 0x0283
BITMAP
ff80
fff0
fff0
e0f8
e078
e078
e078
e0f8
e0f8
fff0
ffe0
fff0
e0f0
e078
e078
e078
e078
e078
e078
e078
ENDCHAR
STARTCHAR S
ENCODING 83
SWIDTH 537 0
DWIDTH 14 0
BBX 12 20 1 0
ATTRIBUTES 0x020a
BITMAP
1f00
7fc0
7fc0
f1f0
e0f0
e0f0
f000
f800
f800
7e00
3f80
0fc0
03f0
01f0
e0f0
e0f0
f1f0
7fc0
7fc0
1f00
ENDCHAR
STARTCHAR T
ENCODING 84
SWIDTH 422 0
DWIDTH 11 0
BBX 11 20 0 0
ATTRIBUTES 0x01ba
BITMAP
ffe0
ffe0
ffe0
0e00
0e00
0e00
0e00
0e00
0e00
0e00
0e00
0e00
0e00
0e00
0e00
0e00
0e00
0e00
0e00
0e00
ENDCHAR
STARTCHAR U
ENCODING 85
SWIDTH 652 0
DWIDTH 17 0
BBX 13 20 2 0
ATTRIBUTES 0x0283
BITMAP
e078
e078
e078
e078
e078
e078
e078
e078
e078
e078
e078
e078
e078
e078
e078
e078
f0f8
7ff0
7ff0
1f80
ENDCHAR
STARTCHAR V
ENCODING 86
SWIDTH 537 0
DWIDTH 14 0
BBX 14 20 0 0
ATTRIBUTES 0x020a
BITMAP
e03c
e03c
e03c
7078
7078
7078
7078
38e0
38e0
38e0
38e0
38e0
1dc0
1dc0
1dc0
1fc0
0f80
0f80
0f80
0f80
ENDCHAR
STARTCHAR W
ENCODING 87
SWIDTH 844 0
DWIDTH 22 0
BBX 20 20 1 0
ATTRIBUTES 0x034b
BITMAP
e0f070
e0f070
e0f070
f0f0f0
71f8e0
71f8e0
71f8e0
79f9e0
79f9e0
7bbde0
3bbdc0
3bbdc0
3f0fc0
3f0fc0
3f0fc0
1f0f80
1e0780
1e0780
1e0780
1e0780
ENDCHAR
STARTCHAR X
ENCODING 88
SWIDTH 614 0
DWIDTH 16 0
BBX 14 20 1 0
ATTRIBUTES 0x025a
BITMAP
f07c
f07c
7078
78f8
38f0
3df0
1fc0
1fc0
1fc0
0f80
0f80
0f80
1fc0
1dc0
3df0
38f0
78f8
7078
f07c
f07c
ENDCHAR
STARTCHAR Y
ENCODING 89
SWIDTH 537 0
DWIDTH 14 0
BBX 14 20 0 0
ATTRIBUTES 0x020a
BITMAP
e03c
f07c
7078
78f8
38e0
3de0
1dc0
1fc0
1fc0
0f80
0f80
0700
0700
0700
0700
0700
0700
0700
0700
0700
ENDCHAR
STARTCHAR Z
ENCODING 90
SWIDTH 576 0
DWIDTH 15 0
BBX 13 20 1 0
ATTRIBUTES 0x0232
BITMAP
7ff8
7ff8
7ff8
00f8
00f0
01f0
03c0
0380
0380
0780
0f00
0e00
1e00
3c00
3800
7800
f000
fff8
fff8
fff8
ENDCHAR
STARTCHAR bracketleft
ENCODING 91
SWIDTH 268 0
DWIDTH 7 0
BBX 5 26 2 -6
ATTRIBUTES 0x0119
BITMAP
f8
f8
e0
e0
e0
e0
e0
e0
e0
e0
e0
e0
e0
e0
e0
e0
e0
e0
e0
e0
e0
e0
e0
f8
f8
00
ENDCHAR
STARTCHAR backslash
ENCODING 92
SWIDTH 192 0
DWIDTH 5 0
BBX 7 20 -2 0
ATTRIBUTES 0x00c9
BITMAP
60
60
60
70
30
30
30
38
38
18
18
18
1c
0c
0c
0c
0e
06
06
06
ENDCHAR
STARTCHAR bracketright
ENCODING 93
SWIDTH 268 0
DWIDTH 7 0
BBX 5 26 0 -6
ATTRIBUTES 0x0119
BITMAP
f8
f8
38
38
38
38
38
38
38
38
38
38
38
38
38
38
38
38
38
38
38
38
38
f8
f8
00
ENDCHAR
STARTCHAR asciicircum
ENCODING 94
SWIDTH 499 0
DWIDTH 13 0
BBX 9 10 1 10
ATTRIBUTES 0x01e2
BITMAP
1c00
1c00
3e00
3600
7700
6300
e380
c180
c180
c180
ENDCHAR
STARTCHAR underscore
ENCODING 95
SWIDTH 422 0
DWIDTH 11 0
BBX 11 3 0 -5
ATTRIBUTES 0x01ba
BITMAP
ffe0
ffe0
0000
ENDCHAR
STARTCHAR grave
ENCODING 96
SWIDTH 192 0
DWIDTH 5 0
BBX 3 7 1 13
ATTRIBUTES 0x00c9
BITMAP
60
e0
c0
e0
e0
e0
00
ENDCHAR
STARTCHAR a
ENCODING 97
SWIDTH 499 0
DWIDTH 13 0
BBX 10 15 1 0
ATTRIBUTES 0x01e2
BITMAP
3e00
7f00
ff80
ff80
e380
0380
0f80
3f80
7b80
f380
e380
e780
ff80
ffc0
79c0
ENDCHAR
STARTCHAR b
ENCODING 98
SWIDTH 499 0
DWIDTH 13 0
BBX 10 20 1 0
ATTRIBUTES 0x01e2
BITMAP
e000
e000
e000
e000
e000
ee00
ff00
ff80
ff80
e380
e1c0
e1c0
e1c0
e1c0
e1c0
e1c0
e380
ff80
ff00
de00
ENDCHAR
STARTCHAR c
ENCODING 99
SWIDTH 499 0
DWIDTH 13 0
BBX 10 15 1 0
ATTRIBUTES 0x01e2
BITMAP
1e00
7f80
7f80
7f80
f1c0
e1c0
e000
e000
e000
e000
e1c0
f1c0
7f80
7f80
1e00
ENDCHAR
STARTCHAR d
ENCODING 100
SWIDTH 499 0
DWIDTH 13 0
BBX 10 20 1 0
ATTRIBUTES 0x01e2
BITMAP
01c0
01c0
01c0
01c0
01c0
1dc0
3fc0
7fc0
7fc0
71c0
e1c0
e1c0
e1c0
e1c0
e1c0
e1c0
71c0
7fc0
3fc0
1ec0
ENDCHAR
STARTCHAR e
ENCODING 101
SWIDTH 499 0
DWIDTH 13 0
BBX 10 15 1 0
ATTRIBUTES 0x01e2
BITMAP
1e00
7f80
7f80
7f80
f3c0
e1c0
e1c0
ffc0
ffc0
e000
e1c0
f3c0
7f80
7f80
1e00
ENDCHAR
STARTCHAR f
ENCODING 102
SWIDTH 268 0
DWIDTH 7 0
BBX 7 20 0 0
ATTRIBUTES 0x0119
BITMAP
0e
1e
3e
38
38
fe
fe
fe
fe
38
38
38
38
38
38
38
38
38
38
38
ENDCHAR
STARTCHAR g
ENCODING 103
SWIDTH 499 0
DWIDTH 13 0
BBX 10 21 1 -6
ATTRIBUTES 0x01e2
BITMAP
1ec0
3fc0
7fc0
7fc0
71c0
e1c0
e1c0
e1c0
e1c0
e1c0
e1c0
71c0
7fc0
3fc0
1dc0
01c0
71c0
7f80
3f80
1e00
0000
ENDCHAR
STARTCHAR h
ENCODING 104
SWIDTH 499 0
DWIDTH 13 0
BBX 10 20 1 0
ATTRIBUTES 0x01e2
BITMAP
e000
e000
e000
e000
e000
ef00
ff80
ffc0
ffc0
f3c0
e1c0
e1c0
e1c0
e1c0
e1c0
e1c0
e1c0
e1c0
e1c0
e1c0
ENDCHAR
STARTCHAR i
ENCODING 105
SWIDTH 268 0
DWIDTH 7 0
BBX 3 20 2 0
ATTRIBUTES 0x0119
BITMAP
e0
e0
e0
00
00
e0
e0
e0
e0
e0
e0
e0
e0
e0
e0
e0
e0
e0
e0
e0
ENDCHAR
STARTCHAR j
ENCODING 106
SWIDTH 268 0
DWIDTH 7 0
BBX 4 26 1 -6
ATTRIBUTES 0x0119
BITMAP
70
70
70
00
00
70
70
70
70
70
70
70
70
70
70
70
70
70
70
70
70
70
70
f0
e0
00
ENDCHAR
STARTCHAR k
ENCODING 107
SWIDTH 422 0
DWIDTH 11 0
BBX 10 20 1 0
ATTRIBUTES 0x01ba
BITMAP
e000
e000
e000
e000
e000
e3c0
e780
ef00
ef00
fe00
fc00
fc00
fe00
ee00
ef00
e700
e780
e380
e3c0
e1c0
ENDCHAR
STARTCHAR l
ENCODING 108
SWIDTH 268 0
DWIDTH 7 0
BBX 3 20 2 0
ATTRIBUTES 0x0119
BITMAP
e0
e0
e0
e0
e0
e0
e0
e0
e0
e0
e0
e0
e0
e0
e0
e0
e0
e0
e0
e0
ENDCHAR
STARTCHAR m
ENCODING 109
SWIDTH 768 0
DWIDTH 20 0
BBX 18 15 1 0
ATTRIBUTES 0x02fb
BITMAP
cf0f00
dfbf80
ffffc0
ffffc0
f3f3c0
e1c1c0
e1c1c0
e1c1c0
e1c1c0
e1c1c0
e1c1c0
e1c1c0
e1c1c0
e1c1c0
e1c1c0
ENDCHAR
STARTCHAR n
ENCODING 110
SWIDTH 499 0
DWIDTH 13 0
BBX 10 15 1 0
ATTRIBUTES 0x01e2
BITMAP
cf00
df80
ffc0
ffc0
f3c0
e1c0
e1c0
e1c0
e1c0
e1c0
e1c0
e1c0
e1c0
e1c0
e1c0
ENDCHAR
STARTCHAR o
ENCODING 111
SWIDTH 499 0
DWIDTH 13 0
BBX 10 15 1 0
ATTRIBUTES 0x01e2
BITMAP
1e00
7f80
7f80
7f80
f3c0
e1c0
e1c0
e1c0
e1c0
e1c0
e1c0
f3c0
7f80
7f80
1e00
ENDCHAR
STARTCHAR p
ENCODING 112
SWIDTH 499 0
DWIDTH 13 0
BBX 10 21 1 -6
ATTRIBUTES 0x01e2
BITMAP
de00
ff00
ff80
ff80
e380
e1c0
e1c0
e1c0
e1c0
e1c0
e1c0
e380
ff80
ff00
ee00
e000
e000
e000
e000
e000
0000
ENDCHAR
STARTCHAR q
ENCODING 113
SWIDTH 499 0
DWIDTH 13 0
BBX 10 21 1 -6
ATTRIBUTES 0x01e2
BITMAP
1ec0
3fc0
7fc0
7fc0
71c0
e1c0
e1c0
e1c0
e1c0
e1c0
e1c0
71c0
7fc0
3fc0
1dc0
01c0
01c0
01c0
01c0
01c0
0000
ENDCHAR
STARTCHAR r
ENCODING 114
SWIDTH 268 0
DWIDTH 7 0
BBX 6 15 1 0
ATTRIBUTES 0x0119
BITMAP
dc
fc
fc
fc
f0
e0
e0
e0
e0
e0
e0
e0
e0
e0
e0
ENDCHAR
STARTCHAR s
ENCODING 115
SWIDTH 422 0
DWIDTH 11 0
BBX 9 15 1 0
ATTRIBUTES 0x01ba
BITMAP
3e00
7f00
ff80
ff80
e380
e380
f800
7e00
3f00
0f80
e380
e380
ff80
7f00
3e00
ENDCHAR
STARTCHAR t
ENCODING 116
SWIDTH 307 0
DWIDTH 8 0
BBX 6 19 1 0
ATTRIBUTES 0x0141
BITMAP
70
70
70
70
fc
fc
fc
fc
70
70
70
70
70
70
70
70
7c
7c
3c
ENDCHAR
STARTCHAR u
ENCODING 117
SWIDTH 499 0
DWIDTH 13 0
BBX 10 15 1 0
ATTRIBUTES 0x01e2
BITMAP
e1c0
e1c0
e1c0
e1c0
e1c0
e1c0
e1c0
e1c0
e1c0
e1c0
e1c0
f3c0
ffc0
7ec0
3cc0
ENDCHAR
STARTCHAR v
ENCODING 118
SWIDTH 422 0
DWIDTH 11 0
BBX 11 15 0 0
ATTRIBUTES 0x01ba
BITMAP
e0e0
e0e0
71c0
71c0
71c0
71c0
3b80
3b80
3b80
1f00
1f00
1f00
0e00
0e00
0e00
ENDCHAR
STARTCHAR w
ENCODING 119
SWIDTH 614 0
DWIDTH 16 0
BBX 16 15 0 0
ATTRIBUTES 0x025a
BITMAP
e387
e387
e387
e387
739e
77de
77de
77de
36dc
3efc
3efc
3c7c
1c78
1c78
1c78
ENDCHAR
STARTCHAR x
ENCODING 120
SWIDTH 422 0
DWIDTH 11 0
BBX 9 15 1 0
ATTRIBUTES 0x01ba
BITMAP
e380
e380
7700
7700
7700
3e00
3e00
1c00
1c00
3e00
3e00
7700
7700
e380
e380
ENDCHAR
STARTCHAR y
ENCODING 121
SWIDTH 422 0
DWIDTH 11 0
BBX 9 21 1 -6
ATTRIBUTES 0x01ba
BITMAP
e380
e380
e380
e380
e380
7700
7700
7700
7700
3e00
3e00
3e00
3e00
1c00
1c00
1c00
3c00
f800
f800
f000
0000
ENDCHAR
STARTCHAR z
ENCODING 122
SWIDTH 422 0
DWIDTH 11 0
BBX 9 15 1 0
ATTRIBUTES 0x01ba
BITMAP
ff80
ff80
ff80
ff80
0700
0f00
0e00
1c00
3c00
3800
7000
f000
ff80
ff80
ff80
ENDCHAR
STARTCHAR braceleft
ENCODING 123
SWIDTH 268 0
DWIDTH 7 0
BBX 6 26 0 -6
ATTRIBUTES 0x0119
BITMAP
0c
1c
18
38
38
38
38
38
38
38
30
70
e0
e0
70
30
38
38
38
38
38
38
18
1c
0c
00
ENDCHAR
STARTCHAR bar
ENCODING 124
SWIDTH 230 0
DWIDTH 6 0
BBX 2 25 2 -5
ATTRIBUTES 0x00f1
BITMAP
c0
c0
c0
c0
c0
c0
c0
c0
c0
c0
c0
c0
c0
c0
c0
c0
c0
c0
c0
c0
c0
c0
c0
c0
00
ENDCHAR
STARTCHAR braceright
ENCODING 125
SWIDTH 268 0
DWIDTH 7 0
BBX 6 26 1 -6
ATTRIBUTES 0x0119
BITMAP
c0
e0
60
70
70
70
70
70
70
70
30
38
1c
1c
38
30
70
70
70
70
70
70
60
e0
c0
00
ENDCHAR
STARTCHAR asciitilde
ENCODING 126
SWIDTH 499 0
DWIDTH 13 0
BBX 11 5 0 4
ATTRIBUTES 0x01e2
BITMAP
3860
7c60
ffe0
c7c0
c380
ENDCHAR
STARTCHAR exclamdown
ENCODING 161
SWIDTH 268 0
DWIDTH 7 0
BBX 3 21 2 -6
ATTRIBUTES 0x0119
BITMAP
e0
e0
e0
e0
00
00
e0
e0
e0
e0
e0
e0
e0
e0
e0
e0
e0
e0
e0
e0
00
ENDCHAR
STARTCHAR cent
ENCODING 162
SWIDTH 499 0
DWIDTH 13 0
BBX 10 20 1 -3
ATTRIBUTES 0x01e2
BITMAP
0180
0180
1f00
7f80
7fc0
7fc0
f3c0
e7c0
e600
e400
ec00
ec00
f9c0
f9c0
7fc0
7f80
1f00
3000
3000
0000
ENDCHAR
STARTCHAR sterling
ENCODING 163
SWIDTH 499 0
DWIDTH 13 0
BBX 13 20 0 0
ATTRIBUTES 0x01e2
BITMAP
0f80
3fc0
3fe0
78e0
70e0
7000
7000
3800
3800
3800
7f00
7f00
1c00
1c00
1c00
3800
3e78
7ff8
ffe0
63c0
ENDCHAR
STARTCHAR currency
ENCODING 164
SWIDTH 499 0
DWIDTH 13 0
BBX 10 11 1 4
ATTRIBUTES 0x01e2
BITMAP
dec0
ffc0
7f80
7f80
f3c0
e1c0
e1c0
f3c0
7f80
ffc0
dec0
ENDCHAR
STARTCHAR yen
ENCODING 165
SWIDTH 499 0
DWIDTH 13 0
BBX 14 20 0 0
ATTRIBUTES 0x01e2
BITMAP
e03c
f07c
7078
78f8
38e0
3de0
1dc0
1fc0
1fc0
0f80
3fe0
3fe0
0700
3fe0
3fe0
0700
0700
0700
0700
0700
ENDCHAR
STARTCHAR brokenbar
ENCODING 166
SWIDTH 192 0
DWIDTH 5 0
BBX 2 25 1 -5
ATTRIBUTES 0x00c9
BITMAP
c0
c0
c0
c0
c0
c0
c0
c0
c0
c0
00
00
00
00
c0
c0
c0
c0
c0
c0
c0
c0
c0
c0
00
ENDCHAR
STARTCHAR section
ENCODING 167
SWIDTH 499 0
DWIDTH 13 0
BBX 10 26 1 -6
ATTRIBUTES 0x01e2
BITMAP
1e00
3f00
7f80
7380
7380
7800
3c00
3e00
3e00
7f00
e780
e380
e1c0
71c0
79c0
3fc0
1f80
0f00
0700
0380
7380
7380
7f80
3f00
1e00
0000
ENDCHAR
STARTCHAR diaeresis
ENCODING 168
SWIDTH 268 0
DWIDTH 7 0
BBX 7 4 0 15
ATTRIBUTES 0x0119
BITMAP
ee
ee
ee
00
ENDCHAR
STARTCHAR copyright
ENCODING 169
SWIDTH 768 0
DWIDTH 20 0
BBX 18 19 1 1
ATTRIBUTES 0x02fb
BITMAP
07f800
1ffe00
3c0f00
700380
63f180
e7f9c0
ce38c0
cc00c0
cc00c0
cc00c0
cc00c0
cc00c0
ce38c0
e7f9c0
63f180
700380
3c0f00
1ffe00
07f800
ENDCHAR
STARTCHAR ordfeminine
ENCODING 170
SWIDTH 307 0
DWIDTH 8 0
BBX 7 12 0 8
ATTRIBUTES 0x0141
BITMAP
78
fc
cc
3c
7c
cc
fc
76
76
00
fe
fe
ENDCHAR
STARTCHAR guillemotleft
ENCODING 171
SWIDTH 422 0
DWIDTH 11 0
BBX 9 8 1 3
ATTRIBUTES 0x01ba
BITMAP
1980
3b80
7700
ee00
ee00
7700
3b80
1980
ENDCHAR
STARTCHAR notsign
ENCODING 172
SWIDTH 652 0
DWIDTH 17 0
BBX 12 7 2 4
ATTRIBUTES 0x0283
BITMAP
fff0
fff0
fff0
0070
0070
0070
0070
ENDCHAR
STARTCHAR hyphen
ENCODING 173
SWIDTH 268 0
DWIDTH 7 0
BBX 5 3 1 6
ATTRIBUTES 0x0119
BITMAP
f8
f8
f8
ENDCHAR
STARTCHAR registered
ENCODING 174
SWIDTH 768 0
DWIDTH 20 0
BBX 18 19 1 1
ATTRIBUTES 0x02fb
BITMAP
07f800
1ffe00
3c0f00
700380
67f180
e7f9c0
c638c0
c638c0
c638c0
c7f0c0
c7c0c0
c670c0
c670c0
e639c0
663980
700380
3c0f00
1ffe00
07f800
ENDCHAR
STARTCHAR macron
ENCODING 175
SWIDTH 268 0
DWIDTH 7 0
BBX 7 3 0 16
ATTRIBUTES 0x0119
BITMAP
fe
fe
00
ENDCHAR
STARTCHAR degree
ENCODING 176
SWIDTH 345 0
DWIDTH 9 0
BBX 7 8 1 12
ATTRIBUTES 0x0169
BITMAP
38
6c
c6
c6
c6
6c
38
00
ENDCHAR
STARTCHAR plusminus
ENCODING 177
SWIDTH 499 0
DWIDTH 13 0
BBX 11 18 0 0
ATTRIBUTES 0x01e2
BITMAP
0e00
0e00
0e00
0e00
0e00
ffe0
ffe0
ffe0
ffe0
0e00
0e00
0e00
0e00
0e00
0000
ffe0
ffe0
ffe0
ENDCHAR
STARTCHAR twosuperior
ENCODING 178
SWIDTH 268 0
DWIDTH 7 0
BBX 6 12 0 8
ATTRIBUTES 0x0119
BITMAP
78
fc
cc
cc
0c
18
30
60
60
c0
fc
fc
ENDCHAR
STARTCHAR threesuperior
ENCODING 179
SWIDTH 268 0
DWIDTH 7 0
BBX 6 12 0 8
ATTRIBUTES 0x0119
BITMAP
78
fc
cc
0c
38
38
0c
cc
cc
cc
fc
78
ENDCHAR
STARTCHAR acute
ENCODING 180
SWIDTH 268 0
DWIDTH 7 0
BBX 5 5 1 15
ATTRIBUTES 0x0119
BITMAP
78
70
e0
c0
00
ENDCHAR
STARTCHAR mu
ENCODING 181
SWIDTH 499 0
DWIDTH 13 0
BBX 10 21 1 -6
ATTRIBUTES 0x01e2
BITMAP
e1c0
e1c0
e1c0
e1c0
e1c0
e1c0
e1c0
e1c0
e1c0
e1c0
e1c0
f3c0
ffc0
fec0
fcc0
e000
e000
e000
e000
e000
0000
ENDCHAR
STARTCHAR paragraph
ENCODING 182
SWIDTH 499 0
DWIDTH 13 0
BBX 11 26 0 -6
ATTRIBUTES 0x01e2
BITMAP
1fe0
7fe0
7cc0
fcc0
fcc0
fcc0
fcc0
fcc0
fcc0
7cc0
7cc0
3cc0
0cc0
0cc0
0cc0
0cc0
0cc0
0cc0
0cc0
0cc0
0cc0
0cc0
0cc0
0cc0
0cc0
0000
ENDCHAR
STARTCHAR periodcentered
ENCODING 183
SWIDTH 230 0
DWIDTH 6 0
BBX 4 5 1 8
ATTRIBUTES 0x00f1
BITMAP
60
60
f0
f0
60
ENDCHAR
STARTCHAR cedilla
ENCODING 184
SWIDTH 268 0
DWIDTH 7 0
BBX 6 6 0 -6
ATTRIBUTES 0x0119
BITMAP
10
38
1c
dc
78
00
ENDCHAR
STARTCHAR onesuperior
ENCODING 185
SWIDTH 268 0
DWIDTH 7 0
BBX 4 12 0 8
ATTRIBUTES 0x0119
BITMAP
30
f0
f0
30
30
30
30
30
30
30
30
30
ENDCHAR
STARTCHAR masculine
ENCODING 186
SWIDTH 268 0
DWIDTH 7 0
BBX 6 12 0 8
ATTRIBUTES 0x0119
BITMAP
78
fc
cc
cc
cc
cc
fc
78
78
00
fc
fc
ENDCHAR
STARTCHAR guillemotright
ENCODING 187
SWIDTH 422 0
DWIDTH 11 0
BBX 9 8 1 3
ATTRIBUTES 0x01ba
BITMAP
cc00
ee00
7700
3b80
3b80
7700
ee00
cc00
ENDCHAR
STARTCHAR onequarter
ENCODING 188
SWIDTH 729 0
DWIDTH 19 0
BBX 17 20 1 0
ATTRIBUTES 0x02d3
BITMAP
300600
f00c00
f00c00
303800
303800
307000
307000
30c000
30c000
30c300
318700
318700
030f00
030b00
063b00
067300
0c7f80
0c7f80
180300
180300
ENDCHAR
STARTCHAR onehalf
ENCODING 189
SWIDTH 729 0
DWIDTH 19 0
BBX 17 20 1 0
ATTRIBUTES 0x02d3
BITMAP
300600
f00c00
f00c00
303800
303800
307000
307000
30c000
30c000
30cf00
31bf80
31b980
033980
030180
060300
060600
0c0c00
0c3800
183f80
183f80
ENDCHAR
STARTCHAR threequarters
ENCODING 190
SWIDTH 729 0
DWIDTH 19 0
BBX 17 20 1 0
ATTRIBUTES 0x02d3
BITMAP
780600
fc0c00
cc0c00
0c3800
383800
387000
0c7000
ccc000
ccc000
ccc300
fd8700
798700
030f00
030b00
063b00
067300
0c7f80
0c7f80
180300
180300
ENDCHAR
STARTCHAR questiondown
ENCODING 191
SWIDTH 422 0
DWIDTH 11 0
BBX 9 21 1 -6
ATTRIBUTES 0x01ba
BITMAP
1c00
1c00
1c00
1c00
0000
0000
1c00
1c00
1c00
3c00
3800
7800
7000
f000
e380
e380
e380
ff80
7f00
3e00
0000
ENDCHAR
STARTCHAR Agrave
ENCODING 192
SWIDTH 614 0
DWIDTH 16 0
BBX 14 20 1 0
ATTRIBUTES 0x025a
BITMAP
1e00
0e00
0700
0300
0000
0700
0700
0f80
0f80
0f80
1dc0
1dc0
18c0
38f0
3ff0
7ff8
7ff8
7078
e03c
e03c
ENDCHAR
STARTCHAR Aacute
ENCODING 193
SWIDTH 614 0
DWIDTH 16 0
BBX 14 20 1 0
ATTRIBUTES 0x025a
BITMAP
03c0
0380
0700
0600
0000
0700
0700
0f80
0f80
0f80
1dc0
1dc0
18c0
38f0
3ff0
7ff8
7ff8
7078
e03c
e03c
ENDCHAR
STARTCHAR Acircumflex
ENCODING 194
SWIDTH 614 0
DWIDTH 16 0
BBX 14 20 1 0
ATTRIBUTES 0x025a
BITMAP
0700
0f80
1dc0
18c0
0000
0700
0700
0f80
0f80
0f80
1dc0
1dc0
18c0
38f0
3ff0
7ff8
7ff8
7078
e03c
e03c
ENDCHAR
STARTCHAR Atilde
ENCODING 195
SWIDTH 614 0
DWIDTH 16 0
BBX 14 19 1 0
ATTRIBUTES 0x025a
BITMAP
0ec0
1fc0
1b80
0000
0700
0700
0f80
0f80
0f80
1dc0
1dc0
18c0
38f0
3ff0
7ff8
7ff8
7078
e03c
e03c
ENDCHAR
STARTCHAR Adiaeresis
ENCODING 196
SWIDTH 614 0
DWIDTH 16 0
BBX 14 19 1 0
ATTRIBUTES 0x025a
BITMAP
1dc0
1dc0
1dc0
0000
0700
0700
0f80
0f80
0f80
1dc0
1dc0
18c0
38f0
3ff0
7ff8
7ff8
7078
e03c
e03c
ENDCHAR
STARTCHAR Aring
ENCODING 197
SWIDTH 614 0
DWIDTH 16 0
BBX 14 20 1 0
ATTRIBUTES 0x025a
BITMAP
0700
0d80
0880
0d80
0700
0700
0700
0f80
0f80
0f80
1dc0
1dc0
18c0
38f0
3ff0
7ff8
7ff8
7078
e03c
e03c
ENDCHAR
STARTCHAR AE
ENCODING 198
SWIDTH 806 0
DWIDTH 21 0
BBX 19 20 1 0
ATTRIBUTES 0x0323
BITMAP
07ffe0
07ffe0
07ffe0
0ef000
0ef000
0ef000
1cf000
1cf000
1cf000
1cffc0
1cffc0
38ffc0
38f000
3ff000
7ff000
7ff000
70f000
e0ffe0
e0ffe0
e0ffe0
ENDCHAR
STARTCHAR Ccedilla
ENCODING 199
SWIDTH 576 0
DWIDTH 15 0
BBX 13 26 1 -6
ATTRIBUTES 0x0232
BITMAP
0f80
3ff0
3ff0
78f8
7078
f078
e000
e000
e000
e000
e000
e000
e000
e000
f078
7078
78f8
3ff0
3ff0
0f80
0200
0700
0380
1b80
0f00
0000
ENDCHAR
STARTCHAR Egrave
ENCODING 200
SWIDTH 537 0
DWIDTH 14 0
BBX 11 20 2 0
ATTRIBUTES 0x020a
BITMAP
3c00
1c00
0e00
0600
0000
ffe0
ffe0
ffe0
ffe0
e000
e000
ff80
ff80
ff80
e000
e000
e000
ffe0
ffe0
ffe0
ENDCHAR
STARTCHAR Eacute
ENCODING 201
SWIDTH 537 0
DWIDTH 14 0
BBX 11 20 2 0
ATTRIBUTES 0x020a
BITMAP
0f00
0e00
1c00
1800
0000
ffe0
ffe0
ffe0
ffe0
e000
e000
ff80
ff80
ff80
e000
e000
e000
ffe0
ffe0
ffe0
ENDCHAR
STARTCHAR Ecircumflex
ENCODING 202
SWIDTH 537 0
DWIDTH 14 0
BBX 11 20 2 0
ATTRIBUTES 0x020a
BITMAP
0e00
1f00
3b80
3180
0000
ffe0
ffe0
ffe0
ffe0
e000
e000
ff80
ff80
ff80
e000
e000
e000
ffe0
ffe0
ffe0
ENDCHAR
STARTCHAR Ediaeresis
ENCODING 203
SWIDTH 537 0
DWIDTH 14 0
BBX 11 19 2 0
ATTRIBUTES 0x020a
BITMAP
3b80
3b80
3b80
0000
ffe0
ffe0
ffe0
ffe0
e000
e000
ff80
ff80
ff80
e000
e000
e000
ffe0
ffe0
ffe0
ENDCHAR
STARTCHAR Igrave
ENCODING 204
SWIDTH 268 0
DWIDTH 7 0
BBX 5 20 0 0
ATTRIBUTES 0x0119
BITMAP
f0
70
38
18
00
38
38
38
38
38
38
38
38
38
38
38
38
38
38
38
ENDCHAR
STARTCHAR Iacute
ENCODING 205
SWIDTH 268 0
DWIDTH 7 0
BBX 5 20 2 0
ATTRIBUTES 0x0119
BITMAP
78
70
e0
c0
00
e0
e0
e0
e0
e0
e0
e0
e0
e0
e0
e0
e0
e0
e0
e0
ENDCHAR
STARTCHAR Icircumflex
ENCODING 206
SWIDTH 268 0
DWIDTH 7 0
BBX 7 20 0 0
ATTRIBUTES 0x0119
BITMAP
38
7c
ee
c6
00
38
38
38
38
38
38
38
38
38
38
38
38
38
38
38
ENDCHAR
STARTCHAR Idiaeresis
ENCODING 207
SWIDTH 268 0
DWIDTH 7 0
BBX 7 19 0 0
ATTRIBUTES 0x0119
BITMAP
ee
ee
ee
00
38
38
38
38
38
38
38
38
38
38
38
38
38
38
38
ENDCHAR
STARTCHAR ETH
ENCODING 208
SWIDTH 652 0
DWIDTH 17 0
BBX 15 20 0 0
ATTRIBUTES 0x0283
BITMAP
3fc0
3ff8
3ff8
387c
383c
383e
381e
381e
381e
ff1e
ff1e
381e
381e
381e
383e
383c
387c
3ff8
3ff8
3fc0
ENDCHAR
STARTCHAR Ntilde
ENCODING 209
SWIDTH 652 0
DWIDTH 17 0
BBX 13 19 2 0
ATTRIBUTES 0x0283
BITMAP
0ee0
1fe0
1b80
0000
f878
f878
fc78
fc78
fc78
ee78
ee78
e778
e778
e3f8
e3f8
e1f8
e1f8
e0f8
e0f8
ENDCHAR
STARTCHAR Ograve
ENCODING 210
SWIDTH 652 0
DWIDTH 17 0
BBX 13 20 2 0
ATTRIBUTES 0x0283
BITMAP
1e00
0e00
0700
0300
0000
1f80
7ff0
7ff0
7ff0
f0f8
e078
e078
e078
e078
e078
e078
f0f8
7ff0
7ff0
1f80
ENDCHAR
STARTCHAR Oacute
ENCODING 211
SWIDTH 652 0
DWIDTH 17 0
BBX 13 20 2 0
ATTRIBUTES 0x0283
BITMAP
0780
0700
0e00
0c00
0000
1f80
7ff0
7ff0
7ff0
f0f8
e078
e078
e078
e078
e078
e078
f0f8
7ff0
7ff0
1f80
ENDCHAR
STARTCHAR Ocircumflex
ENCODING 212
SWIDTH 652 0
DWIDTH 17 0
BBX 13 20 2 0
ATTRIBUTES 0x0283
BITMAP
0e00
1f00
3b80
3180
0000
1f80
7ff0
7ff0
7ff0
f0f8
e078
e078
e078
e078
e078
e078
f0f8
7ff0
7ff0
1f80
ENDCHAR
STARTCHAR Otilde
ENCODING 213
SWIDTH 652 0
DWIDTH 17 0
BBX 13 19 2 0
ATTRIBUTES 0x0283
BITMAP
0ee0
1fe0
1b80
0000
1f80
7ff0
7ff0
7ff0
f0f8
e078
e078
e078
e078
e078
e078
f0f8
7ff0
7ff0
1f80
ENDCHAR
STARTCHAR Odiaeresis
ENCODING 214
SWIDTH 652 0
DWIDTH 17 0
BBX 13 19 2 0
ATTRIBUTES 0x0283
BITMAP
3b80
3b80
3b80
0000
1f80
7ff0
7ff0
7ff0
f0f8
e078
e078
e078
e078
e078
e078
f0f8
7ff0
7ff0
1f80
ENDCHAR
STARTCHAR multiply
ENCODING 215
SWIDTH 499 0
DWIDTH 13 0
BBX 11 14 0 0
ATTRIBUTES 0x01e2
BITMAP
4040
e0e0
e0e0
f1e0
7bc0
3f80
1f00
0e00
1f00
3f80
7bc0
f1e0
e0e0
4040
ENDCHAR
STARTCHAR Ooblique
ENCODING 216
SWIDTH 652 0
DWIDTH 17 0
BBX 15 20 1 0
ATTRIBUTES 0x0283
BITMAP
0fcc
3ffc
3ff8
78fc
70fc
f1ce
e18e
e18e
e18e
e38e
e30e
e70e
e60e
e60e
ee3e
7c3c
7c7c
3ff8
7ff8
6fc0
ENDCHAR
STARTCHAR Ugrave
ENCODING 217
SWIDTH 652 0
DWIDTH 17 0
BBX 13 20 2 0
ATTRIBUTES 0x0283
BITMAP
1e00
0e00
0700
0300
0000
e078
e078
e078
e078
e078
e078
e078
e078
e078
e078
e078
f0f8
7ff0
7ff0
1f80
ENDCHAR
STARTCHAR Uacute
ENCODING 218
SWIDTH 652 0
DWIDTH 17 0
BBX 13 20 2 0
ATTRIBUTES 0x0283
BITMAP
0780
0700
0e00
0c00
0000
e078
e078
e078
e078
e078
e078
e078
e078
e078
e078
e078
f0f8
7ff0
7ff0
1f80
ENDCHAR
STARTCHAR Ucircumflex
ENCODING 219
SWIDTH 652 0
DWIDTH 17 0
BBX 13 20 2 0
ATTRIBUTES 0x0283
BITMAP
0e00
1f00
3b80
3180
0000
e078
e078
e078
e078
e078
e078
e078
e078
e078
e078
e078
f0f8
7ff0
7ff0
1f80
ENDCHAR
STARTCHAR Udiaeresis
ENCODING 220
SWIDTH 652 0
DWIDTH 17 0
BBX 13 19 2 0
ATTRIBUTES 0x0283
BITMAP
3b80
3b80
3b80
0000
e078
e078
e078
e078
e078
e078
e078
e078
e078
e078
e078
f0f8
7ff0
7ff0
1f80
ENDCHAR
STARTCHAR Yacute
ENCODING 221
SWIDTH 537 0
DWIDTH 14 0
BBX 14 20 0 0
ATTRIBUTES 0x020a
BITMAP
03c0
0380
0700
0600
0000
e03c
f07c
78f8
78f8
38e0
3de0
1fc0
0f80
0f80
0700
0700
0700
0700
0700
0700
ENDCHAR
STARTCHAR THORN
ENCODING 222
SWIDTH 576 0
DWIDTH 15 0
BBX 12 20 2 0
ATTRIBUTES 0x0232
BITMAP
e000
e000
e000
e000
ff00
ffe0
ffe0
e1f0
e1f0
e0f0
e0f0
e0f0
e1f0
ffe0
ffe0
ff00
e000
e000
e000
e000
ENDCHAR
STARTCHAR ssharp
ENCODING 223
SWIDTH 499 0
DWIDTH 13 0
BBX 10 20 1 0
ATTRIBUTES 0x01e2
BITMAP
3c00
7f00
ff00
e780
e380
e380
e780
ef00
ef00
ee00
ef80
e380
e1c0
e1c0
e1c0
e1c0
e3c0
ef80
ef80
ee00
ENDCHAR
STARTCHAR agrave
ENCODING 224
SWIDTH 499 0
DWIDTH 13 0
BBX 10 20 1 0
ATTRIBUTES 0x01e2
BITMAP
7800
3800
1c00
0c00
0000
3e00
7f00
ff80
ff80
e380
0380
0f80
3f80
7b80
f380
e380
e780
ff80
ffc0
79c0
ENDCHAR
STARTCHAR aacute
ENCODING 225
SWIDTH 499 0
DWIDTH 13 0
BBX 10 20 1 0
ATTRIBUTES 0x01e2
BITMAP
0f00
0e00
1c00
1800
0000
3e00
7f00
ff80
ff80
e380
0380
0f80
3f80
7b80
f380
e380
e780
ff80
ffc0
79c0
ENDCHAR
STARTCHAR acircumflex
ENCODING 226
SWIDTH 499 0
DWIDTH 13 0
BBX 10 20 1 0
ATTRIBUTES 0x01e2
BITMAP
1c00
3e00
7700
6300
0000
3e00
7f00
ff80
ff80
e380
0380
0f80
3f80
7b80
f380
e380
e780
ff80
ffc0
79c0
ENDCHAR
STARTCHAR atilde
ENCODING 227
SWIDTH 499 0
DWIDTH 13 0
BBX 10 19 1 0
ATTRIBUTES 0x01e2
BITMAP
3b00
7f00
6e00
0000
3e00
7f00
ff80
ff80
e380
0380
0f80
3f80
7b80
f380
e380
e780
ff80
ffc0
79c0
ENDCHAR
STARTCHAR adiaeresis
ENCODING 228
SWIDTH 499 0
DWIDTH 13 0
BBX 10 19 1 0
ATTRIBUTES 0x01e2
BITMAP
7700
7700
7700
0000
3e00
7f00
ff80
ff80
e380
0380
0f80
3f80
7b80
f380
e380
e780
ff80
ffc0
79c0
ENDCHAR
STARTCHAR aring
ENCODING 229
SWIDTH 499 0
DWIDTH 13 0
BBX 10 20 1 0
ATTRIBUTES 0x01e2
BITMAP
1c00
3600
2200
3600
1c00
3e00
7f00
ff80
ff80
e380
0380
0f80
3f80
7b80
f380
e380
e780
ff80
ffc0
79c0
ENDCHAR
STARTCHAR ae
ENCODING 230
SWIDTH 768 0
DWIDTH 20 0
BBX 18 15 1 0
ATTRIBUTES 0x02fb
BITMAP
3e3e00
7f7f80
ffff80
ffff80
e3f3c0
03c1c0
0fc1c0
3fffc0
7bffc0
f3c000
e3c1c0
e7f3c0
ffff80
fe7f80
7c3e00
ENDCHAR
STARTCHAR ccedilla
ENCODING 231
SWIDTH 499 0
DWIDTH 13 0
BBX 10 21 1 -6
ATTRIBUTES 0x01e2
BITMAP
1e00
7f80
7f80
7f80
f1c0
e1c0
e000
e000
e000
e000
e1c0
f1c0
7f80
7f80
1e00
0800
1c00
0e00
6e00
3c00
0000
ENDCHAR
STARTCHAR egrave
ENCODING 232
SWIDTH 499 0
DWIDTH 13 0
BBX 10 20 1 0
ATTRIBUTES 0x01e2
BITMAP
3c00
1c00
0e00
0600
0000
1e00
7f80
7f80
7f80
f3c0
e1c0
e1c0
ffc0
ffc0
e000
e1c0
f3c0
7f80
7f80
1e00
ENDCHAR
STARTCHAR eacute
ENCODING 233
SWIDTH 499 0
DWIDTH 13 0
BBX 10 20 1 0
ATTRIBUTES 0x01e2
BITMAP
0f00
0e00
1c00
1800
0000
1e00
7f80
7f80
7f80
f3c0
e1c0
e1c0
ffc0
ffc0
e000
e1c0
f3c0
7f80
7f80
1e00
ENDCHAR
STARTCHAR ecircumflex
ENCODING 234
SWIDTH 499 0
DWIDTH 13 0
BBX 10 20 1 0
ATTRIBUTES 0x01e2
BITMAP
1c00
3e00
7700
6300
0000
1e00
7f80
7f80
7f80
f3c0
e1c0
e1c0
ffc0
ffc0
e000
e1c0
f3c0
7f80
7f80
1e00
ENDCHAR
STARTCHAR ediaeresis
ENCODING 235
SWIDTH 499 0
DWIDTH 13 0
BBX 10 19 1 0
ATTRIBUTES 0x01e2
BITMAP
7700
7700
7700
0000
1e00
7f80
7f80
7f80
f3c0
e1c0
e1c0
ffc0
ffc0
e000
e1c0
f3c0
7f80
7f80
1e00
ENDCHAR
STARTCHAR igrave
ENCODING 236
SWIDTH 268 0
DWIDTH 7 0
BBX 5 20 0 0
ATTRIBUTES 0x0119
BITMAP
f0
70
38
18
00
38
38
38
38
38
38
38
38
38
38
38
38
38
38
38
ENDCHAR
STARTCHAR iacute
ENCODING 237
SWIDTH 268 0
DWIDTH 7 0
BBX 5 20 2 0
ATTRIBUTES 0x0119
BITMAP
78
70
e0
c0
00
e0
e0
e0
e0
e0
e0
e0
e0
e0
e0
e0
e0
e0
e0
e0
ENDCHAR
STARTCHAR icircumflex
ENCODING 238
SWIDTH 268 0
DWIDTH 7 0
BBX 7 20 0 0
ATTRIBUTES 0x0119
BITMAP
38
7c
ee
c6
00
38
38
38
38
38
38
38
38
38
38
38
38
38
38
38
ENDCHAR
STARTCHAR idiaeresis
ENCODING 239
SWIDTH 268 0
DWIDTH 7 0
BBX 7 19 0 0
ATTRIBUTES 0x0119
BITMAP
ee
ee
ee
00
38
38
38
38
38
38
38
38
38
38
38
38
38
38
38
ENDCHAR
STARTCHAR eth
ENCODING 240
SWIDTH 499 0
DWIDTH 13 0
BBX 10 20 1 0
ATTRIBUTES 0x01e2
BITMAP
6600
fc00
3800
7c00
ce00
1f00
7f80
7f80
7f80
f3c0
e1c0
e1c0
e1c0
e1c0
e1c0
e1c0
f3c0
7f80
7f80
1e00
ENDCHAR
STARTCHAR ntilde
ENCODING 241
SWIDTH 499 0
DWIDTH 13 0
BBX 10 19 1 0
ATTRIBUTES 0x01e2
BITMAP
1d80
3f80
3700
0000
cf00
df80
ffc0
ffc0
f3c0
e1c0
e1c0
e1c0
e1c0
e1c0
e1c0
e1c0
e1c0
e1c0
e1c0
ENDCHAR
STARTCHAR ograve
ENCODING 242
SWIDTH 499 0
DWIDTH 13 0
BBX 10 20 1 0
ATTRIBUTES 0x01e2
BITMAP
3c00
1c00
0e00
0600
0000
1e00
7f80
7f80
7f80
f3c0
e1c0
e1c0
e1c0
e1c0
e1c0
e1c0
f3c0
7f80
7f80
1e00
ENDCHAR
STARTCHAR oacute
ENCODING 243
SWIDTH 499 0
DWIDTH 13 0
BBX 10 20 1 0
ATTRIBUTES 0x01e2
BITMAP
0f00
0e00
1c00
1800
0000
1e00
7f80
7f80
7f80
f3c0
e1c0
e1c0
e1c0
e1c0
e1c0
e1c0
f3c0
7f80
7f80
1e00
ENDCHAR
STARTCHAR ocircumflex
ENCODING 244
SWIDTH 499 0
DWIDTH 13 0
BBX 10 20 1 0
ATTRIBUTES 0x01e2
BITMAP
1c00
3e00
7700
6300
0000
1e00
7f80
7f80
7f80
f3c0
e1c0
e1c0
e1c0
e1c0
e1c0
e1c0
f3c0
7f80
7f80
1e00
ENDCHAR
STARTCHAR otilde
ENCODING 245
SWIDTH 499 0
DWIDTH 13 0
BBX 10 19 1 0
ATTRIBUTES 0x01e2
BITMAP
1d80
3f80
3700
0000
1e00
7f80
7f80
7f80
f3c0
e1c0
e1c0
e1c0
e1c0
e1c0
e1c0
f3c0
7f80
7f80
1e00
ENDCHAR
STARTCHAR odiaeresis
ENCODING 246
SWIDTH 499 0
DWIDTH 13 0
BBX 10 19 1 0
ATTRIBUTES 0x01e2
BITMAP
7700
7700
7700
0000
1e00
7f80
7f80
7f80
f3c0
e1c0
e1c0
e1c0
e1c0
e1c0
e1c0
f3c0
7f80
7f80
1e00
ENDCHAR
STARTCHAR division
ENCODING 247
SWIDTH 499 0
DWIDTH 13 0
BBX 11 14 0 0
ATTRIBUTES 0x01e2
BITMAP
0e00
0e00
0e00
0e00
0000
0000
ffe0
ffe0
ffe0
0000
0000
0e00
0e00
0e00
ENDCHAR
STARTCHAR oslash
ENCODING 248
SWIDTH 499 0
DWIDTH 13 0
BBX 10 15 1 0
ATTRIBUTES 0x01e2
BITMAP
1ec0
7fc0
7f80
7f80
f3c0
e7c0
e7c0
edc0
edc0
f9c0
f9c0
f3c0
7f80
ff80
de00
ENDCHAR
STARTCHAR ugrave
ENCODING 249
SWIDTH 499 0
DWIDTH 13 0
BBX 10 20 1 0
ATTRIBUTES 0x01e2
BITMAP
3c00
1c00
0e00
0600
0000
e1c0
e1c0
e1c0
e1c0
e1c0
e1c0
e1c0
e1c0
e1c0
e1c0
e1c0
f3c0
ffc0
7ec0
3cc0
ENDCHAR
STARTCHAR uacute
ENCODING 250
SWIDTH 499 0
DWIDTH 13 0
BBX 10 20 1 0
ATTRIBUTES 0x01e2
BITMAP
0f00
0e00
1c00
1800
0000
e1c0
e1c0
e1c0
e1c0
e1c0
e1c0
e1c0
e1c0
e1c0
e1c0
e1c0
f3c0
ffc0
7ec0
3cc0
ENDCHAR
STARTCHAR ucircumflex
ENCODING 251
SWIDTH 499 0
DWIDTH 13 0
BBX 10 20 1 0
ATTRIBUTES 0x01e2
BITMAP
1c00
3e00
7700
6300
0000
e1c0
e1c0
e1c0
e1c0
e1c0
e1c0
e1c0
e1c0
e1c0
e1c0
e1c0
f3c0
ffc0
7ec0
3cc0
ENDCHAR
STARTCHAR udiaeresis
ENCODING 252
SWIDTH 499 0
DWIDTH 13 0
BBX 10 19 1 0
ATTRIBUTES 0x01e2
BITMAP
7700
7700
7700
0000
e1c0
e1c0
e1c0
e1c0
e1c0
e1c0
e1c0
e1c0
e1c0
e1c0
e1c0
f3c0
ffc0
7ec0
3cc0
ENDCHAR
STARTCHAR yacute
ENCODING 253
SWIDTH 422 0
DWIDTH 11 0
BBX 9 26 1 -6
ATTRIBUTES 0x01ba
BITMAP
0f00
0e00
1c00
1800
0000
e380
e380
e380
e380
e380
7700
7700
7700
7700
3e00
3e00
3e00
3e00
1c00
1c00
1c00
3c00
f800
f800
f000
0000
ENDCHAR
STARTCHAR thorn
ENCODING 254
SWIDTH 499 0
DWIDTH 13 0
BBX 10 26 1 -6
ATTRIBUTES 0x01e2
BITMAP
e000
e000
e000
e000
e000
ee00
ff00
ff80
ff80
e380
e1c0
e1c0
e1c0
e1c0
e1c0
e1c0
e380
ff80
ff00
ee00
e000
e000
e000
e000
e000
0000
ENDCHAR
STARTCHAR ydiaeresis
ENCODING 255
SWIDTH 422 0
DWIDTH 11 0
BBX 9 25 1 -6
ATTRIBUTES 0x01ba
BITMAP
7700
7700
7700
0000
e380
e380
e380
e380
e380
7700
7700
7700
7700
3e00
3e00
3e00
3e00
1c00
1c00
1c00
3c00
f800
f800
f000
0000
ENDCHAR
ENDFONT
