/* XPM */
static char * workspace3_xpm[] = {
"64 64 174 2",
"  	c None",
". 	c #FFFFFF",
"+ 	c #FDFDFD",
"@ 	c #FBFBFB",
"# 	c #F9F9F9",
"$ 	c #F7F7F7",
"% 	c #F5F5F5",
"& 	c #F4F3F3",
"* 	c #F2F1F1",
"= 	c #F0EFEF",
"- 	c #EEEDED",
"; 	c #ECEBEB",
"> 	c #EBE9E9",
", 	c #E9E7E7",
"' 	c #E7E5E5",
") 	c #E6E4E4",
"! 	c #E5E3E3",
"~ 	c #E5E2E2",
"{ 	c #E4E1E1",
"] 	c #E3E0E0",
"^ 	c #E3DFDF",
"/ 	c #E2DEDE",
"( 	c #E3DEDE",
"_ 	c #E2DDDD",
": 	c #E2DCDC",
"< 	c #E3DCDC",
"[ 	c #E4DCDC",
"} 	c #E5DCDC",
"| 	c #E6DCDC",
"1 	c #E7DCDC",
"2 	c #E8DDDD",
"3 	c #E8DCDC",
"4 	c #E6DBDB",
"5 	c #E5DADA",
"6 	c #E5D8D8",
"7 	c #E3D7D7",
"8 	c #E2D5D5",
"9 	c #E1D4D4",
"0 	c #E0D2D2",
"a 	c #DFD0D0",
"b 	c #DECFCF",
"c 	c #DCCDCD",
"d 	c #DBCCCC",
"e 	c #D9CACA",
"f 	c #D9C8C8",
"g 	c #D7C7C7",
"h 	c #D5C5C5",
"i 	c #D4C3C3",
"j 	c #D2C1C1",
"k 	c #D1C0C0",
"l 	c #D0BEBE",
"m 	c #CEBCBC",
"n 	c #CCBABA",
"o 	c #CBB8B8",
"p 	c #CAB6B6",
"q 	c #C8B4B4",
"r 	c #C6B2B2",
"s 	c #C4B0B0",
"t 	c #C2AEAE",
"u 	c #C2ACAC",
"v 	c #C0AAAA",
"w 	c #BEA8A8",
"x 	c #BCA6A6",
"y 	c #BAA4A4",
"z 	c #B9A2A2",
"A 	c #B79F9F",
"B 	c #B59D9D",
"C 	c #B39B9B",
"D 	c #B09999",
"E 	c #AF9696",
"F 	c #AD9494",
"G 	c #AB9292",
"H 	c #A98F8F",
"I 	c #D0BDBD",
"J 	c #A78D8D",
"K 	c #A58A8A",
"L 	c #A38888",
"M 	c #2C0202",
"N 	c #1E0303",
"O 	c #A18686",
"P 	c #F7ECEC",
"Q 	c #F7F1F1",
"R 	c #F6F0F0",
"S 	c #F6EFEF",
"T 	c #F6EEEE",
"U 	c #F5EEEE",
"V 	c #F5EDED",
"W 	c #F4ECEC",
"X 	c #F4EBEB",
"Y 	c #F3EAEA",
"Z 	c #F2E9E9",
"` 	c #F1E8E8",
" .	c #F0E7E7",
"..	c #F0E6E6",
"+.	c #EFE5E5",
"@.	c #EFE4E4",
"#.	c #EEE3E3",
"$.	c #EEE2E2",
"%.	c #EDE1E1",
"&.	c #EDE0E0",
"*.	c #EDDFDF",
"=.	c #ECDFDF",
"-.	c #ECDEDE",
";.	c #EBDDDD",
">.	c #EBDCDC",
",.	c #EBDBDB",
"'.	c #9E8383",
").	c #9C8181",
"!.	c #F6EBEB",
"~.	c #140101",
"{.	c #9B7E7E",
"].	c #F6E9E9",
"^.	c #EFE3E3",
"/.	c #987C7C",
"(.	c #967979",
"_.	c #F5E8E8",
":.	c #937676",
"<.	c #F5E7E7",
"[.	c #917474",
"}.	c #F4E6E6",
"|.	c #907171",
"1.	c #F4E5E5",
"2.	c #8D6E6E",
"3.	c #F3E4E4",
"4.	c #8B6C6C",
"5.	c #280202",
"6.	c #886969",
"7.	c #9B8585",
"8.	c #866666",
"9.	c #846363",
"0.	c #EBDADA",
"a.	c #816161",
"b.	c #EADADA",
"c.	c #815F5F",
"d.	c #7F5E5E",
"e.	c #EAD9D9",
"f.	c #7C5B5B",
"g.	c #795858",
"h.	c #EAD8D8",
"i.	c #EAD7D7",
"j.	c #EBD7D7",
"k.	c #785555",
"l.	c #755252",
"m.	c #EBD6D6",
"n.	c #724F4F",
"o.	c #EBD5D5",
"p.	c #704C4C",
"q.	c #EBD4D4",
"r.	c #6D4949",
"s.	c #6B4646",
"t.	c #ECD4D4",
"u.	c #684343",
"v.	c #ECD3D3",
"w.	c #654040",
"x.	c #EDD3D3",
"y.	c #623D3D",
"z.	c #5F3A3A",
"A.	c #5E3737",
"B.	c #6D4848",
"C.	c #5A3333",
"D.	c #573030",
"E.	c #542D2D",
"F.	c #512A2A",
"G.	c #502626",
"H.	c #4D2323",
"I.	c #491F1F",
"J.	c #461D1D",
"K.	c #431919",
"L.	c #411616",
"M.	c #3E1212",
"N.	c #3A0F0F",
"O.	c #370C0C",
"P.	c #330808",
"Q.	c #320404",
". + @ # $ % & * = - ; > , ' ) ! ~ { ] ^ / ( _ _ _ : < < < < < [ } } | | 1 2 3 4 5 6 7 8 9 0 a b c d e f g h i j k l m n o p q r ",
"+ @ # $ % & * = - ; > , ' ) ! ~ { ] ^ / ( _ _ _ : < < < < < [ } } | | 1 2 3 4 5 6 7 8 9 0 a b c d e f g h i j k l m n o p q r s ",
"@ # $ % & * = - ; > , ' ) ! ~ { ] ^ / ( _ _ _ : < < < < < [ } } | | 1 2 3 4 5 6 7 8 9 0 a b c d e f g h i j k l m n o p q r s t ",
"# $ % & * = - ; > , ' ) ! ~ { ] ^ / ( _ _ _ : < < < < < [ } } | | 1 2 3 4 5 6 7 8 9 0 a b c d e f g h i j k l m n o p q r s t u ",
"$ % & * = - ; > , ' ) ! ~ { ] ^ / ( _ _ _ : < < < < < [ } } | | 1 2 3 4 5 6 7 8 9 0 a b c d e f g h i j k l m n o p q r s t u v ",
"% & * = - ; > , ' ) ! ~ { ] ^ / ( _ _ _ : < < < < < [ } } | | 1 2 3 4 5 6 7 8 9 0 a b c d e f g h i j k l m n o p q r s t u v w ",
"& * = - ; > , ' ) ! ~ { ] ^ / ( _ _ _ : < < < < < [ } } | | 1 2 3 4 5 6 7 8 9 0 a b c d e f g h i j k l m n o p q r s t u v w x ",
"* = - ; > , ' ) ! ~ { ] ^ / ( _ _ _ : < < < < < [ } } | | 1 2 3 4 5 6 7 8 9 0 a b c d e f g h i j k l m n o p q r s t u v w x y ",
"= - ; > , ' ) ! ~ { ] ^ / ( _ _ _ : < < < < < [ } } | | 1 2 3 4 5 6 7 8 9 0 a b c d e f g h i j k l m n o p q r s t u v w x y z ",
"- ; > , ' ) ! ~ { ] ^ / ( _ _ _ : < < < < < [ } } | | 1 2 3 4 5 6 7 8 9 0 a b c d e f g h i j k l m n o p q r s t u v w x y z A ",
"; > , ' ) ! ~ { ] ^ / ( _ _ _ : < < < < < [ } } | | 1 2 3 4 5 6 7 8 9 0 a b c d e f g h i j k l m n o p q r s t u v w x y z A B ",
"> , ' ) ! ~ { ] ^ / ( _ _ _ : < < < < < [ } } | | 1 2 3 4 5 6 7 8 9 0 a b c d e f g h i j k l m n o p q r s t u v w x y z A B C ",
", ' ) ! ~ { ] ^ / ( _ _ _ : < < < < < [ } } | | 1 2 3 4 5 6 7 8 9 0 a b c d e f g h i j k l m n o p q r s t u v w x y z A B C D ",
"' ) ! ~ { ] ^ / ( _ _ _ : < < < < < [ } } | | 1 2 3 4 5 6 7 8 9 0 a b c d e f g h i j k l m n o p q r s t u v w x y z A B C D E ",
") ! ~ { ] ^ / ( _ _ _ : < < < < < [ } } | | 1 2 3 4 5 6 7 8 9 0 a b c d e f g h i j k l m n o p q r s t u v w x y z A B C D E F ",
"! ~ { ] ^ / ( _ _ _ : < < < < < [ } } | | 1 2 3 4 5 6 7 8 9 0 a b c d e f g h i j k l m n o p q r s t u v w x y z A B C D E F G ",
"~ { ] ^ / ( _ _ _ : < < < < < [ } } | | 1 2 3 4 5 6 7 8 9 0 a b c d e f g h i j k l m n o p q r s t u v w x y z A B C D E F G H ",
"{ ] ^ / ( _ _ _ : < < < < < [ } } | | 1 2 3 4 5 6 7 8 9 0 a b c d e f g h i j k I m n o p q r s t u v w x y z A B C D E F G H J ",
"] ^ / ( _ _ _ : < < < < < [ } } | | 1 2 3 4 5 6 7 8 9 0 a b c d e f g h i j k l m n o p q r s t u v w x y z A B C D E F G H J K ",
"^ / ( _ _ _ : < < < < < [ } } | | 1 2 3 4 5 6 7 8 9 0 a b c d e f g h i j k l m n o p q r s t u v w x y z A B C D E F G H J K L ",
"/ ( _ _ _ : < < < < < [ } } | | 1 2 3 4 5 6 7 8 9 0 a M N N N N N N N N N N N N N N N N N N N N N N N N N N N N N N N H J K L O ",
"( _ _ _ : < < < < < [ } } | | 1 2 3 4 5 6 7 8 9 0 a M P M Q R S T U V W X Y Z `  ...+.@.#.$.$.%.%.&.*.=.-.-.;.;.>.,.M J K L O '.",
"_ _ _ : < < < < < [ } } | | 1 2 3 4 5 6 7 8 9 0 a M P P M R S T U V W X Y Z `  ...+.@.#.$.$.%.%.&.*.=.-.-.;.;.>.,.M M K L O '.).",
"_ _ : < < < < < [ } } | | 1 2 3 4 5 6 7 8 9 0 a M P P !.M S T U V W X Y Z `  ...+.@.#.$.$.%.%.&.*.=.-.-.;.;.>.,.M ~.M L O '.).{.",
"_ : < < < < < [ } } | | 1 2 3 4 5 6 7 8 9 0 a M P P !.].M T U V W X Y Z `  ...+.@.#.$.$.%.%.&.*.=.-.-.;.;.>.,.M ~.^.M O '.).{./.",
": < < < < < [ } } | | 1 2 3 4 5 6 7 8 9 0 a M P P !.].].M U V W X Y Z `  ...+.@.#.$.$.%.%.&.*.=.-.-.;.;.>.,.M ~.^.^.M '.).{./.(.",
"< < < < < [ } } | | 1 2 3 4 5 6 7 8 9 0 a M P P !.].]._.M V W X Y Z `  ...+.@.#.$.$.%.%.&.*.=.-.-.;.;.>.,.M ~.^.^.^.M ).{./.(.:.",
"< < < < [ } } | | 1 2 3 4 5 6 7 8 9 0 a M P P !.].]._.<.M W X Y Z `  ...+.@.#.$.$.%.%.&.*.=.-.-.;.;.>.,.M ~.^.^.^.^.M {./.(.:.[.",
"< < < [ } } | | 1 2 3 4 5 6 7 8 9 0 a M P P !.].]._.<.}.M X Y Z `  ...+.@.#.$.$.%.%.&.*.=.-.-.;.;.>.,.M ~.^.^.^.^.^.M /.(.:.[.|.",
"< < [ } } | | 1 2 3 4 5 6 7 8 9 0 a M P P !.].]._.<.}.1.M Y Z `  ...+.@.#.$.$.%.%.&.*.=.-.-.;.;.>.,.M ~.^.^.^.^.^.^.M (.:.[.|.2.",
"< [ } } | | 1 2 3 4 5 6 7 8 9 0 a M P P !.].]._.<.}.1.3.M Z `  ...+.@.#.$.$.%.%.&.*.=.-.-.;.;.>.,.M ~.^.^.^.^.^.^.^.M :.[.|.2.4.",
"[ } } | | 1 2 3 4 5 6 7 8 9 0 a b 5.5.5.5.5.5.5.5.5.5.5.5.5.5.5.5.5.5.5.5.5.5.5.5.5.5.5.5.5.5.5.M ~.^.^.^.^.^.^.^.^.M [.|.2.4.6.",
"} } | | 1 2 3 4 5 6 7 8 9 0 a b c 5.R S T U V W X Y Z ` 7. ...+.@.#.$.$.%.%.&.*.=.-.-.;.;.>.,.5.^.^.^.^.^.^.^.^.^.^.M |.2.4.6.8.",
"} | | 1 2 3 4 5 6 7 8 9 0 a b c d 5.S T U V W X Y Z `  .7...+.@.#.$.$.%.%.&.*.=.-.-.;.;.>.,.,.5.^.^.^.^.^.^.^.^.^.^.M 2.4.6.8.9.",
"| | 1 2 3 4 5 6 7 8 9 0 a b c d e 5.T U V W X Y Z `  ...7.+.@.#.$.$.%.%.&.*.=.-.-.;.;.>.,.,.0.5.^.^.^.^.^.^.^.^.^.^.M 4.6.8.9.a.",
"| 1 2 3 4 5 6 7 8 9 0 a b c d e f 5.U V W X Y Z `  ...+.7.@.#.$.$.%.%.&.*.=.-.-.;.;.>.,.,.0.b.5.^.^.^.^.^.^.^.^.^.^.M 6.8.9.c.d.",
"1 2 3 4 5 6 7 8 9 0 a b c d e f g 5.V W X Y Z `  ...+.@.7.#.$.$.%.%.&.*.=.-.-.;.;.>.,.,.0.b.e.5.^.^.^.^.^.^.^.^.^.^.M 8.9.a.d.f.",
"2 3 4 5 6 7 8 9 0 a b c d e f g h 5.W X Y Z `  ...+.@.7.7.7.7.7.7.7.7.7.7.7.7.7.7.7.7.7.7.7.7.5.7.7.7.7.7.7.7.7.7.M M 9.a.d.f.g.",
"3 4 5 6 7 8 9 0 a b c d e f g h i 5.X Y Z `  ...+.@.7.$.$.%.%.&.*.=.-.-.;.;.>.,.,.0.b.e.h.i.j.5.^.^.^.^.^.^.^.^.~.~.9.a.d.f.g.k.",
"4 5 6 7 8 9 0 a b c d e f g h i j 5.Y Z `  ...+.@.7.$.$.%.%.&.*.=.-.-.;.;.>.,.,.0.b.e.h.i.j.i.5.^.^.^.^.^.^.^.M ~.9.a.d.f.g.k.l.",
"5 6 7 8 9 0 a b c d e f g h i j k 5.Z `  ...+.@.7.$.$.%.%.&.*.=.-.-.;.;.>.,.,.0.b.e.h.i.j.i.m.5.^.^.^.^.^.^.M ~.9.a.d.f.g.k.l.n.",
"6 7 8 9 0 a b c d e f g h i j k l 5.`  ...+.@.7.$.$.%.%.&.*.=.-.-.;.;.>.,.,.0.b.e.h.i.j.i.m.o.5.^.^.^.^.^.~.~.9.a.d.f.g.k.l.n.p.",
"7 8 9 0 a b c d e f g h i j k l m 5. ...+.@.7.$.$.%.%.&.*.=.-.-.;.;.>.,.,.0.b.e.h.i.j.i.m.o.q.5.^.^.^.^.~.~.9.a.d.f.g.k.l.n.p.r.",
"8 9 0 a b c d e f g h i j k l m n 5...+.@.7.$.$.%.%.&.*.=.-.-.;.;.>.,.,.0.b.e.h.i.j.i.m.o.q.o.5.^.^.^.M ~.9.a.d.f.g.k.l.n.p.r.s.",
"9 0 a b c d e f g h i j k l m n o 5.+.@.7.$.$.%.%.&.*.=.-.-.;.;.>.,.,.0.b.e.h.i.j.i.m.o.q.o.t.5.^.^.M ~.9.a.d.f.g.k.l.n.p.r.s.u.",
"0 a b c d e f g h i j k l m n o p 5.@.7.$.$.%.%.&.*.=.-.-.;.;.>.,.,.0.b.e.h.i.j.i.m.o.q.o.t.v.5.M M ~.9.a.d.f.g.k.l.n.p.r.s.u.w.",
"a b c d e f g h i j k l m n o p q 5.7.$.$.%.%.&.*.=.-.-.;.;.>.,.,.0.b.e.h.i.j.i.m.o.q.o.t.v.x.M M 8.9.a.d.f.g.k.l.n.p.r.s.u.w.y.",
"b c d e f g h i j k l m n o p q r 5.5.5.5.5.5.5.5.5.5.5.5.5.5.5.5.5.5.5.5.5.5.5.5.5.5.5.5.5.5.5.8.9.a.d.f.g.k.l.n.p.r.s.u.w.y.z.",
"c d e f g h i j k l m n o p q r s t u v w x y z A B C D E F G H J K L O '.).{./.(.:.[.|.2.4.6.8.9.a.d.f.g.k.l.n.p.r.s.u.w.y.z.A.",
"d e f g h i j k l m n o p q r s t u v w x y z A B C D E F G H J K L O '.).{./.(.:.[.|.2.4.6.8.9.a.d.f.g.k.l.n.p.B.s.u.w.y.z.A.C.",
"e f g h i j k l m n o p q r s t u v w x y z A B C D E F G H J K L O '.).{./.(.:.[.|.2.4.6.8.9.a.d.f.g.k.l.n.p.r.s.u.w.y.z.A.C.D.",
"f g h i j k l m n o p q r s t u v w x y z A B C D E F G H J K L O '.).{./.(.:.[.|.2.4.6.8.9.a.d.f.g.k.l.n.p.r.s.u.w.y.z.A.C.D.E.",
"g h i j k l m n o p q r s t u v w x y z A B C D E F G H J K L O '.).{./.(.:.[.|.2.4.6.8.9.a.d.f.g.k.l.n.p.r.s.u.w.y.z.A.C.D.E.F.",
"h i j k l m n o p q r s t u v w x y z A B C D E F G H J K L O '.).{./.(.:.[.|.2.4.6.8.9.a.d.f.g.k.l.n.p.r.s.u.w.y.z.A.C.D.E.F.G.",
"i j k l m n o p q r s t u v w x y z A B C D E F G H J K L O '.).{./.(.:.[.|.2.4.6.8.9.a.d.f.g.k.l.n.p.r.s.u.w.y.z.A.C.D.E.F.G.H.",
"j k l m n o p q r s t u v w x y z A B C D E F G H J K L O '.).{./.(.:.[.|.2.4.6.8.9.a.d.f.g.k.l.n.p.r.s.u.w.y.z.A.C.D.E.F.G.H.I.",
"k l m n o p q r s t u v w x y z A B C D E F G H J K L O '.).{./.(.:.[.|.2.4.6.8.9.a.d.f.g.k.l.n.p.B.s.u.w.y.z.A.C.D.E.F.G.H.I.J.",
"l m n o p q r s t u v w x y z A B C D E F G H J K L O '.).{./.(.:.[.|.2.4.6.8.9.a.d.f.g.k.l.n.p.r.s.u.w.y.z.A.C.D.E.F.G.H.I.J.K.",
"m n o p q r s t u v w x y z A B C D E F G H J K L O '.).{./.(.:.[.|.2.4.6.8.9.a.d.f.g.k.l.n.p.r.s.u.w.y.z.A.C.D.E.F.G.H.I.J.K.L.",
"n o p q r s t u v w x y z A B C D E F G H J K L O '.).{./.(.:.[.|.2.4.6.8.9.a.d.f.g.k.l.n.p.r.s.u.w.y.z.A.C.D.E.F.G.H.I.J.K.L.M.",
"o p q r s t u v w x y z A B C D E F G H J K L O '.).{./.(.:.[.|.2.4.6.8.9.a.d.f.g.k.l.n.p.r.s.u.w.y.z.A.C.D.E.F.G.H.I.J.K.L.M.N.",
"p q r s t u v w x y z A B C D E F G H J K L O '.).{./.(.:.[.|.2.4.6.8.9.a.d.f.g.k.l.n.p.r.s.u.w.y.z.A.C.D.E.F.G.H.I.J.K.L.M.N.O.",
"q r s t u v w x y z A B C D E F G H J K L O '.).{./.(.:.[.|.2.4.6.8.9.c.d.f.g.k.l.n.p.r.s.u.w.y.z.A.C.D.E.F.G.H.I.J.K.L.M.N.O.P.",
"r s t u v w x y z A B C D E F G H J K L O '.).{./.(.:.[.|.2.4.6.8.9.a.d.f.g.k.l.n.p.r.s.u.w.y.z.A.C.D.E.F.G.H.I.J.K.L.M.N.O.P.Q."};
