<?xml version="1.0" encoding="UTF-8" standalone="no"?>
<!DOCTYPE svg PUBLIC "-//W3C//DTD SVG 1.1//EN"
 "http://www.w3.org/Graphics/SVG/1.1/DTD/svg11.dtd">
<!-- Generated by graphviz version 2.38.0 (20140413.2041)
 -->
<!-- Title: Perl Pages: 1 -->
<svg width="474pt" height="131pt"
 viewBox="0.00 0.00 474.35 131.00" xmlns="http://www.w3.org/2000/svg" xmlns:xlink="http://www.w3.org/1999/xlink">
<g id="graph0" class="graph" transform="scale(1 1) rotate(0) translate(4 127)">
<title>Perl</title>
<polygon fill="white" stroke="none" points="-4,4 -4,-127 470.347,-127 470.347,4 -4,4"/>
<!-- node.1 -->
<g id="node1" class="node"><title>node.1</title>
<ellipse fill="none" stroke="black" cx="38.3466" cy="-105" rx="38.1938" ry="18"/>
<text text-anchor="middle" x="38.3466" y="-101.3" font-family="Times,serif" font-size="14.00">Node &#160;1</text>
</g>
<!-- node.2 -->
<g id="node2" class="node"><title>node.2</title>
<ellipse fill="none" stroke="blue" cx="38.3466" cy="-18" rx="34.394" ry="18"/>
<text text-anchor="middle" x="38.3466" y="-14.3" font-family="Times,serif" font-size="14.00">node.2</text>
</g>
<!-- node.1&#45;&gt;node.2 -->
<g id="edge1" class="edge"><title>node.1&#45;&gt;node.2</title>
<path fill="none" stroke="grey" d="M38.3466,-86.799C38.3466,-75.1626 38.3466,-59.5479 38.3466,-46.2368"/>
<polygon fill="grey" stroke="grey" points="34.3466,-36.1755 42.3466,-36.1754 42.3467,-44.1754 34.3467,-44.1755 34.3466,-36.1755"/>
<polyline fill="none" stroke="grey" points="38.3467,-44.1754 38.3467,-46.1754 "/>
<text text-anchor="middle" x="55.8466" y="-57.8" font-family="Times,serif" font-size="14.00">A box</text>
</g>
<!-- node.3 -->
<g id="node3" class="node"><title>node.3</title>
<ellipse fill="none" stroke="black" cx="133.347" cy="-105" rx="38.1938" ry="18"/>
<text text-anchor="middle" x="133.347" y="-101.3" font-family="Times,serif" font-size="14.00">Node &#160;3</text>
</g>
<!-- node.4 -->
<g id="node4" class="node"><title>node.4</title>
<ellipse fill="none" stroke="blue" cx="133.347" cy="-18" rx="34.394" ry="18"/>
<text text-anchor="middle" x="133.347" y="-14.3" font-family="Times,serif" font-size="14.00">node.4</text>
</g>
<!-- node.3&#45;&gt;node.4 -->
<g id="edge2" class="edge"><title>node.3&#45;&gt;node.4</title>
<path fill="none" stroke="grey" d="M133.347,-86.799C133.347,-75.1626 133.347,-59.5479 133.347,-46.2368"/>
<polygon fill="grey" stroke="grey" points="133.347,-46.1754 137.847,-36.1754 133.347,-41.1754 133.347,-36.1754 133.347,-36.1754 133.347,-36.1754 133.347,-41.1754 128.847,-36.1755 133.347,-46.1754 133.347,-46.1754"/>
<text text-anchor="middle" x="154.347" y="-57.8" font-family="Times,serif" font-size="14.00">A crow</text>
</g>
<!-- node.5 -->
<g id="node5" class="node"><title>node.5</title>
<ellipse fill="none" stroke="black" cx="228.347" cy="-105" rx="38.1938" ry="18"/>
<text text-anchor="middle" x="228.347" y="-101.3" font-family="Times,serif" font-size="14.00">Node &#160;5</text>
</g>
<!-- node.6 -->
<g id="node6" class="node"><title>node.6</title>
<ellipse fill="none" stroke="blue" cx="228.347" cy="-18" rx="34.394" ry="18"/>
<text text-anchor="middle" x="228.347" y="-14.3" font-family="Times,serif" font-size="14.00">node.6</text>
</g>
<!-- node.5&#45;&gt;node.6 -->
<g id="edge3" class="edge"><title>node.5&#45;&gt;node.6</title>
<path fill="none" stroke="grey" d="M228.347,-86.799C228.347,-75.7386 228.347,-61.0842 228.347,-48.2299"/>
<polygon fill="grey" stroke="grey" points="228.347,-48.1754 224.347,-42.1755 228.347,-36.1754 232.347,-42.1754 228.347,-48.1754"/>
<text text-anchor="middle" x="260.347" y="-57.8" font-family="Times,serif" font-size="14.00">A diamond</text>
</g>
<!-- node.7 -->
<g id="node7" class="node"><title>node.7</title>
<ellipse fill="none" stroke="black" cx="323.347" cy="-105" rx="38.1938" ry="18"/>
<text text-anchor="start" x="301.847" y="-101.3" font-family="Times,serif" font-size="14.00">Node &#160;7</text>
</g>
<!-- node.8 -->
<g id="node8" class="node"><title>node.8</title>
<ellipse fill="none" stroke="blue" cx="323.347" cy="-18" rx="34.394" ry="18"/>
<text text-anchor="middle" x="323.347" y="-14.3" font-family="Times,serif" font-size="14.00">node.8</text>
</g>
<!-- node.7&#45;&gt;node.8 -->
<g id="edge4" class="edge"><title>node.7&#45;&gt;node.8</title>
<path fill="none" stroke="grey" d="M323.347,-86.799C323.347,-78.0429 323.347,-67.0342 323.347,-56.4494"/>
<polygon fill="grey" stroke="grey" points="323.347,-36.1754 327.847,-46.1754 323.347,-41.1754 323.347,-46.1754 323.347,-46.1754 323.347,-46.1754 323.347,-41.1754 318.847,-46.1755 323.347,-36.1754 323.347,-36.1754"/>
<polygon fill="grey" stroke="grey" points="323.347,-46.1754 327.847,-56.1754 323.347,-51.1754 323.347,-56.1754 323.347,-56.1754 323.347,-56.1754 323.347,-51.1754 318.847,-56.1755 323.347,-46.1754 323.347,-46.1754"/>
<text text-anchor="middle" x="349.347" y="-57.8" font-family="Times,serif" font-size="14.00">A veevee</text>
</g>
<!-- node.9 -->
<g id="node9" class="node"><title>node.9</title>
<ellipse fill="none" stroke="black" cx="418.347" cy="-105" rx="38.1938" ry="18"/>
<text text-anchor="middle" x="418.347" y="-101.3" font-family="Times,serif" font-size="14.00">Node &#160;9</text>
</g>
<!-- node.10 -->
<g id="node10" class="node"><title>node.10</title>
<ellipse fill="none" stroke="blue" cx="418.347" cy="-18" rx="38.9931" ry="18"/>
<text text-anchor="middle" x="418.347" y="-14.3" font-family="Times,serif" font-size="14.00">node.10</text>
</g>
<!-- node.9&#45;&gt;node.10 -->
<g id="edge5" class="edge"><title>node.9&#45;&gt;node.10</title>
<path fill="none" stroke="grey" d="M418.347,-86.799C418.347,-75.1626 418.347,-59.5479 418.347,-46.2368"/>
<polygon fill="grey" stroke="grey" points="413.347,-37.1755 423.347,-37.1754 423.347,-39.1754 413.347,-39.1755 413.347,-37.1755"/>
<polyline fill="none" stroke="grey" points="418.347,-36.1754 418.347,-41.1754 "/>
<polygon fill="grey" stroke="grey" points="413.347,-42.1755 423.347,-42.1754 423.347,-44.1754 413.347,-44.1755 413.347,-42.1755"/>
<polyline fill="none" stroke="grey" points="418.347,-41.1754 418.347,-46.1754 "/>
<text text-anchor="middle" x="442.347" y="-57.8" font-family="Times,serif" font-size="14.00">A teetee</text>
</g>
</g>
</svg>
