<?xml version="1.0" encoding="UTF-8" standalone="no"?>
<!DOCTYPE svg PUBLIC "-//W3C//DTD SVG 1.1//EN"
 "http://www.w3.org/Graphics/SVG/1.1/DTD/svg11.dtd">
<!-- Generated by graphviz version 2.38.0 (20140413.2041)
 -->
<!-- Title: Perl Pages: 1 -->
<svg width="99pt" height="219pt"
 viewBox="0.00 0.00 99.00 219.00" xmlns="http://www.w3.org/2000/svg" xmlns:xlink="http://www.w3.org/1999/xlink">
<g id="graph0" class="graph" transform="scale(1 1) rotate(0) translate(4 215)">
<title>Perl</title>
<polygon fill="white" stroke="none" points="-4,4 -4,-215 94.9965,-215 94.9965,4 -4,4"/>
<!-- node.1 -->
<g id="node1" class="node"><title>node.1</title>
<ellipse fill="none" stroke="red" cx="38.9965" cy="-193" rx="38.9931" ry="18"/>
<text text-anchor="middle" x="38.9965" y="-189.3" font-family="Times,serif" font-size="14.00">Node A</text>
</g>
<!-- 27 -->
<g id="node2" class="node"><title>27</title>
<ellipse fill="none" stroke="none" cx="38.9965" cy="-124" rx="0" ry="0"/>
</g>
<!-- node.1&#45;&gt;27 -->
<g id="edge1" class="edge"><title>node.1&#45;&gt;27</title>
<path fill="none" stroke="green" d="M38.9965,-174.746C38.9965,-162.276 38.9965,-145.842 38.9965,-135.346"/>
<polygon fill="green" stroke="green" points="42.4966,-135.086 38.9965,-125.086 35.4966,-135.086 42.4966,-135.086"/>
<text text-anchor="middle" x="58.9965" y="-145.8" font-family="Times,serif" font-size="14.00">Edge B</text>
</g>
<!-- node.2 -->
<g id="node3" class="node"><title>node.2</title>
<ellipse fill="none" stroke="black" cx="38.9965" cy="-55" rx="34.394" ry="18"/>
<text text-anchor="middle" x="38.9965" y="-51.3" font-family="Times,serif" font-size="14.00">node.2</text>
</g>
<!-- 27&#45;&gt;node.2 -->
<g id="edge2" class="edge"><title>27&#45;&gt;node.2</title>
<path fill="none" stroke="red" d="M38.9965,-122.951C38.9965,-121.825 38.9965,-101.318 38.9965,-83.2944"/>
<polygon fill="red" stroke="red" points="42.4966,-83.1345 38.9965,-73.1346 35.4966,-83.1346 42.4966,-83.1345"/>
<text text-anchor="middle" x="64.9965" y="-94.8" font-family="Times,serif" font-size="14.00">Edge C C</text>
</g>
<!-- 20 -->
<g id="node4" class="node"><title>20</title>
<ellipse fill="none" stroke="none" cx="38.9965" cy="-0" rx="0" ry="0"/>
</g>
<!-- node.2&#45;&gt;20 -->
<g id="edge3" class="edge"><title>node.2&#45;&gt;20</title>
<path fill="none" stroke="grey" d="M38.9965,-36.9387C38.9965,-28.4959 38.9965,-18.5828 38.9965,-11.3088"/>
<polygon fill="grey" stroke="grey" points="42.4966,-11.0591 38.9965,-1.05912 35.4966,-11.0592 42.4966,-11.0591"/>
</g>
</g>
</svg>
