<?xml version="1.0" encoding="UTF-8" standalone="no"?>
<!DOCTYPE svg PUBLIC "-//W3C//DTD SVG 1.1//EN"
 "http://www.w3.org/Graphics/SVG/1.1/DTD/svg11.dtd">
<!-- Generated by graphviz version 2.38.0 (20140413.2041)
 -->
<!-- Title: Perl Pages: 1 -->
<svg width="491pt" height="424pt"
 viewBox="0.00 0.00 490.84 424.00" xmlns="http://www.w3.org/2000/svg" xmlns:xlink="http://www.w3.org/1999/xlink">
<g id="graph0" class="graph" transform="scale(1 1) rotate(0) translate(4 420)">
<title>Perl</title>
<polygon fill="white" stroke="none" points="-4,4 -4,-420 486.843,-420 486.843,4 -4,4"/>
<!-- 33 -->
<g id="node1" class="node"><title>33</title>
<ellipse fill="none" stroke="none" cx="34.4469" cy="-398" rx="0" ry="0"/>
</g>
<!-- 40 -->
<g id="node2" class="node"><title>40</title>
<ellipse fill="none" stroke="none" cx="34.4469" cy="-325" rx="0" ry="0"/>
</g>
<!-- 33&#45;&gt;40 -->
<g id="edge1" class="edge"><title>33&#45;&gt;40</title>
<path fill="none" stroke="grey" d="M34.4469,-396.949C34.4469,-395.32 34.4469,-355.447 34.4469,-336.205"/>
<polygon fill="grey" stroke="grey" points="37.947,-336.05 34.4469,-326.05 30.947,-336.05 37.947,-336.05"/>
</g>
<!-- node -->
<g id="node3" class="node"><title>node</title>
<ellipse fill="none" stroke="black" cx="34.4469" cy="-252" rx="28.6953" ry="18"/>
<text text-anchor="middle" x="34.4469" y="-248.3" font-family="Times,serif" font-size="14.00">node</text>
</g>
<!-- 40&#45;&gt;node -->
<g id="edge2" class="edge"><title>40&#45;&gt;node</title>
<path fill="none" stroke="grey" d="M34.4469,-323.949C34.4469,-322.717 34.4469,-299.616 34.4469,-280.104"/>
<polygon fill="grey" stroke="grey" points="37.947,-280.08 34.4469,-270.08 30.947,-280.08 37.947,-280.08"/>
</g>
<!-- 47 -->
<g id="node4" class="node"><title>47</title>
<ellipse fill="none" stroke="none" cx="34.4469" cy="-197" rx="0" ry="0"/>
</g>
<!-- node&#45;&gt;47 -->
<g id="edge3" class="edge"><title>node&#45;&gt;47</title>
<path fill="none" stroke="grey" d="M34.4469,-233.939C34.4469,-225.496 34.4469,-215.583 34.4469,-208.309"/>
<polygon fill="grey" stroke="grey" points="37.947,-208.059 34.4469,-198.059 30.947,-208.059 37.947,-208.059"/>
</g>
<!-- 54 -->
<g id="node5" class="node"><title>54</title>
<ellipse fill="none" stroke="none" cx="34.4469" cy="-146" rx="0" ry="0"/>
</g>
<!-- 47&#45;&gt;54 -->
<g id="edge4" class="edge"><title>47&#45;&gt;54</title>
<path fill="none" stroke="grey" d="M34.4469,-195.859C34.4469,-193.858 34.4469,-170.956 34.4469,-157.229"/>
<polygon fill="grey" stroke="grey" points="37.947,-157.132 34.4469,-147.132 30.947,-157.132 37.947,-157.132"/>
<text text-anchor="middle" x="48.4469" y="-167.8" font-family="Times,serif" font-size="14.00">Start</text>
</g>
<!-- node.1 -->
<g id="node6" class="node"><title>node.1</title>
<ellipse fill="none" stroke="green" cx="34.4469" cy="-91" rx="34.394" ry="18"/>
<text text-anchor="middle" x="34.4469" y="-87.3" font-family="Times,serif" font-size="14.00">node.1</text>
</g>
<!-- 54&#45;&gt;node.1 -->
<g id="edge5" class="edge"><title>54&#45;&gt;node.1</title>
<path fill="none" stroke="red" d="M34.4469,-144.848C34.4469,-143.368 34.4469,-131.319 34.4469,-119.1"/>
<polygon fill="red" stroke="red" points="37.947,-119.025 34.4469,-109.025 30.947,-119.025 37.947,-119.025"/>
</g>
<!-- node.2 -->
<g id="node7" class="node"><title>node.2</title>
<ellipse fill="none" stroke="black" cx="34.4469" cy="-18" rx="34.394" ry="18"/>
<text text-anchor="middle" x="34.4469" y="-14.3" font-family="Times,serif" font-size="14.00">node.2</text>
</g>
<!-- node.1&#45;&gt;node.2 -->
<g id="edge6" class="edge"><title>node.1&#45;&gt;node.2</title>
<path fill="none" stroke="grey" d="M34.4469,-72.8129C34.4469,-64.7895 34.4469,-55.0475 34.4469,-46.0691"/>
<polygon fill="grey" stroke="grey" points="37.947,-46.0288 34.4469,-36.0288 30.947,-46.0289 37.947,-46.0288"/>
</g>
<!-- node.3 -->
<g id="node8" class="node"><title>node.3</title>
<ellipse fill="none" stroke="black" cx="86.4469" cy="-398" rx="34.394" ry="18"/>
<text text-anchor="middle" x="86.4469" y="-394.3" font-family="Times,serif" font-size="14.00">node.3</text>
</g>
<g id="node9" class="node"><title></title>
<ellipse fill="none" stroke="black" cx="165.447" cy="-398" rx="27" ry="18"/>
</g>
<!-- node 1 -->
<g id="node10" class="node"><title>node 1</title>
<ellipse fill="none" stroke="black" cx="244.447" cy="-398" rx="34.394" ry="18"/>
<text text-anchor="middle" x="244.447" y="-394.3" font-family="Times,serif" font-size="14.00">node 1</text>
</g>
<!-- \[node\] -->
<g id="node11" class="node"><title>\[node\]</title>
<ellipse fill="none" stroke="black" cx="331.447" cy="-398" rx="34.394" ry="18"/>
<text text-anchor="middle" x="331.447" y="-394.3" font-family="Times,serif" font-size="14.00">[node]</text>
</g>
<!-- From here -->
<g id="node12" class="node"><title>From here</title>
<ellipse fill="none" stroke="black" cx="433.447" cy="-398" rx="49.2915" ry="18"/>
<text text-anchor="middle" x="433.447" y="-394.3" font-family="Times,serif" font-size="14.00">From here</text>
</g>
<!-- To there -->
<g id="node13" class="node"><title>To there</title>
<ellipse fill="none" stroke="black" cx="433.447" cy="-325" rx="42.4939" ry="18"/>
<text text-anchor="middle" x="433.447" y="-321.3" font-family="Times,serif" font-size="14.00">To there</text>
</g>
<!-- From here&#45;&gt;To there -->
<g id="edge7" class="edge"><title>From here&#45;&gt;To there</title>
<path fill="none" stroke="grey" d="M433.447,-379.813C433.447,-371.789 433.447,-362.047 433.447,-353.069"/>
<polygon fill="grey" stroke="grey" points="436.947,-353.029 433.447,-343.029 429.947,-353.029 436.947,-353.029"/>
</g>
</g>
</svg>
