<?xml version="1.0" encoding="UTF-8" standalone="no"?>
<!DOCTYPE svg PUBLIC "-//W3C//DTD SVG 1.1//EN"
 "http://www.w3.org/Graphics/SVG/1.1/DTD/svg11.dtd">
<!-- Generated by graphviz version 2.38.0 (20140413.2041)
 -->
<!-- Title: Perl Pages: 1 -->
<svg width="384pt" height="71pt"
 viewBox="0.00 0.00 383.72 71.45" xmlns="http://www.w3.org/2000/svg" xmlns:xlink="http://www.w3.org/1999/xlink">
<g id="graph0" class="graph" transform="scale(1 1) rotate(0) translate(4 67.4527)">
<title>Perl</title>
<polygon fill="white" stroke="none" points="-4,4 -4,-67.4527 379.722,-67.4527 379.722,4 -4,4"/>
<!-- node.1 -->
<g id="node1" class="node"><title>node.1</title>
<polygon fill="none" stroke="red" points="367.59,-21.828 367.59,-41.6248 262.307,-55.6233 113.415,-55.6233 8.13278,-41.6248 8.13278,-21.828 113.415,-7.82949 262.307,-7.82949 367.59,-21.828"/>
<polygon fill="none" stroke="red" points="371.587,-18.2958 371.587,-45.157 262.57,-59.652 113.153,-59.652 4.13573,-45.157 4.13573,-18.2958 113.153,-3.80075 262.57,-3.80075 371.587,-18.2958"/>
<polygon fill="none" stroke="red" points="375.584,-14.7636 375.584,-48.6892 262.832,-63.6807 112.89,-63.6807 0.138684,-48.6892 0.138684,-14.7636 112.89,0.228 262.832,0.228 375.584,-14.7636"/>
<text text-anchor="start" x="82.8612" y="-27.5264" font-family="Times,serif" font-size="14.00">HTML&#45;style label but without borders</text>
</g>
</g>
</svg>
