<?xml version="1.0" encoding="utf-8"?>
<!-- Generator: Adobe Illustrator 13.0.2, SVG Export Plug-In . SVG Version: 6.00 Build 14948)  -->
<!DOCTYPE svg PUBLIC "-//W3C//DTD SVG 1.1//EN" "http://www.w3.org/Graphics/SVG/1.1/DTD/svg11.dtd" [
	<!ENTITY ns_flows "http://ns.adobe.com/Flows/1.0/">
	<!ENTITY ns_extend "http://ns.adobe.com/Extensibility/1.0/">
	<!ENTITY ns_ai "http://ns.adobe.com/AdobeIllustrator/10.0/">
	<!ENTITY ns_graphs "http://ns.adobe.com/Graphs/1.0/">
]>
<svg version="1.1" id="loving_children_xA0_Image_1_" xmlns:x="&ns_extend;" xmlns:i="&ns_ai;" xmlns:graph="&ns_graphs;"
	 xmlns="http://www.w3.org/2000/svg" xmlns:xlink="http://www.w3.org/1999/xlink" xmlns:a="http://ns.adobe.com/AdobeSVGViewerExtensions/3.0/"
	 x="0px" y="0px" width="341.679px" height="322.137px" viewBox="0 0 341.679 322.137" enable-background="new 0 0 341.679 322.137"
	 xml:space="preserve">
<g>
	<path fill-rule="evenodd" clip-rule="evenodd" d="M196.74,116.538c0.721,0.498,1.448,0.979,1.619,0
		c1.313-0.579,1.313,3.818,0,3.239c-0.54,0-1.079,0-1.619,0C196.74,118.697,196.74,117.617,196.74,116.538z"/>
	<path fill-rule="evenodd" clip-rule="evenodd" d="M165.974,135.969c1.183,0.707,3.135,0.643,2.429,3.239
		C166.267,139.454,166.315,137.517,165.974,135.969z"/>
	<path fill-rule="evenodd" clip-rule="evenodd" d="M74.486,161.876C71.415,159.5,77.412,158.682,74.486,161.876L74.486,161.876z"/>
	<path fill-rule="evenodd" clip-rule="evenodd" d="M339.235,201.548c-2.035,0.697-4.338,1.061-4.049-2.429
		c-5.866,9.772,4.968,20.62,4.858,32.386c-3.361-2.446-4.844-9.7-4.049-13.764c-3.593-2.884-4.004-8.95-6.477-12.954
		C329.174,199.281,338.455,191.868,339.235,201.548z"/>
	<path fill-rule="evenodd" clip-rule="evenodd" d="M48.578,268.748c0.117-0.312,1.713-1.432,2.429-0.81
		C52.606,269.329,47.433,271.8,48.578,268.748z"/>
	<path fill-rule="evenodd" clip-rule="evenodd" d="M29.956,305.181c-3.181,2.376,1.981,5.934,4.048,3.238
		c-0.56-2.538-2.16-1.056-4.048-0.81c2.037-3.947,9.656-8.024,12.145-2.429c-1.11,1.858-3.334,2.604-4.858,4.048
		c0.775,1.654,1.654,3.204,2.429,4.858c3.018,0.488,5.121-2.07,7.287,0c-3.31,2.506-10.09,5.36-12.954,5.667
		c-0.137-2.835,2.849-2.549,4.048-4.048c-0.775-1.654-1.654-3.204-2.429-4.858c-2.607-0.178-3.426,1.433-6.477,0.81
		c-1.786-2.362-2.516-3.98-1.619-7.286c1.376-2.401,5.874-1.683,6.477-4.857C36.667,302.231,31.103,303.588,29.956,305.181z
		 M34.814,305.181c-0.476,3.575,4.372,2.794,3.239-0.81C36.521,304.19,36.266,305.284,34.814,305.181z"/>
	<path fill-rule="evenodd" clip-rule="evenodd" d="M2.429,308.419c2.196,1.22-1.288,3.493-1.619,4.858
		C-1.386,312.058,2.098,309.785,2.429,308.419z"/>
	<path fill-rule="evenodd" clip-rule="evenodd" d="M38.862,311.658c-0.379-2.521,2.036-2.894,3.238-1.619
		C41.906,311.463,40.708,311.884,38.862,311.658z"/>
	<path fill-rule="evenodd" clip-rule="evenodd" d="M32.385,312.468c2.361-1.19,2.361,3.619,0,2.429
		C32.385,314.087,32.385,313.278,32.385,312.468z"/>
	<path fill-rule="evenodd" clip-rule="evenodd" d="M29.146,315.707C32.858,316.247,28.496,320.608,29.146,315.707L29.146,315.707z"
		/>
	<path fill-rule="evenodd" clip-rule="evenodd" d="M42.101,318.135c1.746,4.709-5.13,5.616-4.048,0.81
		C38.992,318.265,40.223,317.876,42.101,318.135z"/>
	<path fill-rule="evenodd" clip-rule="evenodd" d="M176.5,72.818c-3.629,1.224,1.326,2.775,0.81,5.667
		c-8.288,13.757-23.069,33.057-42.911,21.051c-1.472,0.957-0.637,4.221-1.62,5.667c3.688,2.76,6.517,6.056,11.335,8.906
		c4.439,2.625,10.712,3.347,13.764,6.477c1.72,1.764,3.015,6.252,4.048,8.906c1.11,2.851,3.661,5.736,1.619,8.906
		c-3.773-0.004-4.046-3.51-4.858-6.477c-1.497,0.122-0.497,2.742-1.619,3.239c-5.101-2.186-6.433-8.14-10.525-11.335
		c-4.649-0.208-8.318-1.397-11.335-3.238c-1.625,2.029,0.663,5.332,2.429,6.477c7.005,29.158,17.378,54.949,25.908,82.582
		c0.117,2.545-2.076,2.781-4.048,3.238c-0.354,2.783,0.32,4.538,0.81,6.478c-2.826,2.571-7.433,3.362-12.145,4.048
		c-2.575,7.95-12.746,8.305-21.05,10.525c-3.707,18.785-5.689,38.354,8.096,49.387c2.081,1.665,6.092,1.049,6.477,4.858
		c9.515,1.28,18.954,2.637,28.337,4.048c3.29-6.261,2.404-16.038-2.429-20.24c-0.114,7.271-4.713,14.044-10.525,12.953
		c-0.006-4.153,1.186-5.312,0-8.905c-2.094-3.73-11.44-2.908-13.764,0c-2.886-3.092,2.507-10.644,7.287-11.335
		c-7.749-3.586-9.087-13.582-14.573-19.431c3.057-1.961,4.817,2.61,7.287,4.048c4.031,2.346,9.398,3.117,12.145,6.477
		c1.188-2.589,2.317-5.239,2.429-8.905c4.236,3.32,8.356,6.757,8.096,14.573c6.596-2.164,9.758,2.192,16.193,2.429
		c-1.339,4.868-6.743,5.671-12.145,6.477c0.833,5.104,5.814,6.061,4.857,12.954c3.064-1.523,5.286-3.89,10.525-3.238
		c0.832,1.866,2.787,2.61,2.429,5.668c-0.721,0.358-1.447,0.711-1.619,1.619c-3.586,0.348-5.127-1.351-5.667-4.049
		c-4.365,1.033-5.544,5.252-7.287,8.906c10.611,4.739,17.737-2.463,23.479-7.287c-1.922-8.872-4.358-17.231-4.048-28.337
		c-4.372-1.565-9.825-2.05-15.383-2.429c0.602-7.35-6.804-6.69-11.335-8.905c4.563-28.633,15.019-51.371,34.814-64.771
		c-2.956-5.14-5.817-10.375-6.477-17.812c-2.727-2.941-7.451-3.883-11.335-5.667c-0.576-3.741-3.28-5.355-5.667-7.287
		c0.546-3.565-1.829-7.247-3.239-10.525c-1.444-3.357-2.455-7.184-4.048-10.525c-2.689-5.64-8.039-9.377-8.906-15.383
		c2.416,0.013,2.752,2.105,4.857,2.429c0.104-4.422-3.342-5.293-3.238-9.715c5.366,0.545,10.429,10.757,12.144,17.812
		c5.615,5.45,10.597,11.534,14.573,18.622c3.955,0.094,8.532-0.436,11.335,0.81c1.436-0.712-2.081-3.252-1.619-5.667
		c2.821-1.715,3.84-8.214,0.81-10.525c-0.246-2.136,1.69-2.088,3.238-2.429c0.763-3.291-4.699-2.491-2.429-4.857
		c0.297-3.984,1.403,2.089,3.239,1.619c2.599-7.032-3.541-8.41-5.668-12.954c1.066-2.042,2.658,2.123,4.857,1.619
		c-3.548-1.667-1.179-5.969,0.811-1.619c2.042-1.066-2.123-2.658-1.62-4.858c2.195,0.504,2.016,3.383,4.858,3.239
		c-0.506-1.923-1.089-3.769-3.238-4.048c0.604-3.737,3.201,2.812,5.667,2.429c-2.953-3.523-5.442-7.512-8.097-11.334
		c4.56,0.309,9.002,7.723,13.764,10.525c17.32-9.87,39.97,11.062,28.337,28.337c2.897,3.311,8.542,3.873,10.525,8.097
		c-5.697,0.569-8.05-2.205-11.335-4.048c-2.664,1.941,2.946,2.388,1.62,5.667c-0.283,0.913-3.994,2.326-1.62,3.238
		c-1.91,1.479-5.109-0.801-8.096,0.81c4.833,5.392,13.723,6.528,17.002,13.763c1.054,2.324,0.347,5.107,1.619,8.097
		c1.475,2.304,4.448,3.108,6.478,4.857c-0.517,3.532-4.147,3.949-6.478,5.668c-0.719,11.682-2.785,21.944-12.145,26.718
		c3.99,12.742,9.666,23.799,11.335,38.862c-1.177,1.251-4.145,0.713-6.477,0.81c-1.491,1.747-0.873,5.604-2.43,7.286
		c-3.834-0.326-5.571,1.445-9.715,0.81c-0.18,7.585-4.505,15.561-5.668,23.479c-1.104,7.529,2.324,15.07-1.619,21.05
		c4.002,1.719,9.066,2.135,13.764,1.62c6.12-0.671,9.799-3.786,12.954-6.478c-0.646,4.481-2.252,8.004-6.477,8.906
		c7.84,0.148,27.021,1.925,40.481,0.81c-0.539-5.244-0.98-5.977,0.81-10.525c-5.952,2.219-10.834,1.229-16.192-0.81
		c5.876-2.76,8.809-8.463,17.812-8.097c-3.531-5.707-10.682-6.511-15.383-10.524c-5.365-4.581-7.605-10.97-12.954-15.384
		c-0.032,5.699,1.644,9.691,3.238,13.764c2.614-0.58,8.695,1.803,5.667,6.478c-5.502,0.104-6.674-4.12-8.096-8.097
		c-2.282,3.661,2.178,7.516,1.619,12.145c-2.389,1.098-5.013,1.014-6.478-0.81c0.202-3.847,2.481-5.615,3.239-8.905
		c-2.583-0.528-4.67,10.229-11.335,5.667c-0.585-2.474,0.828-2.95,0.81-4.857c1.355-1.431,2.713,0.719,5.667,0
		c4.959-3.138,2.745-13.448,3.239-21.051c-3.846,0.473-2.933,5.704-6.478,6.478c-3.734,0.39-6.129-3.604-4.048-6.478
		c2.139,0.021,5.073-0.755,4.048,2.429c7.133-1.404,2.612-14.096,4.048-23.479c1.158-7.565,4.755-11.387,8.097-15.384
		c-0.354-0.996-1.036-1.662-2.429-1.619c5.406,0.607,8.072-5.068,12.145-8.096c-7.227,1.936-14.821,7.793-20.241,0.81
		c0.59-1.84-1.458-6.316,1.619-5.668c3.078-0.648,1.03,3.828,1.619,5.668c5.976,2.005,12.479-1.224,16.193-4.049
		c12.291-0.878,28.552-3.883,38.052,1.62c0.322-2.658-2.264-1.381-4.048-2.43c-2.451-1.439-3.39-2.5-5.667-3.238
		c-11.035-3.576-25.729-13.519-21.051-31.575c4.311-6.535,17.184-8.656,15.383-18.622c-2.494-0.605-0.986,2.792-4.048,1.619
		c-0.719-1.44-2.26-2.058-1.619-4.858c0.938-1.497,7.442,2.149,4.857-2.429c8.13,5.919,0.997,14.567-4.048,18.621
		c4.027,0.929,8.311-0.739,12.145,1.619c3.649-0.128,3.258-4.298,6.477-4.857c0.987,4.796-2.988,7.932-6.477,5.668
		c0.189,3.049,3.049,3.428,3.238,6.477c-0.49,5.178-3.571,7.764-9.716,7.287c-1.914-2.088-2.317-6.323,0.81-7.287
		c2.592,0.107,3.562,1.836,3.239,4.857c8.449-5.123-0.835-13.242-8.906-12.145c-2.77,0.377-3.384,2.47-6.477,2.43
		c-1.733,1.536-2.341,9.664-3.239,14.573c1.44,1.512,2.058-0.658,4.858,0c-0.466,1.423,0.979,4.757-0.81,4.857
		c5.531,6.613,12.783,11.505,22.669,13.764c6.398,6.286,15.049,10.32,18.622,19.432c5.022,4.169,6.411,8.244,8.096,14.573
		c1.846-1.112,3.044,2.087,3.239,0c7.851,26.548-3.923,53.256-25.099,63.96c1.982,4.765,6.762,6.731,12.145,8.097
		c-4.971,6.45-17.509,0.699-22.67-2.429c-14.774,7.604-44.436,5.622-60.723,0.81c1.637,4.571,7.213,5.202,5.668,12.954
		c-3.533,2.152-8.94,2.228-8.097-4.049c0.957-0.932,2.862-0.916,4.858-0.81c-2.143-7.599-12.568-8.973-20.241-9.715
		c-16.491-1.595-35.696-2.067-51.816-4.858c-2.977,0.532-4.032,2.985-5.667,4.858c13.093-4.179,21.404,9.633,12.145,15.383
		c-2.35-0.62-4.657-1.28-5.667-3.238c-0.036-2.465,1.709-3.148,2.429-4.858c2.476-0.587,2.381,1.397,4.857,0.81
		c-4.262-13.024-25.453,0.104-37.243,0c-1.755,1.548,2.843,3.588,2.429,6.478c-10.638-8.618-28.197-6.097-46.149-12.954
		c-13.55-5.176-24.016-10.183-44.53-8.906c3.401,1.997,7.701,3.094,10.525,5.668c-2.929,0.354-5.503-2.683-8.906-3.239
		c-4.558-0.744-10.966,0.167-15.383,0.81c-13.951,2.031-20.678,11.078-29.956,17.003c-1.768,3.349-8.705,8.375-12.145,4.857
		c1.208-2.301,4.089-2.928,7.287-3.238c3.515-8.09,13.926-9.283,13.764-21.051c16.405-1.407,30.032-5.592,33.195-20.24
		c2.682,4.327-1.875,8.36-2.429,12.145c8.646-4.415,28.48-15.327,24.289-30.767c-1.343-4.945-12.813-10.914-17.002-2.429
		c0.506,1.923,4.983-0.126,5.667,1.619c0.526,2.955-0.545,4.312-1.619,5.668c-6.558,0.62-8.827-3.048-8.096-9.716
		c6.927-9.004,25.891-4.735,24.289,8.906c1.131,0.813,5.123-2.398,8.096-2.43c0.719,1.44,2.26,2.059,1.619,4.858
		c-2.325,2.229-4.298-0.46-6.477-0.81c-5.87,8.434-9.891,18.716-20.241,22.669c10.246-1.052,21.163-1.767,33.195,0
		c4.15-14.451-4.737-28.518-0.81-44.529c-3.312-2.625-9.407-2.468-11.335-6.477c-5.783,0.812-11.835,0.216-16.192-2.429
		c1.115-1.044,0.801-3.518,0.81-5.668c-0.468-1.961-3.057-1.801-4.858-2.429c-2.296-2.562-2.823-6.892-8.096-6.478
		c0.198-8.999,7.143-13.655,5.667-21.859c2.711-3.496,2.797-9.617,7.287-11.335c2.104-5.686,2.517-12.594,5.667-20.241
		c0.102-0.246,2.214-1.115,2.429-1.619c1.497-3.52,2.3-8.416,4.048-12.954c1.459-3.79,3.202-7.487,4.857-11.335
		c3.726-8.66,10.082-18.3,10.525-22.669c1.011-9.965-7.712-16.112-10.525-25.908c-1.634,5.112-0.013,13.48-4.048,16.192
		c-1.442-0.593-0.117-1.472,0-2.429c-2.049-1.731-3.513,4.008-5.667,4.858c0-0.81,0-1.62,0-2.429
		c-1.099,0.25-0.672,2.027-0.81,3.239c-2.558-1.116-4.886,2.004-5.667,0c-1.259-2.878,2.75-0.489,2.429-2.429
		c-0.162-2.806-0.674-5.263-4.048-4.857c2.276-3.661,1.893-9.982,3.238-14.573c-0.745-2.207-2.531,1.131-4.857,0
		c0.119-1.77,2.04-1.739,4.048-1.62c2.89-13.377,1.314-18.669-4.858-28.337c1.183,1.158,3.135,1.19,2.429-1.619
		c-0.241-2.859-1.622,3.426-2.429,0c-0.775-2.934,3.495-0.823,4.048-2.429c0.875-4.824,10.265-7.328,10.525-15.383
		c-4.467-2.28-9.818-3.676-12.954-7.287c2.673-4.613,11.4-3.173,14.573-7.287c-1.645-3.15-1.427-6.316,0-9.715
		c2.151,0.008,4.624-0.306,5.667,0.81c1.603-4.334,4.894-6.98,6.477-11.335c10.402-2.202,20.576-4.063,22.669,8.906
		c3.468,0.5,3.301-2.636,6.477-2.429c1.333,1.365,1.759,3.639,3.239,4.858c-8.137,8.071,8.355,9.589,17.002,10.525
		c-1.794,2.055-5.292,3.689-8.096,4.858c-3.133,1.306-6.729,1.797-9.716,3.239c-1.058,1.91-0.342,5.595-1.619,7.287
		c1.846,0.226,3.043-0.195,3.239-1.62c2.445,1.722-2.319,3.015-2.429,4.858c1.222,1.477,0.859,4.539,2.429,5.667
		c-4.539,2.585-7.377,5.038-5.667,12.145c-2.886,1.433-7.375,1.261-10.525,2.429c3.204,4.893,12.708,3.485,15.383,8.906
		c5.264,0.673,7.843,4.031,10.525,7.287c1.907,0.019,2.384-1.395,4.858-0.81c-1.587,3.424,4.232,5.757,6.477,9.716
		c7.968-4.446,13.539-11.29,23.479-13.764c0.227-1.846-0.195-3.043-1.619-3.239c5.772-3.404,5.405-12.946,13.764-13.764
		c2.275-3.757,1.557-12.562-3.238-15.383c-3.108-0.41-0.535,4.862-3.238,4.858c-2.557-0.413-2.24-3.697-3.239-5.667
		c2.491-5.748,12.258-6.203,9.716-14.573c2.544-1.252,4.517-0.518,6.477,0.81c-4.096,7.506,5.293,10.725,8.906,15.383
		c-1.76,3.537-5.295,4.435-6.477,0c-3.897,2.58-4.849,8.105-5.668,13.764c1.693,2.895,5.81,3.366,8.097,5.667
		c0.026,2.456-2.841,2.017-4.858,2.429c-5.902,4.029-4.714,11.378-4.048,19.431c-7.88,0.366-0.295-7.082-3.238-10.525
		c-2.231-1.993-2.342,3.042-4.048,4.048C175.865,77.23,178.753,72.453,176.5,72.818z M76.105,84.152
		c1.784,0.342,4.466-2.425,2.429-3.238C78.774,83.043,75.393,81.551,76.105,84.152z M85.011,86.582
		c0.221-1.103-0.501-3.161-0.81-1.619C83.981,86.064,84.703,88.123,85.011,86.582z M77.724,98.726c0.774,1.508-2.425,2.706,0,3.238
		c-0.231-1.428,3.812-2.507,1.62-3.238C79.172,99.704,78.445,99.224,77.724,98.726z M72.057,106.013
		c2.489-0.479,1.941-3.997,3.238-5.667C72.419,100.438,72.038,103.024,72.057,106.013z M231.554,186.975
		c2.167,0.802,1.004,4.933,4.048,4.858c1.043-2.493,1.573-9.726,0.81-11.335C235.383,183.248,231.921,183.565,231.554,186.975z
		 M264.749,254.984c7.046,7.797,15.604,14.082,28.337,16.192c3.764-3.792,7.568-7.545,9.716-12.953
		c0.826,4.187,1.485,4.072,0.81,8.905c5.359-1.388,7.788-5.706,10.525-9.716c-2.715,0.556-2.96-1.357-3.239-3.238
		c-0.104-4.451,8.417-5.882,8.906-0.81c-3.534,5.911-7.698,11.193-12.954,15.383c8.577-0.059,10.571-6.7,16.192-9.715
		c-0.364,2.254,4.413-0.635,4.049,1.619c3.587,8.309-11.899,4.194-14.573,8.905c3.771,2.437,13.1-0.686,11.334,7.287
		c-1.343,1.355-4.753,0.645-7.286,0.81c-1.692-2.544,0.736-4.517-0.81-6.478c-4.413-0.364-6.653,1.444-11.335,0.811
		c-1.204,2.304-1.474,5.543-3.238,7.286c9.784-3.402,11.429,6.289,20.24,3.238c-1.336,4.712-6.182,8.941-12.145,6.478
		c0.454,3.324,3.207,4.35,4.858,6.477c10.734-8.659,32.522-31.313,17.002-46.148c0.579,1.312-3.817,1.312-3.238,0
		c3.534,1.105,1.723-3.135,4.857-2.429c2.38,0.858,3.396,3.08,4.857,4.857c0.077-5.516,2.22-5.295,2.43-11.335
		c-3.548-0.59,0.652,1.609-1.62,1.619c-1.209-5.008-8.346-8.371-8.905-11.334c2.555-0.396,2.858,1.459,5.667,0.81
		c-7.489-13.361-21.562-31.58-42.91-29.147c-6.72,0.767-9.892,4.717-15.383,8.097c0.72-1.71,2.465-2.393,2.429-4.857
		c-4.007,2.2-8.174,4.24-9.716,8.905c6.238-1.243,15.393-1.662,18.622,2.43c-0.336-6.813,3.753-9.201,6.477-12.954
		c1.333,5.953,6.159,8.414,6.478,15.383c6.924-2.227,12.682,2.695,18.621,4.048c-7.775,0.321-10.581,5.611-18.621,5.667
		c2.057,3.341,2.503,8.292,4.048,12.145c0.858-6.631,12.447-11.549,14.573-3.238c-0.997,2.679-5.03,6.617-7.286,3.238
		c-1.714-1.701,0.952-3.156,1.619-4.857c-11.688,5.315-11.025,22.979-25.908,25.099c0.949,1.209,3.364,0.953,3.238,3.238
		C283.197,261.361,269.248,259.396,264.749,254.984z M282.56,258.223c9.58,0.674,13.104-4.709,15.383-11.335
		c0.092,0.987,0.242,1.917,1.62,1.619c2.615-4.634,3.152-12.48,0-17.002c0.428,8.794-5.554,11.179-8.906,16.192
		c-1.568-2.974-3.172-9.475-1.619-12.954c-8.372,1.343-13.832,5.599-20.241,8.905c4.347-6.179,5.409-15.641,12.954-18.621
		c-6.501-1.056-8.787-6.326-14.573-8.096c-9.709,11.712-8.274,34.673,5.668,38.861c7.883,2.369,10.681-2.975,13.764-4.857
		C285.473,253.579,284.265,256.149,282.56,258.223z M210.503,255.793c-1.652,10.707-6.049,21.339-3.238,34.005
		c-0.112,2.856-2.317,3.62-2.429,6.477c5.411-3.009,12.178-5.67,13.764-12.145c2.107-8.607-4.007-19.446-3.239-29.146
		c-1.035-0.044-1.121-1.037-2.429-0.81C212.721,255.313,211.157,255.097,210.503,255.793z M105.251,285.75
		c2.873-2.02,7.736,0.566,9.716-0.811c-1.754-4.366-0.215-10.494,1.619-13.764c-2.971-3.775-1.478-12.016-5.667-14.573
		C110,266.88,104.134,276.087,105.251,285.75z M291.466,278.463c0-1.35,0-2.699,0-4.048c-8.317-2.482-17.408-8.495-22.67-11.335
		C275.603,268.958,281.44,275.806,291.466,278.463z M127.921,286.56c-2.37,0.211-2.488-1.831-4.858-1.62
		C122.146,288.233,128.099,288.787,127.921,286.56z M95.536,287.37c-9.818,0.171-28.025-1.041-37.243,2.429
		c9.98,0.615,25.202,1.35,34.004,5.667C91.051,290.441,94.965,290.577,95.536,287.37z M163.545,301.133
		c2.032-1.477,3.342-3.676,4.858-5.668c-19.873-2.797-41.377-3.961-60.722-7.286c3.465,8.14,13.748,9.461,17.812,17.002
		c11.62,2.695,19.091-2.812,26.717-6.477c-0.309,3.227-5.992,5.305-4.857,7.286c6.52-1.576,12.984-3.208,15.383-8.906
		C164.802,298.116,161.984,301.051,163.545,301.133z M293.895,301.943c3.396,0.428,4.523-1.415,7.287-1.619
		c-0.71-2.799-1.702-5.315-4.049-6.478C297.746,298.236,294.789,299.057,293.895,301.943z M218.6,298.705
		c1.845,0.226,3.043-0.195,3.238-1.62C220.404,297.269,217.784,296.269,218.6,298.705z M107.681,301.133
		c-1.978-0.451-1.725-3.133-4.858-2.429C102.252,301.228,107.035,302.502,107.681,301.133z"/>
</g>
</svg>
